<svg xmlns="http://www.w3.org/2000/svg" viewBox="0 0 400 220"><defs><style>.cls-1,.cls-4{fill:#121221;}.cls-2,.cls-3{fill:#366ce1;}.cls-2,.cls-4{opacity:0.38;}</style></defs><title>2Uinc</title><g id="Слой_2" data-name="Слой 2"><g id="Work_space" data-name="Work space"><g id="_2Uinc" data-name="2Uinc"><polygon class="cls-1" points="160 70 160 130 180 130 180 150 120 150 120 130 140 130 140 70 120 70 120 50 180 50 180 70 160 70"/><polygon class="cls-1" points="291.01 50 291.01 150 271.01 150 211.01 80.59 211.01 150 191.01 150 191.01 50 211.01 50 271.01 119.41 271.01 50 291.01 50"/><path class="cls-1" d="M379.29,110H400a50,50,0,1,1,0-20H379.29a30,30,0,1,0,0,20Z"/><path class="cls-1" d="M90,120v20H10V100A40.028,40.028,0,0,1,50,60,20,20,0,1,0,30,40H10A39.987,39.987,0,1,1,50,80a19.994,19.994,0,0,0-20,20v20Z"/><path class="cls-2" d="M30,120H80v20H20V120H10V100A40.028,40.028,0,0,1,50,60,20,20,0,1,0,30,40H10A39.987,39.987,0,1,1,50,80a19.994,19.994,0,0,0-20,20Z"/><rect class="cls-1" x="10" y="120" width="10" height="20"/><rect class="cls-1" x="80" y="120" width="10" height="20"/><path class="cls-3" d="M100,120v50A50,50,0,0,1,0,170V120H20v50a30,30,0,0,0,60,0V120Z"/><path class="cls-4" d="M100,120v50A50,50,0,0,1,0,170V120H20v50a30,30,0,0,0,60,0V120Z"/></g></g></g></svg>