<svg xmlns="http://www.w3.org/2000/svg" viewBox="0 0 460 130.07"><title>42 west</title><rect x="35.915" y="0.07" width="14.085" height="130"/><rect y="0.07" width="13.268" height="77"/><rect y="64.352" width="50" height="12.718"/><rect x="60" y="0.07" width="13.69" height="50"/><rect x="60" y="0.07" width="50" height="13.113"/><rect x="97.437" y="0.07" width="12.563" height="76.394"/><rect x="60" y="116.62" width="50" height="13.451"/><ellipse cx="85" cy="96.465" rx="45.291" ry="9.936" transform="translate(-43.389 103.299) rotate(-51.662)"/><path d="M130,80.07H120V.07l19.986.057Q134.993,40.1,130,80.07Z"/><path d="M220,80.07H210Q204.909,40.035,199.817,0L220,.07Z"/><path d="M120,80.07q10,25,20,50h10q10-25,20-50,10,25,20,50h10q10-25,20-50l-10-9.845-13.986,40.31-18.8-50.465H163.1q-8.895,24.6-17.789,49.2l-15.465-39.3Z"/><rect x="230" y="0.07" width="14.31" height="130"/><path d="M230,120.07l69.831-9.788q.084,9.894.169,19.788H230Z"/><path d="M230,.07h70q-.084,10.361-.169,20.719L230,10.07Z"/><path d="M230,60.07,300.084,54V74.028L230,70.07Z"/><rect x="310" y="0.07" width="70" height="13.535"/><rect x="310" y="116.704" width="70" height="13.366"/><path d="M390,.07h70L459.972,20.2,425,10.134,390,20.2Z"/><path d="M420,.07h10q4.929,64.91,9.859,129.817H410.113Q415.056,64.979,420,.07Z"/><path d="M310,90.07,329.831,90,320,120.07H310Z"/><path d="M370,10.07h10v30l-20.084-.1Q364.958,25.021,370,10.07Z"/><rect x="310" y="10.07" width="14.423" height="40"/><rect x="365.493" y="80.07" width="14.507" height="40"/><path d="M310,50.07l60,39.169,10-9.169L319.606,40.31Z"/></svg>