<svg xmlns="http://www.w3.org/2000/svg" viewBox="0 0 280 140"><defs><style>.cls-1{fill:#366ce1;}.cls-2{fill:#121221;}</style></defs><title>8x8</title><g id="Слой_2" data-name="Слой 2"><g id="Work_space" data-name="Work space"><g id="_8x8" data-name="8x8"><polygon class="cls-1" points="190 34.14 154.14 70 190 105.86 190 120 175.86 120 140 84.14 104.14 120 90 120 90 105.85 125.85 70 90 34.15 90 20 104.15 20 140 55.85 175.85 20 190 20 190 34.14"/><path class="cls-2" d="M66.44,70a40,40,0,1,0-52.88,0,40,40,0,1,0,52.88,0ZM20,40A20,20,0,1,1,40,60,19.994,19.994,0,0,1,20,40Zm20,80a20,20,0,1,1,20-20A19.994,19.994,0,0,1,40,120Z"/><path class="cls-2" d="M266.44,70a40,40,0,1,0-52.88,0,40,40,0,1,0,52.88,0ZM220,40a20,20,0,1,1,20,20A19.994,19.994,0,0,1,220,40Zm20,80a20,20,0,1,1,20-20A19.994,19.994,0,0,1,240,120Z"/></g></g></g></svg>