<svg xmlns="http://www.w3.org/2000/svg" viewBox="0 0 790 150"><defs><style>.cls-1{fill:#121221;}.cls-2{fill:#366ce1;}</style></defs><title>a le cabre</title><g id="Слой_2" data-name="Слой 2"><g id="Work_space" data-name="Work space"><g id="a_le_cabre" data-name="a le cabre"><path class="cls-1" d="M387.51,116.86q6.255,8.22,12.49,16.43a50,50,0,1,1,0-66.58q-6.24,8.22-12.49,16.43a30,30,0,1,0,0,33.72Z"/><path class="cls-2" d="M210,143.91A50,50,0,0,1,136.09,100V10h20v90a30.006,30.006,0,0,0,38.71,28.71Z"/><path class="cls-1" d="M480.992,59.472C432.485,29,381.344,77.64,406.737,126.235c3.188,6.1,10.816,13.754,16.91,16.959,20.821,10.949,41.7,7.818,56.353-3.2V150h20V93.985A40.743,40.743,0,0,0,480.992,59.472Zm-12.9,65.161c-29.752,18.1-60.828-12.976-42.728-42.728a19.578,19.578,0,0,1,6.538-6.538c29.752-18.1,60.828,12.976,42.728,42.728A19.578,19.578,0,0,1,468.1,124.633Z"/><path class="cls-1" d="M80.992,59.472C32.485,29-18.656,77.64,6.737,126.235c3.188,6.1,10.816,13.754,16.91,16.959,20.821,10.949,41.7,7.818,56.353-3.2V150h20V93.985A40.743,40.743,0,0,0,80.992,59.472ZM68.1,124.633c-29.752,18.1-60.828-12.976-42.728-42.728a19.578,19.578,0,0,1,6.538-6.538c29.752-18.1,60.828,12.976,42.728,42.728A19.578,19.578,0,0,1,68.1,124.633Z"/><path class="cls-1" d="M610,100a49.99,49.99,0,0,0-80-39.99V0H510V100a50,50,0,0,0,100,0Zm-20,0a30,30,0,1,1-30-30A30,30,0,0,1,590,100Z"/><path class="cls-1" d="M788.99,110a50.01,50.01,0,0,0,0-20,50,50,0,0,0-97.98,0,50.01,50.01,0,0,0,0,20,49.987,49.987,0,0,0,82.67,26.94q-7.965-6.375-15.94-12.75A29.992,29.992,0,0,1,711.72,110ZM740,70a29.979,29.979,0,0,1,28.28,20H711.72A29.979,29.979,0,0,1,740,70Z"/><path class="cls-2" d="M278.99,110a50.01,50.01,0,0,0,0-20,50,50,0,0,0-97.98,0,50.01,50.01,0,0,0,0,20,49.987,49.987,0,0,0,82.67,26.94q-7.965-6.375-15.94-12.75A29.992,29.992,0,0,1,201.72,110ZM230,70a29.979,29.979,0,0,1,28.28,20H201.72A29.979,29.979,0,0,1,230,70Z"/><path class="cls-1" d="M695.72,57.13q-5.145,8.58-10.29,17.15A29.99,29.99,0,0,0,640,100v50H620V50h20V60.01a49.958,49.958,0,0,1,55.72-2.88Z"/></g></g></g></svg>