<svg id="Main" xmlns="http://www.w3.org/2000/svg" viewBox="0 0 803.461 225.414"><defs><style>.cls-1{fill:#366ce1;}.cls-2{fill:#121221;}</style></defs><title>abap</title><g id="ABAP_SAP" data-name="ABAP SAP"><path class="cls-1" d="M312.3,465.4l9,22.5a104.11,104.11,0,0,1-38.146,0l9-22.5,10.074-25.186Z" transform="translate(-98.27 -384.586)"/><path class="cls-1" d="M98.27,384.586V570H407.293L592.707,384.586ZM184.8,532.917c-30.624,0-56.044-13.362-60.945-30.9a22.664,22.664,0,0,1,0-12.361h28.832c-3.159,1.817-4.97,3.931-4.97,6.18s1.811,4.364,4.97,6.181c6.409,3.7,18.393,6.18,32.113,6.18,20.482,0,37.083-5.531,37.083-12.361s-16.6-12.361-37.083-12.361c-18.306,0-34.753-4.777-46.069-12.36-9.79-6.564-15.735-15.223-15.735-24.722,0-20.482,27.669-37.083,61.8-37.083,30.624,0,56.045,13.362,60.946,30.9a22.664,22.664,0,0,1,0,12.361H216.91c3.158-1.817,4.969-3.931,4.969-6.18s-1.811-4.364-4.969-6.181c-6.409-3.7-18.393-6.18-32.114-6.18-20.482,0-37.083,5.531-37.083,12.361s16.6,12.361,37.083,12.361c18.307,0,34.753,4.777,46.069,12.361,9.79,6.563,15.736,15.222,15.736,24.721C246.6,516.316,218.931,532.917,184.8,532.917Zm241.038-49.444H388.752v49.444H339.308l-9.03-22.577a99.512,99.512,0,0,1-56.106,0l-9.03,22.577H240.42l13.115-32.781,22.584-56.465,13.745-34.363h24.722l13.745,34.363,22.584,56.465,13.115,32.781V409.308h61.8c34.135,0,61.805,16.6,61.805,37.083S459.969,483.473,425.834,483.473Zm0-49.443H388.752v24.722h37.082c20.482,0,37.083-5.532,37.083-12.361S446.316,434.03,425.834,434.03Z" transform="translate(-98.27 -384.586)"/><path class="cls-2" d="M592.707,424.586H901.73V610H407.293Z" transform="translate(-98.27 -384.586)"/><path class="cls-1" d="M673.053,455.488H660.692L635.97,579.1h12.361l8.653-43.264h19.777l8.653,43.264h12.361Zm-13.6,67.985,7.417-37.082,7.416,37.082Z" transform="translate(-98.27 -384.586)"/><path class="cls-1" d="M790.482,455.488H778.121L753.4,579.1H765.76l8.653-43.264H794.19l8.653,43.264H815.2Zm-13.6,67.985,7.416-37.082,7.417,37.082Z" transform="translate(-98.27 -384.586)"/><path class="cls-1" d="M745.13,517.293a33.992,33.992,0,0,0-19.543-61.805H697.775V579.1h27.812a33.992,33.992,0,0,0,19.543-61.8Zm-34.994-49.444h15.451a21.632,21.632,0,1,1,0,43.264H710.136Zm15.451,98.888H710.136V523.473h15.451a21.632,21.632,0,1,1,0,43.264Z" transform="translate(-98.27 -384.586)"/><path class="cls-1" d="M843.016,455.488H815.2V579.1h12.361V523.473h15.451a33.993,33.993,0,0,0,0-67.985Zm0,55.625H827.565V467.849h15.451a21.632,21.632,0,1,1,0,43.264Z" transform="translate(-98.27 -384.586)"/></g></svg>