<svg xmlns="http://www.w3.org/2000/svg" viewBox="0 0 529.85 100"><defs><style>.cls-1{fill:#121221;}.cls-2{fill:#366ce1;}</style></defs><title>abbyy</title><g id="Слой_2" data-name="Слой 2"><g id="Work_space" data-name="Work space"><g id="abbyy"><path class="cls-1" d="M210,30A30,30,0,0,0,180,0H110V100h70a29.991,29.991,0,0,0,22.35-50A29.862,29.862,0,0,0,210,30ZM130,20h50a10,10,0,0,1,0,20H130Zm50,60H130V60h50a10,10,0,0,1,0,20Z"/><path class="cls-2" d="M320,30A30,30,0,0,0,290,0H220V100h70a29.991,29.991,0,0,0,22.35-50A29.862,29.862,0,0,0,320,30ZM240,20h50a10,10,0,0,1,0,20H240Zm50,60H240V60h50a10,10,0,0,1,0,20Z"/><path class="cls-2" d="M60.77,1.95,59.99,0H40.01l-.78,1.94L0,100H21.55l11.2-28h34.5l11.2,28H100ZM40.75,52,50,28.87,59.25,52Z"/><polygon class="cls-1" points="382.78 46.46 379.95 50 380 50 380 100 360 100 360 50 357.17 46.46 320 0 345.61 0 369.97 30.45 394.33 0 419.95 0 382.78 46.46"/><polygon class="cls-2" points="492.68 46.46 489.85 50 489.9 50 489.9 100 469.9 100 469.9 50 467.07 46.46 429.9 0 455.51 0 479.87 30.45 504.23 0 529.85 0 492.68 46.46"/></g></g></g></svg>