<svg xmlns="http://www.w3.org/2000/svg" viewBox="0 0 570 180"><defs><style>.cls-1{fill:#121221;}.cls-2{fill:#366ce1;}</style></defs><title>abivin</title><g id="Слой_2" data-name="Слой 2"><g id="Work_space" data-name="Work space"><g id="abivin"><polygon class="cls-1" points="570 40 570 140 550 140 490 70.59 490 140 470 140 470 40 490 40 550 109.41 550 40 570 40"/><path class="cls-1" d="M210,70a30,30,0,0,0-30-30H110V140h70a29.991,29.991,0,0,0,22.35-50A29.862,29.862,0,0,0,210,70ZM130,60h50a10,10,0,0,1,0,20H130Zm50,60H130V100h50a10,10,0,0,1,0,20Z"/><path class="cls-1" d="M60.77,41.95,59.99,40H40.01l-.78,1.94L0,140H21.55l11.2-28h34.5l11.2,28H100ZM40.75,92,50,68.87,59.25,92Z"/><polygon class="cls-1" points="389.98 40 350.76 138.07 349.99 140 329.99 140 329.22 138.07 290 40 311.54 40 339.99 111.14 368.45 40 389.98 40"/><rect class="cls-1" x="240" y="20" width="20" height="140"/><rect class="cls-2" x="420" y="20" width="20" height="140"/><rect class="cls-2" width="570" height="20"/><rect class="cls-1" y="160" width="570" height="20"/><rect class="cls-2" x="390" y="160" width="80" height="20"/><rect class="cls-1" x="210" width="80" height="20"/></g></g></g></svg>