<svg id="Complete" xmlns="http://www.w3.org/2000/svg" viewBox="0 0 750 220"><defs><style>.cls-1{fill:#121221;}.cls-2{fill:#366ce1;}</style></defs><title>accelo</title><g id="accelo"><rect class="cls-1" x="30" y="140" width="100" height="20" rx="10"/><rect class="cls-2" y="110" width="100" height="20" rx="10"/><rect class="cls-2" y="170" width="100" height="20" rx="10"/><rect class="cls-1" x="30" y="200" width="100" height="20" rx="10"/><rect class="cls-1" x="30" y="80" width="100" height="20" rx="10"/><path class="cls-1" d="M771.66,573.99A49.993,49.993,0,0,1,685,540V390h20V540a30,30,0,0,0,53.68,18.41Q765.16,566.2,771.66,573.99Z" transform="translate(-125 -390)"/><path class="cls-1" d="M825,490a50,50,0,1,0,50,50A50.005,50.005,0,0,0,825,490Zm0,80a30,30,0,1,1,30-30A30,30,0,0,1,825,570Z" transform="translate(-125 -390)"/><path class="cls-1" d="M329.65,490a50.005,50.005,0,0,0-50,50v50h20V550h60v40h20V540A50.005,50.005,0,0,0,329.65,490Zm-28.28,40a29.994,29.994,0,0,1,56.56,0Z" transform="translate(-125 -390)"/><path class="cls-1" d="M460.86,561.21,475,575.35a50,50,0,1,1,0-70.7l-14.14,14.14a30,30,0,1,0,0,42.42Z" transform="translate(-125 -390)"/><path class="cls-1" d="M550.86,561.21,565,575.35a50,50,0,1,1,0-70.7l-14.14,14.14a30,30,0,1,0,0,42.42Z" transform="translate(-125 -390)"/><path class="cls-1" d="M673.99,550a50.01,50.01,0,0,0,0-20,50,50,0,0,0-97.98,0,50.01,50.01,0,0,0,0,20,49.991,49.991,0,0,0,84.34,25.35l-14.14-14.14A29.99,29.99,0,0,1,596.72,550ZM625,510a29.979,29.979,0,0,1,28.28,20H596.72A29.979,29.979,0,0,1,625,510Z" transform="translate(-125 -390)"/></g></svg>