<svg xmlns="http://www.w3.org/2000/svg" viewBox="0 0 1390 220"><defs><style>.cls-1{fill:#121221;}.cls-2,.cls-3{fill:#366ce1;}.cls-2{opacity:0.38;}.cls-3{opacity:0.62;}</style></defs><title>accordant</title><g id="Слой_2" data-name="Слой 2"><g id="Work_space" data-name="Work space"><g id="accordant"><polygon class="cls-1" points="1280 60 1280 160 1260 160 1200 90.59 1200 160 1180 160 1180 60 1200 60 1260 129.41 1260 60 1280 60"/><path class="cls-1" d="M1020,60H970V160h50a50,50,0,0,0,0-100Zm0,80H990V80h30a30,30,0,0,1,0,60Z"/><path class="cls-1" d="M960,90a30,30,0,0,0-30-30H860V160h20V120h50a10,10,0,0,1,10,10v30h20V130a29.862,29.862,0,0,0-7.65-20A29.862,29.862,0,0,0,960,90Zm-80,10V80h50a10,10,0,0,1,0,20Z"/><path class="cls-1" d="M800,60a50,50,0,1,0,50,50A50.005,50.005,0,0,0,800,60Zm0,80a30,30,0,1,1,30-30A30,30,0,0,1,800,140Z"/><path class="cls-1" d="M608.28,120h20.71a50,50,0,1,1,0-20H608.28a30,30,0,1,0,0,20Z"/><path class="cls-1" d="M718.28,120h20.71a50,50,0,1,1,0-20H718.28a30,30,0,1,0,0,20Z"/><path class="cls-1" d="M1130.77,61.95l-.78-1.95h-19.98l-.78,1.94L1070,160h21.55l11.2-28h34.5l11.2,28H1170ZM1110.75,112,1120,88.87l9.25,23.13Z"/><path class="cls-1" d="M490.77,61.95,489.99,60H470.01l-.78,1.94L430,160h21.55l11.2-28h34.5l11.2,28H530ZM470.75,112,480,88.87,489.25,112Z"/><polygon class="cls-1" points="1390 60 1390 80 1350 80 1350 160 1330 160 1330 80 1290 80 1290 60 1390 60"/><ellipse class="cls-1" cx="100" cy="170" rx="100" ry="50"/><ellipse class="cls-1" cx="220" cy="95" rx="90" ry="45"/><ellipse class="cls-1" cx="350" cy="40" rx="80" ry="40"/><ellipse class="cls-2" cx="220" cy="95" rx="90" ry="45"/><ellipse class="cls-3" cx="350" cy="40" rx="80" ry="40"/></g></g></g></svg>