<svg id="Complete" xmlns="http://www.w3.org/2000/svg" viewBox="0 0 910 510"><defs><style>.cls-1{fill:#1c1e20;}.cls-2{fill:#121221;}.cls-3{fill:#366ce1;}</style></defs><title>accuranker</title><g id="accuranker"><path class="cls-1" d="M350,300V600H650V300ZM620,570H380V330H620Z" transform="translate(-45 -300)"/><path class="cls-2" d="M620,330v70L491.18,528.82Q470.585,514.42,450,500l-70,70V330Z" transform="translate(-45 -300)"/><path class="cls-3" d="M620,400V570H380l70-70q20.6,14.415,41.18,28.82Z" transform="translate(-45 -300)"/><path class="cls-2" d="M212.92,777.7q6.045,9.06,12.08,18.11A39.987,39.987,0,0,1,154.46,770V730A39.987,39.987,0,0,1,225,704.19q-6.03,9.06-12.08,18.11a20,20,0,0,0-38.46,7.7v40a20,20,0,0,0,38.46,7.7Z" transform="translate(-45 -300)"/><path class="cls-2" d="M292.92,777.7q6.045,9.06,12.08,18.11A39.987,39.987,0,0,1,234.46,770V730A39.987,39.987,0,0,1,305,704.19q-6.03,9.06-12.08,18.11a20,20,0,0,0-38.46,7.7v40a20,20,0,0,0,38.46,7.7Z" transform="translate(-45 -300)"/><path class="cls-3" d="M835,690a40,40,0,0,0-40,40v40a39.987,39.987,0,0,0,70.54,25.81q-6.03-9.06-12.08-18.11A20,20,0,0,1,815,770V760h60V730A40,40,0,0,0,835,690Zm-20,50V730a20,20,0,0,1,40,0v10Z" transform="translate(-45 -300)"/><path class="cls-2" d="M395,690V810H375v-5.35A40.012,40.012,0,0,1,315,770V690h20v80a20,20,0,0,0,40,0V690Z" transform="translate(-45 -300)"/><path class="cls-3" d="M955,690v20H925a19.994,19.994,0,0,0-20,20v80H885V690h20v5.35A39.884,39.884,0,0,1,925,690Z" transform="translate(-45 -300)"/><path class="cls-3" d="M515,660a50,50,0,0,0-100,0V810h20V719.99a49.99,49.99,0,0,0,54.94,3.35A29.8,29.8,0,0,1,495,740v70h20V740a49.726,49.726,0,0,0-10.01-30A49.726,49.726,0,0,0,515,680Zm-50,50a30.019,30.019,0,0,1-30-30V660a30,30,0,0,1,60,0v20a30.019,30.019,0,0,1-30,30Z" transform="translate(-45 -300)"/><path class="cls-2" d="M95,610a50.005,50.005,0,0,0-50,50V810H65V719.99a49.96,49.96,0,0,0,60,0V810h20V660A50.005,50.005,0,0,0,95,610Zm30,70a30,30,0,0,1-60,0V660a30,30,0,0,1,60,0Z" transform="translate(-45 -300)"/><path class="cls-3" d="M565,690a40,40,0,0,0-40,40v80h20V774.65a40.058,40.058,0,0,0,40,0V810h20V730A40,40,0,0,0,565,690Zm20,50a20,20,0,0,1-40,0V730a20,20,0,0,1,40,0Z" transform="translate(-45 -300)"/><path class="cls-3" d="M695,730v80H675V730a20,20,0,0,0-40,0v80H615V690h20v5.35A40.012,40.012,0,0,1,695,730Z" transform="translate(-45 -300)"/><path class="cls-3" d="M755,730a19.926,19.926,0,0,0,4.6,12.76A40.122,40.122,0,0,1,783.74,770,40.177,40.177,0,0,1,785,780v30H765V780a20.024,20.024,0,0,0-15.97-19.59h-.01A19.719,19.719,0,0,0,745,760a19.994,19.994,0,0,0-20,20v30H705V610h20V745.35a39.536,39.536,0,0,1,11.51-4.44A40.025,40.025,0,0,1,775,690h10v20H775A19.994,19.994,0,0,0,755,730Z" transform="translate(-45 -300)"/></g></svg>