<svg xmlns="http://www.w3.org/2000/svg" viewBox="0 0 565 279.371"><defs><style>.cls-1{fill:#e1dfdf;}.cls-2{fill:#366ce1;}.cls-3{fill:#121221;}</style></defs><title>acobot</title><g id="complete"><g id="acobot"><path class="cls-1" d="M341.033,579.533c-23.855,15.685-58.442,12.166-75.1-5.007-8.8-9.073-4.541-13.651-15.02-40.054-13.255-33.4-23.859-35.611-30.04-60.081-1.819-7.2-6.577-26.992,0-50.067,1.4-4.925,14.048-46.623,55.074-60.081a82.019,82.019,0,0,1,50.067,0c28.467,9.263,50.777,34.371,55.075,60.081,2.751,16.458-4.174,19.439,0,40.054,4.431,21.89,15.249,33.4,10.013,40.054-5.063,6.434-18.373-1.969-25.034,5.007-6.522,6.83,2.581,18.506,0,35.047C363.043,563.863,346.127,576.183,341.033,579.533Z" transform="translate(-217.5 -360.315)"/><path class="cls-2" d="M372.725,423.426l-13.417-23.237a11.616,11.616,0,0,0-15.869-4.252h0a11.618,11.618,0,0,1-17.427-10.06v0A11.618,11.618,0,0,0,314.4,374.256H287.562a11.618,11.618,0,0,0-11.617,11.618v0a11.617,11.617,0,0,1-17.426,10.06h0a11.617,11.617,0,0,0-15.87,4.252l-13.416,23.237a11.617,11.617,0,0,0,4.251,15.869l0,0a11.617,11.617,0,0,1,0,20.121l0,0a11.617,11.617,0,0,0-4.251,15.869l13.416,23.237a11.617,11.617,0,0,0,15.87,4.252h0a11.617,11.617,0,0,1,17.426,10.061v0a11.617,11.617,0,0,0,11.617,11.617H314.4a11.617,11.617,0,0,0,11.617-11.617v0a11.618,11.618,0,0,1,17.427-10.061h0a11.616,11.616,0,0,0,15.869-4.252l13.417-23.237a11.617,11.617,0,0,0-4.252-15.869l0,0a11.617,11.617,0,0,1,0-20.121l0,0A11.617,11.617,0,0,0,372.725,423.426Zm-64,50.965H293.232a11.616,11.616,0,0,1-10.061-5.809l-7.744-13.417a11.614,11.614,0,0,1,0-11.615l7.744-13.416a11.617,11.617,0,0,1,10.061-5.81h15.493a11.619,11.619,0,0,1,10.062,5.81l7.744,13.416a11.619,11.619,0,0,1,0,11.615l-7.744,13.417A11.618,11.618,0,0,1,308.725,474.391Z" transform="translate(-217.5 -360.315)"/><path class="cls-3" d="M260.925,564.513c-2.513,3.272.512,6.99,10.013,35.047,6.059,17.891,6.177,20.358,10.014,25.034,11.206,13.656,28.515,14.931,30.04,15.02a42.944,42.944,0,0,0,35.047-15.02c5.8-6.957,6.449-12.846,10.014-30.041,8.8-42.463,14.311-52.25,10.013-55.074-7.5-4.926-22.847,25.8-55.074,30.04C285.242,572.91,266.673,557.029,260.925,564.513Z" transform="translate(-217.5 -360.315)"/><path class="cls-2" d="M582.5,480h20a40,40,0,0,1-80,0V440a40,40,0,0,1,80,0h-20a20,20,0,0,0-40,0v40a20,20,0,0,0,40,0Z" transform="translate(-217.5 -360.315)"/><path class="cls-2" d="M662.5,400a40,40,0,0,0-40,40v40a40,40,0,0,0,80,0V440A40,40,0,0,0,662.5,400Zm20,80a20,20,0,0,1-40,0V440a20,20,0,0,1,40,0Z" transform="translate(-217.5 -360.315)"/><path class="cls-3" d="M642.5,480a40,40,0,0,0-40,40v40a40,40,0,0,0,80,0V520A40,40,0,0,0,642.5,480Zm20,80a20,20,0,0,1-40,0V520a20,20,0,0,1,40,0Z" transform="translate(-217.5 -360.315)"/><path class="cls-2" d="M462.5,400a40,40,0,0,0-40,40v80h20V470h40v50h20V440A40,40,0,0,0,462.5,400Zm-20,50V440a20,20,0,0,1,40,0v10Z" transform="translate(-217.5 -360.315)"/><path class="cls-3" d="M542.5,480a39.884,39.884,0,0,0-20,5.35V400h-20V560a40,40,0,0,0,80,0V520A40,40,0,0,0,542.5,480Zm20,80a20,20,0,0,1-40,0V520a20,20,0,0,1,40,0Z" transform="translate(-217.5 -360.315)"/><path class="cls-3" d="M722.5,560a20,20,0,0,0,40,0V550h20v10a40,40,0,0,1-80,0V400h20v80h60v20h-60Z" transform="translate(-217.5 -360.315)"/></g></g></svg>