<svg xmlns="http://www.w3.org/2000/svg" viewBox="0 0 300 418.21"><defs><style>.cls-1{fill:#121221;}.cls-2{fill:#366ce1;}</style></defs><title>actcad</title><g id="Complete"><g id="actcad"><path class="cls-1" d="M424.81,566.86q6.255,8.22,12.49,16.43a50,50,0,1,1,0-66.58q-6.24,8.22-12.49,16.43a30,30,0,1,0,0,33.72Z" transform="translate(-350 -181.79)"/><path class="cls-1" d="M600,500H550V600h50a50,50,0,0,0,0-100Zm0,80H570V520h30a30,30,0,0,1,0,60Z" transform="translate(-350 -181.79)"/><path class="cls-1" d="M500.77,501.95l-.78-1.95H480.01l-.78,1.94L440,600h21.55l11.2-28h34.5l11.2,28H540ZM480.75,552,490,528.87,499.25,552Z" transform="translate(-350 -181.79)"/><path class="cls-2" d="M529.29,450H550a50,50,0,1,1,0-20H529.29a30,30,0,1,0,0,20Z" transform="translate(-350 -181.79)"/><polygon class="cls-2" points="300 208.21 300 228.21 260 228.21 260 308.21 240 308.21 240 228.21 200 228.21 200 208.21 300 208.21"/><path class="cls-2" d="M410.77,391.95l-.78-1.95H390.01l-.78,1.94L350,490h21.55l11.2-28h34.5l11.2,28H450ZM390.75,442,400,418.87,409.25,442Z" transform="translate(-350 -181.79)"/><rect class="cls-2" x="140" y="14.105" width="20" height="160"/><rect class="cls-2" x="471.219" y="239.731" width="20" height="147.297" transform="translate(100.434 705.027) rotate(-120)"/><rect class="cls-2" x="508.828" y="239.489" width="20" height="147.404" transform="translate(699.473 -161.322) rotate(120)"/><path class="cls-1" d="M508.66,181.79l-8.66,5-8.66-5L391.34,355l8.66,5v10H600V360l8.66-5ZM417.32,350,500,206.79,582.68,350Z" transform="translate(-350 -181.79)"/></g></g></svg>