<svg id="Main" xmlns="http://www.w3.org/2000/svg" viewBox="0 0 300 210.334"><defs><style>.cls-1{fill:#366ce1;}.cls-2{fill:#121221;}.cls-3{fill:#e1dfdf;}</style></defs><title>action_script</title><path class="cls-1" d="M471.212,431.4h-30.3L410.606,492V552.61h30.3v-30.3h30.3v30.3h30.3V492ZM440.909,492q7.578-15.15,15.152-30.3,7.577,15.15,15.151,30.3Z" transform="translate(-350 -394.833)"/><polygon class="cls-1" points="212.121 82.02 242.424 106.262 242.424 136.565 212.121 157.777 181.818 157.777 151.515 127.474 212.121 127.474 212.121 112.323 181.818 112.323 151.515 88.08 151.515 57.777 181.818 36.565 212.121 36.565 242.424 66.868 181.818 66.868 181.818 82.02 212.121 82.02"/><polygon class="cls-1" points="0 97.168 0.006 97.174 0 97.174 0 97.168"/><polygon class="cls-1" points="0 37.398 0.018 37.398 0 37.416 0 37.398"/><polygon class="cls-2" points="39.342 90.736 33.009 97.07 54.321 118.382 54.336 118.367 54.336 160.6 57.939 164.203 75.758 164.203 75.758 194.342 45.455 194.342 24.033 172.921 24.033 118.282 2.821 97.07 24.033 75.858 24.033 21.43 45.455 0.009 45.455 0 75.758 0 75.758 30.142 57.945 30.142 54.336 33.752 54.336 75.745 39.342 90.736"/><polygon class="cls-3" points="21.433 210.328 21.427 210.334 21.421 210.328 21.433 210.328"/><polygon class="cls-2" points="263.479 90.736 269.812 97.07 248.5 118.382 248.485 118.367 248.485 160.6 244.882 164.203 227.064 164.203 227.064 194.342 257.367 194.342 278.788 172.921 278.788 118.282 300 97.07 278.788 75.858 278.788 21.43 257.367 0.009 257.367 0 227.064 0 227.064 30.142 244.876 30.142 248.485 33.752 248.485 75.745 263.479 90.736"/></svg>