<svg id="Complete" xmlns="http://www.w3.org/2000/svg" viewBox="0 0 630 380"><defs><style>.cls-1{fill:#121221;}.cls-2{fill:#366ce1;}</style></defs><title>active collab</title><g id="active_collab" data-name="active collab"><g id="active_collab-2" data-name="active collab"><path class="cls-1" d="M530.135,480a29.988,29.988,0,0,1-22.08,28.93L499.865,486l-8.14,22.79a29.988,29.988,0,0,1-12.8-50l-6.88-6.88,7.82-21.91h40l7.97,22.3-6.49,6.49A29.906,29.906,0,0,1,530.135,480Z" transform="translate(-185 -310)"/><path class="cls-1" d="M478.255,546.51,469.865,570h-40l16.24-45.48A70.175,70.175,0,0,0,478.255,546.51Z" transform="translate(-185 -310)"/><path class="cls-1" d="M569.865,570h-40l-8.33-23.34a70.05,70.05,0,0,0,32.25-21.69Z" transform="translate(-185 -310)"/><path class="cls-2" d="M508.055,508.93a29.839,29.839,0,0,1-16.33-.14l8.14-22.79Z" transform="translate(-185 -310)"/><path class="cls-1" d="M521.535,546.66a70.28,70.28,0,0,1-43.28-.15l13.47-37.72a29.839,29.839,0,0,0,16.33.14Z" transform="translate(-185 -310)"/><path class="cls-2" d="M491.725,508.79l-13.47,37.72a70.02,70.02,0,0,1-27.62-116.01l28.29,28.29a29.988,29.988,0,0,0,12.8,50Z" transform="translate(-185 -310)"/><path class="cls-2" d="M570.135,480a70.012,70.012,0,0,1-48.6,66.66l-13.48-37.73a29.99,29.99,0,0,0,13.29-50.14l6.49-6.49,21.8-21.8A69.82,69.82,0,0,1,570.135,480Z" transform="translate(-185 -310)"/><path class="cls-2" d="M529.865,570h-60l8.39-23.49a70.28,70.28,0,0,0,43.28.15Z" transform="translate(-185 -310)"/></g><polygon class="cls-2" points="435 100 415 100 455 0 475 0 435 100"/><polygon class="cls-2" points="415 100 435 100 395 0 375 0 415 100"/><path class="cls-2" d="M327.7,345a50.009,50.009,0,0,0-20.06-26.66v-.01a50.022,50.022,0,0,0-55.28,0v.01A49.96,49.96,0,0,0,230,360v50h20V369.99c.77.58,1.55,1.14,2.36,1.67v.01a50.022,50.022,0,0,0,55.28,0v-.01c.81-.53,1.59-1.09,2.36-1.67V410h20V360A49.54,49.54,0,0,0,327.7,345ZM280,360a29.951,29.951,0,0,1-25.97-15,29.981,29.981,0,0,1,51.94,0A29.951,29.951,0,0,1,280,360Z" transform="translate(-185 -310)"/><path class="cls-2" d="M410,399.99a50,50,0,1,1,0-79.98,50.111,50.111,0,0,0-13.34,15.05,30,30,0,1,0,0,49.88A50.111,50.111,0,0,0,410,399.99Z" transform="translate(-185 -310)"/><rect class="cls-2" x="275" width="20" height="100"/><rect class="cls-2" x="485" width="20" height="100"/><rect class="cls-2" x="235" width="100" height="20"/><rect class="cls-2" x="485" width="100" height="20"/><rect class="cls-2" x="485" y="40" width="100" height="20"/><rect class="cls-2" x="485" y="80" width="100" height="20"/><rect class="cls-2" x="345" width="20" height="100"/><path class="cls-2" d="M702.7,625a50.009,50.009,0,0,0-20.06-26.66v-.01a50.022,50.022,0,0,0-55.28,0v.01A49.96,49.96,0,0,0,605,640v50h20V649.99c.77.58,1.55,1.14,2.36,1.67v.01a50.022,50.022,0,0,0,55.28,0v-.01c.81-.53,1.59-1.09,2.36-1.67V690h20V640A49.54,49.54,0,0,0,702.7,625ZM655,640a29.951,29.951,0,0,1-25.97-15,29.981,29.981,0,0,1,51.94,0A29.951,29.951,0,0,1,655,640Z" transform="translate(-185 -310)"/><path class="cls-2" d="M265,679.99a50,50,0,1,1,0-79.98,50.111,50.111,0,0,0-13.34,15.05,30,30,0,1,0,0,49.88A50.111,50.111,0,0,0,265,679.99Z" transform="translate(-185 -310)"/><path class="cls-2" d="M325,590a50,50,0,1,0,50,50A50.005,50.005,0,0,0,325,590Zm0,80a30,30,0,1,1,30-30A30,30,0,0,1,325,670Z" transform="translate(-185 -310)"/><path class="cls-2" d="M793.81,629.14A50.018,50.018,0,0,0,745,590H715V690h27.65a.265.265,0,0,1-.05-.06q1.185.06,2.4.06h65.83a50.006,50.006,0,0,0-17.02-60.86ZM735,610h10a29.9,29.9,0,0,1,22.35,10,.265.265,0,0,1,.05.06q-1.185-.06-2.4-.06H735Zm0,60V640h30a30.006,30.006,0,0,1,30,30Z" transform="translate(-185 -310)"/><rect class="cls-2" x="200" y="280" width="20" height="100"/><rect class="cls-2" x="200" y="360" width="100" height="20"/><rect class="cls-2" x="310" y="280" width="20" height="100"/><rect class="cls-2" x="310" y="360" width="100" height="20"/><path class="cls-2" d="M767.4,620.06q-1.185-.06-2.4-.06h2.35A.265.265,0,0,1,767.4,620.06Z" transform="translate(-185 -310)"/></g></svg>