<svg xmlns="http://www.w3.org/2000/svg" viewBox="0 0 1283.333 220"><defs><style>.cls-1{fill:#121221;}.cls-2{fill:#366ce1;}</style></defs><title>acuity shedulding</title><g id="Слой_2" data-name="Слой 2"><g id="Work_space" data-name="Work space"><g id="acuity_shedulding" data-name="acuity shedulding"><path class="cls-1" d="M91.667,0a91.667,91.667,0,1,0,91.666,91.667A91.676,91.676,0,0,0,91.667,0Zm0,146.667a55,55,0,1,1,55-55A55,55,0,0,1,91.667,146.667Z"/><circle class="cls-2" cx="91.667" cy="91.667" r="18.333"/><path class="cls-2" d="M91.667,73.333A18.421,18.421,0,0,1,110,91.667Q137.5,155.832,165,220,119.166,155.833,73.333,91.667A18.421,18.421,0,0,1,91.667,73.333Z"/><path class="cls-2" d="M91.667,73.333A18.421,18.421,0,0,0,73.333,91.667q-27.5,64.165-55,128.333Q64.167,155.833,110,91.667A18.421,18.421,0,0,0,91.667,73.333Z"/><polygon class="cls-2" points="796.163 46.46 793.333 50 793.383 50 793.383 100 773.383 100 773.383 50 770.553 46.46 733.383 0 758.993 0 783.353 30.45 807.713 0 833.333 0 796.163 46.46"/><path class="cls-2" d="M392.623,60h20.71a50,50,0,1,1,0-20h-20.71a30,30,0,1,0,0,20Z"/><path class="cls-2" d="M274.1,1.95,273.323,0h-19.98l-.78,1.94L213.333,100h21.55l11.2-28h34.5l11.2,28h21.55ZM254.083,52l9.25-23.13L272.583,52Z"/><polygon class="cls-2" points="583.333 20 583.333 80 613.333 80 613.333 100 533.333 100 533.333 80 563.333 80 563.333 20 533.333 20 533.333 0 613.333 0 613.333 20 583.333 20"/><polygon class="cls-2" points="723.333 0 723.333 20 683.333 20 683.333 100 663.333 100 663.333 20 623.333 20 623.333 0 723.333 0"/><path class="cls-2" d="M523.333,0V50a50,50,0,1,1-100,0V0h20V50a30,30,0,1,0,60,0V0Z"/><polygon class="cls-1" points="1173.333 120 1173.333 220 1153.333 220 1093.333 150.59 1093.333 220 1073.333 220 1073.333 120 1093.333 120 1153.333 189.41 1153.333 120 1173.333 120"/><path class="cls-1" d="M923.333,120h-50V220h50a50,50,0,1,0,0-100Zm0,80h-30V140h30a30,30,0,1,1,0,60Z"/><path class="cls-1" d="M593.333,120h-50V220h50a50,50,0,0,0,0-100Zm0,80h-30V140h30a30,30,0,0,1,0,60Z"/><path class="cls-1" d="M233.333,150a10,10,0,0,0,10,10h40a30,30,0,0,1,0,60h-70V200h70a10,10,0,0,0,0-20h-40a30,30,0,1,1,0-60h70v20h-70A10,10,0,0,0,233.333,150Z"/><polygon class="cls-1" points="423.333 120 423.333 220 403.333 220 403.333 180 343.333 180 343.333 220 323.333 220 323.333 120 343.333 120 343.333 160 403.333 160 403.333 120 423.333 120"/><polygon class="cls-1" points="453.333 140 453.333 160 533.333 160 533.333 180 453.333 180 453.333 200 533.333 200 533.333 220 433.333 220 433.333 120 533.333 120 533.333 140 453.333 140"/><polygon class="cls-1" points="863.333 200 863.333 220 763.333 220 763.333 120 783.333 120 783.333 200 863.333 200"/><path class="cls-1" d="M1283.333,160v10a49.16,49.16,0,0,1-1.01,10,50.013,50.013,0,1,1-13.64-45.35l-14.14,14.14a30,30,0,1,0,7.07,31.21h-28.28V160Z"/><polygon class="cls-1" points="1033.333 140 1033.333 200 1063.333 200 1063.333 220 983.333 220 983.333 200 1013.333 200 1013.333 140 983.333 140 983.333 120 1063.333 120 1063.333 140 1033.333 140"/><path class="cls-1" d="M753.333,120v50a50,50,0,0,1-100,0V120h20v50a30,30,0,0,0,60,0V120Z"/></g></g></g></svg>