<svg xmlns="http://www.w3.org/2000/svg" viewBox="0 0 750 250"><defs><style>.cls-1{fill:#366ce1;}.cls-2{fill:#121221;}</style></defs><title>acunetix</title><g id="Complete"><g id="accunetix"><circle class="cls-1" cx="375" cy="50" r="20"/><path class="cls-2" d="M500,380a50,50,0,1,0,50,50A50.005,50.005,0,0,0,500,380Zm0,80a30,30,0,1,1,30-30A30,30,0,0,1,500,460Z" transform="translate(-125 -380)"/><path class="cls-2" d="M316.649,605.856l.312.41a9.764,9.764,0,0,1-1.933,13.712,50,50,0,1,1,.109-79.874,9.724,9.724,0,0,1,1.824,13.629l-.315.414a9.706,9.706,0,0,1-13.565,1.913,30,30,0,1,0-.187,48.02A9.823,9.823,0,0,1,316.649,605.856Z" transform="translate(-125 -380)"/><path class="cls-2" d="M174.712,530a50.007,50.007,0,0,0-49.663,52.236c1.076,24.664,22.842,46.526,47.5,47.7A49.771,49.771,0,0,0,205,619.99V620a10,10,0,0,0,10,10h0a10,10,0,0,0,10-10V580.82C225,552.96,202.571,529.844,174.712,530ZM175,610a30,30,0,1,1,30-30A30,30,0,0,1,175,610Z" transform="translate(-125 -380)"/><path class="cls-2" d="M765,540v49.89a9.9,9.9,0,0,1-.3,2.39,50.043,50.043,0,0,1-49.34,37.71c-27.04-.45-49.14-23.78-49.14-50.81V500a10,10,0,0,1,20,0v40.01a49.738,49.738,0,0,1,17.64-8.47,10.021,10.021,0,0,1,10.3,15.83,9.746,9.746,0,0,1-5.35,3.55A30.006,30.006,0,1,0,745,588.5V540a10,10,0,0,1,20,0Z" transform="translate(-125 -380)"/><circle class="cls-2" cx="630" cy="130" r="10"/><path class="cls-2" d="M645.15,590a9.85,9.85,0,0,0,9.85-9.834V580a49.16,49.16,0,0,0-1.01-10,50,50,0,0,0-97.98,0,50.01,50.01,0,0,0,0,20,50.01,50.01,0,0,0,70.158,35.3,9.923,9.923,0,0,0,2.035-16.742l-.159-.128a9.882,9.882,0,0,0-10.359-1.242,30.011,30.011,0,0,1-36.74-9.268A4.993,4.993,0,0,1,585.006,590ZM605,550a29.932,29.932,0,0,1,24.055,12.077A4.993,4.993,0,0,1,624.994,570H585.006a4.993,4.993,0,0,1-4.061-7.923A29.932,29.932,0,0,1,605,550Z" transform="translate(-125 -380)"/><path class="cls-2" d="M545,580.824V620a10,10,0,0,1-10,10h0a10,10,0,0,1-10-10V580.623c0-16.348-12.819-30.165-29.16-30.612A30,30,0,0,0,465,580v40a10,10,0,0,1-10,10h0a10,10,0,0,1-10-10V580a50.006,50.006,0,0,1,50.865-49.993C523.277,530.471,545,553.409,545,580.824Z" transform="translate(-125 -380)"/><path class="cls-2" d="M335,579.176V540a10,10,0,0,1,10-10h0a10,10,0,0,1,10,10v39.377c0,16.348,12.819,30.165,29.16,30.612A30,30,0,0,0,415,580V540a10,10,0,0,1,10-10h0a10,10,0,0,1,10,10v40a50.006,50.006,0,0,1-50.865,49.993C356.723,629.529,335,606.591,335,579.176Z" transform="translate(-125 -380)"/><path class="cls-2" d="M872.07,612.93a10,10,0,1,1-14.14,14.14L825,594.14l-32.93,32.93a10,10,0,1,1-14.14-14.14L810.85,580l-32.92-32.93a10,10,0,1,1,14.14-14.14L825,565.85l32.93-32.92a10,10,0,1,1,14.14,14.14L839.14,580Z" transform="translate(-125 -380)"/></g></g></svg>