<svg xmlns="http://www.w3.org/2000/svg" viewBox="0 0 870 300"><defs><style>.cls-1,.cls-3,.cls-4{fill:#121221;}.cls-2{fill:#366ce1;}.cls-3{opacity:0.62;}.cls-4{opacity:0.38;}</style></defs><title>Ad manager</title><g id="Слой_2" data-name="Слой 2"><g id="Complete"><g id="Ad_manager" data-name="Ad manager"><path class="cls-1" d="M355,0V160H515V0ZM485,130H385V30H485Z"/><rect class="cls-2" x="385" y="30" width="100" height="100"/><path class="cls-3" d="M445,50.17v60H425v-60a10,10,0,0,1,20,0Z"/><path class="cls-3" d="M445,110.17a10,10,0,0,1-20,0Z"/><path class="cls-4" d="M425,110.17a10,10,0,1,1,20,0Z"/><polygon class="cls-1" points="430 200 430 300 410 300 350 230.59 350 300 330 300 330 200 350 200 410 269.41 410 200 430 200"/><path class="cls-1" d="M160,80H110V180h50a50,50,0,0,0,0-100Zm0,80H130V100h30a30,30,0,0,1,0,60Z"/><polygon class="cls-1" points="680 220 680 240 760 240 760 260 680 260 680 280 760 280 760 300 660 300 660 200 760 200 760 220 680 220"/><path class="cls-1" d="M870,230a30,30,0,0,0-30-30H770V300h20V260h50a10,10,0,0,1,10,10v30h20V270a29.862,29.862,0,0,0-7.65-20A29.862,29.862,0,0,0,870,230Zm-80,10V220h50a10,10,0,0,1,0,20Z"/><path class="cls-1" d="M60.77,81.95,59.99,80H40.01l-.78,1.94L0,180H21.55l11.2-28h34.5l11.2,28H100ZM40.75,132,50,108.87,59.25,132Z"/><path class="cls-1" d="M280.77,201.95l-.78-1.95H260.01l-.78,1.94L220,300h21.55l11.2-28h34.5l11.2,28H320ZM260.75,252,270,228.87,279.25,252Z"/><path class="cls-1" d="M500.77,201.95l-.78-1.95H480.01l-.78,1.94L440,300h21.55l11.2-28h34.5l11.2,28H540ZM480.75,252,490,228.87,499.25,252Z"/><path class="cls-1" d="M650,240v10a49.16,49.16,0,0,1-1.01,10,50.013,50.013,0,1,1-13.64-45.35l-14.14,14.14A30,30,0,1,0,628.28,260H600V240Z"/><path class="cls-1" d="M120.62,300l14.46-57.86,14.56,56.71.3,1.15h14.91l.03-.11V300H170l.29-1.16,14.54-56.59L199.26,300h20.62v-.02l-24.61-98.41-.39-1.57H175.02l-.38,1.5-14.67,57.13-14.7-57.24-.35-1.39H129.89l-.01.04V200h-4.87l-.37,1.46L100,300Zm19.26-50.99v-.04l.02.04Zm0-47.53.19-.61-.19.64Z"/><polygon class="cls-1" points="139.88 248.97 139.9 249.01 139.88 249.01 139.88 248.97"/><polygon class="cls-1" points="139.88 201.48 140.07 200.87 139.88 201.51 139.88 201.48"/><polygon class="cls-1" points="139.88 201.48 140.07 200.87 139.88 201.51 139.88 201.48"/></g></g></g></svg>