<svg xmlns="http://www.w3.org/2000/svg" viewBox="0 0 680 211.32"><title>admiralhook</title><path d="M160,110a50,50,0,1,0,50,50A50.005,50.005,0,0,0,160,110Zm0,80a30,30,0,1,1,30-30A30,30,0,0,1,160,190Z"/><path d="M270,110a50,50,0,1,0,50,50A50.005,50.005,0,0,0,270,110Zm0,80a30,30,0,1,1,30-30A30,30,0,0,1,270,190Z"/><polygon points="100 110 100 210 80 210 80 170 20 170 20 210 0 210 0 110 20 110 20 150 80 150 80 110 100 110"/><polygon points="320.15 159.92 320 160.04 320 159.81 320.15 159.92"/><polygon points="426.378 111.37 359.858 161.25 426.378 211.13 426.378 211.32 393.308 211.32 346.378 176.13 346.378 211.32 326.378 211.32 326.378 161.36 326.528 161.24 326.378 161.13 326.378 111.32 346.378 111.32 346.378 146.36 393.108 111.32 426.378 111.32 426.378 111.37"/><path d="M50,0A50.005,50.005,0,0,0,0,50v50H20V70H80v30h20V50A50.005,50.005,0,0,0,50,0ZM20,50a30,30,0,0,1,60,0Z"/><path d="M520,0a50.005,50.005,0,0,0-50,50v50h20V70h60v30h20V50A50.005,50.005,0,0,0,520,0ZM490,50a30,30,0,0,1,60,0Z"/><path d="M160,0H110V100h50A50,50,0,0,0,160,0Zm0,80H130V20h30a30,30,0,0,1,0,60Z"/><polygon points="320 0 320 100 300 100 300 28.28 284.14 44.14 270 58.28 255.85 44.14 240 28.28 240 100 220 100 220 0 240 0 270 30 300 0 320 0"/><rect x="330" width="20" height="100"/><path d="M500,80v5a35.779,35.779,0,0,0-.35-5Z"/><path d="M449.5,60A35.011,35.011,0,0,0,430,.35,35.779,35.779,0,0,0,425,0H360V100h20V70h45a15.005,15.005,0,0,1,15,15v15h20V85a35.779,35.779,0,0,0-.35-5A34.959,34.959,0,0,0,449.5,60ZM425,50H380V20h45a15,15,0,0,1,0,30Z"/><path d="M470,0V.35A35.779,35.779,0,0,0,465,0Z"/><polygon points="680 80 680 100 580 100 580 0 600 0 600 80 680 80"/></svg>