<svg xmlns="http://www.w3.org/2000/svg" viewBox="0 0 273.22 250.008"><defs><style>.cls-1{fill:#366ce1;}</style></defs><title>adobe_air</title><g id="complete"><g id="adobe_air" data-name="adobe air"><path class="cls-1" d="M499.73,550a49.965,49.965,0,0,0-42.78,24.57c-.14.22-.27.45-.39.68A50,50,0,1,1,412.82,500c.36.01.71.01,1.07,0a49.978,49.978,0,0,0,42.59-24.63A50.008,50.008,0,0,0,499.73,550Z" transform="translate(-363.39 -350)"/><path class="cls-1" d="M543.05,425.43A49.939,49.939,0,0,0,543.3,475a49.948,49.948,0,0,0-43.03-25h-.59a50.024,50.024,0,0,0-42.91,24.87,49.963,49.963,0,0,0,.18-49.44c-.15-.24-.3-.49-.43-.75a50,50,0,1,1,86.92.07C543.32,424.98,543.19,425.21,543.05,425.43Z" transform="translate(-363.39 -350)"/><path class="cls-1" d="M629.9,575a50.006,50.006,0,0,1-86.46.25c-.12-.23-.25-.46-.39-.68a.076.076,0,0,1-.02-.04A49.993,49.993,0,0,0,500.32,550a50.025,50.025,0,0,0,42.84-24.75c.04-.08.09-.17.14-.25.07-.13.15-.25.22-.37A49.977,49.977,0,0,0,543.3,475a49.965,49.965,0,0,0,42.81,25c.36.01.71.01,1.07,0a50.006,50.006,0,0,1,42.72,75Z" transform="translate(-363.39 -350)"/><circle class="cls-1" cx="136.61" cy="150" r="40"/></g></g></svg>