<svg id="Main" xmlns="http://www.w3.org/2000/svg" viewBox="0 0 770 320"><defs><style>.cls-1{fill:#1c1e20;}.cls-2{fill:#e1dfdf;}.cls-3{fill:#121221;}</style></defs><title>adobe_speed_grade</title><rect class="cls-1" width="280" height="280"/><rect class="cls-2" x="20" y="20" width="240" height="240"/><path class="cls-3" d="M485,380H465L425,580h20l13-65h34l13,65h20ZM462,495l13-65,13,65Z" transform="translate(-115 -340)"/><path class="cls-3" d="M685,485.43a39.547,39.547,0,0,0-40,0A40.128,40.128,0,0,0,625,520v20a40.128,40.128,0,0,0,20,34.57,39.547,39.547,0,0,0,40,0A40.128,40.128,0,0,0,705,540V520A40.128,40.128,0,0,0,685,485.43ZM685,540a20,20,0,0,1-40,0V520a20,20,0,0,1,40,0Z" transform="translate(-115 -340)"/><path class="cls-3" d="M885,540V520a40.128,40.128,0,0,0-20-34.57,39.547,39.547,0,0,0-40,0A40.128,40.128,0,0,0,805,520v20a40.128,40.128,0,0,0,20,34.57,39.547,39.547,0,0,0,40,0A40.363,40.363,0,0,0,883.71,550H862.27A19.968,19.968,0,0,1,825,540Zm-40-40a20.1,20.1,0,0,1,20,20H825A20.1,20.1,0,0,1,845,500Z" transform="translate(-115 -340)"/><path class="cls-3" d="M775,485.43a39.547,39.547,0,0,0-40,0V380H715V580h20v-5.43a39.547,39.547,0,0,0,40,0A40.128,40.128,0,0,0,795,540V520A40.128,40.128,0,0,0,775,485.43ZM775,540a20,20,0,0,1-40,0V520a20,20,0,0,1,40,0Z" transform="translate(-115 -340)"/><path class="cls-3" d="M595,380V485.43a39.547,39.547,0,0,0-40,0A40.128,40.128,0,0,0,535,520v20a40.128,40.128,0,0,0,20,34.57,39.547,39.547,0,0,0,40,0V580h20V380ZM575,560a20.1,20.1,0,0,1-20-20V520a20,20,0,0,1,40,0v20A20.1,20.1,0,0,1,575,560Z" transform="translate(-115 -340)"/><path class="cls-3" d="M260,525c0,30.38-22.39,55-50,55-15.53,0-29.4-7.79-38.57-20a52.057,52.057,0,0,1,9.83-10A46.719,46.719,0,0,0,210,560c16.57,0,30-15.67,30-35s-13.43-35-30-35a46.719,46.719,0,0,1-28.74-10C168.4,470.06,160,453.61,160,435c0-30.38,22.39-55,50-55,15.53,0,29.4,7.79,38.57,20a52.057,52.057,0,0,1-9.83,10A46.719,46.719,0,0,0,210,400c-16.57,0-30,15.67-30,35s13.43,35,30,35a46.719,46.719,0,0,1,28.74,10C251.6,489.94,260,506.39,260,525Z" transform="translate(-115 -340)"/><path class="cls-3" d="M330,480v5.43a39.547,39.547,0,0,0-40,0A40.128,40.128,0,0,0,270,520v20a39.939,39.939,0,0,0,13.66,30,40.351,40.351,0,0,0,6.34,4.57,39.547,39.547,0,0,0,40,0V620a20.1,20.1,0,0,1-20,20,39.524,39.524,0,0,1-20-5.43,40.351,40.351,0,0,1-6.34-4.57,40.473,40.473,0,0,0-8.23,10A40.535,40.535,0,0,0,290,654.57a39.547,39.547,0,0,0,40,0A40.128,40.128,0,0,0,350,620V480Zm-20,80a20.1,20.1,0,0,1-20-20V520a20,20,0,0,1,40,0v20A20.1,20.1,0,0,1,310,560Z" transform="translate(-115 -340)"/></svg>