<svg xmlns="http://www.w3.org/2000/svg" viewBox="0 0 1350 410"><defs><style>.cls-1{fill:#121221;}.cls-2{fill:#366ce1;}</style></defs><title>adobe acrobat reader</title><g id="Слой_2" data-name="Слой 2"><g id="Work_space" data-name="Work space"><g id="adobe_acrobat_reader" data-name="adobe acrobat reader"><path class="cls-1" d="M60,105H40L0,305H20l13-65H67l13,65h20ZM37,220l13-65,13,65Z"/><path class="cls-1" d="M340,210.43a39.547,39.547,0,0,0-40,0V105H280V305h20v-5.43a39.547,39.547,0,0,0,40,0A40.129,40.129,0,0,0,360,265V245A40.129,40.129,0,0,0,340,210.43ZM340,265a20,20,0,0,1-40,0V245a20,20,0,0,1,40,0Z"/><path class="cls-1" d="M160,105V210.43a39.547,39.547,0,0,0-40,0A40.129,40.129,0,0,0,100,245v20a40.129,40.129,0,0,0,20,34.57,39.547,39.547,0,0,0,40,0V305h20V105ZM140,285a20.1,20.1,0,0,1-20-20V245a20,20,0,0,1,40,0v20A20.1,20.1,0,0,1,140,285Z"/><path class="cls-1" d="M250,160.43a39.547,39.547,0,0,0-40,0A40.129,40.129,0,0,0,190,195v20a40.129,40.129,0,0,0,20,34.57,39.547,39.547,0,0,0,40,0A40.129,40.129,0,0,0,270,215V195A40.129,40.129,0,0,0,250,160.43ZM250,215a20,20,0,0,1-40,0V195a20,20,0,0,1,40,0Z"/><path class="cls-1" d="M450,215V195a40,40,0,0,0-80,0v20a39.994,39.994,0,0,0,68.28,28.28l-14.14-14.14A20,20,0,0,1,390,215Zm-40-40a19.994,19.994,0,0,1,20,20H390A19.994,19.994,0,0,1,410,175Z"/><path class="cls-2" d="M560.44,0h-20l-40,200h20l13-65h34l13,65h20Zm-23,115,13-65,13,65Z"/><path class="cls-2" d="M909.99,105.43a39.547,39.547,0,0,0-40,0V0h-20V200h20v-5.43a39.547,39.547,0,0,0,40,0,40.129,40.129,0,0,0,20-34.57V140A40.129,40.129,0,0,0,909.99,105.43Zm0,54.57a20,20,0,0,1-40,0V140a20,20,0,0,1,40,0Z"/><path class="cls-2" d="M850.44,210V315.43a39.547,39.547,0,0,0-40,0,40.129,40.129,0,0,0-20,34.57v20a40.129,40.129,0,0,0,20,34.57,39.547,39.547,0,0,0,40,0V410h20V210Zm-20,180a20.1,20.1,0,0,1-20-20V350a20,20,0,0,1,40,0v20A20.1,20.1,0,0,1,830.44,390Z"/><path class="cls-2" d="M819.99,105.43a39.547,39.547,0,0,0-40,0,40.129,40.129,0,0,0-20,34.57v20a40.129,40.129,0,0,0,20,34.57,39.547,39.547,0,0,0,40,0,40.129,40.129,0,0,0,20-34.57V140A40.129,40.129,0,0,0,819.99,105.43Zm0,54.57a20,20,0,0,1-40,0V140a20,20,0,0,1,40,0Z"/><path class="cls-2" d="M759.99,111.72l-14.14,14.14A20,20,0,0,0,711.71,140v60h-20V100h20v5.35a40.01,40.01,0,0,1,48.28,6.37Z"/><path class="cls-2" d="M1038.72,321.72l-14.14,14.14A20,20,0,0,0,990.44,350v60h-20V310h20v5.35a40.01,40.01,0,0,1,48.28,6.37Z"/><path class="cls-2" d="M960.44,370V350a40,40,0,0,0-80,0v20a39.994,39.994,0,0,0,68.28,28.28l-14.14-14.14A20,20,0,0,1,900.44,370Zm-40-40a19.994,19.994,0,0,1,20,20h-40A19.994,19.994,0,0,1,920.44,330Z"/><path class="cls-2" d="M690.44,370V350a40,40,0,0,0-80,0v20a39.994,39.994,0,0,0,68.28,28.28l-14.14-14.14A20,20,0,0,1,630.44,370Zm-40-40a19.994,19.994,0,0,1,20,20h-40A19.994,19.994,0,0,1,650.44,330Z"/><path class="cls-2" d="M740.44,310a39.875,39.875,0,0,0-28.28,11.72l14.14,14.14A20,20,0,0,1,760.44,350h-60v20a40.012,40.012,0,0,0,60,34.65V410h20V350A40,40,0,0,0,740.44,310Zm0,80a19.994,19.994,0,0,1-20-20h40A19.994,19.994,0,0,1,740.44,390Z"/><path class="cls-2" d="M667.18,170.93q6.405,8.01,12.81,16.01A39.988,39.988,0,0,1,610.44,160V140a39.988,39.988,0,0,1,69.55-26.94q-6.4,8.01-12.81,16.01A19.994,19.994,0,0,0,630.44,140v20a19.994,19.994,0,0,0,36.74,10.93Z"/><path class="cls-2" d="M1050.44,120v40a19.994,19.994,0,0,0,36.74,10.93q6.4,8.01,12.81,16.01A39.988,39.988,0,0,1,1030.44,160V0h20V100H1100v20Z"/><path class="cls-2" d="M979.99,100a39.875,39.875,0,0,0-28.28,11.72l14.14,14.14A20,20,0,0,1,999.99,140h-60v20a40.012,40.012,0,0,0,60,34.65V200h20V140A40,40,0,0,0,979.99,100Zm0,80a19.994,19.994,0,0,1-20-20h40A19.994,19.994,0,0,1,979.99,180Z"/><path class="cls-2" d="M600.44,270V260a50.005,50.005,0,0,0-50-50h-50V410h20V320h30a30,30,0,0,1,30,30v60h20V350a49.9,49.9,0,0,0-20.01-40,.01.01,0,0,1,.01-.01A49.891,49.891,0,0,0,600.44,270Zm-80,40.01v-.02a.01.01,0,0,1,.01.01A.01.01,0,0,0,520.44,310.01Zm30-10.01h-30V230h30a30,30,0,0,1,30,30v10A30,30,0,0,1,550.44,300Z"/><path class="cls-1" d="M520.45,310a.01.01,0,0,0-.01.01v-.02A.01.01,0,0,1,520.45,310Z"/><path class="cls-1" d="M1330,165V155a30,30,0,0,0-60,0V255a30,30,0,0,0,60,0V245h20v10a50,50,0,0,1-100,0V155a50,50,0,0,1,100,0v10Z"/><path class="cls-1" d="M1200,105h-50V305h50a50.005,50.005,0,0,0,50-50V155A50.005,50.005,0,0,0,1200,105Zm30,150a30,30,0,0,1-30,30h-30V125h30a30,30,0,0,1,30,30Z"/></g></g></g></svg>