<svg id="Main" xmlns="http://www.w3.org/2000/svg" viewBox="0 0 770 280"><defs><style>.cls-1{fill:#121221;}.cls-2{fill:#1c1e20;}.cls-3{fill:#e1dfdf;}</style></defs><title>adobe_fuse</title><path class="cls-1" d="M485,400H465L425,600h20l13-65h34l13,65h20ZM462,515l13-65,13,65Z" transform="translate(-115 -360)"/><path class="cls-1" d="M685,505.43a39.547,39.547,0,0,0-40,0A40.128,40.128,0,0,0,625,540v20a40.128,40.128,0,0,0,20,34.57,39.547,39.547,0,0,0,40,0A40.128,40.128,0,0,0,705,560V540A40.128,40.128,0,0,0,685,505.43ZM685,560a20,20,0,0,1-40,0V540a20,20,0,0,1,40,0Z" transform="translate(-115 -360)"/><path class="cls-1" d="M885,560V540a40.128,40.128,0,0,0-20-34.57,39.547,39.547,0,0,0-40,0A40.128,40.128,0,0,0,805,540v20a40.128,40.128,0,0,0,20,34.57,39.547,39.547,0,0,0,40,0A40.363,40.363,0,0,0,883.71,570H862.27A19.968,19.968,0,0,1,825,560Zm-40-40a20.1,20.1,0,0,1,20,20H825A20.1,20.1,0,0,1,845,520Z" transform="translate(-115 -360)"/><path class="cls-1" d="M775,505.43a39.547,39.547,0,0,0-40,0V400H715V600h20v-5.43a39.547,39.547,0,0,0,40,0A40.128,40.128,0,0,0,795,560V540A40.128,40.128,0,0,0,775,505.43ZM775,560a20,20,0,0,1-40,0V540a20,20,0,0,1,40,0Z" transform="translate(-115 -360)"/><path class="cls-1" d="M595,400V505.43a39.547,39.547,0,0,0-40,0A40.128,40.128,0,0,0,535,540v20a40.128,40.128,0,0,0,20,34.57,39.547,39.547,0,0,0,40,0V600h20V400ZM575,580a20.1,20.1,0,0,1-20-20V540a20,20,0,0,1,40,0v20A20.1,20.1,0,0,1,575,580Z" transform="translate(-115 -360)"/><rect class="cls-2" width="280" height="280"/><rect class="cls-3" x="20" y="20" width="240" height="240"/><polygon class="cls-1" points="80 60 80 130 120 130 120 150 80 150 80 240 60 240 60 40 160 40 160 60 80 60"/><path class="cls-1" d="M335,570c0,16.57-17.91,30-40,30-17.41,0-32.23-8.34-37.72-20a29.612,29.612,0,0,1,7.92-10c7.32,6.14,17.96,10,29.8,10,11.05,0,20-4.48,20-10s-8.95-10-20-10c-11.84,0-22.48-3.86-29.8-10-6.34-5.3-10.2-12.32-10.2-20,0-16.57,17.91-30,40-30,17.41,0,32.23,8.34,37.72,20a29.612,29.612,0,0,1-7.92,10c-7.32-6.14-17.96-10-29.8-10-11.05,0-20,4.48-20,10s8.95,10,20,10c11.84,0,22.48,3.86,29.8,10C331.14,555.3,335,562.32,335,570Z" transform="translate(-115 -360)"/></svg>