<svg id="Main" xmlns="http://www.w3.org/2000/svg" viewBox="0 0 770 280"><defs><style>.cls-1{fill:#121221;}.cls-2{fill:#1c1e20;}.cls-3{fill:#e1dfdf;}</style></defs><title>adobe_encore</title><path class="cls-1" d="M485,405.775H465l-40,200h20l13-65h34l13,65h20Zm-23,115,13-65,13,65Z" transform="translate(-115 -360)"/><path class="cls-1" d="M685,511.205a39.547,39.547,0,0,0-40,0,40.128,40.128,0,0,0-20,34.57v20a40.128,40.128,0,0,0,20,34.57,39.547,39.547,0,0,0,40,0,40.128,40.128,0,0,0,20-34.57v-20A40.128,40.128,0,0,0,685,511.205Zm0,54.57a20,20,0,1,1-40,0v-20a20,20,0,0,1,40,0Z" transform="translate(-115 -360)"/><path class="cls-1" d="M885,565.775v-20a40.128,40.128,0,0,0-20-34.57,39.547,39.547,0,0,0-40,0,40.128,40.128,0,0,0-20,34.57v20a40.128,40.128,0,0,0,20,34.57,39.547,39.547,0,0,0,40,0,40.363,40.363,0,0,0,18.71-24.57H862.27a19.968,19.968,0,0,1-37.27-10Zm-40-40a20.1,20.1,0,0,1,20,20H825A20.1,20.1,0,0,1,845,525.775Z" transform="translate(-115 -360)"/><path class="cls-1" d="M775,511.205a39.547,39.547,0,0,0-40,0V405.775H715v200h20v-5.43a39.547,39.547,0,0,0,40,0,40.128,40.128,0,0,0,20-34.57v-20A40.128,40.128,0,0,0,775,511.205Zm0,54.57a20,20,0,1,1-40,0v-20a20,20,0,0,1,40,0Z" transform="translate(-115 -360)"/><path class="cls-1" d="M595,405.775v105.43a39.547,39.547,0,0,0-40,0,40.128,40.128,0,0,0-20,34.57v20a40.128,40.128,0,0,0,20,34.57,39.547,39.547,0,0,0,40,0v5.43h20v-200Zm-20,180a20.1,20.1,0,0,1-20-20v-20a20,20,0,0,1,40,0v20A20.1,20.1,0,0,1,575,585.775Z" transform="translate(-115 -360)"/><rect class="cls-2" width="280" height="280"/><rect class="cls-3" x="20" y="20" width="240" height="240"/><polygon class="cls-1" points="65 60 65 130 145 130 145 150 65 150 65 220 145 220 145 240 45 240 45 40 145 40 145 60 65 60"/><path class="cls-1" d="M270,600V540a40,40,0,0,1,80,0v60H330V540a20,20,0,0,0-40,0v60Z" transform="translate(-115 -360)"/></svg>