<svg xmlns="http://www.w3.org/2000/svg" viewBox="0 0 1130 410"><defs><style>.cls-1{fill:#121221;}.cls-2{fill:#366ce1;}</style></defs><title>adobe creative cloud</title><g id="Слой_2" data-name="Слой 2"><g id="Work_space" data-name="Work space"><g id="adobe_creative_cloud" data-name="adobe creative cloud"><path class="cls-1" d="M60,60H40L0,260H20l13-65H67l13,65h20ZM37,175l13-65,13,65Z"/><path class="cls-1" d="M340,165.43a39.547,39.547,0,0,0-40,0V60H280V260h20v-5.43a39.547,39.547,0,0,0,40,0A40.129,40.129,0,0,0,360,220V200A40.129,40.129,0,0,0,340,165.43ZM340,220a20,20,0,0,1-40,0V200a20,20,0,0,1,40,0Z"/><path class="cls-1" d="M160,60V165.43a39.547,39.547,0,0,0-40,0A40.129,40.129,0,0,0,100,200v20a40.129,40.129,0,0,0,20,34.57,39.547,39.547,0,0,0,40,0V260h20V60ZM140,240a20.1,20.1,0,0,1-20-20V200a20,20,0,0,1,40,0v20A20.1,20.1,0,0,1,140,240Z"/><path class="cls-1" d="M250,165.43a39.547,39.547,0,0,0-40,0A40.129,40.129,0,0,0,190,200v20a40.129,40.129,0,0,0,20,34.57,39.547,39.547,0,0,0,40,0A40.129,40.129,0,0,0,270,220V200A40.129,40.129,0,0,0,250,165.43ZM250,220a20,20,0,0,1-40,0V200a20,20,0,0,1,40,0Z"/><path class="cls-1" d="M450,220V200a40,40,0,0,0-80,0v20a39.994,39.994,0,0,0,68.28,28.28l-14.14-14.14A20,20,0,0,1,390,220Zm-40-40a19.994,19.994,0,0,1,20,20H390A19.994,19.994,0,0,1,410,180Z"/><path class="cls-2" d="M880,210V315.43a39.547,39.547,0,0,0-40,0A40.129,40.129,0,0,0,820,350v20a40.129,40.129,0,0,0,20,34.57,39.547,39.547,0,0,0,40,0V410h20V210ZM860,390a20.1,20.1,0,0,1-20-20V350a20,20,0,0,1,40,0v20A20.1,20.1,0,0,1,860,390Z"/><path class="cls-2" d="M700,315.43a39.547,39.547,0,0,0-40,0A40.129,40.129,0,0,0,640,350v20a40.129,40.129,0,0,0,20,34.57,39.547,39.547,0,0,0,40,0A40.129,40.129,0,0,0,720,370V350A40.129,40.129,0,0,0,700,315.43ZM700,370a20,20,0,0,1-40,0V350a20,20,0,0,1,40,0Z"/><path class="cls-2" d="M580,60V50a30,30,0,0,0-60,0V150a30,30,0,0,0,60,0V140h20v10a50,50,0,0,1-100,0V50a50,50,0,0,1,100,0V60Z"/><path class="cls-2" d="M580,270V260a30,30,0,0,0-60,0V360a30,30,0,0,0,60,0V350h20v10a50,50,0,0,1-100,0V260a50,50,0,0,1,100,0v10Z"/><path class="cls-2" d="M678.28,111.72l-14.14,14.14A20,20,0,0,0,630,140v60H610V100h20v5.35a40.01,40.01,0,0,1,48.28,6.37Z"/><path class="cls-2" d="M760,160V140a40,40,0,0,0-80,0v20a39.994,39.994,0,0,0,68.28,28.28l-14.14-14.14A20,20,0,0,1,700,160Zm-40-40a19.994,19.994,0,0,1,20,20H700A19.994,19.994,0,0,1,720,120Z"/><path class="cls-2" d="M1130,160V140a40,40,0,0,0-80,0v20a39.994,39.994,0,0,0,68.28,28.28l-14.14-14.14A20,20,0,0,1,1070,160Zm-40-40a19.994,19.994,0,0,1,20,20h-40A19.994,19.994,0,0,1,1090,120Z"/><path class="cls-2" d="M810,100a39.875,39.875,0,0,0-28.28,11.72l14.14,14.14A20,20,0,0,1,830,140H770v20a40.012,40.012,0,0,0,60,34.65V200h20V140A40,40,0,0,0,810,100Zm0,80a19.994,19.994,0,0,1-20-20h40A19.994,19.994,0,0,1,810,180Z"/><rect class="cls-2" x="940" y="100" width="20" height="100"/><rect class="cls-2" x="940" y="70" width="20" height="20"/><path class="cls-2" d="M880,160a19.994,19.994,0,0,0,36.74,10.93q6.4,8.01,12.81,16.01A39.988,39.988,0,0,1,860,160V0h20V70h49.56V90H880Z"/><rect class="cls-2" x="610" y="210" width="20" height="200"/><path class="cls-2" d="M810,310V410H790v-5.43a39.547,39.547,0,0,1-40,0A40.131,40.131,0,0,1,730,370V310h20v60a20,20,0,0,0,40,0V310Z"/><polygon class="cls-2" points="1053.07 100 1022.3 198.07 1021.53 200 1001.53 200 1000.76 198.07 970 100 991.54 100 1011.53 171.14 1031.54 100 1053.07 100"/></g></g></g></svg>