<svg id="Main" xmlns="http://www.w3.org/2000/svg" viewBox="0 0 770 280"><defs><style>.cls-1{fill:#121221;}.cls-2{fill:#1c1e20;}.cls-3{fill:#e1dfdf;}</style></defs><title>adobe_premiere pro</title><path class="cls-1" d="M485,400H465L425,600h20l13-65h34l13,65h20ZM462,515l13-65,13,65Z" transform="translate(-115 -360)"/><path class="cls-1" d="M685,505.43a39.547,39.547,0,0,0-40,0A40.128,40.128,0,0,0,625,540v20a40.128,40.128,0,0,0,20,34.57,39.547,39.547,0,0,0,40,0A40.128,40.128,0,0,0,705,560V540A40.128,40.128,0,0,0,685,505.43ZM685,560a20,20,0,0,1-40,0V540a20,20,0,0,1,40,0Z" transform="translate(-115 -360)"/><path class="cls-1" d="M885,560V540a40.128,40.128,0,0,0-20-34.57,39.547,39.547,0,0,0-40,0A40.128,40.128,0,0,0,805,540v20a40.128,40.128,0,0,0,20,34.57,39.547,39.547,0,0,0,40,0A40.363,40.363,0,0,0,883.71,570H862.27A19.968,19.968,0,0,1,825,560Zm-40-40a20.1,20.1,0,0,1,20,20H825A20.1,20.1,0,0,1,845,520Z" transform="translate(-115 -360)"/><path class="cls-1" d="M775,505.43a39.547,39.547,0,0,0-40,0V400H715V600h20v-5.43a39.547,39.547,0,0,0,40,0A40.128,40.128,0,0,0,795,560V540A40.128,40.128,0,0,0,775,505.43ZM775,560a20,20,0,0,1-40,0V540a20,20,0,0,1,40,0Z" transform="translate(-115 -360)"/><path class="cls-1" d="M595,400V505.43a39.547,39.547,0,0,0-40,0A40.128,40.128,0,0,0,535,540v20a40.128,40.128,0,0,0,20,34.57,39.547,39.547,0,0,0,40,0V600h20V400ZM575,580a20.1,20.1,0,0,1-20-20V540a20,20,0,0,1,40,0v20A20.1,20.1,0,0,1,575,580Z" transform="translate(-115 -360)"/><rect class="cls-2" width="280" height="280"/><rect class="cls-3" x="20" y="20" width="240" height="240"/><path class="cls-1" d="M350,540H330a20,20,0,0,0-40,0v60H270V500h20v5.43c.33-.19.66-.38,1-.57.28-.16.57-.31.86-.45.22-.12.44-.23.67-.34.65-.32,1.3-.62,1.96-.9.3-.13.6-.25.91-.37q.42-.18.87-.33a38.866,38.866,0,0,1,5.79-1.67c.42-.08.84-.16,1.27-.23.4-.07.8-.13,1.21-.19l.18-.03c.4-.05.81-.1,1.22-.14.36-.04.72-.07,1.08-.1.2-.01.4-.03.6-.04.26-.01.53-.03.79-.04.12,0,.24-.01.35-.01.41-.01.83-.02,1.24-.02a40.181,40.181,0,0,1,40,40Z" transform="translate(-115 -360)"/><path class="cls-1" d="M210,400H160V600h20V540h30c27.61,0,50-31.34,50-70S237.61,400,210,400Zm0,120H180V420h30c16.57,0,30,22.39,30,50S226.57,520,210,520Z" transform="translate(-115 -360)"/></svg>