<svg id="Main" xmlns="http://www.w3.org/2000/svg" viewBox="0 0 770 280"><defs><style>.cls-1{fill:#121221;}.cls-2{fill:#1c1e20;}.cls-3{fill:#e1dfdf;}</style></defs><title>adobe_incopy</title><path class="cls-1" d="M485,400H465L425,600h20l13-65h34l13,65h20ZM462,515l13-65,13,65Z" transform="translate(-115 -360)"/><path class="cls-1" d="M685,505.43a39.547,39.547,0,0,0-40,0A40.128,40.128,0,0,0,625,540v20a40.128,40.128,0,0,0,20,34.57,39.547,39.547,0,0,0,40,0A40.128,40.128,0,0,0,705,560V540A40.128,40.128,0,0,0,685,505.43ZM685,560a20,20,0,0,1-40,0V540a20,20,0,0,1,40,0Z" transform="translate(-115 -360)"/><path class="cls-1" d="M885,560V540a40.128,40.128,0,0,0-20-34.57,39.547,39.547,0,0,0-40,0A40.128,40.128,0,0,0,805,540v20a40.128,40.128,0,0,0,20,34.57,39.547,39.547,0,0,0,40,0A40.363,40.363,0,0,0,883.71,570H862.27A19.968,19.968,0,0,1,825,560Zm-40-40a20.1,20.1,0,0,1,20,20H825A20.1,20.1,0,0,1,845,520Z" transform="translate(-115 -360)"/><path class="cls-1" d="M775,505.43a39.547,39.547,0,0,0-40,0V400H715V600h20v-5.43a39.547,39.547,0,0,0,40,0A40.128,40.128,0,0,0,795,560V540A40.128,40.128,0,0,0,775,505.43ZM775,560a20,20,0,0,1-40,0V540a20,20,0,0,1,40,0Z" transform="translate(-115 -360)"/><path class="cls-1" d="M595,400V505.43a39.547,39.547,0,0,0-40,0A40.128,40.128,0,0,0,535,540v20a40.128,40.128,0,0,0,20,34.57,39.547,39.547,0,0,0,40,0V600h20V400ZM575,580a20.1,20.1,0,0,1-20-20V540a20,20,0,0,1,40,0v20A20.1,20.1,0,0,1,575,580Z" transform="translate(-115 -360)"/><rect class="cls-2" width="280" height="280"/><rect class="cls-3" x="20" y="20" width="240" height="240"/><polygon class="cls-1" points="108.61 60 108.61 220 138.61 220 138.61 240 58.61 240 58.61 220 88.61 220 88.61 60 58.61 60 58.61 40 138.61 40 138.61 60 108.61 60"/><path class="cls-1" d="M321.82,568.21l14.57,14.57a40.264,40.264,0,0,1-12.78,11.79,39.547,39.547,0,0,1-40,0,40.128,40.128,0,0,1-20-34.57V540a40.128,40.128,0,0,1,20-34.57,39.547,39.547,0,0,1,40,0,40.264,40.264,0,0,1,12.78,11.79l-14.57,14.57A19.983,19.983,0,0,0,283.61,540v20a19.983,19.983,0,0,0,38.21,8.21Z" transform="translate(-115 -360)"/></svg>