<svg xmlns="http://www.w3.org/2000/svg" viewBox="0 0 700 200"><defs><style>.cls-1{fill:#121221;}.cls-2{fill:#366ce1;}</style></defs><title>adobe xo</title><g id="Слой_2" data-name="Слой 2"><g id="Work_space" data-name="Work space"><g id="adobe_xo" data-name="adobe xo"><path class="cls-1" d="M60,0H40L0,200H20l13-65H67l13,65h20ZM37,115,50,50l13,65Z"/><path class="cls-1" d="M340,105.43a39.547,39.547,0,0,0-40,0V0H280V200h20v-5.43a39.547,39.547,0,0,0,40,0A40.129,40.129,0,0,0,360,160V140A40.129,40.129,0,0,0,340,105.43ZM340,160a20,20,0,0,1-40,0V140a20,20,0,0,1,40,0Z"/><path class="cls-1" d="M160,0V105.43a39.547,39.547,0,0,0-40,0A40.129,40.129,0,0,0,100,140v20a40.129,40.129,0,0,0,20,34.57,39.547,39.547,0,0,0,40,0V200h20V0ZM140,180a20.1,20.1,0,0,1-20-20V140a20,20,0,0,1,40,0v20A20.1,20.1,0,0,1,140,180Z"/><path class="cls-1" d="M250,105.43a39.547,39.547,0,0,0-40,0A40.129,40.129,0,0,0,190,140v20a40.129,40.129,0,0,0,20,34.57,39.547,39.547,0,0,0,40,0A40.129,40.129,0,0,0,270,160V140A40.129,40.129,0,0,0,250,105.43ZM250,160a20,20,0,0,1-40,0V140a20,20,0,0,1,40,0Z"/><path class="cls-2" d="M650,0a50.005,50.005,0,0,0-50,50V150a50,50,0,0,0,100,0V50A50.005,50.005,0,0,0,650,0Zm0,180a30,30,0,0,1-30-30V50a30,30,0,0,1,60,0V150A30,30,0,0,1,650,180Z"/><path class="cls-1" d="M450,160V140a40,40,0,0,0-80,0v20a39.994,39.994,0,0,0,68.28,28.28l-14.14-14.14A20,20,0,0,1,390,160Zm-40-40a19.994,19.994,0,0,1,20,20H390A19.994,19.994,0,0,1,410,120Z"/><path class="cls-2" d="M560,100q20,50,40,100H580l-30-75-30,75H500q20.01-50.01,40-100Q520,50.005,500,0h20l30,75L580,0h20Q579.99,50.01,560,100Z"/></g></g></g></svg>