<svg xmlns="http://www.w3.org/2000/svg" viewBox="0 0 900 320"><defs><style>.cls-1{fill:#366ce1;}.cls-2{fill:#121221;}</style></defs><title>adself service</title><g id="Слой_2" data-name="Слой 2"><g id="Work_space" data-name="Work space"><g id="adself_service" data-name="adself service"><path class="cls-1" d="M820,0a80,80,0,0,0-80,80V320H900V80A80,80,0,0,0,820,0Zm50,290H770V190H870Zm0-130H770V80a50,50,0,0,1,100,0Z"/><path class="cls-2" d="M850,220a29.9,29.9,0,0,1-10,22.35V270a20,20,0,0,1-40,0V242.35A30,30,0,1,1,850,220Z"/><path class="cls-1" d="M588.28,245h20.71a50,50,0,1,1,0-20H588.28a30,30,0,1,0,0,20Z"/><polygon class="cls-2" points="620 85 620 105 680 105 680 125 620 125 620 165 600 165 600 65 700 65 700 85 620 85"/><path class="cls-2" d="M200,65H150V165h50a50,50,0,0,0,0-100Zm0,80H170V85h30a30,30,0,0,1,0,60Z"/><path class="cls-1" d="M20,215a10,10,0,0,0,10,10H70a30,30,0,0,1,0,60H0V265H70a10,10,0,0,0,0-20H30a30,30,0,0,1,0-60h70v20H30A10,10,0,0,0,20,215Z"/><path class="cls-2" d="M290,95a10,10,0,0,0,10,10h40a30,30,0,0,1,0,60H270V145h70a10,10,0,0,0,0-20H300a30,30,0,0,1,0-60h70V85H300A10,10,0,0,0,290,95Z"/><polygon class="cls-2" points="400 85 400 105 480 105 480 125 400 125 400 145 480 145 480 165 380 165 380 65 480 65 480 85 400 85"/><polygon class="cls-1" points="130 205 130 225 210 225 210 245 130 245 130 265 210 265 210 285 110 285 110 185 210 185 210 205 130 205"/><polygon class="cls-1" points="640 205 640 225 720 225 720 245 640 245 640 265 720 265 720 285 620 285 620 185 720 185 720 205 640 205"/><polygon class="cls-2" points="590 145 590 165 490 165 490 65 510 65 510 145 590 145"/><path class="cls-1" d="M320,215a30,30,0,0,0-30-30H220V285h20V245h50a10,10,0,0,1,10,10v30h20V255a29.862,29.862,0,0,0-7.65-20A29.862,29.862,0,0,0,320,215Zm-80,10V205h50a10,10,0,0,1,0,20Z"/><path class="cls-2" d="M100.77,66.95,99.99,65H80.01l-.78,1.94L40,165H61.55l11.2-28h34.5l11.2,28H140ZM80.75,117,90,93.87,99.25,117Z"/><polygon class="cls-1" points="480 205 480 265 510 265 510 285 430 285 430 265 460 265 460 205 430 205 430 185 510 185 510 205 480 205"/><polygon class="cls-1" points="419.98 185 380.76 283.07 379.99 285 359.99 285 359.22 283.07 320 185 341.54 185 369.99 256.14 398.45 185 419.98 185"/></g></g></g></svg>