<svg xmlns="http://www.w3.org/2000/svg" viewBox="0 0 760 100"><defs><style>.cls-1{fill:#121221;}</style></defs><title>aerones</title><g id="Слой_2" data-name="Слой 2"><g id="Work_space" data-name="Work space"><g id="aerones"><polygon class="cls-1" points="540 0 540 100 520 100 460 30.59 460 100 440 100 440 0 460 0 520 69.41 520 0 540 0"/><path class="cls-1" d="M680,30a10,10,0,0,0,10,10h40a30,30,0,0,1,0,60H660V80h70a10,10,0,0,0,0-20H690a30,30,0,0,1,0-60h70V20H690A10,10,0,0,0,680,30Z"/><polygon class="cls-1" points="130 20 130 40 210 40 210 60 130 60 130 80 210 80 210 100 110 100 110 0 210 0 210 20 130 20"/><polygon class="cls-1" points="570 20 570 40 650 40 650 60 570 60 570 80 650 80 650 100 550 100 550 0 650 0 650 20 570 20"/><path class="cls-1" d="M320,30A30,30,0,0,0,290,0H220V100h20V60h50a10,10,0,0,1,10,10v30h20V70a29.862,29.862,0,0,0-7.65-20A29.862,29.862,0,0,0,320,30ZM240,40V20h50a10,10,0,0,1,0,20Z"/><path class="cls-1" d="M380,0a50,50,0,1,0,50,50A50.005,50.005,0,0,0,380,0Zm0,80a30,30,0,1,1,30-30A30,30,0,0,1,380,80Z"/><path class="cls-1" d="M60.77,1.95,59.99,0H40.01l-.78,1.94L0,100H21.55l11.2-28h34.5l11.2,28H100ZM40.75,52,50,28.87,59.25,52Z"/></g></g></g></svg>