<svg xmlns="http://www.w3.org/2000/svg" viewBox="0 0 836.622 105.169"><defs><style>.cls-1,.cls-2,.cls-3{fill:#366ce1;}.cls-1{opacity:0.38;}.cls-2{opacity:0.62;}.cls-4{fill:#121221;}</style></defs><title>agency informer analytics</title><g id="Слой_2" data-name="Слой 2"><g id="Work_space" data-name="Work space"><g id="agency_informer_analytics" data-name="agency informer analytics"><path class="cls-1" d="M70,72.35V95.83A49.792,49.792,0,0,1,50,100a49.16,49.16,0,0,1-10-1.01V78.28a29.957,29.957,0,0,0,30-5.93Z"/><path class="cls-1" d="M40,78.28V98.99A50.021,50.021,0,0,1,1.01,60H21.72A29.952,29.952,0,0,0,40,78.28Z"/><path class="cls-2" d="M72.35,30H95.83A49.792,49.792,0,0,1,100,50a49.16,49.16,0,0,1-1.01,10H78.28a29.957,29.957,0,0,0-5.93-30Z"/><path class="cls-2" d="M78.28,60H98.99A50.021,50.021,0,0,1,60,98.99V78.28A29.952,29.952,0,0,0,78.28,60Z"/><path class="cls-3" d="M30,27.65V4.17A49.792,49.792,0,0,1,50,0,49.16,49.16,0,0,1,60,1.01V21.72a29.957,29.957,0,0,0-30,5.93Z"/><path class="cls-3" d="M60,21.72V1.01A50.021,50.021,0,0,1,98.99,40H78.28A29.952,29.952,0,0,0,60,21.72Z"/><path class="cls-4" d="M27.65,70H4.17A49.792,49.792,0,0,1,0,50,49.16,49.16,0,0,1,1.01,40H21.72a29.957,29.957,0,0,0,5.93,30Z"/><path class="cls-4" d="M21.72,40H1.01A50.021,50.021,0,0,1,40,1.01V21.72A29.952,29.952,0,0,0,21.72,40Z"/><path class="cls-3" d="M352.979,28.682h9.9a23.9,23.9,0,1,1,0-9.56h-9.9a14.341,14.341,0,1,0,0,9.56Z"/><path class="cls-3" d="M472.972,86.047h9.9a23.9,23.9,0,1,1,0-9.56h-9.9a14.341,14.341,0,1,0,0,9.56Z"/><polygon class="cls-4" points="540.237 9.561 540.237 19.122 568.919 19.122 568.919 28.682 540.237 28.682 540.237 47.804 530.676 47.804 530.676 0 578.48 0 578.48 9.561 540.237 9.561"/><polygon class="cls-4" points="463.75 9.561 463.75 38.243 473.311 38.243 473.311 47.804 444.629 47.804 444.629 38.243 454.19 38.243 454.19 9.561 444.629 9.561 444.629 0 473.311 0 473.311 9.561 463.75 9.561"/><polygon class="cls-3" points="339.46 66.926 339.46 95.608 349.02 95.608 349.02 105.169 320.338 105.169 320.338 95.608 329.899 95.608 329.899 66.926 320.338 66.926 320.338 57.365 349.02 57.365 349.02 66.926 339.46 66.926"/><polygon class="cls-3" points="425.507 66.926 425.507 95.608 435.068 95.608 435.068 105.169 406.385 105.169 406.385 95.608 415.946 95.608 415.946 66.926 406.385 66.926 406.385 57.365 435.068 57.365 435.068 66.926 425.507 66.926"/><polygon class="cls-3" points="210.389 57.365 210.389 105.169 200.828 105.169 172.145 71.988 172.145 105.169 162.585 105.169 162.585 57.365 172.145 57.365 200.828 90.546 200.828 57.365 210.389 57.365"/><polygon class="cls-3" points="310.777 0 310.777 47.804 301.216 47.804 272.534 14.623 272.534 47.804 262.973 47.804 262.973 0 272.534 0 301.216 33.181 301.216 0 310.777 0"/><polygon class="cls-4" points="525.896 0 525.896 47.804 516.335 47.804 487.652 14.623 487.652 47.804 478.092 47.804 478.092 0 487.652 0 516.335 33.181 516.335 0 525.896 0"/><polygon class="cls-4" points="731.453 0 731.453 47.804 721.892 47.804 721.892 14.623 713.861 23.926 707.546 31.245 701.232 23.926 693.21 14.638 693.21 47.804 683.649 47.804 683.649 0 693.21 0 693.21 0.005 707.546 16.612 721.883 0 731.453 0"/><path class="cls-3" d="M497.213,71.706a4.783,4.783,0,0,0,4.781,4.781h19.121a14.341,14.341,0,1,1,0,28.682H487.652V95.608h33.463a4.781,4.781,0,1,0,0-9.561H501.994a14.341,14.341,0,1,1,0-28.682h33.462v9.561H501.994A4.782,4.782,0,0,0,497.213,71.706Z"/><polygon class="cls-3" points="219.949 9.561 219.949 19.122 258.193 19.122 258.193 28.682 219.949 28.682 219.949 38.243 258.193 38.243 258.193 47.804 210.389 47.804 210.389 0 258.193 0 258.193 9.561 219.949 9.561"/><polygon class="cls-4" points="745.794 9.561 745.794 19.122 784.038 19.122 784.038 28.682 745.794 28.682 745.794 38.243 784.038 38.243 784.038 47.804 736.234 47.804 736.234 0 784.038 0 784.038 9.561 745.794 9.561"/><polygon class="cls-3" points="315.558 95.608 315.558 105.169 267.754 105.169 267.754 57.365 277.314 57.365 277.314 95.608 315.558 95.608"/><path class="cls-4" d="M836.622,14.341A14.34,14.34,0,0,0,822.281,0H788.818V47.8h9.561V28.682h23.9a4.782,4.782,0,0,1,4.78,4.781V47.8h9.561V33.463a14.273,14.273,0,0,0-3.657-9.561A14.271,14.271,0,0,0,836.622,14.341Zm-38.243,4.781V9.561h23.9a4.781,4.781,0,0,1,0,9.561Z"/><path class="cls-4" d="M678.869,14.341A14.34,14.34,0,0,0,664.528,0H631.065V47.8h9.56V28.682h23.9a4.783,4.783,0,0,1,4.78,4.781V47.8h9.561V33.463a14.278,14.278,0,0,0-3.657-9.561A14.276,14.276,0,0,0,678.869,14.341Zm-38.244,4.781V9.561h23.9a4.781,4.781,0,0,1,0,9.561Z"/><path class="cls-4" d="M602.382,0a23.9,23.9,0,1,0,23.9,23.9A23.9,23.9,0,0,0,602.382,0Zm0,38.243A14.341,14.341,0,1,1,616.723,23.9,14.34,14.34,0,0,1,602.382,38.243Z"/><path class="cls-3" d="M244.22,58.3l-.373-.932H234.3l-.372.927-18.754,46.877h10.3l5.354-13.385h16.492l5.354,13.385h10.3Zm-9.571,23.926,4.422-11.057,4.422,11.057Z"/><path class="cls-3" d="M139.051.932,138.678,0h-9.552l-.372.927L110,47.8h10.3l5.354-13.385h16.492L147.5,47.8h10.3ZM129.48,24.858,133.9,13.8l4.422,11.057Z"/><path class="cls-3" d="M139.051,58.3l-.373-.932h-9.552l-.372.927L110,105.169h10.3l5.354-13.385h16.492l5.354,13.385h10.3ZM129.48,82.223,133.9,71.166l4.422,11.057Z"/><path class="cls-3" d="M205.608,19.122V23.9a23.443,23.443,0,0,1-.483,4.78A23.907,23.907,0,1,1,198.605,7l-6.76,6.76a14.34,14.34,0,1,0,3.38,14.919H181.706v-9.56Z"/><polygon class="cls-3" points="401.605 57.365 401.605 66.926 382.483 66.926 382.483 105.169 372.923 105.169 372.923 66.926 353.801 66.926 353.801 57.365 401.605 57.365"/><polygon class="cls-3" points="388.593 22.21 387.24 23.902 387.264 23.902 387.264 47.804 377.703 47.804 377.703 23.902 376.35 22.21 358.581 0 370.824 0 382.469 14.556 394.114 0 406.362 0 388.593 22.21"/></g></g></g></svg>