<svg xmlns="http://www.w3.org/2000/svg" viewBox="0 0 1516.62 400"><defs><style>.cls-1{fill:#366ce1;}.cls-2{fill:#121221;}</style></defs><title>agileCRM</title><g id="Complete"><g id="agile_CRM" data-name="agile CRM"><path class="cls-1" d="M725,500a100,100,0,1,1-108.41-99.65c2.77-.23,5.58-.35,8.41-.35A100,100,0,0,1,725,500Z" transform="translate(150 -300)"/><path class="cls-1" d="M375,550a50,50,0,1,1-50-50,51.18,51.18,0,0,1,8.81.77A50.034,50.034,0,0,1,375,550Z" transform="translate(150 -300)"/><path class="cls-2" d="M625,600H325a50.007,50.007,0,0,0,8.81-99.23A150.042,150.042,0,1,1,616.59,400.35,100,100,0,0,0,625,600Z" transform="translate(150 -300)"/><path class="cls-2" d="M40,500v10.01a50,50,0,1,0,0,79.98V650a29.993,29.993,0,0,1-51.56,20.85L-25.7,684.99A49.988,49.988,0,0,0,60,650V500ZM10,580a30,30,0,1,1,30-30A30,30,0,0,1,10,580Z" transform="translate(150 -300)"/><path class="cls-2" d="M258.99,540a50,50,0,0,0-97.98,0,50.01,50.01,0,0,0,0,20,50,50,0,0,0,76.56,31.71l-14.64-14.64A29.994,29.994,0,0,1,181.72,560h77.27a50.01,50.01,0,0,0,0-20Zm-77.27,0a26.912,26.912,0,0,1,1.21-2.93A30,30,0,0,1,238.28,540Z" transform="translate(150 -300)"/><path class="cls-2" d="M150,580v20a50.02,50.02,0,0,1-50-50V400h20V550A30,30,0,0,0,150,580Z" transform="translate(150 -300)"/><rect class="cls-2" x="220" y="200" width="20" height="100"/><path class="cls-2" d="M-100,500a50.005,50.005,0,0,0-50,50v50h20V570h60v30h20V550A50.005,50.005,0,0,0-100,500Zm-30,50a30,30,0,0,1,30-30,30,30,0,0,1,30,30Z" transform="translate(150 -300)"/><path class="cls-1" d="M888.99,550h37.63a100,100,0,1,1,0-100H888.99a70,70,0,1,0,0,100Z" transform="translate(150 -300)"/><path class="cls-1" d="M1146.62,450a50.005,50.005,0,0,0-50-50h-150V600h30V500h120a19.994,19.994,0,0,1,20,20v80h30V520a49.83,49.83,0,0,0-14.31-35A49.83,49.83,0,0,0,1146.62,450Zm-50,20h-120V430h120a20,20,0,0,1,0,40Z" transform="translate(150 -300)"/><path class="cls-1" d="M1346.62,400c-3.37,0-6.71.17-10,.5a99.952,99.952,0,0,0-75,46.8,99.952,99.952,0,0,0-75-46.8c-3.29-.33-6.63-.5-10-.5h-20V600h30V430.72a70,70,0,0,1,60,69.28,99.512,99.512,0,0,0,15,52.71,99.512,99.512,0,0,0,15-52.71,70,70,0,0,1,60-69.28V600h30V400Zm.71,29.31v-.02c.15.15.29.29.43.44C1347.62,429.58,1347.47,429.44,1347.33,429.31Z" transform="translate(150 -300)"/></g></g></svg>