Z"<svg xmlns="http://www.w3.org/2000/svg" viewBox="0 0 299.88 309.183"><defs><style>.cls-1{fill:#121221;}.cls-2{fill:#366ce1;}</style></defs><title>AIM</title><g id="Слой_2" data-name="Слой 2"><g id="Complete"><g id="AIM"><path class="cls-1" d="M149.94,0a100,100,0,1,0,100,100A100,100,0,0,0,149.94,0Zm0,180a80,80,0,1,1,80-80A80,80,0,0,1,149.94,180Z"/><path class="cls-2" d="M149.94,38.5a61.5,61.5,0,1,0,61.5,61.5A61.5,61.5,0,0,0,149.94,38.5Zm0,110.7a49.2,49.2,0,1,1,49.2-49.2A49.2,49.2,0,0,1,149.94,149.2/><path class="cls-1" d="M149.94,62a38,38,0,1,0,38,38A38,38,0,0,0,149.94,62Zm0,68.4a30.4,30.4,0,1,1,30.4-30.4A30.4,30.4,0,0,1,149.94,130.4Z"/><circle class="cls-2" cx="149.94" cy="100" r="23.5"/><path class="cls-1" d="M60.77,211.133l-.78-1.95H40.01l-.78,1.94L0,309.183H21.55l11.2-28h34.5l11.2,28H100Zm-20.02,50.05L50,238.053l9.25,23.13Z"/><path class="cls-1" d="M200.62,308.223l14.46-57.86,14.56,56.71.3,1.15h14.91l.03-.11v.11H250l.29-1.16,14.54-56.59,14.43,57.75h20.62v-.02l-24.61-98.41-.39-1.57H255.02l-.38,1.5-14.67,57.13-14.7-57.24-.35-1.39H209.89l-.01.04v-.04h-4.87l-.37,1.46L180,308.223Zm19.26-50.99v-.04l.02.04Zm0-47.53.19-.61-.19.64Z"/><polygon class="cls-1" points="219.88 257.193 219.9 257.233 219.88 257.233 219.88 257.193"/><polygon class="cls-1" points="219.88 209.703 220.07 209.093 219.88 209.733 219.88 209.703"/><polygon class="cls-1" points="219.88 209.703 220.07 209.093 219.88 209.733 219.88 209.703"/><polygon class="cls-1" points="150 229.183 150 289.183 170 289.183 170 309.183 110 309.183 110 289.183 130 289.183 130 229.183 110 229.183 110 209.183 170 209.183 170 229.183 150 229.183"/></g></g></g></svg>