<svg xmlns="http://www.w3.org/2000/svg" viewBox="0 0 1060 100"><defs><style>.cls-1{fill:#366ce1;}.cls-2{fill:#121221;}</style></defs><title>ajax health</title><g id="Слой_2" data-name="Слой 2"><g id="Work_space" data-name="Work space"><g id="ajax_health" data-name="ajax health"><path class="cls-1" d="M280.77,1.95,279.99,0H260.01l-.78,1.94L220,100h21.55l11.2-28h34.5l11.2,28H320ZM260.75,52,270,28.87,279.25,52Z"/><path class="cls-1" d="M60.77,1.95,59.99,0H40.01l-.78,1.94L0,100H21.55l11.2-28h34.5l11.2,28H100ZM40.75,52,50,28.87,59.25,52Z"/><polygon class="cls-1" points="392.5 50.03 429.95 100 404.96 100 380.01 66.7 355.05 100 330.07 100 367.51 50.03 330.02 0 355 0 380.01 33.36 405.01 0 430 0 392.5 50.03"/><polygon class="cls-2" points="570 10 570 45 660 45 660 55 570 55 570 90 660 90 660 100 560 100 560 0 660 0 660 10 570 10"/><path class="cls-2" d="M749.72,55l-4.51-10L725.5,1.27l.01-.01L725.02.18h-.01L724.93,0h-9.84l-.08.18V.2l-.47,1.05h-.01L694.81,45,690.3,55l-20.28,45h10.97l20.28-45h37.48l20.28,45H770Zm-19.71-2.96-.02-.04h.02ZM705.78,45l14.23-31.58L734.25,45Z"/><polygon class="cls-2" points="880 90 880 100 780 100 780 0 790 0 790 90 880 90"/><polygon class="cls-2" points="1050 55 970 55 970 100 960 100 960 0 970 0 970 45 1050 45 1050 0 1060 0 1060 100 1050 100 1050 55"/><polygon class="cls-2" points="540 55 460 55 460 100 450 100 450 0 460 0 460 45 540 45 540 0 550 0 550 100 540 100 540 55"/><polygon class="cls-2" points="950 0 950 10 905 10 905 100 895 100 895 10 850 10 850 0 950 0"/><path class="cls-1" d="M210,0V50a49.992,49.992,0,0,1-85.35,35.35l14.14-14.14A30,30,0,0,0,190,50V20H130L110,0Z"/></g></g></g></svg>