<svg xmlns="http://www.w3.org/2000/svg" viewBox="0 0 577.372 227.7"><defs><style>.a{fill:#fff;}</style></defs><title>akula</title><path d="M53.584,95.265C52.061,46.74.352,13.205,5.507,7.968c3.83-3.89,32.2,14.773,54.4,34.792C74.066,55.521,76.573,60.588,81.787,64.545a48.233,48.233,0,0,0,4.692,2.886c21.1,11.258,120.192-15.814,120.192-15.814A455.673,455.673,0,0,1,283.214,37.7a166.244,166.244,0,0,0-31.629-19.61C229.987,7.867,215.935,7.02,216.16,4.805c.4-3.94,45.795-10.531,93.623,5.061,26.352,8.59,27.141,15.34,56.933,24.038,24.279,7.088,29.455,4.269,66.422,10.754,15.829,2.777,43.675,7.777,75.278,18.978,34.438,12.2,68.542,24.292,68.952,41.118.4,16.42-31.759,29.767-49.974,37.323-47.388,19.658-63.824,6.794-107.54,25.3-27.091,11.47-22.669,17.21-60.729,35.424-40.057,19.171-76.234,27.78-77.809,24.039-1.22-2.9,19.278-9.668,37.323-31.63a111.771,111.771,0,0,0,19.61-36.057c-49.77,1.6-88.911-4.628-115.763-10.754-67.848-15.48-104.424-41.054-134.742-21.508-14.868,9.585-13.7,20.671-42.384,44.281C27.759,185.666,4.269,200.5.447,196.48-5.784,189.93,55.273,149.1,53.584,95.265Z"/><path class="a" d="M215.15,95.366a124.921,124.921,0,0,0-4.958,32.257c-3.163-1.6-7.9-4.666-10-10-3.16-8.02,1.752-16.5,9.38-29.356,6.463-10.89,15.119-22.382,16.479-21.549C227.344,67.509,220.144,78.289,215.15,95.366Z"/><path class="a" d="M226.051,66.718c1.169-.7,8.963,9.452,15.084,20.535,6.606,11.959,12.521,22.8,8.24,31.69-2.207,4.584-6.512,7.037-9.3,8.282-.094-2.572-.254-5.461-.525-8.625a157.579,157.579,0,0,0-4.883-28.812C230.487,74.846,225.053,67.314,226.051,66.718Z"/><path class="a" d="M271.6,67.309c-1.467-.355-6.228,16.249-8.45,24-4.611,16.077-4.715,20.688-2.874,25.1,2.4,5.744,7.246,9.107,10.521,10.9a173.911,173.911,0,0,1-1.647-29.662C269.688,79.684,272.847,67.611,271.6,67.309Z"/><path class="a" d="M207.544,104.239c-.158-1.491,8.88-4.18,16.986-4.183,8.478,0,17.674,2.931,17.493,4.436C241.682,107.329,207.844,107.077,207.544,104.239Z"/><path class="a" d="M310.3,117c-3.838,7.863-8.309,9.4-9.971,9.8-11.318,2.748-23.212-15.24-26.367-20.028-4.014-6.093-7.238-13.248-6.211-13.944,1.108-.751,6.247,8.059,15.465,14.7C292.81,114.448,303.18,116.405,310.3,117Z"/><path class="a" d="M310.812,77.281c-3.608-7.647-8.219-9.457-9.972-9.972C291.618,64.6,282.023,74.36,276,80.492c-8.135,8.275-13.625,18.008-12.507,18.93,1.026.846,6.579-6.595,16.309-12.676A65.783,65.783,0,0,1,310.812,77.281Z"/><path class="a" d="M330.5,125.788a20.5,20.5,0,0,1-9.127-9.127c-2.759-5.988-.9-11.412,2.282-24.084,4.771-19.031,5.359-26.235,6.338-26.113,1.2.15.3,11.065.253,34.986C330.227,111.748,330.373,120.2,330.5,125.788Z"/><path class="a" d="M360.671,126.464c2.5-1.359,7.023-4.311,9.126-9.634a18.679,18.679,0,0,0,.676-10.478c-3.215-18.1-7.1-39.981-9.464-39.55-1.272.232-.388,6.618-.169,29.916C360.958,109.306,360.814,119.619,360.671,126.464Z"/><path class="a" d="M361.009,66.8c.45.231.024,1.979-19.268,43.1-4.266,9.094-7.729,16.313-11.239,15.887-3.04-.369-4.836-6.318-5.831-10.986,3.262-3.774,7.814-9.189,13.014-15.887C353.76,78.2,359.76,66.163,361.009,66.8Z"/><path class="a" d="M390.755,126.3c-3.027-1.139-8.192-3.635-9.972-8.62a11.551,11.551,0,0,1-.507-5.408c.4-3.278,5.8-45.853,9.127-45.3,1.368.229.265,7.392.676,34.986C390.231,112.12,390.52,120.526,390.755,126.3Z"/><path class="a" d="M382.727,116.661c.839,2.427,3.058,7.7,8.028,9.634a11.6,11.6,0,0,0,5.535.634c9.645-.979,34.1-6.548,33.465-9.38-.37-1.639-8.564.186-33.465-.381C390.7,117.041,386.036,116.834,382.727,116.661Z"/><path class="a" d="M448.29,127.056c-2.893-1.559-7.719-4.773-9.76-10.395-1.266-3.486-1.766-8.738,4.8-21.811,7.731-15.4,18.808-28.794,20.468-27.71,1.789,1.168-10.855,16.863-14.535,43.437A105.38,105.38,0,0,0,448.29,127.056Z"/><path class="a" d="M478.164,127.14c3.041-1.531,7.954-4.637,9.971-10.141,1.564-4.265,1.18-9.4-5.577-22.479-7.21-13.953-17.21-28.3-18.761-27.38-1.34.8,6,11.6,10.648,30.085A124.033,124.033,0,0,1,478.164,127.14Z"/><path class="a" d="M446.558,104.154c-.16-1.358,8.569-4.02,16.563-4.056,7.722-.036,16.357,2.37,16.226,3.718C479.1,106.386,446.86,106.72,446.558,104.154Z"/></svg>