<svg xmlns="http://www.w3.org/2000/svg" viewBox="0 0 970 100"><defs><style>.cls-1{fill:#366ce1;}.cls-2{fill:#121221;}</style></defs><title>alive car</title><g id="Слой_2" data-name="Слой 2"><g id="Work_space" data-name="Work space"><g id="alive_car" data-name="alive car"><polygon class="cls-1" points="260 20 260 80 280 80 280 100 220 100 220 80 240 80 240 20 220 20 220 0 280 0 280 20 260 20"/><polygon class="cls-1" points="460 20 460 40 540 40 540 60 460 60 460 80 540 80 540 100 440 100 440 0 540 0 540 20 460 20"/><polygon class="cls-1" points="210 80 210 100 110 100 110 0 130 0 130 80 210 80"/><polygon class="cls-1" points="417.279 15.147 431.421 29.289 360.711 100 290 29.289 304.142 15.147 360.711 71.716 417.279 15.147"/><path class="cls-2" d="M970,30A30,30,0,0,0,940,0H870V100h20V60h50a10,10,0,0,1,10,10v30h20V70a29.862,29.862,0,0,0-7.65-20A29.862,29.862,0,0,0,970,30ZM890,40V20h50a10,10,0,0,1,0,20Z"/><path class="cls-2" d="M739.29,60H760a50,50,0,1,1,0-20H739.29a30,30,0,1,0,0,20Z"/><path class="cls-2" d="M820.77,1.95,819.99,0H800.01l-.78,1.94L760,100h21.55l11.2-28h34.5l11.2,28H860ZM800.75,52,810,28.87,819.25,52Z"/><path class="cls-1" d="M60.77,1.95,59.99,0H40.01l-.78,1.94L0,100H21.55l11.2-28h34.5l11.2,28H100ZM40.75,52,50,28.87,59.25,52Z"/></g></g></g></svg>