<svg xmlns="http://www.w3.org/2000/svg" viewBox="0 0 520 300"><defs><style>.cls-1{fill:#366ce1;}.cls-2{fill:#121221;}</style></defs><title>alpha</title><g id="complete"><g id="alpha_anywhere" data-name="alpha anywhere"><path class="cls-1" d="M370,450v20a30,30,0,0,0-30,30,50,50,0,0,1-100,0h20a30,30,0,0,0,60,0,50.015,50.015,0,0,1,50-50Z" transform="translate(-240 -350)"/><path class="cls-2" d="M370,550V530a30,30,0,0,1-30-30,50,50,0,0,0-100,0h20a30,30,0,0,1,60,0,50.015,50.015,0,0,0,50,50Z" transform="translate(-240 -350)"/><path class="cls-2" d="M540,550V500a49.891,49.891,0,0,0-20-39.99V550Z" transform="translate(-240 -350)"/><path class="cls-2" d="M520,539.99V500a30,30,0,1,1-30-30,30,30,0,0,1,30,30V460.01a50,50,0,1,0,0,79.98Z" transform="translate(-240 -350)"/><path class="cls-1" d="M570,530v20a49.99,49.99,0,0,1-39.99-80A50.4,50.4,0,0,0,520,460.01V350h20V500A30,30,0,0,0,570,530Z" transform="translate(-240 -350)"/><path class="cls-1" d="M610,450v20a30,30,0,0,0-30,30V650H560V539.99A50.4,50.4,0,0,0,570.01,530,49.99,49.99,0,0,1,610,450Z" transform="translate(-240 -350)"/><path class="cls-1" d="M760,500v50H740V500a30,30,0,0,0-60,0v50H660V350h20V460.01A49.99,49.99,0,0,1,760,500Z" transform="translate(-240 -350)"/><path class="cls-2" d="M740,450v10.01A49.98,49.98,0,1,0,760,500V450Zm-30,80a30,30,0,1,1,30-30A30,30,0,0,1,710,530Z" transform="translate(-240 -350)"/><path class="cls-1" d="M610,450a50,50,0,1,0,50,50A50.005,50.005,0,0,0,610,450Zm0,80a30,30,0,1,1,30-30A30,30,0,0,1,610,530Z" transform="translate(-240 -350)"/><path class="cls-1" d="M760,500v50H740V539.99A49.891,49.891,0,0,0,760,500Z" transform="translate(-240 -350)"/></g></g></svg>