<svg xmlns="http://www.w3.org/2000/svg" viewBox="0 0 540 144.193"><title>amblin</title><path d="M50,44.193a50,50,0,1,0,50,50A50.005,50.005,0,0,0,50,44.193Zm0,90a40,40,0,1,1,40-40A40,40,0,0,1,50,134.193Z"/><rect x="45" y="14.193" width="10" height="130"/><rect x="45" y="44.193" width="10" height="100" transform="translate(144.193 44.193) rotate(90)"/><rect x="45" y="44.193" width="10" height="100" transform="translate(-40.398 37.62) rotate(-30)"/><rect x="45" y="44.193" width="10" height="100" transform="translate(106.574 3.795) rotate(60)"/><rect x="45" y="44.193" width="10" height="100" transform="translate(-56.574 90.398) rotate(-60)"/><rect x="45" y="44.193" width="10" height="100" transform="matrix(0.866, 0.5, -0.5, 0.866, 53.795, -12.38)"/><rect x="50" y="24.193" width="10" height="60"/><rect x="40" y="24.193" width="10" height="60"/><path d="M20,4.193c3.944-7.17,21.1-3.757,40,0,12.022,2.391,17.537,5.006,20,10,1.76,3.57,2.1,8.633,0,10-3.488,2.271-9.184-9.219-20-10-14.123-1.019-20.353,12.967-30,10C22.309,21.828,16.867,9.888,20,4.193Z"/><path d="M173.29,94.193c-1.07-3.34-2.18-6.67-3.29-10-4.12-12.36-8.25-24.73-10-37.09a74.576,74.576,0,0,0,0-22.91H150a74.576,74.576,0,0,0,0,22.91c-1.75,12.36-5.88,24.73-10,37.09-1.11,3.33-2.22,6.66-3.29,10-5.32,16.66-9.49,33.33-6.71,50h10c-2.78-16.67,1.39-33.34,6.71-50h16.58c5.32,16.66,9.49,33.33,6.71,50h10C182.78,127.523,178.61,110.853,173.29,94.193Zm-23.29-10c1.72-5.17,3.45-10.34,5-15.51,1.55,5.17,3.28,10.34,5,15.51Z"/><path d="M450.887,24.193h-10c-6.667,40,26.666,80,20,120h10C477.553,104.193,444.22,64.193,450.887,24.193Z"/><path d="M379.113,24.193h-10c-6.666,40,26.667,80,20,120h10C405.78,104.193,372.447,64.193,379.113,24.193Z"/><path d="M270.887,24.193h-10c-6.667,40,26.666,80,20,120h10C297.553,104.193,264.22,64.193,270.887,24.193Z"/><path d="M479.113,24.193h-10c-6.666,40,26.667,80,20,120h10C505.78,104.193,472.447,64.193,479.113,24.193Z"/><path d="M519.113,24.193h-10c-6.666,40,26.667,80,20,120h10C545.78,104.193,512.447,64.193,519.113,24.193Z"/><path d="M230.887,24.193h-10c-6.667,40,26.666,30,20,70h10C257.553,54.193,224.22,64.193,230.887,24.193Z"/><path d="M509.113,24.193h10c6.667,40-26.666,80-20,120h-10C482.447,104.193,515.78,64.193,509.113,24.193Z"/><path d="M220.887,24.193h10c6.666,40-26.667,80-20,120h-10C194.22,104.193,227.553,64.193,220.887,24.193Z"/><path d="M359.5,84.193a35.226,35.226,0,0,0-10.27-6.98,28.732,28.732,0,0,0,3.12-3.02,30,30,0,0,0-22.35-50h-39.11a66.1,66.1,0,0,0-.88,10c-.22,15.78,4.75,31.56,9.99,47.34.3.89.59,1.77.89,2.66,1,3,2,6,2.97,9.01,4.39,13.66,8.1,27.32,7.91,40.99,0,.39-.01.78-.02,1.17a66.135,66.135,0,0,1-.86,8.83H335a35,35,0,0,0,24.5-60Zm-51.93-10.1a166.1,166.1,0,0,1-6.69-27.07,82.668,82.668,0,0,1-.87-12.83H330a20,20,0,0,1,0,40H307.6C307.587,74.163,307.577,74.133,307.567,74.093Zm27.43,60.1h-13.23c.02-1.28,0-2.55-.04-3.82-.44-11.8-3.56-23.59-7.3-35.38-1.14-3.6-2.34-7.2-3.54-10.8H335a25,25,0,0,1,0,50Z"/><path d="M260.887,24.193h10c6.666,40-26.667,30-20,70h-10C234.22,54.193,267.553,64.193,260.887,24.193Z"/><rect x="390" y="134.193" width="50" height="10"/></svg>