<svg id="Main" xmlns="http://www.w3.org/2000/svg" viewBox="0 0 950 610"><defs><style>.cls-1{fill:#366ce1;}.cls-2{fill:#e1dfdf;}</style></defs><title>Amplitude</title><g id="Amplitude"><circle class="cls-1" cx="475" cy="150" r="150"/><circle class="cls-2" cx="380" cy="149.845" r="10"/><circle class="cls-2" cx="530" cy="149.845" r="10"/><rect class="cls-2" x="380" y="139.845" width="150" height="20"/><path class="cls-2" d="M415,434.845c.424-4.972.993-9.917,1.5-14.878.582-4.946,1.15-9.9,1.816-14.831q1.933-14.815,4.354-29.565c3.226-19.669,7.088-39.248,11.885-58.741,1.232-4.868,2.505-9.734,3.865-14.6,1.386-4.86,2.85-9.7,4.474-14.551s3.307-9.7,5.372-14.536a103.544,103.544,0,0,1,7.371-14.639,40.749,40.749,0,0,1,6.024-7.579l1.034-.957c.341-.315.807-.646,1.212-.96.432-.317.821-.625,1.3-.933q.765-.465,1.552-.9c.271-.143.5-.287.811-.421l.939-.388a15.055,15.055,0,0,1,1.963-.668c.728-.177,1.468-.325,2.208-.442a21.36,21.36,0,0,1,2.37-.106,13.32,13.32,0,0,1,2.377.254,11.5,11.5,0,0,1,2.272.577,21.258,21.258,0,0,1,2.1.848c.6.324,1.2.669,1.778,1.032a12.6,12.6,0,0,1,1.525,1.111c.453.375.966.779,1.346,1.157l1.108,1.144.54.584.445.556a40.435,40.435,0,0,1,5.107,8.5A105.033,105.033,0,0,1,499,276.441c1.385,5.05,2.528,10.029,3.6,14.99,2.065,9.928,3.8,19.755,5.522,29.529q2.456,14.681,5.065,29.139c1.717,9.647,3.659,19.195,5.846,28.582q1.66,7.034,3.688,13.869c1.336,4.552,2.829,9.015,4.561,13.287a75.6,75.6,0,0,0,6.007,11.976,35.767,35.767,0,0,0,3.751,4.957,22.585,22.585,0,0,0,4.264,3.772,16.488,16.488,0,0,0,4.776,2.205,16.8,16.8,0,0,0,5.4.408,24.267,24.267,0,0,0,5.9-1.283,41.636,41.636,0,0,0,5.985-2.729,73.422,73.422,0,0,0,11.471-8.03c3.674-3.076,7.2-6.43,10.62-9.929s6.735-7.154,9.964-10.9c3.286-3.712,6.393-7.585,9.571-11.435a200.554,200.554,0,0,1-15.242,25.895c-5.843,8.235-12.369,16.208-21.066,22.669a48.717,48.717,0,0,1-7.092,4.322,35.622,35.622,0,0,1-8.34,2.881,27.638,27.638,0,0,1-9.4.32,29.169,29.169,0,0,1-9.085-2.985,33.683,33.683,0,0,1-7.463-5.3,49.632,49.632,0,0,1-5.825-6.4,81.584,81.584,0,0,1-8.523-13.929,183.271,183.271,0,0,1-10.959-29.086c-2.935-9.775-5.232-19.614-7.41-29.411-2.154-9.8-4-19.612-5.9-29.339-1.824-9.738-3.612-19.432-5.645-28.91-.988-4.737-2.032-9.435-3.236-13.958a94.293,94.293,0,0,0-4.162-12.628,22.669,22.669,0,0,0-2.346-4.327l-.122-.182-.1-.093a1.543,1.543,0,0,1-.168-.208c-.05-.069-.05-.022-.063-.054,0-.006-.03-.081.038,0a.315.315,0,0,0,.185.074,1.329,1.329,0,0,0,.372.162,3.457,3.457,0,0,1,.479.116c.178.051.369-.014.538.032a1.578,1.578,0,0,0,.513-.045.868.868,0,0,0,.386-.073c.13-.07.142-.019.209-.065a.23.23,0,0,0,.07-.055c.019-.021-.008.015-.008.015a.07.07,0,0,1-.068.015c-.046.021-.136.111-.207.154-.083.068-.148.066-.259.175l-.333.3a24.918,24.918,0,0,0-3.314,3.953,85.753,85.753,0,0,0-6.429,11.679c-1.971,4.224-3.846,8.63-5.607,13.1-1.792,4.463-3.411,9.048-5.063,13.626s-3.212,9.222-4.748,13.877C437.355,358.5,426.978,396.826,415,434.845Z" transform="translate(-25 -195)"/><path class="cls-1" d="M435,605a50,50,0,1,0,50,50A50.005,50.005,0,0,0,435,605Zm0,80a30,30,0,1,1,30-30A30,30,0,0,1,435,685Z" transform="translate(-25 -195)"/><path class="cls-1" d="M973.99,665a50.01,50.01,0,0,0,0-20,50,50,0,0,0-97.98,0,50.01,50.01,0,0,0,0,20,49.993,49.993,0,0,0,88.98,20H925a29.979,29.979,0,0,1-28.28-20ZM925,625a29.979,29.979,0,0,1,28.28,20H896.72A29.979,29.979,0,0,1,925,625Z" transform="translate(-25 -195)"/><path class="cls-1" d="M25,705H45l80-180,80,180h20L135,505H115Z" transform="translate(-25 -195)"/><path class="cls-1" d="M75,615H175q5,10,10,20H65Q70,625,75,615Z" transform="translate(-25 -195)"/><circle class="cls-1" cx="510" cy="390" r="10"/><rect class="cls-1" x="360" y="410" width="20" height="200"/><path class="cls-1" d="M815,705a50,50,0,1,0-50-50A50.005,50.005,0,0,0,815,705Zm0-80a30,30,0,1,1-30,30A30,30,0,0,1,815,625Z" transform="translate(-25 -195)"/><rect class="cls-1" x="845" y="505" width="20" height="200" transform="translate(1685 1015) rotate(180)"/><rect class="cls-1" x="470" y="310" width="20" height="200"/><rect class="cls-1" x="530" y="310" width="20" height="50"/><rect class="cls-1" x="500" y="410" width="20" height="100"/><path class="cls-1" d="M643.74,675A40.027,40.027,0,0,1,605,705c-.38,0-.76-.01-1.13-.01A50.027,50.027,0,0,1,556.01,665,49.16,49.16,0,0,1,555,655V555h20V655a29.977,29.977,0,0,0,28.97,29.97c.34.02.69.03,1.03.03a19.958,19.958,0,0,0,17.31-10Z" transform="translate(-25 -195)"/><rect class="cls-1" x="530" y="410" width="90" height="20"/><path class="cls-1" d="M755,605v50a50,50,0,0,1-100,0V605h20v50a30,30,0,0,0,60,0V605Z" transform="translate(-25 -195)"/><path class="cls-1" d="M375,645v60H355V645a20,20,0,0,0-40,0v60H295V645a20,20,0,0,0-40,0v60H235V605h20v5.35a40,40,0,0,1,50,8.21A39.989,39.989,0,0,1,375,645Z" transform="translate(-25 -195)"/><circle class="cls-1" cx="215" cy="200" r="100"/><circle class="cls-1" cx="55" cy="250" r="50"/><circle class="cls-1" cx="735" cy="200" r="100"/><circle class="cls-1" cx="895" cy="250" r="50"/></g></svg>