<svg id="Слой_1" data-name="Слой 1" xmlns="http://www.w3.org/2000/svg" viewBox="0 0 720 600.439"><defs><style>.cls-1{fill:#e1e0e0;stroke:#121222;stroke-miterlimit:10;stroke-width:20.255px;}.cls-2{fill:#366ce1;}.cls-3{fill:#121221;}</style></defs><title>angular</title><path class="cls-1" d="M300,255l200-50,200,50V545L500,655,300,555Z" transform="translate(-140 -194.561)"/><path class="cls-2" d="M560,305q-30-10-60-20-30,10-60,20-40,110-80,220l60,30q14.82-42.6,29.63-85.19Q474.815,482.41,500,495q25.185-12.585,50.37-25.19,14.8,42.6,29.63,85.19l60-30Q600,415.005,560,305ZM500,455q-19.665-8.43-39.35-16.86Q480.315,381.575,500,325q19.68,56.565,39.35,113.14Q519.67,446.57,500,455Z" transform="translate(-140 -194.561)"/><path class="cls-3" d="M140,795l40-100h20l40,100H220l-30-80-30,80Z" transform="translate(-140 -194.561)"/><path class="cls-3" d="M640,795l40-100h20l40,100H720l-30-80-30,80Z" transform="translate(-140 -194.561)"/><polygon class="cls-3" points="200 500.439 200 600.439 180 600.439 120 525.439 120 600.439 100 600.439 100 500.439 120 500.439 180 575.439 180 500.439 200 500.439"/><path class="cls-3" d="M440,745a50.133,50.133,0,1,1-4.22-20h-23.5a29.963,29.963,0,1,0,5.98,30H400v10H380V745Z" transform="translate(-140 -194.561)"/><path class="cls-3" d="M540,695v50a50,50,0,0,1-100,0V695h20v50a30,30,0,0,0,60,0V695Z" transform="translate(-140 -194.561)"/><path class="cls-3" d="M540,695h20v80h80v20H540Z" transform="translate(-140 -194.561)"/><path class="cls-3" d="M860,755h-2a.5.5,0,0,0-.07-.08C858.61,754.98,859.3,755,860,755Z" transform="translate(-140 -194.561)"/><path class="cls-3" d="M807.93,754.92c.68.06,1.37.08,2.07.08a30,30,0,0,0,0-60H740V795h20V755h28q16,20,32,40h20q-16-20-32-40A.5.5,0,0,0,807.93,754.92ZM760,735V715h50a10,10,0,0,1,0,20Z" transform="translate(-140 -194.561)"/></svg>