<svg xmlns="http://www.w3.org/2000/svg" viewBox="0 0 730 100"><defs><style>.cls-1{fill:#121221;}</style></defs><title>anomali</title><g id="Слой_2" data-name="Слой 2"><g id="Work_space" data-name="Work space"><g id="anomali"><polygon class="cls-1" points="710 20 710 80 730 80 730 100 670 100 670 80 690 80 690 20 670 20 670 0 730 0 730 20 710 20"/><polygon class="cls-1" points="430 0 430 100 410 100 410 30.59 393.2 50.05 379.99 65.36 366.78 50.05 350 30.62 350 100 330 100 330 0 350 0 350 0.01 379.99 34.75 409.98 0 430 0"/><polygon class="cls-1" points="650 80 650 100 550 100 550 0 570 0 570 80 650 80"/><polygon class="cls-1" points="210 0 210 100 190 100 130 30.59 130 100 110 100 110 0 130 0 190 69.41 190 0 210 0"/><path class="cls-1" d="M270,0a50,50,0,1,0,50,50A50.005,50.005,0,0,0,270,0Zm0,80a30,30,0,1,1,30-30A30,30,0,0,1,270,80Z"/><path class="cls-1" d="M60.77,1.95,59.99,0H40.01l-.78,1.94L0,100H21.55l11.2-28h34.5l11.2,28H100ZM40.75,52,50,28.87,59.25,52Z"/><path class="cls-1" d="M500.77,1.95,499.99,0H480.01l-.78,1.94L440,100h21.55l11.2-28h34.5l11.2,28H540ZM480.75,52,490,28.87,499.25,52Z"/></g></g></g></svg>