<svg xmlns="http://www.w3.org/2000/svg" viewBox="0 0 1120 220"><defs><style>.cls-1{fill:#121221;}.cls-2{fill:#366ce1;}</style></defs><title>ant financial</title><g id="Слой_2" data-name="Слой 2"><g id="Work_space" data-name="Work space"><g id="ant_financial" data-name="ant financial"><polygon class="cls-1" points="240 140 240 160 300 160 300 180 240 180 240 220 220 220 220 120 320 120 320 140 240 140"/><polygon class="cls-1" points="370 140 370 200 390 200 390 220 330 220 330 200 350 200 350 140 330 140 330 120 390 120 390 140 370 140"/><polygon class="cls-1" points="880 140 880 200 900 200 900 220 840 220 840 200 860 200 860 140 840 140 840 120 900 120 900 140 880 140"/><polygon class="cls-1" points="500 120 500 220 480 220 420 150.59 420 220 400 220 400 120 420 120 480 189.41 480 120 500 120"/><polygon class="cls-1" points="720 120 720 220 700 220 640 150.59 640 220 620 220 620 120 640 120 700 189.41 700 120 720 120"/><polygon class="cls-2" points="210 0 210 100 190 100 130 30.59 130 100 110 100 110 0 130 0 190 69.41 190 0 210 0"/><polygon class="cls-1" points="1120 200 1120 220 1020 220 1020 120 1040 120 1040 200 1120 200"/><path class="cls-1" d="M809.29,180H830a50,50,0,1,1,0-20H809.29a30,30,0,1,0,0,20Z"/><path class="cls-1" d="M570.77,121.95l-.78-1.95H550.01l-.78,1.94L510,220h21.55l11.2-28h34.5l11.2,28H610ZM550.75,172,560,148.87,569.25,172Z"/><path class="cls-1" d="M970.77,121.95l-.78-1.95H950.01l-.78,1.94L910,220h21.55l11.2-28h34.5l11.2,28H1010ZM950.75,172,960,148.87,969.25,172Z"/><path class="cls-2" d="M60.77,1.95,59.99,0H40.01l-.78,1.94L0,100H21.55l11.2-28h34.5l11.2,28H100ZM40.75,52,50,28.87,59.25,52Z"/><polygon class="cls-2" points="320 0 320 20 280 20 280 100 260 100 260 20 220 20 220 0 320 0"/></g></g></g></svg>