<svg xmlns="http://www.w3.org/2000/svg" viewBox="0 0 670 200"><defs><style>.cls-1,.cls-3,.cls-5{fill:#121221;}.cls-2,.cls-4{fill:#366ce1;}.cls-2,.cls-3{opacity:0.62;}.cls-4,.cls-5{opacity:0.38;}</style></defs><title>antuit</title><g id="Слой_2" data-name="Слой 2"><g id="Work_space" data-name="Work space"><g id="antuit"><path class="cls-1" d="M60.77,71.95,59.99,70H40.01l-.78,1.94L0,170H21.55l11.2-28h34.5l11.2,28H100ZM40.75,122,50,98.87,59.25,122Z"/><rect class="cls-1" x="345.714" y="98.571" width="14.286" height="71.429"/><rect class="cls-1" x="345.714" y="77.143" width="14.286" height="14.286"/><path class="cls-1" d="M181.429,134.286V170H167.143V134.286a21.429,21.429,0,1,0-42.857,0V170H110V98.571h14.286v7.15a35.707,35.707,0,0,1,57.143,28.565Z"/><path class="cls-1" d="M267.143,134.286V98.571h14.286v35.715a21.429,21.429,0,0,0,42.857,0V98.571h14.285v35.715a35.714,35.714,0,1,1-71.428,0Z"/><path class="cls-1" d="M260,134.286a35.715,35.715,0,0,1-71.429,0V70h14.286v35.721a35.526,35.526,0,0,1,21.429-7.15v14.286a21.429,21.429,0,1,0,21.428,21.429Z"/><path class="cls-1" d="M438.571,134.286a35.714,35.714,0,1,1-71.428,0V70h14.286v35.721a35.521,35.521,0,0,1,21.428-7.15v14.286a21.429,21.429,0,1,0,21.429,21.429Z"/><rect class="cls-2" x="520" width="110" height="180"/><rect class="cls-3" x="540" y="20" width="110" height="180"/><rect class="cls-4" x="525" y="15" width="110" height="180" transform="translate(685 -475) rotate(90)"/><rect class="cls-5" x="505" y="35" width="110" height="180" transform="translate(685 -435) rotate(90)"/></g></g></g></svg>