<svg xmlns="http://www.w3.org/2000/svg" viewBox="0 0 540 120"><defs><style>.cls-1{fill:#366ce1;}.cls-2{fill:#121221;}</style></defs><title>anvyl</title><g id="Слой_2" data-name="Слой 2"><g id="Work_space" data-name="Work space"><g id="anvyl"><path class="cls-1" d="M79.72,55,75.21,45,55.5,1.27l.01-.01L55.02.18h-.01L54.93,0H45.09l-.08.18V.2l-.47,1.05h-.01L24.81,45,20.3,55,.02,100H10.99L31.27,55H68.75l20.28,45H100ZM60.01,52.04,59.99,52h.02ZM35.78,45,50.01,13.42,64.25,45Z"/><polygon class="cls-1" points="540 90 540 100 440 100 440 0 450 0 450 90 540 90"/><polygon class="cls-1" points="210 0 210 100 200.07 100 200 99.92 120 14.59 120 100 110 100 110 0 120.02 0 200 85.3 200 0 210 0"/><polygon class="cls-1" points="319.99 0 275.47 98.78 274.93 100 265.05 100 264.51 98.8 220 0 230.97 0 269.99 86.62 309.02 0 319.99 0"/><polygon class="cls-1" points="430 0 386.74 48.16 385.01 50.09 385.01 100 375.01 100 375.01 50.06 373.3 48.16 330.04 0 343.49 0 380.02 40.68 416.56 0 430 0"/><rect class="cls-2" y="100" width="540" height="20"/></g></g></g></svg>