<svg xmlns="http://www.w3.org/2000/svg" viewBox="0 0 623.072 270.343"><defs><style>.a{fill:#020202;}</style></defs><title>apinian way 2</title><path class="a" d="M15.973,187.362c-.486.04-1.122-.217-1.943-1.267-6.786-8.677-1.646-28.062,2.2-46.521,5.56-26.71,14.409-52.636,20.873-79.141A4.613,4.613,0,0,1,38.621,57.9c2.12-1.673,6.26-1.133,7.775,1.015a4.286,4.286,0,0,1,.676,2.7c-.408,6.848.546,61.251,2.256,81.637,1.261,15.02,1.015,30.169,2.9,45.123,0,0,1.362,10.813-3.712,17.531-.65.86-1.311,1.509-1.992,1.42-1.982-.26-2.8-6.6-3.423-15.655-1.027-14.994-.761-24.845-.761-24.845.269-9.929-.274-3.05-.507-36.507-.128-18.509-.193-27.764-.033-35.24.413-19.352,1.4-29.4.2-29.577-1.032-.15-2.942,7.025-5.493,17.535-7.9,32.554-11.848,48.831-13.995,66.29C19.988,169.868,19.634,187.065,15.973,187.362Z"/><path class="a" d="M4.058,139.447c-1.843.161-3.994.411-4.057,1.014-.142,1.372,10.637,3.775,18.254,4.817a101.786,101.786,0,0,0,28.141-.169q-.339-2.7-.676-5.409C36.65,139.249,16.188,138.384,4.058,139.447Z"/><path class="a" d="M66.677,138.348c-.308.945,1.931,1.672,3.381,4.733a11.169,11.169,0,0,1,1.014,5.07c-.492,20.353-1.014,29.07-1.014,29.07a173.545,173.545,0,0,0-1.437,35.409c.629,11.708,2.643,25.488,4.056,25.436.446-.016.733-1.405.93-2.45,1.872-9.913,2.808-14.87,1.69-22.9-2.737-19.67.457-63.313,1.521-69.972a4.642,4.642,0,0,0-.507-3.211C74.291,136.375,67.195,136.763,66.677,138.348Z"/><path class="a" d="M75.3,145.785c1.676-1.657,6.581-6.059,13.69-6.423,10.594-.543,20.587,8.159,22.31,18.254,2.361,13.827-12.14,23.336-15.211,25.352-10.64,6.982-21.915,6.012-25.606,5.535l3.3-7.563c2.99.142,14.158.315,22.648-7.775,2.571-2.449,8.478-8.078,7.437-15.549C102.852,150.375,95.608,143.5,87.3,144.1c-8.289.59-12.552,8.241-12.845,8.788Q74.875,149.334,75.3,145.785Z"/><path class="a" d="M136.311,138.348c-.308.945,1.931,1.672,3.381,4.733a11.764,11.764,0,0,1,1.014,5.07c.155,8.49-3.431,22.08-.845,32.282.437,1.725,1.624,5.618,4.9,7.436.62.344,1.546.858,2.2.507,1.639-.883-.33-6.241-1.183-11.662-1.315-8.359-.242-18.562,1.183-32.112.109-1.033.361-3.332-1.014-5.071C143.415,136.332,136.8,136.85,136.311,138.348Z"/><path class="a" d="M144.931,145.785a16.612,16.612,0,0,1,4.521-4.817c6.11-4.287,15.425-4.319,21.169.253,4.067,3.238,4.871,7.61,6.338,15.592,0,0,2.214,12.044-2.282,23.873-.163.429-1.785,4.682-5.231,6.462-.887.458-1.276.452-1.5.3-1.055-.718.763-5.037,1.157-6.042,3.457-8.8,3.658-33.077-5.2-37.014-3.547-1.576-8.012.348-11.028,1.648a22.29,22.29,0,0,0-8.789,6.845Q144.509,149.334,144.931,145.785Z"/><path class="a" d="M123.8,179.081a35.289,35.289,0,0,0,.338-10.986c-.448-4.09-.778-7.1-2.957-9.888-1.98-2.536-4.034-3.033-3.8-3.8.371-1.236,6.88-1.8,10.9,1.522,3.959,3.267,3.878,8.941,3.8,14.2-.051,3.546-.2,9.019-3.887,13.69-2.318,2.937-5.819,5.286-6.761,4.563C120.558,187.7,122.675,184.933,123.8,179.081Z"/><path class="a" d="M128.2,143.757c-.654.809-2.315.456-2.874.338-2.968-.631-4.568-3.4-5.239-4.564-.944-1.634-1.752-3.034-1.183-4.225.814-1.7,4.084-2.218,5.915-1.014.536.352.715.7,2.2,4.563C128.38,142.414,128.643,143.206,128.2,143.757Z"/><path class="a" d="M185.494,153.9c-1.9,1.161,3.108,7.135,2.2,17.07-.411,4.484-1.828,7.585-.507,12.676,1.1,4.235,2.8,4.859,3.211,4.986,2.192.671,4.565-1.535,4.817-1.775,3.744-3.569,2.715-10.176,1.774-16.225-.715-4.6-1.31-8.133-4.056-11.662C190.813,156.246,186.993,152.983,185.494,153.9Z"/><path class="a" d="M188.114,137.165c-2.206,2.111-3.8,6.282-1.775,8.873a5.016,5.016,0,0,0,5.071,1.775c2.664-.727,3.282-4.167,3.549-5.578.072-.378,1.021-5.692-1.521-6.929C191.644,134.433,189.2,136.123,188.114,137.165Z"/><path class="a" d="M236.727,144.517c.01.4-1.02.468-2.028,1.838-1.075,1.461-.712,2.461-1.458,2.979-1.159.8-3.1-.875-5.578-1.775a14.554,14.554,0,0,0-8.619-.084c-7.573,2.492-12.077,20.183-4.9,28.394.52.594,4.122,4.594,9.212,4.31,4.917-.275,8.01-4.354,8.873-5.493,4.247-5.6,5.27-15.051,2.788-20.535a7.318,7.318,0,0,1-.76-4.31c.367-2.2,2.083-4.689,3.486-4.563,2.572.23,4.6,9.281,4.436,16.986-.172,8.013-2.6,9.027-1.457,15.338.82,4.524,2.755,7.792,1.141,9.443-1.024,1.047-3.041,1-4.374.507-2.412-.892-2.258-3.126-4.056-4.119-3.2-1.768-6.741,3.776-12.423,3.866-5.471.086-9.633-4.919-11.176-6.782-6.317-7.629-4.853-17.246-4.556-19.195.393-2.583,1.956-12.815,10.725-17.565C225.232,138.756,236.694,143.183,236.727,144.517Z"/><path class="a" d="M246.677,138.052c.246-1.048,3.352-1.375,5.705-.887a8.409,8.409,0,0,1,4.943,3.042c1.774,2.5,1.048,5.418.381,9.634a127.224,127.224,0,0,0-1.4,18.634,109.914,109.914,0,0,0,.127,11.662c.392,4.956,1.039,7.576.127,7.986-1.112.5-3.873-2.582-5.451-5.7-1.446-2.862-1.886-5.734-1.9-10.4a91.778,91.778,0,0,1,1.394-15.465c1.407-8.694,2.586-11.541.634-14.324C249.454,139.689,246.422,139.146,246.677,138.052Z"/><path class="a" d="M254.79,151.362c2.709-5.734,9.266-7.484,10.986-7.943,1.632-.436,10.771-2.876,16.268,2.366,3.154,3.007,3.405,7.244,3.908,15.718a54.072,54.072,0,0,1-1.753,16.352c-.979,3.707-2.439,7.6-5.84,9.493-.986.55-1.329.483-1.512.394-1.9-.913,1.984-9.466,2.535-21.042.321-6.748.646-13.573-3.55-16.6-4.515-3.264-11.695-.277-12.042-.127-6.1,2.63-8.35,8.479-9.676,7.817C253.171,157.314,253.555,153.978,254.79,151.362Z"/><path class="a" d="M419.579,148.827c-1.305-.724-5.932,3.072-8.113,8.113-5.152,11.908,4.669,27.718,14.2,34.141,4.575,3.083,8.091,2.907,9.127,2.873,6.635-.223,11.145-5.413,12.169-6.592,5.824-6.7,5.185-14.545,7.1-14.535,1.617.009,1.536,5.606,5.408,12.169,1.711,2.9,5.841,9.9,12.169,10.817,8.99,1.3,16.423-10.53,17.24-11.831,1.04-1.657,7.214-11.487,3.38-21.972-3.519-9.622-13.531-14.5-14.535-13.521-.91.887,5.922,6.22,7.774,16.563.6,3.356,1.816,10.139-2.366,15.212-2.493,3.024-7.221,5.826-11.831,5.07-11.194-1.835-14.5-23.665-19.267-22.648-3.367.718-1.672,10.288-9.465,18.254-1.952,2-5.452,5.573-9.8,5.408-7.844-.3-15.019-12.624-15.211-23.324C417.411,155.274,421.01,149.62,419.579,148.827Z"/><path class="a" d="M543.546,171.724c-2.88-8.659-4.39-13.059-7.98-16.859a22.338,22.338,0,0,0-9.51-6.33,21.833,21.833,0,0,0-14.45.5c-1.42.56-9.19,3.6-12.17,11.79-2.94,8.09.54,16.4,5.14,21.3a21.731,21.731,0,0,0,18.76,6.78c1.62-.25,8.15-1.27,11.09-6.15,2.09-3.48,1.56-7.571,2.41-7.6.58-.03.83,1.95,2.4,5.83,2.11,5.18,3.69,6.61,5.08,7.35.96.52,1.82.98,2.45.63C548.9,187.8,545.826,178.575,543.546,171.724Zm-13.685-2.742c-.06,1-.428,7.191-5.705,10.394-4.817,2.925-9.941,1.065-11.028.634-.374-.148-7.255-3.016-8.239-10.268a12.886,12.886,0,0,1,6.718-13.056,12.7,12.7,0,0,1,13.817,1.268C530.067,161.745,529.945,167.56,529.861,168.982Z"/><path class="a" d="M550.734,149.5c-.342,1.175,1.166,2.364,2.366,3.718,2.8,3.162,2.746,5.9,4.394,12.507,2.165,8.678,3.248,13.017,5.747,15.888,5.337,6.13,13.763,6.175,14.62,6.169a20.485,20.485,0,0,0,11.831-3.972,107.03,107.03,0,0,1,2.788,17.239c.771,9.781,1.886,23.944-3.8,35.24-6.627,13.159-20.449,18.364-30.676,22.056-8.818,3.184-33.007,10.533-91.1-3.042-18.455-4.313-60.7-15.271-59.747-21.549.472-3.1,11.216-3.518,47.578-5.155,36.75-1.655,60-2.7,72.338-3.381,40.21-2.213,95.846-7.752,96-14.535.036-1.566-2.815-4.081-5.579-4.558-3.035-.523-5.686,1.46-6.252,1.854-11.024,7.657-89.916,11.493-89.916,11.493-7.534.366,27.353-1.309-64.9,3.718-60.03,3.271-63.191,3.348-63.718,5.493-3.175,12.9,102.146,48.3,153.126,40.564,37.672-5.716,46.89-20.777,48.93-24.339,8.655-15.108,5.928-36.987,5.324-41.83-1.613-12.942-2.591-25.956-4.056-38.916-.377-3.33-.8-7.09,1.183-10.775,1.066-1.977,2.215-2.769,1.859-3.718-.871-2.318-9.047-2.857-11.409.507-1.31,1.867.019,3.725.93,8.958.819,4.705,2.293,13.175-1.944,18.422a11.213,11.213,0,0,1-9.211,4.226c-4.389-.338-7.158-3.779-8.2-5.071-3.079-3.826-3.774-8.238-4.9-15.972-.933-6.4-.762-10.045-3.549-11.915a8.669,8.669,0,0,0-4.213-1.218C554.434,147.475,551.177,147.981,550.734,149.5Z"/><path class="a" d="M324.382,173.184c.507-1.661,4.661-1.742,6.338-1.775,2.112-.041,4.959-.1,5.577,1.268.753,1.661-1.81,5.4-5.07,5.831C327.481,179,323.831,174.988,324.382,173.184Z"/><path class="a" d="M338.579,173.689c.527-1.924,4.616-2.384,6.845-2.282,2.623.12,6.833,1.209,7.1,3.3s-3.485,4.971-7.1,4.817C341.566,179.355,338.014,175.748,338.579,173.689Z"/><path class="a" d="M353.917,173.4c-.8,1.716,1.3,5.095,4.183,5.831,3.148.8,6.785-1.657,6.718-3.55-.056-1.588-2.713-2.635-3.422-2.915C358.818,171.746,354.766,171.578,353.917,173.4Z"/><path class="a" d="M371.41,172.658c2.294-.289,5.314.8,5.577,2.662.258,1.816-2.192,3.859-4.563,4.056-2.549.212-5.4-1.675-5.324-3.549C367.169,174.156,369.553,172.892,371.41,172.658Z"/><path class="a" d="M336.551,177.348c-2.38.279-4.119,3.059-3.423,4.817.681,1.718,3.549,2.105,5.451,1.394.28-.1,2.168-.81,2.408-2.281C341.285,179.459,338.971,177.065,336.551,177.348Z"/><path class="a" d="M326.917,180.39c-1.613.617-1.886,2.779-1.9,2.916a4.1,4.1,0,0,0,2.536,4.31c1.986.687,4.379-.475,4.817-2.155.374-1.439-.809-2.777-1.268-3.3C330.865,181.9,328.87,179.643,326.917,180.39Z"/><path class="a" d="M348.466,181.4c-1.326-1.192-3.805-.634-5.2.634s-2.253,3.722-1.141,5.071c1.146,1.39,3.759.82,5.2-.127a4.205,4.205,0,0,0,2.029-3.169A3.189,3.189,0,0,0,348.466,181.4Z"/><path class="a" d="M351.635,180.264c-1.256,1.094-.813,4.031.888,5.323a3.31,3.31,0,0,0,3.676.381,3.131,3.131,0,0,0,1.14-3.549,3.5,3.5,0,0,0-1.774-1.9C354.613,179.982,352.684,179.35,351.635,180.264Z"/><path class="a" d="M362.917,181.531a2.92,2.92,0,0,0-1.775,3.043c.393,1.867,3.695,2.753,6.085,2.281,1.218-.24,3.3-1.05,3.422-2.408a2.378,2.378,0,0,0-.887-1.775c-1-.843-1.865-.26-4.437-.761C363.82,181.619,363.564,181.312,362.917,181.531Z"/><path class="a" d="M373.438,182.038c-1.007,1.372-1.216,3.652,0,4.69,1.392,1.189,4.325.468,5.2-1.521.8-1.82-.306-4.3-2.028-4.69A3.376,3.376,0,0,0,373.438,182.038Z"/><path class="a" d="M359.875,186.728c-1.95-1.216-5.292.809-5.324,2.536-.021,1.112,1.331,2.049,2.281,2.408,1.1.414,3.125.611,4.057-.761A3.194,3.194,0,0,0,359.875,186.728Z"/><path class="a" d="M370.523,187.362c-1.893.1-3.735,1.952-3.423,3.169.331,1.294,3.173,2.172,4.817,1.014.88-.62,1.648-1.986,1.141-3.042C372.474,187.288,370.621,187.357,370.523,187.362Z"/><path class="a" d="M340.1,189.9a4.05,4.05,0,0,1-7.732.38,3.9,3.9,0,1,1,7.732-.38Z"/><path class="a" d="M347.579,189.01c-1.434,1.074-2.151,1.61-2.155,2.282-.007,1.217,2.1,2.595,4.056,2.408,1.788-.17,3.913-1.7,3.676-3.549a3.143,3.143,0,0,0-2.915-2.535C349.458,187.6,348.831,188.073,347.579,189.01Z"/><path class="a" d="M326.663,189.137c-.174.026-1.7.276-2.155,1.394-.558,1.379.852,3.245,2.409,3.93,1.418.624,3.578.54,4.183-.634.615-1.195-.731-2.843-1.014-3.169A4.02,4.02,0,0,0,326.663,189.137Z"/><path class="a" d="M376.227,189.137a2.614,2.614,0,0,0-1.648,2.915,2.38,2.38,0,0,0,1.9,1.775c1.676.249,3.485-1.739,3.043-3.169C379.218,189.673,377.837,188.93,376.227,189.137Z"/><path class="a" d="M362.537,191.292a2.3,2.3,0,0,0,.126,3.295,2.383,2.383,0,0,0,3.55-.887,2.279,2.279,0,0,0-3.676-2.408Z"/><path class="a" d="M342,192.052c-1.519.088-3.123,1.292-3.042,2.409.09,1.232,2.22,2.2,3.93,1.9,1.09-.193,2.5-.991,2.535-2.028C345.467,193.123,343.626,191.959,342,192.052Z"/><path class="a" d="M354.931,193.193c-1.332.123-2.749,1.153-2.662,2.028.1.965,2,1.573,3.423,1.521,1.036-.037,2.657-.454,2.788-1.267C358.635,194.523,356.748,193.025,354.931,193.193Z"/><path class="a" d="M372.044,193.827c-1.631-.022-2.487-.034-3.043.634a2.28,2.28,0,0,0,0,2.789c.971,1.025,3.2.217,4.31-.888.45-.446,1.2-1.421.888-2.028C373.949,193.853,373.151,193.842,372.044,193.827Z"/><path class="a" d="M362.283,196.869c-1.366-.212-2.407,1.436-2.155,2.029.334.784,3.343.669,3.676-.254C364.009,198.076,363.267,197.022,362.283,196.869Z"/><path class="a" d="M348.086,197.25c-.4.148-1.513.56-1.521,1.14-.01.765,1.9,1.972,3.169,1.268.874-.484,1.336-1.809.887-2.408C350.07,196.514,348.357,197.149,348.086,197.25Z"/><path class="a" d="M334.4,194.334c-.872.05-2.3.455-2.535,1.394-.277,1.112,1.2,2.629,2.788,2.789s3.322-1.033,3.3-2.155C337.918,195.19,335.972,194.244,334.4,194.334Z"/><path class="a" d="M329.875,198.6c.023-.678-1.056-1.367-1.986-1.226-.642.1-1.363.612-1.352,1.183.012.675,1.043,1.233,1.9,1.141C329.093,199.63,329.856,199.16,329.875,198.6Z"/><path class="a" d="M340.987,198.137a1.842,1.842,0,0,0-2.028,1.648c.076,1.081,2.114,1.841,2.789,1.267C342.406,200.493,342.06,198.422,340.987,198.137Z"/><path class="a" d="M375.72,196.933a1.387,1.387,0,0,0-.951,1.584c.356.786,2.614.7,2.852.064C377.823,198.045,376.766,196.63,375.72,196.933Z"/><path class="a" d="M312.005,147.068c-1.891.1-.992-23.9-8.62-58.817-1.46-6.683-3.5-15-2.535-26.367,1.023-12.011,5.292-26.074,8.62-25.859,4.817.311,7.55,30.528,7.1,52.226-.014.712-.015.574-2.028,31.436C313.01,143.164,312.763,147.027,312.005,147.068Z"/><path class="a" d="M392.625,148.589c-1.506-.038-2.408-12.814-3.042-21.8-.6-8.506-.685-16.321-.507-23.324.346-13.654,1.409-13.218,1.521-25.859.065-7.473-.28-10.65.507-17.24.445-3.732,1.931-16.179,4.578-16.312,2.5-.124,5.5,10.715,6.577,19.862,1.552,13.133-.847,22.818-2.535,30.929C393,127.138,394.579,148.638,392.625,148.589Z"/><path class="a" d="M425.079,40.841c-3.37-7.52-5.1-8.19-7.61-15.72-3.63-10.89-1.75-14.7-5.83-19.26-4.74-5.31-13.82-7.46-20.28-4.57-1.59.71-3.47,1.93-10.4,13.69-6.33,10.76-9.5,16.14-11.15,22.57-1.32,5.15-1.47,9.35-1.78,17.74-.33,9.21-.55,15.38,1.02,22.82,1.78,8.44,3.48,16.52,9.89,22.06,10.39,8.97,29.28,7.92,40.81-1.53,9.25-7.58,11.19-18.46,11.92-22.56C434.279,61.4,428.329,48.111,425.079,40.841Zm-2.54,40.56a28.471,28.471,0,0,1-8.11,11.92,25.165,25.165,0,0,1-15.64,6.19c-1.37.04-9.73.13-16.3-5.68-6.69-5.92-7.34-14.25-8.12-24.34-1.06-13.76,2.01-24.13,5.07-34.48a99.947,99.947,0,0,1,8.37-18.51c3.46-6.13,5.72-8.79,9.13-9.63a9.72,9.72,0,0,1,8.36,1.77c2.97,2.54,2.69,6.3,3.55,11.16.85,4.81,1.75,4.63,7.1,16.98,5.25,12.13,7.87,18.2,8.62,23.33C425.129,63.991,426.229,72.251,422.539,81.4Z"/><path class="a" d="M331.109,38.731c-2.21-8.89-4.18-16.49-9.64-25.18-3.67-5.86-8.32-13.26-14.03-13.02-5.77.24-9.66,8.19-14.36,18.09-3.02,6.34-5.16,12.36-9.81,31.09-6.11,24.65-5.99,28.66-4.05,32.96,3.42,7.61,10.37,11.38,15.55,14.2,5.42,2.95,16.3,8.86,27.38,4.73,10.41-3.88,14.91-14.36,16.05-17.41C339.9,79.7,340.259,75.621,331.109,38.731Zm.84,43.27a18.572,18.572,0,0,1-7.27,9.46c-5.1,3.33-10.35,2.94-13.52,2.71a29.626,29.626,0,0,1-13.01-4.4c-4.06-2.33-9.87-5.66-12.51-11.66-.85-1.93-1.78-5.05,2.7-23.33,3.48-14.18,3.62-10.57,6.77-23.32,1.29-5.26,2.85-12.29,8.11-19.6,2.58-3.61,3.84-4.19,4.9-4.23,5.37-.22,10.09,13.22,12.51,20.11,2.07,5.91,1.21,5.11,4.73,17.58,2.21,7.83,4,13.29,5.91,22.31C332.929,75.421,333.119,78.511,331.949,82Z"/></svg>