<svg xmlns="http://www.w3.org/2000/svg" viewBox="0 0 623.072 263.227"><defs><style>.a{fill:#020202;}</style></defs><title>apinian way 1</title><path class="a" d="M380.251,152.525c-1.506-.038-2.408-12.813-3.042-21.8-.6-8.506-.685-16.321-.507-23.324.346-13.654,1.409-13.218,1.521-25.859.065-7.472-.28-10.65.507-17.239.445-3.732,1.931-16.18,4.578-16.312,2.5-.125,5.5,10.715,6.577,19.861,1.552,13.134-.847,22.819-2.536,30.93C380.624,131.075,382.205,152.574,380.251,152.525Z"/><path class="a" d="M411.185,33.878c-1.12-8.11-1.86-13.5-6.09-18.25-7.02-7.89-19.64-9.54-28.39-6.09a31.2,31.2,0,0,0-8.62,5.58,49.726,49.726,0,0,0-10.65,12.68c-3.86,6.41-7,11.6-7.1,18.25-.15,9.73,6.4,10.23,10.14,24.84,2.49,9.73.77,14.1,5.07,17.75,4.08,3.46,10.31,3.52,13.19,3.55,5.68.05,7.23-1.7,13.3-1.01,4.5.5,5.29,1.65,7.48,1.01,2.67-.78,5.05-3.51,7.61-12.17,2-6.76,2.69-12.38,3.55-24.84C411.775,39.048,411.465,35.978,411.185,33.878Zm-6.427,3.38c-.985,1.926-4.488,1.287-8.789,1.859-6.731.9-11.647,4.257-11.493,4.732.147.454,4.9-1.815,11.324-1.014,5.281.659,9.489,3.121,9.3,3.887s-4.612-.761-10.31,1.014c-3.87,1.206-6.859,3.476-6.592,4.226.332.929,5.333-1.411,10.31,1.014a12.024,12.024,0,0,1,3.55,2.7c1.311,1.393,4.03,4.877,3.042,6.423-.889,1.389-3.8-.313-8.62,1.183-2.338.725-4.187,1.912-4.056,2.366.172.6,3.564-.768,6.929.845a7.662,7.662,0,0,1,3.212,2.789c2.068,3.468.333,9.021-2.958,11.915-4.3,3.777-10.476,2.454-13.268,1.857a19.906,19.906,0,0,1-11.66-7.35c-3.53-4.88-1.38-6.98-5.83-14.45a81.948,81.948,0,0,0-5.33-7.61c-2.89-3.68-3.61-3.95-4.56-5.57a17.22,17.22,0,0,1-.51-13.69c3.256-7.728,10.342-5.733,18.426-15.722,3.418-4.224,3.334-6.042,6.106-7.237,7.41-3.2,18.619,5.222,17.894,7.406-.536,1.612-7.119-1.547-15.888,1.521-8.073,2.825-12.744,9.09-12.338,9.634.491.657,8.1-7.435,19.268-7.606,6.35-.1,11.87,2.4,11.746,3.3-.132.96-6.618-.634-14.619,1.775-9.363,2.818-15.308,9.465-14.874,10.141s6.892-4.638,17.578-5.747c2.019-.209,10.895-1.13,12.853,2.7A3.286,3.286,0,0,1,404.758,37.258Z"/><path class="a" d="M316.841,164.893c-1.891.1-.992-23.9-8.62-58.817-1.46-6.682-3.5-15-2.535-26.366,1.022-12.011,5.292-26.074,8.619-25.859,4.817.311,7.551,30.528,7.1,52.225-.015.713-.016.575-2.028,31.437C317.845,160.99,317.6,164.853,316.841,164.893Z"/><path class="a" d="M340.394,63.987c-1.09.11-.18,7.09-4.06,17.24-.45,1.17-3.63,9.51-5.41,9.13-1.12-.24-1.5-3.9-.68-19.94,1.25-24.17,2.54-24.12,1.7-31.44a63.011,63.011,0,0,0-10.48-27.72c-4.47-6.46-10.29-12.11-11.83-11.15-1.89,1.17,5.11,10.72,3.38,24-.26,1.99-1.57,11.99-6.77,13.52-5.55,1.63-10.75-8.06-14.19-6.42-3.7,1.76-1.84,14.88.67,23.66,2.63,9.14,5.17,10.8,5.41,17.91.23,6.75-1.51,15.02-4.73,15.55-.75.13-2.65.01-6.42-6.08-9.09-14.69-7.72-29.7-9.13-29.75-1.35-.04-4.62,13.56-2.7,30.09,1,8.65,2.03,16.72,7.77,25.01,2.61,3.77,8.4,12.14,19.27,14.87,13.77,3.47,25.11-4.77,27.38-6.42,11.47-8.34,14.08-20.64,14.87-24.67C347.284,76.907,341.894,63.857,340.394,63.987Zm-.55,29.79c-1.14,3.69-2.98,9.67-8.5,14.83-1.33,1.25-9.71,8.85-21.8,7.74-9.67-.89-15.76-6.82-18-9a35.763,35.763,0,0,1-6.84-9.64c-4.51-9.14-4.29-18.1-3.55-18.25.63-.13.88,6.49,6.21,11.41.8.74,5.73,5.28,9.88,3.93,5.52-1.79,6.59-12.92,5.96-19.78-.36-3.97-1.13-4.78-3.93-13.69-3.32-10.59-6.33-22.51-4.69-23.19,1.03-.43,2.5,4.19,7.4,5.72a11.632,11.632,0,0,0,7.56-.4,12.985,12.985,0,0,0,6.21-5.7c5.67-9.58-.5-22.17,1.52-22.95,1.22-.47,4.3,3.78,6.34,8.11,1.57,3.34,3.42,8.61,3.55,20.92a144.315,144.315,0,0,1-1.14,19.52c-.21,1.58-1.2,9.06-1.65,18.25a20.619,20.619,0,0,0,1.9,10.15c.9,1.84,2.09,4.28,4.06,4.56,3.61.51,7.14-6.65,7.73-7.86,3.18-6.46,2.74-12.17,3.02-12.17C341.424,76.3,342.724,84.417,339.844,93.777Z"/><path class="a" d="M15.973,180.247c-.486.039-1.122-.218-1.943-1.268-6.786-8.676-1.646-28.062,2.2-46.521,5.56-26.71,14.409-52.635,20.873-79.141a4.608,4.608,0,0,1,1.521-2.535c2.12-1.674,6.26-1.134,7.775,1.014a4.289,4.289,0,0,1,.676,2.7c-.408,6.848.546,61.252,2.256,81.638,1.261,15.019,1.015,30.169,2.9,45.123,0,0,1.362,10.812-3.712,17.53-.65.86-1.311,1.51-1.992,1.42-1.982-.26-2.8-6.6-3.423-15.654-1.027-14.995-.761-24.846-.761-24.846.269-9.929-.274-3.05-.507-36.507C41.7,104.7,41.639,95.44,41.8,87.964c.413-19.351,1.4-29.4.2-29.576-1.032-.15-2.942,7.024-5.493,17.535-7.9,32.554-11.848,48.831-13.995,66.289C19.988,162.753,19.634,179.949,15.973,180.247Z"/><path class="a" d="M4.058,132.331c-1.843.162-3.994.412-4.057,1.014-.142,1.373,10.637,3.776,18.254,4.817a101.746,101.746,0,0,0,28.141-.169q-.339-2.7-.676-5.408C36.65,132.134,16.188,131.268,4.058,132.331Z"/><path class="a" d="M66.677,131.233c-.308.945,1.931,1.671,3.381,4.732a11.169,11.169,0,0,1,1.014,5.07c-.492,20.354-1.014,29.071-1.014,29.071a173.535,173.535,0,0,0-1.437,35.408c.629,11.709,2.643,25.489,4.056,25.437.446-.016.733-1.406.93-2.451,1.872-9.913,2.808-14.869,1.69-22.9-2.737-19.671.457-63.314,1.521-69.972a4.641,4.641,0,0,0-.507-3.211C74.291,129.259,67.195,129.647,66.677,131.233Z"/><path class="a" d="M75.3,138.669c1.676-1.657,6.581-6.058,13.69-6.422,10.594-.543,20.587,8.159,22.31,18.253,2.361,13.828-12.14,23.337-15.211,25.352-10.64,6.982-21.915,6.012-25.606,5.535l3.3-7.563c2.99.143,14.158.316,22.648-7.774,2.571-2.45,8.478-8.079,7.437-15.55-1.009-7.241-8.253-14.113-16.564-13.521-8.289.59-12.552,8.242-12.845,8.789Q74.875,142.219,75.3,138.669Z"/><path class="a" d="M136.311,131.233c-.308.945,1.931,1.671,3.381,4.732a11.767,11.767,0,0,1,1.014,5.07c.155,8.49-3.431,22.08-.845,32.282.437,1.725,1.624,5.618,4.9,7.437.62.344,1.546.858,2.2.507,1.639-.884-.33-6.242-1.183-11.662-1.315-8.359-.242-18.563,1.183-32.113.109-1.033.361-3.332-1.014-5.07C143.415,129.217,136.8,129.734,136.311,131.233Z"/><path class="a" d="M144.931,138.669a16.612,16.612,0,0,1,4.521-4.817c6.11-4.287,15.425-4.319,21.169.254,4.067,3.237,4.871,7.61,6.338,15.591,0,0,2.214,12.044-2.282,23.874-.163.429-1.785,4.682-5.231,6.461-.887.458-1.276.453-1.5.3-1.055-.717.763-5.037,1.157-6.041,3.457-8.8,3.658-33.078-5.2-37.014-3.547-1.577-8.012.348-11.028,1.648a22.29,22.29,0,0,0-8.789,6.845Q144.509,142.219,144.931,138.669Z"/><path class="a" d="M123.8,171.965a35.289,35.289,0,0,0,.338-10.986c-.448-4.09-.778-7.1-2.957-9.887-1.98-2.536-4.034-3.034-3.8-3.8.371-1.237,6.88-1.8,10.9,1.521,3.959,3.268,3.878,8.941,3.8,14.2-.051,3.546-.2,9.02-3.887,13.69-2.318,2.937-5.819,5.287-6.761,4.564C120.558,180.585,122.675,177.817,123.8,171.965Z"/><path class="a" d="M128.2,136.641c-.654.809-2.315.456-2.874.338-2.968-.63-4.568-3.4-5.239-4.563-.944-1.635-1.752-3.035-1.183-4.226.814-1.7,4.084-2.218,5.915-1.014.536.352.715.7,2.2,4.564C128.38,135.3,128.643,136.09,128.2,136.641Z"/><path class="a" d="M185.494,146.782c-1.9,1.162,3.108,7.136,2.2,17.07-.411,4.484-1.828,7.585-.507,12.676,1.1,4.235,2.8,4.86,3.211,4.986,2.192.671,4.565-1.535,4.817-1.774,3.744-3.57,2.715-10.177,1.774-16.226-.715-4.6-1.31-8.132-4.056-11.662C190.813,149.131,186.993,145.868,185.494,146.782Z"/><path class="a" d="M188.114,130.05c-2.206,2.111-3.8,6.281-1.775,8.873a5.014,5.014,0,0,0,5.071,1.774c2.664-.727,3.282-4.167,3.549-5.577.072-.379,1.021-5.693-1.521-6.93C191.644,127.317,189.2,129.008,188.114,130.05Z"/><path class="a" d="M236.727,137.4c.01.4-1.02.467-2.028,1.838-1.075,1.46-.712,2.461-1.458,2.978-1.159.8-3.1-.875-5.578-1.774a14.549,14.549,0,0,0-8.619-.085c-7.573,2.493-12.077,20.184-4.9,28.395.52.594,4.122,4.594,9.212,4.309,4.917-.274,8.01-4.354,8.873-5.492,4.247-5.6,5.27-15.051,2.788-20.536a7.315,7.315,0,0,1-.76-4.309c.367-2.205,2.083-4.69,3.486-4.564,2.572.231,4.6,9.281,4.436,16.986-.172,8.014-2.6,9.027-1.457,15.338.82,4.524,2.755,7.793,1.141,9.444-1.024,1.047-3.041,1-4.374.507-2.412-.893-2.258-3.127-4.056-4.12-3.2-1.767-6.741,3.776-12.423,3.866-5.471.087-9.633-4.919-11.176-6.781-6.317-7.63-4.853-17.247-4.556-19.195.393-2.583,1.956-12.815,10.725-17.566C225.232,131.64,236.694,136.067,236.727,137.4Z"/><path class="a" d="M246.677,130.937c.246-1.049,3.352-1.376,5.705-.887a8.4,8.4,0,0,1,4.943,3.042c1.774,2.5,1.048,5.417.381,9.634a127.2,127.2,0,0,0-1.4,18.633,109.914,109.914,0,0,0,.127,11.662c.392,4.956,1.039,7.576.127,7.986-1.112.5-3.873-2.581-5.451-5.7-1.446-2.862-1.886-5.733-1.9-10.394a91.769,91.769,0,0,1,1.394-15.465c1.407-8.694,2.586-11.541.634-14.324C249.454,132.573,246.422,132.03,246.677,130.937Z"/><path class="a" d="M254.79,144.247c2.709-5.734,9.266-7.485,10.986-7.944,1.632-.436,10.771-2.875,16.268,2.366,3.154,3.007,3.405,7.244,3.908,15.718A54.078,54.078,0,0,1,284.2,170.74c-.979,3.706-2.439,7.595-5.84,9.492-.986.55-1.329.483-1.512.4-1.9-.914,1.984-9.467,2.535-21.042.321-6.749.646-13.574-3.55-16.606-4.515-3.264-11.695-.276-12.042-.127-6.1,2.63-8.35,8.48-9.676,7.817C253.171,150.2,253.555,146.862,254.79,144.247Z"/><path class="a" d="M419.579,141.711c-1.305-.723-5.932,3.073-8.113,8.113-5.152,11.909,4.669,27.718,14.2,34.141,4.575,3.084,8.091,2.908,9.127,2.873,6.635-.223,11.145-5.413,12.169-6.591,5.824-6.7,5.185-14.546,7.1-14.536,1.617.009,1.536,5.607,5.408,12.169,1.711,2.9,5.841,9.9,12.169,10.817,8.99,1.305,16.423-10.53,17.24-11.831,1.04-1.657,7.214-11.487,3.38-21.972-3.519-9.622-13.531-14.5-14.535-13.521-.91.887,5.922,6.22,7.774,16.564.6,3.355,1.816,10.138-2.366,15.211-2.493,3.024-7.221,5.826-11.831,5.07-11.194-1.834-14.5-23.664-19.267-22.647-3.367.717-1.672,10.287-9.465,18.253-1.952,1.995-5.452,5.573-9.8,5.409-7.844-.3-15.019-12.625-15.211-23.324C417.411,148.158,421.01,142.505,419.579,141.711Z"/><path class="a" d="M543.546,164.609c-2.88-8.66-4.39-13.06-7.98-16.86a22.347,22.347,0,0,0-9.51-6.33,21.833,21.833,0,0,0-14.45.5c-1.42.56-9.19,3.6-12.17,11.79-2.94,8.09.54,16.4,5.14,21.3a21.731,21.731,0,0,0,18.76,6.78c1.62-.25,8.15-1.27,11.09-6.15,2.09-3.48,1.56-7.57,2.41-7.6.58-.03.83,1.95,2.4,5.83,2.11,5.18,3.69,6.61,5.08,7.35.96.52,1.82.98,2.45.63C548.9,180.679,545.826,171.459,543.546,164.609Zm-13.685-2.743c-.06,1-.428,7.191-5.705,10.395-4.817,2.924-9.941,1.064-11.028.633-.374-.148-7.255-3.015-8.239-10.267a12.885,12.885,0,0,1,6.718-13.056,12.7,12.7,0,0,1,13.817,1.267C530.067,154.63,529.945,160.445,529.861,161.866Z"/><path class="a" d="M550.734,142.387c-.342,1.175,1.166,2.364,2.366,3.719,2.8,3.161,2.746,5.9,4.394,12.507,2.165,8.677,3.248,13.017,5.747,15.887,5.337,6.131,13.763,6.176,14.62,6.169a20.478,20.478,0,0,0,11.831-3.972,107.026,107.026,0,0,1,2.788,17.24c.771,9.781,1.886,23.943-3.8,35.239-6.627,13.159-20.449,18.365-30.676,22.057-8.818,3.183-33.007,10.532-91.1-3.043-18.455-4.312-60.7-15.27-59.747-21.549.472-3.1,11.216-3.518,47.578-5.155,36.75-1.655,60-2.7,72.338-3.38,40.21-2.214,95.846-7.753,96-14.535.036-1.567-2.815-4.082-5.579-4.558-3.035-.523-5.686,1.46-6.252,1.853-11.024,7.657-89.916,11.493-89.916,11.493-7.534.367,27.353-1.309-64.9,3.719-60.03,3.271-63.191,3.347-63.718,5.493-3.175,12.9,102.146,48.3,153.126,40.563,37.672-5.715,46.89-20.776,48.93-24.338,8.655-15.109,5.928-36.988,5.324-41.831-1.613-12.942-2.591-25.956-4.056-38.915-.377-3.331-.8-7.091,1.183-10.775,1.066-1.977,2.215-2.77,1.859-3.718-.871-2.319-9.047-2.857-11.409.506-1.31,1.867.019,3.726.93,8.958.819,4.705,2.293,13.176-1.944,18.423a11.209,11.209,0,0,1-9.211,4.225c-4.389-.338-7.158-3.778-8.2-5.07-3.079-3.826-3.774-8.239-4.9-15.972-.933-6.4-.762-10.046-3.549-11.916a8.665,8.665,0,0,0-4.213-1.217C554.434,140.36,551.177,140.866,550.734,142.387Z"/><path class="a" d="M324.382,166.068c.507-1.66,4.661-1.742,6.338-1.774,2.112-.042,4.959-.1,5.577,1.267.753,1.662-1.81,5.4-5.07,5.831C327.481,171.885,323.831,167.873,324.382,166.068Z"/><path class="a" d="M338.579,166.573c.527-1.924,4.616-2.383,6.845-2.281,2.623.119,6.833,1.208,7.1,3.295s-3.485,4.972-7.1,4.817C341.566,172.24,338.014,168.633,338.579,166.573Z"/><path class="a" d="M353.917,166.281c-.8,1.717,1.3,5.095,4.183,5.831,3.148.8,6.785-1.656,6.718-3.549-.056-1.588-2.713-2.636-3.422-2.916C358.818,164.631,354.766,164.462,353.917,166.281Z"/><path class="a" d="M371.41,165.542c2.294-.288,5.314.805,5.577,2.662.258,1.816-2.192,3.859-4.563,4.057-2.549.212-5.4-1.676-5.324-3.55C367.169,167.041,369.553,165.776,371.41,165.542Z"/><path class="a" d="M336.551,170.233c-2.38.278-4.119,3.059-3.423,4.817.681,1.718,3.549,2.1,5.451,1.394.28-.1,2.168-.81,2.408-2.282C341.285,172.344,338.971,169.95,336.551,170.233Z"/><path class="a" d="M326.917,173.275c-1.613.617-1.886,2.778-1.9,2.915a4.1,4.1,0,0,0,2.536,4.31c1.986.687,4.379-.474,4.817-2.155.374-1.438-.809-2.777-1.268-3.295C330.865,174.784,328.87,172.528,326.917,173.275Z"/><path class="a" d="M348.466,174.289c-1.326-1.192-3.805-.634-5.2.634s-2.253,3.721-1.141,5.07c1.146,1.39,3.759.82,5.2-.127a4.2,4.2,0,0,0,2.029-3.169A3.188,3.188,0,0,0,348.466,174.289Z"/><path class="a" d="M351.635,173.148c-1.256,1.095-.813,4.031.888,5.324a3.312,3.312,0,0,0,3.676.38,3.13,3.13,0,0,0,1.14-3.549,3.5,3.5,0,0,0-1.774-1.9C354.613,172.867,352.684,172.235,351.635,173.148Z"/><path class="a" d="M362.917,174.416a2.919,2.919,0,0,0-1.775,3.042c.393,1.868,3.695,2.753,6.085,2.282,1.218-.241,3.3-1.05,3.422-2.409a2.373,2.373,0,0,0-.887-1.774c-1-.844-1.865-.261-4.437-.761C363.82,174.5,363.564,174.2,362.917,174.416Z"/><path class="a" d="M373.438,174.923c-1.007,1.372-1.216,3.652,0,4.69,1.392,1.188,4.325.467,5.2-1.521.8-1.82-.306-4.3-2.028-4.69A3.374,3.374,0,0,0,373.438,174.923Z"/><path class="a" d="M359.875,179.613c-1.95-1.216-5.292.808-5.324,2.535-.021,1.112,1.331,2.05,2.281,2.409,1.1.414,3.125.611,4.057-.761A3.194,3.194,0,0,0,359.875,179.613Z"/><path class="a" d="M370.523,180.247c-1.893.1-3.735,1.951-3.423,3.169.331,1.294,3.173,2.171,4.817,1.014.88-.62,1.648-1.986,1.141-3.043C372.474,180.172,370.621,180.241,370.523,180.247Z"/><path class="a" d="M340.1,182.782a4.05,4.05,0,0,1-7.732.38,3.9,3.9,0,1,1,7.732-.38Z"/><path class="a" d="M347.579,181.894c-1.434,1.074-2.151,1.611-2.155,2.282-.007,1.217,2.1,2.595,4.056,2.409,1.788-.171,3.913-1.7,3.676-3.55a3.144,3.144,0,0,0-2.915-2.535C349.458,180.488,348.831,180.957,347.579,181.894Z"/><path class="a" d="M326.663,182.021c-.174.026-1.7.276-2.155,1.4-.558,1.378.852,3.244,2.409,3.929,1.418.624,3.578.54,4.183-.634.615-1.2-.731-2.842-1.014-3.169A4.025,4.025,0,0,0,326.663,182.021Z"/><path class="a" d="M376.227,182.021a2.616,2.616,0,0,0-1.648,2.916,2.379,2.379,0,0,0,1.9,1.774c1.676.249,3.485-1.739,3.043-3.169C379.218,182.557,377.837,181.814,376.227,182.021Z"/><path class="a" d="M362.537,184.176a2.305,2.305,0,0,0,.126,3.3,2.384,2.384,0,0,0,3.55-.887,2.28,2.28,0,0,0-3.676-2.409Z"/><path class="a" d="M342,184.937c-1.519.087-3.123,1.291-3.042,2.408.09,1.233,2.22,2.205,3.93,1.9,1.09-.194,2.5-.991,2.535-2.029C345.467,186.008,343.626,184.843,342,184.937Z"/><path class="a" d="M354.931,186.078c-1.332.123-2.749,1.152-2.662,2.028.1.964,2,1.572,3.423,1.521,1.036-.037,2.657-.455,2.788-1.268C358.635,187.407,356.748,185.91,354.931,186.078Z"/><path class="a" d="M372.044,186.711c-1.631-.022-2.487-.034-3.043.634a2.28,2.28,0,0,0,0,2.789c.971,1.025,3.2.217,4.31-.887.45-.447,1.2-1.422.888-2.029C373.949,186.738,373.151,186.727,372.044,186.711Z"/><path class="a" d="M362.283,189.754c-1.366-.212-2.407,1.436-2.155,2.028.334.785,3.343.67,3.676-.254C364.009,190.96,363.267,189.906,362.283,189.754Z"/><path class="a" d="M348.086,190.134c-.4.148-1.513.561-1.521,1.141-.01.764,1.9,1.971,3.169,1.267.874-.483,1.336-1.808.887-2.408C350.07,189.4,348.357,190.033,348.086,190.134Z"/><path class="a" d="M334.4,187.218c-.872.05-2.3.455-2.535,1.4-.277,1.111,1.2,2.628,2.788,2.789s3.322-1.033,3.3-2.155C337.918,188.075,335.972,187.128,334.4,187.218Z"/><path class="a" d="M329.875,191.486c.023-.678-1.056-1.366-1.986-1.225-.642.1-1.363.612-1.352,1.183.012.675,1.043,1.233,1.9,1.141C329.093,192.515,329.856,192.044,329.875,191.486Z"/><path class="a" d="M340.987,191.021a1.842,1.842,0,0,0-2.028,1.648c.076,1.081,2.114,1.841,2.789,1.268C342.406,193.378,342.06,191.307,340.987,191.021Z"/><path class="a" d="M375.72,189.817a1.388,1.388,0,0,0-.951,1.585c.356.786,2.614.7,2.852.063C377.823,190.929,376.766,189.515,375.72,189.817Z"/></svg>