<svg xmlns="http://www.w3.org/2000/svg" viewBox="0 0 886.923 100"><defs><style>.cls-1{fill:#121221;}.cls-2{fill:#366ce1;}</style></defs><title>app zen</title><g id="Слой_2" data-name="Слой 2"><g id="Work_space" data-name="Work space"><g id="app_zen" data-name="app zen"><path class="cls-1" d="M786.923,50a50.022,50.022,0,0,1,31-46.26,20.02,20.02,0,0,0,4.48,20.01,30,30,0,1,0,29.04,0,20.02,20.02,0,0,0,4.48-20.01,50,50,0,1,1-69,46.26Z"/><circle class="cls-2" cx="836.923" cy="10" r="10"/><polygon class="cls-2" points="746.923 0 746.923 100 726.923 100 666.923 30.59 666.923 100 646.923 100 646.923 0 666.923 0 726.923 69.41 726.923 0 746.923 0"/><polygon class="cls-2" points="556.923 20 556.923 40 636.923 40 636.923 60 556.923 60 556.923 80 636.923 80 636.923 100 536.923 100 536.923 0 636.923 0 636.923 20 556.923 20"/><path class="cls-1" d="M60.77,1.95,59.99,0H40.01l-.78,1.94L0,100H21.55l11.2-28h34.5l11.2,28H100ZM40.75,52,50,28.87,59.25,52Z"/><path class="cls-1" d="M180,0H110V100h20V60h50a30,30,0,0,0,0-60Zm0,40H130V20h50a10,10,0,0,1,0,20Z"/><path class="cls-1" d="M290,0H220V100h20V60h50a30,30,0,0,0,0-60Zm0,40H240V20h50a10,10,0,0,1,0,20Z"/><polygon class="cls-2" points="426.923 0 526.923 0 526.923 20 457.513 80 526.923 80 526.923 100 426.923 100 426.923 80 496.333 20 426.923 20 426.923 0"/></g></g></g></svg>