<svg xmlns="http://www.w3.org/2000/svg" viewBox="0 0 1539.98 100"><defs><style>.cls-1{fill:#121221;}</style></defs><title>applied intuition</title><g id="Слой_2" data-name="Слой 2"><g id="Work_space" data-name="Work space"><g id="applied_intuition" data-name="applied intuition"><polygon class="cls-1" points="499.98 10 499.98 45 589.98 45 589.98 55 499.98 55 499.98 90 589.98 90 589.98 100 489.98 100 489.98 0 589.98 0 589.98 10 499.98 10"/><path class="cls-1" d="M79.7,55,75.19,45,55.48,1.27l.01-.01L55,.18h-.01L54.91,0H45.07l-.08.18V.2l-.47,1.05h-.01L24.79,45,20.28,55,0,100H10.97L31.25,55H68.73l20.28,45H99.98ZM59.99,52.04,59.97,52h.02ZM35.76,45,49.99,13.42,64.23,45Z"/><path class="cls-1" d="M649.98,0h-50V100h50a50,50,0,0,0,0-100Zm0,90h-40V10h40a40,40,0,0,1,0,80Z"/><path class="cls-1" d="M179.98,0h-70V100h10V60h60a30,30,0,0,0,0-60Zm0,50h-60V10h60a20,20,0,0,1,0,40Z"/><path class="cls-1" d="M289.98,0h-70V100h10V60h60a30,30,0,0,0,0-60Zm0,50h-60V10h60a20,20,0,0,1,0,40Z"/><polygon class="cls-1" points="429.98 90 429.98 100 329.98 100 329.98 0 339.98 0 339.98 90 429.98 90"/><polygon class="cls-1" points="464.98 10 464.98 90 479.98 90 479.98 100 439.98 100 439.98 90 454.98 90 454.98 10 439.98 10 439.98 0 479.98 0 479.98 10 464.98 10"/><polygon class="cls-1" points="1314.98 10 1314.98 90 1329.98 90 1329.98 100 1289.98 100 1289.98 90 1304.98 90 1304.98 10 1289.98 10 1289.98 0 1329.98 0 1329.98 10 1314.98 10"/><polygon class="cls-1" points="1154.98 10 1154.98 90 1169.98 90 1169.98 100 1129.98 100 1129.98 90 1144.98 90 1144.98 10 1129.98 10 1129.98 0 1169.98 0 1169.98 10 1154.98 10"/><polygon class="cls-1" points="774.98 10 774.98 90 789.98 90 789.98 100 749.98 100 749.98 90 764.98 90 764.98 10 749.98 10 749.98 0 789.98 0 789.98 10 774.98 10"/><path class="cls-1" d="M1379.98,0a50,50,0,1,0,50,50A50.005,50.005,0,0,0,1379.98,0Zm0,90a40,40,0,1,1,40-40A40,40,0,0,1,1379.98,90Z"/><polygon class="cls-1" points="1539.98 0 1539.98 100 1530.05 100 1529.98 99.92 1449.98 14.59 1449.98 100 1439.98 100 1439.98 0 1450 0 1529.98 85.3 1529.98 0 1539.98 0"/><polygon class="cls-1" points="899.98 0 899.98 100 890.05 100 889.98 99.92 809.98 14.59 809.98 100 799.98 100 799.98 0 810 0 889.98 85.3 889.98 0 899.98 0"/><polygon class="cls-1" points="1009.98 0 1009.98 10 964.98 10 964.98 100 954.98 100 954.98 10 909.98 10 909.98 0 1009.98 0"/><polygon class="cls-1" points="1279.98 0 1279.98 10 1234.98 10 1234.98 100 1224.98 100 1224.98 10 1179.98 10 1179.98 0 1279.98 0"/><path class="cls-1" d="M1119.98,0V50a50,50,0,0,1-100,0V0h10V50a40,40,0,0,0,80,0V0Z"/></g></g></g></svg>