<svg xmlns="http://www.w3.org/2000/svg" viewBox="0 0 1058.225 160.183"><defs><style>.cls-1{fill:#366ce1;}.cls-2{fill:#121221;}</style></defs><title>applovin</title><g id="Слой_2" data-name="Слой 2"><g id="Work_space" data-name="Work space"><g id="applovin"><path class="cls-1" d="M902.028,60.014a50,50,0,1,0,50,50A50.005,50.005,0,0,0,902.028,60.014Zm0,80a30,30,0,1,1,30-30A30,30,0,0,1,902.028,140.014Z"/><path class="cls-1" d="M955.042,0a50,50,0,1,0,50,50A50.005,50.005,0,0,0,955.042,0Zm0,80a30,30,0,1,1,30-30A30,30,0,0,1,955.042,80Z"/><path class="cls-1" d="M1008.225,60.183a50,50,0,1,0,50,50A50.005,50.005,0,0,0,1008.225,60.183Zm0,80a30,30,0,1,1,30-30A30,30,0,0,1,1008.225,140.183Z"/><polygon class="cls-2" points="680 55.183 680 115.183 700 115.183 700 135.183 640 135.183 640 115.183 660 115.183 660 55.183 640 55.183 640 35.183 700 35.183 700 55.183 680 55.183"/><polygon class="cls-2" points="810 35.183 810 135.183 790 135.183 730 65.773 730 135.183 710 135.183 710 35.183 730 35.183 790 104.593 790 35.183 810 35.183"/><polygon class="cls-2" points="430 115.183 430 135.183 330 135.183 330 35.183 350 35.183 350 115.183 430 115.183"/><polygon class="cls-2" points="629.98 35.183 590.76 133.253 589.99 135.183 569.99 135.183 569.22 133.253 530 35.183 551.54 35.183 579.99 106.323 608.45 35.183 629.98 35.183"/><path class="cls-2" d="M480,35.183a50,50,0,1,0,50,50A50.005,50.005,0,0,0,480,35.183Zm0,80a30,30,0,1,1,30-30A30,30,0,0,1,480,115.183Z"/><path class="cls-2" d="M60.77,37.133l-.78-1.95H40.01l-.78,1.94L0,135.183H21.55l11.2-28h34.5l11.2,28H100ZM40.75,87.183,50,64.053l9.25,23.13Z"/><path class="cls-2" d="M180,35.183H110v100h20v-40h50a30,30,0,0,0,0-60Zm0,40H130v-20h50a10,10,0,0,1,0,20Z"/><path class="cls-2" d="M290,35.183H220v100h20v-40h50a30,30,0,0,0,0-60Zm0,40H240v-20h50a10,10,0,0,1,0,20Z"/></g></g></g></svg>