<svg id="Main" xmlns="http://www.w3.org/2000/svg" viewBox="0 0 920 690.06"><defs><style>.cls-1{fill:#121221;}.cls-2{fill:#366ce1;}</style></defs><title>AppleCare</title><g id="Apple_Care" data-name="Apple Care"><ellipse class="cls-1" cx="555.276" cy="136.701" rx="66.13" ry="25" transform="translate(25.974 342.738) rotate(-45)"/><path class="cls-2" d="M509.445,199.95c-.31-.01-.62-.01-.93-.01l.47-.35A5.194,5.194,0,0,1,509.445,199.95Z" transform="translate(-40 -89.94)"/><path class="cls-1" d="M653.125,393.48q-2.6,6.615-5.56,13.03c-.3.66-.61,1.32-.92,1.97a150.424,150.424,0,0,1-45.23,59.22l-.03.03q-2.58,2.04-5.27,3.98a50.076,50.076,0,0,1-55.31-.3,51.156,51.156,0,0,0-4.41-3.35,49.962,49.962,0,0,0-61.2,4.24,50.006,50.006,0,0,1-54.89-1.03c-.03-.02-.05-.04-.08-.06-1.17-.85-2.32-1.71-3.45-2.6a.054.054,0,0,1-.04-.03,151.032,151.032,0,0,1-32.38-34.46,250.627,250.627,0,0,1-35.14-166.01c.27-2.06.58-4.1.91-6.14a100.015,100.015,0,0,1,158.39-62.03c.31,0,.62,0,.93.01a5.194,5.194,0,0,0-.46-.36c-.06-.05-.12-.09-.18-.14a99.979,99.979,0,0,1,133.24,11.93c-.17.08-.33.17-.5.26A100.047,100.047,0,0,0,652.2,393.13C652.505,393.25,652.815,393.37,653.125,393.48Z" transform="translate(-40 -89.94)"/><polygon class="cls-2" points="45 410.06 55 410.06 10 610.06 0 610.06 45 410.06"/><polygon class="cls-2" points="55 410.06 45 410.06 90 610.06 100 610.06 55 410.06"/><rect class="cls-2" x="24.268" y="520.06" width="52.394" height="10.648"/><path class="cls-2" d="M200,580c-27.61,0-50,26.86-50,60s22.39,60,50,60,50-26.86,50-60S227.61,580,200,580Zm0,110c-22.09,0-40-22.39-40-50s17.91-50,40-50,40,22.39,40,50S222.09,690,200,690Z" transform="translate(-40 -89.94)"/><path class="cls-2" d="M440,580c-27.61,0-50,26.86-50,60s22.39,60,50,60a42.772,42.772,0,0,0,20-5V683.3a33.935,33.935,0,0,1-20,6.7c-22.09,0-40-22.39-40-50h90C490,606.86,467.61,580,440,580Zm-39.2,50c3.71-22.82,19.85-40,39.2-40s35.49,17.18,39.2,40Z" transform="translate(-40 -89.94)"/><rect class="cls-2" x="110" y="490.06" width="10" height="200"/><path class="cls-2" d="M310,580c-27.61,0-50,26.86-50,60s22.39,60,50,60,50-26.86,50-60S337.61,580,310,580Zm0,110c-22.09,0-40-22.39-40-50s17.91-50,40-50,40,22.39,40,50S332.09,690,310,690Z" transform="translate(-40 -89.94)"/><rect class="cls-2" x="220" y="490.06" width="10" height="200"/><rect class="cls-2" x="330" y="410.06" width="10" height="200"/><path class="cls-2" d="M629.2,650h10.1c-3.96,28.38-24.53,50-49.3,50-27.61,0-50-26.86-50-60V560c0-33.14,22.39-60,50-60,24.77,0,45.34,21.62,49.3,50H629.2c-3.71-22.82-19.85-40-39.2-40-22.09,0-40,22.39-40,50v80c0,27.61,17.91,50,40,50C609.35,690,625.49,672.82,629.2,650Z" transform="translate(-40 -89.94)"/><path class="cls-2" d="M700,580c-27.61,0-50,26.86-50,60s22.39,60,50,60c16.36,0,30.89-9.43,40-24.01V700h10V640C750,606.86,727.61,580,700,580Zm0,110c-22.09,0-40-22.39-40-50s17.91-50,40-50,40,22.39,40,50S722.09,690,700,690Z" transform="translate(-40 -89.94)"/><path class="cls-2" d="M857.15,620H846.67c-6.17-17.66-20.27-30-36.67-30-22.09,0-40,22.39-40,50v60H760V580h10v24.01c9.11-14.58,23.64-24.01,40-24.01C831.77,580,850.29,596.69,857.15,620Z" transform="translate(-40 -89.94)"/><path class="cls-2" d="M910,580c-27.61,0-50,26.86-50,60s22.39,60,50,60a42.772,42.772,0,0,0,20-5V683.3a33.935,33.935,0,0,1-20,6.7c-22.09,0-40-22.39-40-50h90C960,606.86,937.61,580,910,580Zm-39.2,50c3.71-22.82,19.85-40,39.2-40s35.49,17.18,39.2,40Z" transform="translate(-40 -89.94)"/></g></svg>