<svg xmlns="http://www.w3.org/2000/svg" viewBox="0 0 1245.36 170"><defs><style>.cls-1{fill:#121221;}.cls-2{fill:#366ce1;}</style></defs><title>apprentice</title><g id="Слой_2" data-name="Слой 2"><g id="Work_space" data-name="Work space"><g id="apprentice"><polygon class="cls-1" points="1245.36 143.21 1212.57 143.21 1162.68 56.79 1112.79 143.21 1080 143.21 1162.68 0 1245.36 143.21"/><path class="cls-2" d="M1097.5,115a27.5,27.5,0,1,0,27.5,27.5A27.5,27.5,0,0,0,1097.5,115Zm0,45a17.5,17.5,0,1,1,17.5-17.5A17.506,17.506,0,0,1,1097.5,160Z"/><circle class="cls-1" cx="1097.5" cy="142.5" r="17.5"/><polygon class="cls-1" points="650 35 650 135 630 135 570 65.59 570 135 550 135 550 35 570 35 630 104.41 630 35 650 35"/><polygon class="cls-1" points="460 55 460 75 540 75 540 95 460 95 460 115 540 115 540 135 440 135 440 35 540 35 540 55 460 55"/><polygon class="cls-1" points="960 55 960 75 1040 75 1040 95 960 95 960 115 1040 115 1040 135 940 135 940 35 1040 35 1040 55 960 55"/><path class="cls-1" d="M430,65a30,30,0,0,0-30-30H330V135h20V95h50a10,10,0,0,1,10,10v30h20V105a29.862,29.862,0,0,0-7.65-20A29.862,29.862,0,0,0,430,65ZM350,75V55h50a10,10,0,0,1,0,20Z"/><path class="cls-1" d="M60.77,36.95,59.99,35H40.01l-.78,1.94L0,135H21.55l11.2-28h34.5l11.2,28H100ZM40.75,87,50,63.87,59.25,87Z"/><path class="cls-1" d="M180,35H110V135h20V95h50a30,30,0,0,0,0-60Zm0,40H130V55h50a10,10,0,0,1,0,20Z"/><path class="cls-1" d="M290,35H220V135h20V95h50a30,30,0,0,0,0-60Zm0,40H240V55h50a10,10,0,0,1,0,20Z"/><polygon class="cls-1" points="760 35 760 55 720 55 720 135 700 135 700 55 660 55 660 35 760 35"/><polygon class="cls-1" points="810 55 810 115 830 115 830 135 770 135 770 115 790 115 790 55 770 55 770 35 830 35 830 55 810 55"/><path class="cls-1" d="M909.29,95H930a50,50,0,1,1,0-20H909.29a30,30,0,1,0,0,20Z"/></g></g></g></svg>