<svg xmlns="http://www.w3.org/2000/svg" viewBox="0 0 980 220"><defs><style>.cls-1{fill:#121221;}.cls-2,.cls-3,.cls-4{fill:#366ce1;}.cls-2{opacity:0.62;}.cls-4{opacity:0.38;}</style></defs><title>approval studio</title><g id="Слой_2" data-name="Слой 2"><g id="Work_space" data-name="Work space"><g id="approval_studio" data-name="approval studio"><path class="cls-1" d="M380,0a50,50,0,1,0,50,50A50.005,50.005,0,0,0,380,0Zm0,90a40,40,0,1,1,40-40A40,40,0,0,1,380,90Z"/><path class="cls-1" d="M660,120a50,50,0,1,0,50,50A50.005,50.005,0,0,0,660,120Zm0,90a40,40,0,1,1,40-40A40,40,0,0,1,660,210Z"/><path class="cls-1" d="M79.7,55,75.19,45,55.48,1.27l.01-.01L55,.18h-.01L54.91,0H45.07l-.08.18V.2l-.47,1.05h-.01L24.79,45,20.28,55,0,100H10.97L31.25,55H68.73l20.28,45H99.98ZM59.99,52.04,59.97,52h.02ZM35.76,45,49.99,13.42,64.23,45Z"/><path class="cls-1" d="M609.72,55l-4.51-10L585.5,1.27l.01-.01L585.02.18h-.01L584.93,0h-9.84l-.08.18V.2l-.47,1.05h-.01L554.81,45,550.3,55l-20.28,45h10.97l20.28-45h37.48l20.28,45H630Zm-19.71-2.96-.02-.04h.02ZM565.78,45l14.23-31.58L594.25,45Z"/><path class="cls-1" d="M470,120H420V220h50a50,50,0,0,0,0-100Zm0,90H430V130h40a40,40,0,0,1,0,80Z"/><path class="cls-1" d="M306.57,55A29.994,29.994,0,0,0,290,0H220V100h10V60h60a19.994,19.994,0,0,1,20,20v20h10V80A29.923,29.923,0,0,0,306.57,55ZM280,52.04l-.02-.04H280ZM290,50H230V10h60a20,20,0,0,1,0,40Z"/><path class="cls-1" d="M180,0H110V100h10V60h60a30,30,0,0,0,0-60Zm0,50H120V10h60a20,20,0,0,1,0,40Z"/><polygon class="cls-1" points="740 90 740 100 640 100 640 0 650 0 650 90 740 90"/><path class="cls-1" d="M100,147.5A17.506,17.506,0,0,0,117.5,165h45a27.5,27.5,0,0,1,7.5,53.95,26.911,26.911,0,0,1-7.5,1.05H90V210h72.5a17.5,17.5,0,0,0,0-35h-45a27.5,27.5,0,0,1-7.5-53.95,26.911,26.911,0,0,1,7.5-1.05H190v10H117.5A17.506,17.506,0,0,0,100,147.5Z"/><polygon class="cls-1" points="565 130 565 210 600 210 600 220 520 220 520 210 555 210 555 130 520 130 520 120 600 120 600 130 565 130"/><polygon class="cls-1" points="300 120 300 130 255 130 255 220 245 220 245 130 200 130 200 120 300 120"/><polygon class="cls-1" points="540 0 495.48 98.78 494.94 100 485.06 100 484.52 98.8 440.01 0 450.98 0 490 86.62 529.03 0 540 0"/><path class="cls-1" d="M410,120v50a50,50,0,0,1-100,0V120h10v50a40,40,0,0,0,80,0V120Z"/><path class="cls-1" d="M880,180v30a99.483,99.483,0,0,1-46.45-11.43,29.989,29.989,0,0,0-42.12-42.12A99.483,99.483,0,0,1,780,110h30a30,30,0,0,0,30,30h.01a49.774,49.774,0,0,0,9.99,9.99V150A30,30,0,0,0,880,180Z"/><path class="cls-2" d="M880,180v30a99.483,99.483,0,0,1-46.45-11.43,29.989,29.989,0,0,0-42.12-42.12A99.483,99.483,0,0,1,780,110h30a30,30,0,0,0,30,30h.01a49.774,49.774,0,0,0,9.99,9.99V150A30,30,0,0,0,880,180Z"/><path class="cls-3" d="M840,180a29.989,29.989,0,1,1-30-30A29.838,29.838,0,0,1,840,180Z"/><path class="cls-1" d="M840,150V140a29.769,29.769,0,0,0,12.93-2.93A29.769,29.769,0,0,0,850,150Z"/><path class="cls-1" d="M950,110h30a99.483,99.483,0,0,1-11.43,46.45,29.989,29.989,0,0,0-42.12,42.12A99.483,99.483,0,0,1,880,210V180a30,30,0,0,0,30-30v-.01a49.774,49.774,0,0,0,9.99-9.99H920A30,30,0,0,0,950,110Z"/><path class="cls-2" d="M950,110h30a99.483,99.483,0,0,1-11.43,46.45,29.989,29.989,0,0,0-42.12,42.12A99.483,99.483,0,0,1,880,210V180a30,30,0,0,0,30-30v-.01a49.774,49.774,0,0,0,9.99-9.99H920A30,30,0,0,0,950,110Z"/><path class="cls-3" d="M950,150a29.989,29.989,0,1,1-30,30A29.838,29.838,0,0,1,950,150Z"/><path class="cls-1" d="M920,150H910a29.769,29.769,0,0,0-2.93-12.93A29.769,29.769,0,0,0,920,140Z"/><path class="cls-1" d="M880,40V10a99.483,99.483,0,0,1,46.45,11.43,29.989,29.989,0,0,0,42.12,42.12A99.483,99.483,0,0,1,980,110H950a30,30,0,0,0-30-30h-.01A49.774,49.774,0,0,0,910,70.01V70A30,30,0,0,0,880,40Z"/><path class="cls-2" d="M880,40V10a99.483,99.483,0,0,1,46.45,11.43,29.989,29.989,0,0,0,42.12,42.12A99.483,99.483,0,0,1,980,110H950a30,30,0,0,0-30-30h-.01A49.774,49.774,0,0,0,910,70.01V70A30,30,0,0,0,880,40Z"/><path class="cls-3" d="M920,40a29.989,29.989,0,1,1,30,30A29.838,29.838,0,0,1,920,40Z"/><path class="cls-1" d="M920,70V80a29.769,29.769,0,0,0-12.93,2.93A29.769,29.769,0,0,0,910,70Z"/><path class="cls-1" d="M810,110H780a99.483,99.483,0,0,1,11.43-46.45,29.989,29.989,0,0,0,42.12-42.12A99.483,99.483,0,0,1,880,10V40a30,30,0,0,0-30,30v.01A49.774,49.774,0,0,0,840.01,80H840A30,30,0,0,0,810,110Z"/><path class="cls-2" d="M810,110H780a99.483,99.483,0,0,1,11.43-46.45,29.989,29.989,0,0,0,42.12-42.12A99.483,99.483,0,0,1,880,10V40a30,30,0,0,0-30,30v.01A49.774,49.774,0,0,0,840.01,80H840A30,30,0,0,0,810,110Z"/><path class="cls-3" d="M810,70a29.989,29.989,0,1,1,30-30A29.838,29.838,0,0,1,810,70Z"/><path class="cls-1" d="M840,70h10a29.769,29.769,0,0,0,2.93,12.93A29.769,29.769,0,0,0,840,80Z"/><path class="cls-4" d="M840,150V140a29.769,29.769,0,0,0,12.93-2.93A29.769,29.769,0,0,0,850,150Z"/><path class="cls-4" d="M920,150H910a29.769,29.769,0,0,0-2.93-12.93A29.769,29.769,0,0,0,920,140Z"/><path class="cls-4" d="M920,70V80a29.769,29.769,0,0,0-12.93,2.93A29.769,29.769,0,0,0,910,70Z"/><path class="cls-4" d="M840,70h10a29.769,29.769,0,0,0,2.93,12.93A29.769,29.769,0,0,0,840,80Z"/></g></g></g></svg>