<svg xmlns="http://www.w3.org/2000/svg" viewBox="0 0 1240 177.788"><defs><style>.cls-1{fill:#366ce1;}.cls-2{fill:#121221;}</style></defs><title>apps flyer</title><g id="Слой_2" data-name="Слой 2"><g id="Work_space" data-name="Work space"><g id="apps_flyer" data-name="apps flyer"><polygon class="cls-1" points="500 58.894 500 78.894 560 78.894 560 98.894 500 98.894 500 138.894 480 138.894 480 38.894 580 38.894 580 58.894 500 58.894"/><path class="cls-2" d="M350,68.894a10,10,0,0,0,10,10h40a30,30,0,0,1,0,60H330v-20h70a10,10,0,0,0,0-20H360a30,30,0,0,1,0-60h70v20H360A10,10,0,0,0,350,68.894Z"/><polygon class="cls-1" points="800 58.894 800 78.894 880 78.894 880 98.894 800 98.894 800 118.894 880 118.894 880 138.894 780 138.894 780 38.894 880 38.894 880 58.894 800 58.894"/><polygon class="cls-1" points="690 118.894 690 138.894 590 138.894 590 38.894 610 38.894 610 118.894 690 118.894"/><path class="cls-1" d="M990,68.894a30,30,0,0,0-30-30H890v100h20v-40h50a10,10,0,0,1,10,10v30h20v-30a29.862,29.862,0,0,0-7.65-20A29.862,29.862,0,0,0,990,68.894Zm-80,10v-20h50a10,10,0,0,1,0,20Z"/><path class="cls-2" d="M60.77,40.844l-.78-1.95H40.01l-.78,1.94L0,138.894H21.55l11.2-28h34.5l11.2,28H100ZM40.75,90.894,50,67.764l9.25,23.13Z"/><path class="cls-2" d="M180,38.894H110v100h20v-40h50a30,30,0,0,0,0-60Zm0,40H130v-20h50a10,10,0,0,1,0,20Z"/><path class="cls-2" d="M290,38.894H220v100h20v-40h50a30,30,0,0,0,0-60Zm0,40H240v-20h50a10,10,0,0,1,0,20Z"/><polygon class="cls-1" points="732.78 85.354 729.95 88.894 730 88.894 730 138.894 710 138.894 710 88.894 707.17 85.354 670 38.894 695.61 38.894 719.97 69.344 744.33 38.894 769.95 38.894 732.78 85.354"/><path class="cls-1" d="M1140,109.76l-85.45-10A16.157,16.157,0,0,1,1040,83.682V16.16A16.158,16.158,0,0,1,1057.766.082L1140,9.76Z"/><path class="cls-1" d="M1225.45,99.76l-85.45,10V9.76L1222.234.082A16.158,16.158,0,0,1,1240,16.16V83.682A16.157,16.157,0,0,1,1225.45,99.76Z"/><path class="cls-2" d="M1140,169.76l-47.255,7.876a10.946,10.946,0,0,1-12.745-10.8V129.033a10.945,10.945,0,0,1,9.146-10.8L1140,109.76Z"/><path class="cls-2" d="M1187.255,177.636,1140,169.76v-60l50.854,8.476a10.945,10.945,0,0,1,9.146,10.8v37.806A10.946,10.946,0,0,1,1187.255,177.636Z"/></g></g></g></svg>