<svg xmlns="http://www.w3.org/2000/svg" viewBox="0 0 855 180"><defs><style>.cls-1{fill:#366ce1;}.cls-2,.cls-3,.cls-4{fill:#121221;}.cls-2{opacity:0.62;}.cls-3{opacity:0.38;}</style></defs><title>apptus</title><g id="Слой_2" data-name="Слой 2"><g id="Work_space" data-name="Work space"><g id="apptus"><path class="cls-1" d="M855,90q0,4.263-.4,8.43L840,90l-23.775,13.725L808.3,90,786.652,52.5H802.5V25.05l14.61-8.438A89.917,89.917,0,0,1,854.6,81.57Q855,85.733,855,90Z"/><path class="cls-1" d="M854.6,98.43a90.144,90.144,0,0,1-52.1,73.41V154.95l-23.775-13.725,7.927-13.725L808.3,90l7.928,13.725L840,90Z"/><path class="cls-1" d="M802.5,154.95v16.89a89.865,89.865,0,0,1-89.61-8.453l14.61-8.437V127.5h59.152l-7.927,13.725Z"/><path class="cls-1" d="M743.348,127.5H727.5v27.45l-14.61,8.437A89.913,89.913,0,0,1,675.4,98.43Q675,94.268,675,90t.4-8.43L690,90l23.775-13.725L721.7,90Z"/><path class="cls-1" d="M751.275,38.775,743.348,52.5,721.7,90l-7.928-13.725L690,90l-14.6-8.43A90.135,90.135,0,0,1,727.5,8.16V25.05Z"/><path class="cls-1" d="M817.11,16.612,802.5,25.05V52.5H743.348l7.927-13.725L727.5,25.05V8.16a89.873,89.873,0,0,1,89.61,8.452Z"/><path class="cls-2" d="M855,90q0,4.263-.4,8.43L840,90l-23.775,13.725L808.3,90,786.652,52.5H802.5V25.05l14.61-8.438A89.917,89.917,0,0,1,854.6,81.57Q855,85.733,855,90Z"/><path class="cls-3" d="M854.6,98.43a90.144,90.144,0,0,1-52.1,73.41V154.95l-23.775-13.725,7.927-13.725L808.3,90l7.928,13.725L840,90Z"/><path class="cls-2" d="M802.5,154.95v16.89a89.865,89.865,0,0,1-89.61-8.453l14.61-8.437V127.5h59.152l-7.927,13.725Z"/><path class="cls-3" d="M743.348,127.5H727.5v27.45l-14.61,8.437A89.913,89.913,0,0,1,675.4,98.43Q675,94.268,675,90t.4-8.43L690,90l23.775-13.725L721.7,90Z"/><path class="cls-2" d="M751.275,38.775,743.348,52.5,721.7,90l-7.928-13.725L690,90l-14.6-8.43A90.135,90.135,0,0,1,727.5,8.16V25.05Z"/><path class="cls-3" d="M817.11,16.612,802.5,25.05V52.5H743.348l7.927-13.725L727.5,25.05V8.16a89.873,89.873,0,0,1,89.61,8.452Z"/><path class="cls-4" d="M570,70a10,10,0,0,0,10,10h40a30,30,0,0,1,0,60H550V120h70a10,10,0,0,0,0-20H580a30,30,0,0,1,0-60h70V60H580A10,10,0,0,0,570,70Z"/><path class="cls-1" d="M60.77,41.95,59.99,40H40.01l-.78,1.94L0,140H21.55l11.2-28h34.5l11.2,28H100ZM40.75,92,50,68.87,59.25,92Z"/><path class="cls-1" d="M180,40H110V140h20V100h50a30,30,0,0,0,0-60Zm0,40H130V60h50a10,10,0,0,1,0,20Z"/><path class="cls-1" d="M290,40H220V140h20V100h50a30,30,0,0,0,0-60Zm0,40H240V60h50a10,10,0,0,1,0,20Z"/><polygon class="cls-4" points="430 40 430 60 390 60 390 140 370 140 370 60 330 60 330 40 430 40"/><path class="cls-4" d="M540,40V90a50,50,0,0,1-100,0V40h20V90a30,30,0,0,0,60,0V40Z"/></g></g></g></svg>