<svg xmlns="http://www.w3.org/2000/svg" viewBox="0 0 759.96 130"><defs><style>.cls-1{fill:#121221;}</style></defs><title>arcadia</title><g id="Complete"><g id="arcadia"><path class="cls-1" d="M550.02,470a50,50,0,1,0,50,50A50.005,50.005,0,0,0,550.02,470Zm0,80a30,30,0,1,1,30-30A30,30,0,0,1,550.02,550Z" transform="translate(-170.02 -470)"/><path class="cls-1" d="M469.29,560H490a50,50,0,1,1,0-20H469.29a30,30,0,1,0,0,20Z" transform="translate(-170.02 -470)"/><path class="cls-1" d="M660,500H610V600h50a50,50,0,0,0,0-100Zm0,80H630V520h30a30,30,0,0,1,0,60Z" transform="translate(-170.02 -470)"/><polygon class="cls-1" points="0 130 39.22 31.93 39.99 30 59.99 30 60.76 31.93 99.98 130 78.44 130 49.99 58.86 21.53 130 0 130"/><polygon class="cls-1" points="659.98 130 699.2 31.93 699.97 30 719.97 30 720.74 31.93 759.96 130 738.42 130 709.97 58.86 681.51 130 659.98 130"/><polygon class="cls-1" points="330.02 130 369.24 31.93 370.01 30 390.01 30 390.78 31.93 430 130 408.46 130 380.01 58.86 351.55 130 330.02 130"/><path class="cls-1" d="M380,530a30,30,0,0,0-30-30H280V600h20V560h50a10,10,0,0,1,10,10v30h20V570a29.862,29.862,0,0,0-7.65-20A29.862,29.862,0,0,0,380,530Zm-80,10V520h50a10,10,0,0,1,0,20Z" transform="translate(-170.02 -470)"/><polygon class="cls-1" points="609.98 50 609.98 110 649.98 110 649.98 130 549.98 130 549.98 110 589.98 110 589.98 50 549.98 50 549.98 30 649.98 30 649.98 50 609.98 50"/></g></g></svg>