<svg xmlns="http://www.w3.org/2000/svg" viewBox="0 0 540 100"><defs><style>.cls-1{fill:#121221;}.cls-2{fill:#366ce1;}</style></defs><title>arcgic</title><g id="Слой_2" data-name="Слой 2"><g id="Work_space" data-name="Work space"><g id="arcgic"><polygon class="cls-1" points="421.01 20 421.01 80 441.01 80 441.01 100 381.01 100 381.01 80 401.01 80 401.01 20 381.01 20 381.01 0 441.01 0 441.01 20 421.01 20"/><path class="cls-2" d="M210,30A30,30,0,0,0,180,0H110V100h20V60h50a10,10,0,0,1,10,10v30h20V70a29.862,29.862,0,0,0-7.65-20A29.862,29.862,0,0,0,210,30ZM130,40V20h50a10,10,0,0,1,0,20Z"/><path class="cls-2" d="M299.29,60H320a50,50,0,1,1,0-20H299.29a30,30,0,1,0,0,20Z"/><path class="cls-1" d="M519.29,60H540a50,50,0,1,1,0-20H519.29a30,30,0,1,0,0,20Z"/><path class="cls-2" d="M60.77,1.95,59.99,0H40.01l-.78,1.94L0,100H21.55l11.2-28h34.5l11.2,28H100ZM40.75,52,50,28.87,59.25,52Z"/><path class="cls-1" d="M380,40V50a49.16,49.16,0,0,1-1.01,10,50.013,50.013,0,1,1-13.64-45.35L351.21,28.79A30,30,0,1,0,358.28,60H330V40Z"/></g></g></g></svg>