<svg xmlns="http://www.w3.org/2000/svg" viewBox="0 0 550 100"><defs><style>.cls-1{fill:#366ce1;}.cls-2{fill:#121221;}</style></defs><title>arcgis</title><g id="Слой_2" data-name="Слой 2"><g id="Work_space" data-name="Work space"><g id="arcgis"><polygon class="cls-1" points="420 20 420 80 440 80 440 100 380 100 380 80 400 80 400 20 380 20 380 0 440 0 440 20 420 20"/><path class="cls-1" d="M470,30a10,10,0,0,0,10,10h40a30,30,0,0,1,0,60H450V80h70a10,10,0,0,0,0-20H480a30,30,0,0,1,0-60h70V20H480A10,10,0,0,0,470,30Z"/><path class="cls-2" d="M210,30A30,30,0,0,0,180,0H110V100h20V60h50a10,10,0,0,1,10,10v30h20V70a29.862,29.862,0,0,0-7.65-20A29.862,29.862,0,0,0,210,30ZM130,40V20h50a10,10,0,0,1,0,20Z"/><path class="cls-2" d="M299.29,60H320a50,50,0,1,1,0-20H299.29a30,30,0,1,0,0,20Z"/><path class="cls-2" d="M60.77,1.95,59.99,0H40.01l-.78,1.94L0,100H21.55l11.2-28h34.5l11.2,28H100ZM40.75,52,50,28.87,59.25,52Z"/><path class="cls-1" d="M370,40V50a49.16,49.16,0,0,1-1.01,10,50.013,50.013,0,1,1-13.64-45.35L341.21,28.79A30,30,0,1,0,348.28,60H320V40Z"/></g></g></g></svg>