<svg xmlns="http://www.w3.org/2000/svg" viewBox="0 0 644.029 130"><defs><style>.cls-1,.cls-3,.cls-4{fill:#121221;}.cls-2{fill:#366ce1;}.cls-3{opacity:0.62;}.cls-4{opacity:0.38;}</style></defs><title>armory</title><g id="Слой_2" data-name="Слой 2"><g id="Work_space" data-name="Work space"><g id="armory"><path class="cls-1" d="M60.77,1.95,59.99,0H40.01l-.78,1.94L0,100H21.55l11.2-28h34.5l11.2,28H100ZM40.75,52,50,28.87,59.25,52Z"/><path class="cls-1" d="M299.029,30a35.715,35.715,0,1,0,35.715,35.714A35.718,35.718,0,0,0,299.029,30Zm0,57.143a21.429,21.429,0,1,1,21.429-21.429A21.427,21.427,0,0,1,299.029,87.143Z"/><path class="cls-1" d="M256.172,55v46.429H241.887V55a10.715,10.715,0,0,0-21.429,0v46.429H206.172V55a10.714,10.714,0,0,0-21.428,0v46.429H170.458V30h14.286v2.407A25.022,25.022,0,0,1,213.315,37.5a25.008,25.008,0,0,1,42.607,13.929A25.442,25.442,0,0,1,256.172,55Z"/><path class="cls-1" d="M164.086,35.093q-3.675,6.129-7.35,12.25a21.422,21.422,0,0,0-32.45,18.371v35.715H110V30h14.286v7.15a35.684,35.684,0,0,1,39.8-2.057Z"/><path class="cls-1" d="M395.972,35.093q-3.675,6.129-7.35,12.25a21.422,21.422,0,0,0-32.45,18.371v35.715H341.887V30h14.285v7.15a35.684,35.684,0,0,1,39.8-2.057Z"/><path class="cls-1" d="M474.029,30V94.286a35.709,35.709,0,0,1-60.964,25.25q5.046-5.047,10.1-10.1a21.426,21.426,0,0,0,36.579-15.15v-.007a35.526,35.526,0,0,1-21.429,7.15A35.755,35.755,0,0,1,405.579,80,35.572,35.572,0,0,1,402.6,65.714V30h14.286V65.721a21.429,21.429,0,0,0,42.857,0V30Z"/><path class="cls-2" d="M594.029,110q10-8,20-16v20q-10,8-20,16-10-8-20-16V94Q584.034,102,594.029,110Z"/><path class="cls-2" d="M644.029,0V90q-10,8-20,16V81q-5,4-10,8-10,8-20,16-10-8-20-16-5-4-10-8v25q-10-8-20-16V0Z"/><path class="cls-1" d="M574.029,20V79q-5-4-10-8V20Z"/><path class="cls-1" d="M624.029,81v25q-5,4-10,8V94q-10,8-20,16-10-8-20-16v20q-5-4-10-8V81q5,4,10,8,10,8,20,16,10-8,20-16Q619.024,85,624.029,81Z"/><path class="cls-1" d="M624.029,20V71q-5,4-10,8V20Z"/><rect class="cls-1" x="564.029" y="20" width="60" height="10"/><path class="cls-3" d="M564.029,25V35q-10-7.995-20-16V9Q554.034,17,564.029,25Z"/><path class="cls-3" d="M644.029,9V19q-10,7.995-20,16V25Q634.034,17.005,644.029,9Z"/><path class="cls-4" d="M564.029,20V30q-10-7.995-20-16V4Q554.034,12,564.029,20Z"/><path class="cls-4" d="M624.029,71v5q-5,4-10,8-10,8-20,16-10-8-20-16-5-4-10-8V71q5,4,10,8,10,8,20,16,10-8,20-16Q619.024,75,624.029,71Z"/><path class="cls-3" d="M624.029,76v5q-5,4-10,8-10,8-20,16-10-8-20-16-5-4-10-8V76q5,4,10,8,10,8,20,16,10-8,20-16Q619.024,80,624.029,76Z"/><path class="cls-4" d="M644.029,4V14q-10,7.995-20,16V20Q634.034,12.005,644.029,4Z"/></g></g></g></svg>