<svg id="Complete" xmlns="http://www.w3.org/2000/svg" viewBox="0 0 430 190"><defs><style>.cls-1{fill:#1c1e20;}</style></defs><title>astra</title><g id="astra_web_security" data-name="astra web security"><path class="cls-1" d="M625,497.5v20.05A72.086,72.086,0,0,0,605,515c-16.57,0-30,4.48-30,10v70H555V495h20v6a73.789,73.789,0,0,1,30-6A79.029,79.029,0,0,1,625,497.5Z" transform="translate(-285 -405)"/><path class="cls-1" d="M325,495c-22.09,0-40,13.43-40,30h20c0-5.52,8.95-10,20-10s20,4.48,20,10v14.03A50.064,50.064,0,0,0,325,535c-11.84,0-22.48,3.86-29.8,10-6.34,5.3-10.2,12.32-10.2,20,0,16.57,17.91,30,40,30a50.064,50.064,0,0,0,20-4.03V595h20V525C365,508.43,347.09,495,325,495Zm0,80c-11.05,0-20-4.48-20-10s8.95-10,20-10,20,4.48,20,10S336.05,575,325,575Z" transform="translate(-285 -405)"/><path class="cls-1" d="M675,495c-22.09,0-40,13.43-40,30h20c0-5.52,8.95-10,20-10s20,4.48,20,10v14.03A50.064,50.064,0,0,0,675,535c-11.84,0-22.48,3.86-29.8,10-6.34,5.3-10.2,12.32-10.2,20,0,16.57,17.91,30,40,30a50.064,50.064,0,0,0,20-4.03V595h20V525C715,508.43,697.09,495,675,495Zm0,80c-11.05,0-20-4.48-20-10s8.95-10,20-10,20,4.48,20,10S686.05,575,675,575Z" transform="translate(-285 -405)"/><path class="cls-1" d="M455,565c0,16.57-17.91,30-40,30s-40-13.43-40-30h20c0,5.52,8.95,10,20,10s20-4.48,20-10-8.95-10-20-10c-11.84,0-22.48-3.86-29.8-10-6.34-5.3-10.2-12.32-10.2-20,0-16.57,17.91-30,40-30s40,13.43,40,30H435c0-5.52-8.95-10-20-10s-20,4.48-20,10,8.95,10,20,10c11.84,0,22.48,3.86,29.8,10C451.14,550.3,455,557.32,455,565Z" transform="translate(-285 -405)"/><path class="cls-1" d="M515,405V575q-5,10-10,20-5-10-10-20V405Z" transform="translate(-285 -405)"/><path class="cls-1" d="M465,495c0-16.57,17.91-30,40-30s40,13.43,40,30H525c0-5.52-8.95-10-20-10s-20,4.48-20,10Z" transform="translate(-285 -405)"/></g></svg>