<svg xmlns="http://www.w3.org/2000/svg" viewBox="0 0 1085 210"><defs><style>.cls-1{fill:#121221;}.cls-2{fill:#366ce1;}</style></defs><title>athenian</title><g id="Слой_2" data-name="Слой 2"><g id="Work_space" data-name="Work space"><g id="athenian"><polygon class="cls-1" points="560 75 560 135 580 135 580 155 520 155 520 135 540 135 540 75 520 75 520 55 580 55 580 75 560 75"/><polygon class="cls-1" points="510 55 510 155 490 155 430 85.59 430 155 410 155 410 55 430 55 490 124.41 490 55 510 55"/><polygon class="cls-1" points="800 55 800 155 780 155 720 85.59 720 155 700 155 700 55 720 55 780 124.41 780 55 800 55"/><polygon class="cls-1" points="290 55 290 155 270 155 270 115 210 115 210 155 190 155 190 55 210 55 210 95 270 95 270 55 290 55"/><polygon class="cls-1" points="320 75 320 95 400 95 400 115 320 115 320 135 400 135 400 155 300 155 300 55 400 55 400 75 320 75"/><path class="cls-1" d="M60.77,56.95,59.99,55H40.01l-.78,1.94L0,155H21.55l11.2-28h34.5l11.2,28H100ZM40.75,107,50,83.87,59.25,107Z"/><path class="cls-1" d="M650.77,56.95,649.99,55H630.01l-.78,1.94L590,155h21.55l11.2-28h34.5l11.2,28H690ZM630.75,107,640,83.87,649.25,107Z"/><polygon class="cls-1" points="180 55 180 75 140 75 140 155 120 155 120 75 80 75 80 55 180 55"/><ellipse class="cls-1" cx="975" cy="105" rx="110" ry="105"/><circle class="cls-2" cx="1020" cy="105" r="55"/><circle class="cls-2" cx="930" cy="105" r="55"/><circle class="cls-1" cx="1015" cy="100" r="30"/><circle class="cls-1" cx="935" cy="100" r="30"/><ellipse class="cls-2" cx="975" cy="145" rx="13.238" ry="35"/><ellipse class="cls-1" cx="975" cy="143.56" rx="10" ry="26.44"/></g></g></g></svg>