<svg xmlns="http://www.w3.org/2000/svg" viewBox="0 0 637.484 135.232"><defs><style>.a{fill:#730000;}</style></defs><title>atom factory</title><path d="M17.571,85.187H87.856a17.571,17.571,0,1,0,0-35.142H17.571a17.571,17.571,0,0,0,0,35.142Zm0-28.114H87.856a10.543,10.543,0,1,1,0,21.086H17.571a10.543,10.543,0,0,1,0-21.086Z"/><path d="M55.068,28.4,19.925,89.264A17.572,17.572,0,0,0,50.36,106.836L85.5,45.967A17.571,17.571,0,1,0,55.068,28.4ZM79.415,42.453,44.273,103.321A10.543,10.543,0,0,1,26.012,92.779L61.155,31.91a10.543,10.543,0,1,1,18.26,10.543Z"/><path d="M85.5,89.264,50.36,28.4A17.571,17.571,0,0,0,19.925,45.967l35.143,60.869A17.571,17.571,0,0,0,85.5,89.264ZM61.155,103.321,26.012,42.453A10.543,10.543,0,0,1,44.273,31.91L79.415,92.779a10.542,10.542,0,1,1-18.26,10.542Z"/><circle class="a" cx="52.714" cy="67.616" r="7.028"/><path d="M248.824,45.077a22.539,22.539,0,1,0,22.538,22.539A22.541,22.541,0,0,0,248.824,45.077Zm0,36.062a13.523,13.523,0,1,1,13.523-13.523A13.522,13.522,0,0,1,248.824,81.139Z"/><path d="M235.3,67.616a22.539,22.539,0,0,1-45.078,0V0h9.016V49.589a22.416,22.416,0,0,1,13.523-4.512v9.016a13.523,13.523,0,1,0,13.523,13.523Z"/><path d="M163.177,0a22.541,22.541,0,0,0-22.539,22.539V90.154h9.016V58.6H176.7V90.154h9.016V22.539A22.541,22.541,0,0,0,163.177,0ZM176.7,49.585H149.654V22.539a13.523,13.523,0,1,1,27.046,0Z"/><path d="M311.932,45.077a22.416,22.416,0,0,0-13.523,4.512,22.535,22.535,0,0,0-36.062,18.027V90.154h9.015V67.616A13.518,13.518,0,0,1,292.4,56.374a12.911,12.911,0,0,1,1.506,1.167V90.154h9.015V57.541a13,13,0,0,1,1.506-1.167,13.518,13.518,0,0,1,21.033,11.242V90.154h9.015V67.616A22.541,22.541,0,0,0,311.932,45.077ZM293.9,54.093h0a0,0,0,0,0,0,0Zm9.015,0a0,0,0,0,0,0,0h0Z"/><path d="M422.984,22.539h-9.016a13.523,13.523,0,1,0-13.523,13.523v9.015a22.416,22.416,0,0,1-13.523-4.512V90.154h-9.016V22.539a22.539,22.539,0,1,1,45.078,0Z"/><path d="M601.073,51.681q-3.184,3.185-6.374,6.374a13.521,13.521,0,0,0-23.084,9.561V90.154H562.6V45.077h9.015v4.512a22.524,22.524,0,0,1,29.458,2.092Z"/><path d="M482.129,77.177l6.374,6.374a22.539,22.539,0,1,1,0-31.87l-6.374,6.374a13.523,13.523,0,1,0,0,19.122Z"/><path d="M422.984,45.077a22.539,22.539,0,1,0,13.523,40.565v4.512h9.015V67.616A22.541,22.541,0,0,0,422.984,45.077Zm0,36.062a13.523,13.523,0,1,1,13.523-13.523A13.523,13.523,0,0,1,422.984,81.139Z"/><path d="M549.2,45.077a22.539,22.539,0,1,0,22.538,22.539A22.541,22.541,0,0,0,549.2,45.077Zm0,36.062a13.523,13.523,0,1,1,13.523-13.523A13.522,13.522,0,0,1,549.2,81.139Z"/><path d="M535.677,67.616a22.539,22.539,0,0,1-45.078,0V0h9.016V49.589a22.416,22.416,0,0,1,13.523-4.512v9.016a13.523,13.523,0,1,0,13.523,13.523Z"/><path d="M637.484,45.077v67.616a22.539,22.539,0,1,1-45.078,0h9.016a13.523,13.523,0,1,0,27.046,0V85.642a22.535,22.535,0,0,1-36.062-18.026V45.077h9.016V67.616a13.523,13.523,0,1,0,27.046,0V45.077Z"/></svg>