<svg xmlns="http://www.w3.org/2000/svg" viewBox="0 0 450 300"><defs><style>.cls-1{fill:#366ce1;}.cls-2{fill:#121221;}</style></defs><title>atp</title><g id="Complete"><g id="atp"><path class="cls-1" d="M700,400A100,100,0,0,1,600,500H300a50,50,0,0,1-1.18-99.98A145.583,145.583,0,0,1,290,350c0-82.84,69.4-150,155-150,67.63,0,125.15,41.92,146.32,100.38,2.86-.25,5.76-.38,8.68-.38A100,100,0,0,1,700,400Z" transform="translate(-250 -200)"/><path class="cls-2" d="M329.912,440h20l30-70,30,70h20q-20-50-40-100h-20Q349.911,390,329.912,440Z" transform="translate(-250 -200)"/><path class="cls-2" d="M429.912,330v20h40v90h20V350h40V330Z" transform="translate(-250 -200)"/><path class="cls-2" d="M529.912,440V390h70c8.229-4.19,12.167-12.868,10-20-2.084-6.858-9-9.62-10-10h-50V340h60c1.536.881,18.616,11.043,20,30,1.255,17.206-10.957,34.305-30,40h-50v30Z" transform="translate(-250 -200)"/></g></g></svg>