<svg id="Main" xmlns="http://www.w3.org/2000/svg" viewBox="0 0 870 760"><defs><style>.cls-1{fill:#1c1e20;}.cls-2{fill:#366ce1;}.cls-3{fill:#121221;}</style></defs><title>autodesk_fusion</title><g id="Autodesc_fusion" data-name="Autodesc fusion"><path class="cls-1" d="M500.03,424.676l-.06.06v-.06Z" transform="translate(-65 -140)"/><polygon class="cls-1" points="435.03 284.676 435.03 284.736 434.97 284.676 435.03 284.676"/><polygon class="cls-1" points="150 580 150 650 190 650 190 670 150 670 150 760 130 760 130 560 230 560 230 580 150 580"/><path class="cls-1" d="M675,710.01A50,50,0,0,0,595,750V850a50,50,0,0,0,100,0V750A49.891,49.891,0,0,0,675,710.01ZM675,850a30,30,0,0,1-60,0V750a30,30,0,0,1,60,0Z" transform="translate(-65 -140)"/><path class="cls-1" d="M405,700V850a50,50,0,0,1-100,0V700h20V850a30,30,0,0,0,60,0V700Z" transform="translate(-65 -140)"/><path class="cls-1" d="M495,760V750a30,30,0,0,0-60,0v10a30,30,0,0,0,30,30,49.753,49.753,0,0,1,29.99,10,.01.01,0,0,1,.01.01A49.891,49.891,0,0,1,515,840v10a50,50,0,0,1-100,0V840h20v10a30,30,0,0,0,60,0V840a30,30,0,0,0-30-30,49.753,49.753,0,0,1-29.99-10,.01.01,0,0,1-.01-.01A49.891,49.891,0,0,1,415,760V750a50,50,0,0,1,100,0v10Z" transform="translate(-65 -140)"/><polygon class="cls-1" points="500 580 500 740 520 740 520 760 460 760 460 740 480 740 480 580 460 580 460 560 520 560 520 580 500 580"/><polygon class="cls-1" points="740 560 740 760 716 760 660 612.63 660 760 640 760 640 560 664 560 720 707.37 720 560 740 560"/><path class="cls-1" d="M125,469.718H105q-20,100.005-40,200H75q7.365-34.995,14.74-70h50.52q7.38,35,14.74,70h10Q145.005,569.713,125,469.718Zm-33.16,120q11.58-55,23.16-110,11.58,54.99,23.16,110Z" transform="translate(-65 -140)"/><path class="cls-1" d="M445,469.718a50.005,50.005,0,0,0-50,50v100a50,50,0,0,0,100,0v-100A50.005,50.005,0,0,0,445,469.718Zm40,150a40,40,0,0,1-80,0v-100a40,40,0,0,1,80,0Z" transform="translate(-65 -140)"/><path class="cls-1" d="M815,585.01A49.753,49.753,0,0,1,825,615v5a50,50,0,0,1-100,0h10a40,40,0,0,0,80,0v-5a40,40,0,0,0-40-40,50.015,50.015,0,0,1-50-50v-5a50,50,0,0,1,100,0H815a40,40,0,0,0-80,0v5a40,40,0,0,0,40,40,49.915,49.915,0,0,1,40,20.01Z" transform="translate(-65 -140)"/><path class="cls-1" d="M275,469.718v150a50,50,0,0,1-100,0v-150h10v150a40,40,0,0,0,80,0v-150Z" transform="translate(-65 -140)"/><rect class="cls-1" x="265" y="339.718" width="10" height="190"/><rect class="cls-1" x="220" y="329.718" width="100" height="10"/><path class="cls-1" d="M555,469.718H505v200h50a50.005,50.005,0,0,0,50-50v-100A50.005,50.005,0,0,0,555,469.718Zm40,150a40,40,0,0,1-40,40H515v-180h40a40,40,0,0,1,40,40Z" transform="translate(-65 -140)"/><polygon class="cls-1" points="560 339.718 560 424.718 650 424.718 650 434.718 560 434.718 560 519.718 650 519.718 650 529.718 550 529.718 550 329.718 650 329.718 650 339.718 560 339.718"/><polygon class="cls-1" points="790 429.718 870 529.718 858 529.718 780 432.218 780 529.718 770 529.718 770 329.718 780 329.718 780 427.218 858 329.718 870 329.718 790 429.718"/><path class="cls-1" d="M481.6,179.718v.06l-.06-.06Z" transform="translate(-65 -140)"/><path class="cls-2" d="M511.105,260.01Q511.09,300,511.1,340H390.085l56.51-56.52.01-.01-.01-.01V260Q478.86,260,511.105,260.01Z" transform="translate(-65 -140)"/><path class="cls-1" d="M446.6,283.48,390.085,340H446.6V440h-80V140q40,40,80,79.99Z" transform="translate(-65 -140)"/><path class="cls-2" d="M633.405,140v80h-186.8l-.01-.01q-40-40.005-80-79.99Z" transform="translate(-65 -140)"/><path class="cls-3" d="M446.6,260h23.46l-23.45,23.46Q446.59,271.73,446.6,260Z" transform="translate(-65 -140)"/></g></svg>