<svg id="Main" xmlns="http://www.w3.org/2000/svg" viewBox="0 0 870 709.35"><defs><style>.cls-1{fill:#1c1e20;}.cls-2{fill:#366ce1;}.cls-3{fill:#121221;}</style></defs><title>autodesk_autocad</title><g id="Autodesk_Autocad" data-name="Autodesk Autocad"><path class="cls-1" d="M125,399.859H105q-20,100.005-40,200H75q7.365-35,14.74-70h50.52q7.38,34.995,14.74,70h10Q145.005,499.854,125,399.859Zm-33.16,120q11.58-55,23.16-110,11.58,54.99,23.16,110Z" transform="translate(-65 -110.65)"/><path class="cls-1" d="M445,399.859a50.005,50.005,0,0,0-50,50v100a50,50,0,0,0,100,0v-100A50.005,50.005,0,0,0,445,399.859Zm40,150a40,40,0,0,1-80,0v-100a40,40,0,1,1,80,0Z" transform="translate(-65 -110.65)"/><path class="cls-1" d="M815,515.151a49.753,49.753,0,0,1,10,29.99v5a50,50,0,1,1-100,0h10a40,40,0,1,0,80,0v-5a40,40,0,0,0-40-40,50.015,50.015,0,0,1-50-50v-5a50,50,0,0,1,100,0H815a40,40,0,0,0-80,0v5a40,40,0,0,0,40,40,49.915,49.915,0,0,1,40,20.01Z" transform="translate(-65 -110.65)"/><path class="cls-1" d="M275,399.859v150a50,50,0,0,1-100,0v-150h10v150a40,40,0,0,0,80,0v-150Z" transform="translate(-65 -110.65)"/><rect class="cls-1" x="265" y="299.209" width="10" height="190"/><rect class="cls-1" x="220" y="289.209" width="100" height="10"/><path class="cls-1" d="M555,399.859H505v200h50a50.005,50.005,0,0,0,50-50v-100A50.005,50.005,0,0,0,555,399.859Zm40,150a40,40,0,0,1-40,40H515v-180h40a40,40,0,0,1,40,40Z" transform="translate(-65 -110.65)"/><polygon class="cls-1" points="560 299.209 560 384.209 650 384.209 650 394.209 560 394.209 560 479.209 650 479.209 650 489.209 550 489.209 550 289.209 650 289.209 650 299.209 560 299.209"/><polygon class="cls-1" points="790 389.209 870 489.209 858 489.209 780 391.709 780 489.209 770 489.209 770 289.209 780 289.209 780 386.709 858 289.209 870 289.209 790 389.209"/><path class="cls-1" d="M120,820h20l30-160,30,160h20q-20-100-40-200H160Q140,720,120,820Z" transform="translate(-65 -110.65)"/><path class="cls-1" d="M140,760h60l-10-20H150Z" transform="translate(-65 -110.65)"/><path class="cls-1" d="M670,820h20l30-160,30,160h20q-20-100-40-200H710Q690,720,670,820Z" transform="translate(-65 -110.65)"/><path class="cls-1" d="M690,760h60l-10-20H700Z" transform="translate(-65 -110.65)"/><path class="cls-1" d="M530,630.01A50,50,0,0,0,450,670V770a50,50,0,0,0,100,0V670A49.891,49.891,0,0,0,530,630.01ZM530,770a30,30,0,0,1-60,0V670a30,30,0,0,1,60,0Z" transform="translate(-65 -110.65)"/><path class="cls-1" d="M640,690V670a30,30,0,0,0-60,0V770a30,30,0,0,0,60,0V750h20v20a50,50,0,0,1-100,0V670a50,50,0,0,1,100,0v20Z" transform="translate(-65 -110.65)"/><path class="cls-1" d="M860,630.01A49.726,49.726,0,0,0,830,620H780V820h50a50.005,50.005,0,0,0,50-50V670A49.891,49.891,0,0,0,860,630.01ZM860,770a30,30,0,0,1-30,30H800V640h30a30,30,0,0,1,30,30Z" transform="translate(-65 -110.65)"/><path class="cls-1" d="M330,620V770a50,50,0,0,1-100,0V620h20V770a30,30,0,0,0,60,0V620Z" transform="translate(-65 -110.65)"/><rect class="cls-1" x="315" y="509.35" width="20" height="200"/><rect class="cls-1" x="275" y="509.35" width="100" height="20"/><polygon class="cls-2" points="318.15 229.99 279.44 268.7 222.87 212.13 285 150 285 229.99 318.15 229.99"/><polygon class="cls-1" points="584.99 149.99 471.85 149.99 435 113.14 398.15 149.99 285.01 149.99 435 0 584.99 149.99"/><polygon class="cls-2" points="647.13 212.13 590.57 268.7 551.86 229.99 585 229.99 585 150 647.13 212.13"/><polygon class="cls-3" points="398.15 149.99 318.15 229.99 285 229.99 285 150 285.01 149.99 398.15 149.99"/><polygon class="cls-2" points="285 149.99 285.01 149.99 285 150 285 149.99"/><polygon class="cls-2" points="551.86 229.99 318.15 229.99 398.15 149.99 471.85 149.99 551.86 229.99"/><polygon class="cls-3" points="585 150 585 229.99 551.86 229.99 471.85 149.99 584.99 149.99 585 150"/><polygon class="cls-2" points="585 149.99 585 150 584.99 149.99 585 149.99"/></g></svg>