<svg id="Main" xmlns="http://www.w3.org/2000/svg" viewBox="0 0 920 510"><defs><style>.cls-1{fill:#366ce1;}.cls-2,.cls-6,.cls-7{fill:#1c1e20;}.cls-3,.cls-4,.cls-5{fill:#e1dfdf;}.cls-3,.cls-7{opacity:0.38;}.cls-4,.cls-6{opacity:0.62;}</style></defs><title>autodesk_sketchbook</title><g id="scetchbook"><path class="cls-1" d="M650,290V390A99.947,99.947,0,0,1,550,490H450A99.947,99.947,0,0,1,350,390V290A100,100,0,0,1,450,190H550A100,100,0,0,1,650,290Z" transform="translate(-40 -190)"/><path class="cls-2" d="M530,390V490H470V390c0,27.61,13.43,50,30,50S530,417.61,530,390Z" transform="translate(-40 -190)"/><path class="cls-3" d="M530,390V490H470V390c0,27.61,13.43,50,30,50S530,417.61,530,390Z" transform="translate(-40 -190)"/><path class="cls-2" d="M590,380V481.67A99.542,99.542,0,0,1,550,490H530V390c2.38,19.74,12.18,35.2,24.16,39.06.38.13.77.24,1.15.34.34.09.69.17,1.03.23a13.733,13.733,0,0,0,1.43.23c.35.05.69.08,1.04.1.4.03.79.04,1.19.04C576.57,430,590,407.61,590,380Z" transform="translate(-40 -190)"/><path class="cls-2" d="M555.31,429.4c-12.5-3.22-22.85-19.03-25.31-39.4l.06-.01.53-.09C533.05,410.26,542.92,426.15,555.31,429.4Z" transform="translate(-40 -190)"/><path class="cls-2" d="M470,390V490H450a99.542,99.542,0,0,1-40-8.33V380c0,27.61,13.43,50,30,50a18.5,18.5,0,0,0,4.69-.6c.29-.07.57-.15.86-.25a1.9,1.9,0,0,0,.29-.09c.39-.13.77-.27,1.14-.41s.72-.29,1.08-.45a22.162,22.162,0,0,0,2.16-1.12c.25-.14.5-.3.75-.46.55-.34,1.08-.71,1.61-1.11.31-.22.63-.47.94-.72a32.773,32.773,0,0,0,4.29-4.22c.19-.21.36-.42.54-.64.26-.32.52-.64.77-.98s.51-.66.75-1.01c.22-.3.44-.61.65-.93.69-1,1.34-2.05,1.96-3.15.18-.32.36-.64.53-.96.21-.36.4-.73.59-1.1.13-.27.27-.55.41-.83.13-.26.25-.52.37-.78.2-.42.4-.84.58-1.28.14-.31.27-.61.4-.93q.18-.405.33-.81c.17-.41.33-.83.5-1.26.11-.32.23-.64.34-.96.13-.35.25-.71.37-1.06.14-.42.28-.84.41-1.27.15-.47.29-.94.43-1.42A70.477,70.477,0,0,0,470,390Z" transform="translate(-40 -190)"/><path class="cls-4" d="M470,390V490H450a99.542,99.542,0,0,1-40-8.33V380c0,27.61,13.43,50,30,50a18.5,18.5,0,0,0,4.69-.6c.29-.07.57-.15.86-.25a1.9,1.9,0,0,0,.29-.09c.39-.13.77-.27,1.14-.41s.72-.29,1.08-.45a22.162,22.162,0,0,0,2.16-1.12c.25-.14.5-.3.75-.46.55-.34,1.08-.71,1.61-1.11.31-.22.63-.47.94-.72a32.773,32.773,0,0,0,4.29-4.22c.19-.21.36-.42.54-.64.26-.32.52-.64.77-.98s.51-.66.75-1.01c.22-.3.44-.61.65-.93.69-1,1.34-2.05,1.96-3.15.18-.32.36-.64.53-.96.21-.36.4-.73.59-1.1.13-.27.27-.55.41-.83.13-.26.25-.52.37-.78.2-.42.4-.84.58-1.28.14-.31.27-.61.4-.93q.18-.405.33-.81c.17-.41.33-.83.5-1.26.11-.32.23-.64.34-.96.13-.35.25-.71.37-1.06.14-.42.28-.84.41-1.27.15-.47.29-.94.43-1.42A70.477,70.477,0,0,0,470,390Z" transform="translate(-40 -190)"/><path class="cls-2" d="M470,390c-2.46,20.37-12.81,36.18-25.31,39.4,12.39-3.25,22.26-19.14,24.72-39.5l.53.09Z" transform="translate(-40 -190)"/><path class="cls-5" d="M590,380c0,27.61-13.43,50-30,50-.4,0-.79-.01-1.19-.04-.35-.02-.69-.05-1.04-.1a13.733,13.733,0,0,1-1.43-.23c-.34-.06-.69-.14-1.03-.23-12.5-3.22-22.85-19.03-25.31-39.4q-1.77-11.775-3.53-23.56-8.775-58.455-17.54-116.92a72.009,72.009,0,0,0,17.36-4.01q20.34,42.93,40.67,85.85Q578.48,355.675,590,380Z" transform="translate(-40 -190)"/><path class="cls-6" d="M590,380c0,27.61-13.43,50-30,50-.4,0-.79-.01-1.19-.04-.35-.02-.69-.05-1.04-.1a13.733,13.733,0,0,1-1.43-.23c-.34-.06-.69-.14-1.03-.23-12.5-3.22-22.85-19.03-25.31-39.4q-1.77-11.775-3.53-23.56-8.775-58.455-17.54-116.92a72.009,72.009,0,0,0,17.36-4.01q20.34,42.93,40.67,85.85Q578.48,355.675,590,380Z" transform="translate(-40 -190)"/><path class="cls-5" d="M530,390c0,27.61-13.43,50-30,50s-30-22.39-30-50q1.77-11.775,3.53-23.56c.01-.01.01-.01.01-.02q8.76-58.455,17.53-116.9a83.308,83.308,0,0,0,17.86,0q8.76,58.455,17.54,116.92Q528.225,378.215,530,390Z" transform="translate(-40 -190)"/><path class="cls-7" d="M530,390.48c0,27.61-13.43,50-30,50s-30-22.39-30-50q1.77-11.775,3.53-23.56c.01-.01.01-.01.01-.02q8.76-58.455,17.53-116.9a83.308,83.308,0,0,0,17.86,0q8.76,58.455,17.54,116.92Q528.225,378.695,530,390.48Z" transform="translate(-40 -190)"/><path class="cls-5" d="M491.07,249.52q-8.76,58.455-17.53,116.9c0,.01,0,.01-.01.02Q471.775,378.215,470,390c-2.46,20.37-12.81,36.18-25.31,39.4a18.5,18.5,0,0,1-4.69.6c-16.57,0-30-22.39-30-50q11.52-24.315,23.04-48.64,20.34-42.93,40.67-85.85A72.009,72.009,0,0,0,491.07,249.52Z" transform="translate(-40 -190)"/><path class="cls-2" d="M526.29,245.51a72.009,72.009,0,0,1-17.36,4.01,83.308,83.308,0,0,1-17.86,0,72.009,72.009,0,0,1-17.36-4.01q12.41-26.207,24.828-52.423a1.618,1.618,0,0,1,2.924,0Q513.873,219.3,526.29,245.51Z" transform="translate(-40 -190)"/><path class="cls-2" d="M140,645c0,30.38-22.39,55-50,55s-50-24.62-50-55H60c0,19.33,13.43,35,30,35s30-15.67,30-35-13.43-35-30-35a46.719,46.719,0,0,1-28.74-10C48.4,590.06,40,573.61,40,555c0-30.38,22.39-55,50-55s50,24.62,50,55H120c0-19.33-13.43-35-30-35s-30,15.67-30,35,13.43,35,30,35a46.719,46.719,0,0,1,28.74,10C131.6,609.94,140,626.39,140,645Z" transform="translate(-40 -190)"/><path class="cls-2" d="M206.41,665h20.86c-5.82,20.49-20.31,35-37.27,35-22.09,0-40-24.62-40-55s17.91-55,40-55c16.96,0,31.45,14.51,37.27,35H206.41c-3.61-9.07-9.61-15-16.41-15-11.05,0-20,15.67-20,35s8.95,35,20,35C196.8,680,202.8,674.07,206.41,665Z" transform="translate(-40 -190)"/><path class="cls-2" d="M476.41,665h20.86c-5.82,20.49-20.31,35-37.27,35-22.09,0-40-24.62-40-55s17.91-55,40-55c16.96,0,31.45,14.51,37.27,35H476.41c-3.61-9.07-9.61-15-16.41-15-11.05,0-20,15.67-20,35s8.95,35,20,35C466.8,680,472.8,674.07,476.41,665Z" transform="translate(-40 -190)"/><path class="cls-2" d="M590,645v55H570V645c0-19.33-8.95-35-20-35s-20,15.67-20,35v55H510V500h20v97.36A31.983,31.983,0,0,1,550,590C572.09,590,590,614.62,590,645Z" transform="translate(-40 -190)"/><path class="cls-2" d="M409.83,650C408,678.04,390.86,700,370,700c-22.09,0-40-24.62-40-55V500h20V645c0,19.33,8.95,35,20,35,10.08,0,18.41-13.04,19.79-30Z" transform="translate(-40 -190)"/><path class="cls-2" d="M319.34,655a76.088,76.088,0,0,0,0-20c-3.42-25.6-19.73-45-39.34-45-22.09,0-40,24.62-40,55s17.91,55,40,55c14.04,0,26.39-9.95,33.53-25H290.3c-3.01,3.17-6.53,5-10.3,5s-7.29-1.83-10.3-5c-4.23-4.45-7.44-11.56-8.87-20Zm-58.51-20c2.46-14.46,10.11-25,19.17-25s16.71,10.54,19.17,25Z" transform="translate(-40 -190)"/><path class="cls-2" d="M650,590c-22.09,0-40,24.62-40,55s17.91,55,40,55,40-24.62,40-55S672.09,590,650,590Zm0,90c-11.05,0-20-15.67-20-35s8.95-35,20-35,20,15.67,20,35S661.05,680,650,680Z" transform="translate(-40 -190)"/><path class="cls-2" d="M740,590c-22.09,0-40,24.62-40,55s17.91,55,40,55,40-24.62,40-55S762.09,590,740,590Zm0,90c-11.05,0-20-15.67-20-35s8.95-35,20-35,20,15.67,20,35S751.05,680,740,680Z" transform="translate(-40 -190)"/><path class="cls-2" d="M830,590c-22.09,0-40,24.62-40,55s17.91,55,40,55,40-24.62,40-55S852.09,590,830,590Zm0,90c-11.05,0-20-15.67-20-35s8.95-35,20-35,20,15.67,20,35S841.05,680,830,680Z" transform="translate(-40 -190)"/><rect class="cls-2" x="570" y="310" width="20" height="200"/><polygon class="cls-2" points="880 460 920 510 900 510 860 463.49 860 510 840 510 840 310 860 310 860 456.51 900 410 920 410 880 460"/><rect class="cls-2" x="310" y="400" width="60" height="20"/></g></svg>