<svg id="Main" xmlns="http://www.w3.org/2000/svg" viewBox="0 0 1160 300"><defs><style>.cls-1{fill:#366ce1;}.cls-2{fill:#121221;}.cls-3{fill:#1c1e20;}</style></defs><title>autodesk_3dsmax</title><g id="_3dsmax" data-name="3dsmax"><polygon class="cls-1" points="150.13 0 70.13 80 0 80 0 0 150.13 0"/><polygon class="cls-1" points="149.87 300 0 300 0 220 69.87 220 149.87 300"/><path class="cls-2" d="M25,552.5q-22.56,3.765-45.11,7.52L-80,500.13l.09-.09Q-27.455,526.275,25,552.5Z" transform="translate(80 -350)"/><path class="cls-2" d="M25,447.5q-52.365,26.19-104.74,52.37l59.85-59.85Q2.55,443.755,25,447.5Z" transform="translate(80 -350)"/><path class="cls-3" d="M340,500Q230.005,575,120,650H69.87l-80-80H60l60-15Q230,527.5,340,500Z" transform="translate(80 -350)"/><path class="cls-3" d="M340,500q-109.995-27.5-220-55L60,430H-9.87l80-80H120Q230,425,340,500Z" transform="translate(80 -350)"/><path class="cls-3" d="M60,570H-80q29.94-5,59.89-9.98Q2.45,556.255,25,552.5,42.505,561.245,60,570Z" transform="translate(80 -350)"/><path class="cls-2" d="M340,500q-109.995,27.5-220,55L60,570V546.67q30-5.01,60-10Q230,518.325,340,500Z" transform="translate(80 -350)"/><path class="cls-3" d="M60,430Q42.5,438.745,25,447.5q-22.44-3.735-44.89-7.48L-80,430Z" transform="translate(80 -350)"/><path class="cls-2" d="M340,500q-109.995-18.33-220-36.67-30-4.995-60-10V430l60,15Q230,472.5,340,500Z" transform="translate(80 -350)"/><path class="cls-1" d="M340,500q-109.995,18.33-220,36.67-30,5-60,10V570Q42.5,561.255,25,552.5q-52.455-26.22-104.91-52.46l.17-.17Q-27.36,473.7,25,447.5q17.505-8.745,35-17.5v23.33q30,5.01,60,10Q230,481.675,340,500Z" transform="translate(80 -350)"/><path class="cls-2" d="M-79.74,499.87l-.17.17c-.03-.01-.06-.03-.09-.04C-79.91,499.96-79.83,499.91-79.74,499.87Z" transform="translate(80 -350)"/><path class="cls-1" d="M420,545c0,30.38-22.39,55-50,55s-50-24.62-50-55h20c0,19.33,13.43,35,30,35s30-15.67,30-35-13.43-35-30-35a46.719,46.719,0,0,1-28.74-10A46.719,46.719,0,0,1,370,490c16.57,0,30-15.67,30-35s-13.43-35-30-35-30,15.67-30,35H320c0-30.38,22.39-55,50-55s50,24.62,50,55c0,18.61-8.4,35.06-21.26,45C411.6,509.94,420,526.39,420,545Z" transform="translate(80 -350)"/><path class="cls-1" d="M480,400H430V600h50c27.61,0,50-44.77,50-100S507.61,400,480,400Zm0,180H450V420h30c16.57,0,30,35.82,30,80S496.57,580,480,580Z" transform="translate(80 -350)"/><path class="cls-1" d="M560,545H540c0,30.38,22.39,55,50,55s50-24.62,50-55c0-18.61-8.4-35.06-21.26-45A46.719,46.719,0,0,0,590,490c-16.57,0-30-15.67-30-35s13.43-35,30-35,30,15.67,30,35h20c0-30.38-22.39-55-50-55s-50,24.62-50,55c0,18.61,8.4,35.06,21.26,45A46.719,46.719,0,0,0,590,510c16.57,0,30,15.67,30,35s-13.43,35-30,35S560,564.33,560,545Z" transform="translate(80 -350)"/><polygon class="cls-2" points="900 50 900 250 880 250 880 90 840 250 820 250 780 90 780 250 760 250 760 50 790 50 830 210 870 50 900 50"/><path class="cls-2" d="M900,400H880L830,600h20l22.5-90h35L930,600h20Zm-22.5,90L890,440l12.5,50Z" transform="translate(80 -350)"/><polygon class="cls-2" points="1110 150 1160 250 1140 250 1100 170 1060 250 1040 250 1090 150 1040 50 1060 50 1100 130 1140 50 1160 50 1110 150"/></g></svg>