<svg xmlns="http://www.w3.org/2000/svg" viewBox="0 0 830.708 241.417"><defs><style>.cls-1{fill:#121221;}.cls-2{fill:#366ce1;}.cls-3{fill:#1c1e20;}</style></defs><title>autox</title><g id="Слой_2" data-name="Слой 2"><g id="Work_space" data-name="Work space"><g id="autox"><polygon class="cls-1" points="793.208 120.738 830.658 170.708 805.668 170.708 780.718 137.408 755.758 170.708 730.778 170.708 768.218 120.738 730.728 70.708 755.708 70.708 780.718 104.068 805.718 70.708 830.708 70.708 793.208 120.738"/><path class="cls-2" d="M640.241,70.708a50,50,0,1,0,50,50A50.005,50.005,0,0,0,640.241,70.708Zm0,90a40,40,0,1,1,40-40A40,40,0,0,1,640.241,160.708Z"/><path class="cls-2" d="M370.428,125.708l-4.51-10-19.71-43.73.01-.01-.49-1.08h-.01l-.08-.18H335.8l-.08.18v.02l-.47,1.05h-.01l-19.72,43.75-4.51,10-20.28,45H301.7l20.28-45h37.48l20.28,45h10.97Zm-19.71-2.96-.02-.04h.02Zm-24.23-7.04,14.23-31.58,14.24,31.58Z"/><polygon class="cls-2" points="595.475 70.708 595.475 80.708 550.475 80.708 550.475 170.708 540.475 170.708 540.475 80.708 495.475 80.708 495.475 70.708 595.475 70.708"/><path class="cls-2" d="M485.475,70.708v50a50,50,0,0,1-100,0v-50h10v50a40,40,0,0,0,80,0v-50Z"/><path class="cls-3" d="M226.774,156.064,85.353,14.642A50,50,0,0,0,14.642,85.353L156.064,226.774a50,50,0,0,0,70.71-70.71ZM184.348,198.49,42.927,57.069A10,10,0,0,1,57.069,42.927L198.49,184.348a10,10,0,0,1-14.142,14.142Z"/><path class="cls-2" d="M198.49,198.49a10,10,0,0,1-14.142,0L42.927,57.069A10,10,0,0,1,57.069,42.927L198.49,184.348A10,10,0,0,1,198.49,198.49Z"/><path class="cls-3" d="M14.642,226.774a50,50,0,0,0,70.711,0L226.774,85.353a50,50,0,0,0-70.71-70.711L14.642,156.064A50.005,50.005,0,0,0,14.642,226.774ZM42.927,198.49a10,10,0,0,1,0-14.142L184.348,42.927A10,10,0,0,1,198.49,57.069L57.069,198.49A10,10,0,0,1,42.927,198.49Z"/><path class="cls-2" d="M42.927,198.49a10,10,0,0,0,14.142,0L198.49,57.069a10,10,0,0,0-14.142-14.142L42.927,184.348A10,10,0,0,0,42.927,198.49Z"/></g></g></g></svg>