<svg xmlns="http://www.w3.org/2000/svg" viewBox="0 0 540 410"><defs><style>.cls-1{fill:#e1dfdf;}.cls-2{fill:#121221;}.cls-3{fill:#366ce1;}.cls-4{fill:#1c1e20;}</style></defs><title>axure RP</title><g id="Complete"><g id="axure_rp" data-name="axure rp"><g id="axure_RP-2" data-name="axure RP"><rect class="cls-1" x="120" y="110" width="300" height="300" rx="100"/><path class="cls-2" d="M420,614.65V630H400V580A39.99,39.99,0,0,0,420,614.65Z" transform="translate(-230 -290)"/><path class="cls-2" d="M440,540a40.019,40.019,0,0,1-38.74-29.99v-.02A40.019,40.019,0,0,1,440,480a19.994,19.994,0,0,0-20,20v20A19.994,19.994,0,0,0,440,540Z" transform="translate(-230 -290)"/><path class="cls-2" d="M478.74,509.99v.02A40.019,40.019,0,0,1,440,540a19.994,19.994,0,0,0,20-20V500a19.994,19.994,0,0,0-20-20,40.019,40.019,0,0,1,38.74,29.99Z" transform="translate(-230 -290)"/><path class="cls-3" d="M480,520a40,40,0,1,1-78.74-9.99,40.374,40.374,0,0,0,4.09,9.99c.43.74.87,1.46,1.35,2.17.25.38.52.76.78,1.14.49.68,1,1.34,1.54,1.99.57.7,1.17,1.38,1.79,2.04.3.32.6.63.91.94s.62.61.94.91.64.59.96.87.66.57,1,.85.68.55,1.02.81.7.53,1.05.78.72.51,1.08.75.73.48,1.1.71.72.44,1.09.66a.076.076,0,0,1,.04.02c.65.38,1.32.74,2,1.08.29.15.58.29.88.43.56.27,1.13.53,1.7.76.79.33,1.6.64,2.41.92.35.13.7.24,1.06.35.32.1.65.2.98.29.98.29,1.98.53,2.99.73q.645.135,1.29.24A40.044,40.044,0,0,0,474.65,520a40.374,40.374,0,0,0,4.09-9.99A40.1,40.1,0,0,1,480,520Z" transform="translate(-230 -290)"/><path class="cls-3" d="M480,500a40.1,40.1,0,0,1-1.26,9.99,40.017,40.017,0,0,0-77.48,0A40,40,0,1,1,480,500Z" transform="translate(-230 -290)"/><path class="cls-2" d="M480,500v20a40.1,40.1,0,0,0-1.26-9.99v-.02A40.1,40.1,0,0,0,480,500Z" transform="translate(-230 -290)"/><path class="cls-2" d="M401.26,509.99v.02A40.1,40.1,0,0,0,400,520V500A40.1,40.1,0,0,0,401.26,509.99Z" transform="translate(-230 -290)"/><path class="cls-3" d="M480,580a39.99,39.99,0,0,1-20,34.65V580a19.994,19.994,0,0,0-20-20,39.845,39.845,0,0,0,26.44-10A39.845,39.845,0,0,1,480,580Z" transform="translate(-230 -290)"/><path class="cls-3" d="M466.44,550A39.845,39.845,0,0,1,440,560a19.994,19.994,0,0,0-20,20v34.65A39.99,39.99,0,0,1,400,580V520a39.845,39.845,0,0,0,13.56,30,39.954,39.954,0,0,1,52.88,0Z" transform="translate(-230 -290)"/><path class="cls-2" d="M480,580v50H460V614.65A39.99,39.99,0,0,0,480,580Z" transform="translate(-230 -290)"/><path class="cls-2" d="M570,540a40.019,40.019,0,0,1-38.74-29.99v-.02A40.019,40.019,0,0,1,570,480a19.994,19.994,0,0,0-20,20v20A19.994,19.994,0,0,0,570,540Z" transform="translate(-230 -290)"/><path class="cls-2" d="M608.74,509.99v.02A40.019,40.019,0,0,1,570,540a19.994,19.994,0,0,0,20-20V500a19.994,19.994,0,0,0-20-20,40.019,40.019,0,0,1,38.74,29.99Z" transform="translate(-230 -290)"/><path class="cls-3" d="M610,520a40,40,0,1,1-78.74-9.99,40.374,40.374,0,0,0,4.09,9.99c.43.74.87,1.46,1.35,2.17.25.38.52.76.78,1.14.49.68,1,1.34,1.54,1.99.57.7,1.17,1.38,1.79,2.04.3.32.6.63.91.94s.62.61.94.91c.16.15.32.29.48.44s.32.29.48.43c.33.29.66.57,1,.85s.68.55,1.02.81.7.53,1.05.78.72.51,1.08.75.73.48,1.1.71.72.44,1.09.66a.076.076,0,0,1,.04.02c.65.38,1.32.74,2,1.08.29.15.58.29.88.43.56.27,1.13.53,1.7.76.79.33,1.6.64,2.41.92.35.13.7.24,1.06.35.32.1.65.2.98.29.4.12.81.23,1.22.33.12.03.24.06.35.09.47.11.95.22,1.42.31q.645.135,1.29.24c.52.09,1.04.17,1.56.23a2.477,2.477,0,0,0,.27.03c.4.05.79.1,1.19.13.16.02.32.03.48.04.49.04.99.07,1.49.09.56.03,1.13.04,1.7.04a40.019,40.019,0,0,0,38.74-29.99A40.1,40.1,0,0,1,610,520Z" transform="translate(-230 -290)"/><path class="cls-3" d="M610,500a40.1,40.1,0,0,1-1.26,9.99,40.017,40.017,0,0,0-77.48,0A40,40,0,1,1,610,500Z" transform="translate(-230 -290)"/><path class="cls-2" d="M610,500v20a40.1,40.1,0,0,0-1.26-9.99v-.02A40.1,40.1,0,0,0,610,500Z" transform="translate(-230 -290)"/><path class="cls-2" d="M531.26,509.99v.02A40.1,40.1,0,0,0,530,520V500A40.1,40.1,0,0,0,531.26,509.99Z" transform="translate(-230 -290)"/><path class="cls-3" d="M550,554.65v60A39.99,39.99,0,0,1,530,580V520a40.2,40.2,0,0,0,20,34.65Z" transform="translate(-230 -290)"/><path class="cls-2" d="M550,614.65V630H530V580A39.99,39.99,0,0,0,550,614.65Z" transform="translate(-230 -290)"/></g><path class="cls-4" d="M290,290H270q-19.995,50-40,100h20q3.75-10,7.5-20h45q3.75,10,7.5,20h20Q310.005,340.005,290,290Zm-25,60q7.5-20,15-40,7.5,20.01,15,40Z" transform="translate(-230 -290)"/><path class="cls-4" d="M402.5,340q18.75,25,37.5,50H415q-12.5-16.665-25-33.33Q377.49,373.335,365,390H340q18.75-24.99,37.5-50-18.75-25-37.5-50h25q12.5,16.665,25,33.33,12.51-16.665,25-33.33h25Q421.25,314.99,402.5,340Z" transform="translate(-230 -290)"/><path class="cls-4" d="M550,290v50a50,50,0,0,1-100,0V290h20v50a30,30,0,0,0,60,0V290Z" transform="translate(-230 -290)"/><polygon class="cls-4" points="460 20 460 40 540 40 540 60 460 60 460 80 540 80 540 100 440 100 440 0 540 0 540 20 460 20"/><path class="cls-4" d="M630,350a30,30,0,0,0,0-60H560V390h20V350h19q18,20,36,40h25q-18-20.01-36-40Zm-50-40h50a10,10,0,0,1,0,20H580Z" transform="translate(-230 -290)"/></g></g></svg>