<svg xmlns="http://www.w3.org/2000/svg" viewBox="0 0 337.28 238.64"><defs><style>.cls-1{fill:#366ce1;}</style></defs><title>azure</title><g id="Complete"><g id="azure"><polygon class="cls-1" points="208.15 0 108.15 200 8.3 200 30.9 154.66 57.76 100.78 59.44 97.41 108.15 0 208.15 0"/><polygon class="cls-1" points="57.76 100.78 30.9 154.66 8.3 200 8.15 200 57.76 100.78"/><polygon class="cls-1" points="318.02 200 268.15 200 168.15 100 218.15 0 271.51 106.71 272.03 107.76 294.15 152.12 317 197.97 318.02 200"/><polygon class="cls-1" points="318.08 200 318.02 200 317 197.97 294.15 152.12 272.03 107.76 295.23 154.15 318.08 200"/><path class="cls-1" d="M629.13,538.64q-168.63-11-337.28-22l3.31-6.64H614.85l10.25,20.55Z" transform="translate(-291.85 -300)"/></g></g></svg>