<svg xmlns="http://www.w3.org/2000/svg" viewBox="0 0 85 110"><defs><style>.cls-1{fill:#366ce1;}.cls-2{fill:#fff;}.cls-3{fill:#121221;}</style></defs><title>bamboo HR</title><g id="Complete"><g id="bamboo_hr" data-name="bamboo hr"><circle class="cls-1" cx="57.5" cy="82.5" r="17.5"/><circle class="cls-2" cx="57.5" cy="82.5" r="17.5"/><path class="cls-3" d="M467.5,645a27.474,27.474,0,0,0-27.38,25c-.08.82-.12,1.66-.12,2.5A27.5,27.5,0,1,0,467.5,645Zm0,45A17.5,17.5,0,1,1,485,672.5,17.506,17.506,0,0,1,467.5,690Z" transform="translate(-410 -590)"/><path class="cls-1" d="M450,600v51.28A27.412,27.412,0,0,0,440.12,670H440V600Z" transform="translate(-410 -590)"/><path class="cls-1" d="M433.33,626.67a23.785,23.785,0,0,1,6.51,12.34A35.344,35.344,0,0,0,410,610a35.344,35.344,0,0,0,29.01,29.84A23.6,23.6,0,0,1,420,620,23.769,23.769,0,0,1,433.33,626.67Z" transform="translate(-410 -590)"/><path class="cls-1" d="M440,640c-.04-.26-.09-.6-.16-.99A23.6,23.6,0,0,0,420,620a23.6,23.6,0,0,0,19.01,19.84C439.4,639.91,439.74,639.96,440,640Z" transform="translate(-410 -590)"/><path class="cls-3" d="M440,640c-.04-.26-.09-.6-.16-.99A23.6,23.6,0,0,0,420,620a23.6,23.6,0,0,0,19.01,19.84C439.4,639.91,439.74,639.96,440,640Z" transform="translate(-410 -590)"/><path class="cls-1" d="M470,590a23.591,23.591,0,0,0-19.93,19.54A11.778,11.778,0,0,1,460,600a11.778,11.778,0,0,1-9.54,9.93A23.591,23.591,0,0,0,470,590Z" transform="translate(-410 -590)"/><path class="cls-1" d="M460,600a11.778,11.778,0,0,0-9.93,9.54c-.03.18-.05.34-.07.46.12-.02.28-.04.46-.07A11.778,11.778,0,0,0,460,600Z" transform="translate(-410 -590)"/><path class="cls-3" d="M460,600a11.778,11.778,0,0,0-9.93,9.54c-.03.18-.05.34-.07.46.12-.02.28-.04.46-.07A11.778,11.778,0,0,0,460,600Z" transform="translate(-410 -590)"/></g></g></svg>