<svg xmlns="http://www.w3.org/2000/svg" viewBox="0 0 1040 420"><defs><style>.cls-1{fill:#366ce1;}.cls-2{fill:#121221;}.cls-3{fill:#1c1e20;}</style></defs><title>bank accounting</title><g id="Слой_2" data-name="Слой 2"><g id="Work_space" data-name="Work space"><g id="bank_accounting" data-name="bank accounting"><path class="cls-1" d="M440,0V160H600V0ZM570,130H470V30H570Z"/><polygon class="cls-1" points="620 200 620 300 600 300 540 230.59 540 300 520 300 520 200 540 200 600 269.41 600 200 620 200"/><polygon class="cls-1" points="730 299.99 730 300 700.13 300 659.51 263.43 650 272 650 300 630 300 630 200 650 200 650 245.09 659.51 236.52 700.07 200 729.97 200 674.46 249.98 730 299.99"/><path class="cls-1" d="M410,230a30,30,0,0,0-30-30H310V300h70a29.991,29.991,0,0,0,22.35-50A29.862,29.862,0,0,0,410,230Zm-80-10h50a10,10,0,0,1,0,20H330Zm50,60H330V260h50a10,10,0,0,1,0,20Z"/><path class="cls-1" d="M470.77,201.95l-.78-1.95H450.01l-.78,1.94L410,300h21.55l11.2-28h34.5l11.2,28H510ZM450.75,252,460,228.87,469.25,252Z"/><polygon class="cls-2" points="800 340 800 400 820 400 820 420 760 420 760 400 780 400 780 340 760 340 760 320 820 320 820 340 800 340"/><polygon class="cls-2" points="930 320 930 420 910 420 850 350.59 850 420 830 420 830 320 850 320 910 389.41 910 320 930 320"/><polygon class="cls-2" points="640 320 640 420 620 420 560 350.59 560 420 540 420 540 320 560 320 620 389.41 620 320 640 320"/><path class="cls-2" d="M370,320a50,50,0,1,0,50,50A50.005,50.005,0,0,0,370,320Zm0,80a30,30,0,1,1,30-30A30,30,0,0,1,370,400Z"/><path class="cls-2" d="M288.28,380h20.71a50,50,0,1,1,0-20H288.28a30,30,0,1,0,0,20Z"/><path class="cls-2" d="M178.28,380h20.71a50,50,0,1,1,0-20H178.28a30,30,0,1,0,0,20Z"/><path class="cls-2" d="M60.77,321.95,59.99,320H40.01l-.78,1.94L0,420H21.55l11.2-28h34.5l11.2,28H100ZM40.75,372,50,348.87,59.25,372Z"/><path class="cls-2" d="M1040,360v10a49.16,49.16,0,0,1-1.01,10,50.013,50.013,0,1,1-13.64-45.35l-14.14,14.14a30,30,0,1,0,7.07,31.21H990V360Z"/><polygon class="cls-2" points="750 320 750 340 710 340 710 420 690 420 690 340 650 340 650 320 750 320"/><path class="cls-2" d="M530,320v50a50,50,0,0,1-100,0V320h20v50a30,30,0,0,0,60,0V320Z"/><path class="cls-3" d="M520,30a50,50,0,1,0,50,50A50.005,50.005,0,0,0,520,30Zm0,60a10,10,0,1,1,10-10A10,10,0,0,1,520,90Z"/></g></g></g></svg>