<svg xmlns="http://www.w3.org/2000/svg" viewBox="0 0 1320 210"><defs><style>.cls-1{fill:#121221;}.cls-2{fill:#366ce1;}</style></defs><title>barracuda networks</title><g id="Слой_2" data-name="Слой 2"><g id="Work_space" data-name="Work space"><g id="barracuda_networks" data-name="barracuda networks"><path class="cls-1" d="M1320,206.605H1085.36A522.832,522.832,0,0,1,1202.68,3.4c-2.62,12.241-13.994,71.669,22.68,130C1257.623,184.71,1306.346,202.211,1320,206.605Z"/><path class="cls-2" d="M1165.36,206.605H1000A347.593,347.593,0,0,1,1082.68,63.4c-1.569,8.7-9.443,57.181,22.68,100C1126.382,191.417,1153.728,202.612,1165.36,206.605Z"/><path class="cls-1" d="M808.99,0h-50V100h50a50,50,0,0,0,0-100Zm0,80h-30V20h30a30,30,0,0,1,0,60Z"/><path class="cls-1" d="M320,30A30,30,0,0,0,290,0H220V100h20V60h50a10,10,0,0,1,10,10v30h20V70a29.862,29.862,0,0,0-7.65-20A29.862,29.862,0,0,0,320,30ZM240,40V20h50a10,10,0,0,1,0,20Z"/><path class="cls-1" d="M430,30A30,30,0,0,0,400,0H330V100h20V60h50a10,10,0,0,1,10,10v30h20V70a29.862,29.862,0,0,0-7.65-20A29.862,29.862,0,0,0,430,30ZM350,40V20h50a10,10,0,0,1,0,20Z"/><path class="cls-1" d="M618.28,60h20.71a50,50,0,1,1,0-20H618.28a30,30,0,1,0,0,20Z"/><path class="cls-1" d="M100,30A30,30,0,0,0,70,0H0V100H70A29.991,29.991,0,0,0,92.35,50,29.862,29.862,0,0,0,100,30ZM20,20H70a10,10,0,0,1,0,20H20ZM70,80H20V60H70a10,10,0,0,1,0,20Z"/><path class="cls-1" d="M170.77,1.95,169.99,0H150.01l-.78,1.94L110,100h21.55l11.2-28h34.5l11.2,28H210ZM150.75,52,160,28.87,169.25,52Z"/><path class="cls-1" d="M500.77,1.95,499.99,0H480.01l-.78,1.94L440,100h21.55l11.2-28h34.5l11.2,28H540ZM480.75,52,490,28.87,499.25,52Z"/><path class="cls-1" d="M919.76,1.95,918.98,0H899l-.78,1.94L858.99,100h21.55l11.2-28h34.5l11.2,28h21.55ZM899.74,52l9.25-23.13L918.24,52Z"/><polygon class="cls-2" points="100 110 100 210 80 210 20 140.59 20 210 0 210 0 110 20 110 80 179.41 80 110 100 110"/><path class="cls-2" d="M790,140a10,10,0,0,0,10,10h40a30,30,0,0,1,0,60H770V190h70a10,10,0,0,0,0-20H800a30,30,0,0,1,0-60h70v20H800A10,10,0,0,0,790,140Z"/><polygon class="cls-2" points="130 130 130 150 210 150 210 170 130 170 130 190 210 190 210 210 110 210 110 110 210 110 210 130 130 130"/><path class="cls-2" d="M660,140a30,30,0,0,0-30-30H560V210h20V170h50a10,10,0,0,1,10,10v30h20V180a29.862,29.862,0,0,0-7.65-20A29.862,29.862,0,0,0,660,140Zm-80,10V130h50a10,10,0,0,1,0,20Z"/><path class="cls-2" d="M500,110a50,50,0,1,0,50,50A50.005,50.005,0,0,0,500,110Zm0,80a30,30,0,1,1,30-30A30,30,0,0,1,500,190Z"/><polygon class="cls-2" points="770 209.99 770 210 740.13 210 699.51 173.43 690 182 690 210 670 210 670 110 690 110 690 155.09 699.51 146.52 740.07 110 769.97 110 714.46 159.98 770 209.99"/><path class="cls-2" d="M429.26,110,414.8,167.86l-14.56-56.71-.3-1.15H385.03l-.03.11V110h-5.12l-.29,1.16-14.54,56.59L350.62,110H330v.02l24.61,98.41L355,210h19.86l.38-1.5,14.67-57.13,14.7,57.24.35,1.39h15.03l.01-.04V210h4.87l.37-1.46L449.88,110ZM410,160.99v.04l-.02-.04Zm0,47.53-.19.61.19-.64Z"/><polygon class="cls-2" points="410 161.03 409.98 160.99 410 160.99 410 161.03"/><polygon class="cls-2" points="410 208.52 409.81 209.13 410 208.49 410 208.52"/><polygon class="cls-2" points="410 208.52 409.81 209.13 410 208.49 410 208.52"/><polygon class="cls-2" points="320 110 320 130 280 130 280 210 260 210 260 130 220 130 220 110 320 110"/><path class="cls-1" d="M748.99,0V50a50,50,0,0,1-100,0V0h20V50a30,30,0,0,0,60,0V0Z"/></g></g></g></svg>