<svg xmlns="http://www.w3.org/2000/svg" viewBox="0 0 529.9 100"><defs><style>.cls-1{fill:#121221;}</style></defs><title>bayer</title><g id="Слой_2" data-name="Слой 2"><g id="Work_space" data-name="Work space"><g id="bayer"><polygon class="cls-1" points="329.9 20 329.9 40 409.9 40 409.9 60 329.9 60 329.9 80 409.9 80 409.9 100 309.9 100 309.9 0 409.9 0 409.9 20 329.9 20"/><path class="cls-1" d="M529.9,30a30,30,0,0,0-30-30h-70V100h20V60h50a10,10,0,0,1,10,10v30h20V70a29.862,29.862,0,0,0-7.65-20A29.862,29.862,0,0,0,529.9,30Zm-80,10V20h50a10,10,0,0,1,0,20Z"/><path class="cls-1" d="M100,30A30,30,0,0,0,70,0H0V100H70A29.991,29.991,0,0,0,92.35,50,29.862,29.862,0,0,0,100,30ZM20,20H70a10,10,0,0,1,0,20H20ZM70,80H20V60H70a10,10,0,0,1,0,20Z"/><path class="cls-1" d="M160.77,1.95,159.99,0H140.01l-.78,1.94L100,100h21.55l11.2-28h34.5l11.2,28H200ZM140.75,52,150,28.87,159.25,52Z"/><polygon class="cls-1" points="252.73 46.46 249.9 50 249.95 50 249.95 100 229.95 100 229.95 50 227.12 46.46 189.95 0 215.56 0 239.92 30.45 264.28 0 289.9 0 252.73 46.46"/></g></g></g></svg>