<svg xmlns="http://www.w3.org/2000/svg" viewBox="0 0 450 100"><defs><style>.cls-1{fill:#121221;}</style></defs><title>beam</title><g id="Слой_2" data-name="Слой 2"><g id="Work_space" data-name="Work space"><g id="beam"><polygon class="cls-1" points="120 10 120 45 210 45 210 55 120 55 120 90 210 90 210 100 110 100 110 0 210 0 210 10 120 10"/><path class="cls-1" d="M299.7,55l-4.51-10L275.48,1.27l.01-.01L275,.18h-.01L274.91,0h-9.84l-.08.18V.2l-.47,1.05h-.01L244.79,45l-4.51,10L220,100h10.97l20.28-45h37.48l20.28,45h10.97Zm-19.71-2.96-.02-.04h.02ZM255.76,45l14.23-31.58L284.23,45Z"/><path class="cls-1" d="M360,.07V.04l.01-.04h9.97l20.01,78.98Q400,39.489,410.01,0H420l.01.01q15,50,29.99,99.99H439.56L415.38,19.43l-20.24,79.9-.14.56-.03.11H385l-.17-.66L364.6,19.51,340.45,100H330.01Q345.006,50.035,360,.07Z"/><path class="cls-1" d="M88.31,50A27.493,27.493,0,0,0,80,1.05,26.911,26.911,0,0,0,72.5,0H0V100H72.5A26.911,26.911,0,0,0,80,98.95,27.483,27.483,0,0,0,88.31,50ZM10,10H72.5a17.5,17.5,0,0,1,0,35H10ZM72.5,90H10V55H72.5a17.5,17.5,0,0,1,0,35Z"/></g></g></g></svg>