<svg xmlns="http://www.w3.org/2000/svg" viewBox="0 0 1120 100"><defs><style>.cls-1{fill:#121221;}.cls-2{fill:#366ce1;}</style></defs><title>beddr sleep</title><g id="Слой_2" data-name="Слой 2"><g id="Work_space" data-name="Work space"><g id="beddr_sleep" data-name="beddr sleep"><polygon class="cls-1" points="120 10 120 45 210 45 210 55 120 55 120 90 210 90 210 100 110 100 110 0 210 0 210 10 120 10"/><polygon class="cls-2" points="810 10 810 45 900 45 900 55 810 55 810 90 900 90 900 100 800 100 800 0 900 0 900 10 810 10"/><polygon class="cls-2" points="920 10 920 45 1010 45 1010 55 920 55 920 90 1010 90 1010 100 910 100 910 0 1010 0 1010 10 920 10"/><path class="cls-1" d="M270,0H220V100h50A50,50,0,0,0,270,0Zm0,90H230V10h40a40,40,0,0,1,0,80Z"/><path class="cls-1" d="M380,0H330V100h50A50,50,0,0,0,380,0Zm0,90H340V10h40a40,40,0,0,1,0,80Z"/><path class="cls-1" d="M526.57,55A29.994,29.994,0,0,0,510,0H440V100h10V60h60a19.994,19.994,0,0,1,20,20v20h10V80A29.923,29.923,0,0,0,526.57,55ZM500,52.04l-.02-.04H500ZM510,50H450V10h60a20,20,0,0,1,0,40Z"/><path class="cls-2" d="M1090,0h-70V100h10V60h60a30,30,0,0,0,0-60Zm0,50h-60V10h60a20,20,0,0,1,0,40Z"/><polygon class="cls-2" points="790 90 790 100 690 100 690 0 700 0 700 90 790 90"/><path class="cls-2" d="M590,27.5A17.506,17.506,0,0,0,607.5,45h45A27.5,27.5,0,0,1,660,98.95a26.911,26.911,0,0,1-7.5,1.05H580V90h72.5a17.5,17.5,0,0,0,0-35h-45A27.5,27.5,0,0,1,600,1.05,26.911,26.911,0,0,1,607.5,0H680V10H607.5A17.506,17.506,0,0,0,590,27.5Z"/><path class="cls-1" d="M88.31,50A27.493,27.493,0,0,0,80,1.05,26.911,26.911,0,0,0,72.5,0H0V100H72.5A26.911,26.911,0,0,0,80,98.95,27.483,27.483,0,0,0,88.31,50ZM10,10H72.5a17.5,17.5,0,0,1,0,35H10ZM72.5,90H10V55H72.5a17.5,17.5,0,0,1,0,35Z"/></g></g></g></svg>