<svg xmlns="http://www.w3.org/2000/svg" viewBox="0 0 200 200"><defs><style>.cls-1{fill:#121221;}.cls-2{fill:#366ce1;}</style></defs><title>beeketing</title><g id="Complete"><g id="beeketing"><path class="cls-1" d="M550,450a50,50,0,0,0-100,0H400c6.67,66.67,13.33,83.33,20,150H580c6.67-66.67,13.33-83.33,20-150Zm-50-40a40,40,0,0,1,40,40H460A40,40,0,0,1,500,410Z" transform="translate(-400 -400)"/><polygon class="cls-2" points="170 80 118.7 190 80.14 190 30.14 140 58.42 140 90 171.57 90 110 110 110 110 161.34 147.93 80 170 80"/></g></g></svg>