<svg xmlns="http://www.w3.org/2000/svg" viewBox="0 0 335.508 130"><defs><style>.cls-1{fill:#121221;}</style></defs><title>belly</title><g id="Слой_2" data-name="Слой 2"><g id="Work_space" data-name="Work space"><g id="belly"><path class="cls-1" d="M100,30A30,30,0,0,0,70,0H0V100H70A29.991,29.991,0,0,0,92.35,50,29.862,29.862,0,0,0,100,30ZM20,20H70a10,10,0,0,1,0,20H20ZM70,80H20V60H70a10,10,0,0,1,0,20Z"/><path class="cls-1" d="M231.793,95.65A35.712,35.712,0,0,1,179,64.286V0h14.286V64.286a21.434,21.434,0,0,0,27.65,20.507Q226.367,90.225,231.793,95.65Z"/><path class="cls-1" d="M271.857,95.65a35.712,35.712,0,0,1-52.793-31.364V0H233.35V64.286A21.434,21.434,0,0,0,261,84.793Z"/><path class="cls-1" d="M174.707,71.429a35.7,35.7,0,0,0,0-14.286,35.714,35.714,0,0,0-69.986,0,35.744,35.744,0,0,0,0,14.286,35.7,35.7,0,0,0,59.05,19.242q-5.688-4.553-11.385-9.107a21.424,21.424,0,0,1-32.872-10.135ZM139.714,42.857a21.412,21.412,0,0,1,20.2,14.286h-40.4A21.414,21.414,0,0,1,139.714,42.857Z"/><path class="cls-1" d="M335.508,28.889v65a36.106,36.106,0,0,1-61.642,25.53q5.1-5.1,10.212-10.212a21.663,21.663,0,0,0,36.985-15.318v-.007a36.126,36.126,0,0,1-38.082,3.293A36.409,36.409,0,0,1,266.3,79.444,35.967,35.967,0,0,1,263.286,65V28.889H277.73V65.007a21.667,21.667,0,0,0,43.333,0V28.889Z"/></g></g></g></svg>