<svg xmlns="http://www.w3.org/2000/svg" viewBox="0 0 630 220"><defs><style>.cls-1{fill:#121221;}.cls-2{fill:#366ce1;}</style></defs><title>beyond meat</title><g id="Слой_2" data-name="Слой 2"><g id="Work_space" data-name="Work space"><g id="beyond_meat" data-name="beyond meat"><polygon class="cls-1" points="320 120 320 220 300 220 300 150.59 283.2 170.05 269.99 185.36 256.78 170.05 240 150.62 240 220 220 220 220 120 240 120 240 120.01 269.99 154.75 299.98 120 320 120"/><polygon class="cls-1" points="350 140 350 160 430 160 430 180 350 180 350 200 430 200 430 220 330 220 330 120 430 120 430 140 350 140"/><path class="cls-1" d="M500.77,121.95l-.78-1.95H480.01l-.78,1.94L440,220h21.55l11.2-28h34.5l11.2,28H540ZM480.75,172,490,148.87,499.25,172Z"/><polygon class="cls-1" points="630 120 630 140 590 140 590 220 570 220 570 140 530 140 530 120 630 120"/><polygon class="cls-2" points="520 0 520 100 500 100 440 30.59 440 100 420 100 420 0 440 0 500 69.41 500 0 520 0"/><path class="cls-2" d="M580,0H530V100h50A50,50,0,0,0,580,0Zm0,80H550V20h30a30,30,0,0,1,0,60Z"/><polygon class="cls-2" points="130 20 130 40 210 40 210 60 130 60 130 80 210 80 210 100 110 100 110 0 210 0 210 20 130 20"/><path class="cls-2" d="M360,0a50,50,0,1,0,50,50A50.005,50.005,0,0,0,360,0Zm0,80a30,30,0,1,1,30-30A30,30,0,0,1,360,80Z"/><path class="cls-2" d="M100,30A30,30,0,0,0,70,0H0V100H70A29.991,29.991,0,0,0,92.35,50,29.862,29.862,0,0,0,100,30ZM20,20H70a10,10,0,0,1,0,20H20ZM70,80H20V60H70a10,10,0,0,1,0,20Z"/><polygon class="cls-2" points="282.78 46.46 279.95 50 280 50 280 100 260 100 260 50 257.17 46.46 220 0 245.61 0 269.97 30.45 294.33 0 319.95 0 282.78 46.46"/></g></g></g></svg>