<svg xmlns="http://www.w3.org/2000/svg" viewBox="0 0 568 115.141"><defs><style>.cls-1{fill:#121221;}.cls-2{fill:#366ce1;}</style></defs><title>bill.com</title><g id="Слой_2" data-name="Слой 2"><g id="Work_space" data-name="Work space"><g id="bill.com"><polygon class="cls-1" points="150 20 150 80 170 80 170 100 110 100 110 80 130 80 130 20 110 20 110 0 170 0 170 20 150 20"/><polygon class="cls-2" points="568 60 568 100 560 100 560 72.236 553.28 80.02 547.996 86.144 542.712 80.02 536 72.248 536 100 528 100 528 60 536 60 536 60.004 547.996 73.9 559.992 60 568 60"/><polygon class="cls-1" points="280 80 280 100 180 100 180 0 200 0 200 80 280 80"/><polygon class="cls-1" points="390 80 390 100 290 100 290 0 310 0 310 80 390 80"/><path class="cls-2" d="M504,60a20,20,0,1,0,20,20A20,20,0,0,0,504,60Zm0,32a12,12,0,1,1,12-12A12,12,0,0,1,504,92Z"/><path class="cls-2" d="M471.312,84H479.6a20,20,0,1,1,0-8h-8.284a12,12,0,1,0,0,8Z"/><path class="cls-1" d="M100,30A30,30,0,0,0,70,0H0V100H70A29.991,29.991,0,0,0,92.35,50,29.862,29.862,0,0,0,100,30ZM20,20H70a10,10,0,0,1,0,20H20ZM70,80H20V60H70a10,10,0,0,1,0,20Z"/><path class="cls-1" d="M414.715,104.113l1.4,11.028,6.718-.38q-.38-5.514-.76-11.029Z"/><path class="cls-2" d="M407.617,106.944l6.972-21.423,15.338,21.169Z"/></g></g></g></svg>