<svg xmlns="http://www.w3.org/2000/svg" viewBox="0 0 1130 100"><defs><style>.cls-1{fill:#366ce1;}.cls-2{fill:#121221;}</style></defs><title>billiontoone</title><g id="Слой_2" data-name="Слой 2"><g id="Work_space" data-name="Work space"><g id="billiontoone"><polygon class="cls-1" points="150 20 150 80 170 80 170 100 110 100 110 80 130 80 130 20 110 20 110 0 170 0 170 20 150 20"/><polygon class="cls-1" points="440 20 440 80 460 80 460 100 400 100 400 80 420 80 420 20 400 20 400 0 460 0 460 20 440 20"/><polygon class="cls-1" points="680 0 680 100 660 100 600 30.59 600 100 580 100 580 0 600 0 660 69.41 660 0 680 0"/><polygon class="cls-1" points="1020 0 1020 100 1000 100 940 30.59 940 100 920 100 920 0 940 0 1000 69.41 1000 0 1020 0"/><polygon class="cls-1" points="1050 20 1050 40 1130 40 1130 60 1050 60 1050 80 1130 80 1130 100 1030 100 1030 0 1130 0 1130 20 1050 20"/><polygon class="cls-1" points="280 80 280 100 180 100 180 0 200 0 200 80 280 80"/><polygon class="cls-1" points="390 80 390 100 290 100 290 0 310 0 310 80 390 80"/><path class="cls-1" d="M860,0a50,50,0,1,0,50,50A50.005,50.005,0,0,0,860,0Zm0,80a30,30,0,1,1,30-30A30,30,0,0,1,860,80Z"/><path class="cls-1" d="M520,0a50,50,0,1,0,50,50A50.005,50.005,0,0,0,520,0Zm0,80a30,30,0,1,1,30-30A30,30,0,0,1,520,80Z"/><path class="cls-1" d="M100,30A30,30,0,0,0,70,0H0V100H70A29.991,29.991,0,0,0,92.35,50,29.862,29.862,0,0,0,100,30ZM20,20H70a10,10,0,0,1,0,20H20ZM70,80H20V60H70a10,10,0,0,1,0,20Z"/><path class="cls-2" d="M775,20a25,25,0,1,0,25,25A25,25,0,0,0,775,20Zm0,45a20,20,0,1,1,20-20A20,20,0,0,1,775,65Z"/><polygon class="cls-2" points="745 20 745 25 722.5 25 722.5 70 717.5 70 717.5 25 695 25 695 20 745 20"/></g></g></g></svg>