<svg xmlns="http://www.w3.org/2000/svg" viewBox="0 0 870 220"><defs><style>.cls-1{fill:#121221;}.cls-2,.cls-3{fill:#366ce1;}.cls-2{opacity:0.62;}.cls-3{opacity:0.38;}</style></defs><title>billing</title><g id="Слой_2" data-name="Слой 2"><g id="Work_space" data-name="Work space"><g id="billing"><polygon class="cls-1" points="150 80 150 140 170 140 170 160 110 160 110 140 130 140 130 80 110 80 110 60 170 60 170 80 150 80"/><polygon class="cls-1" points="440 80 440 140 460 140 460 160 400 160 400 140 420 140 420 80 400 80 400 60 460 60 460 80 440 80"/><polygon class="cls-1" points="570 60 570 160 550 160 490 90.59 490 160 470 160 470 60 490 60 550 129.41 550 60 570 60"/><polygon class="cls-1" points="280 140 280 160 180 160 180 60 200 60 200 140 280 140"/><polygon class="cls-1" points="390 140 390 160 290 160 290 60 310 60 310 140 390 140"/><path class="cls-1" d="M100,90A30,30,0,0,0,70,60H0V160H70a29.991,29.991,0,0,0,22.35-50A29.862,29.862,0,0,0,100,90ZM20,80H70a10,10,0,0,1,0,20H20Zm50,60H20V120H70a10,10,0,0,1,0,20Z"/><path class="cls-1" d="M680,100v10a49.16,49.16,0,0,1-1.01,10,50.013,50.013,0,1,1-13.64-45.35L651.21,88.79A30,30,0,1,0,658.28,120H630V100Z"/><rect class="cls-1" x="690" width="140" height="200"/><rect class="cls-2" x="710" y="10" width="140" height="200"/><rect class="cls-3" x="730" y="20" width="140" height="200"/></g></g></g></svg>