<svg xmlns="http://www.w3.org/2000/svg" viewBox="0 0 562.51 216.8"><defs><style>.cls-1{fill:#366ce1;}.cls-2{fill:#121221;}</style></defs><title>bit go</title><g id="Слой_2" data-name="Слой 2"><g id="Work_space" data-name="Work space"><g id="bit_go" data-name="bit go"><path class="cls-1" d="M386.845,101.259a50,50,0,1,0,50,50A50.005,50.005,0,0,0,386.845,101.259Zm0,80a30,30,0,1,1,30-30A30,30,0,0,1,386.845,181.259Z"/><path class="cls-2" d="M100,131.259a30,30,0,0,0-30-30H0v100H70a29.991,29.991,0,0,0,22.35-50A29.862,29.862,0,0,0,100,131.259Zm-80-10H70a10,10,0,1,1,0,20H20Zm50,60H20v-20H70a10,10,0,0,1,0,20Z"/><path class="cls-1" d="M326.845,141.259v10a49.16,49.16,0,0,1-1.01,10,50.013,50.013,0,1,1-13.64-45.35l-14.14,14.14a30,30,0,1,0,7.07,31.21h-28.28v-20Z"/><rect class="cls-2" x="110" y="129.83" width="14.286" height="71.429"/><rect class="cls-2" x="110" y="108.402" width="14.286" height="14.286"/><path class="cls-2" d="M202.857,165.544a35.714,35.714,0,1,1-71.428,0V101.259h14.285V136.98a35.519,35.519,0,0,1,21.429-7.15v14.286a21.429,21.429,0,1,0,21.428,21.428Z"/><polygon class="cls-1" points="559.72 84.19 529.07 84.19 529.07 216.8 516.22 216.8 516.22 84.19 505.74 84.19 505.74 101.82 492.9 101.82 492.9 84.19 462.5 84.19 511.11 0 559.72 84.19"/><rect class="cls-1" x="492.9" y="101.82" width="12.84" height="114.18"/><path class="cls-2" d="M562.51,131.82a30,30,0,0,0-30-30h-3.44v20h3.44a10,10,0,0,1,0,20h-3.44v20h3.44a10,10,0,0,1,0,20h-3.44v20h3.44a29.991,29.991,0,0,0,22.35-50A29.862,29.862,0,0,0,562.51,131.82Zm-100-30v100h53.71v-20H482.51v-20h33.71v-20H482.51v-20h33.71v-20Z"/></g></g></g></svg>