<svg id="Complete" xmlns="http://www.w3.org/2000/svg" viewBox="0 0 980 300"><defs><style>.cls-1{fill:#366ce1;}.cls-2{fill:#121221;}</style></defs><title>bitbuket</title><g id="bitbuket"><path class="cls-1" d="M10,350Q35.005,500,60,650H260q25-150,50-300ZM220,590H100L70,410H250Z" transform="translate(-10 -350)"/><path class="cls-2" d="M70,410l30,180H220l30-180ZM193.33,550H126.67L110,450H210Z" transform="translate(-10 -350)"/><path class="cls-1" d="M440,481.72V430a30,30,0,0,0-30-30H340V600h90a30,30,0,0,0,30-30V510A29.979,29.979,0,0,0,440,481.72ZM360,420h45a15.005,15.005,0,0,1,15,15v30a15.005,15.005,0,0,1-15,15H360Zm80,148a12,12,0,0,1-12,12H360V500h68a12,12,0,0,1,12,12Z" transform="translate(-10 -350)"/><rect class="cls-1" x="460" y="150" width="20" height="100"/><rect class="cls-1" x="460" y="120" width="20" height="20"/><path class="cls-1" d="M560,580v20H540a30,30,0,0,1-30-30V490H500V470h10V400h20v70h20v20H530v75a15.005,15.005,0,0,0,15,15Z" transform="translate(-10 -350)"/><path class="cls-2" d="M990,580v20H970a30,30,0,0,1-30-30V490H930V470h10V400h20v70h20v20H960v75a15.005,15.005,0,0,0,15,15Z" transform="translate(-10 -350)"/><path class="cls-2" d="M620,500H590V400H570V600h50a30,30,0,0,0,30-30V530A30,30,0,0,0,620,500Zm10,65a15.005,15.005,0,0,1-15,15H590V520h25a15.005,15.005,0,0,1,15,15Z" transform="translate(-10 -350)"/><path class="cls-2" d="M740,500v70a30,30,0,0,1-30,30H690a30,30,0,0,1-30-30V500h20v65a15.005,15.005,0,0,0,15,15h10a15.005,15.005,0,0,0,15-15V500Z" transform="translate(-10 -350)"/><polygon class="cls-2" points="820 164.14 786.57 197.57 820 231 820 250 810.72 250 772.43 211.71 760 224.14 760 250 740 250 740 50 760 50 760 195.86 805.86 150 820 150 820 164.14"/><path class="cls-2" d="M840,530v40a30,30,0,0,0,30,30h50V580H875a15,15,0,0,1-15-15v-5h60V530a30,30,0,0,0-30-30H870A30,30,0,0,0,840,530Zm60,10H860v-5a15,15,0,0,1,15-15h10a15,15,0,0,1,15,15Z" transform="translate(-10 -350)"/></g></svg>