<svg xmlns="http://www.w3.org/2000/svg" viewBox="0 0 600 190"><defs><style>.cls-1{fill:#121221;}.cls-2{fill:#366ce1;}</style></defs><title>bitglass</title><g id="Слой_2" data-name="Слой 2"><g id="Work_space" data-name="Work space"><g id="bitglass"><path class="cls-1" d="M419.712,50a50.007,50.007,0,0,0-49.663,52.236c1.076,24.664,22.842,46.526,47.5,47.7A49.771,49.771,0,0,0,450,139.99V140a10,10,0,0,0,10,10h0a10,10,0,0,0,10-10V100.82C470,72.96,447.571,49.844,419.712,50ZM420,130a30,30,0,1,1,30-30A30,30,0,0,1,420,130Z"/><rect class="cls-1" x="110" y="49.451" width="20" height="100" rx="10"/><circle class="cls-1" cx="120" cy="29.451" r="10"/><path class="cls-1" d="M240,29.451a10,10,0,0,1-10,10,30,30,0,0,0-30,30V140a10,10,0,0,1-20,0V69.451a30,30,0,0,0-30-30,10,10,0,0,1,0-20c.17,0,.34,0,.51.01a49.651,49.651,0,0,1,29.49,10V10a10,10,0,0,1,20,0v19.46a49.651,49.651,0,0,1,29.49-10c.17-.01.34-.01.51-.01A10,10,0,0,1,240,29.451Z"/><path class="cls-1" d="M581,100a49.16,49.16,0,0,1-1.01,10,50,50,0,0,1-74.607,32.941,9.889,9.889,0,0,1-1.856-15.468l.141-.141a10.008,10.008,0,0,1,12.19-1.432A30,30,0,0,0,559.28,110H491a9.954,9.954,0,0,1-10-9.834V100a49.16,49.16,0,0,1,1.01-10,50,50,0,0,1,74.607-32.941,9.889,9.889,0,0,1,1.856,15.468l-.141.141a10.008,10.008,0,0,1-12.19,1.432A30,30,0,0,0,502.72,90H571a9.954,9.954,0,0,1,10,9.834Z"/><path class="cls-2" d="M500,99.451a49.16,49.16,0,0,1,1.01-10A50,50,0,0,1,575.617,56.51a9.889,9.889,0,0,1,1.856,15.468l-.141.141a10.008,10.008,0,0,1-12.19,1.432,30,30,0,0,0-43.422,15.9H590a9.954,9.954,0,0,1,10,9.833v.167a49.16,49.16,0,0,1-1.01,10,50,50,0,0,1-74.607,32.941,9.889,9.889,0,0,1-1.856-15.468l.141-.142a10.011,10.011,0,0,1,12.19-1.432,30,30,0,0,0,43.422-15.9H510a9.955,9.955,0,0,1-10-9.834Z"/><path class="cls-1" d="M310,60.01a.55.55,0,0,0-.09-.07c-.49-.36-.98-.72-1.48-1.06-.01-.02-.02-.03-.04-.03-.48-.33-.96-.66-1.45-.97q-.15-.1-.33-.21c-.45-.28-.91-.56-1.37-.83-.66-.4-1.35-.78-2.04-1.13-.51-.27-1.01-.53-1.53-.78-.02-.01-.05-.02-.07-.03-.59-.28-1.19-.56-1.79-.82h-.01c-.61-.26-1.22-.51-1.83-.74-.01-.02-.02-.02-.04-.02-.61-.24-1.23-.46-1.85-.67a49.014,49.014,0,0,0-6.86-1.8c-.23-.04-.47-.09-.7-.12-.3-.06-.6-.11-.91-.15-.289-.049-.583-.089-.875-.129-.478-.065-.957-.119-1.437-.168s-.975-.107-1.448-.133c-.43-.04-.85-.06-1.28-.08s-.85-.04-1.28-.05S280.43,50,280,50a50.005,50.005,0,0,0-50,50c0,.89.02,1.77.07,2.65.04.83.11,1.65.19,2.46.02.24.05.47.08.71s.05.49.09.74q.06.525.15,1.05c.04.27.08.55.13.82.23,1.38.52,2.73.87,4.06.06.27.14.54.21.8s.15.54.23.79c.12.4.24.81.37,1.21.26.83.54,1.65.86,2.45.14.37.28.74.43,1.1.16.39.32.78.49,1.16.19.44.39.88.59,1.31a47.3,47.3,0,0,0,3.12,5.63c.21.33.42.65.63.97.02.03.04.05.05.07.22.32.44.64.67.96q.69.99,1.44,1.92c.219.283.453.565.683.848.759.932,1.547,1.84,2.382,2.7.3.316.61.633.915.938.28.28.56.56.85.83,0,.01.01.01.02.02q.42.405.87.81c.39.36.8.72,1.21,1.06.3.26.6.51.91.76.85.7,1.73,1.37,2.64,2,.39.27.77.54,1.17.8s.79.52,1.19.77c.34.22.68.43,1.03.63.853.52,1.776,1,2.639,1.455q1.341.7,2.728,1.3c.4.175.8.349,1.213.514.35.15.7.29,1.06.42a47.589,47.589,0,0,0,5.94,1.85c.37.1.75.18,1.13.26.54.13,1.08.24,1.63.34.36.06.72.13,1.08.18.37.07.74.12,1.12.17.31.05.61.08.92.12s.59.07.89.1c.42.04.84.08,1.26.11,1.27.1,2.56.15,3.85.15.43,0,.86-.01,1.29-.02s.86-.02,1.28-.05.85-.04,1.28-.08c.472-.026.961-.084,1.445-.133s.958-.1,1.435-.168c.294-.04.589-.079.88-.129.31-.04.61-.09.91-.15.23-.03.47-.08.7-.12a49.014,49.014,0,0,0,6.86-1.8c.62-.21,1.24-.43,1.85-.67.02,0,.03,0,.04-.02.61-.23,1.22-.48,1.83-.74h.01c.6-.26,1.2-.54,1.79-.82.02-.01.05-.02.07-.03.52-.25,1.02-.51,1.53-.78.69-.35,1.38-.73,2.04-1.13.46-.27.92-.55,1.37-.83q.18-.105.33-.21c.49-.31.97-.64,1.45-.97.02,0,.03-.01.04-.03.5-.34.99-.7,1.48-1.06a.55.55,0,0,0,.09-.07V140a30,30,0,0,1-45.142,25.9,10.008,10.008,0,0,0-12.189,1.431l-.142.142a9.927,9.927,0,0,0,2.022,15.567A49.741,49.741,0,0,0,279.667,190C307.351,190.18,330,166.8,330,139.112V100A49.891,49.891,0,0,0,310,60.01Zm-.04,41.53c-.02.48-.06.95-.1,1.42-.02.21-.05.42-.08.63-.03.32-.07.63-.12.94a.355.355,0,0,1-.02.1c-.07.48-.15.94-.25,1.41-.1.49-.21.97-.34,1.45-.11.46-.24.91-.38,1.36a.492.492,0,0,1-.06.17c-.1.36-.22.71-.35,1.05-.05.16-.11.32-.17.48-.11.3-.23.6-.36.88a2.388,2.388,0,0,1-.15.37q-.195.48-.42.93a2.71,2.71,0,0,1-.2.42c-.09.19-.18.39-.29.58-.13.27-.28.54-.42.8-.19.35-.39.7-.6,1.03-.18.29-.36.58-.56.86a2.312,2.312,0,0,1-.27.42c-.5.74-1.03,1.45-1.6,2.14-.25.31-.51.62-.79.92a.234.234,0,0,1-.1.12c-.33.38-.68.74-1.04,1.1s-.73.73-1.11,1.07l-.01.01c-.38.35-.77.68-1.16,1s-.81.65-1.22.95c-.36.27-.72.53-1.1.77q-.465.315-.93.6a1.892,1.892,0,0,1-.28.17q-.345.225-.72.42c-.22.14-.45.26-.68.38-.25.14-.5.26-.75.39a4.45,4.45,0,0,1-.54.25c-.35.18-.7.34-1.06.49a.142.142,0,0,0-.06.02c-.44.19-.9.37-1.36.54-.01,0-.02.01-.04.02q-.66.24-1.35.45a25.927,25.927,0,0,1-2.79.72,1.18,1.18,0,0,1-.2.04c-.42.09-.85.17-1.29.23l-.19.03c-.36.06-.72.1-1.08.14a.249.249,0,0,1-.08.01c-.18.02-.37.04-.55.05-.4.04-.79.07-1.2.09-.51.03-1.02.04-1.54.04s-1.03-.01-1.54-.04c-.41-.02-.8-.05-1.2-.09-.18-.01-.37-.03-.55-.05a.249.249,0,0,1-.08-.01c-.36-.04-.72-.08-1.08-.14l-.19-.03c-.44-.06-.87-.14-1.29-.23a1.18,1.18,0,0,1-.2-.04,25.927,25.927,0,0,1-2.79-.72q-.69-.21-1.35-.45c-.02-.01-.03-.02-.04-.02-.46-.17-.92-.35-1.36-.54a.142.142,0,0,0-.06-.02c-.36-.15-.71-.31-1.06-.49a5.125,5.125,0,0,1-.53-.25c-.26-.12-.51-.25-.76-.39-.23-.12-.46-.24-.68-.38q-.375-.195-.72-.42a1.892,1.892,0,0,1-.28-.17q-.465-.285-.93-.6c-.38-.24-.74-.5-1.1-.77-.41-.3-.82-.62-1.22-.95s-.78-.65-1.16-1l-.01-.01c-.38-.34-.76-.7-1.11-1.07s-.71-.72-1.04-1.1a.234.234,0,0,1-.1-.12c-.28-.3-.54-.61-.79-.92-.57-.69-1.1-1.4-1.6-2.14a2.312,2.312,0,0,1-.27-.42c-.2-.28-.38-.57-.56-.86-.21-.33-.41-.68-.6-1.03-.14-.26-.29-.53-.42-.8-.11-.19-.2-.39-.29-.58a2.71,2.71,0,0,1-.2-.42q-.225-.45-.42-.93a2.388,2.388,0,0,1-.15-.37c-.13-.28-.25-.58-.36-.88-.06-.16-.12-.32-.17-.48-.13-.34-.25-.69-.35-1.05a.492.492,0,0,1-.06-.17c-.14-.45-.27-.9-.38-1.36-.13-.48-.24-.96-.34-1.45-.1-.47-.18-.93-.25-1.41a.355.355,0,0,1-.02-.1c-.05-.31-.09-.62-.12-.94-.03-.21-.06-.42-.08-.63-.04-.47-.08-.94-.1-1.42-.03-.51-.04-1.02-.04-1.53V100a30,30,0,0,1,60,0v.01C310,100.52,309.99,101.03,309.96,101.54Z"/><rect class="cls-1" x="340" width="20" height="150" rx="10"/><path class="cls-1" d="M50,50A49.726,49.726,0,0,0,20,60.01V20A10,10,0,0,0,0,20v80A50,50,0,1,0,50,50Zm0,80a30,30,0,1,1,30-30A30,30,0,0,1,50,130Z"/></g></g></g></svg>