<svg xmlns="http://www.w3.org/2000/svg" viewBox="0 0 879.891 178.23"><defs><style>.cls-1{fill:#366ce1;}.cls-2,.cls-3,.cls-4,.cls-5,.cls-6,.cls-7{fill:#121221;}.cls-2{opacity:0.6;}.cls-3{opacity:0.3;}.cls-4{opacity:0.5;}.cls-5{opacity:0.8;}.cls-6{opacity:0.9;}.cls-7{opacity:0.4;}</style></defs><title>bitpesa</title><g id="Слой_2" data-name="Слой 2"><g id="Work_space" data-name="Work space"><g id="bitpesa"><path class="cls-1" d="M829.891,144.08c.95,0,1.89-.04,2.82-.13v20.04q-1.4.09-2.82.09Z"/><path class="cls-1" d="M879.891,114.08a50,50,0,0,1-40.34,49.06V142.48a29.987,29.987,0,0,0,20.34-28.4,29.681,29.681,0,0,0-2.13-11.1,50.107,50.107,0,0,0,14.65-15.2A49.722,49.722,0,0,1,879.891,114.08Z"/><path class="cls-1" d="M799.481,21.79a49.768,49.768,0,0,1,21.06-9.45V32.96a29.993,29.993,0,0,0-20.65,28.51,29.681,29.681,0,0,0,2.13,11.1c-.87.58-1.72,1.19-2.54,1.83a49.9,49.9,0,0,0-12.11,13.38,50.008,50.008,0,0,1,12.11-65.99Z"/><path class="cls-1" d="M829.891,11.47q1.425,0,2.82.09V31.6c-.93-.09-1.87-.13-2.82-.13-.85,0-1.68.04-2.51.11V11.53C828.211,11.49,829.051,11.47,829.891,11.47Z"/><path class="cls-1" d="M879.891,61.47a49.731,49.731,0,0,1-7.48,26.31,50.027,50.027,0,0,0-14.65-15.21,29.681,29.681,0,0,0,2.13-11.1,29.987,29.987,0,0,0-20.34-28.4V12.41A50,50,0,0,1,879.891,61.47Z"/><path class="cls-1" d="M802.021,102.98a29.681,29.681,0,0,0-2.13,11.1,29.993,29.993,0,0,0,20.65,28.51v20.62a.17.17,0,0,0-.07-.01c-.51-.1-1.03-.21-1.54-.33-.29-.06-.57-.12-.86-.19-.7-.18-1.4-.36-2.08-.56-.4-.11-.8-.23-1.19-.36-.58-.18-1.15-.37-1.71-.58s-1.13-.41-1.68-.63c-.45-.17-.88-.36-1.32-.55-.17-.07-.34-.15-.51-.23-.52-.22-1.03-.46-1.54-.71s-.99-.49-1.47-.75q-.5-.255-.99-.54a1.821,1.821,0,0,1-.27-.15q-.54-.3-1.08-.63-1.395-.825-2.73-1.77c-.2-.13-.39-.27-.59-.41a1.526,1.526,0,0,1-.16-.11c-.43-.3-.85-.62-1.27-.94a49.983,49.983,0,0,1,0-79.36c.82-.64,1.67-1.25,2.54-1.83a49.588,49.588,0,0,1,18.52-7.61V85.57a29.454,29.454,0,0,0-5.08,2.21A29.992,29.992,0,0,0,802.021,102.98Z"/><path class="cls-1" d="M829.891,144.08v20c-.21,0-.42,0-.63-.01s-.42,0-.63-.01c-.42-.01-.83-.02-1.25-.04V143.97C828.211,144.04,829.041,144.08,829.891,144.08Z"/><path class="cls-1" d="M832.711,64.17V84.21c-.93-.08-1.87-.13-2.82-.13-.85,0-1.69.04-2.51.11V64.15c.83-.05,1.67-.07,2.51-.07Q831.316,64.08,832.711,64.17Z"/><path class="cls-1" d="M872.411,87.78a50.107,50.107,0,0,1-14.65,15.2,29.992,29.992,0,0,0-13.44-15.2,29.5,29.5,0,0,0-4.77-2.1V65.02a49.523,49.523,0,0,1,18.21,7.55A50.027,50.027,0,0,1,872.411,87.78Z"/><path class="cls-1" d="M829.891,11.47c-.84,0-1.68.02-2.51.06a51.316,51.316,0,0,0-6.84.81,50.014,50.014,0,0,0-33.17,75.44,49.967,49.967,0,0,0,2.53,56.3h-10.01v20h-.41V11.47Z"/><path class="cls-1" d="M820.471,163.2a.17.17,0,0,1,.07.01v.87h-40.65v-20H789.9a49.633,49.633,0,0,0,9.58,9.68c.42.32.84.64,1.27.94a1.526,1.526,0,0,0,.16.11,6.987,6.987,0,0,0,.59.41q1.335.945,2.73,1.77.54.33,1.08.63a1.821,1.821,0,0,0,.27.15q.495.285.99.54.72.39,1.47.75c.51.25,1.02.49,1.54.71.17.08.34.16.51.23.44.19.87.38,1.32.55.55.22,1.11.44,1.68.63.56.21,1.13.4,1.71.58.39.13.79.25,1.19.36.68.2,1.38.38,2.08.56.29.07.57.13.86.19C819.441,162.99,819.961,163.1,820.471,163.2Z"/><path class="cls-1" d="M829.891,164.08h-2.51v-.06c.42.02.83.03,1.25.04.21.01.42.01.63.01S829.681,164.08,829.891,164.08Z"/><path class="cls-2" d="M829.891,144.08c.95,0,1.89-.04,2.82-.13v20.04q-1.4.09-2.82.09Z"/><path class="cls-2" d="M879.891,114.08a50,50,0,0,1-40.34,49.06V142.48a29.987,29.987,0,0,0,20.34-28.4,29.681,29.681,0,0,0-2.13-11.1,50.107,50.107,0,0,0,14.65-15.2A49.722,49.722,0,0,1,879.891,114.08Z"/><path class="cls-3" d="M799.481,21.79a49.768,49.768,0,0,1,21.06-9.45V32.96a29.993,29.993,0,0,0-20.65,28.51,29.681,29.681,0,0,0,2.13,11.1c-.87.58-1.72,1.19-2.54,1.83a49.9,49.9,0,0,0-12.11,13.38,50.008,50.008,0,0,1,12.11-65.99Z"/><path class="cls-3" d="M829.891,11.47q1.425,0,2.82.09V31.6c-.93-.09-1.87-.13-2.82-.13-.85,0-1.68.04-2.51.11V11.53C828.211,11.49,829.051,11.47,829.891,11.47Z"/><path class="cls-3" d="M879.891,61.47a49.731,49.731,0,0,1-7.48,26.31,50.027,50.027,0,0,0-14.65-15.21,29.681,29.681,0,0,0,2.13-11.1,29.987,29.987,0,0,0-20.34-28.4V12.41A50,50,0,0,1,879.891,61.47Z"/><path class="cls-4" d="M802.021,102.98a29.681,29.681,0,0,0-2.13,11.1,29.993,29.993,0,0,0,20.65,28.51v20.62a.17.17,0,0,0-.07-.01c-.51-.1-1.03-.21-1.54-.33-.29-.06-.57-.12-.86-.19-.7-.18-1.4-.36-2.08-.56-.4-.11-.8-.23-1.19-.36-.58-.18-1.15-.37-1.71-.58s-1.13-.41-1.68-.63c-.45-.17-.88-.36-1.32-.55-.17-.07-.34-.15-.51-.23-.52-.22-1.03-.46-1.54-.71s-.99-.49-1.47-.75q-.5-.255-.99-.54a1.821,1.821,0,0,1-.27-.15q-.54-.3-1.08-.63-1.395-.825-2.73-1.77c-.2-.13-.39-.27-.59-.41a1.526,1.526,0,0,1-.16-.11c-.43-.3-.85-.62-1.27-.94a49.983,49.983,0,0,1,0-79.36c.82-.64,1.67-1.25,2.54-1.83a49.588,49.588,0,0,1,18.52-7.61V85.57a29.454,29.454,0,0,0-5.08,2.21A29.992,29.992,0,0,0,802.021,102.98Z"/><path class="cls-4" d="M829.891,144.08v20c-.21,0-.42,0-.63-.01s-.42,0-.63-.01c-.42-.01-.83-.02-1.25-.04V143.97C828.211,144.04,829.041,144.08,829.891,144.08Z"/><path class="cls-4" d="M832.711,64.17V84.21c-.93-.08-1.87-.13-2.82-.13-.85,0-1.69.04-2.51.11V64.15c.83-.05,1.67-.07,2.51-.07Q831.316,64.08,832.711,64.17Z"/><path class="cls-4" d="M872.411,87.78a50.107,50.107,0,0,1-14.65,15.2,29.992,29.992,0,0,0-13.44-15.2,29.5,29.5,0,0,0-4.77-2.1V65.02a49.523,49.523,0,0,1,18.21,7.55A50.027,50.027,0,0,1,872.411,87.78Z"/><path class="cls-5" d="M829.891,11.47c-.84,0-1.68.02-2.51.06a51.316,51.316,0,0,0-6.84.81,50.014,50.014,0,0,0-33.17,75.44,49.967,49.967,0,0,0,2.53,56.3h-10.01v20h-.41V11.47Z"/><path class="cls-6" d="M820.471,163.2a.17.17,0,0,1,.07.01v.87h-40.65v-20H789.9a49.633,49.633,0,0,0,9.58,9.68c.42.32.84.64,1.27.94a1.526,1.526,0,0,0,.16.11,6.987,6.987,0,0,0,.59.41q1.335.945,2.73,1.77.54.33,1.08.63a1.821,1.821,0,0,0,.27.15q.495.285.99.54.72.39,1.47.75c.51.25,1.02.49,1.54.71.17.08.34.16.51.23.44.19.87.38,1.32.55.55.22,1.11.44,1.68.63.56.21,1.13.4,1.71.58.39.13.79.25,1.19.36.68.2,1.38.38,2.08.56.29.07.57.13.86.19C819.441,162.99,819.961,163.1,820.471,163.2Z"/><path class="cls-6" d="M829.891,164.08h-2.51v-.06c.42.02.83.03,1.25.04.21.01.42.01.63.01S829.681,164.08,829.891,164.08Z"/><path class="cls-7" d="M839.551,0V12.41a48.064,48.064,0,0,0-6.84-.85V0Z"/><path class="cls-7" d="M832.711,31.6a29.337,29.337,0,0,1,6.84,1.47V65.02a48.064,48.064,0,0,0-6.84-.85Z"/><path class="cls-7" d="M839.551,85.68v56.8a29.337,29.337,0,0,1-6.84,1.47V84.21A29.119,29.119,0,0,1,839.551,85.68Z"/><path class="cls-7" d="M832.711,163.99a48.064,48.064,0,0,0,6.84-.85v15.09h-6.84Z"/><path class="cls-7" d="M827.381,0V11.53a51.316,51.316,0,0,0-6.84.81V0Z"/><path class="cls-7" d="M820.541,32.96a29.235,29.235,0,0,1,6.84-1.38V64.15a48.048,48.048,0,0,0-6.84.81Z"/><path class="cls-7" d="M827.381,84.19v59.78a29.235,29.235,0,0,1-6.84-1.38V85.57A29.235,29.235,0,0,1,827.381,84.19Z"/><rect class="cls-7" x="820.541" y="164.08" width="6.84" height="14.15"/><polygon class="cls-1" points="150 59.115 150 119.115 170 119.115 170 139.115 110 139.115 110 119.115 130 119.115 130 59.115 110 59.115 110 39.115 170 39.115 170 59.115 150 59.115"/><path class="cls-1" d="M570,69.115a10,10,0,0,0,10,10h40a30,30,0,0,1,0,60H550v-20h70a10,10,0,0,0,0-20H580a30,30,0,0,1,0-60h70v20H580A10,10,0,0,0,570,69.115Z"/><polygon class="cls-1" points="460 59.115 460 79.115 540 79.115 540 99.115 460 99.115 460 119.115 540 119.115 540 139.115 440 139.115 440 39.115 540 39.115 540 59.115 460 59.115"/><path class="cls-1" d="M100,69.115a30,30,0,0,0-30-30H0v100H70a29.991,29.991,0,0,0,22.35-50A29.862,29.862,0,0,0,100,69.115Zm-80-10H70a10,10,0,1,1,0,20H20Zm50,60H20v-20H70a10,10,0,0,1,0,20Z"/><path class="cls-1" d="M720.77,41.065l-.78-1.95H700.01l-.78,1.94L660,139.115h21.55l11.2-28h34.5l11.2,28H760Zm-20.02,50.05L710,67.985l9.25,23.13Z"/><path class="cls-1" d="M400,39.115H330v100h20v-40h50a30,30,0,1,0,0-60Zm0,40H350v-20h50a10,10,0,1,1,0,20Z"/><polygon class="cls-1" points="280 39.115 280 59.115 240 59.115 240 139.115 220 139.115 220 59.115 180 59.115 180 39.115 280 39.115"/></g></g></g></svg>