<svg id="Main" xmlns="http://www.w3.org/2000/svg" viewBox="0 0 640 639.12"><defs><style>.cls-1{fill:#1c1e20;}.cls-2{fill:#366ce1;}</style></defs><title>blender</title><g id="Blender"><path class="cls-1" d="M680,520H562.71L680.36,300.58a40,40,0,0,0-70.5-37.8L554.42,366.17,416.61,158.75a40,40,0,0,0-66.64,44.26l64.92,97.72A150.018,150.018,0,0,0,430,600H680a40,40,0,0,0,0-80ZM468.75,508.29a70,70,0,1,1,19.57-97.04A70,70,0,0,1,468.75,508.29Z" transform="translate(-180 -140.88)"/><circle class="cls-2" cx="299.997" cy="309.107" r="50"/><path class="cls-2" d="M225,680a59.342,59.342,0,0,0-25,5.45V610H180V780h20v-5.45A59.342,59.342,0,0,0,225,780c30.38,0,55-22.39,55-50S255.38,680,225,680Zm-10,80a65.267,65.267,0,0,1-15-1.71V701.71A65.267,65.267,0,0,1,215,700c24.85,0,45,13.43,45,30S239.85,760,215,760Z" transform="translate(-180 -140.88)"/><path class="cls-2" d="M510,730c0,27.61,24.62,50,55,50a59.342,59.342,0,0,0,25-5.45V780h20V610H590v75.45A59.342,59.342,0,0,0,565,680C534.62,680,510,702.39,510,730Zm20,0c0-16.57,20.15-30,45-30a65.267,65.267,0,0,1,15,1.71v56.58A65.267,65.267,0,0,1,575,760C550.15,760,530,746.57,530,730Z" transform="translate(-180 -140.88)"/><path class="cls-2" d="M820,681.93v19.49A139.08,139.08,0,0,0,800,700c-23.89,0-45.34,5.89-60,15.24V780H720V680h20v10.15c15.53-6.39,34.5-10.15,55-10.15A160.158,160.158,0,0,1,820,681.93Z" transform="translate(-180 -140.88)"/><rect class="cls-2" x="100" y="469.12" width="20" height="170"/><path class="cls-2" d="M408.89,740a45.6,45.6,0,0,0,0-20c-5.09-22.82-27.28-40-53.89-40-30.38,0-55,22.39-55,50s24.62,50,55,50c22.55,0,41.93-12.34,50.42-30H381.09a39.034,39.034,0,0,1-52.18,0,29.636,29.636,0,0,1-6.92-10ZM355,700c15.24,0,28.2,8.34,33.01,20H321.99C326.8,708.34,339.76,700,355,700Z" transform="translate(-180 -140.88)"/><path class="cls-2" d="M718.89,740a45.6,45.6,0,0,0,0-20c-5.09-22.82-27.28-40-53.89-40-30.38,0-55,22.39-55,50s24.62,50,55,50c22.55,0,41.93-12.34,50.42-30H691.09a39.034,39.034,0,0,1-52.18,0,29.636,29.636,0,0,1-6.92-10ZM665,700c15.24,0,28.2,8.34,33.01,20H631.99C636.8,708.34,649.76,700,665,700Z" transform="translate(-180 -140.88)"/><path class="cls-2" d="M490,735v10c0-24.85-13.43-45-30-45s-30,20.15-30,45V735c0-24.85,13.43-45,30-45S490,710.15,490,735Z" transform="translate(-180 -140.88)"/><path class="cls-2" d="M510,735v45H490V735c0-24.85-13.43-45-30-45s-30,20.15-30,45v45H410V680h20v11.01A46.893,46.893,0,0,1,460,680c26.08,0,47.5,21.96,49.79,50C509.93,731.64,510,733.31,510,735Z" transform="translate(-180 -140.88)"/></g></svg>