<svg xmlns="http://www.w3.org/2000/svg" viewBox="0 0 690 140"><defs><style>.cls-1{fill:#366ce1;}.cls-2{fill:#121221;}</style></defs><title>bloomz</title><g id="Слой_2" data-name="Слой 2"><g id="Work_space" data-name="Work space"><g id="bloomz"><polygon class="cls-1" points="590 20 690 20 690 40 620.59 100 690 100 690 120 590 120 590 100 659.41 40 590 40 590 20"/><polygon class="cls-1" points="580 20 580 120 560 120 560 50.59 543.2 70.05 529.99 85.36 516.78 70.05 500 50.62 500 120 480 120 480 20 500 20 500 20.01 529.99 54.75 559.98 20 580 20"/><polygon class="cls-1" points="250 100 250 120 150 120 150 20 170 20 170 100 250 100"/><path class="cls-1" d="M420,20a50,50,0,1,0,50,50A50.005,50.005,0,0,0,420,20Zm0,80a30,30,0,1,1,30-30A30,30,0,0,1,420,100Z"/><path class="cls-1" d="M310,20a50,50,0,1,0,50,50A50.005,50.005,0,0,0,310,20Zm0,80a30,30,0,1,1,30-30A30,30,0,0,1,310,100Z"/><path class="cls-2" d="M100,90a10,10,0,0,1-10,10H40V80H90A10,10,0,0,1,100,90Z"/><path class="cls-2" d="M100,50A10,10,0,0,1,90,60H40V40H90A10,10,0,0,1,100,50Z"/><path class="cls-2" d="M30.97,0A30.975,30.975,0,0,0,0,30.97v78.06A30.975,30.975,0,0,0,30.97,140h78.06A30.975,30.975,0,0,0,140,109.03V0ZM120,90a30,30,0,0,1-30,30H20V20H90a29.991,29.991,0,0,1,22.35,50A29.862,29.862,0,0,1,120,90Z"/></g></g></g></svg>