<svg xmlns="http://www.w3.org/2000/svg" xmlns:xlink="http://www.w3.org/1999/xlink" viewBox="0 0 825 140"><defs><style>.cls-1{fill:url(#Безымянный_градиент_14);}.cls-2{fill:url(#Безымянный_градиент_14-2);}.cls-3{fill:url(#Безымянный_градиент_14-3);}.cls-4{fill:url(#Безымянный_градиент_14-4);}.cls-5{fill:url(#Безымянный_градиент_14-5);}.cls-6{fill:url(#Безымянный_градиент_14-6);}.cls-7{fill:url(#Безымянный_градиент_14-7);}.cls-8{fill:url(#Безымянный_градиент_14-8);}</style><linearGradient id="Безымянный_градиент_14" x1="145.304" y1="69.104" x2="149.867" y2="158.85" gradientUnits="userSpaceOnUse"><stop offset="0" stop-color="#366ce1"/><stop offset="1" stop-color="#121221"/></linearGradient><linearGradient id="Безымянный_градиент_14-2" x1="678.365" y1="41.999" x2="682.928" y2="131.746" xlink:href="#Безымянный_градиент_14"/><linearGradient id="Безымянный_градиент_14-3" x1="463.98" y1="52.9" x2="468.543" y2="142.647" xlink:href="#Безымянный_градиент_14"/><linearGradient id="Безымянный_градиент_14-4" x1="49.186" y1="73.991" x2="53.749" y2="163.738" xlink:href="#Безымянный_градиент_14"/><linearGradient id="Безымянный_градиент_14-5" x1="582.806" y1="46.858" x2="587.37" y2="136.604" xlink:href="#Безымянный_градиент_14"/><linearGradient id="Безымянный_градиент_14-6" x1="762.018" y1="37.746" x2="766.581" y2="127.492" xlink:href="#Безымянный_градиент_14"/><linearGradient id="Безымянный_градиент_14-7" x1="318.49" y1="60.298" x2="323.053" y2="150.044" xlink:href="#Безымянный_градиент_14"/><linearGradient id="Безымянный_градиент_14-8" x1="210.009" y1="65.814" x2="214.572" y2="155.56" xlink:href="#Безымянный_градиент_14"/></defs><title>blue wolf</title><g id="Слой_2" data-name="Слой 2"><g id="Work_space" data-name="Work space"><g id="blue_wolf" data-name="blue wolf"><path class="cls-1" d="M185,133.3c-.36.21-.72.42-1.09.61a.922.922,0,0,1-.08.05l-1.26.66q-.645.33-1.29.63c-1.33.63-2.69,1.2-4.09,1.71q-.51.195-1.02.36a1.555,1.555,0,0,1-.23.08c-.28.1-.57.19-.86.28a45.99,45.99,0,0,1-5.01,1.3c-.3.07-.61.13-.92.18-.27.05-.54.1-.82.14a43,43,0,0,1-4.56.55c-.37.04-.75.06-1.12.07-.88.06-1.76.08-2.65.08a50.005,50.005,0,0,1-50-50V0h20V90a30,30,0,0,0,30,30c.49,0,.98-.01,1.47-.04a1.087,1.087,0,0,0,.18-.01c.34-.01.68-.04,1.01-.07.23-.02.47-.04.7-.07.41-.04.81-.09,1.21-.16.46-.07.92-.15,1.37-.24.07-.01.14-.03.2-.04.45-.1.9-.2,1.35-.32.41-.1.82-.22,1.22-.34l1.33,1.33A50.275,50.275,0,0,0,185,133.3Z"/><path class="cls-2" d="M718.91,133.91a.922.922,0,0,1-.08.05l-1.26.66q-.645.33-1.29.63c-1.33.63-2.69,1.2-4.09,1.71q-.51.195-1.02.36a1.555,1.555,0,0,1-.23.08c-.28.1-.57.19-.86.28a45.99,45.99,0,0,1-5.01,1.3c-.3.07-.61.13-.92.18-.27.05-.54.1-.82.14a43,43,0,0,1-4.56.55c-.37.04-.75.06-1.12.07-.88.06-1.76.08-2.65.08a50.005,50.005,0,0,1-50-50V0h20V90a30,30,0,0,0,30,30c.49,0,.98-.01,1.47-.04a1.087,1.087,0,0,0,.18-.01c.34-.01.68-.04,1.01-.07.23-.02.47-.04.7-.07.41-.04.81-.09,1.21-.16.46-.07.92-.15,1.37-.24.07-.01.14-.03.2-.04.45-.1.9-.2,1.35-.32.41-.1.82-.22,1.22-.34Z"/><path class="cls-3" d="M405,105V40h20v65a15,15,0,0,0,30,0h0V40h20v65h0a15,15,0,0,0,30,0V40h20v65a35.779,35.779,0,0,1-.35,5A35.011,35.011,0,0,1,465,129.5,35.011,35.011,0,0,1,405.35,110,35.779,35.779,0,0,1,405,105Z"/><path class="cls-4" d="M50,40A49.726,49.726,0,0,0,20,50.01V0H0V90A50,50,0,1,0,50,40Zm0,80A30,30,0,1,1,80,90,30,30,0,0,1,50,120Z"/><path class="cls-5" d="M585,40a50,50,0,1,0,50,50A50.005,50.005,0,0,0,585,40Zm0,80a30,30,0,1,1,30-30A30,30,0,0,1,585,120Z"/><path class="cls-6" d="M825,50H805a30,30,0,1,0-30,30v20a49.726,49.726,0,0,1-30-10.01V90a49.891,49.891,0,0,1-20,39.99,48.568,48.568,0,0,1-6.09,3.92l-15.2-15.2A30,30,0,0,0,725,90V50a50,50,0,0,1,100,0Z"/><path class="cls-7" d="M368.99,100a50.01,50.01,0,0,0,0-20,50,50,0,0,0-97.98,0,50.01,50.01,0,0,0,0,20,49.987,49.987,0,0,0,82.67,26.94q-7.965-6.375-15.94-12.75A29.992,29.992,0,0,1,291.72,100ZM320,60a29.979,29.979,0,0,1,28.28,20H291.72A29.979,29.979,0,0,1,320,60Z"/><path class="cls-8" d="M260,40V90a50,50,0,0,1-89.96,30.04c-.36-.47-.7-.94-1.03-1.42A49.722,49.722,0,0,1,160,90V40h20V90a30,30,0,0,0,60,0V40Z"/></g></g></g></svg>