<svg xmlns="http://www.w3.org/2000/svg" viewBox="0 0 1021.385 230"><defs><style>.cls-1{fill:#366ce1;}.cls-2{fill:#121221;}</style></defs><title>blue vine</title><g id="Слой_2" data-name="Слой 2"><g id="Work_space" data-name="Work space"><g id="blue_vine" data-name="blue vine"><path class="cls-1" d="M100,95A30,30,0,0,0,70,65H0V165H70a29.991,29.991,0,0,0,22.35-50A29.862,29.862,0,0,0,100,95ZM20,85H70a10,10,0,0,1,0,20H20Zm50,60H20V125H70a10,10,0,0,1,0,20Z"/><path class="cls-1" d="M162.793,160.65A35.712,35.712,0,0,1,110,129.286V65h14.286v64.286a21.434,21.434,0,0,0,27.65,20.507Q157.367,155.224,162.793,160.65Z"/><rect class="cls-2" x="445.769" y="95.769" width="13.846" height="69.231"/><rect class="cls-2" x="445.769" y="75" width="13.846" height="13.846"/><path class="cls-2" d="M612.378,137.308a34.633,34.633,0,0,0,0-13.846,34.616,34.616,0,0,0-67.833,0,34.633,34.633,0,0,0,0,13.846,34.606,34.606,0,0,0,57.233,18.65q-5.514-4.413-11.035-8.826a20.764,20.764,0,0,1-31.86-9.824Zm-33.916-27.693a20.754,20.754,0,0,1,19.578,13.847H558.883A20.754,20.754,0,0,1,578.462,109.615Z"/><path class="cls-1" d="M302.355,136.429a35.7,35.7,0,0,0,0-14.286,35.714,35.714,0,0,0-69.985,0,35.7,35.7,0,0,0,0,14.286,35.7,35.7,0,0,0,59.05,19.242q-5.69-4.553-11.386-9.107a21.423,21.423,0,0,1-32.871-10.135Zm-34.992-28.572a21.414,21.414,0,0,1,20.2,14.286h-40.4A21.412,21.412,0,0,1,267.363,107.857Z"/><path class="cls-2" d="M538.077,130.385V165H524.231V130.385a20.77,20.77,0,1,0-41.539,0V165H468.846V95.769h13.846v6.93a34.609,34.609,0,0,1,55.385,27.686Z"/><path class="cls-1" d="M153.077,129.286V93.571h14.286v35.715a21.429,21.429,0,0,0,42.857,0V93.571h14.285V165H210.22v-7.15a35.707,35.707,0,0,1-57.143-28.564Z"/><polygon class="cls-2" points="445.769 65 406.549 163.07 405.779 165 385.779 165 385.009 163.07 345.789 65 367.329 65 395.779 136.14 424.239 65 445.769 65"/><path class="cls-2" d="M985.087,186.07a149.906,149.906,0,0,1-144.9,38.835,149.9,149.9,0,0,1,38.835-144.9c12.6-12.6,24.246-19.69,36.558-26.9C935.243,41.58,961.922,26.647,995.091,10c28.2,52.932,33.523,106.953,16.9,139.51C1001.917,169.24,985.087,186.07,985.087,186.07Z"/><path class="cls-2" d="M801.161,80.005A149.9,149.9,0,0,1,840,224.905,149.906,149.906,0,0,1,695.1,186.07s-16.543-16.543-26.9-36.56C651.376,117.023,655.162,58.883,685.091,0,719.2,25.635,745.83,42.3,764.6,53.1,773.094,57.987,786.678,65.521,801.161,80.005Z"/><path class="cls-1" d="M990.091,60a150,150,0,0,1-300,0c0-1.67.03-3.34.09-5A149.993,149.993,0,0,0,990,55C990.061,56.66,990.091,58.33,990.091,60Z"/></g></g></g></svg>