<svg xmlns="http://www.w3.org/2000/svg" viewBox="0 0 530 100"><defs><style>.cls-1{fill:#121221;}</style></defs><title>blume</title><g id="Слой_2" data-name="Слой 2"><g id="Work_space" data-name="Work space"><g id="blume"><polygon class="cls-1" points="420 0 420 100 400 100 400 30.59 383.2 50.05 369.99 65.36 356.78 50.05 340 30.62 340 100 320 100 320 0 340 0 340 0.01 369.99 34.75 399.98 0 420 0"/><polygon class="cls-1" points="450 20 450 40 530 40 530 60 450 60 450 80 530 80 530 100 430 100 430 0 530 0 530 20 450 20"/><polygon class="cls-1" points="210 80 210 100 110 100 110 0 130 0 130 80 210 80"/><path class="cls-1" d="M100,30A30,30,0,0,0,70,0H0V100H70A29.991,29.991,0,0,0,92.35,50,29.862,29.862,0,0,0,100,30ZM20,20H70a10,10,0,0,1,0,20H20ZM70,80H20V60H70a10,10,0,0,1,0,20Z"/><path class="cls-1" d="M310,0V50a50,50,0,0,1-100,0V0h20V50a30,30,0,0,0,60,0V0Z"/></g></g></g></svg>