<svg xmlns="http://www.w3.org/2000/svg" viewBox="0 0 410 220"><title>blvd</title><rect width="410" height="10"/><rect y="200" width="410" height="20"/><rect x="110" y="20" width="20" height="160"/><polygon points="265 180 245 180 210 20 230 20 265 180"/><polygon points="265 180 245 180 280 20 300 20 265 180"/><path d="M60,20v.28A43.461,43.461,0,0,0,55,20Z"/><path d="M60,179.72V180H55A43.461,43.461,0,0,0,60,179.72Z"/><path d="M83.28,100A45,45,0,0,0,60,20.28,43.461,43.461,0,0,0,55,20H10V180H55a43.461,43.461,0,0,0,5-.28A45,45,0,0,0,83.28,100ZM55,160H30V110H50v-.28a43.461,43.461,0,0,0,5,.28,25,25,0,0,1,0,50Zm0-70a43.461,43.461,0,0,0-5,.28V90H30V40H55a25,25,0,0,1,0,50Z"/><path d="M380,27.58a44.69,44.69,0,0,0-20-7.3,43.461,43.461,0,0,0-5-.28H310V180h45a43.461,43.461,0,0,0,5-.28A44.987,44.987,0,0,0,400,135V65A44.952,44.952,0,0,0,380,27.58ZM380,135a25,25,0,0,1-25,25H330V40h25a25,25,0,0,1,25,25Z"/><rect x="110" y="160" width="90" height="20"/></svg>