<svg xmlns="http://www.w3.org/2000/svg" viewBox="0 0 1341.451 283.21"><defs><style>.cls-1{fill:#121221;}.cls-2,.cls-3,.cls-4{fill:#366ce1;}.cls-3{opacity:0.62;}.cls-4{opacity:0.38;}</style></defs><title>board portal</title><g id="Слой_2" data-name="Слой 2"><g id="Work_space" data-name="Work space"><g id="board_portal" data-name="board portal"><path class="cls-1" d="M100,140a49.9,49.9,0,0,1-21.47,41.05L89.1,143.21H10.9l10.57,37.84a49.985,49.985,0,0,1,1.1-82.85L10.9,140H89.1L77.43,98.2A49.935,49.935,0,0,1,100,140Z"/><path class="cls-2" d="M80,140H20a30,30,0,0,1,60,0Z"/><path class="cls-1" d="M89.1,140H80a30,30,0,0,0-60,0H10.9L22.57,98.2,50,0,77.43,98.2Z"/><path class="cls-1" d="M89.1,143.21,78.53,181.05,50,283.21,21.47,181.05,10.9,143.21h9.27a30,30,0,0,0,59.66,0Z"/><path class="cls-3" d="M89.1,140H80a30,30,0,0,0-60,0H10.9L22.57,98.2,50,0,77.43,98.2Z"/><path class="cls-4" d="M89.1,143.21,78.53,181.05,50,283.21,21.47,181.05,10.9,143.21h9.27a30,30,0,0,0,59.66,0Z"/><path class="cls-2" d="M79.83,143.21a30,30,0,0,1-59.66,0Z"/><path class="cls-1" d="M623.451,91.605h-50v100h50a50,50,0,0,0,0-100Zm0,80h-30v-60h30a30,30,0,1,1,0,60Z"/><polygon class="cls-2" points="1341.451 171.605 1341.451 191.605 1241.451 191.605 1241.451 91.605 1261.451 91.605 1261.451 171.605 1341.451 171.605"/><path class="cls-2" d="M1041.451,121.605a30,30,0,0,0-30-30h-70v100h20v-40h50a10,10,0,0,1,10,10v30h20v-30a29.862,29.862,0,0,0-7.65-20A29.862,29.862,0,0,0,1041.451,121.605Zm-80,10v-20h50a10,10,0,1,1,0,20Z"/><path class="cls-1" d="M563.451,121.605a30,30,0,0,0-30-30h-70v100h20v-40h50a10,10,0,0,1,10,10v30h20v-30a29.862,29.862,0,0,0-7.65-20A29.862,29.862,0,0,0,563.451,121.605Zm-80,10v-20h50a10,10,0,1,1,0,20Z"/><path class="cls-1" d="M251.451,121.605a30,30,0,0,0-30-30h-70v100h70a29.991,29.991,0,0,0,22.35-50A29.862,29.862,0,0,0,251.451,121.605Zm-80-10h50a10,10,0,1,1,0,20h-50Zm50,60h-50v-20h50a10,10,0,0,1,0,20Z"/><path class="cls-2" d="M881.451,91.605a50,50,0,1,0,50,50A50.005,50.005,0,0,0,881.451,91.605Zm0,80a30,30,0,1,1,30-30A30,30,0,0,1,881.451,171.605Z"/><path class="cls-1" d="M311.451,91.605a50,50,0,1,0,50,50A50.005,50.005,0,0,0,311.451,91.605Zm0,80a30,30,0,1,1,30-30A30,30,0,0,1,311.451,171.605Z"/><path class="cls-2" d="M1192.221,93.555l-.78-1.95h-19.98l-.78,1.94-39.23,98.06H1153l11.2-28h34.5l11.2,28h21.55ZM1172.2,143.6l9.25-23.13,9.25,23.13Z"/><path class="cls-1" d="M414.221,93.555l-.78-1.95h-19.98l-.78,1.94-39.23,98.06H375l11.2-28h34.5l11.2,28h21.55ZM394.2,143.6l9.25-23.13,9.25,23.13Z"/><path class="cls-2" d="M791.451,91.605h-70v100h20v-40h50a30,30,0,1,0,0-60Zm0,40h-50v-20h50a10,10,0,1,1,0,20Z"/><polygon class="cls-2" points="1151.451 91.605 1151.451 111.605 1111.451 111.605 1111.451 191.605 1091.451 191.605 1091.451 111.605 1051.451 111.605 1051.451 91.605 1151.451 91.605"/></g></g></g></svg>