<svg xmlns="http://www.w3.org/2000/svg" viewBox="0 0 1072.901 200"><defs><style>.cls-1{fill:#366ce1;}.cls-2{fill:#121221;}</style></defs><title>boardable</title><g id="Слой_2" data-name="Слой 2"><g id="Work_space" data-name="Work space"><g id="boardable"><path class="cls-1" d="M537.9,50h-50V150h50a50,50,0,0,0,0-100Zm0,80h-30V70h30a30,30,0,0,1,0,60Z"/><polygon class="cls-1" points="937.901 70 937.901 90 1017.901 90 1017.901 110 937.901 110 937.901 130 1017.901 130 1017.901 150 917.901 150 917.901 50 1017.901 50 1017.901 70 937.901 70"/><polygon class="cls-1" points="907.901 130 907.901 150 807.901 150 807.901 50 827.901 50 827.901 130 907.901 130"/><path class="cls-1" d="M477.9,80a30,30,0,0,0-30-30h-70V150h20V110h50a10,10,0,0,1,10,10v30h20V120a29.862,29.862,0,0,0-7.65-20A29.862,29.862,0,0,0,477.9,80Zm-80,10V70h50a10,10,0,1,1,0,20Z"/><path class="cls-1" d="M217.9,50a50,50,0,1,0,50,50A50.005,50.005,0,0,0,217.9,50Zm0,80a30,30,0,1,1,30-30A30,30,0,0,1,217.9,130Z"/><path class="cls-1" d="M797.9,80a30,30,0,0,0-30-30h-70V150h70a29.991,29.991,0,0,0,22.35-50A29.862,29.862,0,0,0,797.9,80Zm-80-10h50a10,10,0,0,1,0,20h-50Zm50,60h-50V110h50a10,10,0,0,1,0,20Z"/><path class="cls-1" d="M157.9,80a30,30,0,0,0-30-30h-70V150h70a29.991,29.991,0,0,0,22.35-50A29.862,29.862,0,0,0,157.9,80Zm-80-10h50a10,10,0,1,1,0,20h-50Zm50,60h-50V110h50a10,10,0,1,1,0,20Z"/><path class="cls-1" d="M328.671,51.95l-.78-1.95h-19.98l-.78,1.94L267.9,150h21.55l11.2-28h34.5l11.2,28H367.9ZM308.651,102l9.25-23.13,9.25,23.13Z"/><path class="cls-1" d="M648.671,51.95l-.78-1.95h-19.98l-.78,1.94L587.9,150h21.55l11.2-28h34.5l11.2,28H687.9ZM628.651,102l9.25-23.13,9.25,23.13Z"/><polygon class="cls-2" points="30 30 30 170 110 170 110 200 0 200 0 0 110 0 110 30 30 30"/><polygon class="cls-2" points="1042.901 30 1042.901 170 962.901 170 962.901 200 1072.901 200 1072.901 0 962.901 0 962.901 30 1042.901 30"/></g></g></g></svg>