<svg xmlns="http://www.w3.org/2000/svg" viewBox="0 0 678.888 160"><defs><style>.cls-1{fill:#366ce1;}.cls-2{fill:#121221;}</style></defs><title>boom tv</title><g id="Слой_2" data-name="Слой 2"><g id="Work_space" data-name="Work space"><g id="boom_tv" data-name="boom tv"><path class="cls-1" d="M556.878,160h-79.81V85.38A79.6,79.6,0,0,0,494.438,130l.14.17A79.836,79.836,0,0,0,556.878,160Z"/><path class="cls-1" d="M678.888,85.37V160h-79.86a80.067,80.067,0,0,0,79.86-74.63Z"/><path class="cls-1" d="M556.778,0a79.906,79.906,0,0,0-79.71,74.53V0Z"/><path class="cls-1" d="M678.888,0V74.63A80.067,80.067,0,0,0,599.028,0Z"/><polygon class="cls-2" points="427.769 30 427.769 130 407.769 130 407.769 60.59 390.969 80.05 377.759 95.36 364.549 80.05 347.769 60.62 347.769 130 327.769 130 327.769 30 347.769 30 347.769 30.01 377.759 64.75 407.749 30 427.769 30"/><polygon class="cls-2" points="655.917 46.314 626.717 119.328 626.144 120.764 611.254 120.764 610.681 119.328 581.481 46.314 597.518 46.314 618.699 99.278 639.887 46.314 655.917 46.314"/><path class="cls-2" d="M160,30a50,50,0,1,0,50,50A50.005,50.005,0,0,0,160,30Zm0,80a30,30,0,1,1,30-30A30,30,0,0,1,160,110Z"/><path class="cls-2" d="M267.769,30a50,50,0,1,0,50,50A50.005,50.005,0,0,0,267.769,30Zm0,80a30,30,0,1,1,30-30A30,30,0,0,1,267.769,110Z"/><path class="cls-2" d="M100,60A30,30,0,0,0,70,30H0V130H70A29.991,29.991,0,0,0,92.35,80,29.862,29.862,0,0,0,100,60ZM20,50H70a10,10,0,0,1,0,20H20Zm50,60H20V90H70a10,10,0,0,1,0,20Z"/><polygon class="cls-2" points="574.036 46.314 574.036 61.204 544.256 61.204 544.256 120.764 529.366 120.764 529.366 61.204 499.586 61.204 499.586 46.314 574.036 46.314"/></g></g></g></svg>