<svg id="Main" xmlns="http://www.w3.org/2000/svg" viewBox="0 0 390 230"><defs><style>.cls-1{fill:#121221;}.cls-2{fill:#366ce1;}</style></defs><title>booter</title><g id="Booter"><rect class="cls-1" y="130" width="30" height="100"/><rect class="cls-1" x="30" y="130" width="30" height="10"/><rect class="cls-1" x="30" y="160" width="50" height="10"/><rect class="cls-1" x="30" y="220" width="50" height="10"/><rect class="cls-1" x="80" y="170" width="10" height="50"/><rect class="cls-1" x="60" y="140" width="10" height="20"/><rect class="cls-1" x="100" y="170" width="10" height="50"/><rect class="cls-1" x="110" y="220" width="30" height="10"/><rect class="cls-1" x="140" y="170" width="10" height="50"/><rect class="cls-1" x="110" y="160" width="30" height="10"/><rect class="cls-1" x="160" y="170" width="10" height="50"/><rect class="cls-1" x="170" y="220" width="30" height="10"/><rect class="cls-1" x="200" y="170" width="10" height="50"/><rect class="cls-1" x="530" y="310" width="10" height="50" transform="translate(570 -370) rotate(90)"/><rect class="cls-1" x="170" y="160" width="30" height="10"/><rect class="cls-1" x="230" y="130" width="10" height="90"/><rect class="cls-1" x="240" y="220" width="20" height="10"/><rect class="cls-1" x="260" y="200" width="10" height="20"/><rect class="cls-1" x="250" y="190" width="10" height="10"/><rect class="cls-1" x="280" y="160" width="10" height="60"/><rect class="cls-1" x="290" y="220" width="40" height="10"/><rect class="cls-1" x="290" y="190" width="40" height="10"/><rect class="cls-1" x="290" y="160" width="40" height="10"/><rect class="cls-1" x="340" y="160" width="10" height="70"/><rect class="cls-1" x="350" y="160" width="30" height="10"/><rect class="cls-1" x="380" y="170" width="10" height="30"/><rect class="cls-1" x="350" y="200" width="30" height="10"/><rect class="cls-1" x="380" y="210" width="10" height="20"/><path class="cls-2" d="M500,170a50,50,0,1,0,50,50A50.005,50.005,0,0,0,500,170Zm-5,10h10v10H495Zm20,20v10H505V200Zm-50-10h10V180h10v10H475v10H465Zm30,10v10H485V200Zm-10,60H475V250H465V240h10v10h10Zm0-30h10v10H485Zm20,30H495V250h10Zm0-30h10v10H505Zm30,20H525v10H515V250h10V240h10Zm0-50H525V190H515V180h10v10h10Z" transform="translate(-300 -170)"/><rect class="cls-1" x="270" y="35" width="10" height="30"/><rect class="cls-1" x="120" y="35" width="10" height="30"/><rect class="cls-2" x="110" y="35" width="10" height="30"/><rect class="cls-1" x="100" y="35" width="10" height="30"/><rect class="cls-1" x="290" y="35" width="10" height="30"/><rect class="cls-2" x="280" y="35" width="10" height="30"/><rect class="cls-1" x="130" y="45" width="10" height="10"/><rect class="cls-1" x="260" y="45" width="10" height="10"/><rect class="cls-2" x="140" y="45" width="120" height="10"/><rect class="cls-2" x="310" y="35" width="10" height="10"/><rect class="cls-2" x="310" y="55" width="10" height="10"/><rect class="cls-2" x="320" y="15" width="10" height="10"/><rect class="cls-2" x="320" y="75" width="10" height="10"/><rect class="cls-2" x="330" y="45" width="10" height="10"/><rect class="cls-2" x="330" y="65" width="10" height="10"/><rect class="cls-2" x="330" y="25" width="10" height="10"/><rect class="cls-2" x="80" y="55" width="10" height="10"/><rect class="cls-2" x="80" y="35" width="10" height="10"/><rect class="cls-2" x="70" y="75" width="10" height="10"/><rect class="cls-2" x="70" y="15" width="10" height="10"/><rect class="cls-2" x="60" y="45" width="10" height="10"/><rect class="cls-2" x="60" y="25" width="10" height="10"/><rect class="cls-2" x="60" y="65" width="10" height="10"/></g></svg>