<svg xmlns="http://www.w3.org/2000/svg" viewBox="0 0 1300 231.01"><defs><style>.cls-1{fill:#121221;}.cls-2{fill:#366ce1;}.cls-3{fill:#1c1e20;}</style></defs><title>box tracker</title><g id="Слой_2" data-name="Слой 2"><g id="Work_space" data-name="Work space"><g id="box_tracker" data-name="box tracker"><polygon class="cls-1" points="880 85.505 880 105.505 960 105.505 960 125.505 880 125.505 880 145.505 960 145.505 960 165.505 860 165.505 860 65.505 960 65.505 960 85.505 880 85.505"/><path class="cls-1" d="M1070,95.505a30,30,0,0,0-30-30H970v100h20v-40h50a10,10,0,0,1,10,10v30h20v-30a29.862,29.862,0,0,0-7.65-20A29.862,29.862,0,0,0,1070,95.505Zm-80,10v-20h50a10,10,0,0,1,0,20Z"/><path class="cls-1" d="M529.98,95.505a30,30,0,0,0-30-30h-70v100h20v-40h50a10,10,0,0,1,10,10v30h20v-30a29.862,29.862,0,0,0-7.65-20A29.862,29.862,0,0,0,529.98,95.505Zm-80,10v-20h50a10,10,0,0,1,0,20Z"/><path class="cls-2" d="M160,65.505a50,50,0,1,0,50,50A50.005,50.005,0,0,0,160,65.505Zm0,80a30,30,0,1,1,30-30A30,30,0,0,1,160,145.505Z"/><polygon class="cls-1" points="850 165.495 850 165.505 820.13 165.505 779.51 128.935 770 137.505 770 165.505 750 165.505 750 65.505 770 65.505 770 110.595 779.51 102.025 820.07 65.505 849.97 65.505 794.46 115.485 850 165.495"/><path class="cls-1" d="M719.29,125.505H740a50,50,0,1,1,0-20H719.29a30,30,0,1,0,0,20Z"/><path class="cls-2" d="M100,95.505a30,30,0,0,0-30-30H0v100H70a29.991,29.991,0,0,0,22.35-50A29.862,29.862,0,0,0,100,95.505Zm-80-10H70a10,10,0,0,1,0,20H20Zm50,60H20v-20H70a10,10,0,0,1,0,20Z"/><path class="cls-1" d="M600.75,67.455l-.78-1.95H579.99l-.78,1.94-39.23,98.06h21.55l11.2-28h34.5l11.2,28h21.55Zm-20.02,50.05,9.25-23.13,9.25,23.13Z"/><polygon class="cls-1" points="419.98 65.505 419.98 85.505 379.98 85.505 379.98 165.505 359.98 165.505 359.98 85.505 319.98 85.505 319.98 65.505 419.98 65.505"/><polygon class="cls-2" points="272.48 115.535 309.93 165.505 284.94 165.505 259.99 132.205 235.03 165.505 210.05 165.505 247.49 115.535 210 65.505 234.98 65.505 259.99 98.865 284.99 65.505 309.98 65.505 272.48 115.535"/><path class="cls-2" d="M1220,110V230a50.01,50.01,0,0,1-20,0V110a50.01,50.01,0,0,0,20,0Z"/><path class="cls-3" d="M1200,110V230q-37.957-18.972-75.907-37.954a7.4,7.4,0,0,1-4.093-6.622V70q10.005,5,20,10Z"/><path class="cls-3" d="M1300,70V185.424a7.4,7.4,0,0,1-4.093,6.622Q1257.95,211.02,1220,230V110l60-30Q1290.005,75.005,1300,70Z"/><path class="cls-3" d="M1210,0a50,50,0,1,0,50,50A50.005,50.005,0,0,0,1210,0Zm0,60a10,10,0,1,1,10-10A10,10,0,0,1,1210,60Z"/><circle class="cls-2" cx="1210" cy="50" r="10"/></g></g></g></svg>