<svg xmlns="http://www.w3.org/2000/svg" viewBox="0 0 1144.641 262.901"><defs><style>.cls-1{fill:#121221;}.cls-2{fill:#366ce1;}</style></defs><title>branch</title><g id="Слой_2" data-name="Слой 2"><g id="Work_space" data-name="Work space"><g id="branch"><path class="cls-1" d="M1100.605,175.671l-12.51-9.12q-13.62,20.3-27.26,40.61a29.991,29.991,0,0,0-26.78-2.02q-21.675-32.25-43.38-64.48a29.959,29.959,0,0,0-2.34-43.54q2.4-16.92,4.78-33.84-7.1-4.95-14.2-9.89-2.67,18.48-5.34,36.97a29.422,29.422,0,0,0-4.63-.36,30,30,0,0,0-30,30,29.278,29.278,0,0,0,.27,3.99q-14.91,5.115-29.82,10.21a50.018,50.018,0,0,0-71.68-19.31q-17.37-23.01-34.74-46.03l-13.19,11.66q17.61,23.1,35.2,46.19a49.753,49.753,0,0,0-10.15,30.19,50.321,50.321,0,0,0,.95,9.73q-30.06,5.79-60.14,11.58,2.04,7.02,4.06,14.03,30.24-6.405,60.5-12.79a50.006,50.006,0,0,0,93.66-32.37q15.1-5.16,30.2-10.32a30.02,30.02,0,0,0,35.02,11.48q21.255,33.195,42.54,66.4a30,30,0,1,0,49.51,2.81Q1085.88,196.571,1100.605,175.671ZM864.835,186.9a30,30,0,1,1,30-30A30,30,0,0,1,864.835,186.9ZM968.945,130a10,10,0,1,1,10-10A10,10,0,0,1,968.945,130Zm76.48,112.9a10,10,0,1,1,10-10A10,10,0,0,1,1045.425,242.9Z"/><circle class="cls-2" cx="968.945" cy="120.001" r="10"/><circle class="cls-2" cx="1045.425" cy="232.901" r="10"/><path class="cls-2" d="M782.4,31.144a30,30,0,1,0,30,30A30,30,0,0,0,782.4,31.144Zm0,40a10,10,0,1,1,10-10A10,10,0,0,1,782.4,71.144Z"/><path class="cls-2" d="M999.423,0a35,35,0,1,0,35,35A35,35,0,0,0,999.423,0Zm0,50a15,15,0,1,1,15-15A15.005,15.005,0,0,1,999.423,50Z"/><path class="cls-2" d="M1109.641,118.155a35,35,0,1,0,35,35A35,35,0,0,0,1109.641,118.155Zm0,50a15,15,0,1,1,15-15A15.005,15.005,0,0,1,1109.641,168.155Z"/><path class="cls-2" d="M731.317,156.9a35,35,0,1,0,35,35A35,35,0,0,0,731.317,156.9Zm0,50a15,15,0,1,1,15-15A15.005,15.005,0,0,1,731.317,206.9Z"/><polygon class="cls-1" points="430 81.451 430 181.451 410 181.451 350 112.041 350 181.451 330 181.451 330 81.451 350 81.451 410 150.861 410 81.451 430 81.451"/><polygon class="cls-1" points="650 81.451 650 181.451 630 181.451 630 141.451 570 141.451 570 181.451 550 181.451 550 81.451 570 81.451 570 121.451 630 121.451 630 81.451 650 81.451"/><path class="cls-1" d="M210,111.451a30,30,0,0,0-30-30H110v100h20v-40h50a10,10,0,0,1,10,10v30h20v-30a29.862,29.862,0,0,0-7.65-20A29.862,29.862,0,0,0,210,111.451Zm-80,10v-20h50a10,10,0,0,1,0,20Z"/><path class="cls-1" d="M518.28,141.451h20.71a50,50,0,1,1,0-20H518.28a30,30,0,1,0,0,20Z"/><path class="cls-1" d="M100,111.451a30,30,0,0,0-30-30H0v100H70a29.991,29.991,0,0,0,22.35-50A29.862,29.862,0,0,0,100,111.451Zm-80-10H70a10,10,0,0,1,0,20H20Zm50,60H20v-20H70a10,10,0,0,1,0,20Z"/><path class="cls-1" d="M280.77,83.4l-.78-1.95H260.01l-.78,1.94L220,181.451h21.55l11.2-28h34.5l11.2,28H320Zm-20.02,50.05,9.25-23.13,9.25,23.13Z"/></g></g></g></svg>