<svg xmlns="http://www.w3.org/2000/svg" viewBox="0 0 530.155 100"><defs><style>.cls-1{fill:#366ce1;}.cls-2{fill:#121221;}</style></defs><title>braun</title><g id="Слой_2" data-name="Слой 2"><g id="Work_space" data-name="Work space"><g id="braun"><polygon class="cls-1" points="530.155 0 530.155 100 510.155 100 450.155 30.59 450.155 100 430.155 100 430.155 0 450.155 0 510.155 69.41 510.155 0 530.155 0"/><path class="cls-1" d="M210.155,30a30,30,0,0,0-30-30h-70V100h20V60h50a10,10,0,0,1,10,10v30h20V70a29.862,29.862,0,0,0-7.65-20A29.862,29.862,0,0,0,210.155,30Zm-80,10V20h50a10,10,0,0,1,0,20Z"/><path class="cls-2" d="M280.925,1.95,280.145,0h-19.98l-.78,1.94L220.155,100h21.55l11.2-28h34.5l11.2,28h21.55ZM260.9,52l9.25-23.13L279.4,52Z"/><path class="cls-1" d="M420.155,0V50a50,50,0,0,1-100,0V0h20V50a30,30,0,0,0,60,0V0Z"/><path class="cls-1" d="M100,30A30,30,0,0,0,70,0H0V100H70A29.991,29.991,0,0,0,92.35,50,29.862,29.862,0,0,0,100,30ZM20,20H70a10,10,0,0,1,0,20H20ZM70,80H20V60H70a10,10,0,0,1,0,20Z"/></g></g></g></svg>