<svg xmlns="http://www.w3.org/2000/svg" viewBox="0 0 853.824 128.913"><defs><style>.cls-1{fill:#121221;}.cls-2{fill:#366ce1;}</style></defs><title>bsc design</title><g id="Слой_2" data-name="Слой 2"><g id="Work_space" data-name="Work space"><g id="bsc_design" data-name="bsc design"><path class="cls-1" d="M450,0H400V100h50A50,50,0,0,0,450,0Zm0,80H420V20h30a30,30,0,0,1,0,60Z"/><path class="cls-2" d="M130,31.087a10,10,0,0,0,10,10h40a30,30,0,0,1,0,60H110v-20h70a10,10,0,0,0,0-20H140a30,30,0,0,1,0-60h70v20H140A10,10,0,0,0,130,31.087Z"/><path class="cls-2" d="M298.28,61.087h20.71a50,50,0,1,1,0-20H298.28a30,30,0,1,0,0,20Z"/><path class="cls-2" d="M100,31.087a30,30,0,0,0-30-30H0v100H70a29.991,29.991,0,0,0,22.35-50A29.862,29.862,0,0,0,100,31.087Zm-80-10H70a10,10,0,0,1,0,20H20Zm50,60H20v-20H70a10,10,0,0,1,0,20Z"/><rect class="cls-1" x="671.829" y="22.749" width="15.166" height="75.831"/><rect class="cls-1" x="671.829" width="15.166" height="15.166"/><path class="cls-1" d="M580.065,68.248a37.917,37.917,0,0,0,0-15.166,37.915,37.915,0,0,0-74.3,0,37.917,37.917,0,0,0,0,15.166,37.905,37.905,0,0,0,62.69,20.429q-6.041-4.835-12.088-9.668a22.744,22.744,0,0,1-34.9-10.761ZM542.916,37.916a22.734,22.734,0,0,1,21.445,15.166h-42.89A22.732,22.732,0,0,1,542.916,37.916Z"/><path class="cls-1" d="M853.824,60.665V98.581H838.657V60.665a22.749,22.749,0,1,0-45.5,0V98.581H777.992V60.665a37.916,37.916,0,1,1,75.832,0Z"/><path class="cls-1" d="M664.246,60.665a37.28,37.28,0,0,1-.766,7.583,37.908,37.908,0,0,1-63.956,19.223q5.356-5.356,10.722-10.722a22.743,22.743,0,0,0,37.529-8.5h-58.6a37.917,37.917,0,0,1,0-15.166,37.908,37.908,0,0,1,63.956-19.223L642.414,44.581a22.743,22.743,0,0,0-37.529,8.5h58.6A37.28,37.28,0,0,1,664.246,60.665Z"/><path class="cls-1" d="M755.243,30.34a.435.435,0,0,0-.068-.053c-.372-.273-.743-.546-1.123-.8-.007-.015-.015-.023-.03-.023-.364-.25-.728-.5-1.1-.735-.075-.053-.159-.106-.25-.159-.341-.213-.69-.425-1.039-.63-.5-.3-1.023-.591-1.547-.857-.386-.2-.765-.4-1.16-.591-.015-.008-.038-.015-.053-.023-.447-.212-.9-.425-1.357-.622h-.008c-.462-.2-.925-.386-1.388-.561-.007-.015-.015-.015-.03-.015-.462-.182-.933-.349-1.4-.508a37.244,37.244,0,0,0-5.2-1.365c-.174-.03-.356-.068-.531-.091-.227-.046-.455-.083-.69-.114-.311-.053-.629-.091-.94-.136-.349-.046-.7-.084-1.054-.114-.288-.03-.576-.061-.857-.076-.326-.03-.644-.045-.97-.061s-.645-.03-.971-.038-.652-.015-.978-.015a37.92,37.92,0,0,0-37.916,37.916c0,.675.015,1.342.053,2.009.03.63.083,1.252.144,1.866.015.182.038.356.061.538s.038.372.068.561c.03.266.068.531.114.8.03.2.06.417.1.622q.263,1.569.66,3.078c.046.2.106.41.159.607s.114.409.175.6c.091.3.182.614.28.918.2.629.41,1.251.653,1.857.106.281.212.562.326.835.121.3.242.591.371.879.144.334.3.668.448.994a35.793,35.793,0,0,0,2.366,4.269c.159.25.318.493.477.735a.571.571,0,0,1,.038.054c.167.242.334.485.508.728q.524.75,1.092,1.455c.129.167.266.334.4.5q.945,1.172,1.979,2.252c.213.22.425.44.637.652s.425.425.645.63c0,.007.007.007.015.015q.318.307.66.614c.3.273.606.546.917.8.228.2.455.387.69.576.645.531,1.312,1.039,2,1.517.3.2.584.409.888.606s.6.395.9.584c.258.167.516.326.781.478.349.212.713.417,1.077.614.948.524,1.918,1,2.912,1.441.333.144.659.288,1,.425.265.114.531.22.8.318a36.048,36.048,0,0,0,4.5,1.4c.28.076.569.137.857.2.409.1.819.182,1.236.258.273.046.546.1.819.137.28.053.561.091.849.129.235.037.463.06.7.091s.447.053.675.075c.318.031.637.061.955.084.963.076,1.941.114,2.92.114.326,0,.652-.008.978-.016s.652-.015.971-.038.644-.03.97-.06c.281-.015.569-.046.857-.076.356-.03.705-.068,1.054-.114.311-.045.629-.083.94-.136.235-.031.463-.069.69-.114.175-.023.357-.061.531-.091a37.244,37.244,0,0,0,5.2-1.365c.47-.159.941-.326,1.4-.508.015,0,.023,0,.03-.015.463-.175.926-.364,1.388-.561h.008c.455-.2.91-.41,1.357-.622.015-.008.038-.015.053-.023.395-.189.774-.387,1.16-.591.524-.266,1.047-.554,1.547-.857.349-.205.7-.417,1.039-.63.091-.053.175-.106.25-.159.372-.235.736-.485,1.1-.736a.031.031,0,0,0,.03-.022c.38-.258.751-.531,1.123-.8a.435.435,0,0,0,.068-.053V91a22.746,22.746,0,0,1-38.833,16.084L705.687,117.8A37.91,37.91,0,0,0,770.409,91V60.665A37.835,37.835,0,0,0,755.243,30.34Zm-.03,31.493c-.016.364-.046.72-.076,1.077-.015.159-.038.318-.061.477-.023.243-.053.478-.091.713a.256.256,0,0,1-.015.076c-.053.364-.114.713-.19,1.069-.075.372-.159.736-.257,1.1-.084.349-.182.69-.289,1.031a.354.354,0,0,1-.045.129c-.076.273-.167.538-.265.8-.038.121-.084.243-.129.364-.084.228-.175.455-.273.667a1.921,1.921,0,0,1-.114.281q-.149.364-.319.7a2.082,2.082,0,0,1-.151.319c-.069.144-.137.3-.22.44-.1.2-.213.409-.319.606-.144.266-.295.531-.455.781-.136.22-.273.44-.424.652a1.751,1.751,0,0,1-.2.319c-.379.561-.781,1.1-1.213,1.623-.19.235-.387.47-.6.7a.171.171,0,0,1-.075.091c-.251.288-.516.562-.789.835s-.553.553-.842.811l-.007.007c-.288.266-.584.516-.88.759s-.614.493-.925.72c-.273.205-.546.4-.834.584q-.353.239-.7.455a1.416,1.416,0,0,1-.213.129,6.087,6.087,0,0,1-.546.318c-.167.107-.341.2-.515.289-.19.106-.379.2-.569.3a3.272,3.272,0,0,1-.41.19c-.265.136-.53.258-.8.372a.1.1,0,0,0-.046.015c-.334.144-.682.28-1.031.409-.008,0-.015.008-.031.015-.333.122-.674.235-1.023.342a19.587,19.587,0,0,1-2.116.546.951.951,0,0,1-.152.03c-.318.068-.644.129-.978.174l-.144.023c-.273.046-.546.076-.819.106a.179.179,0,0,1-.061.008c-.136.015-.28.03-.417.038-.3.03-.6.053-.91.068-.386.023-.773.03-1.167.03s-.781-.007-1.168-.03c-.311-.015-.607-.038-.91-.068-.137-.008-.281-.023-.417-.038a.182.182,0,0,1-.061-.008c-.273-.03-.546-.06-.819-.106l-.144-.023c-.334-.045-.66-.106-.978-.174a.974.974,0,0,1-.152-.03,19.629,19.629,0,0,1-2.115-.546c-.349-.107-.691-.22-1.024-.342-.015-.007-.023-.015-.031-.015-.348-.129-.7-.265-1.031-.409a.1.1,0,0,0-.045-.015c-.273-.114-.539-.236-.8-.372a3.688,3.688,0,0,1-.4-.19c-.2-.091-.387-.189-.576-.3-.175-.091-.349-.182-.516-.289a6.087,6.087,0,0,1-.546-.318,1.357,1.357,0,0,1-.212-.129q-.354-.216-.706-.455c-.288-.182-.561-.379-.834-.584-.311-.227-.622-.47-.925-.72s-.591-.493-.879-.759l-.008-.007c-.288-.258-.576-.531-.842-.811s-.538-.547-.789-.835a.176.176,0,0,1-.075-.091c-.213-.227-.41-.462-.6-.7-.433-.524-.835-1.062-1.214-1.623a1.864,1.864,0,0,1-.205-.319c-.151-.212-.288-.432-.424-.652-.159-.25-.311-.515-.455-.781-.106-.2-.22-.4-.319-.606-.083-.145-.151-.3-.219-.44a2,2,0,0,1-.152-.319q-.171-.341-.319-.7a1.812,1.812,0,0,1-.113-.281c-.1-.212-.19-.439-.273-.667-.046-.121-.091-.243-.129-.364-.1-.258-.19-.523-.266-.8a.373.373,0,0,1-.045-.129c-.106-.341-.205-.682-.288-1.031-.1-.364-.182-.728-.258-1.1-.076-.356-.137-.7-.19-1.069A.293.293,0,0,1,710,64.1c-.038-.235-.068-.47-.091-.713-.023-.159-.045-.318-.061-.477-.03-.357-.06-.713-.075-1.077-.023-.387-.031-.774-.031-1.16v-.008a22.75,22.75,0,0,1,45.5,0v.008C755.243,61.059,755.235,61.446,755.213,61.833Z"/></g></g></g></svg>