<svg xmlns="http://www.w3.org/2000/svg" viewBox="0 0 886.046 191.419"><defs><style>.cls-1,.cls-2,.cls-3{fill:#366ce1;}.cls-1{opacity:0.38;}.cls-2{opacity:0.62;}</style></defs><title>bynder</title><g id="Слой_2" data-name="Слой 2"><g id="Work_space" data-name="Work space"><g id="bynder"><path class="cls-1" d="M729.983,14.642a50,50,0,0,0-70.711,70.711L765.338,191.419l70.711-70.711Zm35.355,148.493L673.414,71.211a30,30,0,0,1,42.427-42.426l91.923,91.923Z"/><path class="cls-2" d="M871.4,85.353a50,50,0,1,0-70.711-70.711L694.627,120.708l70.711,70.711ZM722.912,120.708l91.924-91.923a30,30,0,0,1,42.426,42.426l-91.924,91.924Z"/><polygon class="cls-3" points="320 70 320 170 300 170 240 100.59 240 170 220 170 220 70 240 70 300 139.41 300 70 320 70"/><path class="cls-3" d="M380,70H330V170h50a50,50,0,0,0,0-100Zm0,80H350V90h30a30,30,0,0,1,0,60Z"/><polygon class="cls-3" points="460 90 460 110 540 110 540 130 460 130 460 150 540 150 540 170 440 170 440 70 540 70 540 90 460 90"/><path class="cls-3" d="M650,100a30,30,0,0,0-30-30H550V170h20V130h50a10,10,0,0,1,10,10v30h20V140a29.862,29.862,0,0,0-7.65-20A29.862,29.862,0,0,0,650,100Zm-80,10V90h50a10,10,0,0,1,0,20Z"/><path class="cls-3" d="M100,100A30,30,0,0,0,70,70H0V170H70a29.991,29.991,0,0,0,22.35-50A29.862,29.862,0,0,0,100,100ZM20,90H70a10,10,0,0,1,0,20H20Zm50,60H20V130H70a10,10,0,0,1,0,20Z"/><polygon class="cls-3" points="172.78 116.46 169.95 120 170 120 170 170 150 170 150 120 147.17 116.46 110 70 135.61 70 159.97 100.45 184.33 70 209.95 70 172.78 116.46"/></g></g></g></svg>