<svg id="Main" xmlns="http://www.w3.org/2000/svg" viewBox="0 0 210 340"><defs><style>.cls-1{fill:#366ce1;}</style></defs><title>C</title><rect class="cls-1" y="170" width="10" height="10"/><rect class="cls-1" y="180" width="10" height="10"/><rect class="cls-1" y="190" width="10" height="10"/><rect class="cls-1" y="200" width="10" height="10"/><rect class="cls-1" y="210" width="10" height="10"/><rect class="cls-1" y="220" width="10" height="10"/><rect class="cls-1" y="230" width="10" height="10"/><rect class="cls-1" y="240" width="10" height="10"/><rect class="cls-1" x="10" y="250" width="10" height="10"/><rect class="cls-1" x="10" y="260" width="10" height="10"/><rect class="cls-1" x="10" y="270" width="10" height="10"/><rect class="cls-1" x="10" y="280" width="10" height="10"/><rect class="cls-1" x="570" y="690" width="10" height="10" transform="translate(870 -280) rotate(90)"/><rect class="cls-1" x="550" y="680" width="10" height="10" transform="translate(840 -270) rotate(90)"/><rect class="cls-1" x="530" y="690" width="10" height="10" transform="translate(830 -240) rotate(90)"/><rect class="cls-1" x="540" y="690" width="10" height="10" transform="translate(840 -250) rotate(90)"/><rect class="cls-1" x="450" y="690" width="10" height="10" transform="translate(750 -160) rotate(90)"/><rect class="cls-1" x="460" y="690" width="10" height="10" transform="translate(760 -170) rotate(90)"/><rect class="cls-1" x="520" y="700" width="10" height="10" transform="translate(830 -220) rotate(90)"/><rect class="cls-1" x="470" y="700" width="10" height="10" transform="translate(780 -170) rotate(90)"/><rect class="cls-1" x="550" y="670" width="10" height="10" transform="translate(830 -280) rotate(90)"/><rect class="cls-1" x="570" y="700" width="10" height="10" transform="translate(880 -270) rotate(90)"/><rect class="cls-1" x="560" y="710" width="10" height="10" transform="translate(880 -250) rotate(90)"/><rect class="cls-1" x="550" y="720" width="10" height="10" transform="translate(880 -230) rotate(90)"/><rect class="cls-1" x="540" y="720" width="10" height="10" transform="translate(870 -220) rotate(90)"/><rect class="cls-1" x="490" y="730" width="10" height="10" transform="translate(830 -160) rotate(90)"/><rect class="cls-1" x="480" y="730" width="10" height="10" transform="translate(820 -150) rotate(90)"/><rect class="cls-1" x="470" y="730" width="10" height="10" transform="translate(810 -140) rotate(90)"/><rect class="cls-1" x="460" y="730" width="10" height="10" transform="translate(800 -130) rotate(90)"/><rect class="cls-1" x="530" y="730" width="10" height="10" transform="translate(870 -200) rotate(90)"/><rect class="cls-1" x="520" y="730" width="10" height="10" transform="translate(860 -190) rotate(90)"/><rect class="cls-1" x="510" y="730" width="10" height="10" transform="translate(850 -180) rotate(90)"/><rect class="cls-1" x="500" y="730" width="10" height="10" transform="translate(840 -170) rotate(90)"/><rect class="cls-1" x="510" y="700" width="10" height="10" transform="translate(820 -210) rotate(90)"/><rect class="cls-1" x="500" y="700" width="10" height="10" transform="translate(810 -200) rotate(90)"/><rect class="cls-1" x="490" y="700" width="10" height="10" transform="translate(800 -190) rotate(90)"/><rect class="cls-1" x="480" y="700" width="10" height="10" transform="translate(790 -180) rotate(90)"/><rect class="cls-1" x="580" y="680" width="10" height="10" transform="translate(770 970) rotate(180)"/><rect class="cls-1" x="580" y="670" width="10" height="10" transform="translate(770 950) rotate(180)"/><rect class="cls-1" x="580" y="660" width="10" height="10" transform="translate(770 930) rotate(180)"/><rect class="cls-1" x="580" y="650" width="10" height="10" transform="translate(770 910) rotate(180)"/><rect class="cls-1" x="550" y="660" width="10" height="10" transform="translate(710 930) rotate(180)"/><rect class="cls-1" x="550" y="650" width="10" height="10" transform="translate(710 910) rotate(180)"/><rect class="cls-1" x="570" y="440" width="10" height="10" transform="translate(-270 620) rotate(-90)"/><rect class="cls-1" x="550" y="450" width="10" height="10" transform="translate(-300 610) rotate(-90)"/><rect class="cls-1" x="530" y="440" width="10" height="10" transform="translate(-310 580) rotate(-90)"/><rect class="cls-1" x="540" y="440" width="10" height="10" transform="translate(-300 590) rotate(-90)"/><rect class="cls-1" x="520" y="430" width="10" height="10" transform="translate(-310 560) rotate(-90)"/><rect class="cls-1" x="550" y="460" width="10" height="10" transform="translate(-310 620) rotate(-90)"/><rect class="cls-1" x="570" y="430" width="10" height="10" transform="translate(-260 610) rotate(-90)"/><rect class="cls-1" x="560" y="420" width="10" height="10" transform="translate(-260 590) rotate(-90)"/><rect class="cls-1" x="550" y="410" width="10" height="10" transform="translate(-260 570) rotate(-90)"/><rect class="cls-1" x="540" y="410" width="10" height="10" transform="translate(-270 560) rotate(-90)"/><rect class="cls-1" x="490" y="400" width="10" height="10" transform="translate(-310 500) rotate(-90)"/><rect class="cls-1" x="480" y="400" width="10" height="10" transform="translate(-320 490) rotate(-90)"/><rect class="cls-1" x="530" y="400" width="10" height="10" transform="translate(-270 540) rotate(-90)"/><rect class="cls-1" x="520" y="400" width="10" height="10" transform="translate(-280 530) rotate(-90)"/><rect class="cls-1" x="510" y="400" width="10" height="10" transform="translate(-290 520) rotate(-90)"/><rect class="cls-1" x="500" y="400" width="10" height="10" transform="translate(-300 510) rotate(-90)"/><rect class="cls-1" x="510" y="430" width="10" height="10" transform="translate(-320 550) rotate(-90)"/><rect class="cls-1" x="500" y="430" width="10" height="10" transform="translate(-330 540) rotate(-90)"/><rect class="cls-1" x="490" y="430" width="10" height="10" transform="translate(-340 530) rotate(-90)"/><rect class="cls-1" x="480" y="430" width="10" height="10" transform="translate(-350 520) rotate(-90)"/><rect class="cls-1" x="580" y="450" width="10" height="10" transform="translate(770 510) rotate(180)"/><rect class="cls-1" x="580" y="460" width="10" height="10" transform="translate(770 530) rotate(180)"/><rect class="cls-1" x="580" y="470" width="10" height="10" transform="translate(770 550) rotate(180)"/><rect class="cls-1" x="580" y="480" width="10" height="10" transform="translate(770 570) rotate(180)"/><rect class="cls-1" x="550" y="470" width="10" height="10" transform="translate(710 550) rotate(180)"/><rect class="cls-1" x="550" y="480" width="10" height="10" transform="translate(710 570) rotate(180)"/><rect class="cls-1" x="580" y="480" width="10" height="10" transform="translate(770 570) rotate(180)"/><rect class="cls-1" x="550" y="480" width="10" height="10" transform="translate(710 570) rotate(180)"/><rect class="cls-1" x="540" y="490" width="10" height="10" transform="translate(690 590) rotate(180)"/><rect class="cls-1" x="530" y="490" width="10" height="10" transform="translate(670 590) rotate(180)"/><rect class="cls-1" x="600" y="490" width="10" height="10" transform="translate(810 590) rotate(180)"/><rect class="cls-1" x="590" y="490" width="10" height="10" transform="translate(790 590) rotate(180)"/><rect class="cls-1" x="600" y="640" width="10" height="10" transform="translate(810 890) rotate(180)"/><rect class="cls-1" x="590" y="640" width="10" height="10" transform="translate(790 890) rotate(180)"/><rect class="cls-1" x="580" y="650" width="10" height="10" transform="translate(770 910) rotate(180)"/><rect class="cls-1" x="550" y="650" width="10" height="10" transform="translate(710 910) rotate(180)"/><rect class="cls-1" x="580" y="650" width="10" height="10" transform="translate(770 910) rotate(180)"/><rect class="cls-1" x="540" y="640" width="10" height="10" transform="translate(690 890) rotate(180)"/><rect class="cls-1" x="530" y="640" width="10" height="10" transform="translate(670 890) rotate(180)"/><rect class="cls-1" x="550" y="650" width="10" height="10" transform="translate(710 910) rotate(180)"/><rect class="cls-1" x="570" y="540" width="10" height="10" transform="translate(750 690) rotate(180)"/><rect class="cls-1" x="560" y="540" width="10" height="10" transform="translate(730 690) rotate(180)"/><rect class="cls-1" x="570" y="540" width="10" height="10" transform="translate(750 690) rotate(180)"/><rect class="cls-1" x="540" y="570" width="10" height="10" transform="translate(690 750) rotate(180)"/><rect class="cls-1" x="560" y="540" width="10" height="10" transform="translate(730 690) rotate(180)"/><rect class="cls-1" x="550" y="550" width="10" height="10" transform="translate(710 710) rotate(180)"/><rect class="cls-1" x="570" y="590" width="10" height="10" transform="translate(750 790) rotate(180)"/><rect class="cls-1" x="560" y="590" width="10" height="10" transform="translate(730 790) rotate(180)"/><rect class="cls-1" x="590" y="560" width="10" height="10" transform="translate(760 -430) rotate(90)"/><rect class="cls-1" x="590" y="570" width="10" height="10" transform="translate(770 -420) rotate(90)"/><rect class="cls-1" x="580" y="550" width="10" height="10" transform="translate(740 -430) rotate(90)"/><rect class="cls-1" x="590" y="570" width="10" height="10" transform="translate(770 -420) rotate(90)"/><rect class="cls-1" x="590" y="560" width="10" height="10" transform="translate(760 -430) rotate(90)"/><rect class="cls-1" x="580" y="580" width="10" height="10" transform="translate(770 -400) rotate(90)"/><rect class="cls-1" x="540" y="560" width="10" height="10" transform="translate(710 -380) rotate(90)"/><rect class="cls-1" x="540" y="570" width="10" height="10" transform="translate(720 -370) rotate(90)"/><rect class="cls-1" x="540" y="560" width="10" height="10" transform="translate(710 -380) rotate(90)"/><rect class="cls-1" x="560" y="590" width="10" height="10" transform="translate(730 790) rotate(180)"/><rect class="cls-1" x="570" y="590" width="10" height="10" transform="translate(750 790) rotate(180)"/><rect class="cls-1" x="550" y="580" width="10" height="10" transform="translate(710 770) rotate(180)"/><rect class="cls-1" x="440" y="680" width="10" height="10" transform="translate(730 -160) rotate(90)"/><rect class="cls-1" x="440" y="670" width="10" height="10" transform="translate(720 -170) rotate(90)"/><rect class="cls-1" x="440" y="660" width="10" height="10" transform="translate(490 930) rotate(180)"/><rect class="cls-1" x="440" y="650" width="10" height="10" transform="translate(490 910) rotate(180)"/><rect class="cls-1" x="440" y="450" width="10" height="10" transform="translate(-410 500) rotate(-90)"/><rect class="cls-1" x="460" y="440" width="10" height="10" transform="translate(-380 510) rotate(-90)"/><rect class="cls-1" x="450" y="440" width="10" height="10" transform="translate(-390 500) rotate(-90)"/><rect class="cls-1" x="470" y="430" width="10" height="10" transform="translate(-360 510) rotate(-90)"/><rect class="cls-1" x="440" y="460" width="10" height="10" transform="translate(-420 510) rotate(-90)"/><rect class="cls-1" x="40" y="70" width="10" height="10"/><rect class="cls-1" x="40" y="80" width="10" height="10"/><rect class="cls-1" x="430" y="640" width="10" height="10" transform="translate(680 -190) rotate(90)"/><rect class="cls-1" x="430" y="630" width="10" height="10" transform="translate(670 -200) rotate(90)"/><rect class="cls-1" x="430" y="620" width="10" height="10" transform="translate(470 850) rotate(180)"/><rect class="cls-1" x="430" y="610" width="10" height="10" transform="translate(470 830) rotate(180)"/><rect class="cls-1" x="430" y="600" width="10" height="10" transform="translate(640 -230) rotate(90)"/><rect class="cls-1" x="430" y="590" width="10" height="10" transform="translate(630 -240) rotate(90)"/><rect class="cls-1" x="430" y="580" width="10" height="10" transform="translate(470 770) rotate(180)"/><rect class="cls-1" x="430" y="570" width="10" height="10" transform="translate(470 750) rotate(180)"/><rect class="cls-1" x="430" y="560" width="10" height="10" transform="translate(600 -270) rotate(90)"/><rect class="cls-1" x="430" y="550" width="10" height="10" transform="translate(590 -280) rotate(90)"/><rect class="cls-1" x="430" y="540" width="10" height="10" transform="translate(470 690) rotate(180)"/><rect class="cls-1" x="430" y="530" width="10" height="10" transform="translate(470 670) rotate(180)"/><rect class="cls-1" x="430" y="520" width="10" height="10" transform="translate(560 -310) rotate(90)"/><rect class="cls-1" x="430" y="510" width="10" height="10" transform="translate(550 -320) rotate(90)"/><rect class="cls-1" x="430" y="500" width="10" height="10" transform="translate(470 610) rotate(180)"/><rect class="cls-1" x="430" y="490" width="10" height="10" transform="translate(470 590) rotate(180)"/><rect class="cls-1" x="450" y="720" width="10" height="10" transform="translate(780 -130) rotate(90)"/><rect class="cls-1" x="440" y="720" width="10" height="10" transform="translate(770 -120) rotate(90)"/><rect class="cls-1" x="430" y="710" width="10" height="10" transform="translate(750 -120) rotate(90)"/><rect class="cls-1" x="420" y="700" width="10" height="10" transform="translate(730 -120) rotate(90)"/><rect class="cls-1" x="420" y="690" width="10" height="10" transform="translate(720 -130) rotate(90)"/><rect class="cls-1" x="420" y="440" width="10" height="10" transform="translate(-420 470) rotate(-90)"/><rect class="cls-1" x="420" y="430" width="10" height="10" transform="translate(-410 460) rotate(-90)"/><rect class="cls-1" x="430" y="420" width="10" height="10" transform="translate(-390 460) rotate(-90)"/><rect class="cls-1" x="440" y="410" width="10" height="10" transform="translate(-370 460) rotate(-90)"/><rect class="cls-1" x="450" y="410" width="10" height="10" transform="translate(-360 470) rotate(-90)"/><rect class="cls-1" x="460" y="400" width="10" height="10" transform="translate(-340 470) rotate(-90)"/><rect class="cls-1" x="470" y="400" width="10" height="10" transform="translate(-330 480) rotate(-90)"/><rect class="cls-1" x="10" y="50" width="10" height="10"/><rect class="cls-1" x="10" y="60" width="10" height="10"/><rect class="cls-1" x="10" y="70" width="10" height="10"/><rect class="cls-1" x="10" y="80" width="10" height="10"/><rect class="cls-1" y="130" width="10" height="10"/><rect class="cls-1" y="140" width="10" height="10"/><rect class="cls-1" y="150" width="10" height="10"/><rect class="cls-1" y="160" width="10" height="10"/><rect class="cls-1" y="90" width="10" height="10"/><rect class="cls-1" y="100" width="10" height="10"/><rect class="cls-1" y="110" width="10" height="10"/><rect class="cls-1" y="120" width="10" height="10"/></svg>