<svg xmlns="http://www.w3.org/2000/svg" viewBox="0 0 130 140"><defs><style>.cls-1{fill:#121221;}.cls-2{fill:#366ce1;}</style></defs><title>c3</title><g id="Слой_2" data-name="Слой 2"><g id="Work_space" data-name="Work space"><g id="c3"><path class="cls-1" d="M102.8,84H130c-6.08,31.948-32.582,56-64.337,56C29.4,140,0,108.654,0,70S29.4,0,65.663,0C97.418,0,123.92,24.052,130,56H102.8c-5.4-16.324-19.988-28-37.139-28-21.761,0-39.4,18.8-39.4,42s17.637,42,39.4,42C82.814,112,97.405,100.324,102.8,84Z"/><path class="cls-2" d="M105,100a40,40,0,0,1-80,0H45A20,20,0,1,0,65,80V60A20,20,0,1,0,45,40H25A40,40,0,1,1,91.44,70,39.845,39.845,0,0,1,105,100Z"/></g></g></g></svg>