<svg xmlns="http://www.w3.org/2000/svg" viewBox="0 0 450.069 281.954"><title>caa</title><path d="M140.069,121.086a14.786,14.786,0,0,0-10-20c-9.45-2.582-18.048,5.945-20.281,8.161-7.786,7.722-9.107,17.369-9.719,21.839a47.529,47.529,0,0,0,6.169,30.048,48.188,48.188,0,0,0,23.831,19.952c18.34,6.895,34.992-.377,40.437-2.755,26.385-11.522,36.17-38.047,39.563-47.245,2.5-6.768,12.41-35.96-.394-68.487C195.993,27.842,162.965,6.03,130.069,1.086,77.925-6.752,41.158,30.039,31.45,40.8,1.32,74.179.464,114.345.069,131.345c-.273,11.758-.612,42.9,17.437,76.1,20.164,37.091,63.6,77.222,112.9,74.366,11.127-.644,30.771-3.955,56.113-22.648C274.226,194.468,303.592,38.906,310.069,1.086h-30C250.56,112.584,207.971,191.1,174.182,210.4c-23.028,13.154-44.451,13.267-44.451,13.267-21.721.115-38.3-8.784-46.309-13.859,0,0-40.647-25.914-44.62-79.268-.258-3.466-.26-6.234-.262-7.143-.032-12.461,2.186-35.492,18.262-56.744,3.631-4.8,31.85-40.88,73.267-35.569,23.273,2.984,38.365,17.488,44.367,24.161,25.738,28.614,18.052,66.252,15.633,75.839-1.418,5.622-3.17,12.288-8.408,19.231-11.154,14.786-33.516,24.733-51.085,17.408a34.979,34.979,0,0,1-15.042-12.506,35.489,35.489,0,0,1-5.465-24.133c.483-3.782,1.2-9.433,5.634-14.234.571-.618,8.115-8.595,14.366-5.766,4.61,2.086,5.206,8.551,5.24,8.978.519,6.636-4.754,10.9-5.24,11.281A18.429,18.429,0,0,0,140.069,121.086Z"/><ellipse cx="315.069" cy="106.345" rx="20.831" ry="151.215" transform="translate(-14.499 62.046) rotate(-10.996)"/><rect x="245.675" y="111.345" width="84.394" height="30"/><rect x="350.069" y="111.345" width="70" height="30"/><ellipse cx="410.069" cy="106.345" rx="20.625" ry="152.724" transform="translate(-13.514 99.748) rotate(-13.646)"/><ellipse cx="360.069" cy="106.345" rx="152.724" ry="20.625" transform="translate(171.777 431.161) rotate(-76.354)"/></svg>