<svg xmlns="http://www.w3.org/2000/svg" viewBox="0 0 528.802 210"><defs><style>.cls-1,.cls-3{fill:#366ce1;}.cls-2,.cls-4{fill:#121221;}.cls-3{opacity:0.38;}.cls-4{opacity:0.62;}</style></defs><title>cage</title><g id="Слой_2" data-name="Слой 2"><g id="Work_space" data-name="Work space"><g id="cage"><path class="cls-1" d="M74.81,101.86q6.255,8.22,12.49,16.43a50,50,0,1,1,0-66.58q-6.24,8.22-12.49,16.43a30,30,0,1,0,0,33.72Z"/><path class="cls-1" d="M170.992,44.472C122.485,14,71.344,62.64,96.737,111.235c3.188,6.1,10.816,13.754,16.91,16.959,20.821,10.949,41.7,7.818,56.353-3.2V135h20V78.985A40.743,40.743,0,0,0,170.992,44.472Zm-12.9,65.161c-29.752,18.1-60.828-12.976-42.728-42.728a19.578,19.578,0,0,1,6.538-6.538c29.752-18.1,60.828,12.976,42.728,42.728A19.578,19.578,0,0,1,158.1,109.633Z"/><path class="cls-1" d="M408.99,95a50.01,50.01,0,0,0,0-20,50,50,0,0,0-97.98,0,50.01,50.01,0,0,0,0,20,49.987,49.987,0,0,0,82.67,26.94q-7.965-6.375-15.94-12.75A29.992,29.992,0,0,1,331.72,95ZM360,55a29.979,29.979,0,0,1,28.28,20H331.72A29.979,29.979,0,0,1,360,55Z"/><path class="cls-1" d="M280,45.01a.55.55,0,0,0-.09-.07c-.49-.36-.98-.72-1.48-1.06-.01-.02-.02-.03-.04-.03-.48-.33-.96-.66-1.45-.97q-.15-.1-.33-.21c-.45-.28-.91-.56-1.37-.83-.66-.4-1.35-.78-2.04-1.13-.51-.27-1.01-.53-1.53-.78-.02-.01-.05-.02-.07-.03-.59-.28-1.19-.56-1.79-.82h-.01c-.61-.26-1.22-.51-1.83-.74-.01-.02-.02-.02-.04-.02-.61-.24-1.23-.46-1.85-.67a49.014,49.014,0,0,0-6.86-1.8c-.23-.04-.47-.09-.7-.12-.3-.06-.6-.11-.91-.15-.41-.07-.83-.12-1.24-.18-.46-.06-.92-.11-1.39-.15-.38-.04-.76-.08-1.13-.1-.43-.04-.85-.06-1.28-.08s-.85-.04-1.28-.05S250.43,35,250,35a50.005,50.005,0,0,0-50,50c0,.89.02,1.77.07,2.65.04.83.11,1.65.19,2.46.02.24.05.47.08.71s.05.49.09.74q.06.525.15,1.05c.04.27.08.55.13.82.23,1.38.52,2.73.87,4.06.06.27.14.54.21.8s.15.54.23.79c.12.4.24.81.37,1.21.26.83.54,1.65.86,2.45.14.37.28.74.43,1.1.16.39.32.78.49,1.16.19.44.39.88.59,1.31a47.3,47.3,0,0,0,3.12,5.63c.21.33.42.65.63.97.02.03.04.05.05.07.22.32.44.64.67.96q.69.99,1.44,1.92c.17.22.35.44.53.66q1.245,1.545,2.61,2.97c.28.29.56.58.84.86s.56.56.85.83c0,.01.01.01.02.02q.42.4.87.81c.39.36.8.72,1.21,1.06.3.26.6.51.91.76.85.7,1.73,1.37,2.64,2,.39.27.77.54,1.17.8s.79.52,1.19.77c.34.22.68.43,1.03.63.46.28.94.55,1.42.81,1.25.69,2.53,1.32,3.84,1.9.44.19.87.38,1.32.56.35.15.7.29,1.06.42a47.589,47.589,0,0,0,5.94,1.85c.37.1.75.18,1.13.26.54.13,1.08.24,1.63.34.36.06.72.13,1.08.18.37.07.74.12,1.12.17.31.05.61.08.92.12s.59.07.89.1c.42.04.84.08,1.26.11,1.27.1,2.56.15,3.85.15.43,0,.86-.01,1.29-.02s.86-.02,1.28-.05.85-.04,1.28-.08c.37-.02.75-.06,1.13-.1.47-.04.93-.09,1.39-.15.41-.06.83-.11,1.24-.18.31-.04.61-.09.91-.15.23-.03.47-.08.7-.12a49.014,49.014,0,0,0,6.86-1.8c.62-.21,1.24-.43,1.85-.67.02,0,.03,0,.04-.02.61-.23,1.22-.48,1.83-.74h.01c.6-.26,1.2-.54,1.79-.82.02-.01.05-.02.07-.03.52-.25,1.02-.51,1.53-.78.69-.35,1.38-.73,2.04-1.13.46-.27.92-.55,1.37-.83q.18-.1.33-.21c.49-.31.97-.64,1.45-.97.02,0,.03-.01.04-.03.5-.34.99-.7,1.48-1.06a.55.55,0,0,0,.09-.07V125a30,30,0,0,1-51.21,21.21l-14.14,14.14A49.992,49.992,0,0,0,300,125V85A49.891,49.891,0,0,0,280,45.01Zm-.04,41.53c-.02.48-.06.95-.1,1.42-.02.21-.05.42-.08.63-.03.32-.07.63-.12.94a.355.355,0,0,1-.02.1c-.07.48-.15.94-.25,1.41-.1.49-.21.97-.34,1.45-.11.46-.24.91-.38,1.36a.492.492,0,0,1-.06.17c-.1.36-.22.71-.35,1.05-.05.16-.11.32-.17.48-.11.3-.23.6-.36.88a2.388,2.388,0,0,1-.15.37q-.195.48-.42.93a2.71,2.71,0,0,1-.2.42c-.09.19-.18.39-.29.58-.13.27-.28.54-.42.8-.19.35-.39.7-.6,1.03-.18.29-.36.58-.56.86a2.312,2.312,0,0,1-.27.42c-.5.74-1.03,1.45-1.6,2.14-.25.31-.51.62-.79.92a.234.234,0,0,1-.1.12c-.33.38-.68.74-1.04,1.1s-.73.73-1.11,1.07l-.01.01c-.38.35-.77.68-1.16,1s-.81.65-1.22.95c-.36.27-.72.53-1.1.77q-.465.315-.93.6a1.892,1.892,0,0,1-.28.17q-.345.225-.72.42c-.22.14-.45.26-.68.38-.25.14-.5.26-.75.39a4.45,4.45,0,0,1-.54.25c-.35.18-.7.34-1.06.49a.142.142,0,0,0-.06.02c-.44.19-.9.37-1.36.54-.01,0-.02.01-.04.02q-.66.24-1.35.45a25.927,25.927,0,0,1-2.79.72,1.18,1.18,0,0,1-.2.04c-.42.09-.85.17-1.29.23l-.19.03c-.36.06-.72.1-1.08.14a.249.249,0,0,1-.08.01c-.18.02-.37.04-.55.05-.4.04-.79.07-1.2.09-.51.03-1.02.04-1.54.04s-1.03-.01-1.54-.04c-.41-.02-.8-.05-1.2-.09-.18-.01-.37-.03-.55-.05a.249.249,0,0,1-.08-.01c-.36-.04-.72-.08-1.08-.14l-.19-.03c-.44-.06-.87-.14-1.29-.23a1.18,1.18,0,0,1-.2-.04,25.927,25.927,0,0,1-2.79-.72q-.69-.21-1.35-.45c-.02-.01-.03-.02-.04-.02-.46-.17-.92-.35-1.36-.54a.142.142,0,0,0-.06-.02c-.36-.15-.71-.31-1.06-.49a5.125,5.125,0,0,1-.53-.25c-.26-.12-.51-.25-.76-.39-.23-.12-.46-.24-.68-.38q-.375-.195-.72-.42a1.892,1.892,0,0,1-.28-.17q-.465-.285-.93-.6c-.38-.24-.74-.5-1.1-.77-.41-.3-.82-.62-1.22-.95s-.78-.65-1.16-1l-.01-.01c-.38-.34-.76-.7-1.11-1.07s-.71-.72-1.04-1.1a.234.234,0,0,1-.1-.12c-.28-.3-.54-.61-.79-.92-.57-.69-1.1-1.4-1.6-2.14a2.312,2.312,0,0,1-.27-.42c-.2-.28-.38-.57-.56-.86-.21-.33-.41-.68-.6-1.03-.14-.26-.29-.53-.42-.8-.11-.19-.2-.39-.29-.58a2.71,2.71,0,0,1-.2-.42q-.225-.45-.42-.93a2.388,2.388,0,0,1-.15-.37c-.13-.28-.25-.58-.36-.88-.06-.16-.12-.32-.17-.48-.13-.34-.25-.69-.35-1.05a.492.492,0,0,1-.06-.17c-.14-.45-.27-.9-.38-1.36-.13-.48-.24-.96-.34-1.45-.1-.47-.18-.93-.25-1.41a.355.355,0,0,1-.02-.1c-.05-.31-.09-.62-.12-.94-.03-.21-.06-.42-.08-.63-.04-.47-.08-.94-.1-1.42-.03-.51-.04-1.02-.04-1.53V85a30,30,0,0,1,60,0v.01C280,85.52,279.99,86.03,279.96,86.54Z"/><path class="cls-2" d="M528.8,50V150c0,11.04-22.391,20-50,20s-50-8.96-50-20V50c0-.81.02-1.62.06-2.42.039-.96.12-1.91.22-2.85.03-.33.069-.65.11-.98.089-.77.209-1.54.339-2.3.041-.23.081-.45.12-.68.051-.28.111-.57.171-.84.07-.35.139-.69.22-1.03.02-.11.049-.22.07-.32.09-.36.169-.71.27-1.07.089-.38.19-.76.3-1.13a49.966,49.966,0,0,1,17.26-25.71c.31-.25.63-.49.95-.73.269-.21.54-.41.819-.6a45.056,45.056,0,0,1,4.211-2.71c.349-.2.7-.4,1.049-.59a49.461,49.461,0,0,1,7.881-3.44c.359-.12.72-.24,1.09-.35.39-.12.779-.24,1.18-.35.839-.24,1.69-.46,2.55-.65.33-.08.66-.15,1-.22,1-.21,2.02-.39,3.049-.53l.9-.12c.39-.05.779-.09,1.18-.13a50.125,50.125,0,0,1,10,0c.4.04.789.08,1.18.13l.9.12c1.029.14,2.05.32,3.05.53.339.07.67.14,1,.22.86.19,1.71.41,2.55.65.4.11.789.23,1.179.35.37.11.731.23,1.091.35a49.45,49.45,0,0,1,7.88,3.44c.35.19.7.39,1.05.59a45.04,45.04,0,0,1,4.21,2.71c.28.19.55.39.819.6.32.24.641.48.95.73a49.968,49.968,0,0,1,17.261,25.71c.109.37.21.75.3,1.13.1.36.18.71.271,1.07.02.1.05.21.07.32.08.34.149.68.219,1.03.06.27.12.56.171.84.04.23.079.45.12.68.13.76.25,1.53.339,2.3.041.33.081.65.11.98.1.94.181,1.89.221,2.85C528.781,48.38,528.8,49.19,528.8,50Z"/><ellipse class="cls-3" cx="478.802" cy="150" rx="50" ry="20"/><ellipse class="cls-4" cx="478.802" cy="190" rx="50" ry="20"/></g></g></g></svg>