<svg id="Main" xmlns="http://www.w3.org/2000/svg" viewBox="0 0 300 300"><defs><style>.cls-1,.cls-6,.cls-8{opacity:0.1;}.cls-2{fill:#e1dfdf;}.cls-3,.cls-4,.cls-6{fill:#121221;}.cls-4{opacity:0.2;}.cls-10,.cls-11,.cls-12,.cls-13,.cls-14,.cls-15,.cls-16,.cls-17,.cls-18,.cls-19,.cls-20,.cls-21,.cls-22,.cls-23,.cls-24,.cls-25,.cls-26,.cls-27,.cls-28,.cls-29,.cls-30,.cls-31,.cls-32,.cls-33,.cls-34,.cls-35,.cls-36,.cls-37,.cls-38,.cls-39,.cls-40,.cls-41,.cls-42,.cls-43,.cls-44,.cls-45,.cls-46,.cls-5,.cls-7,.cls-8,.cls-9{fill:#1c1e20;}.cls-5{opacity:0.88;}.cls-7{opacity:0.9;}.cls-9{opacity:0.12;}.cls-10{opacity:0.85;}.cls-11{opacity:0.8;}.cls-12{opacity:0.95;}.cls-13{opacity:0.79;}.cls-14{opacity:0.99;}.cls-15{opacity:0.97;}.cls-17{opacity:0.86;}.cls-18{opacity:0.91;}.cls-19{opacity:0.73;}.cls-20{opacity:0.44;}.cls-21{opacity:0.66;}.cls-22{opacity:0.45;}.cls-23{opacity:0.48;}.cls-24{opacity:0.41;}.cls-25{opacity:0.54;}.cls-26{opacity:0.56;}.cls-27{opacity:0.71;}.cls-28{opacity:0.63;}.cls-29{opacity:0.34;}.cls-30{opacity:0.42;}.cls-31{opacity:0.69;}.cls-32{opacity:0.37;}.cls-33{opacity:0.32;}.cls-34{opacity:0.59;}.cls-35{opacity:0.92;}.cls-36{opacity:0.89;}.cls-37{opacity:0.84;}.cls-38{opacity:0.94;}.cls-39{opacity:0.93;}.cls-40{opacity:0.96;}.cls-41{opacity:0.27;}.cls-42{opacity:0.77;}.cls-43{opacity:0.3;}.cls-44{opacity:0.51;}.cls-45{opacity:0.46;}.cls-46{opacity:0.87;}</style></defs><title>cainandabel</title><g id="Cain_and_Abel" data-name="Cain and Abel"><g class="cls-1"><circle class="cls-2" cx="150" cy="150" r="150"/><circle class="cls-3" cx="150" cy="150" r="130"/></g><path class="cls-4" d="M428.26,693.136a9.227,9.227,0,0,1-1.47,6.96c-2.34,3.36-5.42,2.55-8.79,6.59a15.548,15.548,0,0,0-1.47,2,3.542,3.542,0,0,0-.47-.02c-.53,0-1.03.07-1.33-.26-.52-.57.3-1.55-.19-2.25-.53-.76-1.95-.17-2.37-.91-.27-.47.24-.81.12-1.91-.1-.9-.49-1.11-.31-1.48.3-.64,1.57-.23,1.99-.96.23-.38-.08-.59.1-1.23a2.3,2.3,0,0,1,1.33-1.46c.59-.24.84.13,1.96.03a5.669,5.669,0,0,0,1.02-.19c1.93-.45,2.81.18,4.08-.23,1.02-.34.76-.85,2.45-2.24C426.97,693.876,428.16,693.966,428.26,693.136Z" transform="translate(-346.716 -453.551)"/><path class="cls-5" d="M470.73,680.366a6.12,6.12,0,0,0,.54.79c-1.3.41-1.77.84-4.01,1.62-2.86,1.01-3.6.84-9.55,2.24a3.492,3.492,0,0,0-.63-.68,4.553,4.553,0,0,0-2.49-.76,8.729,8.729,0,0,1-2.94-1.38,35.385,35.385,0,0,1,5.07-.63c5.01-.16,6.57,1.42,8.31,0,1.22-1,.85-2.13,1.77-4.88,1.21-3.62,2.59-3.89,5.62-8.79.67-1.08,1.34-2.26,1.93-3.4C473.34,671,468.1,675.746,470.73,680.366Z" transform="translate(-346.716 -453.551)"/><path class="cls-6" d="M436.25,667.056c-1.47,2.76.02,4.82-2.03,6.68-2.53,2.3-7.42,1.51-10.01.54a22.456,22.456,0,0,1-3.55-1.77c-2.43-1.53-3.52-2.94-3.93-2.66-.15.1-.22.44.93,3.63a26.2,26.2,0,0,0,2.11,4.99c1.07,1.7,1.48,1.39,2.62,3.12,1.49,2.28,1.42,3.34,2.87,6.26,1.6,3.21,2.4,3.37,2.85,4.73-.41-.57-1.6-1.18-3.39-3.08a18.953,18.953,0,0,1-2.41-3.08,19.87,19.87,0,0,1-1.42-2.77c-.61-1.4-.71-2.14-1.12-3.03-1.13-2.45-1.42-2.07-2.53-4.56-1.29-2.88-2.51-5.61-1.65-8.49.49-1.67,1.48-2.69,2.91-4.19a21.215,21.215,0,0,1,5.71-4.18c4.67-2.41,12.44-6.41,22.31-5.83,8.56.51,9.76.63,9.76.63,3.43.37,5.67.76,7.48-.63,1.45-1.12,1.12-2.23,2.79-3.55a6.919,6.919,0,0,1,5.83-1.39c-1.66,3.3.58,7.03,1.52,10.01a14.512,14.512,0,0,1,.42,1.7,16.452,16.452,0,0,0-1.31,1.34c-1.29,1.47-1.39,2.22-1.94,2.79-2.06,2.12-7.45-1.2-13.02-2.53C449.73,659.736,439.08,661.746,436.25,667.056Z" transform="translate(-346.716 -453.551)"/><path class="cls-7" d="M477.64,680.1c-.34.09-.64.16-.85.24a13.951,13.951,0,0,0-4.48.54c-.41.1-.74.19-1.04.28a6.12,6.12,0,0,1-.54-.79c-2.63-4.62,2.61-9.37,3.62-15.87,1.43-2.72,2.44-5.22,1.96-5.55-.28-.19-1.13.41-1.99,1.19a14.512,14.512,0,0,0-.42-1.7c-.94-2.98-3.18-6.71-1.52-10.01,4.66,1.33,5.17,9.46,5.19,10.01.16,2.99-.69,3.3-1.39,7.86-.8,5.19-1.63,10.6,1.14,13.52A2.915,2.915,0,0,0,477.64,680.1Z" transform="translate(-346.716 -453.551)"/><path class="cls-8" d="M538.07,590.916a5.15,5.15,0,0,1-1.08,1.89Q537.5,591.921,538.07,590.916Z" transform="translate(-346.716 -453.551)"/><path class="cls-9" d="M529.95,576.7c-.45.29-.97.63-1.59,1.04-6.3,4.19-9.45,6.28-12.33,9.63a19.841,19.841,0,0,1-3.89,3.72c-2.14,1.5-2.87,1.31-4.57,2.36-3.24,2.02-6.16,6.18-6.08,10.31.05,2.62,1.26,3.02.68,4.74-.95,2.77-4.41,2.66-5.41,5.74-.54,1.66.27,2.26-.51,3.55-1.1,1.82-2.97,1.05-4.39,2.71-1.15,1.33-.37,2.33-1.19,7.09a21.228,21.228,0,0,1-1.18,4.74c-1.1,2.75-2.12,3.21-3.04,5.41a12.579,12.579,0,0,0-.85,6.25,25.311,25.311,0,0,0-4.39,0c-2.57.22-4.66.41-6.59,1.86a7.824,7.824,0,0,0-2.24,2.58c4.66,1.33,5.17,9.46,5.19,10.01.16,2.99-.69,3.3-1.39,7.86-.8,5.19-1.63,10.6,1.14,13.52a2.915,2.915,0,0,0,.32.28c1.28-.31,3.2-.8,3.86-2.27.45-.98-.1-1.45-.12-3.67-.04-3,.92-5.36,1.14-5.33s-.66,2.69.51,5.45a8.656,8.656,0,0,0,2.78,3.43c2.12,1.47,4.15.32,10.78-.51,1.75-.22,3.07-.33,4.08-.36h.01c.19-.13.39-.26.6-.4,1.89-1.26,2.32-1.26,2.79-2.03.96-1.59-.22-2.71.63-3.93,1.05-1.51,3.12-.21,5.07-2.03a10.65,10.65,0,0,0,2.03-3.29c.43-.9.65-1.35.51-1.52-.69-.86-6.66,3.94-7.99,2.79-.94-.82.81-4.17,2.66-7.74,3.25-6.25,4.88-9.37,8.24-11.79,2.14-1.53,3.85-2.03,3.93-3.42.12-1.95-3.15-2.31-4.05-5.07-1.07-3.25,2.79-4.86,2.66-9.89-.09-3.29-1.78-3.63-1.52-7.09.23-3.17,1.81-5.09,1.01-5.84-.33-.31-.84-.22-1.43-.01a42.032,42.032,0,0,0,3.08-4.3,47.483,47.483,0,0,0,4.32-9.19c.01-.01.01-.01,0-.01.15-.4.28-.75.39-1.02a2.781,2.781,0,0,1,.46.13,4.122,4.122,0,0,1,1.48.79,3.916,3.916,0,0,0,.33-.27,3.253,3.253,0,0,1,.02-1.42,4.449,4.449,0,0,1,1.14-2.14c-1.34-3.6-.95-7.41,1.41-16.19C529,579.906,529.5,578.166,529.95,576.7Zm-29.31,93.4a5.129,5.129,0,0,1-3.16,1.52c-.74.06-2.15,0-2.29-.5-.14-.58,1.36-1.78,2.92-2.1a11.835,11.835,0,0,0,2.47-.38c.66-.21,1.03-.44,1.14-.31C501.91,668.526,501.3,669.456,500.64,670.1Zm19.78-63.89c-1.26,2.45-2.06,2.69-4.06,5.84a39.149,39.149,0,0,0-2.3,4.15,1.952,1.952,0,0,1-1.63-.1c-1.52-.99-.78-4.9,0-7.1,1.2-3.32,3.42-5.25,5.71-7.22,1.56-1.36,3.14-2.71,3.8-2.28C522.84,600.066,521.74,603.656,520.42,606.206Z" transform="translate(-346.716 -453.551)"/><path class="cls-10" d="M520.42,606.206c-1.26,2.45-2.06,2.69-4.06,5.84a39.149,39.149,0,0,0-2.3,4.15,1.952,1.952,0,0,1-1.63-.1c-1.52-.99-.78-4.9,0-7.1,1.2-3.32,3.42-5.25,5.71-7.22,1.56-1.36,3.14-2.71,3.8-2.28C522.84,600.066,521.74,603.656,520.42,606.206Z" transform="translate(-346.716 -453.551)"/><path class="cls-8" d="M522.7,614.906a1.408,1.408,0,0,0-.01.21v-.2A.01.01,0,0,0,522.7,614.906Z" transform="translate(-346.716 -453.551)"/><path class="cls-5" d="M522.91,680.926c-1.94,4.68-2,4.83-2.41,5.4-1.46,2.03-2.39,2.5-3.47,4.17a8.65,8.65,0,0,1-1.72-2.31c-.57-1.06-.62-1.47-2.07-4.4-.61-1.22-1.18-2.32-1.69-3.28v-.01c.31-.7.82-1.66,4.05-5.33,1.27-1.43,2.24-2.48,3.05-3.33a11.163,11.163,0,0,0,.33,2.49,12.728,12.728,0,0,0,1.78,3.8A18.507,18.507,0,0,0,522.91,680.926Z" transform="translate(-346.716 -453.551)"/><path class="cls-8" d="M531.3,700.966a1.627,1.627,0,0,1-.23-.11c0-.03.01-.07.01-.1C531.15,700.826,531.22,700.9,531.3,700.966Z" transform="translate(-346.716 -453.551)"/><path class="cls-11" d="M537.22,695.286a11.4,11.4,0,0,0-2.22.46,13.2,13.2,0,0,0-3.77,1.69,17.471,17.471,0,0,1,.56-2.91c.11-.38.23-.77.38-1.19a21.742,21.742,0,0,1,1.76-3.83,8.995,8.995,0,0,1,1.11,1.3,6.461,6.461,0,0,0,1.44,1.52c.02.01.03.02.05.03l.01.01c.07.05.13.1.21.15-.13.03-.26.06-.4.1-.8.24-1.19.35-1.27.64C534.95,693.746,535.82,694.486,537.22,695.286Z" transform="translate(-346.716 -453.551)"/><path class="cls-5" d="M552.91,694.9a11.635,11.635,0,0,1-.29,1.74,12.989,12.989,0,0,1-.47,1.45,1.12,1.12,0,0,0-.38-.9c-.27-.18-.64-.07-1.22.17a15.369,15.369,0,0,0-2.88,1.52c-.1.07-.2.13-.3.19a8.946,8.946,0,0,1-4.13,1.12c-2.67.17-5.41-.95-5.37-1.65.04-.63,2.29-1.02,2.54-1.06a6.778,6.778,0,0,1,1.42-.08c.22,0,.45.01.73,0,2.05-.09,4.15-1.04,4.1-1.52-.07-.62-3.65-.66-5.58-.68a32.385,32.385,0,0,0-3.85.09h-.01c-1.4-.8-2.27-1.54-2.14-2.03.08-.29.47-.4,1.27-.64.14-.04.27-.07.4-.1a7.354,7.354,0,0,0,3.95,1.07c3.43.11,4.58-1.27,9.55-2.02.53-.08.97-.14,1.35-.17h.01a2.832,2.832,0,0,1,1.22,1.35A4.758,4.758,0,0,1,552.91,694.9Z" transform="translate(-346.716 -453.551)"/><path class="cls-12" d="M552.15,698.116a4.359,4.359,0,0,1-.21,1.47c-.78,2.43-3.85,3.38-4.39,3.55-1.58.5-2.13.22-6.3.05-4.91-.21-5.8.12-7.61-.72a10.794,10.794,0,0,1-2.3-1.47,10.941,10.941,0,0,0,1.76.71,27.3,27.3,0,0,0,5.74.76,24.32,24.32,0,0,0,5.24,0,13.173,13.173,0,0,0,3.47-.85,10.928,10.928,0,0,0,3.59-2.35.01.01,0,0,1,.01-.01,9.009,9.009,0,0,0,.98-1.11C552.13,698.136,552.14,698.126,552.15,698.116Z" transform="translate(-346.716 -453.551)"/><path class="cls-8" d="M508.76,707.366a11.606,11.606,0,0,1-1.79,1.93,11.012,11.012,0,0,1,1.28-3.14c.72-1.17,1.8-2.3,2.03-2.15C510.53,704.166,509.86,705.936,508.76,707.366Z" transform="translate(-346.716 -453.551)"/><path class="cls-8" d="M512.05,708.316a6.272,6.272,0,0,1-.69,2.24,7.442,7.442,0,0,1-.19-1.67c.01-1.45.59-2.83.82-2.79C512.2,706.136,512.22,707.336,512.05,708.316Z" transform="translate(-346.716 -453.551)"/><path class="cls-8" d="M514.46,708.316a9.028,9.028,0,0,1-.84,2.42,6.02,6.02,0,0,1-.11-3.05c.2-1.08.64-2.33.89-2.29C514.67,705.446,514.73,706.976,514.46,708.316Z" transform="translate(-346.716 -453.551)"/><path class="cls-8" d="M516.03,710.016a2.528,2.528,0,0,1-.24-1.45c.05-.85.42-1.74.57-1.71C516.57,706.906,516.73,708.716,516.03,710.016Z" transform="translate(-346.716 -453.551)"/><path class="cls-10" d="M529.7,622.966c.03.03.06.07.09.1l.19.03A2.394,2.394,0,0,1,529.7,622.966Zm-.92-23.54a1.493,1.493,0,0,0-.14.12.546.546,0,0,1,.18.01C528.81,599.506,528.79,599.466,528.78,599.426Zm-2.41,3.66c-.04-.1-.09-.19-.14-.29a1.945,1.945,0,0,0,.13.3,1.894,1.894,0,0,0,.09.21A1.945,1.945,0,0,0,526.37,603.086Zm5.71-.85c-.24-.04-.46-.07-.67-.11.12.17.24.32.36.46.14-.09.33-.19.56-.31C532.25,602.266,532.17,602.246,532.08,602.236Zm.74.12h-.02a7.718,7.718,0,0,0-.93.33c.15.18.3.34.45.49a2.838,2.838,0,0,1,1.6-.55C533.65,602.556,533.32,602.466,532.82,602.356Zm2.26.43a1.188,1.188,0,0,1-.25.02,2.252,2.252,0,0,1,.97.83,22.114,22.114,0,0,0,1.5-2.07c.02-.03.03-.05.05-.08A4.1,4.1,0,0,1,535.08,602.786Zm7.31,3.26c-.42-.93-.54-.73-1.75-2.45.14.44.27.85.44,1.35.6,1.68,1.14,2.6,1.04,2.66s-.74-.82-1.23-1.65c-.68-1.17-.68-1.59-1.35-2.6-.5-.75-.93-1.4-1.42-1.35s-.63.74-1.14,1.54c-1.08,1.72-2.93,2.61-3.1,2.43-.08-.08.22-.39.76-.98-.11.01-.21.01-.3.01a2.213,2.213,0,0,1-.82-.25,2.83,2.83,0,0,1,.11.44,1.6,1.6,0,0,1-.25,1.36c-.22.22-.44.14-.66.32-.57.46-.62,1.33-.77,2.25a9.758,9.758,0,0,1-.39,1.66,3.26,3.26,0,0,1,1.24.45c.79.51.88,1.23,2.37,2.16,1.46.92,2.12.69,3.46,1.65.12.09.38.27.66.51a.031.031,0,0,1,.02.01c.16-.13.33-.26.5-.4.22-.17.42-.32.61-.47.36-.3.69-.55.98-.79a.96.96,0,0,0,.15-.14,1.928,1.928,0,0,0,.3-.27,4.272,4.272,0,0,0,.36-.38,3.9,3.9,0,0,0,.53-.79,4.731,4.731,0,0,0,.2-.5,5.35,5.35,0,0,0,.21-1.69A8.866,8.866,0,0,0,542.39,606.046Zm-3.02.67a.645.645,0,0,1,.7-.4.669.669,0,0,1,.53.8.657.657,0,0,1-.7.49A.688.688,0,0,1,539.37,606.716Zm-2.37-.4c.38,0,.71.43.62.7-.08.22-.48.32-.76.21a.54.54,0,0,1-.38-.51A.516.516,0,0,1,537,606.316Zm3.43,4.37c-.43.26-.95-.76-2.48-1.14a9.149,9.149,0,0,0-2.09-.21c-.69.02-1.28.13-1.43-.15-.11-.2.07-.49.08-.5.35-.54,1.33-.47,2.33-.41.3.03.95.16,2.23.43.86.18,1.13.24,1.34.5C540.77,609.666,540.76,610.486,540.43,610.686Z" transform="translate(-346.716 -453.551)"/><path class="cls-12" d="M546.52,607.716c-.06-.24-.11-.49-.16-.76v-.01c-.03-.17-.06-.34-.08-.52a10.534,10.534,0,0,1-.06-1.96v-.02a10.98,10.98,0,0,0-1.54-4.9c0-.01-.01-.01-.01-.02s-.02-.02-.02-.03a18.944,18.944,0,0,0-2.58-2.31,5.426,5.426,0,0,0-1.82-1.01,4.269,4.269,0,0,0-.67-.15c-.64-.09-1.16,0-2.87.59-1.2.42-2.12.73-2.88,1.04.24-.31.49-.66.75-1.04.52-.74,1.07-1.59,1.66-2.57a7.872,7.872,0,0,1,1.86-.19,9.308,9.308,0,0,1,3.44.69c.25.11.44.2.56.26a9.4,9.4,0,0,1,3.24,2.79,9.094,9.094,0,0,1,.5.76,11.9,11.9,0,0,1,1.33,4.11,3.124,3.124,0,0,1,.06.37A9.654,9.654,0,0,1,546.52,607.716Z" transform="translate(-346.716 -453.551)"/><path class="cls-13" d="M531.51,629.346c-.66,1.14-1.13,2.15-1.5,2.95.01.09.03.18.04.28.08.51.15.99.21,1.45-1.54,1.21-3.26,1.87-4.31,1.3-1.68-.93.25-4.08-1.94-8.07-1.51-2.76-3.66-3.49-3.29-4.99a2.2,2.2,0,0,1,.77-1.14,9.094,9.094,0,0,0,3.41,5.37,9.92,9.92,0,0,0,7.3,1.73C531.87,628.726,531.64,629.116,531.51,629.346Z" transform="translate(-346.716 -453.551)"/><path class="cls-8" d="M535,620.626a.534.534,0,0,1-.14.25c.03-.21.07-.42.12-.64A.592.592,0,0,1,535,620.626Z" transform="translate(-346.716 -453.551)"/><path class="cls-8" d="M539.81,615.166c-.17.14-.34.27-.5.4a.031.031,0,0,0-.02-.01C539.46,615.436,539.63,615.306,539.81,615.166Z" transform="translate(-346.716 -453.551)"/><path class="cls-12" d="M533.87,627.736a16.161,16.161,0,0,0-1.32,3.83c-.577,2.767-.11,4.245-.384,7.01a20.063,20.063,0,0,1-1.409,5.593,74.009,74.009,0,0,0-.707-11.593c-.013-.094-.027-.187-.04-.28.37-.8.84-1.81,1.5-2.95.13-.23.36-.62.69-1.12A6.931,6.931,0,0,0,533.87,627.736Z" transform="translate(-346.716 -453.551)"/><path class="cls-12" d="M545.34,597.6a9.4,9.4,0,0,0-3.24-2.79c-.12-.06-.31-.15-.56-.26a3.871,3.871,0,0,1,3.13.89C544.81,595.576,544.98,595.8,545.34,597.6Z" transform="translate(-346.716 -453.551)"/><path class="cls-8" d="M526.45,603.306a1.894,1.894,0,0,1-.09-.21l.01-.01A1.945,1.945,0,0,1,526.45,603.306Z" transform="translate(-346.716 -453.551)"/><path class="cls-14" d="M535.8,603.636c-.44.56-.84,1.01-1.16,1.36-.11.01-.21.01-.3.01a2.213,2.213,0,0,1-.82-.25,4.459,4.459,0,0,0-1.2-1.58,2.838,2.838,0,0,1,1.6-.55h.02a2.418,2.418,0,0,0,.88.18h.01A2.252,2.252,0,0,1,535.8,603.636Z" transform="translate(-346.716 -453.551)"/><path class="cls-14" d="M545.34,603.366a2.429,2.429,0,0,1-.41.84.01.01,0,0,0-.01.01,7.789,7.789,0,0,1-1.84.17,2.738,2.738,0,0,1-1.81-.48c-.12-.1-.64-.52-.56-.99a.788.788,0,0,1,.4-.5,5.726,5.726,0,0,0,1.78-.09c.4-.05.89-.12,1.31-.19.09.09.27.28.68.72C545.09,603.086,545.24,603.246,545.34,603.366Z" transform="translate(-346.716 -453.551)"/><path class="cls-14" d="M540.43,610.686c-.43.26-.95-.76-2.48-1.14a9.149,9.149,0,0,0-2.09-.21c-.69.02-1.28.13-1.43-.15-.11-.2.07-.49.08-.5.35-.54,1.33-.47,2.33-.41.3.03.95.16,2.23.43.86.18,1.13.24,1.34.5C540.77,609.666,540.76,610.486,540.43,610.686Z" transform="translate(-346.716 -453.551)"/><path class="cls-14" d="M540.6,607.116a.657.657,0,0,1-.7.49.688.688,0,0,1-.53-.89.645.645,0,0,1,.7-.4A.669.669,0,0,1,540.6,607.116Z" transform="translate(-346.716 -453.551)"/><path class="cls-14" d="M537.62,607.016c-.08.22-.48.32-.76.21a.54.54,0,0,1-.38-.51.516.516,0,0,1,.52-.4C537.38,606.316,537.71,606.746,537.62,607.016Z" transform="translate(-346.716 -453.551)"/><path class="cls-15" d="M540.64,603.6c-.07-.11-.15-.22-.23-.34-1.37-1.99-1.37-2.24-1.78-2.33-.48-.11-.85.17-1.27.55.6-.94,1.05-1.76,1.55-1.69.26.04.47.31.99,1.65C540.26,602.356,540.46,603,540.64,603.6Z" transform="translate(-346.716 -453.551)"/><path class="cls-12" d="M542.12,607.606c-.11.06-.74-.82-1.23-1.65-.68-1.17-.68-1.59-1.35-2.6-.5-.75-.93-1.4-1.42-1.35s-.63.74-1.14,1.54c-1.08,1.72-2.93,2.61-3.1,2.43-.08-.08.22-.39.76-.98.32-.35.72-.8,1.16-1.36a22.114,22.114,0,0,0,1.5-2.07c.02-.03.03-.05.05-.08l.01-.01c.42-.38.79-.66,1.27-.55.41.09.41.34,1.78,2.33.08.12.16.23.23.34.14.44.27.85.44,1.35C541.68,606.626,542.22,607.546,542.12,607.606Z" transform="translate(-346.716 -453.551)"/><path class="cls-16" d="M541.948,604.773Z" transform="translate(-346.716 -453.551)"/><path class="cls-12" d="M546.31,608.246a7.883,7.883,0,0,0-.54,3.14.143.143,0,0,1-.1.04c-.21-.01-.21-.57-.53-1.6a18.268,18.268,0,0,0,1.12-2.56c0,.24.01.54.04.87A.661.661,0,0,0,546.31,608.246Z" transform="translate(-346.716 -453.551)"/><path class="cls-17" d="M545.14,609.826c-.37.71-.67,1.2-.67,1.2-.23.39-.52.86-1.04,1.74-.58.99-.54.95-.67,1.14a10.153,10.153,0,0,1-2.57,2.25s-.05.04-.15.11a19.343,19.343,0,0,1-2.16,1.32,1.733,1.733,0,0,1-.55.24.453.453,0,0,1-.08.01c-.2.01-.84,1.77-2.26,6.74a.127.127,0,0,0-.01-.06,10.817,10.817,0,0,1-.19-1.24,10.478,10.478,0,0,1,.07-2.4.534.534,0,0,0,.14-.25.592.592,0,0,0-.02-.39,6.726,6.726,0,0,1,.56-1.55.639.639,0,0,0,.31-.18.8.8,0,0,0,.15-.61,4.7,4.7,0,0,1,.35-.43,2.832,2.832,0,0,0,.28.2,2.563,2.563,0,0,0-.62.65c-.9,1.79-.18,3.59-.79,4.56.58-.87.04-2.27.92-4.16a3.9,3.9,0,0,1,.67-.96,25.936,25.936,0,0,1,2.5-2.19c.16-.13.33-.26.5-.4.22-.17.42-.32.61-.47.36-.3.69-.55.98-.79a.96.96,0,0,0,.15-.14,1.928,1.928,0,0,0,.3-.27,4.272,4.272,0,0,0,.36-.38,3.9,3.9,0,0,0,.53-.79,4.731,4.731,0,0,0,.2-.5,5.35,5.35,0,0,0,.21-1.69,8.866,8.866,0,0,0-.76-4.09c-.42-.93-.54-.73-1.75-2.45-.18-.6-.38-1.24-.74-2.16-.52-1.34-.73-1.61-.99-1.65-.5-.07-.95.75-1.55,1.69l-.01.01a4.1,4.1,0,0,1-2.27,1.3,1.188,1.188,0,0,1-.25.02h-.01a2.418,2.418,0,0,1-.88-.18h-.02c-.27-.07-.6-.16-1.1-.27a5.851,5.851,0,0,1,1.51-.23c.84-.02,1.54.15,1.62-.07.05-.14-.19-.38-.41-.5-.25-.15-.71-.29-2.06.22-.41.15-.82.34-1.15.5-.08-.01-.16-.03-.25-.04-.24-.04-.46-.07-.67-.11a1.366,1.366,0,0,1-.15-.21c1.14.05,1.73-1.06,3.59-1.6,1.47-.43,1.08-.12,4.12-.74,1.86-.38,2.73-.64,3.34-.13.44.38.2.71.69,1.38a2.524,2.524,0,0,0,.51.52c-.28-.03-.49-.04-.56-.05-.93-.06-1.37.03-1.71.32-.16.13-.45.45-.36.65a.289.289,0,0,0,.23.15.788.788,0,0,0-.4.5c-.08.47.44.89.56.99a2.738,2.738,0,0,0,1.81.48,7.789,7.789,0,0,0,1.84-.17,2.087,2.087,0,0,1-.63.56c-.9.51-1.92,0-2.07.34a.127.127,0,0,0-.01.06.261.261,0,0,0,.03.11.031.031,0,0,0,.01.02l.06.09a10.363,10.363,0,0,0,1.01,1.05,7.332,7.332,0,0,1,1.77,3.2c.01.04.02.08.03.11A.185.185,0,0,1,545.14,609.826Z" transform="translate(-346.716 -453.551)"/><path class="cls-18" d="M546.36,606.946v.01c-.03.09-.06.19-.1.29v.02a18.268,18.268,0,0,1-1.12,2.56.185.185,0,0,0-.02-.07c-.01-.03-.02-.07-.03-.11a7.332,7.332,0,0,0-1.77-3.2,10.363,10.363,0,0,1-1.01-1.05l-.06-.09a.031.031,0,0,1-.01-.02.261.261,0,0,1-.03-.11.127.127,0,0,1,.01-.06c.15-.34,1.17.17,2.07-.34a2.087,2.087,0,0,0,.63-.56.01.01,0,0,1,.01-.01,2.429,2.429,0,0,0,.41-.84c-.1-.12-.25-.28-.46-.51-.41-.44-.59-.63-.68-.72a5.962,5.962,0,0,0,.64-.16c.21-.06.35-.14.35-.22-.01-.22-1.02-.35-1.68-.41a2.524,2.524,0,0,1-.51-.52c-.49-.67-.25-1-.69-1.38-.61-.51-1.48-.25-3.34.13-3.04.62-2.65.31-4.12.74-1.86.54-2.45,1.65-3.59,1.6a4.607,4.607,0,0,1-.29-.43c-.15-.24-.26-.44-.35-.61a11.311,11.311,0,0,0,3.21-3.22c.76-.31,1.68-.62,2.88-1.04,1.71-.59,2.23-.68,2.87-.59a4.269,4.269,0,0,1,.67.15,5.426,5.426,0,0,1,1.82,1.01,18.944,18.944,0,0,1,2.58,2.31c0,.01.01.02.02.03s.01.01.01.02a10.98,10.98,0,0,1,1.54,4.9v.02a10.534,10.534,0,0,0,.06,1.96C546.3,606.606,546.33,606.776,546.36,606.946Z" transform="translate(-346.716 -453.551)"/><path class="cls-7" d="M545.19,601.756c0,.08-.14.16-.35.22a5.962,5.962,0,0,1-.64.16c-.42.07-.91.14-1.31.19a5.726,5.726,0,0,1-1.78.09.289.289,0,0,1-.23-.15c-.09-.2.2-.52.36-.65.34-.29.78-.38,1.71-.32.07.01.28.02.56.05C544.17,601.406,545.18,601.536,545.19,601.756Z" transform="translate(-346.716 -453.551)"/><path class="cls-7" d="M535.95,602.056c-.08.22-.78.05-1.62.07a5.851,5.851,0,0,0-1.51.23h-.02a7.718,7.718,0,0,0-.93.33.474.474,0,0,1-.1-.1c.14-.09.33-.19.56-.31.33-.16.74-.35,1.15-.5,1.35-.51,1.81-.37,2.06-.22C535.76,601.676,536,601.916,535.95,602.056Z" transform="translate(-346.716 -453.551)"/><path class="cls-19" d="M552.15,698.086v.03c-.01.01-.02.02-.02.03a9.009,9.009,0,0,1-.98,1.11.01.01,0,0,0-.01.01,10.928,10.928,0,0,1-3.59,2.35,13.173,13.173,0,0,1-3.47.85,24.32,24.32,0,0,1-5.24,0,27.3,27.3,0,0,1-5.74-.76,10.941,10.941,0,0,1-1.76-.71c-.02,0-.03-.02-.04-.03-.08-.07-.15-.14-.22-.21.06-.95.02-2,.15-3.31v-.01a13.2,13.2,0,0,1,3.77-1.69,11.4,11.4,0,0,1,2.22-.46h.01a32.385,32.385,0,0,1,3.85-.09c1.93.02,5.51.06,5.58.68.05.48-2.05,1.43-4.1,1.52-.28.01-.51,0-.73,0a6.778,6.778,0,0,0-1.42.08c-.25.04-2.5.43-2.54,1.06-.04.7,2.7,1.82,5.37,1.65a8.946,8.946,0,0,0,4.13-1.12c.1-.06.2-.12.3-.19a15.369,15.369,0,0,1,2.88-1.52c.58-.24.95-.35,1.22-.17A1.12,1.12,0,0,1,552.15,698.086Z" transform="translate(-346.716 -453.551)"/><path class="cls-8" d="M551.15,699.256a9.009,9.009,0,0,0,.98-1.11,3.7,3.7,0,0,1-.32.68A1.146,1.146,0,0,1,551.15,699.256Z" transform="translate(-346.716 -453.551)"/><path class="cls-8" d="M522.7,615.586c.02.57.04,1.32.13,2.16A16.931,16.931,0,0,1,522.7,615.586Z" transform="translate(-346.716 -453.551)"/><path class="cls-8" d="M522.83,617.746a16.931,16.931,0,0,1-.13-2.16C522.72,616.156,522.74,616.906,522.83,617.746Z" transform="translate(-346.716 -453.551)"/><path class="cls-8" d="M522.7,614.906a1.408,1.408,0,0,0-.01.21v-.2A.01.01,0,0,0,522.7,614.906Z" transform="translate(-346.716 -453.551)"/><path class="cls-20" d="M524.48,610.136c-.05.18-.1.34-.15.5-.11-.43-.25-.81-.36-1.13a10.1,10.1,0,0,1-.46-2.18c.03-.9.01-1.74-.03-2.52.03-.4.07-.78.12-1.15.25-.22.51-.46.83-.73C523.76,603.956,524.28,605.876,524.48,610.136Z" transform="translate(-346.716 -453.551)"/><path class="cls-21" d="M525.55,601.976c-.14.11-.27.22-.39.32-.01.01-.01.01-.02.01-.25.22-.49.42-.7.61l-.01.01c-.32.27-.58.51-.83.73-.06.07-.13.13-.19.19a6.881,6.881,0,0,0-1.55,2.03c-.66,1.28-.83,3.33-1.19,7.43-.95,11.04.75,12.88-1.39,17.24-1.31,2.67-2.73,3.58-2.41,5.58.45,2.81,3.6,3.29,3.93,6.21.21,1.87-.88,3.47-2.16,5.32-1.35,1.99-1.97,1.94-4.18,4.31a31.164,31.164,0,0,0-4.94,7.1c-1.13,2.26-2.17,5.14-1.65,5.45.39.24,1.35-1.16,3.93-2.91,1.57-1.07,3.08-2.09,3.68-1.65.95.71-1,4.77-1.14,5.07a20.581,20.581,0,0,1-4.19,5.71c-2.9,2.85-5.05,4.97-6.6,6.43a27.913,27.913,0,0,1-2.91,2.57c-.68.45-1.6,1.06-2.74,1.7-.78.43-1.67.89-2.66,1.33-3.64-.29-3.56.06-8.29-.58-5.19-.71-7.99-1.08-9.31-2.09,1.28-.31,3.2-.8,3.86-2.27.45-.98-.1-1.45-.12-3.67-.04-3,.92-5.36,1.14-5.33s-.66,2.69.51,5.45a8.656,8.656,0,0,0,2.78,3.43c2.12,1.47,4.15.32,10.78-.51,1.75-.22,3.07-.33,4.08-.36h.01c.19-.13.39-.26.6-.4,1.89-1.26,2.32-1.26,2.79-2.03.96-1.59-.22-2.71.63-3.93,1.05-1.51,3.12-.21,5.07-2.03a10.65,10.65,0,0,0,2.03-3.29c.43-.9.65-1.35.51-1.52-.69-.86-6.66,3.94-7.99,2.79-.94-.82.81-4.17,2.66-7.74,3.25-6.25,4.88-9.37,8.24-11.79,2.14-1.53,3.85-2.03,3.93-3.42.12-1.95-3.15-2.31-4.05-5.07-1.07-3.25,2.79-4.86,2.66-9.89-.09-3.29-1.78-3.63-1.52-7.09.23-3.17,1.81-5.09,1.01-5.84-.33-.31-.84-.22-1.43-.01a42.032,42.032,0,0,0,3.08-4.3,47.483,47.483,0,0,0,4.32-9.19c.01-.01.01-.01,0-.01.15-.4.28-.75.39-1.02a2.781,2.781,0,0,1,.46.13A4.122,4.122,0,0,1,525.55,601.976Z" transform="translate(-346.716 -453.551)"/><path class="cls-8" d="M526.45,603.306a1.894,1.894,0,0,1-.09-.21,1.945,1.945,0,0,1-.13-.3c.05.1.1.19.14.29A1.945,1.945,0,0,1,526.45,603.306Z" transform="translate(-346.716 -453.551)"/><path class="cls-22" d="M525.89,602.316c-.23.79-.42,1.65-.64,2.63,0,.02-.01.04-.01.06a15.942,15.942,0,0,0-.38,2.53,11.113,11.113,0,0,1-.38,2.6c-.2-4.26-.72-6.18-.05-7.21l.01-.01c.21-.19.45-.39.7-.61.01,0,.01,0,.02-.01a2.068,2.068,0,0,1,.55-.17C525.78,602.2,525.84,602.256,525.89,602.316Z" transform="translate(-346.716 -453.551)"/><path class="cls-23" d="M529.69,622.966a7.947,7.947,0,0,1-1.79-1.29,10.53,10.53,0,0,1-2.74-3.8c-.06-.14-.12-.3-.18-.45-.51-1.44-.43-2.29-.43-4.49,0-.24,0-.49-.01-.77-.01-.73-.03-1.41-.06-2.03a11.113,11.113,0,0,0,.38-2.6,15.942,15.942,0,0,1,.38-2.53c0-.02.01-.04.01-.06.22-.98.41-1.84.64-2.63a2.617,2.617,0,0,1,.34.48,1.945,1.945,0,0,0,.13.3,1.894,1.894,0,0,0,.09.21,7.112,7.112,0,0,1,.16,2.64v.01c-.1,1.36-.31,3.16-.39,5.67a2.275,2.275,0,0,1-.01.24,17.858,17.858,0,0,1-.24,2.24,16.137,16.137,0,0,1-.61,2.31,4.208,4.208,0,0,0,.07,1.46,4.481,4.481,0,0,0,.85,1.77c.92,1.26,1.56,1.48,3.11,3.01C529.5,622.766,529.6,622.866,529.69,622.966Z" transform="translate(-346.716 -453.551)"/><path class="cls-24" d="M534.14,623.036a1.077,1.077,0,0,1-.21.25,1.512,1.512,0,0,1-.36.18h-.01a5.926,5.926,0,0,1-3.13-.21c-.15-.05-.3-.1-.44-.16h-.01a2.394,2.394,0,0,1-.28-.13h-.01c-.09-.1-.19-.2-.3-.31-1.55-1.53-2.19-1.75-3.11-3.01a4.481,4.481,0,0,1-.85-1.77,4.208,4.208,0,0,1-.07-1.46,16.137,16.137,0,0,0,.61-2.31,17.858,17.858,0,0,0,.24-2.24c.1-.05.2-.1.3-.14a2.535,2.535,0,0,1-.01-.26c0-1.88.43-1.64.51-3.96a18.592,18.592,0,0,0-.04-2.01v-.02c-.04-.48-.08-.91-.13-1.31.13.29.26.6.38.94a12.082,12.082,0,0,1,.52,1.74,7.307,7.307,0,0,1,.13,2.91v.01a11.653,11.653,0,0,0-.3,1.52c-.02.13-.04.26-.05.39a11.429,11.429,0,0,0-.07,1.53,9.812,9.812,0,0,0,.49,2.72,9.327,9.327,0,0,0,3.17,4.27,10.49,10.49,0,0,0,2.16,1.32c.12.05.24.11.37.16C534.13,622.206,534.29,622.776,534.14,623.036Z" transform="translate(-346.716 -453.551)"/><path class="cls-25" d="M527.01,607.506c-.08,2.32-.51,2.08-.51,3.96a2.535,2.535,0,0,0,.01.26c-.1.04-.2.09-.3.14a2.275,2.275,0,0,0,.01-.24c.08-2.51.29-4.31.39-5.67v-.01a7.112,7.112,0,0,0-.16-2.64,1.945,1.945,0,0,0-.08-.22l.27-.39c.05.41.12.89.19,1.45.01,0,.01.01.01.02.05.4.09.83.13,1.31v.02A18.592,18.592,0,0,1,527.01,607.506Z" transform="translate(-346.716 -453.551)"/><path class="cls-8" d="M528.82,599.556a.546.546,0,0,0-.18-.01,1.493,1.493,0,0,1,.14-.12C528.79,599.466,528.81,599.506,528.82,599.556Z" transform="translate(-346.716 -453.551)"/><path class="cls-26" d="M529.2,606.956c-.23-.73-.5-1.53-.84-2.37-.1-.27-.21-.54-.33-.82-.02-.05-.04-.1-.06-.14-.21-.47-.4-.89-.57-1.27-.06-.14-.12-.28-.17-.41a5.8,5.8,0,0,1-.27-.8c-.02-.1-.03-.19-.04-.27.32-.25.67-.52,1.04-.81a4.341,4.341,0,0,0,.47.6c-.23.22-.43.42-.61.62a3.887,3.887,0,0,1,.81.55,2.56,2.56,0,0,1,.31.33,3.758,3.758,0,0,1,.7,1.86A5.465,5.465,0,0,1,529.2,606.956Z" transform="translate(-346.716 -453.551)"/><path class="cls-21" d="M535.47,594.256c-.84.71-1.92,1.52-3.3,2.57-1.3.99-2.42,1.85-3.39,2.6a1.493,1.493,0,0,0-.14.12h-.01c-.23.18-.46.35-.67.52-.37.29-.72.56-1.04.81a1.08,1.08,0,0,1,.19-.78,1.38,1.38,0,0,1,.61-.43q-.135-.24-.27-.54v-.01a7.166,7.166,0,0,1,.85-.95,15.959,15.959,0,0,1,4.16-2.6A18.83,18.83,0,0,1,535.47,594.256Z" transform="translate(-346.716 -453.551)"/><path class="cls-27" d="M533.38,606.556c-.22.22-.44.14-.66.32-.57.46-.62,1.33-.77,2.25a9.758,9.758,0,0,1-.39,1.66,3.549,3.549,0,0,0-.47-.06,4.776,4.776,0,0,1-.81-2.2c-.14-1.33.81-1.77.69-3.3a6.2,6.2,0,0,0-.82-2.31q-.225-.51-.42-.96c-.12-.28-.22-.54-.31-.78a1.736,1.736,0,0,0,.39-.01,2.5,2.5,0,0,0,.81-.29c.09.17.2.37.35.61a4.607,4.607,0,0,0,.29.43,1.366,1.366,0,0,0,.15.21c.12.17.24.32.36.46a.474.474,0,0,0,.1.1c.15.18.3.34.45.49a4.459,4.459,0,0,1,1.2,1.58,2.83,2.83,0,0,1,.11.44A1.6,1.6,0,0,1,533.38,606.556Z" transform="translate(-346.716 -453.551)"/><path class="cls-28" d="M536.24,594.046c-.59.98-1.14,1.83-1.66,2.57-.26.38-.51.73-.75,1.04a11.311,11.311,0,0,1-3.21,3.22,2.5,2.5,0,0,1-.81.29,1.736,1.736,0,0,1-.39.01c.09.24.19.5.31.78a1.513,1.513,0,0,0-.61.11,1.618,1.618,0,0,0-.18.1,2.56,2.56,0,0,0-.31-.33,3.887,3.887,0,0,0-.81-.55c.18-.2.38-.4.61-.62a4.341,4.341,0,0,1-.47-.6c.21-.17.44-.34.67-.52h.01a.546.546,0,0,1,.18.01c-.01-.05-.03-.09-.04-.13.97-.75,2.09-1.61,3.39-2.6,1.38-1.05,2.46-1.86,3.3-2.57a.01.01,0,0,1,.01-.01A6.53,6.53,0,0,1,536.24,594.046Z" transform="translate(-346.716 -453.551)"/><path class="cls-8" d="M528.82,599.556a.546.546,0,0,0-.18-.01,1.493,1.493,0,0,1,.14-.12C528.79,599.466,528.81,599.506,528.82,599.556Z" transform="translate(-346.716 -453.551)"/><path class="cls-21" d="M540.79,585.8c-.91,1.77-1.65,3.13-2.03,3.85q-.36.66-.69,1.26a3.18,3.18,0,0,0,.1-.33c.56-2.18-.17-3.95.93-4.73A1.765,1.765,0,0,1,540.79,585.8Z" transform="translate(-346.716 -453.551)"/><path class="cls-29" d="M538.36,565.646a1.8,1.8,0,0,1-.37.53,2.363,2.363,0,0,1-1.54.74,2.191,2.191,0,0,1-1.53-.61c-1.06-.89-2.02-2.69-3.09-4.72-1.41-2.65-2.89-5.53-2.85-9.44.01-1.35.02-3.01.73-3.91.07.53.15.88.53,1.12a2.028,2.028,0,0,0,1.44.16,3.778,3.778,0,0,0-.17.35c-.66,1.47-.92,3.75.25,5.2a3.893,3.893,0,0,0,2.43,1.29,8.8,8.8,0,0,0,3.68-.25c-.53.87-1.36,1.45-1.48,2.95-.15,1.81.88,3.13,1.56,4.3A2.372,2.372,0,0,1,538.36,565.646Z" transform="translate(-346.716 -453.551)"/><path class="cls-30" d="M544.34,562.946c.04.99-.43,2.29-2.38,3.89l-.01.01a4.814,4.814,0,0,1-.68.13,5.118,5.118,0,0,1-3.28-.8,1.8,1.8,0,0,0,.37-.53,2.372,2.372,0,0,0-.41-2.29c-.68-1.17-1.71-2.49-1.56-4.3.12-1.5.95-2.08,1.48-2.95v-.01a2.889,2.889,0,0,0,.42-1.6,4.2,4.2,0,0,0-.39-1.71,8.7,8.7,0,0,1,3.87.17c-.01.43-.06.86-.11,1.31a9.047,9.047,0,0,0,.14,4.2,5.605,5.605,0,0,0,1.12,2.09C543.61,561.406,544.29,561.846,544.34,562.946Z" transform="translate(-346.716 -453.551)"/><path class="cls-25" d="M538.29,554.5a2.889,2.889,0,0,1-.42,1.6v.01a8.8,8.8,0,0,1-3.68.25,3.893,3.893,0,0,1-2.43-1.29c-1.17-1.45-.91-3.73-.25-5.2a3.778,3.778,0,0,1,.17-.35,4.986,4.986,0,0,1,1.18-1.45,9.741,9.741,0,0,1,1,.59c.5.34.93.67,1.2.89a9.212,9.212,0,0,1,2.84,3.24A4.2,4.2,0,0,1,538.29,554.5Z" transform="translate(-346.716 -453.551)"/><path class="cls-21" d="M547.88,531.256a13.442,13.442,0,0,1-1.26,4.81c-.17.45-.49,1.29-.81,2.26-.31.93-.63,1.99-.84,2.94a11.549,11.549,0,0,0-.26,2.54,1.376,1.376,0,0,1,.36.23c.97.87.92,3.23-.06,5.63v.01c.11,1.14.29,2.71.58,4.76a9.864,9.864,0,0,0-2.29-1.02c-.14-.05-.32-.11-.53-.18-.29-.09-.62-.19-1-.28a4.465,4.465,0,0,0-.65-2.52c-.65-1.09-1.06-.89-1.69-2.11a6.125,6.125,0,0,1-.52-3.17c-.01-.55-.02-1.22-.07-2.07-.19-3.65-.68-4.94.26-5.83a2.191,2.191,0,0,1,.61-.4c.39-.17.74-.23.99-.7.45-.84-.24-1.49-.08-3.04a3.044,3.044,0,0,1,.84-2.2c1.08-.81,2.41.56,3.89-.17,1.31-.64,1.44-2.29,1.94-2.2C547.75,528.636,547.92,530.086,547.88,531.256Z" transform="translate(-346.716 -453.551)"/><path class="cls-31" d="M547.41,559.726a3.234,3.234,0,0,0-1-.11c.13.84.24,1.57.3,2.22a10.527,10.527,0,0,1-.62,1.21c-.58.99-1.87,3.19-4.13,3.79,1.95-1.6,2.42-2.9,2.38-3.89-.05-1.1-.73-1.54-1.42-2.39a5.605,5.605,0,0,1-1.12-2.09,9.047,9.047,0,0,1-.14-4.2c.05-.45.1-.88.11-1.31.38.09.71.19,1,.28.21.07.39.13.53.18a9.864,9.864,0,0,1,2.29,1.02,4.2,4.2,0,0,1,1.26,1.26A5.3,5.3,0,0,1,547.41,559.726Z" transform="translate(-346.716 -453.551)"/><path class="cls-32" d="M541.77,552.956a8.7,8.7,0,0,0-3.87-.17,9.212,9.212,0,0,0-2.84-3.24c-.27-.22-.7-.55-1.2-.89a9.741,9.741,0,0,0-1-.59,13.757,13.757,0,0,1,3.9-2.08,7.591,7.591,0,0,0,1.03-1.95c.55-1.58.19-3.53-.54-7.3.99.03,1.75.05,2.46.12a2.191,2.191,0,0,0-.61.4c-.94.89-.45,2.18-.26,5.83.05.85.06,1.52.07,2.07a6.125,6.125,0,0,0,.52,3.17c.63,1.22,1.04,1.02,1.69,2.11A4.465,4.465,0,0,1,541.77,552.956Z" transform="translate(-346.716 -453.551)"/><path class="cls-33" d="M537.79,544.036a7.591,7.591,0,0,1-1.03,1.95,13.757,13.757,0,0,0-3.9,2.08,4.986,4.986,0,0,0-1.18,1.45,2.028,2.028,0,0,1-1.44-.16c-.38-.24-.46-.59-.53-1.12a8.707,8.707,0,0,0-.61-2.49c-.93-2.22-2.04-2.28-3.8-4.63a13.325,13.325,0,0,1-2.79-7.03,8.561,8.561,0,0,1,.3-3.32v-.01a4.49,4.49,0,0,1,.97-1.68,5.3,5.3,0,0,1,1.33-1.01,7.947,7.947,0,0,1,4.25-1.08c3.52.18,5.66,3.15,6.14,3.87.83,1.22,1.11,2.62,1.65,5.38.03.17.07.34.1.5C537.98,540.506,538.34,542.456,537.79,544.036Z" transform="translate(-346.716 -453.551)"/><path class="cls-22" d="M553.39,527.186a37.607,37.607,0,0,0-3.65,11.2l-.33.03a13.056,13.056,0,0,1-3.13-.02c-.17-.02-.33-.05-.47-.07.32-.97.64-1.81.81-2.26a13.442,13.442,0,0,0,1.26-4.81c.04-1.17-.13-2.62-.59-2.71-.5-.09-.63,1.56-1.94,2.2-1.48.73-2.81-.64-3.89.17a3.044,3.044,0,0,0-.84,2.2c-.16,1.55.53,2.2.08,3.04-.25.47-.6.53-.99.7-.71-.07-1.47-.09-2.46-.12-.03-.16-.07-.33-.1-.5-.54-2.76-.82-4.16-1.65-5.38-.48-.72-2.62-3.69-6.14-3.87a7.947,7.947,0,0,0-4.25,1.08,5.3,5.3,0,0,0-1.33,1.01,4.49,4.49,0,0,0-.97,1.68,13.764,13.764,0,0,1,.31-2.46,12.119,12.119,0,0,1,2.08-4.39,2,2,0,0,0,1.62-.6c.72-.79.49-1.76.44-4.62-.01-1.08.01-1.87.06-2.48.48.53.99,1.04,1.52,1.54.21.2.43.39.65.57.2.17.4.34.6.5s.4.32.61.48a28.98,28.98,0,0,0,3.3,2.18c.18.11.36.21.54.31.32.17.63.34.96.51.21.11.43.22.65.32.97.48,1.98.92,3,1.32.39.16.79.31,1.19.45.14.06.28.11.43.16.35.12.71.24,1.06.35q.33.12.66.21c.28.09.55.17.82.25.34.1.68.19,1.02.28.25.07.5.13.75.19q.3.09.6.15c.96.23,1.91.42,2.85.59.54.1,1.07.18,1.6.26C551.24,527,552.33,527.116,553.39,527.186Z" transform="translate(-346.716 -453.551)"/><path class="cls-34" d="M550.13,526.826c-.53-.08-1.06-.16-1.6-.26-.94-.16-1.9-.36-2.85-.59q-.3-.06-.6-.15c-.25-.06-.5-.12-.75-.19-.34-.09-.68-.18-1.02-.28-.27-.08-.54-.16-.82-.25q-.33-.09-.66-.21c-.35-.11-.71-.23-1.06-.35-.15-.05-.29-.1-.43-.16-.4-.14-.8-.29-1.19-.45-1.02-.4-2.03-.84-3-1.32-.22-.1-.44-.21-.65-.32-.33-.17-.64-.34-.96-.51-.18-.1-.36-.2-.54-.31a28.98,28.98,0,0,1-3.3-2.18c-.21-.16-.41-.32-.61-.48s-.4-.33-.6-.5c-.22-.18-.44-.37-.65-.57-.27-.25-.53-.5-.78-.76s-.5-.52-.74-.78v-.01a12.655,12.655,0,0,0,.13-3.09c-.05-.34-.12-.76-.22-1.23.01,0,.02-.01.03-.02,6.07.95,17.12,2.22,21.13,9.42A16.315,16.315,0,0,1,550.13,526.826Z" transform="translate(-346.716 -453.551)"/><path class="cls-8" d="M512.56,482.746c-3.85-.72-5.13-1.12-6.67-1.38.21.02.36.04.46.05S506.36,481.416,512.56,482.746Z" transform="translate(-346.716 -453.551)"/><path class="cls-35" d="M532.64,490.616c-.84-.28-1.8-.53-2.85-.9q-.645-.225-1.32-.51a8.692,8.692,0,0,1-3.45-2.47,3.349,3.349,0,0,0,.34.26c1.37.94,1.99.4,3.81,1.07A8.975,8.975,0,0,1,532.64,490.616Z" transform="translate(-346.716 -453.551)"/><path class="cls-17" d="M485.76,491.246a3.86,3.86,0,0,1-2.73-2.04,3.517,3.517,0,0,1-.19-1.79c.96.43,1.78.78,2.48,1.07C485.49,489.786,486.24,490.866,485.76,491.246Z" transform="translate(-346.716 -453.551)"/><path class="cls-36" d="M473.81,481.816c-.03.58.66,1.07,2.54,2.2,1.47.88,2.32,1.37,2.79,1.63a8.328,8.328,0,0,1-.53,1.2,6.953,6.953,0,0,0-.91.75,7.1,7.1,0,0,0-2.01,2.42,2.658,2.658,0,0,1-.4-.17c-1.01-.53-1.53-1.45-2.53-3.3-.89-1.63-1.52-2.79-1.21-4.12a2.288,2.288,0,0,1,.08-.28v-.01a11.406,11.406,0,0,1,2.92-3.18,16.674,16.674,0,0,0,1.95-1.41c.32-.26.58-.48.79-.66a2.323,2.323,0,0,1,1.36-.73c.78-.06,1.3.38,2.09.89-.73-.28-1.63.22-2.48.88-.42.32-.83.69-1.19,1.02a3.135,3.135,0,0,0-.89,1.14,4.565,4.565,0,0,0-.21.62,1.34,1.34,0,0,0-.93-.07A1.626,1.626,0,0,0,473.81,481.816Z" transform="translate(-346.716 -453.551)"/><path class="cls-37" d="M485.76,491.246c-.56.44-1.61-.94-3.79-1.49-2.93-.73-4.37.94-6.28.27v-.01a7.1,7.1,0,0,1,2.01-2.42,6.953,6.953,0,0,1,.91-.75,8.328,8.328,0,0,0,.53-1.2,5.575,5.575,0,0,0,.55.31c1.19.56,2.23,1.05,3.15,1.46a3.517,3.517,0,0,0,.19,1.79A3.86,3.86,0,0,0,485.76,491.246Z" transform="translate(-346.716 -453.551)"/><path class="cls-38" d="M492.46,482.716c-.65.31-5.53,1.35-6.84,3.9-.67-.17-1.4-.37-2.18-.63.77-.89,2.56-1.58,7.4-2.85.23-.05.45-.11.65-.17C491.83,482.876,492.15,482.8,492.46,482.716Z" transform="translate(-346.716 -453.551)"/><path class="cls-8" d="M492.53,482.656c0,.01-.02.03-.07.06-.31.08-.63.16-.97.25A4.475,4.475,0,0,1,492.53,482.656Z" transform="translate(-346.716 -453.551)"/><path class="cls-37" d="M490.04,489.466c-.43.35-1.1.51-4.72-.98-.7-.29-1.52-.64-2.48-1.07-.92-.41-1.96-.9-3.15-1.46a5.575,5.575,0,0,1-.55-.31c-.47-.26-1.32-.75-2.79-1.63-1.88-1.13-2.57-1.62-2.54-2.2a1.626,1.626,0,0,1,1.23-1.18,1.34,1.34,0,0,1,.93.07,1.72,1.72,0,0,0,.17,1.49,1.826,1.826,0,0,0,1.73.25,13.655,13.655,0,0,0,1.67,1.62,8.878,8.878,0,0,0,2.13,1.26c.6.25,1.2.47,1.77.66.78.26,1.51.46,2.18.63a24.419,24.419,0,0,0,3.28.57c.4.03,1.53.1,1.77.71A1.617,1.617,0,0,1,490.04,489.466Z" transform="translate(-346.716 -453.551)"/><path class="cls-8" d="M512.56,482.746c-3.85-.72-5.13-1.12-6.67-1.38.21.02.36.04.46.05S506.36,481.416,512.56,482.746Z" transform="translate(-346.716 -453.551)"/><path class="cls-39" d="M524.56,486.286a9.142,9.142,0,0,0-2.49-1.64,8.091,8.091,0,0,0-1.76-.64,4.2,4.2,0,0,1,2.39.39C523.69,484.926,523.93,485.6,524.56,486.286Z" transform="translate(-346.716 -453.551)"/><path class="cls-38" d="M520.29,484.006c-.3,0-.64.01-1.01.01-.84-.01-1.13-.07-6.72-1.27C517.35,483.646,519.02,483.716,520.29,484.006Z" transform="translate(-346.716 -453.551)"/><path class="cls-16" d="M529.3,509.746c.12.42-1.14,1.45-2.04,2.11-.01.01-.02.02-.03.02-.33.24-.59.43-.73.53-.19.14-.65.46-1.35.87-.17.09-.36.2-.56.31a27.383,27.383,0,0,1-3.66,1.61,9.455,9.455,0,0,1-3.59.86,1.62,1.62,0,0,1-.22-.01,3.794,3.794,0,0,1-.54-.09c-.92-.2-1.38-.61-2.36-.79-.6-1.5-1.16-2.36-.71-3.71,1.09-3.28,6.88-5.65,10.43-4.28,0,.01,0,.01-.01.02a3.593,3.593,0,0,1-.12.47,7.23,7.23,0,0,1-.55,1.25c-.49.91-.99,1.51-.73,1.8.12.14.33.09.7-.01.16-.06.35-.13.57-.2a10.519,10.519,0,0,1,1.18-.3c.64-.13,1.18-.23,1.64-.31.69-.12,1.19-.2,1.56-.24.1-.01.18-.02.26-.03a2.829,2.829,0,0,1,.72-.01.339.339,0,0,1,.08.03.133.133,0,0,1,.05.06C529.29,509.716,529.3,509.726,529.3,509.746Z" transform="translate(-346.716 -453.551)"/><path class="cls-16" d="M524.05,506.156a4.76,4.76,0,0,1-.11,1.02c-3.55-1.37-9.34,1-10.43,4.28-.45,1.35.11,2.21.71,3.71-.12-.02-.25-.04-.39-.05a5.383,5.383,0,0,0-1.06-.01,10.42,10.42,0,0,0-3.25,1.1c-.14.06-.27.13-.39.19h-.01c-2.6,1.32-2.35,2.21-4.08,2.69-2.97.82-4.83-1.49-6.51-.26a1.065,1.065,0,0,0-.3.3c-.01.01-.01.01-.01.02-.02.05-.05.16-.09.31-.01-.04-.01-.08-.02-.11a15.072,15.072,0,0,1-1.44,2.7,15.561,15.561,0,0,0-1.52,2.36c-.65,1.52-.55,2.66-.93,2.71-.24.02-.44-.44-1.01-1.44a25.391,25.391,0,0,0-1.44-2.28c-1.2-1.62-2.16-1.02-3.21-2.37-1.14-1.46-.27-2.48-1.44-3.97-1.13-1.45-2.78-1.55-2.7-2.03.11-.62,2.9-.51,5.07-1.69a3.994,3.994,0,0,0,1.1-.84,3.814,3.814,0,0,0,.93-1.69c.3-1.59-1.32-2.23-1.27-4.31.01-.45.03-1.19.51-1.53.72-.5,1.78.39,2.28-.08.38-.35-.12-.98.08-2.45a6.127,6.127,0,0,1,2.03-3.72,7.627,7.627,0,0,1,3.21-1.86c1.07-.28,1.6-.12,3.72,0a28.224,28.224,0,0,0,4.56.09,12.332,12.332,0,0,0,2.33-.48c1.79-.55,2.72-1.23,3.67-.62a2.522,2.522,0,0,1,.89,1.21c.22.47.43.89.97.99.59.11.92-.23,1.49-.48a2.121,2.121,0,0,1,.63-.2c1.96-.35,3.83,1.55,4.39,2.11a10.335,10.335,0,0,1,2.11,3.55A7.817,7.817,0,0,1,524.05,506.156Z" transform="translate(-346.716 -453.551)"/><path class="cls-16" d="M515.29,533.9c-.16.89-1.33,1.38-1.97,1.65a9.313,9.313,0,0,1-5.2.25,10.473,10.473,0,0,1-4.12-1.21,8.818,8.818,0,0,1-2.72-2.47c-.75-1.03-1.86-2.55-1.27-3.55a1.263,1.263,0,0,1,.43-.43c.3.58.64.98,1,.97a.721.721,0,0,0,.43-.19,31.788,31.788,0,0,0,2.79,2.36c.14.1.27.19.4.27a2.367,2.367,0,0,0,2.13.51c.75-.31.66-1.11,1.64-1.86a2.774,2.774,0,0,1,.31-.21,4.2,4.2,0,0,1,.94-.44,1.644,1.644,0,0,1,1.34.02c.75.43.41,1.49,1.01,1.81h.01c.27,1.07.77,1.94,1.26,1.95.36,0,.71-.48,1-1.11A3.791,3.791,0,0,1,515.29,533.9Z" transform="translate(-346.716 -453.551)"/><path class="cls-38" d="M514.08,523.086a31.912,31.912,0,0,1-1.01,3.14c-.24.76-.43,1.36-.58,1.87a3.694,3.694,0,0,0-2.54.18c-.01-.12-.03-.26-.05-.4-.15-1.06-.21-1.13-.13-1.4.25-.85,1.08-.81,1.3-1.61.2-.74-.39-1.13-.09-1.62s.98-.23,1.45-.82a1.247,1.247,0,0,0,.23-1.21c-.32-.68-1.51-.64-1.72-.63a4.364,4.364,0,0,0-2.37,1.17c-1.11.8-1.66,1.2-1.87,1.77-.33.88.37,1.2.63,2.92s-.26,2.26.29,2.98a1.933,1.933,0,0,0,.35.35,2.147,2.147,0,0,1-1.49.82,2.776,2.776,0,0,1-1.03-.13,7.014,7.014,0,0,0,.2-.82,11.392,11.392,0,0,0,.13-2.34c.02-2.2.1-3.15,0-5.07-.02-.39-.04-.69-.07-.93.05-.02.11-.04.16-.06.84-.34.95-.89,1.78-1.74a19.026,19.026,0,0,1,2.79-1.84c.55-.34.99-.59,1.32-.8a3.377,3.377,0,0,1,1.66.83,3.591,3.591,0,0,1,.72,1.68A7.974,7.974,0,0,1,514.08,523.086Z" transform="translate(-346.716 -453.551)"/><path class="cls-40" d="M504.95,527.936c-.03.82-.1,1.57-.17,2.19a16.83,16.83,0,0,1-1.22-1.18,6.425,6.425,0,0,0-1.15-1.05,1.553,1.553,0,0,0,.04-.37c-.02-.67-.49-.82-1.14-1.81a6.245,6.245,0,0,1-.63-1.23c.39.45.66.46,1.64,1.01,1.13.62,1.48,1,1.81.82.21-.11.27-.36.35-.69a2.8,2.8,0,0,0,.07-.91A10.728,10.728,0,0,1,504.95,527.936Z" transform="translate(-346.716 -453.551)"/><path class="cls-40" d="M510.98,523.246c-.3.49.29.88.09,1.62-.22.8-1.05.76-1.3,1.61-.08.27-.02.34.13,1.4.02.14.04.28.05.4a.358.358,0,0,0-.11.04,5.411,5.411,0,0,0-1.87,1.46,1.933,1.933,0,0,1-.35-.35c-.55-.72-.03-1.27-.29-2.98s-.96-2.04-.63-2.92c.21-.57.76-.97,1.87-1.77a4.364,4.364,0,0,1,2.37-1.17c.21-.01,1.4-.05,1.72.63a1.247,1.247,0,0,1-.23,1.21C511.96,523.016,511.27,522.746,510.98,523.246Z" transform="translate(-346.716 -453.551)"/><path class="cls-36" d="M511.76,516.866c-.33.21-.77.46-1.32.8a19.026,19.026,0,0,0-2.79,1.84c-.83.85-.94,1.4-1.78,1.74-.05.02-.11.04-.16.06-.06-.73-.14-.9-.25-.91-.19-.04-.46.45-.68,1.03-.19,0-.42-.01-.68-.02a5.891,5.891,0,0,1-2.66-.51c-.51-.25-.72-.48-.95-.38-.38.18-.33,1.05-.29,1.59a8.875,8.875,0,0,0,.14,1.17,5.728,5.728,0,0,0,.33,1.2.01.01,0,0,0,.01.01,6.245,6.245,0,0,0,.63,1.23c.65.99,1.12,1.14,1.14,1.81a1.553,1.553,0,0,1-.04.37c-.02-.01-.04-.01-.05-.02a2.244,2.244,0,0,0-1.55.06,1.328,1.328,0,0,0-.37.2,7.409,7.409,0,0,1-.44-.98c-.26-.67-.48-1.39-.65-1.95a22.752,22.752,0,0,1-.57-2.34c-.32-1.49-.53-2.59-.65-3.4v-.01c.04-.15.07-.26.09-.31,0-.01,0-.01.01-.02a1.065,1.065,0,0,1,.3-.3c1.68-1.23,3.54,1.08,6.51.26,1.73-.48,1.48-1.37,4.08-2.69h.01a12.78,12.78,0,0,1,1.5.19C511.07,516.676,511.45,516.776,511.76,516.866Z" transform="translate(-346.716 -453.551)"/><path class="cls-14" d="M514.7,532.216c-.29.63-.64,1.11-1,1.11-.49-.01-.99-.88-1.26-1.95h-.01c-.6-.32-.26-1.38-1.01-1.81a1.644,1.644,0,0,0-1.34-.02,4.2,4.2,0,0,0-.94.44,2.774,2.774,0,0,0-.31.21c-.98.75-.89,1.55-1.64,1.86a2.367,2.367,0,0,1-2.13-.51c-.13-.08-.26-.17-.4-.27a31.788,31.788,0,0,1-2.79-2.36.721.721,0,0,1-.43.19c-.36.01-.7-.39-1-.97a1.328,1.328,0,0,1,.37-.2,2.244,2.244,0,0,1,1.55-.06c.01.01.03.01.05.02a6.425,6.425,0,0,1,1.15,1.05,16.83,16.83,0,0,0,1.22,1.18,1.931,1.931,0,0,0,.36.22,2.22,2.22,0,0,0,.31.12,2.776,2.776,0,0,0,1.03.13,2.147,2.147,0,0,0,1.49-.82,5.411,5.411,0,0,1,1.87-1.46.358.358,0,0,1,.11-.04,3.694,3.694,0,0,1,2.54-.18,1.225,1.225,0,0,1,.45.28c.28.29.17.47.63,1.59a9.855,9.855,0,0,0,.51,1.03c.08.16.19.36.32.62Z" transform="translate(-346.716 -453.551)"/><path class="cls-7" d="M516.09,526.486c-.02.21-.05.43-.08.66a17.134,17.134,0,0,1-.41,2.31c-.02.08-.04.17-.07.28l-.01.01a14.8,14.8,0,0,1-.82,2.47l-.3-.6c-.13-.26-.24-.46-.32-.62a9.855,9.855,0,0,1-.51-1.03c-.46-1.12-.35-1.3-.63-1.59a1.225,1.225,0,0,0-.45-.28c.15-.51.34-1.11.58-1.87a31.912,31.912,0,0,0,1.01-3.14,7.974,7.974,0,0,0,.06-3.71,3.591,3.591,0,0,0-.72-1.68,3.377,3.377,0,0,0-1.66-.83c-.31-.09-.69-.19-1.13-.28a12.78,12.78,0,0,0-1.5-.19c.12-.06.25-.13.39-.19a10.42,10.42,0,0,1,3.25-1.1,5.383,5.383,0,0,1,1.06.01c.14.01.27.03.39.05a13.809,13.809,0,0,1,.94,4.15c.32,4.16-1.01,6.49.06,7.16A.868.868,0,0,0,516.09,526.486Z" transform="translate(-346.716 -453.551)"/><path class="cls-40" d="M505.78,527.306a11.392,11.392,0,0,1-.13,2.34,7.014,7.014,0,0,1-.2.82,2.22,2.22,0,0,1-.31-.12,1.931,1.931,0,0,1-.36-.22c.07-.62.14-1.37.17-2.19a10.728,10.728,0,0,0-.4-3.22,2.8,2.8,0,0,1-.07.91c-.08.33-.14.58-.35.69-.33.18-.68-.2-1.81-.82-.98-.55-1.25-.56-1.64-1.01a.01.01,0,0,1-.01-.01,5.728,5.728,0,0,1-.33-1.2,8.875,8.875,0,0,1-.14-1.17c-.04-.54-.09-1.41.29-1.59.23-.1.44.13.95.38a5.891,5.891,0,0,0,2.66.51c.26.01.49.02.68.02.22-.58.49-1.07.68-1.03.11.01.19.18.25.91.03.24.05.54.07.93C505.88,524.156,505.8,525.106,505.78,527.306Z" transform="translate(-346.716 -453.551)"/><path class="cls-40" d="M485.39,481.186c-.42.52-1.73-.51-3.59-.22-.92.15-.84.5-2.19.98h-.01a12.035,12.035,0,0,1-1.73.5,1.826,1.826,0,0,1-1.73-.25,1.72,1.72,0,0,1-.17-1.49,4.565,4.565,0,0,1,.21-.62,3.135,3.135,0,0,1,.89-1.14c.36-.33.77-.7,1.19-1.02.85-.66,1.75-1.16,2.48-.88a3.487,3.487,0,0,0,.31.18c.01.01.02.01.02.02.6.52.5,1.61,1.49,2.03.91.39,1.57-.25,2.28.26C485.4,479.936,485.68,480.826,485.39,481.186Z" transform="translate(-346.716 -453.551)"/><path class="cls-16" d="M471.55,482.426c-.31,1.33.32,2.49,1.21,4.12,1,1.85,1.52,2.77,2.53,3.3a2.658,2.658,0,0,0,.4.17v.02h-.01c-1.64.6-2.96-.84-6.09-2.19-3.24-1.4-3.64-.63-4.94-1.69-2.19-1.78-3.34-5.82-1.78-8.45,2.03-3.4,7.53-2.62,10.48-2.2a7.338,7.338,0,0,1,3.85,1.31c.03.02.06.05.09.07-.21.18-.47.4-.79.66a16.674,16.674,0,0,1-1.95,1.41,11.406,11.406,0,0,0-2.92,3.18v.01A2.288,2.288,0,0,0,471.55,482.426Z" transform="translate(-346.716 -453.551)"/><path class="cls-17" d="M490.84,483.136c-4.84,1.27-6.63,1.96-7.4,2.85-.57-.19-1.17-.41-1.77-.66a8.878,8.878,0,0,1-2.13-1.26,13.655,13.655,0,0,1-1.67-1.62,12.035,12.035,0,0,0,1.73-.5h.01c1.35-.48,1.27-.83,2.19-.98,1.86-.29,3.17.74,3.59.22.29-.36.01-1.25-.55-1.65-.71-.51-1.37.13-2.28-.26-.99-.42-.89-1.51-1.49-2.03,2.15,1.27,2.73.66,4.05,1.7,1.93,1.5,1.25,3.12,2.85,3.97A4.276,4.276,0,0,0,490.84,483.136Z" transform="translate(-346.716 -453.551)"/><path class="cls-37" d="M553.29,631.306a6.054,6.054,0,0,1-2.11,2.28c-1.46,1.06-1.97.74-2.54,1.44-.76.95-.41,2.31.34,5.58.38,1.63.67,3.28,1.1,4.9,1.62,6.1.24,7.48,1.61,16.48a30.7,30.7,0,0,1-5.03,10.9c-1.98,2.81-2.98,3.35-6.29,7.62a.241.241,0,0,0-.06.08,48.814,48.814,0,0,0-4.68,6.16c-.63.99-1.2,1.88-1.7,2.76a21.742,21.742,0,0,0-1.76,3.83c-.15.42-.27.81-.38,1.19-.84,1.09-1.84,2.58-3.34,4.54a.209.209,0,0,1-.04.06c-2.62,3.44-4.06,5.32-4.57,5.07-.61-.3,0-3.84,1.97-7.11.18-.3.37-.59.57-.88,1.38-2,1.87-1.71,3.42-3.8a13.545,13.545,0,0,0,2.18-4.55,30.267,30.267,0,0,1,1.62-3.81c1.93-3.86,2.68-3.77,3.81-6.85,1.21-3.32.36-3.45,1.52-6.08,1.23-2.8,2.24-2.78,4.69-7.23a14.383,14.383,0,0,0,1.64-4.31,15.748,15.748,0,0,0,.26-2.79c.22-4.86,1.42-6.45,1.01-10.52-.18-1.8-.52-2.49-1.01-2.66-.98-.34-1.99,1.57-3.3,1.27a2.236,2.236,0,0,1-1.52-2.16c.13-1.73,3.16-2.22,3.04-3.55-.06-.69-.94-1.25-1.64-1.39-1.67-.35-3.17,1.41-3.3,1.27-.15-.18,1.98-2.78,5.7-5.58,2.09-1.57,2.1-1.26,4.44-2.92a50.526,50.526,0,0,0,4.29-3.44,2.618,2.618,0,0,1,.23.32C554.38,628.956,553.5,630.886,553.29,631.306Z" transform="translate(-346.716 -453.551)"/><path class="cls-41" d="M540.38,624.966c-.08.03-.18.07-.29.11-.81.29-2.18.75-2.73.28-.39.83-.89,1.91-1.56,3.25-1.61,3.24-2.08,3.76-2.54,5.49a18.274,18.274,0,0,0-.59,3.97,27.366,27.366,0,0,0,.26,4.48,25.945,25.945,0,0,1-.51,8.79c-.54,1.99-.79,1.36-2.37,5.07a36.31,36.31,0,0,0-3.04,10.23c-.25,2.08-.05,2.37-.42,4.31a28.108,28.108,0,0,1-2.03,6c-.67,1.6-1.21,2.91-1.65,3.98-1.94,4.68-2,4.83-2.41,5.4-1.46,2.03-2.39,2.5-3.47,4.17a11.373,11.373,0,0,0-.67,1.15c-.92,1.78-.87,2.43-1.94,3.97-.84,1.21-1,1.01-3.8,3.81-2.29,2.28-2.61,2.85-3.89,3.46-1.14.54-1.44.36-2.62,1.01-1.15.65-2.75,1.53-2.87,2.96a3.377,3.377,0,0,0,5.73,2.44,11.012,11.012,0,0,1,1.28-3.14c.72-1.17,1.8-2.3,2.03-2.15.25.16-.42,1.93-1.52,3.36a11.606,11.606,0,0,1-1.79,1.93,2.313,2.313,0,0,0,.39,2.13,2.74,2.74,0,0,0,2.98.12,2.5,2.5,0,0,0,1.02-.99,7.442,7.442,0,0,1-.19-1.67c.01-1.45.59-2.83.82-2.79.21.04.23,1.24.06,2.22a6.272,6.272,0,0,1-.69,2.24c.2.79.52,1.45.95,1.5s.91-.51,1.31-1.31a.924.924,0,0,0,.46.49c.52.2,1.16-.3,1.27-.38a2.625,2.625,0,0,0,.68-.84,2.528,2.528,0,0,1-.24-1.45c.05-.85.42-1.74.57-1.71.21.05.37,1.86-.33,3.16a1,1,0,0,0,.21.26c.67.64,1.93.34,2.66-.12.55-.35.62-.68,1.01-1.08,1.08-1.1,2.81-.9,3.81-.95,3.13-.17,5.56-3.24,6.08-3.89a5.677,5.677,0,0,0,1.27-3.38c0-.03.01-.07.01-.1.06-.95.02-2,.15-3.31v-.01a17.471,17.471,0,0,1,.56-2.91c-.84,1.09-1.84,2.58-3.34,4.54a.209.209,0,0,1-.04.06c-2.62,3.44-4.06,5.32-4.57,5.07-.61-.3,0-3.84,1.97-7.11.18-.3.37-.59.57-.88,1.38-2,1.87-1.71,3.42-3.8a13.545,13.545,0,0,0,2.18-4.55,30.267,30.267,0,0,1,1.62-3.81c1.93-3.86,2.68-3.77,3.81-6.85,1.21-3.32.36-3.45,1.52-6.08,1.23-2.8,2.24-2.78,4.69-7.23a14.383,14.383,0,0,0,1.64-4.31,15.748,15.748,0,0,0,.26-2.79c.22-4.86,1.42-6.45,1.01-10.52-.18-1.8-.52-2.49-1.01-2.66-.98-.34-1.99,1.57-3.3,1.27a2.236,2.236,0,0,1-1.52-2.16c.13-1.73,3.16-2.22,3.04-3.55-.06-.69-.94-1.25-1.64-1.39-1.67-.35-3.17,1.41-3.3,1.27-.15-.18,1.98-2.78,5.7-5.58,2.09-1.57,2.1-1.26,4.44-2.92a50.526,50.526,0,0,0,4.29-3.44,11.583,11.583,0,0,1,2.28-1.67C547.33,625.136,544.83,623.416,540.38,624.966Zm-25.92,83.35a9.028,9.028,0,0,1-.84,2.42,6.02,6.02,0,0,1-.11-3.05c.2-1.08.64-2.33.89-2.29C514.67,705.446,514.73,706.976,514.46,708.316Z" transform="translate(-346.716 -453.551)"/><path class="cls-8" d="M508.76,707.366a11.606,11.606,0,0,1-1.79,1.93,11.012,11.012,0,0,1,1.28-3.14c.72-1.17,1.8-2.3,2.03-2.15C510.53,704.166,509.86,705.936,508.76,707.366Z" transform="translate(-346.716 -453.551)"/><path class="cls-8" d="M512.05,708.316a6.272,6.272,0,0,1-.69,2.24,7.442,7.442,0,0,1-.19-1.67c.01-1.45.59-2.83.82-2.79C512.2,706.136,512.22,707.336,512.05,708.316Z" transform="translate(-346.716 -453.551)"/><path class="cls-8" d="M514.46,708.316a9.028,9.028,0,0,1-.84,2.42,6.02,6.02,0,0,1-.11-3.05c.2-1.08.64-2.33.89-2.29C514.67,705.446,514.73,706.976,514.46,708.316Z" transform="translate(-346.716 -453.551)"/><path class="cls-8" d="M516.03,710.016a2.528,2.528,0,0,1-.24-1.45c.05-.85.42-1.74.57-1.71C516.57,706.906,516.73,708.716,516.03,710.016Z" transform="translate(-346.716 -453.551)"/><path class="cls-7" d="M563.85,628.736v.02a.01.01,0,0,1-.01.01c-.12.31-.21.62-.3.94,0,.01-.01.01-.01.02a7.133,7.133,0,0,1-.73,1.28,1.547,1.547,0,0,0-.3-.33c-1.41-1.19-4.86-.47-6.84,1.52-1.32,1.33-1.66,2.89-1.54,5.21a8.087,8.087,0,0,0-1.25,1.38c-2.65,3.69-2.04,8.81-1.9,10.02.3,2.58,1.05,3.28,1.27,6.46a23.523,23.523,0,0,1-.55,6.72c-1.37-9,.01-10.38-1.61-16.48-.43-1.62-.72-3.27-1.1-4.9-.75-3.27-1.1-4.63-.34-5.58.57-.7,1.08-.38,2.54-1.44a6.054,6.054,0,0,0,2.11-2.28c.21-.42,1.09-2.35.17-3.88a2.618,2.618,0,0,0-.23-.32,11.583,11.583,0,0,1,2.28-1.67h.05c.63.02,1.3.04,2,.04,2.18.01,3.97.02,5.47-.05a4.708,4.708,0,0,1,.87,2.08A3.876,3.876,0,0,1,563.85,628.736Z" transform="translate(-346.716 -453.551)"/><path class="cls-8" d="M563.84,628.766a3.959,3.959,0,0,1-.3.94C563.63,629.386,563.72,629.076,563.84,628.766Z" transform="translate(-346.716 -453.551)"/><path class="cls-12" d="M562.8,631.006c-.14.19-.28.38-.42.56-3.09,3.92-5.91,3.82-8.26,5.84-.12-2.32.22-3.88,1.54-5.21,1.98-1.99,5.43-2.71,6.84-1.52A1.547,1.547,0,0,1,562.8,631.006Z" transform="translate(-346.716 -453.551)"/><path class="cls-14" d="M563.53,629.726a14.877,14.877,0,0,1-.53,1.7v.01a7.721,7.721,0,0,1-1,1.77c-1.69,2.23-3.07,1.75-4.82,3.43-1.39,1.33-1.68,2.74-2.02,8.92-.47-3.52-.93-6.12-1.04-8.15,2.35-2.02,5.17-1.92,8.26-5.84.14-.18.28-.37.42-.56A7.133,7.133,0,0,0,563.53,629.726Z" transform="translate(-346.716 -453.551)"/><path class="cls-12" d="M572.26,633.086c.13,6.34-2.14,14.55-4.69,20.28-2.42,5.43-3.61,6.16-4.56,10.39-.28,1.26-.46,2.47-.76,10.02-.39,9.95-.22,11.57-1.77,13.43-2,2.4-5.82,3.98-8.75,2.79a5.3,5.3,0,0,1-2.92-2.79c-.72-1.95.31-4.01,1.91-7.22.73-1.47.79-1.31,1.77-3.17a28.286,28.286,0,0,0,2.66-6.21c.64-2.73-.12-4.39-.63-7.35-.24-1.37-.18-1.61.38-12.68.1-1.95.18-3.6.26-5,.27,2.11.55,4.56.75,7.41.61,8.71.03,14.6,1.78,14.96,1.03.21,2.54-1.74,3.17-2.54a12.935,12.935,0,0,0,2.02-4.56,19.532,19.532,0,0,0,.51-7.23c-.69-9.98-1.43-9.75-1.27-13.69.2-4.62,1.31-7.09.88-8.49v-.01a14.877,14.877,0,0,0,.53-1.7c0-.01.01-.01.01-.02a3.959,3.959,0,0,0,.3-.94.01.01,0,0,0,.01-.01v-.02a3.876,3.876,0,0,0,.05-1.23,4.708,4.708,0,0,0-.87-2.08,16.627,16.627,0,0,0,3.27-.42,5.9,5.9,0,0,0,2.54-1.3,6.665,6.665,0,0,0,1.3-1.56C571.15,624.126,572.17,628.286,572.26,633.086Z" transform="translate(-346.716 -453.551)"/><path class="cls-15" d="M562.88,660.846a12.935,12.935,0,0,1-2.02,4.56c-.63.8-2.14,2.75-3.17,2.54-1.75-.36-1.17-6.25-1.78-14.96-.2-2.85-.48-5.3-.75-7.41v-.02c.34-6.18.63-7.59,2.02-8.92,1.75-1.68,3.13-1.2,4.82-3.43a7.721,7.721,0,0,0,1-1.77c.43,1.4-.68,3.87-.88,8.49-.16,3.94.58,3.71,1.27,13.69A19.532,19.532,0,0,1,562.88,660.846Z" transform="translate(-346.716 -453.551)"/><path class="cls-24" d="M549.14,564.246v.02a22.7,22.7,0,0,1-.75,3.68c-1.61,5.76-5.21,13.2-7.6,17.85a1.765,1.765,0,0,0-1.69.05c-1.1.78-.37,2.55-.93,4.73a3.18,3.18,0,0,1-.1.33v.01q-.57,1-1.08,1.89l-.01.01c-.25.43-.49.84-.74,1.23a6.53,6.53,0,0,0-.76.2.01.01,0,0,0-.01.01,18.83,18.83,0,0,0-3.01,1.31,15.959,15.959,0,0,0-4.16,2.6,7.166,7.166,0,0,0-.85.95v.01q.135.3.27.54a1.38,1.38,0,0,0-.61.43,1.08,1.08,0,0,0-.19.78q-.39.315-.75.6c-.1.08-.19.16-.29.23a3.253,3.253,0,0,1,.02-1.42,4.449,4.449,0,0,1,1.14-2.14c-1.34-3.6-.95-7.41,1.41-16.19.55-2.05,1.05-3.79,1.5-5.26,1.84-5.94,2.91-7.6,3.48-8.43.5-.72,1-1.38,1.49-1.96a2.191,2.191,0,0,0,1.53.61,2.363,2.363,0,0,0,1.54-.74,5.118,5.118,0,0,0,3.28.8,4.814,4.814,0,0,0,.68-.13l.01-.01c2.26-.6,3.55-2.8,4.13-3.79a10.527,10.527,0,0,0,.62-1.21c-.06-.65-.17-1.38-.3-2.22a3.234,3.234,0,0,1,1,.11,2.124,2.124,0,0,1,.73.34,2.193,2.193,0,0,1,.65.76v.01A6.072,6.072,0,0,1,549.14,564.246Z" transform="translate(-346.716 -453.551)"/><path class="cls-21" d="M560.12,527.1a33.846,33.846,0,0,1-6.73.09c-1.06-.07-2.15-.19-3.26-.36a16.315,16.315,0,0,0-1.74-5.55c-4.01-7.2-15.06-8.47-21.13-9.42.9-.66,2.16-1.69,2.04-2.11a13.148,13.148,0,0,1,4.43.38c4.4,1.18,4.11,3.9,9.51,5.96,3.37,1.29,4.47.6,6.97,2.28,2.36,1.59,1.95,2.58,4.69,5.2.23.21.44.41.66.6A20.949,20.949,0,0,0,560.12,527.1Z" transform="translate(-346.716 -453.551)"/><path class="cls-42" d="M567.68,521.5a6.665,6.665,0,0,1-.18,1.52,3.927,3.927,0,0,1-.43,1.05c-.97,1.6-3.53,2.62-6.95,3.03a20.949,20.949,0,0,1-4.56-2.93c-.22-.19-.43-.39-.66-.6-2.74-2.62-2.33-3.61-4.69-5.2-2.5-1.68-3.6-.99-6.97-2.28-5.4-2.06-5.11-4.78-9.51-5.96a13.148,13.148,0,0,0-4.43-.38c0-.02-.01-.03-.01-.04a.133.133,0,0,0-.05-.06.339.339,0,0,0-.08-.03,2.829,2.829,0,0,0-.72.01c-.08.01-.16.01-.26.03-.37.04-.87.12-1.56.24a5.413,5.413,0,0,0-.49-.92,41.309,41.309,0,0,1,4.11-.69c.87-.1,3.35-.33,8.94.45,1.44.2,2.98.45,10.33,2.09,8.33,1.85,9,2.12,9.95,2.68,1.79,1.06,2.11,1.73,7.1,6.85C566.97,520.776,567.34,521.156,567.68,521.5Z" transform="translate(-346.716 -453.551)"/><path class="cls-7" d="M545.14,503.8a6.3,6.3,0,0,1-.76-.14c-1.87-.42-2.94-1.7-7.23-7.47-.18-.24-.34-.46-.49-.66a11.555,11.555,0,0,0,2.46,1.67c1.37.89,1.34,1.38,3.48,3.8C543.62,502.146,544.43,503.066,545.14,503.8Z" transform="translate(-346.716 -453.551)"/><path class="cls-18" d="M536.15,494.826c-.98-1.31-1.36-1.8-2.04-2.57-.55-.63-1.04-1.17-1.47-1.64,1.37.45,2.4.96,2.86,2.08A4.482,4.482,0,0,1,536.15,494.826Z" transform="translate(-346.716 -453.551)"/><path class="cls-5" d="M574.21,528.236c-.69-.81-1.32-1.5-1.82-2.05-1.32-1.46-1.43-1.38-4.42-4.4l-.29-.29c-.34-.34-.71-.72-1.12-1.14-4.99-5.12-5.31-5.79-7.1-6.85-.95-.56-1.62-.83-9.95-2.68-7.35-1.64-8.89-1.89-10.33-2.09-5.59-.78-8.07-.55-8.94-.45a41.309,41.309,0,0,0-4.11.69,4.729,4.729,0,0,0-1.08-1.2,4.4,4.4,0,0,0-1.11-.6,4.76,4.76,0,0,0,.11-1.02,7.817,7.817,0,0,0-.93-3.13,10.335,10.335,0,0,0-2.11-3.55c-.56-.56-2.43-2.46-4.39-2.11a2.121,2.121,0,0,0-.63.2,14.793,14.793,0,0,0-2.46-.51,2.522,2.522,0,0,0-.89-1.21c-.95-.61-1.88.07-3.67.62-1.29-.18-2.78-.43-4.52-.79a75.766,75.766,0,0,1-9.89-2.79c-3.7-.73-6.73-.99-8.8-1.64.48-.38-.27-1.46-.44-2.76,3.62,1.49,4.29,1.33,4.72.98a1.617,1.617,0,0,0,.63-1.57c-.24-.61-1.37-.68-1.77-.71a24.419,24.419,0,0,1-3.28-.57c1.31-2.55,6.19-3.59,6.84-3.9,2.54-.65,3.94-1,4.97-1.15a35.947,35.947,0,0,1,3.95-.35c-1.09.31-2.02.66-2.76.94a13.929,13.929,0,0,0-3.89,1.94c.07.19,2.79-.91,7.18-1.94,1.63-.39,2.99-.64,3.9-.8a.22.22,0,0,1,.08.01c1.54.26,2.82.66,6.67,1.38,5.59,1.2,5.88,1.26,6.72,1.27.37,0,.71-.01,1.01-.01h.02a8.091,8.091,0,0,1,1.76.64,9.142,9.142,0,0,1,2.49,1.64,3.276,3.276,0,0,0,.42.41l.04.04a8.692,8.692,0,0,0,3.45,2.47q.675.285,1.32.51c1.05.37,2.01.62,2.85.9.43.47.92,1.01,1.47,1.64.68.77,1.06,1.26,2.04,2.57a.405.405,0,0,0,.05.09,3.611,3.611,0,0,0,.45.6.01.01,0,0,0,.01.01c.15.2.31.42.49.66,4.29,5.77,5.36,7.05,7.23,7.47a6.3,6.3,0,0,0,.76.14,4.794,4.794,0,0,0,2.28-.26c2.23-.86,2.53-3.12,3.68-3.04,1.21.08,1.08,2.69,3.07,4.08a2.637,2.637,0,0,0,.35.23,4.14,4.14,0,0,0,2.26.47,16.95,16.95,0,0,0,1.67.41c1.98.49,4.72,2.75,8.18,10.29A64.772,64.772,0,0,1,574.21,528.236Z" transform="translate(-346.716 -453.551)"/><path class="cls-8" d="M558.45,505.686a16.95,16.95,0,0,1-1.67-.41A4.108,4.108,0,0,1,558.45,505.686Z" transform="translate(-346.716 -453.551)"/><path class="cls-14" d="M556.78,505.276a4.14,4.14,0,0,1-2.26-.47,2.637,2.637,0,0,1-.35-.23c-1.99-1.39-1.86-4-3.07-4.08-1.15-.08-1.45,2.18-3.68,3.04a9.971,9.971,0,0,1-2.28.26c-.71-.73-1.52-1.65-2.54-2.8-2.14-2.42-2.11-2.91-3.48-3.8a11.555,11.555,0,0,1-2.46-1.67.01.01,0,0,1-.01-.01q-.24-.33-.45-.6a.405.405,0,0,1-.05-.09,4.482,4.482,0,0,0-.65-2.13c-.46-1.12-1.49-1.63-2.86-2.08a8.975,8.975,0,0,0-3.47-2.55c-1.82-.67-2.44-.13-3.81-1.07a3.349,3.349,0,0,1-.34-.26l-.04-.04c-.13-.14-.27-.27-.42-.41-.63-.69-.87-1.36-1.86-1.89a4.2,4.2,0,0,0-2.39-.39h-.02c-1.27-.29-2.94-.36-7.73-1.26-6.2-1.33-6.11-1.32-6.21-1.33s-.25-.03-.46-.05a.22.22,0,0,0-.08-.01c-.91.16-2.27.41-3.9.8-4.39,1.03-7.11,2.13-7.18,1.94a13.929,13.929,0,0,1,3.89-1.94c.74-.28,1.67-.63,2.76-.94a17.276,17.276,0,0,1,5.1-.67c3.14.08,2.46,1.01,5.95,1.19,2.89.15,5.4-.1,8.06.71a4.985,4.985,0,0,1,1.32.62,34.16,34.16,0,0,0,5.14,3.1c.41.2,1.01.43,2.22.89,4.68,1.8,5.29,1.73,6.46,2.72a14.956,14.956,0,0,1,2.22,2.79,18.985,18.985,0,0,0,1.96,2.73,9.307,9.307,0,0,0,2.79,1.84c1.62.77,2.23.72,5.45,1.58,3.45.93,4.2,1.37,4.82,1.9,1.23,1.05,1.36,2.33,1.77,3.11A3.539,3.539,0,0,0,556.78,505.276Z" transform="translate(-346.716 -453.551)"/><path class="cls-37" d="M548.79,560.826a2.193,2.193,0,0,0-.65-.76,2.124,2.124,0,0,0-.73-.34,5.3,5.3,0,0,0-.56-4.03,4.2,4.2,0,0,0-1.26-1.26c-.29-2.05-.47-3.62-.58-4.76v-.01c.98-2.4,1.03-4.76.06-5.63a1.376,1.376,0,0,0-.36-.23,11.549,11.549,0,0,1,.26-2.54c.21-.95.53-2.01.84-2.94.14.02.3.05.47.07a13.056,13.056,0,0,0,3.13.02l.33-.03a91.874,91.874,0,0,0-1.38,14.64A61.673,61.673,0,0,0,548.79,560.826Z" transform="translate(-346.716 -453.551)"/><path class="cls-28" d="M579.41,555.046c0,.59-.42,1.04-1.19,1.85-.55.6-.64.55-.84.89a2.449,2.449,0,0,0-.3,1.26,28.146,28.146,0,0,1-4.69,1.45,23.079,23.079,0,0,1-9.35.29,4.981,4.981,0,0,0,.48-1.27c.44-1.79-.22-2.11.04-4.6a9.185,9.185,0,0,1,1.06-3.85,20.4,20.4,0,0,1,3-3.04,1.649,1.649,0,0,1,1.18-.59,1.407,1.407,0,0,1,1.23,1.06c.06.37-.12.63-1.02,1.94a11.092,11.092,0,0,0-1.14,1.77,5.274,5.274,0,0,0-.21,2.45,4.063,4.063,0,0,0,.38,1.61,7.554,7.554,0,0,1,.17-2.87,5.463,5.463,0,0,1,1.18-1.95,8.233,8.233,0,0,1,2.79-1.94c1.4-.71,1.83-.63,2.07-.55a1.433,1.433,0,0,1,.93,1.01,1.209,1.209,0,0,1-.16.79,2.147,2.147,0,0,1,1.72-.28,1.32,1.32,0,0,1,.66.57,1.5,1.5,0,0,1-.19,1.59c-.24.28-.44.27-.91.52a4.916,4.916,0,0,0-1.46,1.29,10.355,10.355,0,0,0-.8,2.12c-.34,1.04-.32,1.13-.3,1.14a10.442,10.442,0,0,1,1.4-2.07,6.2,6.2,0,0,1,1.29-1c.99-.61,1.71-1.06,2.3-.78A1.4,1.4,0,0,1,579.41,555.046Z" transform="translate(-346.716 -453.551)"/><path class="cls-13" d="M565.94,567.526a3.867,3.867,0,0,1-2.38-.78,4.669,4.669,0,0,1-1.4-3.45v-.08c0-.11,0-.22.01-.32a2.737,2.737,0,0,1,.11-.64.732.732,0,0,1,.39.1c.56.34.2,1.31.85,2.66a5.917,5.917,0,0,0,1.84,2.03C565.56,567.216,565.75,567.376,565.94,567.526Z" transform="translate(-346.716 -453.551)"/><path class="cls-27" d="M580.63,564.086a9.584,9.584,0,0,1-1.82,2.57,10.061,10.061,0,0,1-2.28,2.16c-2.13,1.17-3.44-.3-6.5.68a6.784,6.784,0,0,0-1.2.5,2.1,2.1,0,0,1-1.38.43c-.03,0-.05-.01-.08-.01-1.73-.21-2.88-2.13-3.81-3.67a3.867,3.867,0,0,0,2.38.78c-.19-.15-.38-.31-.58-.48a5.917,5.917,0,0,1-1.84-2.03c-.65-1.35-.29-2.32-.85-2.66a.732.732,0,0,0-.39-.1,7.343,7.343,0,0,1,.76-1.47,23.079,23.079,0,0,0,9.35-.29,28.146,28.146,0,0,0,4.69-1.45c-.02.17-.04.37-.08.6a5.561,5.561,0,0,1-.72,2.24c-.58.88-1.28,1.09-1.18,1.39.08.29.78.44,1.35.26.89-.29.81-1.2,1.69-1.82.94-.66,2.49-.66,2.96,0C581.47,562.256,581.07,563.126,580.63,564.086Z" transform="translate(-346.716 -453.551)"/><path class="cls-21" d="M567.37,570.416c-1.97.58-3.61,1.16-4.87,1.63-1.14.43-2.13.83-3,1.22-.02,0-.03.01-.05.02a15.748,15.748,0,0,0-2.87,1.24,11.7,11.7,0,0,0-1.92,1.32.5.5,0,0,0-.08.07,5.805,5.805,0,0,0-.58.54c-.05.05-.09.08-.13.12-.06.05-.11.1-.15.14a16.354,16.354,0,0,0-2.48,3c-.48.57-1.07,1.28-1.83,2.16a31.824,31.824,0,0,1-5.16,4.48c-1.6,1.22-3.665,2.741-6.141,4.434.849-1.576,2.024-3.794,3.38-6.481,1.414-2.8,2.369-4.7,3.393-7.022a90.041,90.041,0,0,0,3.508-9.341c.36-.05.73-.1,1.13-.18a18.5,18.5,0,0,0,2.51-.68c3.8-1.31,5.7-1.96,7.43-3.21.88-.64,2.04-1.6,2.82-1.62a2.737,2.737,0,0,0-.11.64c-.01.1-.01.21-.01.32v.08a4.669,4.669,0,0,0,1.4,3.45C564.49,568.286,565.64,570.206,567.37,570.416Z" transform="translate(-346.716 -453.551)"/><path class="cls-36" d="M581.1,569.746c-.03-.68-.21-1.1-.61-1.24-2.38-.86-10.15,9.08-13.42,9.31a10.479,10.479,0,0,1-2.5-.04c-1.47-.2-1.97-.66-3.59-.21-4.17,1.16-4.98,4.67-8.01,7.13a17.983,17.983,0,0,1-1.73-4.98,16.354,16.354,0,0,1,2.48-3c.04-.04.09-.09.15-.14.04-.04.08-.07.13-.12.19-.19.38-.37.58-.54a.5.5,0,0,1,.08-.07,11.7,11.7,0,0,1,1.92-1.32,15.748,15.748,0,0,1,2.87-1.24c.02-.01.03-.02.05-.02.87-.39,1.86-.79,3-1.22,1.26-.47,2.9-1.05,4.87-1.63.03,0,.05.01.08.01a2.1,2.1,0,0,0,1.38-.43,6.784,6.784,0,0,1,1.2-.5c3.06-.98,4.37.49,6.5-.68a10.061,10.061,0,0,0,2.28-2.16,9.584,9.584,0,0,0,1.82-2.57c.44-.96.84-1.83.47-2.37-.47-.66-2.02-.66-2.96,0-.88.62-.8,1.53-1.69,1.82-.57.18-1.27.03-1.35-.26-.1-.3.6-.51,1.18-1.39a5.561,5.561,0,0,0,.72-2.24c.04-.23.06-.43.08-.6a2.449,2.449,0,0,1,.3-1.26c.2-.34.29-.29.84-.89.77-.81,1.19-1.26,1.19-1.85a1.4,1.4,0,0,0-.68-1.19c-.59-.28-1.31.17-2.3.78a6.2,6.2,0,0,0-1.29,1,10.442,10.442,0,0,0-1.4,2.07c-.02-.01-.04-.1.3-1.14a10.355,10.355,0,0,1,.8-2.12,4.916,4.916,0,0,1,1.46-1.29c.47-.25.67-.24.91-.52a1.5,1.5,0,0,0,.19-1.59,1.32,1.32,0,0,0-.66-.57,2.147,2.147,0,0,0-1.72.28,1.209,1.209,0,0,0,.16-.79,1.433,1.433,0,0,0-.93-1.01c-.24-.08-.67-.16-2.07.55a8.233,8.233,0,0,0-2.79,1.94,5.463,5.463,0,0,0-1.18,1.95,7.554,7.554,0,0,0-.17,2.87,4.063,4.063,0,0,1-.38-1.61,5.274,5.274,0,0,1,.21-2.45,11.092,11.092,0,0,1,1.14-1.77c.9-1.31,1.08-1.57,1.02-1.94a1.407,1.407,0,0,0-1.23-1.06,1.649,1.649,0,0,0-1.18.59,20.4,20.4,0,0,0-3,3.04,9.185,9.185,0,0,0-1.06,3.85c-.26,2.49.4,2.81-.04,4.6a4.981,4.981,0,0,1-.48,1.27,7.343,7.343,0,0,0-.76,1.47c-.78.02-1.94.98-2.82,1.62-1.73,1.25-3.63,1.9-7.43,3.21a18.5,18.5,0,0,1-2.51.68c-.11-.98-.22-2-.33-3.07-.02-.15-.03-.29-.05-.43v-.02a6.072,6.072,0,0,0-.35-3.41v-.01a61.673,61.673,0,0,1-.43-7.8,91.874,91.874,0,0,1,1.38-14.64,37.607,37.607,0,0,1,3.65-11.2,33.846,33.846,0,0,0,6.73-.09c3.42-.41,5.98-1.43,6.95-3.03a3.927,3.927,0,0,0,.43-1.05,6.665,6.665,0,0,0,.18-1.52l.29.29c2.99,3.02,3.1,2.94,4.42,4.4.5.55,1.13,1.24,1.82,2.05,3.37,6.84,6.66,15.83,7.18,25.24.04.6.06,1.26.08,1.95C581.57,559.586,581.41,565.256,581.1,569.746Z" transform="translate(-346.716 -453.551)"/><path class="cls-3" d="M580.49,598.506c-2.01,3.44-5.42,2.79-7.34,6.44-1.42,2.7.17,3.81-.76,9.38-.51,3.13-.96,5.8-2.25,7.82a6.665,6.665,0,0,1-1.3,1.56,5.9,5.9,0,0,1-2.54,1.3,16.627,16.627,0,0,1-3.27.42c-1.5.07-3.29.06-5.47.05-.7,0-1.37-.02-2-.04h-.05c-8.18-.3-10.68-2.02-15.13-.47-.08.03-.18.07-.29.11-.81.29-2.18.75-2.73.28a.178.178,0,0,1-.08-.07c-.68-.8.89-3.15,1.14-3.53.23-.34.45-.64.68-.92,2.03-1.37,3.38-1.67,5.72-3.6a10.431,10.431,0,0,0,1.4-1.27c.07-.09.14-.18.2-.27a.265.265,0,0,1,.05-.06c.14-.15.27-.3.4-.47,1.98-2.53,1.77-5.65,1.44-10.73a24.825,24.825,0,0,0-2.45-10.14c-1.84-3.62-3.8-4.91-3.22-6.25.71-1.61,3.71-.26,7.61-1.78a10.08,10.08,0,0,0,2.72-1.57c3.03-2.46,3.84-5.97,8.01-7.13,1.62-.45,2.12.01,3.59.21a10.479,10.479,0,0,0,2.5.04c3.27-.23,11.04-10.17,13.42-9.31.4.14.58.56.61,1.24v.03c-.06.9-.12,1.75-.19,2.54a.487.487,0,0,0-.01.12c-.13.98-.29,2.13-.44,3.44v.04c-.03.14-.05.27-.08.38a18.4,18.4,0,0,0-.28,7.22v.01a47.838,47.838,0,0,0,.39,4.98C581.1,593.156,582.13,595.706,580.49,598.506Z" transform="translate(-346.716 -453.551)"/><path class="cls-8" d="M580.9,572.436c-.14,1.43-.29,2.63-.44,3.44C580.61,574.566,580.77,573.416,580.9,572.436Z" transform="translate(-346.716 -453.551)"/><path class="cls-43" d="M464.65,700.616c-1.44,1.25-3.18,2.78-5.24,4.72-7.65,7.2-12.22,11.6-12.31,15.47a1.336,1.336,0,0,0-.12,1.15,10.325,10.325,0,0,1-.207-1.127c-.258-2.066.006-5.152-.133-5.793-.027-.126-.06-.25-.06-.25-.28-1.07-.53-1.06-1.01-2.54-1.47-4.52-.43-8.52-.7-8.56a10.524,10.524,0,0,0-.76,3.17,16.434,16.434,0,0,0-.13,4.57,19.451,19.451,0,0,0,.8,3.28c.08.3.09.49-.04.58-.47.33-2.05-1.04-2.98-2.09a10.293,10.293,0,0,1-1.39-1.88c.02-.41.06-.83.11-1.25.521-4.381,2.981-12.588,8.95-14.28a11.515,11.515,0,0,1,6.849.509c1.309.506,2.039,1.087,5.831,3.042C463.174,699.885,464.057,700.325,464.65,700.616Z" transform="translate(-346.716 -453.551)"/><path class="cls-44" d="M507.91,690.806c-1.95,4.31-4,5.03-7.94,10.14-4.37,5.66-2.94,6.21-6.25,10.22-5.17,6.26-11.97,8.96-16.65,10.82-5.17,2.05-4.4.79-12.59,3.63-5.08,1.77-7.15,2.86-10.14,2.2-2.64-.58-6.35-2.61-7.1-5.75a1.7,1.7,0,0,1-.04-.22,5.165,5.165,0,0,1-.1-1.04c.23-.23.63-.07,1.18.17a5.453,5.453,0,0,0,3.31.59c2.17-.41,1.91-1.85,4.18-2.79,2.97-1.23,4.33.38,6.97-1.02.72-.37.88-.63,3.05-2.79,2.8-2.79,3.22-4.15,4.18-4.05,1.29.14,1.01,2.55,2.91,3.67,2.17,1.28,5.79.07,7.74-1.9,1.25-1.27.82-1.85,2.41-3.67,1.55-1.79,2.16-1.47,4.18-3.3,2.24-2.03,1.45-2.4,4.56-5.83,1.01-1.11,1.74-1.78,2.03-3.04.36-1.56-.42-1.98-.13-3.17.57-2.34,3.93-2.2,5.2-4.69.51-1,.31-2.17,0-4.44a11.43,11.43,0,0,0-.26-1.32h-.01a.737.737,0,0,0-.04-.14c1.85.21,3.35.42,4.63.44.01.01.01.01.01,0a6.447,6.447,0,0,0,4.21-1.09c1.16-.84,1.59-1.77,2.02-1.61C510.38,681.2,509.94,686.306,507.91,690.806Z" transform="translate(-346.716 -453.551)"/><path class="cls-12" d="M530.94,642.846c-.18,2.16-.42,1.51-2.03,7.98-1.66,6.7-1.6,8.17-3.17,11.41a31.42,31.42,0,0,1-3.04,4.95,39.891,39.891,0,0,1-4.05,4.65c-.81.85-1.78,1.9-3.05,3.33-3.23,3.67-3.74,4.63-4.05,5.33v.01c-1.1,2.41-.48,3.63-1.14,7.08a27.818,27.818,0,0,1-2.41,6.98c-1.71,3.59-3.3,4.84-7.36,9.63-5.6,6.61-4.54,6.53-7.6,9.63a44.555,44.555,0,0,1-11.92,8.5c-5.01,2.58-9.05,3.49-17.11,5.32-8.44,1.91-10.64,1.54-12.42.51a10.206,10.206,0,0,1-4.61-6.2,1.336,1.336,0,0,1,.12-1.15,5.165,5.165,0,0,0,.1,1.04,1.7,1.7,0,0,0,.04.22c.75,3.14,4.46,5.17,7.1,5.75,2.99.66,5.06-.43,10.14-2.2,8.19-2.84,7.42-1.58,12.59-3.63,4.68-1.86,11.48-4.56,16.65-10.82,3.31-4.01,1.88-4.56,6.25-10.22,3.94-5.11,5.99-5.83,7.94-10.14,2.03-4.5,2.47-9.61,1.52-9.98-.43-.16-.86.77-2.02,1.61a6.447,6.447,0,0,1-4.21,1.09c0,.01,0,.01-.01,0-1.28-.02-2.78-.23-4.63-.44l-.53-.06c-1.14-.12-2.04-.21-2.79-.26.99-.44,1.88-.9,2.66-1.33,1.14-.64,2.06-1.25,2.74-1.7a27.913,27.913,0,0,0,2.91-2.57c1.55-1.46,3.7-3.58,6.6-6.43a20.581,20.581,0,0,0,4.19-5.71c.14-.3,2.09-4.36,1.14-5.07-.6-.44-2.11.58-3.68,1.65-2.58,1.75-3.54,3.15-3.93,2.91-.52-.31.52-3.19,1.65-5.45a31.164,31.164,0,0,1,4.94-7.1c2.21-2.37,2.83-2.32,4.18-4.31,1.28-1.85,2.37-3.45,2.16-5.32-.33-2.92-3.48-3.4-3.93-6.21-.32-2,1.1-2.91,2.41-5.58,2.14-4.36.44-6.2,1.39-17.24.36-4.1.53-6.15,1.19-7.43a6.881,6.881,0,0,1,1.55-2.03c.06-.06.13-.12.19-.19-.05.37-.09.75-.12,1.15.04.78.06,1.62.03,2.52-.01.64-.05,1.3-.11,1.99-.18,2.07-.48,3.05-.62,4.27-.02.2-.04.4-.06.62s-.02.44-.02.69v.01a.01.01,0,0,1-.01.01,7.631,7.631,0,0,0-1.09,2.28,8.174,8.174,0,0,0-.11,3.93,2.2,2.2,0,0,0-.77,1.14c-.37,1.5,1.78,2.23,3.29,4.99,2.19,3.99.26,7.14,1.94,8.07,1.05.57,2.77-.09,4.31-1.3C530.87,638.136,531.15,640.416,530.94,642.846Z" transform="translate(-346.716 -453.551)"/><path class="cls-2" d="M419.89,710.856a12.144,12.144,0,0,1-2.13.27A7.1,7.1,0,0,1,419.89,710.856Z" transform="translate(-346.716 -453.551)"/><path class="cls-19" d="M446.58,714.786a4.1,4.1,0,0,1-1.14.06,2.869,2.869,0,0,1-.66-.14,19.451,19.451,0,0,1-.8-3.28,16.434,16.434,0,0,1,.13-4.57,10.524,10.524,0,0,1,.76-3.17c.27.04-.77,4.04.7,8.56C446.05,713.726,446.3,713.716,446.58,714.786Z" transform="translate(-346.716 -453.551)"/><path class="cls-9" d="M498.87,688.986c-1.27,2.49-4.63,2.35-5.2,4.69-.29,1.19.49,1.61.13,3.17-.29,1.26-1.02,1.93-2.03,3.04-3.11,3.43-2.32,3.8-4.56,5.83-2.02,1.83-2.63,1.51-4.18,3.3-1.59,1.82-1.16,2.4-2.41,3.67-1.95,1.97-5.57,3.18-7.74,1.9-1.9-1.12-1.62-3.53-2.91-3.67-.96-.1-1.38,1.26-4.18,4.05-2.17,2.16-2.33,2.42-3.05,2.79-2.64,1.4-4-.21-6.97,1.02-2.27.94-2.01,2.38-4.18,2.79a5.453,5.453,0,0,1-3.31-.59c-.55-.24-.95-.4-1.18-.17.09-3.87,4.66-8.27,12.31-15.47,2.06-1.94,3.8-3.47,5.24-4.72,4.33-3.75,6-4.94,5.74-6.94a2.811,2.811,0,0,0-.41-1.16c.22-.05.46-.11.69-.17,4.18-1.11,5.97-2.02,9.88-2.16,6.06-.21,10.42,1.64,10.8.7.2-.49-1.61-1.93-5.22-4.82-.49-.39-.92-.73-1.32-1.03-.83-.64-1.54-1.16-2.36-1.76-1.33-.97-2.24-1.64-2.89-2.06a5.284,5.284,0,0,0-.89-.47,7.22,7.22,0,0,0-1.88-.41c.21-.08.51-.15.85-.24,1.32,1.01,4.12,1.38,9.31,2.09,4.73.64,4.65.29,8.29.58.75.05,1.65.14,2.79.26l.53.06a.737.737,0,0,1,.04.14h.01a11.43,11.43,0,0,1,.26,1.32C499.18,686.816,499.38,687.986,498.87,688.986Z" transform="translate(-346.716 -453.551)"/><path class="cls-19" d="M500.64,670.1a5.129,5.129,0,0,1-3.16,1.52c-.74.06-2.15,0-2.29-.5-.14-.58,1.36-1.78,2.92-2.1a11.835,11.835,0,0,0,2.47-.38c.66-.21,1.03-.44,1.14-.31C501.91,668.526,501.3,669.456,500.64,670.1Z" transform="translate(-346.716 -453.551)"/><path class="cls-45" d="M536,617.9a.8.8,0,0,1-.15.61.639.639,0,0,1-.31.18,2.183,2.183,0,0,1-1.06-.06v-.01a4.871,4.871,0,0,1-.68-.2.01.01,0,0,0-.01-.01c-.16-.06-.32-.12-.45-.18-.01,0-.01-.01-.02-.01-.29-.3-.63-.65-1.03-1.04-2.26-2.24-2.32-2.12-2.68-2.69a7.46,7.46,0,0,1-1.03-3.51,11.161,11.161,0,0,1,.11-2.04,10.255,10.255,0,0,1,.51-1.98,5.465,5.465,0,0,0,.44-2.93,3.758,3.758,0,0,0-.7-1.86,1.618,1.618,0,0,1,.18-.1,1.513,1.513,0,0,1,.61-.11q.195.45.42.96a6.2,6.2,0,0,1,.82,2.31c.12,1.53-.83,1.97-.69,3.3a4.776,4.776,0,0,0,.81,2.2c.1.16.2.32.32.48.29.42.64.87,1.05,1.37,1.22,1.5,1.72,1.56,2.54,2.92.1.16.28.47.47.84a.01.01,0,0,0,.01.01A4.367,4.367,0,0,1,536,617.9Z" transform="translate(-346.716 -453.551)"/><path class="cls-20" d="M530.81,624.716c-.18.45-1.02.49-1.26.51a4.711,4.711,0,0,1-3.17-1.43,11.648,11.648,0,0,1-1.81-1.99c-.3-.39-.52-.68-.72-.96a.01.01,0,0,1-.01-.01c-.08-.18-.15-.36-.21-.53a16.838,16.838,0,0,1-.55-1.67c-.09-.33-.18-.63-.25-.89-.09-.84-.11-1.59-.13-2.16.28-1.11.94-1.47,1.39-2.27.15-.13.3-.26.46-.38,0,2.2-.08,3.05.43,4.49.06.15.12.31.18.45a10.53,10.53,0,0,0,2.74,3.8,7.947,7.947,0,0,0,1.79,1.29h.01c.03.03.06.07.09.1a.355.355,0,0,1-.1-.02c-.16-.02-.32-.05-.47-.08-.18-.03-.35-.07-.51-.11a7.3,7.3,0,0,1-1-.29,9.93,9.93,0,0,0,1.84,1.14C530.04,623.936,530.77,624.216,530.81,624.716Z" transform="translate(-346.716 -453.551)"/><path class="cls-26" d="M530.81,624.716c.04.42-.42.84-.76,1.02-1.09.57-2.81-.33-3.97-1.26a10.853,10.853,0,0,1-1.22-1.66,13.71,13.71,0,0,1-1.01-1.97c.2.28.42.57.72.96a11.648,11.648,0,0,0,1.81,1.99,4.711,4.711,0,0,0,3.17,1.43C529.79,625.206,530.63,625.166,530.81,624.716Z" transform="translate(-346.716 -453.551)"/><path class="cls-37" d="M530.81,624.716c-.04-.5-.77-.78-1.26-1.01a9.93,9.93,0,0,1-1.84-1.14,7.3,7.3,0,0,0,1,.29c.16.04.33.08.51.11.15.03.31.06.47.08a.355.355,0,0,0,.1.02C530.88,624.206,530.88,624.536,530.81,624.716Z" transform="translate(-346.716 -453.551)"/><path class="cls-20" d="M524.55,612.936c-.16.12-.31.25-.46.38-.45.8-1.11,1.16-1.39,2.27,0-.17-.01-.32-.01-.47a1.408,1.408,0,0,1,.01-.21v-.01c0-.25.01-.47.02-.69s.04-.42.06-.62c.14-1.22.44-2.2.62-4.27.06-.69.1-1.35.11-1.99a10.1,10.1,0,0,0,.46,2.18c.11.32.25.7.36,1.13.05-.16.1-.32.15-.5.03.62.05,1.3.06,2.03C524.55,612.446,524.55,612.7,524.55,612.936Z" transform="translate(-346.716 -453.551)"/><path class="cls-46" d="M539.29,615.556c-.01.01-.03.02-.04.03-1.23.95-2.1,1.62-2.62,2.08a2.832,2.832,0,0,1-.28-.2,5.021,5.021,0,0,1-.87-1.12.01.01,0,0,1-.01-.01c-.19-.37-.37-.68-.47-.84-.82-1.36-1.32-1.42-2.54-2.92-.41-.5-.76-.95-1.05-1.37-.12-.16-.22-.32-.32-.48a3.549,3.549,0,0,1,.47.06,3.26,3.26,0,0,1,1.24.45c.79.51.88,1.23,2.37,2.16,1.46.92,2.12.69,3.46,1.65C538.75,615.136,539.01,615.316,539.29,615.556Z" transform="translate(-346.716 -453.551)"/><path class="cls-14" d="M539.31,615.566a25.936,25.936,0,0,0-2.5,2.19,3.9,3.9,0,0,0-.67.96c-.88,1.89-.34,3.29-.92,4.16.61-.97-.11-2.77.79-4.56a2.563,2.563,0,0,1,.62-.65c.52-.46,1.39-1.13,2.62-2.08C539.27,615.576,539.29,615.576,539.31,615.566Z" transform="translate(-346.716 -453.551)"/><path class="cls-8" d="M539.31,615.566c-.02.01-.04.01-.06.02.01-.01.03-.02.04-.03A.031.031,0,0,1,539.31,615.566Z" transform="translate(-346.716 -453.551)"/><path class="cls-20" d="M528.34,606.586a15.576,15.576,0,0,1-.47,3.17,7.307,7.307,0,0,0-.13-2.91,12.082,12.082,0,0,0-.52-1.74c-.12-.34-.25-.65-.38-.94,0-.01,0-.02-.01-.02-.07-.56-.14-1.04-.19-1.45l-.27.39c-.04-.1-.09-.19-.14-.29a2.617,2.617,0,0,0-.34-.48c-.05-.06-.11-.12-.18-.19a2.068,2.068,0,0,0-.55.17c.12-.1.25-.21.39-.32a3.916,3.916,0,0,0,.33-.27c.1-.07.19-.15.29-.23q.36-.285.75-.6c.01.08.02.17.04.27a5.8,5.8,0,0,0,.27.8c.05.13.11.27.17.41.17.38.36.8.57,1.27.02.04.04.09.06.14.12.28.23.55.33.82A19.356,19.356,0,0,1,528.34,606.586Z" transform="translate(-346.716 -453.551)"/><path class="cls-20" d="M535,620.626a.534.534,0,0,1-.14.25,1.373,1.373,0,0,1-.21.18,3.4,3.4,0,0,1-1.38.46,10.49,10.49,0,0,1-2.16-1.32,9.327,9.327,0,0,1-3.17-4.27,9.812,9.812,0,0,1-.49-2.72,11.429,11.429,0,0,1,.07-1.53c.01-.13.03-.26.05-.39a11.653,11.653,0,0,1,.3-1.52v-.01a15.576,15.576,0,0,0,.47-3.17,19.356,19.356,0,0,0,.02-2c.34.84.61,1.64.84,2.37a10.255,10.255,0,0,0-.51,1.98,11.161,11.161,0,0,0-.11,2.04,7.46,7.46,0,0,0,1.03,3.51c.36.57.42.45,2.68,2.69.4.39.74.74,1.03,1.04.01,0,.01.01.02.01.55.57.93,1,1.19,1.32a2.642,2.642,0,0,1,.45.69A.592.592,0,0,1,535,620.626Z" transform="translate(-346.716 -453.551)"/><path class="cls-38" d="M534.79,623.276a.746.746,0,0,1-.12.07,1.336,1.336,0,0,1-.18.07,2.381,2.381,0,0,1-.26.05c0,.01-.01.01-.02,0a3.566,3.566,0,0,1-.47.01c-.06,0-.11-.01-.17-.01a1.512,1.512,0,0,0,.36-.18,1.077,1.077,0,0,0,.21-.25c.15-.26-.01-.83-.5-1.36-.13-.05-.25-.11-.37-.16a3.4,3.4,0,0,0,1.38-.46,1.373,1.373,0,0,0,.21-.18A10.478,10.478,0,0,0,534.79,623.276Z" transform="translate(-346.716 -453.551)"/><path class="cls-38" d="M535.54,618.686a6.726,6.726,0,0,0-.56,1.55,2.642,2.642,0,0,0-.45-.69c-.26-.32-.64-.75-1.19-1.32.13.06.29.12.45.18a.01.01,0,0,1,.01.01,4.871,4.871,0,0,0,.68.2v.01A2.183,2.183,0,0,0,535.54,618.686Z" transform="translate(-346.716 -453.551)"/><path class="cls-38" d="M536.35,617.466a4.7,4.7,0,0,0-.35.43,4.367,4.367,0,0,0-.52-1.55A5.021,5.021,0,0,0,536.35,617.466Z" transform="translate(-346.716 -453.551)"/><path class="cls-37" d="M534.99,624.576a26.519,26.519,0,0,0-1.05,2.93c-.02.08-.05.15-.07.23a6.931,6.931,0,0,1-1.67.49,9.92,9.92,0,0,1-7.3-1.73,9.094,9.094,0,0,1-3.41-5.37,8.174,8.174,0,0,1,.11-3.93,7.631,7.631,0,0,1,1.09-2.28v.2c0,.15.01.3.01.47a16.931,16.931,0,0,0,.13,2.16c.03.21.05.4.08.58a1.171,1.171,0,0,0,.04.26,2.629,2.629,0,0,0,.06.39,3.237,3.237,0,0,0,.09.4c.07.31.15.63.25.95a8.332,8.332,0,0,0,2.27,3.76c.14.13.29.26.46.39,1.16.93,2.88,1.83,3.97,1.26.34-.18.8-.6.76-1.02.07-.18.07-.51-1.02-1.65l.19.03h.01c.14.06.29.11.44.16a5.926,5.926,0,0,0,3.13.21h.01c.06,0,.11.01.17.01a1.875,1.875,0,0,0,.47-.01c.01.01.02.01.02,0a2.381,2.381,0,0,0,.26-.05,1.336,1.336,0,0,0,.18-.07.746.746,0,0,0,.12-.07,10.817,10.817,0,0,0,.19,1.24A.127.127,0,0,1,534.99,624.576Z" transform="translate(-346.716 -453.551)"/><path class="cls-23" d="M526.08,624.476c-.17-.13-.32-.26-.46-.39a8.332,8.332,0,0,1-2.27-3.76c-.1-.32-.18-.64-.25-.95a3.237,3.237,0,0,1-.09-.4,2.629,2.629,0,0,1-.06-.39c-.01-.08-.03-.17-.04-.26-.03-.18-.05-.37-.08-.58.07.26.16.56.25.89a16.838,16.838,0,0,0,.55,1.67c.06.17.13.35.21.53a.01.01,0,0,0,.01.01,13.71,13.71,0,0,0,1.01,1.97A10.853,10.853,0,0,0,526.08,624.476Z" transform="translate(-346.716 -453.551)"/><path class="cls-19" d="M474.35,664.5c-.59,1.14-1.26,2.32-1.93,3.4-3.03,4.9-4.41,5.17-5.62,8.79-.92,2.75-.55,3.88-1.77,4.88-1.74,1.42-3.3-.16-8.31,0a35.385,35.385,0,0,0-5.07.63c-.68-.43-1.47-.99-2.39-1.7a7.723,7.723,0,0,0-3.08-1.65,4.079,4.079,0,0,0-2.66,0c-1.1.5-1.54,1.77-2.07,4.1-1.38,6.02-.46,6.26-1.35,11.7a5.891,5.891,0,0,0-.06,2.94c-.88,1.22-1.87,2.66-3.05,4.37a26.558,26.558,0,0,0-3.61,1.23,39.993,39.993,0,0,0-5.58,2.95c-2.21,1.37-2.72,1.95-4.48,2.62a7.183,7.183,0,0,1-3.8.76c-1.22-.17-1.66-.73-2.99-.83a15.548,15.548,0,0,1,1.47-2c3.37-4.04,6.45-3.23,8.79-6.59a9.227,9.227,0,0,0,1.47-6.96.762.762,0,0,0-.15-.56c-.45-1.36-1.25-1.52-2.85-4.73-1.45-2.92-1.38-3.98-2.87-6.26-1.14-1.73-1.55-1.42-2.62-3.12a26.2,26.2,0,0,1-2.11-4.99c-1.15-3.19-1.08-3.53-.93-3.63.41-.28,1.5,1.13,3.93,2.66a22.456,22.456,0,0,0,3.55,1.77c2.59.97,7.48,1.76,10.01-.54,2.05-1.86.56-3.92,2.03-6.68,2.83-5.31,13.48-7.32,21.8-5.32,5.57,1.33,10.96,4.65,13.02,2.53.55-.57.65-1.32,1.94-2.79a16.452,16.452,0,0,1,1.31-1.34c.86-.78,1.71-1.38,1.99-1.19C476.79,659.276,475.78,661.776,474.35,664.5Z" transform="translate(-346.716 -453.551)"/><path class="cls-10" d="M436.99,701.956c-.43.62-.89,1.29-1.37,1.99-.28.41-.53.78-.76,1.11a48.125,48.125,0,0,1-8.07,3.62,52.079,52.079,0,0,1-6.9,2.18,7.1,7.1,0,0,0-2.13.27c-.79.01-1.38-.15-1.62-.55-.28-.47-.03-1.18.39-1.89,1.33.1,1.77.66,2.99.83a7.183,7.183,0,0,0,3.8-.76c1.76-.67,2.27-1.25,4.48-2.62a39.993,39.993,0,0,1,5.58-2.95A26.558,26.558,0,0,1,436.99,701.956Z" transform="translate(-346.716 -453.551)"/><path class="cls-2" d="M491.35,690.886c-.38.94-4.74-.91-10.8-.7-3.91.14-5.7,1.05-9.88,2.16-.23.06-.47.12-.69.17a45.1,45.1,0,0,1-13.25,1.52,11.978,11.978,0,0,0-7.3,1.75,20.093,20.093,0,0,0-8.95,14.28c-.05.42-.09.84-.11,1.25a24.736,24.736,0,0,0,2.39,11.26c1.98,4.5,4.84,7.63,4.39,8.03-.55.48-5.04-4.15-5.74-3.55-.62.52,2.28,4.55,1.81,4.9-.35.27-2.64-1.54-4.43-4.06-1.55-2.17-1.9-3.56-2.79-3.54-1.03.01-1.21,1.86-3.05,2.4a4.588,4.588,0,0,1-2.15,0,4.488,4.488,0,0,1-2.66-1.14,4.355,4.355,0,0,1-1.02-2.66c-.23-1.69.29-2.07,0-3.55-.21-1.14-.84-2.57-1.39-2.53-.92.05-1.01,4.1-2.03,4.18-.86.07-1.27-2.8-2.66-2.92-1.03-.08-1.42,1.45-2.79,1.52a3.4,3.4,0,0,1-2.53-1.52,5.317,5.317,0,0,1,.12-5.7,3.535,3.535,0,0,1,1.92-1.31,7.1,7.1,0,0,1,2.13-.27c3.54-.05,8.27,1.19,12.11-1.8.48-.37.38-.37,2.86-4,.23-.33.48-.7.76-1.11.48-.7.94-1.37,1.37-1.99,1.18-1.71,2.17-3.15,3.05-4.37.22-.31.43-.61.64-.89.44-.6.85-1.14,1.24-1.64.53-.68,1.02-1.27,1.5-1.81.22-.25.43-.48.65-.71,2.23-2.33,4.57-4.71,8.36-6.17a9.331,9.331,0,0,1,1.08-.33c.63-.17,1.5-.37,2.66-.65l1.38-.33c.05-.01.11-.03.16-.04,5.95-1.4,6.69-1.23,9.55-2.24,2.24-.78,2.71-1.21,4.01-1.62.3-.09.63-.18,1.04-.28a13.951,13.951,0,0,1,4.48-.54,7.22,7.22,0,0,1,1.88.41,5.284,5.284,0,0,1,.89.47c.65.42,1.56,1.09,2.89,2.06.82.6,1.53,1.12,2.36,1.76.4.3.83.64,1.32,1.03C489.74,688.956,491.55,690.4,491.35,690.886Z" transform="translate(-346.716 -453.551)"/><path class="cls-7" d="M457.71,685.016c-.05.01-.11.03-.16.04l-1.38.33c-1.24-.72-2.55-1.54-3.95-2.49-.32-.21-.62-.43-.92-.64-3.17-2.2-5.47-4-7.11-3.12-1.11.6-1.26,2.09-2.11,8.45-.48,3.62-.41,5.13-1.14,8.12-.09.35-.17.68-.26.99-.21.28-.42.58-.64.89a5.891,5.891,0,0,1,.06-2.94c.89-5.44-.03-5.68,1.35-11.7.53-2.33.97-3.6,2.07-4.1a4.079,4.079,0,0,1,2.66,0,7.723,7.723,0,0,1,3.08,1.65c.92.71,1.71,1.27,2.39,1.7a8.729,8.729,0,0,0,2.94,1.38,4.553,4.553,0,0,1,2.49.76A3.492,3.492,0,0,1,457.71,685.016Z" transform="translate(-346.716 -453.551)"/><path class="cls-5" d="M451.3,682.256c-1.69.26-2.98.3-4.21-.62-.88-.66-1.17-1.4-1.78-1.33-1.29.14-1.84,3.7-2.28,6.52-.51,3.3-.27,4-.65,6.22-.04.2-.18.97-.46,2.01-.39.5-.8,1.04-1.24,1.64.09-.31.17-.64.26-.99.73-2.99.66-4.5,1.14-8.12.85-6.36,1-7.85,2.11-8.45C445.83,678.256,448.13,680.056,451.3,682.256Z" transform="translate(-346.716 -453.551)"/><path class="cls-12" d="M456.17,685.386c-1.16.28-2.03.48-2.66.65a9.331,9.331,0,0,0-1.08.33c-3.79,1.46-6.13,3.84-8.36,6.17-.22.23-.43.46-.65.71-.48.54-.97,1.13-1.5,1.81.28-1.04.42-1.81.46-2.01.38-2.22.14-2.92.65-6.22.44-2.82.99-6.38,2.28-6.52.61-.07.9.67,1.78,1.33,1.23.92,2.52.88,4.21.62.3.21.6.43.92.64C453.62,683.846,454.93,684.666,456.17,685.386Z" transform="translate(-346.716 -453.551)"/><path class="cls-35" d="M527.26,518.686c.05,2.86.28,3.83-.44,4.62a2,2,0,0,1-1.62.6,5.522,5.522,0,0,0,.71-2.54,20.863,20.863,0,0,0-.76-5.49c-.23-1.08-.43-1.78-.56-2.29.2-.11.39-.22.56-.31.7-.41,1.16-.73,1.35-.87.14-.1.4-.29.73-.53.1.47.17.89.22,1.23a12.655,12.655,0,0,1-.13,3.09v.01C527.27,516.816,527.25,517.606,527.26,518.686Z" transform="translate(-346.716 -453.551)"/><path class="cls-12" d="M516.93,519.146c-.13.74-.26,1.61-.38,2.67-.16,1.47-.19,2.46-.46,4.67a.868.868,0,0,1-.87-.01c-1.07-.67.26-3-.06-7.16a13.809,13.809,0,0,0-.94-4.15c.98.18,1.44.59,2.36.79C516.69,516.756,516.8,517.8,516.93,519.146Z" transform="translate(-346.716 -453.551)"/><path class="cls-38" d="M525.91,521.366a5.522,5.522,0,0,1-.71,2.54,17.021,17.021,0,0,0-3.89.23c-2.81.58-4.24,1.98-5.22,2.35.27-2.21.3-3.2.46-4.67.12-1.06.25-1.93.38-2.67-.13-1.35-.24-2.39-.35-3.19a3.794,3.794,0,0,0,.54.09,1.62,1.62,0,0,0,.22.01,9.455,9.455,0,0,0,3.59-.86,27.383,27.383,0,0,0,3.66-1.61c.13.51.33,1.21.56,2.29A20.863,20.863,0,0,1,525.91,521.366Z" transform="translate(-346.716 -453.551)"/><path class="cls-38" d="M526.62,509.9c-.46.08-1,.18-1.64.31a10.519,10.519,0,0,0-1.18.3c-.22.07-.41.14-.57.2-.37.1-.58.15-.7.01-.26-.29.24-.89.73-1.8a7.23,7.23,0,0,0,.55-1.25,3.593,3.593,0,0,0,.12-.47c.01-.01.01-.01.01-.02a4.4,4.4,0,0,1,1.11.6,4.729,4.729,0,0,1,1.08,1.2A5.413,5.413,0,0,1,526.62,509.9Z" transform="translate(-346.716 -453.551)"/><path class="cls-16" d="M431.31,545.521c-2.541-3.654-8.565-2.831-9.8-2.662a12.913,12.913,0,0,0-6.462,2.606c-5.546,4.464-5.3,13.17-3.848,18.352.722,2.58,2.077,7.423,6.676,9.972,4.744,2.629,11.682,2.121,15.085-1.9,2.872-3.395,2.674-8.644,1.563-9.084-1.162-.461-2.674,4.606-7.606,6.084-.827.248-3.955,1.056-6.507-.549-3.274-2.06-3.379-6.694-3.464-10.437-.091-3.972-.179-7.86,2.577-9.718a7.366,7.366,0,0,1,7.733.254c2.865,1.9,2.921,5.313,3.8,5.2C432.088,553.5,433.471,548.628,431.31,545.521Z" transform="translate(-346.716 -453.551)"/><path class="cls-16" d="M437.225,569.648c-1.648-1.966.832-4.228,1.014-10.733.1-3.462-.533-5.407.846-6.591a3.473,3.473,0,0,1,3.464-.507c1.827.79,1.4,2.943,3.127,6.76,1.935,4.285,4,4.972,4.056,8.2.022,1.275-.271,3.033-1.014,3.211-.789.189-1.957-1.436-2.535-2.62-.991-2.03-.629-3.546-1.521-3.887a1.64,1.64,0,0,0-1.606.507c-.839.887.009,2.054-.507,4.394a3.366,3.366,0,0,1-1.1,2.282C440.359,571.368,438.25,570.871,437.225,569.648Z" transform="translate(-346.716 -453.551)"/><path class="cls-16" d="M450.577,556.549c-.878,1.976,1.023,3.233,1.522,6.93.436,3.232-.669,4.846.338,5.577.966.7,3.1.027,3.633-1.183.407-.926-.413-1.518-1.183-3.887-.508-1.566-.266-1.664-1.183-6-.47-2.225-.687-2.924-1.183-3.042C451.89,554.793,450.986,555.631,450.577,556.549Z" transform="translate(-346.716 -453.551)"/><path class="cls-16" d="M448.972,550.169c-1.143.866-.953,3.011-.169,3.423.564.3,1.395-.328,1.521-.423.98-.737,1.574-2.341.93-3.042A1.867,1.867,0,0,0,448.972,550.169Z" transform="translate(-346.716 -453.551)"/><path class="cls-16" d="M455.563,554.31c-.636,2.2,1.473,3.25,2.747,7.141,1.021,3.119.627,5.378,1.944,5.831a1.21,1.21,0,0,0,1.183-.169c.463-.464-.021-1.359-.55-3.465-.085-.34.034.109-.718-4.014a6.671,6.671,0,0,1-.211-2.578c.086-.483.349-1.964,1.352-2.281a2.381,2.381,0,0,1,2.239.929c.784.9.4,1.581.93,4.014a31.357,31.357,0,0,0,1.31,3.8c.5,1.321.761,1.886,1.141,1.9.407.016.838-.605.971-1.184.2-.859-.331-1.312-.8-2.7a27.994,27.994,0,0,1-.55-2.958,13.638,13.638,0,0,0-.76-2.957,4.626,4.626,0,0,0-1.69-2.2,3.681,3.681,0,0,0-2.071-.592,3.865,3.865,0,0,0-2.07.718,4.02,4.02,0,0,0-1.69,1.944,10.119,10.119,0,0,0-.254,1.225c-.075,0-.022-.972-.253-2.2-.16-.846-.361-1.909-.8-1.986S455.825,553.405,455.563,554.31Z" transform="translate(-346.716 -453.551)"/><path class="cls-16" d="M468.789,578.944a3.376,3.376,0,0,1,1.225-1.352,3.3,3.3,0,0,1,1.563-.465,2.934,2.934,0,0,1,2.029.465,2.889,2.889,0,0,1,1.056,2.028c.064.6-.119.566-.169,1.605a4.177,4.177,0,0,0,.338,2.324,1.889,1.889,0,0,0,.761.888c.312.162.52.113.718.338a.75.75,0,0,1,.127.845.787.787,0,0,1-.676.253c-.578-.033-.709-.537-1.184-.718-.644-.246-1.122.41-2.323.887-.639.253-2.168.86-3.127.169a2.359,2.359,0,0,1-.719-2.366,2.946,2.946,0,0,1,2.155-2.028c.348-.081.632-.064,1.352-.254.889-.234,1.069-.421,1.141-.507a1.616,1.616,0,0,0,.212-1.394,1.458,1.458,0,0,0-.507-.761,1.916,1.916,0,0,0-2.282.3c-.67.667-.356,1.588-.93,1.817a.945.945,0,0,1-1.014-.338C468.167,580.181,468.556,579.408,468.789,578.944Z" transform="translate(-346.716 -453.551)"/><path class="cls-16" d="M476.014,577.254c-.5.565.454,1.513.761,3.887.131,1.02,0,1.207.211,2.408.342,1.965.839,2.324,1.1,2.451.393.193.941.194,1.1-.042.18-.271-.3-.632-.549-1.521a11.372,11.372,0,0,1-.085-2.029c-.047-.991-.071-1.487-.126-1.816-.086-.511-.152-.638-.085-.888a1.423,1.423,0,0,1,1.563-1.014c.368.124.535.514.676.845a5.208,5.208,0,0,1,.254,1.9c.1,1.392.333,1.216.338,2.239,0,.788-.13,1.3.211,1.606a.639.639,0,0,0,.592.169c.472-.17.467-1.253.465-1.817a10.331,10.331,0,0,0-.169-1.521c-.266-1.849-.266-1.859-.3-1.986a4.665,4.665,0,0,0-.887-2.155c-.215-.252-.925-1.085-1.691-.972-.851.126-1.266,1.348-1.563,1.225-.209-.086.031-.678-.3-1.014A1.2,1.2,0,0,0,476.014,577.254Z" transform="translate(-346.716 -453.551)"/><path class="cls-16" d="M484.851,577.872c-.9.141-1.392,1.3-1.527,1.621a4.137,4.137,0,0,0,.3,3.465c.292.543.909,1.689,1.986,1.774a2.279,2.279,0,0,0,1.943-.929c.241-.361.291-.747.507-.761s.279.371.676.676c.5.387,1.267.431,1.395.212.1-.177-.2-.541-.55-.972s-.511-.5-.676-.719c-.378-.514-.22-1.1-.169-1.9a9.729,9.729,0,0,0-.338-2.958c-.347-1.193-.747-1.057-1.267-2.281a7.518,7.518,0,0,1-.254-5.2c.281-.737.7-1.349.465-1.6-.194-.209-.742-.1-1.1.169-.255.19-.492.518-.676,2.2a11.763,11.763,0,0,0-.084,2.915,5.6,5.6,0,0,0,.507,2.155c.408.788.8.919,1.183,1.817.211.491.517,1.429.254,1.606C487.041,579.41,486.039,577.687,484.851,577.872Z" transform="translate(-346.716 -453.551)"/><path class="cls-16" d="M390.07,630.915a80.249,80.249,0,0,0,5.24-13.352c2.344-8.049,2.434-13.175,6.929-18.591,1.929-2.323,4.842-4.909,6.085-4.226.961.529.293,2.665.507,6.254.143,2.4.557,3.385,2.2,8.958,3.121,10.6,2.274,9.246,3.549,12.676,2.837,7.627,5.188,9.4,4.057,11.662-1.432,2.857-7.127,3.873-9.465,1.859-1.278-1.1-1.472-3.269-1.859-7.606-.349-3.908,0-5.65-1.183-6.422a3.411,3.411,0,0,0-3.888.676c-1.844,1.856-.743,5.893,0,8.62.867,3.178,1.742,4.013,1.184,4.9-.858,1.364-3.412.177-8.789.507-4.783.294-6.89,1.486-7.606.507C386.542,636.673,386.752,635.08,390.07,630.915Z" transform="translate(-346.716 -453.551)"/><path class="cls-16" d="M420.028,612.577c-.016,5.378,2.285,6.411,3.423,12.043,1.08,5.345-.453,7.083,1.648,11.155,1.41,2.733,2.912,3.523,3.422,3.76a6.771,6.771,0,0,0,8.873-9.211c-.935-1.852-3.067-3.736-5.07-3.465-2.04.276-2.908,2.648-3.887,2.282-.677-.253-.646-1.531-.93-3.634-.045-.336-.5-2.252-1.394-6.084a44.531,44.531,0,0,0-2.155-7.479c-.647-1.5-1.875-4.345-2.789-4.183C420.282,607.917,420.033,610.84,420.028,612.577Z" transform="translate(-346.716 -453.551)"/><path class="cls-16" d="M442.887,631.254c.689-1.437,5.692.868,7.268-1.015.881-1.051.316-2.962-.254-3.971a5,5,0,0,0-3.887-2.367,5.514,5.514,0,0,0-4.986,3.212,6.806,6.806,0,0,0-.507,3.633c.084,1.685.185,3.707,1.69,5.155,2.124,2.044,5.371,1.339,6.085,1.184,1.885-.41,3.763-1.553,3.634-2.113-.106-.455-1.542-.572-2.451-.507-.876.062-.97.274-2.028.422a4.3,4.3,0,0,1-2.789-.169,3.531,3.531,0,0,1-1.521-1.943C442.89,632.108,442.708,631.627,442.887,631.254Z" transform="translate(-346.716 -453.551)"/><path class="cls-16" d="M455.394,639.2c-1.127-1.026.284-3.287.761-6.972.32-2.473-.252-5.24-1.394-10.774-1.584-7.67-2.151-6.891-2.409-10.395a32.958,32.958,0,0,1,1.268-11.281c.215-.832,1.4-5.427,2.155-5.324.627.085.835,3.428.633,6.084-.28,3.7-1.247,4.648-1.14,8.113a27.591,27.591,0,0,0,.507,3.929c.423,2.5.716,3.163,1.521,6.592a56.346,56.346,0,0,1,1.521,7.986c.18,1.842.236,3.7.253,4.31.059,2.054-.043,1.6,0,3.8.05,2.542.184,3.031-.253,3.549A2.709,2.709,0,0,1,455.394,639.2Z" transform="translate(-346.716 -453.551)"/></g></svg>