<svg xmlns="http://www.w3.org/2000/svg" viewBox="0 0 1121.84 300"><defs><style>.cls-1{fill:#121221;}.cls-2{fill:#366ce1;}</style></defs><title>campus anywhere</title><g id="Слой_2" data-name="Слой 2"><g id="Work_space" data-name="Work space"><g id="campus_anywhere" data-name="campus anywhere"><polygon class="cls-1" points="203.92 93.39 203.92 150 101.96 91.15 0 150 0 93.39 101.96 34.54 203.92 93.39"/><polygon class="cls-1" points="203.92 58.85 203.92 119.99 203.9 120 181.96 107.34 151.96 90.02 151.93 90 101.96 61.16 51.99 90 51.96 90.02 21.96 107.34 0.02 120 0 119.99 0 58.85 101.96 0 203.92 58.85"/><polygon class="cls-2" points="181.96 107.34 181.96 220 21.96 220 21.96 107.34 51.96 90.02 51.99 90 101.96 61.16 151.93 90 151.96 90.02 181.96 107.34"/><path class="cls-1" d="M121.96,220a19.958,19.958,0,0,1-10,17.31V260h-20V237.31a20,20,0,1,1,30-17.31Z"/><rect class="cls-1" x="91.96" y="270" width="20" height="20"/><rect class="cls-1" x="21.96" y="280" width="160" height="20"/><polygon class="cls-1" points="441.96 160 441.96 260 421.96 260 361.96 190.59 361.96 260 341.96 260 341.96 160 361.96 160 421.96 229.41 421.96 160 441.96 160"/><path class="cls-2" d="M811.96,70a10,10,0,0,0,10,10h40a30,30,0,0,1,0,60h-70V120h70a10,10,0,0,0,0-20h-40a30,30,0,0,1,0-60h70V60h-70A10,10,0,0,0,811.96,70Z"/><polygon class="cls-2" points="791.84 160 791.84 260 771.84 260 771.84 220 711.84 220 711.84 260 691.84 260 691.84 160 711.84 160 711.84 200 771.84 200 771.84 160 791.84 160"/><polygon class="cls-2" points="821.84 180 821.84 200 901.84 200 901.84 220 821.84 220 821.84 240 901.84 240 901.84 260 801.84 260 801.84 160 901.84 160 901.84 180 821.84 180"/><polygon class="cls-2" points="1041.84 180 1041.84 200 1121.84 200 1121.84 220 1041.84 220 1041.84 240 1121.84 240 1121.84 260 1021.84 260 1021.84 160 1121.84 160 1121.84 180 1041.84 180"/><path class="cls-2" d="M1011.84,190a30,30,0,0,0-30-30h-70V260h20V220h50a10,10,0,0,1,10,10v30h20V230a29.862,29.862,0,0,0-7.65-20A29.862,29.862,0,0,0,1011.84,190Zm-80,10V180h50a10,10,0,1,1,0,20Z"/><path class="cls-2" d="M311.25,100h20.71a50,50,0,1,1,0-20H311.25a30,30,0,1,0,0,20Z"/><path class="cls-1" d="M292.73,161.95l-.78-1.95H271.97l-.78,1.94L231.96,260h21.55l11.2-28h34.5l11.2,28h21.55ZM272.71,212l9.25-23.13L291.21,212Z"/><path class="cls-2" d="M392.73,41.95,391.95,40H371.97l-.78,1.94L331.96,140h21.55l11.2-28h34.5l11.2,28h21.55ZM372.71,92l9.25-23.13L391.21,92Z"/><path class="cls-2" d="M641.96,40h-70V140h20V100h50a30,30,0,0,0,0-60Zm0,40h-50V60h50a10,10,0,0,1,0,20Z"/><polygon class="cls-1" points="514.79 206.46 511.96 210 512.01 210 512.01 260 492.01 260 492.01 210 489.18 206.46 452.01 160 477.62 160 501.98 190.45 526.34 160 551.96 160 514.79 206.46"/><path class="cls-2" d="M781.96,40V90a50,50,0,0,1-100,0V40h20V90a30,30,0,0,0,60,0V40Z"/><path class="cls-2" d="M462.7,140l14.46-57.86,14.56,56.71.3,1.15h14.91l.03-.11V140h5.12l.29-1.16,14.54-56.59L541.34,140h20.62v-.02L537.35,41.57,536.96,40H517.1l-.38,1.5L502.05,98.63l-14.7-57.24L487,40H471.97l-.01.04V40h-4.87l-.37,1.46L442.08,140Zm19.26-50.99v-.04l.02.04Zm0-47.53.19-.61-.19.64Z"/><polygon class="cls-2" points="481.96 88.97 481.98 89.01 481.96 89.01 481.96 88.97"/><polygon class="cls-2" points="481.96 41.48 482.15 40.87 481.96 41.51 481.96 41.48"/><polygon class="cls-2" points="481.96 41.48 482.15 40.87 481.96 41.51 481.96 41.48"/><path class="cls-2" d="M661.22,160l-14.46,57.86L632.2,161.15l-.3-1.15H616.99l-.03.11V160h-5.12l-.29,1.16-14.54,56.59L582.58,160H561.96v.02l24.61,98.41.39,1.57h19.86l.38-1.5,14.67-57.13,14.7,57.24.35,1.39h15.03l.01-.04V260h4.87l.37-1.46L681.84,160Zm-19.26,50.99v.04l-.02-.04Zm0,47.53-.19.61.19-.64Z"/><polygon class="cls-2" points="641.96 211.03 641.94 210.99 641.96 210.99 641.96 211.03"/><polygon class="cls-2" points="641.96 258.52 641.77 259.13 641.96 258.49 641.96 258.52"/><polygon class="cls-2" points="641.96 258.52 641.77 259.13 641.96 258.49 641.96 258.52"/></g></g></g></svg>