<svg xmlns="http://www.w3.org/2000/svg" viewBox="0 0 498.99 216.926"><defs><style>.cls-1,.cls-3,.cls-5{fill:#121221;}.cls-1{opacity:0.38;}.cls-2{fill:#1c1e20;}.cls-3{opacity:0.62;}.cls-4{fill:#366ce1;}</style></defs><title>Canva</title><g id="Слой_2" data-name="Слой 2"><g id="Complete"><g id="Canva"><polygon class="cls-1" points="288.99 65.86 288.99 80 274.85 80 254.85 60 268.99 60 268.99 45.86 288.99 65.86"/><polygon class="cls-1" points="263.092 59.968 243.092 79.968 228.952 79.968 228.952 65.828 248.952 45.828 248.952 59.968 263.092 59.968"/><polygon class="cls-1" points="263.129 40 248.979 40 248.979 54.14 228.979 34.14 228.979 20 243.129 20 263.129 40"/><polygon class="cls-1" points="288.99 20 288.99 34.14 268.99 54.14 268.99 40 254.84 40 274.84 20 288.99 20"/><path class="cls-2" d="M208.99,0V100h100V0Zm80,80h-60V20h60Z"/><polygon class="cls-3" points="288.99 34.14 273.13 50 288.99 65.86 288.99 80 274.85 80 258.99 64.14 243.13 80 228.99 80 228.99 65.86 244.85 50 228.99 34.14 228.99 20 243.14 20 258.99 35.85 274.84 20 288.99 20 288.99 34.14"/><polygon class="cls-4" points="244.85 50 228.99 65.86 228.99 34.14 244.85 50"/><polygon class="cls-4" points="274.84 20 258.99 35.85 243.14 20 274.84 20"/><polygon class="cls-4" points="274.85 80 243.13 80 258.99 64.14 274.85 80"/><polygon class="cls-4" points="288.99 34.14 288.99 65.86 273.13 50 288.99 34.14"/><path class="cls-5" d="M78.28,176.926H98.99a50,50,0,1,1,0-20H78.28a30,30,0,1,0,0,20Z"/><polygon class="cls-5" points="308.99 116.926 308.99 216.926 288.99 216.926 228.99 147.515 228.99 216.926 208.99 216.926 208.99 116.926 228.99 116.926 288.99 186.335 288.99 116.926 308.99 116.926"/><polygon class="cls-5" points="418.97 116.926 379.75 214.996 378.98 216.926 358.98 216.926 358.21 214.996 318.99 116.926 340.53 116.926 368.98 188.066 397.44 116.926 418.97 116.926"/><path class="cls-5" d="M159.76,118.876l-.78-1.95H139l-.78,1.94-39.23,98.06h21.55l11.2-28h34.5l11.2,28h21.55Zm-20.02,50.05,9.25-23.13,9.25,23.13Z"/><path class="cls-5" d="M459.76,118.876l-.78-1.95H439l-.78,1.94-39.23,98.06h21.55l11.2-28h34.5l11.2,28h21.55Zm-20.02,50.05,9.25-23.13,9.25,23.13Z"/></g></g></g></svg>