<svg xmlns="http://www.w3.org/2000/svg" viewBox="0 0 1050 280"><defs><style>.cls-1{fill:#121221;}.cls-2{fill:#366ce1;}</style></defs><title>capptions</title><g id="Слой_2" data-name="Слой 2"><g id="Complete"><g id="capptions"><path class="cls-1" d="M169.29,150H190a50,50,0,1,1,0-20H169.29a30,30,0,1,0,0,20Z"/><path class="cls-1" d="M690,90a50,50,0,1,0,50,50A50.005,50.005,0,0,0,690,90Zm0,80a30,30,0,1,1,30-30A30,30,0,0,1,690,170Z"/><path class="cls-1" d="M280.992,99.472C232.485,69,181.344,117.64,206.737,166.235c3.188,6.1,10.816,13.754,16.91,16.959,20.821,10.949,41.7,7.818,56.353-3.2V190h20V133.985A40.743,40.743,0,0,0,280.992,99.472Zm-12.9,65.161c-29.752,18.1-60.828-12.976-42.728-42.728a19.578,19.578,0,0,1,6.538-6.538c29.752-18.1,60.828,12.976,42.728,42.728A19.578,19.578,0,0,1,268.1,164.633Z"/><path class="cls-1" d="M360,90a50.005,50.005,0,0,0-50,50V240h20V179.99A50,50,0,1,0,360,90Zm0,80a30,30,0,1,1,30-30A30,30,0,0,1,360,170Z"/><path class="cls-1" d="M470,90a50.005,50.005,0,0,0-50,50V240h20V179.99A50,50,0,1,0,470,90Zm0,80a30,30,0,1,1,30-30A30,30,0,0,1,470,170Z"/><rect class="cls-1" x="610" y="90" width="20" height="100"/><rect class="cls-1" x="610" y="60" width="20" height="20"/><path class="cls-1" d="M850,140v50H830V140a30,30,0,0,0-60,0v50H750V140a50,50,0,0,1,100,0Z"/><path class="cls-1" d="M630,140a50,50,0,0,1-100,0V50h20v50.01A49.726,49.726,0,0,1,580,90v20a30,30,0,1,0,30,30Z"/><path class="cls-1" d="M960,140a49.16,49.16,0,0,1-1.01,10,49.991,49.991,0,0,1-84.34,25.35l14.14-14.14A29.99,29.99,0,0,0,938.28,150H861.01a50.01,50.01,0,0,1,0-20,49.991,49.991,0,0,1,84.34-25.35l-14.14,14.14A29.99,29.99,0,0,0,881.72,130h77.27A49.16,49.16,0,0,1,960,140Z"/><rect class="cls-2" x="270" y="260" width="210" height="20"/><path class="cls-1" d="M460,260v20a40,40,0,0,1-40-40h20A19.994,19.994,0,0,0,460,260Z"/><path class="cls-1" d="M40,260v20A40,40,0,0,1,0,240H20A19.994,19.994,0,0,0,40,260Z"/><path class="cls-1" d="M20,40H0A40,40,0,0,1,40,0V20A19.994,19.994,0,0,0,20,40Z"/><path class="cls-1" d="M310,240h20a40,40,0,0,1-40,40V260A19.994,19.994,0,0,0,310,240Z"/><path class="cls-1" d="M1030,240h20a40,40,0,0,1-40,40V260A19.994,19.994,0,0,0,1030,240Z"/><path class="cls-1" d="M1010,20V0a40,40,0,0,1,40,40h-20A19.994,19.994,0,0,0,1010,20Z"/><rect class="cls-1" x="40" y="260" width="250" height="20"/><rect class="cls-1" x="460" y="260" width="550" height="20"/><rect class="cls-1" x="40" width="970" height="20"/><rect class="cls-1" y="40" width="20" height="200"/><rect class="cls-1" x="1030" y="40" width="20" height="200"/></g></g></g></svg>