<svg xmlns="http://www.w3.org/2000/svg" viewBox="0 0 966.724 300"><defs><style>.cls-1{fill:#366ce1;}.cls-2,.cls-3,.cls-4,.cls-5,.cls-6,.cls-7,.cls-8,.cls-9{fill:#121221;}.cls-2{opacity:0.14;}.cls-3{opacity:0.98;}.cls-4{opacity:0.84;}.cls-5{opacity:0.28;}.cls-6{opacity:0.56;}.cls-7{opacity:0.42;}.cls-8{opacity:0.7;}</style></defs><title>carbon</title><g id="Слой_2" data-name="Слой 2"><g id="Work_space" data-name="Work space"><g id="carbon"><polygon class="cls-1" points="880.071 250 851.211 300 793.471 300 764.611 250 793.471 200 851.211 200 880.071 250"/><polygon class="cls-1" points="966.665 200 937.805 250 880.065 250 851.205 200 880.065 150 937.805 150 966.665 200"/><polygon class="cls-1" points="880.13 150 851.27 200 793.53 200 764.67 150 793.53 100 851.27 100 880.13 150"/><polygon class="cls-2" points="880.13 149.986 851.27 199.986 793.53 199.986 764.67 149.986 793.53 99.986 851.27 99.986 880.13 149.986"/><polygon class="cls-1" points="793.595 200 764.735 250 706.995 250 678.135 200 706.995 150 764.735 150 793.595 200"/><polygon class="cls-1" points="764.729 50 793.589 0 851.329 0 880.189 50 851.329 100 793.589 100 764.729 50"/><polygon class="cls-1" points="678.135 100 706.995 50 764.735 50 793.595 100 764.735 150 706.995 150 678.135 100"/><polygon class="cls-1" points="851.205 100 880.065 50 937.805 50 966.665 100 937.805 150 880.065 150 851.205 100"/><polygon class="cls-3" points="880.13 250 851.27 300 793.53 300 764.67 250 793.53 200 851.27 200 880.13 250"/><polygon class="cls-4" points="966.724 200 937.864 250 880.124 250 851.264 200 880.124 150 937.864 150 966.724 200"/><polygon class="cls-5" points="793.654 200 764.794 250 707.054 250 678.194 200 707.054 150 764.794 150 793.654 200"/><polygon class="cls-6" points="764.787 50 793.647 0 851.387 0 880.247 50 851.387 100 793.647 100 764.787 50"/><polygon class="cls-7" points="678.194 100 707.054 50 764.794 50 793.654 100 764.794 150 707.054 150 678.194 100"/><polygon class="cls-8" points="851.264 100 880.124 50 937.864 50 966.724 100 937.864 150 880.124 150 851.264 100"/><polygon class="cls-9" points="640 100 640 200 620 200 560 130.59 560 200 540 200 540 100 560 100 620 169.41 620 100 640 100"/><path class="cls-9" d="M310,130a30,30,0,0,0-30-30H210V200h20V160h50a10,10,0,0,1,10,10v30h20V170a29.862,29.862,0,0,0-7.65-20A29.862,29.862,0,0,0,310,130Zm-80,10V120h50a10,10,0,0,1,0,20Z"/><path class="cls-9" d="M480,100a50,50,0,1,0,50,50A50.005,50.005,0,0,0,480,100Zm0,80a30,30,0,1,1,30-30A30,30,0,0,1,480,180Z"/><path class="cls-9" d="M78.28,160H98.99a50,50,0,1,1,0-20H78.28a30,30,0,1,0,0,20Z"/><path class="cls-9" d="M420,130a30,30,0,0,0-30-30H320V200h70a29.991,29.991,0,0,0,22.35-50A29.862,29.862,0,0,0,420,130Zm-80-10h50a10,10,0,0,1,0,20H340Zm50,60H340V160h50a10,10,0,0,1,0,20Z"/><path class="cls-9" d="M160.77,101.95l-.78-1.95H140.01l-.78,1.94L100,200h21.55l11.2-28h34.5l11.2,28H200ZM140.75,152,150,128.87,159.25,152Z"/></g></g></g></svg>