<svg xmlns="http://www.w3.org/2000/svg" viewBox="0 0 418.99 370"><defs><style>.cls-1{fill:#366ce1;}.cls-2{fill:#121221;}</style></defs><title>Care</title><g id="Слой_2" data-name="Слой 2"><g id="Complete"><g id="Care"><path class="cls-1" d="M279.505,0H139.485L69.5,121.25l69.99,121.25h140.02L349.5,121.25ZM225.1,136.85V216l-15.6,15.61L193.9,216V136.85h-79.15l-15.61-15.6,15.62-15.62h79.12V26.51L209.5,10.89,225.1,26.5v79.15h79.15l15.61,15.6-15.61,15.6Z"/><path class="cls-2" d="M78.28,330H98.99a50,50,0,1,1,0-20H78.28a30,30,0,1,0,0,20Z"/><polygon class="cls-2" points="338.99 290 338.99 310 418.99 310 418.99 330 338.99 330 338.99 350 418.99 350 418.99 370 318.99 370 318.99 270 418.99 270 418.99 290 338.99 290"/><path class="cls-2" d="M308.99,300a30,30,0,0,0-30-30h-70V370h20V330h50a10,10,0,0,1,10,10v30h20V340a29.862,29.862,0,0,0-7.65-20A29.862,29.862,0,0,0,308.99,300Zm-80,10V290h50a10,10,0,0,1,0,20Z"/><path class="cls-2" d="M159.76,271.95l-.78-1.95H139l-.78,1.94L98.99,370h21.55l11.2-28h34.5l11.2,28h21.55ZM139.74,322l9.25-23.13L158.24,322Z"/></g></g></g></svg>