<svg id="Complete" xmlns="http://www.w3.org/2000/svg" viewBox="0 0 700 410"><defs><style>.cls-1{fill:#121221;}.cls-2{fill:#fff;}</style></defs><title>celoxis</title><g id="celoxis"><path class="cls-1" d="M600,345V495H450a50.005,50.005,0,0,1-50-50V295H550A50.005,50.005,0,0,1,600,345Z" transform="translate(-150 -295)"/><path class="cls-2" d="M260,40h90a10,10,0,0,1,10,10v5a5,5,0,0,1-5,5H265a5,5,0,0,1-5-5V40A0,0,0,0,1,260,40Z"/><rect class="cls-2" x="260" y="90" width="180" height="20" rx="5"/><path class="cls-2" d="M345,140h90a5,5,0,0,1,5,5v15a0,0,0,0,1,0,0H350a10,10,0,0,1-10-10v-5A5,5,0,0,1,345,140Z"/><path class="cls-1" d="M170,605c0,44.18,24.62,80,55,80,9,0,17.5-3.15,25-8.72V699.3a58.254,58.254,0,0,1-25,5.7c-41.42,0-75-44.77-75-100s33.58-100,75-100a58.254,58.254,0,0,1,25,5.7v23.02c-7.5-5.57-16-8.72-25-8.72C194.62,525,170,560.82,170,605Z" transform="translate(-150 -295)"/><polygon class="cls-1" points="130 230 130 300 210 300 210 320 130 320 130 390 210 390 210 410 110 410 110 210 210 210 210 230 130 230"/><polygon class="cls-1" points="320 390 320 410 220 410 220 210 240 210 240 390 320 390"/><path class="cls-1" d="M520,505c-27.61,0-50,44.77-50,100s22.39,100,50,100,50-44.77,50-100S547.61,505,520,505Zm0,180c-16.57,0-30-35.82-30-80s13.43-80,30-80,30,35.82,30,80S536.57,685,520,685Z" transform="translate(-150 -295)"/><polygon class="cls-1" points="480 310 520 410 500 410 470 335 440 410 420 410 460 310 420 210 440 210 470 285 500 210 520 210 480 310"/><polygon class="cls-1" points="570 230 570 390 590 390 590 410 530 410 530 390 550 390 550 230 530 230 530 210 590 210 590 230 570 230"/><path class="cls-1" d="M835.8,611.62A57.726,57.726,0,0,1,850,650c0,30.38-22.39,55-50,55s-50-24.62-50-55a60.089,60.089,0,0,1,2-15.43l18.09,18.09C771.25,670.75,784.2,685,800,685c16.57,0,30-15.67,30-35a38.061,38.061,0,0,0-8.36-24.22C816.2,619.13,808.51,615,800,615a46.719,46.719,0,0,1-28.74-10,51.367,51.367,0,0,1-7.07-6.62A57.769,57.769,0,0,1,750,560c0-30.38,22.39-55,50-55s50,24.62,50,55a59.634,59.634,0,0,1-1.52,13.48l-18.83-18.83C827.44,537.86,815.01,525,800,525c-16.57,0-30,15.67-30,35a38.061,38.061,0,0,0,8.36,24.22C783.8,590.87,791.49,595,800,595a46.719,46.719,0,0,1,28.74,10A50.726,50.726,0,0,1,835.8,611.62Z" transform="translate(-150 -295)"/></g></svg>