<svg xmlns="http://www.w3.org/2000/svg" viewBox="0 0 450 550"><defs><style>.cls-1{fill:#121221;}.cls-2{fill:#366ce1;}</style></defs><title>celtras</title><g id="complete"><g id="celtra_s_creative_management" data-name="celtra&apos;s creative management"><path class="cls-1" d="M525,750v40a19.994,19.994,0,0,0,20,20v20a39.979,39.979,0,0,1-40-40V650h20v80h20v20Z" transform="translate(-275 -280)"/><path class="cls-1" d="M495,810v20a39.979,39.979,0,0,1-40-40V650h20V790A19.994,19.994,0,0,0,495,810Z" transform="translate(-275 -280)"/><path class="cls-1" d="M335,790h20a40,40,0,0,1-80,0V770a40,40,0,0,1,80,0H335a20,20,0,0,0-40,0v20a20,20,0,0,0,40,0Z" transform="translate(-275 -280)"/><path class="cls-1" d="M405,730a40,40,0,0,0-40,40v20a40,40,0,0,0,61.81,33.53l-14.8-14.8A20,20,0,0,1,385,790h60V770A40,40,0,0,0,405,730Zm-20,40a20,20,0,0,1,40,0Z" transform="translate(-275 -280)"/><path class="cls-1" d="M685,730a39.783,39.783,0,0,0-21.81,6.47l14.8,14.8A20,20,0,0,1,705,770H645v20a40.012,40.012,0,0,0,60,34.65V830h20V770A40,40,0,0,0,685,730Zm0,80a19.994,19.994,0,0,1-20-20h40A19.994,19.994,0,0,1,685,810Z" transform="translate(-275 -280)"/><path class="cls-1" d="M635,770H615a20,20,0,0,0-40,0v60H555V730h20v5.35A40.012,40.012,0,0,1,635,770Z" transform="translate(-275 -280)"/><path class="cls-2" d="M600,280H400a50.005,50.005,0,0,0-50,50V530a50.005,50.005,0,0,0,50,50h75a50.005,50.005,0,0,1-50,50h50a50.005,50.005,0,0,0,50-50h75a50.005,50.005,0,0,0,50-50V330A50.005,50.005,0,0,0,600,280Zm0,216.67A33.34,33.34,0,0,1,566.67,530H433.33A33.34,33.34,0,0,1,400,496.67V363.33A33.34,33.34,0,0,1,433.33,330H566.67A33.34,33.34,0,0,1,600,363.33Z" transform="translate(-275 -280)"/></g></g></svg>