<svg xmlns="http://www.w3.org/2000/svg" viewBox="0 0 964 110"><defs><style>.cls-1{fill:#366ce1;}.cls-2{fill:#121221;}</style></defs><title>charge point</title><g id="Слой_2" data-name="Слой 2"><g id="Work_space" data-name="Work space"><g id="charge_point" data-name="charge point"><polygon class="cls-1" points="539.28 42.679 490 42.679 514.64 0 539.28 42.679"/><polygon class="cls-2" points="820 62 820 98 832 98 832 110 796 110 796 98 808 98 808 62 796 62 796 50 832 50 832 62 820 62"/><polygon class="cls-2" points="898 50 898 110 886 110 850 68.354 850 110 838 110 838 50 850 50 886 91.646 886 50 898 50"/><polygon class="cls-1" points="210 10 210 110 190 110 190 70 130 70 130 110 110 110 110 10 130 10 130 50 190 50 190 10 210 10"/><polygon class="cls-1" points="570 30 570 50 650 50 650 70 570 70 570 90 650 90 650 110 550 110 550 10 650 10 650 30 570 30"/><path class="cls-1" d="M430,40a30,30,0,0,0-30-30H330V110h20V70h50a10,10,0,0,1,10,10v30h20V80a29.862,29.862,0,0,0-7.65-20A29.862,29.862,0,0,0,430,40ZM350,50V30h50a10,10,0,0,1,0,20Z"/><path class="cls-2" d="M766,50a30,30,0,1,0,30,30A30,30,0,0,0,766,50Zm0,48a18,18,0,1,1,18-18A18,18,0,0,1,766,98Z"/><path class="cls-1" d="M78.28,70H98.99a50,50,0,1,1,0-20H78.28a30,30,0,1,0,0,20Z"/><path class="cls-1" d="M280.77,11.95,279.99,10H260.01l-.78,1.94L220,110h21.55l11.2-28h34.5l11.2,28H320ZM260.75,62,270,38.87,279.25,62Z"/><path class="cls-1" d="M540,50V60a49.16,49.16,0,0,1-1.01,10,50.013,50.013,0,1,1-13.64-45.35L511.21,38.79A30,30,0,1,0,518.28,70H490V50Z"/><path class="cls-2" d="M712,50H670v60h12V86h30a18,18,0,0,0,0-36Zm0,24H682V62h30a6,6,0,0,1,0,12Z"/><polygon class="cls-2" points="964 50 964 62 940 62 940 110 928 110 928 62 904 62 904 50 964 50"/></g></g></g></svg>