<svg xmlns="http://www.w3.org/2000/svg" viewBox="0 0 490 100"><defs><style>.cls-1{fill:#121221;}.cls-2{fill:#366ce1;}</style></defs><title>chegg</title><g id="Слой_2" data-name="Слой 2"><g id="Work_space" data-name="Work space"><g id="chegg"><polygon class="cls-1" points="208.99 0 208.99 100 188.99 100 188.99 60 128.99 60 128.99 100 108.99 100 108.99 0 128.99 0 128.99 40 188.99 40 188.99 0 208.99 0"/><polygon class="cls-1" points="238.99 20 238.99 40 318.99 40 318.99 60 238.99 60 238.99 80 318.99 80 318.99 100 218.99 100 218.99 0 318.99 0 318.99 20 238.99 20"/><path class="cls-1" d="M78.28,60H98.99a50,50,0,1,1,0-20H78.28a30,30,0,1,0,0,20Z"/><path class="cls-2" d="M490,40V50a49.16,49.16,0,0,1-1.01,10,50.013,50.013,0,1,1-13.64-45.35L461.21,28.79A30,30,0,1,0,468.28,60H440V40Z"/><path class="cls-1" d="M428.99,40V50a49.16,49.16,0,0,1-1.01,10,50.013,50.013,0,1,1-13.64-45.35L400.2,28.79A30,30,0,1,0,407.27,60H378.99V40Z"/></g></g></g></svg>