<svg xmlns="http://www.w3.org/2000/svg" viewBox="0 0 829.493 140"><defs><style>.cls-1{fill:#121221;}</style></defs><title>cipher trace</title><g id="Слой_2" data-name="Слой 2"><g id="Work_space" data-name="Work space"><g id="cipher_trace" data-name="cipher trace"><path class="cls-1" d="M78.28,60H98.99a50,50,0,1,1,0-20H78.28a30,30,0,1,0,0,20Z"/><path class="cls-1" d="M661.49,30v6.2c-33.748-20.433-68.945,13.385-51.283,47.167a33.064,33.064,0,0,0,11.837,11.873c14.574,7.665,29.19,5.474,39.446-2.24v7.007h14V30Zm-3.76,47.664a13.637,13.637,0,0,1-4.578,4.578c-20.825,12.671-42.574-9.079-29.9-29.9a13.637,13.637,0,0,1,4.578-4.578C644.367,37.7,661.49,49.345,661.49,65A24.313,24.313,0,0,1,657.73,77.667Z"/><rect class="cls-1" x="110" y="34.297" width="14.094" height="70.469"/><rect class="cls-1" x="110" y="13.156" width="14.094" height="14.094"/><path class="cls-1" d="M741.858,76.8q4.379,5.754,8.743,11.5a35,35,0,1,1,0-46.607q-4.368,5.754-8.743,11.5a21,21,0,1,0,0,23.6Z"/><path class="cls-1" d="M828.786,72a35.007,35.007,0,0,0,0-14A35,35,0,0,0,760.2,58a35.007,35.007,0,0,0,0,14,34.992,34.992,0,0,0,57.87,18.858q-5.575-4.462-11.159-8.925A20.995,20.995,0,0,1,774.7,72ZM794.492,44a20.986,20.986,0,0,1,19.8,14H774.7A20.985,20.985,0,0,1,794.492,44Z"/><path class="cls-1" d="M363.629,76.578a35.23,35.23,0,0,0,0-14.094,35.235,35.235,0,0,0-69.046,0,35.278,35.278,0,0,0,0,14.094A35.225,35.225,0,0,0,352.84,95.562q-5.613-4.493-11.233-8.984a21.135,21.135,0,0,1-32.429-10ZM329.106,48.39a21.128,21.128,0,0,1,19.929,14.094H309.178A21.126,21.126,0,0,1,329.106,48.39Z"/><path class="cls-1" d="M428.105,39.321q-3.626,6.046-7.251,12.086A21.132,21.132,0,0,0,388.84,69.531v35.235H374.746V34.3H388.84v7.054a35.205,35.205,0,0,1,39.265-2.03Z"/><path class="cls-1" d="M602.492,34.991Q598.891,41,595.289,47A20.993,20.993,0,0,0,563.488,65v35h-14V30h14v7.007a34.97,34.97,0,0,1,39-2.016Z"/><polygon class="cls-1" points="564.746 0 564.746 20 524.746 20 524.746 100 504.746 100 504.746 20 464.746 20 464.746 0 564.746 0"/><path class="cls-1" d="M285.215,69.531v35.235H271.122V69.531a21.141,21.141,0,0,0-42.282,0v35.235H214.746V6.109H228.84V41.351a35.227,35.227,0,0,1,56.375,28.18Z"/><path class="cls-1" d="M169.981,34.3H134.746V140H148.84V104.766h21.141a35.235,35.235,0,0,0,0-70.469Zm0,56.375H148.84V48.39h21.141a21.141,21.141,0,1,1,0,42.282Z"/></g></g></g></svg>