<svg xmlns="http://www.w3.org/2000/svg" viewBox="0 0 958.99 101.901"><defs><style>.cls-1{fill:#366ce1;}.cls-2{fill:#121221;}</style></defs><title>citi group</title><g id="Слой_2" data-name="Слой 2"><g id="Work_space" data-name="Work space"><g id="citi_group" data-name="citi group"><polygon class="cls-1" points="328.99 20 328.99 80 348.99 80 348.99 100 288.99 100 288.99 80 308.99 80 308.99 20 288.99 20 288.99 0 348.99 0 348.99 20 328.99 20"/><polygon class="cls-1" points="148.99 20 148.99 80 168.99 80 168.99 100 108.99 100 108.99 80 128.99 80 128.99 20 108.99 20 108.99 0 168.99 0 168.99 20 148.99 20"/><path class="cls-2" d="M628.99,31.9a30,30,0,0,0-30-30h-70v100h20v-40h50a10,10,0,0,1,10,10v30h20v-30a29.862,29.862,0,0,0-7.65-20A29.862,29.862,0,0,0,628.99,31.9Zm-80,10v-20h50a10,10,0,0,1,0,20Z"/><path class="cls-2" d="M688.99,1.9a50,50,0,1,0,50,50A50.005,50.005,0,0,0,688.99,1.9Zm0,80a30,30,0,1,1,30-30A30,30,0,0,1,688.99,81.9Z"/><path class="cls-1" d="M78.28,60H98.99a50,50,0,1,1,0-20H78.28a30,30,0,1,0,0,20Z"/><path class="cls-2" d="M518.99,41.9v10a49.16,49.16,0,0,1-1.01,10,50.013,50.013,0,1,1-13.64-45.35L490.2,30.691a30,30,0,1,0,7.07,31.21H468.99v-20Z"/><path class="cls-2" d="M928.99,1.9h-70v100h20v-40h50a30,30,0,0,0,0-60Zm0,40h-50v-20h50a10,10,0,0,1,0,20Z"/><polygon class="cls-1" points="278.99 0 278.99 20 238.99 20 238.99 100 218.99 100 218.99 20 178.99 20 178.99 0 278.99 0"/><path class="cls-2" d="M848.99,1.9v50a50,50,0,0,1-100,0V1.9h20v50a30,30,0,0,0,60,0V1.9Z"/></g></g></g></svg>