<svg xmlns="http://www.w3.org/2000/svg" viewBox="0 0 1340 101.581"><defs><style>.cls-1{fill:#1c1e20;}.cls-2{fill:#121221;}.cls-3{fill:#366ce1;}</style></defs><title>clancwheel</title><g id="Слой_2" data-name="Слой 2"><g id="Work_space" data-name="Work space"><g id="clancwheel"><rect class="cls-1" x="1140" y="81.581" width="200" height="20" rx="10"/><path class="cls-2" d="M1240,1.581a50,50,0,1,0,50,50A50.005,50.005,0,0,0,1240,1.581Zm0,80a30,30,0,1,1,30-30A30,30,0,0,1,1240,81.581Z"/><circle class="cls-3" cx="1240" cy="51.581" r="30"/><path class="cls-2" d="M518.28,60h20.71a50,50,0,1,1,0-20H518.28a30,30,0,1,0,0,20Z"/><polygon class="cls-2" points="430 0 430 100 410 100 350 30.59 350 100 330 100 330 0 350 0 410 69.41 410 0 430 0"/><polygon class="cls-2" points="779.88 0 779.88 100 759.88 100 759.88 60 699.88 60 699.88 100 679.88 100 679.88 0 699.88 0 699.88 40 759.88 40 759.88 0 779.88 0"/><polygon class="cls-2" points="809.88 20 809.88 40 889.88 40 889.88 60 809.88 60 809.88 80 889.88 80 889.88 100 789.88 100 789.88 0 889.88 0 889.88 20 809.88 20"/><polygon class="cls-2" points="919.88 20 919.88 40 999.88 40 999.88 60 919.88 60 919.88 80 999.88 80 999.88 100 899.88 100 899.88 0 999.88 0 999.88 20 919.88 20"/><polygon class="cls-2" points="1109.88 80 1109.88 100 1009.88 100 1009.88 0 1029.88 0 1029.88 80 1109.88 80"/><polygon class="cls-2" points="210 80 210 100 110 100 110 0 130 0 130 80 210 80"/><path class="cls-2" d="M280.77,1.95,279.99,0H260.01l-.78,1.94L220,100h21.55l11.2-28h34.5l11.2,28H320ZM260.75,52,270,28.87,279.25,52Z"/><path class="cls-2" d="M78.28,60H98.99a50,50,0,1,1,0-20H78.28a30,30,0,1,0,0,20Z"/><path class="cls-2" d="M649.26,0,634.8,57.86,620.24,1.15,619.94,0H605.03L605,.11V0h-5.12l-.29,1.16L585.05,57.75,570.62,0H550V.02l24.61,98.41L575,100h19.86l.38-1.5,14.67-57.13,14.7,57.24.35,1.39h15.03l.01-.04V100h4.87l.37-1.46L669.88,0ZM630,50.99v.04l-.02-.04Zm0,47.53-.19.61.19-.64Z"/><polygon class="cls-2" points="630 51.03 629.98 50.99 630 50.99 630 51.03"/><polygon class="cls-2" points="630 98.52 629.81 99.13 630 98.49 630 98.52"/><polygon class="cls-2" points="630 98.52 629.81 99.13 630 98.49 630 98.52"/></g></g></g></svg>