<svg xmlns="http://www.w3.org/2000/svg" viewBox="0 0 1430 300"><defs><style>.cls-1{fill:#121221;}.cls-2{fill:#366ce1;}</style></defs><title>clear view</title><g id="Слой_2" data-name="Слой 2"><g id="Work_space" data-name="Work space"><g id="clear_view" data-name="clear view"><path class="cls-1" d="M1430,151.29a100,100,0,1,1,0-2.58,50,50,0,1,0,0,2.58Z"/><path class="cls-2" d="M1430,150A150,150,0,1,1,1280,0a150,150,0,0,1,150,150c0-.43-.01-.86-.02-1.29a100,100,0,1,0,0,2.58C1429.99,150.86,1430,150.43,1430,150Z"/><polygon class="cls-1" points="870 120 870 140 950 140 950 160 870 160 870 180 950 180 950 200 850 200 850 100 950 100 950 120 870 120"/><polygon class="cls-2" points="238.99 120 238.99 140 318.99 140 318.99 160 238.99 160 238.99 180 318.99 180 318.99 200 218.99 200 218.99 100 318.99 100 318.99 120 238.99 120"/><polygon class="cls-2" points="208.99 180 208.99 200 108.99 200 108.99 100 128.99 100 128.99 180 208.99 180"/><path class="cls-2" d="M538.99,130a30,30,0,0,0-30-30h-70V200h20V160h50a10,10,0,0,1,10,10v30h20V170a29.862,29.862,0,0,0-7.65-20A29.862,29.862,0,0,0,538.99,130Zm-80,10V120h50a10,10,0,0,1,0,20Z"/><path class="cls-2" d="M78.28,160H98.99a50,50,0,1,1,0-20H78.28a30,30,0,1,0,0,20Z"/><path class="cls-2" d="M389.76,101.95l-.78-1.95H369l-.78,1.94L328.99,200h21.55l11.2-28h34.5l11.2,28h21.55ZM369.74,152l9.25-23.13L388.24,152Z"/><polygon class="cls-1" points="810 120 810 180 840 180 840 200 760 200 760 180 790 180 790 120 760 120 760 100 840 100 840 120 810 120"/><polygon class="cls-1" points="750 100 710.78 198.07 710.01 200 690.01 200 689.24 198.07 650.02 100 671.56 100 700.01 171.14 728.47 100 750 100"/><path class="cls-1" d="M1059.38,100l-14.46,57.86-14.56-56.71-.3-1.15h-14.91l-.03.11V100H1010l-.29,1.16-14.54,56.59L980.74,100H960.12v.02l24.61,98.41.39,1.57h19.86l.38-1.5,14.67-57.13,14.7,57.24.35,1.39h15.03l.01-.04V200h4.87l.37-1.46L1080,100Zm-19.26,50.99v.04l-.02-.04Zm0,47.53-.19.61.19-.64Z"/><polygon class="cls-1" points="1040.12 151.03 1040.1 150.99 1040.12 150.99 1040.12 151.03"/><polygon class="cls-1" points="1040.12 198.52 1039.93 199.13 1040.12 198.49 1040.12 198.52"/><polygon class="cls-1" points="1040.12 198.52 1039.93 199.13 1040.12 198.49 1040.12 198.52"/></g></g></g></svg>