<svg xmlns="http://www.w3.org/2000/svg" viewBox="0 0 680 150"><defs><style>.cls-1,.cls-3,.cls-4{fill:#121221;}.cls-2{fill:#366ce1;}.cls-3{opacity:0.38;}.cls-4{opacity:0.62;}</style></defs><title>clear</title><g id="Слой_2" data-name="Слой 2"><g id="Work_space" data-name="Work space"><g id="clear"><path class="cls-1" d="M78.28,110H98.99a50,50,0,1,1,0-20H78.28a30,30,0,1,0,0,20Z"/><path class="cls-1" d="M330.992,59.472C282.485,29,231.344,77.64,256.737,126.235c3.188,6.1,10.816,13.754,16.91,16.959,20.821,10.949,41.7,7.818,56.353-3.2V150h20V93.985A40.743,40.743,0,0,0,330.992,59.472Zm-12.9,65.161c-29.752,18.1-60.828-12.976-42.728-42.728a19.578,19.578,0,0,1,6.538-6.538c29.752-18.1,60.828,12.976,42.728,42.728A19.578,19.578,0,0,1,318.1,124.633Z"/><path class="cls-1" d="M238.99,110a50.01,50.01,0,0,0,0-20,50,50,0,0,0-97.98,0,50.01,50.01,0,0,0,0,20,49.987,49.987,0,0,0,82.67,26.94q-7.965-6.375-15.94-12.75A29.992,29.992,0,0,1,161.72,110ZM190,70a29.979,29.979,0,0,1,28.28,20H161.72A29.979,29.979,0,0,1,190,70Z"/><path class="cls-1" d="M435.72,57.13q-5.145,8.58-10.29,17.15A29.99,29.99,0,0,0,380,100v50H360V50h20V60.01a49.958,49.958,0,0,1,55.72-2.88Z"/><rect class="cls-1" x="110" width="20" height="150"/><rect class="cls-2" x="570" y="50" width="30" height="30" transform="translate(650 -520) rotate(90)"/><rect class="cls-2" x="650" y="50" width="30" height="30" transform="translate(730 -600) rotate(90)"/><rect class="cls-2" x="610" y="90" width="30" height="30" transform="translate(730 -520) rotate(90)"/><rect class="cls-2" x="530" y="90" width="30" height="30" transform="translate(650 -440) rotate(90)"/><rect class="cls-2" x="490" y="50" width="30" height="30" transform="translate(570 -440) rotate(90)"/><rect class="cls-2" x="570" y="110" width="30" height="30" transform="translate(710 -460) rotate(90)"/><rect class="cls-3" x="610" y="90" width="30" height="30" transform="translate(730 -520) rotate(90)"/><rect class="cls-3" x="530" y="90" width="30" height="30" transform="translate(650 -440) rotate(90)"/><rect class="cls-4" x="570" y="110" width="30" height="30" transform="translate(710 -460) rotate(90)"/></g></g></g></svg>