<svg xmlns="http://www.w3.org/2000/svg" viewBox="0 0 1110 200"><defs><style>.cls-1{fill:#366ce1;}.cls-2{fill:#121221;}.cls-3{fill:#1c1e20;}.cls-4{fill:none;stroke:#366ce1;stroke-miterlimit:10;}</style></defs><title>clevertap</title><g id="Слой_2" data-name="Слой 2"><g id="Work_space" data-name="Work space"><g id="clevertap"><polygon class="cls-1" points="240 69.486 240 89.486 320 89.486 320 109.486 240 109.486 240 129.486 320 129.486 320 149.486 220 149.486 220 49.486 320 49.486 320 69.486 240 69.486"/><polygon class="cls-1" points="460 69.486 460 89.486 540 89.486 540 109.486 460 109.486 460 129.486 540 129.486 540 149.486 440 149.486 440 49.486 540 49.486 540 69.486 460 69.486"/><polygon class="cls-1" points="210 129.486 210 149.486 110 149.486 110 49.486 130 49.486 130 129.486 210 129.486"/><path class="cls-1" d="M650,79.486a30,30,0,0,0-30-30H550v100h20v-40h50a10,10,0,0,1,10,10v30h20v-30a29.862,29.862,0,0,0-7.65-20A29.862,29.862,0,0,0,650,79.486Zm-80,10v-20h50a10,10,0,0,1,0,20Z"/><path class="cls-1" d="M78.28,109.486H98.99a50,50,0,1,1,0-20H78.28a30,30,0,1,0,0,20Z"/><path class="cls-2" d="M810.77,52.464l-.78-1.95H790.01l-.78,1.94L750,150.514h21.55l11.2-28h34.5l11.2,28H850Zm-20.02,50.05L800,79.384l9.25,23.13Z"/><path class="cls-2" d="M930,50.514H860v100h20v-40h50a30,30,0,1,0,0-60Zm0,40H880v-20h50a10,10,0,0,1,0,20Z"/><polygon class="cls-2" points="760 50.514 760 70.514 720 70.514 720 150.514 700 150.514 700 70.514 660 70.514 660 50.514 760 50.514"/><polygon class="cls-1" points="429.98 49.486 390.76 147.556 389.99 149.486 369.99 149.486 369.22 147.556 330 49.486 351.54 49.486 379.99 120.626 408.45 49.486 429.98 49.486"/><path class="cls-3" d="M1110,50V200H1010V50a50,50,0,0,1,100,0Z"/><circle class="cls-4" cx="1060" cy="50" r="40"/><circle class="cls-4" cx="1060" cy="50" r="30"/><circle class="cls-4" cx="1060" cy="50" r="20"/></g></g></g></svg>