<svg id="Слой_1" data-name="Слой 1" xmlns="http://www.w3.org/2000/svg" viewBox="0 0 844.015 262.305"><defs><style>.cls-1,.cls-3,.cls-5{fill:#366ce1;}.cls-1,.cls-2,.cls-3,.cls-4{stroke:#e1e0e0;stroke-miterlimit:10;}.cls-1,.cls-2{stroke-width:14.591px;}.cls-2,.cls-4{fill:#121221;}.cls-3,.cls-4{stroke-width:9.017px;}</style></defs><title>clojure</title><path class="cls-1" d="M918.34,454.635c-.01.69-.03,1.38-.06,2.06-.02.57-.05,1.13-.08,1.69-.01.23-.02.45-.05.68-.03.5-.07,1-.11,1.5a1.841,1.841,0,0,1-.03.33c-.06.64-.13,1.27-.2,1.91-.16,1.34-.34,2.67-.56,3.99s-.48,2.63-.76,3.93c-.14.65-.29,1.29-.45,1.94-.15.61-.3,1.22-.47,1.83a.607.607,0,0,1-.05.18c-.16.59-.32,1.18-.5,1.77a.161.161,0,0,1-.03.09c-.15.53-.31,1.05-.48,1.57a5.251,5.251,0,0,1-.17.52c-.14.43-.28.86-.43,1.29-.08.24-.16.48-.26.71-.17.48-.34.97-.53,1.45-.23.61-.47,1.22-.71,1.82s-.5,1.2-.76,1.8-.52,1.19-.8,1.77-.55,1.18-.84,1.76c-.25.5-.5,1-.76,1.5-.09.17-.17.33-.26.49-.24.46-.49.92-.74,1.37-.03.06-.06.11-.09.16q-.42.75-.84,1.47c-.07.12-.14.23-.2.34-.24.4-.47.79-.71,1.18-.46.74-.92,1.47-1.39,2.18-.24.36-.47.71-.71,1.06-.14.2-.27.39-.4.57-.29.42-.59.84-.89,1.25-.28.4-.57.8-.87,1.18-.26.36-.53.71-.81,1.06-.3.4-.61.78-.92,1.16-.28.36-.58.72-.88,1.07-.96,1.15-1.95,2.28-2.97,3.36-.31.33-.62.67-.94.99-.59.61-1.18,1.2-1.78,1.78-.32.32-.65.63-.98.94q-.84.81-1.71,1.56c-.34.31-.68.61-1.03.9-.4.35-.8.69-1.21,1.02q-.69.585-1.41,1.14c-.54.43-1.09.85-1.64,1.26-.39.3-.78.58-1.18.87q-.51.375-1.02.72c-.44.31-.89.61-1.34.91a80.518,80.518,0,0,1-13.38,7.22c-.42.18-.84.35-1.27.52a79.982,79.982,0,0,1-16.03,4.6c-.66.12-1.32.22-1.98.32-1.33.21-2.66.37-4.01.51-1.97.2-3.95.33-5.96.37-.74.03-1.49.04-2.24.04s-1.5-.01-2.24-.04c-2.01-.04-3.99-.17-5.96-.37-1.35-.14-2.68-.3-4.01-.51-.66-.1-1.32-.2-1.98-.32a79.982,79.982,0,0,1-16.03-4.6c-.43-.17-.85-.34-1.27-.52a80.518,80.518,0,0,1-13.38-7.22c-.45-.29-.89-.59-1.33-.91-.34-.23-.68-.47-1.03-.72-.4-.29-.79-.57-1.18-.87-.55-.41-1.1-.83-1.64-1.26q-.72-.555-1.41-1.14c-.41-.33-.81-.67-1.21-1.02-.35-.29-.69-.59-1.03-.9q-.87-.75-1.71-1.56c-.33-.31-.66-.62-.98-.94-.6-.58-1.19-1.17-1.78-1.78-.32-.32-.63-.66-.94-.99-1.02-1.08-2.01-2.21-2.97-3.36-.3-.35-.6-.71-.88-1.07-.31-.38-.62-.76-.92-1.16-.28-.35-.55-.7-.81-1.06-.3-.38-.59-.78-.87-1.18-.3-.41-.6-.83-.89-1.25-.13-.18-.26-.37-.4-.57-.24-.35-.47-.7-.71-1.06-.47-.71-.93-1.44-1.39-2.18-.24-.39-.47-.78-.71-1.18-.06-.11-.13-.22-.2-.34q-.42-.72-.84-1.47c-.03-.05-.06-.1-.09-.16-.25-.45-.5-.91-.74-1.37-.09-.16-.17-.32-.26-.49-.26-.5-.51-1-.76-1.5-.29-.58-.57-1.17-.84-1.76s-.54-1.18-.8-1.77-.51-1.2-.76-1.8-.48-1.21-.71-1.82c-.19-.48-.36-.97-.53-1.45-.1-.23-.18-.47-.26-.71-.15-.43-.29-.86-.43-1.29a5.251,5.251,0,0,1-.17-.52c-.17-.52-.33-1.04-.48-1.57a.161.161,0,0,1-.03-.09c-.18-.59-.34-1.18-.5-1.77a.607.607,0,0,1-.05-.18c-.17-.61-.32-1.22-.47-1.83-.16-.65-.31-1.29-.45-1.94-.28-1.3-.54-2.61-.76-3.93s-.4-2.65-.56-3.99c-.07-.64-.14-1.27-.2-1.91a1.841,1.841,0,0,1-.03-.33c-.04-.5-.08-1-.11-1.5-.03-.23-.04-.45-.05-.68-.03-.56-.06-1.12-.08-1.69-.03-.68-.05-1.37-.06-2.06-.02-.41-.02-.83-.02-1.24s0-.83.02-1.24a40.472,40.472,0,0,1,49.99-38.07,50,50,0,1,0,61.79,78.62,40.462,40.462,0,0,0,49.98-38.07Z" transform="translate(-81.64 -365.2)"/><path class="cls-2" d="M918.36,453.4c0,.41,0,.83-.02,1.24a40.462,40.462,0,0,1-49.98,38.07,50,50,0,1,0-61.79-78.62,40.472,40.472,0,0,0-49.99,38.07c.01-.69.03-1.38.06-2.06.02-.57.05-1.13.08-1.69.01-.23.02-.45.05-.68.03-.5.07-1,.11-1.5a1.841,1.841,0,0,1,.03-.33c.06-.64.13-1.27.2-1.91.16-1.34.34-2.67.56-3.99s.48-2.63.76-3.93c.14-.65.29-1.29.45-1.94.15-.61.3-1.22.47-1.83a.607.607,0,0,1,.05-.18c.16-.59.32-1.18.5-1.77a.161.161,0,0,1,.03-.09c.15-.53.31-1.05.48-1.57a5.251,5.251,0,0,1,.17-.52c.14-.43.28-.86.43-1.29.08-.24.16-.48.26-.71.17-.48.34-.97.53-1.45.23-.61.47-1.22.71-1.82s.5-1.2.76-1.8.52-1.19.8-1.77.55-1.18.84-1.76c.25-.5.5-1,.76-1.5.09-.17.17-.33.26-.49.24-.46.49-.92.74-1.37.03-.06.06-.11.09-.16q.42-.75.84-1.47c.07-.12.14-.23.2-.34.24-.4.47-.79.71-1.18.46-.74.92-1.47,1.39-2.18.24-.36.47-.71.71-1.06.14-.2.27-.39.4-.57.29-.42.59-.84.89-1.25.28-.4.57-.8.87-1.18.26-.36.53-.71.81-1.06.3-.4.61-.78.92-1.16.28-.36.58-.72.88-1.07.96-1.15,1.95-2.28,2.97-3.36.3-.33.61-.66.94-.98.58-.61,1.18-1.21,1.78-1.79.32-.32.65-.63.98-.94q.84-.81,1.71-1.56c.34-.31.68-.61,1.03-.9.4-.35.8-.69,1.21-1.02q.69-.585,1.41-1.14a1.576,1.576,0,0,1,.15-.12c.49-.39.99-.77,1.49-1.14.39-.3.78-.58,1.18-.87.35-.25.69-.49,1.03-.72.44-.32.88-.62,1.33-.91a80.518,80.518,0,0,1,13.38-7.22c.42-.18.84-.35,1.27-.52a79.982,79.982,0,0,1,16.03-4.6c.66-.12,1.32-.22,1.98-.32,1.33-.21,2.66-.37,4.01-.51,1.97-.2,3.95-.33,5.96-.37.74-.03,1.49-.04,2.24-.04s1.5.01,2.24.04c2.01.04,3.99.17,5.96.37,1.35.14,2.68.3,4.01.51.66.1,1.32.2,1.98.32a79.982,79.982,0,0,1,16.03,4.6c.43.17.85.34,1.27.52a80.518,80.518,0,0,1,13.38,7.22c.45.3.9.6,1.34.91q.51.345,1.02.72c.4.29.79.57,1.18.87.5.37,1,.75,1.49,1.14a1.576,1.576,0,0,1,.15.12q.72.555,1.41,1.14c.41.33.81.67,1.21,1.02.35.29.69.59,1.03.9q.87.75,1.71,1.56c.33.31.66.62.98.94.6.58,1.2,1.18,1.78,1.79.33.32.64.65.94.98,1.02,1.08,2.01,2.21,2.97,3.36.3.35.6.71.88,1.07.31.38.62.76.92,1.16.28.35.55.7.81,1.06.3.38.59.78.87,1.18.3.41.6.83.89,1.25.13.18.26.37.4.57.24.35.47.7.71,1.06.47.71.93,1.44,1.39,2.18.24.39.47.78.71,1.18.06.11.13.22.2.34q.42.72.84,1.47c.03.05.06.1.09.16.25.45.5.91.74,1.37.09.16.17.32.26.49.26.5.51,1,.76,1.5.29.58.57,1.17.84,1.76s.54,1.18.8,1.77.51,1.2.76,1.8.48,1.21.71,1.82c.19.48.36.97.53,1.45.1.23.18.47.26.71.15.43.29.86.43,1.29a5.251,5.251,0,0,1,.17.52c.17.52.33,1.04.48,1.57a.161.161,0,0,1,.03.09c.18.59.34,1.18.5,1.77a.607.607,0,0,1,.05.18c.17.61.32,1.22.47,1.83.16.65.31,1.29.45,1.94.28,1.3.54,2.61.76,3.93s.4,2.65.56,3.99c.07.64.14,1.27.2,1.91a1.841,1.841,0,0,1,.03.33c.04.5.08,1,.11,1.5.03.23.04.45.05.68.03.56.06,1.12.08,1.69.03.68.05,1.37.06,2.06C918.36,452.565,918.36,452.985,918.36,453.4Z" transform="translate(-81.64 -365.2)"/><path class="cls-3" d="M839.62,503.345c-.72.03-1.44.05-2.16.05a50,50,0,0,1-30.89-89.31,40.45,40.45,0,0,1,30.89,39.31,2.62,2.62,0,0,0,.01.28,40.46,40.46,0,0,0-18.08,46.11A50.031,50.031,0,0,0,839.62,503.345Z" transform="translate(-81.64 -365.2)"/><path class="cls-3" d="M868.36,492.705a49.8,49.8,0,0,1-27.65,10.59c-.36.03-.73.04-1.09.05a50.031,50.031,0,0,1-20.23-3.56,40.46,40.46,0,0,1,18.08-46.11A40.444,40.444,0,0,0,868.36,492.705Z" transform="translate(-81.64 -365.2)"/><path class="cls-4" d="M887.46,453.4a49.905,49.905,0,0,1-19.1,39.31,40.444,40.444,0,0,1-30.89-39.03,2.62,2.62,0,0,1-.01-.28,40.45,40.45,0,0,0-30.89-39.31,49.986,49.986,0,0,1,80.89,39.31Z" transform="translate(-81.64 -365.2)"/><path class="cls-5" d="M633.83,462.435a49.555,49.555,0,0,1,9.18-12.59A50.334,50.334,0,0,0,633.83,462.435Z" transform="translate(-81.64 -365.2)"/><path class="cls-5" d="M197.89,489.645l21.85,21.85a80.9,80.9,0,1,1,0-114.4l-21.85,21.85a50,50,0,1,0,0,70.7Z" transform="translate(-81.64 -365.2)"/><path class="cls-5" d="M633.83,507.955a50.334,50.334,0,0,0,9.18,12.59A49.555,49.555,0,0,1,633.83,507.955Z" transform="translate(-81.64 -365.2)"/><path class="cls-5" d="M354.22,449.845a49.974,49.974,0,1,0,14.65,35.35A49.844,49.844,0,0,0,354.22,449.845ZM318.87,516.1a30.9,30.9,0,1,1,30.9-30.9A30.894,30.894,0,0,1,318.87,516.1Z" transform="translate(-81.64 -365.2)"/><path class="cls-5" d="M405.236,465.705v151.33a49.682,49.682,0,0,1-23.61,9.98,50.483,50.483,0,0,1-7,.49,49.724,49.724,0,0,1-31.04-10.81l13.65-13.65a30.764,30.764,0,0,0,17.39,5.36,31.619,31.619,0,0,0,7-.79v-28.96l.28-.28-.28-.28V465.705Z" transform="translate(-81.64 -365.2)"/><rect class="cls-5" x="150.861" y="8.195" width="23.608" height="161.8"/><path class="cls-5" d="M517.99,434.2v50.51c0,.16,0,.33-.01.49a49.992,49.992,0,0,1-99.98-.06c-.01-.14-.01-.29-.01-.43V434.2H437.1v49.71c-.01.27-.01.53-.01.8,0,.14,0,.29.01.43a30.9,30.9,0,0,0,61.79.06c.01-.16.01-.33.01-.49,0-.27,0-.53-.01-.8V434.2Z" transform="translate(-81.64 -365.2)"/><path class="cls-5" d="M417.99,484.705c0,.14,0,.29.01.43h-.01Z" transform="translate(-81.64 -365.2)"/><path class="cls-5" d="M437.09,484.705c0-.27,0-.53.01-.8v1.23C437.09,485,437.09,484.845,437.09,484.705Z" transform="translate(-81.64 -365.2)"/><path class="cls-5" d="M498.89,483.905c.01.27.01.53.01.8,0,.16,0,.33-.01.49Z" transform="translate(-81.64 -365.2)"/><path class="cls-5" d="M517.98,485.2c.01-.16.01-.33.01-.49v.49Z" transform="translate(-81.64 -365.2)"/><path class="cls-5" d="M720.03,496.675a50.014,50.014,0,0,0-93.2-34.24c-.18.36-.36.72-.54,1.09-.35.73-.68,1.47-1,2.21-.16.38-.31.75-.46,1.13-.45,1.14-.86,2.29-1.22,3.47-.12.39-.24.78-.35,1.18-.23.79-.43,1.59-.62,2.39s-.35,1.62-.5,2.44a48.43,48.43,0,0,0-.63,5c-.07.85-.11,1.7-.13,2.56-.01.43-.02.86-.02,1.29s.01.86.02,1.29c.02.86.06,1.71.13,2.56a48.43,48.43,0,0,0,.63,5c.15.82.31,1.63.5,2.44s.39,1.6.62,2.39c.11.4.23.79.35,1.18.36,1.18.77,2.33,1.22,3.47.15.38.3.75.46,1.13.32.74.65,1.48,1,2.21.18.37.36.73.54,1.09a50.334,50.334,0,0,0,9.18,12.59,49.974,49.974,0,0,0,70.7,0l-13.5-13.5c-.35.35-.71.69-1.07,1.02s-.75.67-1.13.97c-.38.32-.77.63-1.16.92h-.01c-.39.3-.8.59-1.2.86h-.01c-.41.28-.83.55-1.25.81s-.85.5-1.29.74h-.01c-.44.24-.88.47-1.32.68h-.01c-.45.22-.9.43-1.36.62q-.45.195-.9.36c-.4.16-.81.31-1.22.45a31.409,31.409,0,0,1-4.44,1.14c-.51.09-1.02.17-1.53.23a30.092,30.092,0,0,1-3.94.25,30.918,30.918,0,0,1-28.7-19.42Zm-77.1-23.6a30.9,30.9,0,0,1,28.43-18.78,30.092,30.092,0,0,1,3.94.25c.51.06,1.02.14,1.53.23a31.409,31.409,0,0,1,4.44,1.14c.41.14.82.29,1.22.45q.45.165.9.36c.46.19.91.4,1.36.62h.01c.44.21.88.44,1.32.68h.01c.44.24.87.49,1.29.74s.84.53,1.25.81h.01c.4.27.81.56,1.2.86h.01c.39.29.78.6,1.16.92,0,0,0-.01.01,0,.38.31.75.63,1.12.97s.72.67,1.07,1.02a30.923,30.923,0,0,1,6.58,9.73Z" transform="translate(-81.64 -365.2)"/><path class="cls-5" d="M615.6,449.515l-13.51,13.51a30.885,30.885,0,0,0-47.72,4.95V534.2h-23.61v-100h23.61v7.89a50.02,50.02,0,0,1,61.23,7.43Z" transform="translate(-81.64 -365.2)"/><circle class="cls-5" cx="311.792" cy="81.799" r="11.804"/></svg>