<svg id="Complete" xmlns="http://www.w3.org/2000/svg" viewBox="0 0 510 320"><defs><style>.cls-1{fill:#366ce1;}.cls-2{fill:#121221;}</style></defs><title>close</title><g id="close"><path class="cls-1" d="M485,340c-27.61,0-50,44.77-50,100s22.39,100,50,100,50-44.77,50-100S512.61,340,485,340Zm0,180c-16.57,0-30-35.82-30-80s13.43-80,30-80,30,35.82,30,80S501.57,520,485,520Z" transform="translate(-245 -340)"/><path class="cls-2" d="M555.711,369.289c-19.524-19.523-67.013-3.7-106.066,35.356s-54.879,86.542-35.356,106.066,67.013,3.7,106.066-35.356S575.234,388.813,555.711,369.289Zm-127.28,127.28c-11.716-11.717,4.116-46.542,35.356-77.782s66.065-47.072,77.782-35.356-4.116,46.542-35.356,77.782S440.148,508.285,428.431,496.569Z" transform="translate(-245 -340)"/><path class="cls-1" d="M585,440c0-27.61-44.77-50-100-50s-100,22.39-100,50,44.77,50,100,50S585,467.61,585,440Zm-180,0c0-16.57,35.82-30,80-30s80,13.43,80,30-35.82,30-80,30S405,456.57,405,440Z" transform="translate(-245 -340)"/><path class="cls-2" d="M554.784,511.638c19.523-19.524,3.7-67.013-35.356-106.066s-86.542-54.879-106.066-35.356-3.7,67.013,35.356,106.066S535.261,531.161,554.784,511.638ZM427.505,384.358c11.716-11.716,46.541,4.116,77.781,35.356s47.072,66.065,35.356,77.781S494.1,493.38,462.86,462.14,415.788,396.075,427.505,384.358Z" transform="translate(-245 -340)"/><path class="cls-2" d="M295,640h39.99a50,50,0,1,1,0-60H295a30,30,0,0,0,0,60Z" transform="translate(-245 -340)"/><path class="cls-1" d="M485,560a50,50,0,1,0,50,50A50.005,50.005,0,0,0,485,560Zm0,80a30,30,0,1,1,30-30A30,30,0,0,1,485,640Z" transform="translate(-245 -340)"/><path class="cls-2" d="M434.99,640A49.993,49.993,0,0,1,345,610V560h20v50a30,30,0,0,0,30,30Z" transform="translate(-245 -340)"/><path class="cls-2" d="M754.98,608.67c-.04-1.49-.14-2.97-.31-4.43-.02-.19-.04-.37-.07-.56-.03-.3-.08-.6-.12-.9-.14-.93-.3-1.86-.49-2.78,0-.02-.01-.05-.01-.07-.14-.69-.3-1.37-.47-2.05-.1-.4-.2-.8-.31-1.2-.08-.3-.17-.59-.26-.89a48.9,48.9,0,0,0-3.12-7.96c-.15-.31-.31-.63-.48-.94a50.118,50.118,0,0,0-3.6-5.87c-.22-.31-.45-.62-.68-.93a51.193,51.193,0,0,0-3.87-4.58c-.28-.29-.56-.58-.84-.86s-.57-.57-.86-.84-.58-.55-.88-.82-.59-.53-.89-.79-.61-.53-.92-.78-.62-.5-.94-.75-.63-.49-.95-.73c-.96-.73-1.96-1.41-2.97-2.06-.31-.2-.63-.4-.95-.6a49.367,49.367,0,0,0-4.41-2.39c-.33-.16-.67-.32-1.01-.47s-.67-.3-1-.44a49.518,49.518,0,0,0-7.52-2.51c-.35-.09-.7-.18-1.05-.25-.71-.17-1.43-.31-2.15-.44-.41-.07-.83-.14-1.24-.2-.39-.06-.77-.12-1.16-.17-.86-.11-1.73-.2-2.6-.26-.43-.04-.85-.06-1.28-.08s-.85-.04-1.28-.05-.86-.02-1.29-.02-.86.01-1.29.02-.86.02-1.28.05-.85.04-1.28.08c-.87.06-1.74.15-2.6.26-.39.05-.77.11-1.16.17-.41.06-.83.13-1.24.2-.72.13-1.44.27-2.15.44-.35.07-.7.16-1.05.25a49.518,49.518,0,0,0-7.52,2.51c-.33.14-.67.29-1,.44s-.68.31-1.01.47a49.367,49.367,0,0,0-4.41,2.39c-.32.2-.64.4-.95.6-1.01.65-2.01,1.33-2.97,2.06-.32.24-.64.48-.95.73s-.63.5-.94.75-.62.52-.92.78-.6.53-.89.79-.59.55-.88.82-.58.55-.86.84-.56.57-.84.86a51.193,51.193,0,0,0-3.87,4.58c-.23.31-.46.62-.68.93a50.118,50.118,0,0,0-3.6,5.87c-.17.31-.33.63-.48.94a48.9,48.9,0,0,0-3.12,7.96c-.09.3-.18.59-.26.89-.11.4-.21.8-.31,1.2-.17.68-.33,1.36-.47,2.05,0,.02-.01.05-.01.07-.19.92-.35,1.85-.49,2.78-.04.3-.09.6-.12.9-.03.19-.05.37-.07.56-.17,1.46-.27,2.94-.31,4.43-.01.44-.02.88-.02,1.33s.01.89.02,1.33c.04,1.49.14,2.97.31,4.43.05.49.12.97.19,1.46.14.93.3,1.86.49,2.78,0,.02.01.05.01.07.14.69.3,1.37.47,2.05.1.4.2.8.31,1.2.08.3.17.59.26.89a48.9,48.9,0,0,0,3.12,7.96c.15.31.31.63.48.94a50.118,50.118,0,0,0,3.6,5.87c.22.31.45.62.68.93a51.193,51.193,0,0,0,3.87,4.58c.28.29.56.58.84.86s.57.57.86.84.58.55.88.82.59.53.89.79.61.53.92.78.62.5.94.75.63.49.95.73c.96.73,1.96,1.41,2.97,2.06.31.2.63.4.95.6a49.367,49.367,0,0,0,4.41,2.39c.33.16.67.32,1.01.47s.67.3,1,.44a49.518,49.518,0,0,0,7.52,2.51c.35.09.7.18,1.05.25.71.17,1.43.31,2.15.44.41.07.83.14,1.24.2.39.06.77.12,1.16.17.86.11,1.73.2,2.6.26.43.04.85.06,1.28.08s.85.04,1.28.05.86.02,1.29.02a49.891,49.891,0,0,0,39.99-20H705c-.51,0-1.01-.01-1.51-.04-.35-.01-.69-.04-1.03-.07s-.65-.06-.98-.1c-.35-.04-.7-.08-1.05-.14-.47-.07-.93-.15-1.39-.24-.03-.01-.05-.01-.08-.02-.49-.1-.97-.21-1.45-.34-.48-.11-.96-.25-1.43-.4-.41-.12-.81-.26-1.21-.41a2.827,2.827,0,0,1-.31-.11c-.42-.15-.83-.31-1.23-.49-.45-.18-.89-.38-1.33-.6-.38-.18-.76-.37-1.14-.58-.08-.04-.17-.08-.25-.13a27.564,27.564,0,0,1-2.38-1.46c-.35-.23-.7-.47-1.04-.73-.1-.07-.2-.14-.3-.22-.32-.24-.63-.49-.94-.75-.01-.01-.03-.02-.04-.03-.72-.59-1.41-1.22-2.07-1.88a1.593,1.593,0,0,1-.13-.13c-.28-.28-.56-.57-.81-.86-.41-.43-.79-.88-1.16-1.33-.42-.51-.81-1.03-1.19-1.57-.19-.26-.37-.52-.53-.78-.2-.29-.39-.58-.57-.88-.17-.27-.33-.54-.48-.82-.14-.22-.27-.45-.39-.68-.18-.34-.35-.68-.52-1.02-.12-.23-.24-.47-.34-.71-.07-.16-.15-.33-.22-.49-.14-.3-.26-.6-.37-.91a10.872,10.872,0,0,1-.41-1.08h77.27c.19-.92.35-1.85.49-2.78.07-.49.14-.97.19-1.46.17-1.46.27-2.94.31-4.43.01-.44.02-.88.02-1.33S754.99,609.11,754.98,608.67ZM676.72,600a10.872,10.872,0,0,1,.41-1.08c.11-.31.23-.61.37-.91.07-.16.15-.33.22-.49.1-.24.22-.48.34-.71.17-.34.34-.68.52-1.02.12-.23.25-.46.39-.68.15-.28.31-.55.48-.82.18-.3.37-.59.57-.88.16-.26.34-.52.53-.78.38-.54.77-1.06,1.19-1.57.37-.45.75-.9,1.16-1.33.25-.29.53-.58.81-.86a1.593,1.593,0,0,1,.13-.13c.66-.66,1.35-1.29,2.07-1.88.01-.01.03-.02.04-.03.31-.26.62-.51.94-.75.1-.08.2-.15.3-.22.34-.26.69-.5,1.04-.73a27.564,27.564,0,0,1,2.38-1.46c.08-.05.17-.09.25-.13.38-.21.76-.4,1.14-.58.44-.22.88-.42,1.33-.6.4-.18.81-.34,1.23-.49a2.827,2.827,0,0,1,.31-.11c.4-.15.8-.29,1.21-.41.47-.15.95-.29,1.43-.4.48-.13.96-.24,1.45-.34.03-.01.05-.01.08-.02.46-.09.92-.17,1.39-.24.35-.06.7-.1,1.05-.14.33-.04.65-.08.98-.1s.68-.06,1.03-.07c.5-.03,1-.04,1.51-.04s1.01.01,1.51.04c.35.01.69.04,1.03.07s.65.06.98.1c.35.04.7.08,1.05.14.47.07.93.15,1.39.24.03.01.05.01.08.02.49.1.97.21,1.45.34.48.11.96.25,1.43.4.41.12.81.26,1.21.41a2.827,2.827,0,0,1,.31.11c.42.15.83.31,1.23.49.45.18.89.38,1.33.6.38.18.76.37,1.14.58.08.04.17.08.25.13a27.564,27.564,0,0,1,2.38,1.46c.35.23.7.47,1.04.73.1.07.2.14.3.22.32.24.63.49.94.75.01.01.03.02.04.03.72.59,1.41,1.22,2.07,1.88a1.593,1.593,0,0,1,.13.13c.28.28.56.57.81.86.41.43.79.88,1.16,1.33.42.51.81,1.03,1.19,1.57.19.26.37.52.53.78.2.29.39.58.57.88.17.27.33.54.48.82.14.22.27.45.39.68.18.34.35.68.52,1.02.12.23.24.47.34.71.07.16.15.33.22.49.14.3.26.6.37.91a10.872,10.872,0,0,1,.41,1.08Z" transform="translate(-245 -340)"/><path class="cls-2" d="M645,600v10a49.16,49.16,0,0,1-1.01,10,49.993,49.993,0,0,1-88.98,20H595a29.979,29.979,0,0,0,28.28-20H545V610a49.16,49.16,0,0,1,1.01-10,49.993,49.993,0,0,1,88.98-20H595a29.979,29.979,0,0,0-28.28,20Z" transform="translate(-245 -340)"/><path class="cls-1" d="M744.67,604.24c.17,1.46.27,2.94.31,4.43C744.94,607.17,744.84,605.7,744.67,604.24Zm.31,7.09c-.04,1.49-.14,2.97-.31,4.43C744.84,614.3,744.94,612.83,744.98,611.33Zm-99.65-7.09c-.17,1.46-.27,2.93-.31,4.43C645.06,607.18,645.16,605.7,645.33,604.24Zm0,11.52c-.17-1.46-.27-2.94-.31-4.43C645.06,612.83,645.16,614.3,645.33,615.76Z" transform="translate(-245 -340)"/></g></svg>