<svg xmlns="http://www.w3.org/2000/svg" viewBox="0 0 1100 101.394"><defs><style>.cls-1{fill:#121221;}.cls-2{fill:#366ce1;}</style></defs><title>cloud flare</title><g id="Слой_2" data-name="Слой 2"><g id="Work_space" data-name="Work space"><g id="cloud_flare" data-name="cloud flare"><polygon class="cls-1" points="580 21.394 580 41.394 640 41.394 640 61.394 580 61.394 580 101.394 560 101.394 560 1.394 660 1.394 660 21.394 580 21.394"/><path class="cls-2" d="M490,0H440V100h50A50,50,0,0,0,490,0Zm0,80H460V20h30a30,30,0,0,1,0,60Z"/><polygon class="cls-1" points="1020 21.394 1020 41.394 1100 41.394 1100 61.394 1020 61.394 1020 81.394 1100 81.394 1100 101.394 1000 101.394 1000 1.394 1100 1.394 1100 21.394 1020 21.394"/><polygon class="cls-2" points="210 80 210 100 110 100 110 0 130 0 130 80 210 80"/><polygon class="cls-1" points="770 81.394 770 101.394 670 101.394 670 1.394 690 1.394 690 81.394 770 81.394"/><path class="cls-1" d="M990,31.394a30,30,0,0,0-30-30H890v100h20v-40h50a10,10,0,0,1,10,10v30h20v-30a29.862,29.862,0,0,0-7.65-20A29.862,29.862,0,0,0,990,31.394Zm-80,10v-20h50a10,10,0,0,1,0,20Z"/><path class="cls-2" d="M270,0a50,50,0,1,0,50,50A50.005,50.005,0,0,0,270,0Zm0,80a30,30,0,1,1,30-30A30,30,0,0,1,270,80Z"/><path class="cls-2" d="M78.28,60H98.99a50,50,0,1,1,0-20H78.28a30,30,0,1,0,0,20Z"/><path class="cls-1" d="M840.77,3.344l-.78-1.95H820.01l-.78,1.94L780,101.394h21.55l11.2-28h34.5l11.2,28H880Zm-20.02,50.05L830,30.264l9.25,23.13Z"/><path class="cls-2" d="M430,0V50a50,50,0,0,1-100,0V0h20V50a30,30,0,0,0,60,0V0Z"/></g></g></g></svg>