<svg xmlns="http://www.w3.org/2000/svg" viewBox="0 0 1480 300"><defs><style>.cls-1{fill:#366ce1;}.cls-2,.cls-3,.cls-4{fill:#121221;}.cls-3{opacity:0.68;}.cls-4{opacity:0.38;}</style></defs><title>cloudbees</title><g id="Слой_2" data-name="Слой 2"><g id="Work_space" data-name="Work space"><g id="cloudbees"><path class="cls-1" d="M490,100H440V200h50a50,50,0,0,0,0-100Zm0,80H460V120h30a30,30,0,0,1,0,60Z"/><path class="cls-2" d="M900,130a10,10,0,0,0,10,10h40a30,30,0,0,1,0,60H880V180h70a10,10,0,0,0,0-20H910a30,30,0,0,1,0-60h70v20H910A10,10,0,0,0,900,130Z"/><polygon class="cls-2" points="680 120 680 140 760 140 760 160 680 160 680 180 760 180 760 200 660 200 660 100 760 100 760 120 680 120"/><polygon class="cls-2" points="790 120 790 140 870 140 870 160 790 160 790 180 870 180 870 200 770 200 770 100 870 100 870 120 790 120"/><polygon class="cls-1" points="210 180 210 200 110 200 110 100 130 100 130 180 210 180"/><path class="cls-1" d="M270,100a50,50,0,1,0,50,50A50.005,50.005,0,0,0,270,100Zm0,80a30,30,0,1,1,30-30A30,30,0,0,1,270,180Z"/><path class="cls-1" d="M78.28,160H98.99a50,50,0,1,1,0-20H78.28a30,30,0,1,0,0,20Z"/><path class="cls-2" d="M650,130a30,30,0,0,0-30-30H550V200h70a29.991,29.991,0,0,0,22.35-50A29.862,29.862,0,0,0,650,130Zm-80-10h50a10,10,0,0,1,0,20H570Zm50,60H570V160h50a10,10,0,0,1,0,20Z"/><path class="cls-1" d="M430,100v50a50,50,0,0,1-100,0V100h20v50a30,30,0,0,0,60,0V100Z"/><path class="cls-1" d="M1480,170a100.021,100.021,0,0,1-146.49,88.55A150,150,0,0,1,1109.99,240,50,50,0,1,1,1080,150a150.014,150.014,0,0,1,278.36-77.65A100.079,100.079,0,0,1,1480,170Z"/><path class="cls-3" d="M1084.375,211.963a10.094,10.094,0,0,1,6.534,6.258,30.21,30.21,0,0,1-19.186.416A10.115,10.115,0,0,1,1084.375,211.963Z"/><path class="cls-4" d="M1106.3,207.147a30.254,30.254,0,0,1-21.389,10.637,20.234,20.234,0,0,1,28.229-25.439A30.2,30.2,0,0,1,1106.3,207.147Z"/><path class="cls-4" d="M1056.84,207.147a30.254,30.254,0,0,0,21.389,10.637A20.234,20.234,0,0,0,1050,192.345,30.2,30.2,0,0,0,1056.84,207.147Z"/><path class="cls-3" d="M1271.237,81.963a10.094,10.094,0,0,1,6.534,6.258,30.21,30.21,0,0,1-19.186.416A10.116,10.116,0,0,1,1271.237,81.963Z"/><path class="cls-4" d="M1293.16,77.147a30.254,30.254,0,0,1-21.389,10.637A20.234,20.234,0,0,1,1300,62.345,30.2,30.2,0,0,1,1293.16,77.147Z"/><path class="cls-4" d="M1243.7,77.147a30.254,30.254,0,0,0,21.389,10.637,20.234,20.234,0,0,0-28.229-25.439A30.2,30.2,0,0,0,1243.7,77.147Z"/><path class="cls-3" d="M1241.237,241.963a10.094,10.094,0,0,1,6.534,6.258,30.21,30.21,0,0,1-19.186.416A10.116,10.116,0,0,1,1241.237,241.963Z"/><path class="cls-4" d="M1263.16,237.147a30.254,30.254,0,0,1-21.389,10.637A20.234,20.234,0,0,1,1270,222.345,30.2,30.2,0,0,1,1263.16,237.147Z"/><path class="cls-4" d="M1213.7,237.147a30.254,30.254,0,0,0,21.389,10.637,20.234,20.234,0,0,0-28.229-25.439A30.2,30.2,0,0,0,1213.7,237.147Z"/><path class="cls-3" d="M1371.237,131.963a10.094,10.094,0,0,1,6.534,6.258,30.21,30.21,0,0,1-19.186.416A10.116,10.116,0,0,1,1371.237,131.963Z"/><path class="cls-4" d="M1393.16,127.147a30.254,30.254,0,0,1-21.389,10.637A20.234,20.234,0,0,1,1400,112.345,30.2,30.2,0,0,1,1393.16,127.147Z"/><path class="cls-4" d="M1343.7,127.147a30.254,30.254,0,0,0,21.389,10.637,20.234,20.234,0,0,0-28.229-25.439A30.2,30.2,0,0,0,1343.7,127.147Z"/><path class="cls-3" d="M1411.237,211.963a10.094,10.094,0,0,1,6.534,6.258,30.21,30.21,0,0,1-19.186.416A10.116,10.116,0,0,1,1411.237,211.963Z"/><path class="cls-4" d="M1433.16,207.147a30.254,30.254,0,0,1-21.389,10.637A20.234,20.234,0,0,1,1440,192.345,30.2,30.2,0,0,1,1433.16,207.147Z"/><path class="cls-4" d="M1383.7,207.147a30.254,30.254,0,0,0,21.389,10.637,20.234,20.234,0,0,0-28.229-25.439A30.2,30.2,0,0,0,1383.7,207.147Z"/><path class="cls-3" d="M1161.237,131.963a10.094,10.094,0,0,1,6.534,6.258,30.21,30.21,0,0,1-19.186.416A10.116,10.116,0,0,1,1161.237,131.963Z"/><path class="cls-4" d="M1183.16,127.147a30.254,30.254,0,0,1-21.389,10.637A20.234,20.234,0,0,1,1190,112.345,30.2,30.2,0,0,1,1183.16,127.147Z"/><path class="cls-4" d="M1133.7,127.147a30.254,30.254,0,0,0,21.389,10.637,20.234,20.234,0,0,0-28.229-25.439A30.2,30.2,0,0,0,1133.7,127.147Z"/></g></g></g></svg>