<svg id="Complete" xmlns="http://www.w3.org/2000/svg" viewBox="0 0 224.736 194.644"><defs><style>.cls-1{fill:#366ce1;}.cls-2{fill:#e1dfdf;}.cls-3{fill:#1c1e20;}</style></defs><title>cloud machine learning language</title><g id="cloud_machine_learning_language" data-name="cloud machine learning language"><polygon class="cls-1" points="224.736 97.322 168.562 194.644 56.174 194.644 0 97.322 56.174 0 168.562 0 224.736 97.322"/><path class="cls-2" d="M495,464.29V435.71q-5-4.995-10-10H462.49L425,490.67l37.49,64.96H490v-1.34l5-5v-5H480l-10-10h25v-30h-5l-10-10H450l10-10h20l10,10h5v-20h-5v10l-10-10,10-10Zm-15,40,10,10v10H480l-10-10H450l-10-10Zm-10-30H440l10-10h10l10-10,10-10h10v10l-10,10Zm67.51-48.58H515q-5,5.01-10,10v28.58h5l10,10-10,10v-10h-5v20h5l10-10h20l10,10H520l-10,10h-5v30h25l-10,10H505v5l5,5v1.34h27.51L575,490.67ZM530,474.29l-10-10-10-10v-10h10l10,10,10,10h10l10,10Zm20,40H530l-10,10H510v-10l10-10h40Z" transform="translate(-387.632 -393.348)"/><path class="cls-3" d="M560,504.29l-10,10H530l-10,10H510v-10l10-10Z" transform="translate(-387.632 -393.348)"/><path class="cls-3" d="M560,474.29H530l-10-10-10-10v-10h10l10,10,10,10h10Z" transform="translate(-387.632 -393.348)"/><path class="cls-3" d="M490,444.29v10l-10,10-10,10H440l10-10h10l10-10,10-10Z" transform="translate(-387.632 -393.348)"/><path class="cls-3" d="M490,514.29v10H480l-10-10H450l-10-10h40Z" transform="translate(-387.632 -393.348)"/><path class="cls-3" d="M505,534.29h25l-10,10H505v5l5,5v10l-10,10-10-10v-10l5-5v-5H480l-10-10h25v-30h-5l-10-10H450l10-10h20l10,10h5v-20h-5v10l-10-10,10-10h5V435.71q-5-4.995-10-10h30q-5,5.01-10,10v28.58h5l10,10-10,10v-10h-5v20h5l10-10h20l10,10H520l-10,10h-5Z" transform="translate(-387.632 -393.348)"/></g></svg>