<svg xmlns="http://www.w3.org/2000/svg" viewBox="0 0 1410 170"><defs><style>.cls-1,.cls-3,.cls-4{fill:#121221;}.cls-2{fill:#366ce1;}.cls-3{opacity:0.38;}.cls-4{opacity:0.62;}</style></defs><title>cloud minds</title><g id="Слой_2" data-name="Слой 2"><g id="Work_space" data-name="Work space"><g id="cloud_minds" data-name="cloud minds"><polygon class="cls-1" points="780 55 780 115 800 115 800 135 740 135 740 115 760 115 760 55 740 55 740 35 800 35 800 55 780 55"/><polygon class="cls-1" points="910 35 910 135 890 135 830 65.59 830 135 810 135 810 35 830 35 890 104.41 890 35 910 35"/><path class="cls-1" d="M970,35H920V135h50a50,50,0,0,0,0-100Zm0,80H940V55h30a30,30,0,0,1,0,60Z"/><path class="cls-2" d="M480,35H430V135h50a50,50,0,0,0,0-100Zm0,80H450V55h30a30,30,0,0,1,0,60Z"/><polygon class="cls-1" points="730 35 730 135 710 135 710 65.59 693.2 85.05 679.99 100.36 666.78 85.05 650 65.62 650 135 630 135 630 35 650 35 650 35.01 679.99 69.75 709.98 35 730 35"/><path class="cls-1" d="M1050,65a10,10,0,0,0,10,10h40a30,30,0,0,1,0,60h-70V115h70a10,10,0,0,0,0-20h-40a30,30,0,0,1,0-60h70V55h-70A10,10,0,0,0,1050,65Z"/><polygon class="cls-2" points="210 115 210 135 110 135 110 35 130 35 130 115 210 115"/><path class="cls-2" d="M260,35a50,50,0,1,0,50,50A50.005,50.005,0,0,0,260,35Zm0,80a30,30,0,1,1,30-30A30,30,0,0,1,260,115Z"/><path class="cls-2" d="M78.28,95H98.99a50,50,0,1,1,0-20H78.28a30,30,0,1,0,0,20Z"/><path class="cls-2" d="M420,35V85a50,50,0,0,1-100,0V35h20V85a30,30,0,0,0,60,0V35Z"/><path class="cls-2" d="M1410,113.333A56.666,56.666,0,0,1,1353.333,170h-170a28.334,28.334,0,0,1,0-56.667,28.946,28.946,0,0,1,4.993.437,85.024,85.024,0,1,1,160.242-56.9c1.569-.13,3.162-.2,4.765-.2A56.665,56.665,0,0,1,1410,113.333Z"/><path class="cls-3" d="M1352.5,110a50.008,50.008,0,0,1-70,45.83A49.972,49.972,0,0,0,1302.49,140h.01a30,30,0,0,0,0-60h-40a30,30,0,0,0,0,60h.01a49.972,49.972,0,0,0,19.99,15.83,50,50,0,1,1-20-95.83h40A50.005,50.005,0,0,1,1352.5,110Z"/><path class="cls-3" d="M1352.5,110a50.005,50.005,0,0,1-50,50h-40a50,50,0,1,1,20-95.83A49.972,49.972,0,0,0,1262.51,80h-.01a30,30,0,0,0,0,60h40a30,30,0,0,0,0-60h-.01a49.972,49.972,0,0,0-19.99-15.83,50.008,50.008,0,0,1,70,45.83Z"/><path class="cls-4" d="M1232.5,110a30,30,0,0,1,30-30h.01a49.96,49.96,0,0,0,0,60h-.01A30,30,0,0,1,1232.5,110Z"/><path class="cls-4" d="M1262.51,140a29.836,29.836,0,0,0,19.99-7.65,29.836,29.836,0,0,0,19.99,7.65,49.972,49.972,0,0,1-19.99,15.83A49.972,49.972,0,0,1,1262.51,140Z"/><path class="cls-4" d="M1312.5,110a49.726,49.726,0,0,0-10.01-30h.01a30,30,0,0,1,0,60h-.01A49.726,49.726,0,0,0,1312.5,110Z"/><path class="cls-3" d="M1312.5,110a49.726,49.726,0,0,1-10.01,30,29.836,29.836,0,0,1-19.99-7.65,29.976,29.976,0,0,0,0-44.7A29.836,29.836,0,0,1,1302.49,80,49.726,49.726,0,0,1,1312.5,110Z"/><ellipse class="cls-4" cx="1282.5" cy="110" rx="10" ry="22.35"/><path class="cls-3" d="M1302.49,80a29.836,29.836,0,0,0-19.99,7.65A29.836,29.836,0,0,0,1262.51,80Z"/><path class="cls-3" d="M1282.5,132.35a29.836,29.836,0,0,1-19.99,7.65,49.96,49.96,0,0,1,0-60,29.836,29.836,0,0,1,19.99,7.65,29.976,29.976,0,0,0,0,44.7Z"/><path class="cls-3" d="M1262.5,140a29.836,29.836,0,0,0,19.99-7.65,29.836,29.836,0,0,0,19.99,7.65Z"/></g></g></g></svg>