<svg xmlns="http://www.w3.org/2000/svg" viewBox="0 0 448.99 200"><defs><style>.cls-1{fill:#366ce1;}</style></defs><title>club runners</title><g id="Complete"><g id="club_runners" data-name="club runners"><path class="cls-1" d="M420.235,540h46.94a100,100,0,1,1,0-80h-46.94a60,60,0,1,0,0,80Z" transform="translate(-275.505 -400)"/><path class="cls-1" d="M675.505,560V510a49.726,49.726,0,0,0-10.01-30,49.99,49.99,0,0,0-39.99-80h-150V600h40V500h110a10,10,0,0,1,10,10v90H724.5A50.015,50.015,0,0,0,675.505,560Zm-50-100h-110V440h110a10,10,0,1,1,0,20Z" transform="translate(-275.505 -400)"/></g></g></svg>