<svg xmlns="http://www.w3.org/2000/svg" viewBox="0 0 753.211 100.167"><defs><style>.cls-1{fill:#121221;}.cls-2{fill:#366ce1;}</style></defs><title>clumio</title><g id="Слой_2" data-name="Слой 2"><g id="Work_space" data-name="Work space"><g id="clumio"><polygon class="cls-1" points="490.673 20.083 490.673 80.083 510.673 80.083 510.673 100.083 450.673 100.083 450.673 80.083 470.673 80.083 470.673 20.083 450.673 20.083 450.673 0.083 510.673 0.083 510.673 20.083 490.673 20.083"/><polygon class="cls-1" points="432.356 0.083 432.356 100.083 412.356 100.083 412.356 30.673 395.556 50.133 382.346 65.443 369.136 50.133 352.356 30.703 352.356 100.083 332.356 100.083 332.356 0.083 352.356 0.083 352.356 0.093 382.346 34.833 412.336 0.083 432.356 0.083"/><polygon class="cls-1" points="208.99 80.083 208.99 100.083 108.99 100.083 108.99 0.083 128.99 0.083 128.99 80.083 208.99 80.083"/><path class="cls-1" d="M568.99.083a50,50,0,1,0,50,50A50.005,50.005,0,0,0,568.99.083Zm0,80a30,30,0,1,1,30-30A30,30,0,0,1,568.99,80.083Z"/><path class="cls-1" d="M78.28,60.083H98.99a50,50,0,1,1,0-20H78.28a30,30,0,1,0,0,20Z"/><path class="cls-1" d="M318.99.083v50a50,50,0,0,1-100,0v-50h20v50a30,30,0,0,0,60,0v-50Z"/><path class="cls-2" d="M702.881,50.116c-.06.1-.12.21-.18.31v.01c-.32.19-.65.37-.99.55-.47.25-.94.49-1.41.73-.44.22-.89.43-1.34.64a49.858,49.858,0,0,1-21.3,4.5,49.683,49.683,0,0,1,24.91-6.92C702.671,50,702.771,50.056,702.881,50.116Z"/><path class="cls-2" d="M702.951,49.586c-.01.11-.01.23-.01.34-.12,0-.23,0-.35.01a.01.01,0,0,1-.01-.01,49.547,49.547,0,0,1-18.08-18.45A49.631,49.631,0,0,1,702.951,49.586Z"/><path class="cls-1" d="M728.2,6.856c-.08-.05-.17-.1-.26-.15-.29-.17-.59-.34-.89-.5,0-.01-.01-.01-.02-.01-.35-.2-.71-.39-1.07-.57a49.506,49.506,0,0,0-21.38-5.6c-1.01-.03-2.01-.04-3.02,0-.31.01-.61.02-.92.04-.22,0-.45.02-.67.03a50.108,50.108,0,0,0-21.66,6.39c-.77.43-1.52.88-2.26,1.36-.31.21-.63.41-.93.62-.34.23-.67.45-1.01.7l-.99.72c-.38.29-.76.58-1.13.87a49.166,49.166,0,0,0-12.35,14.25,47.428,47.428,0,0,0-3.61,7.82c-.12.32-.23.65-.34.97-.09.26-.18.51-.26.77-.14.41-.27.82-.4,1.23-.01.04-.02.07-.03.1-.04.12-.07.25-.11.37-.11.37-.21.75-.31,1.12v.02c-.12.45-.23.89-.33,1.34-.09.4-.18.8-.26,1.2l-.03.12c-.08.35-.14.7-.21,1.06-.03.13-.04.26-.06.39-.07.34-.12.67-.17,1.01-.05.31-.09.62-.14.94-.12.9-.21,1.81-.28,2.71a1.087,1.087,0,0,0-.01.18c-.03.27-.05.54-.07.81-.03.45-.05.91-.06,1.36q-.03.795-.03,1.59c0,.44.01.89.03,1.33v.13c.01.38.03.77.05,1.15.01.31.03.63.06.94.03.38.06.76.09,1.13.03.3.06.59.09.89a50.377,50.377,0,0,0,5.53,17.76.941.941,0,0,0,.12.22.941.941,0,0,0,.12.22c.17.33.35.66.53.98.07.12.14.24.22.36.15.27.31.54.47.81.1.17.21.34.32.51q.285.465.6.93c.27.43.56.86.86,1.28a49.21,49.21,0,0,0,12.6,12.44,49.845,49.845,0,0,1-14.72-16.04c-.04-.08-.09-.15-.13-.23-.24-.42-.47-.83-.7-1.25a49.684,49.684,0,0,1-5.88-23.38c-.04-.02-.07-.04-.11-.06-.01-.1-.01-.21-.01-.31,0-.43.01-.86.02-1.29q0-.42.03-.84c.01-.3.03-.59.05-.89a49.837,49.837,0,0,1,6.6-21.68c.04-.07.09-.15.13-.22.26-.46.54-.92.82-1.37A49.666,49.666,0,0,1,677.941,7a50.177,50.177,0,0,0,6.44,24.41,49.689,49.689,0,0,0,18.19,18.53c.1.06.2.12.31.18.02-.04.04-.07.06-.11s.03-.05.05-.08a.638.638,0,0,1,.08-.14c.04-.07.08-.14.12-.2a49.681,49.681,0,0,1,18.44-18.11c.04-.02.09-.05.13-.07A50.069,50.069,0,0,0,728.2,7a49.845,49.845,0,0,1,17.22,16.64A49.645,49.645,0,0,0,728.2,6.856Zm-25.26,43.07c-.12,0-.23,0-.35.01a.01.01,0,0,1-.01-.01,49.547,49.547,0,0,1-18.08-18.45,49.631,49.631,0,0,1,18.45,18.11C702.941,49.7,702.941,49.816,702.941,49.926Zm.13-3.33A50,50,0,0,0,678.2,6.846,49.726,49.726,0,0,1,701.5.186q.72-.03,1.44-.03h.26q.72,0,1.44.03c.57.02,1.13.05,1.69.08a49.55,49.55,0,0,1,21.6,6.58A49.945,49.945,0,0,0,703.071,46.6Zm-4.11,5.76a49.858,49.858,0,0,1-21.3,4.5h-.01a50.148,50.148,0,0,1-24.46-6.69v.13a50.056,50.056,0,0,0,24.35,6.63A49.582,49.582,0,0,0,698.961,52.356Z"/><path class="cls-2" d="M684.381,31.406a50.156,50.156,0,0,0-24.48-6.4c.26-.46.54-.92.82-1.37A49.666,49.666,0,0,1,677.941,7,50.177,50.177,0,0,0,684.381,31.406Z"/><path class="cls-1" d="M702.571,49.936a49.683,49.683,0,0,0-24.91,6.92h-.01a50.148,50.148,0,0,1-24.46-6.69v.13c-.04-.02-.07-.04-.11-.06-.01-.1-.01-.21-.01-.31,0-.43.01-.86.02-1.29q0-.42.03-.84c.01-.3.03-.59.05-.89a49.837,49.837,0,0,1,6.6-21.68c.04-.07.09-.15.13-.22a50.156,50.156,0,0,1,24.48,6.4A49.689,49.689,0,0,0,702.571,49.936Z"/><path class="cls-2" d="M721.631,31.476a49.521,49.521,0,0,1-18.07,18.45.01.01,0,0,1-.01.01c-.12-.01-.23-.01-.35-.01,0-.11,0-.23-.01-.34A49.681,49.681,0,0,1,721.631,31.476Z"/><path class="cls-1" d="M711.861,54.226c.375.131.753.244,1.129.365l-.079-.025C712.561,54.456,712.211,54.346,711.861,54.226Z"/><path class="cls-2" d="M727.931,6.846a49.945,49.945,0,0,0-24.86,39.75A50,50,0,0,0,678.2,6.846,49.726,49.726,0,0,1,701.5.186q.72-.03,1.44-.03h.26q.72,0,1.44.03c.57.02,1.13.05,1.69.08A49.55,49.55,0,0,1,727.931,6.846Z"/><path class="cls-1" d="M713.211,54.656c.28.09.56.17.85.25-.21-.05-.42-.12-.63-.18A1.866,1.866,0,0,1,713.211,54.656Z"/><path class="cls-1" d="M714.061,54.906c.742.223,1.49.4,2.238.588-.17-.036-.335-.072-.5-.118-.33-.08-.66-.17-.99-.26C714.561,55.046,714.311,54.986,714.061,54.906Z"/><path class="cls-1" d="M752.951,50.166v.13a50.056,50.056,0,0,1-24.35,6.63h-.7q-.78,0-1.56-.03h-.24a.277.277,0,0,1-.09-.01h-.19l-.52-.03a.757.757,0,0,1-.15-.01.22.22,0,0,1-.08-.01c-.11,0-.21,0-.32-.01a2.452,2.452,0,0,0-.27-.02.127.127,0,0,0-.06-.01h-.07c-.05,0-.11-.01-.16-.01l-.32-.03c-.45-.04-.91-.08-1.36-.13-.12-.01-.24-.03-.36-.04-.57-.07-1.15-.15-1.72-.24q-.375-.045-.75-.12a.22.22,0,0,1-.08-.01,1.416,1.416,0,0,1-.2-.04.2.2,0,0,1-.11-.02l-.12-.03c-.1-.01-.21-.04-.32-.06a.425.425,0,0,1-.11-.02c-.07-.01-.14-.03-.21-.04a1.046,1.046,0,0,1-.17-.04,2.614,2.614,0,0,1-.27-.06c-.25-.05-.51-.1-.76-.16h-.01c-.14-.04-.28-.07-.42-.11a1.892,1.892,0,0,1,.23.05c.11.02.22.05.33.07.24.05.48.1.73.15.35.07.71.14,1.06.2.39.07.78.13,1.17.19l.44.06c.18.03.36.05.53.08.35.04.69.09,1.04.12h.03c.15.02.31.03.46.05.03,0,.07.01.1.01.14.01.27.02.42.04l.37.03h.03c.01,0,.01.01.02,0a.037.037,0,0,0,.03.01h.01c.08.01.17.01.26.02h.12a.127.127,0,0,0,.06.01h.04a.708.708,0,0,0,.14.01h.01a.277.277,0,0,0,.09.01c.06,0,.12.01.19.01h.08a.308.308,0,0,0,.1.01.528.528,0,0,0,.13.01c.07,0,.14.01.21.01h.02c.12,0,.24.01.35.01.13,0,.27.01.4.02.22,0,.44.01.66.02h.09c.13.01.27.01.4.01.17.01.35.01.52.01a1.77,1.77,0,0,0,.23-.01h.47A50.213,50.213,0,0,0,752.951,50.166Z"/><path class="cls-1" d="M678.211,93.456c.12.08.23.15.36.22-.13-.06-.25-.14-.38-.21a.01.01,0,0,0,.01-.01Z"/><path class="cls-1" d="M678.571,93.676c.94.53,1.89,1.03,2.86,1.5C680.461,94.716,679.5,94.216,678.571,93.676Z"/><path class="cls-1" d="M685.881,97.066c1.13.41,2.28.79,3.44,1.13C688.151,97.866,687,97.486,685.881,97.066Z"/><path class="cls-1" d="M699.441,100.016c.43.03.86.06,1.29.08-.27-.01-.54-.02-.81-.04-.04,0-.08-.01-.11-.01Z"/><path class="cls-1" d="M753.2,50.156c0,.43-.01.86-.02,1.29v.13c-.01.39-.03.77-.05,1.15v.07c0,.05-.01.09-.01.14-.01.19-.02.38-.04.57a.86.86,0,0,1-.01.16c-.03.38-.06.76-.09,1.13-.01.16-.02.31-.04.47-.01.14-.03.28-.05.42-.02.29-.06.58-.1.87-.08.59-.16,1.19-.26,1.78-.07.41-.14.82-.22,1.22-.04.22-.09.45-.13.67-.18.89-.39,1.77-.62,2.65-.14.52-.28,1.03-.44,1.55s-.31,1.02-.48,1.53q-.48,1.455-1.05,2.88a3.454,3.454,0,0,0-.14.34c-.13.32-.27.64-.41.96-.26.6-.54,1.2-.82,1.79-.21.43-.42.86-.64,1.28-.33.63-.67,1.26-1.03,1.88-.6,1.03-1.23,2.04-1.89,3.02-.22.33-.45.66-.68.99s-.46.65-.71.97-.49.64-.73.95-.49.63-.75.94c-.77.92-1.57,1.82-2.39,2.69-.28.29-.56.58-.84.86-.55.55-1.11,1.08-1.68,1.61-.03.03-.05.06-.08.07-.23.21-.46.41-.7.62-.66.59-1.33,1.15-2.03,1.68-.11.08-.21.17-.32.24-.13.11-.27.22-.41.32-.28.22-.56.43-.85.63-.22.16-.44.32-.67.47-.13.1-.27.19-.4.28-.09.07-.17.13-.26.19-.14.09-.29.19-.44.28-.08.05-.16.11-.24.16-.01.01-.01.01-.02.01h-.01a2.263,2.263,0,0,1-.2.13c-.11.08-.23.16-.35.23-.07.05-.15.1-.22.14a1.4,1.4,0,0,0-.16.1.405.405,0,0,0-.09.05c-.35.22-.69.43-1.05.63-.06.04-.12.07-.18.11-.04.02-.07.04-.11.06-.01.01-.01.01-.02.01-.11.06-.22.13-.33.2a.3.3,0,0,0-.08.04c-.11.06-.21.12-.32.18s-.2.11-.31.17c-.15.07-.29.15-.43.23a.01.01,0,0,0-.01.01l-.01.01c-.08.04-.15.08-.22.11a.2.2,0,0,0-.08.04c-.35.18-.71.36-1.06.53-.47.24-.94.46-1.42.68a.689.689,0,0,0-.1.04c-.26.11-.51.23-.76.34-.09.04-.19.08-.28.12-.16.07-.32.13-.49.2-.21.09-.42.18-.63.26-.06.02-.12.05-.18.07-.24.09-.48.19-.73.27-.93.35-1.86.67-2.81.96h-.01c-.23.07-.47.14-.71.21a.936.936,0,0,1-.16.04c-.12.04-.23.07-.35.1-.3.09-.59.17-.89.24-.4.11-.81.21-1.21.3-.06.01-.13.03-.19.04-.02.01-.05.01-.07.02-.31.07-.63.14-.95.2a.3.3,0,0,1-.1.02c-.37.08-.75.15-1.13.22-1.3.23-2.63.39-3.97.52.44-.05.88-.1,1.32-.16.32-.04.64-.08.95-.14,1.26-.17,2.52-.41,3.75-.7.52-.12,1.04-.25,1.56-.38a53.333,53.333,0,0,0,6.11-2.03c.49-.21.99-.42,1.48-.63s.98-.45,1.46-.68.97-.48,1.45-.73c.18-.1.37-.2.56-.31.4-.22.81-.45,1.21-.68l.27-.15q.69-.39,1.35-.81c.29-.18.59-.37.88-.57.39-.26.78-.52,1.17-.79.73-.51,1.44-1.04,2.14-1.58.31-.24.61-.48.91-.73a49.841,49.841,0,0,0,11.59-13.67c.04-.08.09-.15.13-.23.24-.42.47-.83.7-1.26a49.853,49.853,0,0,0,5.88-23.37c.04-.02.07-.04.11-.06.01-.1.01-.21.01-.31,0-.43-.01-.86-.02-1.29-.01-.59-.04-1.18-.08-1.77v-.04c0-.06-.01-.12-.01-.18-.03-.4-.06-.8-.1-1.2a49.992,49.992,0,0,0-6.49-20.22c-.04-.07-.09-.15-.13-.22-.26-.46-.54-.92-.82-1.37A49.845,49.845,0,0,0,728.2,7a50.069,50.069,0,0,1-6.44,24.41,49.614,49.614,0,0,1-18.19,18.53c-.1.06-.2.12-.31.18.06.1.12.2.17.3a.847.847,0,0,1-.23-.12v-.37c.12,0,.23,0,.35.01a.01.01,0,0,0,.01-.01,49.521,49.521,0,0,0,18.07-18.45,49.681,49.681,0,0,0-18.44,18.11c0-1-.05-2-.12-2.99a49.945,49.945,0,0,1,24.86-39.75,49.55,49.55,0,0,0-21.6-6.58,49.392,49.392,0,0,1,19.63,5.36c.36.18.72.37,1.07.57.01,0,.02,0,.02.01.3.16.6.33.89.5.09.04.17.09.26.14.7.4,1.39.82,2.07,1.27.3.19.59.38.88.58.67.43,1.32.9,1.96,1.39.32.24.64.49.96.73.85.67,1.69,1.37,2.5,2.09.01.01.02.01.03.03.51.46,1.02.92,1.51,1.41.97.94,1.91,1.93,2.8,2.96.01.01.01.01.01.02.45.52.89,1.05,1.32,1.58.35.43.69.88,1.02,1.33.5.66.98,1.34,1.45,2.04.31.47.62.94.91,1.42.12.17.23.35.34.53a1.983,1.983,0,0,1,.11.2c.15.24.29.49.43.73.01.01.02.03.03.04.16.3.33.6.5.9.1.18.2.36.3.55s.21.4.31.6c.07.14.14.27.21.41.05.11.1.21.16.32l.21.45.06.12c.08.17.16.33.24.49.1.21.2.42.29.62q.345.765.66,1.53c.21.51.41,1.03.6,1.54a1.22,1.22,0,0,0,.07.17.185.185,0,0,0,.02.07,1.192,1.192,0,0,0,.08.2c.1.29.2.59.3.88a2.094,2.094,0,0,1,.08.23c.14.42.28.85.41,1.27.07.23.14.47.21.71.05.17.1.34.14.51.09.3.17.59.24.89.07.26.13.52.19.79s.13.52.19.77c.06.28.12.57.18.86q.135.615.24,1.23c.07.41.14.82.2,1.23.06.35.11.7.15,1.06.01.06.02.13.03.19.06.51.12,1.01.17,1.52s.09,1.02.12,1.53c0,.1.01.19.01.29s.01.19.02.28c.01.19.02.37.03.56l.03.72v.09c.01.14.01.27.01.41C753.2,49.506,753.2,49.836,753.2,50.156Z"/><path class="cls-2" d="M703.071,53.716a49.641,49.641,0,0,1-6.83,21.89,49.682,49.682,0,0,1,6.46-25.17.746.746,0,0,0,.12-.07c.04-.02.08-.05.12-.07C702.941,51.446,702.991,52.586,703.071,53.716Z"/><path class="cls-2" d="M709.9,75.616a49.467,49.467,0,0,1-6.83-21.9c.08-1.13.13-2.27.13-3.42a.847.847,0,0,0,.23.12l.01.01A49.653,49.653,0,0,1,709.9,75.616Z"/><path class="cls-2" d="M728.471,56.846a48.375,48.375,0,0,1-6.01-.29q-1.605-.165-3.21-.45c-.35-.06-.71-.13-1.06-.2s-.71-.14-1.06-.22l-.78-.18c-.19-.04-.37-.08-.55-.13-.33-.08-.66-.17-.99-.26q-.69-.18-1.38-.39c-.17-.05-.35-.1-.52-.16-.35-.11-.7-.22-1.05-.34s-.69-.23-1.04-.36c-.38-.14-.75-.28-1.12-.43-.4-.16-.79-.32-1.19-.49-.42-.19-.84-.37-1.26-.56-.44-.21-.89-.42-1.33-.64-.5-.25-1-.5-1.5-.77-.33-.17-.65-.35-.98-.55l-.01-.01c-.05-.1-.11-.2-.17-.3.11-.06.21-.12.31-.18A49.666,49.666,0,0,1,728.471,56.846Z"/><path class="cls-1" d="M703.2,50.3c0,1.15-.05,2.29-.13,3.42-.08-1.13-.13-2.27-.13-3.42a.826.826,0,0,0,.13-.07c.04-.02.09-.05.13-.07a.209.209,0,0,0,.06-.04c.06.1.12.2.17.3A.847.847,0,0,1,703.2,50.3Z"/><path class="cls-1" d="M753.071,49.926c0,.1,0,.21-.01.31-.04.02-.07.04-.11.06v-.13a50.213,50.213,0,0,1-24.48,6.68,49.666,49.666,0,0,0-24.9-6.91,49.614,49.614,0,0,0,18.19-18.53,50.156,50.156,0,0,1,24.48-6.4c.04.07.09.15.13.22a49.992,49.992,0,0,1,6.49,20.22c.04.4.07.8.1,1.2,0,.06.01.12.01.18v.04c.04.59.07,1.18.08,1.77C753.061,49.066,753.071,49.5,753.071,49.926Z"/><path class="cls-1" d="M702.7,50.436a49.682,49.682,0,0,0-6.46,25.17,50.315,50.315,0,0,1-18.03,17.85h-.01a1.35,1.35,0,0,1-.26-.15c-.39-.23-.78-.46-1.16-.7-.33-.2-.66-.4-.98-.62-.4-.26-.79-.52-1.18-.79a49.845,49.845,0,0,1-14.72-16.04c-.04-.08-.09-.15-.13-.23a50.17,50.17,0,0,1,17.77-18,49.582,49.582,0,0,0,21.42-4.57c.45-.21.9-.42,1.34-.64.47-.24.94-.48,1.41-.73C702.051,50.806,702.381,50.626,702.7,50.436Z"/><path class="cls-2" d="M677.541,56.926a50.17,50.17,0,0,0-17.77,18c-.24-.42-.47-.83-.7-1.25a49.684,49.684,0,0,1-5.88-23.38A50.056,50.056,0,0,0,677.541,56.926Z"/><path class="cls-1" d="M698.961,52.356a49.582,49.582,0,0,1-21.42,4.57,50.056,50.056,0,0,1-24.35-6.63v-.13a50.148,50.148,0,0,0,24.46,6.69h.01A49.858,49.858,0,0,0,698.961,52.356Z"/><path class="cls-1" d="M746.371,74.926c-.04.08-.09.15-.13.23a49.841,49.841,0,0,1-11.59,13.67c-.3.25-.6.49-.91.73-.7.54-1.41,1.07-2.14,1.58-.39.27-.78.53-1.17.79-.29.2-.59.39-.88.57q-.66.42-1.35.81l-.27.15a50.129,50.129,0,0,1-18.03-17.84,49.653,49.653,0,0,0-6.46-25.19c.33.2.65.38.98.55.5.27,1,.53,1.5.77.44.22.89.43,1.33.64.42.19.84.37,1.26.56.4.17.79.33,1.19.49.37.15.74.29,1.12.43.35.13.69.25,1.04.36.19.06.37.13.56.18.16.05.33.1.49.16a.235.235,0,0,0,.08.02.808.808,0,0,0,.22.07.142.142,0,0,0,.06.02,1.424,1.424,0,0,1,.16.05c.1.03.21.07.31.09,1.27.4,2.55.73,3.84,1,.1.02.18.04.27.06.48.11.96.2,1.44.28a.2.2,0,0,0,.11.02,1.416,1.416,0,0,0,.2.04.22.22,0,0,0,.08.01q.375.075.75.12c.57.1,1.14.17,1.72.24.12.01.24.03.36.04s.23.03.35.04c.33.04.67.07,1.01.09l.32.03c.05,0,.11.01.16.01h.07a.127.127,0,0,1,.06.01,2.452,2.452,0,0,1,.27.02c.14.01.27.02.4.02a.757.757,0,0,0,.15.01l.52.03h.19a.277.277,0,0,0,.09.01h.24q.78.03,1.56.03h.7A50.17,50.17,0,0,1,746.371,74.926Z"/><path class="cls-1" d="M711.861,54.226c.375.131.753.244,1.129.365l-.079-.025C712.561,54.456,712.211,54.346,711.861,54.226Z"/><path class="cls-2" d="M746.241,25.006a50.156,50.156,0,0,0-24.48,6.4A50.069,50.069,0,0,0,728.2,7a49.845,49.845,0,0,1,17.22,16.64C745.7,24.086,745.981,24.546,746.241,25.006Z"/><path class="cls-1" d="M713.431,54.726a1.866,1.866,0,0,1-.22-.07c.22.07.45.14.68.2C713.741,54.816,713.581,54.776,713.431,54.726Z"/><path class="cls-1" d="M715.181,55.216l.22.06a4.209,4.209,0,0,1-.48-.12c-.16-.04-.32-.09-.48-.14.12.03.25.07.37.1S715.061,55.186,715.181,55.216Z"/><path class="cls-1" d="M715.4,55.276c.138.04.275.066.413.1l-.013,0C715.671,55.346,715.531,55.306,715.4,55.276Z"/><path class="cls-2" d="M752.951,50.3a49.853,49.853,0,0,1-5.88,23.37c-.23.43-.46.84-.7,1.26a50.17,50.17,0,0,0-17.77-18A50.056,50.056,0,0,0,752.951,50.3Z"/><path class="cls-1" d="M752.951,50.166v.13a50.056,50.056,0,0,1-24.35,6.63h-.7q-.78,0-1.56-.03h-.12a.66.66,0,0,1-.14-.01h-.14c-.29-.01-.58-.03-.87-.05-.11,0-.21,0-.32-.01a2.452,2.452,0,0,0-.27-.02.127.127,0,0,0-.06-.01h-.07c-.05,0-.11-.01-.16-.01l-.32-.03c-.45-.04-.91-.08-1.36-.13-.12-.01-.24-.03-.36-.04-.57-.07-1.15-.15-1.72-.24-.42-.07-.84-.14-1.26-.22-.1-.01-.21-.04-.32-.06a.425.425,0,0,1-.11-.02c-.07-.01-.14-.03-.21-.04l-.16-.03c-.17-.03-.35-.07-.52-.1s-.36-.09-.53-.13h-.02l-.13-.03c-.29-.06-.58-.13-.87-.22.02,0,.03.01.05.01.18.04.37.08.55.13a1.892,1.892,0,0,1,.23.05c.11.02.22.05.33.07.24.05.48.1.73.15.35.07.71.14,1.06.2.39.07.78.13,1.17.19l.44.06c.18.03.36.05.53.08.35.04.69.09,1.04.12h.03c.15.02.31.03.46.05.03,0,.07.01.1.01.14.01.27.02.42.04l.37.03h.03c.01,0,.01.01.02,0a.037.037,0,0,0,.03.01h.01c.08.01.17.01.26.02h.12a.127.127,0,0,0,.06.01h.04a.708.708,0,0,0,.14.01h.01a.277.277,0,0,0,.09.01c.06,0,.12.01.19.01h.08a.308.308,0,0,0,.1.01.528.528,0,0,0,.13.01c.07,0,.14.01.21.01h.02c.12,0,.24.01.35.01.13,0,.27.01.4.02.22,0,.44.01.66.02h.09c.38.01.76.01,1.15.01h.47A50.213,50.213,0,0,0,752.951,50.166Z"/><path class="cls-2" d="M727.931,93.456c-.4.23-.81.46-1.21.68-.19.11-.38.21-.56.31-.48.25-.96.49-1.45.73s-.97.46-1.46.68-.99.42-1.48.63a53.333,53.333,0,0,1-6.11,2.03c-.52.13-1.04.26-1.56.38-1.23.29-2.49.53-3.75.7-.31.06-.63.1-.95.14-.44.06-.88.11-1.32.16-.04,0-.07.01-.11.01-.54.05-1.09.1-1.64.14s-1.12.06-1.69.08q-.72.03-1.44.03h-.48c-.12,0-.24,0-.36-.01a8.23,8.23,0,0,1-.86-.02.045.045,0,0,1-.05,0c-.17,0-.33-.01-.49-.02a1.7,1.7,0,0,1-.23-.01c-.43-.02-.86-.05-1.29-.08s-.83-.06-1.24-.11c-.47-.04-.94-.1-1.4-.16-.4-.05-.79-.1-1.18-.17-.72-.11-1.43-.23-2.13-.37-.48-.1-.96-.2-1.44-.31-.52-.12-1.04-.25-1.56-.38-.39-.1-.78-.21-1.17-.32-1.16-.34-2.31-.72-3.44-1.13-.5-.19-1-.38-1.5-.58s-.99-.42-1.48-.63-.98-.45-1.47-.68c-.97-.47-1.92-.97-2.86-1.5-.13-.07-.24-.14-.36-.22a50.315,50.315,0,0,0,18.03-17.85,49.641,49.641,0,0,0,6.83-21.89,49.467,49.467,0,0,0,6.83,21.9A50.129,50.129,0,0,0,727.931,93.456Z"/><path class="cls-1" d="M699.441,100.016c.43.03.86.06,1.29.08-.27-.01-.54-.02-.81-.04-.04,0-.08-.01-.11-.01Z"/><path class="cls-1" d="M753.211,50.116c0,.45-.01.88-.03,1.33v.13c-.01.39-.03.77-.05,1.15v.07c0,.05-.01.09-.01.14-.01.19-.02.38-.04.57a.86.86,0,0,1-.01.16c-.03.38-.06.76-.09,1.13-.01.16-.02.31-.04.47-.01.14-.03.28-.05.42-.02.29-.06.58-.1.87-.08.59-.16,1.19-.26,1.78-.07.41-.14.82-.22,1.22-.04.22-.09.45-.13.67-.18.89-.39,1.77-.62,2.65-.14.52-.28,1.03-.44,1.55s-.31,1.02-.48,1.53q-.48,1.455-1.05,2.88a3.454,3.454,0,0,0-.14.34c-.13.32-.27.64-.41.96-.26.6-.54,1.2-.82,1.79-.21.43-.42.86-.64,1.28-.33.63-.67,1.26-1.03,1.88-.59,1.03-1.21,2.04-1.89,3.02-.22.33-.45.66-.68.99s-.46.65-.71.97-.49.64-.73.95-.49.63-.75.94c-.75.92-1.55,1.82-2.39,2.69-.28.29-.56.58-.84.86-.55.55-1.11,1.08-1.68,1.61-.03.03-.05.06-.08.07-.23.21-.46.41-.7.62-.66.59-1.33,1.15-2.03,1.68-.11.08-.21.17-.32.24-.13.11-.27.22-.41.32-.28.22-.56.43-.85.63-.22.16-.44.32-.67.47-.13.1-.27.19-.4.28-.09.07-.17.13-.26.19-.14.09-.29.19-.44.28-.08.05-.16.11-.24.16-.01.01-.01.01-.02.01h-.01a2.263,2.263,0,0,1-.2.13c-.11.08-.23.16-.35.23-.07.05-.15.1-.22.14a1.4,1.4,0,0,0-.16.1.405.405,0,0,0-.09.05c-.35.22-.69.43-1.05.63-.06.04-.12.07-.18.11-.04.02-.07.04-.11.06-.01.01-.01.01-.02.01-.11.06-.22.13-.33.2a.3.3,0,0,0-.08.04c-.11.06-.21.12-.32.18-.05.03-.11.05-.16.08l-.15.09c-.15.07-.29.15-.43.23a.01.01,0,0,0-.01.01l-.01.01c-.02,0-.03,0-.04.01l-.06.03a.746.746,0,0,0-.12.07.2.2,0,0,0-.08.04c-.35.18-.71.36-1.06.53-.47.24-.94.46-1.42.68a.689.689,0,0,0-.1.04c-.26.11-.51.23-.76.34-.09.04-.19.08-.28.12-.16.07-.32.13-.49.2-.51.21-1.02.41-1.54.6-.93.35-1.86.67-2.81.96h-.01c-.23.07-.47.14-.71.21a.936.936,0,0,1-.16.04c-.12.04-.23.07-.35.1-.3.09-.59.17-.89.24-.4.11-.81.21-1.21.3-.06.01-.13.03-.19.04-.02.01-.05.01-.07.02-.31.07-.63.14-.95.2a.3.3,0,0,1-.1.02c-.37.08-.75.15-1.13.22a49.513,49.513,0,0,1-8.97.79.66.66,0,0,1-.14-.01h.26q.72,0,1.44-.03c.57-.02,1.13-.05,1.69-.08s1.1-.09,1.64-.14c.04,0,.07-.01.11-.01.44-.05.88-.1,1.32-.16.32-.04.64-.08.95-.14,1.26-.17,2.52-.41,3.75-.7.52-.12,1.04-.25,1.56-.38a53.333,53.333,0,0,0,6.11-2.03c.49-.21.99-.42,1.48-.63s.98-.45,1.46-.68.97-.48,1.45-.73c.18-.1.37-.2.56-.31.4-.22.81-.45,1.21-.68l.27-.15q.69-.39,1.35-.81c.29-.18.59-.37.88-.57.39-.26.78-.52,1.17-.79.73-.51,1.44-1.04,2.14-1.58.31-.24.61-.48.91-.73a49.841,49.841,0,0,0,11.59-13.67c.04-.08.09-.15.13-.23.24-.42.47-.83.7-1.26a49.853,49.853,0,0,0,5.88-23.37c.04-.02.07-.04.11-.06.01-.1.01-.21.01-.31,0-.43-.01-.86-.02-1.29-.01-.59-.04-1.18-.08-1.77v-.04c0-.06-.01-.12-.01-.18-.03-.4-.06-.8-.1-1.2a49.992,49.992,0,0,0-6.49-20.22c-.04-.07-.09-.15-.13-.22-.26-.46-.54-.92-.82-1.37A49.845,49.845,0,0,0,728.2,7v-.15c.7.4,1.39.82,2.07,1.27.3.19.59.38.88.58.67.43,1.32.9,1.96,1.39.32.24.64.49.96.73.85.66,1.69,1.36,2.5,2.09.01.01.02.01.03.03.51.46,1.02.92,1.51,1.41.97.94,1.91,1.93,2.8,2.96.01.01.01.01.01.02.45.52.89,1.05,1.32,1.58.35.43.69.88,1.02,1.33.5.66.98,1.34,1.45,2.04.31.47.62.94.91,1.42.15.24.3.48.45.73s.29.49.43.73c.01.01.02.03.03.04.16.3.33.6.5.9.1.18.2.36.3.55s.21.4.31.6c.07.14.14.27.21.41.05.11.1.21.16.32l.21.45.06.12c.08.17.16.33.24.49.1.21.2.42.29.62q.345.765.66,1.53c.21.51.41,1.03.6,1.54a1.22,1.22,0,0,0,.07.17.185.185,0,0,0,.02.07,1.192,1.192,0,0,0,.08.2c.1.29.2.59.3.88a2.094,2.094,0,0,1,.08.23c.14.42.28.85.41,1.27.07.23.14.47.21.71.05.17.1.34.14.51.09.3.17.59.24.89.07.26.13.52.19.79s.13.52.19.77c.06.28.12.57.18.86q.135.615.24,1.23c.07.41.14.82.2,1.23.06.35.11.7.15,1.06.01.06.02.13.03.19.06.51.12,1.01.17,1.52s.09,1.02.12,1.53c0,.1.01.19.01.29s.01.19.02.28c.01.19.02.37.03.56s.03.37.03.56v.25c.01.14.01.27.01.41C753.211,49.5,753.211,49.8,753.211,50.116Z"/></g></g></g></svg>