<svg xmlns="http://www.w3.org/2000/svg" viewBox="0 0 653.95 150"><defs><style>.cls-1{fill:#366ce1;}.cls-2{fill:#121221;}</style></defs><title>coala</title><g id="Слой_2" data-name="Слой 2"><g id="Work_space" data-name="Work space"><g id="coala"><path class="cls-1" d="M140,50a50,50,0,1,0,50,50A50.005,50.005,0,0,0,140,50Zm0,80a30,30,0,1,1,30-30A30,30,0,0,1,140,130Z"/><path class="cls-1" d="M249.712,50a50.007,50.007,0,0,0-49.663,52.236c1.076,24.664,22.842,46.526,47.5,47.7A49.771,49.771,0,0,0,280,139.99V140a10,10,0,0,0,10,10h0a10,10,0,0,0,10-10V100.82C300,72.96,277.571,49.844,249.712,50ZM250,130a30,30,0,1,1,30-30A30,30,0,0,1,250,130Z"/><path class="cls-1" d="M389.712,50a50.007,50.007,0,0,0-49.663,52.236c1.076,24.664,22.842,46.526,47.5,47.7A49.771,49.771,0,0,0,420,139.99V140a10,10,0,0,0,10,10h0a10,10,0,0,0,10-10V100.82C440,72.96,417.571,49.844,389.712,50ZM390,130a30,30,0,1,1,30-30A30,30,0,0,1,390,130Z"/><rect class="cls-1" x="310" width="20" height="150" rx="10"/><path class="cls-1" d="M81.649,125.856l.312.41a9.764,9.764,0,0,1-1.933,13.712A50,50,0,1,1,80.137,60.1a9.724,9.724,0,0,1,1.824,13.629l-.315.414A9.706,9.706,0,0,1,68.081,76.06a30,30,0,1,0-.187,48.02A9.823,9.823,0,0,1,81.649,125.856Z"/><path class="cls-1" d="M570.744,29.694c-29.533-.741-56.629,24.136-55.267,54,1.268,27.816,26.735,49.2,54.084,49.1,26.954-.1,52.372-21.066,53.662-49.1C624.571,54.406,598.981,30.4,570.744,29.694Z"/><path class="cls-1" d="M519.6,12.962c-16.1-.4-30.868,13.156-30.126,29.434.692,15.162,14.573,26.82,29.481,26.763C533.646,69.1,547.5,57.676,548.2,42.4,548.938,26.432,534.99,13.348,519.6,12.962Z"/><path class="cls-1" d="M625.317,12.962c-16.1-.4-30.868,13.156-30.125,29.434.691,15.162,14.573,26.82,29.48,26.763,14.692-.056,28.547-11.483,29.25-26.763C654.657,26.432,640.709,13.348,625.317,12.962Z"/><path class="cls-2" d="M555.026,84.328a3.535,3.535,0,0,1,0,2.281c-1.125,2.8-6.729,3.567-10.563,2.493-5.96-1.669-8.3-7.966-8.62-8.873a15.083,15.083,0,0,1,10.605-2.07C546.922,78.254,553.827,79.759,555.026,84.328Z"/><path class="cls-2" d="M584.545,84.328a3.535,3.535,0,0,0,0,2.281c1.125,2.8,6.755,3.464,10.563,2.493,5.652-1.44,8.312-6.733,8.848-7.859-.9-.715-5.26-4.044-10.834-3.084C590.1,78.679,585.5,80.686,584.545,84.328Z"/><path class="cls-2" d="M570.871,88.384c-5.048-.123-8.594,10.343-9.068,11.743-2.7,7.978-3.767,21.837,3.744,25.905a10.678,10.678,0,0,0,9.97-.173c7.708-4.372,6.264-18.416,3.779-25.986C578.53,97.539,575.558,88.5,570.871,88.384Z"/></g></g></g></svg>