<svg xmlns="http://www.w3.org/2000/svg" viewBox="0 0 849.98 100"><defs><style>.cls-1{fill:#366ce1;}.cls-2,.cls-3,.cls-4,.cls-5,.cls-6,.cls-7{fill:#121221;}.cls-3{opacity:0.1;}.cls-4{opacity:0.3;}.cls-5{opacity:0.4;}.cls-6{opacity:0.5;}.cls-7{opacity:0.2;}</style></defs><title>cocoon cam</title><g id="Слой_2" data-name="Слой 2"><g id="Work_space" data-name="Work space"><g id="cocoon_cam" data-name="cocoon cam"><path class="cls-1" d="M147.24,16.93a49.113,49.113,0,0,0-7.49-6.92,49.99,49.99,0,0,0-67.4,73.16,49.987,49.987,0,0,0,74.89-.1,49.965,49.965,0,0,0,0-66.14Zm-7.49,59.51a39.419,39.419,0,0,1-7.49,6.63,40,40,0,1,1,0-66.14,39.419,39.419,0,0,1,7.49,6.63,39.954,39.954,0,0,1,0,52.88Z"/><path class="cls-1" d="M79.87,90.08A49.994,49.994,0,1,1,50,0,49.7,49.7,0,0,1,79.87,9.92a49.26,49.26,0,0,0-7.52,6.91,40,40,0,1,0,0,66.34A49.26,49.26,0,0,0,79.87,90.08Z"/><path class="cls-2" d="M609.87,90.08A49.994,49.994,0,1,1,580,0a49.7,49.7,0,0,1,29.87,9.92,49.26,49.26,0,0,0-7.52,6.91,40,40,0,1,0,0,66.34A49.26,49.26,0,0,0,609.87,90.08Z"/><path class="cls-1" d="M230,0a49.743,49.743,0,0,0-30.12,10.1,49.139,49.139,0,0,0-7.47,6.94,49.975,49.975,0,0,0,0,65.92,49.139,49.139,0,0,0,7.47,6.94A50,50,0,1,0,230,0Zm0,90a40,40,0,1,1,40-40A39.794,39.794,0,0,1,230,90Z"/><path class="cls-1" d="M290,0a50,50,0,1,0,50,50A50.005,50.005,0,0,0,290,0Zm0,90a40,40,0,1,1,40-40A40,40,0,0,1,290,90Z"/><path class="cls-3" d="M147.24,16.93a49.113,49.113,0,0,0-7.49-6.92,49.99,49.99,0,0,0-67.4,73.16,49.987,49.987,0,0,0,74.89-.1,49.965,49.965,0,0,0,0-66.14Zm-7.49,59.51a39.419,39.419,0,0,1-7.49,6.63,40,40,0,1,1,0-66.14,39.419,39.419,0,0,1,7.49,6.63,39.954,39.954,0,0,1,0,52.88Z"/><path class="cls-4" d="M230,0a49.743,49.743,0,0,0-30.12,10.1,49.139,49.139,0,0,0-7.47,6.94,49.975,49.975,0,0,0,0,65.92,49.139,49.139,0,0,0,7.47,6.94A50,50,0,1,0,230,0Zm0,90a40,40,0,1,1,40-40A39.794,39.794,0,0,1,230,90Z"/><path class="cls-5" d="M290,0a50,50,0,1,0,50,50A50.005,50.005,0,0,0,290,0Zm0,90a40,40,0,1,1,40-40A40,40,0,0,1,290,90Z"/><path class="cls-1" d="M200,89.9a50,50,0,1,1,0-79.8,49.139,49.139,0,0,0-7.47,6.94,40,40,0,1,0,0,65.92A49.139,49.139,0,0,0,200,89.9Z"/><path class="cls-2" d="M699.7,55l-4.51-10L675.48,1.27l.01-.01L675,.18h-.01L674.91,0h-9.84l-.08.18V.2l-.47,1.05h-.01L644.79,45l-4.51,10L620,100h10.97l20.28-45h37.48l20.28,45h10.97Zm-19.71-2.96-.02-.04h.02ZM655.76,45l14.23-31.58L684.23,45Z"/><path class="cls-2" d="M759.98.07V.04l.01-.04h9.97l20.01,78.98Q799.98,39.489,809.99,0h9.99l.01.01q15,50,29.99,99.99H839.54L815.36,19.43l-20.24,79.9-.14.56-.03.11h-9.97l-.17-.66L764.58,19.51,740.43,100H729.99Q744.986,50.035,759.98.07Z"/><polygon class="cls-1" points="450 0 450 100 440.07 100 440 99.92 360 14.59 360 100 350 100 350 0 360.02 0 440 85.3 440 0 450 0"/><polygon class="cls-6" points="450 0 450 100 440.07 100 440 99.92 360 14.59 360 100 350 100 350 0 360.02 0 440 85.3 440 0 450 0"/><path class="cls-7" d="M200.13,89.9a50,50,0,1,1,0-79.8,49.139,49.139,0,0,0-7.47,6.94,40,40,0,1,0,0,65.92A49.139,49.139,0,0,0,200.13,89.9Z"/></g></g></g></svg>