<svg xmlns="http://www.w3.org/2000/svg" viewBox="0 0 1238.99 370"><defs><style>.cls-1{fill:#366ce1;}.cls-2{fill:#fff;}</style></defs><title>cognicium</title><g id="Complete"><g id="Cognicium"><path class="cls-1" d="M280.505,465c0,38.06-18.89,72.8-50.04,99.25a183.416,183.416,0,0,1-16.09,12.19L200.1,562.16a165.663,165.663,0,0,0,16.34-11.94c27.45-22.81,44.07-52.62,44.07-85.22,0-71.8-80.59-130-180-130s-180,58.2-180,130,80.59,130,180,130a248.6,248.6,0,0,0,36.6-2.69,233.928,233.928,0,0,0,23.54-4.74l16.13,16.13q-10.92,3.39-22.47,5.81a262.985,262.985,0,0,1-53.8,5.49c-110.46,0-200-67.16-200-150s89.54-150,200-150S280.505,382.16,280.505,465Z" transform="translate(119.495 -315)"/><path class="cls-2" d="M214.375,576.44l37.85,37.85L209.8,656.72l-69.15-69.15a233.928,233.928,0,0,1-23.54,4.74,248.6,248.6,0,0,1-36.6,2.69c-99.41,0-180-58.2-180-130s80.59-130,180-130,180,58.2,180,130c0,32.6-16.62,62.41-44.07,85.22a165.663,165.663,0,0,1-16.34,11.94Z" transform="translate(119.495 -315)"/><path class="cls-1" d="M280.505,614.29,209.8,685l-92.69-92.69a233.928,233.928,0,0,0,23.54-4.74l69.15,69.15,42.43-42.43-37.85-37.85L200.1,562.16a165.663,165.663,0,0,0,16.34-11.94Z" transform="translate(119.495 -315)"/><path class="cls-1" d="M739.5,475v50h-10V475a40,40,0,1,0-80,0v50h-10V425h10v20.01a50,50,0,0,1,90,29.99Z" transform="translate(119.495 -315)"/><path class="cls-1" d="M858.235,485h10.25a50,50,0,1,1,0-20h-10.25a40,40,0,1,0,0,20Z" transform="translate(119.495 -315)"/><path class="cls-1" d="M399.245,485H409.5a50,50,0,1,1,0-20h-10.25a40,40,0,1,0,0,20Z" transform="translate(119.495 -315)"/><path class="cls-1" d="M469.5,425a50,50,0,1,0,50,50A50.005,50.005,0,0,0,469.5,425Zm0,90a40,40,0,1,1,40-40A40,40,0,0,1,469.5,515Z" transform="translate(119.495 -315)"/><path class="cls-1" d="M619.5,425v20.01a50,50,0,1,0,0,59.98V575a40.006,40.006,0,0,1-78.74,10h-10.25a50,50,0,0,0,98.99-10V425Zm-40,90a40,40,0,1,1,40-40A40,40,0,0,1,579.5,515Z" transform="translate(119.495 -315)"/><rect class="cls-1" x="868.99" y="110" width="10" height="100"/><path class="cls-1" d="M1119.495,455v70h-10V455a20,20,0,0,0-40,0v70h-10V455a20,20,0,0,0-40,0v70h-10V425h10v7.65a29.978,29.978,0,0,1,45,5.78,29.994,29.994,0,0,1,55,16.57Z" transform="translate(119.495 -315)"/><path class="cls-1" d="M999.5,425v50a50,50,0,0,1-100,0V425h10v50a40,40,0,0,0,80,0V425Z" transform="translate(119.495 -315)"/><rect class="cls-1" x="998.99" y="110" width="10" height="100"/></g></g></svg>