<svg xmlns="http://www.w3.org/2000/svg" viewBox="0 0 690 100"><defs><style>.cls-1{fill:#121221;}</style></defs><title>cognito</title><g id="Слой_2" data-name="Слой 2"><g id="Work_space" data-name="Work space"><g id="cognito"><path class="cls-1" d="M140,0a50,50,0,1,0,50,50A50.005,50.005,0,0,0,140,0Zm0,90a40,40,0,1,1,40-40A40,40,0,0,1,140,90Z"/><path class="cls-1" d="M640,0a50,50,0,1,0,50,50A50.005,50.005,0,0,0,640,0Zm0,90a40,40,0,1,1,40-40A40,40,0,0,1,640,90Z"/><path class="cls-1" d="M78.28,78.28l7.07,7.07a50,50,0,1,1,0-70.7l-7.07,7.07a40,40,0,1,0,0,56.56Z"/><polygon class="cls-1" points="590 0 590 10 545 10 545 100 535 100 535 10 490 10 490 0 590 0"/><polygon class="cls-1" points="455 10 455 90 480 90 480 100 420 100 420 90 445 90 445 10 420 10 420 0 480 0 480 10 455 10"/><polygon class="cls-1" points="410 0 410 100 400.07 100 400 99.92 320 14.59 320 100 310 100 310 0 320.02 0 400 85.3 400 0 410 0"/><path class="cls-1" d="M300,50a48.521,48.521,0,0,1-.25,5,50.016,50.016,0,1,1-14.4-40.35l-7.07,7.07A39.992,39.992,0,1,0,289.69,55H250V45h49.75A48.521,48.521,0,0,1,300,50Z"/></g></g></g></svg>