<svg id="Main" xmlns="http://www.w3.org/2000/svg" viewBox="0 0 760.198 636"><defs><style>.cls-1{fill:#121221;}.cls-2{fill:#366ce1;}</style></defs><title>common_integrated_language</title><rect class="cls-1" x="123.609" y="258.991" width="18.541" height="86.527"/><rect class="cls-1" x="142.151" y="345.518" width="37.083" height="18.541"/><rect class="cls-1" x="179.234" y="314.616" width="18.541" height="30.902"/><rect class="cls-1" x="142.151" y="240.45" width="37.083" height="18.541"/><rect class="cls-1" x="179.234" y="258.991" width="18.541" height="30.902"/><rect class="cls-1" x="203.956" y="258.991" width="18.541" height="86.527"/><rect class="cls-1" x="222.497" y="345.518" width="37.083" height="18.541"/><rect class="cls-1" x="259.58" y="258.991" width="18.541" height="86.527"/><rect class="cls-1" x="222.497" y="240.45" width="37.083" height="18.541"/><rect class="cls-1" x="482.077" y="258.991" width="18.541" height="86.527"/><rect class="cls-1" x="500.618" y="345.518" width="37.083" height="18.541"/><rect class="cls-1" x="537.701" y="258.991" width="18.541" height="86.527"/><rect class="cls-1" x="500.618" y="240.45" width="37.083" height="18.541"/><rect class="cls-1" x="599.506" y="240.45" width="18.541" height="18.541"/><rect class="cls-1" x="580.964" y="258.991" width="18.541" height="18.541"/><rect class="cls-1" x="562.423" y="240.45" width="18.541" height="123.609"/><rect class="cls-1" x="618.047" y="258.991" width="18.541" height="105.068"/><rect class="cls-1" x="284.302" y="240.45" width="18.541" height="123.609"/><rect class="cls-1" x="321.384" y="258.991" width="18.541" height="105.068"/><rect class="cls-1" x="358.467" y="258.991" width="18.541" height="105.068"/><rect class="cls-1" x="302.843" y="240.45" width="18.541" height="18.541"/><rect class="cls-1" x="339.926" y="240.45" width="18.541" height="18.541"/><rect class="cls-1" x="383.189" y="240.45" width="18.541" height="123.609"/><rect class="cls-1" x="420.272" y="258.991" width="18.541" height="105.068"/><rect class="cls-1" x="457.355" y="258.991" width="18.541" height="105.068"/><rect class="cls-1" x="401.731" y="240.45" width="18.541" height="18.541"/><rect class="cls-1" x="438.813" y="240.45" width="18.541" height="18.541"/><rect class="cls-1" x="108.158" y="512.391" width="6.18" height="123.609"/><rect class="cls-1" x="108.158" y="629.82" width="61.805" height="6.18"/><rect class="cls-1" x="590.235" y="512.391" width="6.18" height="123.609"/><rect class="cls-1" x="590.235" y="629.82" width="61.805" height="6.18"/><rect class="cls-1" x="590.235" y="574.195" width="61.805" height="6.18"/><rect class="cls-1" x="590.235" y="512.391" width="61.805" height="6.18"/><rect class="cls-1" x="244.129" y="512.391" width="6.18" height="123.609"/><rect class="cls-1" x="305.933" y="512.391" width="6.18" height="123.609"/><rect class="cls-1" x="176.143" y="518.571" width="6.18" height="117.429"/><rect class="cls-1" x="318.294" y="518.571" width="6.18" height="111.248"/><rect class="cls-1" x="182.324" y="512.391" width="49.444" height="6.18"/><rect class="cls-1" x="324.475" y="629.82" width="49.444" height="6.18"/><rect class="cls-1" x="324.475" y="512.391" width="49.444" height="6.18"/><rect class="cls-1" x="472.188" y="722.203" width="49.444" height="6.18" transform="translate(1102.302 46.383) rotate(90)"/><rect class="cls-1" x="472.188" y="784.007" width="49.444" height="6.18" transform="translate(1164.106 108.188) rotate(90)"/><rect class="cls-1" x="469.098" y="756.195" width="24.722" height="6.18" transform="translate(843.016 1336.571) rotate(180)"/><rect class="cls-1" x="453.646" y="771.646" width="24.722" height="6.18" transform="translate(-428.63 1058.744) rotate(-90)"/><rect class="cls-1" x="522.25" y="518.571" width="6.18" height="111.248"/><rect class="cls-1" x="528.43" y="629.82" width="49.444" height="6.18"/><rect class="cls-1" x="528.43" y="512.391" width="49.444" height="6.18"/><rect class="cls-1" x="676.143" y="722.203" width="49.444" height="6.18" transform="translate(1306.257 -157.572) rotate(90)"/><rect class="cls-1" x="676.143" y="784.007" width="49.444" height="6.18" transform="translate(1368.062 -95.768) rotate(90)"/><rect class="cls-1" x="673.053" y="756.195" width="24.722" height="6.18" transform="translate(1250.927 1336.571) rotate(180)"/><rect class="cls-1" x="657.602" y="771.646" width="24.722" height="6.18" transform="translate(-224.675 1262.7) rotate(-90)"/><rect class="cls-1" x="182.324" y="574.195" width="49.444" height="6.18"/><rect class="cls-1" x="231.768" y="518.571" width="6.18" height="117.429"/><rect class="cls-1" x="454.265" y="518.571" width="6.18" height="117.429"/><rect class="cls-1" x="460.445" y="512.391" width="49.444" height="6.18"/><rect class="cls-1" x="460.445" y="574.195" width="49.444" height="6.18"/><rect class="cls-1" x="509.889" y="518.571" width="6.18" height="117.429"/><rect class="cls-1" x="561.805" y="694.391" width="6.18" height="117.429" transform="translate(1009.889 1324.21) rotate(180)"/><rect class="cls-1" x="512.361" y="811.82" width="49.444" height="6.18" transform="translate(954.265 1447.82) rotate(180)"/><rect class="cls-1" x="506.18" y="694.391" width="6.18" height="117.429" transform="translate(898.64 1324.21) rotate(180)"/><rect class="cls-1" x="250.309" y="518.571" width="6.18" height="6.18"/><rect class="cls-1" x="256.489" y="524.752" width="6.18" height="6.18"/><rect class="cls-1" x="262.67" y="530.932" width="6.18" height="6.18"/><rect class="cls-1" x="268.85" y="537.112" width="6.18" height="6.18"/><rect class="cls-1" x="275.031" y="543.293" width="6.18" height="6.18"/><rect class="cls-1" x="281.211" y="549.473" width="6.18" height="6.18"/><rect class="cls-1" x="287.392" y="555.654" width="6.18" height="6.18"/><rect class="cls-1" x="299.753" y="568.015" width="6.18" height="6.18"/><rect class="cls-1" x="293.572" y="561.834" width="6.18" height="6.18"/><polygon class="cls-1" points="513.016 376.42 512.979 376.457 512.979 376.42 513.016 376.42"/><polygon class="cls-1" points="444.994 376.42 444.994 376.451 444.963 376.42 444.994 376.42"/><rect class="cls-1" x="12.361" y="376.42" width="12.361" height="123.609"/><rect class="cls-1" x="179.234" y="376.42" width="12.361" height="123.609"/><rect class="cls-1" x="135.97" y="376.42" width="12.361" height="123.609"/><rect class="cls-1" x="247.219" y="376.42" width="12.361" height="123.609"/><rect class="cls-1" x="315.204" y="376.42" width="12.361" height="123.609"/><rect class="cls-1" x="451.174" y="376.42" width="12.361" height="123.609"/><rect class="cls-1" x="500.618" y="388.781" width="12.361" height="98.888"/><rect class="cls-1" x="611.867" y="387.711" width="12.361" height="112.319"/><rect class="cls-1" x="562.423" y="388.781" width="12.361" height="111.248"/><rect class="cls-1" x="364.648" y="376.42" width="12.361" height="123.609"/><rect class="cls-1" y="376.42" width="37.083" height="12.361"/><rect class="cls-1" x="111.248" y="376.42" width="61.805" height="12.361"/><rect class="cls-1" x="179.234" y="376.42" width="61.805" height="12.361"/><rect class="cls-1" x="179.234" y="432.044" width="61.805" height="12.361"/><rect class="cls-1" x="179.234" y="487.669" width="61.805" height="12.361"/><rect class="cls-1" x="698.393" y="375.471" width="12.361" height="123.609"/><rect class="cls-1" x="655.13" y="375.471" width="12.361" height="123.609"/><rect class="cls-1" x="630.408" y="375.471" width="61.805" height="12.361"/><rect class="cls-1" x="698.393" y="375.471" width="61.805" height="12.361"/><rect class="cls-1" x="698.393" y="431.096" width="61.805" height="12.361"/><rect class="cls-1" x="698.393" y="486.72" width="61.805" height="12.361"/><rect class="cls-1" x="383.189" y="376.42" width="12.361" height="123.609"/><rect class="cls-1" x="383.189" y="376.42" width="61.805" height="12.361"/><rect class="cls-1" x="383.189" y="432.044" width="61.805" height="12.361"/><rect class="cls-1" x="383.189" y="487.669" width="61.805" height="12.361"/><rect class="cls-1" y="487.669" width="37.083" height="12.361"/><rect class="cls-1" x="531.52" y="376.42" width="12.361" height="123.609"/><rect class="cls-1" x="519.159" y="376.42" width="37.083" height="12.361"/><rect class="cls-1" x="519.159" y="487.669" width="37.083" height="12.361"/><rect class="cls-1" x="43.263" y="376.42" width="12.361" height="123.609"/><rect class="cls-1" x="92.707" y="376.42" width="12.361" height="123.609"/><rect class="cls-1" x="55.624" y="382.601" width="12.361" height="12.361"/><rect class="cls-1" x="67.985" y="394.962" width="12.361" height="12.361"/><rect class="cls-1" x="80.346" y="407.323" width="12.361" height="12.361"/><rect class="cls-1" x="327.565" y="388.781" width="12.361" height="12.361"/><rect class="cls-1" x="339.926" y="401.142" width="12.361" height="12.361"/><rect class="cls-1" x="352.287" y="388.781" width="12.361" height="12.361"/><rect class="cls-1" x="259.58" y="376.42" width="37.083" height="12.361"/><rect class="cls-1" x="463.535" y="376.42" width="37.083" height="12.361"/><rect class="cls-1" x="574.784" y="376.42" width="37.083" height="12.361"/><rect class="cls-1" x="574.784" y="438.225" width="37.083" height="12.361"/><rect class="cls-1" x="463.535" y="487.669" width="37.083" height="12.361"/><rect class="cls-1" x="296.663" y="388.781" width="12.361" height="37.083"/><rect class="cls-1" x="259.58" y="425.864" width="37.083" height="12.361"/><rect class="cls-1" x="296.663" y="438.225" width="12.361" height="61.805"/><rect class="cls-1" x="335.099" width="30" height="30"/><rect class="cls-1" x="425.099" y="30" width="30" height="30"/><rect class="cls-2" x="465" y="297" width="30" height="30" transform="translate(840.099 442) rotate(180)"/><rect class="cls-2" x="505" y="297" width="30" height="30" transform="translate(920.099 442) rotate(180)"/><rect class="cls-1" x="465.099" y="95" width="20" height="20"/><rect class="cls-2" x="505" y="267" width="20" height="20" transform="translate(910.099 372) rotate(180)"/><rect class="cls-2" x="475" y="267" width="20" height="20" transform="translate(850.099 372) rotate(180)"/><rect class="cls-1" x="465.099" y="60" width="20" height="20"/><rect class="cls-1" x="465.099" y="130" width="20" height="20"/><rect class="cls-1" x="275.099" y="95" width="20" height="20"/><rect class="cls-1" x="275.099" y="60" width="20" height="20"/><rect class="cls-1" x="275.099" y="130" width="20" height="20"/><rect class="cls-1" x="305.099" y="30" width="30" height="30"/><rect class="cls-1" x="365.099" width="30" height="30"/><rect class="cls-1" x="395.099" width="30" height="30"/><rect class="cls-1" x="565" y="332" width="10" height="10" transform="translate(1020.099 492) rotate(180)"/><rect class="cls-1" x="575" y="322" width="10" height="10" transform="translate(1040.099 472) rotate(180)"/><rect class="cls-2" x="385.099" y="65" width="10" height="10"/><rect class="cls-1" x="565" y="352" width="10" height="10" transform="translate(1020.099 532) rotate(180)"/><rect class="cls-1" x="545" y="352" width="10" height="10" transform="translate(980.099 532) rotate(180)"/><rect class="cls-1" x="505" y="372" width="10" height="10" transform="translate(900.099 572) rotate(180)"/><rect class="cls-1" x="465" y="372" width="10" height="10" transform="translate(820.099 572) rotate(180)"/><rect class="cls-1" x="445" y="352" width="10" height="10" transform="translate(-26.901 625) rotate(-90)"/><rect class="cls-1" x="425" y="352" width="10" height="10" transform="translate(-46.901 605) rotate(-90)"/><rect class="cls-1" x="425" y="332" width="10" height="10" transform="translate(-26.901 585) rotate(-90)"/><rect class="cls-1" x="415" y="322" width="10" height="10" transform="translate(-26.901 565) rotate(-90)"/><rect class="cls-1" x="435" y="342" width="10" height="10" transform="translate(-26.901 605) rotate(-90)"/><rect class="cls-1" x="555" y="342" width="10" height="10" transform="translate(93.099 725) rotate(-90)"/><rect class="cls-2" x="485" y="247" width="10" height="10" transform="translate(622.099 -420) rotate(90)"/><rect class="cls-1" x="455" y="382" width="10" height="10" transform="translate(-46.901 665) rotate(-90)"/><rect class="cls-1" x="475" y="382" width="10" height="10" transform="translate(-26.901 685) rotate(-90)"/><rect class="cls-1" x="495" y="382" width="10" height="10" transform="translate(-6.901 705) rotate(-90)"/><rect class="cls-1" x="455" y="362" width="10" height="10" transform="translate(-26.901 645) rotate(-90)"/><rect class="cls-1" x="535" y="382" width="10" height="10" transform="translate(33.099 745) rotate(-90)"/><rect class="cls-1" x="545" y="372" width="10" height="10" transform="translate(53.099 745) rotate(-90)"/><rect class="cls-1" x="515" y="382" width="10" height="10" transform="translate(13.099 725) rotate(-90)"/><rect class="cls-1" x="475" y="362" width="10" height="10" transform="translate(-6.901 665) rotate(-90)"/><rect class="cls-1" x="495" y="362" width="10" height="10" transform="translate(13.099 685) rotate(-90)"/><rect class="cls-1" x="515" y="362" width="10" height="10" transform="translate(33.099 705) rotate(-90)"/><rect class="cls-1" x="535" y="362" width="10" height="10" transform="translate(53.099 725) rotate(-90)"/><rect class="cls-1" x="525" y="372" width="10" height="10" transform="translate(33.099 725) rotate(-90)"/><rect class="cls-1" x="555" y="362" width="10" height="10" transform="translate(73.099 745) rotate(-90)"/><rect class="cls-1" x="575" y="342" width="10" height="10" transform="translate(113.099 745) rotate(-90)"/><rect class="cls-1" x="585" y="332" width="10" height="10" transform="translate(133.099 745) rotate(-90)"/><rect class="cls-1" x="315.099" y="180" width="10" height="10"/><rect class="cls-1" x="325.099" y="190" width="10" height="10"/><rect class="cls-1" x="285.099" y="150" width="10" height="10"/><rect class="cls-1" x="295.099" y="160" width="10" height="10"/><rect class="cls-1" x="485" y="372" width="10" height="10" transform="translate(-6.901 685) rotate(-90)"/></svg>