<svg xmlns="http://www.w3.org/2000/svg" viewBox="0 0 1265.061 186.843"><defs><style>.cls-1,.cls-3{fill:#121221;}.cls-2,.cls-4{fill:#366ce1;}.cls-3,.cls-4{opacity:0.38;}</style></defs><title>commsignia</title><g id="Слой_2" data-name="Слой 2"><g id="Work_space" data-name="Work space"><g id="commsignia"><polygon class="cls-1" points="850 43.421 850 143.421 830 143.421 770 74.011 770 143.421 750 143.421 750 43.421 770 43.421 830 112.831 830 43.421 850 43.421"/><polygon class="cls-1" points="320 43.421 320 143.421 300 143.421 300 74.011 283.2 93.471 269.99 108.781 256.78 93.471 240 74.041 240 143.421 220 143.421 220 43.421 240 43.421 240 43.431 269.99 78.171 299.98 43.421 320 43.421"/><polygon class="cls-1" points="430 43.421 430 143.421 410 143.421 410 74.011 393.2 93.471 379.99 108.781 366.78 93.471 350 74.041 350 143.421 330 143.421 330 43.421 350 43.421 350 43.431 379.99 78.171 409.98 43.421 430 43.421"/><path class="cls-1" d="M460,73.421a10,10,0,0,0,10,10h40a30,30,0,1,1,0,60H440v-20h70a10,10,0,0,0,0-20H470a30,30,0,0,1,0-60h70v20H470A10,10,0,0,0,460,73.421Z"/><path class="cls-1" d="M160,43.421a50,50,0,1,0,50,50A50.005,50.005,0,0,0,160,43.421Zm0,80a30,30,0,1,1,30-30A30,30,0,0,1,160,123.421Z"/><path class="cls-1" d="M78.28,103.421H98.99a50,50,0,1,1,0-20H78.28a30,30,0,1,0,0,20Z"/><path class="cls-1" d="M1020.77,45.371l-.78-1.95h-19.98l-.78,1.94L960,143.421h21.55l11.2-28h34.5l11.2,28H1060Zm-20.02,50.05,9.25-23.13,9.25,23.13Z"/><path class="cls-1" d="M740,83.421v10a49.16,49.16,0,0,1-1.01,10,50.013,50.013,0,1,1-13.64-45.35l-14.14,14.14a30,30,0,1,0,7.07,31.21H690v-20Z"/><polygon class="cls-1" points="600 63.421 600 123.421 630 123.421 630 143.421 550 143.421 550 123.421 580 123.421 580 63.421 550 63.421 550 43.421 630 43.421 630 63.421 600 63.421"/><polygon class="cls-1" points="920 63.421 920 123.421 950 123.421 950 143.421 870 143.421 870 123.421 900 123.421 900 63.421 870 63.421 870 43.421 950 43.421 950 63.421 920 63.421"/><path class="cls-2" d="M1104.995,93.421a65.933,65.933,0,0,0,4.642,24.393c-19.273-5.972-31.419-14.687-31.419-24.393s12.146-18.42,31.419-24.392A65.927,65.927,0,0,0,1104.995,93.421Z"/><path class="cls-2" d="M1265.061,93.421c0,9.884-12.594,18.74-32.49,24.72a66.413,66.413,0,0,0,0-49.44C1252.467,74.681,1265.061,83.538,1265.061,93.421Z"/><path class="cls-2" d="M1196.267,154.668c-5.98,19.71-14.8,32.175-24.627,32.175-9.758,0-18.518-12.283-24.494-31.747a66.413,66.413,0,0,0,49.121-.428Z"/><path class="cls-2" d="M1196.263,32.167a66.415,66.415,0,0,0-49.117-.424C1153.122,12.279,1161.882,0,1171.64,0,1181.47,0,1190.287,12.457,1196.263,32.167Z"/><path class="cls-2" d="M1232.571,118.141a66.412,66.412,0,0,1-36.3,36.527,181.706,181.706,0,0,0,6.17-30.45A182.558,182.558,0,0,0,1232.571,118.141Z"/><path class="cls-2" d="M1147.146,155.1a66.367,66.367,0,0,1-37.509-37.282,180.394,180.394,0,0,0,31.205,6.4A180.838,180.838,0,0,0,1147.146,155.1Z"/><path class="cls-2" d="M1147.146,31.743a180.846,180.846,0,0,0-6.3,30.881,180.091,180.091,0,0,0-31.205,6.4A66.371,66.371,0,0,1,1147.146,31.743Z"/><path class="cls-2" d="M1232.571,68.7a182.352,182.352,0,0,0-30.134-6.077,181.4,181.4,0,0,0-6.174-30.457A66.431,66.431,0,0,1,1232.571,68.7Z"/><path class="cls-3" d="M1232.571,118.141a66.412,66.412,0,0,1-36.3,36.527,181.706,181.706,0,0,0,6.17-30.45A182.558,182.558,0,0,0,1232.571,118.141Z"/><path class="cls-3" d="M1147.146,155.1a66.367,66.367,0,0,1-37.509-37.282,180.394,180.394,0,0,0,31.205,6.4A180.838,180.838,0,0,0,1147.146,155.1Z"/><path class="cls-3" d="M1147.146,31.743a180.846,180.846,0,0,0-6.3,30.881,180.091,180.091,0,0,0-31.205,6.4A66.371,66.371,0,0,1,1147.146,31.743Z"/><path class="cls-3" d="M1232.571,68.7a182.352,182.352,0,0,0-30.134-6.077,181.4,181.4,0,0,0-6.174-30.457A66.431,66.431,0,0,1,1232.571,68.7Z"/><path class="cls-1" d="M1139.028,93.421a255.726,255.726,0,0,0,1.814,30.793,180.394,180.394,0,0,1-31.205-6.4,66.409,66.409,0,0,1,0-48.785,180.091,180.091,0,0,1,31.205-6.4A255.819,255.819,0,0,0,1139.028,93.421Z"/><path class="cls-1" d="M1202.437,124.218a181.706,181.706,0,0,1-6.17,30.45,66.413,66.413,0,0,1-49.121.428,180.838,180.838,0,0,1-6.3-30.882,254.72,254.72,0,0,0,30.8,1.819A255.607,255.607,0,0,0,1202.437,124.218Z"/><path class="cls-1" d="M1237.343,93.421a65.955,65.955,0,0,1-4.772,24.72,182.558,182.558,0,0,1-30.134,6.077,262.333,262.333,0,0,0,0-61.594,182.352,182.352,0,0,1,30.134,6.077A65.963,65.963,0,0,1,1237.343,93.421Z"/><path class="cls-1" d="M1202.437,62.624a262.342,262.342,0,0,0-61.595,0,180.846,180.846,0,0,1,6.3-30.881,66.415,66.415,0,0,1,49.117.424A181.4,181.4,0,0,1,1202.437,62.624Z"/><path class="cls-4" d="M1139.028,93.423a255.726,255.726,0,0,0,1.814,30.793,180.394,180.394,0,0,1-31.205-6.4,66.409,66.409,0,0,1,0-48.785,180.091,180.091,0,0,1,31.205-6.405A255.819,255.819,0,0,0,1139.028,93.423Z"/><path class="cls-4" d="M1202.437,124.22a181.706,181.706,0,0,1-6.17,30.45,66.413,66.413,0,0,1-49.121.428,180.838,180.838,0,0,1-6.3-30.882,254.72,254.72,0,0,0,30.8,1.819A255.607,255.607,0,0,0,1202.437,124.22Z"/><path class="cls-4" d="M1237.343,93.423a65.955,65.955,0,0,1-4.772,24.72,182.558,182.558,0,0,1-30.134,6.077,262.333,262.333,0,0,0,0-61.594,182.352,182.352,0,0,1,30.134,6.077A65.963,65.963,0,0,1,1237.343,93.423Z"/><path class="cls-4" d="M1202.437,62.626a262.342,262.342,0,0,0-61.595,0,180.846,180.846,0,0,1,6.3-30.881,66.415,66.415,0,0,1,49.117.424A181.4,181.4,0,0,1,1202.437,62.626Z"/><path class="cls-1" d="M1204.251,93.421a255.794,255.794,0,0,1-1.814,30.8,255.607,255.607,0,0,1-30.8,1.815,254.72,254.72,0,0,1-30.8-1.819,262.3,262.3,0,0,1,0-61.59,262.342,262.342,0,0,1,61.595,0A255.819,255.819,0,0,1,1204.251,93.421Z"/></g></g></g></svg>