<svg xmlns="http://www.w3.org/2000/svg" viewBox="0 0 1280 295.46"><defs><style>.cls-1{fill:#366ce1;}.cls-2{fill:#121221;}</style></defs><title>comprehend systems</title><g id="Слой_2" data-name="Слой 2"><g id="Work_space" data-name="Work space"><g id="comprehend_systems" data-name="comprehend systems"><polygon class="cls-1" points="50 115.46 0 86.6 0 28.86 50 0 100 28.86 100 86.6 50 115.46"/><polygon class="cls-2" points="100 205.46 50 176.6 50 118.86 100 90 150 118.86 150 176.6 100 205.46"/><polygon class="cls-1" points="50 295.46 0 266.6 0 208.86 50 180 100 208.86 100 266.6 50 295.46"/><polygon class="cls-1" points="1170 37.73 1170 137.73 1150 137.73 1090 68.32 1090 137.73 1070 137.73 1070 37.73 1090 37.73 1150 107.14 1150 37.73 1170 37.73"/><path class="cls-1" d="M1230,37.73h-50v100h50a50,50,0,0,0,0-100Zm0,80h-30v-60h30a30,30,0,0,1,0,60Z"/><polygon class="cls-2" points="830.02 157.73 830.02 257.73 810.02 257.73 810.02 188.32 793.22 207.78 780.01 223.09 766.8 207.78 750.02 188.35 750.02 257.73 730.02 257.73 730.02 157.73 750.02 157.73 750.02 157.74 780.01 192.48 810 157.73 830.02 157.73"/><polygon class="cls-1" points="510 37.73 510 137.73 490 137.73 490 68.32 473.2 87.78 459.99 103.09 446.78 87.78 430 68.35 430 137.73 410 137.73 410 37.73 430 37.73 430 37.74 459.99 72.48 489.98 37.73 510 37.73"/><path class="cls-1" d="M210,67.73a10,10,0,0,0,10,10h40a30,30,0,1,1,0,60H190v-20h70a10,10,0,0,0,0-20H220a30,30,0,1,1,0-60h70v20H220A10,10,0,0,0,210,67.73Z"/><path class="cls-2" d="M210,187.73a10,10,0,0,0,10,10h40a30,30,0,0,1,0,60H190v-20h70a10,10,0,0,0,0-20H220a30,30,0,0,1,0-60h70v20H220A10,10,0,0,0,210,187.73Z"/><path class="cls-2" d="M860.02,187.73a10,10,0,0,0,10,10h40a30,30,0,0,1,0,60h-70v-20h70a10,10,0,0,0,0-20h-40a30,30,0,0,1,0-60h70v20h-70A10,10,0,0,0,860.02,187.73Z"/><path class="cls-2" d="M420.02,187.73a10,10,0,0,0,10,10h40a30,30,0,0,1,0,60h-70v-20h70a10,10,0,0,0,0-20h-40a30,30,0,0,1,0-60h70v20h-70A10,10,0,0,0,420.02,187.73Z"/><polygon class="cls-1" points="950 37.73 950 137.73 930 137.73 930 97.73 870 97.73 870 137.73 850 137.73 850 37.73 870 37.73 870 77.73 930 77.73 930 37.73 950 37.73"/><polygon class="cls-2" points="640.02 177.73 640.02 197.73 720.02 197.73 720.02 217.73 640.02 217.73 640.02 237.73 720.02 237.73 720.02 257.73 620.02 257.73 620.02 157.73 720.02 157.73 720.02 177.73 640.02 177.73"/><polygon class="cls-1" points="760 57.73 760 77.73 840 77.73 840 97.73 760 97.73 760 117.73 840 117.73 840 137.73 740 137.73 740 37.73 840 37.73 840 57.73 760 57.73"/><polygon class="cls-1" points="980 57.73 980 77.73 1060 77.73 1060 97.73 980 97.73 980 117.73 1060 117.73 1060 137.73 960 137.73 960 37.73 1060 37.73 1060 57.73 980 57.73"/><path class="cls-1" d="M730,67.73a30,30,0,0,0-30-30H630v100h20v-40h50a10,10,0,0,1,10,10v30h20v-30a29.862,29.862,0,0,0-7.65-20A29.862,29.862,0,0,0,730,67.73Zm-80,10v-20h50a10,10,0,0,1,0,20Z"/><path class="cls-1" d="M350,37.73a50,50,0,1,0,50,50A50.005,50.005,0,0,0,350,37.73Zm0,80a30,30,0,1,1,30-30A30,30,0,0,1,350,117.73Z"/><path class="cls-1" d="M590,37.73H520v100h20v-40h50a30,30,0,0,0,0-60Zm0,40H540v-20h50a10,10,0,0,1,0,20Z"/><polygon class="cls-2" points="610.02 157.73 610.02 177.73 570.02 177.73 570.02 257.73 550.02 257.73 550.02 177.73 510.02 177.73 510.02 157.73 610.02 157.73"/><polygon class="cls-2" points="362.83 204.19 360 207.73 360.05 207.73 360.05 257.73 340.05 257.73 340.05 207.73 337.22 204.19 300.05 157.73 325.66 157.73 350.02 188.18 374.38 157.73 400 157.73 362.83 204.19"/></g></g></g></svg>