<svg xmlns="http://www.w3.org/2000/svg" viewBox="0 0 1308.99 100"><defs><style>.cls-1{fill:#121221;}.cls-2{fill:#366ce1;}</style></defs><title>compound eye</title><g id="Слой_2" data-name="Слой 2"><g id="Work_space" data-name="Work space"><g id="compound_eye" data-name="compound eye"><polygon class="cls-1" points="758.99 0 758.99 100 738.99 100 678.99 30.59 678.99 100 658.99 100 658.99 0 678.99 0 738.99 69.41 738.99 0 758.99 0"/><path class="cls-1" d="M818.99,0h-50V100h50a50,50,0,0,0,0-100Zm0,80h-30V20h30a30,30,0,0,1,0,60Z"/><polygon class="cls-1" points="318.99 0 318.99 100 298.99 100 298.99 30.59 282.19 50.05 268.98 65.36 255.77 50.05 238.99 30.62 238.99 100 218.99 100 218.99 0 238.99 0 238.99 0.01 268.98 34.75 298.97 0 318.99 0"/><polygon class="cls-2" points="1228.99 20 1228.99 40 1308.99 40 1308.99 60 1228.99 60 1228.99 80 1308.99 80 1308.99 100 1208.99 100 1208.99 0 1308.99 0 1308.99 20 1228.99 20"/><polygon class="cls-2" points="1068.99 80 1068.99 60 988.99 60 988.99 40 1068.99 40 1068.99 20 988.99 20 988.99 0 1088.99 0 1088.99 100 988.99 100 988.99 80 1068.99 80"/><path class="cls-1" d="M158.99,0a50,50,0,1,0,50,50A50.005,50.005,0,0,0,158.99,0Zm0,80a30,30,0,1,1,30-30A30,30,0,0,1,158.99,80Z"/><path class="cls-1" d="M488.99,0a50,50,0,1,0,50,50A50.005,50.005,0,0,0,488.99,0Zm0,80a30,30,0,1,1,30-30A30,30,0,0,1,488.99,80Z"/><path class="cls-1" d="M78.28,60H98.99a50,50,0,1,1,0-20H78.28a30,30,0,1,0,0,20Z"/><path class="cls-1" d="M398.99,0h-70V100h20V60h50a30,30,0,0,0,0-60Zm0,40h-50V20h50a10,10,0,0,1,0,20Z"/><polygon class="cls-2" points="1161.82 46.46 1158.99 50 1159.04 50 1159.04 100 1139.04 100 1139.04 50 1136.21 46.46 1099.04 0 1124.65 0 1149.01 30.45 1173.37 0 1198.99 0 1161.82 46.46"/><path class="cls-1" d="M648.99,0V50a50,50,0,0,1-100,0V0h20V50a30,30,0,0,0,60,0V0Z"/></g></g></g></svg>