<svg xmlns="http://www.w3.org/2000/svg" viewBox="0 0 1090 400"><defs><style>.cls-1{fill:#366ce1;}.cls-2{fill:#121221;}</style></defs><title>concept share</title><g id="Слой_2" data-name="Слой 2"><g id="Work_space" data-name="Work space"><g id="concept_share" data-name="concept share"><path class="cls-1" d="M1040,0a50,50,0,1,0,50,50A50.008,50.008,0,0,0,1040,0Zm0,80a29.592,29.592,0,0,1-10-1.72,29.994,29.994,0,0,1,0-56.56A29.592,29.592,0,0,1,1040,20a30,30,0,0,1,0,60Z"/><path class="cls-1" d="M869.13,309.37A49.973,49.973,0,1,0,890,350,49.7,49.7,0,0,0,869.13,309.37ZM810,350a30,30,0,0,1,30-30,29.592,29.592,0,0,1,10,1.72,29.994,29.994,0,0,1,0,56.56A29.592,29.592,0,0,1,840,380,30,30,0,0,1,810,350Z"/><path class="cls-2" d="M1010.87,209.37a49.913,49.913,0,0,0-20.2,32.48Q983.335,245.93,976,250q-53.43-29.685-106.87-59.37a49.913,49.913,0,0,0,20.2-32.48q7.335-4.08,14.67-8.15Q957.43,179.685,1010.87,209.37Z"/><path class="cls-1" d="M1090,250a50,50,0,0,1-99.33,8.15Q1010.335,269.07,1030,280v-1.72a29.592,29.592,0,0,0,10,1.72,30,30,0,0,0,0-60,29.592,29.592,0,0,0-10,1.72V220q-19.665,10.92-39.33,21.85A50,50,0,0,1,1090,250Z"/><path class="cls-2" d="M889.33,358.15a49.973,49.973,0,0,0-20.2-48.78Q922.56,279.685,976,250q7.335,4.08,14.67,8.15a49.913,49.913,0,0,0,20.2,32.48Q950.105,324.38,889.33,358.15Z"/><path class="cls-1" d="M1010,250a29.979,29.979,0,0,0,20,28.28V280q-19.665-10.92-39.33-21.85a49.9,49.9,0,0,1,0-16.3Q1010.335,230.93,1030,220v1.72A29.979,29.979,0,0,0,1010,250Z"/><path class="cls-2" d="M990,250a49.706,49.706,0,0,0,.67,8.15Q983.335,254.07,976,250q7.335-4.08,14.67-8.15A49.706,49.706,0,0,0,990,250Z"/><path class="cls-2" d="M1010.87,90.63Q957.44,120.315,904,150q-7.335-4.08-14.67-8.15a49.913,49.913,0,0,0-20.2-32.48Q929.9,75.62,990.67,41.85a49.973,49.973,0,0,0,20.2,48.78Z"/><path class="cls-2" d="M889.33,158.15a49.9,49.9,0,0,0,0-16.3q7.335,4.08,14.67,8.15Q896.665,154.08,889.33,158.15Z"/><path class="cls-1" d="M890,150a49.706,49.706,0,0,1-.67,8.15Q869.665,169.07,850,180v-1.72a29.994,29.994,0,0,0,0-56.56V120q19.665,10.92,39.33,21.85A49.706,49.706,0,0,1,890,150Z"/><path class="cls-1" d="M850,180q19.665-10.92,39.33-21.85a49.986,49.986,0,1,1,0-16.3Q869.665,130.93,850,120v1.72A29.592,29.592,0,0,0,840,120a30,30,0,0,0,0,60,29.592,29.592,0,0,0,10-1.72Z"/><path class="cls-2" d="M407.27,150h20.71a50,50,0,1,1,0-20H407.27a30,30,0,1,0,0,20Z"/><polygon class="cls-2" points="318.99 90 318.99 190 298.99 190 238.99 120.59 238.99 190 218.99 190 218.99 90 238.99 90 298.99 159.41 298.99 90 318.99 90"/><path class="cls-1" d="M240,240a10,10,0,0,0,10,10h40a30,30,0,0,1,0,60H220V290h70a10,10,0,0,0,0-20H250a30,30,0,0,1,0-60h70v20H250A10,10,0,0,0,240,240Z"/><polygon class="cls-1" points="430 210 430 310 410 310 410 270 350 270 350 310 330 310 330 210 350 210 350 250 410 250 410 210 430 210"/><polygon class="cls-1" points="678.99 230 678.99 250 758.99 250 758.99 270 678.99 270 678.99 290 758.99 290 758.99 310 658.99 310 658.99 210 758.99 210 758.99 230 678.99 230"/><polygon class="cls-2" points="458.99 110 458.99 130 538.99 130 538.99 150 458.99 150 458.99 170 538.99 170 538.99 190 438.99 190 438.99 90 538.99 90 538.99 110 458.99 110"/><path class="cls-1" d="M650,240a30,30,0,0,0-30-30H550V310h20V270h50a10,10,0,0,1,10,10v30h20V280a29.862,29.862,0,0,0-7.65-20A29.862,29.862,0,0,0,650,240Zm-80,10V230h50a10,10,0,0,1,0,20Z"/><path class="cls-2" d="M158.99,90a50,50,0,1,0,50,50A50.005,50.005,0,0,0,158.99,90Zm0,80a30,30,0,1,1,30-30A30,30,0,0,1,158.99,170Z"/><path class="cls-2" d="M78.28,150H98.99a50,50,0,1,1,0-20H78.28a30,30,0,1,0,0,20Z"/><path class="cls-1" d="M500.77,211.95l-.78-1.95H480.01l-.78,1.94L440,310h21.55l11.2-28h34.5l11.2,28H540ZM480.75,262,490,238.87,499.25,262Z"/><path class="cls-2" d="M618.99,90h-70V190h20V150h50a30,30,0,0,0,0-60Zm0,40h-50V110h50a10,10,0,0,1,0,20Z"/><polygon class="cls-2" points="758.99 90 758.99 110 718.99 110 718.99 190 698.99 190 698.99 110 658.99 110 658.99 90 758.99 90"/></g></g></g></svg>