<svg xmlns="http://www.w3.org/2000/svg" xmlns:xlink="http://www.w3.org/1999/xlink" viewBox="0 0 1010 140"><defs><style>.cls-1{fill:#121221;}.cls-2{fill:url(#Безымянный_градиент_28);}.cls-3{fill:url(#Безымянный_градиент_28-2);}</style><linearGradient id="Безымянный_градиент_28" x1="910" y1="70" x2="1010" y2="70" gradientUnits="userSpaceOnUse"><stop offset="0.018" stop-color="#366ce1"/><stop offset="0.047" stop-color="#3569db"/><stop offset="0.085" stop-color="#3261ca"/><stop offset="0.127" stop-color="#2d54af"/><stop offset="0.174" stop-color="#254288"/><stop offset="0.224" stop-color="#1c2b57"/><stop offset="0.271" stop-color="#121221"/><stop offset="0.304" stop-color="#121221"/><stop offset="0.42" stop-color="#121221"/><stop offset="0.636" stop-color="#121221"/></linearGradient><linearGradient id="Безымянный_градиент_28-2" x1="820" x2="900" xlink:href="#Безымянный_градиент_28"/></defs><title>concept 3d</title><g id="Слой_2" data-name="Слой 2"><g id="Work_space" data-name="Work space"><g id="concept_3d" data-name="concept 3d"><polygon class="cls-1" points="318.99 40 318.99 140 298.99 140 238.99 70.59 238.99 140 218.99 140 218.99 40 238.99 40 298.99 109.41 298.99 40 318.99 40"/><path class="cls-2" d="M1008.99,40A50.015,50.015,0,0,0,960,0H910V140h50a50.005,50.005,0,0,0,50-50V50A49.16,49.16,0,0,0,1008.99,40ZM990,90a30,30,0,0,1-30,30H930V20h30a30,30,0,0,1,30,30Z"/><polygon class="cls-1" points="458.99 60 458.99 80 538.99 80 538.99 100 458.99 100 458.99 120 538.99 120 538.99 140 438.99 140 438.99 40 538.99 40 538.99 60 458.99 60"/><path class="cls-1" d="M158.99,40a50,50,0,1,0,50,50A50.005,50.005,0,0,0,158.99,40Zm0,80a30,30,0,1,1,30-30A30,30,0,0,1,158.99,120Z"/><path class="cls-1" d="M78.28,100H98.99a50,50,0,1,1,0-20H78.28a30,30,0,1,0,0,20Z"/><path class="cls-1" d="M407.27,100h20.71a50,50,0,1,1,0-20H407.27a30,30,0,1,0,0,20Z"/><path class="cls-1" d="M618.99,40h-70V140h20V100h50a30,30,0,0,0,0-60Zm0,40h-50V60h50a10,10,0,0,1,0,20Z"/><polygon class="cls-1" points="758.99 40 758.99 60 718.99 60 718.99 140 698.99 140 698.99 60 658.99 60 658.99 40 758.99 40"/><path class="cls-3" d="M900,100a40,40,0,0,1-80,0h20a20,20,0,1,0,20-20V60a20,20,0,1,0-20-20H820a40,40,0,1,1,66.44,30A39.845,39.845,0,0,1,900,100Z"/></g></g></g></svg>