<svg xmlns="http://www.w3.org/2000/svg" viewBox="0 0 965.35 100"><defs><style>.cls-1{fill:#121221;}</style></defs><title>confluent</title><g id="Слой_2" data-name="Слой 2"><g id="Work_space" data-name="Work space"><g id="confluent"><polygon class="cls-1" points="655.35 10 655.35 45 745.35 45 745.35 55 655.35 55 655.35 90 745.35 90 745.35 100 645.35 100 645.35 0 745.35 0 745.35 10 655.35 10"/><path class="cls-1" d="M78.28,78.28l7.07,7.07a50,50,0,1,1,0-70.7l-7.07,7.07a40,40,0,1,0,0,56.56Z"/><path class="cls-1" d="M145.35,0a50,50,0,1,0,50,50A50.005,50.005,0,0,0,145.35,0Zm0,90a40,40,0,1,1,40-40A40,40,0,0,1,145.35,90Z"/><polygon class="cls-1" points="525.35 90 525.35 100 425.35 100 425.35 0 435.35 0 435.35 90 525.35 90"/><polygon class="cls-1" points="965.35 0 965.35 10 920.35 10 920.35 100 910.35 100 910.35 10 865.35 10 865.35 0 965.35 0"/><polygon class="cls-1" points="305.35 0 305.35 100 295.42 100 295.35 99.92 215.35 14.59 215.35 100 205.35 100 205.35 0 215.37 0 295.35 85.3 295.35 0 305.35 0"/><polygon class="cls-1" points="855.35 0 855.35 100 845.42 100 845.35 99.92 765.35 14.59 765.35 100 755.35 100 755.35 0 765.37 0 845.35 85.3 845.35 0 855.35 0"/><path class="cls-1" d="M635.35,0V50a50,50,0,0,1-100,0V0h10V50a40,40,0,0,0,80,0V0Z"/><polygon class="cls-1" points="325.35 10 325.35 45 385.35 45 385.35 55 325.35 55 325.35 100 315.35 100 315.35 0 415.35 0 415.35 10 325.35 10"/></g></g></g></svg>