<svg xmlns="http://www.w3.org/2000/svg" viewBox="0 0 434.495 460"><defs><style>.cls-1{fill:#121221;}.cls-2{fill:#366ce1;}</style></defs><title>constant_contact</title><g id="Complete"><g id="constant_contact" data-name="constant contact"><path class="cls-1" d="M72.247,310h20a0,0,0,0,1,0,0v20a0,0,0,0,1,0,0h-10a10,10,0,0,1-10-10V310A0,0,0,0,1,72.247,310Z"/><rect class="cls-1" x="102.247" y="310" width="20" height="20"/><rect class="cls-1" x="132.247" y="310" width="20" height="20"/><rect class="cls-1" x="162.247" y="310" width="20" height="20"/><rect class="cls-1" x="192.247" y="310" width="20" height="20"/><rect class="cls-1" x="222.247" y="310" width="20" height="20"/><rect class="cls-1" x="252.247" y="310" width="20" height="20"/><rect class="cls-1" x="282.247" y="310" width="20" height="20"/><rect class="cls-1" x="312.247" y="310" width="20" height="20"/><path class="cls-1" d="M342.247,310h20a0,0,0,0,1,0,0v10a10,10,0,0,1-10,10h-10a0,0,0,0,1,0,0V310A0,0,0,0,1,342.247,310Z"/><rect class="cls-1" x="72.247" y="280" width="20" height="20"/><rect class="cls-1" x="102.247" y="280" width="20" height="20"/><rect class="cls-1" x="132.247" y="280" width="20" height="20"/><rect class="cls-1" x="162.247" y="280" width="20" height="20"/><rect class="cls-1" x="192.247" y="280" width="20" height="20"/><rect class="cls-1" x="222.247" y="280" width="20" height="20"/><rect class="cls-1" x="252.247" y="280" width="20" height="20"/><rect class="cls-1" x="282.247" y="280" width="20" height="20"/><rect class="cls-1" x="312.247" y="280" width="20" height="20"/><rect class="cls-1" x="342.247" y="280" width="20" height="20"/><rect class="cls-1" x="72.247" y="250" width="20" height="20"/><rect class="cls-1" x="102.247" y="250" width="20" height="20"/><rect class="cls-1" x="132.247" y="250" width="20" height="20"/><rect class="cls-1" x="162.247" y="250" width="20" height="20"/><rect class="cls-2" x="192.247" y="250" width="20" height="20"/><rect class="cls-2" x="222.247" y="250" width="20" height="20"/><rect class="cls-1" x="252.247" y="250" width="20" height="20"/><rect class="cls-1" x="282.247" y="250" width="20" height="20"/><rect class="cls-1" x="312.247" y="250" width="20" height="20"/><rect class="cls-1" x="342.247" y="250" width="20" height="20"/><rect class="cls-1" x="72.247" y="220" width="20" height="20"/><rect class="cls-1" x="102.247" y="220" width="20" height="20"/><rect class="cls-1" x="132.247" y="220" width="20" height="20"/><rect class="cls-2" x="162.247" y="220" width="20" height="20"/><rect class="cls-2" x="192.247" y="220" width="20" height="20"/><rect class="cls-2" x="222.247" y="220" width="20" height="20"/><rect class="cls-2" x="252.247" y="220" width="20" height="20"/><rect class="cls-1" x="282.247" y="220" width="20" height="20"/><rect class="cls-1" x="312.247" y="220" width="20" height="20"/><rect class="cls-1" x="342.247" y="220" width="20" height="20"/><rect class="cls-1" x="72.247" y="190" width="20" height="20"/><rect class="cls-1" x="102.247" y="190" width="20" height="20"/><rect class="cls-2" x="132.247" y="190" width="20" height="20"/><rect class="cls-2" x="162.247" y="190" width="20" height="20"/><rect class="cls-2" x="192.247" y="190" width="20" height="20"/><rect class="cls-2" x="222.247" y="190" width="20" height="20"/><rect class="cls-2" x="252.247" y="190" width="20" height="20"/><rect class="cls-2" x="282.247" y="190" width="20" height="20"/><rect class="cls-1" x="312.247" y="190" width="20" height="20"/><rect class="cls-1" x="342.247" y="190" width="20" height="20"/><rect class="cls-1" x="72.247" y="160" width="20" height="20"/><rect class="cls-2" x="102.247" y="160" width="20" height="20"/><rect class="cls-2" x="132.247" y="160" width="20" height="20"/><rect class="cls-2" x="162.247" y="160" width="20" height="20"/><rect class="cls-2" x="192.247" y="160" width="20" height="20"/><rect class="cls-2" x="222.247" y="160" width="20" height="20"/><rect class="cls-2" x="252.247" y="160" width="20" height="20"/><rect class="cls-2" x="282.247" y="160" width="20" height="20"/><rect class="cls-2" x="312.247" y="160" width="20" height="20"/><rect class="cls-1" x="342.247" y="160" width="20" height="20"/><path class="cls-2" d="M82.247,130h10a0,0,0,0,1,0,0v20a0,0,0,0,1,0,0h-20a0,0,0,0,1,0,0V140A10,10,0,0,1,82.247,130Z"/><rect class="cls-2" x="102.247" y="130" width="20" height="20"/><rect class="cls-2" x="132.247" y="130" width="20" height="20"/><rect class="cls-2" x="162.247" y="130" width="20" height="20"/><rect class="cls-2" x="192.247" y="130" width="20" height="20"/><rect class="cls-2" x="222.247" y="130" width="20" height="20"/><rect class="cls-2" x="252.247" y="130" width="20" height="20"/><rect class="cls-2" x="282.247" y="130" width="20" height="20"/><rect class="cls-2" x="312.247" y="130" width="20" height="20"/><path class="cls-2" d="M342.247,130h10a10,10,0,0,1,10,10v10a0,0,0,0,1,0,0h-20a0,0,0,0,1,0,0V130A0,0,0,0,1,342.247,130Z"/><path class="cls-1" d="M390.253,670a25,25,0,0,0-25,25v10a25,25,0,0,0,50,0V695A25,25,0,0,0,390.253,670Zm15,35a15,15,0,0,1-30,0V695a15,15,0,0,1,30,0Z" transform="translate(-282.753 -270)"/><path class="cls-1" d="M625.253,705h10a25,25,0,0,1-50,0V695a25,25,0,0,1,50,0h-10a15,15,0,0,0-30,0v10a15,15,0,0,0,30,0Z" transform="translate(-282.753 -270)"/><path class="cls-1" d="M350.253,670V655a15,15,0,0,0-30,0v50a15,15,0,0,0,30,0V690h10v15a25,25,0,0,1-50,0V655a25,25,0,0,1,50,0v15Z" transform="translate(-282.753 -270)"/><path class="cls-1" d="M470.253,695v35h-10V695a15,15,0,0,0-30,0v35h-10V670h10v5a25,25,0,0,1,40,20Z" transform="translate(-282.753 -270)"/><path class="cls-1" d="M524.747,710a25,25,0,0,1-48.989,0,24.58,24.58,0,0,1-.5-5V630h10v45.005a24.861,24.861,0,0,1,15-5v10a15,15,0,0,0-15,15v10a15,15,0,0,0,29.14,5Z" transform="translate(-282.753 -270)"/><path class="cls-1" d="M689.747,710a25,25,0,0,1-48.989,0,24.58,24.58,0,0,1-.5-5V630h10v45.005a24.861,24.861,0,0,1,15-5v10a15,15,0,0,0-15,15v10a15,15,0,0,0,29.14,5Z" transform="translate(-282.753 -270)"/><path class="cls-1" d="M570.253,670v5a25,25,0,0,0-40,20v10a25,25,0,0,0,40,20v5h10V670Zm0,35a15,15,0,0,1-30,0V695a15,15,0,0,1,30,0Z" transform="translate(-282.753 -270)"/><path class="cls-2" d="M362.753,310a25,25,0,0,0-25,25v10a25,25,0,0,0,50,0V335A25,25,0,0,0,362.753,310Zm15,35a15,15,0,0,1-30,0V335a15,15,0,0,1,30,0Z" transform="translate(-282.753 -270)"/><path class="cls-2" d="M552.247,350a25,25,0,0,1-48.989,0,24.58,24.58,0,0,1-.5-5V270h10v45.005a24.861,24.861,0,0,1,15-5v10a15,15,0,0,0-15,15v10a15,15,0,0,0,29.14,5Z" transform="translate(-282.753 -270)"/><path class="cls-2" d="M717.247,350a25,25,0,0,1-48.989,0,24.58,24.58,0,0,1-.5-5V270h10v45.005a24.861,24.861,0,0,1,15-5v10a15,15,0,0,0-15,15v10a15,15,0,0,0,29.14,5Z" transform="translate(-282.753 -270)"/><path class="cls-2" d="M497.753,335v10a25,25,0,0,1-41.666,18.63l7.09-7.09A15,15,0,0,0,487.753,345h-40V335a25,25,0,0,1,41.554-18.73l-7.1,7.1A14.994,14.994,0,0,0,457.753,335Z" transform="translate(-282.753 -270)"/><path class="cls-2" d="M322.753,310V295a15,15,0,0,0-30,0v50a15,15,0,0,0,30,0V330h10v15a25,25,0,0,1-50,0V295a25,25,0,0,1,50,0v15Z" transform="translate(-282.753 -270)"/><path class="cls-2" d="M442.753,335v35h-10V335a15,15,0,0,0-30,0v35h-10V310h10v5a25,25,0,0,1,40,20Z" transform="translate(-282.753 -270)"/><path class="cls-2" d="M662.753,335v35h-10V335a15,15,0,0,0-30,0v35h-10V310h10v5a25,25,0,0,1,40,20Z" transform="translate(-282.753 -270)"/><path class="cls-2" d="M597.753,310v5a25,25,0,0,0-40,20v10a25,25,0,0,0,40,20v5h10V310Zm0,35a15,15,0,0,1-30,0V335a15,15,0,0,1,30,0Z" transform="translate(-282.753 -270)"/><path class="cls-2" d="M498.258,350h-.5v-5A24.58,24.58,0,0,0,498.258,350Z" transform="translate(-282.753 -270)"/></g></g></svg>