<svg xmlns="http://www.w3.org/2000/svg" viewBox="0 0 990 240"><defs><style>.cls-1{fill:#366ce1;}.cls-2{fill:#121221;}</style></defs><title>content service</title><g id="Слой_2" data-name="Слой 2"><g id="Work_space" data-name="Work space"><g id="content_service" data-name="content service"><polygon class="cls-1" points="967.73 120 960 133.39 938.87 170 881.13 170 860 133.39 852.27 120 860 106.61 881.13 70 938.87 70 960 106.61 967.73 120"/><polygon class="cls-2" points="967.73 120 960 133.39 960 106.61 967.73 120"/><path class="cls-2" d="M830,40V200H990V40Zm130,93.39V170H860V133.39L852.27,120,860,106.61V70H960v36.61L967.73,120Z"/><polygon class="cls-2" points="860 106.61 860 133.39 852.27 120 860 106.61"/><path class="cls-2" d="M910,80a40,40,0,1,0,40,40A40,40,0,0,0,910,80Zm0,60a20,20,0,1,1,20-20A19.994,19.994,0,0,1,910,140Z"/><path class="cls-2" d="M579.3,206.86q6.255,8.22,12.49,16.43a50,50,0,1,1,0-66.58q-6.24,8.22-12.49,16.43a30,30,0,1,0,0,33.72Z"/><polygon class="cls-2" points="464.495 140 425.275 238.07 424.505 240 404.505 240 403.735 238.07 364.515 140 386.055 140 414.505 211.14 442.965 140 464.495 140"/><rect class="cls-2" x="474.495" y="140" width="20" height="100"/><rect class="cls-2" x="474.495" y="110" width="20" height="20"/><path class="cls-2" d="M273.485,200a50.01,50.01,0,0,0,0-20,50,50,0,0,0-97.98,0,50.01,50.01,0,0,0,0,20,49.987,49.987,0,0,0,82.67,26.94q-7.965-6.375-15.94-12.75A29.992,29.992,0,0,1,196.215,200ZM224.5,160a29.979,29.979,0,0,1,28.28,20h-56.56A29.979,29.979,0,0,1,224.5,160Z"/><path class="cls-2" d="M693.485,200a50.01,50.01,0,0,0,0-20,50,50,0,0,0-97.98,0,50.01,50.01,0,0,0,0,20,49.987,49.987,0,0,0,82.67,26.94q-7.965-6.375-15.94-12.75A29.992,29.992,0,0,1,616.215,200ZM644.5,160a29.979,29.979,0,0,1,28.28,20h-56.56A29.979,29.979,0,0,1,644.5,160Z"/><path class="cls-2" d="M360.215,147.13q-5.145,8.58-10.29,17.15A29.99,29.99,0,0,0,304.5,190v50h-20V140h20v10.01a49.958,49.958,0,0,1,55.72-2.88Z"/><path class="cls-2" d="M164.5,190a49.16,49.16,0,0,1-1.01,10,49.991,49.991,0,0,1-84.34,25.35l14.14-14.14A29.99,29.99,0,0,0,142.775,200H65.505a50.01,50.01,0,0,1,0-20,49.991,49.991,0,0,1,84.34-25.35l-14.14,14.14A29.99,29.99,0,0,0,86.215,180h77.27A49.16,49.16,0,0,1,164.5,190Z"/><polygon class="cls-2" points="648.99 0 648.99 100 628.99 100 568.99 30.59 568.99 100 548.99 100 548.99 0 568.99 0 628.99 69.41 628.99 0 648.99 0"/><polygon class="cls-2" points="318.99 0 318.99 100 298.99 100 238.99 30.59 238.99 100 218.99 100 218.99 0 238.99 0 298.99 69.41 298.99 0 318.99 0"/><polygon class="cls-2" points="458.99 20 458.99 40 538.99 40 538.99 60 458.99 60 458.99 80 538.99 80 538.99 100 438.99 100 438.99 0 538.99 0 538.99 20 458.99 20"/><path class="cls-2" d="M158.99,0a50,50,0,1,0,50,50A50.005,50.005,0,0,0,158.99,0Zm0,80a30,30,0,1,1,30-30A30,30,0,0,1,158.99,80Z"/><path class="cls-2" d="M78.28,60H98.99a50,50,0,1,1,0-20H78.28a30,30,0,1,0,0,20Z"/><polygon class="cls-2" points="428.99 0 428.99 20 388.99 20 388.99 100 368.99 100 368.99 20 328.99 20 328.99 0 428.99 0"/><polygon class="cls-2" points="758.99 0 758.99 20 718.99 20 718.99 100 698.99 100 698.99 20 658.99 20 658.99 0 758.99 0"/></g></g></g></svg>