<svg xmlns="http://www.w3.org/2000/svg" viewBox="0 0 1170 220"><defs><style>.cls-1{fill:#121221;}.cls-2{fill:#366ce1;}</style></defs><title>content stack</title><g id="Слой_2" data-name="Слой 2"><g id="Work_space" data-name="Work space"><g id="content_stack" data-name="content stack"><path class="cls-1" d="M778.28,180h20.71a50,50,0,1,1,0-20H778.28a30,30,0,1,0,0,20Z"/><path class="cls-2" d="M488.785,60H509.5a50,50,0,1,1,0-20h-20.71a30,30,0,1,0,0,20Z"/><polygon class="cls-2" points="1060 0 1060 100 1040 100 980 30.59 980 100 960 100 960 0 980 0 1040 69.41 1040 0 1060 0"/><polygon class="cls-2" points="730 0 730 100 710 100 650 30.59 650 100 630 100 630 0 650 0 710 69.41 710 0 730 0"/><path class="cls-1" d="M430,150a10,10,0,0,0,10,10h40a30,30,0,0,1,0,60H410V200h70a10,10,0,0,0,0-20H440a30,30,0,0,1,0-60h70v20H440A10,10,0,0,0,430,150Z"/><polygon class="cls-2" points="870 20 870 40 950 40 950 60 870 60 870 80 950 80 950 100 850 100 850 0 950 0 950 20 870 20"/><path class="cls-2" d="M570,0a50,50,0,1,0,50,50A50.005,50.005,0,0,0,570,0Zm0,80a30,30,0,1,1,30-30A30,30,0,0,1,570,80Z"/><polygon class="cls-1" points="908.99 219.99 908.99 220 879.12 220 838.5 183.43 828.99 192 828.99 220 808.99 220 808.99 120 828.99 120 828.99 165.09 838.5 156.52 879.06 120 908.96 120 853.45 169.98 908.99 219.99"/><path class="cls-1" d="M660.77,121.95l-.78-1.95H640.01l-.78,1.94L600,220h21.55l11.2-28h34.5l11.2,28H700ZM640.75,172,650,148.87,659.25,172Z"/><polygon class="cls-1" points="620 120 620 140 580 140 580 220 560 220 560 140 520 140 520 120 620 120"/><polygon class="cls-2" points="1170 0 1170 20 1130 20 1130 100 1110 100 1110 20 1070 20 1070 0 1170 0"/><polygon class="cls-2" points="840 0 840 20 800 20 800 100 780 100 780 20 740 20 740 0 840 0"/><rect class="cls-2" x="160" y="70" width="130" height="20"/><rect class="cls-2" x="160" y="190" width="130" height="20"/><rect class="cls-2" x="190" y="100" width="130" height="20"/><rect class="cls-2" x="190" y="160" width="130" height="20"/><rect class="cls-2" x="220" y="130" width="130" height="20"/><rect class="cls-1" x="60" y="130" width="130" height="20" transform="translate(250 280) rotate(180)"/><rect class="cls-1" x="60" y="10" width="130" height="20" transform="translate(250 40) rotate(180)"/><rect class="cls-1" x="30" y="100" width="130" height="20" transform="translate(190 220) rotate(180)"/><rect class="cls-1" x="30" y="40" width="130" height="20" transform="translate(190 100) rotate(180)"/><rect class="cls-1" y="70" width="130" height="20" transform="translate(130 160) rotate(180)"/></g></g></g></svg>