<svg xmlns="http://www.w3.org/2000/svg" viewBox="0 0 1165.36 370"><defs><style>.cls-1{fill:#121221;}.cls-2{fill:#366ce1;}</style></defs><title>convertry</title><g id="Слой_2" data-name="Слой 2"><g id="Work_space" data-name="Work space"><g id="convertry"><polygon class="cls-1" points="1165.36 150 1000 150 1082.68 293.21 1165.36 150"/><polygon class="cls-1" points="1165.36 370 1000 370 1082.68 226.79 1165.36 370"/><circle class="cls-2" cx="1085" cy="85" r="55"/><path class="cls-2" d="M1060,70a78.351,78.351,0,0,1,40-70c-2.658,8.66-7.229,28.084,0,50a77.945,77.945,0,0,0,10,20,50.141,50.141,0,0,0,10-10c11.692-15.623,10.663-33.691,10-40a145.774,145.774,0,0,1,10,70c-4.067,30.806-31.433,52.523-60,50-25.262-2.231-46.659-22.994-50-50-1.033-6.625-3.649-28.893,10-50a68.372,68.372,0,0,1,20-20c-12.043,12.675-15.927,28.763-10,40A25.035,25.035,0,0,0,1060,70Z"/><polygon class="cls-2" points="932.83 181.46 930 185 930.05 185 930.05 235 910.05 235 910.05 185 907.22 181.46 870.05 135 895.66 135 920.02 165.45 944.38 135 970 135 932.83 181.46"/><polygon class="cls-2" points="318.99 135 318.99 235 298.99 235 238.99 165.59 238.99 235 218.99 235 218.99 135 238.99 135 298.99 204.41 298.99 135 318.99 135"/><polygon class="cls-2" points="458.99 155 458.99 175 538.99 175 538.99 195 458.99 195 458.99 215 538.99 215 538.99 235 438.99 235 438.99 135 538.99 135 538.99 155 458.99 155"/><polygon class="cls-2" points="429.98 135 390.76 233.07 389.99 235 369.99 235 369.22 233.07 330 135 351.54 135 379.99 206.14 408.45 135 429.98 135"/><path class="cls-2" d="M648.99,165a30,30,0,0,0-30-30h-70V235h20V195h50a10,10,0,0,1,10,10v30h20V205a29.862,29.862,0,0,0-7.65-20A29.862,29.862,0,0,0,648.99,165Zm-80,10V155h50a10,10,0,0,1,0,20Z"/><path class="cls-2" d="M870,165a30,30,0,0,0-30-30H770V235h20V195h50a10,10,0,0,1,10,10v30h20V205a29.862,29.862,0,0,0-7.65-20A29.862,29.862,0,0,0,870,165Zm-80,10V155h50a10,10,0,0,1,0,20Z"/><path class="cls-2" d="M158.99,135a50,50,0,1,0,50,50A50.005,50.005,0,0,0,158.99,135Zm0,80a30,30,0,1,1,30-30A30,30,0,0,1,158.99,215Z"/><path class="cls-2" d="M78.28,195H98.99a50,50,0,1,1,0-20H78.28a30,30,0,1,0,0,20Z"/><polygon class="cls-2" points="758.99 135 758.99 155 718.99 155 718.99 235 698.99 235 698.99 155 658.99 155 658.99 135 758.99 135"/></g></g></g></svg>