<svg xmlns="http://www.w3.org/2000/svg" viewBox="0 0 840 100"><defs><style>.cls-1{fill:#121221;}.cls-2{fill:#366ce1;}</style></defs><title>coursera</title><g id="Слой_2" data-name="Слой 2"><g id="Work_space" data-name="Work space"><g id="coursera"><path class="cls-1" d="M430,30a10,10,0,0,0,10,10h40a30,30,0,0,1,0,60H410V80h70a10,10,0,0,0,0-20H440a30,30,0,0,1,0-60h70V20H440A10,10,0,0,0,430,30Z"/><polygon class="cls-1" points="540 20 540 40 620 40 620 60 540 60 540 80 620 80 620 100 520 100 520 0 620 0 620 20 540 20"/><path class="cls-1" d="M730,30A30,30,0,0,0,700,0H630V100h20V60h50a10,10,0,0,1,10,10v30h20V70a29.862,29.862,0,0,0-7.65-20A29.862,29.862,0,0,0,730,30ZM650,40V20h50a10,10,0,0,1,0,20Z"/><path class="cls-1" d="M400,30A30,30,0,0,0,370,0H300V100h20V60h50a10,10,0,0,1,10,10v30h20V70a29.862,29.862,0,0,0-7.65-20A29.862,29.862,0,0,0,400,30ZM320,40V20h50a10,10,0,0,1,0,20Z"/><path class="cls-1" d="M130,0a50,50,0,1,0,50,50A50.005,50.005,0,0,0,130,0Zm0,80a30,30,0,1,1,30-30A30,30,0,0,1,130,80Z"/><path class="cls-2" d="M78.28,60H98.99a50,50,0,1,1,0-20H78.28a30,30,0,1,0,0,20Z"/><path class="cls-1" d="M800.77,1.95,799.99,0H780.01l-.78,1.94L740,100h21.55l11.2-28h34.5l11.2,28H840ZM780.75,52,790,28.87,799.25,52Z"/><path class="cls-1" d="M290,0V50a50,50,0,0,1-100,0V0h20V50a30,30,0,0,0,60,0V0Z"/></g></g></g></svg>