<svg xmlns="http://www.w3.org/2000/svg" viewBox="0 0 294.6 300"><defs><style>.cls-1{fill:#1c1e20;}.cls-2{fill:#121221;}.cls-3{fill:#e1dfdf;}.cls-4{fill:#366ce1;}</style></defs><title>creativity365</title><g id="complete"><g id="Creativity_365" data-name="Creativity 365"><path class="cls-1" d="M370.49,374a109.633,109.633,0,0,0-27.09,48.76,100.83,100.83,0,0,0-40.7-1.27,149.7,149.7,0,0,1,42.2-78.5A251.219,251.219,0,0,0,370.49,374Z" transform="translate(-300 -300)"/><path class="cls-2" d="M398.74,547.35a148.96,148.96,0,0,0-14.59,37.46,150.248,150.248,0,0,1-81.51-162.97c.02-.12.04-.24.06-.35a100.83,100.83,0,0,1,40.7,1.27q-.735,2.85-1.3,5.76a110.16,110.16,0,0,0,56.64,118.83Z" transform="translate(-300 -300)"/><path class="cls-1" d="M594.6,490a150.123,150.123,0,0,1-201.9,98.66q-4.35-1.785-8.55-3.85a148.96,148.96,0,0,1,14.59-37.46,107.155,107.155,0,0,0,15.33,6.64A110.116,110.116,0,0,0,552.5,490Z" transform="translate(-300 -300)"/><path class="cls-2" d="M594.6,410H552.5a110.033,110.033,0,0,0-174.31-43.33c-2.68,2.32-5.26,4.76-7.7,7.33a251.219,251.219,0,0,1-25.59-31.01q3.9-3.84,8.09-7.4A150.031,150.031,0,0,1,594.6,410Z" transform="translate(-300 -300)"/><circle class="cls-3" cx="150" cy="150" r="110"/><circle class="cls-4" cx="150" cy="150" r="50"/><circle class="cls-1" cx="150" cy="150" r="25"/></g></g></svg>