<svg xmlns="http://www.w3.org/2000/svg" viewBox="0 0 1358.99 100"><defs><style>.cls-1{fill:#366ce1;}.cls-2{fill:#121221;}</style></defs><title>credit sesame</title><g id="Слой_2" data-name="Слой 2"><g id="Work_space" data-name="Work space"><g id="credit_sesame" data-name="credit sesame"><polygon class="cls-1" points="478.99 20 478.99 80 498.99 80 498.99 100 438.99 100 438.99 80 458.99 80 458.99 20 438.99 20 438.99 0 498.99 0 498.99 20 478.99 20"/><path class="cls-1" d="M378.99,0h-50V100h50a50,50,0,0,0,0-100Zm0,80h-30V20h30a30,30,0,0,1,0,60Z"/><polygon class="cls-2" points="1248.99 0 1248.99 100 1228.99 100 1228.99 30.59 1212.19 50.05 1198.98 65.36 1185.77 50.05 1168.99 30.62 1168.99 100 1148.99 100 1148.99 0 1168.99 0 1168.99 0.01 1198.98 34.75 1228.97 0 1248.99 0"/><path class="cls-2" d="M728.99,30a10,10,0,0,0,10,10h40a30,30,0,0,1,0,60h-70V80h70a10,10,0,0,0,0-20h-40a30,30,0,0,1,0-60h70V20h-70A10,10,0,0,0,728.99,30Z"/><path class="cls-2" d="M948.99,30a10,10,0,0,0,10,10h40a30,30,0,0,1,0,60h-70V80h70a10,10,0,0,0,0-20h-40a30,30,0,0,1,0-60h70V20h-70A10,10,0,0,0,948.99,30Z"/><polygon class="cls-1" points="238.99 20 238.99 40 318.99 40 318.99 60 238.99 60 238.99 80 318.99 80 318.99 100 218.99 100 218.99 0 318.99 0 318.99 20 238.99 20"/><polygon class="cls-2" points="838.99 20 838.99 40 918.99 40 918.99 60 838.99 60 838.99 80 918.99 80 918.99 100 818.99 100 818.99 0 918.99 0 918.99 20 838.99 20"/><polygon class="cls-2" points="1278.99 20 1278.99 40 1358.99 40 1358.99 60 1278.99 60 1278.99 80 1358.99 80 1358.99 100 1258.99 100 1258.99 0 1358.99 0 1358.99 20 1278.99 20"/><path class="cls-1" d="M208.99,30a30,30,0,0,0-30-30h-70V100h20V60h50a10,10,0,0,1,10,10v30h20V70a29.862,29.862,0,0,0-7.65-20A29.862,29.862,0,0,0,208.99,30Zm-80,10V20h50a10,10,0,0,1,0,20Z"/><path class="cls-1" d="M78.28,60H98.99a50,50,0,1,1,0-20H78.28a30,30,0,1,0,0,20Z"/><polygon class="cls-1" points="618.99 0 618.99 20 578.99 20 578.99 100 558.99 100 558.99 20 518.99 20 518.99 0 618.99 0"/><path class="cls-2" d="M1137.98,40A50,50,0,0,0,1040,40a49.16,49.16,0,0,0-1.01,10v50h20V60h60v40h20V50A49.16,49.16,0,0,0,1137.98,40Zm-77.27,0a29.994,29.994,0,0,1,56.56,0Z"/></g></g></g></svg>