<svg xmlns="http://www.w3.org/2000/svg" viewBox="0 0 1811.972 195.635"><defs><style>.cls-1{fill:#366ce1;}.cls-2{fill:#121221;}</style></defs><title>crowd strike</title><g id="Слой_2" data-name="Слой 2"><g id="Work_space" data-name="Work space"><g id="crowd_strike" data-name="crowd strike"><polygon class="cls-1" points="1030 83.384 1030 143.384 1050 143.384 1050 163.384 990 163.384 990 143.384 1010 143.384 1010 83.384 990 83.384 990 63.384 1050 63.384 1050 83.384 1030 83.384"/><path class="cls-2" d="M500,63.384H450v100h50a50,50,0,1,0,0-100Zm0,80H470v-60h30a30,30,0,1,1,0,60Z"/><path class="cls-1" d="M680,93.384a10,10,0,0,0,10,10h40a30,30,0,1,1,0,60H660v-20h70a10,10,0,1,0,0-20H690a30,30,0,0,1,0-60h70v20H690A10,10,0,0,0,680,93.384Z"/><polygon class="cls-1" points="1190 83.384 1190 103.384 1270 103.384 1270 123.384 1190 123.384 1190 143.384 1270 143.384 1270 163.384 1170 163.384 1170 63.384 1270 63.384 1270 83.384 1190 83.384"/><path class="cls-1" d="M980,93.384a30,30,0,0,0-30-30H880v100h20v-40h50a10,10,0,0,1,10,10v30h20v-30a29.862,29.862,0,0,0-7.65-20A29.862,29.862,0,0,0,980,93.384Zm-80,10v-20h50a10,10,0,0,1,0,20Z"/><path class="cls-2" d="M210,93.384a30,30,0,0,0-30-30H110v100h20v-40h50a10,10,0,0,1,10,10v30h20v-30a29.862,29.862,0,0,0-7.65-20A29.862,29.862,0,0,0,210,93.384Zm-80,10v-20h50a10,10,0,0,1,0,20Z"/><path class="cls-2" d="M270,63.384a50,50,0,1,0,50,50A50.005,50.005,0,0,0,270,63.384Zm0,80a30,30,0,1,1,30-30A30,30,0,0,1,270,143.384Z"/><polygon class="cls-1" points="1160 163.374 1160 163.384 1130.13 163.384 1089.51 126.814 1080 135.384 1080 163.384 1060 163.384 1060 63.384 1080 63.384 1080 108.474 1089.51 99.904 1130.07 63.384 1159.97 63.384 1104.46 113.364 1160 163.374"/><path class="cls-2" d="M78.28,123.384H98.99a50,50,0,1,1,0-20H78.28a30,30,0,1,0,0,20Z"/><polygon class="cls-1" points="870 63.384 870 83.384 830 83.384 830 163.384 810 163.384 810 83.384 770 83.384 770 63.384 870 63.384"/><path class="cls-2" d="M419.26,63.384l-14.46,57.86-14.56-56.71-.3-1.15H375.03l-.03.11v-.11h-5.12l-.29,1.16-14.54,56.59-14.43-57.75H320v.02l24.61,98.41.39,1.57h19.86l.38-1.5,14.67-57.13,14.7,57.24.35,1.39h15.03l.01-.04v.04h4.87l.37-1.46,24.64-98.54ZM400,114.374v.04l-.02-.04Zm0,47.53-.19.61.19-.64Z"/><polygon class="cls-2" points="400 114.414 399.98 114.374 400 114.374 400 114.414"/><polygon class="cls-2" points="400 161.904 399.81 162.514 400 161.874 400 161.904"/><polygon class="cls-2" points="400 161.904 399.81 162.514 400 161.874 400 161.904"/><path class="cls-2" d="M1691.729,62.426c-40.47,0-73.27,15.67-73.27,34.99s32.8,34.98,73.27,34.98,73.27-15.66,73.27-34.98S1732.189,62.426,1691.729,62.426Zm42.09,27.97c.01-.11.02-.22.02-.33,0-5.11-13.12-9.25-29.3-9.25-8.95,0-16.96,1.27-22.33,3.26.54-4.96,13.44-8.93,29.27-8.93,16.18,0,29.29,4.15,29.29,9.26C1740.769,86.686,1738.159,88.776,1733.819,90.4Z"/><path class="cls-2" d="M1770.671,115.572a5.16,5.16,0,0,1,.046.8c-12.463,6.421-31.554,11.836-53.3,14.448-39.3,4.719-72.358-1.523-73.849-13.934a7.1,7.1,0,0,1-.055-.8c12.464-6.412,31.563-11.838,53.307-14.45C1736.121,96.919,1769.181,103.161,1770.671,115.572Z"/><path class="cls-1" d="M1811.92,107.7c.665,5.54-5.079,11.387-15.152,16.575a5.273,5.273,0,0,0-.046-.8c-1.49-12.411-34.55-18.654-73.848-13.934-21.744,2.611-40.843,8.037-53.308,14.449-.127-12.212,30.041-25.615,68.5-30.234C1777.368,89.041,1810.428,95.283,1811.92,107.7Z"/><path class="cls-1" d="M1675.985,14.877c5.469,11.84-3.092,28.976-21.754,47.766a12.329,12.329,0,0,0-.678-1.747C1641.3,34.374,1563.3,44.3,1479.319,83.1c-46.467,21.465-85.026,47.284-108.123,70.517-9.076-27.062,48.348-78.587,130.544-116.557C1585.719-1.738,1663.723-11.666,1675.985,14.877Z"/><path class="cls-1" d="M1675.985,180.758c5.469-11.84-3.092-28.976-21.754-47.766a12.329,12.329,0,0,1-.678,1.747c-12.251,26.522-90.256,16.594-174.234-22.2-46.467-21.465-85.026-47.284-108.123-70.517-9.076,27.062,48.348,78.587,130.544,116.557C1585.719,197.373,1663.723,207.3,1675.985,180.758Z"/></g></g></g></svg>