<svg xmlns="http://www.w3.org/2000/svg" viewBox="0 0 1180 220"><defs><style>.cls-1{fill:#121221;}.cls-2{fill:#366ce1;}</style></defs><title>cs cart multiviewer</title><g id="Слой_2" data-name="Слой 2"><g id="Work_space" data-name="Work space"><g id="cs_cart_multiviewer" data-name="cs cart multiviewer"><path class="cls-1" d="M130,30a10,10,0,0,0,10,10h40a30,30,0,0,1,0,60H110V80h70a10,10,0,0,0,0-20H140a30,30,0,0,1,0-60h70V20H140A10,10,0,0,0,130,30Z"/><path class="cls-1" d="M640,30A30,30,0,0,0,610,0H540V100h20V60h50a10,10,0,0,1,10,10v30h20V70a29.862,29.862,0,0,0-7.65-20A29.862,29.862,0,0,0,640,30ZM560,40V20h50a10,10,0,0,1,0,20Z"/><path class="cls-1" d="M408.28,60h20.71a50,50,0,1,1,0-20H408.28a30,30,0,1,0,0,20Z"/><path class="cls-1" d="M78.28,60H98.99a50,50,0,1,1,0-20H78.28a30,30,0,1,0,0,20Z"/><path class="cls-1" d="M490.77,1.95,489.99,0H470.01l-.78,1.94L430,100h21.55l11.2-28h34.5l11.2,28H530ZM470.75,52,480,28.87,489.25,52Z"/><polygon class="cls-1" points="750 0 750 20 710 20 710 100 690 100 690 20 650 20 650 0 750 0"/><polygon class="cls-2" points="480 140 480 200 500 200 500 220 440 220 440 200 460 200 460 140 440 140 440 120 500 120 500 140 480 140"/><polygon class="cls-2" points="680 140 680 200 700 200 700 220 640 220 640 200 660 200 660 140 640 140 640 120 700 120 700 140 680 140"/><polygon class="cls-2" points="100 120 100 220 80 220 80 150.59 63.2 170.05 49.99 185.36 36.78 170.05 20 150.62 20 220 0 220 0 120 20 120 20 120.01 49.99 154.75 79.98 120 100 120"/><polygon class="cls-2" points="840 220 840 120 860 120 860 189.41 876.8 169.95 890.01 154.64 903.22 169.95 920 189.38 920 120 940 120 940 220 920 220 920 219.99 890.01 185.25 860.02 220 840 220"/><polygon class="cls-2" points="740 140 740 160 820 160 820 180 740 180 740 200 820 200 820 220 720 220 720 120 820 120 820 140 740 140"/><polygon class="cls-2" points="980 140 980 160 1060 160 1060 180 980 180 980 200 1060 200 1060 220 960 220 960 120 1060 120 1060 140 980 140"/><polygon class="cls-2" points="340 200 340 220 240 220 240 120 260 120 260 200 340 200"/><path class="cls-2" d="M1180,150a30,30,0,0,0-30-30h-70V220h20V180h50a10,10,0,0,1,10,10v30h20V190a29.862,29.862,0,0,0-7.65-20A29.862,29.862,0,0,0,1180,150Zm-80,10V140h50a10,10,0,0,1,0,20Z"/><polygon class="cls-2" points="420 120 420 140 380 140 380 220 360 220 360 140 320 140 320 120 420 120"/><path class="cls-2" d="M220,120v50a50,50,0,0,1-100,0V120h20v50a30,30,0,0,0,60,0V120Z"/><polygon class="cls-2" points="620 120 580.78 218.07 580.01 220 560.01 220 559.24 218.07 520.02 120 541.56 120 570.01 191.14 598.47 120 620 120"/></g></g></g></svg>