<svg xmlns="http://www.w3.org/2000/svg" viewBox="0 0 300 300"><defs><style>.cls-1{fill:none;}.cls-2{fill:#121221;}.cls-3{fill:#366ce1;}.cls-4{fill:#e1dfdf;}</style></defs><title>currencyxchanger</title><g id="complete"><g id="money_xchanger" data-name="money xchanger"><circle class="cls-1" cx="150" cy="150" r="40"/><circle class="cls-1" cx="150" cy="150" r="40"/><circle class="cls-1" cx="150" cy="150" r="40"/><path class="cls-2" d="M609.99,521.29a149.979,149.979,0,0,1-148.7,148.7c34.18-.65,64.22-27.01,81.92-66.78C582.98,585.51,609.34,555.47,609.99,521.29Z" transform="translate(-310 -370)"/><path class="cls-2" d="M458.71,669.99a149.979,149.979,0,0,1-148.7-148.7c.65,34.18,27.01,64.22,66.78,81.92C394.49,642.98,424.53,669.34,458.71,669.99Z" transform="translate(-310 -370)"/><path class="cls-2" d="M610,520c0,.22,0,.43-.01.65-.57,15.06-21.14,28.52-53.27,37.56a224.2,224.2,0,0,0,0-76.42c32.13,9.04,52.7,22.5,53.27,37.56C610,519.57,610,519.78,610,520Z" transform="translate(-310 -370)"/><circle class="cls-1" cx="150" cy="150" r="40"/><path class="cls-2" d="M360,520a221.426,221.426,0,0,0,3.28,38.21c-32.13-9.04-52.7-22.5-53.27-37.56-.01-.22-.01-.43-.01-.65s0-.43.01-.65c.57-15.06,21.14-28.52,53.27-37.56A221.426,221.426,0,0,0,360,520Z" transform="translate(-310 -370)"/><path class="cls-2" d="M458.71,370.01c-34.18.65-64.22,27.01-81.92,66.78-39.77,17.7-66.13,47.74-66.78,81.92A149.979,149.979,0,0,1,458.71,370.01Z" transform="translate(-310 -370)"/><path class="cls-2" d="M609.99,518.71c-.65-34.18-27.01-64.22-66.78-81.92-17.7-39.77-47.74-66.13-81.92-66.78A149.979,149.979,0,0,1,609.99,518.71Z" transform="translate(-310 -370)"/><circle class="cls-1" cx="150" cy="150" r="40"/><path class="cls-2" d="M498.21,616.72c-9.04,32.13-22.5,52.7-37.56,53.27-.22.01-.43.01-.65.01s-.43,0-.65-.01c-15.06-.57-28.52-21.14-37.56-53.27a224.2,224.2,0,0,0,76.42,0Z" transform="translate(-310 -370)"/><path class="cls-2" d="M507.44,472.56a440.841,440.841,0,0,0-94.88,0,440.841,440.841,0,0,0,0,94.88,440.841,440.841,0,0,0,94.88,0,440.841,440.841,0,0,0,0-94.88ZM460,560a40,40,0,1,1,40-40A40,40,0,0,1,460,560Z" transform="translate(-310 -370)"/><circle class="cls-1" cx="150" cy="150" r="40"/><path class="cls-2" d="M498.21,423.28a224.2,224.2,0,0,0-76.42,0c9.04-32.13,22.5-52.7,37.56-53.27.22-.01.43-.01.65-.01s.43,0,.65.01C475.71,370.58,489.17,391.15,498.21,423.28Z" transform="translate(-310 -370)"/><path class="cls-3" d="M609.99,519.35c.01-.21,0-.43,0-.64-.65-34.18-27.01-64.22-66.78-81.92-17.7-39.77-47.74-66.13-81.92-66.78h-.64c15.06.57,28.52,21.14,37.56,53.27a224.2,224.2,0,0,0-76.42,0c9.04-32.13,22.5-52.7,37.56-53.27h-.64c-34.18.65-64.22,27.01-81.92,66.78-39.77,17.7-66.13,47.74-66.78,81.92,0,.21-.01.43,0,.64.57-15.06,21.14-28.52,53.27-37.56a224.2,224.2,0,0,0,0,76.42c-32.13-9.04-52.7-22.5-53.27-37.56-.01.21,0,.43,0,.64.65,34.18,27.01,64.22,66.78,81.92,17.7,39.77,47.74,66.13,81.92,66.78h.64c-15.06-.57-28.52-21.14-37.56-53.27a224.2,224.2,0,0,0,76.42,0c-9.04,32.13-22.5,52.7-37.56,53.27h.64c34.18-.65,64.22-27.01,81.92-66.78,39.77-17.7,66.13-47.74,66.78-81.92,0-.21.01-.43,0-.64-.57,15.06-21.14,28.52-53.27,37.56a224.2,224.2,0,0,0,0-76.42C588.85,490.83,609.42,504.29,609.99,519.35ZM510,520a430.583,430.583,0,0,1-2.56,47.44,440.841,440.841,0,0,1-94.88,0,440.841,440.841,0,0,1,0-94.88,440.841,440.841,0,0,1,94.88,0A430.583,430.583,0,0,1,510,520Z" transform="translate(-310 -370)"/><circle class="cls-4" cx="150" cy="150" r="40"/></g></g></svg>