<svg id="Слой_1" data-name="Слой 1" xmlns="http://www.w3.org/2000/svg" viewBox="0 0 761.826 576.842"><defs><style>.cls-1{fill:#366ce1;}.cls-2{fill:#e1dfdf;}.cls-3{fill:#1c1e20;}.cls-4{fill:#121221;}</style></defs><title>curry</title><g id="Colors"><rect class="cls-1" x="554.643" width="101.388" height="105.796"/><rect class="cls-2" x="660.439" width="101.388" height="105.796"/><rect class="cls-3" x="554.643" y="110.204" width="101.388" height="105.796"/><rect class="cls-4" x="660.439" y="110.204" width="101.388" height="105.796"/></g><path class="cls-4" d="M639.846,499.263a7.275,7.275,0,0,1,5.218-2.139l42.978-.023,14.587-.014,42.434-.016v.028a7.292,7.292,0,1,1,.014,14.531v.029l-42.44.022.023,42.441h-.029a7.226,7.226,0,0,1-2.1,5.764,7.3,7.3,0,0,1-12.434-5.764h-.028l-.023-42.44-42.9.03h-.071a7.291,7.291,0,0,1-5.232-12.449Z" transform="translate(-237.906)"/><path class="cls-4" d="M734.521,524.662a7.273,7.273,0,0,1-4.461-3.449l-21.509-37.208-7.306-12.626-21.23-36.741.024-.014a7.292,7.292,0,1,1,12.577-7.278l.024-.015,21.24,36.744,36.743-21.24.015.024a7.226,7.226,0,0,1,6.04-1.066,7.3,7.3,0,0,1,1.226,13.65l.014.025-36.743,21.24,21.476,37.137.035.061a7.29,7.29,0,0,1-8.165,10.756Z" transform="translate(-237.906)"/><path class="cls-1" d="M710.232,429.165a7.273,7.273,0,0,1-.756,5.588l-21.469,37.231-7.281,12.641-21.2,36.756-.024-.014a7.292,7.292,0,1,1-12.592-7.253l-.024-.014,21.2-36.766-36.766-21.2.015-.024a7.225,7.225,0,0,1-3.944-4.7,7.295,7.295,0,0,1,11.208-7.887l.015-.024,36.766,21.2L696.8,427.533l.035-.061a7.29,7.29,0,0,1,13.4,1.693Z" transform="translate(-237.906)"/><path class="cls-1" d="M323.616,527.587c-.11.13-.24.25-.36.37s-.25.25-.38.37a49.972,49.972,0,0,1-69.92.03c-.01-.01-.03-.02-.04-.03l-.37-.37c-.12-.12-.25-.24-.36-.37-.3-.3-.59-.61-.88-.92s-.59-.65-.88-.97c-.27-.31-.53-.61-.79-.92-.54-.63-1.06-1.28-1.56-1.94-.25-.33-.5-.67-.74-1-.41-.57-.81-1.14-1.19-1.72-.16-.24-.32-.48-.47-.72-.38-.6-.75-1.21-1.1-1.83-.18-.3-.35-.61-.52-.91-.35-.63-.68-1.26-.99-1.9-.13-.25-.25-.51-.37-.77a49.554,49.554,0,0,1-3.36-9.48q-.15-.585-.27-1.17c-.09-.4-.17-.79-.24-1.18s-.15-.79-.22-1.19a50.18,50.18,0,0,1,.04-16.94c.11-.63.23-1.27.37-1.9.26-1.26.58-2.52.95-3.76.11-.38.23-.77.36-1.15s.24-.76.38-1.13c.07-.21.14-.42.22-.62a49.043,49.043,0,0,1,3.9-8.27c.32-.55.66-1.1,1.02-1.64a49.2,49.2,0,0,1,4.36-5.81c.46-.52.93-1.04,1.41-1.55.31-.32.62-.64.93-.95a49.988,49.988,0,0,1,51.88-11.84l.84.3a50.111,50.111,0,0,1,9.1,4.46c.69.44,1.38.89,2.05,1.36.01.01.02.02.03.02.68.47,1.34.96,2,1.47.34.26.68.53,1.01.8.65.53,1.28,1.08,1.91,1.64s1.25,1.16,1.86,1.77l.03.02a7.29,7.29,0,0,1-10.1,10.51l-.44-.44a.462.462,0,0,1-.07-.07c-.41-.4-.83-.78-1.25-1.16-.37-.33-.75-.65-1.13-.96-.13-.11-.27-.22-.4-.32-.34-.27-.67-.53-1.02-.78a.01.01,0,0,0-.01-.01c-.23-.17-.47-.34-.71-.5-.24-.18-.48-.34-.73-.5-.17-.11-.33-.22-.5-.33q-.5-.315-.99-.6c-.16-.1-.33-.19-.49-.29-.4-.23-.81-.45-1.22-.66-.51-.26-1.02-.51-1.54-.75-.47-.22-.94-.42-1.42-.61a1.539,1.539,0,0,0-.19-.08c-.45-.18-.91-.35-1.36-.51-.14-.05-.27-.1-.4-.14-.43-.14-.86-.28-1.3-.41l-.11-.03c-.51-.15-1.02-.29-1.54-.42-.03-.01-.06-.01-.09-.02-.42-.1-.85-.2-1.28-.28l-.3-.06c-.18-.04-.36-.07-.54-.1-.1-.02-.2-.04-.3-.05-.84-.15-1.68-.26-2.53-.34h-.03c-.55-.05-1.11-.09-1.66-.12h-.02c-.56-.03-1.12-.04-1.68-.04s-1.12.01-1.68.04h-.02c-.55.03-1.11.07-1.66.12h-.04c-1.1.11-2.21.27-3.3.48a.17.17,0,0,0-.07.01c-.53.1-1.05.22-1.58.34a.292.292,0,0,1-.09.02c-.46.12-.93.24-1.39.38a1.973,1.973,0,0,0-.26.07c-.48.14-.97.3-1.44.46a1.066,1.066,0,0,0-.19.07c-.39.13-.78.27-1.16.43a4.37,4.37,0,0,0-.46.18,2.443,2.443,0,0,0-.24.1c-.4.16-.8.34-1.2.52-.46.21-.92.43-1.37.66-.11.06-.22.12-.33.17q-.645.345-1.29.72c-.08.04-.16.09-.24.14-.41.24-.81.49-1.21.75-.36.23-.71.47-1.06.72-.23.15-.45.31-.67.47a.218.218,0,0,0-.05.04q-.6.435-1.17.9c-.07.05-.13.1-.2.16-.39.32-.78.65-1.16.99q-.645.57-1.26,1.17l-.06.06a1.307,1.307,0,0,0-.11.12.812.812,0,0,0-.1.09l-.22.22a.943.943,0,0,1-.1.1c-.32.33-.63.66-.94,1-.12.14-.25.28-.37.42q-.33.375-.63.75c-.06.07-.12.13-.17.2-.16.19-.31.37-.45.56-.59.75-1.14,1.52-1.66,2.31-.11.16-.22.33-.33.5-.2.32-.41.65-.6.99-.11.18-.21.35-.31.53-.26.45-.5.9-.74,1.37-.22.44-.44.89-.65,1.34q-.315.705-.6,1.41a3.054,3.054,0,0,0-.13.32c-.17.41-.32.82-.46,1.24-.05.12-.1.25-.14.38q-.225.66-.42,1.32c-.01.04-.02.08-.03.11-.16.55-.31,1.09-.44,1.64q-.165.69-.3,1.38-.075.315-.12.63c-.18.97-.31,1.95-.41,2.93v.04c-.05.55-.09,1.11-.12,1.66v.02c-.03.56-.04,1.12-.04,1.68a35.435,35.435,0,0,0,60.49,25.05,7.289,7.289,0,0,1,10.66,9.93Z" transform="translate(-237.906)"/><path class="cls-1" d="M420.675,456.9c.13.11.25.24.37.36s.25.25.37.38a49.972,49.972,0,0,1,.03,69.92c-.01.01-.02.03-.03.04l-.37.37c-.12.12-.24.25-.37.36-.3.3-.61.59-.92.88s-.65.59-.97.88c-.31.27-.61.53-.92.79-.63.54-1.28,1.06-1.94,1.56-.33.25-.67.5-1,.74-.57.41-1.14.81-1.72,1.19-.24.16-.48.32-.72.47-.6.38-1.21.75-1.829,1.1-.3.18-.611.35-.911.52-.63.35-1.26.68-1.9.99-.25.13-.51.25-.77.37a49.554,49.554,0,0,1-9.48,3.36q-.585.15-1.17.27c-.4.09-.79.17-1.18.24s-.79.15-1.19.22a50.18,50.18,0,0,1-16.94-.04c-.63-.11-1.27-.23-1.9-.37-1.26-.26-2.52-.58-3.76-.95-.38-.11-.77-.23-1.15-.36s-.76-.24-1.13-.38c-.21-.07-.42-.14-.62-.22a49.043,49.043,0,0,1-8.27-3.9c-.55-.32-1.1-.66-1.64-1.02a49.2,49.2,0,0,1-5.81-4.36c-.52-.46-1.04-.93-1.55-1.41-.32-.31-.64-.62-.95-.93a49.988,49.988,0,0,1-11.84-51.88l.3-.84a50.111,50.111,0,0,1,4.46-9.1c.44-.69.89-1.38,1.36-2.05.01-.01.02-.02.02-.03.47-.68.96-1.34,1.47-2,.26-.34.53-.68.8-1.01.529-.65,1.079-1.28,1.639-1.91s1.16-1.25,1.77-1.86l.02-.03a7.29,7.29,0,0,1,10.51,10.1l-.439.44a.524.524,0,0,1-.071.07c-.4.41-.78.83-1.16,1.25-.33.37-.65.75-.96,1.13-.11.13-.22.27-.32.4-.27.34-.53.67-.78,1.02a.01.01,0,0,0-.01.01c-.17.23-.34.47-.5.71-.18.24-.34.48-.5.73-.11.17-.22.33-.33.5q-.315.495-.6.99c-.1.16-.19.33-.29.49-.229.4-.45.81-.66,1.22-.26.51-.51,1.02-.75,1.54-.22.47-.42.94-.61,1.42a1.539,1.539,0,0,0-.08.19c-.18.45-.35.91-.51,1.36-.05.14-.1.27-.14.4-.14.43-.28.86-.41,1.3-.01.04-.02.07-.03.11-.15.51-.289,1.02-.42,1.54-.01.03-.01.06-.02.09-.1.42-.2.85-.28,1.28l-.06.3c-.04.18-.07.36-.1.54-.02.1-.04.2-.05.3-.15.84-.26,1.68-.34,2.53v.03c-.05.55-.09,1.11-.12,1.66v.02c-.03.56-.04,1.12-.04,1.68s.01,1.12.04,1.68v.02c.03.55.07,1.11.12,1.66v.04c.11,1.1.27,2.21.481,3.3a.188.188,0,0,0,.009.07c.1.53.22,1.05.34,1.58a.292.292,0,0,1,.02.09c.12.46.24.93.381,1.39a1.83,1.83,0,0,0,.069.26c.14.48.3.97.46,1.44a1.066,1.066,0,0,0,.07.19c.13.39.27.78.43,1.16a4.37,4.37,0,0,0,.18.46,2.443,2.443,0,0,0,.1.24c.16.4.34.8.52,1.2.21.46.43.92.66,1.37.06.11.12.22.17.33q.345.645.72,1.29c.04.08.09.16.14.24.24.41.49.81.75,1.21.231.36.47.71.72,1.06.15.23.31.45.47.67a.2.2,0,0,0,.041.05q.433.6.9,1.17c.05.07.1.13.16.2.32.39.65.78.99,1.16q.57.645,1.17,1.26l.06.06a1.307,1.307,0,0,0,.12.11.812.812,0,0,0,.09.1l.22.22a.943.943,0,0,1,.1.1c.33.32.66.63,1,.94.14.12.28.25.42.37q.375.33.75.63c.07.06.13.12.2.17.19.16.37.31.56.45.75.59,1.52,1.14,2.31,1.66.16.11.33.22.5.33.32.2.65.41.99.6.18.11.35.21.53.31.45.26.9.5,1.37.74.44.22.89.44,1.34.65q.707.315,1.41.6a3.054,3.054,0,0,0,.32.13c.41.17.82.32,1.241.46.119.05.25.1.379.14q.66.225,1.32.42c.04.01.08.02.11.03.55.16,1.09.31,1.64.44q.69.165,1.38.3c.21.05.421.09.63.12.97.18,1.95.31,2.93.41h.04c.55.05,1.11.09,1.66.12h.02c.56.03,1.12.04,1.68.04a35.435,35.435,0,0,0,25.05-60.49,7.289,7.289,0,0,1,9.93-10.66Z" transform="translate(-237.906)"/><path class="cls-3" d="M306.5,476.469c-.11.13-.23.27-.35.39a4.4,4.4,0,0,1-.39.35c.13-.12.26-.25.38-.37S306.391,476.6,306.5,476.469Z" transform="translate(-237.906)"/><path class="cls-3" d="M487.889,576.842a7.273,7.273,0,0,0,.67-1.26A6.928,6.928,0,0,1,487.889,576.842Z" transform="translate(-237.906)"/><path class="cls-3" d="M488.559,575.582a7.38,7.38,0,0,0,.53-2.81v-.44A7.278,7.278,0,0,1,488.559,575.582Z" transform="translate(-237.906)"/><path class="cls-1" d="M531.322,480.009a7.289,7.289,0,0,1-10.09.21l-.44-.44a35.443,35.443,0,0,0-47.75-1.72v57.19a7.38,7.38,0,0,1-.53,2.81,7.273,7.273,0,0,1-.67,1.26,6.932,6.932,0,0,1-.92,1.12c0,.01-.01.02-.02.03a7.285,7.285,0,0,1-10.31,0,5.916,5.916,0,0,1-.62-.72,49.992,49.992,0,0,1-1.52-67.72v-22.39a3.54,3.54,0,0,1,.02-.46,7.289,7.289,0,0,1,14.55,0,3.54,3.54,0,0,1,.02.46v10.99a50,50,0,0,1,58.26,9.06l.03.02A7.309,7.309,0,0,1,531.322,480.009Z" transform="translate(-237.906)"/><path class="cls-2" d="M458.452,449.179h.02a3.54,3.54,0,0,0-.02.46Z" transform="translate(-237.906)"/><path class="cls-2" d="M473.042,449.179v.46a3.54,3.54,0,0,0-.02-.46Z" transform="translate(-237.906)"/><path class="cls-1" d="M619.322,480.141a7.289,7.289,0,0,1-10.09.21l-.44-.44a35.443,35.443,0,0,0-47.75-1.72v57.19a7.38,7.38,0,0,1-.53,2.81,7.273,7.273,0,0,1-.67,1.26,6.932,6.932,0,0,1-.92,1.12c0,.01-.01.02-.02.03a7.285,7.285,0,0,1-10.31,0,5.916,5.916,0,0,1-.62-.72,49.992,49.992,0,0,1-1.52-67.72v-22.39a3.54,3.54,0,0,1,.02-.46,7.289,7.289,0,0,1,14.55,0,3.54,3.54,0,0,1,.02.46v10.99a50,50,0,0,1,58.26,9.06l.03.02A7.309,7.309,0,0,1,619.322,480.141Z" transform="translate(-237.906)"/><path class="cls-2" d="M546.452,449.311h.02a3.54,3.54,0,0,0-.02.46Z" transform="translate(-237.906)"/><path class="cls-2" d="M561.042,449.311v.46a3.54,3.54,0,0,0-.02-.46Z" transform="translate(-237.906)"/></svg>