<svg xmlns="http://www.w3.org/2000/svg" viewBox="0 0 500 263.21"><defs><style>.cls-1{fill:#366ce1;}.cls-2{fill:#121221;}</style></defs><title>cvent</title><g id="Complete"><g id="cvent"><path class="cls-1" d="M324.81,466.86q6.255,8.22,12.49,16.43a50,50,0,1,1,0-66.58q-6.24,8.22-12.49,16.43a30,30,0,1,0,0,33.72Z" transform="translate(-250 -236.79)"/><polygon class="cls-2" points="400 163.21 400 263.21 380 263.21 320 193.8 320 263.21 300 263.21 300 163.21 320 163.21 380 232.62 380 163.21 400 163.21"/><polygon class="cls-2" points="500 163.21 500 183.21 460 183.21 460 263.21 440 263.21 440 183.21 400 183.21 400 163.21 500 163.21"/><polygon class="cls-2" points="220 183.21 220 203.21 300 203.21 300 223.21 220 223.21 220 243.21 300 243.21 300 263.21 200 263.21 200 163.21 300 163.21 300 183.21 220 183.21"/><polygon class="cls-2" points="199.98 163.21 160.76 261.28 159.99 263.21 139.99 263.21 139.22 261.28 100 163.21 121.54 163.21 149.99 234.35 178.45 163.21 199.98 163.21"/><polygon class="cls-2" points="332.68 143.21 167.32 143.21 250 0 332.68 143.21"/><polygon class="cls-1" points="332.588 143.21 332.588 47.13 415.798 95.17 332.588 143.21"/><polygon class="cls-1" points="167.32 143.21 167.32 47.13 84.11 95.17 167.32 143.21"/></g></g></svg>