<svg id="Main" xmlns="http://www.w3.org/2000/svg" viewBox="0 0 780 280"><defs><style>.cls-1{fill:#1c1e20;}.cls-2{fill:#e1dfdf;}.cls-3{fill:#121221;}.cls-4{fill:#366ce1;}</style></defs><title>cyberghost</title><g id="Cyberghost"><rect class="cls-1" x="340" y="30" width="100" height="100"/><rect class="cls-1" x="370" width="40" height="30"/><path class="cls-1" d="M500,510l20-20H500Z" transform="translate(-110 -360)"/><path class="cls-1" d="M450,520l30-30H450Z" transform="translate(-110 -360)"/><path class="cls-1" d="M480,490l20,20V490Z" transform="translate(-110 -360)"/><path class="cls-1" d="M520,490l30,30V490Z" transform="translate(-110 -360)"/><path class="cls-2" d="M494.142,434.142V405.858L480,420Z" transform="translate(-110 -360)"/><path class="cls-2" d="M465.858,434.142h28.284L480,420Z" transform="translate(-110 -360)"/><path class="cls-2" d="M465.858,405.858v28.284L480,420Z" transform="translate(-110 -360)"/><path class="cls-2" d="M534.142,434.142V405.858L520,420Z" transform="translate(-110 -360)"/><path class="cls-1" d="M550,390l-30-30v30Z" transform="translate(-110 -360)"/><path class="cls-1" d="M480,360l-30,30h30Z" transform="translate(-110 -360)"/><path class="cls-2" d="M505.858,405.858v28.284L520,420Z" transform="translate(-110 -360)"/><path class="cls-2" d="M534.142,405.858H505.858L520,420Z" transform="translate(-110 -360)"/><rect class="cls-3" x="620" y="580" width="20" height="20" transform="translate(1150 820) rotate(180)"/><path class="cls-3" d="M740,560l-20-20v20Z" transform="translate(-110 -360)"/><path class="cls-3" d="M700,540l-20,20h20Z" transform="translate(-110 -360)"/><rect class="cls-3" x="590" y="180" width="20" height="20"/><path class="cls-3" d="M680,620l20,20V620Z" transform="translate(-110 -360)"/><path class="cls-3" d="M720,640l20-20H720Z" transform="translate(-110 -360)"/><rect class="cls-3" x="700" y="620" width="20" height="20" transform="translate(1310 900) rotate(180)"/><rect class="cls-3" x="720" y="560" width="20" height="60" transform="translate(1350 820) rotate(180)"/><rect class="cls-3" x="570" y="200" width="20" height="60"/><rect class="cls-3" x="490" y="200" width="20" height="60"/><rect class="cls-3" x="530" y="200" width="20" height="60"/><rect class="cls-3" x="740" y="180" width="20" height="100"/><path class="cls-3" d="M580,560l-20-20v20Z" transform="translate(-110 -360)"/><path class="cls-3" d="M660,560l-20-20v20Z" transform="translate(-110 -360)"/><path class="cls-3" d="M540,540l-20,20h20Z" transform="translate(-110 -360)"/><path class="cls-3" d="M620,540l-20,20h20Z" transform="translate(-110 -360)"/><path class="cls-3" d="M560,608.284V580l-14.142,14.142Z" transform="translate(-110 -360)"/><rect class="cls-3" x="430" y="180" width="20" height="20"/><path class="cls-3" d="M520,620l20,20V620Z" transform="translate(-110 -360)"/><path class="cls-3" d="M600,620l20,20V620Z" transform="translate(-110 -360)"/><path class="cls-3" d="M580,600l-20-20v20Z" transform="translate(-110 -360)"/><path class="cls-3" d="M560,640l20-20H560Z" transform="translate(-110 -360)"/><path class="cls-3" d="M640,640l20-20H640Z" transform="translate(-110 -360)"/><rect class="cls-3" x="540" y="620" width="20" height="20" transform="translate(990 900) rotate(180)"/><rect class="cls-3" x="560" y="600" width="20" height="20" transform="translate(1030 860) rotate(180)"/><rect class="cls-3" x="560" y="560" width="20" height="20" transform="translate(1030 780) rotate(180)"/><rect class="cls-3" x="410" y="200" width="20" height="60"/><rect class="cls-3" x="670" y="180" width="20" height="20"/><path class="cls-3" d="M780,540l-20,20h20Z" transform="translate(-110 -360)"/><path class="cls-3" d="M760,620l20,20V620Z" transform="translate(-110 -360)"/><path class="cls-3" d="M760,580l20,20V580Z" transform="translate(-110 -360)"/><path class="cls-3" d="M830,540l20,20V540Z" transform="translate(-110 -360)"/><path class="cls-3" d="M890,560l-20-20v20Z" transform="translate(-110 -360)"/><path class="cls-3" d="M800,640l20-20H800Z" transform="translate(-110 -360)"/><path class="cls-3" d="M870,560l20-20H870Z" transform="translate(-110 -360)"/><path class="cls-3" d="M850,540l-20,20h20Z" transform="translate(-110 -360)"/><path class="cls-3" d="M820,600l-20-20v20Z" transform="translate(-110 -360)"/><path class="cls-3" d="M820,560l-20-20v20Z" transform="translate(-110 -360)"/><rect class="cls-3" x="780" y="620" width="20" height="20" transform="translate(1470 900) rotate(180)"/><rect class="cls-3" x="800" y="600" width="20" height="20" transform="translate(1510 860) rotate(180)"/><rect class="cls-3" x="780" y="580" width="20" height="20" transform="translate(1470 820) rotate(180)"/><rect class="cls-3" x="650" y="200" width="20" height="20"/><path class="cls-4" d="M170,560l-20-20v20Z" transform="translate(-110 -360)"/><path class="cls-4" d="M130,540l-20,20h20Z" transform="translate(-110 -360)"/><path class="cls-4" d="M440,540l-20,20h20Z" transform="translate(-110 -360)"/><path class="cls-4" d="M360,540l-20,20h20Z" transform="translate(-110 -360)"/><rect class="cls-4" x="20" y="180" width="20" height="20"/><rect class="cls-4" x="180" y="180" width="20" height="20"/><rect class="cls-4" x="330" y="180" width="20" height="20"/><rect class="cls-4" x="250" y="180" width="40" height="20"/><rect class="cls-4" x="250" y="220" width="40" height="20"/><rect class="cls-4" x="250" y="260" width="40" height="20"/><path class="cls-4" d="M190,580l20,20V580Z" transform="translate(-110 -360)"/><path class="cls-4" d="M340,620l20,20V620Z" transform="translate(-110 -360)"/><path class="cls-4" d="M290,540l-20,20h20Z" transform="translate(-110 -360)"/><path class="cls-4" d="M270,620l20,20V620Z" transform="translate(-110 -360)"/><path class="cls-4" d="M230,600l20-20H230Z" transform="translate(-110 -360)"/><path class="cls-4" d="M310,600l20-20H310Z" transform="translate(-110 -360)"/><path class="cls-4" d="M460,600l20-20H460Z" transform="translate(-110 -360)"/><path class="cls-4" d="M310,640l20-20H310Z" transform="translate(-110 -360)"/><path class="cls-4" d="M330,600l-20-20v20Z" transform="translate(-110 -360)"/><path class="cls-4" d="M330,560l-20-20v20Z" transform="translate(-110 -360)"/><path class="cls-4" d="M480,560l-20-20v20Z" transform="translate(-110 -360)"/><path class="cls-4" d="M480,600l-20-20v20Z" transform="translate(-110 -360)"/><rect class="cls-4" x="210" y="580" width="20" height="20" transform="translate(330 820) rotate(180)"/><path class="cls-4" d="M110,620l20,20V620Z" transform="translate(-110 -360)"/><path class="cls-4" d="M150,640l20-20H150Z" transform="translate(-110 -360)"/><rect class="cls-4" x="130" y="620" width="20" height="20" transform="translate(170 900) rotate(180)"/><rect class="cls-4" x="290" y="620" width="20" height="20" transform="translate(490 900) rotate(180)"/><rect class="cls-4" x="150" y="600" width="20" height="20" transform="translate(210 860) rotate(180)"/><rect class="cls-4" x="190" y="540" width="20" height="40" transform="translate(290 760) rotate(180)"/><rect class="cls-4" x="210" y="600" width="20" height="40" transform="translate(330 880) rotate(180)"/><rect class="cls-4" x="310" y="600" width="20" height="20" transform="translate(530 860) rotate(180)"/><rect class="cls-4" x="460" y="600" width="20" height="40" transform="translate(830 880) rotate(180)"/><rect class="cls-4" x="230" y="540" width="20" height="40" transform="translate(370 760) rotate(180)"/><rect class="cls-4" x="150" y="560" width="20" height="20" transform="translate(210 780) rotate(180)"/><rect class="cls-4" x="290" y="580" width="20" height="20" transform="translate(490 820) rotate(180)"/><rect class="cls-4" x="310" y="560" width="20" height="20" transform="translate(530 780) rotate(180)"/><rect class="cls-4" x="460" y="560" width="20" height="20" transform="translate(830 780) rotate(180)"/><rect class="cls-4" x="440" y="580" width="20" height="20" transform="translate(790 820) rotate(180)"/><rect class="cls-4" y="200" width="20" height="60"/><rect class="cls-4" x="160" y="200" width="20" height="60"/><rect class="cls-4" x="230" y="200" width="20" height="60"/><rect class="cls-4" x="310" y="200" width="20" height="80"/></g></svg>