<svg xmlns="http://www.w3.org/2000/svg" viewBox="0 0 655.325 230.324"><title>darkroom</title><path d="M333.17,6.7c-2.5.856,2.206,13.354,1.352,33.127-.541,12.51-3.015,21.2-7.015,35.254-8.513,29.9-19.09,47.215-13.293,51.848a5.047,5.047,0,0,0,4.067,1c7.65-1.71,3.838-24.961,11.2-27.961,9.241-3.767,27.723,27.758,31.746,25.382,2.382-1.407.035-14.9-9.127-23.324-8.936-8.217-19.124-6.8-19.6-10.479-.938-7.155,37.362-15.071,36.507-20.619-.429-2.786-10.755-5.138-19.606-2.029-9.936,3.491-14.336,12.572-15.549,11.831-2.066-1.26,16.873-23.831,13.521-48.338C345.349,17.641,335.752,5.816,333.17,6.7Z"/><path d="M469.508,59.493c-10.86-1.817-22.012,6.978-27.8,14.545-13.231,17.288-6.252,38.332-5.664,40.03,1.877,5.42,4.043,11.59,9.263,13.411,9.69,3.38,24.636-10.09,29.352-24.48,1.1-3.358,4.047-14.1-1.287-24.456-2.783-5.4-7.727-10.523-9.4-9.654-2.649,1.38,7.393,15.534,2.832,30.12-3.2,10.236-13.137,19.219-18.664,17.376-5.992-2-7.059-16.811-4.118-27.159.82-2.885,4.364-13.911,14.544-19.951,8.459-5.018,17.578-4.268,17.634-6.435C476.237,61.456,472.552,60,469.508,59.493Z"/><path d="M533.056,75.259c-.764-3.738-2.641-12.923-9.316-15.566-7.786-3.083-17.065,4.731-20.466,7.594-15.193,12.795-19.4,34.649-14.673,49.942,2.458,7.943,5.937,9.621,6.951,10.04,5.972,2.464,13.234-2.975,16.873-5.7C524.6,112.45,536.921,94.175,533.056,75.259ZM500.571,116.07c-6.207-2.47-6.986-20.23-.128-32.65,4.389-7.95,13.528-16.647,18.921-14.459,5.864,2.379,6.312,17.23,2.059,27.931C517.087,107.806,506.3,118.349,500.571,116.07Z"/><path d="M614.456,102.083c.132,17.314,3.846,24.9-.515,27.8a6.587,6.587,0,0,1-6.951,0c-4.5-3.113-.977-12.13-.772-30.634.1-9.05.2-18.269-3.089-19.308-3.652-1.151-9.583,8.362-10.3,9.525-4.925,8.019-6.066,16.73-6.694,21.882-1.191,9.782.117,13.74-3.277,16.791-2.788,2.508-7.584,3.356-9.594,1.486-1.722-1.6-.76-4.608,2.059-15.96,3.339-13.446,3.629-15.834,3.6-18.535-.028-3.079-.124-13.744-5.406-15.961-4.834-2.029-12.475,3.668-16.475,9.525-5.238,7.669-6,18.193-6.693,27.8-.456,6.3-.258,11.024-3.442,13.013-2.269,1.418-6.157,1.439-7.95-.619-2.407-2.762-.366-8.063,3.361-23.436,2.67-11.028,4.193-17.323,5.6-24.99,2.325-12.55,2.142-19.77,5.828-21.273a4.6,4.6,0,0,1,5.088,1.361c2.881,3.565-1.7,9.877.609,12.2,3.034,3.066,13.13-6.623,19.733-3.114,5.376,2.858,4.55,12.389,7.98,12.614,1.613.106,2.112-1.979,5.664-5.406,2.288-2.208,7.448-7.186,12.1-6.435,3.933.634,6.214,5.159,7.465,7.722C615.994,85.516,614.366,90.4,614.456,102.083Z"/><path d="M655.325,150.756c-.056,1.81-117.949-3.731-290.613,3.286-112.324,4.567-171.828,11.361-187.282,13.17-26.313,3.091-50.2,6.432-71.365,9.69-1.7,5.792-3.843,13.226-8.047,27.149-4.01,13.2-7.184,23.194-14.841,25.756-1,.334-3.007.974-4.232,0-2.9-2.339,1.642-11.695,7.072-25.06,4.873-12,7.824-19.324,10-26.285C35.73,188.012.479,196.226.006,194.054c-.557-2.422,41.014-16.4,99.683-28.651,2.366-8.02,5.04-15.983,6.432-24.2.417-2.423,1.448-8.966,5.29-10.219a5.248,5.248,0,0,1,4.594.7c3.926,3.007-.083,13.115-5.875,31.576,16.261-3.2,33.636-6.238,51.68-8.855,49.535-7.156,88.127-8.715,137.746-10.72,23.752-.947,66.688-2.311,156.709-.7C555.308,144.742,655.325,149.058,655.325,150.756Z"/><path d="M202.242,207.083c-.575-.369-2.933,4.47-9.474,9.371-7.465,5.558-13.575,6.132-14.949,6.234-2.851.205-8.716.082-9.351-2.091-.39-1.292,1.292-2.769,9.228-9.085,6.983-5.569,9.382-7.383,10.834-9.475a10.811,10.811,0,0,0,.854-1.454c1.782-3.491,2.691-8.758.993-10.986-2.715-3.561-13.372-1.034-21.019,3.528-3.866,2.305-8.212,6.779-16.9,15.727C147,214.464,142.885,219,141.43,218.113c-.9-.548.149-2.609-.294-7.35-.316-3.38-.575-6.155-2.5-8.084-2.595-2.6-7.117-2.561-10.114-1.632-5.3,1.643-7.49,6.573-8.409,6.036-1.153-.673,2.135-8.537,2.851-10.253,3.978-9.535,6.869-12.714,5.331-15.482a4.9,4.9,0,0,0-4.942-2.338c-2.42.563-3.925,6.76-6.836,19.13-.078.331-1.568,6.691-3.683,17.146-1.642,8.11-2.1,10.983-1.313,11.3.82.329,2.194-2.358,7.547-8.838a45.517,45.517,0,0,1,7.4-7.546c3.117-2.4,5.291-4.081,6.89-3.363,1.887.82,2.071,4.573,2.338,12.078.246,6.46-.205,8.736.923,9.228,1.151.5,2.882-.685,11.955-8.326,5.364-4.517,6.42-5.486,7.809-5.159,3.425.806,1.957,7.86,7.14,12.193,3.48,2.91,7.908,2.867,11.688,2.85a27.814,27.814,0,0,0,17.677-6.89C200.273,216.5,203,207.575,202.242,207.083Zm-24.3-10.253c2.6-1.271,6.275-2.174,6.767-1.312.7,1.291-5.68,6.028-9.761,8.592-2.974,1.845-4.963,3.1-5.455,2.583C168.652,205.832,172.118,199.66,177.942,196.83Z"/><path d="M206.851,60.735c5.175-17.077,9.518-31.5,4.34-46.922C208.821,6.754,204.411-.542,202.3.032c-3.631.988,2.7,24.513-2.955,57.03-3.219,18.5-7.053,23.246-10.716,24.016-6.87,1.444-11.3-8.731-20.175-7.8-9.335.98-16.142,13.839-18.02,23.426-2.629,13.419,2.469,30.271,11.192,32.62,8.087,2.178,16.3-9.058,23.364-4.864,2.807,1.667,3.655,4.7,8.188,6.081,2.637.8,6.5.966,7.3-.6,1.108-2.157-5.066-4.76-7.829-11.615-2.576-6.393-.768-12.965,1.545-21.367a93.1,93.1,0,0,1,4.119-11.327S202.405,75.408,206.851,60.735ZM165.369,119.1c-5.95-2.266-6.761-13.578-5.664-20.337.946-5.825,4.548-15.894,10.555-16.475,6.711-.649,15.552,10.628,13.9,21.109C182.586,113.4,171.651,121.5,165.369,119.1Z"/><path d="M253.564,119.43h0c-1.455-1.766-4.137-5.678-4.817-12.683-.722-7.448,1.808-8.2,1.8-15.961,0-4.265-.009-11.989-5.406-17.763a18.888,18.888,0,0,0-12.871-5.92c-7.268-.18-12.113,4.341-14.318,6.4-5.46,5.094-8.243,12.261-7.082,13.152,1.6,1.23,9.229-11.745,19.019-10.724a13.035,13.035,0,0,1,9.914,7.082c1.867,3.76,2.142,9.565-.809,12.14-4.116,3.592-10.282-2.821-18.823.011a18.188,18.188,0,0,0-11.585,12.872c-.262,1.134-1.787,8.274,2.832,13.9,4.357,5.308,12.016,6.635,17.505,4.891,7.221-2.293,9.366-9.48,12.872-8.5,3.062.861,1.93,6.487,6.3,9.294,4.2,2.7,11.21,1.3,11.837-1.214C260.354,124.739,257.053,123.608,253.564,119.43Zm-31.637-1.077c-.2-.071-4.123-1.508-5.1-5.171-1.186-4.446,2.595-9.793,7.466-11.07,5.9-1.547,12.327,3.164,12.592,7.4C237.212,114.766,228.169,120.534,221.927,118.353Z"/><path d="M266.5,102.627c-.637,6.573-2.43,25.06,2.854,26.818,1.863.62,4.274-1.25,4.571-1.478,3.541-2.716,3.766-7.888,3.9-9.637.888-11.457,9.832-29.822,20.663-32.892,4.964-1.407,8.464.906,14.347-2.376,2.091-1.166,6.211-4.021,5.664-5.921-1-3.472-18.051-5.35-29.347,2.575-10.915,7.657-13.14,22.139-14.034,21.807-.647-.24.543-7.825,4.249-16.692,4.457-10.664,8.93-14.91,6.981-19.727-.944-2.333-3.482-4.99-6.07-4.856C270.75,60.739,266.875,98.716,266.5,102.627Z"/><path d="M388.267,56.116c-5.5,2.026-3.03,14.493-5.009,34.394-2.021,20.316-7.085,32.392-1.614,36.222a6.814,6.814,0,0,0,5.05,1.092c3.753-.944,5.376-6.241,6.016-8.3,8-25.744,12.473-40.152,19.835-42.382,6.713-2.033,14.038,6.6,16.647,3.948,1.479-1.508.263-5.447-1.545-7.895-3.885-5.259-12.644-6.53-18.535-4.634C393.15,73.7,389.7,104.851,388.993,104.649c-.427-.123,2.133-11.3,4.143-22.2,3.377-18.3,2.782-23.643-.205-25.663A5.378,5.378,0,0,0,388.267,56.116Z"/></svg>