<svg xmlns="http://www.w3.org/2000/svg" viewBox="0 0 420 220"><defs><style>.cls-1{fill:#121221;}.cls-2{fill:#366ce1;}</style></defs><title>dark alto</title><g id="Слой_2" data-name="Слой 2"><g id="Work_space" data-name="Work space"><g id="dark_alto" data-name="dark alto"><path class="cls-1" d="M50,0H0V100H50A50,50,0,0,0,50,0Zm0,80H20V20H50a30,30,0,0,1,0,60Z"/><path class="cls-1" d="M310,30A30,30,0,0,0,280,0H210V100h20V60h50a10,10,0,0,1,10,10v30h20V70a29.862,29.862,0,0,0-7.65-20A29.862,29.862,0,0,0,310,30ZM230,40V20h50a10,10,0,0,1,0,20Z"/><polygon class="cls-1" points="420 99.99 420 100 390.13 100 349.51 63.43 340 72 340 100 320 100 320 0 340 0 340 45.09 349.51 36.52 390.07 0 419.97 0 364.46 49.98 420 99.99"/><path class="cls-1" d="M160.77,1.95,159.99,0H140.01l-.78,1.94L100,100h21.55l11.2-28h34.5l11.2,28H200ZM140.75,52,150,28.87,159.25,52Z"/><polygon class="cls-2" points="210 200 210 220 110 220 110 120 130 120 130 200 210 200"/><path class="cls-2" d="M340,120a50,50,0,1,0,50,50A50.005,50.005,0,0,0,340,120Zm0,80a30,30,0,1,1,30-30A30,30,0,0,1,340,200Z"/><path class="cls-2" d="M60.77,121.95,59.99,120H40.01l-.78,1.94L0,220H21.55l11.2-28h34.5l11.2,28H100ZM40.75,172,50,148.87,59.25,172Z"/><polygon class="cls-2" points="290 120 290 140 250 140 250 220 230 220 230 140 190 140 190 120 290 120"/></g></g></g></svg>