<svg id="Main" xmlns="http://www.w3.org/2000/svg" viewBox="0 0 420 100.056"><defs><style>.cls-1{fill:#1c1e20;}.cls-2{fill:#366ce1;}</style></defs><title>dark_comet</title><g id="Dark_Comet" data-name="Dark Comet"><rect class="cls-1" width="10" height="100"/><circle class="cls-2" cx="250" cy="50" r="20"/><circle class="cls-1" cx="80" cy="80" r="20"/><path class="cls-1" d="M300,529.972c22.085,3.305,40-13.592,40-30s-17.915-33.305-40-30v-20a50,50,0,0,1,0,100Z" transform="translate(-290 -449.972)"/><path class="cls-1" d="M550,469.972c-22.085-3.305-40,13.591-40,30s17.915,33.305,40,30v20a50,50,0,0,1,0-100Z" transform="translate(-290 -449.972)"/><rect class="cls-1" x="90" y="60" width="10" height="40"/><rect class="cls-1" x="110" y="60" width="10" height="40"/><path class="cls-1" d="M420,519.972a10.048,10.048,0,0,1,10,10l10-10c-.747-1-7.75-10-20-10-1.245,0-12.65.2-20,10l10,10A10.048,10.048,0,0,1,420,519.972Z" transform="translate(-290 -449.972)"/><path class="cls-1" d="M450,449.972v100h10v-10h0l10,10h20l-20-20,20-20H480L460,529.2V449.972Z" transform="translate(-290 -449.972)"/><rect class="cls-2" x="250" y="30" width="10" height="10"/><rect class="cls-2" x="260" y="40" width="10" height="10"/><rect class="cls-2" x="280" y="10" width="10" height="10"/><rect class="cls-2" x="270" y="20" width="10" height="10"/><rect class="cls-2" x="270" y="30" width="10" height="10"/><rect class="cls-2" x="260" y="20" width="10" height="10"/><rect class="cls-2" x="290" width="10" height="10"/><rect class="cls-2" x="280" y="60" width="10" height="40"/><rect class="cls-2" x="300" y="70" width="10" height="30"/><rect class="cls-2" x="320" y="70" width="10" height="30"/><path class="cls-2" d="M570,519.972c4.19-8.23,12.868-12.167,20-10,6.858,2.084,9.62,9,10,10Z" transform="translate(-290 -449.972)"/><path class="cls-2" d="M590,519.972c4.19-8.23,12.868-12.167,20-10,6.858,2.084,9.62,9,10,10Z" transform="translate(-290 -449.972)"/><path class="cls-2" d="M630,529.972a20,20,0,0,1,40,0Z" transform="translate(-290 -449.972)"/><path class="cls-2" d="M630,529.972c-.041,11.424,10.309,19.269,20,20,12.03.907,19.584-9.411,20-10-1.279.593-10.523,4.7-20,0a22.762,22.762,0,0,1-10-10q5-10,10-20C638.807,510.371,630.038,519.491,630,529.972Z" transform="translate(-290 -449.972)"/><ellipse class="cls-2" cx="400" cy="65" rx="28.284" ry="7.071"/><ellipse class="cls-2" cx="395" cy="45" rx="7.071" ry="63.64"/><path class="cls-2" d="M680,539.972a16.25,16.25,0,0,0,30,0Z" transform="translate(-290 -449.972)"/></g></svg>