<svg id="Complete" xmlns="http://www.w3.org/2000/svg" viewBox="0 0 410 440"><defs><style>.cls-1{fill:#121221;}.cls-2{fill:#366ce1;}</style></defs><title>dataplay</title><g id="dataplay"><path class="cls-1" d="M455,280a50,50,0,1,0,40,79.99V380h10V330A50.005,50.005,0,0,0,455,280Zm0,90a40,40,0,1,1,40-40A40,40,0,0,1,455,370Z" transform="translate(-295 -280)"/><path class="cls-1" d="M655,280a50,50,0,1,0,40,79.99V380h10V330A50.005,50.005,0,0,0,655,280Zm0,90a40,40,0,1,1,40-40A40,40,0,0,1,655,370Z" transform="translate(-295 -280)"/><path class="cls-1" d="M345,280H295V380h50a50,50,0,0,0,0-100Zm0,90H305V290h40a40,40,0,0,1,0,80Z" transform="translate(-295 -280)"/><rect class="cls-1" x="210" width="100" height="10"/><rect class="cls-1" x="255" y="10" width="10" height="90"/><path class="cls-1" d="M705,620a50.014,50.014,0,0,1-45,49.75V720H650V669.75A50.014,50.014,0,0,1,605,620h10a40,40,0,0,0,80,0Z" transform="translate(-295 -280)"/><path class="cls-1" d="M345,620a50.005,50.005,0,0,0-50,50v50h10V699.99A50,50,0,1,0,345,620Zm0,90a40,40,0,1,1,40-40A40,40,0,0,1,345,710Z" transform="translate(-295 -280)"/><path class="cls-1" d="M555,620a50,50,0,1,0,40,79.99V720h10V670A50.005,50.005,0,0,0,555,620Zm0,90a40,40,0,1,1,40-40A40,40,0,0,1,555,710Z" transform="translate(-295 -280)"/><polygon class="cls-1" points="210 430 210 440 110 440 110 340 120 340 120 430 210 430"/><path class="cls-2" d="M450,540a40.145,40.145,0,0,0,4.27-.23,49.034,49.034,0,0,0-3.26,10.21c-.34.02-.67.02-1.01.02a50,50,0,0,1,0-100c.34,0,.67,0,1.01.02a49.034,49.034,0,0,0,3.26,10.21A40,40,0,1,0,450,540Z" transform="translate(-295 -280)"/><path class="cls-2" d="M600,500a50.005,50.005,0,0,1-50,50c-.34,0-.67,0-1.01-.02a49.034,49.034,0,0,0-3.26-10.21,40,40,0,1,0,0-79.54,49.034,49.034,0,0,0,3.26-10.21c.34-.02.67-.02,1.01-.02A50.005,50.005,0,0,1,600,500Z" transform="translate(-295 -280)"/><path class="cls-1" d="M545.73,539.77a50.069,50.069,0,0,0-34.09-28.4c-.54-.14-1.09-.26-1.64-.36V488.99c.55-.1,1.1-.22,1.64-.36a50.069,50.069,0,0,0,34.09-28.4,49.034,49.034,0,0,0,3.26-10.21,50,50,0,1,0-97.98,0,49.034,49.034,0,0,0,3.26,10.21,50.053,50.053,0,0,0,34.08,28.4h.01c.54.14,1.09.26,1.64.36v22.02c-.55.1-1.1.22-1.64.36h-.01a50.053,50.053,0,0,0-34.08,28.4,49.034,49.034,0,0,0-3.26,10.21,50,50,0,1,0,97.98,0A49.034,49.034,0,0,0,545.73,539.77Zm-64.08-64.22-.01-.01a40.047,40.047,0,0,1-13.29-11.09h-.01a39.746,39.746,0,0,1-6.69-13.08h-.01a40,40,0,1,1,76.72,0h-.01a39.746,39.746,0,0,1-6.69,13.08h-.01a40.047,40.047,0,0,1-13.29,11.09l-.01.01a39.726,39.726,0,0,1-14.08,4.22,2.288,2.288,0,0,0-.1.23h-8.34a2.288,2.288,0,0,0-.1-.23A39.726,39.726,0,0,1,481.65,475.55ZM500,600a39.975,39.975,0,0,1-31.65-64.45l.01-.01a39.83,39.83,0,0,1,13.29-11.09h.01a39.674,39.674,0,0,1,14.07-4.22,2.288,2.288,0,0,0,.1-.23h8.34a2.288,2.288,0,0,0,.1.23,39.726,39.726,0,0,1,14.08,4.22l.01.01a40.047,40.047,0,0,1,13.29,11.09h.01a39.746,39.746,0,0,1,6.69,13.08h.01A40.029,40.029,0,0,1,500,600Z" transform="translate(-295 -280)"/></g></svg>