<svg xmlns="http://www.w3.org/2000/svg" viewBox="0 0 890 220"><defs><style>.cls-1{fill:#366ce1;}.cls-2{fill:#121221;}</style></defs><title>data robot</title><g id="Слой_2" data-name="Слой 2"><g id="Work_space" data-name="Work space"><g id="data_robot" data-name="data robot"><path class="cls-1" d="M460,150a30,30,0,0,0-30-30H360V220h20V180h50a10,10,0,0,1,10,10v30h20V190a29.862,29.862,0,0,0-7.65-20A29.862,29.862,0,0,0,460,150Zm-80,10V140h50a10,10,0,0,1,0,20Z"/><path class="cls-1" d="M740,120a50,50,0,1,0,50,50A50.005,50.005,0,0,0,740,120Zm0,80a30,30,0,1,1,30-30A30,30,0,0,1,740,200Z"/><path class="cls-1" d="M520,120a50,50,0,1,0,50,50A50.005,50.005,0,0,0,520,120Zm0,80a30,30,0,1,1,30-30A30,30,0,0,1,520,200Z"/><path class="cls-1" d="M680,150a30,30,0,0,0-30-30H580V220h70a29.991,29.991,0,0,0,22.35-50A29.862,29.862,0,0,0,680,150Zm-80-10h50a10,10,0,0,1,0,20H600Zm50,60H600V180h50a10,10,0,0,1,0,20Z"/><polygon class="cls-1" points="890 120 890 140 850 140 850 220 830 220 830 140 790 140 790 120 890 120"/><path class="cls-2" d="M410,0H360V100h50A50,50,0,0,0,410,0Zm0,80H380V20h30a30,30,0,0,1,0,60Z"/><path class="cls-2" d="M680.77,1.95,679.99,0H660.01l-.78,1.94L620,100h21.55l11.2-28h34.5l11.2,28H720ZM660.75,52,670,28.87,679.25,52Z"/><path class="cls-2" d="M520.77,1.95,519.99,0H500.01l-.78,1.94L460,100h21.55l11.2-28h34.5l11.2,28H560ZM500.75,52,510,28.87,519.25,52Z"/><polygon class="cls-2" points="640 0 640 20 600 20 600 100 580 100 580 20 540 20 540 0 640 0"/><path class="cls-1" d="M260,10H60A50.005,50.005,0,0,0,10,60V160a50.005,50.005,0,0,0,50,50H260a50.005,50.005,0,0,0,50-50V60A50.005,50.005,0,0,0,260,10Zm40,140a50.005,50.005,0,0,1-50,50H70a50.005,50.005,0,0,1-50-50V70A50.005,50.005,0,0,1,70,20H250a50.005,50.005,0,0,1,50,50Z"/><rect class="cls-2" x="20" y="20" width="280" height="180" rx="50"/><ellipse class="cls-1" cx="105" cy="110" rx="15" ry="20"/><ellipse class="cls-1" cx="215" cy="110" rx="15" ry="20"/><ellipse class="cls-1" cx="305" cy="110" rx="15" ry="20"/><ellipse class="cls-1" cx="15" cy="110" rx="15" ry="20"/></g></g></g></svg>