<svg xmlns="http://www.w3.org/2000/svg" viewBox="0 0 1139.563 212"><defs><style>.cls-1,.cls-5,.cls-6{fill:#366ce1;}.cls-2,.cls-3,.cls-4{fill:#121221;}.cls-3,.cls-5{opacity:0.38;}.cls-4,.cls-6{opacity:0.62;}</style></defs><title>datarobot</title><g id="Слой_2" data-name="Слой 2"><g id="Work_space" data-name="Work space"><g id="datarobot"><path class="cls-1" d="M490,86a30,30,0,0,0-30-30H390V156h20V116h50a10,10,0,0,1,10,10v30h20V126a29.862,29.862,0,0,0-7.65-20A29.862,29.862,0,0,0,490,86ZM410,96V76h50a10,10,0,0,1,0,20Z"/><path class="cls-1" d="M770,56a50,50,0,1,0,50,50A50.005,50.005,0,0,0,770,56Zm0,80a30,30,0,1,1,30-30A30,30,0,0,1,770,136Z"/><path class="cls-1" d="M550,56a50,50,0,1,0,50,50A50.005,50.005,0,0,0,550,56Zm0,80a30,30,0,1,1,30-30A30,30,0,0,1,550,136Z"/><path class="cls-1" d="M710,86a30,30,0,0,0-30-30H610V156h70a29.991,29.991,0,0,0,22.35-50A29.862,29.862,0,0,0,710,86ZM630,76h50a10,10,0,0,1,0,20H630Zm50,60H630V116h50a10,10,0,0,1,0,20Z"/><polygon class="cls-1" points="920 56 920 76 880 76 880 156 860 156 860 76 820 76 820 56 920 56"/><path class="cls-2" d="M50,56H0V156H50A50,50,0,0,0,50,56Zm0,80H20V76H50a30,30,0,0,1,0,60Z"/><path class="cls-2" d="M340.77,57.95,339.99,56H320.01l-.78,1.94L280,156h21.55l11.2-28h34.5l11.2,28H380ZM320.75,108,330,84.87,339.25,108Z"/><path class="cls-2" d="M160.77,57.95,159.99,56H140.01l-.78,1.94L100,156h21.55l11.2-28h34.5l11.2,28H200ZM140.75,108,150,84.87,159.25,108Z"/><polygon class="cls-2" points="290 56 290 76 250 76 250 156 230 156 230 76 190 76 190 56 290 56"/><path class="cls-1" d="M1039.563,30V130c0,16.57-22.39,30-50,30s-50-13.43-50-30V30c0,16.57,22.39,30,50,30S1039.563,46.57,1039.563,30Z"/><path class="cls-3" d="M1039.563,30V130c0,16.57-22.39,30-50,30s-50-13.43-50-30V30c0,16.57,22.39,30,50,30S1039.563,46.57,1039.563,30Z"/><ellipse class="cls-2" cx="989.563" cy="30" rx="50" ry="30"/><path class="cls-1" d="M1139.563,30V130c0,16.57-22.39,30-50,30s-50-13.43-50-30V30c0,16.57,22.39,30,50,30S1139.563,46.57,1139.563,30Z"/><path class="cls-4" d="M1139.563,30V130c0,16.57-22.39,30-50,30s-50-13.43-50-30V30c0,16.57,22.39,30,50,30S1139.563,46.57,1139.563,30Z"/><ellipse class="cls-2" cx="1089.563" cy="30" rx="50" ry="30"/><path class="cls-1" d="M1089.563,82V182c0,16.57-22.39,30-50,30s-50-13.43-50-30V82c0,16.57,22.39,30,50,30S1089.563,98.57,1089.563,82Z"/><ellipse class="cls-2" cx="1039.563" cy="82" rx="50" ry="30"/><ellipse class="cls-5" cx="989.563" cy="30" rx="50" ry="30"/><ellipse class="cls-6" cx="1039.563" cy="82" rx="50" ry="30"/></g></g></g></svg>