<svg xmlns="http://www.w3.org/2000/svg" viewBox="0 0 1250 340"><defs><style>.cls-1{fill:#366ce1;}.cls-2{fill:#121221;}</style></defs><title>data science studios</title><g id="Слой_2" data-name="Слой 2"><g id="Work_space" data-name="Work space"><g id="data_science_studios" data-name="data science studios"><polygon class="cls-1" points="1020 178.574 1020 238.574 1040 238.574 1040 258.574 980 258.574 980 238.574 1000 238.574 1000 178.574 980 178.574 980 158.574 1040 158.574 1040 178.574 1020 178.574"/><path class="cls-1" d="M930,158.574H880v100h50a50,50,0,0,0,0-100Zm0,80H900v-60h30a30,30,0,0,1,0,60Z"/><path class="cls-1" d="M570,188.574a10,10,0,0,0,10,10h40a30,30,0,0,1,0,60H550v-20h70a10,10,0,0,0,0-20H580a30,30,0,0,1,0-60h70v20H580A10,10,0,0,0,570,188.574Z"/><path class="cls-1" d="M1170,188.574a10,10,0,0,0,10,10h40a30,30,0,0,1,0,60h-70v-20h70a10,10,0,0,0,0-20h-40a30,30,0,0,1,0-60h70v20h-70A10,10,0,0,0,1170,188.574Z"/><path class="cls-1" d="M1090,158.574a50,50,0,1,0,50,50A50.005,50.005,0,0,0,1090,158.574Zm0,80a30,30,0,1,1,30-30A30,30,0,0,1,1090,238.574Z"/><polygon class="cls-2" points="440 278.574 440 308.574 450 308.574 450 318.574 420 318.574 420 308.574 430 308.574 430 278.574 420 278.574 420 268.574 450 268.574 450 278.574 440 278.574"/><path class="cls-2" d="M320,283.574a5,5,0,0,0,5,5h20a15,15,0,0,1,0,30H310v-10h35a5,5,0,0,0,0-10H325a15,15,0,0,1,0-30h35v10H325A5,5,0,0,0,320,283.574Z"/><polygon class="cls-2" points="470 278.574 470 288.574 510 288.574 510 298.574 470 298.574 470 308.574 510 308.574 510 318.574 460 318.574 460 268.574 510 268.574 510 278.574 470 278.574"/><polygon class="cls-2" points="580 278.574 580 288.574 620 288.574 620 298.574 580 298.574 580 308.574 620 308.574 620 318.574 570 318.574 570 268.574 620 268.574 620 278.574 580 278.574"/><path class="cls-2" d="M404.645,298.574H415a25,25,0,1,1,0-10H404.645a15,15,0,1,0,0,10Z"/><path class="cls-2" d="M554.14,298.574H564.5a25,25,0,1,1,0-10H554.14a15,15,0,1,0,0,10Z"/><polygon class="cls-1" points="760 158.574 760 178.574 720 178.574 720 258.574 700 258.574 700 178.574 660 178.574 660 158.574 760 158.574"/><path class="cls-1" d="M50,158.574H0v100H50a50,50,0,0,0,0-100Zm0,80H20v-60H50a30,30,0,0,1,0,60Z"/><path class="cls-1" d="M340.77,160.524l-.78-1.95H320.01l-.78,1.94L280,258.574h21.55l11.2-28h34.5l11.2,28H380Zm-20.02,50.05,9.25-23.13,9.25,23.13Z"/><path class="cls-1" d="M160.77,160.524l-.78-1.95H140.01l-.78,1.94L100,258.574h21.55l11.2-28h34.5l11.2,28H200Zm-20.02,50.05,9.25-23.13,9.25,23.13Z"/><polygon class="cls-1" points="290 158.574 290 178.574 250 178.574 250 258.574 230 258.574 230 178.574 190 178.574 190 158.574 290 158.574"/><path class="cls-1" d="M870,158.574v50a50,50,0,1,1-100,0v-50h20v50a30,30,0,1,0,60,0v-50Z"/><path class="cls-2" d="M568.72,40A45,45,0,0,0,479,44.58V45a44.82,44.82,0,0,0,9.78,28.01q-54.6,69.48-109.19,138.97Q329.3,275.985,279,340l80-80h80c-4.73-4.53-10.97-11.9-10-20a13.706,13.706,0,0,1,.37-1.93A99.872,99.872,0,0,0,448.331,240c53.118.346,97.7-41.483,100.523-94.527A99.615,99.615,0,0,0,534.84,88.68a45.009,45.009,0,0,0,24.329-15.607,86,86,0,0,1,15.719-14.989Q586.945,49.042,599,40ZM540.7,49.86a10,10,0,1,1,8.165-8.166A10.013,10.013,0,0,1,540.7,49.86Z"/></g></g></g></svg>