<svg xmlns="http://www.w3.org/2000/svg" viewBox="0 0 857.406 135.029"><defs><style>.cls-1{fill:#366ce1;}.cls-2{opacity:0.38;}.cls-3,.cls-4{fill:#121221;}.cls-3{opacity:0.62;}</style></defs><title>datrium</title><g id="Слой_2" data-name="Слой 2"><g id="Work_space" data-name="Work space"><g id="datrium"><polygon class="cls-1" points="741.082 33.269 741.082 33.261 798.701 0 856.324 33.261 856.324 33.269 798.701 66.53 741.082 33.269"/><polygon class="cls-1" points="797.628 135.025 797.621 135.029 740.006 101.76 740 35.226 740.007 35.222 797.623 68.494 797.628 135.025"/><polygon class="cls-1" points="857.406 35.226 857.4 35.222 799.785 68.491 799.779 135.025 799.785 135.029 857.402 101.756 857.406 35.226"/><g class="cls-2"><polygon class="cls-3" points="797.628 135.025 797.621 135.029 740.006 101.76 740 35.226 740.007 35.222 797.623 68.494 797.628 135.025"/><polygon class="cls-4" points="857.406 35.226 857.4 35.222 799.785 68.491 799.779 135.025 799.785 135.029 857.402 101.756 857.406 35.226"/></g><polygon class="cls-4" points="450 42.514 450 102.514 470 102.514 470 122.514 410 122.514 410 102.514 430 102.514 430 42.514 410 42.514 410 22.514 470 22.514 470 42.514 450 42.514"/><path class="cls-4" d="M50,22.514H0v100H50a50,50,0,0,0,0-100Zm0,80H20v-60H50a30,30,0,0,1,0,60Z"/><polygon class="cls-4" points="690 22.514 690 122.514 670 122.514 670 53.104 653.2 72.564 639.99 87.874 626.78 72.564 610 53.134 610 122.514 590 122.514 590 22.514 610 22.514 610 22.524 639.99 57.264 669.98 22.514 690 22.514"/><path class="cls-4" d="M400,52.514a30,30,0,0,0-30-30H300v100h20v-40h50a10,10,0,0,1,10,10v30h20v-30a29.862,29.862,0,0,0-7.65-20A29.862,29.862,0,0,0,400,52.514Zm-80,10v-20h50a10,10,0,0,1,0,20Z"/><path class="cls-4" d="M160.77,24.464l-.78-1.95H140.01l-.78,1.94L100,122.514h21.55l11.2-28h34.5l11.2,28H200Zm-20.02,50.05L150,51.384l9.25,23.13Z"/><polygon class="cls-4" points="290 22.514 290 42.514 250 42.514 250 122.514 230 122.514 230 42.514 190 42.514 190 22.514 290 22.514"/><path class="cls-4" d="M580,22.514v50a50,50,0,0,1-100,0v-50h20v50a30,30,0,1,0,60,0v-50Z"/></g></g></g></svg>