<svg xmlns="http://www.w3.org/2000/svg" viewBox="0 0 1039.113 120"><defs><style>.cls-1{fill:#366ce1;}.cls-2{fill:#121221;}</style></defs><title>dba manufacturing</title><g id="Слой_2" data-name="Слой 2"><g id="Work_space" data-name="Work space"><g id="dba_manufacturing" data-name="dba manufacturing"><path class="cls-1" d="M50,0H0V100H50A50,50,0,0,0,50,0Zm0,80H20V20H50a30,30,0,0,1,0,60Z"/><path class="cls-1" d="M210,30A30,30,0,0,0,180,0H110V100h70a29.991,29.991,0,0,0,22.35-50A29.862,29.862,0,0,0,210,30ZM130,20h50a10,10,0,0,1,0,20H130Zm50,60H130V60h50a10,10,0,0,1,0,20Z"/><path class="cls-1" d="M280.77,1.95,279.99,0H260.01l-.78,1.94L220,100h21.55l11.2-28h34.5l11.2,28H320ZM260.75,52,270,28.87,279.25,52Z"/><path class="cls-2" d="M753.868,83.43q3.127,4.11,6.245,8.215a25,25,0,1,1,0-33.29q-3.12,4.11-6.245,8.215a15,15,0,1,0,0,16.86Z"/><path class="cls-2" d="M353.853,100l14.46-57.86,14.56,56.71.3,1.15h14.91l.03-.11V100h5.12l.29-1.16,14.54-56.59L432.493,100h20.62v-.02L428.5,1.57,428.113,0h-19.86l-.38,1.5L393.2,58.63,378.5,1.39,378.153,0h-15.03l-.01.04V0h-4.87l-.37,1.46L333.233,100Zm19.26-50.99v-.04l.02.04Zm0-47.53.19-.61-.19.64Z"/><polygon class="cls-2" points="373.113 48.97 373.133 49.01 373.113 49.01 373.113 48.97"/><polygon class="cls-2" points="373.113 1.48 373.303 0.87 373.113 1.51 373.113 1.48"/><polygon class="cls-2" points="373.113 1.48 373.303 0.87 373.113 1.51 373.113 1.48"/><path class="cls-2" d="M703.113,50v4.425c-24.105-14.595-49.245,9.56-36.63,33.69a23.615,23.615,0,0,0,8.455,8.48c10.41,5.475,20.85,3.91,28.175-1.6v5h10V50Zm-2.685,34.045a9.741,9.741,0,0,1-3.27,3.27c-14.875,9.05-30.41-6.485-21.36-21.36a9.741,9.741,0,0,1,3.27-3.27c11.815-7.19,24.045,1.13,24.045,12.31A17.372,17.372,0,0,1,700.428,84.047Z"/><path class="cls-2" d="M492.113,50v4.425c-24.105-14.595-49.245,9.56-36.63,33.69a23.615,23.615,0,0,0,8.455,8.48c10.41,5.475,20.85,3.91,28.175-1.6v5h10V50Zm-2.685,34.045a9.741,9.741,0,0,1-3.27,3.27c-14.875,9.05-30.41-6.485-21.36-21.36a9.741,9.741,0,0,1,3.27-3.27c11.815-7.19,24.045,1.13,24.045,12.31A17.372,17.372,0,0,1,489.428,84.047Z"/><rect class="cls-2" x="917.113" y="50" width="10" height="50"/><rect class="cls-2" x="917.113" y="35" width="10" height="10"/><path class="cls-2" d="M984.113,75v25h-10V75a15,15,0,0,0-30,0v25h-10V50h10v5.005a25,25,0,0,1,40,19.995Z"/><path class="cls-2" d="M557.113,75v25h-10V75a15,15,0,0,0-30,0v25h-10V50h10v5.005a25,25,0,0,1,40,19.995Z"/><path class="cls-2" d="M562.113,75V50h10V75a15,15,0,0,0,30,0V50h10v50h-10V95a25,25,0,0,1-40-20Z"/><path class="cls-2" d="M820.113,75V50h10V75a15,15,0,0,0,30,0V50h10v50h-10V95a25,25,0,0,1-40-20Z"/><path class="cls-2" d="M815.113,75a25,25,0,0,1-50,0V30h10V50h15V60h-15V75a15,15,0,0,0,30,0Z"/><path class="cls-2" d="M667.113,55a25,25,0,0,0-50,0v45h10V80h15V70h-15V55a15,15,0,0,1,30,0Z"/><path class="cls-2" d="M912.973,53.565q-2.572,4.29-5.145,8.575A14.995,14.995,0,0,0,885.113,75v25h-10V50h10v5.005a24.979,24.979,0,0,1,27.86-1.44Z"/><path class="cls-2" d="M1029.113,50v5.005a25,25,0,1,0,0,39.99v0a15,15,0,0,1-29.14,5H989.618c.04.215.085.425.135.64v0a25.033,25.033,0,0,0,18.715,18.715h0A25.017,25.017,0,0,0,1039.113,95V50Zm-3.825,35a15,15,0,0,1-26.175-10v0a15,15,0,0,1,30,0v0A14.918,14.918,0,0,1,1025.288,85Z"/></g></g></g></svg>