<svg xmlns="http://www.w3.org/2000/svg" viewBox="0 0 410 180"><defs><style>.cls-1{fill:#121221;}</style></defs><title>ddm</title><g id="Слой_2" data-name="Слой 2"><g id="Work_space" data-name="Work space"><g id="ddm"><path class="cls-1" d="M198.788,0H136.667V180h62.121c34.3,0,62.121-40.3,62.121-90S233.091,0,198.788,0Zm0,144H161.515V36h37.273c20.587,0,37.273,24.174,37.273,54S219.375,144,198.788,144Z"/><path class="cls-1" d="M62.121,0H0V180H62.121c34.3,0,62.121-40.3,62.121-90S96.425,0,62.121,0Zm0,144H24.848V36H62.121c20.587,0,37.273,24.174,37.273,54S82.708,144,62.121,144Z"/><path class="cls-1" d="M286.677,180,304.642,75.852l18.09,102.078.373,2.07h18.524l.038-.2v.2h6.361l.36-2.088L366.453,76.05,384.381,180H410v-.036L379.424,2.826,378.939,0H354.265l-.472,2.7L335.566,105.534,317.3,2.5,316.868,0H298.194l-.012.072V0h-6.051l-.459,2.628L261.058,180Zm23.929-91.782v-.072l.025.072Zm0-85.554.236-1.1-.236,1.152Z"/><polygon class="cls-1" points="310.606 88.146 310.631 88.218 310.606 88.218 310.606 88.146"/><polygon class="cls-1" points="310.606 2.664 310.842 1.566 310.606 2.718 310.606 2.664"/><polygon class="cls-1" points="310.606 2.664 310.842 1.566 310.606 2.718 310.606 2.664"/></g></g></g></svg>