<svg xmlns="http://www.w3.org/2000/svg" viewBox="0 0 650.333 100"><defs><style>.cls-1{fill:#366ce1;}.cls-2{fill:#121221;}</style></defs><title>deal hubo</title><g id="Слой_2" data-name="Слой 2"><g id="Work_space" data-name="Work space"><g id="deal_hubo" data-name="deal hubo"><path class="cls-1" d="M50,0H0V100H50A50,50,0,0,0,50,0Zm0,80H20V20H50a30,30,0,0,1,0,60Z"/><polygon class="cls-2" points="430 0 430 100 410 100 410 60 350 60 350 100 330 100 330 0 350 0 350 40 410 40 410 0 430 0"/><path class="cls-2" d="M617,33.333a33.334,33.334,0,1,0,33.333,33.334A33.337,33.337,0,0,0,617,33.333Zm0,53.334a20,20,0,1,1,20-20A20,20,0,0,1,617,86.667Z"/><path class="cls-1" d="M232.328,39.648C199.99,19.331,165.9,51.76,182.824,84.156A31.582,31.582,0,0,0,194.1,95.462c13.88,7.3,27.8,5.213,37.569-2.135V100H245V62.657A27.163,27.163,0,0,0,232.328,39.648Zm-8.6,43.441C203.9,95.155,183.178,74.438,195.244,54.6a13.072,13.072,0,0,1,4.359-4.359c19.835-12.066,40.552,8.651,28.486,28.486A13.054,13.054,0,0,1,223.73,83.089Z"/><path class="cls-2" d="M578,66.667a33.326,33.326,0,0,0-53.333-26.66V0H511.333V66.667a33.334,33.334,0,0,0,66.667,0Zm-13.333,0a20,20,0,1,1-20-20A20,20,0,0,1,564.667,66.667Z"/><path class="cls-1" d="M170.993,73.333a33.306,33.306,0,0,0,0-13.333,33.333,33.333,0,0,0-65.32,0,33.354,33.354,0,0,0,0,13.333,33.325,33.325,0,0,0,55.114,17.96q-5.31-4.25-10.627-8.5a19.994,19.994,0,0,1-30.68-9.46Zm-32.66-26.666A19.987,19.987,0,0,1,157.187,60H119.48A19.986,19.986,0,0,1,138.333,46.667Z"/><rect class="cls-1" x="251.667" width="13.333" height="100"/><path class="cls-2" d="M504.667,33.333V66.667a33.334,33.334,0,0,1-66.667,0V33.333h13.333V66.667a20,20,0,0,0,40,0V33.333Z"/></g></g></g></svg>