<svg xmlns="http://www.w3.org/2000/svg" viewBox="0 0 510 280"><defs><style>.cls-1{fill:#366ce1;}.cls-2{fill:#fff;}</style></defs><title>dell</title><g id="Complete"><g id="dell"><ellipse class="cls-1" cx="255" cy="140" rx="255" ry="140"/><ellipse class="cls-2" cx="255" cy="140" rx="204" ry="112"/><path class="cls-1" d="M680,515v20H600l-20-20V435h20v70l10,10Z" transform="translate(-245 -360)"/><path class="cls-1" d="M650,545v20H580l-30-30V465h20v60l20,20Z" transform="translate(-245 -360)"/><path class="cls-1" d="M410,450H330V550h80l20-20V470Zm0,70-10,10H350V470h50l10,10Z" transform="translate(-245 -360)"/><path class="cls-1" d="M460,480v10h80v20H460v10l10,10h70v20H460l-20-20V470l20-20h80v20H470Z" transform="translate(-245 -360)"/></g></g></svg>