<svg id="Complete" xmlns="http://www.w3.org/2000/svg" viewBox="0 0 520 300"><defs><style>.cls-1{fill:#366ce1;}</style></defs><title>delphix</title><g id="delphix"><path class="cls-1" d="M360,460H310V560h50a50,50,0,0,0,0-100Zm0,90H320V470h40a40,40,0,0,1,0,80Z" transform="translate(-310 -360)"/><path class="cls-1" d="M540,550v10a50.015,50.015,0,0,1-50-50V360h10V510A40,40,0,0,0,540,550Z" transform="translate(-310 -360)"/><path class="cls-1" d="M450,550v10a50.015,50.015,0,0,0,50-50V360H490V510A40,40,0,0,1,450,550Z" transform="translate(-310 -360)"/><path class="cls-1" d="M590,460H540V660h10V560h40a50,50,0,0,0,0-100Zm0,90H550V470h40a40,40,0,0,1,0,80Z" transform="translate(-310 -360)"/><path class="cls-1" d="M481.6,534.53a40.78,40.78,0,0,1-7.07,7.07,40.017,40.017,0,0,1-49.06,0,.436.436,0,0,0-.11-.09l24.54-24.54.1.1,7.07-7.07-.1-.1,24.54-24.54,7.11-7.11A50.094,50.094,0,0,0,450,460a49.821,49.821,0,0,0-31.64,11.29,49.217,49.217,0,0,0-7.07,7.07,49.967,49.967,0,0,0-.09,63.16l.09.12a49.907,49.907,0,0,0,6.96,6.98c.04.03.07.06.11.09a49.98,49.98,0,0,0,63.28,0,49.217,49.217,0,0,0,7.07-7.07Zm-63.28-.12a39.993,39.993,0,0,1,.08-48.94,40.78,40.78,0,0,1,7.07-7.07,39.993,39.993,0,0,1,48.94-.08.834.834,0,0,0,.12.08L418.4,534.53A.834.834,0,0,0,418.32,534.41Z" transform="translate(-310 -360)"/><polygon class="cls-1" points="520 106.86 476.97 149.9 520 192.93 520 200 512.93 200 469.9 156.97 426.86 200 420 200 420 192.72 462.83 149.9 420 107.07 420 100 427.07 100 469.9 142.83 512.72 100 520 100 520 106.86"/><path class="cls-1" d="M425.005,514.858V515H390.314a.444.444,0,0,0-.014-.142Z" transform="translate(-310 -360)"/><path class="cls-1" d="M730,510v50H720V510a40,40,0,0,0-80,0v50H630V360h10V480.01A50,50,0,0,1,730,510Z" transform="translate(-310 -360)"/><rect class="cls-1" x="410" y="100" width="10" height="100"/><circle class="cls-1" cx="415" cy="85" r="5"/></g></svg>