<svg xmlns="http://www.w3.org/2000/svg" viewBox="0 0 650 310"><defs><style>.cls-1{fill:#121221;}.cls-2{fill:#366ce1;}</style></defs><title>deltek vision</title><g id="Complete"><g id="deltec_vision" data-name="deltec vision"><path class="cls-1" d="M610,600a50,50,0,1,0,50,50A50.005,50.005,0,0,0,610,600Zm0,90a40,40,0,1,1,40-40A40,40,0,0,1,610,690Z" transform="translate(-175 -390)"/><path class="cls-1" d="M410,627.5A17.506,17.506,0,0,0,427.5,645h45a27.5,27.5,0,0,1,7.5,53.95,26.911,26.911,0,0,1-7.5,1.05H400V690h72.5a17.5,17.5,0,0,0,0-35h-45a27.5,27.5,0,0,1-7.5-53.95,26.911,26.911,0,0,1,7.5-1.05H500v10H427.5A17.506,17.506,0,0,0,410,627.5Z" transform="translate(-175 -390)"/><polygon class="cls-1" points="195 220 195 300 215 300 215 310 165 310 165 300 185 300 185 220 165 220 165 210 215 210 215 220 195 220"/><polygon class="cls-1" points="365 220 365 300 385 300 385 310 335 310 335 300 355 300 355 220 335 220 335 210 385 210 385 220 365 220"/><polygon class="cls-1" points="595 210 595 310 585.07 310 585 309.92 505 224.59 505 310 495 310 495 210 505.02 210 585 295.3 585 210 595 210"/><polygon class="cls-1" points="154.99 210 110.47 308.78 109.93 310 100.05 310 99.51 308.8 55 210 65.97 210 104.99 296.62 144.02 210 154.99 210"/><path class="cls-2" d="M224.5,449.693,175,456.716l14.047,99.009,49.5-7.024A50,50,0,1,0,224.5,449.693ZM235.742,528.9l-29.7,4.214-8.428-59.405,29.7-4.214a30,30,0,0,1,8.428,59.4Z" transform="translate(-175 -390)"/><polygon class="cls-2" points="415.543 104.827 422.241 123.673 497.621 96.881 504.319 115.726 428.939 142.518 435.636 161.363 511.017 134.572 517.715 153.417 423.489 186.906 390 92.68 484.226 59.191 490.924 78.036 415.543 104.827"/><polygon class="cls-2" points="158.146 25.838 150.979 44.51 225.668 73.175 218.502 91.847 143.813 63.182 136.647 81.854 211.335 110.519 204.169 129.191 110.809 93.36 146.64 0 240 35.831 232.834 54.503 158.146 25.838"/><polygon class="cls-2" points="355.503 129.154 360 148.641 262.561 171.127 240.075 73.688 259.563 69.191 277.552 147.142 355.503 129.154"/><polygon class="cls-2" points="621.681 143.429 621.678 143.438 593.034 134.97 564.448 88.385 552.899 93.907 544.961 120.758 525.781 115.088 554.132 19.191 573.311 24.861 560.528 68.101 572.077 62.579 621.327 39.056 650 47.533 582.598 79.725 621.681 143.429"/><polygon class="cls-2" points="421.823 25.853 418.995 45.652 379.397 39.995 368.083 119.191 348.284 116.363 359.598 37.167 320 31.51 322.828 11.711 421.823 25.853"/></g></g></svg>