<svg xmlns="http://www.w3.org/2000/svg" viewBox="0 0 460.04 160.06"><title>deris</title><path d="M130.7,110c-1.86-28.34.77-55.16,7.14-78.66A163.333,163.333,0,0,0,109.7.02L109.68,0H39.72L39.7.02A163.333,163.333,0,0,0,11.56,31.34c6.37,23.5,9,50.32,7.14,78.66H0c.5,1.85,1.1,3.71,1.7,5.56,5.76,16.34,16.04,31.43,29.77,44.5,3.01-2.85,6.11-5.56,9.47-8.21a38.451,38.451,0,0,1,3.36-2.61,123.651,123.651,0,0,1,10.72-7.42,169.733,169.733,0,0,1,15.29-8.77.54.54,0,0,0,.35-.15c1.29-.65,2.59-1.29,3.91-1.91,1.32.62,2.62,1.26,3.9,1.91a.544.544,0,0,0,.36.15,170.945,170.945,0,0,1,15.28,8.77,122.137,122.137,0,0,1,10.72,7.42,37.008,37.008,0,0,1,3.36,2.61c3.36,2.65,6.47,5.36,9.47,8.21,13.74-13.07,24.01-28.16,29.77-44.5.6-1.85,1.21-3.71,1.71-5.56Zm-22.15,0H97.97l.27.12c-.51.24-1.02.47-1.55.69-.02-.27-.02-.54-.02-.81h1.3a55.585,55.585,0,0,0-23.14-4.76A55.6,55.6,0,0,0,51.68,110h.78c0,.2,0,.39-.01.59-.35-.15-.7-.31-1.04-.47l.27-.12H40.85a329.774,329.774,0,0,0-1.59-57.37A192.179,192.179,0,0,1,59.49,20.21a59.538,59.538,0,0,0,15.34,1.96,59.025,59.025,0,0,0,15.08-1.9,194.114,194.114,0,0,1,20.23,32.42A329.107,329.107,0,0,0,108.55,110Z"/><rect x="349.7" y="80" width="20" height="80"/><path d="M359.19,69.99c-8.05-.08-14.49-2.29-14.49-4.99,0-1.49,1.96-2.83,5.08-3.75A10,10,0,0,0,359.19,69.99Z"/><path d="M369.62,51.25a10,10,0,0,1-9.41,8.74c-.17.01-.34.01-.51.01s-.34,0-.51-.01a10,10,0,0,1-9.41-8.74,39.988,39.988,0,0,1,19.84,0Z"/><path d="M374.7,65c0,2.7-6.44,4.91-14.49,4.99a10,10,0,0,0,9.41-8.74C372.74,62.17,374.7,63.51,374.7,65Z"/><path d="M349.7,39.99a10.358,10.358,0,0,0,.08,1.25c-3.12.92-5.08,2.26-5.08,3.75A15,15,0,0,1,359.13,30,10.008,10.008,0,0,0,349.7,39.99Z"/><path d="M369.7,48.75a10.358,10.358,0,0,1-.08,1.25,39.988,39.988,0,0,0-19.84,0,10.358,10.358,0,0,1-.08-1.25,10.008,10.008,0,0,1,9.43-9.99c.19-.01.38-.01.57-.01s.38,0,.57.01A10.008,10.008,0,0,1,369.7,48.75Z"/><path d="M374.7,44.99c0-1.49-1.96-2.83-5.08-3.75a10.358,10.358,0,0,0,.08-1.25A10.008,10.008,0,0,0,360.27,30,15,15,0,0,1,374.7,44.99Z"/><path d="M170.41,110v.01H189.7V110Z"/><path d="M239.7,105c0,5.62-2.6,10.82-6.99,15-6.39,6.07-16.56,10-28.01,10a21.82,21.82,0,0,0-5,.57c-5.82,1.37-10,5.08-10,9.43s4.18,8.06,10,9.43c.01,0,.02,0,.02.01a13.6,13.6,0,0,0,4.63.2c8.98-1.1,16.8-4.65,22.06-9.64a22.448,22.448,0,0,1,6.29,10c-6.39,6.07-16.56,10-28,10-19.33,0-35-11.19-35-25,0-5.62,2.6-10.82,6.99-15a35.4,35.4,0,0,1,13.41-7.72c1.54,4.42,7.5,7.72,14.6,7.72s13.06-3.3,14.6-7.72a6.753,6.753,0,0,0,.4-2.28c0-5.52-6.72-10-15-10h-7.24c-11,.24-20.74,4.11-26.93,9.98h-.13c-.01-.05-.03-.1-.04-.15a17.913,17.913,0,0,1-.67-4.85,18.116,18.116,0,0,1,.7-4.99h.01a22.5,22.5,0,0,1,6.59-10.26c6.4-5.92,16.43-9.73,27.71-9.73C224.03,80,239.7,91.19,239.7,105Z"/><path d="M329.7,105.01a18.927,18.927,0,0,1-.7,4.98c-4.72-4.47-11.51-7.79-19.35-9.21.017-.257.033-.513.05-.77V100c0-5.52-6.72-10-15-10s-15,4.48-15,10v42.25c-10.39,3.29-17.96,9.89-19.65,17.75h-.35V71.53a6.7,6.7,0,0,0,2.27-.4c.252.779.624,1.84,1.14,3.07a30.933,30.933,0,0,0,2.94,5.64,26.16,26.16,0,0,0,4.6,5.16,50.218,50.218,0,0,1,9.05-3.19,60.17,60.17,0,0,1,11.94-1.71c.66-.04,1.32-.08,1.99-.09.23-.01.46-.01.7-.01h.37c16.94,0,31.05,8.59,34.29,20.01.05.19.11.38.16.57.08.314.179.737.27,1.24A18.475,18.475,0,0,1,329.7,105.01Z"/><path d="M52.46,110c0,.2,0,.39-.01.59-.35-.15-.7-.31-1.04-.47l.27-.12Z"/><path d="M98.24,110.12c-.51.24-1.02.47-1.55.69-.02-.27-.02-.54-.02-.81h1.3Z"/><path d="M179.25,117.84a24.626,24.626,0,0,1,2.14-1.48C180.65,116.83,179.94,117.32,179.25,117.84Z"/><path d="M181.39,116.36a33.571,33.571,0,0,1,3.05-1.75C183.38,115.16,182.36,115.74,181.39,116.36Z"/><path d="M452.92,90c-.04.03-.08.07-.12.1a.524.524,0,0,0-.11-.1Z"/><path d="M52.46,110c0,.2,0,.39-.01.59-.35-.15-.7-.31-1.04-.47l.27-.12Z"/><path d="M98.24,110.12c-.51.24-1.02.47-1.55.69-.02-.27-.02-.54-.02-.81h1.3Z"/><path d="M452.69,90a.524.524,0,0,1,.11.1c.04-.03.08-.07.12-.1Z"/><path d="M453.05,119.75c-6.39-6.07-16.56-10-28.01-10a21.82,21.82,0,0,1-5-.57c-5.82-1.37-10-5.08-10-9.43,0-4.19,3.86-7.78,9.34-9.26a19.88,19.88,0,0,1,6.79-.55c1.42.11,2.81.25,4.18.46a53.173,53.173,0,0,1,14.9,4.35,36.672,36.672,0,0,0,7.89-4.9.524.524,0,0,0-.11-.1c-6.38-6.08-16.55-10-27.99-10-19.33,0-35,11.19-35,25,0,5.62,2.6,10.82,6.99,15,6.39,6.07,16.56,10,28.01,10a21.82,21.82,0,0,1,5,.57c5.82,1.37,10,5.08,10,9.43,0,2.85-1.79,5.42-4.66,7.24a15,15,0,0,1-10.96,1.85,51.4,51.4,0,0,1-12.31-4.02A36.353,36.353,0,0,1,404.5,140a22.213,22.213,0,0,0-7.2,10c6.4,5.93,16.45,9.75,27.74,9.75,19.33,0,35-11.19,35-25C460.04,129.13,457.44,123.93,453.05,119.75ZM452.92,90c-.04.03-.08.07-.12.1a.524.524,0,0,0-.11-.1Zm-27.88,34.75c-1.23,0-2.45-.04-3.64-.1a55.631,55.631,0,0,0,20.42-4.9,49.229,49.229,0,0,0-7.1-2.66,48.3,48.3,0,0,1-18.71,7.01,56.134,56.134,0,0,1-8.36-1.84,48.567,48.567,0,0,1-6.6-2.51,56.991,56.991,0,0,1,23.99-5c1.42,0,2.83.05,4.21.15h.03c.48.03.96.07,1.44.11A56.589,56.589,0,0,0,407.71,120a48.567,48.567,0,0,0,6.6,2.51,49.387,49.387,0,0,1,19.77-7.12,57.333,57.333,0,0,1,7.85,1.7,49.229,49.229,0,0,1,7.1,2.66A56.991,56.991,0,0,1,425.04,124.75Z"/></svg>