<svg xmlns="http://www.w3.org/2000/svg" viewBox="0 0 1200 100"><defs><style>.cls-1{fill:#121221;}</style></defs><title>differlabs</title><g id="Слой_2" data-name="Слой 2"><g id="Work_space" data-name="Work space"><g id="differlabs"><polygon class="cls-1" points="200 20 200 40 260 40 260 60 200 60 200 100 180 100 180 0 280 0 280 20 200 20"/><polygon class="cls-1" points="310 20 310 40 370 40 370 60 310 60 310 100 290 100 290 0 390 0 390 20 310 20"/><polygon class="cls-1" points="150 20 150 80 170 80 170 100 110 100 110 80 130 80 130 20 110 20 110 0 170 0 170 20 150 20"/><path class="cls-1" d="M50,0H0V100H50A50,50,0,0,0,50,0Zm0,80H20V20H50a30,30,0,0,1,0,60Z"/><path class="cls-1" d="M1120,30a10,10,0,0,0,10,10h40a30,30,0,0,1,0,60h-70V80h70a10,10,0,0,0,0-20h-40a30,30,0,0,1,0-60h70V20h-70A10,10,0,0,0,1120,30Z"/><polygon class="cls-1" points="530 20 530 40 610 40 610 60 530 60 530 80 610 80 610 100 510 100 510 0 610 0 610 20 530 20"/><polygon class="cls-1" points="870 80 870 100 770 100 770 0 790 0 790 80 870 80"/><polygon class="cls-1" points="500 80 500 100 400 100 400 0 420 0 420 80 500 80"/><path class="cls-1" d="M720,30A30,30,0,0,0,690,0H620V100h20V60h50a10,10,0,0,1,10,10v30h20V70a29.862,29.862,0,0,0-7.65-20A29.862,29.862,0,0,0,720,30ZM640,40V20h50a10,10,0,0,1,0,20Z"/><path class="cls-1" d="M1090,30a30,30,0,0,0-30-30H990V100h70a29.991,29.991,0,0,0,22.35-50A29.862,29.862,0,0,0,1090,30Zm-80-10h50a10,10,0,0,1,0,20h-50Zm50,60h-50V60h50a10,10,0,0,1,0,20Z"/><path class="cls-1" d="M940.77,1.95,939.99,0H920.01l-.78,1.94L880,100h21.55l11.2-28h34.5l11.2,28H980ZM920.75,52,930,28.87,939.25,52Z"/></g></g></g></svg>