<svg id="Main" xmlns="http://www.w3.org/2000/svg" viewBox="0 0 550 180"><defs><style>.cls-1{fill:#121221;}.cls-2{fill:#366ce1;}</style></defs><title>dns</title><g id="DNS"><path class="cls-1" d="M350,600H300V550A50.005,50.005,0,0,0,350,600Z" transform="translate(-230 -460)"/><path class="cls-1" d="M350,500a50.005,50.005,0,0,0-50,50V500Z" transform="translate(-230 -460)"/><path class="cls-2" d="M350,500a50,50,0,1,0,50,50A50.005,50.005,0,0,0,350,500Zm0,80H320V520h30a30,30,0,0,1,0,60Z" transform="translate(-230 -460)"/><rect class="cls-1" x="170" y="40" width="20" height="100"/><rect class="cls-2" x="250" y="40" width="20" height="100"/><polygon class="cls-2" points="270 120 270 140 170 40 190 40 270 120"/><polygon class="cls-1" points="170 60 170 40 270 140 250 140 170 60"/><rect class="cls-2" y="80" width="110" height="20"/><circle class="cls-1" cx="110" cy="90" r="10"/><circle class="cls-1" cx="260" cy="40" r="10"/><circle class="cls-1" cx="180" cy="40" r="10"/><circle class="cls-2" cx="180" cy="140" r="10"/><rect class="cls-2" x="310" width="20" height="180"/><rect class="cls-2" x="310" width="110" height="20"/><rect class="cls-2" x="310" y="160" width="110" height="20"/><rect class="cls-2" x="400" width="20" height="180"/><rect class="cls-2" x="420" y="80" width="20" height="20"/><rect class="cls-2" x="430" y="100" width="10" height="40"/><rect class="cls-2" x="430" y="40" width="10" height="40"/><rect class="cls-2" x="440" y="40" width="90" height="10"/><rect class="cls-2" x="450" y="40" width="10" height="80"/><rect class="cls-2" x="470" y="40" width="10" height="60"/><rect class="cls-2" x="490" y="50" width="10" height="30"/><rect class="cls-2" x="510" y="50" width="10" height="10"/><rect class="cls-2" x="430" y="80" width="60" height="10"/><rect class="cls-2" x="430" y="60" width="80" height="10"/><rect class="cls-2" x="430" y="100" width="40" height="10"/><rect class="cls-2" x="430" y="120" width="20" height="10"/><rect class="cls-2" x="770" y="500" width="10" height="50" transform="translate(1320 590) rotate(180)"/><rect class="cls-2" x="770" y="560" width="10" height="40" transform="translate(1320 700) rotate(180)"/><rect class="cls-2" x="680" y="590" width="90" height="10" transform="translate(1220 730) rotate(180)"/><rect class="cls-2" x="750" y="520" width="10" height="80" transform="translate(1280 660) rotate(180)"/><rect class="cls-2" x="730" y="540" width="10" height="60" transform="translate(1240 680) rotate(180)"/><rect class="cls-2" x="710" y="560" width="10" height="30" transform="translate(1200 690) rotate(180)"/><rect class="cls-2" x="690" y="580" width="10" height="10" transform="translate(1160 710) rotate(180)"/><rect class="cls-2" x="720" y="550" width="60" height="10" transform="translate(1270 650) rotate(180)"/><rect class="cls-2" x="700" y="570" width="80" height="10" transform="translate(1250 690) rotate(180)"/><rect class="cls-2" x="740" y="530" width="40" height="10" transform="translate(1290 610) rotate(180)"/><rect class="cls-2" x="760" y="510" width="20" height="10" transform="translate(1310 570) rotate(180)"/><circle class="cls-1" cx="495" cy="125" r="5"/><circle class="cls-1" cx="465" cy="75" r="5"/><circle class="cls-1" cx="515" cy="85" r="5"/><circle class="cls-1" cx="475" cy="105" r="5"/><circle class="cls-2" cx="515" cy="65" r="5"/><circle class="cls-1" cx="455" cy="125" r="5"/><circle class="cls-2" cx="465" cy="95" r="5"/><circle class="cls-1" cx="445" cy="95" r="5"/><circle class="cls-1" cx="485" cy="75" r="5"/><circle class="cls-1" cx="495" cy="105" r="5"/><circle class="cls-2" cx="535" cy="85" r="5"/><circle class="cls-2" cx="495" cy="85" r="5"/><circle class="cls-1" cx="535" cy="65" r="5"/><circle class="cls-1" cx="535" cy="125" r="5"/><circle class="cls-1" cx="485" cy="55" r="5"/><circle class="cls-2" cx="445" cy="115" r="5"/><circle class="cls-1" cx="445" cy="55" r="5"/><path class="cls-1" d="M600,530H580c0-5.52-13.43-10-30-10s-30,4.48-30,10,13.43,10,30,10c-14.8,0-28.1,3.86-37.25,10-7.93-5.3-12.75-12.32-12.75-20,0-16.57,22.39-30,50-30S600,513.43,600,530Z" transform="translate(-230 -460)"/><ellipse class="cls-2" cx="320" cy="90" rx="37.25" ry="10"/><path class="cls-1" d="M600,570c0,16.57-22.39,30-50,30s-50-13.43-50-30h20c0,5.52,13.43,10,30,10s30-4.48,30-10-13.43-10-30-10c14.8,0,28.1-3.86,37.25-10C595.18,555.3,600,562.32,600,570Z" transform="translate(-230 -460)"/><circle class="cls-2" cx="280" cy="110" r="10"/><circle class="cls-2" cx="360" cy="70" r="10"/><circle class="cls-1" cx="320" cy="90" r="10"/><rect class="cls-2" x="310" y="110" width="20" height="40"/><path class="cls-2" d="M560,550a10,10,0,0,0-20,0V530h20Z" transform="translate(-230 -460)"/></g></svg>