<svg xmlns="http://www.w3.org/2000/svg" viewBox="0 0 550 100"><defs><style>.cls-1{fill:#366ce1;}.cls-2{fill:#121221;}</style></defs><title>doc ai</title><g id="Слой_2" data-name="Слой 2"><g id="Work_space" data-name="Work space"><g id="doc_ai" data-name="doc ai"><polygon class="cls-1" points="530 20 530 80 550 80 550 100 490 100 490 80 510 80 510 20 490 20 490 0 550 0 550 20 530 20"/><path class="cls-2" d="M50,0H0V100H50A50,50,0,0,0,50,0Zm0,80H20V20H50a30,30,0,0,1,0,60Z"/><path class="cls-2" d="M160,0a50,50,0,1,0,50,50A50.005,50.005,0,0,0,160,0Zm0,80a30,30,0,1,1,30-30A30,30,0,0,1,160,80Z"/><path class="cls-2" d="M298.28,60h20.71a50,50,0,1,1,0-20H298.28a30,30,0,1,0,0,20Z"/><path class="cls-1" d="M440.77,1.95,439.99,0H420.01l-.78,1.94L380,100h21.55l11.2-28h34.5l11.2,28H480ZM420.75,52,430,28.87,439.25,52Z"/></g></g></g></svg>