<svg xmlns="http://www.w3.org/2000/svg" viewBox="0 0 540 410"><defs><style>.cls-1{fill:#366ce1;}.cls-2{fill:#121221;}</style></defs><title>docuphase</title><g id="Complete"><g id="docuphase"><path class="cls-1" d="M549.75,545a50,50,0,0,0-99.5,0,48.521,48.521,0,0,0-.25,5v50h10V555h80v45h10V550A48.521,48.521,0,0,0,549.75,545Zm-89.44,0a40,40,0,0,1,79.38,0Z" transform="translate(-230 -190)"/><path class="cls-1" d="M769.75,545A50,50,0,0,0,725,500.25a50.125,50.125,0,0,0-10,0A50,50,0,0,0,670.25,545H670v5a48.521,48.521,0,0,0,.25,5A50,50,0,0,0,715,599.75a50.125,50.125,0,0,0,10,0V589.69a40.478,40.478,0,0,1-10,0A40.034,40.034,0,0,1,680.31,555h89.44a50.125,50.125,0,0,0,0-10Zm-89.44,0A40.034,40.034,0,0,1,715,510.31a40.478,40.478,0,0,1,10,0A40.034,40.034,0,0,1,759.69,545Z" transform="translate(-230 -190)"/><polygon class="cls-1" points="210 310 210 410 200 410 200 365 120 365 120 410 110 410 110 310 120 310 120 355 200 355 200 310 210 310"/><path class="cls-1" d="M323.72,510a27.442,27.442,0,0,0-21.22-10H230V600h10V555h62.5a27.506,27.506,0,0,0,21.22-45ZM240,545V510h62.5a17.5,17.5,0,0,1,0,35Z" transform="translate(-230 -190)"/><path class="cls-1" d="M570,527.5A17.506,17.506,0,0,0,587.5,545h45a27.5,27.5,0,1,1,0,55H560V590h72.5a17.5,17.5,0,0,0,0-35h-45a27.5,27.5,0,1,1,0-55H660v10H587.5A17.506,17.506,0,0,0,570,527.5Z" transform="translate(-230 -190)"/><path class="cls-1" d="M350,190H300V290h50a50,50,0,0,0,0-100Zm0,80H320V210h30a30,30,0,0,1,0,60Z" transform="translate(-230 -190)"/><path class="cls-1" d="M450,190a50,50,0,1,0,50,50A50.005,50.005,0,0,0,450,190Zm0,80a30,30,0,1,1,30-30A30,30,0,0,1,450,270Z" transform="translate(-230 -190)"/><path class="cls-1" d="M578.28,250h20.71a50,50,0,1,1,0-20H578.28a30,30,0,1,0,0,20Z" transform="translate(-230 -190)"/><path class="cls-1" d="M700,190v50a50,50,0,0,1-100,0V190h20v50a30,30,0,0,0,60,0V190Z" transform="translate(-230 -190)"/><path class="cls-1" d="M460,390a50,50,0,1,0,50,50V390Zm40,50a40,40,0,1,1-40-40h40Z" transform="translate(-230 -190)"/><path class="cls-1" d="M550,400a50,50,0,1,0-50-50v50Zm-40-50a40,40,0,1,1,40,40H510Z" transform="translate(-230 -190)"/><path class="cls-2" d="M510,390V300H410V400h90v90H600V390Zm-90,0V310h80v80Zm170,90H510V400h80Z" transform="translate(-230 -190)"/></g></g></svg>