<svg xmlns="http://www.w3.org/2000/svg" viewBox="0 0 792.104 225.395"><defs><style>.cls-1{fill:#121221;}.cls-2{fill:#366ce1;}</style></defs><title>Dolphia</title><g id="Слой_2" data-name="Слой 2"><g id="Work_space" data-name="Work space"><g id="Dolphia"><polygon class="cls-1" points="350 85.395 350 105.395 410 105.395 410 125.395 350 125.395 350 165.395 330 165.395 330 65.395 430 65.395 430 85.395 350 85.395"/><path class="cls-1" d="M50,65.4H0v100H50a50,50,0,0,0,0-100Zm0,80H20v-60H50a30,30,0,0,1,0,60Z"/><polygon class="cls-1" points="320 145.395 320 165.395 220 165.395 220 65.395 240 65.395 240 145.395 320 145.395"/><path class="cls-1" d="M160,65.4a50,50,0,1,0,50,50A50.005,50.005,0,0,0,160,65.4Zm0,80a30,30,0,1,1,30-30A30,30,0,0,1,160,145.4Z"/><path class="cls-1" d="M590.77,67.345l-.78-1.95H570.01l-.78,1.94L530,165.4h21.55l11.2-28h34.5l11.2,28H630ZM570.75,117.4,580,94.265l9.25,23.13Z"/><polygon class="cls-1" points="490 85.395 490 145.395 520 145.395 520 165.395 440 165.395 440 145.395 470 145.395 470 85.395 440 85.395 440 65.395 520 65.395 520 85.395 490 85.395"/><path class="cls-2" d="M792.092,101.606a99.723,99.723,0,0,1-32.938,72.584,99.83,99.83,0,0,0,2.941-22.844c.721-54.636-43.225-100.184-97.854-101.324A99.582,99.582,0,0,0,607.677,66.1a4.949,4.949,0,0,1-7.244-6.108A100.014,100.014,0,0,1,693.818.014C748.716.933,792.956,46.707,792.092,101.606Z"/><path class="cls-2" d="M792,194.016a47.113,47.113,0,0,1-8.162,29.958,3.245,3.245,0,0,1-5.921-1.935,50.716,50.716,0,0,0-2.026-15.287,45.564,45.564,0,0,0-30.369-30.859,47.975,47.975,0,0,0-38.092,3.837,3.244,3.244,0,0,1-4.511-4.291A47.268,47.268,0,0,1,792,194.016Z"/><path class="cls-2" d="M733.8.108A47.125,47.125,0,0,1,764.162,8.55a3.1,3.1,0,0,1-1.848,5.656q-1.179-.04-2.372-.023A47.273,47.273,0,0,0,719.756,85.1a3.1,3.1,0,0,1-4.1,4.311A47.268,47.268,0,0,1,733.8.108Z"/></g></g></g></svg>