<svg xmlns="http://www.w3.org/2000/svg" viewBox="0 0 540 320"><defs><style>.cls-1{fill:#366ce1;}</style></defs><title>donor_tools</title><g id="Complete"><g id="donortools"><path class="cls-1" d="M450,420a50,50,0,1,0,50,50V420Zm40,50a40,40,0,1,1-40-40h40Z" transform="translate(-235 -310)"/><path class="cls-1" d="M560,410a50,50,0,1,0-50-50v50Zm-40-50a40,40,0,1,1,40,40H520Z" transform="translate(-235 -310)"/><path class="cls-1" d="M500,360a50,50,0,1,0-50,50h50Zm-50,40a40,40,0,1,1,40-40v40Z" transform="translate(-235 -310)"/><path class="cls-1" d="M510,470a50,50,0,1,0,50-50H510Zm50-40a40,40,0,1,1-40,40V430Z" transform="translate(-235 -310)"/><path class="cls-1" d="M235,580a50,50,0,1,0,50-50H235Zm50-40a40,40,0,1,1-40,40V540Z" transform="translate(-235 -310)"/><path class="cls-1" d="M395,530a50,50,0,1,0,50,50A50.005,50.005,0,0,0,395,530Zm0,90a40,40,0,1,1,40-40A40,40,0,0,1,395,620Z" transform="translate(-235 -310)"/><path class="cls-1" d="M615,530a50,50,0,1,0,50,50A50.005,50.005,0,0,0,615,530Zm0,90a40,40,0,1,1,40-40A40,40,0,0,1,615,620Z" transform="translate(-235 -310)"/><path class="cls-1" d="M555,580v50H545V580a40,40,0,0,0-40-40H465v90H455V530h50A50.005,50.005,0,0,1,555,580Z" transform="translate(-235 -310)"/><path class="cls-1" d="M775,530v10H725a40,40,0,0,0-40,40v50H675V580a50.005,50.005,0,0,1,50-50Z" transform="translate(-235 -310)"/></g></g></svg>