<svg xmlns="http://www.w3.org/2000/svg" viewBox="0 0 1118.48 226.28"><defs><style>.cls-1{fill:#121221;}.cls-2{fill:#366ce1;}</style></defs><title>drawbase software</title><g id="Слой_2" data-name="Слой 2"><g id="Complete"><g id="drawbase_software" data-name="drawbase software"><polygon class="cls-1" points="55.61 168.75 30.46 168.75 39.66 152.8 55.61 168.75"/><polygon class="cls-1" points="195.82 168.75 170.67 168.75 186.62 152.8 195.82 168.75"/><path class="cls-2" d="M113.14,0,0,113.14,39.66,152.8l15.95,15.95,57.53,57.53,57.53-57.53,15.95-15.95,39.66-39.66Zm57.95,125.9-42.85,42.85-15.1,15.1-15.1-15.1L55.19,125.9,42.43,113.14,90.06,65.51l23.08-39.98,23.08,39.98,47.63,47.63Z"/><polygon class="cls-1" points="171.09 125.9 128.24 168.75 98.04 168.75 55.19 125.9 90.06 65.51 113.14 25.53 136.22 65.51 171.09 125.9"/><polygon class="cls-2" points="488.48 143.14 488.48 163.14 548.48 163.14 548.48 183.14 488.48 183.14 488.48 223.14 468.48 223.14 468.48 123.14 568.48 123.14 568.48 143.14 488.48 143.14"/><path class="cls-1" d="M298.48,3.14h-50v100h50a50,50,0,0,0,0-100Zm0,80h-30v-60h30a30,30,0,0,1,0,60Z"/><path class="cls-2" d="M268.48,153.14a10,10,0,0,0,10,10h40a30,30,0,0,1,0,60h-70v-20h70a10,10,0,0,0,0-20h-40a30,30,0,0,1,0-60h70v20h-70A10,10,0,0,0,268.48,153.14Z"/><path class="cls-1" d="M928.48,33.14a10,10,0,0,0,10,10h40a30,30,0,0,1,0,60h-70v-20h70a10,10,0,0,0,0-20h-40a30,30,0,0,1,0-60h70v20h-70A10,10,0,0,0,928.48,33.14Z"/><polygon class="cls-1" points="1038.48 23.14 1038.48 43.14 1118.48 43.14 1118.48 63.14 1038.48 63.14 1038.48 83.14 1118.48 83.14 1118.48 103.14 1018.48 103.14 1018.48 3.14 1118.48 3.14 1118.48 23.14 1038.48 23.14"/><polygon class="cls-2" points="1038.48 143.14 1038.48 163.14 1118.48 163.14 1118.48 183.14 1038.48 183.14 1038.48 203.14 1118.48 203.14 1118.48 223.14 1018.48 223.14 1018.48 123.14 1118.48 123.14 1118.48 143.14 1038.48 143.14"/><path class="cls-2" d="M1008.48,153.14a30,30,0,0,0-30-30h-70v100h20v-40h50a10,10,0,0,1,10,10v30h20v-30a29.862,29.862,0,0,0-7.65-20A29.862,29.862,0,0,0,1008.48,153.14Zm-80,10v-20h50a10,10,0,0,1,0,20Z"/><path class="cls-1" d="M458.48,33.14a30,30,0,0,0-30-30h-70v100h20v-40h50a10,10,0,0,1,10,10v30h20v-30a29.862,29.862,0,0,0-7.65-20A29.862,29.862,0,0,0,458.48,33.14Zm-80,10v-20h50a10,10,0,0,1,0,20Z"/><path class="cls-1" d="M788.48,33.14a30,30,0,0,0-30-30h-70v100h70a29.991,29.991,0,0,0,22.35-50A29.862,29.862,0,0,0,788.48,33.14Zm-80-10h50a10,10,0,0,1,0,20h-50Zm50,60h-50v-20h50a10,10,0,0,1,0,20Z"/><path class="cls-2" d="M408.48,123.14a50,50,0,1,0,50,50A50.005,50.005,0,0,0,408.48,123.14Zm0,80a30,30,0,1,1,30-30A30,30,0,0,1,408.48,203.14Z"/><path class="cls-2" d="M859.25,125.09l-.78-1.95H838.49l-.78,1.94-39.23,98.06h21.55l11.2-28h34.5l11.2,28h21.55Zm-20.02,50.05,9.25-23.13,9.25,23.13Z"/><path class="cls-1" d="M859.25,5.09l-.78-1.95H838.49l-.78,1.94-39.23,98.06h21.55l11.2-28h34.5l11.2,28h21.55ZM839.23,55.14l9.25-23.13,9.25,23.13Z"/><path class="cls-1" d="M529.25,5.09l-.78-1.95H508.49l-.78,1.94-39.23,98.06h21.55l11.2-28h34.5l11.2,28h21.55ZM509.23,55.14l9.25-23.13,9.25,23.13Z"/><path class="cls-2" d="M787.74,123.14,773.28,181l-14.56-56.71-.3-1.15H743.51l-.03.11v-.11h-5.12l-.29,1.16-14.54,56.59L709.1,123.14H688.48v.02l24.61,98.41.39,1.57h19.86l.38-1.5,14.67-57.13,14.7,57.24.35,1.39h15.03l.01-.04v.04h4.87l.37-1.46,24.64-98.54Zm-19.26,50.99v.04l-.02-.04Zm0,47.53-.19.61.19-.64Z"/><polygon class="cls-2" points="768.48 174.17 768.46 174.13 768.48 174.13 768.48 174.17"/><polygon class="cls-2" points="768.48 221.66 768.29 222.27 768.48 221.63 768.48 221.66"/><polygon class="cls-2" points="768.48 221.66 768.29 222.27 768.48 221.63 768.48 221.66"/><path class="cls-1" d="M657.86,3.14,643.4,61,628.84,4.29l-.3-1.15H613.63l-.03.11V3.14h-5.12l-.29,1.16L593.65,60.89,579.22,3.14H558.6v.02l24.61,98.41.39,1.57h19.86l.38-1.5,14.67-57.13,14.7,57.24.35,1.39h15.03l.01-.04v.04h4.87l.37-1.46L678.48,3.14ZM638.6,54.13v.04l-.02-.04Zm0,47.53-.19.61.19-.64Z"/><polygon class="cls-1" points="638.6 54.17 638.58 54.13 638.6 54.13 638.6 54.17"/><polygon class="cls-1" points="638.6 101.66 638.41 102.27 638.6 101.63 638.6 101.66"/><polygon class="cls-1" points="638.6 101.66 638.41 102.27 638.6 101.63 638.6 101.66"/><polygon class="cls-2" points="678.48 123.14 678.48 143.14 638.48 143.14 638.48 223.14 618.48 223.14 618.48 143.14 578.48 143.14 578.48 123.14 678.48 123.14"/></g></g></g></svg>