<svg xmlns="http://www.w3.org/2000/svg" viewBox="0 0 850 100"><defs><style>.cls-1{fill:#121221;}.cls-2{fill:#366ce1;}</style></defs><title>drawchat</title><g id="Слой_2" data-name="Слой 2"><g id="Work_space" data-name="Work space"><g id="drawchat"><path class="cls-1" d="M50,0H0V100H50A50,50,0,0,0,50,0Zm0,80H20V20H50a30,30,0,0,1,0,60Z"/><polygon class="cls-2" points="650 0 650 100 630 100 630 60 570 60 570 100 550 100 550 0 570 0 570 40 630 40 630 0 650 0"/><path class="cls-1" d="M210,30A30,30,0,0,0,180,0H110V100h20V60h50a10,10,0,0,1,10,10v30h20V70a29.862,29.862,0,0,0-7.65-20A29.862,29.862,0,0,0,210,30ZM130,40V20h50a10,10,0,0,1,0,20Z"/><path class="cls-2" d="M518.28,60h20.71a50,50,0,1,1,0-20H518.28a30,30,0,1,0,0,20Z"/><path class="cls-2" d="M720.77,1.95,719.99,0H700.01l-.78,1.94L660,100h21.55l11.2-28h34.5l11.2,28H760ZM700.75,52,710,28.87,719.25,52Z"/><path class="cls-1" d="M280.77,1.95,279.99,0H260.01l-.78,1.94L220,100h21.55l11.2-28h34.5l11.2,28H320ZM260.75,52,270,28.87,279.25,52Z"/><polygon class="cls-2" points="850 0 850 20 810 20 810 100 790 100 790 20 750 20 750 0 850 0"/><path class="cls-1" d="M419.38,0,404.92,57.86,390.36,1.15,390.06,0H375.15l-.03.11V0H370l-.29,1.16L355.17,57.75,340.74,0H320.12V.02l24.61,98.41.39,1.57h19.86l.38-1.5,14.67-57.13,14.7,57.24.35,1.39h15.03l.01-.04V100h4.87l.37-1.46L440,0ZM400.12,50.99v.04l-.02-.04Zm0,47.53-.19.61.19-.64Z"/><polygon class="cls-1" points="400.12 51.03 400.1 50.99 400.12 50.99 400.12 51.03"/><polygon class="cls-1" points="400.12 98.52 399.93 99.13 400.12 98.49 400.12 98.52"/><polygon class="cls-1" points="400.12 98.52 399.93 99.13 400.12 98.49 400.12 98.52"/></g></g></g></svg>