<svg xmlns="http://www.w3.org/2000/svg" viewBox="0 0 640.689 331.421"><defs><style>.cls-1{fill:#121221;}.cls-2{fill:#366ce1;}.cls-3{fill:#1c1e20;}</style></defs><title>dropbox_paper</title><g id="complete"><g id="dropbox_Paper" data-name="dropbox Paper"><rect class="cls-1" x="221.077" y="424.289" width="200" height="200" transform="translate(-456.343 46.307) rotate(-45)"/><rect class="cls-2" x="221.077" y="375.711" width="200" height="200" transform="translate(-421.993 32.079) rotate(-45)"/><path class="cls-3" d="M690.344,490a40,40,0,0,0-40,40v20a40.007,40.007,0,0,0,56.461,36.46L690.344,570a19.994,19.994,0,0,1-20-20h60V530A40,40,0,0,0,690.344,490Zm-20,40a20,20,0,0,1,40,0Z" transform="translate(-179.656 -334.289)"/><path class="cls-3" d="M570.344,590a40,40,0,0,0,40-40V530a40.007,40.007,0,0,0-56.46-36.46L570.344,510a19.994,19.994,0,0,1,20,20h-60v20A40,40,0,0,0,570.344,590Zm20-40a20,20,0,0,1-40,0Z" transform="translate(-179.656 -334.289)"/><path class="cls-3" d="M561.077,410h-60V590h20V490h40a40,40,0,0,0,0-80Zm0,60h-40V430h40a20,20,0,0,1,0,40Z" transform="translate(-179.656 -334.289)"/><path class="cls-3" d="M680.344,410h-60V590h20V490h40a40,40,0,0,0,0-80Zm0,60h-40V430h40a20,20,0,0,1,0,40Z" transform="translate(-179.656 -334.289)"/><path class="cls-3" d="M820.344,530h-20a20,20,0,0,0-40,0v60h-20V490h20v5.35a40.012,40.012,0,0,1,60,34.65Z" transform="translate(-179.656 -334.289)"/></g></g></svg>