<svg xmlns="http://www.w3.org/2000/svg" viewBox="0 0 760 320"><defs><style>.cls-1{fill:#121221;}.cls-2{fill:#366ce1;}.cls-3{fill:#1c1e20;}</style></defs><title>dynamic yeld sales</title><g id="Слой_2" data-name="Слой 2"><g id="Work_space" data-name="Work space"><g id="dynamic_yeld_sales" data-name="dynamic yeld sales"><path class="cls-1" d="M130,250a10,10,0,0,0,10,10h40a30,30,0,0,1,0,60H110V300h70a10,10,0,0,0,0-20H140a30,30,0,0,1,0-60h70v20H140A10,10,0,0,0,130,250Z"/><path class="cls-1" d="M570,250a10,10,0,0,0,10,10h40a30,30,0,0,1,0,60H550V300h70a10,10,0,0,0,0-20H580a30,30,0,0,1,0-60h70v20H580A10,10,0,0,0,570,250Z"/><polygon class="cls-2" points="460 240 460 260 540 260 540 280 460 280 460 300 540 300 540 320 440 320 440 220 540 220 540 240 460 240"/><polygon class="cls-1" points="430 300 430 320 330 320 330 220 350 220 350 300 430 300"/><path class="cls-2" d="M280.77,221.95l-.78-1.95H260.01l-.78,1.94L220,320h21.55l11.2-28h34.5l11.2,28H320ZM260.75,272,270,248.87,279.25,272Z"/><polygon class="cls-3" points="320 0 320 100 300 100 240 30.59 240 100 220 100 220 0 240 0 300 69.41 300 0 320 0"/><path class="cls-1" d="M50,0H0V100H50A50,50,0,0,0,50,0Zm0,80H20V20H50a30,30,0,0,1,0,60Z"/><polygon class="cls-3" points="540 0 540 100 520 100 520 30.59 503.2 50.05 489.99 65.36 476.78 50.05 460 30.62 460 100 440 100 440 0 460 0 460 0.01 489.99 34.75 519.98 0 540 0"/><polygon class="cls-2" points="172.83 46.46 170 50 170.05 50 170.05 100 150.05 100 150.05 50 147.22 46.46 110.05 0 135.66 0 160.02 30.45 184.38 0 210 0 172.83 46.46"/><path class="cls-3" d="M739.29,60H760a50,50,0,1,1,0-20H739.29a30,30,0,1,0,0,20Z"/><path class="cls-2" d="M390.77,1.95,389.99,0H370.01l-.78,1.94L330,100h21.55l11.2-28h34.5l11.2,28H430ZM370.75,52,380,28.87,389.25,52Z"/><polygon class="cls-2" points="610 20 610 80 650 80 650 100 550 100 550 80 590 80 590 20 550 20 550 0 650 0 650 20 610 20"/><path class="cls-1" d="M599.975,110h-50V210h50a50,50,0,0,0,0-100Zm0,80h-30V130h30a30,30,0,0,1,0,60Z"/><polygon class="cls-2" points="349.975 130 349.975 150 429.975 150 429.975 170 349.975 170 349.975 190 429.975 190 429.975 210 329.975 210 329.975 110 429.975 110 429.975 130 349.975 130"/><polygon class="cls-1" points="539.975 190 539.975 210 439.975 210 439.975 110 459.975 110 459.975 190 539.975 190"/><polygon class="cls-2" points="279.975 130 279.975 190 319.975 190 319.975 210 219.975 210 219.975 190 259.975 190 259.975 130 219.975 130 219.975 110 319.975 110 319.975 130 279.975 130"/><polygon class="cls-2" points="172.805 156.46 169.975 160 170.025 160 170.025 210 150.025 210 150.025 160 147.195 156.46 110.025 110 135.635 110 159.995 140.45 184.355 110 209.975 110 172.805 156.46"/></g></g></g></svg>