<svg xmlns="http://www.w3.org/2000/svg" viewBox="0 0 910 100"><defs><style>.cls-1{fill:#121221;}.cls-2{fill:#366ce1;}</style></defs><title>e spatial</title><g id="Слой_2" data-name="Слой 2"><g id="Work_space" data-name="Work space"><g id="e_spatial" data-name="e spatial"><path class="cls-1" d="M230,30a10,10,0,0,0,10,10h40a30,30,0,0,1,0,60H210V80h70a10,10,0,0,0,0-20H240a30,30,0,0,1,0-60h70V20H240A10,10,0,0,0,230,30Z"/><rect class="cls-2" y="80" width="100" height="20"/><rect class="cls-2" y="40" width="100" height="20"/><rect class="cls-2" width="100" height="20"/><polygon class="cls-1" points="910 80 910 100 810 100 810 0 830 0 830 80 910 80"/><path class="cls-1" d="M460.77,1.95,459.99,0H440.01l-.78,1.94L400,100h21.55l11.2-28h34.5l11.2,28H500ZM440.75,52,450,28.87,459.25,52Z"/><path class="cls-1" d="M760.77,1.95,759.99,0H740.01l-.78,1.94L700,100h21.55l11.2-28h34.5l11.2,28H800ZM740.75,52,750,28.87,759.25,52Z"/><polygon class="cls-1" points="650 20 650 80 690 80 690 100 590 100 590 80 630 80 630 20 590 20 590 0 690 0 690 20 650 20"/><path class="cls-1" d="M390,0H320V100h20V60h50a30,30,0,0,0,0-60Zm0,40H340V20h50a10,10,0,0,1,0,20Z"/><polygon class="cls-1" points="580 0 580 20 540 20 540 100 520 100 520 20 480 20 480 0 580 0"/></g></g></g></svg>