<svg xmlns="http://www.w3.org/2000/svg" viewBox="0 0 701.317 200"><defs><style>.cls-1{fill:#121221;}.cls-2{fill:#366ce1;}</style></defs><title>earth</title><g id="Слой_2" data-name="Слой 2"><g id="Work_space" data-name="Work space"><g id="earth"><polygon class="cls-1" points="540 50 540 150 520 150 520 110 460 110 460 150 440 150 440 50 460 50 460 90 520 90 520 50 540 50"/><polygon class="cls-1" points="20 70 20 90 100 90 100 110 20 110 20 130 100 130 100 150 0 150 0 50 100 50 100 70 20 70"/><path class="cls-1" d="M320,80a30,30,0,0,0-30-30H220V150h20V110h50a10,10,0,0,1,10,10v30h20V120a29.862,29.862,0,0,0-7.65-20A29.862,29.862,0,0,0,320,80ZM240,90V70h50a10,10,0,0,1,0,20Z"/><path class="cls-2" d="M662.087,1.95,661.307,0h-19.98l-.78,1.94L601.317,100h21.55l11.2-28h34.5l11.2,28h21.55ZM642.067,52l9.25-23.13L660.567,52Z"/><path class="cls-1" d="M170.77,51.95,169.99,50H150.01l-.78,1.94L110,150h21.55l11.2-28h34.5l11.2,28H210ZM150.75,102,160,78.87,169.25,102Z"/><polygon class="cls-2" points="661.317 120 661.317 180 701.317 180 701.317 200 601.317 200 601.317 180 641.317 180 641.317 120 601.317 120 601.317 100 701.317 100 701.317 120 661.317 120"/><path class="cls-1" d="M650.77,1.95,649.99,0H630.01l-.78,1.94L590,100h21.55l11.2-28h34.5l11.2,28H690ZM630.75,52,640,28.87,649.25,52Z"/><polygon class="cls-1" points="650 120 650 180 690 180 690 200 590 200 590 180 630 180 630 120 590 120 590 100 690 100 690 120 650 120"/><polygon class="cls-1" points="430 50 430 70 390 70 390 150 370 150 370 70 330 70 330 50 430 50"/></g></g></g></svg>