<svg xmlns="http://www.w3.org/2000/svg" viewBox="0 0 430 540"><defs><style>.cls-1{fill:#e1dfdf;}.cls-2{fill:#121221;}.cls-3{fill:#1c1e20;}.cls-4{fill:#366ce1;}</style></defs><title>easy LMS</title><g id="Complete"><g id="Easy_LMS" data-name="Easy LMS"><g id="Easy_LMS-2" data-name="Easy LMS"><path class="cls-1" d="M650,550A150,150,0,1,1,500,400,149.46,149.46,0,0,1,650,550Z" transform="translate(-285 -290)"/><path class="cls-2" d="M608.4,653.67a150.191,150.191,0,0,1-148.22,40.98Q460,692.34,460,690c0-25.47,15.55-47.76,38.79-60,.4-.22.8-.43,1.21-.63a86.982,86.982,0,0,1,19.99-7.17.014.014,0,0,0,.02,0A91.524,91.524,0,0,1,540,620a90.356,90.356,0,0,1,25.52,3.64C583.53,628.94,598.68,639.7,608.4,653.67Z" transform="translate(-285 -290)"/><path class="cls-2" d="M540,690q0,2.34-.18,4.65A149.951,149.951,0,0,1,391.6,653.67c9.72-13.97,24.87-24.73,42.88-30.03A90.356,90.356,0,0,1,460,620a91.524,91.524,0,0,1,19.99,2.2.014.014,0,0,0,.02,0A86.982,86.982,0,0,1,500,629.37c.41.2.81.41,1.21.63C524.45,642.24,540,664.53,540,690Z" transform="translate(-285 -290)"/><path class="cls-3" d="M578.76,677.67a149.847,149.847,0,0,1-157.52,0c4.12-20.28,18.21-37.53,37.68-47.74a86.011,86.011,0,0,1,21.07-7.73.014.014,0,0,0,.02,0,91.918,91.918,0,0,1,39.98,0,.014.014,0,0,0,.02,0,86.011,86.011,0,0,1,21.07,7.73C560.55,640.14,574.64,657.39,578.76,677.67Z" transform="translate(-285 -290)"/><rect class="cls-3" x="115" y="190" width="200" height="150" rx="61.8"/><path class="cls-2" d="M522.5,585c0,19.327-11.753,35-26.25,35S470,604.327,470,585a45.727,45.727,0,0,1,.658-7.8c2.52,12.628,12.089,23.737,25.592,28.8,13.5-5.061,23.072-16.17,25.592-28.8A45.727,45.727,0,0,1,522.5,585Z" transform="translate(-285 -290)"/><path class="cls-4" d="M521.842,577.2c-2.52,12.628-12.089,23.737-25.592,28.8-13.5-5.061-23.072-16.17-25.592-28.8,2.653-15.575,13.1-27.2,25.592-27.2S519.189,561.627,521.842,577.2Z" transform="translate(-285 -290)"/><circle class="cls-1" cx="165" cy="240" r="20"/><circle class="cls-1" cx="265" cy="240" r="20"/><path class="cls-3" d="M271.18,230H275a0,0,0,0,1,0,0v20a0,0,0,0,1,0,0H255a0,0,0,0,1,0,0v-3.82A16.18,16.18,0,0,1,271.18,230Z"/><path class="cls-3" d="M171.18,230H175a0,0,0,0,1,0,0v20a0,0,0,0,1,0,0H155a0,0,0,0,1,0,0v-3.82A16.18,16.18,0,0,1,171.18,230Z"/><path class="cls-2" d="M484.987,511.14a48.617,48.617,0,0,1-.94,8.86c-3.79-22.25-18.72-38.86-36.56-38.86s-32.77,16.61-36.56,38.86a48.617,48.617,0,0,1-.94-8.86c-.31-23.5,16.64-50,37.5-50S485.3,487.64,484.987,511.14Z" transform="translate(-285 -290)"/><path class="cls-2" d="M590,510a48.617,48.617,0,0,1-.94,8.86c-3.79-22.25-18.72-38.86-36.56-38.86s-32.77,16.61-36.56,38.86A48.617,48.617,0,0,1,515,510c-.31-23.5,16.64-50,37.5-50S590.306,486.5,590,510Z" transform="translate(-285 -290)"/></g><rect class="cls-2" width="100" height="10"/><rect class="cls-2" y="40" width="100" height="10"/><rect class="cls-2" y="80" width="100" height="10"/><rect class="cls-2" width="10" height="90"/><rect class="cls-2" x="110" width="10" height="90"/><rect class="cls-2" x="200" width="10" height="90"/><rect class="cls-2" x="110" width="100" height="10"/><rect class="cls-2" x="110" y="50" width="100" height="10"/><rect class="cls-2" x="220" width="100" height="10"/><rect class="cls-2" x="220" y="40" width="100" height="10"/><rect class="cls-2" x="220" y="80" width="100" height="10"/><rect class="cls-2" x="310" y="40" width="10" height="50"/><rect class="cls-2" x="220" width="10" height="50"/><rect class="cls-2" x="375" y="40" width="10" height="50"/><rect class="cls-2" x="330" width="10" height="40"/><rect class="cls-2" x="330" y="30" width="100" height="10"/><rect class="cls-2" x="420" width="10" height="40"/><rect class="cls-2" x="55" y="440" width="20" height="100"/><rect class="cls-2" x="165" y="440" width="20" height="100"/><rect class="cls-2" x="245" y="440" width="20" height="100"/><rect class="cls-2" x="380" y="770" width="20" height="100" transform="translate(925 140) rotate(90)"/><rect class="cls-2" x="205" y="460" width="20" height="50"/><rect class="cls-2" x="165" y="460" width="100" height="20"/><rect class="cls-2" x="275" y="440" width="100" height="20"/><rect class="cls-2" x="275" y="520" width="100" height="20"/><rect class="cls-2" x="275" y="480" width="100" height="20"/><rect class="cls-2" x="275" y="440" width="20" height="60"/><rect class="cls-2" x="355" y="480" width="20" height="60"/></g></g></svg>