<svg xmlns="http://www.w3.org/2000/svg" viewBox="0 0 160 160"><defs><style>.cls-1{fill:#366ce1;}</style></defs><title>edi power reader</title><g id="Complete"><g id="edi_power_reader" data-name="edi power reader"><rect class="cls-1" x="40" y="90" width="30" height="30" rx="1.618"/><rect class="cls-1" x="90" y="90" width="30" height="30" rx="1.618"/><rect class="cls-1" x="40" y="40" width="30" height="30" rx="1.618"/><rect class="cls-1" x="90" y="40" width="30" height="30" rx="1.618"/><rect class="cls-1" x="120" y="20" width="20" height="20" rx="1.618"/><rect class="cls-1" x="70" y="20" width="20" height="20" rx="1.618"/><rect class="cls-1" x="120" y="70" width="20" height="20" rx="1.618"/><rect class="cls-1" x="90" width="30" height="20" rx="1.618"/><rect class="cls-1" x="40" width="30" height="20" rx="1.618"/><rect class="cls-1" x="90" y="140" width="30" height="20" rx="1.618"/><rect class="cls-1" x="140" y="90" width="20" height="30" rx="1.618"/><rect class="cls-1" x="140" y="40" width="20" height="30" rx="1.618"/><rect class="cls-1" y="90" width="20" height="30" rx="1.618"/><rect class="cls-1" y="40" width="20" height="30" rx="1.618"/><rect class="cls-1" x="40" y="140" width="30" height="20" rx="1.618"/><rect class="cls-1" x="120" y="120" width="20" height="20" rx="1.618"/><rect class="cls-1" x="70" y="120" width="20" height="20" rx="1.618"/><rect class="cls-1" x="20" y="20" width="20" height="20" rx="1.618"/><rect class="cls-1" x="20" y="70" width="20" height="20" rx="1.618"/><rect class="cls-1" x="20" y="120" width="20" height="20" rx="1.618"/></g></g></svg>