<svg xmlns="http://www.w3.org/2000/svg" viewBox="0 0 893.51 200"><defs><style>.cls-1{fill:#121221;}.cls-2{fill:#366ce1;opacity:0.38;}</style></defs><title>egnyte</title><g id="Слой_2" data-name="Слой 2"><g id="Work_space" data-name="Work space"><g id="egnyte"><polygon class="cls-1" points="808.51 0 808.51 63.8 793.52 78.8 778.51 63.79 778.51 0 808.51 0"/><polygon class="cls-1" points="808.51 136.21 808.51 200 778.51 200 778.51 136.22 793.52 121.22 808.51 136.21"/><polygon class="cls-2" points="808.51 63.8 808.51 136.21 793.52 121.22 778.51 136.22 778.51 63.79 793.52 78.8 808.51 63.8"/><polygon class="cls-1" points="772.31 100.01 757.31 115 693.51 115 693.51 85 757.3 85 772.31 100.01"/><polygon class="cls-1" points="893.51 85 893.51 115 829.72 115 814.73 100.01 829.73 85 893.51 85"/><polygon class="cls-2" points="814.73 100.01 829.72 115 757.31 115 772.31 100.01 757.3 85 829.73 85 814.73 100.01"/><polygon class="cls-1" points="320 50 320 150 300 150 240 80.59 240 150 220 150 220 50 240 50 300 119.41 300 50 320 50"/><polygon class="cls-1" points="570 70 570 90 650 90 650 110 570 110 570 130 650 130 650 150 550 150 550 50 650 50 650 70 570 70"/><polygon class="cls-1" points="20 70 20 90 100 90 100 110 20 110 20 130 100 130 100 150 0 150 0 50 100 50 100 70 20 70"/><path class="cls-1" d="M210,90v10a49.16,49.16,0,0,1-1.01,10,50.013,50.013,0,1,1-13.64-45.35L181.21,78.79A30,30,0,1,0,188.28,110H160V90Z"/><polygon class="cls-1" points="540 50 540 70 500 70 500 150 480 150 480 70 440 70 440 50 540 50"/><polygon class="cls-1" points="392.83 96.46 390 100 390.05 100 390.05 150 370.05 150 370.05 100 367.22 96.46 330.05 50 355.66 50 380.02 80.45 404.38 50 430 50 392.83 96.46"/></g></g></g></svg>