<svg xmlns="http://www.w3.org/2000/svg" viewBox="0 0 620 303"><defs><style>.cls-1{fill:#121221;}.cls-2{fill:#366ce1;}</style></defs><title>EgRAMS</title><g id="Слой_2" data-name="Слой 2"><g id="Complete"><g id="EgRAMS"><path class="cls-1" d="M335.28,13.87a29.246,29.246,0,0,0-7.83,6.37A29.824,29.824,0,0,0,320,40a30.165,30.165,0,0,0,4.72,16.13A29.983,29.983,0,0,1,280,30a29.994,29.994,0,0,1,55-16.57C335.1,13.57,335.19,13.72,335.28,13.87Z"/><path class="cls-1" d="M340,30a29.805,29.805,0,0,1-5,16.57,27,27,0,0,1-2.45,3.19,19.973,19.973,0,0,1,6.66-26.59A29.554,29.554,0,0,1,340,30Z"/><path class="cls-2" d="M270,10a30,30,0,1,0,30,30A30,30,0,0,0,270,10Zm0,50a20,20,0,1,1,20-20A20,20,0,0,1,270,60Z"/><path class="cls-1" d="M290,80a30.019,30.019,0,1,1-5-16.57A29.8,29.8,0,0,1,290,80Z"/><path class="cls-2" d="M270,90a30,30,0,1,0,30,30A30,30,0,0,0,270,90Zm0,50a20,20,0,1,1,20-20A20,20,0,0,1,270,140Z"/><path class="cls-1" d="M340,130a29.805,29.805,0,1,1-1.38-9.01A29.8,29.8,0,0,1,340,130Z"/><path class="cls-2" d="M350,90a30,30,0,1,0,30,30A30,30,0,0,0,350,90Zm0,50a20,20,0,1,1,20-20A20,20,0,0,1,350,140Z"/><path class="cls-1" d="M390,80a30.014,30.014,0,0,1-39.01,28.62A30,30,0,1,1,376.57,55,29.923,29.923,0,0,1,390,80Z"/><path class="cls-2" d="M350,10a29.7,29.7,0,0,0-14.72,3.87,29.534,29.534,0,0,1,3.93,9.3,20,20,0,1,1-6.66,26.59A28.782,28.782,0,0,1,326.57,55c-.6.4-1.22.78-1.85,1.13A29.995,29.995,0,1,0,350,10Z"/><path class="cls-1" d="M330,40a19.8,19.8,0,0,0,2.55,9.76A28.782,28.782,0,0,1,326.57,55c-.6.4-1.22.78-1.85,1.13A30.165,30.165,0,0,1,320,40a29.824,29.824,0,0,1,7.45-19.76,29.246,29.246,0,0,1,7.83-6.37,29.534,29.534,0,0,1,3.93,9.3A19.956,19.956,0,0,0,330,40Z"/><path class="cls-2" d="M335,63.43a29.956,29.956,0,0,0,0,33.14,29.956,29.956,0,0,0,0-33.14ZM293.43,55a29.956,29.956,0,0,0,33.14,0,29.956,29.956,0,0,0-33.14,0Zm0,50a29.956,29.956,0,0,0,33.14,0,29.956,29.956,0,0,0-33.14,0ZM280,80a29.8,29.8,0,0,0,5,16.57,29.956,29.956,0,0,0,0-33.14A29.8,29.8,0,0,0,280,80Zm76.01-19.6c-.1-.24-.21-.47-.32-.71a50.145,50.145,0,0,0-25.38-25.38c-.24-.11-.47-.22-.71-.32a50.135,50.135,0,0,0-39.2,0c-.24.1-.47.21-.71.32a50.145,50.145,0,0,0-25.38,25.38c-.11.24-.22.47-.32.71a50.135,50.135,0,0,0,0,39.2c.1.24.21.47.32.71a50.145,50.145,0,0,0,25.38,25.38c.24.11.47.22.71.32a50.135,50.135,0,0,0,39.2,0c.24-.1.47-.21.71-.32a50.145,50.145,0,0,0,25.38-25.38c.11-.24.22-.47.32-.71a50.135,50.135,0,0,0,0-39.2ZM326.57,105a29.956,29.956,0,0,0-33.14,0A29.689,29.689,0,0,1,285,96.57a29.956,29.956,0,0,0,0-33.14A29.689,29.689,0,0,1,293.43,55a29.956,29.956,0,0,0,33.14,0A29.689,29.689,0,0,1,335,63.43a29.956,29.956,0,0,0,0,33.14A29.689,29.689,0,0,1,326.57,105Z"/><path class="cls-1" d="M330,80a29.8,29.8,0,0,0,5,16.57,29.689,29.689,0,0,1-8.43,8.43,29.956,29.956,0,0,0-33.14,0A29.689,29.689,0,0,1,285,96.57a29.956,29.956,0,0,0,0-33.14A29.689,29.689,0,0,1,293.43,55a29.956,29.956,0,0,0,33.14,0A29.689,29.689,0,0,1,335,63.43,29.8,29.8,0,0,0,330,80Z"/><polygon class="cls-1" points="510 180 510 280 490 280 490 210.59 473.2 230.05 459.99 245.36 446.78 230.05 430 210.62 430 280 410 280 410 180 430 180 430 180.01 459.99 214.75 489.98 180 510 180"/><path class="cls-1" d="M540,210a10,10,0,0,0,10,10h40a30,30,0,0,1,0,60H520V260h70a10,10,0,0,0,0-20H550a30,30,0,0,1,0-60h70v20H550A10,10,0,0,0,540,210Z"/><polygon class="cls-1" points="20 200 20 220 100 220 100 240 20 240 20 260 100 260 100 280 0 280 0 180 100 180 100 200 20 200"/><path class="cls-1" d="M290,210a30,30,0,0,0-30-30H190V280h20V240h50a10,10,0,0,1,10,10v30h20V250a29.862,29.862,0,0,0-7.65-20A29.862,29.862,0,0,0,290,210Zm-80,10V200h50a10,10,0,0,1,0,20Z"/><path class="cls-1" d="M360.77,181.95l-.78-1.95H340.01l-.78,1.94L300,280h21.55l11.2-28h34.5l11.2,28H400ZM340.75,232,350,208.87,359.25,232Z"/><path class="cls-1" d="M157.429,225.935a.33.33,0,0,0-.054-.042c-.29-.213-.581-.427-.877-.628-.006-.012-.012-.018-.024-.018-.285-.2-.569-.391-.86-.575-.059-.042-.124-.083-.195-.125-.267-.166-.54-.332-.812-.492-.392-.237-.8-.462-1.21-.67-.3-.16-.6-.314-.907-.462-.012-.006-.03-.012-.041-.018-.35-.166-.706-.332-1.062-.486h-.006c-.361-.154-.723-.3-1.085-.439,0-.012-.011-.012-.023-.012-.362-.142-.729-.272-1.1-.4a29.16,29.16,0,0,0-4.067-1.067c-.136-.024-.279-.053-.415-.071-.178-.036-.356-.065-.54-.089-.243-.042-.492-.071-.735-.107-.272-.035-.545-.065-.824-.089-.225-.024-.45-.047-.67-.059-.255-.024-.5-.036-.758-.047s-.5-.024-.759-.03-.51-.012-.765-.012A29.646,29.646,0,0,0,110,249.643c0,.528.012,1.049.042,1.571.023.492.065.978.112,1.458.012.143.03.279.048.421s.029.291.053.439c.024.207.053.415.089.622.024.161.047.327.077.487.136.818.308,1.618.516,2.407.035.16.083.32.124.474s.089.32.137.468c.071.237.142.481.219.718.154.492.32.978.51,1.452.083.219.166.439.255.652.095.231.189.463.29.688.113.261.231.522.35.777a27.915,27.915,0,0,0,1.85,3.337c.124.2.249.386.373.575.012.018.024.03.03.042.13.19.261.379.4.569q.41.586.854,1.138c.1.131.207.261.314.392q.738.915,1.547,1.76c.166.172.332.344.5.51s.332.332.5.492c0,.006.006.006.012.012q.249.24.516.481c.231.213.474.426.717.628.178.154.356.3.54.45.5.415,1.025.813,1.565,1.186.231.16.456.32.694.475s.468.308.7.456c.2.13.4.255.611.373.272.166.557.327.842.481.741.409,1.5.782,2.276,1.126.261.113.516.225.783.332.207.089.415.172.628.249a28.215,28.215,0,0,0,3.522,1.1c.219.059.444.107.67.154.32.077.64.142.966.2.213.035.427.077.64.106s.439.071.664.1c.184.03.362.048.546.071s.35.042.527.06c.249.023.5.047.747.065.753.059,1.518.089,2.283.089.255,0,.51-.006.765-.012s.51-.012.759-.03.5-.023.758-.047c.22-.012.445-.036.67-.06.279-.023.552-.053.824-.088.243-.036.492-.066.735-.107.184-.024.362-.054.54-.089.136-.018.279-.047.415-.071a29.16,29.16,0,0,0,4.067-1.067c.368-.125.735-.255,1.1-.4.012,0,.018,0,.023-.011.362-.137.724-.285,1.085-.439h.006c.356-.154.712-.32,1.062-.486.011-.006.029-.012.041-.018.308-.148.6-.3.907-.463.409-.207.818-.432,1.21-.669.272-.16.545-.327.812-.493.071-.041.136-.082.195-.124.291-.184.575-.379.86-.575.012,0,.018-.006.024-.018.3-.2.587-.415.877-.628a.33.33,0,0,0,.054-.042v.006a17.784,17.784,0,0,1-30.361,12.575l-8.383,8.383a29.639,29.639,0,0,0,50.6-20.958V249.643A29.577,29.577,0,0,0,157.429,225.935Zm-.024,24.621c-.012.284-.036.563-.059.842-.012.124-.03.249-.048.373-.018.19-.041.374-.071.557a.213.213,0,0,1-.012.06c-.041.284-.089.557-.148.836s-.125.575-.2.859-.142.54-.225.807a.285.285,0,0,1-.036.1c-.059.214-.13.421-.207.623-.03.095-.065.19-.1.284-.065.178-.136.356-.213.522a1.557,1.557,0,0,1-.089.22q-.115.283-.249.551a1.589,1.589,0,0,1-.119.249c-.053.113-.106.231-.172.344-.077.16-.166.32-.249.474-.112.208-.231.415-.355.611-.107.172-.214.344-.332.51a1.446,1.446,0,0,1-.16.249c-.3.438-.611.859-.949,1.268-.148.184-.3.368-.468.546a.142.142,0,0,1-.06.071c-.195.225-.4.439-.616.652s-.433.433-.658.634l-.006.006c-.225.208-.457.4-.688.593s-.48.385-.723.563c-.214.16-.427.315-.652.457q-.276.186-.552.356a1.058,1.058,0,0,1-.166.1,4.818,4.818,0,0,1-.427.249c-.13.083-.266.154-.4.226s-.3.154-.444.231a2.674,2.674,0,0,1-.32.148c-.208.107-.415.2-.629.291a.1.1,0,0,0-.036.011c-.26.113-.533.22-.806.321-.006,0-.012.006-.023.011q-.391.143-.8.267a15.42,15.42,0,0,1-1.654.427.677.677,0,0,1-.119.024c-.248.053-.5.1-.764.136l-.113.018c-.213.035-.427.059-.64.083a.149.149,0,0,1-.048.006c-.106.012-.219.024-.326.029-.237.024-.468.042-.711.054-.3.018-.605.024-.913.024s-.611-.006-.913-.024c-.243-.012-.474-.03-.712-.054-.106,0-.219-.017-.326-.029a.144.144,0,0,1-.047-.006c-.213-.024-.427-.048-.64-.083l-.113-.018c-.261-.035-.516-.083-.765-.136a.684.684,0,0,1-.118-.024,15.359,15.359,0,0,1-1.654-.427q-.41-.124-.8-.267c-.012,0-.018-.011-.024-.011-.272-.1-.545-.208-.806-.321a.1.1,0,0,0-.035-.011c-.214-.089-.421-.184-.629-.291a3.1,3.1,0,0,1-.314-.148c-.154-.071-.3-.148-.451-.231s-.272-.143-.4-.226q-.222-.115-.427-.249a1.159,1.159,0,0,1-.166-.1q-.274-.169-.551-.356c-.225-.142-.439-.3-.652-.457-.243-.178-.486-.367-.723-.563s-.463-.385-.688-.593l-.006-.006c-.225-.2-.451-.415-.658-.634s-.421-.427-.617-.652a.145.145,0,0,1-.059-.071c-.166-.178-.32-.362-.468-.546-.338-.409-.652-.83-.949-1.268a1.446,1.446,0,0,1-.16-.249c-.119-.166-.225-.338-.332-.51-.124-.2-.243-.4-.356-.611-.083-.154-.172-.314-.249-.474-.065-.113-.118-.231-.172-.344a1.586,1.586,0,0,1-.118-.249q-.133-.267-.249-.551a1.447,1.447,0,0,1-.089-.22c-.077-.166-.148-.344-.214-.522-.035-.094-.071-.189-.1-.284-.077-.2-.149-.409-.208-.623a.284.284,0,0,1-.035-.1c-.083-.267-.16-.534-.226-.807s-.142-.569-.2-.859-.107-.552-.148-.836a.213.213,0,0,1-.012-.06c-.03-.183-.054-.367-.071-.557-.018-.124-.036-.249-.048-.373-.024-.279-.047-.558-.059-.842-.018-.3-.024-.605-.024-.907v-.006a17.786,17.786,0,0,1,35.572,0v.006C157.429,249.951,157.423,250.253,157.405,250.556Z"/></g></g></g></svg>