<svg id="Complete" xmlns="http://www.w3.org/2000/svg" viewBox="0 0 870 743.358"><defs><style>.cls-1,.cls-2{fill:none;stroke:#366ce1;stroke-miterlimit:10;}.cls-1{stroke-width:14px;}.cls-2{stroke-width:12px;}.cls-3{fill:#121221;}.cls-4{fill:#366ce1;}</style></defs><title>einstein</title><g id="einstein_salesforce" data-name="einstein salesforce"><path class="cls-1" d="M478.844,542.7a295.5,295.5,0,0,1-25.352,49.69c-15.643,24.588-52.7,82.836-119.831,105.8-9.689,3.314-111.422,36.7-151.437-18.93-24.089-33.493-17.672-87.935,10.141-116.958,44.037-45.953,135.787-22,185.24,21.634,56.055,49.463,88.451,151.3,40.563,198.085-36.092,35.26-112.98,34.551-153.465-7.437-54.316-56.333-7.071-149.594-2.028-159.549,52.8-104.226,190.784-111.218,200.113-111.55" transform="translate(-65 -186.642)"/><path class="cls-1" d="M521.156,542.7a295.5,295.5,0,0,0,25.352,49.69c15.643,24.588,52.7,82.836,119.831,105.8,9.689,3.314,111.422,36.7,151.437-18.93,24.089-33.493,17.672-87.935-10.141-116.958-44.037-45.953-135.787-22-185.24,21.634-56.055,49.463-88.451,151.3-40.563,198.085,36.092,35.26,112.98,34.551,153.465-7.437,54.316-56.333,7.071-149.594,2.028-159.549-52.8-104.226-190.784-111.218-200.113-111.55" transform="translate(-65 -186.642)"/><path class="cls-2" d="M508.078,450.007a175.719,175.719,0,0,1,14.873-64.9c8.035-18.056,30.707-69.21,83.227-84.969,47.056-14.12,108.975,2.89,138.52,52.518,33.842,56.847,12.7,135.486-22.31,148.733C670.482,521.025,587.214,397.275,574.123,377.82,556.463,351.574,485.265,245.763,518.9,207.3c22.613-25.86,87.859-15.825,126.423,16.9,46.822,39.735,48.907,108.336,31.774,154.817-20.761,56.327-75.515,95.824-139.949,101.864" transform="translate(-65 -186.642)"/><path class="cls-2" d="M491.922,450.007a175.719,175.719,0,0,0-14.873-64.9c-8.035-18.056-30.707-69.21-83.227-84.969-47.056-14.12-108.975,2.89-138.52,52.518-33.842,56.847-12.7,135.486,22.31,148.733,51.906,19.637,135.174-104.113,148.265-123.568,17.66-26.246,88.858-132.057,55.228-170.517-22.613-25.86-87.859-15.825-126.423,16.9-46.822,39.735-48.907,108.336-31.774,154.817,20.761,56.327,75.515,95.824,139.949,101.864" transform="translate(-65 -186.642)"/><circle class="cls-3" cx="435" cy="309.343" r="52.648"/><circle class="cls-4" cx="435" cy="309.343" r="34.563"/><polygon class="cls-3" points="300.03 743.358 300 743.358 300 743.328 300.03 743.358"/><polygon class="cls-3" points="320 643.358 320 743.358 300.03 743.358 300 743.328 240 673.928 240 743.358 220 743.358 220 643.358 240 643.358 300 712.748 300 643.358 320 643.358"/><polygon class="cls-3" points="870 643.358 870 743.358 850.03 743.358 850 743.328 790 673.928 790 743.358 770 743.358 770 643.358 790 643.358 850 712.748 850 643.358 870 643.358"/><polygon class="cls-3" points="20 663.358 20 683.358 100 683.358 100 703.358 20 703.358 20 723.358 100 723.358 100 743.358 0 743.358 0 643.358 100 643.358 100 663.358 20 663.358"/><path class="cls-3" d="M415,860a10,10,0,0,0,10,10h40a30,30,0,0,1,0,60H395V910h70a10,10,0,0,0,0-20H425a30,30,0,0,1,0-60h70v20H425A10,10,0,0,0,415,860Z" transform="translate(-65 -186.642)"/><polygon class="cls-3" points="570 663.358 570 683.358 650 683.358 650 703.358 570 703.358 570 723.358 650 723.358 650 743.358 550 743.358 550 643.358 650 643.358 650 663.358 570 663.358"/><polygon class="cls-3" points="540 643.358 540 663.358 500 663.358 500 743.358 480 743.358 480 663.358 440 663.358 440 643.358 540 643.358"/><polygon class="cls-3" points="170 663.358 170 723.358 210 723.358 210 743.358 110 743.358 110 723.358 150 723.358 150 663.358 110 663.358 110 643.358 210 643.358 210 663.358 170 663.358"/><polygon class="cls-3" points="720 663.358 720 723.358 760 723.358 760 743.358 660 743.358 660 723.358 700 723.358 700 663.358 660 663.358 660 643.358 760 643.358 760 663.358 720 663.358"/></g></svg>