<svg xmlns="http://www.w3.org/2000/svg" viewBox="0 0 300 100"><defs><style>.cls-1{fill:#366ce1;}.cls-2{fill:#121221;}</style></defs><title>eko</title><g id="Слой_2" data-name="Слой 2"><g id="Work_space" data-name="Work space"><g id="eko"><polygon class="cls-1" points="210 99.99 210 100 180.13 100 139.51 63.43 130 72 130 100 110 100 110 0 130 0 130 45.09 139.51 36.52 180.07 0 209.97 0 154.46 49.98 210 99.99"/><path class="cls-2" d="M250,0a50,50,0,1,0,50,50A50.005,50.005,0,0,0,250,0Zm0,90a40,40,0,1,1,40-40A40,40,0,0,1,250,90Z"/><polygon class="cls-2" points="10 10 10 45 100 45 100 55 10 55 10 90 100 90 100 100 0 100 0 0 100 0 100 10 10 10"/></g></g></g></svg>