<svg xmlns="http://www.w3.org/2000/svg" viewBox="0 0 1100 100"><defs><style>.cls-1{fill:#121221;}.cls-2,.cls-3{fill:#366ce1;}.cls-2{opacity:0.62;}.cls-3{opacity:0.38;}</style></defs><title>elementor</title><g id="Слой_2" data-name="Слой 2"><g id="Work_space" data-name="Work space"><g id="elementor"><polygon class="cls-1" points="650 0 650 100 630 100 570 30.59 570 100 550 100 550 0 570 0 630 69.41 630 0 650 0"/><polygon class="cls-1" points="430 0 430 100 410 100 410 30.59 393.2 50.05 379.99 65.36 366.78 50.05 350 30.62 350 100 330 100 330 0 350 0 350 0.01 379.99 34.75 409.98 0 430 0"/><polygon class="cls-1" points="20 20 20 40 100 40 100 60 20 60 20 80 100 80 100 100 0 100 0 0 100 0 100 20 20 20"/><polygon class="cls-1" points="240 20 240 40 320 40 320 60 240 60 240 80 320 80 320 100 220 100 220 0 320 0 320 20 240 20"/><polygon class="cls-1" points="460 20 460 40 540 40 540 60 460 60 460 80 540 80 540 100 440 100 440 0 540 0 540 20 460 20"/><polygon class="cls-1" points="210 80 210 100 110 100 110 0 130 0 130 80 210 80"/><path class="cls-1" d="M970,30A30,30,0,0,0,940,0H870V100h20V60h50a10,10,0,0,1,10,10v30h20V70a29.862,29.862,0,0,0-7.65-20A29.862,29.862,0,0,0,970,30ZM890,40V20h50a10,10,0,0,1,0,20Z"/><path class="cls-1" d="M810,0a50,50,0,1,0,50,50A50.005,50.005,0,0,0,810,0Zm0,80a30,30,0,1,1,30-30A30,30,0,0,1,810,80Z"/><polygon class="cls-1" points="760 0 760 20 720 20 720 100 700 100 700 20 660 20 660 0 760 0"/><path class="cls-2" d="M1020,0V100l-20-20V20Z"/><path class="cls-3" d="M1100,20V40l-20-20Z"/><path class="cls-3" d="M1100,20H1000l20-20h60Z"/><path class="cls-3" d="M1080,60V70h-10Z"/><path class="cls-3" d="M1030,80h-10V70Z"/><path class="cls-3" d="M1020,30V20h10Z"/><path class="cls-3" d="M1080,30V40l-10-10Z"/><path class="cls-3" d="M1100,50l-10,10h-90V40h90Z"/><path class="cls-3" d="M1100,60V80h-20Z"/><path class="cls-3" d="M1100,50l-10,10-10,10V50Z"/><path class="cls-3" d="M1100,50h-20V30l10,10Z"/><path class="cls-3" d="M1100,80l-20,20h-60l-20-20Z"/><path class="cls-3" d="M1100,80l-20,20V80Z"/><path class="cls-3" d="M1100,20h-20V0Z"/><path class="cls-3" d="M1020,0V20h-20Z"/><path class="cls-3" d="M1020,80v20l-20-20Z"/></g></g></g></svg>