<svg xmlns="http://www.w3.org/2000/svg" viewBox="0 0 580 410"><title>elysium bandinini</title><path d="M300,160l30-30h30l30,30-40,40H340Z"/><path d="M370,130l30,30a92.221,92.221,0,0,0,40-10,93.9,93.9,0,0,0,40-40,234.3,234.3,0,0,1-80,20A228.734,228.734,0,0,1,370,130Z"/><path d="M320,129.983l-30,30a92.232,92.232,0,0,1-40-10A93.919,93.919,0,0,1,210,110a234.45,234.45,0,0,0,80,19.983A228.735,228.735,0,0,0,320,129.983Z"/><path d="M281.852,140c-5.837-4.018-32.548-23.326-40-60-8.8-43.32,16.434-75.6,20-80-3.3,10.771-10.057,38.1,0,70,14.376,45.6,52.219,66.012,60,70Z"/><path d="M311.852,140c-6.791-5.931-24.014-22.6-30-50-9.308-42.6,16.348-75.478,20-80a215.058,215.058,0,0,0,40,130Z"/><path d="M321.852,140a192.354,192.354,0,0,1,20-120,192.354,192.354,0,0,1,20,120Z"/><path d="M401.852,140c5.838-4.018,32.548-23.326,40-60,8.8-43.32-16.434-75.6-20-80,3.3,10.771,10.058,38.1,0,70-14.376,45.6-52.218,66.012-60,70Z"/><path d="M371.852,140c6.792-5.931,24.014-22.6,30-50,9.309-42.6-16.348-75.478-20-80a215.058,215.058,0,0,1-40,130Z"/><rect x="80" y="170" width="20" height="100"/><rect x="160" y="280" width="20" height="100"/><rect x="210" y="280" width="20" height="100"/><polygon points="160 280 180 280 230 380 210 380 160 280"/><rect x="370" y="280" width="20" height="100"/><rect x="420" y="280" width="20" height="100"/><polygon points="370 280 390 280 440 380 420 380 370 280"/><rect x="480" y="280" width="20" height="100"/><rect x="530" y="280" width="20" height="100"/><polygon points="480 280 500 280 550 380 530 380 480 280"/><polygon points="20 190 20 210 70 210 70 230 20 230 20 250 70 250 70 270 0 270 0 170 70 170 70 190 20 190"/><rect x="175" y="240" width="40" height="20" transform="translate(445 55) rotate(90)"/><rect x="245" y="300" width="200" height="20" transform="translate(655 -35) rotate(90)"/><rect x="80" y="250" width="70" height="20"/><path d="M62.35,330a29.957,29.957,0,0,0,5.93-30A29.979,29.979,0,0,0,40,280H0V380H40a29.979,29.979,0,0,0,28.28-20,29.977,29.977,0,0,0-5.93-30ZM50,310a10,10,0,0,1-10,10H20V300H40A10,10,0,0,1,50,310ZM20,360V340H40a10,10,0,0,1,0,20Z"/><path d="M308.28,300A29.979,29.979,0,0,0,280,280H240V380h40a29.979,29.979,0,0,0,28.28-20A29.592,29.592,0,0,0,310,350V310A29.592,29.592,0,0,0,308.28,300ZM280,360H260V300h20a10,10,0,0,1,10,10v40A10,10,0,0,1,280,360Z"/><path d="M260,200a10,10,0,0,0,10,10h10a30,30,0,0,1,0,60H240V250h40a10,10,0,0,0,0-20H270a30,30,0,0,1,0-60h40v20H270A10,10,0,0,0,260,200Z"/><path d="M160,170l25,60h20l25-60H210l-15,40-15-40Z"/><path d="M470,170v70a29.979,29.979,0,0,1-20,28.28A29.592,29.592,0,0,1,440,270H430a29.592,29.592,0,0,1-10-1.72A29.979,29.979,0,0,1,400,240V170h20v70a10,10,0,0,0,10,10h10a10,10,0,0,0,10-10V170Z"/><path d="M130,281.72A29.592,29.592,0,0,0,120,280H110a29.592,29.592,0,0,0-10,1.72A29.979,29.979,0,0,0,80,310v70h20V340h30v40h20V310A29.979,29.979,0,0,0,130,281.72ZM100,320V310a10,10,0,0,1,10-10h10a10,10,0,0,1,10,10v10Z"/><path d="M580,170V270H560V190H550a10,10,0,0,0-10,10v70H520V200a10,10,0,0,0-10-10H500v80H480V170h30a29.862,29.862,0,0,1,20,7.65A29.862,29.862,0,0,1,550,170Z"/><rect x="450" y="280" width="20" height="100"/><rect x="560" y="280" width="20" height="100"/><rect y="390" width="580" height="20"/></svg>