<svg id="Complete" xmlns="http://www.w3.org/2000/svg" viewBox="0 0 870 409.993"><defs><style>.cls-1{fill:#366ce1;}.cls-2{fill:#1c1e20;}</style></defs><title>endpoint</title><g id="Endpoint"><path class="cls-1" d="M495,620.427v-40.68a49.919,49.919,0,0,1-35.576-20.54l-44.067,25.446a20.01,20.01,0,1,1-5.008-8.666l44.062-25.437a50.017,50.017,0,0,1,40.585-70.295v-40.68a29.985,29.985,0,1,1,10.008,0v40.68a50.021,50.021,0,0,1,40.592,70.293l44.054,25.435a20,20,0,1,1-5,8.66l-44.063-25.44a49.915,49.915,0,0,1-35.578,20.544v40.68a29.986,29.986,0,1,1-10.009,0Z" transform="translate(-65 -380.007)"/><polygon class="cls-2" points="20 329.993 20 349.993 100 349.993 100 369.993 20 369.993 20 389.993 100 389.993 100 409.993 0 409.993 0 309.993 100 309.993 100 329.993 20 329.993"/><polygon class="cls-2" points="210 309.993 210 409.993 195.85 409.993 190 404.143 190 404.133 130 344.133 130 409.993 110 409.993 110 309.993 124.15 309.993 130 315.843 130 315.853 160 345.843 174.14 359.993 190 375.853 190 309.993 210 309.993"/><path class="cls-2" d="M335,690H285V790h50a50,50,0,0,0,0-100Zm0,80H305V710h30a30,30,0,0,1,0,60Z" transform="translate(-65 -380.007)"/><polygon class="cls-2" points="760 309.993 760 409.993 745.85 409.993 740 404.143 740 404.133 680 344.133 680 409.993 660 409.993 660 309.993 674.15 309.993 680 315.843 680 315.853 710 345.843 724.14 359.993 740 375.853 740 309.993 760 309.993"/><path class="cls-2" d="M465,690H395V790h20V750h50a30,30,0,0,0,0-60Zm0,40H415V710h50a10,10,0,0,1,0,20Z" transform="translate(-65 -380.007)"/><path class="cls-2" d="M555,690a50,50,0,1,0,50,50A50.005,50.005,0,0,0,555,690Zm0,80a30,30,0,1,1,30-30A30,30,0,0,1,555,770Z" transform="translate(-65 -380.007)"/><polygon class="cls-2" points="610 329.993 610 389.993 650 389.993 650 409.993 550 409.993 550 389.993 590 389.993 590 329.993 550 329.993 550 309.993 650 309.993 650 329.993 610 329.993"/><polygon class="cls-2" points="870 309.993 870 329.993 830 329.993 830 409.993 810 409.993 810 329.993 770 329.993 770 309.993 870 309.993"/></g></svg>