<svg xmlns="http://www.w3.org/2000/svg" viewBox="0 0 750 140"><defs><style>.cls-1{fill:#121221;}.cls-2{fill:#366ce1;}</style></defs><title>equnix</title><g id="Слой_2" data-name="Слой 2"><g id="Work_space" data-name="Work space"><g id="equnix"><polygon class="cls-1" points="500 40 500 100 520 100 520 120 460 120 460 100 480 100 480 40 460 40 460 20 520 20 520 40 500 40"/><polygon class="cls-1" points="450 20 450 120 430 120 370 50.59 370 120 350 120 350 20 370 20 430 89.41 430 20 450 20"/><polygon class="cls-1" points="20 40 20 60 100 60 100 80 20 80 20 100 100 100 100 120 0 120 0 20 100 20 100 40 20 40"/><path class="cls-2" d="M230,70a50.02,50.02,0,1,0-20,39.99V120h20V100H219.99A49.726,49.726,0,0,0,230,70Zm-50,30a30,30,0,1,1,30-30A30,30,0,0,1,180,100Z"/><polygon class="cls-1" points="592.5 70.03 629.95 120 604.96 120 580.01 86.7 555.05 120 530.07 120 567.51 70.03 530.02 20 555 20 580.01 53.36 605.01 20 630 20 592.5 70.03"/><path class="cls-1" d="M340,20V70a50,50,0,0,1-100,0V20h20V70a30,30,0,0,0,60,0V20Z"/><path class="cls-1" d="M680,0V120l50,20V30H720v90l-30-10V0Z"/><path class="cls-2" d="M750,140V20L700,0V110h10V20l30,10V140Z"/></g></g></g></svg>