<svg xmlns="http://www.w3.org/2000/svg" viewBox="0 0 680 100"><defs><style>.cls-1{fill:#e1dfdf;}</style></defs><title>espacio</title><g id="Слой_2" data-name="Слой 2"><g id="Work_space" data-name="Work space"><g id="espacio"><path class="cls-1" d="M130,30a10,10,0,0,0,10,10h40a30,30,0,0,1,0,60H110V80h70a10,10,0,0,0,0-20H140a30,30,0,0,1,0-60h70V20H140A10,10,0,0,0,130,30Z"/><polygon class="cls-1" points="20 20 20 40 100 40 100 60 20 60 20 80 100 80 100 100 0 100 0 0 100 0 100 20 20 20"/><path class="cls-1" d="M630,0a50,50,0,1,0,50,50A50.005,50.005,0,0,0,630,0Zm0,80a30,30,0,1,1,30-30A30,30,0,0,1,630,80Z"/><path class="cls-1" d="M479.29,60H500a50,50,0,1,1,0-20H479.29a30,30,0,1,0,0,20Z"/><path class="cls-1" d="M370.77,1.95,369.99,0H350.01l-.78,1.94L310,100h21.55l11.2-28h34.5l11.2,28H410ZM350.75,52,360,28.87,369.25,52Z"/><polygon class="cls-1" points="550 20 550 80 580 80 580 100 500 100 500 80 530 80 530 20 500 20 500 0 580 0 580 20 550 20"/><path class="cls-1" d="M290,0H220V100h20V60h50a30,30,0,0,0,0-60Zm0,40H240V20h50a10,10,0,0,1,0,20Z"/></g></g></g></svg>