<svg xmlns="http://www.w3.org/2000/svg" viewBox="0 0 705 566.5"><defs><style>.cls-1{fill:#366ce1;}.cls-2{fill:#121221;}</style></defs><title>Evalator</title><g id="Слой_2" data-name="Слой 2"><g id="Complete"><g id="Evalator"><path class="cls-1" d="M402.5,0V100.02h-162v62h-100V424h424V0Zm-162,262h-62V200.02h62Zm162,0h-100V162.02h100Z"/><rect class="cls-2" x="178.5" y="200.02" width="62" height="61.98"/><rect class="cls-2" x="302.5" y="162.02" width="100" height="99.98"/><polygon class="cls-2" points="20 486.5 20 506.5 100 506.5 100 526.5 20 526.5 20 546.5 100 546.5 100 566.5 0 566.5 0 466.5 100 466.5 100 486.5 20 486.5"/><polygon class="cls-2" points="415 546.5 415 566.5 315 566.5 315 466.5 335 466.5 335 546.5 415 546.5"/><polygon class="cls-2" points="210 466.5 170.78 564.57 170.01 566.5 150.01 566.5 149.24 564.57 110.02 466.5 131.56 466.5 160.01 537.64 188.47 466.5 210 466.5"/><path class="cls-2" d="M655,466.5a50,50,0,1,0,50,50A50.005,50.005,0,0,0,655,466.5Zm0,80a30,30,0,1,1,30-30A30,30,0,0,1,655,546.5Z"/><path class="cls-2" d="M265.77,468.45l-.78-1.95H245.01l-.78,1.94L205,566.5h21.55l11.2-28h34.5l11.2,28H305ZM245.75,518.5,255,495.37l9.25,23.13Z"/><path class="cls-2" d="M485.77,468.45l-.78-1.95H465.01l-.78,1.94L425,566.5h21.55l11.2-28h34.5l11.2,28H525ZM465.75,518.5,475,495.37l9.25,23.13Z"/><polygon class="cls-2" points="605 466.5 605 486.5 565 486.5 565 566.5 545 566.5 545 486.5 505 486.5 505 466.5 605 466.5"/></g></g></g></svg>