<svg id="Complete" xmlns="http://www.w3.org/2000/svg" viewBox="0 0 378.859 378.859"><defs><style>.cls-1{fill:#e1dfdf;}.cls-2{fill:#366ce1;}.cls-3{fill:#121221;}</style></defs><title>eversign</title><g id="eversign"><circle class="cls-1" cx="189.43" cy="189.43" r="189.43"/><path class="cls-2" d="M313.345,383.887a256.915,256.915,0,0,1,200-200,256.915,256.915,0,0,1-200,200Z" transform="translate(-198.775 -121.31)"/><path class="cls-3" d="M283.345,413.887Q342.885,348.954,410.6,281.732q51.97-51.4,102.746-97.845-45.561,50.56-96.915,102.789C371.312,332.415,326.766,374.76,283.345,413.887Z" transform="translate(-198.775 -121.31)"/><path class="cls-3" d="M263.986,401.141a124.571,124.571,0,0,0,38.719,30.844,162.721,162.721,0,0,0-38.719-30.844Z" transform="translate(-198.775 -121.31)"/><path class="cls-3" d="M263.986,431.985a124.571,124.571,0,0,1,38.719-30.844,162.721,162.721,0,0,1-38.719,30.844Z" transform="translate(-198.775 -121.31)"/></g></svg>