<svg xmlns="http://www.w3.org/2000/svg" viewBox="0 0 1110 200"><defs><style>.cls-1,.cls-3{fill:#366ce1;}.cls-2{fill:#121221;}.cls-3{opacity:0.38;}</style></defs><title>evernote</title><g id="Слой_2" data-name="Слой 2"><g id="Work_space" data-name="Work space"><g id="evernote"><polygon class="cls-1" points="540 50 540 150 520 150 460 80.59 460 150 440 150 440 50 460 50 520 119.41 520 50 540 50"/><polygon class="cls-2" points="20 70 20 90 100 90 100 110 20 110 20 130 100 130 100 150 0 150 0 50 100 50 100 70 20 70"/><polygon class="cls-2" points="240 70 240 90 320 90 320 110 240 110 240 130 320 130 320 150 220 150 220 50 320 50 320 70 240 70"/><polygon class="cls-1" points="782.606 70 782.606 90 862.606 90 862.606 110 782.606 110 782.606 130 862.606 130 862.606 150 762.606 150 762.606 50 862.606 50 862.606 70 782.606 70"/><path class="cls-2" d="M430,80a30,30,0,0,0-30-30H330V150h20V110h50a10,10,0,0,1,10,10v30h20V120a29.862,29.862,0,0,0-7.65-20A29.862,29.862,0,0,0,430,80ZM350,90V70h50a10,10,0,0,1,0,20Z"/><path class="cls-1" d="M600,50a50,50,0,1,0,50,50A50.005,50.005,0,0,0,600,50Zm0,80a30,30,0,1,1,30-30A30,30,0,0,1,600,130Z"/><polygon class="cls-1" points="752.606 50 752.606 70 712.606 70 712.606 150 692.606 150 692.606 70 652.606 70 652.606 50 752.606 50"/><polygon class="cls-2" points="210 50 170.78 148.07 170.01 150 150.01 150 149.24 148.07 110.02 50 131.56 50 160.01 121.14 188.47 50 210 50"/><path class="cls-1" d="M1110,0V200H910V100L1010,0Z"/><rect class="cls-2" x="1070" y="100" width="40" height="100"/><rect class="cls-2" x="1020" y="170" width="90" height="30"/><rect class="cls-2" x="1020" y="140" width="20" height="60"/><rect class="cls-2" x="1020" y="140" width="30" height="10"/><rect class="cls-2" x="1010" width="100" height="130"/><path class="cls-2" d="M1010,0V200H910V100Z"/><path class="cls-2" d="M1010,0,910,100V50q25-25.005,50-50Z"/><path class="cls-2" d="M910,50q25-24.99,50-50V50Z"/><path class="cls-3" d="M1010,0,910,100V50q25-25.005,50-50Z"/><path class="cls-3" d="M910,50q25-24.99,50-50V50Z"/><rect class="cls-3" x="1050" y="80" width="30" height="20"/><rect class="cls-3" x="1050" y="90" width="30" height="10"/></g></g></g></svg>