<svg xmlns="http://www.w3.org/2000/svg" viewBox="0 0 1610 100"><defs><style>.cls-1{fill:#121221;}.cls-2{fill:#366ce1;}</style></defs><title>evidation health</title><g id="Слой_2" data-name="Слой 2"><g id="Work_space" data-name="Work space"><g id="evidation_health" data-name="evidation health"><polygon class="cls-1" points="260 20 260 80 280 80 280 100 220 100 220 80 240 80 240 20 220 20 220 0 280 0 280 20 260 20"/><polygon class="cls-1" points="620 20 620 80 640 80 640 100 580 100 580 80 600 80 600 20 580 20 580 0 640 0 640 20 620 20"/><polygon class="cls-1" points="850 0 850 100 830 100 770 30.59 770 100 750 100 750 0 770 0 830 69.41 830 0 850 0"/><path class="cls-1" d="M340,0H290V100h50A50,50,0,0,0,340,0Zm0,80H310V20h30a30,30,0,0,1,0,60Z"/><polygon class="cls-2" points="1100 0 1100 100 1080 100 1080 60 1020 60 1020 100 1000 100 1000 0 1020 0 1020 40 1080 40 1080 0 1100 0"/><polygon class="cls-2" points="1610 0 1610 100 1590 100 1590 60 1530 60 1530 100 1510 100 1510 0 1530 0 1530 40 1590 40 1590 0 1610 0"/><polygon class="cls-1" points="20 20 20 40 100 40 100 60 20 60 20 80 100 80 100 100 0 100 0 0 100 0 100 20 20 20"/><polygon class="cls-2" points="1130 20 1130 40 1210 40 1210 60 1130 60 1130 80 1210 80 1210 100 1110 100 1110 0 1210 0 1210 20 1130 20"/><polygon class="cls-2" points="1430 80 1430 100 1330 100 1330 0 1350 0 1350 80 1430 80"/><path class="cls-1" d="M690,0a50,50,0,1,0,50,50A50.005,50.005,0,0,0,690,0Zm0,80a30,30,0,1,1,30-30A30,30,0,0,1,690,80Z"/><path class="cls-1" d="M450.77,1.95,449.99,0H430.01l-.78,1.94L390,100h21.55l11.2-28h34.5l11.2,28H490ZM430.75,52,440,28.87,449.25,52Z"/><path class="cls-2" d="M1280.77,1.95,1279.99,0h-19.98l-.78,1.94L1220,100h21.55l11.2-28h34.5l11.2,28H1320ZM1260.75,52,1270,28.87,1279.25,52Z"/><polygon class="cls-2" points="1500 0 1500 20 1460 20 1460 100 1440 100 1440 20 1400 20 1400 0 1500 0"/><polygon class="cls-1" points="570 0 570 20 530 20 530 100 510 100 510 20 470 20 470 0 570 0"/><polygon class="cls-1" points="209.98 0 170.76 98.07 169.99 100 149.99 100 149.22 98.07 110 0 131.54 0 159.99 71.14 188.45 0 209.98 0"/></g></g></g></svg>