<svg xmlns="http://www.w3.org/2000/svg" viewBox="0 0 1160.511 108.251"><defs><style>.cls-1{fill:#366ce1;}.cls-2,.cls-3,.cls-4{fill:#121221;}.cls-2{opacity:0.62;}.cls-3{opacity:0.38;}</style></defs><title>evolution</title><g id="Слой_2" data-name="Слой 2"><g id="Work_space" data-name="Work space"><g id="evolution"><polygon class="cls-1" points="77.704 13.462 77.704 40.396 77.699 40.398 54.381 26.939 31.061 40.398 31.056 40.396 31.056 13.462 54.381 0 77.704 13.462"/><polygon class="cls-1" points="54.38 35.89 31.06 49.349 54.374 35.883 77.7 49.351 54.38 35.89"/><polygon class="cls-1" points="54.378 89.75 31.05 76.281 31.053 49.353 31.06 49.349 54.38 62.813 77.7 49.351 77.701 49.352 77.701 49.357 54.383 62.822 54.382 89.747 54.378 89.75"/><polygon class="cls-2" points="54.378 89.75 31.05 76.281 31.053 49.353 31.06 49.349 54.38 62.813 77.7 49.351 77.701 49.352 77.701 49.357 54.383 62.822 54.382 89.747 54.378 89.75"/><polygon class="cls-1" points="54.382 89.747 54.383 62.822 77.701 49.357 77.697 76.282 54.382 89.747"/><polygon class="cls-1" points="54.38 62.813 31.06 49.349 54.38 35.89 77.7 49.351 54.38 62.813"/><polygon class="cls-1" points="86.423 108.251 63.097 94.784 63.098 94.779 86.413 81.314 86.417 54.389 86.421 54.386 109.747 67.853 109.743 94.784 86.423 108.251"/><polygon class="cls-3" points="54.382 89.747 54.383 62.822 77.701 49.357 77.697 76.282 54.382 89.747"/><polygon class="cls-3" points="86.423 108.251 63.097 94.784 63.098 94.779 86.413 81.314 86.417 54.389 86.421 54.386 109.747 67.853 109.743 94.784 86.423 108.251"/><polygon class="cls-1" points="0 67.286 23.326 53.818 23.33 53.821 23.333 80.745 46.649 94.211 46.65 94.216 23.324 107.684 0.003 94.214 0 67.286"/><polygon class="cls-2" points="0 67.286 23.326 53.818 23.33 53.821 23.333 80.745 46.649 94.211 46.65 94.216 23.324 107.684 0.003 94.214 0 67.286"/><path class="cls-4" d="M990.511,4.126a50,50,0,1,0,50,50A50.005,50.005,0,0,0,990.511,4.126Zm0,90a40,40,0,1,1,40-40A40,40,0,0,1,990.511,94.126Z"/><path class="cls-4" d="M440.511,4.126a50,50,0,1,0,50,50A50.005,50.005,0,0,0,440.511,4.126Zm0,90a40,40,0,1,1,40-40A40,40,0,0,1,440.511,94.126Z"/><polygon class="cls-4" points="170.521 14.126 170.521 49.126 260.521 49.126 260.521 59.126 170.521 59.126 170.521 94.126 260.521 94.126 260.521 104.126 160.521 104.126 160.521 4.126 260.521 4.126 260.521 14.126 170.521 14.126"/><polygon class="cls-4" points="610.511 94.126 610.511 104.126 510.511 104.126 510.511 4.126 520.511 4.126 520.511 94.126 610.511 94.126"/><polygon class="cls-4" points="840.511 4.126 840.511 14.126 795.511 14.126 795.511 104.126 785.511 104.126 785.511 14.126 740.511 14.126 740.511 4.126 840.511 4.126"/><polygon class="cls-4" points="895.511 14.126 895.511 94.126 920.511 94.126 920.511 104.126 860.511 104.126 860.511 94.126 885.511 94.126 885.511 14.126 860.511 14.126 860.511 4.126 920.511 4.126 920.511 14.126 895.511 14.126"/><polygon class="cls-4" points="1160.511 4.126 1160.511 104.126 1150.581 104.126 1150.511 104.046 1070.511 18.716 1070.511 104.126 1060.511 104.126 1060.511 4.126 1070.531 4.126 1150.511 89.426 1150.511 4.126 1160.511 4.126"/><polygon class="cls-4" points="380.511 4.126 335.991 102.906 335.451 104.126 325.571 104.126 325.031 102.926 280.521 4.126 291.491 4.126 330.511 90.746 369.541 4.126 380.511 4.126"/><path class="cls-4" d="M720.511,4.126v50a50,50,0,0,1-100,0v-50h10v50a40,40,0,0,0,80,0v-50Z"/></g></g></g></svg>