<svg xmlns="http://www.w3.org/2000/svg" viewBox="0 0 703.78 317.831"><defs><style>.cls-1{fill:#121221;}.cls-2{fill:#366ce1;}</style></defs><title>examsoftware</title><g id="Complete"><g id="examsoftware"><polygon class="cls-1" points="293.78 105.701 81.65 317.831 0 236.191 21.22 214.981 74.57 268.331 265.49 77.411 293.78 105.701"/><rect class="cls-2" x="21.4" y="107.831" width="100" height="100"/><rect class="cls-2" x="344.304" y="320.711" width="100" height="100" transform="translate(171.401 -470.236) rotate(45)"/><polygon class="cls-1" points="313.78 170 313.78 190 393.78 190 393.78 210 313.78 210 313.78 230 393.78 230 393.78 250 293.78 250 293.78 150 393.78 150 393.78 170 313.78 170"/><polygon class="cls-1" points="703.78 150 703.78 250 683.78 250 683.78 180 653.78 210 623.78 180 623.78 250 603.78 250 603.78 150 623.78 150 653.78 180 683.78 150 703.78 150"/><polygon class="cls-2" points="458.78 200 488.78 230 473.78 245 443.78 215 413.78 245 398.78 230 428.78 200 398.78 170 413.78 155 443.78 185 473.78 155 488.78 170 458.78 200"/><path class="cls-1" d="M700,450V550h20V520h60v30h20V450Zm80,50H720V470h60Z" transform="translate(-206.22 -300)"/></g></g></svg>