<svg id="Main" xmlns="http://www.w3.org/2000/svg" viewBox="0 0 441.092 416.869"><defs><style>.cls-1{fill:#121221;}.cls-1,.cls-2{stroke:#e1e0e0;stroke-miterlimit:10;stroke-width:20px;}.cls-2{fill:#366ce1;}</style></defs><title>F#</title><g id="F_" data-name="F#"><path class="cls-1" d="M709.78,501.85,513.967,697.663a2.617,2.617,0,0,1-4.467-1.851V622.194a2.618,2.618,0,0,1,.767-1.851L628.759,501.85a2.616,2.616,0,0,0,0-3.7L510.267,379.657a2.618,2.618,0,0,1-.767-1.851V304.188a2.617,2.617,0,0,1,4.467-1.851L709.78,498.15A2.616,2.616,0,0,1,709.78,501.85Z" transform="translate(-279.454 -291.566)"/><path class="cls-2" d="M489.733,379.657,371.241,498.15a2.616,2.616,0,0,0,0,3.7L489.733,620.343a2.618,2.618,0,0,1,.767,1.851v73.618a2.617,2.617,0,0,1-4.467,1.851L290.22,501.85a2.616,2.616,0,0,1,0-3.7L486.033,302.337a2.617,2.617,0,0,1,4.467,1.851v73.618A2.618,2.618,0,0,1,489.733,379.657Z" transform="translate(-279.454 -291.566)"/><path class="cls-1" d="M490.5,382.8V617.2a1.618,1.618,0,0,1-2.762,1.144l-117.2-117.2a1.618,1.618,0,0,1,0-2.288l117.2-117.2A1.618,1.618,0,0,1,490.5,382.8Z" transform="translate(-279.454 -291.566)"/><path class="cls-2" d="M629.466,501.144l-117.2,117.2A1.618,1.618,0,0,1,509.5,617.2V382.8a1.618,1.618,0,0,1,2.762-1.144l117.2,117.2A1.618,1.618,0,0,1,629.466,501.144Z" transform="translate(-279.454 -291.566)"/></g></svg>