<svg xmlns="http://www.w3.org/2000/svg" viewBox="0 0 940 240"><defs><style>.cls-1{fill:#121221;}.cls-2{fill:#366ce1;}</style></defs><title>facebook</title><g id="Слой_2" data-name="Слой 2"><g id="Work_space" data-name="Work space"><g id="facebook"><path class="cls-1" d="M543.936,136.329q4.467,5.871,8.921,11.735a35.715,35.715,0,1,1,0-47.557q-4.457,5.871-8.921,11.736a21.428,21.428,0,1,0,0,24.086Z"/><polygon class="cls-1" points="330 80 330 100 390 100 390 120 330 120 330 160 310 160 310 60 410 60 410 80 330 80"/><path class="cls-1" d="M467.852,95.337c-34.649-21.768-71.178,12.977-53.04,47.688a33.83,33.83,0,0,0,12.079,12.113c14.872,7.821,29.788,5.585,40.252-2.288V160h14.286V119.989A29.1,29.1,0,0,0,467.852,95.337Zm-9.213,46.544c-21.251,12.928-43.448-9.269-30.52-30.52a13.988,13.988,0,0,1,4.67-4.67c21.252-12.929,43.449,9.268,30.52,30.52A13.988,13.988,0,0,1,458.639,141.881Z"/><path class="cls-1" d="M668.571,88.571a35.523,35.523,0,0,0-21.428,7.15V60H632.857v64.286a35.715,35.715,0,1,0,35.714-35.715Zm0,57.143A21.429,21.429,0,1,1,690,124.286,21.427,21.427,0,0,1,668.571,145.714Z"/><path class="cls-1" d="M747.143,88.571a35.715,35.715,0,1,0,35.714,35.715A35.718,35.718,0,0,0,747.143,88.571Zm0,57.143a21.429,21.429,0,1,1,21.428-21.428A21.427,21.427,0,0,1,747.143,145.714Z"/><path class="cls-1" d="M825.714,88.571a35.715,35.715,0,1,0,35.715,35.715A35.718,35.718,0,0,0,825.714,88.571Zm0,57.143a21.429,21.429,0,1,1,21.429-21.428A21.427,21.427,0,0,1,825.714,145.714Z"/><path class="cls-1" d="M624.993,131.429a35.744,35.744,0,0,0,0-14.286,35.714,35.714,0,0,0-69.986,0,35.744,35.744,0,0,0,0,14.286,35.7,35.7,0,0,0,59.05,19.242q-5.689-4.553-11.386-9.107A21.423,21.423,0,0,1,569.8,131.429ZM590,102.857a21.413,21.413,0,0,1,20.2,14.286H569.8A21.413,21.413,0,0,1,590,102.857Z"/><polygon class="cls-1" points="940 159.993 940 160 918.664 160 889.65 133.879 882.857 140 882.857 160 868.571 160 868.571 60 882.857 60 882.857 120.779 889.65 114.657 918.621 88.571 939.979 88.571 900.329 124.271 940 159.993"/><path class="cls-2" d="M190,55V75H155a5,5,0,0,0-5,5V220H130V80a24.972,24.972,0,0,1,25-25Z"/><rect class="cls-2" x="90" y="125" width="100" height="20"/><path class="cls-2" d="M120,0A120,120,0,1,0,240,120,120.005,120.005,0,0,0,120,0Zm0,220A100,100,0,1,1,220,120,100,100,0,0,1,120,220Z"/></g></g></g></svg>