<svg xmlns="http://www.w3.org/2000/svg" viewBox="0 0 959.613 173.2"><defs><style>.cls-1{fill:#121221;}.cls-2{fill:#366ce1;}</style></defs><title>facility</title><g id="Слой_2" data-name="Слой 2"><g id="Work_space" data-name="Work space"><g id="facility"><polygon class="cls-1" points="909.613 136.6 909.613 173.2 877.913 154.9 888.483 136.6 909.613 136.6"/><polygon class="cls-1" points="841.313 18.3 830.743 36.6 809.613 36.6 809.613 0 841.313 18.3"/><polygon class="cls-1" points="841.313 154.9 809.613 173.2 809.613 136.6 830.743 136.6 841.313 154.9"/><polygon class="cls-1" points="801.883 86.6 791.313 104.9 759.613 86.6 791.313 68.3 801.883 86.6"/><polygon class="cls-1" points="909.613 0 909.613 36.6 888.483 36.6 877.913 18.3 909.613 0"/><polygon class="cls-1" points="959.613 86.6 927.913 104.9 917.343 86.6 927.913 68.3 959.613 86.6"/><polygon class="cls-2" points="917.343 86.6 888.483 136.6 830.743 136.6 801.883 86.6 830.743 36.6 888.483 36.6 917.343 86.6"/><polygon class="cls-1" points="632.793 36.6 632.793 46.6 587.793 46.6 587.793 136.6 577.793 136.6 577.793 46.6 532.793 46.6 532.793 36.6 632.793 36.6"/><path class="cls-1" d="M261.073,114.88l7.07,7.07a50,50,0,1,1,0-70.7l-7.07,7.07a40,40,0,1,0,0,56.56Z"/><path class="cls-1" d="M162.493,91.6l-4.51-10-19.71-43.73.01-.01-.49-1.08h-.01l-.08-.18h-9.84l-.08.18v.02l-.47,1.05h-.01L107.583,81.6l-4.51,10-20.28,45h10.97l20.28-45h37.48l20.28,45h10.97Zm-19.71-2.96-.02-.04h.02Zm-24.23-7.04,14.23-31.58,14.24,31.58Z"/><polygon class="cls-1" points="452.793 126.6 452.793 136.6 352.793 136.6 352.793 36.6 362.793 36.6 362.793 126.6 452.793 126.6"/><polygon class="cls-1" points="317.793 46.6 317.793 126.6 342.793 126.6 342.793 136.6 282.793 136.6 282.793 126.6 307.793 126.6 307.793 46.6 282.793 46.6 282.793 36.6 342.793 36.6 342.793 46.6 317.793 46.6"/><polygon class="cls-1" points="497.793 46.6 497.793 126.6 522.793 126.6 522.793 136.6 462.793 136.6 462.793 126.6 487.793 126.6 487.793 46.6 462.793 46.6 462.793 36.6 522.793 36.6 522.793 46.6 497.793 46.6"/><polygon class="cls-1" points="10 46.6 10 81.6 70 81.6 70 91.6 10 91.6 10 136.6 0 136.6 0 36.6 100 36.6 100 46.6 10 46.6"/><polygon class="cls-1" points="742.793 36.6 699.533 84.76 697.803 86.69 697.803 136.6 687.803 136.6 687.803 86.66 686.093 84.76 642.833 36.6 656.283 36.6 692.813 77.28 729.353 36.6 742.793 36.6"/></g></g></g></svg>