<svg xmlns="http://www.w3.org/2000/svg" viewBox="0 0 890 100"><defs><style>.cls-1{fill:#121221;}.cls-2,.cls-3,.cls-4{fill:#366ce1;}.cls-3{opacity:0.62;}.cls-4{opacity:0.38;}</style></defs><title>facilio</title><g id="Слой_2" data-name="Слой 2"><g id="Work_space" data-name="Work space"><g id="facilio"><polygon class="cls-1" points="20 20 20 40 80 40 80 60 20 60 20 100 0 100 0 0 100 0 100 20 20 20"/><polygon class="cls-1" points="340 20 340 80 360 80 360 100 300 100 300 80 320 80 320 20 300 20 300 0 360 0 360 20 340 20"/><polygon class="cls-1" points="520 20 520 80 540 80 540 100 480 100 480 80 500 80 500 20 480 20 480 0 540 0 540 20 520 20"/><polygon class="cls-1" points="470 80 470 100 370 100 370 0 390 0 390 80 470 80"/><path class="cls-1" d="M600,0a50,50,0,1,0,50,50A50.005,50.005,0,0,0,600,0Zm0,80a30,30,0,1,1,30-30A30,30,0,0,1,600,80Z"/><path class="cls-1" d="M268.28,60h20.71a50,50,0,1,1,0-20H268.28a30,30,0,1,0,0,20Z"/><path class="cls-1" d="M150.77,1.95,149.99,0H130.01l-.78,1.94L90,100h21.55l11.2-28h34.5l11.2,28H190ZM130.75,52,140,28.87,149.25,52Z"/><rect class="cls-2" x="670" width="60" height="20"/><rect class="cls-3" x="670" y="80" width="60" height="20"/><rect class="cls-2" x="830" width="60" height="20"/><rect class="cls-3" x="830" y="80" width="60" height="20"/><rect class="cls-4" x="690" y="20" width="20" height="60"/><rect class="cls-4" x="850" y="20" width="20" height="60"/><polygon class="cls-1" points="830 80 830 100 730 100 730 20 750 20 750 0 790 0 790 20 770 20 770 40 750 40 750 80 830 80"/></g></g></g></svg>