<svg id="Main" xmlns="http://www.w3.org/2000/svg" viewBox="0 0 539.5 120"><defs><style>.cls-1{fill:#121221;}.cls-2{fill:#366ce1;}</style></defs><title>fern</title><g id="Fern"><path class="cls-1" d="M329.25,460.5l-7.07,7.07a60.017,60.017,0,0,0-84.86,0l-7.07-7.07a70.012,70.012,0,0,1,99,0Z" transform="translate(-230.25 -440)"/><path class="cls-1" d="M315.1,474.65l-7.07,7.07a39.979,39.979,0,0,0-56.56,0l-7.07-7.07a49.974,49.974,0,0,1,70.7,0Z" transform="translate(-230.25 -440)"/><path class="cls-1" d="M300.96,488.79l-7.07,7.07a19.99,19.99,0,0,0-28.28,0l-7.07-7.07a29.985,29.985,0,0,1,42.42,0Z" transform="translate(-230.25 -440)"/><rect class="cls-1" x="44.5" y="70" width="10" height="50"/><rect class="cls-1" x="109.5" y="20" width="10" height="100"/><rect class="cls-1" x="439.5" y="20" width="10" height="100"/><rect class="cls-1" x="529.5" y="20" width="10" height="100"/><rect class="cls-1" x="219.5" y="20" width="10" height="100"/><path class="cls-2" d="M289.75,510a10,10,0,1,1-2.93-7.07A10,10,0,0,1,289.75,510Z" transform="translate(-230.25 -440)"/><rect class="cls-1" x="109.5" y="20" width="100" height="10"/><rect class="cls-1" x="219.5" y="20" width="100" height="10"/><rect class="cls-1" x="219.5" y="110" width="100" height="10"/><rect class="cls-1" x="114.5" y="70" width="50" height="10"/><rect class="cls-1" x="224.5" y="65" width="50" height="10"/><path class="cls-1" d="M639.75,460.5a25.013,25.013,0,0,0-5-.5h-75V560h10V510h65a25,25,0,0,0,5-49.5Zm0,38.64a14.839,14.839,0,0,1-5,.86h-65V470h65a14.839,14.839,0,0,1,5,.86,15,15,0,0,1,0,28.28Z" transform="translate(-230.25 -440)"/><polygon class="cls-1" points="439.5 20 449.5 20 539.5 120 529.5 120 439.5 20"/><polygon class="cls-1" points="389.5 70 399.5 70 429.5 120 419.5 120 389.5 70"/></g></svg>