<svg xmlns="http://www.w3.org/2000/svg" viewBox="0 0 810 472.373"><defs><style>.cls-1{fill:#366ce1;}.cls-2{fill:#121221;}</style></defs><title>fetch robotics</title><g id="Слой_2" data-name="Слой 2"><g id="Work_space" data-name="Work space"><g id="fetch_robotics" data-name="fetch robotics"><path class="cls-1" d="M538.28,312.373h20.71a50,50,0,1,1,0-20H538.28a30,30,0,1,0,0,20Z"/><polygon class="cls-1" points="160 272.373 160 292.373 220 292.373 220 312.373 160 312.373 160 352.373 140 352.373 140 252.373 240 252.373 240 272.373 160 272.373"/><polygon class="cls-2" points="580 392.373 580 452.373 600 452.373 600 472.373 540 472.373 540 452.373 560 452.373 560 392.373 540 392.373 540 372.373 600 372.373 600 392.373 580 392.373"/><path class="cls-2" d="M730,402.373a10,10,0,0,0,10,10h40a30,30,0,0,1,0,60H710v-20h70a10,10,0,0,0,0-20H740a30,30,0,0,1,0-60h70v20H740A10,10,0,0,0,730,402.373Z"/><polygon class="cls-1" points="670 252.373 670 352.373 650 352.373 650 312.373 590 312.373 590 352.373 570 352.373 570 252.373 590 252.373 590 292.373 650 292.373 650 252.373 670 252.373"/><polygon class="cls-1" points="270 272.373 270 292.373 350 292.373 350 312.373 270 312.373 270 332.373 350 332.373 350 352.373 250 352.373 250 252.373 350 252.373 350 272.373 270 272.373"/><path class="cls-2" d="M100,402.373a30,30,0,0,0-30-30H0v100H20v-40H70a10,10,0,0,1,10,10v30h20v-30a29.862,29.862,0,0,0-7.65-20A29.862,29.862,0,0,0,100,402.373Zm-80,10v-20H70a10,10,0,0,1,0,20Z"/><path class="cls-2" d="M160,372.373a50,50,0,1,0,50,50A50.005,50.005,0,0,0,160,372.373Zm0,80a30,30,0,1,1,30-30A30,30,0,0,1,160,452.373Z"/><path class="cls-2" d="M380,372.373a50,50,0,1,0,50,50A50.005,50.005,0,0,0,380,372.373Zm0,80a30,30,0,1,1,30-30A30,30,0,0,1,380,452.373Z"/><path class="cls-2" d="M678.28,432.373h20.71a50,50,0,1,1,0-20H678.28a30,30,0,1,0,0,20Z"/><path class="cls-2" d="M320,402.373a30,30,0,0,0-30-30H220v100h70a29.991,29.991,0,0,0,22.35-50A29.862,29.862,0,0,0,320,402.373Zm-80-10h50a10,10,0,0,1,0,20H240Zm50,60H240v-20h50a10,10,0,0,1,0,20Z"/><polygon class="cls-2" points="530 372.373 530 392.373 490 392.373 490 472.373 470 472.373 470 392.373 430 392.373 430 372.373 530 372.373"/><polygon class="cls-1" points="460 252.373 460 272.373 420 272.373 420 352.373 400 352.373 400 272.373 360 272.373 360 252.373 460 252.373"/><path class="cls-1" d="M422.492,17.429a17.43,17.43,0,1,0-17.429,17.43A17.428,17.428,0,0,0,422.492,17.429Zm-29.049,0a11.62,11.62,0,1,1,11.62,11.62A11.617,11.617,0,0,1,393.443,17.429Z"/><circle class="cls-2" cx="405.063" cy="17.429" r="11.62"/><rect class="cls-2" x="326.185" y="78.877" width="157.452" height="34.556" transform="translate(501.067 -308.756) rotate(90)"/><path class="cls-1" d="M508.894,74.918a23.239,23.239,0,1,0,0-32.865A23.24,23.24,0,0,0,508.894,74.918ZM513,70.81a17.429,17.429,0,1,1,24.649,0A17.429,17.429,0,0,1,513,70.81Z"/><circle class="cls-2" cx="525.326" cy="58.486" r="17.429"/><rect class="cls-2" x="399.43" y="87.394" width="147.73" height="47.043" transform="translate(886.395 -145.325) rotate(135)"/><path class="cls-1" d="M299.971,42.053a23.239,23.239,0,1,0,0,32.865A23.24,23.24,0,0,0,299.971,42.053ZM271.214,70.81a17.429,17.429,0,1,1,24.649,0A17.429,17.429,0,0,1,271.214,70.81Z"/><circle class="cls-2" cx="283.539" cy="58.486" r="17.429"/><rect class="cls-2" x="261.705" y="87.394" width="147.73" height="47.043" transform="translate(176.716 -204.797) rotate(45)"/><path class="cls-1" d="M222.509,146.509a29.049,29.049,0,1,0,29.049,29.049A29.052,29.052,0,0,0,222.509,146.509Zm0,52.289a23.24,23.24,0,1,1,23.239-23.24A23.241,23.241,0,0,1,222.509,198.8Z"/><circle class="cls-2" cx="222.509" cy="175.558" r="23.239"/><rect class="cls-2" x="222.064" y="146.509" width="182.936" height="58.098"/><path class="cls-1" d="M558.442,175.558a29.049,29.049,0,1,0,29.049-29.049A29.052,29.052,0,0,0,558.442,175.558Zm5.81,0a23.239,23.239,0,1,1,23.239,23.24A23.24,23.24,0,0,1,564.252,175.558Z"/><circle class="cls-2" cx="587.491" cy="175.558" r="23.239"/><rect class="cls-2" x="405" y="146.509" width="182.936" height="58.098" transform="translate(992.936 351.116) rotate(180)"/><path class="cls-1" d="M376.362,175.7a29.049,29.049,0,1,0,29.049-29.049A29.052,29.052,0,0,0,376.362,175.7Zm5.81,0a23.239,23.239,0,1,1,23.239,23.24A23.24,23.24,0,0,1,382.172,175.7Z"/><circle class="cls-2" cx="405.411" cy="175.697" r="23.239"/><path class="cls-1" d="M387.981,175.845a17.43,17.43,0,1,0,17.43-17.43A17.428,17.428,0,0,0,387.981,175.845Zm5.81,0a11.62,11.62,0,1,1,11.62,11.619A11.617,11.617,0,0,1,393.791,175.845Z"/><circle class="cls-2" cx="405.411" cy="175.845" r="11.62"/></g></g></g></svg>