<svg xmlns="http://www.w3.org/2000/svg" viewBox="0 0 1080 370"><defs><style>.cls-1{fill:#121221;}.cls-2{fill:#366ce1;}</style></defs><title>field management</title><g id="Complete"><g id="ai_field_management" data-name="ai field management"><polygon class="cls-1" points="310 180 310 200 370 200 370 220 310 220 310 260 290 260 290 160 390 160 390 180 310 180"/><polygon class="cls-1" points="440 180 440 240 460 240 460 260 400 260 400 240 420 240 420 180 400 180 400 160 460 160 460 180 440 180"/><path class="cls-1" d="M700,450H650V550h50a50,50,0,0,0,0-100Zm0,80H670V470h30a30,30,0,0,1,0,60Z" transform="translate(40 -290)"/><polygon class="cls-1" points="490 180 490 200 570 200 570 220 490 220 490 240 570 240 570 260 470 260 470 160 570 160 570 180 490 180"/><polygon class="cls-1" points="680 240 680 260 580 260 580 160 600 160 600 240 680 240"/><path class="cls-1" d="M510.77,341.95l-.78-1.95H490.01l-.78,1.94L450,440h21.55l11.2-28h34.5l11.2,28H550ZM490.75,392,500,368.87,509.25,392Z" transform="translate(40 -290)"/><polygon class="cls-1" points="320 270 320 370 300 370 240 300.59 240 370 220 370 220 270 240 270 300 339.41 300 270 320 270"/><polygon class="cls-1" points="970 270 970 370 950 370 890 300.59 890 370 870 370 870 270 890 270 950 339.41 950 270 970 270"/><polygon class="cls-1" points="100 270 100 370 80 370 80 300.59 63.2 320.05 49.99 335.36 36.78 320.05 20 300.62 20 370 0 370 0 270 20 270 20 270.01 49.99 304.75 79.98 270 100 270"/><polygon class="cls-1" points="750 270 750 370 730 370 730 300.59 713.2 320.05 699.99 335.36 686.78 320.05 670 300.62 670 370 650 370 650 270 670 270 670 270.01 699.99 304.75 729.98 270 750 270"/><polygon class="cls-1" points="1080 270 1080 290 1040 290 1040 370 1020 370 1020 290 980 290 980 270 1080 270"/><polygon class="cls-1" points="560 290 560 310 640 310 640 330 560 330 560 350 640 350 640 370 540 370 540 270 640 270 640 290 560 290"/><polygon class="cls-1" points="780 290 780 310 860 310 860 330 780 330 780 350 860 350 860 370 760 370 760 270 860 270 860 290 780 290"/><path class="cls-1" d="M130.77,561.95l-.78-1.95H110.01l-.78,1.94L70,660H91.55l11.2-28h34.5l11.2,28H170ZM110.75,612,120,588.87,129.25,612Z" transform="translate(40 -290)"/><path class="cls-1" d="M350.77,561.95l-.78-1.95H330.01l-.78,1.94L290,660h21.55l11.2-28h34.5l11.2,28H390ZM330.75,612,340,588.87,349.25,612Z" transform="translate(40 -290)"/><path class="cls-1" d="M490,600v10a49.16,49.16,0,0,1-1.01,10,50.013,50.013,0,1,1-13.64-45.35l-14.14,14.14A30,30,0,1,0,468.28,620H440V600Z" transform="translate(40 -290)"/><polygon class="cls-2" points="550 70 550 130 570 130 570 150 510 150 510 130 530 130 530 70 510 70 510 50 570 50 570 70 550 70"/><path class="cls-2" d="M510,290a10,10,0,0,0-10,10,19.993,19.993,0,0,0,1.64,7.94,19.992,19.992,0,0,0-.63,14.2A19.974,19.974,0,0,0,490,340h10a10,10,0,0,1,10-10,20,20,0,0,0,0-40Zm.88,29.96a10.34,10.34,0,0,1-.77-2.58,19.415,19.415,0,0,0,3.99,1.73A9.64,9.64,0,0,1,510.88,319.96ZM510,300a10,10,0,0,1,10,10A10,10,0,0,1,510,300Z" transform="translate(40 -290)"/><path class="cls-1" d="M498.99,322.14a19.992,19.992,0,0,0-.63-14.2A19.993,19.993,0,0,0,500,300a10,10,0,0,0-10-10,20,20,0,0,0,0,40,10,10,0,0,1,10,10h10A19.974,19.974,0,0,0,498.99,322.14ZM490,300a10,10,0,0,1-10,10A10,10,0,0,1,490,300Zm-.11,17.38a10.34,10.34,0,0,1-.77,2.58,9.64,9.64,0,0,1-3.22-.85A19.415,19.415,0,0,0,489.89,317.38Z" transform="translate(40 -290)"/></g></g></svg>