<svg xmlns="http://www.w3.org/2000/svg" viewBox="0 0 1167 400"><defs><style>.cls-1{fill:#366ce1;}.cls-2{fill:#121221;}</style></defs><title>FinancialOracleCloud</title><g id="Слой_2" data-name="Слой 2"><g id="Complete"><g id="FinancialOracleCloud"><path class="cls-1" d="M727.79,240H748.5a50,50,0,1,1,0-20H727.79a30,30,0,1,0,0,20Z"/><polygon class="cls-1" points="158.5 200 158.5 220 218.5 220 218.5 240 158.5 240 158.5 280 138.5 280 138.5 180 238.5 180 238.5 200 158.5 200"/><polygon class="cls-1" points="288.5 200 288.5 260 308.5 260 308.5 280 248.5 280 248.5 260 268.5 260 268.5 200 248.5 200 248.5 180 308.5 180 308.5 200 288.5 200"/><polygon class="cls-1" points="788.5 200 788.5 260 808.5 260 808.5 280 748.5 280 748.5 260 768.5 260 768.5 200 748.5 200 748.5 180 808.5 180 808.5 200 788.5 200"/><polygon class="cls-1" points="418.5 180 418.5 280 398.5 280 338.5 210.59 338.5 280 318.5 280 318.5 180 338.5 180 398.5 249.41 398.5 180 418.5 180"/><polygon class="cls-1" points="638.5 180 638.5 280 618.5 280 558.5 210.59 558.5 280 538.5 280 538.5 180 558.5 180 618.5 249.41 618.5 180 638.5 180"/><polygon class="cls-1" points="1028.5 260 1028.5 280 928.5 280 928.5 180 948.5 180 948.5 260 1028.5 260"/><path class="cls-1" d="M489.27,181.95l-.78-1.95H468.51l-.78,1.94L428.5,280h21.55l11.2-28h34.5l11.2,28H528.5ZM469.25,232l9.25-23.13L487.75,232Z"/><path class="cls-1" d="M879.27,181.95l-.78-1.95H858.51l-.78,1.94L818.5,280h21.55l11.2-28h34.5l11.2,28H918.5ZM859.25,232l9.25-23.13L877.75,232Z"/><path class="cls-2" d="M716.29,360H737a50,50,0,1,1,0-20H716.29a30,30,0,1,0,0,20Z"/><path class="cls-2" d="M1117,300h-50V400h50a50,50,0,0,0,0-100Zm0,80h-30V320h30a30,30,0,0,1,0,60Z"/><path class="cls-2" d="M1057,300v50a50,50,0,0,1-100,0V300h20v50a30,30,0,0,0,60,0V300Z"/><polygon class="cls-2" points="847 380 847 400 747 400 747 300 767 300 767 380 847 380"/><path class="cls-2" d="M897,300a50,50,0,1,0,50,50A50.005,50.005,0,0,0,897,300Zm0,80a30,30,0,1,1,30-30A30,30,0,0,1,897,380Z"/><path class="cls-2" d="M50,300a50,50,0,1,0,50,50A50.005,50.005,0,0,0,50,300Zm0,90a40,40,0,1,1,40-40A40,40,0,0,1,50,390Z"/><path class="cls-2" d="M389.93,378.28l7.07,7.07a50,50,0,1,1,0-70.7l-7.07,7.07a40,40,0,1,0,0,56.56Z"/><polygon class="cls-2" points="527 310 527 345 617 345 617 355 527 355 527 390 617 390 617 400 517 400 517 300 617 300 617 310 527 310"/><path class="cls-2" d="M299.7,355l-4.51-10-19.71-43.73.01-.01-.49-1.08h-.01l-.08-.18h-9.84l-.08.18v.02l-.47,1.05h-.01L244.79,345l-4.51,10L220,400h10.97l20.28-45h37.48l20.28,45h10.97Zm-19.71-2.96-.02-.04h.02ZM255.76,345l14.23-31.58L284.23,345Z"/><path class="cls-2" d="M196.57,355A29.994,29.994,0,0,0,180,300H110V400h10V360h60a19.994,19.994,0,0,1,20,20v20h10V380A29.923,29.923,0,0,0,196.57,355ZM170,352.04l-.02-.04H170ZM180,350H120V310h60a20,20,0,0,1,0,40Z"/><polygon class="cls-2" points="507 390 507 400 407 400 407 300 417 300 417 390 507 390"/><path class="cls-1" d="M654.85,61.8c-.76,0-1.51.02-2.26.06a80.909,80.909,0,1,0-157.24,38.22c-.76-.05-1.53-.08-2.3-.08a30.9,30.9,0,0,0,0,61.8h161.8a50,50,0,0,0,0-100ZM600.83,86.44l-21.85,21.85-7.07-7.07,21.85-21.85ZM582.2,40.8l7.07,7.07L553.92,83.23l-7.07-7.07Zm13.78,100.63-57.21-57.2,7.08-7.07,57.2,57.2Z"/></g></g></g></svg>