<svg xmlns="http://www.w3.org/2000/svg" viewBox="0 0 1390 220"><defs><style>.cls-1{fill:#366ce1;}.cls-2,.cls-3,.cls-4{fill:#121221;}.cls-3{opacity:0.62;}.cls-4{opacity:0.38;}</style></defs><title>financial management</title><g id="Слой_2" data-name="Слой 2"><g id="Work_space" data-name="Work space"><g id="financial_management" data-name="financial management"><path class="cls-1" d="M598.28,60h20.71a50,50,0,1,1,0-20H598.28a30,30,0,1,0,0,20Z"/><polygon class="cls-1" points="20 20 20 40 80 40 80 60 20 60 20 100 0 100 0 0 100 0 100 20 20 20"/><polygon class="cls-1" points="150 20 150 80 170 80 170 100 110 100 110 80 130 80 130 20 110 20 110 0 170 0 170 20 150 20"/><polygon class="cls-1" points="660 20 660 80 680 80 680 100 620 100 620 80 640 80 640 20 620 20 620 0 680 0 680 20 660 20"/><polygon class="cls-1" points="290 0 290 100 270 100 210 30.59 210 100 190 100 190 0 210 0 270 69.41 270 0 290 0"/><polygon class="cls-2" points="320 120 320 220 300 220 240 150.59 240 220 220 220 220 120 240 120 300 189.41 300 120 320 120"/><polygon class="cls-2" points="970 120 970 220 950 220 890 150.59 890 220 870 220 870 120 890 120 950 189.41 950 120 970 120"/><polygon class="cls-1" points="510 0 510 100 490 100 430 30.59 430 100 410 100 410 0 430 0 490 69.41 490 0 510 0"/><polygon class="cls-2" points="100 120 100 220 80 220 80 150.59 63.2 170.05 49.99 185.36 36.78 170.05 20 150.62 20 220 0 220 0 120 20 120 20 120.01 49.99 154.75 79.98 120 100 120"/><polygon class="cls-2" points="750 120 750 220 730 220 730 150.59 713.2 170.05 699.99 185.36 686.78 170.05 670 150.62 670 220 650 220 650 120 670 120 670 120.01 699.99 154.75 729.98 120 750 120"/><polygon class="cls-2" points="560 140 560 160 640 160 640 180 560 180 560 200 640 200 640 220 540 220 540 120 640 120 640 140 560 140"/><polygon class="cls-2" points="780 140 780 160 860 160 860 180 780 180 780 200 860 200 860 220 760 220 760 120 860 120 860 140 780 140"/><polygon class="cls-1" points="890 80 890 100 790 100 790 0 810 0 810 80 890 80"/><path class="cls-1" d="M360.77,1.95,359.99,0H340.01l-.78,1.94L300,100h21.55l11.2-28h34.5l11.2,28H400ZM340.75,52,350,28.87,359.25,52Z"/><path class="cls-2" d="M390.77,121.95l-.78-1.95H370.01l-.78,1.94L330,220h21.55l11.2-28h34.5l11.2,28H430ZM370.75,172,380,148.87,389.25,172Z"/><path class="cls-2" d="M170.77,121.95l-.78-1.95H150.01l-.78,1.94L110,220h21.55l11.2-28h34.5l11.2,28H210ZM150.75,172,160,148.87,169.25,172Z"/><path class="cls-1" d="M740.77,1.95,739.99,0H720.01l-.78,1.94L680,100h21.55l11.2-28h34.5l11.2,28H780ZM720.75,52,730,28.87,739.25,52Z"/><path class="cls-2" d="M530,160v10a49.16,49.16,0,0,1-1.01,10,50.013,50.013,0,1,1-13.64-45.35l-14.14,14.14A30,30,0,1,0,508.28,180H480V160Z"/><polygon class="cls-2" points="1080 120 1080 140 1040 140 1040 220 1020 220 1020 140 980 140 980 120 1080 120"/><circle class="cls-1" cx="1140" cy="60" r="50"/><circle class="cls-1" cx="1340" cy="60" r="50"/><path class="cls-1" d="M1090,60c0,82.288,67.712,150,150,150s150-67.712,150-150H1290a50,50,0,0,1-100,0Z"/><path class="cls-3" d="M1090,60c5.413,78.4,71.418,140,150,140s144.587-61.6,150-140a56.667,56.667,0,0,0-100,0,50,50,0,0,1-100,0,56.667,56.667,0,0,0-100,0Z"/><path class="cls-4" d="M1090,60c10.665,74.272,74.967,130,150,130s139.335-55.728,150-130a51.25,51.25,0,0,0-100,0,50,50,0,0,1-100,0,51.25,51.25,0,0,0-100,0Z"/></g></g></g></svg>