<svg xmlns="http://www.w3.org/2000/svg" viewBox="0 0 680 320"><defs><style>.cls-1{fill:#121221;}.cls-2{fill:#366ce1;}</style></defs><title>findmyshift</title><g id="Complete"><g id="find_my_shift" data-name="find my shift"><path class="cls-1" d="M580,480,560,600l140,20,20-160ZM680,600,580,580l20-80,100-20Z" transform="translate(-40 -380)"/><polygon class="cls-2" points="650 110 638.333 180 580 168.333 591.667 121.667 650 110"/><path class="cls-1" d="M540,490" transform="translate(-40 -380)"/><polygon class="cls-1" points="130 20 130 40 190 40 190 60 130 60 130 100 110 100 110 0 210 0 210 20 130 20"/><polygon class="cls-1" points="260 20 260 80 280 80 280 100 220 100 220 80 240 80 240 20 220 20 220 0 280 0 280 20 260 20"/><polygon class="cls-1" points="390 0 390 100 370 100 310 30.59 310 100 290 100 290 0 310 0 370 69.41 370 0 390 0"/><path class="cls-1" d="M490,380H440V480h50a50,50,0,0,0,0-100Zm0,80H460V400h30a30,30,0,0,1,0,60Z" transform="translate(-40 -380)"/><polygon class="cls-2" points="390.05 110 390.05 210 370.05 210 370.05 140.59 353.25 160.05 340.04 175.36 326.83 160.05 310.05 140.62 310.05 210 290.05 210 290.05 110 310.05 110 310.05 110.01 340.04 144.75 370.03 110 390.05 110"/><polygon class="cls-2" points="462.83 156.46 460 160 460.05 160 460.05 210 440.05 210 440.05 160 437.22 156.46 400.05 110 425.66 110 450.02 140.45 474.38 110 500 110 462.83 156.46"/><polygon class="cls-1" points="310 240 310 260 370 260 370 280 310 280 310 320 290 320 290 220 390 220 390 240 310 240"/><polygon class="cls-1" points="260 240 260 300 280 300 280 320 220 320 220 300 240 300 240 240 220 240 220 220 280 220 280 240 260 240"/><path class="cls-1" d="M60,630a10,10,0,0,0,10,10h40a30,30,0,0,1,0,60H40V680h70a10,10,0,0,0,0-20H70a30,30,0,0,1,0-60h70v20H70A10,10,0,0,0,60,630Z" transform="translate(-40 -380)"/><polygon class="cls-1" points="210 220 210 320 190 320 190 280 130 280 130 320 110 320 110 220 130 220 130 260 190 260 190 220 210 220"/><polygon class="cls-1" points="500 220 500 240 460 240 460 320 440 320 440 240 400 240 400 220 500 220"/></g></g></svg>