<svg xmlns="http://www.w3.org/2000/svg" viewBox="0 0 670 200"><defs><style>.cls-1{fill:#121221;}.cls-2{opacity:0.38;}.cls-3{fill:#366ce1;}</style></defs><title>finexio</title><g id="Слой_2" data-name="Слой 2"><g id="Work_space" data-name="Work space"><g id="finexio"><polygon class="cls-1" points="20 20 20 40 80 40 80 60 20 60 20 100 0 100 0 0 100 0 100 20 20 20"/><polygon class="cls-1" points="150 20 150 80 170 80 170 100 110 100 110 80 130 80 130 20 110 20 110 0 170 0 170 20 150 20"/><polygon class="cls-1" points="550 20 550 80 570 80 570 100 510 100 510 80 530 80 530 20 510 20 510 0 570 0 570 20 550 20"/><polygon class="cls-1" points="280 0 280 100 260 100 200 30.59 200 100 180 100 180 0 200 0 260 69.41 260 0 280 0"/><polygon class="cls-1" points="310 20 310 40 390 40 390 60 310 60 310 80 390 80 390 100 290 100 290 0 390 0 390 20 310 20"/><path class="cls-1" d="M620,0a50,50,0,1,0,50,50A50.005,50.005,0,0,0,620,0Zm0,80a30,30,0,1,1,30-30A30,30,0,0,1,620,80Z"/><polygon class="cls-1" points="462.5 50.03 499.95 100 474.96 100 450.01 66.7 425.05 100 400.07 100 437.51 50.03 400.02 0 425 0 450.01 33.36 475.01 0 500 0 462.5 50.03"/><g class="cls-2"><polygon class="cls-3" points="20 180 20 160 80 160 80 140 20 140 20 100 0 100 0 200 100 200 100 180 20 180"/><polygon class="cls-3" points="150 180 150 120 170 120 170 100 110 100 110 120 130 120 130 180 110 180 110 200 170 200 170 180 150 180"/><polygon class="cls-3" points="550 180 550 120 570 120 570 100 510 100 510 120 530 120 530 180 510 180 510 200 570 200 570 180 550 180"/><polygon class="cls-3" points="280 200 280 100 260 100 200 169.41 200 100 180 100 180 200 200 200 260 130.59 260 200 280 200"/><polygon class="cls-3" points="310 180 310 160 390 160 390 140 310 140 310 120 390 120 390 100 290 100 290 200 390 200 390 180 310 180"/><path class="cls-3" d="M670,150a50,50,0,1,0-50,50A50.005,50.005,0,0,0,670,150Zm-20,0a30,30,0,1,1-30-30A30,30,0,0,1,650,150Z"/><polygon class="cls-3" points="462.5 149.97 499.95 100 474.96 100 450.01 133.3 425.05 100 400.07 100 437.51 149.97 400.02 200 425 200 450.01 166.64 475.01 200 500 200 462.5 149.97"/></g></g></g></g></svg>