<svg xmlns="http://www.w3.org/2000/svg" viewBox="0 0 1050 100"><defs><style>.cls-1{fill:#121221;}.cls-2{fill:#366ce1;}</style></defs><title>finereader</title><g id="Слой_2" data-name="Слой 2"><g id="Work_space" data-name="Work space"><g id="finereader"><polygon class="cls-1" points="20 20 20 40 80 40 80 60 20 60 20 100 0 100 0 0 100 0 100 20 20 20"/><polygon class="cls-1" points="150 20 150 80 170 80 170 100 110 100 110 80 130 80 130 20 110 20 110 0 170 0 170 20 150 20"/><polygon class="cls-1" points="280 0 280 100 260 100 200 30.59 200 100 180 100 180 0 200 0 260 69.41 260 0 280 0"/><path class="cls-2" d="M780,0H730V100h50A50,50,0,0,0,780,0Zm0,80H750V20h30a30,30,0,0,1,0,60Z"/><polygon class="cls-2" points="860 20 860 40 940 40 940 60 860 60 860 80 940 80 940 100 840 100 840 0 940 0 940 20 860 20"/><polygon class="cls-2" points="530 20 530 40 610 40 610 60 530 60 530 80 610 80 610 100 510 100 510 0 610 0 610 20 530 20"/><polygon class="cls-1" points="310 20 310 40 390 40 390 60 310 60 310 80 390 80 390 100 290 100 290 0 390 0 390 20 310 20"/><path class="cls-2" d="M1050,30a30,30,0,0,0-30-30H950V100h20V60h50a10,10,0,0,1,10,10v30h20V70a29.862,29.862,0,0,0-7.65-20A29.862,29.862,0,0,0,1050,30ZM970,40V20h50a10,10,0,0,1,0,20Z"/><path class="cls-2" d="M500,30A30,30,0,0,0,470,0H400V100h20V60h50a10,10,0,0,1,10,10v30h20V70a29.862,29.862,0,0,0-7.65-20A29.862,29.862,0,0,0,500,30ZM420,40V20h50a10,10,0,0,1,0,20Z"/><path class="cls-2" d="M680.77,1.95,679.99,0H660.01l-.78,1.94L620,100h21.55l11.2-28h34.5l11.2,28H720ZM660.75,52,670,28.87,679.25,52Z"/></g></g></g></svg>