<svg xmlns="http://www.w3.org/2000/svg" viewBox="0 0 1048.634 100"><defs><style>.cls-1{fill:#121221;}.cls-2{fill:#366ce1;}</style></defs><title>fire eye</title><g id="Слой_2" data-name="Слой 2"><g id="Work_space" data-name="Work space"><g id="fire_eye" data-name="fire eye"><path class="cls-1" d="M962.014,100a99.95,99.95,0,0,1-86.62-50,99.95,99.95,0,0,1,86.62-50,50,50,0,0,0,0,100Z"/><path class="cls-1" d="M1048.634,50a99.95,99.95,0,0,1-86.62,50,50,50,0,0,0,0-100A99.95,99.95,0,0,1,1048.634,50Z"/><path class="cls-2" d="M932.014,50a44.385,44.385,0,0,1,20.254-35.451,25.3,25.3,0,0,0-3.55,15.719,24.472,24.472,0,0,0,3.3,9.732A29.2,29.2,0,0,0,965.07,22.282,29.147,29.147,0,0,0,961.9.986a52.13,52.13,0,0,1,19.9,16.1A53.193,53.193,0,0,1,992.014,50a30,30,0,0,1-60,0Z"/><polygon class="cls-1" points="20 20 20 40 80 40 80 60 20 60 20 100 0 100 0 0 100 0 100 20 20 20"/><polygon class="cls-1" points="330 20 330 40 410 40 410 60 330 60 330 80 410 80 410 100 310 100 310 0 410 0 410 20 330 20"/><polygon class="cls-2" points="530 20 530 40 610 40 610 60 530 60 530 80 610 80 610 100 510 100 510 0 610 0 610 20 530 20"/><polygon class="cls-2" points="750 20 750 40 830 40 830 60 750 60 750 80 830 80 830 100 730 100 730 0 830 0 830 20 750 20"/><path class="cls-1" d="M300,30A30,30,0,0,0,270,0H200V100h20V60h50a10,10,0,0,1,10,10v30h20V70a29.862,29.862,0,0,0-7.65-20A29.862,29.862,0,0,0,300,30ZM220,40V20h50a10,10,0,0,1,0,20Z"/><polygon class="cls-1" points="160 20 160 80 190 80 190 100 110 100 110 80 140 80 140 20 110 20 110 0 190 0 190 20 160 20"/><polygon class="cls-2" points="682.78 46.46 679.95 50 680 50 680 100 660 100 660 50 657.17 46.46 620 0 645.61 0 669.97 30.45 694.33 0 719.95 0 682.78 46.46"/></g></g></g></svg>