<svg xmlns="http://www.w3.org/2000/svg" viewBox="0 0 1708.148 100"><defs><style>.cls-1{fill:#121221;}.cls-2{fill:#366ce1;}</style></defs><title>flex factory talk</title><g id="Слой_2" data-name="Слой 2"><g id="Work_space" data-name="Work space"><g id="flex_factory_talk" data-name="flex factory talk"><polygon class="cls-1" points="1598.148 80 1598.148 100 1498.148 100 1498.148 0 1518.148 0 1518.148 80 1598.148 80"/><polygon class="cls-1" points="1708.148 99.99 1708.148 100 1678.278 100 1637.658 63.43 1628.148 72 1628.148 100 1608.148 100 1608.148 0 1628.148 0 1628.148 45.09 1637.658 36.52 1678.218 0 1708.118 0 1652.608 49.98 1708.148 99.99"/><path class="cls-1" d="M1448.918,1.95l-.78-1.95h-19.98l-.78,1.94L1388.148,100h21.55l11.2-28h34.5l11.2,28h21.55ZM1428.9,52l9.25-23.13L1447.4,52Z"/><polygon class="cls-1" points="1411.148 0 1411.148 20 1371.148 20 1371.148 100 1351.148 100 1351.148 20 1311.148 20 1311.148 0 1411.148 0"/><polygon class="cls-2" points="570 20 570 40 630 40 630 60 570 60 570 100 550 100 550 0 650 0 650 20 570 20"/><path class="cls-2" d="M1130,30a30,30,0,0,0-30-30h-70V100h20V60h50a10,10,0,0,1,10,10v30h20V70a29.862,29.862,0,0,0-7.65-20A29.862,29.862,0,0,0,1130,30Zm-80,10V20h50a10,10,0,0,1,0,20Z"/><path class="cls-2" d="M970,0a50,50,0,1,0,50,50A50.005,50.005,0,0,0,970,0Zm0,80a30,30,0,1,1,30-30A30,30,0,0,1,970,80Z"/><path class="cls-2" d="M802.29,60H823a50,50,0,1,1,0-20H802.29a30,30,0,1,0,0,20Z"/><path class="cls-2" d="M690.77,1.95,689.99,0H670.01l-.78,1.94L630,100h21.55l11.2-28h34.5l11.2,28H730ZM670.75,52,680,28.87,689.25,52Z"/><polygon class="cls-2" points="920 0 920 20 880 20 880 100 860 100 860 20 820 20 820 0 920 0"/><polygon class="cls-2" points="1189.671 46.46 1186.981 50 1187.029 50 1187.029 100 1168.019 100 1168.019 50 1165.329 46.46 1130 0 1154.342 0 1177.495 30.45 1200.649 0 1225 0 1189.671 46.46"/><polygon class="cls-2" points="230 10 230 45 320 45 320 55 230 55 230 90 320 90 320 100 220 100 220 0 320 0 320 10 230 10"/><polygon class="cls-2" points="210 90 210 100 110 100 110 0 120 0 120 90 210 90"/><polygon class="cls-2" points="386.65 50 430 100 416.77 100 380.04 57.63 343.31 100 330.08 100 373.43 50 330.08 0 343.31 0 380.04 42.37 416.77 0 430 0 386.65 50"/><polygon class="cls-2" points="10 10 10 45 70 45 70 55 10 55 10 100 0 100 0 0 100 0 100 10 10 10"/></g></g></g></svg>