<svg xmlns="http://www.w3.org/2000/svg" viewBox="0 0 760 200"><defs><style>.cls-1{fill:#121221;}.cls-2{fill:#366ce1;}</style></defs><title>flexport</title><g id="Слой_2" data-name="Слой 2"><g id="Work_space" data-name="Work space"><g id="flexport"><path class="cls-1" d="M401.221,50a50.005,50.005,0,0,0-50,50v90a10,10,0,0,0,20,0V139.99a50,50,0,1,0,30-89.99Zm0,80a30,30,0,1,1,30-30A30,30,0,0,1,401.221,130Z"/><path class="cls-1" d="M511.221,50a50,50,0,1,0,50,50A50.005,50.005,0,0,0,511.221,50Zm0,80a30,30,0,1,1,30-30A30,30,0,0,1,511.221,130Z"/><path class="cls-2" d="M230,110a9.954,9.954,0,0,0,10-9.834V100a49.16,49.16,0,0,0-1.01-10,50,50,0,0,0-97.98,0,50.01,50.01,0,0,0,0,20,50.01,50.01,0,0,0,70.158,35.3A9.924,9.924,0,0,0,213.2,128.56l-.159-.127a9.882,9.882,0,0,0-10.359-1.242A30.006,30.006,0,0,1,161.72,110ZM190,70a29.979,29.979,0,0,1,28.28,20H161.72A29.979,29.979,0,0,1,190,70Z"/><path class="cls-1" d="M759.7,112.282a50.028,50.028,0,0,1-49.346,37.711c-27.035-.458-49.134-23.778-49.134-50.817V20a10,10,0,0,1,10-10h0a10,10,0,0,1,10,10V60.01a49.731,49.731,0,0,1,17.642-8.469,9.978,9.978,0,0,1,12.358,9.726h0a9.927,9.927,0,0,1-7.407,9.654A30.005,30.005,0,1,0,740.3,107.405,9.924,9.924,0,0,1,749.952,100h.012A9.959,9.959,0,0,1,759.7,112.282Z"/><path class="cls-2" d="M98.48,47.718A50.027,50.027,0,0,0,49.135,10.007C22.1,10.465,0,33.785,0,60.824V140a10,10,0,0,0,10,10h0a10,10,0,0,0,10-10V99.99a49.731,49.731,0,0,0,17.642,8.469A9.978,9.978,0,0,0,50,98.733h0a9.927,9.927,0,0,0-7.406-9.654A30.005,30.005,0,1,1,79.079,52.6,9.924,9.924,0,0,0,88.731,60h.012A9.959,9.959,0,0,0,98.48,47.718Z"/><path class="cls-1" d="M652.231,65.97a9.851,9.851,0,0,1-1.01,4.37,10,10,0,0,1-14.18,4.18c-.09-.05-.18-.11-.27-.17A29.816,29.816,0,0,0,620.961,70c-16.579.141-29.74,14.1-29.74,30.675V140a10,10,0,0,1-10,10h0a10,10,0,0,1-10-10V60a10,10,0,0,1,10-10h0a10,10,0,0,1,10,10v.01a49.947,49.947,0,0,1,56.19-2.59,9.989,9.989,0,0,1,3.81,4.18A9.851,9.851,0,0,1,652.231,65.97Z"/><path class="cls-2" d="M338.291,132.93a10,10,0,1,1-14.14,14.14l-32.93-32.93-32.93,32.93a10,10,0,1,1-14.14-14.14L277.071,100l-32.92-32.93a10,10,0,1,1,14.14-14.14l32.93,32.92,32.93-32.92a10,10,0,1,1,14.14,14.14L305.361,100Z"/><rect class="cls-2" x="110" width="20" height="150" rx="10"/></g></g></g></svg>