<svg xmlns="http://www.w3.org/2000/svg" viewBox="0 0 638.97 100"><defs><style>.cls-1{fill:#366ce1;}</style></defs><title>flok</title><g id="Слой_2" data-name="Слой 2"><g id="Work_space" data-name="Work space"><g id="flok"><polygon class="cls-1" points="20 20 20 40 80 40 80 60 20 60 20 100 0 100 0 0 100 0 100 20 20 20"/><polygon class="cls-1" points="210 80 210 100 110 100 110 0 130 0 130 80 210 80"/><path class="cls-1" d="M260,0a50,50,0,1,0,50,50A50.005,50.005,0,0,0,260,0Zm0,80a30,30,0,1,1,30-30A30,30,0,0,1,260,80Z"/><polygon class="cls-1" points="420 99.99 420 100 390.13 100 349.51 63.43 340 72 340 100 320 100 320 0 340 0 340 45.09 349.51 36.52 390.07 0 419.97 0 364.46 49.98 420 99.99"/><path class="cls-1" d="M621.76,0H556.17a17.2,17.2,0,0,0-17.2,17.2V82.8a17.2,17.2,0,0,0,17.2,17.2h65.59a17.2,17.2,0,0,0,17.21-17.2V17.2A17.2,17.2,0,0,0,621.76,0ZM587.59,61.21h-5.22a17.2,17.2,0,0,1-17.2-17.2V38.79h5.22a17.2,17.2,0,0,1,17.2,17.2Zm25.18-17.2a17.2,17.2,0,0,1-17.2,17.2h-5.22V55.99a17.2,17.2,0,0,1,17.2-17.2h5.22Z"/></g></g></g></svg>