<svg id="Main" xmlns="http://www.w3.org/2000/svg" viewBox="0 0 749 390"><defs><style>.cls-1{fill:#231f20;}.cls-2{fill:#366ce1;}.cls-3{fill:#121221;}</style></defs><title>flow_based_programming</title><path class="cls-1" d="M354.5,425V345a40,40,0,0,1,80,0c-8.379-16.46-25.737-24.334-40-20-13.716,4.168-19.239,18-20,20Z" transform="translate(-125.5 -305)"/><path class="cls-1" d="M364.5,365a32.5,32.5,0,0,1,60,0,50,50,0,0,0-60,0Z" transform="translate(-125.5 -305)"/><path class="cls-1" d="M434.5,345a143.674,143.674,0,0,1-10,60,138.616,138.616,0,0,1-10,20,56.9,56.9,0,0,0,20-20C450.1,378.149,436.07,348.216,434.5,345Z" transform="translate(-125.5 -305)"/><path class="cls-1" d="M464.5,385a20,20,0,1,0,20,20A20.1,20.1,0,0,0,464.5,385Zm.55,30c-4.52.09-8.68-3.52-10-6.66-2.45-5.86,3.67-13.22,10-13.34,4.53-.08,8.69,3.53,10,6.67C477.51,407.53,471.39,414.88,465.05,415Z" transform="translate(-125.5 -305)"/><path class="cls-1" d="M544.5,405a20.1,20.1,0,0,1-20,20,19.626,19.626,0,0,1-10-2.73,19.626,19.626,0,0,1-10,2.73,20,20,0,0,1,0-40,19.626,19.626,0,0,1,10,2.73,20.045,20.045,0,0,0-7.4,7.48,8.811,8.811,0,0,0-2.05-.21c-6.33.12-12.45,7.48-10,13.34,1.32,3.14,5.48,6.75,10,6.66a8.545,8.545,0,0,0,2.01-.28,12.049,12.049,0,0,0,7.83-6.83,4.038,4.038,0,0,0,.16.45,12.027,12.027,0,0,0,7,6.19,8.929,8.929,0,0,0,3,.47c6.34-.12,12.46-7.47,10-13.33-1.31-3.14-5.47-6.75-10-6.67a9.137,9.137,0,0,0-2.95.57,20.1,20.1,0,0,0-7.6-7.84,19.626,19.626,0,0,1,10-2.73A20.1,20.1,0,0,1,544.5,405Z" transform="translate(-125.5 -305)"/><path class="cls-1" d="M374.5,505q-10-27.5-20-55a25,25,0,0,1,50,0c-5.237-10.287-16.085-15.209-25-12.5-8.573,2.605-12.025,11.253-12.5,12.5Z" transform="translate(-125.5 -305)"/><path class="cls-1" d="M404.5,450c-5.24,10.29-16.09,15.21-25,12.5-8.57-2.6-12.02-11.25-12.5-12.5H354.5a25,25,0,0,0,50,0Z" transform="translate(-125.5 -305)"/><path class="cls-1" d="M434.5,505c-8.384-16.464-25.744-24.336-40-20-13.712,4.16-19.232,18-20,20h-20a40,40,0,0,1,80,0Z" transform="translate(-125.5 -305)"/><path class="cls-1" d="M564.5,525c-4.192-8.232-12.872-12.168-20-10-6.856,2.08-9.616,9-10,10h-10a20,20,0,0,1,40,0Z" transform="translate(-125.5 -305)"/><path class="cls-1" d="M558.6,539.183c-8.785,2.857-17.706-.5-21.213-7.071-3.377-6.318-.436-13.163,0-14.142l-7.071-7.071A20,20,0,0,0,558.6,539.183Z" transform="translate(-125.5 -305)"/><path class="cls-1" d="M524.5,515c-1.279-.593-10.523-4.7-20,0a22.762,22.762,0,0,0-10,10h-10c1.555-10.93,10.082-19.162,20-20C512.219,504.348,519.862,508.252,524.5,515Z" transform="translate(-125.5 -305)"/><path class="cls-1" d="M484.5,535c1.279.593,10.523,4.7,20,0a22.762,22.762,0,0,0,10-10h10c-1.555,10.93-10.082,19.162-20,20C496.781,545.652,489.138,541.748,484.5,535Z" transform="translate(-125.5 -305)"/><path class="cls-1" d="M354.5,425v80a40,40,0,0,0,80,0c-8.379,16.46-25.737,24.334-40,20-13.716-4.168-19.239-18-20-20Z" transform="translate(-125.5 -305)"/><path class="cls-1" d="M464.5,505a20,20,0,1,0,20,20A20.1,20.1,0,0,0,464.5,505Zm.55,30c-4.52.09-8.68-3.52-10-6.66-2.45-5.86,3.67-13.22,10-13.34,4.53-.08,8.69,3.53,10,6.67C477.51,527.53,471.39,534.88,465.05,535Z" transform="translate(-125.5 -305)"/><rect class="cls-1" x="349" y="200" width="10" height="40"/><path class="cls-1" d="M604.5,525a20,20,0,1,0-20,20A20.1,20.1,0,0,0,604.5,525Zm-30,.55c-.09-4.52,3.52-8.68,6.66-10,5.86-2.45,13.22,3.67,13.34,10,.08,4.53-3.53,8.69-6.67,10C581.97,538.01,574.62,531.89,574.5,525.55Z" transform="translate(-125.5 -305)"/><rect class="cls-1" x="469" y="170" width="10" height="50"/><ellipse class="cls-1" cx="504.5" cy="525" rx="8.74" ry="22.882" transform="translate(-247.866 590.384) rotate(-76.717)"/><path class="cls-1" d="M524.5,525h40l-30,10Z" transform="translate(-125.5 -305)"/><path class="cls-1" d="M364.5,665V585a40,40,0,0,1,80,0c-8.379-16.46-25.737-24.334-40-20-13.716,4.168-19.239,18-20,20Z" transform="translate(-125.5 -305)"/><path class="cls-1" d="M444.5,585c-8.384,16.464-25.744,24.336-40,20-13.712-4.16-19.232-18-20-20h-20a40,40,0,0,0,80,0Z" transform="translate(-125.5 -305)"/><path class="cls-1" d="M484.5,645c-4.192-8.232-12.872-12.168-20-10-6.856,2.08-9.616,9-10,10h-10a20,20,0,0,1,40,0Z" transform="translate(-125.5 -305)"/><path class="cls-1" d="M824.5,645c-4.192-8.232-12.872-12.168-20-10-6.856,2.08-9.616,9-10,10h-10a20,20,0,0,1,40,0Z" transform="translate(-125.5 -305)"/><path class="cls-1" d="M614.5,645c-4.192-8.232-12.872-12.168-20-10-6.856,2.08-9.616,9-10,10h-10a20,20,0,0,1,40,0Z" transform="translate(-125.5 -305)"/><path class="cls-1" d="M524.5,675c4.192,8.232,12.872,12.168,20,10,6.856-2.08,9.616-9,10-10h10a20,20,0,0,1-40,0Z" transform="translate(-125.5 -305)"/><path class="cls-1" d="M504.5,625a20,20,0,1,0,20,20A20.1,20.1,0,0,0,504.5,625Zm.55,30c-4.52.09-8.68-3.52-10-6.66-2.45-5.86,3.67-13.22,10-13.34,4.53-.08,8.69,3.53,10,6.67C517.51,647.53,511.39,654.88,505.05,655Z" transform="translate(-125.5 -305)"/><path class="cls-1" d="M634.5,625a20,20,0,1,0,20,20A20.1,20.1,0,0,0,634.5,625Zm.55,30c-4.52.09-8.68-3.52-10-6.66-2.45-5.86,3.67-13.22,10-13.34,4.53-.08,8.69,3.53,10,6.67C647.51,647.53,641.39,654.88,635.05,655Z" transform="translate(-125.5 -305)"/><rect class="cls-1" x="519" y="320" width="10" height="40"/><rect class="cls-1" x="319" y="320" width="10" height="40"/><rect class="cls-1" x="449" y="320" width="10" height="40"/><rect class="cls-1" x="539" y="320" width="10" height="40"/><rect class="cls-1" x="569" y="320" width="10" height="40"/><rect class="cls-1" x="639" y="330" width="10" height="30"/><path class="cls-1" d="M544.5,625a20,20,0,1,0,20,20A20.1,20.1,0,0,0,544.5,625Zm3.33,9.45c3.14,1.31,6.75,5.47,6.67,10-.12,6.33-7.48,12.45-13.34,10-3.14-1.32-6.75-5.48-6.66-10C534.62,638.11,541.97,631.99,547.83,634.45Z" transform="translate(-125.5 -305)"/><rect class="cls-1" x="429" y="320" width="10" height="50"/><path class="cls-1" d="M834.5,675c4.192,8.232,12.872,12.168,20,10,6.856-2.08,9.616-9,10-10h10a20,20,0,0,1-40,0Z" transform="translate(-125.5 -305)"/><path class="cls-1" d="M854.5,625a20,20,0,1,0,20,20A20.1,20.1,0,0,0,854.5,625Zm3.33,9.45c3.14,1.31,6.75,5.47,6.67,10-.12,6.33-7.48,12.45-13.34,10-3.14-1.32-6.75-5.48-6.66-10C844.62,638.11,851.97,631.99,857.83,634.45Z" transform="translate(-125.5 -305)"/><rect class="cls-1" x="739" y="320" width="10" height="50"/><path class="cls-1" d="M674.5,665q5-10,10-20,5,10,10,20Z" transform="translate(-125.5 -305)"/><path class="cls-1" d="M774.5,625q-2.5,5-5,10-2.5-5-5-10Z" transform="translate(-125.5 -305)"/><path class="cls-1" d="M814.5,665q5-10,10-20v20Z" transform="translate(-125.5 -305)"/><path class="cls-1" d="M674.5,625q5,10,10,20,5-10,10-20v10l-10,10-10-10Z" transform="translate(-125.5 -305)"/><rect class="cls-1" x="589" y="320" width="10" height="40"/><rect class="cls-1" x="619" y="320" width="10" height="40"/><rect class="cls-1" x="659" y="320" width="10" height="40"/><path class="cls-1" d="M724.5,665q5-10,10-20,5,10,10,20Z" transform="translate(-125.5 -305)"/><path class="cls-1" d="M724.5,625q5,10,10,20,5-10,10-20v10l-10,10-10-10Z" transform="translate(-125.5 -305)"/><path class="cls-1" d="M225.5,400a100,100,0,1,0,100,100A100,100,0,0,0,225.5,400Zm6.68,149.55a49.2,49.2,0,0,1-6.68.45,50.014,50.014,0,1,1,6.68-.45Z" transform="translate(-125.5 -305)"/><path class="cls-2" d="M233.61,463.22c.63-1.09,1.26-2.17,1.89-3.26-3.22.6-6.45,1.21-9.67,1.81-3.22-.6-6.45-1.21-9.67-1.81l1.89,3.27q-15.96,2.97-31.92,5.97a49.972,49.972,0,0,1,78.63-.15l-31.15-5.82Z" transform="translate(-125.5 -305)"/><path class="cls-2" d="M275.5,500a50,50,0,0,1-43.32,49.55q10.68-12.45,21.34-24.89c.64,1.11,1.29,2.23,1.93,3.34q1.665-4.74,3.34-9.48l6.3-7.35h-3.71q5.25-14.925,10.51-29.85A49.794,49.794,0,0,1,275.5,500Z" transform="translate(-125.5 -305)"/><path class="cls-2" d="M219.49,549.64a50.025,50.025,0,0,1-40.02-69.19q5.415,15.36,10.81,30.72h-3.77q3.21,3.735,6.4,7.47l3.3,9.36c.64-1.1,1.27-2.2,1.9-3.3Q208.805,537.165,219.49,549.64Z" transform="translate(-125.5 -305)"/><path class="cls-3" d="M271.89,481.32a49.706,49.706,0,0,0-7.13-12.27l-31.15-5.82v-.01c.63-1.09,1.26-2.17,1.89-3.26-3.22.6-6.45,1.21-9.67,1.81-3.22-.6-6.45-1.21-9.67-1.81l1.89,3.27q-15.96,2.97-31.92,5.97a49.884,49.884,0,0,0-6.66,11.25q5.415,15.36,10.81,30.72h-3.77q3.21,3.735,6.4,7.47l3.3,9.36c.64-1.1,1.27-2.2,1.9-3.3q10.695,12.465,21.38,24.94a49.737,49.737,0,0,0,6.01.36,49.2,49.2,0,0,0,6.68-.45q10.68-12.45,21.34-24.89c.64,1.11,1.29,2.23,1.93,3.34q1.665-4.74,3.34-9.48l6.3-7.35h-3.71Q266.63,496.245,271.89,481.32Zm-65.96,29.85q9.945-17.235,19.9-34.46,9.96,17.235,19.9,34.46Z" transform="translate(-125.5 -305)"/><path class="cls-2" d="M245.73,511.17h-39.8q9.945-17.235,19.9-34.46Q235.79,493.945,245.73,511.17Z" transform="translate(-125.5 -305)"/></svg>