<svg id="Main" xmlns="http://www.w3.org/2000/svg" viewBox="0 0 300 530"><defs><style>.cls-1{fill:#366ce1;}.cls-2{fill:#121221;}.cls-3{fill:#1c1e20;}</style></defs><title>flstudio</title><g id="FL_studio" data-name="FL studio"><path class="cls-1" d="M579.445,489.839c-27.615,47.83-69.39,75.407-93.3,61.6s-20.917-63.772,6.7-111.6a50,50,0,1,1,86.6,50Z" transform="translate(-350 -235)"/><ellipse class="cls-2" cx="552.97" cy="435.448" rx="20.134" ry="18.302" transform="translate(-450.624 461.61) rotate(-60)"/><path class="cls-2" d="M572.665,453.043c9.151,15.85,17.229,28.317,24.873,23.9s11.957-24.034,2.806-39.884-28.3-21.925-35.944-17.512S563.514,437.194,572.665,453.043Z" transform="translate(-350 -235)"/><path class="cls-2" d="M529.707,428.241c-18.3,0-33.138-.762-33.138-9.588s14.836-22.372,33.138-22.372,33.138,13.546,33.137,22.372S548.008,428.241,529.707,428.241Z" transform="translate(-350 -235)"/><path class="cls-2" d="M577.1,407.344c4.139-1.644,9.1-1.853,10.463-5.278.371-.934.641-2.53-.142-3.3-1.949-1.92-9.365,2.3-13.462,5.4a38.5,38.5,0,0,0-11.161,13.718l2.172,1.37C569.084,411.762,573.63,408.721,577.1,407.344Z" transform="translate(-350 -235)"/><path class="cls-3" d="M650,515a150.008,150.008,0,1,1-62.11-121.55,100.169,100.169,0,1,0,3.85,2.88A149.731,149.731,0,0,1,650,515Z" transform="translate(-350 -235)"/><path class="cls-2" d="M545,345a10,10,0,0,1-10,10,30.019,30.019,0,0,1-30-30V285a10,10,0,0,1,20,0v40a10,10,0,0,0,10,10A10,10,0,0,1,545,345Z" transform="translate(-350 -235)"/><path class="cls-1" d="M525,265a10,10,0,0,1-20,0,10,10,0,0,0-20,0,10,10,0,0,1,0,20v40a10,10,0,0,0,20,0,29.9,29.9,0,0,0,10,22.35A29.991,29.991,0,0,1,465,325V285a10,10,0,0,1,0-20,30,30,0,0,1,60,0Z" transform="translate(-350 -235)"/><path class="cls-3" d="M605,715H585a10,10,0,0,1,20,0Z" transform="translate(-350 -235)"/><path class="cls-3" d="M525,715H505a10,10,0,0,1,20,0Z" transform="translate(-350 -235)"/><path class="cls-3" d="M485,715H465a10,10,0,0,1,20,0Z" transform="translate(-350 -235)"/><path class="cls-3" d="M565,675H545a10,10,0,0,1,20,0Z" transform="translate(-350 -235)"/><path class="cls-3" d="M605,685H585a10,10,0,0,1,20,0Z" transform="translate(-350 -235)"/><path class="cls-3" d="M585,685h20a10,10,0,0,1-20,0Z" transform="translate(-350 -235)"/><path class="cls-3" d="M485,735H465a10,10,0,0,1,20,0Z" transform="translate(-350 -235)"/><path class="cls-3" d="M445,675H425a10,10,0,0,1,20,0Z" transform="translate(-350 -235)"/><path class="cls-3" d="M445,715V695a10,10,0,0,1,0,20Z" transform="translate(-350 -235)"/><path class="cls-3" d="M425,695v20a10,10,0,0,1,0-20Z" transform="translate(-350 -235)"/><path class="cls-3" d="M355,735h20a10,10,0,1,0,10-10V705a30,30,0,1,1-30,30Z" transform="translate(-350 -235)"/><path class="cls-3" d="M415,695H395a10,10,0,1,0-10,10v20a30,30,0,1,1,30-30Z" transform="translate(-350 -235)"/><path class="cls-3" d="M525,735a30,30,0,0,1-60,0h20a10,10,0,0,0,20,0Z" transform="translate(-350 -235)"/><path class="cls-3" d="M565,735a30,30,0,0,1-60,0h20a10,10,0,0,0,20,0Z" transform="translate(-350 -235)"/><path class="cls-3" d="M605,735a30,30,0,0,1-60,0h20a10,10,0,0,0,20,0Z" transform="translate(-350 -235)"/><path class="cls-3" d="M645,735a30,30,0,0,1-60,0h20a10,10,0,0,0,20,0Z" transform="translate(-350 -235)"/><path class="cls-3" d="M505,735a30,30,0,0,1,60,0H545a10,10,0,0,0-20,0Z" transform="translate(-350 -235)"/><path class="cls-3" d="M585,735a30,30,0,0,1,60,0H625a10,10,0,0,0-20,0Z" transform="translate(-350 -235)"/><path class="cls-3" d="M485,735a30,30,0,0,1-60,0h20a10,10,0,0,0,20,0Z" transform="translate(-350 -235)"/><path class="cls-3" d="M355,735a10,10,0,0,1,20,0Z" transform="translate(-350 -235)"/><rect class="cls-3" x="75" y="440" width="20" height="60"/><rect class="cls-3" x="195" y="440" width="20" height="60"/><rect class="cls-3" x="235" y="480" width="20" height="20"/><rect class="cls-3" x="115" y="480" width="20" height="20"/><rect class="cls-3" x="155" y="480" width="20" height="20"/><path class="cls-3" d="M395,695h20a10,10,0,0,1-20,0Z" transform="translate(-350 -235)"/></g></svg>