<svg xmlns="http://www.w3.org/2000/svg" viewBox="0 0 913.732 220"><defs><style>.cls-1{fill:#366ce1;}.cls-2{fill:#121221;}</style></defs><title>foodmanager</title><g id="Слой_2" data-name="Слой 2"><g id="Complete"><g id="foodmanager"><polygon class="cls-1" points="173.732 20 173.732 40 233.732 40 233.732 60 173.732 60 173.732 100 153.732 100 153.732 0 253.732 0 253.732 20 173.732 20"/><polygon class="cls-2" points="473.732 120 473.732 220 453.732 220 393.732 150.59 393.732 220 373.732 220 373.732 120 393.732 120 453.732 189.41 453.732 120 473.732 120"/><path class="cls-1" d="M533.732,0h-50V100h50a50,50,0,0,0,0-100Zm0,80h-30V20h30a30,30,0,0,1,0,60Z"/><polygon class="cls-2" points="253.732 120 253.732 220 233.732 220 233.732 150.59 216.932 170.05 203.722 185.36 190.512 170.05 173.732 150.62 173.732 220 153.732 220 153.732 120 173.732 120 173.732 120.01 203.722 154.75 233.712 120 253.732 120"/><polygon class="cls-2" points="723.732 140 723.732 160 803.732 160 803.732 180 723.732 180 723.732 200 803.732 200 803.732 220 703.732 220 703.732 120 803.732 120 803.732 140 723.732 140"/><path class="cls-2" d="M913.732,150a30,30,0,0,0-30-30h-70V220h20V180h50a10,10,0,0,1,10,10v30h20V190a29.862,29.862,0,0,0-7.65-20A29.862,29.862,0,0,0,913.732,150Zm-80,10V140h50a10,10,0,0,1,0,20Z"/><path class="cls-1" d="M313.732,0a50,50,0,1,0,50,50A50.005,50.005,0,0,0,313.732,0Zm0,80a30,30,0,1,1,30-30A30,30,0,0,1,313.732,80Z"/><path class="cls-1" d="M423.732,0a50,50,0,1,0,50,50A50.005,50.005,0,0,0,423.732,0Zm0,80a30,30,0,1,1,30-30A30,30,0,0,1,423.732,80Z"/><path class="cls-2" d="M324.5,121.95l-.78-1.95h-19.98l-.78,1.94L263.732,220h21.55l11.2-28h34.5l11.2,28h21.55ZM304.482,172l9.25-23.13,9.25,23.13Z"/><path class="cls-2" d="M544.5,121.95l-.78-1.95h-19.98l-.78,1.94L483.732,220h21.55l11.2-28h34.5l11.2,28h21.55ZM524.482,172l9.25-23.13,9.25,23.13Z"/><path class="cls-2" d="M693.732,160v10a49.16,49.16,0,0,1-1.01,10,50.013,50.013,0,1,1-13.64-45.35l-14.14,14.14a30,30,0,1,0,7.07,31.21h-28.28V160Z"/><circle class="cls-1" cx="50" cy="127.313" r="50"/><ellipse class="cls-2" cx="75.239" cy="52.552" rx="35.69" ry="15" transform="translate(-15.123 68.594) rotate(-45)"/></g></g></g></svg>