<svg xmlns="http://www.w3.org/2000/svg" viewBox="0 0 982.021 203.995"><defs><style>.cls-1{fill:#121221;}.cls-2{fill:#366ce1;}</style></defs><title>forest render</title><g id="Слой_2" data-name="Слой 2"><g id="Work_space" data-name="Work space"><g id="forest_render" data-name="forest render"><polygon class="cls-1" points="349.979 20 349.979 40 409.979 40 409.979 60 349.979 60 349.979 100 329.979 100 329.979 0 429.979 0 429.979 20 349.979 20"/><polygon class="cls-2" points="320 103.995 320 203.995 300 203.995 240 134.585 240 203.995 220 203.995 220 103.995 240 103.995 300 173.405 300 103.995 320 103.995"/><path class="cls-2" d="M380,104H330V204h50a50,50,0,0,0,0-100Zm0,80H350V124h30a30,30,0,0,1,0,60Z"/><path class="cls-1" d="M792.021,30a10,10,0,0,0,10,10h40a30,30,0,0,1,0,60h-70V80h70a10,10,0,0,0,0-20h-40a30,30,0,0,1,0-60h70V20h-70A10,10,0,0,0,792.021,30Z"/><polygon class="cls-2" points="460 123.995 460 143.995 540 143.995 540 163.995 460 163.995 460 183.995 540 183.995 540 203.995 440 203.995 440 103.995 540 103.995 540 123.995 460 123.995"/><polygon class="cls-2" points="130 123.995 130 143.995 210 143.995 210 163.995 130 163.995 130 183.995 210 183.995 210 203.995 110 203.995 110 103.995 210 103.995 210 123.995 130 123.995"/><path class="cls-2" d="M650,134a30,30,0,0,0-30-30H550V204h20V164h50a10,10,0,0,1,10,10v30h20V174a29.862,29.862,0,0,0-7.65-20A29.862,29.862,0,0,0,650,134Zm-80,10V124h50a10,10,0,0,1,0,20Z"/><path class="cls-2" d="M100,134a30,30,0,0,0-30-30H0V204H20V164H70a10,10,0,0,1,10,10v30h20V174a29.862,29.862,0,0,0-7.65-20A29.862,29.862,0,0,0,100,134ZM20,144V124H70a10,10,0,0,1,0,20Z"/><polygon class="cls-1" points="682.021 20 682.021 40 762.021 40 762.021 60 682.021 60 682.021 80 762.021 80 762.021 100 662.021 100 662.021 0 762.021 0 762.021 20 682.021 20"/><path class="cls-1" d="M649.979,30a30,30,0,0,0-30-30h-70V100h20V60h50a10,10,0,0,1,10,10v30h20V70a29.862,29.862,0,0,0-7.65-20A29.862,29.862,0,0,0,649.979,30Zm-80,10V20h50a10,10,0,0,1,0,20Z"/><path class="cls-1" d="M489.979,0a50,50,0,1,0,50,50A50.005,50.005,0,0,0,489.979,0Zm0,80a30,30,0,1,1,30-30A30,30,0,0,1,489.979,80Z"/><polygon class="cls-1" points="982.021 0 982.021 20 942.021 20 942.021 100 922.021 100 922.021 20 882.021 20 882.021 0 982.021 0"/></g></g></g></svg>