<svg id="Main" xmlns="http://www.w3.org/2000/svg" viewBox="0 0 525 105.894"><defs><style>.cls-1{fill:#366ce1;}</style></defs><title>FoxPro</title><g id="FoxPro"><rect class="cls-1" width="100" height="5"/><rect class="cls-1" x="10" y="10" width="20" height="5"/><rect class="cls-1" x="80" y="10" width="20" height="5"/><rect class="cls-1" x="10" y="20" width="20" height="5"/><rect class="cls-1" x="90" y="20" width="10" height="5"/><rect class="cls-1" x="10" y="30" width="20" height="5"/><rect class="cls-1" x="80" y="40" width="20" height="5"/><rect class="cls-1" x="65" y="50" width="20" height="5"/><rect class="cls-1" x="55" y="60" width="20" height="5"/><rect class="cls-1" x="55" y="80" width="20" height="5"/><rect class="cls-1" x="50" y="70" width="20" height="5"/><rect class="cls-1" x="65" y="90" width="20" height="5"/><rect class="cls-1" x="332.5" y="537.053" width="20" height="5" transform="translate(447.5 632.053) rotate(180)"/><rect class="cls-1" x="342.5" y="527.053" width="20" height="5" transform="translate(467.5 612.053) rotate(180)"/><rect class="cls-1" x="347.5" y="517.053" width="20" height="5" transform="translate(477.5 592.053) rotate(180)"/><rect class="cls-1" x="342.5" y="507.053" width="20" height="5" transform="translate(467.5 572.053) rotate(180)"/><rect class="cls-1" x="377.5" y="497.053" width="20" height="5" transform="translate(537.5 552.053) rotate(180)"/><rect class="cls-1" x="387.5" y="507.053" width="20" height="5" transform="translate(557.5 572.053) rotate(180)"/><rect class="cls-1" x="397.5" y="517.053" width="30" height="5" transform="translate(587.5 592.053) rotate(180)"/><rect class="cls-1" x="427.5" y="497.053" width="20" height="5" transform="translate(637.5 552.053) rotate(180)"/><rect class="cls-1" x="417.5" y="507.053" width="20" height="5" transform="translate(617.5 572.053) rotate(180)"/><rect class="cls-1" x="332.5" y="497.053" width="20" height="5" transform="translate(447.5 552.053) rotate(180)"/><rect class="cls-1" x="80" y="100" width="20" height="5"/><rect class="cls-1" x="10" y="40" width="20" height="5"/><rect class="cls-1" x="10" y="60" width="20" height="5"/><rect class="cls-1" x="10" y="70" width="20" height="5"/><rect class="cls-1" x="10" y="80" width="20" height="5"/><rect class="cls-1" x="10" y="90" width="20" height="5"/><rect class="cls-1" x="10" y="50" width="40" height="5"/><rect class="cls-1" x="130" y="40" width="40" height="5"/><rect class="cls-1" x="180" y="40" width="40" height="5"/><rect class="cls-1" x="190" y="90" width="20" height="5"/><rect class="cls-1" x="180" y="80" width="20" height="5"/><rect class="cls-1" x="140" y="90" width="20" height="5"/><rect class="cls-1" x="150" y="80" width="20" height="5"/><rect class="cls-1" x="417.5" y="547.053" width="40" height="5" transform="translate(637.5 652.053) rotate(180)"/><rect class="cls-1" x="367.5" y="547.053" width="40" height="5" transform="translate(537.5 652.053) rotate(180)"/><rect class="cls-1" y="100" width="50" height="5"/><rect class="cls-1" x="557.5" y="457.947" width="20" height="5" transform="translate(897.5 473.842) rotate(180)"/><rect class="cls-1" x="557.5" y="487.947" width="20" height="5" transform="translate(897.5 533.842) rotate(180)"/><rect class="cls-1" x="607.5" y="497.947" width="20" height="5" transform="translate(997.5 553.842) rotate(180)"/><rect class="cls-1" x="667.5" y="497.947" width="20" height="5" transform="translate(1117.5 553.842) rotate(180)"/><rect class="cls-1" x="637.5" y="497.947" width="20" height="5" transform="translate(1057.5 553.842) rotate(180)"/><rect class="cls-1" x="587.5" y="487.947" width="30" height="5" transform="translate(967.5 533.842) rotate(180)"/><rect class="cls-1" x="607.5" y="507.947" width="30" height="5" transform="translate(1007.5 573.842) rotate(180)"/><rect class="cls-1" x="647.5" y="487.947" width="30" height="5" transform="translate(1087.5 533.842) rotate(180)"/><rect class="cls-1" x="567.5" y="467.947" width="20" height="5" transform="translate(917.5 493.842) rotate(180)"/><rect class="cls-1" x="567.5" y="477.947" width="20" height="5" transform="translate(917.5 513.842) rotate(180)"/><rect class="cls-1" x="487.5" y="457.947" width="20" height="5" transform="translate(757.5 473.842) rotate(180)"/><rect class="cls-1" x="487.5" y="467.947" width="20" height="5" transform="translate(757.5 493.842) rotate(180)"/><rect class="cls-1" x="487.5" y="477.947" width="20" height="5" transform="translate(757.5 513.842) rotate(180)"/><rect class="cls-1" x="487.5" y="487.947" width="20" height="5" transform="translate(757.5 533.842) rotate(180)"/><rect class="cls-1" x="487.5" y="507.947" width="20" height="5" transform="translate(757.5 573.842) rotate(180)"/><rect class="cls-1" x="487.5" y="517.947" width="20" height="5" transform="translate(757.5 593.842) rotate(180)"/><rect class="cls-1" x="487.5" y="527.947" width="20" height="5" transform="translate(757.5 613.842) rotate(180)"/><rect class="cls-1" x="607.5" y="517.947" width="20" height="5" transform="translate(997.5 593.842) rotate(180)"/><rect class="cls-1" x="607.5" y="527.947" width="20" height="5" transform="translate(997.5 613.842) rotate(180)"/><rect class="cls-1" x="607.5" y="537.947" width="20" height="5" transform="translate(997.5 633.842) rotate(180)"/><rect class="cls-1" x="487.5" y="537.947" width="20" height="5" transform="translate(757.5 633.842) rotate(180)"/><rect class="cls-1" x="597.5" y="547.947" width="40" height="5" transform="translate(997.5 653.842) rotate(180)"/><rect class="cls-1" x="477.5" y="547.947" width="40" height="5" transform="translate(757.5 653.842) rotate(180)"/><rect class="cls-1" x="240" y="0.894" width="80" height="5"/><rect class="cls-1" x="250" y="50.894" width="70" height="5"/><rect class="cls-1" x="475" y="40.894" width="20" height="5"/><rect class="cls-1" x="460" y="50.894" width="20" height="5"/><rect class="cls-1" x="450" y="60.894" width="20" height="5"/><rect class="cls-1" x="450" y="80.894" width="20" height="5"/><rect class="cls-1" x="445" y="70.894" width="20" height="5"/><rect class="cls-1" x="460" y="90.894" width="20" height="5"/><rect class="cls-1" x="727.5" y="537.947" width="20" height="5" transform="translate(1237.5 633.842) rotate(180)"/><rect class="cls-1" x="737.5" y="527.947" width="20" height="5" transform="translate(1257.5 613.842) rotate(180)"/><rect class="cls-1" x="742.5" y="517.947" width="20" height="5" transform="translate(1267.5 593.842) rotate(180)"/><rect class="cls-1" x="737.5" y="507.947" width="20" height="5" transform="translate(1257.5 573.842) rotate(180)"/><rect class="cls-1" x="727.5" y="497.947" width="20" height="5" transform="translate(1237.5 553.842) rotate(180)"/><rect class="cls-1" x="475" y="100.894" width="20" height="5"/></g></svg>