<svg xmlns="http://www.w3.org/2000/svg" viewBox="0 0 960 487.387"><defs><style>.cls-1{fill:#121221;}.cls-2,.cls-3{fill:#366ce1;}.cls-2{opacity:0.38;}.cls-3{opacity:0.62;}.cls-4{opacity:0.92;}</style></defs><title>Franchise360</title><g id="Слой_2" data-name="Слой 2"><g id="Complete"><g id="Franchise360"><path class="cls-1" d="M519.29,447.387H540a50,50,0,1,1,0-20H519.29a30,30,0,1,0,0,20Z"/><polygon class="cls-1" points="20 407.387 20 427.387 80 427.387 80 447.387 20 447.387 20 487.387 0 487.387 0 387.387 100 387.387 100 407.387 20 407.387"/><polygon class="cls-1" points="430 387.387 430 487.387 410 487.387 350 417.977 350 487.387 330 487.387 330 387.387 350 387.387 410 456.797 410 387.387 430 387.387"/><path class="cls-1" d="M770,417.387a10,10,0,0,0,10,10h40a30,30,0,0,1,0,60H750v-20h70a10,10,0,0,0,0-20H780a30,30,0,0,1,0-60h70v20H780A10,10,0,0,0,770,417.387Z"/><polygon class="cls-1" points="650 387.387 650 487.387 630 487.387 630 447.387 570 447.387 570 487.387 550 487.387 550 387.387 570 387.387 570 427.387 630 427.387 630 387.387 650 387.387"/><polygon class="cls-1" points="880 407.387 880 427.387 960 427.387 960 447.387 880 447.387 880 467.387 960 467.387 960 487.387 860 487.387 860 387.387 960 387.387 960 407.387 880 407.387"/><path class="cls-1" d="M210,417.387a30,30,0,0,0-30-30H110v100h20v-40h50a10,10,0,0,1,10,10v30h20v-30a29.862,29.862,0,0,0-7.65-20A29.862,29.862,0,0,0,210,417.387Zm-80,10v-20h50a10,10,0,0,1,0,20Z"/><path class="cls-1" d="M280.77,389.337l-.78-1.95H260.01l-.78,1.94L220,487.387h21.55l11.2-28h34.5l11.2,28H320Zm-20.02,50.05,9.25-23.13,9.25,23.13Z"/><polygon class="cls-1" points="710 407.387 710 467.387 740 467.387 740 487.387 660 487.387 660 467.387 690 467.387 690 407.387 660 407.387 660 387.387 740 387.387 740 407.387 710 407.387"/><path class="cls-2" d="M480,0A180,180,0,1,0,660,180,180,180,0,0,0,480,0Zm0,324A144,144,0,1,1,624,180,144.012,144.012,0,0,1,480,324Z"/><path class="cls-3" d="M480,36A144,144,0,1,0,624,180,144.012,144.012,0,0,0,480,36ZM430,210a40,40,0,0,1-80,0h20a20,20,0,1,0,20-20V170a20,20,0,1,0-20-20H350a40,40,0,1,1,66.44,30A39.845,39.845,0,0,1,430,210Zm50-40a40,40,0,1,1-40,40V150a40,40,0,0,1,80,0H500a20,20,0,0,0-40,0v25.35A39.884,39.884,0,0,1,480,170Zm90,80a40,40,0,0,1-40-40V150a40,40,0,0,1,80,0v60A40,40,0,0,1,570,250Z"/><g class="cls-4"><circle class="cls-3" cx="480" cy="210" r="20"/><path class="cls-3" d="M590,150v60a20,20,0,0,1-40,0V150a20,20,0,0,1,40,0Z"/></g></g></g></g></svg>