<svg id="Main" xmlns="http://www.w3.org/2000/svg" viewBox="0 0 655.607 500.548"><defs><style>.cls-1{fill:#366ce1;}.cls-2{fill:#121221;}</style></defs><title>freshbooks</title><g id="FreshBooks"><rect class="cls-1" y="90.462" width="30" height="200"/><rect class="cls-1" y="90.462" width="100" height="40"/><rect class="cls-1" y="180.462" width="100" height="20"/><path class="cls-1" d="M322.2,340.188h-50v200h30v-100h20a50,50,0,0,0,0-100Zm0,70h-20v-40h20a20,20,0,0,1,0,40Z" transform="translate(-172.197 -249.726)"/><polygon class="cls-1" points="170 290.462 200 290.462 160 170.462 130 170.462 170 290.462"/><rect class="cls-1" x="200" y="90.462" width="30" height="200"/><rect class="cls-1" x="470" y="90.462" width="30" height="200"/><rect class="cls-1" x="400" y="90.462" width="30" height="200"/><rect class="cls-1" x="200" y="250.462" width="100" height="40"/><rect class="cls-1" x="230" y="90.462" width="70" height="30"/><rect class="cls-1" x="230" y="170.462" width="70" height="30"/><rect class="cls-1" x="400" y="170.462" width="70" height="30"/><path class="cls-1" d="M572.2,480.188c0,33.14-22.39,60-50,60s-50-26.86-50-60h30c0,16.57,8.95,30,20,30s20-13.43,20-30-8.95-30-20-30a47.417,47.417,0,0,1-33.67-14.35,57.381,57.381,0,0,1-16.33-40.65c0-30.38,22.39-55,50-55,26.08,0,47.5,21.96,49.79,50H541.8c-1.85-11.41-9.92-20-19.6-20-11.05,0-20,11.19-20,25s8.95,25,20,25c12.97,0,24.79,5.93,33.67,15.65C565.907,446.818,572.2,462.618,572.2,480.188Z" transform="translate(-172.197 -249.726)"/><path class="cls-1" d="M572.2,390.188v5c0-1.69-.07-3.36-.21-5Z" transform="translate(-172.197 -249.726)"/><path class="cls-2" d="M772.2,680.188c0,33.14-22.39,60-50,60s-50-26.86-50-60h30c0,16.57,8.95,30,20,30s20-13.43,20-30-8.95-30-20-30a47.417,47.417,0,0,1-33.67-14.35,57.381,57.381,0,0,1-16.33-40.65c0-30.38,22.39-55,50-55,26.08,0,47.5,21.96,49.79,50H741.8c-1.85-11.41-9.92-20-19.6-20-11.05,0-20,11.19-20,25s8.95,25,20,25c12.97,0,24.79,5.93,33.67,15.65C765.907,646.818,772.2,662.618,772.2,680.188Z" transform="translate(-172.197 -249.726)"/><path class="cls-2" d="M372.2,590.188a50.008,50.008,0,0,0-70-45.83v-4.17h-30v200h50a50,50,0,0,0,0-100A50.005,50.005,0,0,0,372.2,590.188Zm-70,80h20a20,20,0,0,1,0,40h-20Zm40-80a19.994,19.994,0,0,1-20,20h-20v-40h20A19.994,19.994,0,0,1,342.2,590.188Z" transform="translate(-172.197 -249.726)"/><path class="cls-2" d="M422.2,540.188a50.005,50.005,0,0,0-50,50v100a50,50,0,0,0,100,0v-100A50.005,50.005,0,0,0,422.2,540.188Zm20,150a20,20,0,0,1-40,0v-100a20,20,0,0,1,40,0Z" transform="translate(-172.197 -249.726)"/><path class="cls-2" d="M522.2,540.188a50.005,50.005,0,0,0-50,50v100a50,50,0,0,0,100,0v-100A50.005,50.005,0,0,0,522.2,540.188Zm20,150a20,20,0,0,1-40,0v-100a20,20,0,0,1,40,0Z" transform="translate(-172.197 -249.726)"/><rect class="cls-2" x="400" y="290.462" width="30" height="200"/><polygon class="cls-2" points="400 390.462 440 390.462 500 490.462 460 490.462 400 390.462"/><polygon class="cls-2" points="410 390.462 440 390.462 500 290.462 470 290.462 410 390.462"/><path class="cls-1" d="M772.2,540.188c-14.207-8.869-34.487-24.487-50-50-3.175-5.222-31.1-52.684-20-110,6.778-35.012,21.683-40.472,20-70-2-35.019-24.605-56.238-20-60,5.183-4.236,35.462,21.321,60,50,16.752,19.579,36.466,43.051,50,80,10.735,29.309,23,62.8,10,100C810.446,513.8,784.284,532.629,772.2,540.188Z" transform="translate(-172.197 -249.726)"/><path class="cls-2" d="M772.2,540.188c-2.144.728,13.875,34.272,20,80,5.765,43.048,2.236,92.975,20,120,2,3.048,7.23,11,10,10,2.92-1.055,2.207-11.738,0-20a56.137,56.137,0,0,0-10-20c-19.766-25.3-4.486-84.848-30-150C778.605,551.017,773.435,539.767,772.2,540.188Z" transform="translate(-172.197 -249.726)"/><path class="cls-2" d="M777.377,556.508a159.836,159.836,0,0,1-16.883-64.276l-.135-4.18c-.01-1.394.023-2.789.032-4.183l.027-2.09.109-2.089c.086-1.391.115-2.786.248-4.173A157.843,157.843,0,0,1,763,458.97c1.99-10.95,5.1-21.6,7.3-32.4,4.589-21.579,3.31-44.167-2.233-65.516a208.433,208.433,0,0,0-10.815-31.3,306.46,306.46,0,0,0-15.05-29.559A306.563,306.563,0,0,1,757.59,329.6a209.077,209.077,0,0,1,11.2,31.265,155.516,155.516,0,0,1,5.31,32.806l.185,4.163,0,4.168c.023,1.391-.029,2.779-.1,4.167s-.091,2.78-.211,4.165a139.574,139.574,0,0,1-2.207,16.525c-2.092,10.915-5.077,21.586-6.922,32.447a155.844,155.844,0,0,0-2.012,16.363c-.115,1.369-.128,2.743-.2,4.114l-.084,2.057,0,2.059c.007,1.373-.011,2.745.015,4.117l.179,4.113a157.217,157.217,0,0,0,17.318,63.038Z" transform="translate(-172.197 -249.726)"/></g></svg>