<svg xmlns="http://www.w3.org/2000/svg" viewBox="0 0 480 100"><defs><style>.cls-1{fill:#366ce1;}.cls-2{fill:#121221;}</style></defs><title>fulcrum</title><g id="Слой_2" data-name="Слой 2"><g id="Work_space" data-name="Work space"><g id="fulcrum"><polygon class="cls-1" points="458.87 70 401.13 70 430 20 458.87 70"/><path class="cls-2" d="M430,0a50,50,0,1,0,50,50A50.005,50.005,0,0,0,430,0Zm0,90a40,40,0,1,1,40-40A40,40,0,0,1,430,90Z"/><path class="cls-2" d="M188.505,51.115h9.778a23.605,23.605,0,1,1,0-9.442h-9.778a14.164,14.164,0,1,0,0,9.442Z"/><polygon class="cls-2" points="9.442 32.231 9.442 41.673 37.769 41.673 37.769 51.115 9.442 51.115 9.442 70 0 70 0 22.789 47.211 22.789 47.211 32.231 9.442 32.231"/><polygon class="cls-2" points="354.557 22.789 354.557 70 345.114 70 345.114 37.231 337.183 46.418 330.946 53.646 324.71 46.418 316.788 37.245 316.788 70 307.345 70 307.345 22.789 316.788 22.789 316.788 22.793 330.946 39.195 345.105 22.789 354.557 22.789"/><path class="cls-2" d="M99.144,22.789v23.6a23.606,23.606,0,0,1-47.212,0v-23.6h9.443v23.6a14.163,14.163,0,1,0,28.326,0v-23.6Z"/><path class="cls-2" d="M302.624,22.789v23.6a23.606,23.606,0,1,1-47.211,0v-23.6h9.442v23.6a14.164,14.164,0,1,0,28.327,0v-23.6Z"/><polygon class="cls-2" points="151.548 60.558 151.548 70 104.337 70 104.337 22.789 113.779 22.789 113.779 60.558 151.548 60.558"/><path class="cls-2" d="M250.692,36.952a14.163,14.163,0,0,0-14.164-14.163H203.481V70h9.442V51.115h23.6a4.724,4.724,0,0,1,4.722,4.722V70h9.442V55.837a14.1,14.1,0,0,0-3.612-9.443A14.1,14.1,0,0,0,250.692,36.952Zm-37.769,4.721V32.231h23.6a4.721,4.721,0,1,1,0,9.442Z"/></g></g></g></svg>