<svg xmlns="http://www.w3.org/2000/svg" viewBox="0 0 1000.02 160"><defs><style>.cls-1{fill:#366ce1;}.cls-2{fill:#121221;}</style></defs><title>fundview</title><g id="Слой_2" data-name="Слой 2"><g id="Work_space" data-name="Work space"><g id="fundview"><polygon class="cls-1" points="20 50 20 70 80 70 80 90 20 90 20 130 0 130 0 30 100 30 100 50 20 50"/><polygon class="cls-1" points="320 30 320 130 300 130 240 60.59 240 130 220 130 220 30 240 30 300 99.41 300 30 320 30"/><path class="cls-1" d="M380,30H330V130h50a50,50,0,0,0,0-100Zm0,80H350V50h30a30,30,0,0,1,0,60Z"/><polygon class="cls-2" points="760.02 130 760.02 30 780.02 30 780.02 99.41 796.82 79.95 810.03 64.64 823.24 79.95 840.02 99.38 840.02 30 860.02 30 860.02 130 840.02 130 840.02 129.99 810.03 95.25 780.04 130 760.02 130"/><polygon class="cls-2" points="670 50 670 70 750 70 750 90 670 90 670 110 750 110 750 130 650 130 650 30 750 30 750 50 670 50"/><polygon class="cls-2" points="609.98 50 609.98 110 639.98 110 639.98 130 559.98 130 559.98 110 589.98 110 589.98 50 559.98 50 559.98 30 639.98 30 639.98 50 609.98 50"/><path class="cls-1" d="M210,30V80a50,50,0,0,1-100,0V30h20V80a30,30,0,0,0,60,0V30Z"/><polygon class="cls-2" points="549.98 30 510.76 128.07 509.99 130 489.99 130 489.22 128.07 450 30 471.54 30 499.99 101.14 528.45 30 549.98 30"/><path class="cls-1" d="M965.37,125.35c.57-.57,1.12-1.14,1.66-1.74-.52.59-1.08,1.17-1.65,1.74Z"/><path class="cls-1" d="M968.6,121.8c.76-.93,1.49-1.88,2.19-2.86C970.11,119.92,969.38,120.87,968.6,121.8Z"/><ellipse class="cls-2" cx="950.02" cy="80" rx="47.7" ry="35"/><path class="cls-2" d="M1000.02,110q0,1.215-.06,2.4c-.05,1.21-.15,2.41-.3,3.59-.03.26-.06.53-.1.79-.03.28-.07.55-.12.83s-.09.58-.14.86c-.06.36-.13.72-.2,1.08-.07.41-.16.82-.25,1.22-.07.34-.15.67-.23,1-.35,1.47-.77,2.91-1.25,4.32-.12.37-.25.73-.39,1.1-.14.4-.29.79-.45,1.18-.14.36-.29.73-.44,1.09s-.32.74-.49,1.11-.34.74-.51,1.1-.36.73-.54,1.09c-.55,1.07-1.15,2.13-1.77,3.16-.42.69-.85,1.36-1.3,2.03l-.69.99c-.7.98-1.43,1.93-2.19,2.86-.51.62-1.04,1.22-1.57,1.81s-1.09,1.17-1.66,1.74c-.84.85-1.72,1.67-2.63,2.45q-.375.33-.75.63a3.876,3.876,0,0,1-.31.26c-.57.47-1.16.93-1.75,1.37-.32.24-.65.48-.97.71-.65.47-1.32.92-2,1.35-.3.19-.6.38-.9.56-.46.29-.93.57-1.41.83-.5.29-1,.56-1.51.82.01-.01.01-.02.02-.03h-.01A49.99,49.99,0,0,1,902.32,95a50.006,50.006,0,0,0,95.4,0c.19.59.36,1.19.53,1.79.15.56.3,1.12.43,1.68.1.4.18.8.26,1.2.11.48.21.97.29,1.47q.1.525.18,1.05l.03.18c.07.43.13.87.18,1.3.02.11.03.23.04.34q.06.42.09.84c.06.51.11,1.03.14,1.55s.07,1.04.09,1.57v.14C1000.01,108.74,1000.02,109.37,1000.02,110Z"/><path class="cls-1" d="M997.72,95a50.054,50.054,0,0,1-19.86,26.53,49.65,49.65,0,0,0-12.15-24.05,50,50,0,0,1-51.05-12.12c-.53-.53-1.05-1.07-1.54-1.62-1.11-1.21-2.14-2.45-3.11-3.73A49.372,49.372,0,0,1,902.32,65a50.054,50.054,0,0,1,19.86-26.53,49.65,49.65,0,0,0,12.15,24.05,50,50,0,0,1,51.05,12.12c.53.53,1.05,1.07,1.54,1.62,1.11,1.21,2.14,2.45,3.11,3.73A49.372,49.372,0,0,1,997.72,95Z"/><path class="cls-2" d="M1000.02,50a49.54,49.54,0,0,1-2.3,15,50.006,50.006,0,0,0-95.4,0c-.19-.59-.36-1.19-.53-1.79-.15-.56-.3-1.12-.43-1.68-.1-.4-.18-.8-.26-1.2-.11-.49-.21-.98-.29-1.47q-.1-.525-.18-1.05l-.03-.18c-.07-.43-.13-.87-.18-1.3-.02-.11-.03-.23-.04-.34q-.06-.42-.09-.84c-.06-.51-.11-1.03-.14-1.55s-.07-1.04-.09-1.57v-.14c-.03-.63-.04-1.26-.04-1.89q0-1.215.06-2.4c.05-1.21.15-2.41.3-3.59.03-.26.06-.53.1-.79.03-.28.07-.55.12-.83s.09-.58.14-.86c.06-.36.13-.72.2-1.08.07-.41.16-.82.25-1.22.07-.34.15-.67.23-1,.35-1.47.77-2.91,1.25-4.32.12-.37.25-.73.39-1.1.14-.4.29-.79.45-1.18.14-.36.29-.73.44-1.09s.32-.74.49-1.11.34-.74.51-1.1.36-.73.54-1.09c.55-1.07,1.15-2.13,1.77-3.16.42-.69.85-1.36,1.3-2.03l.69-.99c.7-.98,1.43-1.93,2.19-2.86.51-.62,1.04-1.22,1.57-1.81s1.09-1.17,1.66-1.74c.84-.85,1.72-1.67,2.63-2.45q.375-.33.75-.63a3.876,3.876,0,0,1,.31-.26c.57-.47,1.16-.93,1.75-1.37.32-.24.65-.48.97-.71.65-.47,1.32-.92,2-1.35.3-.19.6-.38.9-.56.46-.29.93-.57,1.41-.83.5-.29,1-.56,1.51-.82-.01.01-.01.02-.02.03h.01A49.956,49.956,0,0,1,1000.02,50Z"/><circle class="cls-2" cx="950.02" cy="80" r="20"/></g></g></g></svg>