<svg xmlns="http://www.w3.org/2000/svg" viewBox="0 0 830 100"><defs><style>.cls-1{fill:#366ce1;}.cls-2{fill:#121221;}</style></defs><title>fungible</title><g id="Слой_2" data-name="Слой 2"><g id="Work_space" data-name="Work space"><g id="fungible"><polygon class="cls-1" points="20 20 20 40 80 40 80 60 20 60 20 100 0 100 0 0 100 0 100 20 20 20"/><polygon class="cls-2" points="480 20 480 80 500 80 500 100 440 100 440 80 460 80 460 20 440 20 440 0 500 0 500 20 480 20"/><polygon class="cls-1" points="320 0 320 100 300 100 240 30.59 240 100 220 100 220 0 240 0 300 69.41 300 0 320 0"/><polygon class="cls-2" points="750 20 750 40 830 40 830 60 750 60 750 80 830 80 830 100 730 100 730 0 830 0 830 20 750 20"/><polygon class="cls-2" points="720 80 720 100 620 100 620 0 640 0 640 80 720 80"/><path class="cls-2" d="M610,30A30,30,0,0,0,580,0H510V100h70a29.991,29.991,0,0,0,22.35-50A29.862,29.862,0,0,0,610,30ZM530,20h50a10,10,0,0,1,0,20H530Zm50,60H530V60h50a10,10,0,0,1,0,20Z"/><path class="cls-2" d="M430,40V50a49.16,49.16,0,0,1-1.01,10,50.013,50.013,0,1,1-13.64-45.35L401.21,28.79A30,30,0,1,0,408.28,60H380V40Z"/><path class="cls-1" d="M210,0V50a50,50,0,0,1-100,0V0h20V50a30,30,0,0,0,60,0V0Z"/></g></g></g></svg>