<svg xmlns="http://www.w3.org/2000/svg" viewBox="0 0 1170 100"><defs><style>.cls-1{fill:#121221;}.cls-2{fill:#366ce1;}</style></defs><title>funnel dash</title><g id="Слой_2" data-name="Слой 2"><g id="Work_space" data-name="Work space"><g id="funnel_dash" data-name="funnel dash"><polygon class="cls-1" points="20 20 20 40 80 40 80 60 20 60 20 100 0 100 0 0 100 0 100 20 20 20"/><polygon class="cls-1" points="320 0 320 100 300 100 240 30.59 240 100 220 100 220 0 240 0 300 69.41 300 0 320 0"/><polygon class="cls-1" points="430 0 430 100 410 100 350 30.59 350 100 330 100 330 0 350 0 410 69.41 410 0 430 0"/><path class="cls-2" d="M800,0H750V100h50A50,50,0,0,0,800,0Zm0,80H770V20h30a30,30,0,0,1,0,60Z"/><path class="cls-2" d="M980,30a10,10,0,0,0,10,10h40a30,30,0,0,1,0,60H960V80h70a10,10,0,0,0,0-20H990a30,30,0,0,1,0-60h70V20H990A10,10,0,0,0,980,30Z"/><polygon class="cls-2" points="1170 0 1170 100 1150 100 1150 60 1090 60 1090 100 1070 100 1070 0 1090 0 1090 40 1150 40 1150 0 1170 0"/><polygon class="cls-1" points="460 20 460 40 540 40 540 60 460 60 460 80 540 80 540 100 440 100 440 0 540 0 540 20 460 20"/><polygon class="cls-1" points="650 80 650 100 550 100 550 0 570 0 570 80 650 80"/><path class="cls-2" d="M910.77,1.95,909.99,0H890.01l-.78,1.94L850,100h21.55l11.2-28h34.5l11.2,28H950ZM890.75,52,900,28.87,909.25,52Z"/><path class="cls-1" d="M210,0V50a50,50,0,0,1-100,0V0h20V50a30,30,0,0,0,60,0V0Z"/></g></g></g></svg>