<svg xmlns="http://www.w3.org/2000/svg" viewBox="0 0 1280 100"><defs><style>.cls-1{fill:#121221;}.cls-2{fill:#366ce1;}</style></defs><title>future motion</title><g id="Слой_2" data-name="Слой 2"><g id="Work_space" data-name="Work space"><g id="future_motion" data-name="future motion"><path class="cls-1" d="M830,0a50,50,0,1,0,50,50A50.005,50.005,0,0,0,830,0Zm0,90a40,40,0,1,1,40-40A40,40,0,0,1,830,90Z"/><path class="cls-1" d="M1120,0a50,50,0,1,0,50,50A50.005,50.005,0,0,0,1120,0Zm0,90a40,40,0,1,1,40-40A40,40,0,0,1,1120,90Z"/><polygon class="cls-2" points="560 10 560 45 650 45 650 55 560 55 560 90 650 90 650 100 550 100 550 0 650 0 650 10 560 10"/><path class="cls-1" d="M689.99.07V.04L690,0h9.97l20.01,78.98Q729.99,39.489,740,0h9.99l.01.01q15,50,29.99,99.99H769.55L745.37,19.43l-20.24,79.9-.14.56-.03.11h-9.97l-.17-.66L694.59,19.51,670.44,100H660Q675,50.035,689.99.07Z"/><path class="cls-2" d="M526.57,55A29.994,29.994,0,0,0,510,0H440V100h10V60h60a19.994,19.994,0,0,1,20,20v20h10V80A29.923,29.923,0,0,0,526.57,55ZM500,52.04l-.02-.04H500ZM510,50H450V10h60a20,20,0,0,1,0,40Z"/><polygon class="cls-1" points="1040 10 1040 90 1070 90 1070 100 1000 100 1000 90 1030 90 1030 10 1000 10 1000 0 1070 0 1070 10 1040 10"/><polygon class="cls-1" points="1280 0 1280 100 1270.07 100 1270 99.92 1190 14.59 1190 100 1180 100 1180 0 1190.02 0 1270 85.3 1270 0 1280 0"/><path class="cls-2" d="M210,0V50a50,50,0,0,1-100,0V0h10V50a40,40,0,0,0,80,0V0Z"/><polygon class="cls-2" points="10 10 10 45 70 45 70 55 10 55 10 100 0 100 0 0 100 0 100 10 10 10"/><path class="cls-2" d="M430,0V50a50,50,0,0,1-100,0V0h10V50a40,40,0,0,0,80,0V0Z"/><polygon class="cls-2" points="320 0 320 10 275 10 275 100 265 100 265 10 220 10 220 0 320 0"/><polygon class="cls-1" points="980 0 980 10 935 10 935 100 925 100 925 10 880 10 880 0 980 0"/></g></g></g></svg>