<svg xmlns="http://www.w3.org/2000/svg" viewBox="0 0 430 200"><defs><style>.cls-1{fill:#366ce1;}.cls-2,.cls-3{fill:#121221;}.cls-2{opacity:0.62;}.cls-3{opacity:0.38;}</style></defs><title>fuzzbuzz</title><g id="Слой_2" data-name="Слой 2"><g id="Work_space" data-name="Work space"><g id="fuzzbuzz"><polygon class="cls-1" points="20 20 20 40 80 40 80 60 20 60 20 100 0 100 0 0 100 0 100 20 20 20"/><path class="cls-1" d="M100,130a30,30,0,0,0-30-30H0V200H70a29.991,29.991,0,0,0,22.35-50A29.862,29.862,0,0,0,100,130ZM20,120H70a10,10,0,0,1,0,20H20Zm50,60H20V160H70a10,10,0,0,1,0,20Z"/><polygon class="cls-1" points="220 0 320 0 320 20 250.59 80 320 80 320 100 220 100 220 80 289.41 20 220 20 220 0"/><polygon class="cls-1" points="330 0 430 0 430 20 360.59 80 430 80 430 100 330 100 330 80 399.41 20 330 20 330 0"/><polygon class="cls-1" points="220 100 320 100 320 120 250.59 180 320 180 320 200 220 200 220 180 289.41 120 220 120 220 100"/><polygon class="cls-1" points="330 100 430 100 430 120 360.59 180 430 180 430 200 330 200 330 180 399.41 120 330 120 330 100"/><path class="cls-1" d="M210,60v90a50,50,0,0,1-100,0V60a49.891,49.891,0,0,0,20,39.99V150a30,30,0,0,0,60,0V99.99A49.891,49.891,0,0,0,210,60Z"/><path class="cls-2" d="M100,130a30,30,0,0,0-30-30H0V200H70a29.991,29.991,0,0,0,22.35-50A29.862,29.862,0,0,0,100,130ZM20,120H70a10,10,0,0,1,0,20H20Zm50,60H20V160H70a10,10,0,0,1,0,20Z"/><polygon class="cls-2" points="220 100 320 100 320 120 250.59 180 320 180 320 200 220 200 220 180 289.41 120 220 120 220 100"/><polygon class="cls-2" points="330 100 430 100 430 120 360.59 180 430 180 430 200 330 200 330 180 399.41 120 330 120 330 100"/><path class="cls-2" d="M210,60v90a50,50,0,0,1-100,0V60a49.891,49.891,0,0,0,20,39.99V150a30,30,0,0,0,60,0V99.99A49.891,49.891,0,0,0,210,60Z"/><polygon class="cls-3" points="20 20 20 40 80 40 80 60 20 60 20 100 0 100 0 0 100 0 100 20 20 20"/><polygon class="cls-3" points="220 0 320 0 320 20 250.59 80 320 80 320 100 220 100 220 80 289.41 20 220 20 220 0"/><polygon class="cls-3" points="330 0 430 0 430 20 360.59 80 430 80 430 100 330 100 330 80 399.41 20 330 20 330 0"/><path class="cls-1" d="M210,0V60a50,50,0,0,1-100,0V0h20V60a30,30,0,0,0,60,0V0Z"/><path class="cls-3" d="M210,0V60a50,50,0,0,1-100,0V0h20V60a30,30,0,0,0,60,0V0Z"/></g></g></g></svg>