<svg xmlns="http://www.w3.org/2000/svg" viewBox="0 0 890 100.053"><defs><style>.cls-1{fill:#121221;}.cls-2{opacity:0.38;}.cls-3,.cls-6{fill:#366ce1;}.cls-4{fill:none;}.cls-5,.cls-6{opacity:0.62;}</style></defs><title>Gainsight</title><g id="Слой_2" data-name="Слой 2"><g id="Work_space" data-name="Work space"><g id="Gainsight"><path class="cls-1" d="M560,0V20H540V44.3q-9.99,1.275-20,2.54V20H500V0Z"/><path class="cls-1" d="M560,80v20H500V80h20V46.84q10-1.26,20-2.54V80Z"/><path class="cls-1" d="M250,20V80h8q-24,3.045-48,6.08V80h20V20H210V0h60V20Z"/><path class="cls-1" d="M358.19,67.32q-11.91,1.515-23.83,3.01h-.01L300,30.59V74.68q-9.99,1.275-20,2.54V0h20Z"/><path class="cls-1" d="M300,74.68V100H280V77.22Q290.005,75.945,300,74.68Z"/><path class="cls-1" d="M380,0V64.56q-9.99,1.26-20,2.53V0Z"/><path class="cls-1" d="M410,30a10,10,0,0,0,10,10h40a29.911,29.911,0,0,1,23.57,11.45q-33.24,4.215-66.48,8.41h-.01A30,30,0,0,1,420,0h70V20H420A10,10,0,0,0,410,30Z"/><path class="cls-1" d="M490,70a30,30,0,0,1-30,30H390V80h70a10,10,0,0,0,0-20H420c-.98,0-1.95-.05-2.91-.14q33.24-4.2,66.48-8.41A29.824,29.824,0,0,1,490,70Z"/><path class="cls-1" d="M700,0V24.05q-9.99,1.275-20,2.53V0Z"/><path class="cls-1" d="M780,0V13.92q-10,1.275-20,2.54V0Z"/><path class="cls-1" d="M100,100h21.55l1.15-2.87Q111.345,98.555,100,100Z"/><path class="cls-1" d="M160.77,1.95,159.99,0H140.01l-.78,1.94L100,100q11.355-1.44,22.7-2.87L132.75,72h34.5l7.42,18.55q10.26-1.3,20.51-2.6ZM140.75,52,150,28.87,159.25,52Z"/><path class="cls-1" d="M655.35,14.65,641.21,28.79a29.989,29.989,0,0,0-48.54,8.85q-10.86,1.38-21.74,2.75a49.993,49.993,0,0,1,84.42-25.74Z"/><path class="cls-1" d="M100,40V50a49.16,49.16,0,0,1-1.01,10A50.013,50.013,0,1,1,85.35,14.65L71.21,28.79A30,30,0,1,0,78.28,60H50V40Z"/><path class="cls-1" d="M890,0,790,12.66V0Z"/><path class="cls-1" d="M890,0V20H850v80H830V20H790V12.66Z"/><g class="cls-2"><path class="cls-3" d="M560,.053v20H540v24.3q-9.99,1.275-20,2.54V20.053H500v-20Z"/><path class="cls-3" d="M250,20.053v60h8q-24,3.045-48,6.08v-6.08h20v-60H210v-20h60v20Z"/><path class="cls-3" d="M358.19,67.373q-11.91,1.515-23.83,3.01h-.01L300,30.643v44.09q-9.99,1.275-20,2.54V.053h20Z"/><path class="cls-3" d="M380,.053v64.56q-9.99,1.26-20,2.53V.053Z"/><path class="cls-3" d="M410,30.053a10,10,0,0,0,10,10h40A29.911,29.911,0,0,1,483.57,51.5q-33.24,4.215-66.48,8.41h-.01A30,30,0,0,1,420,.053h70v20H420A10,10,0,0,0,410,30.053Z"/><path class="cls-3" d="M700,.053V24.1q-9.99,1.275-20,2.53V.053Z"/><path class="cls-3" d="M780,.053v13.92q-10,1.275-20,2.54V.053Z"/><path class="cls-3" d="M160.77,2l-.78-1.95H140.01l-.78,1.94L100,100.053q11.355-1.44,22.7-2.87l10.05-25.13h34.5l7.42,18.55q10.26-1.3,20.51-2.6Zm-20.02,50.05L150,28.923l9.25,23.13Z"/><path class="cls-3" d="M655.35,14.7l-14.14,14.14a29.989,29.989,0,0,0-48.54,8.85q-10.86,1.38-21.74,2.75A49.993,49.993,0,0,1,655.35,14.7Z"/><path class="cls-3" d="M100,40.053v10a49.16,49.16,0,0,1-1.01,10A50.013,50.013,0,1,1,85.35,14.7L71.21,28.843a30,30,0,1,0,7.07,31.21H50v-20Z"/><path class="cls-3" d="M890,.053,790,12.713V.053Z"/></g><path class="cls-1" d="M780,13.92V100H760V60H700v40H680V26.58q10-1.26,20-2.53V40h60V16.46Q770,15.185,780,13.92Z"/><path class="cls-1" d="M670,40V50a49.16,49.16,0,0,1-1.01,10,50,50,0,0,1-98.06-19.61q10.875-1.365,21.74-2.75A29.678,29.678,0,0,0,590,50a30,30,0,0,0,58.28,10H620V40Z"/><path class="cls-1" d="M380,64.56V100H360L334.36,70.33q11.925-1.5,23.83-3.01L360,69.41V67.09Q370.005,65.83,380,64.56Z"/><path class="cls-1" d="M270,80v20H210V86.08q24-3.045,48-6.08Z"/><path class="cls-1" d="M200,100H178.45l-3.78-9.45q10.26-1.3,20.51-2.6Z"/><path class="cls-4" d="M360,67.09c-.6.08-1.2.15-1.81.23"/><g class="cls-5"><path class="cls-3" d="M560,80v20H500V80h20V46.84q10-1.26,20-2.54V80Z"/><path class="cls-3" d="M300,74.68V100H280V77.22Q290.005,75.945,300,74.68Z"/><path class="cls-3" d="M490,70a30,30,0,0,1-30,30H390V80h70a10,10,0,0,0,0-20H420c-.98,0-1.95-.05-2.91-.14q33.24-4.2,66.48-8.41A29.824,29.824,0,0,1,490,70Z"/><path class="cls-3" d="M100,100h21.55l1.15-2.87Q111.345,98.555,100,100Z"/><path class="cls-3" d="M890,0V20H850v80H830V20H790V12.66Z"/></g><path class="cls-6" d="M780,13.92V100H760V60H700v40H680V26.58q10-1.26,20-2.53V40h60V16.46Q770,15.185,780,13.92Z"/><path class="cls-6" d="M670,40V50a49.16,49.16,0,0,1-1.01,10,50,50,0,0,1-98.06-19.61q10.875-1.365,21.74-2.75A29.678,29.678,0,0,0,590,50a30,30,0,0,0,58.28,10H620V40Z"/><path class="cls-6" d="M380,64.56V100H360L334.36,70.33q11.925-1.5,23.83-3.01L360,69.41V67.09Q370.005,65.83,380,64.56Z"/><path class="cls-6" d="M270,80v20H210V86.08q24-3.045,48-6.08Z"/><path class="cls-6" d="M200,100H178.45l-3.78-9.45q10.26-1.3,20.51-2.6Z"/></g></g></g></svg>