<svg xmlns="http://www.w3.org/2000/svg" viewBox="0 0 93.333 130"><defs><style>.cls-1{fill:#366ce1;}.cls-2{fill:#1c1e20;}.cls-3{fill:#e1dfdf;}</style></defs><title>gamerbryo</title><g id="complete"><g id="gamebryo"><path class="cls-1" d="M546.667,516.667A46.528,46.528,0,0,1,540.425,540,46.856,46.856,0,0,0,522.6,522.5a23.333,23.333,0,1,0-45.2,0A46.856,46.856,0,0,0,459.575,540a46.671,46.671,0,1,1,87.092-23.333Z" transform="translate(-453.333 -470)"/><path class="cls-2" d="M540,560a40.006,40.006,0,1,1-59.37-35,20,20,0,1,1,38.74,0A39.96,39.96,0,0,1,540,560Z" transform="translate(-453.333 -470)"/><circle class="cls-1" cx="46.667" cy="90" r="30"/><circle class="cls-3" cx="38.667" cy="45" r="5"/><circle class="cls-3" cx="54.667" cy="45" r="5"/></g></g></svg>