<svg xmlns="http://www.w3.org/2000/svg" viewBox="0 0 840 120"><defs><style>.cls-1{fill:#121221;}.cls-2{fill:#366ce1;}</style></defs><title>gantpro</title><g id="Слой_2" data-name="Слой 2"><g id="Work_space" data-name="Work space"><g id="gantpro"><path class="cls-1" d="M580,40a30,30,0,0,0-30-30H480V110h20V70h50a10,10,0,0,1,10,10v30h20V80a29.862,29.862,0,0,0-7.65-20A29.862,29.862,0,0,0,580,40ZM500,50V30h50a10,10,0,0,1,0,20Z"/><path class="cls-1" d="M640,10a50,50,0,1,0,50,50A50.005,50.005,0,0,0,640,10Zm0,80a30,30,0,1,1,30-30A30,30,0,0,1,640,90Z"/><path class="cls-2" d="M100,50V60a49.16,49.16,0,0,1-1.01,10A50.013,50.013,0,1,1,85.35,24.65L71.21,38.79A30,30,0,1,0,78.28,70H50V50Z"/><path class="cls-1" d="M440,10H370V110h20V70h50a30,30,0,0,0,0-60Zm0,40H390V30h50a10,10,0,0,1,0,20Z"/><path class="cls-2" d="M167.852,45.337C133.2,23.569,96.674,58.314,114.812,93.025a33.83,33.83,0,0,0,12.079,12.113c14.872,7.821,29.788,5.585,40.252-2.288V110h14.286V69.989A29.1,29.1,0,0,0,167.852,45.337Zm-9.213,46.544c-21.251,12.928-43.448-9.269-30.52-30.52a13.988,13.988,0,0,1,4.67-4.67c21.252-12.929,43.449,9.268,30.52,30.52A13.988,13.988,0,0,1,158.639,91.881Z"/><path class="cls-2" d="M261.429,74.286V110H247.143V74.286a21.429,21.429,0,1,0-42.857,0V110H190V38.571h14.286v7.15a35.707,35.707,0,0,1,57.143,28.565Z"/><path class="cls-2" d="M341.429,74.286a35.715,35.715,0,0,1-71.429,0V10h14.286V45.721a35.523,35.523,0,0,1,21.428-7.15V52.857a21.429,21.429,0,1,0,21.429,21.429Z"/><path class="cls-1" d="M740,30V90a10,10,0,0,0,10,10h60a10,10,0,0,0,10-10V70H790a10,10,0,0,1-10-10h0a10,10,0,0,1,10-10h50v50a20,20,0,0,1-20,20H740a20,20,0,0,1-20-20V20A20,20,0,0,1,740,0h90a10,10,0,0,1,10,10h0a10,10,0,0,1-10,10H750A10,10,0,0,0,740,30Z"/></g></g></g></svg>