<svg xmlns="http://www.w3.org/2000/svg" viewBox="0 0 560 145.866"><defs><style>.cls-1{fill:#121221;}.cls-2{fill:#366ce1;}</style></defs><title>geo 3.0</title><g id="Слой_2" data-name="Слой 2"><g id="Work_space" data-name="Work space"><g id="geo_3.0" data-name="geo 3.0"><polygon class="cls-1" points="130 60 130 80 210 80 210 100 130 100 130 120 210 120 210 140 110 140 110 40 210 40 210 60 130 60"/><path class="cls-1" d="M270,40a50,50,0,1,0,50,50A50.005,50.005,0,0,0,270,40Zm0,80a30,30,0,1,1,30-30A30,30,0,0,1,270,120Z"/><path class="cls-1" d="M100,80V90a49.16,49.16,0,0,1-1.01,10A50.013,50.013,0,1,1,85.35,54.65L71.21,68.79A30,30,0,1,0,78.28,100H50V80Z"/><path class="cls-2" d="M450,100a40,40,0,0,1-80,0h20a20,20,0,1,0,20-20V60a20,20,0,1,0-20-20H370a40,40,0,1,1,66.44,30A39.845,39.845,0,0,1,450,100Z"/><path class="cls-2" d="M520,0a40,40,0,0,0-40,40v60a40,40,0,0,0,80,0V40A40,40,0,0,0,520,0Zm0,120a19.994,19.994,0,0,1-20-20V40a20,20,0,0,1,40,0v60A19.994,19.994,0,0,1,520,120Z"/><circle class="cls-1" cx="466.657" cy="135.866" r="10"/><rect class="cls-1" x="456.657" y="135.866" width="10" height="10"/></g></g></g></svg>