<svg xmlns="http://www.w3.org/2000/svg" viewBox="0 0 638.99 220"><defs><style>.cls-1{fill:#121221;}.cls-2{fill:#366ce1;}</style></defs><title>get accept</title><g id="Слой_2" data-name="Слой 2"><g id="Work_space" data-name="Work space"><g id="get_accept" data-name="get accept"><polygon class="cls-1" points="338.99 140 338.99 160 418.99 160 418.99 180 338.99 180 338.99 200 418.99 200 418.99 220 318.99 220 318.99 120 418.99 120 418.99 140 338.99 140"/><polygon class="cls-2" points="130 20 130 40 210 40 210 60 130 60 130 80 210 80 210 100 110 100 110 0 210 0 210 20 130 20"/><path class="cls-1" d="M178.28,180h20.71a50,50,0,1,1,0-20H178.28a30,30,0,1,0,0,20Z"/><path class="cls-1" d="M287.27,180h20.71a50,50,0,1,1,0-20H287.27a30,30,0,1,0,0,20Z"/><path class="cls-1" d="M60.77,121.95,59.99,120H40.01l-.78,1.94L0,220H21.55l11.2-28h34.5l11.2,28H100ZM40.75,172,50,148.87,59.25,172Z"/><path class="cls-2" d="M100,40V50a49.16,49.16,0,0,1-1.01,10A50.013,50.013,0,1,1,85.35,14.65L71.21,28.79A30,30,0,1,0,78.28,60H50V40Z"/><path class="cls-1" d="M498.99,120h-70V220h20V180h50a30,30,0,0,0,0-60Zm0,40h-50V140h50a10,10,0,0,1,0,20Z"/><polygon class="cls-1" points="638.99 120 638.99 140 598.99 140 598.99 220 578.99 220 578.99 140 538.99 140 538.99 120 638.99 120"/><polygon class="cls-2" points="320 0 320 20 280 20 280 100 260 100 260 20 220 20 220 0 320 0"/></g></g></g></svg>