<svg xmlns="http://www.w3.org/2000/svg" viewBox="0 0 1030 100"><defs><style>.cls-1{fill:#366ce1;}.cls-2{fill:#121221;}</style></defs><title>getemail</title><g id="Complete"><g id="getemail"><polygon class="cls-1" points="320 0 320 20 280 20 280 100 260 100 260 20 220 20 220 0 320 0"/><polygon class="cls-1" points="130 20 130 40 210 40 210 60 130 60 130 80 210 80 210 100 110 100 110 0 210 0 210 20 130 20"/><path class="cls-1" d="M85,490v10a49.16,49.16,0,0,1-1.01,10,50.013,50.013,0,1,1-13.64-45.35L56.21,478.79A30,30,0,1,0,63.28,510H35V490Z" transform="translate(15 -450)"/><polygon class="cls-2" points="720 0 720 100 700 100 700 30.59 683.2 50.05 669.99 65.36 656.78 50.05 640 30.62 640 100 620 100 620 0 640 0 640 0.01 669.99 34.75 699.98 0 720 0"/><polygon class="cls-2" points="530 20 530 40 610 40 610 60 530 60 530 80 610 80 610 100 510 100 510 0 610 0 610 20 530 20"/><polygon class="cls-2" points="1030 80 1030 100 930 100 930 0 950 0 950 80 1030 80"/><path class="cls-2" d="M775.77,451.95l-.78-1.95H755.01l-.78,1.94L715,550h21.55l11.2-28h34.5l11.2,28H815ZM755.75,502,765,478.87,774.25,502Z" transform="translate(15 -450)"/><polygon class="cls-2" points="890 20 890 80 920 80 920 100 840 100 840 80 870 80 870 20 840 20 840 0 920 0 920 20 890 20"/><rect class="cls-2" x="340" width="150" height="100"/><path class="cls-1" d="M325,450l75,50,75-50Z" transform="translate(15 -450)"/></g></g></svg>