<svg xmlns="http://www.w3.org/2000/svg" viewBox="0 0 540 100"><defs><style>.cls-1{fill:#121221;}</style></defs><title>ghost</title><g id="Слой_2" data-name="Слой 2"><g id="Work_space" data-name="Work space"><g id="ghost"><path class="cls-1" d="M309.99,20H296.44a39.954,39.954,0,0,0-52.88,0H230.01a49.98,49.98,0,0,1,79.98,0Z"/><path class="cls-1" d="M320,50a49.792,49.792,0,0,1-4.17,20H304.65a40.058,40.058,0,0,0,0-40h11.18A49.792,49.792,0,0,1,320,50Z"/><path class="cls-1" d="M230,50a39.884,39.884,0,0,0,5.35,20H224.17a50.047,50.047,0,0,1,0-40h11.18A39.884,39.884,0,0,0,230,50Z"/><path class="cls-1" d="M309.99,80a49.98,49.98,0,0,1-79.98,0h13.55a39.954,39.954,0,0,0,52.88,0Z"/><path class="cls-1" d="M430,0V10H357.5a17.511,17.511,0,0,0-15.81,10H331.04A27.485,27.485,0,0,1,350,1.05,26.911,26.911,0,0,1,357.5,0Z"/><path class="cls-1" d="M429.89,70H419.82A17.5,17.5,0,0,0,402.5,55h-45a27.493,27.493,0,0,1-27.39-25h10.07A17.5,17.5,0,0,0,357.5,45h45a27.493,27.493,0,0,1,27.39,25Z"/><path class="cls-1" d="M428.96,80A27.485,27.485,0,0,1,410,98.95a26.911,26.911,0,0,1-7.5,1.05H330V90h72.5a17.511,17.511,0,0,0,15.81-10Z"/><rect class="cls-1" x="485" y="80" width="10" height="20"/><rect class="cls-1" x="485" y="30" width="10" height="40"/><polygon class="cls-1" points="540 0 540 10 495 10 495 20 485 20 485 10 440 10 440 0 540 0"/><polygon class="cls-1" points="210 30 210 70 200 70 200 55 120 55 120 70 110 70 110 30 120 30 120 45 200 45 200 30 210 30"/><rect class="cls-1" x="110" width="10" height="20"/><rect class="cls-1" x="110" y="80" width="10" height="20"/><rect class="cls-1" x="200" width="10" height="20"/><rect class="cls-1" x="200" y="80" width="10" height="20"/><path class="cls-1" d="M10,50a39.884,39.884,0,0,0,5.35,20H4.17a50.047,50.047,0,0,1,0-40H15.35A39.884,39.884,0,0,0,10,50Z"/><path class="cls-1" d="M85.35,14.65,80,20H76.44a39.954,39.954,0,0,0-52.88,0H10.01a49.977,49.977,0,0,1,75.34-5.35Z"/><path class="cls-1" d="M89.99,80a49.98,49.98,0,0,1-79.98,0H23.56a39.967,39.967,0,0,0,52.89,0Z"/><path class="cls-1" d="M100,50a48.521,48.521,0,0,1-.25,5,49.245,49.245,0,0,1-3.92,15H84.65a39.72,39.72,0,0,0,5.04-15H50V45H99.75A48.521,48.521,0,0,1,100,50Z"/></g></g></g></svg>