<svg id="Main" xmlns="http://www.w3.org/2000/svg" viewBox="0 0 940 350"><defs><style>.cls-1{fill:#121221;}.cls-2{fill:#1c1e20;}.cls-3{fill:#e1dfdf;}</style></defs><title>gimp</title><g id="Gimp"><path class="cls-1" d="M460,300V550c0,55.23-78.347,100-175,100S110,605.23,110,550V300c0,82.84,78.347,150,175,150S460,382.84,460,300Z" transform="translate(-30 -300)"/><ellipse class="cls-2" cx="93.982" cy="563.982" rx="50" ry="75.403" transform="translate(-401.269 -68.358) rotate(-45)"/><ellipse class="cls-3" cx="63.864" cy="556.136" rx="18.649" ry="28.123" transform="translate(-404.543 -91.953) rotate(-45)"/><circle class="cls-3" cx="160" cy="200" r="50"/><circle class="cls-2" cx="160" cy="210" r="30"/><circle class="cls-3" cx="290" cy="200" r="70"/><circle class="cls-2" cx="290" cy="210" r="50"/><path class="cls-3" d="M209.87,600c-.6,3.984,69.9,34.533,140,10,43.134-15.1,72.333-46.226,70-50-2.618-4.234-43.423,28.414-110,40C250.509,610.33,210.321,597.014,209.87,600Z" transform="translate(-30 -300)"/><path class="cls-3" d="M45.817,437.9c7.721,0,7.734-12,0-12s-7.734,12,0,12Z" transform="translate(-30 -300)"/><path class="cls-1" d="M310,608.137c0-5.406,37.253-12.212,170-20,1,.747,10,7.75,10,20,0,1.245-.2,12.65-10,20C347.253,620.349,310,613.543,310,608.137Z" transform="translate(-30 -300)"/><path class="cls-2" d="M470,608.137c0-15.355,18.031-26.417,30-30,22.652-6.782,49.942,5.339,70,30-20.058,24.661-47.348,36.781-70,30C488.031,634.554,470,623.491,470,608.137Z" transform="translate(-30 -300)"/><path class="cls-1" d="M660,430V400a30,30,0,0,0-60,0V500a30,30,0,0,0,60,0V480h20v20a50,50,0,0,1-100,0V400a50,50,0,0,1,100,0v30Z" transform="translate(-30 -300)"/><path class="cls-1" d="M920,450a49.726,49.726,0,0,0-30,10.01V450H870V650h20V539.99A50,50,0,1,0,920,450Zm0,80a30,30,0,1,1,30-30A30,30,0,0,1,920,530Z" transform="translate(-30 -300)"/><path class="cls-1" d="M860,480v70H840V480a10,10,0,0,0-20,0v70H800V480a10,10,0,0,0-20,0v70H760V450h20v1.72a29.957,29.957,0,0,1,30,5.93A29.991,29.991,0,0,1,860,480Z" transform="translate(-30 -300)"/><rect class="cls-1" x="590" y="160" width="60" height="20"/><rect class="cls-1" x="680" y="160" width="20" height="90"/><rect class="cls-1" x="660" y="230" width="60" height="20"/><rect class="cls-1" x="670" y="160" width="40" height="20"/><circle class="cls-1" cx="690" cy="130" r="20"/></g></svg>