<svg id="Main" xmlns="http://www.w3.org/2000/svg" viewBox="0 0 598.496 261.8"><defs><style>.cls-1{fill:#121221;}.cls-2{fill:#1c1e20;}.cls-3,.cls-5{fill:#e1dfdf;}.cls-4{fill:#366ce1;}.cls-5{stroke:#1c1e20;stroke-miterlimit:10;stroke-width:3px;}</style></defs><title>github</title><g id="GitHub"><path class="cls-1" d="M798.5,492.11c0,.89-.01,1.78-.03,2.66v.39c-.02.67-.04,1.34-.07,2.01-.01.32-.02.65-.04.97-.03.8-.08,1.59-.13,2.38l-.03.51c-.06.87-.13,1.74-.2,2.61-.09,1.04-.2,2.08-.31,3.12-.1.9-.21,1.79-.33,2.68-.11.87-.24,1.75-.37,2.61-.15,1.01-.32,2.02-.5,3.02-.14.84-.3,1.67-.47,2.5s-.33,1.68-.52,2.52c-.08.38-.16.76-.25,1.14-.15.68-.31,1.35-.48,2.02-.07.31-.15.62-.23.93-.16.64-.32,1.27-.49,1.9s-.34,1.25-.52,1.87c-.08.29-.17.59-.26.9q-.72,2.49-1.55,4.94c-.07.23-.15.46-.23.69-.26.75-.52,1.5-.79,2.24-.3.83-.6,1.64-.91,2.45-.12.31-.25.62-.37.94-.24.6-.48,1.19-.72,1.78-.36.88-.73,1.76-1.12,2.64-.32.74-.65,1.48-1,2.22-1.08,2.35-2.22,4.66-3.44,6.93-.14.28-.29.55-.44.82-.08.15-.16.3-.24.44-.33.6-.66,1.2-1,1.79s-.66,1.16-1,1.73a1.505,1.505,0,0,1-.1.17c-.2.34-.4.68-.61,1.02q-1.965,3.255-4.11,6.39c-.42.62-.86,1.24-1.29,1.85a132.456,132.456,0,0,1-13.09,15.66c-.41.43-.84.86-1.27,1.28-.39.4-.79.79-1.19,1.17-.57.57-1.15,1.12-1.74,1.67-.15.14-.31.28-.46.43l-.99.9q-3.795,3.465-7.88,6.62c-.72.56-1.44,1.11-2.17,1.65q-1.29.96-2.61,1.89c-.5.35-1,.7-1.5,1.04a130.123,130.123,0,0,1-12.15,7.38c-.7.38-1.4.75-2.11,1.11-.89.46-1.79.9-2.69,1.33-.53.26-1.05.51-1.59.76l-.96.45c-.64.29-1.29.58-1.94.86-.48.22-.97.43-1.46.63-.53.23-1.07.45-1.61.67-.94.38-1.88.76-2.84,1.12-.77.29-1.56.58-2.34.86-.72.26-1.45.51-2.18.76l-.45.15c-.87.29-1.74.57-2.61.85-.6.18-1.2.36-1.81.54-.42.13-.85.25-1.28.37a1.209,1.209,0,0,1-.18.05c-.71.21-1.43.4-2.15.59-.78.21-1.57.41-2.36.6-.22.06-.44.11-.66.16-.43.1-.85.2-1.28.29-.27.07-.54.13-.81.19-.12.03-.24.05-.36.08a23.45,23.45,0,0,0,2.88-11.3V555.9c0-.44-.01-.88-.04-1.32a22.626,22.626,0,0,0-2.55-9.36,19.294,19.294,0,0,0-1.07-1.82l1.76.04,13.69.31a38.192,38.192,0,0,0,38.19-37.36c.01-.28.01-.56.01-.84V481.94c0-.93-.03-1.86-.1-2.78a37.825,37.825,0,0,0-5.57-17.24c-.22-.37-.45-.73-.69-1.09.37-.47.72-.96,1.04-1.45a30.6,30.6,0,0,0,5.3-16.89c.02-.74,0-1.47-.04-2.21a2.825,2.825,0,0,0-.02-.29,25.767,25.767,0,0,0-.28-2.63c-.79-.3-1.58-.58-2.39-.81a30.9,30.9,0,0,0-28.16,5.52l-2.46,1.98a36.737,36.737,0,0,0-4.83-.31c-14.53,0-29.06-1-43.59-1-13.93,0-27.87,1-41.81,1a38.164,38.164,0,0,0-5.89.45l-1.4-1.12a30.844,30.844,0,0,0-22.72-6.62,30.409,30.409,0,0,0-5.26,1.04q-1.3.375-2.58.87c-.07.45-.13.91-.17,1.36-.07.61-.12,1.21-.14,1.82a30.851,30.851,0,0,0,5.15,18.65c.26.4.53.79.82,1.18-.18.28-.35.55-.51.84a37.657,37.657,0,0,0-5.31,15.96,36.186,36.186,0,0,0-.19,3.77v23.61a38.2,38.2,0,0,0,38.2,38.2l14.05-.34,1.43-.03a20.917,20.917,0,0,0-1.08,1.83,22.573,22.573,0,0,0-2.43,7.85v.03l-.06.54c-.07.74-.11,1.5-.11,2.27v.55a27.175,27.175,0,0,0-2.71,1.07c-8.83,4.35-12.84,15.55-21.63,12.17-4.54-1.75-.75-13.37-12.51-22.14a17.368,17.368,0,0,0-1.91-1.25c-.44-.26-.88-.49-1.33-.7a19.437,19.437,0,0,0-17.04.59,20.108,20.108,0,0,0-6.03,4.64c-.98,1.18-1.42,2.18-1.07,2.63a.685.685,0,0,0,.49.22c1.27.13,4.39-1.54,8.64-2.25,5.07-.84,9.97-.5,13.6,3.38,6.34,6.78,1.19,16.31,9.72,24,7.55,6.8,22.15,5.83,31.78-.13V608.7a23.623,23.623,0,0,0,.21,3.16,23.368,23.368,0,0,0,2.67,8.14l-.8-.18c-.62-.14-1.24-.28-1.86-.43-.15-.03-.31-.07-.46-.11-1.58-.39-3.15-.8-4.7-1.24-.18-.05-.36-.1-.55-.16q-2.6-.75-5.14-1.6-2.64-.885-5.23-1.87t-5.12-2.09c-.85-.37-1.69-.74-2.53-1.12s-1.66-.78-2.49-1.18c-1.65-.79-3.29-1.63-4.9-2.49-.8-.43-1.61-.88-2.4-1.32q-2.265-1.275-4.47-2.64c-.19-.11-.37-.23-.55-.34-.67-.42-1.34-.85-2.01-1.28s-1.31-.86-1.96-1.3c-.1-.07-.21-.14-.31-.21-.76-.52-1.5-1.04-2.25-1.56-.01-.01-.02-.01-.03-.02-2.95-2.11-5.82-4.33-8.58-6.66a1.063,1.063,0,0,1-.11-.09c-.66-.56-1.31-1.12-1.96-1.69-.14-.12-.28-.24-.42-.37-.54-.48-1.07-.97-1.6-1.45-.59-.54-1.17-1.08-1.74-1.63-.75-.7-1.48-1.41-2.2-2.14-.43-.42-.85-.85-1.27-1.28-1.49-1.52-2.94-3.07-4.33-4.66-.6-.68-1.2-1.36-1.79-2.06s-1.17-1.39-1.74-2.09-1.14-1.41-1.7-2.13q-1.68-2.145-3.27-4.37c-.52-.73-1.04-1.47-1.55-2.21-.53-.76-1.04-1.52-1.54-2.29s-.99-1.53-1.47-2.31-.96-1.55-1.43-2.33c-.1-.16-.19-.31-.28-.47-.37-.63-.74-1.26-1.1-1.9-.42-.74-.83-1.48-1.24-2.23-.03-.05-.06-.11-.09-.17-.44-.8-.87-1.61-1.28-2.43-.38-.72-.74-1.45-1.1-2.19-.49-.98-.96-1.97-1.41-2.96-.34-.74-.68-1.48-1-2.22-.39-.88-.76-1.76-1.12-2.64-.24-.59-.48-1.18-.72-1.78-.12-.32-.25-.63-.37-.94-.31-.81-.61-1.62-.91-2.45-.27-.74-.53-1.49-.79-2.24-.08-.23-.16-.46-.23-.69q-.825-2.445-1.55-4.94c-.09-.31-.18-.61-.26-.9-.18-.62-.35-1.24-.52-1.87s-.33-1.26-.49-1.9c-.08-.31-.16-.62-.23-.93-.17-.67-.33-1.34-.48-2.02-.09-.38-.17-.76-.25-1.14-.19-.84-.36-1.68-.52-2.52s-.32-1.66-.47-2.5c-.18-1-.35-2.01-.5-3.02-.13-.86-.26-1.74-.37-2.61-.12-.89-.23-1.78-.33-2.68-.11-1.04-.22-2.08-.31-3.12-.07-.87-.14-1.74-.2-2.61l-.03-.51c-.05-.79-.1-1.58-.13-2.38-.02-.32-.03-.65-.04-.97-.03-.67-.05-1.34-.07-2.01v-.39c-.02-.88-.03-1.77-.03-2.66a130.9,130.9,0,1,1,261.8,0Z" transform="translate(-200.004 -361.21)"/><path class="cls-2" d="M748.67,483.74v23.61a38.2,38.2,0,0,1-38.2,38.2l-13.13-.3-1.42-.03-.9-.02a22.282,22.282,0,0,1,3.45,9.38,22.92,22.92,0,0,1,.21,3.12v52.8a23.5,23.5,0,0,1-1.88,9.23v.01l-.81.18c-.12.03-.24.05-.36.08-.65.14-1.31.28-1.97.41a132.055,132.055,0,0,1-51.7.09c-.8-.16-1.59-.32-2.38-.5-.26-.05-.53-.11-.79-.17a.01.01,0,0,1-.01-.01,23.539,23.539,0,0,1-1.87-7.96c-.03-.45-.04-.9-.04-1.36V580.48c-.06.03-.11.07-.17.1-9.63,5.87-24.1,6.79-31.61.03-8.53-7.69-3.38-17.22-9.72-24-3.63-3.88-8.53-4.22-13.6-3.38-4.96.83-8.39,2.97-9.13,2.03-.24-.31-.11-.87.32-1.58a14.648,14.648,0,0,1,3.66-3.74,20.114,20.114,0,0,1,3.12-1.95,19.476,19.476,0,0,1,16.84-.68l.01.01a3.881,3.881,0,0,1,.46.22h.01a18.086,18.086,0,0,1,2.96,1.81c.23.17.46.35.68.52.56.45,1.09.91,1.57,1.37,9.02,8.46,6.04,18.62,10.26,20.25a8.349,8.349,0,0,0,3.48.61,7.888,7.888,0,0,0,3.39-.93c4.75-2.4,8.58-8.81,14.76-11.85a27.175,27.175,0,0,1,2.71-1.07v-.55a22.666,22.666,0,0,1,3.68-12.52l-1.25.03-1.09.03-13.14.31A38.2,38.2,0,0,1,586.96,510c-.06-.88-.09-1.76-.09-2.65V483.74a38.054,38.054,0,0,1,6.01-20.57c-.23-.32-.46-.64-.68-.96-.27-.39-.53-.8-.78-1.2a30.742,30.742,0,0,1-4.47-14.04,29.315,29.315,0,0,1-.04-3.63c.01-.3.03-.59.05-.89.06-.76.14-1.53.26-2.29q1.275-.5,2.58-.87c.09-.03.19-.05.28-.08a30.975,30.975,0,0,1,13.12-.77,30.762,30.762,0,0,1,14.58,6.43l1.4,1.12a38.164,38.164,0,0,1,5.89-.45c13.94,0,27.88-1,41.81-1,14.53,0,29.06,1,43.59,1a36.737,36.737,0,0,1,4.83.31l2.46-1.98a30.713,30.713,0,0,1,15.47-6.55,30.243,30.243,0,0,1,7.24-.07,30.79,30.79,0,0,1,5.45,1.1c.02.01.04.01.06.02.79.22,1.56.5,2.33.79.04.28.08.55.11.83q.105.78.15,1.56c.02.17.03.35.04.53a30.849,30.849,0,0,1-4.79,18.4q-.465.735-.99,1.44c-.16.24-.34.48-.52.71a38.062,38.062,0,0,1,6.09,16.53A38.451,38.451,0,0,1,748.67,483.74Z" transform="translate(-200.004 -361.21)"/><path class="cls-3" d="M743.82,460.48c-.2-.37-.41-.74-.64-1.1-.27-.47-.57-.93-.87-1.39a30.617,30.617,0,0,0,6.17-15.5c.04-.31.07-.63.09-.94a29.675,29.675,0,0,0,.04-4.11,28.6,28.6,0,0,0-.3-2.92c-.79-.3-1.58-.58-2.39-.81a30.9,30.9,0,0,0-28.16,5.52l-2.46,1.98a36.737,36.737,0,0,0-4.83-.31c-14.53,0-29.06-1-43.59-1-13.93,0-27.87,1-41.81,1a38.164,38.164,0,0,0-5.89.45l-1.4-1.12a30.844,30.844,0,0,0-22.72-6.62,30.409,30.409,0,0,0-5.26,1.04q-1.305.375-2.58.87a28.514,28.514,0,0,0-.31,3.18c-.01.34-.03.68-.03,1.02-.02.91.01,1.82.08,2.73a30.743,30.743,0,0,0,5.92,16.08c-.35.54-.68,1.1-.99,1.66-.17.27-.32.54-.47.82a37.931,37.931,0,0,0-4.53,17.16c-.02.31-.02.62-.02.93v23.61a38.2,38.2,0,0,0,38.2,38.2l15.48-.37a21.7,21.7,0,0,0-1.6,2.87c-.28.6-.52,1.21-.74,1.83a23.184,23.184,0,0,0-1.34,7.82v.55c-.02.01-.04.01-.06.02a25.337,25.337,0,0,0-2.65,1.05c-8.83,4.35-12.84,15.55-21.63,12.17-4.54-1.75-.75-13.37-12.51-22.14-6.34-4.74-14.06-4.49-20.28-1.36-4.56,2.3-7.9,6.25-7.1,7.27a.926.926,0,0,0,.9.21,20.359,20.359,0,0,0,3.08-.89,33.624,33.624,0,0,1,5.15-1.35c5.07-.84,9.97-.5,13.6,3.38,6.34,6.78,1.19,16.31,9.72,24,7.55,6.8,22.15,5.83,31.78-.13v30.02a23.573,23.573,0,0,0,5.09,14.64,132.055,132.055,0,0,0,51.7-.09,23.564,23.564,0,0,0,4.85-11.71v-.01a24.028,24.028,0,0,0,.17-2.83v-52.8a23.083,23.083,0,0,0-1.34-7.81,16.69,16.69,0,0,0-.73-1.81,20.114,20.114,0,0,0-1.59-2.88l15.45.35a38.189,38.189,0,0,0,38.02-34.52c.12-1.21.18-2.44.18-3.68V479.1A37.918,37.918,0,0,0,743.82,460.48ZM591.67,542.6c.57.19.94.92.75,1.25s-.91.23-1.28.11c-.05-.02-.89-.3-.88-.71C590.27,542.86,591.04,542.4,591.67,542.6Zm-6.21-.33c.55-.07,1.14.39,1.11.74s-.66.55-1.02.59c-.04.01-.85.1-1.01-.24C584.4,543.03,584.85,542.35,585.46,542.27Zm-5.44,1.88c.45-.23,1.11-.03,1.2.29s-.4.68-.7.84c-.03.02-.7.36-.95.11C579.34,545.15,579.52,544.41,580.02,544.15Zm17.03,3.39a3.3,3.3,0,0,1-.46-.22l-.01-.01a1.091,1.091,0,0,1-.11-.06c-.06-.04-1.01-.65-.89-1.13.08-.28.53-.5,1.03-.52a1.635,1.635,0,0,1,.88.23,1.44,1.44,0,0,1,.45.47c.31.45.37,1.01.13,1.25-.21.2-.63.13-1.01-.01Zm3.38,4.01c-.04-.04-.89-.91-.65-1.38a.961.961,0,0,1,.92-.3,1.645,1.645,0,0,1,1.57,1.37.991.991,0,0,1-.25,1.03C601.61,552.52,600.81,551.94,600.43,551.55Zm1.83,5.3a1.439,1.439,0,0,1,.37-1.57,1.521,1.521,0,0,1,1.95.91,1.479,1.479,0,0,1-.73,1.9C603.19,558.28,602.46,557.55,602.26,556.85Zm3.75,7.82c-.66.29-1.69-.44-1.89-1.38-.18-.86.32-1.88,1.03-1.95s1.35.87,1.47,1.68C606.7,563.6,606.55,564.44,606.01,564.67Zm4.17,6.61c-.62.56-1.8.15-2.41-.5a1.758,1.758,0,0,1-.48-1.9,1.862,1.862,0,0,1,2.62-.05A1.8,1.8,0,0,1,610.18,571.28Zm7.8,2.96c-.78.06-1.88-.21-2.15-.95a1.4,1.4,0,0,1,.18-1.19,2.631,2.631,0,0,1,1.8-1.24,2.572,2.572,0,0,1,1.59.31,1.573,1.573,0,0,1,.92,1.24C620.35,573.38,619.05,574.16,617.98,574.24Zm11.5-4.47c-.82.37-2.13.53-2.7-.15-.72-.84-.09-2.67,1.21-3.38,1.18-.65,2.91-.37,3.32.63C631.72,567.89,630.61,569.25,629.48,569.77ZM596.31,455.88c-.31-.28-.61-.56-.89-.86a19.049,19.049,0,0,1-5.34-15.81c.02-.16.04-.32.07-.48a18.9,18.9,0,0,1,4.85-1.18,19.04,19.04,0,0,1,14.03,4.09l2.26,1.82,1.67,1.34A38.136,38.136,0,0,0,596.31,455.88Zm143.57-1.15c-.15.14-.3.27-.45.4a38.177,38.177,0,0,0-16.5-11.22l.8-.64,3.28-2.63a18.758,18.758,0,0,1,6.22-3.32,19.157,19.157,0,0,1,12.66.41c.03.21.06.43.09.64A19.042,19.042,0,0,1,739.88,454.73Z" transform="translate(-200.004 -361.21)"/><path class="cls-4" d="M581.221,544.436c.08.31-.4.68-.7.84-.03.02-.7.36-.95.11-.23-.24-.05-.98.45-1.24C580.471,543.916,581.131,544.116,581.221,544.436Z" transform="translate(-200.004 -361.21)"/><path class="cls-4" d="M586.571,543.006c-.03.35-.66.55-1.02.59-.04.01-.85.1-1.01-.24-.14-.33.31-1.01.92-1.09C586.011,542.2,586.6,542.656,586.571,543.006Z" transform="translate(-200.004 -361.21)"/><path class="cls-4" d="M592.421,543.846c-.19.33-.91.23-1.28.11-.05-.02-.89-.3-.88-.71.01-.39.78-.85,1.41-.65C592.241,542.786,592.611,543.516,592.421,543.846Z" transform="translate(-200.004 -361.21)"/><path class="cls-4" d="M598.071,547.546c-.33.32-1.18-.04-1.6-.3-.06-.04-1.01-.65-.89-1.13.12-.45,1.2-.74,1.91-.29C598.151,546.246,598.4,547.216,598.071,547.546Z" transform="translate(-200.004 -361.21)"/><path class="cls-4" d="M602.021,552.266c-.41.25-1.21-.33-1.59-.72-.04-.04-.89-.91-.65-1.38.23-.43,1.41-.46,2.04.19C602.411,550.946,602.451,552.016,602.021,552.266Z" transform="translate(-200.004 -361.21)"/><path class="cls-4" d="M603.851,558.086c-.66.19-1.39-.54-1.59-1.24a1.439,1.439,0,0,1,.37-1.57,1.521,1.521,0,0,1,1.95.91A1.479,1.479,0,0,1,603.851,558.086Z" transform="translate(-200.004 -361.21)"/><path class="cls-4" d="M606.011,564.666c-.66.29-1.69-.44-1.89-1.38-.18-.86.32-1.88,1.03-1.95s1.35.87,1.47,1.68C606.7,563.6,606.551,564.436,606.011,564.666Z" transform="translate(-200.004 -361.21)"/><path class="cls-4" d="M610.181,571.276c-.62.56-1.8.15-2.41-.5a1.758,1.758,0,0,1-.48-1.9,1.862,1.862,0,0,1,2.62-.05A1.8,1.8,0,0,1,610.181,571.276Z" transform="translate(-200.004 -361.21)"/><path class="cls-4" d="M620.321,572.406c.03.97-1.27,1.75-2.34,1.83-.78.06-1.88-.21-2.15-.95-.34-.92.71-2.24,1.98-2.43C618.961,570.686,620.281,571.446,620.321,572.406Z" transform="translate(-200.004 -361.21)"/><path class="cls-4" d="M629.481,569.766c-.82.37-2.13.53-2.7-.15-.72-.84-.09-2.67,1.21-3.38,1.18-.65,2.91-.37,3.32.63C631.721,567.886,630.611,569.246,629.481,569.766Z" transform="translate(-200.004 -361.21)"/><path class="cls-4" d="M739.881,454.726c-.15.14-.3.27-.45.4a38.177,38.177,0,0,0-16.5-11.22l.8-.64,3.28-2.63a19.145,19.145,0,0,1,18.88-2.91A19.033,19.033,0,0,1,739.881,454.726Z" transform="translate(-200.004 -361.21)"/><path class="cls-4" d="M612.961,444.8a38.136,38.136,0,0,0-16.65,11.08c-.31-.28-.61-.56-.89-.86a19.045,19.045,0,0,1-5.27-16.29,19.145,19.145,0,0,1,18.88,2.91l2.26,1.82Z" transform="translate(-200.004 -361.21)"/><rect class="cls-1" x="398.254" y="480.9" width="138.2" height="38.2" transform="translate(-232.65 606.144) rotate(-90)"/><rect class="cls-2" x="298.254" y="480.9" width="138.2" height="38.2" transform="translate(-332.65 506.144) rotate(-90)"/><path class="cls-3" d="M297.374,515.45h40.6a69.1,69.1,0,1,1,0-30.9h-40.6a30.9,30.9,0,1,0,0,30.9Z" transform="translate(-200.004 -361.21)"/><path class="cls-5" d="M297.374,515.45h40.6a69.1,69.1,0,1,1,0-30.9h-40.6a30.9,30.9,0,1,0,0,30.9Z" transform="translate(-200.004 -361.21)"/><circle class="cls-4" cx="69.735" cy="138.79" r="15.6"/><rect class="cls-4" x="78.735" y="129.242" width="207.715" height="19.096"/></g></svg>