<svg xmlns="http://www.w3.org/2000/svg" viewBox="0 0 130 260"><defs><style>.cls-1{fill:#366ce1;}.cls-2{fill:#121221;}</style></defs><title>global_payment_automation</title><g id="complete"><g id="global_payment_automation" data-name="global payment automation"><path class="cls-1" d="M485,410a40,40,0,0,0-40,40v20a39.845,39.845,0,0,0,13.56,30A39.845,39.845,0,0,1,485,490a19.994,19.994,0,0,1-20-20V450a20,20,0,0,1,40,0v20a19.994,19.994,0,0,1-20,20h20a39.749,39.749,0,0,1,13.24,2.25A39.8,39.8,0,0,0,525,470V450A40,40,0,0,0,485,410Z" transform="translate(-435 -370)"/><path class="cls-2" d="M525.62,564.28A39.884,39.884,0,0,0,495,550H485a20,20,0,0,1,0-40,39.948,39.948,0,0,0,33.24-17.75A39.749,39.749,0,0,0,505,490H485a39.987,39.987,0,0,0-30.62,65.72A40,40,0,0,0,475,630h20a39.987,39.987,0,0,0,30.62-65.72ZM495,610H475a20,20,0,0,1,0-40h20a20,20,0,0,1,0,40Z" transform="translate(-435 -370)"/><ellipse class="cls-1" cx="538.463" cy="396.537" rx="36.304" ry="16.788" transform="translate(-557.681 126.894) rotate(-45)"/><rect class="cls-2" x="70" y="40" width="20" height="20" rx="10"/></g></g></svg>