<svg xmlns="http://www.w3.org/2000/svg" viewBox="0 0 980 212.394"><defs><style>.cls-1{fill:#121221;}.cls-2{fill:#366ce1;}</style></defs><title>go guardian</title><g id="Слой_2" data-name="Слой 2"><g id="Work_space" data-name="Work space"><g id="go_guardian" data-name="go guardian"><polygon class="cls-1" points="980 112.394 980 212.394 960 212.394 900 142.984 900 212.394 880 212.394 880 112.394 900 112.394 960 181.804 960 112.394 980 112.394"/><path class="cls-1" d="M600,112.394H550v100h50a50,50,0,0,0,0-100Zm0,80H570v-60h30a30,30,0,0,1,0,60Z"/><path class="cls-1" d="M540,142.394a30,30,0,0,0-30-30H440v100h20v-40h50a10,10,0,0,1,10,10v30h20v-30a29.862,29.862,0,0,0-7.65-20A29.862,29.862,0,0,0,540,142.394Zm-80,10v-20h50a10,10,0,0,1,0,20Z"/><path class="cls-2" d="M160,0a50,50,0,1,0,50,50A50.005,50.005,0,0,0,160,0Zm0,80a30,30,0,1,1,30-30A30,30,0,0,1,160,80Z"/><path class="cls-1" d="M830.77,114.344l-.78-1.95H810.01l-.78,1.94L770,212.394h21.55l11.2-28h34.5l11.2,28H870Zm-20.02,50.05,9.25-23.13,9.25,23.13Z"/><path class="cls-1" d="M390.77,114.344l-.78-1.95H370.01l-.78,1.94L330,212.394h21.55l11.2-28h34.5l11.2,28H430Zm-20.02,50.05,9.25-23.13,9.25,23.13Z"/><path class="cls-1" d="M210,152.394v10a49.16,49.16,0,0,1-1.01,10,50.013,50.013,0,1,1-13.64-45.35l-14.14,14.14a30,30,0,1,0,7.07,31.21H160v-20Z"/><path class="cls-2" d="M100,40V50a49.16,49.16,0,0,1-1.01,10A50.013,50.013,0,1,1,85.35,14.65L71.21,28.79A30,30,0,1,0,78.28,60H50V40Z"/><polygon class="cls-1" points="720 132.394 720 192.394 750 192.394 750 212.394 670 212.394 670 192.394 700 192.394 700 132.394 670 132.394 670 112.394 750 112.394 750 132.394 720 132.394"/><path class="cls-1" d="M320,112.394v50a50,50,0,0,1-100,0v-50h20v50a30,30,0,0,0,60,0v-50Z"/></g></g></g></svg>