<svg xmlns="http://www.w3.org/2000/svg" viewBox="0 0 820 160"><defs><style>.cls-1,.cls-3{fill:#121221;}.cls-2,.cls-4{fill:#366ce1;}.cls-2,.cls-3{opacity:0.38;}</style></defs><title>go pro</title><g id="Слой_2" data-name="Слой 2"><g id="Work_space" data-name="Work space"><g id="go_pro" data-name="go pro"><rect class="cls-1" x="660" width="160" height="160" rx="19.197"/><rect class="cls-2" x="700" y="40" width="80" height="80" rx="14.563"/><rect class="cls-3" x="720" y="60" width="40" height="40" rx="9.718"/><rect class="cls-4" x="730" y="70" width="20" height="20" rx="6.278"/><path class="cls-1" d="M510,59.929C509.961,43.277,495.976,30,479.324,30h-58.93A10.4,10.4,0,0,0,410,40.394v82.719A6.888,6.888,0,0,0,416.887,130h6.226A6.888,6.888,0,0,0,430,123.113V96.873A6.873,6.873,0,0,1,436.873,90H480a10,10,0,0,1,10,10v23.113A6.888,6.888,0,0,0,496.887,130h6.226A6.888,6.888,0,0,0,510,123.113V100a29.862,29.862,0,0,0-7.65-20A29.859,29.859,0,0,0,510,59.929Zm-80,3.2V56.873A6.873,6.873,0,0,1,436.873,50h42.781a10.23,10.23,0,0,1,10.324,9.328A10,10,0,0,1,480,70H436.873A6.873,6.873,0,0,1,430,63.127Z"/><path class="cls-1" d="M570,30a50,50,0,1,0,50,50A50.005,50.005,0,0,0,570,30Zm0,80a30,30,0,1,1,30-30A30,30,0,0,1,570,110Z"/><path class="cls-4" d="M160,30a50,50,0,1,0,50,50A50.005,50.005,0,0,0,160,30Zm0,80a30,30,0,1,1,30-30A30,30,0,0,1,160,110Z"/><path class="cls-4" d="M92.268,70A7.732,7.732,0,0,1,100,77.732V80a49.16,49.16,0,0,1-1.01,10A50.01,50.01,0,1,1,81.065,40.828a5.2,5.2,0,0,1,.37,7.737L74.63,55.37a5.208,5.208,0,0,1-6.782.519A30,30,0,1,0,78.28,90H55.234A5.234,5.234,0,0,1,50,84.766V75.234A5.234,5.234,0,0,1,55.234,70Z"/><path class="cls-1" d="M369.377,30H310.063A10.064,10.064,0,0,0,300,40.063v83.289A6.647,6.647,0,0,0,306.648,130h6.7A6.647,6.647,0,0,0,320,123.352V96.732A6.732,6.732,0,0,1,326.732,90H370a30,30,0,0,0,29.989-30.84C399.542,42.819,385.724,30,369.377,30Zm.277,40H326.732A6.732,6.732,0,0,1,320,63.268V56.732A6.732,6.732,0,0,1,326.732,50H370a10,10,0,0,1,9.978,10.672A10.23,10.23,0,0,1,369.654,70Z"/></g></g></g></svg>