<svg xmlns="http://www.w3.org/2000/svg" viewBox="0 0 630 200"><defs><style>.cls-1{fill:#121221;}.cls-2{fill:#366ce1;}</style></defs><title>go skills</title><g id="Слой_2" data-name="Слой 2"><g id="Work_space" data-name="Work space"><g id="go_skills" data-name="go skills"><path class="cls-1" d="M20,130a10,10,0,0,0,10,10H70a30,30,0,0,1,0,60H0V180H70a10,10,0,0,0,0-20H30a30,30,0,0,1,0-60h70v20H30A10,10,0,0,0,20,130Z"/><path class="cls-1" d="M550,130a10,10,0,0,0,10,10h40a30,30,0,0,1,0,60H530V180h70a10,10,0,0,0,0-20H560a30,30,0,0,1,0-60h70v20H560A10,10,0,0,0,550,130Z"/><polygon class="cls-1" points="410 180 410 200 310 200 310 100 330 100 330 180 410 180"/><polygon class="cls-1" points="520 180 520 200 420 200 420 100 440 100 440 180 520 180"/><path class="cls-2" d="M260,0a50,50,0,1,0,50,50A50.005,50.005,0,0,0,260,0Zm0,80a30,30,0,1,1,30-30A30,30,0,0,1,260,80Z"/><polygon class="cls-1" points="210 199.99 210 200 180.13 200 139.51 163.43 130 172 130 200 110 200 110 100 130 100 130 145.09 139.51 136.52 180.07 100 209.97 100 154.46 149.98 210 199.99"/><path class="cls-2" d="M100,40V50a49.16,49.16,0,0,1-1.01,10A50.013,50.013,0,1,1,85.35,14.65L71.21,28.79A30,30,0,1,0,78.28,60H50V40Z"/><polygon class="cls-1" points="270 120 270 180 300 180 300 200 220 200 220 180 250 180 250 120 220 120 220 100 300 100 300 120 270 120"/></g></g></g></svg>