<svg xmlns="http://www.w3.org/2000/svg" viewBox="0 0 870 100"><defs><style>.cls-1{fill:#366ce1;}.cls-2{fill:#121221;}</style></defs><title>go survey</title><g id="Слой_2" data-name="Слой 2"><g id="Work_space" data-name="Work space"><g id="go_survey" data-name="go survey"><path class="cls-1" d="M160,0a50,50,0,1,0,50,50A50.005,50.005,0,0,0,160,0Zm0,80a30,30,0,1,1,30-30A30,30,0,0,1,160,80Z"/><path class="cls-1" d="M100,40V50a49.16,49.16,0,0,1-1.01,10A50.013,50.013,0,1,1,85.35,14.65L71.21,28.79A30,30,0,1,0,78.28,60H50V40Z"/><path class="cls-2" d="M240,30a10,10,0,0,0,10,10h40a30,30,0,0,1,0,60H220V80h70a10,10,0,0,0,0-20H250a30,30,0,0,1,0-60h70V20H250A10,10,0,0,0,240,30Z"/><polygon class="cls-2" points="680 20 680 40 760 40 760 60 680 60 680 80 760 80 760 100 660 100 660 0 760 0 760 20 680 20"/><path class="cls-2" d="M540,30A30,30,0,0,0,510,0H440V100h20V60h50a10,10,0,0,1,10,10v30h20V70a29.862,29.862,0,0,0-7.65-20A29.862,29.862,0,0,0,540,30ZM460,40V20h50a10,10,0,0,1,0,20Z"/><polygon class="cls-2" points="832.83 46.46 830 50 830.05 50 830.05 100 810.05 100 810.05 50 807.22 46.46 770.05 0 795.66 0 820.02 30.45 844.38 0 870 0 832.83 46.46"/><path class="cls-2" d="M430,0V50a50,50,0,0,1-100,0V0h20V50a30,30,0,0,0,60,0V0Z"/><polygon class="cls-2" points="650 0 610.78 98.07 610.01 100 590.01 100 589.24 98.07 550.02 0 571.56 0 600.01 71.14 628.47 0 650 0"/></g></g></g></svg>