<svg xmlns="http://www.w3.org/2000/svg" viewBox="0 0 645 160"><defs><style>.cls-1{fill:#121221;}.cls-2{fill:#366ce1;}</style></defs><title>good day</title><g id="Слой_2" data-name="Слой 2"><g id="Work_space" data-name="Work space"><g id="good_day" data-name="good day"><path class="cls-1" d="M440,0H390V100h50A50,50,0,0,0,440,0Zm0,80H410V20h30a30,30,0,0,1,0,60Z"/><path class="cls-2" d="M211.667,33.333A33.334,33.334,0,1,0,245,66.667,33.338,33.338,0,0,0,211.667,33.333Zm0,53.334a20,20,0,1,1,20-20A20,20,0,0,1,211.667,86.667Z"/><path class="cls-2" d="M139.333,33.333a33.334,33.334,0,1,0,33.334,33.334A33.337,33.337,0,0,0,139.333,33.333Zm0,53.334a20,20,0,1,1,20-20A20,20,0,0,1,139.333,86.667Z"/><path class="cls-2" d="M100,40V50a49.16,49.16,0,0,1-1.01,10A50.013,50.013,0,1,1,85.35,14.65L71.21,28.79A30,30,0,1,0,78.28,60H50V40Z"/><path class="cls-1" d="M552.852,36.766C518.2,15,481.674,49.743,499.812,84.453a33.824,33.824,0,0,0,12.079,12.114c14.872,7.821,29.788,5.585,40.252-2.288v7.15h14.286V61.418A29.1,29.1,0,0,0,552.852,36.766Zm-9.213,46.543c-21.251,12.929-43.448-9.268-30.52-30.52a14,14,0,0,1,4.67-4.67c21.252-12.928,43.449,9.269,30.52,30.52A13.979,13.979,0,0,1,543.639,83.309Z"/><path class="cls-2" d="M284,100a33.337,33.337,0,0,0,33.333-33.333V0H304V40.007A33.331,33.331,0,1,0,284,100Zm0-53.333a20,20,0,1,1-20,20A20,20,0,0,1,284,46.667Z"/><path class="cls-1" d="M645,30V94.286a35.709,35.709,0,0,1-60.964,25.25q5.046-5.047,10.1-10.1a21.425,21.425,0,0,0,36.578-15.15v-.007a35.523,35.523,0,0,1-21.428,7.15A35.752,35.752,0,0,1,576.55,80a35.572,35.572,0,0,1-2.979-14.286V30h14.286V65.721a21.429,21.429,0,0,0,42.857,0V30Z"/><path class="cls-2" d="M115,110a100,100,0,0,0,120,0v20c-2.242,2.989-23.25,30-60,30-3.736,0-37.95-.6-60-30Z"/></g></g></g></svg>