<svg xmlns="http://www.w3.org/2000/svg" viewBox="0 0 442.955 126.667"><defs><style>.cls-1{fill:#121221;}</style></defs><title>google</title><g id="Слой_2" data-name="Слой 2"><g id="Work_space" data-name="Work space"><g id="google"><path class="cls-1" d="M138.185,28.148A35.186,35.186,0,1,0,173.37,63.333,35.189,35.189,0,0,0,138.185,28.148Zm0,56.3A21.111,21.111,0,1,1,159.3,63.333,21.109,21.109,0,0,1,138.185,84.444Z"/><path class="cls-1" d="M211.593,28.148a35.186,35.186,0,1,0,35.185,35.185A35.189,35.189,0,0,0,211.593,28.148Zm0,56.3A21.111,21.111,0,1,1,232.7,63.333,21.11,21.11,0,0,1,211.593,84.444Z"/><path class="cls-1" d="M100,40V50a49.16,49.16,0,0,1-1.01,10A50.013,50.013,0,1,1,85.35,14.65L71.21,28.79A30,30,0,1,0,78.28,60H50V40Z"/><path class="cls-1" d="M380.937,94.233a35.182,35.182,0,0,1-52.011-30.9V0H343V63.333a21.118,21.118,0,0,0,27.24,20.2Z"/><path class="cls-1" d="M437.168,43.932a35.232,35.232,0,0,0-9.952-9.952,35.186,35.186,0,0,0-48.754,48.755,35.177,35.177,0,0,0,9.952,9.951,35.176,35.176,0,0,0,54.541-27.731q-7.136.792-14.276,1.588a21.105,21.105,0,0,1-29.96,15.838Zm-44.281,4.474a21.1,21.1,0,0,1,24.024-4.121L388.767,72.429A21.094,21.094,0,0,1,392.887,48.406Z"/><path class="cls-1" d="M307.111,28.148v7.044a35.179,35.179,0,1,0-42.222,56.282.007.007,0,0,0,.007.007,35.157,35.157,0,0,0,42.215-.007v.007a21.108,21.108,0,0,1-36.037,14.926q-4.971,4.971-9.95,9.95a35.179,35.179,0,0,0,60.061-24.876V28.148Zm-5.383,49.259A21.111,21.111,0,0,1,264.889,63.34v-.007a21.111,21.111,0,1,1,42.222,0v.007A21,21,0,0,1,301.728,77.407Z"/></g></g></g></svg>