<svg xmlns="http://www.w3.org/2000/svg" viewBox="0 0 960 200"><defs><style>.cls-1{fill:#121221;}.cls-2{fill:#366ce1;}</style></defs><title>googledocs</title><g id="Слой_2" data-name="Слой 2"><g id="Work_space" data-name="Work space"><g id="googledocs"><path class="cls-1" d="M138.185,66.481a35.186,35.186,0,1,0,35.185,35.186A35.189,35.189,0,0,0,138.185,66.481Zm0,56.3A21.111,21.111,0,1,1,159.3,101.667,21.11,21.11,0,0,1,138.185,122.778Z"/><path class="cls-1" d="M211.593,66.481a35.186,35.186,0,1,0,35.185,35.186A35.189,35.189,0,0,0,211.593,66.481Zm0,56.3A21.111,21.111,0,1,1,232.7,101.667,21.11,21.11,0,0,1,211.593,122.778Z"/><path class="cls-1" d="M100,78.333v10a49.16,49.16,0,0,1-1.01,10,50.013,50.013,0,1,1-13.64-45.35L71.21,67.123a30,30,0,1,0,7.07,31.21H50v-20Z"/><path class="cls-1" d="M380.937,132.566a35.182,35.182,0,0,1-52.011-30.9V38.333H343v63.334a21.115,21.115,0,0,0,27.24,20.2Z"/><path class="cls-1" d="M437.168,82.265a35.212,35.212,0,0,0-9.952-9.951,35.185,35.185,0,0,0-48.754,48.754,35.2,35.2,0,0,0,9.952,9.952,35.177,35.177,0,0,0,54.541-27.731q-7.136.79-14.276,1.587a21.106,21.106,0,0,1-29.96,15.839Zm-44.281,4.474a21.1,21.1,0,0,1,24.024-4.12l-28.144,28.144A21.1,21.1,0,0,1,392.887,86.739Z"/><path class="cls-1" d="M307.111,66.481v7.045a35.179,35.179,0,1,0-42.222,56.282.007.007,0,0,0,.007.007,35.161,35.161,0,0,0,42.215-.007v.007a21.108,21.108,0,0,1-36.037,14.925l-9.95,9.951a35.18,35.18,0,0,0,60.061-24.876V66.481Zm-5.383,49.26a21.111,21.111,0,0,1-36.839-14.067v-.007a21.111,21.111,0,1,1,42.222,0v.007A21,21,0,0,1,301.728,115.741Z"/><path class="cls-2" d="M689.616,111.8q4.379,5.754,8.743,11.5a35,35,0,1,1,0-46.606q-4.368,5.754-8.743,11.5a21,21,0,1,0,0,23.6Z"/><path class="cls-2" d="M505.249,35h-50V135h50a50,50,0,0,0,0-100Zm0,80h-30V55h30a30,30,0,0,1,0,60Z"/><path class="cls-2" d="M596.249,65a35,35,0,1,0,35,35A35,35,0,0,0,596.249,65Zm0,56a21,21,0,1,1,21-21A21,21,0,0,1,596.249,121Z"/><path class="cls-2" d="M772.948,99.3a35,35,0,0,1-59.241,25.938l11.932-8.234a20.995,20.995,0,0,0,30.529-6.55l-53.2-9.756a35,35,0,0,1,59.241-25.938L750.273,83a21,21,0,0,0-30.529,6.55Z"/><path class="cls-1" d="M960,70V190a10,10,0,0,1-10,10H830a10,10,0,0,1-10-10V10A10,10,0,0,1,830,0h60Z"/><path class="cls-2" d="M960,70H910a20,20,0,0,1-20-20V0Z"/><rect class="cls-2" x="830" y="100" width="120" height="10"/><rect class="cls-2" x="830" y="120" width="120" height="10"/><rect class="cls-2" x="830" y="140" width="120" height="10"/><rect class="cls-2" x="870" y="170" width="80" height="10"/></g></g></g></svg>