<svg xmlns="http://www.w3.org/2000/svg" viewBox="0 0 486.84 293.6"><defs><style>.cls-1{fill:#366ce1;}</style></defs><title>google_cloud_platform</title><g id="complete"><g id="google_cloud_platform" data-name="google cloud platform"><path class="cls-1" d="M606.58,462.562l-13.28-23.01H537.46l29.38-50.9-33.42-57.89-13.28-23.01H426.7l-28.28,48.99-15-25.98-13.28-23.01H276.7L246.77,359.6,230,388.652l28.34,49.1H199.86L169.93,489.6l-16.77,29.05,46.7,80.9H293.3l27.76-48.09,28.8,49.89H443.3l28.28-48.99,28.28,48.99H593.3l46.7-80.9ZM415.56,388.5l28.83-49.95h57.75l.06.1h.09l28.86,50-28.86,50H444.54l-.06-.1h-.09l-28.86-50Zm12.76,81.95h-.06l-.52-.9h.06Zm-29.9-49.89,10.96,18.99H387.46ZM265.56,388.5l28.83-49.95h57.75l.06.1h.09l28.29,49,.57,1-.57,1-28.29,49H294.54l-.06-.1h-.09l-28.86-50ZM188.87,518.6l28.83-49.95h.07l-28.87,50Zm86.74,50.95H217.86l-28.86-50,.03-.05,28.83-49.95h57.75l28.47,49.32.15-.27-28.83-49.95h.05l28.8,49.9.06.1-.18.31.34.59Zm46.49-81.91-10.45-18.09h20.89Zm103.51,82.91H367.86l-.06-.1h-.1l-28.8-49.9-.06-.1.03-.05,1.07-1.85,27.76-48.1h57.75l.06.1h.1l28.86,50Zm45.97-82.01-10.96-18.99h21.92Zm104.03,82.01H517.86l-.06-.1h-.1l-28.28-49-.58-1,.03-.05.55-.95,28.28-49h57.75l.06.1h.1l28.86,50Z" transform="translate(-153.16 -307.752)"/></g></g></svg>