<svg xmlns="http://www.w3.org/2000/svg" viewBox="0 0 1022.955 200"><defs><style>.cls-1{fill:#366ce1;}.cls-2{fill:#121221;}</style></defs><title>googleslides</title><g id="Слой_2" data-name="Слой 2"><g id="Work_space" data-name="Work space"><g id="googleslides"><path class="cls-1" d="M466.236,65a10,10,0,0,0,10,10h40a30,30,0,0,1,0,60h-70V115h70a10,10,0,0,0,0-20h-40a30,30,0,0,1,0-60h70V55h-70A10,10,0,0,0,466.236,65Z"/><path class="cls-1" d="M605.108,130.65a35.712,35.712,0,0,1-52.793-31.364V35H566.6V99.286a21.434,21.434,0,0,0,27.65,20.507Z"/><path class="cls-1" d="M687.108,35V70.721a35.715,35.715,0,1,0,0,57.129V135h14.285V35Zm-21.429,85.714a21.429,21.429,0,1,1,21.429-21.428A21.427,21.427,0,0,1,665.679,120.714Z"/><rect class="cls-1" x="610.536" y="63.571" width="14.286" height="71.429"/><rect class="cls-1" x="610.536" y="42.143" width="14.286" height="14.286"/><path class="cls-1" d="M776.243,106.429a35.7,35.7,0,0,0,0-14.286,35.714,35.714,0,0,0-69.985,0,35.7,35.7,0,0,0,0,14.286,35.7,35.7,0,0,0,59.05,19.242q-5.689-4.553-11.386-9.107a21.423,21.423,0,0,1-32.871-10.135ZM741.251,77.857a21.414,21.414,0,0,1,20.2,14.286h-40.4A21.412,21.412,0,0,1,741.251,77.857Z"/><path class="cls-1" d="M852.235,92.144a35.713,35.713,0,0,1-54.684,36.936l10.46-10.46a21.425,21.425,0,0,0,29.436-12.192h-55.2a35.713,35.713,0,0,1,54.684-36.937l-10.46,10.46A21.424,21.424,0,0,0,797.04,92.144Z"/><path class="cls-2" d="M138.185,66.481a35.186,35.186,0,1,0,35.185,35.186A35.189,35.189,0,0,0,138.185,66.481Zm0,56.3A21.111,21.111,0,1,1,159.3,101.667,21.11,21.11,0,0,1,138.185,122.778Z"/><path class="cls-2" d="M211.593,66.481a35.186,35.186,0,1,0,35.185,35.186A35.189,35.189,0,0,0,211.593,66.481Zm0,56.3A21.111,21.111,0,1,1,232.7,101.667,21.11,21.11,0,0,1,211.593,122.778Z"/><path class="cls-2" d="M100,78.333v10a49.16,49.16,0,0,1-1.01,10,50.013,50.013,0,1,1-13.64-45.35L71.21,67.123a30,30,0,1,0,7.07,31.21H50v-20Z"/><path class="cls-2" d="M380.937,132.566a35.182,35.182,0,0,1-52.011-30.9V38.333H343v63.334a21.115,21.115,0,0,0,27.24,20.2Z"/><path class="cls-2" d="M437.168,82.265a35.212,35.212,0,0,0-9.952-9.951,35.185,35.185,0,0,0-48.754,48.754,35.2,35.2,0,0,0,9.952,9.952,35.177,35.177,0,0,0,54.541-27.731q-7.136.79-14.276,1.587a21.106,21.106,0,0,1-29.96,15.839Zm-44.281,4.474a21.1,21.1,0,0,1,24.024-4.12l-28.144,28.144A21.1,21.1,0,0,1,392.887,86.739Z"/><path class="cls-2" d="M307.111,66.481v7.045a35.179,35.179,0,1,0-42.222,56.282.007.007,0,0,0,.007.007,35.161,35.161,0,0,0,42.215-.007v.007a21.108,21.108,0,0,1-36.037,14.925l-9.95,9.951a35.18,35.18,0,0,0,60.061-24.876V66.481Zm-5.383,49.26a21.111,21.111,0,0,1-36.839-14.067v-.007a21.111,21.111,0,1,1,42.222,0v.007A21,21,0,0,1,301.728,115.741Z"/><path class="cls-2" d="M1022.955,70V190a10,10,0,0,1-10,10h-120a10,10,0,0,1-10-10V10a10,10,0,0,1,10-10h60Z"/><path class="cls-1" d="M1022.955,70h-50a20,20,0,0,1-20-20V0Z"/><rect class="cls-1" x="904.622" y="88.333" width="100" height="83.333" rx="10" transform="translate(824.622 1084.622) rotate(-90)"/><rect class="cls-2" x="929.622" y="105" width="50" height="66.667" rx="10" transform="translate(816.288 1092.955) rotate(-90)"/></g></g></g></svg>