<svg xmlns="http://www.w3.org/2000/svg" viewBox="0 0 1080 260"><defs><style>.cls-1,.cls-3,.cls-4{fill:#366ce1;}.cls-2{fill:#121221;}.cls-3{opacity:0.66;}.cls-4{opacity:0.33;}</style></defs><title>googledrive</title><g id="Слой_2" data-name="Слой 2"><g id="Work_space" data-name="Work space"><g id="googledrive"><path class="cls-1" d="M512.955,65h-50V165h50a50,50,0,0,0,0-100Zm0,80h-30V85h30a30,30,0,0,1,0,60Z"/><polygon class="cls-1" points="713.71 95.769 686.558 163.664 686.025 165 672.179 165 671.646 163.664 644.493 95.769 659.406 95.769 679.102 145.02 698.805 95.769 713.71 95.769"/><rect class="cls-1" x="624.801" y="95.769" width="13.846" height="69.231"/><rect class="cls-1" x="624.801" y="75" width="13.846" height="13.846"/><path class="cls-1" d="M777.256,137.308a34.633,34.633,0,0,0,0-13.846,34.616,34.616,0,0,0-67.833,0,34.633,34.633,0,0,0,0,13.846,34.606,34.606,0,0,0,57.233,18.65q-5.514-4.413-11.035-8.826a20.764,20.764,0,0,1-31.86-9.824Zm-33.917-27.693a20.754,20.754,0,0,1,19.579,13.847H723.761A20.754,20.754,0,0,1,743.339,109.615Z"/><path class="cls-1" d="M621.032,100.705q-3.562,5.94-7.124,11.873a20.763,20.763,0,0,0-31.452,17.807V165H568.61V95.769h13.846v6.93a34.587,34.587,0,0,1,38.576-1.994Z"/><path class="cls-2" d="M138.185,96.481a35.186,35.186,0,1,0,35.185,35.186A35.189,35.189,0,0,0,138.185,96.481Zm0,56.3A21.111,21.111,0,1,1,159.3,131.667,21.11,21.11,0,0,1,138.185,152.778Z"/><path class="cls-2" d="M211.593,96.481a35.186,35.186,0,1,0,35.185,35.186A35.189,35.189,0,0,0,211.593,96.481Zm0,56.3A21.111,21.111,0,1,1,232.7,131.667,21.11,21.11,0,0,1,211.593,152.778Z"/><path class="cls-2" d="M100,108.333v10a49.16,49.16,0,0,1-1.01,10,50.013,50.013,0,1,1-13.64-45.35L71.21,97.123a30,30,0,1,0,7.07,31.21H50v-20Z"/><path class="cls-2" d="M380.937,162.566a35.182,35.182,0,0,1-52.011-30.9V68.333H343v63.334a21.115,21.115,0,0,0,27.24,20.2Z"/><path class="cls-2" d="M437.168,112.265a35.212,35.212,0,0,0-9.952-9.951,35.185,35.185,0,0,0-48.754,48.754,35.2,35.2,0,0,0,9.952,9.952,35.177,35.177,0,0,0,54.541-27.731q-7.136.791-14.276,1.587a21.106,21.106,0,0,1-29.96,15.839Zm-44.281,4.474a21.1,21.1,0,0,1,24.024-4.12l-28.144,28.144A21.1,21.1,0,0,1,392.887,116.739Z"/><path class="cls-2" d="M307.111,96.481v7.045a35.179,35.179,0,1,0-42.222,56.282.007.007,0,0,0,.007.007,35.161,35.161,0,0,0,42.215-.007v.007a21.108,21.108,0,0,1-36.037,14.925l-9.95,9.951a35.18,35.18,0,0,0,60.061-24.876V96.481Zm-5.383,49.26a21.111,21.111,0,0,1-36.839-14.067v-.007a21.111,21.111,0,1,1,42.222,0v.007A21,21,0,0,1,301.728,145.741Z"/><path class="cls-2" d="M1020,0l60,100H780L840,0Z"/><path class="cls-2" d="M780,100.682,838.849,0,980,260H880Z"/><path class="cls-2" d="M1080,100.682,1021.151,0,880,260H980Z"/><path class="cls-1" d="M1020,0l60,100H780L840,0Z"/><path class="cls-3" d="M780,100.682,838.849,0,980,260H880Z"/><path class="cls-4" d="M1080,100.682,1021.151,0,880,260H980Z"/></g></g></g></svg>