<svg xmlns="http://www.w3.org/2000/svg" viewBox="0 0 1224.986 242.838"><defs><style>.cls-1{fill:#121221;}.cls-2{fill:#366ce1;}</style></defs><title>green bits</title><g id="Слой_2" data-name="Слой 2"><g id="Work_space" data-name="Work space"><g id="green_bits" data-name="green bits"><rect class="cls-1" x="1134.223" y="42.838" width="30" height="200"/><path class="cls-2" d="M1175.352,68.127a30,30,0,1,0,30,30A30,30,0,0,0,1175.352,68.127Zm0,40a10,10,0,1,1,10-10A10,10,0,0,1,1175.352,108.127Z"/><path class="cls-2" d="M1117.986,92.127a35,35,0,1,0,35,35A35,35,0,0,0,1117.986,92.127Zm0,50a15,15,0,1,1,15-15A15.005,15.005,0,0,1,1117.986,142.127Z"/><path class="cls-2" d="M1104.394,11.549a50,50,0,1,0,50,50A50.005,50.005,0,0,0,1104.394,11.549Zm0,80a30,30,0,1,1,30-30A30,30,0,0,1,1104.394,91.549Z"/><path class="cls-2" d="M1184.986,0a40,40,0,1,0,40,40A40,40,0,0,0,1184.986,0Zm0,60a20,20,0,1,1,20-20A19.994,19.994,0,0,1,1184.986,60Z"/><polygon class="cls-1" points="810 117.155 810 177.155 830 177.155 830 197.155 770 197.155 770 177.155 790 177.155 790 117.155 770 117.155 770 97.155 830 97.155 830 117.155 810 117.155"/><polygon class="cls-2" points="540 97.155 540 197.155 520 197.155 460 127.745 460 197.155 440 197.155 440 97.155 460 97.155 520 166.565 520 97.155 540 97.155"/><path class="cls-1" d="M970,127.155a10,10,0,0,0,10,10h40a30,30,0,0,1,0,60H950v-20h70a10,10,0,0,0,0-20H980a30,30,0,0,1,0-60h70v20H980A10,10,0,0,0,970,127.155Z"/><polygon class="cls-2" points="240 117.155 240 137.155 320 137.155 320 157.155 240 157.155 240 177.155 320 177.155 320 197.155 220 197.155 220 97.155 320 97.155 320 117.155 240 117.155"/><polygon class="cls-2" points="350 117.155 350 137.155 430 137.155 430 157.155 350 157.155 350 177.155 430 177.155 430 197.155 330 197.155 330 97.155 430 97.155 430 117.155 350 117.155"/><path class="cls-2" d="M210,127.155a30,30,0,0,0-30-30H110v100h20v-40h50a10,10,0,0,1,10,10v30h20v-30a29.862,29.862,0,0,0-7.65-20A29.862,29.862,0,0,0,210,127.155Zm-80,10v-20h50a10,10,0,0,1,0,20Z"/><path class="cls-1" d="M760,127.155a30,30,0,0,0-30-30H660v100h70a29.991,29.991,0,0,0,22.35-50A29.862,29.862,0,0,0,760,127.155Zm-80-10h50a10,10,0,0,1,0,20H680Zm50,60H680v-20h50a10,10,0,0,1,0,20Z"/><path class="cls-2" d="M100,137.155v10a49.16,49.16,0,0,1-1.01,10,50.013,50.013,0,1,1-13.64-45.35l-14.14,14.14a30,30,0,1,0,7.07,31.21H50v-20Z"/><polygon class="cls-1" points="940 97.155 940 117.155 900 117.155 900 197.155 880 197.155 880 117.155 840 117.155 840 97.155 940 97.155"/></g></g></g></svg>