<svg xmlns="http://www.w3.org/2000/svg" viewBox="0 0 1020 160"><defs><style>.cls-1{fill:#366ce1;}.cls-2{fill:#121221;}</style></defs><title>grooper</title><g id="Слой_2" data-name="Слой 2"><g id="Work_space" data-name="Work space"><g id="grooper"><path class="cls-1" d="M960,50a50,50,0,0,1-100,0A50.005,50.005,0,0,0,910,0,50.005,50.005,0,0,0,960,50Z"/><path class="cls-1" d="M900,110a50,50,0,0,1-100,0,50.005,50.005,0,0,0,50-50A50.005,50.005,0,0,0,900,110Z"/><path class="cls-1" d="M1020,110a50,50,0,0,1-100,0,50.005,50.005,0,0,0,50-50A50.005,50.005,0,0,0,1020,110Z"/><polygon class="cls-2" points="570 50 570 70 650 70 650 90 570 90 570 110 650 110 650 130 550 130 550 30 650 30 650 50 570 50"/><path class="cls-2" d="M760,60a30,30,0,0,0-30-30H660V130h20V90h50a10,10,0,0,1,10,10v30h20V100a29.862,29.862,0,0,0-7.65-20A29.862,29.862,0,0,0,760,60ZM680,70V50h50a10,10,0,0,1,0,20Z"/><path class="cls-2" d="M210,60a30,30,0,0,0-30-30H110V130h20V90h50a10,10,0,0,1,10,10v30h20V100a29.862,29.862,0,0,0-7.65-20A29.862,29.862,0,0,0,210,60ZM130,70V50h50a10,10,0,0,1,0,20Z"/><path class="cls-2" d="M270,30a50,50,0,1,0,50,50A50.005,50.005,0,0,0,270,30Zm0,80a30,30,0,1,1,30-30A30,30,0,0,1,270,110Z"/><path class="cls-2" d="M380,30a50,50,0,1,0,50,50A50.005,50.005,0,0,0,380,30Zm0,80a30,30,0,1,1,30-30A30,30,0,0,1,380,110Z"/><path class="cls-2" d="M100,70V80a49.16,49.16,0,0,1-1.01,10A50.013,50.013,0,1,1,85.35,44.65L71.21,58.79A30,30,0,1,0,78.28,90H50V70Z"/><path class="cls-2" d="M510,30H440V130h20V90h50a30,30,0,0,0,0-60Zm0,40H460V50h50a10,10,0,0,1,0,20Z"/></g></g></g></svg>