<svg xmlns="http://www.w3.org/2000/svg" viewBox="0 0 460 142.615"><defs><style>.cls-1{fill:#366ce1;}.cls-2,.cls-3{fill:#121221;}.cls-2{opacity:0.62;}.cls-3{opacity:0.38;}</style></defs><title>h2o AI</title><g id="Слой_2" data-name="Слой 2"><g id="Work_space" data-name="Work space"><g id="h2o_AI" data-name="h2o AI"><polygon class="cls-1" points="440 62.615 440 122.615 460 122.615 460 142.615 410 142.615 402 122.615 420 122.615 420 62.615 400 62.615 400 42.615 460 42.615 460 62.615 440 62.615"/><polygon class="cls-1" points="100 40 100 140 80 140 80 100 20 100 20 140 0 140 0 40 20 40 20 80 80 80 80 40 100 40"/><path class="cls-1" d="M240,40a50,50,0,1,0,50,50A50.005,50.005,0,0,0,240,40Zm0,80a30,30,0,1,1,30-30A30,30,0,0,1,240,120Z"/><path class="cls-1" d="M402,122.615l-31.23-78.05-.78-1.95H350.01l-.78,1.94L310,142.615h21.55l11.2-28h34.5l11.2,28H410Zm-51.25-28L360,71.485l9.25,23.13Z"/><polygon class="cls-2" points="440 62.615 440 122.615 460 122.615 460 142.615 410 142.615 402 122.615 420 122.615 420 62.615 400 62.615 400 42.615 460 42.615 460 62.615 440 62.615"/><path class="cls-3" d="M402,122.615l-31.23-78.05-.78-1.95H350.01l-.78,1.94L310,142.615h21.55l11.2-28h34.5l11.2,28H410Zm-51.25-28L360,71.485l9.25,23.13Z"/><path class="cls-1" d="M195.254,120v20h-80V100a40.028,40.028,0,0,1,40-40,20,20,0,1,0-20-20h-20a39.987,39.987,0,1,1,40,40,19.994,19.994,0,0,0-20,20v20Z"/></g></g></g></svg>