<svg xmlns="http://www.w3.org/2000/svg" viewBox="0 0 1425.207 308.891"><defs><style>.cls-1{fill:#121221;}.cls-2{fill:#366ce1;}</style></defs><title>hackerrank</title><g id="Слой_2" data-name="Слой 2"><g id="Work_space" data-name="Work space"><g id="hackerrank"><rect class="cls-1" x="1184.317" y="126.211" width="30" height="182.68"/><rect class="cls-1" x="1192.977" y="134.871" width="30" height="182.68" transform="translate(1434.187 -981.766) rotate(90)"/><polygon class="cls-2" points="1281.997 143.21 1116.637 143.21 1199.317 0 1281.997 143.21"/><polygon class="cls-2" points="1281.997 308.891 1281.997 143.531 1425.207 226.211 1281.997 308.891"/><polygon class="cls-2" points="910 166.211 910 266.211 890 266.211 830 196.801 830 266.211 810 266.211 810 166.211 830 166.211 890 235.621 890 166.211 910 166.211"/><polygon class="cls-1" points="100 166.211 100 266.211 80 266.211 80 226.211 20 226.211 20 266.211 0 266.211 0 166.211 20 166.211 20 206.211 80 206.211 80 166.211 100 166.211"/><polygon class="cls-1" points="450 186.211 450 206.211 530 206.211 530 226.211 450 226.211 450 246.211 530 246.211 530 266.211 430 266.211 430 166.211 530 166.211 530 186.211 450 186.211"/><path class="cls-1" d="M640,196.211a30,30,0,0,0-30-30H540v100h20v-40h50a10,10,0,0,1,10,10v30h20v-30a29.862,29.862,0,0,0-7.65-20A29.862,29.862,0,0,0,640,196.211Zm-80,10v-20h50a10,10,0,0,1,0,20Z"/><path class="cls-2" d="M690,196.211a30,30,0,0,0-30-30H590v100h20v-40h50a10,10,0,0,1,10,10v30h20v-30a29.862,29.862,0,0,0-7.65-20A29.862,29.862,0,0,0,690,196.211Zm-80,10v-20h50a10,10,0,0,1,0,20Z"/><polygon class="cls-2" points="1020 266.201 1020 266.211 990.13 266.211 949.51 229.641 940 238.211 940 266.211 920 266.211 920 166.211 940 166.211 940 211.301 949.51 202.731 990.07 166.211 1019.97 166.211 964.46 216.191 1020 266.201"/><polygon class="cls-1" points="420 266.201 420 266.211 390.13 266.211 349.51 229.641 340 238.211 340 266.211 320 266.211 320 166.211 340 166.211 340 211.301 349.51 202.731 390.07 166.211 419.97 166.211 364.46 216.191 420 266.201"/><path class="cls-1" d="M289.29,226.211H310a50,50,0,1,1,0-20H289.29a30,30,0,1,0,0,20Z"/><path class="cls-2" d="M760.77,168.161l-.78-1.95H740.01l-.78,1.94L700,266.211h21.55l11.2-28h34.5l11.2,28H800Zm-20.02,50.05,9.25-23.13,9.25,23.13Z"/><path class="cls-1" d="M170.77,168.161l-.78-1.95H150.01l-.78,1.94L110,266.211h21.55l11.2-28h34.5l11.2,28H210Zm-20.02,50.05,9.25-23.13,9.25,23.13Z"/></g></g></g></svg>