<svg xmlns="http://www.w3.org/2000/svg" viewBox="0 0 759.97 218.803"><defs><style>.cls-1{fill:#121221;}.cls-2,.cls-3,.cls-4{fill:#366ce1;}.cls-2{opacity:0.62;}.cls-3{opacity:0.38;}</style></defs><title>harmony</title><g id="Слой_2" data-name="Слой 2"><g id="Work_space" data-name="Work space"><g id="harmony"><path class="cls-1" d="M455.605,38.13a36,36,0,1,0,36,36A36,36,0,0,0,455.605,38.13Zm0,57.6a21.6,21.6,0,1,1,21.6-21.6A21.6,21.6,0,0,1,455.605,95.73Z"/><path class="cls-1" d="M514.615,0a23.831,23.831,0,1,0,23.831,23.831A23.834,23.834,0,0,0,514.615,0Zm0,38.13a14.3,14.3,0,1,1,14.3-14.3A14.3,14.3,0,0,1,514.615,38.13Z"/><path class="cls-2" d="M455.605,38.13a36,36,0,1,0,36,36A36,36,0,0,0,455.605,38.13Zm0,57.6a21.6,21.6,0,1,1,21.6-21.6A21.6,21.6,0,0,1,455.605,95.73Z"/><path class="cls-3" d="M514.615,0a23.831,23.831,0,1,0,23.831,23.831A23.834,23.834,0,0,0,514.615,0Zm0,38.13a14.3,14.3,0,1,1,14.3-14.3A14.3,14.3,0,0,1,514.615,38.13Z"/><polygon class="cls-1" points="100 118.803 100 218.803 80 218.803 80 178.803 20 178.803 20 218.803 0 218.803 0 118.803 20 118.803 20 158.803 80 158.803 80 118.803 100 118.803"/><path class="cls-1" d="M320,148.8a30,30,0,0,0-30-30H220v100h20v-40h50a10,10,0,0,1,10,10v30h20v-30a29.862,29.862,0,0,0-7.65-20A29.862,29.862,0,0,0,320,148.8Zm-80,10v-20h50a10,10,0,0,1,0,20Z"/><polygon class="cls-1" points="650 118.803 650 218.803 630 218.803 570 149.393 570 218.803 550 218.803 550 118.803 570 118.803 630 188.213 630 118.803 650 118.803"/><polygon class="cls-1" points="430 118.803 430 218.803 410 218.803 410 149.393 393.2 168.853 379.99 184.163 366.78 168.853 350 149.423 350 218.803 330 218.803 330 118.803 350 118.803 350 118.813 379.99 153.553 409.98 118.803 430 118.803"/><path class="cls-4" d="M490,118.8a50,50,0,1,0,50,50A50.005,50.005,0,0,0,490,118.8Zm0,80a30,30,0,1,1,30-30A30,30,0,0,1,490,198.8Z"/><path class="cls-1" d="M170.77,120.753l-.78-1.95H150.01l-.78,1.94L110,218.8h21.55l11.2-28h34.5l11.2,28H210ZM150.75,170.8l9.25-23.13,9.25,23.13Z"/><polygon class="cls-1" points="722.8 165.263 719.97 168.803 720.02 168.803 720.02 218.803 700.02 218.803 700.02 168.803 697.19 165.263 660.02 118.803 685.63 118.803 709.99 149.253 734.35 118.803 759.97 118.803 722.8 165.263"/></g></g></g></svg>