<svg xmlns="http://www.w3.org/2000/svg" viewBox="0 0 1271.48 247.94"><defs><style>.cls-1{fill:#121221;}.cls-2,.cls-3{fill:#366ce1;}.cls-3{opacity:0.32;}</style></defs><title>hatch baby</title><g id="Слой_2" data-name="Слой 2"><g id="Work_space" data-name="Work space"><g id="hatch_baby" data-name="hatch baby"><polygon class="cls-1" points="100 73.97 100 173.97 80 173.97 80 133.97 20 133.97 20 173.97 0 173.97 0 73.97 20 73.97 20 113.97 80 113.97 80 73.97 100 73.97"/><polygon class="cls-1" points="519.97 73.97 519.97 173.97 499.97 173.97 499.97 133.97 439.97 133.97 439.97 173.97 419.97 173.97 419.97 73.97 439.97 73.97 439.97 113.97 499.97 113.97 499.97 73.97 519.97 73.97"/><path class="cls-1" d="M388.22,133.97h20.71a50,50,0,1,1,0-20H388.22a30,30,0,1,0,0,20Z"/><path class="cls-2" d="M760,103.97a30,30,0,0,0-30-30H660v100h70a29.991,29.991,0,0,0,22.35-50A29.862,29.862,0,0,0,760,103.97Zm-80-10h50a10,10,0,0,1,0,20H680Zm50,60H680v-20h50a10,10,0,0,1,0,20Z"/><path class="cls-2" d="M970,103.97a30,30,0,0,0-30-30H870v100h70a29.991,29.991,0,0,0,22.35-50A29.862,29.862,0,0,0,970,103.97Zm-80-10h50a10,10,0,0,1,0,20H890Zm50,60H890v-20h50a10,10,0,0,1,0,20Z"/><path class="cls-1" d="M170.77,75.92l-.78-1.95H150.01l-.78,1.94L110,173.97h21.55l11.2-28h34.5l11.2,28H210Zm-20.02,50.05L160,102.84l9.25,23.13Z"/><path class="cls-2" d="M820.77,75.92l-.78-1.95H800.01l-.78,1.94L760,173.97h21.55l11.2-28h34.5l11.2,28H860Zm-20.02,50.05L810,102.84l9.25,23.13Z"/><polygon class="cls-1" points="299.97 73.97 299.97 93.97 259.97 93.97 259.97 173.97 239.97 173.97 239.97 93.97 199.97 93.97 199.97 73.97 299.97 73.97"/><polygon class="cls-2" points="1032.8 120.43 1029.97 123.97 1030.02 123.97 1030.02 173.97 1010.02 173.97 1010.02 123.97 1007.19 120.43 970.02 73.97 995.63 73.97 1019.99 104.42 1044.35 73.97 1069.97 73.97 1032.8 120.43"/><path class="cls-1" d="M1179.45,247.94c50.83,0,92.03-55.5,92.03-123.97S1230.28,0,1179.45,0s-92.03,55.5-92.03,123.97S1128.62,247.94,1179.45,247.94Zm-.76-238.48a76.073,76.073,0,0,1,67.92,110.31,76.058,76.058,0,1,1-135.08,1.46A76.066,76.066,0,0,1,1178.69,9.46Z"/><path class="cls-1" d="M1102.63,85.52a76.06,76.06,0,1,1,143.98,34.25,76.078,76.078,0,0,0-135.08,1.46A75.641,75.641,0,0,1,1102.63,85.52Z"/><path class="cls-3" d="M1102.63,85.52a76.06,76.06,0,1,1,143.98,34.25,76.078,76.078,0,0,0-135.08,1.46A75.641,75.641,0,0,1,1102.63,85.52Z"/><path class="cls-2" d="M1103.39,155.49a76.06,76.06,0,1,1,76.06,76.06A75.684,75.684,0,0,1,1103.39,155.49Z"/></g></g></g></svg>