<svg xmlns="http://www.w3.org/2000/svg" viewBox="0 0 850.946 294.36"><defs><style>.cls-1{fill:#366ce1;}.cls-2{fill:#121221;}</style></defs><title>hedvig</title><g id="Слой_2" data-name="Слой 2"><g id="Work_space" data-name="Work space"><g id="hedvig"><polygon class="cls-1" points="806.867 172.633 806.867 172.968 766.303 196.384 766.009 196.217 806.867 172.633"/><polygon class="cls-1" points="806.867 23.606 806.867 121.726 765.968 98.12 725.064 121.732 725.064 23.612 765.968 0 806.867 23.606"/><polygon class="cls-2" points="850.946 49.054 850.946 96.619 806.867 122.067 806.867 23.606 850.946 49.054"/><polygon class="cls-2" points="850.946 147.52 850.946 245.306 806.867 270.753 806.867 172.968 810.382 170.936 850.946 147.52"/><polygon class="cls-2" points="806.867 122.067 806.867 172.633 766.009 196.217 725.064 172.581 725.064 121.68 766.297 145.489 806.867 122.067"/><polygon class="cls-2" points="850.946 96.619 850.946 147.52 810.382 170.936 806.867 172.968 806.867 122.067 850.946 96.619"/><polygon class="cls-1" points="806.867 172.968 806.867 270.753 765.968 294.36 725.064 270.747 725.064 172.627 765.968 196.24 766.009 196.217 766.303 196.384 806.867 172.968"/><polygon class="cls-2" points="725.064 121.68 725.064 172.581 722.218 170.936 680.985 147.134 680.985 96.233 725.064 121.68"/><polygon class="cls-2" points="725.064 23.612 725.064 121.68 680.985 96.233 680.985 49.054 724.729 23.803 725.064 23.612"/><polygon class="cls-2" points="725.064 172.581 725.064 270.747 724.729 270.557 680.985 245.306 680.985 147.134 722.218 170.936 725.064 172.581"/><path class="cls-2" d="M270,93.81H220v100h50a50,50,0,0,0,0-100Zm0,80H240v-60h30a30,30,0,0,1,0,60Z"/><polygon class="cls-2" points="100 93.81 100 193.81 80 193.81 80 153.81 20 153.81 20 193.81 0 193.81 0 93.81 20 93.81 20 133.81 80 133.81 80 93.81 100 93.81"/><polygon class="cls-2" points="130 113.81 130 133.81 210 133.81 210 153.81 130 153.81 130 173.81 210 173.81 210 193.81 110 193.81 110 93.81 210 93.81 210 113.81 130 113.81"/><polygon class="cls-2" points="419.98 93.81 380.76 191.88 379.99 193.81 359.99 193.81 359.22 191.88 320 93.81 341.54 93.81 369.99 164.95 398.45 93.81 419.98 93.81"/><path class="cls-2" d="M630,133.81v10a49.16,49.16,0,0,1-1.01,10,50.013,50.013,0,1,1-13.64-45.35L601.21,122.6a30,30,0,1,0,7.07,31.21H580v-20Z"/><polygon class="cls-2" points="489.98 113.81 489.98 173.81 529.98 173.81 529.98 193.81 429.98 193.81 429.98 173.81 469.98 173.81 469.98 113.81 429.98 113.81 429.98 93.81 529.98 93.81 529.98 113.81 489.98 113.81"/></g></g></g></svg>