<svg xmlns="http://www.w3.org/2000/svg" viewBox="0 0 735 200"><defs><style>.cls-1{fill:#366ce1;}.cls-2{fill:#121221;}</style></defs><title>helix</title><g id="Слой_2" data-name="Слой 2"><g id="Work_space" data-name="Work space"><g id="helix"><polygon class="cls-1" points="735 0 735 100 665 100 665 40 695 40 695 60 685 60 685 80 715 80 715 20 645 20 645 200 535 200 535 100 605 100 605 160 575 160 575 140 585 140 585 120 555 120 555 180 625 180 625 0 735 0"/><polygon class="cls-2" points="735 200 635 200 635 130 695 130 695 160 675 160 675 150 655 150 655 180 715 180 715 110 535 110 535 0 635 0 635 70 575 70 575 40 595 40 595 50 615 50 615 20 555 20 555 90 735 90 735 200"/><polygon class="cls-2" points="100 50 100 150 80 150 80 110 20 110 20 150 0 150 0 50 20 50 20 90 80 90 80 50 100 50"/><polygon class="cls-2" points="130 70 130 90 210 90 210 110 130 110 130 130 210 130 210 150 110 150 110 50 210 50 210 70 130 70"/><polygon class="cls-2" points="320 130 320 150 220 150 220 50 240 50 240 130 320 130"/><polygon class="cls-2" points="380 70 380 130 410 130 410 150 330 150 330 130 360 130 360 70 330 70 330 50 410 50 410 70 380 70"/><polygon class="cls-2" points="482.5 100.03 519.95 150 494.96 150 470.01 116.7 445.05 150 420.07 150 457.51 100.03 420.02 50 445 50 470.01 83.36 495.01 50 520 50 482.5 100.03"/></g></g></g></svg>