<svg xmlns="http://www.w3.org/2000/svg" viewBox="0 0 629.98 456.28"><defs><style>.cls-1{fill:#121221;}.cls-2,.cls-3{fill:#366ce1;}.cls-3{opacity:0.62;}</style></defs><title>hetrix core</title><g id="Слой_2" data-name="Слой 2"><g id="Complete"><g id="hetrix_core" data-name="hetrix core"><polygon class="cls-1" points="100 246.28 100 346.28 80 346.28 80 306.28 20 306.28 20 346.28 0 346.28 0 246.28 20 246.28 20 286.28 80 286.28 80 246.28 100 246.28"/><polygon class="cls-1" points="130 266.28 130 286.28 210 286.28 210 306.28 130 306.28 130 326.28 210 326.28 210 346.28 110 346.28 110 246.28 210 246.28 210 266.28 130 266.28"/><path class="cls-1" d="M430,276.28a30,30,0,0,0-30-30H330v100h20v-40h50a10,10,0,0,1,10,10v30h20v-30a29.862,29.862,0,0,0-7.65-20A29.862,29.862,0,0,0,430,276.28Zm-80,10v-20h50a10,10,0,0,1,0,20Z"/><polygon class="cls-1" points="490.02 266.28 490.02 326.28 520.02 326.28 520.02 346.28 440.02 346.28 440.02 326.28 470.02 326.28 470.02 266.28 440.02 266.28 440.02 246.28 520.02 246.28 520.02 266.28 490.02 266.28"/><polygon class="cls-1" points="320 246.28 320 266.28 280 266.28 280 346.28 260 346.28 260 266.28 220 266.28 220 246.28 320 246.28"/><polygon class="cls-1" points="592.48 296.31 629.93 346.28 604.94 346.28 579.99 312.98 555.03 346.28 530.05 346.28 567.49 296.31 530 246.28 554.98 246.28 579.99 279.64 604.99 246.28 629.98 246.28 592.48 296.31"/><path class="cls-1" d="M252.665,356.28a50,50,0,1,0,50,50A50.005,50.005,0,0,0,252.665,356.28Zm0,90a40,40,0,1,1,40-40A40,40,0,0,1,252.665,446.28Z"/><path class="cls-1" d="M185.6,434.56l7.07,7.07a50,50,0,1,1,0-70.7L185.6,378a40,40,0,1,0,0,56.56Z"/><polygon class="cls-1" points="432.665 366.28 432.665 401.28 522.665 401.28 522.665 411.28 432.665 411.28 432.665 446.28 522.665 446.28 522.665 456.28 422.665 456.28 422.665 356.28 522.665 356.28 522.665 366.28 432.665 366.28"/><path class="cls-1" d="M399.235,411.28a29.994,29.994,0,0,0-16.57-55h-70v100h10v-40h60a19.994,19.994,0,0,1,20,20v20h10v-20A29.923,29.923,0,0,0,399.235,411.28Zm-26.57-2.96-.02-.04h.02Zm10-2.04h-60v-40h60a20,20,0,0,1,0,40Z"/><polygon class="cls-1" points="364.99 77.28 329.13 113.14 364.99 149 364.99 163.14 350.85 163.14 314.99 127.28 279.13 163.14 264.99 163.14 264.99 149 300.85 113.14 264.99 77.28 264.99 63.14 279.14 63.14 314.99 98.99 350.84 63.14 364.99 63.14 364.99 77.28"/><path class="cls-2" d="M314.99,0,293.78,21.22,223.07,91.93l-21.22,21.21L314.99,226.28l21.21-21.22,70.71-70.71,21.22-21.21Zm0,183.85-70.71-70.71,70.71-70.71,70.71,70.71Z"/><path class="cls-3" d="M314.99,85.64a27.5,27.5,0,1,0,27.5,27.5A27.5,27.5,0,0,0,314.99,85.64Zm0,45a17.5,17.5,0,1,1,17.5-17.5A17.506,17.506,0,0,1,314.99,130.64Z"/></g></g></g></svg>