<svg xmlns="http://www.w3.org/2000/svg" viewBox="0 0 450 161"><defs><style>.cls-1{fill:#121221;}</style></defs><title>hims</title><g id="Слой_2" data-name="Слой 2"><g id="Work_space" data-name="Work space"><g id="hims"><path class="cls-1" d="M160,0a30,30,0,1,0,30,30A30,30,0,0,0,160,0Zm0,50a20,20,0,1,1,20-20A20,20,0,0,1,160,50Z"/><path class="cls-1" d="M249.99,61.07v-.03L250,61h9.97l20.01,78.98Q289.99,100.49,300,61h9.99l.01.01q15,50,29.99,99.99H329.55L305.37,80.43l-20.24,79.9-.14.56-.03.11h-9.97l-.17-.66L254.59,80.51,230.44,161H220Q235,111.035,249.99,61.07Z"/><path class="cls-1" d="M360,88.5A17.506,17.506,0,0,0,377.5,106h45a27.5,27.5,0,0,1,7.5,53.95,26.911,26.911,0,0,1-7.5,1.05H350V151h72.5a17.5,17.5,0,0,0,0-35h-45A27.5,27.5,0,0,1,370,62.05,26.911,26.911,0,0,1,377.5,61H450V71H377.5A17.506,17.506,0,0,0,360,88.5Z"/><polygon class="cls-1" points="165 71 165 151 210 151 210 161 110 161 110 151 155 151 155 71 110 71 110 61 210 61 210 71 165 71"/><polygon class="cls-1" points="90 116 10 116 10 161 0 161 0 61 10 61 10 106 90 106 90 61 100 61 100 161 90 161 90 116"/></g></g></g></svg>