<svg xmlns="http://www.w3.org/2000/svg" viewBox="0 0 1080 200"><defs><style>.cls-1{fill:#121221;}.cls-2{fill:#366ce1;}</style></defs><title>honestly</title><g id="Слой_2" data-name="Слой 2"><g id="Work_space" data-name="Work space"><g id="honestly"><polygon class="cls-1" points="320 50 320 150 300 150 240 80.59 240 150 220 150 220 50 240 50 300 119.41 300 50 320 50"/><path class="cls-1" d="M460,80a10,10,0,0,0,10,10h40a30,30,0,0,1,0,60H440V130h70a10,10,0,0,0,0-20H470a30,30,0,0,1,0-60h70V70H470A10,10,0,0,0,460,80Z"/><polygon class="cls-1" points="100 50 100 150 80 150 80 110 20 110 20 150 0 150 0 50 20 50 20 90 80 90 80 50 100 50"/><polygon class="cls-1" points="350 70 350 90 430 90 430 110 350 110 350 130 430 130 430 150 330 150 330 50 430 50 430 70 350 70"/><polygon class="cls-1" points="760 130 760 150 660 150 660 50 680 50 680 130 760 130"/><path class="cls-1" d="M160,50a50,50,0,1,0,50,50A50.005,50.005,0,0,0,160,50Zm0,80a30,30,0,1,1,30-30A30,30,0,0,1,160,130Z"/><polygon class="cls-1" points="650 50 650 70 610 70 610 150 590 150 590 70 550 70 550 50 650 50"/><polygon class="cls-1" points="792.83 96.46 790 100 790.05 100 790.05 150 770.05 150 770.05 100 767.22 96.46 730.05 50 755.66 50 780.02 80.45 804.38 50 830 50 792.83 96.46"/><path class="cls-2" d="M880,0H980a100,100,0,0,1,100,100V200a0,0,0,0,1,0,0H980A100,100,0,0,1,880,100V0A0,0,0,0,1,880,0Z" transform="translate(1080 -880) rotate(90)"/><path class="cls-1" d="M940,90h0a50,50,0,0,1,50,50v50a0,0,0,0,1,0,0H940a50,50,0,0,1-50-50v0A50,50,0,0,1,940,90Z" transform="translate(1080 -800) rotate(90)"/></g></g></g></svg>