<svg xmlns="http://www.w3.org/2000/svg" viewBox="0 0 860 359.24"><defs><style>.cls-1{fill:#121221;}.cls-2{fill:#366ce1;}</style></defs><title>hubstaff</title><g id="Complete"><g id="hubstaff"><path class="cls-1" d="M428.569,544.47l.089-.068-.008-.018a119.09,119.09,0,0,0-46.969,79.864h0c.085,0,.169.007.251.013l0-.041a50,50,0,0,0,46.63-79.75Z" transform="translate(-70 -400)"/><path class="cls-1" d="M520.079,723.6A50,50,0,0,0,454.7,749.963c-.044.114-.09.227-.141.338a119.481,119.481,0,0,0,91.94-.521A49.793,49.793,0,0,0,520.079,723.6Z" transform="translate(-70 -400)"/><path class="cls-2" d="M613.459,676.39a119.087,119.087,0,0,1-25.7,44.19,99.433,99.433,0,0,0-48.24-43.05c-1.05-.45-2.11-.87-3.17-1.27a49.953,49.953,0,0,1-70.49-.35,99.707,99.707,0,0,0-52.91,45.69,118.911,118.911,0,0,1-27.19-46.95,99.762,99.762,0,0,0,66.75-22.94,50.056,50.056,0,0,1,34.6-59.02c.26-1.46.5-2.92.7-4.4a99.593,99.593,0,0,0-13.19-64.84,120.052,120.052,0,0,1,54.53.93,99.489,99.489,0,0,0-14.09,62.08q.33,3.21.85,6.36a50.04,50.04,0,0,1,33.92,59.8A99.707,99.707,0,0,0,613.459,676.39Z" transform="translate(-70 -400)"/><path class="cls-1" d="M564.809,581.42a49.779,49.779,0,0,1,9.44-34.61,118.914,118.914,0,0,1,44.07,79.44A50,50,0,0,1,564.809,581.42Z" transform="translate(-70 -400)"/><polygon class="cls-2" points="100 0 100 100 80 100 80 60 20 60 20 100 0 100 0 0 20 0 20 40 80 40 80 0 100 0"/><path class="cls-2" d="M280,400v50a50,50,0,0,1-100,0V400h20v50a30,30,0,0,0,60,0V400Z" transform="translate(-70 -400)"/><path class="cls-2" d="M367.88,441.06A29.665,29.665,0,0,0,370,430a30,30,0,0,0-30-30H290V500h70a30,30,0,0,0,7.88-58.94ZM310,420h30a10,10,0,0,1,0,20H310Zm50,60H310V460h50a10,10,0,0,1,0,20Z" transform="translate(-70 -400)"/><path class="cls-1" d="M420,430a10,10,0,0,0,10,10h40a30,30,0,0,1,0,60H400V480h70a10,10,0,0,0,0-20H430a30,30,0,0,1,0-60h70v20H430A10,10,0,0,0,420,430Z" transform="translate(-70 -400)"/><polygon class="cls-1" points="540 0 540 20 500 20 500 100 480 100 480 20 440 20 440 0 540 0"/><path class="cls-1" d="M660,400a50.005,50.005,0,0,0-50,50v50h20V460h60v40h20V450A50.005,50.005,0,0,0,660,400Zm-28.28,40a29.994,29.994,0,0,1,56.56,0Z" transform="translate(-70 -400)"/><polygon class="cls-1" points="670 20 670 40 730 40 730 60 670 60 670 100 650 100 650 0 750 0 750 20 670 20"/><polygon class="cls-1" points="780 20 780 40 840 40 840 60 780 60 780 100 760 100 760 0 860 0 860 20 780 20"/></g></g></svg>