<svg xmlns="http://www.w3.org/2000/svg" viewBox="0 0 672.509 225.036"><defs><style>.cls-1{fill:#366ce1;}.cls-2{fill:#121221;}</style></defs><title>hushmail</title><g id="complete"><g id="hushmail"><circle class="cls-1" cx="560" cy="82.505" r="50"/><rect class="cls-1" x="540" y="82.505" width="40" height="100" rx="20"/><path class="cls-2" d="M645,500a157.561,157.561,0,0,1,1.13-18.727,143.156,143.156,0,0,1,3.388-18.463A129.428,129.428,0,0,1,663.7,428.063c6.469-10.774,14.793-20.652,25.225-28.066A65.272,65.272,0,0,1,725,387.513a65.945,65.945,0,0,1,37.185,10.836,93.664,93.664,0,0,1,27.185,27.8,126.211,126.211,0,0,1,15.6,35.493,149.128,149.128,0,0,1,.012,76.727,125.936,125.936,0,0,1-15.594,35.5,93.513,93.513,0,0,1-27.19,27.806,63.349,63.349,0,0,1-73.282-1.658c-10.433-7.418-18.76-17.3-25.223-28.075a129.407,129.407,0,0,1-14.18-34.751,142.979,142.979,0,0,1-3.386-18.463A157.35,157.35,0,0,1,645,500Zm0,0a144.829,144.829,0,0,0,4.86,37.1,121.066,121.066,0,0,0,15,34.111,88.558,88.558,0,0,0,25.747,26.3,58.351,58.351,0,0,0,67.658-1.658c9.729-6.934,17.614-16.282,23.78-26.57a124.7,124.7,0,0,0,13.59-33.359A149.363,149.363,0,0,0,800,500a152.317,152.317,0,0,0-1.091-18.108,136.818,136.818,0,0,0-3.26-17.821A124.4,124.4,0,0,0,782.07,430.7c-6.156-10.3-14.055-19.642-23.785-26.579a58.353,58.353,0,0,0-67.683-1.649,88.487,88.487,0,0,0-25.745,26.31,121.077,121.077,0,0,0-15,34.115A144.871,144.871,0,0,0,645,500Z" transform="translate(-165 -387.495)"/><path class="cls-2" d="M725,410a145.809,145.809,0,0,1,38.02,5.034,124.255,124.255,0,0,1,35.089,15.658c10.751,7.077,20.474,16.065,27.554,27.08a76.036,76.036,0,0,1,8.459,17.714A69.705,69.705,0,0,1,837.487,495a72.73,72.73,0,0,1-10.129,38.27A94.8,94.8,0,0,1,800.15,562.3a121.9,121.9,0,0,1-35.861,17.129,139.238,139.238,0,0,1-19.459,4.162A151.794,151.794,0,0,1,725,585a142.646,142.646,0,0,1-39.292-5.556,121.646,121.646,0,0,1-35.872-17.121A100.327,100.327,0,0,1,634.7,549.26a87.025,87.025,0,0,1-12.081-15.975A72.685,72.685,0,0,1,612.487,495a69.739,69.739,0,0,1,3.369-19.52,75.847,75.847,0,0,1,8.467-17.717c7.084-11.014,16.807-20.006,27.563-27.078a124.29,124.29,0,0,1,35.093-15.653A145.857,145.857,0,0,1,725,410Zm0,0a137.793,137.793,0,0,0-37.923,5.375,116.738,116.738,0,0,0-34.415,16.449A89.68,89.68,0,0,0,626.9,459.346,67.669,67.669,0,0,0,617.513,495a64.7,64.7,0,0,0,3.164,18.1,71.158,71.158,0,0,0,7.923,16.507c6.646,10.311,15.856,18.823,26.112,25.564a119.454,119.454,0,0,0,33.637,14.981,140.9,140.9,0,0,0,55.148,3.632,134.51,134.51,0,0,0,18.158-3.62A119.236,119.236,0,0,0,795.3,555.191c10.267-6.733,19.472-15.258,26.121-25.571a65.382,65.382,0,0,0,1.694-70.282,89.615,89.615,0,0,0-25.775-27.521,116.728,116.728,0,0,0-34.418-16.444A137.88,137.88,0,0,0,725,410Z" transform="translate(-165 -387.495)"/><polygon class="cls-1" points="65 52.505 65 152.505 50 152.505 50 110.005 15 110.005 15 152.505 0 152.505 0 52.505 15 52.505 15 95.005 50 95.005 50 52.505 65 52.505"/><polygon class="cls-1" points="275 52.505 275 152.505 260 152.505 260 110.005 225 110.005 225 152.505 210 152.505 210 52.505 225 52.505 225 95.005 260 95.005 260 52.505 275 52.505"/><path class="cls-1" d="M370,511.25c0,15.88-14.55,28.75-32.5,28.75-17.475,0-31.73-12.2-32.47-27.5h15.04c.805,7.01,8.3,12.5,17.43,12.5,9.665,0,17.5-6.155,17.5-13.75s-7.835-13.75-17.5-13.75a34.813,34.813,0,0,1-21.885-7.5A27.3,27.3,0,0,1,305,468.75c0-15.88,14.55-28.75,32.5-28.75,17.475,0,31.73,12.2,32.47,27.5H354.93c-.805-7.01-8.3-12.5-17.43-12.5-9.665,0-17.5,6.155-17.5,13.75,0,7.465,7.565,13.535,17,13.74v.01h.5a34.813,34.813,0,0,1,21.885,7.5A27.3,27.3,0,0,1,370,511.25Z" transform="translate(-165 -387.495)"/><path class="cls-1" d="M300,440v71.25a25.813,25.813,0,0,1-.275,3.75c-2.075,14.11-15.71,25-32.225,25s-30.15-10.89-32.225-25a25.813,25.813,0,0,1-.275-3.75V440h15v71.25c0,7.6,7.835,13.75,17.5,13.75s17.5-6.155,17.5-13.75V440Z" transform="translate(-165 -387.495)"/><path class="cls-1" d="M520,491.25v32.5H510v-32.5a7.5,7.5,0,0,0-15,0v32.5H485v-32.5a7.5,7.5,0,0,0-15,0v32.5H460v-50h10v1.685A17.516,17.516,0,0,1,490,479a17.505,17.505,0,0,1,29.825,9.75A17.889,17.889,0,0,1,520,491.25Z" transform="translate(-165 -387.495)"/><path class="cls-1" d="M520,488.75v2.5a17.889,17.889,0,0,0-.175-2.5Z" transform="translate(-165 -387.495)"/><path class="cls-1" d="M559.825,488.75a17.505,17.505,0,0,0-33.14-5h0a17.889,17.889,0,0,0-.175,2.5,17.45,17.45,0,0,0,1.685,7.5,17.573,17.573,0,0,1,8.365-8.34,17.275,17.275,0,0,1,6.54-1.635c-.2-.015-.395-.025-.6-.025h1.5c-.3,0-.61.01-.91.025a7.348,7.348,0,0,1,1.9.405,7.488,7.488,0,0,1,4.95,6.23,17.5,17.5,0,1,0,.05,31.655v1.685h10v-32.5A17.889,17.889,0,0,0,559.825,488.75ZM550,507.065c-.015.01-.035.015-.05.025a7.5,7.5,0,0,1-14.9,0,6.649,6.649,0,0,1-.05-.84,7.5,7.5,0,0,1,15,0Z" transform="translate(-165 -387.495)"/><path class="cls-1" d="M544.005,483.75c-.3,0-.61.01-.91.025-.2-.015-.395-.025-.6-.025Z" transform="translate(-165 -387.495)"/><path class="cls-1" d="M542.5,483.75c.2,0,.4.01.6.025.3-.015.605-.025.91-.025Z" transform="translate(-165 -387.495)"/><path class="cls-1" d="M560,488.75v2.5a17.889,17.889,0,0,0-.175-2.5Z" transform="translate(-165 -387.495)"/><rect class="cls-1" x="415" y="68.755" width="10" height="67.5"/><rect class="cls-1" x="400" y="86.255" width="10" height="50"/><circle class="cls-1" cx="405" cy="76.255" r="7.5"/></g></g></svg>