<svg id="Main" xmlns="http://www.w3.org/2000/svg" viewBox="0 0 540 190"><defs><style>.cls-1{fill:#1c1e20;}.cls-2{fill:#366ce1;}</style></defs><title>hydra</title><g id="Hydra"><rect class="cls-1" y="90" width="20" height="100"/><rect class="cls-1" x="300" y="400" width="20" height="100" transform="translate(500 -170) rotate(90)"/><rect class="cls-1" x="340" y="400" width="20" height="100" transform="translate(440 590) rotate(180)"/><rect class="cls-1" x="630" y="420" width="20" height="60" transform="translate(-70 780) rotate(-90)"/><rect class="cls-1" x="630" y="380" width="20" height="60" transform="translate(-30 740) rotate(-90)"/><rect class="cls-1" x="410" y="150" width="20" height="40"/><rect class="cls-1" x="590" y="400" width="20" height="100" transform="translate(940 590) rotate(180)"/><path class="cls-1" d="M670,440v20h20Z" transform="translate(-260 -310)"/><path class="cls-1" d="M670,400v20h20Z" transform="translate(-260 -310)"/><path class="cls-1" d="M670,440V420h20Z" transform="translate(-260 -310)"/><path class="cls-1" d="M660,460l10,10V460Z" transform="translate(-260 -310)"/><path class="cls-1" d="M660,420l10,10V420Z" transform="translate(-260 -310)"/><path class="cls-1" d="M670,430l-10,10h10Z" transform="translate(-260 -310)"/><rect class="cls-1" x="740" y="380" width="20" height="60" transform="translate(80 850) rotate(-90)"/><rect class="cls-1" x="740" y="440" width="20" height="60" transform="translate(20 910) rotate(-90)"/><rect class="cls-1" x="700" y="420" width="20" height="80" transform="translate(1160 610) rotate(180)"/><rect class="cls-1" x="780" y="420" width="20" height="80" transform="translate(1320 610) rotate(180)"/><path class="cls-1" d="M700,420l20-20v20Z" transform="translate(-260 -310)"/><path class="cls-1" d="M780,400v20h20Z" transform="translate(-260 -310)"/><path class="cls-1" d="M770,420l10,10V420Z" transform="translate(-260 -310)"/><path class="cls-1" d="M720,430V420h10Z" transform="translate(-260 -310)"/><rect class="cls-1" x="560" y="420" width="20" height="60" transform="translate(880 590) rotate(180)"/><rect class="cls-1" x="520" y="460" width="20" height="60" transform="translate(-220 710) rotate(-90)"/><rect class="cls-1" x="520" y="380" width="20" height="60" transform="translate(-140 630) rotate(-90)"/><rect class="cls-1" x="480" y="400" width="20" height="100" transform="translate(720 590) rotate(180)"/><path class="cls-1" d="M560,400v20h20Z" transform="translate(-260 -310)"/><path class="cls-1" d="M560,480v20l20-20Z" transform="translate(-260 -310)"/><path class="cls-1" d="M550,420l10,10V420Z" transform="translate(-260 -310)"/><path class="cls-1" d="M560,470v10H550Z" transform="translate(-260 -310)"/><path class="cls-2" d="M370,390H360v10Z" transform="translate(-260 -310)"/><path class="cls-2" d="M330,390h10V380Z" transform="translate(-260 -310)"/><path class="cls-2" d="M340,400l7.071,7.071L354.142,400Z" transform="translate(-260 -310)"/><path class="cls-2" d="M420,350V340H410Z" transform="translate(-260 -310)"/><path class="cls-2" d="M430,340H420v10Z" transform="translate(-260 -310)"/><path class="cls-2" d="M440,370V360H430Z" transform="translate(-260 -310)"/><path class="cls-2" d="M410,360H400v10Z" transform="translate(-260 -310)"/><path class="cls-2" d="M360,400h10V390Z" transform="translate(-260 -310)"/><path class="cls-2" d="M370,400V390H360Z" transform="translate(-260 -310)"/><path class="cls-2" d="M370,400l-7.071-7.071L355.858,400Z" transform="translate(-260 -310)"/><path class="cls-2" d="M370,410V400H360Z" transform="translate(-260 -310)"/><path class="cls-2" d="M360,390H350v10Z" transform="translate(-260 -310)"/><path class="cls-2" d="M360,400V390H350Z" transform="translate(-260 -310)"/><path class="cls-2" d="M350,390H340v10Z" transform="translate(-260 -310)"/><path class="cls-2" d="M350,400V390H340Z" transform="translate(-260 -310)"/><path class="cls-2" d="M340,400V390H330Z" transform="translate(-260 -310)"/><path class="cls-2" d="M430,340v10h10Z" transform="translate(-260 -310)"/><path class="cls-2" d="M440,360V350H430Z" transform="translate(-260 -310)"/><path class="cls-2" d="M370,380H360v10Z" transform="translate(-260 -310)"/><path class="cls-2" d="M370,390V380H360Z" transform="translate(-260 -310)"/><path class="cls-2" d="M350,390h10V380Z" transform="translate(-260 -310)"/><path class="cls-2" d="M380,380h10V370Z" transform="translate(-260 -310)"/><path class="cls-2" d="M430,330h10V320Z" transform="translate(-260 -310)"/><path class="cls-2" d="M370,380h10V370Z" transform="translate(-260 -310)"/><path class="cls-2" d="M380,380H370v10Z" transform="translate(-260 -310)"/><path class="cls-2" d="M390,380H380v10Z" transform="translate(-260 -310)"/><path class="cls-2" d="M370,390h10V380Z" transform="translate(-260 -310)"/><rect class="cls-2" x="410" y="360" width="20" height="140" transform="translate(580 550) rotate(180)"/><path class="cls-2" d="M420,460l20-20v20Z" transform="translate(-260 -310)"/><path class="cls-2" d="M400,440v20h20Z" transform="translate(-260 -310)"/><path class="cls-2" d="M370,440h20v20Z" transform="translate(-260 -310)"/><path class="cls-2" d="M350,404.142,364.142,390l14.142,14.142Z" transform="translate(-260 -310)"/><path class="cls-2" d="M430,360l-14.142,14.142L401.716,360Z" transform="translate(-260 -310)"/><path class="cls-2" d="M390,400H370V380Z" transform="translate(-260 -310)"/><path class="cls-2" d="M438.284,360l-14.142,14.142L410,360Z" transform="translate(-260 -310)"/><path class="cls-2" d="M420,340v20H400Z" transform="translate(-260 -310)"/><path class="cls-2" d="M440,360H420V340Z" transform="translate(-260 -310)"/><path class="cls-2" d="M390,460h20v20Z" transform="translate(-260 -310)"/><path class="cls-2" d="M450,440v20l20-20Z" transform="translate(-260 -310)"/><path class="cls-2" d="M430,460v20l20-20Z" transform="translate(-260 -310)"/><path class="cls-2" d="M390,430v10h10Z" transform="translate(-260 -310)"/><path class="cls-2" d="M450,430v10H440Z" transform="translate(-260 -310)"/><rect class="cls-2" x="110" y="90" width="20" height="40"/><path class="cls-2" d="M470,390h10v10Z" transform="translate(-260 -310)"/><path class="cls-2" d="M510,390H500V380Z" transform="translate(-260 -310)"/><path class="cls-2" d="M500,400l-7.071,7.071L485.858,400Z" transform="translate(-260 -310)"/><path class="cls-2" d="M480,400H470V390Z" transform="translate(-260 -310)"/><path class="cls-2" d="M470,400V390h10Z" transform="translate(-260 -310)"/><path class="cls-2" d="M470,400l7.071-7.071L484.142,400Z" transform="translate(-260 -310)"/><path class="cls-2" d="M470,410V400h10Z" transform="translate(-260 -310)"/><path class="cls-2" d="M480,390h10v10Z" transform="translate(-260 -310)"/><path class="cls-2" d="M480,400V390h10Z" transform="translate(-260 -310)"/><path class="cls-2" d="M490,390h10v10Z" transform="translate(-260 -310)"/><path class="cls-2" d="M490,400V390h10Z" transform="translate(-260 -310)"/><path class="cls-2" d="M500,400V390h10Z" transform="translate(-260 -310)"/><path class="cls-2" d="M470,380h10v10Z" transform="translate(-260 -310)"/><path class="cls-2" d="M470,390V380h10Z" transform="translate(-260 -310)"/><path class="cls-2" d="M490,390H480V380Z" transform="translate(-260 -310)"/><path class="cls-2" d="M460,380H450V370Z" transform="translate(-260 -310)"/><path class="cls-2" d="M470,380H460V370Z" transform="translate(-260 -310)"/><path class="cls-2" d="M460,380h10v10Z" transform="translate(-260 -310)"/><path class="cls-2" d="M450,380h10v10Z" transform="translate(-260 -310)"/><path class="cls-2" d="M470,390H460V380Z" transform="translate(-260 -310)"/><path class="cls-2" d="M490,404.142,475.858,390l-14.142,14.142Z" transform="translate(-260 -310)"/><path class="cls-2" d="M450,400h20V380Z" transform="translate(-260 -310)"/><rect class="cls-2" x="450" y="400" width="20" height="40" transform="translate(660 530) rotate(-180)"/><path class="cls-2" d="M410,340v10H400Z" transform="translate(-260 -310)"/><path class="cls-2" d="M400,360V350h10Z" transform="translate(-260 -310)"/><path class="cls-2" d="M410,330H400V320Z" transform="translate(-260 -310)"/><path class="cls-2" d="M430,340V330h10Z" transform="translate(-260 -310)"/><path class="cls-2" d="M440,330V320h10Z" transform="translate(-260 -310)"/><path class="cls-2" d="M450,320H440V310Z" transform="translate(-260 -310)"/><path class="cls-2" d="M400,310v10H390Z" transform="translate(-260 -310)"/><path class="cls-2" d="M390,320h10v10Z" transform="translate(-260 -310)"/><path class="cls-2" d="M415.858,340l7.071-7.071L430,340Z" transform="translate(-260 -310)"/><path class="cls-2" d="M410,340l7.071-7.071L424.142,340Z" transform="translate(-260 -310)"/><path class="cls-2" d="M430,330v10H420Z" transform="translate(-260 -310)"/><path class="cls-2" d="M400,330h10v10Z" transform="translate(-260 -310)"/><path class="cls-2" d="M420,340H410V330Z" transform="translate(-260 -310)"/><rect class="cls-2" x="130" y="130" width="10" height="20"/><rect class="cls-2" x="180" y="130" width="10" height="20"/></g></svg>