<svg xmlns="http://www.w3.org/2000/svg" viewBox="0 0 580 220"><defs><style>.cls-1{fill:#366ce1;}.cls-2{fill:#121221;}</style></defs><title>i valua</title><g id="Слой_2" data-name="Слой 2"><g id="Work_space" data-name="Work space"><g id="i_valua" data-name="i valua"><polygon class="cls-1" points="40 20 40 80 60 80 60 100 0 100 0 80 20 80 20 20 0 20 0 0 60 0 60 20 40 20"/><polygon class="cls-2" points="382.586 80 382.586 100 282.586 100 282.586 0 302.586 0 302.586 80 382.586 80"/><path class="cls-2" d="M233.336,1.95,232.556,0h-19.98l-.78,1.94L172.566,100h21.55l11.2-28h34.5l11.2,28h21.55ZM213.316,52l9.25-23.13L231.816,52Z"/><path class="cls-2" d="M540.77,1.95,539.99,0H520.01l-.78,1.94L480,100h21.55l11.2-28h34.5l11.2,28H580ZM520.75,52,530,28.87,539.25,52Z"/><path class="cls-2" d="M482.606,0V50a50,50,0,0,1-100,0V0h20V50a30,30,0,0,0,60,0V0Z"/><polygon class="cls-2" points="192.586 0 153.366 98.07 152.596 100 132.596 100 131.826 98.07 92.606 0 114.146 0 142.596 71.14 171.056 0 192.586 0"/><path class="cls-1" d="M580,100c-6.09,66.72-133.5,120-289.77,120S6.55,166.72.46,100H22.51c17.25,56.42,130.54,100,267.72,100S540.7,156.42,557.95,100Z"/></g></g></g></svg>