<svg xmlns="http://www.w3.org/2000/svg" viewBox="0 0 589 100"><defs><style>.cls-1{fill:#121221;}.cls-2{fill:#366ce1;}</style></defs><title>IBM marketing planner</title><g id="Слой_2" data-name="Слой 2"><g id="Work_space" data-name="Work space"><g id="IBM_marketing_planner" data-name="IBM marketing planner"><polygon class="cls-1" points="373.286 0 373.286 47.619 363.762 47.619 363.762 14.567 355.762 23.833 349.471 31.124 343.181 23.833 335.19 14.581 335.19 47.619 325.667 47.619 325.667 0 335.19 0 335.19 0.005 349.471 16.548 363.752 0 373.286 0"/><path class="cls-1" d="M399.371,21.194c-14.245-8.949-29.262,5.335-21.805,19.605a13.906,13.906,0,0,0,4.965,4.98c6.114,3.215,12.247,2.3,16.548-.941v2.94h5.873V31.329A11.965,11.965,0,0,0,399.371,21.194Zm-3.788,19.135c-8.736,5.315-17.862-3.811-12.547-12.547a5.751,5.751,0,0,1,1.92-1.92c8.737-5.315,17.862,3.81,12.547,12.547A5.742,5.742,0,0,1,395.583,40.329Z"/><rect class="cls-1" x="519.873" y="18.413" width="5.873" height="29.365"/><rect class="cls-1" x="519.873" y="9.603" width="5.873" height="5.873"/><path class="cls-1" d="M485.608,36.032a14.665,14.665,0,0,0,0-5.873,14.683,14.683,0,0,0-28.772,0,14.714,14.714,0,0,0,0,5.873,14.679,14.679,0,0,0,24.276,7.911l-4.68-3.744a8.808,8.808,0,0,1-13.514-4.167ZM471.222,24.286a8.8,8.8,0,0,1,8.305,5.873H462.918A8.8,8.8,0,0,1,471.222,24.286Z"/><path class="cls-1" d="M557.651,33.1V47.778h-5.873V33.1a8.81,8.81,0,0,0-17.619,0V47.778h-5.873V18.413h5.873v2.939A14.68,14.68,0,0,1,557.651,33.1Z"/><path class="cls-1" d="M517.81,33.1a14.683,14.683,0,1,1-29.366,0V6.667h5.873V21.352a14.6,14.6,0,0,1,8.81-2.939v5.873a8.81,8.81,0,1,0,8.81,8.809Z"/><path class="cls-1" d="M429.727,20.506q-1.51,2.52-3.021,5.037A8.807,8.807,0,0,0,413.365,33.1V47.778h-5.873V18.413h5.873v2.939a14.673,14.673,0,0,1,16.362-.846Z"/><path class="cls-1" d="M583.127,18.413v2.939a14.683,14.683,0,1,0,0,23.486v0a8.809,8.809,0,0,1-17.114,2.937h-6.081c.023.126.049.249.079.376v0A14.7,14.7,0,0,0,571,59.148h0a14.692,14.692,0,0,0,18-14.307V18.413Zm-2.246,20.555a8.81,8.81,0,0,1-15.373-5.87v0a8.81,8.81,0,0,1,17.619,0v0A8.765,8.765,0,0,1,580.881,38.968Z"/><polygon class="cls-1" points="461.381 47.775 461.381 47.778 452.61 47.778 440.682 37.039 437.889 39.556 437.889 47.778 432.016 47.778 432.016 6.667 437.889 6.667 437.889 31.653 440.682 29.137 452.592 18.413 461.372 18.413 445.072 33.089 461.381 47.775"/><path class="cls-1" d="M359,52.371H325.667V99.99h9.523V80.942H359a14.286,14.286,0,1,0,0-28.571Zm0,19.048H335.19V61.9H359a4.762,4.762,0,1,1,0,9.524Z"/><path class="cls-1" d="M408.574,73.273c-14.322-9-29.42,5.363-21.923,19.711a13.981,13.981,0,0,0,4.992,5.006c6.147,3.233,12.313,2.309,16.638-.945V100h5.9V83.462A12.028,12.028,0,0,0,408.574,73.273Zm-3.808,19.238c-8.784,5.344-17.959-3.831-12.615-12.615a5.786,5.786,0,0,1,1.93-1.931C402.865,72.622,412.04,81.8,406.7,90.58A5.777,5.777,0,0,1,404.766,92.511Z"/><path class="cls-1" d="M510.935,88.19a14.77,14.77,0,0,0,0-5.9,14.762,14.762,0,0,0-28.927,0,14.722,14.722,0,0,0,0,5.9,14.757,14.757,0,0,0,24.407,7.954q-2.352-1.883-4.706-3.764a8.855,8.855,0,0,1-13.587-4.19ZM496.471,76.381a8.852,8.852,0,0,1,8.35,5.905h-16.7A8.849,8.849,0,0,1,496.471,76.381Z"/><path class="cls-1" d="M447.138,85.238V100h-5.9V85.238a8.857,8.857,0,0,0-17.714,0V100h-5.905V70.476h5.905v2.956a14.758,14.758,0,0,1,23.619,11.806Z"/><path class="cls-1" d="M479.709,85.238V100h-5.9V85.238a8.858,8.858,0,0,0-17.715,0V100h-5.9V70.476h5.9v2.956a14.758,14.758,0,0,1,23.619,11.806Z"/><path class="cls-1" d="M536.16,72.581l-3.038,5.064a8.854,8.854,0,0,0-13.413,7.593V100h-5.9V70.476h5.9v2.956a14.749,14.749,0,0,1,16.451-.851Z"/><rect class="cls-1" x="376.281" y="55.714" width="5.905" height="44.286"/><rect class="cls-2" x="220" y="95" width="20" height="5"/><rect class="cls-2" x="220" y="75" width="20" height="10"/><rect class="cls-2" x="220" y="55" width="20" height="10"/><rect class="cls-2" x="220" y="35" width="20" height="10"/><polygon class="cls-2" points="261.57 25 220 25 220 15 252.94 15 261.57 25"/><polygon class="cls-2" points="244.31 5 220 5 220 0 240 0 240 0.01 244.31 5"/><polygon class="cls-2" points="296.19 35 287.56 45 252.42 45 243.78 35 296.19 35"/><polygon class="cls-2" points="278.93 55 270.3 65 269.68 65 261.05 55 278.93 55"/><polygon class="cls-2" points="320 15 320 25 278.4 25 287.03 15 320 15"/><polygon class="cls-2" points="320 0 320 5 295.66 5 299.98 0 320 0"/><rect class="cls-2" x="300" y="35" width="20" height="10"/><rect class="cls-2" x="300" y="55" width="20" height="10"/><rect class="cls-2" x="300" y="75" width="20" height="10"/><rect class="cls-2" x="300" y="95" width="20" height="5"/><path class="cls-2" d="M196.57,95A29.8,29.8,0,0,1,180,100H110V95Z"/><path class="cls-2" d="M209.57,75a29.207,29.207,0,0,1-3.6,10H110V75h20v5h50a9.993,9.993,0,0,0,8.66-5Z"/><path class="cls-2" d="M209.58,65H188.66A9.993,9.993,0,0,0,180,60H130v5H110V55h95.97A29.432,29.432,0,0,1,209.58,65Z"/><path class="cls-2" d="M209.58,35a29.432,29.432,0,0,1-3.61,10H110V35h20v5h50a9.993,9.993,0,0,0,8.66-5Z"/><path class="cls-2" d="M209.57,25H188.66A9.993,9.993,0,0,0,180,20H130v5H110V15h95.97A29.207,29.207,0,0,1,209.57,25Z"/><path class="cls-2" d="M196.57,5H110V0h70A29.8,29.8,0,0,1,196.57,5Z"/><polygon class="cls-2" points="100 15 100 20 60 20 60 25 40 25 40 20 0 20 0 15 100 15"/><rect class="cls-2" width="100" height="5"/><rect class="cls-2" x="40" y="35" width="20" height="10"/><rect class="cls-2" x="40" y="55" width="20" height="10"/><polygon class="cls-2" points="100 80 100 85 0 85 0 80 40 80 40 75 60 75 60 80 100 80"/><rect class="cls-1" y="5" width="100" height="10"/><path class="cls-1" d="M205.97,15H110V5h86.57A29.792,29.792,0,0,1,205.97,15Z"/><polygon class="cls-1" points="252.94 15 220 15 220 5 244.31 5 252.94 15"/><polygon class="cls-1" points="320 5 320 15 287.03 15 295.66 5 320 5"/><rect class="cls-1" x="40" y="25" width="20" height="10"/><rect class="cls-1" x="110" y="25" width="20" height="10"/><polygon class="cls-1" points="320 25 320 35 300 35 300 30.59 296.19 35 243.78 35 240 30.62 240 35 220 35 220 25 261.57 25 269.99 34.75 278.4 25 320 25"/><path class="cls-1" d="M210,30a29.424,29.424,0,0,1-.42,5H188.66a10,10,0,0,0,0-10h20.91A28.518,28.518,0,0,1,210,30Z"/><rect class="cls-1" x="40" y="45" width="20" height="10"/><path class="cls-1" d="M202.35,50a30.177,30.177,0,0,1,3.62,5H110V45h95.97A30.177,30.177,0,0,1,202.35,50Z"/><rect class="cls-1" x="220" y="45" width="20" height="10"/><polygon class="cls-1" points="287.56 45 283.2 50.05 278.93 55 261.05 55 256.78 50.05 252.42 45 287.56 45"/><rect class="cls-1" x="300" y="45" width="20" height="10"/><rect class="cls-1" x="40" y="65" width="20" height="10"/><rect class="cls-1" x="110" y="65" width="20" height="10"/><path class="cls-1" d="M210,70a28.518,28.518,0,0,1-.43,5H188.66a10,10,0,0,0,0-10h20.92A29.424,29.424,0,0,1,210,70Z"/><rect class="cls-1" x="220" y="65" width="20" height="10"/><polygon class="cls-2" points="270.3 65 269.99 65.36 269.68 65 270.3 65"/><rect class="cls-1" x="300" y="65" width="20" height="10"/><rect class="cls-2" y="95" width="100" height="5"/><rect class="cls-1" y="85" width="100" height="10"/><path class="cls-1" d="M205.97,85a29.792,29.792,0,0,1-9.4,10H110V85Z"/><rect class="cls-1" x="220" y="85" width="20" height="10"/><rect class="cls-1" x="300" y="85" width="20" height="10"/></g></g></g></svg>