<svg id="Complete" xmlns="http://www.w3.org/2000/svg" viewBox="0 0 720 310"><defs><style>.cls-1{fill:#e1dfdf;}.cls-2{fill:#366ce1;}.cls-3{fill:#121221;}.cls-4{fill:#1c1e20;}</style></defs><title>ibm watson</title><g id="ibm_watson" data-name="ibm watson"><path class="cls-1" d="M275,400A100,100,0,1,0,375,500,100,100,0,0,0,275,400Zm0,180a80,80,0,1,1,80-80A80,80,0,0,1,275,580Z" transform="translate(-140 -400)"/><path class="cls-2" d="M249.118,596.593c42.675,11.434,88.861-22.539,103.156-75.887s-8.718-105.864-51.392-117.3-88.861,22.539-103.156,75.887S206.443,585.158,249.118,596.593Zm49.176-183.526c37.342,10.006,57.187,57.034,44.321,105.05s-53.566,78.822-90.909,68.816-57.187-57.034-44.321-105.05S260.951,403.061,298.294,413.067Z" transform="translate(-140 -400)"/><path class="cls-2" d="M371.593,474.118c-8.578-32.011-58.774-46.368-112.122-32.074s-89.641,51.827-81.064,83.838,58.774,46.368,112.122,32.074S380.17,506.129,371.593,474.118ZM188.067,523.294c-7.146-26.669,25.976-58.724,73.992-71.59s92.728-1.667,99.874,25-25.976,58.724-73.992,71.59S195.213,549.963,188.067,523.294Z" transform="translate(-140 -400)"/><path class="cls-2" d="M204.289,429.289c-15.62,15.62,3.373,59.942,42.427,99s83.375,58.047,99,42.427-3.373-59.942-42.427-98.995S219.909,413.669,204.289,429.289ZM338.64,563.64c-11.717,11.716-49.7-7.277-84.853-42.427s-54.143-73.136-42.427-84.853,49.7,7.277,84.853,42.427S350.356,551.923,338.64,563.64Z" transform="translate(-140 -400)"/><rect class="cls-3" x="295" width="20" height="200"/><polygon class="cls-3" points="505 0 505 0.03 504.97 0 505 0"/><polygon class="cls-3" points="685 0 685 200 665 200 665 28.31 599.14 94.17 585 108.32 570.86 94.17 505 28.31 505 200 485 200 485 0 504.97 0 585 80.03 665.03 0 685 0"/><polygon class="cls-3" points="665.03 0 665 0.03 665 0 665.03 0"/><path class="cls-3" d="M580.17,485.53A49.993,49.993,0,0,0,545,400H475V600h80a60,60,0,0,0,25.17-114.47ZM495,420h50a30,30,0,0,1,0,60H495Zm60,160H495V500h50a49.16,49.16,0,0,0,10-1.01V500a40,40,0,0,1,0,80Z" transform="translate(-140 -400)"/><path class="cls-3" d="M555,498.99V500H545A49.16,49.16,0,0,0,555,498.99Z" transform="translate(-140 -400)"/><path class="cls-4" d="M370,610a50,50,0,1,0,20,95.83V710h30V660A50.005,50.005,0,0,0,370,610Zm0,70a20,20,0,1,1,20-20A19.994,19.994,0,0,1,370,680Z" transform="translate(-140 -400)"/><path class="cls-4" d="M700,610a50,50,0,1,0,50,50A50.005,50.005,0,0,0,700,610Zm0,70a20,20,0,1,1,20-20A19.994,19.994,0,0,1,700,680Z" transform="translate(-140 -400)"/><polygon class="cls-4" points="390 210 390 240 355 240 355 310 325 310 325 240 290 240 290 210 390 210"/><path class="cls-4" d="M637.7,645A50,50,0,0,1,590,710H555a14.839,14.839,0,0,1-5-.86,14.986,14.986,0,0,1-4.28-25.91,14.566,14.566,0,0,1,4.28-2.37,14.839,14.839,0,0,1,5-.86h35a19.922,19.922,0,0,0,13.22-5H542.3A50,50,0,0,1,590,610h35a14.839,14.839,0,0,1,5,.86,14.986,14.986,0,0,1,4.28,25.91,14.566,14.566,0,0,1-4.28,2.37,14.839,14.839,0,0,1-5,.86H590a19.922,19.922,0,0,0-13.22,5Z" transform="translate(-140 -400)"/><polygon class="cls-4" points="590.06 310 590 310 590 309.92 590.06 310"/><polygon class="cls-4" points="720 210 720 310 690.06 310 690 309.92 650 258.72 650 310 620 310 620 210 650 210 690 261.19 690 210 720 210"/><polygon class="cls-4" points="171.69 210 136.27 307.31 135.3 309.97 135.29 310 105.32 310 105.3 309.95 104.34 307.32 85.85 256.51 67.35 307.34 66.38 310 36.39 310 36.38 309.96 35.43 307.34 0 210 31.92 210 51.39 263.48 69.89 212.66 70.85 210.02 70.86 210 100.85 210 101.82 212.66 120.3 263.46 139.76 210 171.69 210"/><polygon class="cls-4" points="80.01 210 80 210.02 80 210 80.01 210"/><polygon class="cls-4" points="45.54 310 45.53 310 45.53 309.96 45.54 310"/><polygon class="cls-4" points="114.47 310 114.45 310 114.45 309.95 114.47 310"/><polygon class="cls-4" points="144.45 309.97 144.45 310 144.44 310 144.45 309.97"/></g></svg>