<svg id="Complete" xmlns="http://www.w3.org/2000/svg" viewBox="0 0 600.876 300.728"><defs><style>.cls-1{fill:#121221;}.cls-2{fill:#366ce1;}</style></defs><title>iclass pro</title><g id="iclassPro"><rect class="cls-1" y="180.487" width="20" height="80"/><circle class="cls-1" cx="10" cy="160.487" r="10"/><path class="cls-1" d="M190.05,644.69C182.73,654.08,171.98,660,160,660c-22.09,0-40-20.15-40-45s17.91-45,40-45c11.81,0,22.42,5.76,29.74,14.91l-14.26,14.26c-3.66-5.6-9.24-9.17-15.48-9.17-11.05,0-20,11.19-20,25s8.95,25,20,25c6.4,0,12.1-3.75,15.76-9.6Z" transform="translate(-90 -399.513)"/><rect class="cls-1" x="110" y="150.487" width="20" height="110"/><path class="cls-1" d="M309.75,610c-2.21-22.5-19.16-40-39.75-40-22.09,0-40,20.15-40,45s17.91,45,40,45a36.505,36.505,0,0,0,20-6.02V660h20V615A48.521,48.521,0,0,0,309.75,610ZM270,640c-11.05,0-20-11.19-20-25s8.95-25,20-25,20,11.19,20,25S281.05,640,270,640Z" transform="translate(-90 -399.513)"/><path class="cls-1" d="M310,610v5a48.521,48.521,0,0,0-.25-5Z" transform="translate(-90 -399.513)"/><path class="cls-1" d="M394.32,636.16a43.836,43.836,0,0,1-12.5,15.8A36.8,36.8,0,0,1,359.01,660c-19.03,0-34.96-14.96-39.01-35h20.68c3.08,8.83,10.13,15,18.33,15a16.7,16.7,0,0,0,8.49-2.36L334.86,605,323.7,593.84a43.836,43.836,0,0,1,12.5-15.8A36.8,36.8,0,0,1,359.01,570c19.03,0,34.96,14.96,39.01,35H377.34c-3.08-8.83-10.13-15-18.33-15a16.7,16.7,0,0,0-8.49,2.36Z" transform="translate(-90 -399.513)"/><path class="cls-1" d="M476.3,636.16a43.836,43.836,0,0,1-12.5,15.8A36.8,36.8,0,0,1,440.99,660c-19.03,0-34.96-14.96-39.01-35h20.68c3.08,8.83,10.13,15,18.33,15a16.7,16.7,0,0,0,8.49-2.36L416.84,605l-11.16-11.16a43.836,43.836,0,0,1,12.5-15.8A36.8,36.8,0,0,1,440.99,570c19.03,0,34.96,14.96,39.01,35H459.32c-3.08-8.83-10.13-15-18.33-15a16.7,16.7,0,0,0-8.49,2.36Z" transform="translate(-90 -399.513)"/><path class="cls-2" d="M520,700H500a948.882,948.882,0,0,1-10-130c-.621-75.11,7.878-122.4-10-130-18.457-7.841-37.1,38.5-90,50-45.472,9.887-97.669-9.993-100-30-2.821-24.217,69.667-50.6,70-50,.288.518-52.981,22.292-50,40,2.091,12.419,32.164,23.545,60,20,53.631-6.829,66.572-64,130-70a100.875,100.875,0,0,1,20,0c54.388,5.9,120.358,61.4,110,120-10.833,61.286-97.649,83.551-100,80-2.213-3.343,68.313-32.717,70-80,1.566-43.909-56.689-90.521-80-80-5.851,2.641-15.432,11.557-10,130C512.506,624.641,516.69,669.513,520,700Z" transform="translate(-90 -399.513)"/><path class="cls-2" d="M580,700.012c-10.646-26.266-10.93-47.7-10-60.012,1.547-20.484,7.329-27.3,10-29.988,10.494-10.549,25.644-10.24,30-10-5.481,7.206-20.647,29.119-20,60a93.949,93.949,0,0,0,10,40Z" transform="translate(-90 -399.513)"/><path class="cls-2" d="M610,630c4.455-.142,6.361.411,10,0,7.59-.858,18.094-4.98,30-20a63.566,63.566,0,0,0-30,0c-24.533,6.071-37.1,25.291-40,30C586.839,635.524,597.081,630.412,610,630Z" transform="translate(-90 -399.513)"/><path class="cls-2" d="M690,655.255c-4.56-14.7-27.56-16.116-30-33.738-.88-6.366,1.57-10.167,0-11.247-4.08-2.822-29.66,16.746-30,44.985-.24,20.21,12.45,44.895,30,44.985C679.313,700.341,694.773,670.629,690,655.255Zm-30,33.739c-11.4-.011-19.15-11.685-20-22.492-.68-8.683,2.92-18.849,10-22.493,11.58-5.96,30.07,6.793,30,22.493C679.963,677.051,671.533,689.005,660,688.994Z" transform="translate(-90 -399.513)"/></g></svg>