<svg xmlns="http://www.w3.org/2000/svg" viewBox="0 0 700 400"><title>icm partners</title><path d="M0,0V400H700V0ZM690,380H10V20H690Z"/><rect y="190" width="700" height="20"/><rect x="340" y="10" width="20" height="190"/><rect x="520" y="10" width="20" height="190"/><rect x="240" y="60" width="40" height="130"/><path d="M490,140a50,50,0,0,1-100,0V110a50,50,0,0,1,100,0H450a10,10,0,0,0-20,0v30a10,10,0,0,0,20,0Z"/><rect x="550" y="60" width="40" height="130"/><rect x="640" y="60" width="40" height="130"/><path d="M610,150q5-20,10-40L590,60H550Z"/><path d="M620,150q-5-20-10-40l30-50h40Z"/><ellipse cx="615" cy="135" rx="7.071" ry="21.213"/><path d="M75,230.35a35.779,35.779,0,0,0-5-.35H35V360H55V300H70a35.779,35.779,0,0,0,5-.35,35.01,35.01,0,0,0,0-69.3ZM70,280H55V250H70a15,15,0,0,1,0,30Z"/><path d="M254.49,290A35,35,0,0,0,235,230.35a35.779,35.779,0,0,0-5-.35H195V360h20V300h15a15.005,15.005,0,0,1,15,15v45h20V315a34.9,34.9,0,0,0-10.51-25ZM215,280V250h15a15,15,0,0,1,0,30Z"/><path d="M574.49,290A35,35,0,0,0,555,230.35a35.779,35.779,0,0,0-5-.35H515V360h20V300h15a15.005,15.005,0,0,1,15,15v45h20V315a34.9,34.9,0,0,0-10.51-25ZM535,280V250h15a15,15,0,0,1,0,30Z"/><path d="M184.65,260a35.01,35.01,0,0,0-69.3,0,35.779,35.779,0,0,0-.35,5v95h20V300h30v60h20V265A35.779,35.779,0,0,0,184.65,260ZM135,280V265a15,15,0,0,1,30,0v15Z"/><path d="M665,315v10a35.779,35.779,0,0,1-.35,5,35.01,35.01,0,0,1-69.3,0h20.51A15,15,0,0,0,645,325V315a15.005,15.005,0,0,0-15-15,35,35,0,1,1,34.65-40H644.14A15,15,0,1,0,630,280a35.008,35.008,0,0,1,34.65,30A35.779,35.779,0,0,1,665,315Z"/><polygon points="345 230 345 250 320 250 320 360 300 360 300 250 275 250 275 230 345 230"/><polygon points="455 250 455 280 505 280 505 300 455 300 455 340 505 340 505 360 435 360 435 230 505 230 505 250 455 250"/><polygon points="425 230 425 360 405 360 375 288 375 360 355 360 355 230 375 230 405 302 405 230 425 230"/></svg>