<svg xmlns="http://www.w3.org/2000/svg" viewBox="0 0 460 150"><defs><style>.cls-1{fill:#366ce1;}</style></defs><title>illumio</title><g id="Слой_2" data-name="Слой 2"><g id="Work_space" data-name="Work space"><g id="illumio"><path class="cls-1" d="M320,85v55a10,10,0,0,1-20,0V85a15,15,0,0,0-30,0h0v55a10,10,0,0,1-20,0V85h0a15,15,0,0,0-30,0v55a10,10,0,0,1-20,0V85a35.779,35.779,0,0,1,.35-5A35.011,35.011,0,0,1,260,60.5,35.011,35.011,0,0,1,319.65,80,35.779,35.779,0,0,1,320,85Z"/><rect class="cls-1" x="330" y="50" width="20" height="100" rx="10"/><circle class="cls-1" cx="340" cy="30" r="10"/><rect class="cls-1" y="50" width="20" height="100" rx="10"/><circle class="cls-1" cx="10" cy="30" r="10"/><path class="cls-1" d="M410,50a50,50,0,1,0,50,50A50.005,50.005,0,0,0,410,50Zm0,80a30,30,0,1,1,30-30A30,30,0,0,1,410,130Z"/><path class="cls-1" d="M90,99.176V60a10,10,0,0,1,10-10h0a10,10,0,0,1,10,10V99.377c0,16.348,12.819,30.165,29.16,30.612A30,30,0,0,0,170,100V60a10,10,0,0,1,10-10h0a10,10,0,0,1,10,10v40a50.006,50.006,0,0,1-50.865,49.993C111.723,149.529,90,126.591,90,99.176Z"/><rect class="cls-1" x="60" width="20" height="150" rx="10"/><rect class="cls-1" x="30" width="20" height="150" rx="10"/></g></g></g></svg>