<svg xmlns="http://www.w3.org/2000/svg" viewBox="0 0 870 220"><defs><style>.cls-1{fill:#366ce1;}.cls-2{fill:#121221;}</style></defs><title>impossible foods</title><g id="Слой_2" data-name="Слой 2"><g id="Work_space" data-name="Work space"><g id="impossible_foods" data-name="impossible foods"><polygon class="cls-1" points="20 140 20 160 80 160 80 180 20 180 20 220 0 220 0 120 100 120 100 140 20 140"/><polygon class="cls-2" points="590 36 590 84 606 84 606 100 558 100 558 84 574 84 574 36 558 36 558 20 606 20 606 36 590 36"/><path class="cls-1" d="M306,140H266v80h40a40,40,0,0,0,0-80Zm0,64H282V156h24a24,24,0,0,1,0,48Z"/><path class="cls-1" d="M370,164a8,8,0,0,0,8,8h32a24,24,0,0,1,0,48H354V204h56a8,8,0,0,0,0-16H378a24,24,0,0,1,0-48h56v16H378A8,8,0,0,0,370,164Z"/><path class="cls-2" d="M390,44a8,8,0,0,0,8,8h32a24,24,0,0,1,0,48H374V84h56a8,8,0,0,0,0-16H398a24,24,0,0,1,0-48h56V36H398A8,8,0,0,0,390,44Z"/><path class="cls-2" d="M478,44a8,8,0,0,0,8,8h32a24,24,0,0,1,0,48H462V84h56a8,8,0,0,0,0-16H486a24,24,0,0,1,0-48h56V36H486A8,8,0,0,0,478,44Z"/><polygon class="cls-2" points="806 36 806 52 870 52 870 68 806 68 806 84 870 84 870 100 790 100 790 20 870 20 870 36 806 36"/><polygon class="cls-2" points="782 84 782 100 702 100 702 20 718 20 718 84 782 84"/><path class="cls-1" d="M130,140a40,40,0,1,0,40,40A40,40,0,0,0,130,140Zm0,64a24,24,0,1,1,24-24A24,24,0,0,1,130,204Z"/><path class="cls-1" d="M218,140a40,40,0,1,0,40,40A40,40,0,0,0,218,140Zm0,64a24,24,0,1,1,24-24A24,24,0,0,1,218,204Z"/><path class="cls-2" d="M326,20a40,40,0,1,0,40,40A40,40,0,0,0,326,20Zm0,64a24,24,0,1,1,24-24A24,24,0,0,1,326,84Z"/><path class="cls-2" d="M694,44a24,24,0,0,0-24-24H614v80h56a23.993,23.993,0,0,0,17.88-40A23.89,23.89,0,0,0,694,44Zm-64-8h40a8,8,0,0,1,0,16H630Zm40,48H630V68h40a8,8,0,0,1,0,16Z"/><polygon class="cls-2" points="60 20 60 80 100 80 100 100 0 100 0 80 40 80 40 20 0 20 0 0 100 0 100 20 60 20"/><path class="cls-2" d="M254,20H198v80h16V68h40a24,24,0,0,0,0-48Zm0,32H214V36h40a8,8,0,0,1,0,16Z"/><polygon class="cls-2" points="110.048 100 125.872 20.8 126.016 21.528 126.016 20.064 126.032 20 142.016 20 142.016 21.64 142.184 20.8 150.024 60.024 157.864 20.8 158.016 21.568 158.016 20.024 158.024 20 174.016 20 174.016 21.6 174.176 20.8 190 100 173.688 100 166.016 61.624 158.352 100 141.696 100 134.024 61.624 126.36 100 110.048 100"/></g></g></g></svg>