<svg xmlns="http://www.w3.org/2000/svg" viewBox="0 0 850 200"><defs><style>.cls-1{fill:#366ce1;}.cls-2{fill:#121221;}</style></defs><title>improvado</title><g id="Complete"><g id="improvade"><path class="cls-1" d="M225,485v55a10,10,0,0,1-20,0V485a15,15,0,0,0-30,0h0v55a10,10,0,0,1-20,0V485h0a15,15,0,0,0-30,0v55a10,10,0,0,1-20,0V485a35.779,35.779,0,0,1,.35-5A35.011,35.011,0,0,1,165,460.5,35.011,35.011,0,0,1,224.65,480,35.779,35.779,0,0,1,225,485Z" transform="translate(-75 -400)"/><rect class="cls-1" y="50" width="20" height="100" rx="10"/><circle class="cls-1" cx="10" cy="30" r="10"/><path class="cls-2" d="M285,450a50.005,50.005,0,0,0-50,50v90a10,10,0,0,0,20,0V539.99A50,50,0,1,0,285,450Zm0,80a30,30,0,1,1,30-30A30,30,0,0,1,285,530Z" transform="translate(-75 -400)"/><path class="cls-2" d="M765,550a50.005,50.005,0,0,0,50-50V410a10,10,0,0,0-20,0v50.01A50,50,0,1,0,765,550Zm0-80a30,30,0,1,1-30,30A30,30,0,0,1,765,470Z" transform="translate(-75 -400)"/><path class="cls-2" d="M654.712,450a50.007,50.007,0,0,0-49.663,52.236c1.076,24.664,22.842,46.526,47.5,47.7A49.771,49.771,0,0,0,685,539.99V540a10,10,0,0,0,10,10h0a10,10,0,0,0,10-10V500.82C705,472.96,682.571,449.844,654.712,450ZM655,530a30,30,0,1,1,30-30A30,30,0,0,1,655,530Z" transform="translate(-75 -400)"/><path class="cls-2" d="M875,450a50,50,0,1,0,50,50A50.005,50.005,0,0,0,875,450Zm0,80a30,30,0,1,1,30-30A30,30,0,0,1,875,530Z" transform="translate(-75 -400)"/><path class="cls-2" d="M465,450a50,50,0,1,0,50,50A50.005,50.005,0,0,0,465,450Zm0,80a30,30,0,1,1,30-30A30,30,0,0,1,465,530Z" transform="translate(-75 -400)"/><path class="cls-2" d="M425,460h0a10,10,0,0,1-10,10H395a30,30,0,0,0-30,30v40a10,10,0,0,1-10,10h0a10,10,0,0,1-10-10V460a10,10,0,0,1,10-10h0a10,10,0,0,1,10,10v.01A49.726,49.726,0,0,1,395,450h20A10,10,0,0,1,425,460Z" transform="translate(-75 -400)"/><path class="cls-2" d="M604.741,463.707l-32,80.009A10,10,0,0,1,563.465,550H557a10,10,0,0,1-9.281-6.284q-16-40-32-80.009A10,10,0,0,1,525.006,450h.009a10,10,0,0,1,9.281,6.284l25.937,64.856,25.946-64.857A10,10,0,0,1,595.46,450h0A10,10,0,0,1,604.741,463.707Z" transform="translate(-75 -400)"/></g></g></svg>