<svg xmlns="http://www.w3.org/2000/svg" viewBox="0 0 782.873 100"><defs><style>.cls-1{fill:#366ce1;}.cls-2{fill:#121221;}</style></defs><title>incorta</title><g id="Слой_2" data-name="Слой 2"><g id="Work_space" data-name="Work space"><g id="incorta"><path class="cls-1" d="M757.873,50a25,25,0,1,0,25,25A25,25,0,0,0,757.873,50Zm0,30a5,5,0,1,1,5-5A5,5,0,0,1,757.873,80Z"/><polygon class="cls-2" points="210 0 210 100 190 100 130 30.59 130 100 110 100 110 0 130 0 190 69.41 190 0 210 0"/><path class="cls-2" d="M544.937,30a30,30,0,0,0-30-30h-70V100h20V60h50a10,10,0,0,1,10,10v30h20V70a29.862,29.862,0,0,0-7.65-20A29.862,29.862,0,0,0,544.937,30Zm-80,10V20h50a10,10,0,0,1,0,20Z"/><path class="cls-2" d="M384.937,0a50,50,0,1,0,50,50A50.005,50.005,0,0,0,384.937,0Zm0,80a30,30,0,1,1,30-30A30,30,0,0,1,384.937,80Z"/><path class="cls-2" d="M303.217,60h20.71a50,50,0,1,1,0-20h-20.71a30,30,0,1,0,0,20Z"/><path class="cls-2" d="M693.643,1.95,692.863,0h-19.98l-.78,1.94L632.873,100h21.55l11.2-28h34.5l11.2,28h21.55ZM673.623,52l9.25-23.13L692.123,52Z"/><polygon class="cls-2" points="60 20 60 80 100 80 100 100 0 100 0 80 40 80 40 20 0 20 0 0 100 0 100 20 60 20"/><polygon class="cls-2" points="654.937 0 654.937 20 614.937 20 614.937 100 594.937 100 594.937 20 554.937 20 554.937 0 654.937 0"/></g></g></g></svg>