<svg xmlns="http://www.w3.org/2000/svg" viewBox="0 0 650 150"><defs><style>.cls-1{fill:#366ce1;}.cls-2,.cls-3{fill:#121221;}.cls-2{opacity:0.62;}.cls-3{opacity:0.38;}</style></defs><title>indeed</title><g id="Слой_2" data-name="Слой 2"><g id="Work_space" data-name="Work space"><g id="indeed"><polygon class="cls-1" points="210 50 210 150 190 150 130 80.59 130 150 110 150 110 50 130 50 190 119.41 190 50 210 50"/><path class="cls-1" d="M600,50H550V150h50a50,50,0,0,0,0-100Zm0,80H570V70h30a30,30,0,0,1,0,60Z"/><path class="cls-1" d="M270,50H220V150h50a50,50,0,0,0,0-100Zm0,80H240V70h30a30,30,0,0,1,0,60Z"/><polygon class="cls-1" points="350 70 350 90 430 90 430 110 350 110 350 130 430 130 430 150 330 150 330 50 430 50 430 70 350 70"/><polygon class="cls-1" points="460 70 460 90 540 90 540 110 460 110 460 130 540 130 540 150 440 150 440 50 540 50 540 70 460 70"/><path class="cls-2" d="M40,1.01V98.99A50,50,0,0,1,40,1.01Z"/><path class="cls-1" d="M60,130h40v20H0V130H40V70H4.16A49.955,49.955,0,0,1,0,50H100a49.792,49.792,0,0,1-4.17,20H60Z"/><path class="cls-3" d="M100,50A49.984,49.984,0,0,1,60,98.99a50.01,50.01,0,0,1-20,0V1.01A49.16,49.16,0,0,1,50,0,50.005,50.005,0,0,1,100,50Z"/></g></g></g></svg>