<svg id="Main" xmlns="http://www.w3.org/2000/svg" viewBox="0 0 660 535"><defs><style>.cls-1{fill:#e1e0e0;stroke:#366ce1;stroke-miterlimit:10;stroke-width:30px;}.cls-2{fill:#121221;}.cls-3{fill:#366ce1;}</style></defs><title>influitive</title><g id="influitive"><circle class="cls-1" cx="330" cy="165" r="150"/><circle class="cls-2" cx="330" cy="215" r="100"/><circle class="cls-2" cx="330" cy="65" r="50"/><rect class="cls-3" y="435" width="20" height="100"/><circle class="cls-3" cx="10" cy="415" r="10"/><rect class="cls-3" x="340" y="433.014" width="20" height="100"/><circle class="cls-3" cx="350" cy="413.014" r="10"/><rect class="cls-3" x="460" y="433.014" width="20" height="100"/><circle class="cls-3" cx="470" cy="413.014" r="10"/><path class="cls-3" d="M280,700v60H260V700a20,20,0,0,0-40,0v60H200V660h20v5.35A40.012,40.012,0,0,1,280,700Z" transform="translate(-170 -225)"/><path class="cls-3" d="M420,718.014v-60h20v60a20,20,0,1,0,40,0v-60h20v100H480v-5.35a40.012,40.012,0,0,1-60-34.65Z" transform="translate(-170 -225)"/><path class="cls-3" d="M410,740v20a39.979,39.979,0,0,1-40-40V580h20V720A19.994,19.994,0,0,0,410,740Z" transform="translate(-170 -225)"/><path class="cls-3" d="M331.26,660h20v20h-20v80h-20V680h-20V660h20v-1.26A40.006,40.006,0,1,1,360,610H338.57a20,20,0,1,0-17.31,30h10Z" transform="translate(-170 -225)"/><path class="cls-3" d="M591.26,678.014h20v-20h-20v-80h-20v80h-20v20h20v1.26A40.006,40.006,0,1,0,620,728.014H598.57a20,20,0,1,1-17.31-30h10Z" transform="translate(-170 -225)"/><polygon class="cls-3" points="570 433.014 540 533.014 520 533.014 490 433.014 510 433.014 530 499.684 550 433.014 570 433.014"/><path class="cls-3" d="M790,738.014a19.994,19.994,0,0,1-20-20h54.65a40.374,40.374,0,0,0,4.09-9.99V708a40,40,0,1,0-78.74-9.99v20a40,40,0,1,0,80,0h-5.35A39.99,39.99,0,0,1,790,738.014Zm0-60a19.994,19.994,0,0,1,20,20H770A19.994,19.994,0,0,1,790,678.014Z" transform="translate(-170 -225)"/></g></svg>