<svg xmlns="http://www.w3.org/2000/svg" viewBox="0 0 1190 100"><defs><style>.cls-1{fill:#121221;}.cls-2{fill:#366ce1;}</style></defs><title>infor visual</title><g id="Слой_2" data-name="Слой 2"><g id="Work_space" data-name="Work space"><g id="infor_visual" data-name="infor visual"><polygon class="cls-1" points="240 20 240 40 300 40 300 60 240 60 240 100 220 100 220 0 320 0 320 20 240 20"/><polygon class="cls-1" points="210 0 210 100 190 100 130 30.59 130 100 110 100 110 0 130 0 190 69.41 190 0 210 0"/><path class="cls-2" d="M790,30a10,10,0,0,0,10,10h40a30,30,0,0,1,0,60H770V80h70a10,10,0,0,0,0-20H800a30,30,0,0,1,0-60h70V20H800A10,10,0,0,0,790,30Z"/><polygon class="cls-2" points="1190 80 1190 100 1090 100 1090 0 1110 0 1110 80 1190 80"/><path class="cls-1" d="M530,30A30,30,0,0,0,500,0H430V100h20V60h50a10,10,0,0,1,10,10v30h20V70a29.862,29.862,0,0,0-7.65-20A29.862,29.862,0,0,0,530,30ZM450,40V20h50a10,10,0,0,1,0,20Z"/><path class="cls-1" d="M370,0a50,50,0,1,0,50,50A50.005,50.005,0,0,0,370,0Zm0,80a30,30,0,1,1,30-30A30,30,0,0,1,370,80Z"/><path class="cls-2" d="M1040.77,1.95,1039.99,0h-19.98l-.78,1.94L980,100h21.55l11.2-28h34.5l11.2,28H1080ZM1020.75,52,1030,28.87,1039.25,52Z"/><polygon class="cls-2" points="720 20 720 80 760 80 760 100 660 100 660 80 700 80 700 20 660 20 660 0 760 0 760 20 720 20"/><polygon class="cls-1" points="60 20 60 80 100 80 100 100 0 100 0 80 40 80 40 20 0 20 0 0 100 0 100 20 60 20"/><path class="cls-2" d="M980,0V50a50,50,0,0,1-100,0V0h20V50a30,30,0,0,0,60,0V0Z"/><polygon class="cls-2" points="650 0 610.78 98.07 610.01 100 590.01 100 589.24 98.07 550.02 0 571.56 0 600.01 71.14 628.47 0 650 0"/></g></g></g></svg>