<svg id="Main" xmlns="http://www.w3.org/2000/svg" viewBox="0 0 958.612 481.787"><defs><style>.cls-1{fill:#e1dfdf;}.cls-2{fill:#366ce1;}.cls-3{fill:#121221;}</style></defs><title>inkscape</title><g id="inscape"><circle class="cls-1" cx="212.13" cy="80.9" r="80.9"/><polygon class="cls-2" points="424.13 292.9 0.13 292.9 212.13 80.9 424.13 292.9"/><path class="cls-3" d="M438.451,552.136c-154.439,15.425-189.307,33.679-190.183,48.138-.86,14.179,31.052,23.349,29.07,39.211-3.484,27.882-105.325,25.537-109.859,52.057-1.554,9.09,7.9,24.08,60.845,49.352-81.642-21.272-102.194-37.509-101.747-49.352.82-21.714,72.254-29.554,72-51.719-.151-13.273-25.9-22.267-69.633-39.549-48.431-19.139-87.731-36.119-114.753-48.138l.13-.13Z" transform="translate(-14.191 -259.106)"/><path class="cls-3" d="M452.775,534.208c-2.406-3.281-3.79-7.461-3.3-20.789.089-2.395.345-8,2.535-24.085a160.95,160.95,0,0,1,5.578-25.1c1.927-6.282,3.255-9.2,5.831-9.888,3.391-.9,7.936,2.416,9.633,6.338,1.451,3.353.35,6.063-1.521,14.2,0,0-1.643,7.146-2.789,14.2-1.431,8.811-2.573,16.274-.507,24.845.912,3.782,2.282,7.6,2.282,7.6,2.924,8.161,5.029,9.607,4.31,12.423-1.028,4.028-6.843,6.979-11.916,6.592C457.1,540.1,453.624,535.365,452.775,534.208Z" transform="translate(-14.191 -259.106)"/><path class="cls-3" d="M467.225,427.982c-2.016,2.338-6.385,7.4-4.31,12.93,1.544,4.109,6.133,7.091,10.395,6.591,6.388-.749,9.023-8.967,9.127-13.943.073-3.52-1.026-9.915-5.071-11.155C473.15,421.112,468.66,426.319,467.225,427.982Z" transform="translate(-14.191 -259.106)"/><path class="cls-3" d="M489.915,447.077c-5.611,8.878,3.22,18.839,4.564,41.577.47,7.949.1,18.706,0,21.3-.183,4.816-.18,9.642-.507,14.451-.693,10.188-1.641,13.472.507,15.211,2.567,2.078,7.6.367,11.662-1.014,3.289-1.118,4.933-1.678,6.084-3.042,3.11-3.688-.332-9-2.788-20.789-1.444-6.929.118-3.3-2.029-25.352-.316-3.25-.661-6.526.761-10.4,1.356-3.689,4.918-9.545,9.38-9.38,3.9.144,6.511,4.805,8.366,8.113.916,1.631,2.757,5.3,3.8,13.436a90.165,90.165,0,0,1,.254,17.747c-.528,7.771-1.322,9.657-1.521,17.493-.273,10.7,1.064,12.849,2.535,13.69,1.3.741,2.024.08,8.113-.507,6.61-.637,7.379-.015,8.366-1.014,1.887-1.911.079-5.2-1.775-15.972a77.031,77.031,0,0,1-1.267-9.38c-.346-5.961.556-7.092,1.014-16.226a113.464,113.464,0,0,0,0-12.676c-.373-6.193-.591-9.353-2.113-12.507-1.621-3.356-3.746-5.285-7.606-8.788a38.739,38.739,0,0,0-9.295-6.338,11.914,11.914,0,0,0-3.3-1.268c-1.009-.157-3.853-.4-10.395,3.8-4.166,2.678-5.709,4.512-6.338,4.056-.822-.6,1.62-3.873,2.536-9.127.322-1.848,1.815-10.415-2.536-13.436-3.728-2.589-9.621.372-10.394.76A17.221,17.221,0,0,0,489.915,447.077Z" transform="translate(-14.191 -259.106)"/><path class="cls-3" d="M560.44,347c.8-1.841,2.275-4.93,5.285-5.99,4.846-1.706,12.039,2.416,13.74,7.751.928,2.91-.383,4.285-2.818,13.388-.179.667-1.935,7.282-3,13.916a101.07,101.07,0,0,0-1.233,17.616c.118,6.227.756,7.371,1.761,16.91.392,3.714,1.29,12.4,1.41,22.02.1,7.844-.356,13.52-1.233,24.133-1.484,17.947-2.931,24.057-1.233,24.662,2.044.728,5.938-7.493,19.377-24.486,5.41-6.842,9.166-11.057,15.149-12.683,2-.543,5.089-.714,11.274-1.057,6.862-.38,8.344.006,9.16,1.057,1.536,1.981.37,5.894-1.409,8.455-3.366,4.845-7.961,3.467-16.559,8.1a50.484,50.484,0,0,0-11.45,8.808c-4.222,4.018-7.785,7.41-10.393,13.036-1.314,2.834-3.692,7.964-3,14.268.98,8.857,7.46,14.863,12.331,19.377,5.353,4.962,7.4,4.822,14.269,11.45,3,2.9,9.043,8.725,7.75,10.922-.625,1.062-2.482.453-9.864.528-6.168.064-6.4.5-8.28.176-1.184-.206-5.361-1.125-11.626-9.336-4.543-5.954-5.228-9.248-11.626-21.491-5.5-10.522-6.443-10.866-6.87-10.745-1.913.54-.5,12.387.705,19.377,2.348,13.627,6.007,20.991,3.17,23.076-.91.669-3.425.27-8.455-.528-3.762-.6-5.643-.9-6.518-1.41-3.843-2.255-3.314-8.513-3.523-21.314-.205-12.564-.769-9.822-.881-23.429-.07-8.621-.109-13.353.353-19.729.7-9.636,1.727-11.813,2.818-20.61a174.4,174.4,0,0,0,.529-35.76c-.866-11.763-1.773-9.105-3.523-25.19C555.368,386.126,553.134,363.88,560.44,347Z" transform="translate(-14.191 -259.106)"/><path class="cls-3" d="M673.592,442.806c-5.293-.875-9.277-.24-15.212.761-5.793.976-10.48,1.809-15.8,4.817-3.092,1.747-5.109,2.886-6.845,5.323-3.422,4.806-4,12.189-.845,17.071a7.8,7.8,0,0,0,.915,1.194c3.944,4.133,8.233,5.237,11.761,6.665,4.438,1.8,7.019,4.385,11.409,8.789,3.491,3.5,7.2,7.218,9.127,13.267,1.019,3.193,2.448,7.67.591,12-2.178,5.079-7.689,7.186-14.535,9.8-10.255,3.921-15.046,2.82-16.056,5.747-1.237,3.584,4.255,10.143,10.732,12,2.579.739,4.895.612,18.507-4.057,15.367-5.27,16.862-6.634,18-8.112,4.792-6.225,3.343-14.6,2.535-19.268-.4-2.3-1.98-11.169-8.873-17.493-.441-.4-.015.017-6.592-5.07-5.315-4.113-7.173-5.954-10.14-8.367-11.316-9.2-16.148-9.288-16.057-12.253.134-4.346,10.64-8.344,19.1-8.451a31.848,31.848,0,0,1,12.676,2.535c8,3.65,11.3,8.405,12.845,7.353,1.251-.855.032-4.646-1.437-9.212-1.85-5.753-2.789-8.673-5.577-11.155C680.787,444,677.39,443.434,673.592,442.806Z" transform="translate(-14.191 -259.106)"/><path class="cls-3" d="M746.014,471.675c3.526.421,6.459-3.26,6.845-3.757,3.78-4.874,1.365-11.373,1.014-12.273-1.983-5.094-6.351-7.477-9.634-9.268a32.333,32.333,0,0,0-18.76-3.507,31.577,31.577,0,0,0-15.465,5.511,29.029,29.029,0,0,0-9.693,11.3c-2.9,6.369-1.246,10.279.059,23.771,2.033,21.012-.551,26.311,4.564,37.821,2.831,6.371,5.664,9.34,6.591,10.269,1.42,1.422,10.328,10.346,22.564,8.516,8.654-1.294,13.77-7.19,16.225-10.019,2.945-3.393,6.923-7.977,6.338-14.026-.633-6.54-6.4-12.714-10.141-12.023-1.727.32-2.926,2.134-5.324,5.761-2.11,3.193-1.931,4.011-3.549,6.262-1.149,1.6-3.844,5.346-7.859,6.262-4.423,1.008-9.236-1.7-11.916-4.759-2.646-3.024-2.59-5.684-4.056-21.04-1.117-11.7-1.274-11.452-1.268-14.277.016-7.542.116-14.305,4.31-20.538,1.614-2.4,4.591-6.824,8.873-7.013,4.412-.195,8.3,4.19,11.916,8.265C742.283,468.134,742.924,471.306,746.014,471.675Z" transform="translate(-14.191 -259.106)"/><path class="cls-3" d="M829.51,529.657a41.868,41.868,0,0,1-3.89-9.97c-1.25-5.18-.08-5.73-.68-18.93-.18-3.99-.45-7.54-.5-8.28-.27-3.53-.38-3.98-.85-9.29-.64-7.26-.51-7.19-.84-9.3a48.329,48.329,0,0,0-2.37-9.46,47.437,47.437,0,0,0-4.22-8.62c-2.46-4.08-3.69-6.11-6.09-7.95a24.43,24.43,0,0,0-7.27-3.55,29.06,29.06,0,0,0-6.08-1.52c-8.21-.94-15.3,4.1-19.27,6.93a47.286,47.286,0,0,0-5.58,4.73c-4.03,3.85-10.31,9.84-8.79,13.36.74,1.69,3.01,2.15,3.22,2.19,1.95.37,3.69-.67,6.25-2.53,4.2-3.06,5.36-4.5,7.27-5.92,5.3-3.94,13.67-5.73,19.77-2.53a13.6,13.6,0,0,1,3.38,2.53c4.94,4.85,5.35,11.44,5.58,16.4.23,5.01.63,13.5-3.04,15.04-2.69,1.12-4.48-2.76-11.5-4.4-4.96-1.15-9.11-.38-13.01.34-4.08.76-7.29,1.35-10.48,3.89a19.085,19.085,0,0,0-4.73,5.91,34.387,34.387,0,0,0-4.06,13.02c-.92,7.23-1.59,12.52,1.69,17.24a18.458,18.458,0,0,0,8.45,6.25,21.068,21.068,0,0,0,7.1,1.35,31.575,31.575,0,0,0,10.48-1.52,65.86,65.86,0,0,0,8.62-3.04c7.87-3.28,9.5-5.19,11.32-4.22,2.9,1.53,1.21,7.59,4.74,9.29a5.383,5.383,0,0,0,3.38.17c9.33-1.37,15.7,2.2,16.73.17C834.89,536.137,832.36,534.587,829.51,529.657Zm-28.06-10.31c-1.63,1.6-3.32.59-9.46.85-8.79.37-11.46,2.69-14.71.51a8.818,8.818,0,0,1-3.38-5.41,9.406,9.406,0,0,1,2.03-8.28c2.55-2.68,6.72-2.3,15.04-1.52,5.26.48,7.93.76,9.64,2.53C803.56,511.087,803.95,516.917,801.45,519.347Z" transform="translate(-14.191 -259.106)"/><path class="cls-3" d="M898.889,485.554c-.99-7.278-2.14-15.8-8.45-22.535-5.14-5.478-11.09-7-14.54-7.889-4.29-1.1-13.28-3.5-20.62,1.5-3.55,2.423-4.95,5.367-6.33,4.723-2.82-1.323,2.08-14.09-2.46-18.235-2.63-2.411-8.3-1.777-11.15,1.5-4.45,5.1.3,13.912,2.36,33.8.26,2.456.4,10.278.68,25.913.26,14.311.3,25.134.34,37.568.08,25.212-.15,21.1,0,34.179.22,19.9.69,23.124,0,33.424-.88,13.234-1.33,19.857-2.37,23.668-1.3,4.767-3.15,9.412-2.18,15.8.36,2.389,1.1,7.234,4.55,9.367,3.2,1.967,7.73.967,10.48-1.511,4.08-3.678,3.2-10.156,2.73-25.357.11,2.711.39,7.578-.03-30.979-.11-10.39-.2-20.79-.34-31.18-.09-7.633.14-15.278,0-22.912-.15-8.722-.42-13.289,1.69-14.456,2.55-1.4,5.27,3.933,12.51,6.567.95.355,9.18,3.089,16.56-.367,7.18-3.367,9.99-11.823,13.19-21.412A67.564,67.564,0,0,0,898.889,485.554ZM883,508.844c-2.28,4.344-5.34,10.167-11.15,11.267-5.11.967-9.17-2.289-9.81-2.811-4.51-3.745-5.3-9.556-5.74-12.779-.54-3.933-.06-6.911.67-11.456a39.7,39.7,0,0,1,3.21-11.456c1.82-3.822,3.1-6.522,5.92-8.067,5.75-3.167,12.28,1.578,12.68,1.878a17.658,17.658,0,0,1,5.07,6.567,28.252,28.252,0,0,1,2.87,12.767A29.9,29.9,0,0,1,883,508.844Z" transform="translate(-14.191 -259.106)"/><path class="cls-3" d="M927.833,492.931c2.484-.668,3.947.3,7.27,1.065,6.1,1.388,11.141.386,16.722-.71,4.6-.908,8.689-1.712,12.9-4.759a20.276,20.276,0,0,0,5.635-6,17.849,17.849,0,0,0,2.366-7.055c.119-1.117.312-3.894-1.451-9.175-1.581-4.728-3.022-9.049-7.087-13.234a28.469,28.469,0,0,0-12.9-7.4c-6.3-1.805-11.3-1.075-18.722,0-7.775,1.117-11.98,1.723-16.185,4.583-2.054,1.4-6.484,4.957-9.99,15.52-5.366,16.178-2.1,29.329,4,53.8,1.613,6.5,3.4,12.484,8.9,16.408,5,3.57,11.055,4.008,14.174,4.238,5.872.417,10.216-.741,14.722-1.942,6.345-1.691,11.765-3.141,16.722-7.765a20.762,20.762,0,0,0,6.549-10.584c.753-3.371,1-9.132-1.279-10.051-2.226-.908-4.581,3.726-13.088,9.519-3.871,2.651-7.517,5.083-12.9,6.179-2.775.564-7.076,1.388-11.808-.532a17.3,17.3,0,0,1-7.27-5.647c-2.269-2.943-2.936-5.7-3.635-8.642-1-4.144-1.763-7.327-.365-10.938C921.381,499.11,923.381,494.142,927.833,492.931Zm7.27-31.75a22.884,22.884,0,0,1,4.548-.71,24.369,24.369,0,0,1,7.636.71c1.473.4,3.43,1.388,7.269,3.35,5.1,2.61,5.721,3.194,6.173,3.706.376.417,3.258,3.7,2.549,6.878-.882,3.945-6.818,5.511-11.991,6.878-1.914.5-11.818,2.985-20.722-.355-4.937-1.847-6.474-4.311-6.905-5.114a7.035,7.035,0,0,1-.914-2.463C922,468.8,928.844,462.893,935.1,461.181Z" transform="translate(-14.191 -259.106)"/></g></svg>