<svg xmlns="http://www.w3.org/2000/svg" viewBox="0 0 1149.98 220"><defs><style>.cls-1{fill:#121221;}.cls-2{fill:#366ce1;}</style></defs><title>inside sales</title><g id="Слой_2" data-name="Слой 2"><g id="Work_space" data-name="Work space"><g id="inside_sales" data-name="inside sales"><polygon class="cls-1" points="390 0 390 100 370 100 310 30.59 310 100 290 100 290 0 310 0 370 69.41 370 0 390 0"/><path class="cls-1" d="M420,30a10,10,0,0,0,10,10h40a30,30,0,0,1,0,60H400V80h70a10,10,0,0,0,0-20H430a30,30,0,0,1,0-60h70V20H430A10,10,0,0,0,420,30Z"/><path class="cls-2" d="M200,150a10,10,0,0,0,10,10h40a30,30,0,0,1,0,60H180V200h70a10,10,0,0,0,0-20H210a30,30,0,0,1,0-60h70v20H210A10,10,0,0,0,200,150Z"/><path class="cls-2" d="M639.98,150a10,10,0,0,0,10,10h40a30,30,0,0,1,0,60h-70V200h70a10,10,0,0,0,0-20h-40a30,30,0,0,1,0-60h70v20h-70A10,10,0,0,0,639.98,150Z"/><path class="cls-1" d="M670,0H620V100h50A50,50,0,0,0,670,0Zm0,80H640V20h30a30,30,0,0,1,0,60Z"/><polygon class="cls-1" points="750 20 750 40 830 40 830 60 750 60 750 80 830 80 830 100 730 100 730 0 830 0 830 20 750 20"/><polygon class="cls-2" points="530 140 530 160 610 160 610 180 530 180 530 200 610 200 610 220 510 220 510 120 610 120 610 140 530 140"/><polygon class="cls-2" points="500 200 500 220 400 220 400 120 420 120 420 200 500 200"/><path class="cls-2" d="M1000,120a50,50,0,1,0,50,50A50.005,50.005,0,0,0,1000,120Zm0,80a30,30,0,1,1,30-30A30,30,0,0,1,1000,200Z"/><path class="cls-2" d="M940,150a30,30,0,0,0-30-30H840V220h70a29.991,29.991,0,0,0,22.35-50A29.862,29.862,0,0,0,940,150Zm-80-10h50a10,10,0,0,1,0,20H860Zm50,60H860V180h50a10,10,0,0,1,0,20Z"/><path class="cls-2" d="M350.77,121.95l-.78-1.95H330.01l-.78,1.94L290,220h21.55l11.2-28h34.5l11.2,28H390ZM330.75,172,340,148.87,349.25,172Z"/><polygon class="cls-1" points="240 20 240 80 280 80 280 100 180 100 180 80 220 80 220 20 180 20 180 0 280 0 280 20 240 20"/><polygon class="cls-1" points="570 20 570 80 610 80 610 100 510 100 510 80 550 80 550 20 510 20 510 0 610 0 610 20 570 20"/><polygon class="cls-2" points="1112.48 170.03 1149.93 220 1124.94 220 1099.99 186.7 1075.03 220 1050.05 220 1087.49 170.03 1050 120 1074.98 120 1099.99 153.36 1124.99 120 1149.98 120 1112.48 170.03"/><rect class="cls-1" x="30" y="190" width="80" height="30"/><rect class="cls-1" x="110" y="20" width="30" height="200"/><rect class="cls-1" y="20" width="30" height="200"/><rect class="cls-1" x="30" y="20" width="80" height="30"/><polygon class="cls-2" points="130 140 130 220 110 220 110 160 70 160 70 100 30 100 30 30 10 30 40 0 70 30 50 30 50 80 90 80 90 140 130 140"/></g></g></g></svg>