<svg xmlns="http://www.w3.org/2000/svg" viewBox="0 0 1010 210"><defs><style>.cls-1{fill:#121221;}.cls-2{fill:#366ce1;}</style></defs><title>insured mine</title><g id="Слой_2" data-name="Слой 2"><g id="Work_space" data-name="Work space"><g id="insured_mine" data-name="insured mine"><polygon class="cls-1" points="40 20 40 80 60 80 60 100 0 100 0 80 20 80 20 20 0 20 0 0 60 0 60 20 40 20"/><polygon class="cls-2" points="770 130 770 190 790 190 790 210 730 210 730 190 750 190 750 130 730 130 730 110 790 110 790 130 770 130"/><polygon class="cls-2" points="900 110 900 210 880 210 820 140.59 820 210 800 210 800 110 820 110 880 179.41 880 110 900 110"/><polygon class="cls-1" points="170 0 170 100 150 100 90 30.59 90 100 70 100 70 0 90 0 150 69.41 150 0 170 0"/><path class="cls-1" d="M670,0H620V100h50A50,50,0,0,0,670,0Zm0,80H640V20h30a30,30,0,0,1,0,60Z"/><polygon class="cls-2" points="720 110 720 210 700 210 700 140.59 683.2 160.05 669.99 175.36 656.78 160.05 640 140.62 640 210 620 210 620 110 640 110 640 110.01 669.99 144.75 699.98 110 720 110"/><path class="cls-1" d="M200,30a10,10,0,0,0,10,10h40a30,30,0,0,1,0,60H180V80h70a10,10,0,0,0,0-20H210a30,30,0,0,1,0-60h70V20H210A10,10,0,0,0,200,30Z"/><polygon class="cls-1" points="530 20 530 40 610 40 610 60 530 60 530 80 610 80 610 100 510 100 510 0 610 0 610 20 530 20"/><polygon class="cls-2" points="930 130 930 150 1010 150 1010 170 930 170 930 190 1010 190 1010 210 910 210 910 110 1010 110 1010 130 930 130"/><path class="cls-1" d="M390,0V50a50,50,0,0,1-100,0V0h20V50a30,30,0,0,0,60,0V0Z"/><path class="cls-1" d="M500,30A30,30,0,0,0,470,0H400V100h20V60h50a10,10,0,0,1,10,10v30h20V70a29.862,29.862,0,0,0-7.65-20A29.862,29.862,0,0,0,500,30ZM420,40V20h50a10,10,0,0,1,0,20Z"/></g></g></g></svg>