<svg xmlns="http://www.w3.org/2000/svg" viewBox="0 0 700 190"><defs><style>.cls-1{fill:#366ce1;}.cls-2{fill:#121222;}.cls-3{fill:none;stroke:#121221;stroke-miterlimit:10;stroke-width:20px;}</style></defs><title>Invision</title><g id="Complete"><g id="Invision"><path class="cls-1" d="M355,450h20l30,80,30-80h20L415,550H395Z" transform="translate(-145 -405)"/><rect class="cls-1" x="320" y="45" width="20" height="100"/><rect class="cls-1" x="460" y="45" width="20" height="100"/><path class="cls-1" d="M515,480a10,10,0,0,0,10,10h40a30,30,0,0,1,0,60H495V530h70a10,10,0,0,0,0-20H525a30,30,0,0,1,0-60h70v20H525A10,10,0,0,0,515,480Z" transform="translate(-145 -405)"/><path class="cls-1" d="M685,450a50,50,0,1,0,50,50A50.005,50.005,0,0,0,685,450Zm0,80a30,30,0,1,1,30-30A30,30,0,0,1,685,530Z" transform="translate(-145 -405)"/><rect class="cls-1" x="600" y="45" width="20" height="100"/><rect class="cls-1" x="680" y="45" width="20" height="100"/><ellipse class="cls-1" cx="795" cy="500" rx="10.99" ry="90.99" transform="translate(-281.801 212.35) rotate(-39.345)"/><path class="cls-2" d="M305,515v50H285V515a20,20,0,0,0-40,0v50H225V475h20v5.35A40.012,40.012,0,0,1,305,515Z" transform="translate(-145 -405)"/><path class="cls-2" d="M215,465v34.65a39.666,39.666,0,0,1-10,4.08V565H185V503.73a39.666,39.666,0,0,1-10-4.08V465a20,20,0,0,0,40,0Z" transform="translate(-145 -405)"/><circle class="cls-2" cx="50" cy="50" r="20"/><rect class="cls-3" x="10" y="10" width="170" height="170"/></g></g></svg>