<svg xmlns="http://www.w3.org/2000/svg" viewBox="0 0 850 177.777"><defs><style>.cls-1{fill:#121221;}.cls-2{fill:#366ce1;}</style></defs><title>invoice go</title><g id="Слой_2" data-name="Слой 2"><g id="Work_space" data-name="Work space"><g id="invoice_go" data-name="invoice go"><path class="cls-1" d="M519.29,98.889H540a50,50,0,1,1,0-20H519.29a30,30,0,1,0,0,20Z"/><polygon class="cls-1" points="420 58.889 420 118.889 440 118.889 440 138.889 380 138.889 380 118.889 400 118.889 400 58.889 380 58.889 380 38.889 440 38.889 440 58.889 420 58.889"/><polygon class="cls-1" points="40 58.889 40 118.889 60 118.889 60 138.889 0 138.889 0 118.889 20 118.889 20 58.889 0 58.889 0 38.889 60 38.889 60 58.889 40 58.889"/><polygon class="cls-1" points="170 38.889 170 138.889 150 138.889 90 69.479 90 138.889 70 138.889 70 38.889 90 38.889 150 108.299 150 38.889 170 38.889"/><polygon class="cls-1" points="570 58.889 570 78.889 650 78.889 650 98.889 570 98.889 570 118.889 650 118.889 650 138.889 550 138.889 550 38.889 650 38.889 650 58.889 570 58.889"/><path class="cls-2" d="M764.647,14.642a50,50,0,1,0,70.711,0A50.006,50.006,0,0,0,764.647,14.642Zm56.568,56.569a30,30,0,1,1,0-42.426A30,30,0,0,1,821.215,71.211Z"/><path class="cls-1" d="M330,38.889a50,50,0,1,0,50,50A50.005,50.005,0,0,0,330,38.889Zm0,80a30,30,0,1,1,30-30A30,30,0,0,1,330,118.889Z"/><path class="cls-2" d="M750.505,85.353l7.071,7.071a49.285,49.285,0,0,1,6.357,7.785A50.014,50.014,0,1,1,722.22,77.787q0,9.991,0,20a30,30,0,1,0,27.068,17.07l-20,20-14.143-14.143Z"/><polygon class="cls-1" points="279.98 38.889 240.76 136.959 239.99 138.889 219.99 138.889 219.22 136.959 180 38.889 201.54 38.889 229.99 110.029 258.45 38.889 279.98 38.889"/></g></g></g></svg>