<svg id="Main" xmlns="http://www.w3.org/2000/svg" viewBox="0 0 100 180"><defs><style>.cls-1{fill:#1c1e20;}.cls-2{fill:#366ce1;}.cls-3{fill:#121221;}</style></defs><title>ip</title><g id="Ip"><path class="cls-1" d="M500,544.65V610a19.994,19.994,0,0,1-20-20V510A39.99,39.99,0,0,0,500,544.65Z" transform="translate(-480 -490)"/><circle class="cls-1" cx="20" cy="20" r="20"/><path class="cls-2" d="M540,530a39.884,39.884,0,0,0-20,5.35V530a19.994,19.994,0,0,0-20-20H480a19.994,19.994,0,0,0,20,20v40a40,40,0,1,0,40-40Zm0,60a20,20,0,1,1,20-20A19.994,19.994,0,0,1,540,590Z" transform="translate(-480 -490)"/><path class="cls-3" d="M520,584.65V650a19.994,19.994,0,0,1-20,20V550A39.99,39.99,0,0,0,520,584.65Z" transform="translate(-480 -490)"/></g></svg>