<svg xmlns="http://www.w3.org/2000/svg" viewBox="0 0 520 210"><defs><style>.cls-1{fill:#121221;}.cls-2{fill:#366ce1;}</style></defs><title>irisvr</title><g id="Complete"><g id="irisvr"><path class="cls-1" d="M500,285a27.5,27.5,0,1,0,27.5,27.5A27.5,27.5,0,0,0,500,285Zm0,45a17.5,17.5,0,1,1,17.5-17.5A17.506,17.506,0,0,1,500,330Z" transform="translate(-240 -270)"/><polygon class="cls-2" points="419.98 110 380.76 208.07 379.99 210 359.99 210 359.22 208.07 320 110 341.54 110 369.99 181.14 398.45 110 419.98 110"/><path class="cls-2" d="M760,410a30,30,0,0,0-30-30H660V480h20V440h50a10,10,0,0,1,10,10v30h20V450a29.862,29.862,0,0,0-7.65-20A29.862,29.862,0,0,0,760,410Zm-80,10V400h50a10,10,0,0,1,0,20Z" transform="translate(-240 -270)"/><path class="cls-1" d="M386.57,435A29.994,29.994,0,0,0,370,380H300V480h10V440h60a19.994,19.994,0,0,1,20,20v20h10V460A29.923,29.923,0,0,0,386.57,435ZM360,432.04l-.02-.04H360ZM370,430H310V390h60a20,20,0,0,1,0,40Z" transform="translate(-240 -270)"/><path class="cls-1" d="M460,407.5A17.506,17.506,0,0,0,477.5,425h45a27.5,27.5,0,0,1,7.5,53.95,26.911,26.911,0,0,1-7.5,1.05H450V470h72.5a17.5,17.5,0,0,0,0-35h-45a27.5,27.5,0,0,1-7.5-53.95,26.911,26.911,0,0,1,7.5-1.05H550v10H477.5A17.506,17.506,0,0,0,460,407.5Z" transform="translate(-240 -270)"/><polygon class="cls-1" points="30 120 30 200 50 200 50 210 0 210 0 200 20 200 20 120 0 120 0 110 50 110 50 120 30 120"/><polygon class="cls-1" points="190 120 190 200 210 200 210 210 160 210 160 200 180 200 180 120 160 120 160 110 210 110 210 120 190 120"/><path class="cls-2" d="M545,270a35,35,0,1,0,35,35A35,35,0,0,0,545,270Zm0,50a15,15,0,1,1,15-15A15.005,15.005,0,0,1,545,320Z" transform="translate(-240 -270)"/><path class="cls-2" d="M455,270a35,35,0,1,0,35,35A35,35,0,0,0,455,270Zm0,50a15,15,0,1,1,15-15A15.005,15.005,0,0,1,455,320Z" transform="translate(-240 -270)"/></g></g></svg>