<svg xmlns="http://www.w3.org/2000/svg" viewBox="0 0 614.329 100"><defs><style>.cls-1,.cls-3,.cls-4{fill:#121221;}.cls-2{fill:#366ce1;}.cls-3{opacity:0.62;}.cls-4{opacity:0.38;}</style></defs><title>iron xo</title><g id="Слой_2" data-name="Слой 2"><g id="Work_space" data-name="Work space"><g id="iron_xo" data-name="iron xo"><polygon class="cls-1" points="430 0 430 100 410 100 350 30.59 350 100 330 100 330 0 350 0 410 69.41 410 0 430 0"/><path class="cls-1" d="M210,30A30,30,0,0,0,180,0H110V100h20V60h50a10,10,0,0,1,10,10v30h20V70a29.862,29.862,0,0,0-7.65-20A29.862,29.862,0,0,0,210,30ZM130,40V20h50a10,10,0,0,1,0,20Z"/><path class="cls-1" d="M270,0a50,50,0,1,0,50,50A50.005,50.005,0,0,0,270,0Zm0,80a30,30,0,1,1,30-30A30,30,0,0,1,270,80Z"/><polygon class="cls-1" points="60 20 60 80 100 80 100 100 0 100 0 80 40 80 40 20 0 20 0 0 100 0 100 20 60 20"/><polygon class="cls-2" points="576.789 50.03 614.239 100 589.249 100 564.299 66.7 539.339 100 514.359 100 551.799 50.03 514.309 0 539.289 0 564.299 33.36 589.299 0 614.289 0 576.789 50.03"/><polygon class="cls-3" points="576.809 50.03 614.259 100 589.269 100 564.319 66.7 539.359 100 514.379 100 551.819 50.03 514.329 0 539.309 0 564.319 33.36 589.319 0 614.309 0 576.809 50.03"/><path class="cls-2" d="M564.309,0a50,50,0,1,0,50,50A50.005,50.005,0,0,0,564.309,0Zm0,80a30,30,0,1,1,30-30A30,30,0,0,1,564.309,80Z"/><path class="cls-4" d="M564.329,0a50,50,0,1,0,50,50A50.005,50.005,0,0,0,564.329,0Zm0,80a30,30,0,1,1,30-30A30,30,0,0,1,564.329,80Z"/></g></g></g></svg>