<svg xmlns="http://www.w3.org/2000/svg" viewBox="0 0 528.812 100.045"><defs><style>.cls-1{fill:#366ce1;}.cls-2{fill:#121221;}</style></defs><title>iworq</title><g id="Слой_2" data-name="Слой 2"><g id="Work_space" data-name="Work space"><g id="iworq"><path class="cls-1" d="M418.812,30.045a30,30,0,0,0-30-30h-70v100h20v-40h50a10,10,0,0,1,10,10v30h20v-30a29.862,29.862,0,0,0-7.65-20A29.862,29.862,0,0,0,418.812,30.045Zm-80,10v-20h50a10,10,0,0,1,0,20Z"/><path class="cls-1" d="M258.812.045a50,50,0,1,0,50,50A50.005,50.005,0,0,0,258.812.045Zm0,80a30,30,0,1,1,30-30A30,30,0,0,1,258.812,80.045Z"/><polygon class="cls-1" points="50 20.009 50 80.036 80 80.036 80 100.045 0 100.045 0 80.036 30 80.036 30 20.009 0 20.009 0 0 80 0 80 20.009 50 20.009"/><path class="cls-2" d="M528.812,50.045a50.005,50.005,0,0,0-50-50c-.45,0-.89.01-1.34.02h-.06a50,50,0,1,0,25.39,93.85l3.12,6.13h12.89v-.08l.07.08h9.48l-9.93-19.51A49.739,49.739,0,0,0,528.812,50.045Zm-35.09,26.03a29.92,29.92,0,1,1,13.74-17.1A30.087,30.087,0,0,1,493.722,76.075Z"/><path class="cls-1" d="M188.192,0l-14.46,57.86L159.172,1.15l-.3-1.15h-14.91l-.03.11V0h-5.12l-.29,1.16-14.54,56.59L109.552,0H88.932V.02l24.61,98.41.39,1.57h19.86l.38-1.5,14.67-57.13,14.7,57.24.35,1.39h15.03l.01-.04V100h4.87l.37-1.46L208.812,0Zm-19.26,50.99v.04l-.02-.04Zm0,47.53-.19.61.19-.64Z"/><polygon class="cls-1" points="168.932 51.03 168.912 50.99 168.932 50.99 168.932 51.03"/><polygon class="cls-1" points="168.932 98.52 168.742 99.13 168.932 98.49 168.932 98.52"/><polygon class="cls-1" points="168.932 98.52 168.742 99.13 168.932 98.49 168.932 98.52"/><circle class="cls-1" cx="478.545" cy="50.023" r="15"/></g></g></g></svg>