<svg xmlns="http://www.w3.org/2000/svg" viewBox="0 0 760 320"><defs><style>.cls-1{fill:#121221;}.cls-2{fill:#366ce1;}</style></defs><title>jira service desc</title><g id="Слой_2" data-name="Слой 2"><g id="Work_space" data-name="Work space"><g id="jira_service_desc" data-name="jira service desc"><polygon class="cls-1" points="500 130 500 190 520 190 520 210 460 210 460 190 480 190 480 130 460 130 460 110 520 110 520 130 500 130"/><polygon class="cls-2" points="170 20 170 80 190 80 190 100 130 100 130 80 150 80 150 20 130 20 130 0 190 0 190 20 170 20"/><path class="cls-1" d="M50,220H0V320H50a50,50,0,0,0,0-100Zm0,80H20V240H50a30,30,0,0,1,0,60Z"/><path class="cls-1" d="M240,250a10,10,0,0,0,10,10h40a30,30,0,0,1,0,60H220V300h70a10,10,0,0,0,0-20H250a30,30,0,0,1,0-60h70v20H250A10,10,0,0,0,240,250Z"/><path class="cls-1" d="M20,140a10,10,0,0,0,10,10H70a30,30,0,0,1,0,60H0V190H70a10,10,0,0,0,0-20H30a30,30,0,0,1,0-60h70v20H30A10,10,0,0,0,20,140Z"/><polygon class="cls-1" points="130 240 130 260 210 260 210 280 130 280 130 300 210 300 210 320 110 320 110 220 210 220 210 240 130 240"/><polygon class="cls-1" points="680 130 680 150 760 150 760 170 680 170 680 190 760 190 760 210 660 210 660 110 760 110 760 130 680 130"/><polygon class="cls-1" points="130 130 130 150 210 150 210 170 130 170 130 190 210 190 210 210 110 210 110 110 210 110 210 130 130 130"/><path class="cls-1" d="M320,140a30,30,0,0,0-30-30H220V210h20V170h50a10,10,0,0,1,10,10v30h20V180a29.862,29.862,0,0,0-7.65-20A29.862,29.862,0,0,0,320,140Zm-80,10V130h50a10,10,0,0,1,0,20Z"/><path class="cls-2" d="M320,30A30,30,0,0,0,290,0H220V100h20V60h50a10,10,0,0,1,10,10v30h20V70a29.862,29.862,0,0,0-7.65-20A29.862,29.862,0,0,0,320,30ZM240,40V20h50a10,10,0,0,1,0,20Z"/><path class="cls-1" d="M409.29,280H430a50,50,0,1,1,0-20H409.29a30,30,0,1,0,0,20Z"/><path class="cls-1" d="M628.28,170h20.71a50,50,0,1,1,0-20H628.28a30,30,0,1,0,0,20Z"/><path class="cls-2" d="M390.77,1.95,389.99,0H370.01l-.78,1.94L330,100h21.55l11.2-28h34.5l11.2,28H430ZM370.75,52,380,28.87,389.25,52Z"/><polygon class="cls-1" points="429.98 110 390.76 208.07 389.99 210 369.99 210 369.22 208.07 330 110 351.54 110 379.99 181.14 408.45 110 429.98 110"/><path class="cls-2" d="M100,0V50A50,50,0,0,1,0,50H20a30,30,0,0,0,60,0V20H0V0Z"/></g></g></g></svg>