<svg xmlns="http://www.w3.org/2000/svg" viewBox="0 0 310 264.814"><defs><style>.cls-1{fill:#366ce1;}.cls-2{fill:#121221;}.cls-3{fill:#1c1e20;}</style></defs><title>jiva</title><g id="complete"><g id="Jiva"><path class="cls-1" d="M458.019,582.915c-15.306-14.592-9.291-30.84-24-39.887-18.648-11.468-43.173,5.506-45.972.338-3.287-6.067,25.012-39.654,64.225-43.267,28.231-2.6,65.5,10.021,76.508,39.51,5.577,14.935,5.917,38.2-8.226,50.4C503.758,604.5,473.337,597.52,458.019,582.915Z" transform="translate(-345 -435.186)"/><path class="cls-2" d="M541.981,582.563c15.306-14.592,9.291-30.84,24-39.887,18.648-11.468,43.173,5.5,45.972.338,3.287-6.068-25.012-39.654-64.225-43.268-28.231-2.6-65.495,10.022-76.508,39.511-5.577,14.935-5.917,38.2,8.226,50.405C496.242,604.151,526.663,597.168,541.981,582.563Z" transform="translate(-345 -435.186)"/><path class="cls-1" d="M521.145,542.1c-3.406-32.764-29.881-51.1-32.7-52.986-35.461-23.724-82.682-9.738-83.155-3.3-.386,5.26,30.709,1.24,46.357,22.573,15.974,21.775-2.035,45.578,16.009,70.723,6.854,9.549,20.074,20.918,31.7,18.364C515.76,593.873,523.4,563.788,521.145,542.1Z" transform="translate(-345 -435.186)"/><path class="cls-2" d="M472.6,542.1c3.406-32.764,29.881-51.1,32.7-52.986,35.461-23.724,82.683-9.738,83.155-3.3.386,5.26-30.708,1.24-46.357,22.573-15.973,21.775,2.035,45.578-16.009,70.723-6.853,9.549-20.073,20.918-31.7,18.364C477.985,593.873,470.344,563.788,472.6,542.1Z" transform="translate(-345 -435.186)"/><path class="cls-1" d="M497.526,597.915c-7.136-.189-12.286-5.2-14.176-7.035-15.123-14.7-17.213-57.825-5.05-106.584,2.842-11.393,12.442-49.877,21.127-49.1,4.429.4,6.3,10.8,12.617,49.915,10.6,65.63,14.356,92.3,1.622,105C511.746,592.024,505.621,598.131,497.526,597.915Z" transform="translate(-345 -435.186)"/></g><path class="cls-3" d="M445,600v50a50,50,0,0,1-100,0h20a30,30,0,0,0,60,0V620H345V600Z" transform="translate(-345 -435.186)"/><rect class="cls-3" x="110" y="164.814" width="20" height="100"/><path class="cls-3" d="M585,600q-20,50-40,100H525q-20-50-40-100h20l30,75,30-75Z" transform="translate(-345 -435.186)"/><path class="cls-3" d="M615,600H595q-20,50-40,100h20l12-30h36l12,30h20Q635,650,615,600Zm-20,50q5-12.5,10-25,5,12.5,10,25Z" transform="translate(-345 -435.186)"/></g></svg>