<svg id="Main" xmlns="http://www.w3.org/2000/svg" viewBox="0 0 610 392.743"><defs><style>.cls-1{fill:#366ce1;}.cls-2{fill:#121221;}</style></defs><title>johntheripper</title><g id="John_the_ripper" data-name="John the ripper"><path class="cls-1" d="M345,456.371v-120a30,30,0,1,0-30,30v-20a10,10,0,1,1,10-10v120Z" transform="translate(-195 -303.629)"/><path class="cls-1" d="M385,396.371a30,30,0,1,0,30,30A30,30,0,0,0,385,396.371Zm0,40a10,10,0,1,1,10-10A10,10,0,0,1,385,436.371Z" transform="translate(-195 -303.629)"/><rect class="cls-1" x="70" y="132.743" width="80" height="20"/><path class="cls-1" d="M485,426.371v30H465v-30a10,10,0,0,0-20,0v30H425v-150h20v91.72a29.592,29.592,0,0,1,10-1.72A30,30,0,0,1,485,426.371Z" transform="translate(-195 -303.629)"/><path class="cls-1" d="M555,426.371v30H535v-30a10,10,0,0,0-20,0v30H495v-60h20v1.72a29.592,29.592,0,0,1,10-1.72A30,30,0,0,1,555,426.371Z" transform="translate(-195 -303.629)"/><path class="cls-1" d="M665,426.371a30,30,0,1,1-60,0v-120h20v120a10,10,0,1,0,10-10v-20A30,30,0,0,1,665,426.371Z" transform="translate(-195 -303.629)"/><rect class="cls-1" x="400" y="42.743" width="80" height="20"/><path class="cls-1" d="M735,426.371v30H715v-30a10,10,0,0,0-20,0v30H675v-150h20v91.72a29.592,29.592,0,0,1,10-1.72A30,30,0,0,1,735,426.371Z" transform="translate(-195 -303.629)"/><path class="cls-1" d="M775,436.371a10,10,0,0,1-10-10h40a28.518,28.518,0,0,0-.43-5,30,30,0,1,0,0,10H783.66A9.993,9.993,0,0,1,775,436.371Zm0-20a9.993,9.993,0,0,1,8.66,5H766.34A9.993,9.993,0,0,1,775,416.371Z" transform="translate(-195 -303.629)"/><path class="cls-2" d="M715,576.371H695a10,10,0,0,0-20,0v30H655v-60h20v1.72a29.592,29.592,0,0,1,10-1.72A30,30,0,0,1,715,576.371Z" transform="translate(-195 -303.629)"/><circle class="cls-2" cx="230" cy="222.743" r="10"/><path class="cls-2" d="M391.44,536.371a40,40,0,1,0-66.44-30v100h20v-65.35a39.884,39.884,0,0,0,20,5.35,19.994,19.994,0,0,1,20,20v40h20v-40A39.845,39.845,0,0,0,391.44,536.371Zm-26.44-50a20,20,0,1,1-20,20A19.994,19.994,0,0,1,365,486.371Z" transform="translate(-195 -303.629)"/><rect class="cls-2" x="220" y="242.743" width="20" height="60"/><path class="cls-2" d="M475,546.371a29.592,29.592,0,0,0-10,1.72v-1.72H445v150h20v-91.72a29.592,29.592,0,0,0,10,1.72,30,30,0,1,0,0-60Zm0,40a10,10,0,1,1,10-10A10,10,0,0,1,475,586.371Z" transform="translate(-195 -303.629)"/><path class="cls-2" d="M545,546.371a29.592,29.592,0,0,0-10,1.72v-1.72H515v150h20v-91.72a29.592,29.592,0,0,0,10,1.72,30,30,0,0,0,0-60Zm0,40a10,10,0,1,1,10-10A10,10,0,0,1,545,586.371Z" transform="translate(-195 -303.629)"/><path class="cls-2" d="M615,586.371a10,10,0,0,1-10-10h40a28.518,28.518,0,0,0-.43-5,30,30,0,1,0,0,10H623.66A9.993,9.993,0,0,1,615,586.371Zm0-20a9.993,9.993,0,0,1,8.66,5H606.34A9.993,9.993,0,0,1,615,566.371Z" transform="translate(-195 -303.629)"/><path class="cls-1" d="M205.48,363.629c-3.835,5.82-12.621,21.024-10,40,5.052,36.57,47.23,49.216,50,50,7.239,2.047,18.216,4.982,30,0,12.676-5.36,18.3-16.5,20-20,9.033-18.578,1.332-36.96,0-40-2.174,18.12-13.658,33.6-30,40-24.27,9.507-46.275-7.189-50-10a40.576,40.576,0,0,1-10-10C192.17,393.913,203.671,367.609,205.48,363.629Z" transform="translate(-195 -303.629)"/><path class="cls-2" d="M275.48,413.629c-4.984,3.189-15.527,9.935-30,10-3.426.015-28.476.126-40-20-10.556-18.437-.859-38.309,0-40a51.287,51.287,0,0,0-10,30c0,1.32.4,25.823,20,40,21.736,15.72,54.478,9.624,70-10,8.881-11.228,9.921-24.1,10-30A66.6,66.6,0,0,1,275.48,413.629Z" transform="translate(-195 -303.629)"/><ellipse class="cls-2" cx="50.48" cy="72.5" rx="50" ry="37.5"/><rect class="cls-1" x="20.48" y="15" width="60" height="55"/><ellipse class="cls-2" cx="50.48" cy="15" rx="30" ry="15"/><ellipse class="cls-1" cx="50.48" cy="70" rx="30" ry="20"/></g></svg>