<svg id="Main" xmlns="http://www.w3.org/2000/svg" viewBox="0 0 413 247.853"><defs><style>.cls-1,.cls-3{fill:#121222;}.cls-1,.cls-2,.cls-3,.cls-4{stroke:#e1dfdf;stroke-miterlimit:10;}.cls-1,.cls-2{stroke-width:3px;}.cls-2,.cls-4{fill:#366ce1;}.cls-3,.cls-4{stroke-width:12.707px;}.cls-5{fill:#e1dfdf;}</style></defs><title>joy</title><g id="Joy"><rect class="cls-1" x="295" y="420" width="30" height="30" rx="12.707" transform="translate(326.5 496.353) rotate(-180)"/><path class="cls-1" d="M395,602.71v4.58A12.709,12.709,0,0,1,382.29,620H328.27A33.263,33.263,0,0,1,295,586.73V472.71A12.709,12.709,0,0,1,307.71,460h4.58A12.709,12.709,0,0,1,325,472.71V582.15a7.857,7.857,0,0,0,7.85,7.85h49.44A12.709,12.709,0,0,1,395,602.71Z" transform="translate(-293.5 -373.647)"/><path class="cls-2" d="M705,432.71V586.733A33.267,33.267,0,0,1,671.733,620H617.71A12.709,12.709,0,0,1,605,607.29v-4.58A12.709,12.709,0,0,1,617.71,590h49.437A7.853,7.853,0,0,0,675,582.147V527.853A7.853,7.853,0,0,0,667.147,520h-28.88A33.267,33.267,0,0,1,605,486.733V432.71A12.709,12.709,0,0,1,617.71,420h4.58A12.709,12.709,0,0,1,635,432.71v49.437A7.853,7.853,0,0,0,642.853,490h24.294A7.853,7.853,0,0,0,675,482.147V432.71A12.709,12.709,0,0,1,687.71,420h4.58A12.709,12.709,0,0,1,705,432.71Z" transform="translate(-293.5 -373.647)"/><path class="cls-3" d="M485,580a99.978,99.978,0,0,0,99.98-98.71A50,50,0,0,1,485,480a50,50,0,0,0-99.98-1.29c-.01.43-.02.86-.02,1.29s.01.86.02,1.29A99.978,99.978,0,0,0,485,580Z" transform="translate(-293.5 -373.647)"/><path class="cls-4" d="M535,530a50,50,0,0,0,49.98-48.71c.01-.43.02-.86.02-1.29s-.01-.86-.02-1.29a99.988,99.988,0,0,0-199.96,0A50,50,0,0,1,485,480,50.005,50.005,0,0,0,535,530Z" transform="translate(-293.5 -373.647)"/><circle class="cls-5" cx="191.5" cy="106.353" r="50"/></g></svg>