<svg xmlns="http://www.w3.org/2000/svg" viewBox="0 0 475.35 350"><defs><style>.cls-1{fill:#121221;}.cls-2{fill:#366ce1;}</style></defs><title>Jract</title><g id="Слой_2" data-name="Слой 2"><g id="Complete"><g id="Jract"><path class="cls-1" d="M237.675,120a30,30,0,1,0,30,30A30,30,0,0,0,237.675,120Zm0,40a10,10,0,1,1,10-10A10,10,0,0,1,237.675,160Z"/><path class="cls-1" d="M297.675,60a30,30,0,1,0,30,30A30,30,0,0,0,297.675,60Zm0,40a10,10,0,1,1,10-10A10,10,0,0,1,297.675,100Z"/><path class="cls-1" d="M177.675,60a30,30,0,1,0,30,30A30,30,0,0,0,177.675,60Zm0,40a10,10,0,1,1,10-10A10,10,0,0,1,177.675,100Z"/><path class="cls-1" d="M237.675,0a30,30,0,1,0,30,30A30,30,0,0,0,237.675,0Zm0,40a10,10,0,1,1,10-10A10,10,0,0,1,237.675,40Z"/><polygon class="cls-2" points="287.675 54.14 251.815 90 287.675 125.86 287.675 140 273.535 140 237.675 104.14 201.815 140 187.675 140 187.675 125.86 223.535 90 187.675 54.14 187.675 40 201.825 40 237.675 75.85 273.525 40 287.675 40 287.675 54.14"/><path class="cls-1" d="M350.16,276.86q6.255,8.22,12.49,16.43a50,50,0,1,1,0-66.58q-6.24,8.22-12.49,16.43a30,30,0,1,0,0,33.72Z"/><path class="cls-1" d="M245.35,210v8.85c-48.21-29.19-98.49,19.12-73.26,67.38,3.19,6.11,10.81,13.76,16.91,16.96,20.82,10.95,41.7,7.82,56.35-3.2V310h20V210Zm-5.37,68.09a19.481,19.481,0,0,1-6.54,6.54c-29.75,18.1-60.82-12.97-42.72-42.72a19.481,19.481,0,0,1,6.54-6.54c23.63-14.38,48.09,2.26,48.09,24.62A34.743,34.743,0,0,1,239.98,278.09Z"/><path class="cls-1" d="M171.07,217.13q-5.145,8.58-10.29,17.15A29.99,29.99,0,0,0,115.35,260v50h-20V210h20v10.01a49.958,49.958,0,0,1,55.72-2.88Z"/><path class="cls-1" d="M85.35,210v90A49.992,49.992,0,0,1,0,335.35l14.14-14.14A30,30,0,0,0,65.35,300V230h-25q-12.495-10-25-20Z"/><path class="cls-1" d="M475.35,240v20a50,50,0,0,1-100,0V170h20v50.01a49.726,49.726,0,0,1,30-10.01h20l-20,20a30,30,0,1,0,30,30Z"/></g></g></g></svg>