<svg xmlns="http://www.w3.org/2000/svg" viewBox="0 0 494.746 100"><defs><style>.cls-1{fill:#121221;}</style></defs><title>jumio</title><g id="Слой_2" data-name="Слой 2"><g id="Work_space" data-name="Work space"><g id="jumio"><polygon class="cls-1" points="370 20 370 80 390 80 390 100 330 100 330 80 350 80 350 20 330 20 330 0 390 0 390 20 370 20"/><polygon class="cls-1" points="320 0 320 100 300 100 300 30.59 283.2 50.05 269.99 65.36 256.78 50.05 240 30.62 240 100 220 100 220 0 240 0 240 0.01 269.99 34.75 299.98 0 320 0"/><path class="cls-1" d="M444.746,0a50,50,0,1,0,50,50A50.005,50.005,0,0,0,444.746,0Zm0,80a30,30,0,1,1,30-30A30,30,0,0,1,444.746,80Z"/><path class="cls-1" d="M210,0V50a50,50,0,0,1-100,0V0h20V50a30,30,0,0,0,60,0V0Z"/><path class="cls-1" d="M100,0V50A50,50,0,0,1,0,50H20a30,30,0,0,0,60,0V20H0V0Z"/></g></g></g></svg>