<svg xmlns="http://www.w3.org/2000/svg" viewBox="0 0 760 220"><defs><style>.cls-1{fill:#366ce1;}.cls-2{fill:#121221;}</style></defs><title>juniper network</title><g id="Слой_2" data-name="Слой 2"><g id="Work_space" data-name="Work space"><g id="juniper_network" data-name="juniper network"><polygon class="cls-1" points="380 20 380 80 400 80 400 100 340 100 340 80 360 80 360 20 340 20 340 0 400 0 400 20 380 20"/><polygon class="cls-2" points="100 120 100 220 80 220 20 150.59 20 220 0 220 0 120 20 120 80 189.41 80 120 100 120"/><polygon class="cls-1" points="320 0 320 100 300 100 240 30.59 240 100 220 100 220 0 240 0 300 69.41 300 0 320 0"/><polygon class="cls-2" points="330 220 330 120 350 120 350 189.41 366.8 169.95 380.01 154.64 393.22 169.95 410 189.38 410 120 430 120 430 220 410 220 410 219.99 380.01 185.25 350.02 220 330 220"/><polygon class="cls-2" points="130 140 130 160 210 160 210 180 130 180 130 200 210 200 210 220 110 220 110 120 210 120 210 140 130 140"/><polygon class="cls-1" points="540 20 540 40 620 40 620 60 540 60 540 80 620 80 620 100 520 100 520 0 620 0 620 20 540 20"/><path class="cls-1" d="M730,30A30,30,0,0,0,700,0H630V100h20V60h50a10,10,0,0,1,10,10v30h20V70a29.862,29.862,0,0,0-7.65-20A29.862,29.862,0,0,0,730,30ZM650,40V20h50a10,10,0,0,1,0,20Z"/><path class="cls-2" d="M650,150a30,30,0,0,0-30-30H550V220h20V180h50a10,10,0,0,1,10,10v30h20V190a29.862,29.862,0,0,0-7.65-20A29.862,29.862,0,0,0,650,150Zm-80,10V140h50a10,10,0,0,1,0,20Z"/><path class="cls-2" d="M490,120a50,50,0,1,0,50,50A50.005,50.005,0,0,0,490,120Zm0,80a30,30,0,1,1,30-30A30,30,0,0,1,490,200Z"/><polygon class="cls-2" points="760 219.99 760 220 730.13 220 689.51 183.43 680 192 680 220 660 220 660 120 680 120 680 165.09 689.51 156.52 730.07 120 759.97 120 704.46 169.98 760 219.99"/><path class="cls-1" d="M480,0H410V100h20V60h50a30,30,0,0,0,0-60Zm0,40H430V20h50a10,10,0,0,1,0,20Z"/><polygon class="cls-2" points="320 120 320 140 280 140 280 220 260 220 260 140 220 140 220 120 320 120"/><path class="cls-1" d="M210,0V50a50,50,0,0,1-100,0V0h20V50a30,30,0,0,0,60,0V0Z"/><path class="cls-1" d="M100,0V50A49.992,49.992,0,0,1,14.65,85.35L28.79,71.21A30,30,0,0,0,80,50V20H20L0,0Z"/></g></g></g></svg>