<svg xmlns="http://www.w3.org/2000/svg" viewBox="0 0 1540.588 250"><defs><style>.cls-1{fill:#366ce1;}.cls-2,.cls-3,.cls-4,.cls-5{fill:#121221;}.cls-3{opacity:0.33;}.cls-4{opacity:0.66;}.cls-5{opacity:0.99;}</style></defs><title>just in mind</title><g id="Слой_2" data-name="Слой 2"><g id="Work_space" data-name="Work space"><g id="just_in_mind" data-name="just in mind"><polygon class="cls-1" points="1200 120 1200 220 1180 220 1120 150.59 1120 220 1100 220 1100 120 1120 120 1180 189.41 1180 120 1200 120"/><polygon class="cls-2" points="760 120 760 220 740 220 680 150.59 680 220 660 220 660 120 680 120 740 189.41 740 120 760 120"/><path class="cls-1" d="M1260,120h-50V220h50a50,50,0,0,0,0-100Zm0,80h-30V140h30a30,30,0,0,1,0,60Z"/><polygon class="cls-1" points="980 120 980 220 960 220 960 150.59 943.2 170.05 929.99 185.36 916.78 170.05 900 150.62 900 220 880 220 880 120 900 120 900 120.01 929.99 154.75 959.98 120 980 120"/><path class="cls-1" d="M240,150a10,10,0,0,0,10,10h40a30,30,0,0,1,0,60H220V200h70a10,10,0,0,0,0-20H250a30,30,0,0,1,0-60h70v20H250A10,10,0,0,0,240,150Z"/><path class="cls-1" d="M210,120v50a50,50,0,0,1-100,0V120h20v50a30,30,0,0,0,60,0V120Z"/><polygon class="cls-2" points="610 140 610 200 650 200 650 220 550 220 550 200 590 200 590 140 550 140 550 120 650 120 650 140 610 140"/><polygon class="cls-1" points="1050 140 1050 200 1090 200 1090 220 990 220 990 200 1030 200 1030 140 990 140 990 120 1090 120 1090 140 1050 140"/><polygon class="cls-1" points="430 120 430 140 390 140 390 220 370 220 370 140 330 140 330 120 430 120"/><path class="cls-1" d="M100,120v50a49.992,49.992,0,0,1-85.35,35.35l14.14-14.14A30,30,0,0,0,80,170V140H20L0,120Z"/><circle class="cls-1" cx="1467.059" cy="73.529" r="73.529"/><circle class="cls-1" cx="1408.235" cy="191.176" r="36.765"/><circle class="cls-1" cx="1338.382" cy="231.618" r="18.382"/><circle class="cls-3" cx="1467.059" cy="73.529" r="73.529"/><circle class="cls-4" cx="1408.235" cy="191.176" r="36.765"/><circle class="cls-5" cx="1338.382" cy="231.618" r="18.382"/></g></g></g></svg>