<svg id="Main" xmlns="http://www.w3.org/2000/svg" viewBox="0 0 240 100"><defs><style>.cls-1{fill:#366ce1;}</style></defs><title>k3d</title><g id="k3d"><rect class="cls-1" y="10" width="20" height="80"/><circle class="cls-1" cx="10" cy="90" r="10"/><circle class="cls-1" cx="10" cy="10" r="10"/><rect class="cls-1" x="415.858" y="455.858" width="20" height="40" transform="translate(-591.751 40.503) rotate(-45)"/><circle class="cls-1" cx="60" cy="90" r="10"/><circle class="cls-1" cx="31.716" cy="61.716" r="10"/><circle class="cls-1" cx="40" cy="40" r="10"/><rect class="cls-1" x="460" y="430" width="20" height="40" transform="translate(540 -420) rotate(90)"/><circle class="cls-1" cx="70" cy="50" r="10"/><circle class="cls-1" cx="110" cy="50" r="10"/><path class="cls-1" d="M543.63,450A33.488,33.488,0,0,1,550,470c0,16.57-11.19,30-25,30H500V480h25c2.76,0,5-4.48,5-10s-2.24-10-5-10c-7.4,0-14.05-3.86-18.63-10,4.58-6.14,11.23-10,18.63-10,2.76,0,5-4.48,5-10s-2.24-10-5-10H500V400h25c13.81,0,25,13.43,25,30A33.488,33.488,0,0,1,543.63,450Z" transform="translate(-380 -400)"/><path class="cls-1" d="M590,400H560V500h30c16.57,0,30-22.39,30-50S606.57,400,590,400Zm0,80H580V420h10c5.52,0,10,13.43,10,30S595.52,480,590,480Z" transform="translate(-380 -400)"/></g></svg>