<svg xmlns="http://www.w3.org/2000/svg" viewBox="0 0 750 100"><defs><style>.cls-1{fill:#121221;}.cls-2{fill:#366ce1;}</style></defs><title>Katana</title><g id="Слой_2" data-name="Слой 2"><g id="Work_space" data-name="Work space"><g id="Katana"><path class="cls-1" d="M600,35V65H300l30-30Z"/><rect class="cls-1" x="570" y="35" width="90" height="30" rx="2.423" transform="translate(565 665) rotate(-90)"/><rect class="cls-1" x="660" y="-25" width="30" height="150" transform="translate(625 725) rotate(-90)"/><polygon class="cls-2" points="480 0 480 100 460 100 400 30.59 400 100 380 100 380 0 400 0 460 69.41 460 0 480 0"/><polygon class="cls-2" points="100 99.99 100 100 70.13 100 29.51 63.43 20 72 20 100 0 100 0 0 20 0 20 45.09 29.51 36.52 70.07 0 99.97 0 44.46 49.98 100 99.99"/><path class="cls-2" d="M330.77,1.95,329.99,0H310.01l-.78,1.94L270,100h21.55l11.2-28h34.5l11.2,28H370ZM310.75,52,320,28.87,329.25,52Z"/><path class="cls-2" d="M550.77,1.95,549.99,0H530.01l-.78,1.94L490,100h21.55l11.2-28h34.5l11.2,28H590ZM530.75,52,540,28.87,549.25,52Z"/><path class="cls-2" d="M170.77,1.95,169.99,0H150.01l-.78,1.94L110,100h21.55l11.2-28h34.5l11.2,28H210ZM150.75,52,160,28.87,169.25,52Z"/><polygon class="cls-2" points="289 0 289 20 249 20 249 100 229 100 229 20 189 20 189 0 289 0"/><path class="cls-1" d="M194.72,55l-4.51-10L170.5,1.27l.01-.01L170.02.18h-.01L169.93,0h-9.84l-.08.18V.2l-.47,1.05h-.01L139.81,45,135.3,55l-20.28,45h10.97l20.28-45h37.48l20.28,45H215Zm-19.71-2.96-.02-.04h.02ZM150.78,45l14.23-31.58L179.25,45Z"/><path class="cls-1" d="M349.7,55l-4.51-10L325.48,1.27l.01-.01L325,.18h-.01L324.91,0h-9.84l-.08.18V.2l-.47,1.05h-.01L294.79,45l-4.51,10L270,100h10.97l20.28-45h37.48l20.28,45h10.97Zm-19.71-2.96-.02-.04h.02ZM305.76,45l14.23-31.58L334.23,45Z"/><path class="cls-1" d="M569.72,55l-4.51-10L545.5,1.27l.01-.01L545.02.18h-.01L544.93,0h-9.84l-.08.18V.2l-.47,1.05h-.01L514.81,45,510.3,55l-20.28,45h10.97l20.28-45h37.48l20.28,45H590Zm-19.71-2.96-.02-.04h.02ZM525.78,45l14.23-31.58L554.25,45Z"/><polygon class="cls-1" points="292 0 292 10 247 10 247 100 237 100 237 10 192 10 192 0 292 0"/><polygon class="cls-1" points="480 0 480 100 470.07 100 470 99.92 390 14.59 390 100 380 100 380 0 390.02 0 470 85.3 470 0 480 0"/><polygon class="cls-1" points="105 100 90.85 100 47.91 57.05 15 89.97 15 100 5 100 5 0 15 0 15 75.83 40.84 49.98 47.91 42.91 90.82 0 104.96 0 54.98 49.98 105 100"/></g></g></g></svg>