<svg xmlns="http://www.w3.org/2000/svg" viewBox="0 0 1146.38 138.04"><defs><style>.cls-1{fill:#366ce1;}.cls-2,.cls-3,.cls-4,.cls-5{fill:#121221;}.cls-2{opacity:0.75;}.cls-4{opacity:0.5;}.cls-5{opacity:0.25;}</style></defs><title>kate hill</title><g id="Слой_2" data-name="Слой 2"><g id="Work_space" data-name="Work space"><g id="kate_hill" data-name="kate hill"><path class="cls-1" d="M1042.005,44.681a49.524,49.524,0,0,1-4.759-5.508,49.6,49.6,0,0,1-8.69-18.958,50.082,50.082,0,0,1,32.364,23.71,29.97,29.97,0,0,1,13.449-4.752,29.17,29.17,0,0,0,5.982,0,29.965,29.965,0,0,1,13.449,4.752,49.551,49.551,0,0,0-5.55,14.206,50.285,50.285,0,0,1-21.779,0,49.554,49.554,0,0,1-14.206-5.551A49.881,49.881,0,0,1,1042.005,44.681Z"/><path class="cls-1" d="M1028.556,117.824a50.087,50.087,0,0,1,23.709-32.364,29.97,29.97,0,0,1-4.752-13.449,29.17,29.17,0,0,0,0-5.982,29.97,29.97,0,0,1,4.752-13.449,49.554,49.554,0,0,0,14.206,5.551,50.28,50.28,0,0,1,0,21.778,50.032,50.032,0,0,1-37.915,37.915Z"/><path class="cls-1" d="M1088.25,79.909a50.28,50.28,0,0,1,0-21.778,50.033,50.033,0,0,1,37.915-37.916,49.6,49.6,0,0,1-8.691,18.958,49.524,49.524,0,0,1-4.759,5.508,49.881,49.881,0,0,1-10.26,7.9,29.97,29.97,0,0,1,4.752,13.449,29.17,29.17,0,0,0,0,5.982,29.97,29.97,0,0,1-4.752,13.449A49.559,49.559,0,0,0,1088.25,79.909Z"/><path class="cls-1" d="M1060.92,94.115a49.554,49.554,0,0,0,5.551-14.206,50.285,50.285,0,0,1,21.779,0,50.037,50.037,0,0,1,37.915,37.915A50.086,50.086,0,0,1,1093.8,94.115a29.965,29.965,0,0,1-13.449,4.752,29.17,29.17,0,0,0-5.982,0A29.97,29.97,0,0,1,1060.92,94.115Z"/><circle class="cls-1" cx="1077.36" cy="69.02" r="15.4" transform="translate(266.747 782.024) rotate(-45)"/><path class="cls-2" d="M1035.15,76.81a50.043,50.043,0,0,1-26.81-7.79,50.081,50.081,0,0,1,39.65-6.12,29.966,29.966,0,0,1,6.15-12.87,29.162,29.162,0,0,0,4.23-4.23,29.966,29.966,0,0,1,12.87-6.15,49.551,49.551,0,0,0,6.12,13.97,50.285,50.285,0,0,1-15.4,15.4,49.551,49.551,0,0,1-13.97,6.12A49.891,49.891,0,0,1,1035.15,76.81Z"/><path class="cls-3" d="M1077.36,138.04a50.081,50.081,0,0,1-6.12-39.65,29.966,29.966,0,0,1-12.87-6.15,29.162,29.162,0,0,0-4.23-4.23,29.966,29.966,0,0,1-6.15-12.87,49.551,49.551,0,0,0,13.97-6.12,50.285,50.285,0,0,1,15.4,15.4,50.032,50.032,0,0,1,0,53.62Z"/><path class="cls-4" d="M1092.76,69.02a50.285,50.285,0,0,1-15.4-15.4,50.021,50.021,0,0,1-7.26-34.07A49.6,49.6,0,0,1,1077.36,0a50.081,50.081,0,0,1,6.12,39.65,29.966,29.966,0,0,1,12.87,6.15,29.162,29.162,0,0,0,4.23,4.23,29.966,29.966,0,0,1,6.15,12.87A49.551,49.551,0,0,0,1092.76,69.02Z"/><path class="cls-5" d="M1083.48,98.39a49.551,49.551,0,0,0-6.12-13.97,50.285,50.285,0,0,1,15.4-15.4,50.032,50.032,0,0,1,53.62,0,50.043,50.043,0,0,1-26.81,7.79,49.891,49.891,0,0,1-12.84-1.67,29.966,29.966,0,0,1-6.15,12.87,29.162,29.162,0,0,0-4.23,4.23A29.966,29.966,0,0,1,1083.48,98.39Z"/><polygon class="cls-1" points="680 39.02 680 99.02 700 99.02 700 119.02 640 119.02 640 99.02 660 99.02 660 39.02 640 39.02 640 19.02 700 19.02 700 39.02 680 39.02"/><polygon class="cls-1" points="630 19.02 630 119.02 610 119.02 610 79.02 550 79.02 550 119.02 530 119.02 530 19.02 550 19.02 550 59.02 610 59.02 610 19.02 630 19.02"/><polygon class="cls-3" points="330 39.02 330 59.02 410 59.02 410 79.02 330 79.02 330 99.02 410 99.02 410 119.02 310 119.02 310 19.02 410 19.02 410 39.02 330 39.02"/><polygon class="cls-1" points="820 99.02 820 119.02 720 119.02 720 19.02 740 19.02 740 99.02 820 99.02"/><polygon class="cls-1" points="930 99.02 930 119.02 830 119.02 830 19.02 850 19.02 850 99.02 930 99.02"/><polygon class="cls-3" points="100 119.01 100 119.02 70.13 119.02 29.51 82.45 20 91.02 20 119.02 0 119.02 0 19.02 20 19.02 20 64.11 29.51 55.54 70.07 19.02 99.97 19.02 44.46 69 100 119.01"/><path class="cls-3" d="M170.77,20.97l-.78-1.95H150.01l-.78,1.94L110,119.02h21.55l11.2-28h34.5l11.2,28H210ZM150.75,71.02,160,47.89l9.25,23.13Z"/><polygon class="cls-3" points="300 19.02 300 39.02 260 39.02 260 119.02 240 119.02 240 39.02 200 39.02 200 19.02 300 19.02"/></g></g></g></svg>