<svg xmlns="http://www.w3.org/2000/svg" viewBox="0 0 942.351 187.956"><defs><style>.cls-1{fill:#366ce1;}.cls-2{opacity:0.38;}.cls-3,.cls-4{fill:#121221;}.cls-4{opacity:0.62;}</style></defs><title>katerra</title><g id="Слой_2" data-name="Слой 2"><g id="Work_space" data-name="Work space"><g id="katerra"><polygon class="cls-1" points="942.351 143.21 776.991 143.21 859.671 0 874.931 26.43 822.971 116.42 926.881 116.42 942.351 143.21"/><polygon class="cls-1" points="864.301 187.956 802.851 187.956 750.901 97.966 781.621 44.746 864.301 187.956"/><g class="cls-2"><polygon class="cls-3" points="942.351 143.21 776.991 143.21 859.671 0 874.931 26.43 822.971 116.42 926.881 116.42 942.351 143.21"/></g><polygon class="cls-4" points="864.301 187.956 802.851 187.956 750.901 97.966 781.621 44.746 864.301 187.956"/><polygon class="cls-1" points="320 63.978 320 83.978 400 83.978 400 103.978 320 103.978 320 123.978 400 123.978 400 143.978 300 143.978 300 43.978 400 43.978 400 63.978 320 63.978"/><path class="cls-1" d="M620,73.978a30,30,0,0,0-30-30H520v100h20v-40h50a10,10,0,0,1,10,10v30h20v-30a29.862,29.862,0,0,0-7.65-20A29.862,29.862,0,0,0,620,73.978Zm-80,10v-20h50a10,10,0,1,1,0,20Z"/><path class="cls-1" d="M510,73.978a30,30,0,0,0-30-30H410v100h20v-40h50a10,10,0,0,1,10,10v30h20v-30a29.862,29.862,0,0,0-7.65-20A29.862,29.862,0,0,0,510,73.978Zm-80,10v-20h50a10,10,0,1,1,0,20Z"/><polygon class="cls-1" points="100 143.968 100 143.978 70.13 143.978 29.51 107.408 20 115.978 20 143.978 0 143.978 0 43.978 20 43.978 20 89.068 29.51 80.498 70.07 43.978 99.97 43.978 44.46 93.958 100 143.968"/><path class="cls-1" d="M690.77,45.928l-.78-1.95H670.01l-.78,1.94L630,143.978h21.55l11.2-28h34.5l11.2,28H730Zm-20.02,50.05L680,72.848l9.25,23.13Z"/><path class="cls-1" d="M170.77,45.928l-.78-1.95H150.01l-.78,1.94L110,143.978h21.55l11.2-28h34.5l11.2,28H210Zm-20.02,50.05L160,72.848l9.25,23.13Z"/><polygon class="cls-1" points="290 43.978 290 63.978 250 63.978 250 143.978 230 143.978 230 63.978 190 63.978 190 43.978 290 43.978"/></g></g></g></svg>