<svg xmlns="http://www.w3.org/2000/svg" viewBox="0 0 1129.5 180"><defs><style>.cls-1{fill:#121221;}.cls-2{fill:#366ce1;}</style></defs><title>KeepTruckIn</title><g id="Слой_2" data-name="Слой 2"><g id="Complete"><g id="KeepTruckIn"><path class="cls-1" d="M205,110a35,35,0,1,0,35,35A35,35,0,0,0,205,110Zm0,50a15,15,0,1,1,15-15A15.005,15.005,0,0,1,205,160Z"/><circle class="cls-2" cx="205" cy="145" r="15"/><path class="cls-1" d="M55,110a35,35,0,1,0,35,35A35,35,0,0,0,55,110Zm0,50a15,15,0,1,1,15-15A15.005,15.005,0,0,1,55,160Z"/><circle class="cls-2" cx="55" cy="145" r="15"/><path class="cls-1" d="M360,80a50.005,50.005,0,0,0-50-50H260V80a50,50,0,0,0,100,0Zm-20,0a30,30,0,0,1-60,0V50h30A30,30,0,0,1,340,80Z"/><path class="cls-2" d="M340,80a30,30,0,0,0-30-30H280V80a30,30,0,0,0,60,0Z"/><path class="cls-1" d="M310,40a50.005,50.005,0,0,0-50,50v50h50a50,50,0,0,0,0-100Zm0,20a30,30,0,0,1,0,60H280V90A30,30,0,0,1,310,60Z"/><path class="cls-2" d="M310,50a30,30,0,0,0-30,30v30h30a30,30,0,0,0,0-60Z"/><path class="cls-2" d="M0,0V140H260V0ZM230,110H30V30H230Z"/><rect class="cls-1" x="30" y="30" width="200" height="80"/><polygon class="cls-1" points="1040.5 43.816 1040.5 103.816 1060.5 103.816 1060.5 123.816 1000.5 123.816 1000.5 103.816 1020.5 103.816 1020.5 43.816 1000.5 43.816 1000.5 23.816 1060.5 23.816 1060.5 43.816 1040.5 43.816"/><path class="cls-1" d="M1129.5,93.026v30.79h-12.316V93.026a18.474,18.474,0,0,0-36.947,0v30.79h-12.316V62.237h12.316V68.4A30.783,30.783,0,0,1,1129.5,93.026Z"/><path class="cls-1" d="M913.567,104.987q3.852,5.063,7.691,10.118a30.79,30.79,0,1,1,0-41q-3.841,5.061-7.691,10.117a18.474,18.474,0,1,0,0,20.764Z"/><path class="cls-1" d="M800.5,94.605V63.816h12.316V94.605a18.474,18.474,0,1,0,36.947,0V63.816h12.316V125.4H849.763v-6.164A30.783,30.783,0,0,1,800.5,94.605Z"/><path class="cls-1" d="M795.128,66.627q-3.17,5.285-6.337,10.561a18.468,18.468,0,0,0-27.975,15.838v30.79H748.5V62.237h12.316V68.4a30.765,30.765,0,0,1,34.312-1.774Z"/><polygon class="cls-1" points="760.5 23.816 760.5 43.816 720.5 43.816 720.5 123.816 700.5 123.816 700.5 43.816 660.5 43.816 660.5 23.816 760.5 23.816"/><polygon class="cls-1" points="988.5 123.81 988.5 123.816 970.106 123.816 945.093 101.296 939.237 106.574 939.237 123.816 926.921 123.816 926.921 37.605 939.237 37.605 939.237 90.003 945.093 84.725 970.069 62.237 988.482 62.237 954.299 93.014 988.5 123.81"/><polygon class="cls-2" points="490.5 123.806 490.5 123.816 460.63 123.816 420.01 87.246 410.5 95.816 410.5 123.816 390.5 123.816 390.5 23.816 410.5 23.816 410.5 68.906 420.01 60.336 460.57 23.816 490.47 23.816 434.96 73.796 490.5 123.806"/><path class="cls-2" d="M543.457,100.763a30.794,30.794,0,0,0,0-12.316,30.79,30.79,0,0,0-60.335,0,30.794,30.794,0,0,0,0,12.316,30.781,30.781,0,0,0,50.907,16.59q-4.9-3.927-9.815-7.852a18.469,18.469,0,0,1-28.339-8.738ZM513.289,76.132A18.46,18.46,0,0,1,530.7,88.447H495.875A18.46,18.46,0,0,1,513.289,76.132Z"/><path class="cls-2" d="M610.194,100.763a30.794,30.794,0,0,0,0-12.316,30.79,30.79,0,0,0-60.335,0,30.794,30.794,0,0,0,0,12.316,30.781,30.781,0,0,0,50.907,16.59q-4.9-3.927-9.816-7.852a18.468,18.468,0,0,1-28.338-8.738ZM580.026,76.132a18.46,18.46,0,0,1,17.415,12.315H562.612A18.46,18.46,0,0,1,580.026,76.132Z"/><path class="cls-2" d="M646.763,63.816H615.974v92.368h12.315V125.4h18.474a30.79,30.79,0,1,0,0-61.579Zm0,49.263H628.289V76.132h18.474a18.474,18.474,0,1,1,0,36.947Z"/></g></g></g></svg>