<svg id="Complete" xmlns="http://www.w3.org/2000/svg" viewBox="0 0 840 300"><defs><style>.cls-1{fill:#121221;}.cls-2{fill:#366ce1;}</style></defs><title>keras</title><g id="keras"><polygon class="cls-1" points="29.22 143.39 0 172.61 0 114.17 29.22 143.39"/><polygon class="cls-1" points="100 0 100 72.61 99.93 72.68 27.25 0 100 0"/><polygon class="cls-2" points="100 72.61 100 72.75 99.93 72.68 100 72.61"/><polygon class="cls-1" points="100 214.17 100 300 14.03 300 99.93 214.1 100 214.17"/><polygon class="cls-2" points="100 214.03 100 214.17 99.93 214.1 100 214.03"/><polygon class="cls-2" points="99.93 72.68 100 72.61 100 72.75 99.93 72.68"/><polygon class="cls-2" points="100 72.75 100 214.03 99.93 214.1 14.03 300 0 300 0 172.61 29.22 143.39 0 114.17 0 0 27.25 0 100 72.75"/><polygon class="cls-1" points="300 14.03 170.64 143.39 300 272.75 300 300 185.83 300 100 214.17 100 72.61 172.61 0 300 0 300 14.03"/><polygon class="cls-2" points="99.93 214.1 100 214.03 100 214.17 99.93 214.1"/><polygon class="cls-1" points="400 104.14 354.14 150 400 195.86 400 200 375.86 200 340 164.14 320 184.14 320 200 300 200 300 100 320 100 320 155.86 375.86 100 400 100 400 104.14"/><polygon class="cls-1" points="430 120 430 140 510 140 510 160 430 160 430 180 510 180 510 200 410 200 410 100 510 100 510 120 430 120"/><path class="cls-1" d="M720,530a30,30,0,0,0-30-30H620V600h20V560h50a10,10,0,0,1,10,10v30h20V570a29.862,29.862,0,0,0-7.65-20A29.862,29.862,0,0,0,720,530Zm-80,10V520h50a10,10,0,0,1,0,20Z" transform="translate(-100 -400)"/><path class="cls-1" d="M828.99,540a50,50,0,0,0-97.98,0A49.16,49.16,0,0,0,730,550v50h20V560h60v40h20V550A49.16,49.16,0,0,0,828.99,540Zm-77.27,0a29.994,29.994,0,0,1,56.56,0Z" transform="translate(-100 -400)"/><path class="cls-1" d="M860,530a10,10,0,0,0,10,10h40a30,30,0,0,1,0,60H840V580h70a10,10,0,0,0,0-20H870a30,30,0,0,1,0-60h70v20H870A10,10,0,0,0,860,530Z" transform="translate(-100 -400)"/></g></svg>