<svg xmlns="http://www.w3.org/2000/svg" viewBox="0 0 1620 100"><defs><style>.cls-1{fill:#121221;}</style></defs><title>key organisation</title><g id="Слой_2" data-name="Слой 2"><g id="Work_space" data-name="Work space"><g id="key_organisation" data-name="key organisation"><path class="cls-1" d="M490,0a50,50,0,1,0,50,50A50.005,50.005,0,0,0,490,0Zm0,90a40,40,0,1,1,40-40A40,40,0,0,1,490,90Z"/><path class="cls-1" d="M1460,0a50,50,0,1,0,50,50A50.005,50.005,0,0,0,1460,0Zm0,90a40,40,0,1,1,40-40A40,40,0,0,1,1460,90Z"/><polygon class="cls-1" points="120 10 120 45 210 45 210 55 120 55 120 90 210 90 210 100 110 100 110 0 210 0 210 10 120 10"/><path class="cls-1" d="M839.7,55l-4.51-10L815.48,1.27l.01-.01L815,.18h-.01L814.91,0h-9.84l-.08.18V.2l-.47,1.05h-.01L784.79,45l-4.51,10L760,100h10.97l20.28-45h37.48l20.28,45h10.97Zm-19.71-2.96-.02-.04h.02ZM795.76,45l14.23-31.58L824.23,45Z"/><path class="cls-1" d="M1239.72,55l-4.51-10L1215.5,1.27l.01-.01-.49-1.08h-.01l-.08-.18h-9.84l-.08.18V.2l-.47,1.05h-.01L1184.81,45l-4.51,10-20.28,45h10.97l20.28-45h37.48l20.28,45H1260Zm-19.71-2.96-.02-.04h.02ZM1195.78,45l14.23-31.58L1224.25,45Z"/><path class="cls-1" d="M636.57,55A29.994,29.994,0,0,0,620,0H550V100h10V60h60a19.994,19.994,0,0,1,20,20v20h10V80A29.923,29.923,0,0,0,636.57,55ZM610,52.04l-.02-.04H610ZM620,50H560V10h60a20,20,0,0,1,0,40Z"/><path class="cls-1" d="M1070,27.5A17.506,17.506,0,0,0,1087.5,45h45a27.5,27.5,0,0,1,7.5,53.95,26.911,26.911,0,0,1-7.5,1.05H1060V90h72.5a17.5,17.5,0,0,0,0-35h-45A27.5,27.5,0,0,1,1080,1.05,26.911,26.911,0,0,1,1087.5,0H1160V10h-72.5A17.506,17.506,0,0,0,1070,27.5Z"/><polygon class="cls-1" points="1020 10 1020 90 1050 90 1050 100 980 100 980 90 1010 90 1010 10 980 10 980 0 1050 0 1050 10 1020 10"/><polygon class="cls-1" points="1380 10 1380 90 1410 90 1410 100 1340 100 1340 90 1370 90 1370 10 1340 10 1340 0 1410 0 1410 10 1380 10"/><polygon class="cls-1" points="1330 0 1330 10 1285 10 1285 100 1275 100 1275 10 1230 10 1230 0 1330 0"/><polygon class="cls-1" points="970 0 970 100 960.07 100 960 99.92 880 14.59 880 100 870 100 870 0 880.02 0 960 85.3 960 0 970 0"/><polygon class="cls-1" points="1620 0 1620 100 1610.07 100 1610 99.92 1530 14.59 1530 100 1520 100 1520 0 1530.02 0 1610 85.3 1610 0 1620 0"/><polygon class="cls-1" points="100 100 85.85 100 42.91 57.05 10 89.97 10 100 0 100 0 0 10 0 10 75.83 35.84 49.98 42.91 42.91 85.82 0 99.96 0 49.98 49.98 100 100"/><polygon class="cls-1" points="320 0 276.74 48.16 275.01 50.09 275.01 100 265.01 100 265.01 50.06 263.3 48.16 220.04 0 233.49 0 270.02 40.68 306.56 0 320 0"/><path class="cls-1" d="M760,50a48.521,48.521,0,0,1-.25,5,50.016,50.016,0,1,1-14.4-40.35l-7.07,7.07A39.992,39.992,0,1,0,749.69,55H710V45h49.75A48.521,48.521,0,0,1,760,50Z"/></g></g></g></svg>