<svg id="Main" xmlns="http://www.w3.org/2000/svg" viewBox="0 0 580 641.805"><defs><style>.cls-1{fill:#366ce1;}.cls-2{fill:#1c1e20;}.cls-3{fill:#121221;}.cls-4{fill:none;stroke:#1c1e20;stroke-miterlimit:10;}</style></defs><title>key_logger</title><g id="Key_Logger" data-name="Key Logger"><g id="KeyLogger"><ellipse class="cls-1" cx="100" cy="331.805" rx="14.142" ry="141.421"/><ellipse class="cls-2" cx="240" cy="331.805" rx="14.142" ry="141.421"/><ellipse class="cls-1" cx="370" cy="460" rx="90.99" ry="10.99" transform="matrix(0.634, -0.773, 0.773, 0.634, -430.313, 276.307)"/><ellipse class="cls-2" cx="665" cy="460" rx="79.316" ry="12.608" transform="translate(-258.85 661.6) rotate(-62.687)"/><ellipse class="cls-1" cx="370" cy="560" rx="10.99" ry="90.99" transform="translate(-481.17 183.309) rotate(-39.345)"/><ellipse class="cls-2" cx="615" cy="460" rx="12.608" ry="79.316" transform="translate(-352.506 155.278) rotate(-27.313)"/><rect class="cls-2" x="250" y="231.805" width="100" height="20"/><rect class="cls-2" x="250" y="321.805" width="100" height="20"/><rect class="cls-2" x="250" y="411.805" width="100" height="20"/><path class="cls-3" d="M420,410v10l-70,90H340Z" transform="translate(-210 -178.195)"/><path class="cls-3" d="M420,610V600l-70-90H340Z" transform="translate(-210 -178.195)"/><rect class="cls-2" x="420" y="331.805" width="20" height="100"/><ellipse class="cls-2" cx="370" cy="541.805" rx="14.142" ry="141.421"/><rect class="cls-2" x="360" y="441.805" width="100" height="20"/><rect class="cls-2" x="360" y="531.805" width="100" height="20"/><rect class="cls-2" x="360" y="621.805" width="100" height="20"/><ellipse class="cls-2" cx="10" cy="541.805" rx="14.142" ry="141.421"/><rect class="cls-2" y="621.805" width="100" height="20"/><path class="cls-2" d="M380,620a50.005,50.005,0,0,0-50,50V770a50,50,0,0,0,100,0V670A50.005,50.005,0,0,0,380,620Zm30,150a30,30,0,0,1-60,0V670a30,30,0,0,1,60,0Z" transform="translate(-210 -178.195)"/><path class="cls-2" d="M769.99,710A50,50,0,0,0,740,620H690V820h20V750a30,30,0,0,1,60,0v70h20V750A49.9,49.9,0,0,0,769.99,710Zm-59.99.01v-.02a.01.01,0,0,1,0,.02ZM740,700a30,30,0,1,1,30-30A30,30,0,0,1,740,700Z" transform="translate(-210 -178.195)"/><path class="cls-2" d="M530,680V670a30,30,0,0,0-60,0V770a30,30,0,0,0,60,0V740H490V720h60v50a50,50,0,0,1-100,0V670a50,50,0,0,1,100,0v10Z" transform="translate(-210 -178.195)"/><path class="cls-4" d="M438.42,180V380h20V180h-10V370l90-190h-10l-60,130V290l50-110h-10l-40,100,40,100h10l-50-110V260l60,120h10l-70-130V240l80,140h10Z" transform="translate(-210 -178.195)"/><path class="cls-3" d="M579.633,258.787,558.42,280l21.213,21.213,7.071-7.071L572.562,280,586.7,265.858Z" transform="translate(-210 -178.195)"/><path class="cls-1" d="M580,280a10.048,10.048,0,0,0,10,10l10-10-10-10A10.048,10.048,0,0,0,580,280Z" transform="translate(-210 -178.195)"/></g></g></svg>