<svg id="Main" xmlns="http://www.w3.org/2000/svg" viewBox="0 0 650 190"><defs><style>.cls-1{fill:#121221;}</style></defs><title>keylogger</title><rect class="cls-1" y="60" width="30" height="10"/><rect class="cls-1" width="10" height="60"/><rect class="cls-1" width="30" height="10"/><rect class="cls-1" x="80" y="60" width="30" height="10"/><rect class="cls-1" x="80" width="10" height="60"/><rect class="cls-1" x="80" width="30" height="10"/><rect class="cls-1" x="20" y="20" width="10" height="30"/><rect class="cls-1" x="30" y="30" width="10" height="10"/><rect class="cls-1" x="40" y="20" width="10" height="10"/><rect class="cls-1" x="50" y="10" width="10" height="10"/><rect class="cls-1" x="60" width="10" height="10"/><rect class="cls-1" x="173" y="568" width="10" height="10" transform="translate(618 -133) rotate(90)"/><rect class="cls-1" x="183" y="578" width="10" height="10" transform="translate(638 -133) rotate(90)"/><rect class="cls-1" x="193" y="588" width="10" height="10" transform="translate(658 -133) rotate(90)"/><rect class="cls-1" x="120" width="10" height="10"/><rect class="cls-1" x="130" width="10" height="10"/><rect class="cls-1" x="140" width="10" height="10"/><rect class="cls-1" x="110" y="30" width="10" height="10"/><rect class="cls-1" x="120" y="30" width="10" height="10"/><rect class="cls-1" x="210" width="10" height="10"/><rect class="cls-1" x="160" width="10" height="10"/><rect class="cls-1" x="220" width="10" height="10"/><rect class="cls-1" x="190" y="30" width="10" height="10"/><rect class="cls-1" x="170" width="10" height="10"/><rect class="cls-1" x="130" y="30" width="10" height="10"/><rect class="cls-1" x="323" y="568" width="10" height="10" transform="translate(768 -283) rotate(90)"/><rect class="cls-1" x="323" y="578" width="10" height="10" transform="translate(778 -273) rotate(90)"/><rect class="cls-1" x="323" y="588" width="10" height="10" transform="translate(788 -263) rotate(90)"/><rect class="cls-1" x="200" y="10" width="10" height="10"/><rect class="cls-1" x="180" y="20" width="10" height="10"/><rect class="cls-1" x="200" y="20" width="10" height="10"/><rect class="cls-1" x="180" y="10" width="10" height="10"/><rect class="cls-1" x="90" y="30" width="10" height="10"/><rect class="cls-1" x="100" y="30" width="10" height="10"/><rect class="cls-1" x="120" y="60" width="10" height="10"/><rect class="cls-1" x="130" y="60" width="10" height="10"/><rect class="cls-1" x="140" y="60" width="10" height="10"/><rect class="cls-1" x="260" width="10" height="70"/><rect class="cls-1" x="280" y="60" width="50" height="10"/><rect class="cls-1" x="280" y="20" width="10" height="10"/><rect class="cls-1" x="280" y="30" width="10" height="10"/><rect class="cls-1" x="280" y="40" width="10" height="10"/><rect class="cls-1" x="340" y="20" width="10" height="10"/><rect class="cls-1" x="340" y="30" width="10" height="10"/><rect class="cls-1" x="340" y="40" width="10" height="10"/><rect class="cls-1" x="400" y="20" width="10" height="10"/><rect class="cls-1" x="400" y="30" width="10" height="10"/><rect class="cls-1" x="380" y="30" width="10" height="10"/><rect class="cls-1" x="400" y="40" width="10" height="10"/><rect class="cls-1" x="420" y="30" width="10" height="10"/><rect class="cls-1" x="420" y="40" width="10" height="10"/><rect class="cls-1" x="480" y="40" width="10" height="10"/><rect class="cls-1" x="420" y="50" width="10" height="10"/><rect class="cls-1" x="480" y="50" width="10" height="10"/><rect class="cls-1" x="460" y="40" width="10" height="10"/><rect class="cls-1" x="480" y="10" width="10" height="10"/><rect class="cls-1" x="460" width="10" height="10"/><rect class="cls-1" x="470" width="10" height="10"/><rect class="cls-1" x="430" width="10" height="10"/><rect class="cls-1" x="420" y="10" width="10" height="10"/><rect class="cls-1" x="420" y="20" width="10" height="10"/><rect class="cls-1" x="300" y="40" width="10" height="10"/><rect class="cls-1" x="290" y="40" width="10" height="10"/><rect class="cls-1" x="350" y="60" width="10" height="10"/><rect class="cls-1" x="380" y="60" width="10" height="10"/><rect class="cls-1" x="390" y="60" width="10" height="10"/><rect class="cls-1" x="440" y="60" width="10" height="10"/><rect class="cls-1" x="430" y="60" width="10" height="10"/><rect class="cls-1" x="450" width="10" height="10"/><rect class="cls-1" x="440" width="10" height="10"/><rect class="cls-1" x="450" y="30" width="10" height="10"/><rect class="cls-1" x="470" y="30" width="10" height="10"/><rect class="cls-1" x="460" y="30" width="10" height="10"/><rect class="cls-1" x="460" y="60" width="10" height="10"/><rect class="cls-1" x="470" y="60" width="10" height="10"/><rect class="cls-1" x="450" y="40" width="10" height="10"/><rect class="cls-1" x="440" y="40" width="10" height="10"/><rect class="cls-1" x="450" y="60" width="10" height="10"/><rect class="cls-1" x="360" y="60" width="10" height="10"/><rect class="cls-1" x="370" y="40" width="10" height="10"/><rect class="cls-1" x="360" y="30" width="10" height="10"/><rect class="cls-1" x="350" width="10" height="10"/><rect class="cls-1" x="380" width="10" height="10"/><rect class="cls-1" x="370" y="20" width="10" height="10"/><rect class="cls-1" x="390" width="10" height="10"/><rect class="cls-1" x="360" width="10" height="10"/><rect class="cls-1" x="500" y="60" width="30" height="10"/><rect class="cls-1" x="500" width="10" height="60"/><rect class="cls-1" x="500" width="30" height="10"/><rect class="cls-1" x="580" y="60" width="30" height="10"/><rect class="cls-1" x="580" width="10" height="60"/><rect class="cls-1" x="580" width="30" height="10"/><rect class="cls-1" x="540" width="10" height="10"/><rect class="cls-1" x="550" width="10" height="10"/><rect class="cls-1" x="560" width="10" height="10"/><rect class="cls-1" x="620" width="10" height="10"/><rect class="cls-1" x="630" width="10" height="10"/><rect class="cls-1" x="620" y="30" width="10" height="10"/><rect class="cls-1" x="600" y="30" width="10" height="10"/><rect class="cls-1" x="600" y="40" width="10" height="10"/><rect class="cls-1" x="600" y="50" width="10" height="10"/><rect class="cls-1" x="630" y="30" width="10" height="10"/><rect class="cls-1" x="640" y="60" width="10" height="10"/><rect class="cls-1" x="640" y="50" width="10" height="10"/><rect class="cls-1" x="640" y="40" width="10" height="10"/><rect class="cls-1" x="640" y="20" width="10" height="10"/><rect class="cls-1" x="640" y="10" width="10" height="10"/><rect class="cls-1" x="530" y="30" width="10" height="10"/><rect class="cls-1" x="540" y="30" width="10" height="10"/><rect class="cls-1" x="550" y="30" width="10" height="10"/><rect class="cls-1" x="510" y="30" width="10" height="10"/><rect class="cls-1" x="520" y="30" width="10" height="10"/><rect class="cls-1" x="540" y="60" width="10" height="10"/><rect class="cls-1" x="550" y="60" width="10" height="10"/><rect class="cls-1" x="560" y="60" width="10" height="10"/><rect class="cls-1" x="220" y="150" width="10" height="30"/><rect class="cls-1" x="240" y="150" width="10" height="30"/><rect class="cls-1" x="260" y="110" width="10" height="30"/><rect class="cls-1" x="200" y="110" width="10" height="30"/><rect class="cls-1" x="363" y="608" width="10" height="30" transform="translate(858 -273) rotate(90)"/><rect class="cls-1" x="230" y="180" width="10" height="10"/><rect class="cls-1" x="250" y="140" width="10" height="10"/><rect class="cls-1" x="250" y="100" width="10" height="10"/><rect class="cls-1" x="210" y="100" width="10" height="10"/><rect class="cls-1" x="210" y="140" width="10" height="10"/><rect class="cls-1" x="440" y="110" width="10" height="30"/><rect class="cls-1" x="380" y="110" width="10" height="30"/><rect class="cls-1" x="543" y="608" width="10" height="30" transform="translate(1038 -453) rotate(90)"/><rect class="cls-1" x="543" y="668" width="10" height="30" transform="translate(1098 -393) rotate(90)"/><rect class="cls-1" x="430" y="140" width="10" height="10"/><rect class="cls-1" x="430" y="100" width="10" height="10"/><rect class="cls-1" x="390" y="100" width="10" height="10"/><rect class="cls-1" x="390" y="140" width="10" height="10"/><rect class="cls-1" x="280" y="120" width="100" height="10"/><rect class="cls-1" x="320" y="130" width="10" height="40"/><rect class="cls-1" x="280" y="130" width="10" height="20"/></svg>