<svg xmlns="http://www.w3.org/2000/svg" viewBox="0 0 820 280"><defs><style>.cls-1{fill:#121221;}.cls-2{fill:#366ce1;}</style></defs><title>kickdler</title><g id="Complete"><g id="kickdler"><polygon class="cls-1" points="100 279.99 100 280 71.72 280 35.84 244.12 20 259.95 20 280 0 280 0 180 20 180 20 231.67 21.7 229.98 35.84 215.83 71.67 180 99.95 180 49.98 229.97 100 279.99"/><polygon class="cls-1" points="390 279.99 390 280 361.72 280 325.84 244.12 310 259.95 310 280 290 280 290 180 310 180 310 231.67 311.7 229.98 325.84 215.83 361.67 180 389.95 180 339.98 229.97 390 279.99"/><polygon class="cls-1" points="160 200 160 260 180 260 180 280 120 280 120 260 140 260 140 200 120 200 120 180 180 180 180 200 160 200"/><path class="cls-1" d="M361.21,821.21l14.14,14.14a50,50,0,1,1,0-70.7l-14.14,14.14a30,30,0,1,0,0,42.42Z" transform="translate(-100 -570)"/><path class="cls-1" d="M550,750H500V850h50a50,50,0,0,0,0-100Zm0,80H520V770h30a30,30,0,0,1,0,60Z" transform="translate(-100 -570)"/><polygon class="cls-1" points="610 260 610 280 510 280 510 180 530 180 530 260 610 260"/><path class="cls-1" d="M808.99,810a50.01,50.01,0,0,0,0-20,50,50,0,0,0-97.98,0,50.01,50.01,0,0,0,0,20,49.987,49.987,0,0,0,82.67,26.94q-7.965-6.375-15.94-12.75A29.992,29.992,0,0,1,731.72,810ZM760,770a29.979,29.979,0,0,1,28.28,20H731.72A29.979,29.979,0,0,1,760,770Z" transform="translate(-100 -570)"/><path class="cls-1" d="M920,780a30,30,0,0,0-30-30H820V850h20V810h50a10,10,0,0,1,10,10v30h20V820a29.862,29.862,0,0,0-7.65-20A29.862,29.862,0,0,0,920,780Zm-80,10V770h50a10,10,0,0,1,0,20Z" transform="translate(-100 -570)"/><path class="cls-1" d="M450,570V710H590V570ZM570,690H470V590H570Z" transform="translate(-100 -570)"/><path class="cls-2" d="M520,610a30,30,0,1,0,30,30A30,30,0,0,0,520,610Zm0,40a10,10,0,1,1,10-10A10,10,0,0,1,520,650Z" transform="translate(-100 -570)"/></g></g></svg>