<svg xmlns="http://www.w3.org/2000/svg" viewBox="0 0 967.619 171.263"><defs><style>.cls-1{fill:#121221;}.cls-2{fill:#366ce1;}</style></defs><title>kony digital</title><g id="Слой_2" data-name="Слой 2"><g id="Work_space" data-name="Work space"><g id="kony_digital" data-name="kony digital"><polygon class="cls-1" points="915.238 88.012 915.238 135.631 905.714 135.631 877.143 102.579 877.143 135.631 867.619 135.631 867.619 88.012 877.143 88.012 905.714 121.065 905.714 88.012 915.238 88.012"/><polygon class="cls-1" points="767.619 88.012 767.619 135.631 758.095 135.631 729.524 102.579 729.524 135.631 720 135.631 720 88.012 729.524 88.012 758.095 121.065 758.095 88.012 767.619 88.012"/><polygon class="cls-1" points="820 135.627 820 135.631 805.776 135.631 786.433 118.217 781.905 122.298 781.905 135.631 772.381 135.631 772.381 88.012 781.905 88.012 781.905 109.484 786.433 105.403 805.748 88.012 819.986 88.012 793.552 111.812 820 135.627"/><path class="cls-1" d="M667.619,102.3a14.285,14.285,0,0,0-14.286-14.286H620v47.619h33.333a14.281,14.281,0,0,0,10.643-23.809A14.22,14.22,0,0,0,667.619,102.3Zm-38.1-4.762h23.809a4.762,4.762,0,1,1,0,9.524H629.524Zm23.809,28.572H629.524v-9.524h23.809a4.762,4.762,0,1,1,0,9.524Z"/><path class="cls-1" d="M696.557,88.941l-.371-.929h-9.515l-.371.924-18.681,46.695h10.262l5.333-13.333h16.429l5.333,13.333h10.262Zm-9.533,23.833,4.4-11.014,4.4,11.014Z"/><path class="cls-1" d="M967.619,107.06v4.762a23.416,23.416,0,0,1-.481,4.762,23.816,23.816,0,1,1-6.5-21.6l-6.733,6.734a14.286,14.286,0,1,0,3.366,14.862H943.81V107.06Z"/><polygon class="cls-1" points="848.571 97.536 848.571 126.108 862.857 126.108 862.857 135.631 824.762 135.631 824.762 126.108 839.048 126.108 839.048 97.536 824.762 97.536 824.762 88.012 862.857 88.012 862.857 97.536 848.571 97.536"/><path class="cls-2" d="M643.81,35.631H620V83.25h23.81a23.81,23.81,0,0,0,0-47.619Zm0,38.1H629.524V45.155H643.81a14.286,14.286,0,0,1,0,28.572Z"/><polygon class="cls-2" points="953.333 73.727 953.333 83.25 905.714 83.25 905.714 35.631 915.238 35.631 915.238 73.727 953.333 73.727"/><path class="cls-2" d="M882.271,36.56l-.371-.929h-9.514l-.372.924-18.681,46.7H863.6l5.334-13.333h16.428L890.69,83.25h10.262Zm-9.533,23.833,4.4-11.014,4.4,11.014Z"/><path class="cls-2" d="M762.857,54.679v4.762a23.416,23.416,0,0,1-.481,4.762,23.817,23.817,0,1,1-6.5-21.6q-3.364,3.363-6.733,6.733A14.286,14.286,0,1,0,752.514,64.2H739.048V54.679Z"/><polygon class="cls-2" points="696.19 45.155 696.19 73.727 710.476 73.727 710.476 83.25 672.381 83.25 672.381 73.727 686.667 73.727 686.667 45.155 672.381 45.155 672.381 35.631 710.476 35.631 710.476 45.155 696.19 45.155"/><polygon class="cls-2" points="791.429 45.155 791.429 73.727 805.714 73.727 805.714 83.25 767.619 83.25 767.619 73.727 781.905 73.727 781.905 45.155 767.619 45.155 767.619 35.631 805.714 35.631 805.714 45.155 791.429 45.155"/><polygon class="cls-2" points="858.095 35.631 858.095 45.155 839.048 45.155 839.048 83.25 829.524 83.25 829.524 45.155 810.476 45.155 810.476 35.631 858.095 35.631"/><polygon class="cls-2" points="500 35.631 500 135.631 480 135.631 420 66.221 420 135.631 400 135.631 400 35.631 420 35.631 480 105.041 480 35.631 500 35.631"/><path class="cls-2" d="M340,35.631a50,50,0,1,0,50,50A50.005,50.005,0,0,0,340,35.631Zm0,80a30,30,0,1,1,30-30A30,30,0,0,1,340,115.631Z"/><polygon class="cls-2" points="300 135.621 300 135.631 270.13 135.631 229.51 99.061 220 107.631 220 135.631 200 135.631 200 35.631 220 35.631 220 80.721 229.51 72.151 270.07 35.631 299.97 35.631 244.46 85.611 300 135.621"/><polygon class="cls-2" points="572.83 82.091 570 85.631 570.05 85.631 570.05 135.631 550.05 135.631 550.05 85.631 547.22 82.091 510.05 35.631 535.66 35.631 560.02 66.081 584.38 35.631 610 35.631 572.83 82.091"/><path class="cls-1" d="M66.865,167.405A18.694,18.694,0,1,1,47.6,135.363,18.695,18.695,0,0,0,28.33,103.32,18.694,18.694,0,0,1,9.063,71.278a56.084,56.084,0,0,1,57.8,96.127Z"/><path class="cls-1" d="M180.361,70.8a18.695,18.695,0,0,1-18.116,32.708,18.694,18.694,0,1,0-18.116,32.707,18.694,18.694,0,1,1-18.115,32.707A56.084,56.084,0,1,1,180.361,70.8Z"/><path class="cls-1" d="M151.626,18.362a18.694,18.694,0,0,0-37.383.665,18.694,18.694,0,1,1-37.383.665,18.695,18.695,0,0,0-37.384.665,56.084,56.084,0,0,0,112.15-2Z"/></g></g></g></svg>