<svg id="Main" xmlns="http://www.w3.org/2000/svg" viewBox="0 0 300 300"><defs><style>.cls-1{fill:#366ce1;}.cls-2{fill:#121221;}</style></defs><title>kotlin</title><g id="Kotlin"><path class="cls-1" d="M504.44,649.93c-1.47.05-2.95.07-4.44.07-1.71,0-3.42-.03-5.12-.09C498.07,649.92,501.25,649.92,504.44,649.93Z" transform="translate(-350 -350)"/><path class="cls-1" d="M505.15,350.09c-3.21-.01-6.41-.01-9.62-.02,1.48-.05,2.97-.07,4.47-.07C501.72,350,503.44,350.03,505.15,350.09Z" transform="translate(-350 -350)"/><path class="cls-1" d="M650,500c0,1.71-.03,3.42-.09,5.12-.06,2.01-.17,4.02-.32,6.01V488.87q.255,3.33.34,6.69C649.98,497.03,650,498.51,650,500Z" transform="translate(-350 -350)"/><path class="cls-1" d="M350.09,494.88c-.01,3.19-.01,6.37-.02,9.56-.05-1.47-.07-2.95-.07-4.44C350,498.29,350.03,496.58,350.09,494.88Z" transform="translate(-350 -350)"/><path class="cls-1" d="M504.44,649.93c-1.47.05-2.95.07-4.44.07-1.71,0-3.42-.03-5.12-.09C498.07,649.92,501.25,649.92,504.44,649.93Z" transform="translate(-350 -350)"/><path class="cls-1" d="M504.06,350.09c-2.59-.01-5.18-.01-7.77-.02,1.23-.05,2.46-.07,3.71-.07C501.36,350,502.71,350.03,504.06,350.09Z" transform="translate(-350 -350)"/><path class="cls-1" d="M650,500c0,1.56-.03,3.12-.09,4.67.01-2.87.01-5.73.02-8.6C649.98,497.37,650,498.68,650,500Z" transform="translate(-350 -350)"/><path class="cls-1" d="M350.41,649.59,350,650v-.41Z" transform="translate(-350 -350)"/><path class="cls-1" d="M650,350l-.41.41q-72.24-.165-144.47-.32h-1.06c-2.59-.01-5.18-.01-7.77-.02h-.73q-15.285-.03-30.56-.07Z" transform="translate(-350 -350)"/><path class="cls-2" d="M350.41,350.41q-.165,72.24-.32,144.47c-.01,3.19-.01,6.37-.02,9.56-.05-1.47-.07-2.95-.07-4.44V350Z" transform="translate(-350 -350)"/><path class="cls-1" d="M650,650h-.41v-.41Z" transform="translate(-350 -350)"/><path class="cls-1" d="M581.02,581.02,500,500,649.59,350.41q-72.24-.165-144.47-.32h-1.06c-2.59-.01-5.18-.01-7.77-.02h-.73q-15.285-.03-30.56-.07H350.41v.41q-.165,72.24-.32,144.47c-.01,3.19-.01,6.37-.02,9.56-.05-1.47-.07-2.95-.07-4.44V649.59h.41q72.24.165,144.47.32a149.445,149.445,0,0,1-100.94-43.85l25.04-25.04Q474.465,614.005,529.96,647l5.04,3H649.59v-.41l-43.53-43.53ZM418.98,418.98l-25.04-25.04a149.988,149.988,0,0,1,62.18-37.42Z" transform="translate(-350 -350)"/><path class="cls-2" d="M500,650c1.49,0,2.97-.02,4.44-.07-3.19-.01-6.37-.01-9.56-.02a149.445,149.445,0,0,1-100.94-43.85l25.04-25.04Q474.465,614.005,529.96,647l5.04,3Z" transform="translate(-350 -350)"/><path class="cls-1" d="M504.44,649.93c-1.47.05-2.95.07-4.44.07H350l.41-.41q72.24.165,144.47.32C498.07,649.92,501.25,649.92,504.44,649.93Z" transform="translate(-350 -350)"/><path class="cls-1" d="M650,350v.41h-.41Z" transform="translate(-350 -350)"/><path class="cls-2" d="M650,350.41V500c0-1.32-.02-2.63-.07-3.93-.01,2.87-.01,5.73-.02,8.6.06-1.55.09-3.11.09-4.67V650l-.41-.41-43.53-43.53-25.04-25.04L500,500,649.59,350.41Z" transform="translate(-350 -350)"/><path class="cls-1" d="M350.41,350v.41L350,350Z" transform="translate(-350 -350)"/><path class="cls-2" d="M456.12,356.52l-37.14,62.46-25.04-25.04A149.988,149.988,0,0,1,456.12,356.52Z" transform="translate(-350 -350)"/><path class="cls-1" d="M650,500c0,1.56-.03,3.12-.09,4.67.01-2.87.01-5.73.02-8.6C649.98,497.37,650,498.68,650,500Z" transform="translate(-350 -350)"/></g></svg>