<svg xmlns="http://www.w3.org/2000/svg" viewBox="0 0 780 200"><defs><style>.cls-1,.cls-3,.cls-4{fill:#121221;}.cls-2{fill:#366ce1;}.cls-3{opacity:0.62;}.cls-4{opacity:0.38;}</style></defs><title>kurbo by WW</title><g id="Слой_2" data-name="Слой 2"><g id="Work_space" data-name="Work space"><g id="kurbo_by_WW" data-name="kurbo by WW"><path class="cls-1" d="M320,70a30,30,0,0,0-30-30H220V140h20V100h50a10,10,0,0,1,10,10v30h20V110a29.862,29.862,0,0,0-7.65-20A29.862,29.862,0,0,0,320,70ZM240,80V60h50a10,10,0,0,1,0,20Z"/><path class="cls-1" d="M490,40a50,50,0,1,0,50,50A50.005,50.005,0,0,0,490,40Zm0,80a30,30,0,1,1,30-30A30,30,0,0,1,490,120Z"/><polygon class="cls-1" points="100 139.99 100 140 70.13 140 29.51 103.43 20 112 20 140 0 140 0 40 20 40 20 85.09 29.51 76.52 70.07 40 99.97 40 44.46 89.98 100 139.99"/><path class="cls-1" d="M430,70a30,30,0,0,0-30-30H330V140h70a29.991,29.991,0,0,0,22.35-50A29.862,29.862,0,0,0,430,70ZM350,60h50a10,10,0,0,1,0,20H350Zm50,60H350V100h50a10,10,0,0,1,0,20Z"/><polygon class="cls-2" points="780 100 760.22 199 760.04 198.09 760.04 199.92 760.02 200 740.04 200 740.04 197.95 739.83 199 730.03 149.97 720.23 199 720.04 198.04 720.04 199.97 720.03 200 700.04 200 700.04 198 699.84 199 680.06 100 700.45 100 710.04 147.97 719.62 100 740.44 100 750.03 147.97 759.61 100 780 100"/><polygon class="cls-2" points="780 0 760.22 99 760.04 98.09 760.04 99.92 760.02 100 740.04 100 740.04 97.95 739.83 99 730.03 49.97 720.23 99 720.04 98.04 720.04 99.97 720.03 100 700.04 100 700.04 98 699.84 99 680.06 0 700.45 0 710.04 47.97 719.62 0 740.44 0 750.03 47.97 759.61 0 780 0"/><polygon class="cls-3" points="779.94 100 760.16 199 759.98 198.09 759.98 199.92 759.96 200 739.98 200 739.98 197.95 739.77 199 729.97 149.97 720.17 199 719.98 198.04 719.98 199.97 719.97 200 699.98 200 699.98 198 699.78 199 680 100 700.39 100 709.98 147.97 719.56 100 740.38 100 749.97 147.97 759.55 100 779.94 100"/><polygon class="cls-4" points="779.94 0 760.16 99 759.98 98.09 759.98 99.92 759.96 100 739.98 100 739.98 97.95 739.77 99 729.97 49.97 720.17 99 719.98 98.04 719.98 99.97 719.97 100 699.98 100 699.98 98 699.78 99 680 0 700.39 0 709.98 47.97 719.56 0 740.38 0 749.97 47.97 759.55 0 779.94 0"/><path class="cls-1" d="M587.381,73.333a27.228,27.228,0,0,0-16.429,5.482V51.429H560v49.285a27.381,27.381,0,1,0,27.381-27.381Zm0,43.81a16.429,16.429,0,1,1,16.429-16.429A16.428,16.428,0,0,1,587.381,117.143Z"/><path class="cls-1" d="M210,40V90a50,50,0,0,1-100,0V40h20V90a30,30,0,0,0,60,0V40Z"/><path class="cls-1" d="M675,73.333v49.286a27.376,27.376,0,0,1-46.739,19.358L636,134.234a16.426,16.426,0,0,0,28.044-11.615v0a27.234,27.234,0,0,1-16.429,5.481,27.375,27.375,0,0,1-27.381-27.381V73.333H631.19V100.72a16.429,16.429,0,0,0,32.858,0V73.333Z"/></g></g></g></svg>