<svg xmlns="http://www.w3.org/2000/svg" viewBox="0 0 650 490"><defs><style>.cls-1{fill:#1c1e20;}.cls-2{fill:#366ce1;}.cls-3{fill:#121221;}</style></defs><title>lab folder</title><g id="Слой_2" data-name="Слой 2"><g id="Work_space" data-name="Work space"><g id="lab_folder" data-name="lab folder"><path class="cls-1" d="M590,200a49.768,49.768,0,0,0-22.19,5.19L512.62,150l55.19-55.19a49.964,49.964,0,1,0-22.63-22.63L490,127.36,434.82,72.18a50,50,0,1,0-22.63,22.63L467.38,150l-55.19,55.19a49.99,49.99,0,1,0,22.62,22.62L490,172.62l55.19,55.19A50,50,0,1,0,590,200Zm0-180a30,30,0,1,1-20,52.35A26.06,26.06,0,0,1,567.65,70,29.991,29.991,0,0,1,590,20ZM412.35,70A26.06,26.06,0,0,1,410,72.35,30.019,30.019,0,1,1,412.35,70ZM390,280a30,30,0,1,1,20-52.35,26.06,26.06,0,0,1,2.35,2.35A29.991,29.991,0,0,1,390,280Zm200,0a29.991,29.991,0,0,1-22.35-50,26.06,26.06,0,0,1,2.35-2.35A30,30,0,1,1,590,280Z"/><path class="cls-2" d="M420,50a29.862,29.862,0,0,1-7.65,20A26.06,26.06,0,0,1,410,72.35,29.993,29.993,0,1,1,420,50Z"/><path class="cls-2" d="M620,50a29.991,29.991,0,0,1-50,22.35A26.06,26.06,0,0,1,567.65,70,30,30,0,1,1,620,50Z"/><path class="cls-2" d="M620,250a30,30,0,1,1-52.35-20,26.06,26.06,0,0,1,2.35-2.35A29.991,29.991,0,0,1,620,250Z"/><path class="cls-2" d="M420,250a30.019,30.019,0,1,1-10-22.35,26.06,26.06,0,0,1,2.35,2.35A29.862,29.862,0,0,1,420,250Z"/><polygon class="cls-2" points="20 350 20 370 80 370 80 390 20 390 20 430 0 430 0 330 100 330 100 350 20 350"/><path class="cls-2" d="M380,330H330V430h50a50,50,0,0,0,0-100Zm0,80H350V350h30a30,30,0,0,1,0,60Z"/><polygon class="cls-2" points="460 350 460 370 540 370 540 390 460 390 460 410 540 410 540 430 440 430 440 330 540 330 540 350 460 350"/><polygon class="cls-2" points="320 410 320 430 220 430 220 330 240 330 240 410 320 410"/><polygon class="cls-2" points="100 290 100 310 0 310 0 210 20 210 20 290 100 290"/><path class="cls-2" d="M650,360a30,30,0,0,0-30-30H550V430h20V390h50a10,10,0,0,1,10,10v30h20V400a29.862,29.862,0,0,0-7.65-20A29.862,29.862,0,0,0,650,360Zm-80,10V350h50a10,10,0,0,1,0,20Z"/><path class="cls-2" d="M320,240a30,30,0,0,0-30-30H220V310h70a29.991,29.991,0,0,0,22.35-50A29.862,29.862,0,0,0,320,240Zm-80-10h50a10,10,0,0,1,0,20H240Zm50,60H240V270h50a10,10,0,0,1,0,20Z"/><path class="cls-2" d="M160,330a50,50,0,1,0,50,50A50.005,50.005,0,0,0,160,330Zm0,80a30,30,0,1,1,30-30A30,30,0,0,1,160,410Z"/><path class="cls-2" d="M170.77,211.95l-.78-1.95H150.01l-.78,1.94L110,310h21.55l11.2-28h34.5l11.2,28H210ZM150.75,262,160,238.87,169.25,262Z"/><path class="cls-3" d="M355,440a25,25,0,1,0,25,25A25,25,0,0,0,355,440Zm0,45a20,20,0,1,1,20-20A20,20,0,0,1,355,485Z"/><path class="cls-3" d="M204.14,479.14l3.535,3.535a25,25,0,1,1,0-35.35l-3.535,3.535a20,20,0,1,0,0,28.28Z"/><path class="cls-3" d="M534.14,479.14l3.535,3.535a25,25,0,1,1,0-35.35l-3.535,3.535a20,20,0,1,0,0,28.28Z"/><polygon class="cls-3" points="5 445 5 462.5 50 462.5 50 467.5 5 467.5 5 485 50 485 50 490 0 490 0 440 50 440 50 445 5 445"/><polygon class="cls-3" points="115 445 115 462.5 160 462.5 160 467.5 115 467.5 115 485 160 485 160 490 110 490 110 440 160 440 160 445 115 445"/><path class="cls-3" d="M318.285,467.5A15,15,0,0,0,310,440H275v50h5V470h30a10,10,0,0,1,10,10v10h5V480A14.961,14.961,0,0,0,318.285,467.5ZM305,466.02l-.01-.02H305Zm5-1.02H280V445h30a10,10,0,0,1,0,20Z"/><polygon class="cls-3" points="105 485 105 490 55 490 55 440 60 440 60 485 105 485"/><path class="cls-3" d="M555,453.75a8.753,8.753,0,0,0,8.75,8.75h22.5A13.748,13.748,0,0,1,590,489.475a13.456,13.456,0,0,1-3.75.525H550v-5h36.25a8.75,8.75,0,0,0,0-17.5h-22.5A13.748,13.748,0,0,1,560,440.525a13.456,13.456,0,0,1,3.75-.525H600v5H563.75A8.753,8.753,0,0,0,555,453.75Z"/><polygon class="cls-3" points="270 440 270 445 247.5 445 247.5 490 242.5 490 242.5 445 220 445 220 440 270 440"/><polygon class="cls-3" points="467.5 445 467.5 485 480 485 480 490 450 490 450 485 462.5 485 462.5 445 450 445 450 440 480 440 480 445 467.5 445"/><polygon class="cls-3" points="435 440 435 490 430.035 490 430 489.96 390 447.295 390 490 385 490 385 440 390.01 440 430 482.65 430 440 435 440"/></g></g></g></svg>