<svg xmlns="http://www.w3.org/2000/svg" viewBox="0 0 770 143.3"><defs><style>.cls-1{fill:#121221;}.cls-2,.cls-3,.cls-4{fill:#366ce1;}.cls-3{opacity:0.62;}.cls-4{opacity:0.38;}</style></defs><title>lace work</title><g id="Слой_2" data-name="Слой 2"><g id="Work_space" data-name="Work space"><g id="lace_work" data-name="lace work"><path class="cls-1" d="M243.936,97.979q4.467,5.871,8.921,11.735a35.715,35.715,0,1,1,0-47.557q-4.457,5.871-8.921,11.736a21.428,21.428,0,1,0,0,24.086Z"/><polygon class="cls-1" points="100 101.65 100 121.65 0 121.65 0 21.65 20 21.65 20 101.65 100 101.65"/><path class="cls-2" d="M460,50.221a35.715,35.715,0,1,0,35.714,35.715A35.718,35.718,0,0,0,460,50.221Zm0,57.143a21.429,21.429,0,1,1,21.429-21.428A21.427,21.427,0,0,1,460,107.364Z"/><path class="cls-1" d="M167.852,56.987c-34.649-21.768-71.178,12.977-53.04,47.688a33.83,33.83,0,0,0,12.079,12.113c14.872,7.821,29.788,5.585,40.252-2.288v7.15h14.286V81.639A29.1,29.1,0,0,0,167.852,56.987Zm-9.213,46.544c-21.251,12.928-43.448-9.269-30.52-30.52a13.988,13.988,0,0,1,4.67-4.67c21.252-12.929,43.449,9.268,30.52,30.52A13.988,13.988,0,0,1,158.639,103.531Z"/><path class="cls-1" d="M330.707,93.079a35.7,35.7,0,0,0,0-14.286,35.714,35.714,0,0,0-69.986,0,35.744,35.744,0,0,0,0,14.286,35.7,35.7,0,0,0,59.05,19.242q-5.688-4.552-11.385-9.107a21.424,21.424,0,0,1-32.872-10.135ZM295.714,64.507a21.412,21.412,0,0,1,20.2,14.286h-40.4A21.414,21.414,0,0,1,295.714,64.507Z"/><path class="cls-2" d="M560,55.314q-3.675,6.129-7.35,12.25A21.422,21.422,0,0,0,520.2,85.936V121.65H505.914V50.221H520.2v7.15A35.684,35.684,0,0,1,560,55.314Z"/><polygon class="cls-2" points="638.317 121.643 638.317 121.65 616.981 121.65 587.967 95.529 581.174 101.65 581.174 121.65 566.888 121.65 566.888 21.65 581.174 21.65 581.174 82.429 587.967 76.307 616.938 50.221 638.295 50.221 598.645 85.921 638.317 121.643"/><path class="cls-2" d="M408.3,50.221,397.969,91.55l-10.4-40.507-.214-.822h-10.65l-.022.079v-.079h-3.657l-.207.829L362.433,91.471l-10.307-41.25H337.4v.015l17.579,70.293.279,1.121H369.44l.272-1.071L380.19,79.771l10.5,40.886.25.993h10.736l.007-.029v.029h3.479l.264-1.043,17.6-70.386ZM394.54,86.643v.028l-.014-.028Zm0,33.95-.135.436.135-.458Z"/><polygon class="cls-2" points="394.54 86.671 394.526 86.643 394.54 86.643 394.54 86.671"/><polygon class="cls-2" points="394.54 120.593 394.405 121.029 394.54 120.571 394.54 120.593"/><polygon class="cls-2" points="394.54 120.593 394.405 121.029 394.54 120.571 394.54 120.593"/><path class="cls-1" d="M756.47.22q-42.735,49.32-85.49,98.64A16.354,16.354,0,0,1,670,93.3V16.18A16.175,16.175,0,0,1,686.18,0h67.64A15.453,15.453,0,0,1,756.47.22Z"/><path class="cls-1" d="M770,16.18V93.3a16.167,16.167,0,0,1-4.74,11.44l-33.82,33.82a16.175,16.175,0,0,1-22.88,0l-33.82-33.82a16.109,16.109,0,0,1-3.67-5.66q49.365-42.78,98.71-85.55A15.453,15.453,0,0,1,770,16.18Z"/><path class="cls-3" d="M756.47.22q-42.735,49.32-85.49,98.64A16.354,16.354,0,0,1,670,93.3V16.18A16.175,16.175,0,0,1,686.18,0h67.64A15.453,15.453,0,0,1,756.47.22Z"/><path class="cls-4" d="M770,16.18V93.3a16.167,16.167,0,0,1-4.74,11.44l-33.82,33.82a16.175,16.175,0,0,1-22.88,0l-33.82-33.82a16.109,16.109,0,0,1-3.67-5.66q49.365-42.78,98.71-85.55A15.453,15.453,0,0,1,770,16.18Z"/></g></g></g></svg>