<svg id="Main" xmlns="http://www.w3.org/2000/svg" viewBox="0 0 220 140"><defs><style>.cls-1{fill:#366ce1;}.cls-2{fill:#e1e0e0;}.cls-2,.cls-4{stroke:#1c1e20;stroke-miterlimit:10;}.cls-3{fill:#121221;}.cls-4{fill:#e1dfdf;}</style></defs><title>lan_wan</title><g id="LAN_WAN" data-name="LAN WAN"><path class="cls-1" d="M525,494.88H515a15,15,0,0,0-30,0H475a25,25,0,0,1,50,0Z" transform="translate(-390 -430)"/><path class="cls-1" d="M545,494.88H535a35,35,0,0,0-70,0H455a45,45,0,0,1,90,0Z" transform="translate(-390 -430)"/><path class="cls-1" d="M565,494.88H555a55,55,0,0,0-110,0H435a65,65,0,0,1,130,0Z" transform="translate(-390 -430)"/><path class="cls-2" d="M505,500a5,5,0,0,1-10,0,.487.487,0,0,1,.01-.12,4.991,4.991,0,0,1,9.98,0A.487.487,0,0,1,505,500Z" transform="translate(-390 -430)"/><path class="cls-3" d="M545,504.88V505a45,45,0,0,1-90,0v-.12h10V505a35,35,0,0,0,70,0v-.12Z" transform="translate(-390 -430)"/><path class="cls-3" d="M525,504.88V505a25,25,0,0,1-50,0v-.12h10V505a15,15,0,0,0,30,0v-.12Z" transform="translate(-390 -430)"/><path class="cls-3" d="M565,504.88V505a65,65,0,0,1-130,0v-.12h10V505a55,55,0,0,0,110,0v-.12Z" transform="translate(-390 -430)"/><path class="cls-3" d="M595,475a15.005,15.005,0,0,0-15,15v20a15,15,0,0,0,30,0V490A15.005,15.005,0,0,0,595,475Zm5,35a5,5,0,0,1-10,0V490a5,5,0,0,1,10,0Z" transform="translate(-390 -430)"/><path class="cls-4" d="M600,490v20a5,5,0,0,1-10,0v-5.12H515a5,5,0,0,1,0-10h75V490a5,5,0,0,1,10,0Z" transform="translate(-390 -430)"/><rect class="cls-3" y="45" width="30" height="50"/><polygon class="cls-2" points="100 64.88 100 74.88 20 74.88 20 85 10 85 10 55 20 55 20 64.88 100 64.88"/></g></svg>