<svg xmlns="http://www.w3.org/2000/svg" viewBox="0 0 1010 100"><defs><style>.cls-1{fill:#366ce1;}.cls-2,.cls-3{fill:#121221;}.cls-2{opacity:0.38;}.cls-3{opacity:0.62;}</style></defs><title>landingi</title><g id="Слой_2" data-name="Слой 2"><g id="Work_space" data-name="Work space"><g id="landingi"><polygon class="cls-1" points="620 0 620 100 600 100 540 30.59 540 100 520 100 520 0 540 0 600 69.41 600 0 620 0"/><polygon class="cls-1" points="320 0 320 100 300 100 240 30.59 240 100 220 100 220 0 240 0 300 69.41 300 0 320 0"/><path class="cls-1" d="M380,0H330V100h50A50,50,0,0,0,380,0Zm0,80H350V20h30a30,30,0,0,1,0,60Z"/><polygon class="cls-1" points="100 80 100 100 0 100 0 0 20 0 20 80 100 80"/><path class="cls-1" d="M170.77,1.95,169.99,0H150.01l-.78,1.94L110,100h21.55l11.2-28h34.5l11.2,28H210ZM150.75,52,160,28.87,169.25,52Z"/><path class="cls-1" d="M730,40V50a49.16,49.16,0,0,1-1.01,10,50.013,50.013,0,1,1-13.64-45.35L701.21,28.79A30,30,0,1,0,708.28,60H680V40Z"/><polygon class="cls-1" points="780 20 780 80 810 80 810 100 730 100 730 80 760 80 760 20 730 20 730 0 810 0 810 20 780 20"/><polygon class="cls-1" points="480 20 480 80 510 80 510 100 430 100 430 80 460 80 460 20 430 20 430 0 510 0 510 20 480 20"/><path class="cls-1" d="M900,50a30,30,0,0,1-30,30H830.01a49.96,49.96,0,0,1,0-60H870A30,30,0,0,1,900,50Z"/><path class="cls-1" d="M1010,50H990a30,30,0,0,0-30-30H870V0h90A50.005,50.005,0,0,1,1010,50Z"/><path class="cls-1" d="M1010,50a50.005,50.005,0,0,1-50,50H870V80h90a30,30,0,0,0,30-30Z"/><path class="cls-2" d="M1010,50H990a30,30,0,0,0-30-30H870V0h90A50.005,50.005,0,0,1,1010,50Z"/><path class="cls-3" d="M1010,50a50.005,50.005,0,0,1-50,50H870V80h90a30,30,0,0,0,30-30Z"/></g></g></g></svg>