<svg xmlns="http://www.w3.org/2000/svg" viewBox="0 0 555.591 200"><defs><style>.cls-1{fill:#121221;}.cls-2{fill:#366ce1;}</style></defs><title>leolabs</title><g id="Слой_2" data-name="Слой 2"><g id="Work_space" data-name="Work space"><g id="leolabs"><path class="cls-1" d="M50,53.465a50,50,0,1,0,50,50A50.005,50.005,0,0,0,50,53.465Zm0,80a30,30,0,1,1,30-30A30,30,0,0,1,50,133.465Z"/><path class="cls-2" d="M50,78.465a25,25,0,1,0,25,25A25,25,0,0,0,50,78.465Zm0,30a5,5,0,1,1,5-5A5,5,0,0,1,50,108.465Z"/><circle class="cls-1" cx="92.127" cy="51.535" r="5"/><path class="cls-2" d="M475.591,130a10,10,0,0,0,10,10h40a30,30,0,0,1,0,60h-70V180h70a10,10,0,0,0,0-20h-40a30,30,0,0,1,0-60h70v20h-70A10,10,0,0,0,475.591,130Z"/><polygon class="cls-1" points="255.591 20 255.591 40 335.591 40 335.591 60 255.591 60 255.591 80 335.591 80 335.591 100 235.591 100 235.591 0 335.591 0 335.591 20 255.591 20"/><polygon class="cls-1" points="225.591 80 225.591 100 125.591 100 125.591 0 145.591 0 145.591 80 225.591 80"/><polygon class="cls-2" points="225.591 180 225.591 200 125.591 200 125.591 100 145.591 100 145.591 180 225.591 180"/><path class="cls-1" d="M395.591,0a50,50,0,1,0,50,50A50.005,50.005,0,0,0,395.591,0Zm0,80a30,30,0,1,1,30-30A30,30,0,0,1,395.591,80Z"/><path class="cls-2" d="M445.591,130a30,30,0,0,0-30-30h-70V200h70a29.991,29.991,0,0,0,22.35-50A29.862,29.862,0,0,0,445.591,130Zm-80-10h50a10,10,0,0,1,0,20h-50Zm50,60h-50V160h50a10,10,0,0,1,0,20Z"/><path class="cls-2" d="M296.361,101.95l-.78-1.95H275.6l-.78,1.94L235.591,200h21.55l11.2-28h34.5l11.2,28h21.55ZM276.341,152l9.25-23.13,9.25,23.13Z"/></g></g></g></svg>