<svg xmlns="http://www.w3.org/2000/svg" viewBox="0 0 910 210"><defs><style>.cls-1{fill:#121221;}.cls-2{fill:#366ce1;}</style></defs><title>light field lab</title><g id="Слой_2" data-name="Слой 2"><g id="Work_space" data-name="Work space"><g id="light_field_lab" data-name="light field lab"><polygon class="cls-1" points="190 120 190 155 280 155 280 165 190 165 190 200 280 200 280 210 180 210 180 110 280 110 280 120 190 120"/><path class="cls-1" d="M779.7,165l-4.51-10-19.71-43.73.01-.01-.49-1.08h-.01l-.08-.18h-9.84l-.08.18v.02l-.47,1.05h-.01L724.79,155l-4.51,10L700,210h10.97l20.28-45h37.48l20.28,45h10.97Zm-19.71-2.96-.02-.04h.02ZM735.76,155l14.23-31.58L764.23,155Z"/><path class="cls-1" d="M450,110H400V210h50a50,50,0,0,0,0-100Zm0,90H410V120h40a40,40,0,0,1,0,80Z"/><polygon class="cls-1" points="390 200 390 210 290 210 290 110 300 110 300 200 390 200"/><polygon class="cls-1" points="690 200 690 210 590 210 590 110 600 110 600 200 690 200"/><polygon class="cls-2" points="100 90 100 100 0 100 0 0 10 0 10 90 100 90"/><polygon class="cls-2" points="380 55 300 55 300 100 290 100 290 0 300 0 300 45 380 45 380 0 390 0 390 100 380 100 380 55"/><polygon class="cls-2" points="500 0 500 10 455 10 455 100 445 100 445 10 400 10 400 0 500 0"/><polygon class="cls-2" points="145 10 145 90 170 90 170 100 110 100 110 90 135 90 135 10 110 10 110 0 170 0 170 10 145 10"/><polygon class="cls-1" points="145 120 145 200 170 200 170 210 110 210 110 200 135 200 135 120 110 120 110 110 170 110 170 120 145 120"/><path class="cls-1" d="M898.31,160A27.493,27.493,0,0,0,890,111.05a26.911,26.911,0,0,0-7.5-1.05H810V210h72.5a26.911,26.911,0,0,0,7.5-1.05A27.483,27.483,0,0,0,898.31,160ZM820,120h62.5a17.5,17.5,0,0,1,0,35H820Zm62.5,80H820V165h62.5a17.5,17.5,0,0,1,0,35Z"/><polygon class="cls-1" points="10 120 10 155 70 155 70 165 10 165 10 210 0 210 0 110 100 110 100 120 10 120"/><path class="cls-2" d="M280,50a48.521,48.521,0,0,1-.25,5,50.016,50.016,0,1,1-14.4-40.35l-7.07,7.07A39.992,39.992,0,1,0,269.69,55H230V45h49.75A48.521,48.521,0,0,1,280,50Z"/></g></g></g></svg>