<svg id="Main" xmlns="http://www.w3.org/2000/svg" viewBox="0 0 200.013 200.017"><defs><style>.cls-1{fill:#121221;}.cls-2{fill:#366ce1;}</style></defs><title>lisp</title><g id="Lisp"><path class="cls-1" d="M511.2,569.818a50,50,0,0,0,69.046-10.165c.26-.343.52-.685.772-1.034s.5-.7.74-1.056a99.988,99.988,0,0,0-162-117.216A50,50,0,0,1,500,500,50,50,0,0,0,511.2,569.818Z" transform="translate(-399.993 -399.991)"/><path class="cls-2" d="M441.381,581.017a99.977,99.977,0,0,0,138.864-21.364A50,50,0,0,1,500,500a50,50,0,0,0-80.245-59.653c-.26.343-.52.685-.772,1.034s-.5.7-.74,1.056A99.977,99.977,0,0,0,441.381,581.017Z" transform="translate(-399.993 -399.991)"/><path class="cls-2" d="M569.111,533.306c6.744-2.092,9.593-8.714,10.086-9.914-6.8,1.653-16.441,4.647-20.384-2.1-5.163-8.833-1.187-17.8-1.54-41.8-.4-27.131-15.488-43.1-27.3-46.527a16.47,16.47,0,0,0-10-.086c-6.35,2.135-9.289,8.127-10.087,9.913,3.638-1.254,11.972-3.494,20,.173,12.172,5.56,19.143,22.648,14.369,41.189A44.416,44.416,0,0,0,524.332,501.9a44.956,44.956,0,0,0-5.219,30.977l10,.087a34.788,34.788,0,0,1,1.22-21.378c5.037-12.752,13.752-16.885,16.085-17.913-2.292,15.835-.534,27.513,5.576,34.326C555.021,531.371,560.523,535.969,569.111,533.306Z" transform="translate(-399.993 -399.991)"/><path class="cls-1" d="M430.985,466.857c-6.752,2.066-9.626,8.677-10.124,9.875,6.805-1.627,16.459-4.584,20.376,2.176,5.13,8.853,1.12,17.8,1.382,41.809.3,27.133,15.326,43.158,27.121,46.629a16.46,16.46,0,0,0,10,.124c6.358-2.11,9.319-8.091,10.123-9.875-3.642,1.241-11.984,3.449-20-.248-12.152-5.606-19.058-22.72-14.214-41.243a44.411,44.411,0,0,0,20-17.669,44.962,44.962,0,0,0,5.336-30.957l-10-.124a34.8,34.8,0,0,1-1.3,21.373c-5.085,12.733-13.817,16.833-16.153,17.852,2.352-15.826.638-27.51-5.447-34.347C445.067,468.845,439.583,464.226,430.985,466.857Z" transform="translate(-399.993 -399.991)"/></g></svg>