<svg xmlns="http://www.w3.org/2000/svg" viewBox="0 0 1150 146.752"><defs><style>.cls-1{fill:#121221;}.cls-2{fill:#366ce1;}</style></defs><title>litmus automation</title><g id="Слой_2" data-name="Слой 2"><g id="Work_space" data-name="Work space"><g id="litmus_automation" data-name="litmus automation"><path class="cls-1" d="M440.255,0V146.752H293.5A146.767,146.767,0,0,0,146.752,0Z"/><path class="cls-2" d="M293.5,146.752H234.8a88.051,88.051,0,1,0-176.1,0H0a146.752,146.752,0,1,1,293.5,0Z"/><path class="cls-1" d="M234.8,146.752H58.7a88.051,88.051,0,1,1,176.1,0Z"/><polygon class="cls-1" points="569.664 13.341 569.664 53.364 583.005 53.364 583.005 66.705 542.981 66.705 542.981 53.364 556.323 53.364 556.323 13.341 542.981 13.341 542.981 0 583.005 0 583.005 13.341 569.664 13.341"/><polygon class="cls-2" points="989.907 93.387 989.907 133.411 1003.248 133.411 1003.248 146.752 963.225 146.752 963.225 133.411 976.566 133.411 976.566 93.387 963.225 93.387 963.225 80.046 1003.248 80.046 1003.248 93.387 989.907 93.387"/><polygon class="cls-2" points="1150 80.046 1150 146.752 1136.659 146.752 1096.636 100.452 1096.636 146.752 1083.295 146.752 1083.295 80.046 1096.636 80.046 1136.659 126.347 1136.659 80.046 1150 80.046"/><polygon class="cls-1" points="729.756 0 729.756 66.705 716.415 66.705 716.415 20.405 705.209 33.386 696.397 43.599 687.585 33.386 676.392 20.425 676.392 66.705 663.051 66.705 663.051 0 676.392 0 676.392 0.007 696.397 23.18 716.402 0 729.756 0"/><polygon class="cls-2" points="823.144 80.046 823.144 146.752 809.803 146.752 809.803 100.452 798.596 113.432 789.785 123.645 780.973 113.432 769.78 100.472 769.78 146.752 756.439 146.752 756.439 80.046 769.78 80.046 769.78 80.053 789.785 103.227 809.789 80.046 823.144 80.046"/><path class="cls-1" d="M823.144,20.012a6.672,6.672,0,0,0,6.67,6.67H856.5a20.012,20.012,0,0,1,0,40.023H809.8V53.364H856.5a6.671,6.671,0,0,0,0-13.341H829.814a20.012,20.012,0,0,1,0-40.023h46.694V13.341H829.814A6.672,6.672,0,0,0,823.144,20.012Z"/><polygon class="cls-1" points="536.311 53.364 536.311 66.705 469.606 66.705 469.606 0 482.947 0 482.947 53.364 536.311 53.364"/><path class="cls-2" d="M716.415,80.046A33.353,33.353,0,1,0,749.768,113.4,33.356,33.356,0,0,0,716.415,80.046Zm0,53.365A20.012,20.012,0,1,1,736.427,113.4,20.01,20.01,0,0,1,716.415,133.411Z"/><path class="cls-2" d="M1043.271,80.046a33.353,33.353,0,1,0,33.353,33.353A33.356,33.356,0,0,0,1043.271,80.046Zm0,53.365a20.012,20.012,0,1,1,20.012-20.012A20.01,20.01,0,0,1,1043.271,133.411Z"/><path class="cls-2" d="M510.142,81.347l-.52-1.3H496.294l-.52,1.294-26.168,65.412h14.375l7.471-18.678h23.013l7.471,18.678h14.375Zm-13.354,33.386,6.17-15.429,6.17,15.429Z"/><path class="cls-2" d="M870.351,81.347l-.52-1.3H856.5l-.52,1.294-26.169,65.412h14.375l7.471-18.678h23.014l7.471,18.678H896.52ZM857,114.733l6.17-15.429,6.17,15.429Z"/><polygon class="cls-2" points="676.392 80.046 676.392 93.387 649.71 93.387 649.71 146.752 636.369 146.752 636.369 93.387 609.687 93.387 609.687 80.046 676.392 80.046"/><polygon class="cls-1" points="656.381 0 656.381 13.341 629.698 13.341 629.698 66.705 616.357 66.705 616.357 13.341 589.675 13.341 589.675 0 656.381 0"/><polygon class="cls-2" points="956.555 80.046 956.555 93.387 929.872 93.387 929.872 146.752 916.531 146.752 916.531 93.387 889.849 93.387 889.849 80.046 956.555 80.046"/><path class="cls-2" d="M603.016,80.046V113.4a33.353,33.353,0,1,1-66.7,0V80.046h13.341V113.4a20.012,20.012,0,1,0,40.023,0V80.046Z"/><path class="cls-1" d="M803.132,0V33.353a33.353,33.353,0,0,1-66.7,0V0h13.341V33.353a20.012,20.012,0,0,0,40.023,0V0Z"/></g></g></g></svg>