<svg xmlns="http://www.w3.org/2000/svg" viewBox="0 0 825 330"><defs><style>.cls-1,.cls-2,.cls-3{fill:#366ce1;}.cls-1,.cls-5{opacity:0.62;}.cls-3,.cls-4{opacity:0.38;}.cls-4,.cls-5,.cls-6{fill:#121221;}</style></defs><title>livetour</title><g id="Complete"><g id="livetour"><path class="cls-1" d="M500.005,230a50,50,0,1,0,50,50A50.005,50.005,0,0,0,500.005,230Zm0,80a30,30,0,1,1,30-30A30,30,0,0,1,500.005,310Z" transform="translate(-87.5 -230)"/><path class="cls-1" d="M413.393,380a50,50,0,1,0,18.3-68.3A50,50,0,0,0,413.393,380Zm69.282-40a30,30,0,1,1-40.981-10.981A30,30,0,0,1,482.675,340Z" transform="translate(-87.5 -230)"/><path class="cls-2" d="M543.306,355.007a50,50,0,1,0-68.3,18.3A50.007,50.007,0,0,0,543.306,355.007Zm-69.282-40a30,30,0,1,1,10.981,40.98A30,30,0,0,1,474.024,315.007Z" transform="translate(-87.5 -230)"/><path class="cls-1" d="M586.607,380.007a50,50,0,1,0-68.3,18.3A50.006,50.006,0,0,0,586.607,380.007Zm-69.282-40a30,30,0,1,1,10.981,40.98A30,30,0,0,1,517.325,340.007Z" transform="translate(-87.5 -230)"/><path class="cls-3" d="M586.607,330a50,50,0,1,0-68.3,18.3A50.006,50.006,0,0,0,586.607,330Zm-69.282-40a30,30,0,1,1,10.981,40.98A30,30,0,0,1,517.325,290Z" transform="translate(-87.5 -230)"/><path class="cls-3" d="M500,330a50,50,0,1,0-68.3,18.3A50.006,50.006,0,0,0,500,330Zm-69.282-40a30,30,0,1,1,10.981,40.98A30,30,0,0,1,430.713,290Z" transform="translate(-87.5 -230)"/><path class="cls-3" d="M543.306,405.013a50,50,0,1,0-68.3,18.3A50.006,50.006,0,0,0,543.306,405.013Zm-69.282-40a30,30,0,1,1,10.981,40.981A30,30,0,0,1,474.024,365.013Z" transform="translate(-87.5 -230)"/><path class="cls-4" d="M543.306,355a50,50,0,1,0-68.3,18.3A50.006,50.006,0,0,0,543.306,355Zm-69.282-40a30,30,0,1,1,10.981,40.981A30,30,0,0,1,474.024,315Z" transform="translate(-87.5 -230)"/><circle class="cls-2" cx="412.505" cy="100.007" r="30"/><circle class="cls-5" cx="412.505" cy="100.007" r="30"/><polygon class="cls-6" points="150 250 150 310 170 310 170 330 110 330 110 310 130 310 130 250 110 250 110 230 170 230 170 250 150 250"/><polygon class="cls-6" points="310 250 310 270 390 270 390 290 310 290 310 310 390 310 390 330 290 330 290 230 390 230 390 250 310 250"/><polygon class="cls-6" points="100 310 100 330 0 330 0 230 20 230 20 310 100 310"/><polygon class="cls-6" points="279.98 230 240.76 328.07 239.99 330 219.99 330 219.22 328.07 180 230 201.54 230 229.99 301.14 258.45 230 279.98 230"/><path class="cls-2" d="M802.5,460v50a50,50,0,0,1-100,0V460h20v50a30,30,0,0,0,60,0V460Z" transform="translate(-87.5 -230)"/><path class="cls-2" d="M912.5,490a30,30,0,0,0-30-30h-70V560h20V520h50a10,10,0,0,1,10,10v30h20V530a29.862,29.862,0,0,0-7.65-20A29.862,29.862,0,0,0,912.5,490Zm-80,10V480h50a10,10,0,0,1,0,20Z" transform="translate(-87.5 -230)"/><path class="cls-2" d="M642.5,460a50,50,0,1,0,50,50A50.005,50.005,0,0,0,642.5,460Zm0,80a30,30,0,1,1,30-30A30,30,0,0,1,642.5,540Z" transform="translate(-87.5 -230)"/><polygon class="cls-2" points="500 230 500 250 460 250 460 330 440 330 440 250 400 250 400 230 500 230"/></g></g></svg>