<svg xmlns="http://www.w3.org/2000/svg" viewBox="0 0 950 290"><defs><style>.cls-1{fill:#121221;}.cls-2{fill:#366ce1;}</style></defs><title>livestorm</title><g id="Complete"><g id="livestorm"><polygon class="cls-1" points="950 190 950 290 930 290 930 220.59 913.2 240.05 899.99 255.36 886.78 240.05 870 220.62 870 290 850 290 850 190 870 190 870 190.01 899.99 224.75 929.98 190 950 190"/><path class="cls-1" d="M465,480a10,10,0,0,0,10,10h40a30,30,0,0,1,0,60H445V530h70a10,10,0,0,0,0-20H475a30,30,0,0,1,0-60h70v20H475A10,10,0,0,0,465,480Z" transform="translate(-25 -260)"/><polygon class="cls-2" points="330 210 330 230 410 230 410 250 330 250 330 270 410 270 410 290 310 290 310 190 410 190 410 210 330 210"/><polygon class="cls-2" points="100 270 100 290 0 290 0 190 20 190 20 270 100 270"/><polygon class="cls-2" points="300 190 260.78 288.07 260.01 290 240.01 290 239.24 288.07 200.02 190 221.56 190 250.01 261.14 278.47 190 300 190"/><path class="cls-1" d="M865,480a30,30,0,0,0-30-30H765V550h20V510h50a10,10,0,0,1,10,10v30h20V520a29.862,29.862,0,0,0-7.65-20A29.862,29.862,0,0,0,865,480Zm-80,10V470h50a10,10,0,0,1,0,20Z" transform="translate(-25 -260)"/><path class="cls-1" d="M705,450a50,50,0,1,0,50,50A50.005,50.005,0,0,0,705,450Zm0,80a30,30,0,1,1,30-30A30,30,0,0,1,705,530Z" transform="translate(-25 -260)"/><polygon class="cls-2" points="160 210 160 270 190 270 190 290 110 290 110 270 140 270 140 210 110 210 110 190 190 190 190 210 160 210"/><polygon class="cls-1" points="630 190 630 210 590 210 590 290 570 290 570 210 530 210 530 190 630 190"/><circle class="cls-1" cx="475" cy="110" r="20"/><path class="cls-2" d="M500,340a30,30,0,1,0,30,30A30,30,0,0,0,500,340Zm0,50a20,20,0,1,1,20-20A19.994,19.994,0,0,1,500,390Z" transform="translate(-25 -260)"/><circle class="cls-1" cx="475" cy="80" r="30"/><path class="cls-2" d="M500,260a50,50,0,1,0,50,50A50.005,50.005,0,0,0,500,260Zm0,90a40,40,0,1,1,40-40A40,40,0,0,1,500,350Z" transform="translate(-25 -260)"/><path class="cls-2" d="M500,300a40,40,0,1,0,40,40A40,40,0,0,0,500,300Zm0,70a30,30,0,1,1,30-30A30,30,0,0,1,500,370Z" transform="translate(-25 -260)"/><circle class="cls-1" cx="475" cy="50" r="40"/></g></g></svg>