<svg xmlns="http://www.w3.org/2000/svg" viewBox="0 0 888.317 160"><defs><style>.cls-1{fill:#121221;}.cls-2{fill:#366ce1;}</style></defs><title>livongo</title><g id="Слой_2" data-name="Слой 2"><g id="Work_space" data-name="Work space"><g id="livongo"><polygon class="cls-1" points="888.317 160 728.317 160 728.317 0 758.317 30 758.317 130 858.317 130 888.317 160"/><path class="cls-2" d="M888.317,0V160l-30-30-100-100-30-30Z"/><polygon class="cls-1" points="150 50 150 110 170 110 170 130 110 130 110 110 130 110 130 50 110 50 110 30 170 30 170 50 150 50"/><polygon class="cls-1" points="488.317 30 488.317 130 468.317 130 408.317 60.59 408.317 130 388.317 130 388.317 30 408.317 30 468.317 99.41 468.317 30 488.317 30"/><polygon class="cls-1" points="100 110 100 130 0 130 0 30 20 30 20 110 100 110"/><path class="cls-1" d="M658.317,30a50,50,0,1,0,50,50A50.005,50.005,0,0,0,658.317,30Zm0,80a30,30,0,1,1,30-30A30,30,0,0,1,658.317,110Z"/><path class="cls-1" d="M328.317,30a50,50,0,1,0,50,50A50.005,50.005,0,0,0,328.317,30Zm0,80a30,30,0,1,1,30-30A30,30,0,0,1,328.317,110Z"/><path class="cls-1" d="M598.317,70V80a49.16,49.16,0,0,1-1.01,10,50.013,50.013,0,1,1-13.64-45.35l-14.14,14.14A30,30,0,1,0,576.6,90h-28.28V70Z"/><polygon class="cls-1" points="280 30 240.78 128.07 240.01 130 220.01 130 219.24 128.07 180.02 30 201.56 30 230.01 101.14 258.47 30 280 30"/></g></g></g></svg>