<svg id="Main" xmlns="http://www.w3.org/2000/svg" viewBox="0 0 805 830"><defs><style>.cls-1{fill:#1c1e20;}.cls-2{fill:#e1dfdf;}.cls-3{fill:#366ce1;}.cls-4{fill:#121221;}</style></defs><title>Logic Pro</title><g id="Logic_Pro" data-name="Logic Pro"><rect class="cls-1" x="192.5" width="420" height="520" rx="51.169"/><rect class="cls-2" x="202.5" y="10" width="400" height="500" rx="46.944"/><circle class="cls-3" cx="402.5" cy="210" r="150"/><circle class="cls-2" cx="402.5" cy="210" r="50"/><circle class="cls-4" cx="402.5" cy="210" r="10"/><rect class="cls-3" x="332.5" y="390" width="140" height="70" rx="8.958"/><polygon class="cls-4" points="100 710 100 730 0 730 0 530 20 530 20 710 100 710"/><path class="cls-4" d="M252.5,680a50.005,50.005,0,0,0-50,50v20a49.16,49.16,0,0,0,1.01,10,50,50,0,0,0,97.98,0,49.16,49.16,0,0,0,1.01-10V730A50.005,50.005,0,0,0,252.5,680Zm30,70a30,30,0,0,1-28.3,29.95c-.57.02-1.13.05-1.7.05s-1.13-.03-1.7-.05A30,30,0,0,1,222.5,750V730a30,30,0,0,1,60,0Z" transform="translate(-97.5 -70)"/><path class="cls-4" d="M852.5,680a50.005,50.005,0,0,0-50,50v20a49.16,49.16,0,0,0,1.01,10,50,50,0,0,0,97.98,0,49.16,49.16,0,0,0,1.01-10V730A50.005,50.005,0,0,0,852.5,680Zm30,70a30,30,0,0,1-28.3,29.95c-.57.02-1.13.05-1.7.05s-1.13-.03-1.7-.05A30,30,0,0,1,822.5,750V730a30,30,0,0,1,60,0Z" transform="translate(-97.5 -70)"/><path class="cls-4" d="M792.5,720H771.79a30,30,0,0,0-58.28,10v70h-20V680h20v10.01A49.989,49.989,0,0,1,792.5,720Z" transform="translate(-97.5 -70)"/><path class="cls-4" d="M531.8,760h20.7a50,50,0,0,1-97.98,0,49.16,49.16,0,0,1-1.01-10V730a50,50,0,0,1,98.99-10H531.79a30,30,0,0,0-58.28,10v20a30,30,0,0,0,28.3,29.95c.57.02,1.13.05,1.7.05s1.13-.03,1.7-.05A30.021,30.021,0,0,0,531.8,760Z" transform="translate(-97.5 -70)"/><path class="cls-4" d="M392.5,680v10.01a49.99,49.99,0,0,0-80,39.99v20a49.16,49.16,0,0,0,1.01,10,50,50,0,0,0,78.98,30.01l.01-.01v60a30,30,0,0,1-28.3,29.95c-.57.02-1.13.05-1.7.05s-1.13-.03-1.7-.05A30,30,0,0,1,332.5,850h-20a49.16,49.16,0,0,0,1.01,10,50,50,0,0,0,97.98,0,49.16,49.16,0,0,0,1.01-10V680Zm-28.3,99.95c-.57.02-1.13.05-1.7.05s-1.13-.03-1.7-.05A30,30,0,0,1,332.5,750V730a30,30,0,0,1,60,0v20A30,30,0,0,1,364.2,779.95Z" transform="translate(-97.5 -70)"/><rect class="cls-4" x="325" y="610" width="20" height="120"/><circle class="cls-4" cx="335" cy="590" r="10"/><path class="cls-4" d="M637.5,600h-50V800h20V720h30a50.015,50.015,0,0,0,48.99-40,49.16,49.16,0,0,0,1.01-10V650A50.005,50.005,0,0,0,637.5,600Zm30,70a30,30,0,0,1-28.3,29.95c-.57.02-1.13.05-1.7.05h-30V620h30a30,30,0,0,1,30,30Z" transform="translate(-97.5 -70)"/></g></svg>