<svg xmlns="http://www.w3.org/2000/svg" viewBox="0 0 618.373 100"><defs><style>.cls-1{fill:#121221;}</style></defs><title>loomly</title><g id="Слой_2" data-name="Слой 2"><g id="Work_space" data-name="Work space"><g id="loomly"><polygon class="cls-1" points="544.211 80 544.211 100 444.211 100 444.211 0 464.211 0 464.211 80 544.211 80"/><polygon class="cls-1" points="100 80 100 100 0 100 0 0 20 0 20 80 100 80"/><path class="cls-1" d="M154.211,0a50,50,0,1,0,50,50A50.005,50.005,0,0,0,154.211,0Zm0,80a30,30,0,1,1,30-30A30,30,0,0,1,154.211,80Z"/><path class="cls-1" d="M264.211,0a50,50,0,1,0,50,50A50.005,50.005,0,0,0,264.211,0Zm0,80a30,30,0,1,1,30-30A30,30,0,0,1,264.211,80Z"/><polygon class="cls-1" points="581.203 46.46 578.373 50 578.423 50 578.423 100 558.423 100 558.423 50 555.593 46.46 518.423 0 544.033 0 568.393 30.45 592.753 0 618.373 0 581.203 46.46"/><path class="cls-1" d="M334.951,100l14.46-57.86,14.56,56.71.3,1.15h14.91l.03-.11V100h5.12l.29-1.16,14.54-56.59L413.591,100h20.62v-.02L409.6,1.57,409.211,0h-19.86l-.38,1.5L374.3,58.63,359.6,1.39,359.251,0h-15.03l-.01.04V0h-4.87l-.37,1.46L314.331,100Zm19.26-50.99v-.04l.02.04Zm0-47.53.19-.61-.19.64Z"/><polygon class="cls-1" points="354.211 48.97 354.231 49.01 354.211 49.01 354.211 48.97"/><polygon class="cls-1" points="354.211 1.48 354.401 0.87 354.211 1.51 354.211 1.48"/><polygon class="cls-1" points="354.211 1.48 354.401 0.87 354.211 1.51 354.211 1.48"/></g></g></g></svg>