<svg id="Main" xmlns="http://www.w3.org/2000/svg" viewBox="0 0 189.772 301.21"><defs><style>.cls-1,.cls-10,.cls-13,.cls-14,.cls-15,.cls-2,.cls-3,.cls-4,.cls-5,.cls-6,.cls-7,.cls-8,.cls-9{fill:#366ce1;}.cls-1{opacity:0.9;}.cls-2{opacity:0.8;}.cls-3{opacity:0.7;}.cls-4{opacity:0.6;}.cls-5{opacity:0.5;}.cls-6{opacity:0.4;}.cls-7{opacity:0.3;}.cls-8{opacity:0.2;}.cls-9{opacity:0.1;}.cls-10{opacity:0.01;}.cls-11,.cls-12{fill:#1c1e20;}.cls-11,.cls-13{opacity:0.38;}.cls-12{opacity:0.68;}.cls-14{opacity:0.62;}.cls-16{fill:#121221;}</style></defs><title>lua</title><circle class="cls-1" cx="127.47" cy="115.438" r="39.511"/><ellipse class="cls-2" cx="127.47" cy="115.438" rx="39.707" ry="39.511"/><ellipse class="cls-3" cx="127.47" cy="115.438" rx="39.904" ry="39.609"/><ellipse class="cls-4" cx="127.47" cy="115.438" rx="40.1" ry="39.707"/><ellipse class="cls-5" cx="127.47" cy="115.438" rx="40.297" ry="39.806"/><ellipse class="cls-6" cx="127.47" cy="115.438" rx="40.494" ry="39.904"/><ellipse class="cls-7" cx="127.47" cy="115.438" rx="40.69" ry="40.002"/><ellipse class="cls-8" cx="127.47" cy="115.438" rx="40.887" ry="40.1"/><ellipse class="cls-9" cx="127.47" cy="115.438" rx="41.083" ry="40.199"/><ellipse class="cls-10" cx="127.47" cy="115.438" rx="41.28" ry="40.297"/><circle class="cls-11" cx="127.47" cy="115.438" r="39.314"/><ellipse class="cls-12" cx="117.641" cy="115.438" rx="29.486" ry="38.076"/><path class="cls-11" d="M570.68,474.583a39.369,39.369,0,0,1-47.924,28.326,39.328,39.328,0,0,0,0-76.152,39.369,39.369,0,0,1,47.924,28.326,9.825,9.825,0,0,0,0,19.5Z" transform="translate(-405.114 -349.395)"/><path class="cls-13" d="M571.9,464.833a39.278,39.278,0,0,1-1.218,9.75,9.825,9.825,0,0,1,0-19.5A39.266,39.266,0,0,1,571.9,464.833Z" transform="translate(-405.114 -349.395)"/><path class="cls-14" d="M581.727,464.833a9.827,9.827,0,0,1-9.829,9.828,8.942,8.942,0,0,1-1.218-.078,39.633,39.633,0,0,0,0-19.5A8.942,8.942,0,0,1,571.9,455,9.827,9.827,0,0,1,581.727,464.833Z" transform="translate(-405.114 -349.395)"/><path class="cls-15" d="M533.081,565.226c34.135,0,61.8-44.77,61.8-100a159.13,159.13,0,0,0-1.947-25c-6.861,43.13-31.057,75-59.858,75s-53-31.87-59.858-75a159.13,159.13,0,0,0-1.947,25C471.276,520.456,498.946,565.226,533.081,565.226Z" transform="translate(-405.114 -349.395)"/><path class="cls-15" d="M594.886,466.226a158.291,158.291,0,0,1-1.95,25,137.806,137.806,0,0,0-7.69-28.65,105.237,105.237,0,0,0-9.76-19.1c-11.07-16.89-25.99-27.25-42.41-27.25s-31.34,10.36-42.4,27.25a105.237,105.237,0,0,0-9.76,19.1,137.806,137.806,0,0,0-7.69,28.65,158.291,158.291,0,0,1-1.95-25,160.087,160.087,0,0,1,1.6-22.74,145.741,145.741,0,0,1,4.06-19.11c9.78-34.33,31.24-58.15,56.14-58.15s46.37,23.82,56.15,58.15a145.741,145.741,0,0,1,4.06,19.11A160.087,160.087,0,0,1,594.886,466.226Z" transform="translate(-405.114 -349.395)"/><path class="cls-16" d="M434.4,603.214c39.054,63.188,102.368,63.188,141.422,0a175.918,175.918,0,0,0,15.45-32.207c-38.346,36.646-88.565,28.317-121.516-25S431.661,411.44,454.309,349.4a125.919,125.919,0,0,0-19.905,25C395.351,437.582,395.351,540.025,434.4,603.214Z" transform="translate(-405.114 -349.395)"/></svg>