<svg id="Main" xmlns="http://www.w3.org/2000/svg" viewBox="0 0 624.489 405.455"><defs><style>.cls-1{fill:#1c1e20;}.cls-2{fill:#e1dfdf;}.cls-3{fill:#366ce1;}.cls-4{fill:#121221;}</style></defs><title>macOS</title><g id="Mac_OS" data-name="Mac OS"><path class="cls-1" d="M542.64,428.172a340.525,340.525,0,0,0-33.96,130.89H288.21V297.272H491.33a555.732,555.732,0,0,0-15.54,130.9Z" transform="translate(-187.755 -297.272)"/><path class="cls-2" d="M711.79,297.272v261.79H508.68a340.525,340.525,0,0,1,33.96-130.89H475.79a555.732,555.732,0,0,1,15.54-130.9Z" transform="translate(-187.755 -297.272)"/><circle class="cls-3" cx="398.286" cy="40.927" r="30.901"/><circle class="cls-3" cx="402.223" cy="216.937" r="19.099"/><circle class="cls-3" cx="222.277" cy="44.863" r="19.098"/><circle class="cls-3" cx="226.213" cy="220.873" r="30.901"/><path class="cls-3" d="M530.447,685.258a29.03,29.03,0,1,1,0-41.06l2.53-2.53,3.81-3.81a37.884,37.884,0,0,0-26.12-11.12c-.25-.01-.5-.01-.75-.01s-.5,0-.75.01a38,38,0,0,0,0,75.98c.25.01.5.01.75.01s.5,0,.75-.01a37.884,37.884,0,0,0,26.12-11.12Z" transform="translate(-187.755 -297.272)"/><path class="cls-1" d="M523.617,678.428c-3.14,5.39-8.11,8.87-13.7,8.87-9.53,0-17.25-10.1-17.25-22.57s7.72-22.57,17.25-22.57c5.59,0,10.56,3.48,13.69,8.88l6.84-6.84,2.53-2.53c-5.15-8.84-13.21-14.63-22.31-14.93-.25-.01-.5-.01-.75-.01s-.5,0-.75.01c-15.69.52-28.28,17.34-28.28,37.99s12.59,37.47,28.28,37.99c.25.01.5.01.75.01s.5,0,.75-.01c9.1-.3,17.16-6.09,22.31-14.93Z" transform="translate(-187.755 -297.272)"/><path class="cls-3" d="M322.735,604.738c-12.07.4-23,6.75-31.15,16.9a58.385,58.385,0,0,0-4.99,7.28,58.625,58.625,0,0,0-5.01-7.29c-8.14-10.14-19.08-16.49-31.14-16.89a61.108,61.108,0,0,1,36.14,12.62A61.161,61.161,0,0,1,322.735,604.738Z" transform="translate(-187.755 -297.272)"/><path class="cls-3" d="M202.265,666.2a74.408,74.408,0,0,0,9.19,36.53h-11.68a61.484,61.484,0,0,1,48.25-97.99C222.645,605.578,202.265,632.788,202.265,666.2Z" transform="translate(-187.755 -297.272)"/><path class="cls-1" d="M370.915,666.2c0,.4,0,.81-.02,1.21a74.068,74.068,0,0,1-9.17,35.32H324.1v-.01c15.34-.11,27.75-16.41,27.75-36.52,0-20.16-12.49-36.52-27.9-36.52-7.44,0-14.2,3.81-19.2,10.03a41.6,41.6,0,0,0-8.59,23.32v.01a3.908,3.908,0,0,0-.03.49.019.019,0,0,0,0,.03c-.06.87-.08,1.75-.08,2.64h-18.91c0-.9-.02-1.79-.08-2.67-.01-.01,0-.01,0-.02a3.593,3.593,0,0,0-.03-.47v-.01a41.6,41.6,0,0,0-8.59-23.32c-4.99-6.22-11.76-10.03-19.2-10.03-15.41,0-27.9,16.36-27.9,36.52,0,20.18,12.49,36.52,27.9,36.52v.01h-37.78a74.408,74.408,0,0,1-9.19-36.53c0-33.41,20.38-60.62,45.76-61.46.4-.01.8-.02,1.21-.02s.81.01,1.21.02c12.06.4,23,6.75,31.14,16.89a58.625,58.625,0,0,1,5.01,7.29,58.385,58.385,0,0,1,4.99-7.28c8.15-10.15,19.08-16.5,31.15-16.9.4-.01.8-.02,1.21-.02s.81.01,1.21.02c25.08.83,45.27,27.4,45.74,60.25C370.915,665.388,370.915,665.8,370.915,666.2Z" transform="translate(-187.755 -297.272)"/><path class="cls-3" d="M385.425,666.2a61.238,61.238,0,0,1-12.02,36.53h-11.68a74.068,74.068,0,0,0,9.17-35.32c.02-.4.02-.81.02-1.21s0-.81-.02-1.21c-.47-32.85-20.66-59.42-45.74-60.25A61.474,61.474,0,0,1,385.425,666.2Z" transform="translate(-187.755 -297.272)"/><path class="cls-3" d="M426.709,702.728c20.983,0,38-11.574,38-25.84s-17.012-25.84-38-25.84-38,11.566-38,25.84S405.716,702.728,426.709,702.728Zm0-45.581c16.032,0,29.024,8.84,29.024,19.741s-12.992,19.74-29.024,19.74-29.034-8.84-29.034-19.74S410.667,657.147,426.709,657.147Z" transform="translate(-187.755 -297.272)"/><path class="cls-1" d="M426.705,702.728c16.036,0,29.032-11.574,29.032-25.84s-13-25.84-29.032-25.84-29.032,11.566-29.032,25.84S410.669,702.728,426.705,702.728Zm0-41.188c9.527,0,17.243,6.868,17.243,15.348s-7.716,15.347-17.243,15.347-17.244-6.875-17.244-15.347S417.178,661.54,426.705,661.54Z" transform="translate(-187.755 -297.272)"/><path class="cls-3" d="M467.566,664.965a37.993,37.993,0,0,1-20.76,33.87v-3.3c6.98-6.75,11.57-17.5,11.78-29.68.01-.29.01-.59.01-.89,0-20.65-12.6-37.47-28.28-37.99A38,38,0,0,1,467.566,664.965Z" transform="translate(-187.755 -297.272)"/><path class="cls-3" d="M428.816,626.975c-10.86.36-20.22,8.52-24.96,20.35h-7.95A37.961,37.961,0,0,1,428.816,626.975Z" transform="translate(-187.755 -297.272)"/><path class="cls-1" d="M458.6,664.965c0,.3,0,.6-.01.89-.21,12.18-4.8,22.93-11.78,29.68v-30.57c0-12.46-7.72-22.57-17.24-22.57a14.869,14.869,0,0,0-10.76,4.93h-14.95c4.74-11.83,14.1-19.99,24.96-20.35.25-.01.5-.01.75-.01s.5,0,.75.01C446,627.5,458.6,644.315,458.6,664.965Z" transform="translate(-187.755 -297.272)"/><path class="cls-2" d="M713.375,669.728c-.01-.02-.01-.04-.02-.06l.01.01A.433.433,0,0,1,713.375,669.728Z" transform="translate(-187.755 -297.272)"/><path class="cls-3" d="M752.6,579.808c-.1,0-.19-.01-.29-.01-.06,0-.12-.01-.18-.01q-.675-.03-1.35-.03h-.02c-.34,0-.69,0-1.03.01a61.95,61.95,0,1,0,2.87.04Zm16.97,28.58c-4.04-4.68-10.95-7.76-18.8-7.76-12.47,0-22.57,7.77-22.57,17.35,0,4.66,2.38,8.87,6.25,11.98a25.815,25.815,0,0,0,15.16,5.35h.25c.3-.02.61-.02.91-.02s.61,0,.91.02h.25a46.332,46.332,0,0,1,18.47,4.18,37.539,37.539,0,0,1,3.33,1.75,35.75,35.75,0,0,1,4.55,3.11h.01c6.28,5.07,10.22,11.88,10.47,19.4.01.25.01.5.01.75s0,.5-.01.76c-.01.18-.01.35-.02.53-.01.07-.01.14-.02.21-.01.11-.02.21-.03.32a.208.208,0,0,1-.01.11c-.01.26-.04.51-.07.76-.01.1-.03.2-.04.3-.05.37-.1.74-.17,1.1-.03.17-.07.34-.1.51s-.07.34-.11.5a.09.09,0,0,0-.01.05l-.01.01v.01c-.08.32-.16.64-.24.95-.14.48-.28.94-.44,1.41s-.34.93-.53,1.39q-.24.6-.54,1.2c-.16.36-.35.72-.54,1.07-.06.1-.12.21-.17.31,0,.01-.01.01-.01.02-.16.28-.32.57-.5.85a1,1,0,0,0-.08.14c-.23.36-.46.72-.71,1.08-.03.05-.07.1-.1.15-.2.3-.42.58-.63.87-.02.02-.03.05-.05.07-.23.3-.46.6-.71.89-.12.16-.26.32-.4.48q-.345.42-.72.81c-.29.32-.59.63-.91.94-.16.16-.31.31-.47.46s-.31.3-.48.45c-.55.51-1.13,1.01-1.73,1.49-.3.24-.6.47-.9.7s-.63.46-.96.69c-.01.01-.03.02-.04.03-.18.13-.36.25-.55.37a2.028,2.028,0,0,1-.18.13c-.22.15-.45.3-.68.43-.15.11-.31.2-.46.29-.28.18-.57.35-.86.52a1.093,1.093,0,0,1-.15.08c-.19.12-.39.23-.59.33-.4.23-.8.44-1.21.64-.47.24-.95.47-1.43.69-.52.24-1.04.47-1.58.69-.02.01-.05.02-.07.03-1.04.43-2.11.81-3.21,1.16-.56.18-1.12.35-1.69.51a.433.433,0,0,1-.05.01c-.47.13-.95.25-1.43.37-.31.08-.62.15-.94.21-.2.05-.4.09-.6.13-.28.07-.57.12-.86.17-.48.09-.96.18-1.44.25h-.03c-.02,0-.04.01-.06.01-.47.08-.94.14-1.42.19-.06.01-.11.01-.17.02a1.242,1.242,0,0,1-.33.04c-.05.01-.1.01-.15.02-.45.06-.9.1-1.36.13a2.635,2.635,0,0,1-.28.02,1.21,1.21,0,0,1-.19.01c-.54.05-1.09.08-1.65.1-.63.03-1.28.04-1.92.04-16.62,0-30.74-8.2-35.9-19.62a22.615,22.615,0,0,1-.88-2.24c-.07-.21-.14-.42-.21-.64-.04-.14-.08-.27-.12-.41-.01-.05-.03-.1-.04-.15-.09-.29-.16-.57-.23-.86,0-.01-.01-.03-.01-.04v-.02c-.01-.02-.01-.04-.02-.06a3.4,3.4,0,0,1-.07-.34.355.355,0,0,1-.02-.1c-.05-.22-.1-.43-.13-.65-.07-.36-.13-.72-.17-1.08s-.09-.72-.12-1.09-.06-.76-.07-1.15c-.01-.26-.01-.51-.01-.76s0-.5.01-.75a23.191,23.191,0,0,1,2.09-8.85h17.11a14.081,14.081,0,0,0-.01,19.19c4.03,4.68,10.95,7.76,18.8,7.76,12.46,0,22.57-7.77,22.57-17.35,0-4.66-2.38-8.87-6.26-11.98a25.916,25.916,0,0,0-15.52-5.35.138.138,0,0,1-.09,0h-.02c-.22.02-.45.02-.68.02s-.46,0-.68-.02h-.03a.139.139,0,0,1-.09,0,46.468,46.468,0,0,1-18.84-4.18,39.705,39.705,0,0,1-7.87-4.86h-.01c-6.29-5.07-10.22-11.88-10.47-19.4-.01-.25-.01-.5-.01-.75s0-.51.01-.76c.01-.18.01-.35.02-.53.01-.07.01-.14.02-.21.01-.11.02-.21.03-.32a.208.208,0,0,1,.01-.11c.01-.25.04-.51.07-.76.01-.1.03-.2.04-.3l.03-.21a3.967,3.967,0,0,1,.07-.48c.02-.13.04-.27.07-.4a9.373,9.373,0,0,1,.19-.92c.01-.05.02-.11.03-.16.01-.02.01-.05.02-.07a.737.737,0,0,1,.04-.14c.07-.36.17-.71.27-1.06a.235.235,0,0,0,.02-.08q.18-.585.39-1.17.195-.585.45-1.17a.694.694,0,0,1,.05-.13c.13-.31.27-.62.41-.92.04-.1.09-.19.13-.28.17-.35.35-.69.53-1.03.02-.03.03-.06.05-.09.21-.39.43-.77.67-1.15a.076.076,0,0,0,.02-.04c.23-.37.46-.73.71-1.09.32-.46.65-.92.99-1.36.24-.3.48-.6.72-.89s.5-.57.75-.86c.06-.06.11-.11.16-.17q.435-.48.9-.93c.09-.1.19-.19.28-.28.24-.24.49-.47.74-.7.29-.27.59-.53.9-.8.05-.04.1-.09.15-.13.42-.34.84-.68,1.28-1.01.36-.28.72-.55,1.1-.8a.55.55,0,0,1,.09-.07c.01-.01.03-.02.04-.03a6.609,6.609,0,0,1,.55-.37,2.028,2.028,0,0,1,.18-.13c.22-.15.45-.3.68-.43a4.434,4.434,0,0,1,.46-.29c.28-.18.57-.35.86-.52a1.093,1.093,0,0,1,.15-.08c.19-.12.39-.23.59-.33.12-.07.25-.14.37-.2.34-.19.7-.37,1.05-.54.45-.23.9-.44,1.36-.65.43-.2.87-.39,1.32-.58.09-.04.18-.07.27-.11.48-.2.97-.38,1.47-.56.44-.16.88-.32,1.33-.46.24-.08.48-.16.73-.23.32-.1.65-.2.98-.29s.66-.19,1-.28c.1-.03.21-.05.31-.08l.24-.06.14-.03c.31-.08.64-.15.96-.23a2.048,2.048,0,0,0,.24-.05c.12-.03.25-.06.37-.08a1.286,1.286,0,0,0,.19-.04c.25-.05.49-.1.75-.14.02,0,.04-.01.06-.01.46-.09.93-.17,1.4-.24.43-.07.86-.13,1.3-.18.12-.02.24-.03.36-.04a1.17,1.17,0,0,1,.32-.04c.05-.01.11-.01.16-.02.45-.06.9-.1,1.35-.13a2.635,2.635,0,0,1,.28-.02,1.21,1.21,0,0,1,.19-.01c.55-.05,1.1-.08,1.65-.1.64-.03,1.28-.04,1.93-.04,16.61,0,30.74,8.19,35.9,19.61a22.783,22.783,0,0,1,.84,2.12c.08.23.16.46.23.7a.235.235,0,0,1,.02.08c.08.24.15.49.21.73q.12.4.21.81c.17.71.3,1.44.4,2.17s.16,1.47.18,2.22c.01.25.01.51.01.76s0,.5-.01.75a23.191,23.191,0,0,1-2.09,8.85h-17.1a14.1,14.1,0,0,0,0-19.19Z" transform="translate(-187.755 -297.272)"/><path class="cls-2" d="M788.755,665.258c-.01.18-.01.35-.02.53-.01.07-.01.14-.02.21C788.735,665.748,788.745,665.508,788.755,665.258Z" transform="translate(-187.755 -297.272)"/><path class="cls-1" d="M750.765,635.288c-.3,0-.61,0-.91.02.3.02.6.02.91.02s.61,0,.91-.02C751.375,635.288,751.065,635.288,750.765,635.288Z" transform="translate(-187.755 -297.272)"/><path class="cls-2" d="M561.585,628.028h.89a37.95,37.95,0,0,0,1.2-8.79A22.9,22.9,0,0,1,561.585,628.028Z" transform="translate(-187.755 -297.272)"/><path class="cls-2" d="M712.815,616.478c-.02.25-.03.49-.04.74.01-.18.01-.35.02-.53C712.805,616.618,712.805,616.548,712.815,616.478Z" transform="translate(-187.755 -297.272)"/><path class="cls-2" d="M713.375,612.748a.127.127,0,0,0-.01.06l-.01.01C713.365,612.8,713.365,612.768,713.375,612.748Z" transform="translate(-187.755 -297.272)"/><path class="cls-1" d="M750.765,647.158c-.23,0-.46,0-.68.01.22.02.45.02.68.02s.46,0,.68-.02C751.225,647.158,751,647.158,750.765,647.158Z" transform="translate(-187.755 -297.272)"/><path class="cls-3" d="M626.375,579.778c-.4-.01-.8-.02-1.21-.02s-.81.01-1.21.02a61.472,61.472,0,0,0,0,122.92c.4.01.8.02,1.21.02s.81-.01,1.21-.02a61.472,61.472,0,0,0,0-122.92Zm-1.21,108.43a46.97,46.97,0,0,1-46.95-45.76c-.02-.4-.02-.81-.02-1.21s0-.81.02-1.21a46.968,46.968,0,1,1,46.95,48.18Z" transform="translate(-187.755 -297.272)"/><path class="cls-2" d="M713.365,669.678l-.01-.01c.01.02.01.04.02.06A.433.433,0,0,0,713.365,669.678Zm0,0-.01-.01c.01.02.01.04.02.06A.433.433,0,0,0,713.365,669.678Zm-.01-56.86.01-.01a.127.127,0,0,1,.01-.06C713.365,612.768,713.365,612.8,713.355,612.818Z" transform="translate(-187.755 -297.272)"/><path class="cls-4" d="M626.375,579.778c-.4-.01-.8-.02-1.21-.02s-.81.01-1.21.02c-25.08.83-45.27,27.39-45.74,60.25-.02.4-.02.81-.02,1.21s0,.81.02,1.21c.47,32.87,20.66,59.42,45.74,60.25.4.01.8.02,1.21.02s.81-.01,1.21-.02c25.39-.84,45.77-28.03,45.77-61.46S651.765,580.618,626.375,579.778Zm-1.21,97.98c-15.41,0-27.9-16.34-27.9-36.52,0-20.16,12.49-36.52,27.9-36.52s27.9,16.36,27.9,36.52C653.065,661.418,640.585,677.758,625.165,677.758Z" transform="translate(-187.755 -297.272)"/><ellipse class="cls-3" cx="437.41" cy="343.965" rx="27.9" ry="36.52"/><path class="cls-4" d="M788.755,663.748c.01.25.01.5.01.75s0,.5-.01.76-.02.49-.04.74c-.01.11-.02.21-.03.32a.208.208,0,0,1-.01.11c-.01.26-.04.51-.07.76-.01.1-.03.2-.04.3-.05.37-.1.74-.17,1.1-.03.17-.07.34-.1.51s-.07.34-.11.5a.09.09,0,0,0-.01.05l-.01.01v.01c-.08.32-.16.64-.24.95-.14.48-.28.94-.44,1.41s-.34.93-.53,1.39q-.255.615-.54,1.2c-.17.36-.35.72-.54,1.07-.06.1-.12.21-.17.31,0,.01-.01.01-.01.02-.16.28-.32.57-.5.85a1,1,0,0,0-.08.14c-.23.36-.46.72-.71,1.08-.03.05-.07.1-.1.15-.2.3-.42.58-.63.87-.02.02-.03.05-.05.07-.23.3-.46.6-.71.89-.12.16-.26.32-.4.48q-.345.42-.72.81c-.29.32-.6.63-.91.94-.16.16-.31.31-.47.46s-.31.3-.48.45c-.55.51-1.13,1.01-1.73,1.49-.3.24-.6.47-.9.7s-.63.46-.96.69c-.01.01-.03.02-.04.03-.18.13-.36.25-.55.37a2.028,2.028,0,0,1-.18.13c-.22.15-.45.3-.68.43-.15.11-.31.2-.46.29-.28.18-.57.35-.86.52a1.093,1.093,0,0,1-.15.08c-.19.12-.39.23-.59.33-.4.23-.8.44-1.21.64-.47.24-.95.47-1.43.69-.52.24-1.04.47-1.58.69-.02.01-.05.02-.07.03-1.04.43-2.11.81-3.21,1.16-.56.18-1.12.35-1.69.51a.433.433,0,0,1-.05.01c-.47.13-.95.25-1.43.37-.31.08-.62.15-.94.21-.2.05-.4.09-.6.13-.28.07-.57.12-.86.17-.48.09-.96.18-1.44.25h-.03c-.02,0-.04.01-.06.01-.47.08-.94.14-1.42.19-.06.01-.11.01-.17.02a1.242,1.242,0,0,1-.33.04c-.05.01-.1.01-.15.02-.45.06-.9.1-1.36.13a2.635,2.635,0,0,1-.28.02,1.21,1.21,0,0,1-.19.01c-.54.05-1.09.08-1.65.1-.63.03-1.28.04-1.92.04-16.62,0-30.74-8.2-35.9-19.62a22.615,22.615,0,0,1-.88-2.24c-.07-.21-.14-.42-.21-.64-.04-.14-.08-.27-.12-.41-.01-.05-.03-.1-.04-.15-.09-.29-.16-.57-.23-.86,0-.01-.01-.03-.01-.04v-.02a.433.433,0,0,0-.01-.05l-.01-.01a3.4,3.4,0,0,1-.07-.34.355.355,0,0,1-.02-.1c-.05-.22-.1-.43-.13-.65-.07-.36-.12-.72-.17-1.08s-.09-.72-.12-1.09-.06-.76-.07-1.15c-.01-.26-.01-.51-.01-.76s0-.5.01-.75a23.191,23.191,0,0,1,2.09-8.85h17.11a14.081,14.081,0,0,0-.01,19.19c4.03,4.68,10.95,7.76,18.8,7.76,12.46,0,22.57-7.77,22.57-17.35,0-4.66-2.38-8.87-6.26-11.98a25.916,25.916,0,0,0-15.52-5.35.138.138,0,0,1-.09,0h-.02c-.22-.01-.45-.01-.68-.01s-.46,0-.68.01h-.03a.139.139,0,0,1-.09,0,46.468,46.468,0,0,1-18.84-4.18,39.705,39.705,0,0,1-7.87-4.86h-.01c-6.29-5.07-10.22-11.88-10.47-19.4-.01-.25-.01-.5-.01-.75s0-.51.01-.76.02-.49.04-.74c.01-.11.02-.21.03-.32a.208.208,0,0,1,.01-.11c.01-.25.04-.51.07-.76.01-.1.03-.2.04-.3l.03-.21a3.967,3.967,0,0,1,.07-.48c.02-.13.04-.27.07-.4.05-.31.12-.62.19-.92.01-.05.02-.11.03-.16l.01-.01a.127.127,0,0,1,.01-.06.737.737,0,0,1,.04-.14c.08-.36.17-.71.27-1.06a.235.235,0,0,0,.02-.08q.18-.585.39-1.17t.45-1.17a.694.694,0,0,1,.05-.13c.13-.31.27-.62.41-.92.04-.1.09-.19.13-.28.17-.35.35-.69.53-1.03.02-.03.03-.06.05-.09.21-.39.43-.77.67-1.15a.076.076,0,0,0,.02-.04c.23-.37.47-.73.71-1.09.32-.46.65-.92.99-1.36.24-.3.48-.6.72-.89s.5-.57.75-.86c.06-.06.11-.11.16-.17q.435-.48.9-.93c.09-.1.19-.19.28-.28.24-.24.49-.47.74-.7.29-.27.59-.53.9-.8.05-.04.1-.09.15-.13.42-.34.84-.68,1.28-1.01.36-.27.72-.54,1.1-.8a.55.55,0,0,1,.09-.07c.01-.01.03-.02.04-.03.18-.13.36-.25.55-.37a2.028,2.028,0,0,1,.18-.13c.22-.15.45-.3.68-.43a4.434,4.434,0,0,1,.46-.29c.28-.18.57-.35.86-.52a1.093,1.093,0,0,1,.15-.08c.19-.12.39-.23.59-.33.12-.07.25-.14.37-.2.34-.19.7-.37,1.05-.54.45-.23.9-.44,1.36-.65.43-.2.87-.39,1.32-.58.09-.04.18-.07.27-.11.48-.2.97-.38,1.47-.56.44-.16.88-.32,1.33-.46.24-.08.48-.16.73-.23.32-.1.65-.2.98-.29s.66-.19,1-.28c.1-.03.21-.05.31-.08l.24-.06.14-.03c.31-.08.64-.15.96-.23a2.048,2.048,0,0,0,.24-.05c.12-.03.25-.06.37-.08a1.286,1.286,0,0,0,.19-.04c.25-.05.49-.1.75-.14.02,0,.04-.01.06-.01.46-.09.93-.17,1.4-.24.43-.07.86-.13,1.3-.18.12-.02.24-.03.36-.04a1.17,1.17,0,0,1,.32-.04c.05-.01.11-.01.16-.02.45-.06.9-.1,1.35-.13a2.635,2.635,0,0,1,.28-.02,1.21,1.21,0,0,1,.19-.01c.55-.05,1.1-.08,1.65-.1.64-.03,1.28-.04,1.93-.04,16.61,0,30.74,8.19,35.9,19.61a22.783,22.783,0,0,1,.84,2.12c.08.23.16.46.23.7a.235.235,0,0,1,.02.08c.08.24.15.49.21.73q.12.4.21.81c.17.71.3,1.44.4,2.17s.16,1.47.18,2.22c.01.25.01.51.01.76s0,.5-.01.75a23.191,23.191,0,0,1-2.09,8.85h-17.1a14.1,14.1,0,0,0,0-19.19c-4.04-4.68-10.95-7.76-18.8-7.76-12.47,0-22.57,7.77-22.57,17.35,0,4.66,2.38,8.87,6.25,11.98a25.815,25.815,0,0,0,15.16,5.35h.25c.3.02.6.02.91.02s.61,0,.91-.02h.25a46.332,46.332,0,0,1,18.47,4.18,37.539,37.539,0,0,1,3.33,1.75,35.75,35.75,0,0,1,4.55,3.11h.01C784.565,649.418,788.505,656.228,788.755,663.748Z" transform="translate(-187.755 -297.272)"/><path class="cls-1" d="M712.815,616.478c-.02.25-.03.49-.04.74.01-.18.01-.35.02-.53C712.805,616.618,712.805,616.548,712.815,616.478Z" transform="translate(-187.755 -297.272)"/><path class="cls-1" d="M713.375,669.728c-.01-.02-.01-.04-.02-.06l.01.01A.433.433,0,0,1,713.375,669.728Z" transform="translate(-187.755 -297.272)"/><path class="cls-1" d="M713.375,612.748a.127.127,0,0,0-.01.06l-.01.01C713.365,612.8,713.365,612.768,713.375,612.748Z" transform="translate(-187.755 -297.272)"/><path class="cls-1" d="M788.755,665.258c-.01.18-.01.35-.02.53-.01.07-.01.14-.02.21C788.735,665.748,788.745,665.508,788.755,665.258Z" transform="translate(-187.755 -297.272)"/></g></svg>