<svg xmlns="http://www.w3.org/2000/svg" viewBox="0 0 1630 220"><defs><style>.cls-1{fill:#121221;}.cls-2{fill:#366ce1;}</style></defs><title>magaya cargo systems</title><g id="Слой_2" data-name="Слой 2"><g id="Work_space" data-name="Work space"><g id="magaya_cargo_systems" data-name="magaya cargo systems"><path class="cls-1" d="M960,428.574a30,30,0,0,0-30-30H860v100h20v-40h50a10,10,0,0,1,10,10v30h20v-30a29.862,29.862,0,0,0-7.65-20A29.862,29.862,0,0,0,960,428.574Zm-80,10v-20h50a10,10,0,0,1,0,20Z" transform="translate(0 -398.574)"/><path class="cls-1" d="M1130,398.574a50,50,0,1,0,50,50A50.005,50.005,0,0,0,1130,398.574Zm0,80a30,30,0,1,1,30-30A30,30,0,0,1,1130,478.574Z" transform="translate(0 -398.574)"/><path class="cls-1" d="M728.28,458.574h20.71a50,50,0,1,1,0-20H728.28a30,30,0,1,0,0,20Z" transform="translate(0 -398.574)"/><path class="cls-1" d="M190.77,400.524l-.78-1.95H170.01l-.78,1.94L130,498.574h21.55l11.2-28h34.5l11.2,28H230Zm-20.02,50.05,9.25-23.13,9.25,23.13Z" transform="translate(0 -398.574)"/><path class="cls-1" d="M390.77,400.524l-.78-1.95H370.01l-.78,1.94L330,498.574h21.55l11.2-28h34.5l11.2,28H430Zm-20.02,50.05,9.25-23.13,9.25,23.13Z" transform="translate(0 -398.574)"/><path class="cls-1" d="M810.77,400.524l-.78-1.95H790.01l-.78,1.94L750,498.574h21.55l11.2-28h34.5l11.2,28H850Zm-20.02,50.05,9.25-23.13,9.25,23.13Z" transform="translate(0 -398.574)"/><path class="cls-1" d="M550.77,400.524l-.78-1.95H530.01l-.78,1.94L490,498.574h21.55l11.2-28h34.5l11.2,28H590Zm-20.02,50.05,9.25-23.13,9.25,23.13Z" transform="translate(0 -398.574)"/><path class="cls-1" d="M330,438.574v10a49.16,49.16,0,0,1-1.01,10,50.013,50.013,0,1,1-13.64-45.35l-14.14,14.14a30,30,0,1,0,7.07,31.21H280v-20Z" transform="translate(0 -398.574)"/><path class="cls-1" d="M1070,438.574v10a49.16,49.16,0,0,1-1.01,10,50.013,50.013,0,1,1-13.64-45.35l-14.14,14.14a30,30,0,1,0,7.07,31.21H1020v-20Z" transform="translate(0 -398.574)"/><polygon class="cls-1" points="472.83 46.46 470 50 470.05 50 470.05 100 450.05 100 450.05 50 447.22 46.46 410.05 0 435.66 0 460.02 30.45 484.38 0 510 0 472.83 46.46"/><path class="cls-1" d="M20.62,498.574l14.46-57.86,14.56,56.71.3,1.15H64.85l.03-.11v.11H70l.29-1.16,14.54-56.59,14.43,57.75h20.62v-.02l-24.61-98.41-.39-1.57H75.02l-.38,1.5L59.97,457.2l-14.7-57.24-.35-1.39H29.89l-.01.04v-.04H25.01l-.37,1.46L0,498.574Zm19.26-50.99v-.04l.02.04Zm0-47.53.19-.61-.19.64Z" transform="translate(0 -398.574)"/><polygon class="cls-1" points="39.88 48.97 39.9 49.01 39.88 49.01 39.88 48.97"/><polygon class="cls-1" points="39.88 1.48 40.07 0.87 39.88 1.51 39.88 1.48"/><polygon class="cls-1" points="39.88 1.48 40.07 0.87 39.88 1.51 39.88 1.48"/><polygon class="cls-2" points="644.98 130 644.98 165 734.98 165 734.98 175 644.98 175 644.98 210 734.98 210 734.98 220 634.98 220 634.98 120 734.98 120 734.98 130 644.98 130"/><path class="cls-2" d="M774.97,518.644v-.03l.01-.04h9.97l20.01,78.98q10.01-39.49,20.02-78.98h9.99l.01.01q15,50,29.99,99.99H854.53L830.35,538l-20.24,79.9-.14.56-.03.11h-9.97l-.17-.66-20.23-79.83-24.15,80.49H744.98Q759.976,568.609,774.97,518.644Z" transform="translate(0 -398.574)"/><path class="cls-2" d="M215.02,546.074a17.506,17.506,0,0,0,17.5,17.5h45a27.5,27.5,0,0,1,7.5,53.95,26.911,26.911,0,0,1-7.5,1.05h-72.5v-10h72.5a17.5,17.5,0,0,0,0-35h-45a27.5,27.5,0,0,1-7.5-53.95,26.911,26.911,0,0,1,7.5-1.05h72.5v10h-72.5A17.506,17.506,0,0,0,215.02,546.074Z" transform="translate(0 -398.574)"/><path class="cls-2" d="M424.98,546.074a17.506,17.506,0,0,0,17.5,17.5h45a27.5,27.5,0,0,1,7.5,53.95,26.911,26.911,0,0,1-7.5,1.05h-72.5v-10h72.5a17.5,17.5,0,1,0,0-35h-45a27.5,27.5,0,0,1-7.5-53.95,26.911,26.911,0,0,1,7.5-1.05h72.5v10h-72.5A17.506,17.506,0,0,0,424.98,546.074Z" transform="translate(0 -398.574)"/><path class="cls-2" d="M884.98,546.074a17.506,17.506,0,0,0,17.5,17.5h45a27.5,27.5,0,0,1,7.5,53.95,26.911,26.911,0,0,1-7.5,1.05h-72.5v-10h72.5a17.5,17.5,0,0,0,0-35h-45a27.5,27.5,0,0,1-7.5-53.95,26.911,26.911,0,0,1,7.5-1.05h72.5v10h-72.5A17.506,17.506,0,0,0,884.98,546.074Z" transform="translate(0 -398.574)"/><polygon class="cls-2" points="624.98 120 624.98 130 579.98 130 579.98 220 569.98 220 569.98 130 524.98 130 524.98 120 624.98 120"/><polygon class="cls-2" points="414.98 120 371.72 168.16 369.99 170.09 369.99 220 359.99 220 359.99 170.06 358.28 168.16 315.02 120 328.47 120 365 160.68 401.54 120 414.98 120"/><path class="cls-2" d="M1270,398.574v60h-60v160h160v-160Q1320.005,428.574,1270,398.574Zm70,190H1240v-100h100Z" transform="translate(0 -398.574)"/><path class="cls-2" d="M1500,458.574v160H1370v-30h100v-100H1370v-30h30v-60Q1450,428.574,1500,458.574Z" transform="translate(0 -398.574)"/><path class="cls-2" d="M1630,458.574v160H1500v-30h100v-100H1500v-30h30v-60Q1580,428.574,1630,458.574Z" transform="translate(0 -398.574)"/></g></g></g></svg>