<svg xmlns="http://www.w3.org/2000/svg" viewBox="0 0 740.01 100"><defs><style>.cls-1{fill:#121221;}</style></defs><title>magisto</title><g id="Слой_2" data-name="Слой 2"><g id="Work_space" data-name="Work space"><g id="magisto"><path class="cls-1" d="M690.01,0a50,50,0,1,0,50,50A50.005,50.005,0,0,0,690.01,0Zm0,90a40,40,0,1,1,40-40A40,40,0,0,1,690.01,90Z"/><path class="cls-1" d="M209.7,55l-4.51-10L185.48,1.27l.01-.01L185,.18h-.01L184.91,0h-9.84l-.08.18V.2l-.47,1.05h-.01L154.79,45l-4.51,10L130,100h10.97l20.28-45h37.48l20.28,45h10.97Zm-19.71-2.96-.02-.04h.02ZM165.76,45l14.23-31.58L194.23,45Z"/><path class="cls-1" d="M29.99.07V.04L30,0h9.97L59.98,78.98Q69.99,39.489,80,0h9.99L90,.01q15,50,29.99,99.99H109.55L85.37,19.43,65.13,99.33l-.14.56-.03.11H54.99l-.17-.66L34.59,19.51,10.44,100H0Q15,50.035,29.99.07Z"/><path class="cls-1" d="M439.99,27.5A17.506,17.506,0,0,0,457.49,45h45a27.5,27.5,0,0,1,7.5,53.95,26.911,26.911,0,0,1-7.5,1.05h-72.5V90h72.5a17.5,17.5,0,0,0,0-35h-45a27.5,27.5,0,0,1-7.5-53.95A26.911,26.911,0,0,1,457.49,0h72.5V10h-72.5A17.506,17.506,0,0,0,439.99,27.5Z"/><polygon class="cls-1" points="379.98 10 379.98 90 409.98 90 409.98 100 339.98 100 339.98 90 369.98 90 369.98 10 339.98 10 339.98 0 409.98 0 409.98 10 379.98 10"/><polygon class="cls-1" points="640 0 640 10 595 10 595 100 585 100 585 10 540 10 540 0 640 0"/><path class="cls-1" d="M330.01,50a48.521,48.521,0,0,1-.25,5,50.016,50.016,0,1,1-14.4-40.35l-7.07,7.07A39.992,39.992,0,1,0,319.7,55H280.01V45h49.75A48.521,48.521,0,0,1,330.01,50Z"/></g></g></g></svg>