<svg xmlns="http://www.w3.org/2000/svg" viewBox="0 0 309.183 335.172"><defs><style>.cls-1{fill:#121221;}.cls-2{fill:#e1e0e0;}</style></defs><title>mail_chimp</title><g id="Complete"><g id="mailchimp"><path class="cls-1" d="M592.042,575.817c-23.72,44.347-84.153,67.043-133.859,57.465C366.292,615.575,310.6,487.477,354.07,413.563c20.6-35.03,62.947-56.985,102.727-55.446C550.58,361.744,634.668,496.122,592.042,575.817Z" transform="translate(-294.248 -300.278)"/><path class="cls-2" d="M342.444,456.415c12.664-25.231,44.456-79.265,106.684-104.8,53.185-21.824,115.063-17.277,117.562-5.994,1.5,6.754-18.379,15.5-88.225,47.662C420.841,419.811,373.887,441.7,342.444,456.415Z" transform="translate(-294.248 -300.278)"/><path class="cls-2" d="M591.783,565.927c-6.788,12.868-15.367,20.559-20.529,25.1-5.433,4.781-25.936,21.806-56.536,25.859-32.02,4.242-83.32-4.631-93.148-36.657-1.48-4.824-5.075-20.131,8.46-42.86-18.86-37.31-14.34-77.59,10.16-90.09,15.39-7.85,35.01-2.89,52.22,11.07.91-23.86,9.24-41.89,23.59-46.3,23.11-7.1,53.11,23.82,67.01,69.07,1.2,3.92,2.25,7.82,3.13,11.67a38.481,38.481,0,0,1,8.184,8.238C612.312,525.81,592.767,564.062,591.783,565.927Z" transform="translate(-294.248 -300.278)"/><path class="cls-2" d="M312.155,526.634c-1.282-13.939,7.05-31.166,19.775-34.479,16.738-4.358,34.038,17.2,40.563,32.958,4.683,11.31,9.244,32.744,0,39.549C359.157,574.479,314.811,555.525,312.155,526.634Z" transform="translate(-294.248 -300.278)"/><path class="cls-2" d="M489.384,362.909a210.753,210.753,0,0,0-146.94,93.506,23.406,23.406,0,0,1-17.274,3.036,22.843,22.843,0,0,1-14.362-10.067l-12.975-20.39a22.916,22.916,0,0,1,7.03-31.636A413.535,413.535,0,0,1,451.8,303.852a23.413,23.413,0,0,1,17.274-3.037,22.845,22.845,0,0,1,14.362,10.067l12.976,20.391A22.916,22.916,0,0,1,489.384,362.909Z" transform="translate(-294.248 -300.278)"/><ellipse class="cls-1" cx="537.52" cy="468.558" rx="10" ry="20" transform="translate(-443.725 -22.793) rotate(-25.536)"/><path class="cls-1" d="M489.008,492.624a6.681,6.681,0,0,1-.977,5.593c-4.226-1.747-10.981-1.621-18,.712s-12.511,6.273-14.852,10.2a6.686,6.686,0,0,1-4.129-3.9c-1.74-5.239,5.342-12.312,15.828-15.795S487.268,487.386,489.008,492.624Z" transform="translate(-294.248 -300.278)"/><path class="cls-1" d="M595.338,528.915c-7.738-6.108-22.009,14.105-53.239,23.324-43.407,12.814-79.98-7.3-89.155,8.7a16.191,16.191,0,0,0-1.606,11.831c.645,2.277,3.346,8.488,18.254,13.943,7.723,2.827,26.489,8.245,76.816-5.07,33.379-8.831,39.9-14.54,43.86-20.028C598.217,550.605,601.415,533.713,595.338,528.915Z" transform="translate(-294.248 -300.278)"/><path class="cls-2" d="M592.211,533.394c-5.878-5.259-20.2,13.732-49.479,21.888-39.379,10.97-72.446-6.961-80.915,7.436-.3.514-2.953,5.167-1.653,10.174.4,1.551,2.418,7.888,16.559,12.649,6.816,2.295,25.207,7.173,68.671-4.992,28.381-7.942,34.847-14.026,38.451-18.422C591.819,552.4,596.8,537.5,592.211,533.394Z" transform="translate(-294.248 -300.278)"/><path class="cls-1" d="M517.507,515.986c-.973.726.365,5.13,3.38,7.775,2.918,2.558,7.335,3.406,7.944,2.366C529.938,524.233,519.259,514.678,517.507,515.986Z" transform="translate(-294.248 -300.278)"/><path class="cls-1" d="M532.412,509.576c1.168-.332,3.853,3.407,4.121,7.409.259,3.872-1.751,7.895-2.948,7.746C531.409,524.46,530.309,510.173,532.412,509.576Z" transform="translate(-294.248 -300.278)"/><path class="cls-1" d="M451.592,569.352c.205-1.3,7.929-1.106,11.535-1.014,8.156.208,12.234.312,20.155,1.9,22.221,4.46,56.156-5.272,56.535-3.549.25,1.137-14.351,6.167-30.676,8.873,0,0-27.512,4.562-50.831-2.915C456.556,572.085,451.42,570.439,451.592,569.352Z" transform="translate(-294.248 -300.278)"/><path class="cls-1" d="M328.718,526.127c-.247-5.758,5.084-12.078,11.493-13.69,9.08-2.285,19.119,5.182,19.606,11.662.562,7.483-11.774,11.55-10.141,17.408,1.009,3.616,6.878,6.254,11.155,5.408,3.935-.777,6.242-4.446,7.268-3.718.7.494.352,2.692-.676,4.226-2.9,4.328-12.856,5.736-18.085.676A12.578,12.578,0,0,1,346.3,535.93c1.551-5.14,6.052-5.6,6.422-9.972a8.963,8.963,0,0,0-5.577-8.62c-5.282-1.942-10.455,3.338-10.817,3.718-4.187,4.4-3.68,10.3-5.239,10.31C330.027,531.371,328.827,528.659,328.718,526.127Z" transform="translate(-294.248 -300.278)"/><path class="cls-1" d="M465.282,519.535c-.434-.4,3.719-9.048,12.169-11.831,8.058-2.654,16.147,1.305,16.056,1.859-.082.5-6.87-2.069-14.873.507C469.9,512.883,465.687,519.907,465.282,519.535Z" transform="translate(-294.248 -300.278)"/></g></g></svg>