<svg xmlns="http://www.w3.org/2000/svg" viewBox="0 0 1107.148 189.2"><defs><style>.cls-1{fill:#1c1e20;}.cls-2{fill:#366ce1;}</style></defs><title>maitenanan</title><g id="Слой_2" data-name="Слой 2"><g id="Work_space" data-name="Work space"><g id="maitenanan"><path class="cls-1" d="M115.46,50,86.6,100H72.45v89.2H43.55V100H28.86L0,50,28.86,0q7.215,12.5,14.43,25L28.86,50,43.29,75H72.16L86.6,50,72.16,25Q79.39,12.505,86.6,0Z"/><polygon class="cls-2" points="83.059 50 70.39 71.934 45.061 71.934 32.401 50 45.061 28.066 70.39 28.066 83.059 50"/><polygon class="cls-1" points="777.148 44.6 777.148 144.6 757.148 144.6 697.148 75.19 697.148 144.6 677.148 144.6 677.148 44.6 697.148 44.6 757.148 114.01 757.148 44.6 777.148 44.6"/><polygon class="cls-1" points="247.148 44.6 247.148 144.6 227.148 144.6 227.148 75.19 210.348 94.65 197.138 109.96 183.928 94.65 167.148 75.22 167.148 144.6 147.148 144.6 147.148 44.6 167.148 44.6 167.148 44.61 197.138 79.35 227.128 44.6 247.148 44.6"/><polygon class="cls-1" points="587.148 64.6 587.148 84.6 667.148 84.6 667.148 104.6 587.148 104.6 587.148 124.6 667.148 124.6 667.148 144.6 567.148 144.6 567.148 44.6 667.148 44.6 667.148 64.6 587.148 64.6"/><path class="cls-1" d="M847.918,46.55l-.78-1.95h-19.98l-.78,1.94-39.23,98.06H808.7l11.2-28h34.5l11.2,28h21.55ZM827.9,96.6l9.25-23.13L846.4,96.6Z"/><polygon class="cls-1" points="997.148 44.6 997.148 144.6 977.148 144.6 917.148 75.19 917.148 144.6 897.148 144.6 897.148 44.6 917.148 44.6 977.148 114.01 977.148 44.6 997.148 44.6"/><path class="cls-1" d="M1067.918,46.55l-.78-1.95h-19.98l-.78,1.94-39.23,98.06h21.55l11.2-28h34.5l11.2,28h21.55ZM1047.9,96.6l9.25-23.13,9.25,23.13Z"/><path class="cls-1" d="M317.918,46.55l-.78-1.95h-19.98l-.78,1.94-39.23,98.06H278.7l11.2-28h34.5l11.2,28h21.55ZM297.9,96.6l9.25-23.13L316.4,96.6Z"/><polygon class="cls-1" points="417.148 64.6 417.148 124.6 447.148 124.6 447.148 144.6 367.148 144.6 367.148 124.6 397.148 124.6 397.148 64.6 367.148 64.6 367.148 44.6 447.148 44.6 447.148 64.6 417.148 64.6"/><polygon class="cls-1" points="557.148 44.6 557.148 64.6 517.148 64.6 517.148 144.6 497.148 144.6 497.148 64.6 457.148 64.6 457.148 44.6 557.148 44.6"/></g></g></g></svg>