<svg id="Main" xmlns="http://www.w3.org/2000/svg" viewBox="0 0 440 400.05"><defs><style>.cls-1{fill:#1c1e20;}.cls-2{fill:#121221;}.cls-3{fill:#366ce1;}</style></defs><title>maltego</title><g id="maltego"><circle class="cls-1" cx="220.025" cy="150.025" r="150"/><circle class="cls-2" cx="133.422" cy="200.025" r="50"/><circle class="cls-2" cx="306.628" cy="200.025" r="50"/><circle class="cls-2" cx="220.025" cy="50.025" r="50"/><circle class="cls-3" cx="220.025" cy="150.025" r="25"/><rect class="cls-3" y="300.05" width="10" height="100"/><rect class="cls-3" x="90" y="300.05" width="10" height="100"/><rect class="cls-3" x="110" y="340.05" width="10" height="60"/><rect class="cls-3" x="10" y="310.05" width="10" height="10"/><rect class="cls-3" x="20" y="320.05" width="10" height="10"/><rect class="cls-3" x="30" y="330.05" width="10" height="10"/><rect class="cls-3" x="40" y="340.05" width="10" height="10"/><rect class="cls-3" x="360" y="710" width="10" height="10" transform="translate(800 -49.95) rotate(90)"/><rect class="cls-3" x="350" y="720" width="10" height="10" transform="translate(800 -29.95) rotate(90)"/><rect class="cls-3" x="340" y="730" width="10" height="10" transform="translate(800 -9.95) rotate(90)"/><rect class="cls-3" x="330" y="740" width="10" height="10" transform="translate(800 10.05) rotate(90)"/><rect class="cls-3" x="120" y="330.05" width="30" height="10"/><rect class="cls-3" x="180" y="390.05" width="40" height="10"/><rect class="cls-3" x="210" y="330.05" width="50" height="10"/><rect class="cls-3" x="270" y="390.05" width="50" height="10"/><rect class="cls-3" x="270" y="330.05" width="50" height="10"/><rect class="cls-3" x="340" y="330.05" width="30" height="10"/><rect class="cls-3" x="650" y="740" width="10" height="10" transform="translate(1120 -309.95) rotate(90)"/><rect class="cls-3" x="630" y="770" width="10" height="10" transform="translate(1130 -259.95) rotate(90)"/><rect class="cls-3" x="640" y="770" width="30" height="10" transform="translate(1150 -279.95) rotate(90)"/><rect class="cls-3" x="630" y="760" width="20" height="10" transform="translate(1000 1130.05) rotate(180)"/><rect class="cls-3" x="340" y="390.05" width="30" height="10"/><rect class="cls-3" x="270" y="360.05" width="50" height="10"/><rect class="cls-3" x="150" y="340.05" width="10" height="60"/><rect class="cls-3" x="170" y="330.05" width="10" height="70"/><rect class="cls-3" x="330" y="340.05" width="10" height="50"/><rect class="cls-3" x="690" y="760" width="50" height="10" transform="translate(1200 -349.95) rotate(90)"/><rect class="cls-3" x="400" y="390.05" width="30" height="10"/><rect class="cls-3" x="400" y="330.05" width="30" height="10"/><rect class="cls-3" x="390" y="340.05" width="10" height="50"/><rect class="cls-3" x="230" y="330.05" width="10" height="70"/><rect class="cls-3" x="270" y="330.05" width="10" height="70"/><rect class="cls-3" x="120" y="370.05" width="30" height="10"/></g></svg>