<svg xmlns="http://www.w3.org/2000/svg" viewBox="0 0 1549.88 100"><defs><style>.cls-1{fill:#121221;}.cls-2{fill:#366ce1;}</style></defs><title>manage art works</title><g id="Слой_2" data-name="Слой 2"><g id="Work_space" data-name="Work space"><g id="manage_art_works" data-name="manage art works"><polygon class="cls-1" points="320 0 320 100 300 100 240 30.59 240 100 220 100 220 0 240 0 300 69.41 300 0 320 0"/><polygon class="cls-1" points="100 0 100 100 80 100 80 30.59 63.2 50.05 49.99 65.36 36.78 50.05 20 30.62 20 100 0 100 0 0 20 0 20 0.01 49.99 34.75 79.98 0 100 0"/><path class="cls-1" d="M1469.88,30a10,10,0,0,0,10,10h40a30,30,0,0,1,0,60h-70V80h70a10,10,0,0,0,0-20h-40a30,30,0,0,1,0-60h70V20h-70A10,10,0,0,0,1469.88,30Z"/><polygon class="cls-1" points="560 20 560 40 640 40 640 60 560 60 560 80 640 80 640 100 540 100 540 0 640 0 640 20 560 20"/><path class="cls-2" d="M870,30A30,30,0,0,0,840,0H770V100h20V60h50a10,10,0,0,1,10,10v30h20V70a29.862,29.862,0,0,0-7.65-20A29.862,29.862,0,0,0,870,30ZM790,40V20h50a10,10,0,0,1,0,20Z"/><path class="cls-1" d="M1329.88,30a30,30,0,0,0-30-30h-70V100h20V60h50a10,10,0,0,1,10,10v30h20V70a29.862,29.862,0,0,0-7.65-20A29.862,29.862,0,0,0,1329.88,30Zm-80,10V20h50a10,10,0,0,1,0,20Z"/><path class="cls-1" d="M1169.88,0a50,50,0,1,0,50,50A50.005,50.005,0,0,0,1169.88,0Zm0,80a30,30,0,1,1,30-30A30,30,0,0,1,1169.88,80Z"/><polygon class="cls-1" points="1439.88 99.99 1439.88 100 1410.01 100 1369.39 63.43 1359.88 72 1359.88 100 1339.88 100 1339.88 0 1359.88 0 1359.88 45.09 1369.39 36.52 1409.95 0 1439.85 0 1384.34 49.98 1439.88 99.99"/><path class="cls-1" d="M170.77,1.95,169.99,0H150.01l-.78,1.94L110,100h21.55l11.2-28h34.5l11.2,28H210ZM150.75,52,160,28.87,169.25,52Z"/><path class="cls-2" d="M720.77,1.95,719.99,0H700.01l-.78,1.94L660,100h21.55l11.2-28h34.5l11.2,28H760ZM700.75,52,710,28.87,719.25,52Z"/><path class="cls-1" d="M390.77,1.95,389.99,0H370.01l-.78,1.94L330,100h21.55l11.2-28h34.5l11.2,28H430ZM370.75,52,380,28.87,389.25,52Z"/><path class="cls-1" d="M530,40V50a49.16,49.16,0,0,1-1.01,10,50.013,50.013,0,1,1-13.64-45.35L501.21,28.79A30,30,0,1,0,508.28,60H480V40Z"/><polygon class="cls-2" points="980 0 980 20 940 20 940 100 920 100 920 20 880 20 880 0 980 0"/><path class="cls-1" d="M1099.26,0,1084.8,57.86,1070.24,1.15l-.3-1.15h-14.91l-.03.11V0h-5.12l-.29,1.16-14.54,56.59L1020.62,0H1000V.02l24.61,98.41L1025,100h19.86l.38-1.5,14.67-57.13,14.7,57.24.35,1.39h15.03l.01-.04V100h4.87l.37-1.46L1119.88,0ZM1080,50.99v.04l-.02-.04Zm0,47.53-.19.61.19-.64Z"/><polygon class="cls-1" points="1080 51.03 1079.98 50.99 1080 50.99 1080 51.03"/><polygon class="cls-1" points="1080 98.52 1079.81 99.13 1080 98.49 1080 98.52"/><polygon class="cls-1" points="1080 98.52 1079.81 99.13 1080 98.49 1080 98.52"/></g></g></g></svg>