<svg xmlns="http://www.w3.org/2000/svg" viewBox="0 0 756.656 210"><defs><style>.cls-1{fill:#121221;}.cls-2{fill:#366ce1;}</style></defs><title>manymax</title><g id="Слой_2" data-name="Слой 2"><g id="Work_space" data-name="Work space"><g id="manymax"><polygon class="cls-1" points="314.146 208.71 148.786 208.71 231.466 65.5 314.146 208.71"/><polygon class="cls-1" points="165.36 208.71 0 208.71 82.68 65.5 165.36 208.71"/><polygon class="cls-1" points="202.436 144.5 37.076 144.5 119.756 1.29 202.436 144.5"/><polygon class="cls-1" points="277.076 144.5 111.716 144.5 194.396 1.29 277.076 144.5"/><polygon class="cls-2" points="239.756 208.71 74.396 208.71 157.076 65.5 239.756 208.71"/><polygon class="cls-2" points="646.706 0 646.706 100 626.706 100 566.706 30.59 566.706 100 546.706 100 546.706 0 566.706 0 626.706 69.41 626.706 0 646.706 0"/><polygon class="cls-2" points="426.706 0 426.706 100 406.706 100 406.706 30.59 389.906 50.05 376.696 65.36 363.486 50.05 346.706 30.62 346.706 100 326.706 100 326.706 0 346.706 0 346.706 0.01 376.696 34.75 406.686 0 426.706 0"/><polygon class="cls-1" points="426.706 110 426.706 210 406.706 210 406.706 140.59 389.906 160.05 376.696 175.36 363.486 160.05 346.706 140.62 346.706 210 326.706 210 326.706 110 346.706 110 346.706 110.01 376.696 144.75 406.686 110 426.706 110"/><polygon class="cls-2" points="719.486 46.46 716.656 50 716.706 50 716.706 100 696.706 100 696.706 50 693.876 46.46 656.706 0 682.316 0 706.676 30.45 731.036 0 756.656 0 719.486 46.46"/><path class="cls-2" d="M497.476,1.95,496.7,0h-19.98l-.78,1.94L436.706,100h21.55l11.2-28h34.5l11.2,28h21.55ZM477.456,52l9.25-23.13L495.956,52Z"/><path class="cls-1" d="M497.476,111.95,496.7,110h-19.98l-.78,1.94L436.706,210h21.55l11.2-28h34.5l11.2,28h21.55ZM477.456,162l9.25-23.13,9.25,23.13Z"/><polygon class="cls-1" points="609.186 160.03 646.636 210 621.646 210 596.696 176.7 571.736 210 546.756 210 584.196 160.03 546.706 110 571.686 110 596.696 143.36 621.696 110 646.686 110 609.186 160.03"/></g></g></g></svg>