<svg xmlns="http://www.w3.org/2000/svg" viewBox="0 0 1180 133"><defs><style>.cls-1{fill:#121221;}.cls-2{fill:#366ce1;}</style></defs><title>mapRtechnologies</title><g id="Слой_2" data-name="Слой 2"><g id="Work_space" data-name="Work space"><g id="mapRtechnologies"><polygon class="cls-1" points="1027.619 49.206 1027.619 87.302 1040.317 87.302 1040.317 100 1002.222 100 1002.222 87.302 1014.921 87.302 1014.921 49.206 1002.222 49.206 1002.222 36.508 1040.317 36.508 1040.317 49.206 1027.619 49.206"/><polygon class="cls-1" points="722.857 36.508 722.857 100 710.159 100 672.063 55.93 672.063 100 659.365 100 659.365 36.508 672.063 36.508 710.159 80.578 710.159 36.508 722.857 36.508"/><polygon class="cls-1" points="100 0 100 100 80 100 80 30.59 63.2 50.05 49.99 65.36 36.78 50.05 20 30.62 20 100 0 100 0 0 20 0 20 0.01 49.99 34.75 79.98 0 100 0"/><path class="cls-1" d="M1129.206,55.556a6.352,6.352,0,0,0,6.35,6.349h25.4a19.048,19.048,0,1,1,0,38.1h-44.444V87.3h44.444a6.35,6.35,0,1,0,0-12.7h-25.4a19.048,19.048,0,1,1,0-38.095H1180v12.7h-44.444A6.353,6.353,0,0,0,1129.206,55.556Z"/><polygon class="cls-1" points="653.016 36.508 653.016 100 640.317 100 640.317 74.603 602.222 74.603 602.222 100 589.524 100 589.524 36.508 602.222 36.508 602.222 61.905 640.317 61.905 640.317 36.508 653.016 36.508"/><polygon class="cls-1" points="1059.365 49.206 1059.365 61.905 1110.159 61.905 1110.159 74.603 1059.365 74.603 1059.365 87.302 1110.159 87.302 1110.159 100 1046.667 100 1046.667 36.508 1110.159 36.508 1110.159 49.206 1059.365 49.206"/><polygon class="cls-1" points="462.54 49.206 462.54 61.905 513.333 61.905 513.333 74.603 462.54 74.603 462.54 87.302 513.333 87.302 513.333 100 449.841 100 449.841 36.508 513.333 36.508 513.333 49.206 462.54 49.206"/><polygon class="cls-1" points="862.54 87.302 862.54 100 799.048 100 799.048 36.508 811.746 36.508 811.746 87.302 862.54 87.302"/><path class="cls-2" d="M360,30A30,30,0,0,0,330,0H260V100h20V60h50a10,10,0,0,1,10,10v30h20V70a29.862,29.862,0,0,0-7.65-20A29.862,29.862,0,0,0,360,30ZM280,40V20h50a10,10,0,0,1,0,20Z"/><path class="cls-1" d="M760.952,36.508A31.746,31.746,0,1,0,792.7,68.254,31.75,31.75,0,0,0,760.952,36.508Zm0,50.794A19.048,19.048,0,1,1,780,68.254,19.046,19.046,0,0,1,760.952,87.3Z"/><path class="cls-1" d="M894.286,36.508a31.746,31.746,0,1,0,31.746,31.746A31.75,31.75,0,0,0,894.286,36.508Zm0,50.794a19.048,19.048,0,1,1,19.047-19.048A19.047,19.047,0,0,1,894.286,87.3Z"/><path class="cls-1" d="M570.025,74.6h13.15a31.746,31.746,0,1,1,0-12.7h-13.15a19.048,19.048,0,1,0,0,12.7Z"/><path class="cls-1" d="M995.873,61.905v6.349a31.239,31.239,0,0,1-.641,6.349,31.756,31.756,0,1,1-8.661-28.793l-8.977,8.977A19.047,19.047,0,1,0,982.083,74.6H964.127v-12.7Z"/><path class="cls-1" d="M160,39.314C127.656,19,93.563,51.426,110.491,83.823a31.574,31.574,0,0,0,11.274,11.306c13.88,7.3,27.8,5.212,37.568-2.136v6.674h13.334V62.324A27.166,27.166,0,0,0,160,39.314Zm-8.6,43.442c-19.835,12.066-40.552-8.651-28.486-28.486a13.054,13.054,0,0,1,4.359-4.359C147.1,37.845,167.822,58.562,155.756,78.4A13.072,13.072,0,0,1,151.4,82.756Z"/><path class="cls-1" d="M212.667,33a33.337,33.337,0,0,0-33.334,33.333V133h13.334V92.993a33.331,33.331,0,1,0,20-59.993Zm0,53.333a20,20,0,1,1,20-20A20,20,0,0,1,212.667,86.333Z"/><polygon class="cls-1" points="443.492 36.508 443.492 49.206 418.095 49.206 418.095 100 405.397 100 405.397 49.206 380 49.206 380 36.508 443.492 36.508"/></g></g></g></svg>