<svg xmlns="http://www.w3.org/2000/svg" viewBox="0 0 430 100"><defs><style>.cls-1{fill:#121221;}.cls-2{fill:#366ce1;}</style></defs><title>marq</title><g id="Слой_2" data-name="Слой 2"><g id="Work_space" data-name="Work space"><g id="marq"><polygon class="cls-1" points="100 0 100 100 80 100 80 30.59 63.2 50.05 49.99 65.36 36.78 50.05 20 30.62 20 100 0 100 0 0 20 0 20 0.01 49.99 34.75 79.98 0 100 0"/><path class="cls-1" d="M309.887,30a30,30,0,0,0-30-30h-70V100h20V60h50a10,10,0,0,1,10,10v30h20V70a29.862,29.862,0,0,0-7.65-20A29.862,29.862,0,0,0,309.887,30Zm-80,10V20h50a10,10,0,0,1,0,20Z"/><path class="cls-1" d="M165.714,1.95,164.934,0h-19.98l-.78,1.94L104.944,100h21.55l11.2-28h34.5l11.2,28h21.55ZM145.694,52l9.25-23.13L164.194,52Z"/><path class="cls-2" d="M430,50a50.02,50.02,0,1,0-20,39.99V100h20V80H419.99A49.726,49.726,0,0,0,430,50ZM380,80a30,30,0,1,1,30-30A30,30,0,0,1,380,80Z"/></g></g></g></svg>