<svg id="Main" xmlns="http://www.w3.org/2000/svg" viewBox="0 0 340 406.07"><defs><style>.cls-1{fill:#1c1e20;}.cls-2{fill:#121221;}.cls-3{fill:#366ce1;}.cls-4{fill:#e1dfdf;}</style></defs><title>mathcad</title><g id="MathCad"><path class="cls-1" d="M612.5,750v20.86a14.839,14.839,0,0,0-5-.86,15,15,0,0,0,0,30,14.839,14.839,0,0,0,5-.86,15,15,0,0,0,10-14.14V750Zm-5,40a5,5,0,1,1,5-5A5,5,0,0,1,607.5,790Z" transform="translate(-330 -393.93)"/><path class="cls-1" d="M581.5,770.86a14.839,14.839,0,0,0-5-.86,15,15,0,0,0,0,30,14.839,14.839,0,0,0,5-.86V800h10V785A15,15,0,0,0,581.5,770.86Zm-5,19.14a5,5,0,1,1,5-5A5,5,0,0,1,576.5,790Z" transform="translate(-330 -393.93)"/><path class="cls-1" d="M448.5,770.86a14.839,14.839,0,0,0-5-.86,15,15,0,0,0,0,30,14.839,14.839,0,0,0,5-.86V800h10V785A15,15,0,0,0,448.5,770.86Zm-5,19.14a5,5,0,1,1,5-5A5,5,0,0,1,443.5,790Z" transform="translate(-330 -393.93)"/><path class="cls-1" d="M520.5,785v15h-10V785a5,5,0,0,0-10,0v15h-10V750h10v20.86a14.839,14.839,0,0,1,5-.86,15,15,0,0,1,14.14,10A14.839,14.839,0,0,1,520.5,785Z" transform="translate(-330 -393.93)"/><path class="cls-1" d="M545.5,790h14.14a15,15,0,1,1,0-10H545.5a5,5,0,0,0,0,10Z" transform="translate(-330 -393.93)"/><path class="cls-1" d="M469.5,770v15a5,5,0,0,0,10,0h10a15,15,0,0,1-30,0V750h10v10h20v10Z" transform="translate(-330 -393.93)"/><path class="cls-1" d="M427.5,750v35.86a15,15,0,0,1-10,14.14V750Z" transform="translate(-330 -393.93)"/><path class="cls-1" d="M387.5,750v50a15,15,0,0,1-10-14.14V750Z" transform="translate(-330 -393.93)"/><ellipse class="cls-1" cx="412.5" cy="762.5" rx="23.091" ry="5.413" transform="translate(-762.123 173.188) rotate(-48.562)"/><ellipse class="cls-1" cx="392.5" cy="762.5" rx="5.413" ry="23.091" transform="translate(-736.373 56.698) rotate(-41.438)"/><polygon class="cls-2" points="151.7 218.3 120 236.6 120 300 84.98 300 66.55 267.46 17.25 180.46 70 150 101.7 168.3 112.27 150 141.13 200 151.7 218.3"/><polygon class="cls-3" points="273.45 267.46 255.02 300 120 300 120 236.6 151.7 218.3 141.13 200 220 200 220 236.6 273.45 267.46"/><polygon class="cls-2" points="340 150 322.75 180.46 273.45 267.46 220 236.6 220 200 198.87 200 227.73 150 238.3 131.7 270 150 322.75 119.54 340 150"/><polygon class="cls-3" points="322.75 119.54 270 150 238.3 131.7 227.73 150 198.87 100 188.3 81.7 220 63.4 220 0 255.02 0 273.45 32.54 322.75 119.54"/><polygon class="cls-2" points="220 63.4 188.3 81.7 198.87 100 120 100 120 63.4 66.55 32.54 84.98 0 220 0 220 63.4"/><polygon class="cls-3" points="141.13 100 112.27 150 101.7 168.3 70 150 17.25 180.46 0 150 17.25 119.54 66.55 32.54 120 63.4 120 100 141.13 100"/><polygon class="cls-4" points="227.73 150 198.87 200 141.13 200 112.27 150 141.13 100 198.87 100 227.73 150"/><polygon class="cls-1" points="195 125 195 175 185 175 185 150 175 175 165 175 155 150 155 175 145 175 145 125 165 125 170 150 175 125 195 125"/></g></svg>