<svg id="Complete" xmlns="http://www.w3.org/2000/svg" viewBox="0 0 640 430"><defs><style>.cls-1{fill:#121221;}.cls-2{fill:#366ce1;}</style></defs><title>matilion</title><g id="matilion"><path class="cls-1" d="M600,310H560l-50-50-10-10-10,10-50,50H400l70-70,30-30,30,30Z" transform="translate(-180 -210)"/><path class="cls-2" d="M800,510H740L600,370q-35,35.01-70,70l-20,20-10,10-10-10-20-20q-35-35-70-70L260,510H200L400,310q50,50.01,100,100,50-49.995,100-100Z" transform="translate(-180 -210)"/><polygon class="cls-1" points="100 328.761 100 428.761 90 428.761 90 342.831 50 382.831 10 342.831 10 428.761 0 428.761 0 328.761 10.07 328.761 50 368.691 89.93 328.761 100 328.761"/><path class="cls-1" d="M359.09,610l-3.64-10-20.34-55.87-1.5-4.13h-7.64l-1.5,4.13L304.13,600l-3.64,10-10.91,30h10.64l10.92-30h37.3l10.92,30H370Zm-44.31-10,15.01-41.25L344.8,600Z" transform="translate(-180 -210)"/><polygon class="cls-1" points="270 330 270 340 235 340 235 430 225 430 225 340 190 340 190 330 270 330"/><polygon class="cls-1" points="305 340 305 420 320 420 320 430 280 430 280 420 295 420 295 340 280 340 280 330 320 330 320 340 305 340"/><polygon class="cls-1" points="445 340 445 420 460 420 460 430 420 430 420 420 435 420 435 340 420 340 420 330 460 330 460 340 445 340"/><polygon class="cls-1" points="410 420 410 430 330 430 330 330 340 330 340 420 410 420"/><path class="cls-1" d="M690,540a40,40,0,0,0-40,40v20a40,40,0,0,0,80,0V580A40,40,0,0,0,690,540Zm29.05,67.49a30,30,0,0,1-58.1,0v-.01A29.774,29.774,0,0,1,660,600V580a29.774,29.774,0,0,1,.95-7.48c-.01-.01-.01-.01,0-.01a30,30,0,0,1,58.1,0c.01,0,.01,0,0,.01A29.774,29.774,0,0,1,720,580v20a29.774,29.774,0,0,1-.95,7.48Z" transform="translate(-180 -210)"/><polygon class="cls-1" points="640 330 640 430 629.88 430 570 344.48 570 430 560 430 560 330 572.07 330 630 412.73 630 330 640 330"/></g></svg>