<svg xmlns="http://www.w3.org/2000/svg" viewBox="0 0 808.779 190"><defs><style>.cls-1{fill:#366ce1;}.cls-2{fill:#121221;}</style></defs><title>matterport</title><g id="Слой_2" data-name="Слой 2"><g id="Work_space" data-name="Work space"><g id="matterport"><path class="cls-1" d="M149.712,40a50.007,50.007,0,0,0-49.663,52.236c1.076,24.664,22.842,46.526,47.5,47.7A49.771,49.771,0,0,0,180,129.99V130a10,10,0,0,0,10,10h0a10,10,0,0,0,10-10V90.82C200,62.96,177.571,39.844,149.712,40ZM150,120a30,30,0,1,1,30-30A30,30,0,0,1,150,120Z"/><path class="cls-2" d="M120,75v55a10,10,0,0,1-20,0V75a15,15,0,0,0-30,0h0v55a10,10,0,0,1-20,0V75h0a15,15,0,0,0-30,0v55a10,10,0,0,1-20,0V75a35.779,35.779,0,0,1,.35-5A35.011,35.011,0,0,1,60,50.5,35.011,35.011,0,0,1,119.65,70,35.779,35.779,0,0,1,120,75Z"/><path class="cls-2" d="M520,40a50.005,50.005,0,0,0-50,50v90a10,10,0,0,0,20,0V129.99A50,50,0,1,0,520,40Zm0,80a30,30,0,1,1,30-30A30,30,0,0,1,520,120Z"/><path class="cls-1" d="M600,40a50,50,0,1,0,50,50A50.005,50.005,0,0,0,600,40Zm0,80a30,30,0,1,1,30-30A30,30,0,0,1,600,120Z"/><path class="cls-2" d="M358.48,102.282a50.027,50.027,0,0,1-49.345,37.711C282.1,139.535,260,116.215,260,89.176V10A10,10,0,0,1,270,0h0a10,10,0,0,1,10,10V50.01a49.731,49.731,0,0,1,17.642-8.469A9.978,9.978,0,0,1,310,51.267h0a9.927,9.927,0,0,1-7.406,9.654,30.005,30.005,0,1,0,36.485,36.484A9.924,9.924,0,0,1,348.731,90h.012A9.959,9.959,0,0,1,358.48,102.282Z"/><path class="cls-2" d="M808.48,112.282a50.027,50.027,0,0,1-49.345,37.711C732.1,149.535,710,126.215,710,99.176V20a10,10,0,0,1,10-10h0a10,10,0,0,1,10,10V60.01a49.731,49.731,0,0,1,17.642-8.469A9.978,9.978,0,0,1,760,61.267h0a9.927,9.927,0,0,1-7.406,9.654,30.005,30.005,0,1,0,36.485,36.484A9.924,9.924,0,0,1,798.731,100h.012A9.959,9.959,0,0,1,808.48,112.282Z"/><path class="cls-2" d="M278.48,102.282a50.027,50.027,0,0,1-49.345,37.711C202.1,139.535,180,116.215,180,89.176V10A10,10,0,0,1,190,0h0a10,10,0,0,1,10,10V50.01a49.731,49.731,0,0,1,17.642-8.469A9.978,9.978,0,0,1,230,51.267h0a9.927,9.927,0,0,1-7.406,9.654,30.005,30.005,0,1,0,36.485,36.484A9.924,9.924,0,0,1,268.731,90h.012A9.959,9.959,0,0,1,278.48,102.282Z"/><path class="cls-2" d="M488.581,56.683l-.1.171a9.924,9.924,0,0,1-11.358,4.378A29.969,29.969,0,0,0,468.292,60c-16.561.164-29.7,14.1-29.7,30.664V130a10,10,0,0,1-10,10h0a10,10,0,0,1-10-10V50a10,10,0,0,1,10-10h0a10,10,0,0,1,10,10v.01A50.047,50.047,0,0,1,482.964,42.1,9.9,9.9,0,0,1,488.581,56.683Z"/><path class="cls-2" d="M718.735,90h0a9.9,9.9,0,0,1-9.645-7.366A30.056,30.056,0,0,0,687.51,60.95h-.02c-.44-.12-.88-.22-1.33-.31a1.356,1.356,0,0,0-.29-.06c-.36-.08-.72-.14-1.08-.19q-.75-.135-1.5-.21c-.24-.03-.47-.05-.71-.07-.27-.02-.55-.04-.82-.05a2.055,2.055,0,0,0-.35-.02c-.47-.03-.94-.04-1.41-.04h-.3c-.16,0-.32,0-.47.01l-.774.03c-.4.016-1.052.067-1.452.11l-.364.04c-.04,0-.07.01-.1.01-.33.04-.65.08-.97.13-.42.06-.84.14-1.25.22a4.674,4.674,0,0,0-.65.13c-.24.06-.48.11-.73.17A29.982,29.982,0,0,0,650,90c0,.11,0,.22.01.33-.01.11-.01.23-.01.34v39.019a10.207,10.207,0,0,1-9.282,10.286A10,10,0,0,1,630,130V50.311a10.207,10.207,0,0,1,9.282-10.286A10,10,0,0,1,650,50v.01a.55.55,0,0,0,.09-.07c.49-.36.98-.72,1.48-1.06.01-.01.03-.02.04-.03.48-.33.96-.66,1.45-.97l.33-.21c.45-.28.91-.56,1.37-.83.67-.39,1.35-.77,2.04-1.13.51-.27,1.01-.53,1.53-.78.02-.01.05-.02.07-.03.59-.28,1.19-.56,1.79-.82h.01c.61-.26,1.22-.51,1.83-.74a.076.076,0,0,1,.04-.02c.61-.24,1.23-.46,1.85-.67a49.014,49.014,0,0,1,6.86-1.8c.23-.04.47-.09.7-.12.3-.06.61-.11.91-.15s.587-.089.881-.13c.477-.065.955-.119,1.434-.167s.973-.108,1.445-.133c.43-.04.85-.06,1.28-.08s.85-.04,1.28-.05S679.57,40,680,40c.45,0,.89.01,1.33.02.38.01.76.02,1.13.05.93.03,1.84.1,2.75.2.23.02.46.05.69.08.43.04.85.1,1.27.17.59.08,1.18.17,1.77.28.38.07.76.14,1.13.22s.74.15,1.11.24c.59.13,1.19.28,1.77.44.39.1.77.21,1.15.33a2.681,2.681,0,0,1,.27.07l.09.03a50.083,50.083,0,0,1,34,35.507A9.981,9.981,0,0,1,718.735,90Z"/><path class="cls-1" d="M425.348,68.794a9.953,9.953,0,0,0,.119-14.025l-.118-.118a49.14,49.14,0,0,0-7.785-6.357,50,50,0,0,0-69.282,69.282,49.953,49.953,0,0,0,14.142,14.142A50.009,50.009,0,0,0,437,107.072a9.924,9.924,0,0,0-10.4-13.278l-.2.023a9.883,9.883,0,0,0-8.2,6.446,30.006,30.006,0,0,1-41.122,16.811Zm-56.567,0a29.979,29.979,0,0,1,34.139-5.855l-39.994,39.994A29.978,29.978,0,0,1,368.781,68.793Z"/></g></g></g></svg>