<svg xmlns="http://www.w3.org/2000/svg" viewBox="0 0 702.058 150"><title>maverick</title><polygon points="681.029 110 687.528 123.167 702.058 125.279 691.544 135.528 694.026 150 681.029 143.167 668.032 150 670.515 135.528 660 125.279 674.531 123.167 681.029 110"/><path d="M448.469,67.324A37.369,37.369,0,0,0,426.053.053H388.68V149.545h14.949V74.8h22.424a22.422,22.422,0,0,1,22.424,22.424v52.322h14.949V97.223A37.3,37.3,0,0,0,448.469,67.324Zm-44.84.008v-.015c0,.007.008.007.008.007A.008.008,0,0,0,403.629,67.332Zm22.424-7.482H403.629V15h22.424a22.424,22.424,0,0,1,0,44.848Z"/><polygon points="134.543 149.545 119.594 149.545 97.17 37.425 74.746 149.545 59.797 149.545 37.373 37.425 14.949 149.545 0 149.545 29.898 0.052 44.848 0.052 67.272 112.172 89.695 0.052 104.645 0.052 134.543 149.545"/><polygon points="216.764 149.545 201.815 149.545 179.391 37.425 156.967 149.545 142.018 149.545 171.916 0.052 186.865 0.052 216.764 149.545"/><polygon points="298.985 0.052 269.086 149.545 254.137 149.545 224.238 0.052 239.188 0.052 261.612 112.172 284.035 0.052 298.985 0.052"/><path d="M553.124,112.172h14.95a37.374,37.374,0,0,1-74.747,0V37.426a37.374,37.374,0,0,1,74.747,0h-14.95a22.424,22.424,0,1,0-44.847,0v74.746a22.424,22.424,0,1,0,44.847,0Z"/><polygon points="650 149.343 650 149.492 631.62 149.492 590.203 92.618 590.203 149.492 575.254 149.492 575.254 0 590.203 0 590.203 56.717 631.5 0 649.993 0 595.622 74.664 650 149.343"/><rect x="306.459" y="134.596" width="74.746" height="14.949"/><rect x="306.459" y="67.324" width="74.746" height="14.949"/><rect x="306.459" y="0.053" width="74.746" height="14.949"/><rect x="470.901" y="0.053" width="14.949" height="149.492"/></svg>