<svg xmlns="http://www.w3.org/2000/svg" viewBox="0 0 930 100"><defs><style>.cls-1{fill:#366ce1;}.cls-2{fill:#121221;}</style></defs><title>max qda</title><g id="Слой_2" data-name="Слой 2"><g id="Work_space" data-name="Work space"><g id="max_qda" data-name="max qda"><path class="cls-1" d="M600,0H550V100h50A50,50,0,0,0,600,0Zm0,80H570V20h30a30,30,0,0,1,0,60Z"/><polygon class="cls-2" points="100 0 100 100 80 100 80 30.59 63.2 50.05 49.99 65.36 36.78 50.05 20 30.62 20 100 0 100 0 0 20 0 20 0.01 49.99 34.75 79.98 0 100 0"/><path class="cls-1" d="M710.77,1.95,709.99,0H690.01l-.78,1.94L650,100h21.55l11.2-28h34.5l11.2,28H750ZM690.75,52,700,28.87,709.25,52Z"/><path class="cls-2" d="M170.77,1.95,169.99,0H150.01l-.78,1.94L110,100h21.55l11.2-28h34.5l11.2,28H210ZM150.75,52,160,28.87,169.25,52Z"/><path class="cls-1" d="M540,50a50.019,50.019,0,1,0-22.44,41.71l8.29,8.29H530v-.08l.07.08H540V85.85l-8.29-8.29A49.7,49.7,0,0,0,540,50ZM517.07,62.93A30,30,0,1,1,520,50,30.037,30.037,0,0,1,517.07,62.93Z"/><polygon class="cls-2" points="930 0 930 100 910 100 910 30.59 893.2 50.05 879.99 65.36 866.78 50.05 850 30.62 850 100 830 100 830 0 850 0 850 0.01 879.99 34.75 909.98 0 930 0"/><path class="cls-1" d="M930,50a50.019,50.019,0,1,0-22.44,41.71l8.29,8.29H920v-.08l.07.08H930V85.85l-8.29-8.29A49.7,49.7,0,0,0,930,50ZM907.07,62.93A30,30,0,1,1,910,50,30.037,30.037,0,0,1,907.07,62.93Z"/><polygon class="cls-2" points="282.48 50.03 319.93 100 294.94 100 269.99 66.7 245.03 100 220.05 100 257.49 50.03 220 0 244.98 0 269.99 33.36 294.99 0 319.98 0 282.48 50.03"/></g></g></g></svg>