<svg xmlns="http://www.w3.org/2000/svg" viewBox="0 0 940 100.005"><defs><style>.cls-1{fill:#121221;}.cls-2{fill:#366ce1;}</style></defs><title>max edraw</title><g id="Слой_2" data-name="Слой 2"><g id="Work_space" data-name="Work space"><g id="max_edraw" data-name="max edraw"><polygon class="cls-1" points="313.662 20 313.662 40 393.662 40 393.662 60 313.662 60 313.662 80 393.662 80 393.662 100 293.662 100 293.662 0 393.662 0 393.662 20 313.662 20"/><path class="cls-1" d="M590,76.668V33.334h13.333V76.668a10,10,0,0,0,20,0h0V33.334h13.333V76.668h0a10,10,0,0,0,20,0V33.334H670V76.668A23.9,23.9,0,0,1,669.767,80,23.341,23.341,0,0,1,630,93a23.34,23.34,0,0,1-39.767-13A23.9,23.9,0,0,1,590,76.668Z"/><path class="cls-1" d="M452,0V40.007a33.335,33.335,0,1,0,0,53.321V100H465.33V0ZM432,86.668a20,20,0,1,1,20-20A20,20,0,0,1,432,86.668Z"/><path class="cls-1" d="M570,33.337v5.9c-32.14-19.46-65.661,12.747-48.841,44.921A31.5,31.5,0,0,0,532.43,95.465c13.88,7.3,27.8,5.213,37.567-2.134v6.674h13.334V33.337Zm-3.58,45.394a12.987,12.987,0,0,1-4.36,4.36c-19.834,12.067-40.547-8.647-28.48-28.48a12.987,12.987,0,0,1,4.36-4.36C553.69,40.664,570,51.757,570,66.664A23.162,23.162,0,0,1,566.417,78.731Z"/><path class="cls-1" d="M522.331,38.087q-3.431,5.721-6.86,11.434a19.993,19.993,0,0,0-30.287,17.147V100H471.85V33.334h13.334v6.673a33.307,33.307,0,0,1,37.147-1.92Z"/><polygon class="cls-2" points="100 0.002 100 100.002 80 100.002 80 30.592 63.2 50.052 49.99 65.362 36.78 50.052 20 30.622 20 100.002 0 100.002 0 0.002 20 0.002 20 0.012 49.99 34.752 79.98 0.002 100 0.002"/><path class="cls-2" d="M180,10.012A50,50,0,0,0,100,50v50h20V60h60v40h20V50A49.891,49.891,0,0,0,180,10.012ZM121.72,40a29.994,29.994,0,0,1,56.56,0Z"/><polygon class="cls-2" points="242.5 50.032 279.95 100.002 254.96 100.002 230.01 66.702 205.05 100.002 200 100.002 200 73.402 217.51 50.032 200 26.662 180.02 0.002 205 0.002 230.01 33.362 255.01 0.002 280 0.002 242.5 50.032"/><path class="cls-2" d="M940,20V0H810a50,50,0,0,0,0,100H940V80H860V60h80V40H860V20ZM840,80H810a30,30,0,0,1,0-60h30Z"/></g></g></g></svg>