<svg id="Complete" xmlns="http://www.w3.org/2000/svg" viewBox="0 0 460 440"><defs><style>.cls-1{fill:#e1dfdf;}.cls-2{fill:#366ce1;}</style></defs><title>maxis</title><g id="maxis"><circle class="cls-1" cx="230" cy="150" r="150"/><path class="cls-2" d="M390.307,392.322c-2.615-12.4,16.222-30.658,28.284-28.284,23.1,4.548,23.187,85.161,28.284,84.853,5.834-.353,2.824-105.786,7.071-106.066,4.813-.317,15.4,134.622,21.213,134.35,6.361-.3,2.734-162.484,7.072-162.634,4.709-.163,11.534,190.918,21.213,190.918s16.02-191.076,21.213-190.918c4.786.145,3.247,162.556,7.071,162.634,3.57.074,8.051-141.452,14.142-141.421,5.448.027,10.621,113.271,14.142,113.137,2.93-.112-6.226-78.292,14.142-84.853,13.055-4.2,39.465,20.616,35.356,35.355C599.365,435.784,398.067,429.12,390.307,392.322Z" transform="translate(-270 -260)"/><path class="cls-2" d="M650,630a10,10,0,0,0,10,10h40a30,30,0,0,1,0,60H630V680h70a10,10,0,0,0,0-20H660a30,30,0,0,1,0-60h70v20H660A10,10,0,0,0,650,630Z" transform="translate(-270 -260)"/><path class="cls-2" d="M430,600a50.005,50.005,0,0,0-50,50v50h20V670h60v30h20V650A50.005,50.005,0,0,0,430,600Zm-30,50a30,30,0,0,1,60,0Z" transform="translate(-270 -260)"/><path class="cls-2" d="M370,630v70H350V630a10,10,0,0,0-20,0v70H310V630a10,10,0,0,0-20,0v70H270V630a29.979,29.979,0,0,1,20-28.28,29.957,29.957,0,0,1,30,5.93A29.991,29.991,0,0,1,370,630Z" transform="translate(-270 -260)"/><polygon class="cls-2" points="320 354.14 284.14 390 320 425.86 320 440 305.86 440 270 404.14 234.14 440 220 440 220 425.86 255.86 390 220 354.14 220 340 234.14 340 270 375.86 305.86 340 320 340 320 354.14"/><rect class="cls-2" x="330" y="340" width="20" height="100"/><circle class="cls-2" cx="340" cy="320" r="10"/></g></svg>