<svg xmlns="http://www.w3.org/2000/svg" viewBox="0 0 1067.118 281.449"><defs><style>.cls-1,.cls-3,.cls-4{fill:#121221;}.cls-2{fill:#366ce1;}.cls-3{opacity:0.62;}.cls-4{opacity:0.38;}</style></defs><title>medalia</title><g id="Слой_2" data-name="Слой 2"><g id="Work_space" data-name="Work space"><g id="medalia"><polygon class="cls-1" points="580 110.725 580 170.725 600 170.725 600 190.725 540 190.725 540 170.725 560 170.725 560 110.725 540 110.725 540 90.725 600 90.725 600 110.725 580 110.725"/><path class="cls-1" d="M270,90.725H220v100h50a50,50,0,0,0,0-100Zm0,80H240v-60h30a30,30,0,0,1,0,60Z"/><polygon class="cls-1" points="100 90.725 100 190.725 80 190.725 80 121.314 63.2 140.775 49.99 156.085 36.78 140.775 20 121.345 20 190.725 0 190.725 0 90.725 20 90.725 20 90.735 49.99 125.475 79.98 90.725 100 90.725"/><polygon class="cls-1" points="130 110.725 130 130.725 210 130.725 210 150.725 130 150.725 130 170.725 210 170.725 210 190.725 110 190.725 110 90.725 210 90.725 210 110.725 130 110.725"/><polygon class="cls-1" points="530 170.725 530 190.725 430 190.725 430 90.725 450 90.725 450 170.725 530 170.725"/><path class="cls-1" d="M380.77,92.675l-.78-1.95H360.01l-.78,1.94L320,190.725h21.55l11.2-28h34.5l11.2,28H420Zm-20.02,50.05L370,119.6l9.25,23.13Z"/><path class="cls-1" d="M670.77,92.675l-.78-1.95H650.01l-.78,1.94L610,190.725h21.55l11.2-28h34.5l11.2,28H710Zm-20.02,50.05L660,119.6l9.25,23.13Z"/><polygon class="cls-2" points="864.967 202.16 935.678 131.449 996.389 210.738 925.678 281.449 864.967 202.16"/><polygon class="cls-2" points="935.678 131.449 1006.389 60.738 1067.099 140.028 996.389 210.738 935.678 131.449"/><polygon class="cls-1" points="864.986 202.136 935.697 131.425 996.408 210.714 925.697 281.425 864.986 202.136"/><polygon class="cls-3" points="935.697 131.425 1006.408 60.714 1067.118 140.004 996.408 210.714 935.697 131.425"/><polygon class="cls-2" points="784.32 141.421 855.031 70.711 935.742 131.421 865.031 202.132 784.32 141.421"/><polygon class="cls-2" points="855.031 70.711 925.742 0 1006.452 60.711 935.742 131.421 855.031 70.711"/><polygon class="cls-4" points="784.328 141.364 855.038 70.653 935.749 131.364 865.038 202.075 784.328 141.364"/></g></g></g></svg>