<svg id="Main" xmlns="http://www.w3.org/2000/svg" viewBox="0 0 430 660"><defs><style>.cls-1{fill:#121221;}.cls-2{fill:#366ce1;}</style></defs><title>metasploit</title><g id="Metasploit"><path class="cls-1" d="M530,340q30-35,60-70V570l-90,90-90-90V270q30,35,60,70V490h60Z" transform="translate(-285 -100)"/><path class="cls-1" d="M700,200V419.41a194.55,194.55,0,0,1-50,130.21V230H590L500,342.5,410,230H350V549.62a194.55,194.55,0,0,1-50-130.21V200c73.5-98,187.55-100,200-100C622.5,100,692.53,190.04,700,200Z" transform="translate(-285 -100)"/><path class="cls-2" d="M650,200V519.62q-3.39,3.765-6.99,7.37L590,580V280q-30,35-60,70V500H470V350q-30-35-60-70V580l-53.01-53.01q-3.6-3.6-6.99-7.37V200h60l90,112.5L590,200Z" transform="translate(-285 -100)"/><rect class="cls-1" y="580" width="10" height="80"/><rect class="cls-1" x="60" y="580" width="10" height="80"/><rect class="cls-1" x="30" y="620" width="10" height="10"/><rect class="cls-1" x="30" y="610" width="10" height="10"/><rect class="cls-1" x="20" y="600" width="10" height="10"/><rect class="cls-1" x="40" y="600" width="10" height="10"/><rect class="cls-1" x="10" y="590" width="10" height="10"/><rect class="cls-1" x="50" y="590" width="10" height="10"/><rect class="cls-1" x="80" y="610" width="10" height="50"/><rect class="cls-1" x="240" y="610" width="10" height="50"/><rect class="cls-1" x="180" y="610" width="10" height="50"/><rect class="cls-1" x="160" y="610" width="10" height="50"/><rect class="cls-1" x="130" y="610" width="10" height="50"/><rect class="cls-1" x="90" y="650" width="20" height="10"/><rect class="cls-1" x="90" y="630" width="20" height="10"/><rect class="cls-1" x="90" y="610" width="20" height="10"/><rect class="cls-1" x="200" y="610" width="30" height="10"/><rect class="cls-1" x="200" y="630" width="30" height="10"/><rect class="cls-1" x="200" y="650" width="30" height="10"/><rect class="cls-1" x="170" y="610" width="10" height="10"/><rect class="cls-1" x="170" y="640" width="10" height="10"/><rect class="cls-1" x="120" y="610" width="30" height="10"/><rect class="cls-1" x="410" y="610" width="10" height="50"/><rect class="cls-1" x="400" y="610" width="30" height="10"/><rect class="cls-1" x="200" y="620" width="10" height="10"/><rect class="cls-1" x="525" y="730" width="30" height="10" transform="translate(795 1370) rotate(180)"/><rect class="cls-1" x="525" y="710" width="30" height="10" transform="translate(795 1330) rotate(180)"/><rect class="cls-1" x="280" y="610" width="10" height="50"/><rect class="cls-1" x="565" y="750" width="30" height="10" transform="translate(875 1410) rotate(180)"/><rect class="cls-1" x="545" y="720" width="10" height="10" transform="translate(815 1350) rotate(180)"/><rect class="cls-1" x="220" y="640" width="10" height="10"/><rect class="cls-1" x="320" y="610" width="10" height="50"/><rect class="cls-1" x="340" y="610" width="10" height="50"/><rect class="cls-1" x="370" y="620" width="10" height="40"/><rect class="cls-1" x="330" y="650" width="10" height="10"/><rect class="cls-1" x="330" y="610" width="10" height="10"/><rect class="cls-1" x="360" y="610" width="30" height="10"/><rect class="cls-1" x="360" y="650" width="30" height="10"/></g></svg>