<svg xmlns="http://www.w3.org/2000/svg" viewBox="0 0 1013.775 242.47"><defs><style>.cls-1{fill:#366ce1;}.cls-2,.cls-3{fill:#121221;}.cls-2{opacity:0.62;}.cls-3{opacity:0.38;}</style></defs><title>metwork</title><g id="Слой_2" data-name="Слой 2"><g id="Work_space" data-name="Work space"><g id="metwork"><polygon class="cls-1" points="1013.775 60.6 1013.775 181.87 908.765 242.47 803.775 181.87 803.775 60.6 803.795 60.59 908.765 0 1013.755 60.59 1013.775 60.6"/><path class="cls-2" d="M1013.755,60.6l-104.99,60.6L803.775,60.61V181.87l104.99-60.67,105.01,60.67Q1013.765,121.236,1013.755,60.6Z"/><path class="cls-3" d="M908.765,242.47q-52.5-90.93-104.99-181.86V181.87Z"/><path class="cls-3" d="M908.765,242.47q52.494-90.93,104.99-181.86V181.87Z"/><path class="cls-3" d="M908.765,0q52.494,90.93,104.99,181.86V60.6Z"/><path class="cls-3" d="M908.765,0q-52.5,90.93-104.99,181.86V60.6Z"/><polygon class="cls-1" points="100 71.235 100 171.235 80 171.235 80 101.825 63.2 121.285 49.99 136.595 36.78 121.285 20 101.855 20 171.235 0 171.235 0 71.235 20 71.235 20 71.245 49.99 105.985 79.98 71.235 100 71.235"/><polygon class="cls-1" points="130 91.235 130 111.235 210 111.235 210 131.235 130 131.235 130 151.235 210 151.235 210 171.235 110 171.235 110 71.235 210 71.235 210 91.235 130 91.235"/><path class="cls-1" d="M660,101.235a30,30,0,0,0-30-30H560v100h20v-40h50a10,10,0,0,1,10,10v30h20v-30a29.862,29.862,0,0,0-7.65-20A29.862,29.862,0,0,0,660,101.235Zm-80,10v-20h50a10,10,0,0,1,0,20Z"/><path class="cls-1" d="M500,71.235a50,50,0,1,0,50,50A50.005,50.005,0,0,0,500,71.235Zm0,80a30,30,0,1,1,30-30A30,30,0,0,1,500,151.235Z"/><polygon class="cls-1" points="770 171.225 770 171.235 740.13 171.235 699.51 134.665 690 143.235 690 171.235 670 171.235 670 71.235 690 71.235 690 116.325 699.51 107.755 740.07 71.235 769.97 71.235 714.46 121.215 770 171.225"/><polygon class="cls-1" points="320 71.235 320 91.235 280 91.235 280 171.235 260 171.235 260 91.235 220 91.235 220 71.235 320 71.235"/><path class="cls-1" d="M429.26,71.235,414.8,129.1l-14.56-56.71-.3-1.15H385.03l-.03.11v-.11h-5.12l-.29,1.16-14.54,56.59-14.43-57.75H330v.02l24.61,98.41.39,1.57h19.86l.38-1.5,14.67-57.13,14.7,57.24.35,1.39h15.03l.01-.04v.04h4.87l.37-1.46,24.64-98.54ZM410,122.225v.04l-.02-.04Zm0,47.53-.19.61.19-.64Z"/><polygon class="cls-1" points="410 122.265 409.98 122.225 410 122.225 410 122.265"/><polygon class="cls-1" points="410 169.755 409.81 170.365 410 169.725 410 169.755"/><polygon class="cls-1" points="410 169.755 409.81 170.365 410 169.725 410 169.755"/></g></g></g></svg>