<svg xmlns="http://www.w3.org/2000/svg" viewBox="0 0 940 210"><defs><style>.cls-1{fill:#121221;}.cls-2{fill:#366ce1;}</style></defs><title>microsystems</title><g id="Complete"><g id="microsystems"><polygon class="cls-1" points="640 110 640 210 620 210 620 140.59 603.2 160.05 589.99 175.36 576.78 160.05 560 140.62 560 210 540 210 540 110 560 110 560 110.01 589.99 144.75 619.98 110 640 110"/><polygon class="cls-1" points="172.78 156.46 169.95 160 170 160 170 210 150 210 150 160 147.17 156.46 110 110 135.61 110 159.97 140.45 184.33 110 209.95 110 172.78 156.46"/><path class="cls-1" d="M50,535a10,10,0,0,0,10,10h40a30,30,0,0,1,0,60H30V585h70a10,10,0,0,0,0-20H60a30,30,0,0,1,0-60h70v20H60A10,10,0,0,0,50,535Z" transform="translate(-30 -395)"/><path class="cls-1" d="M260,535a10,10,0,0,0,10,10h40a30,30,0,0,1,0,60H240V585h70a10,10,0,0,0,0-20H270a30,30,0,0,1,0-60h70v20H270A10,10,0,0,0,260,535Z" transform="translate(-30 -395)"/><path class="cls-1" d="M700,535a10,10,0,0,0,10,10h40a30,30,0,0,1,0,60H680V585h70a10,10,0,0,0,0-20H710a30,30,0,0,1,0-60h70v20H710A10,10,0,0,0,700,535Z" transform="translate(-30 -395)"/><polygon class="cls-1" points="420 110 420 130 380 130 380 210 360 210 360 130 320 130 320 110 420 110"/><polygon class="cls-1" points="450 130 450 150 530 150 530 170 450 170 450 190 530 190 530 210 430 210 430 110 530 110 530 130 450 130"/><path class="cls-2" d="M538.28,455h20.71a50,50,0,1,1,0-20H538.28a30,30,0,1,0,0,20Z" transform="translate(-30 -395)"/><polygon class="cls-2" points="400 20 400 80 420 80 420 100 360 100 360 80 380 80 380 20 360 20 360 0 420 0 420 20 400 20"/><polygon class="cls-2" points="350 0 350 100 330 100 330 30.59 313.2 50.05 299.99 65.36 286.78 50.05 270 30.62 270 100 250 100 250 0 270 0 270 0.01 299.99 34.75 329.98 0 350 0"/><path class="cls-2" d="M670,425a30,30,0,0,0-30-30H570V495h20V455h50a10,10,0,0,1,10,10v30h20V465a29.862,29.862,0,0,0-7.65-20A29.862,29.862,0,0,0,670,425Zm-80,10V415h50a10,10,0,0,1,0,20Z" transform="translate(-30 -395)"/><path class="cls-2" d="M730,395a50,50,0,1,0,50,50A50.005,50.005,0,0,0,730,395Zm0,80a30,30,0,1,1,30-30A30,30,0,0,1,730,475Z" transform="translate(-30 -395)"/><path class="cls-1" d="M810,420V580H970V420ZM940,550H840V450H940Z" transform="translate(-30 -395)"/><path class="cls-2" d="M909.37,495h-7.3l5.15-5.15A19.49,19.49,0,0,1,909.37,495Z" transform="translate(-30 -395)"/><path class="cls-2" d="M909.37,505a19.8,19.8,0,0,1-2.14,5.15L902.07,505Z" transform="translate(-30 -395)"/><path class="cls-2" d="M900.15,517.22a19.49,19.49,0,0,1-5.15,2.15v-7.3Z" transform="translate(-30 -395)"/><path class="cls-2" d="M885,512.07v7.3a19.49,19.49,0,0,1-5.15-2.15Z" transform="translate(-30 -395)"/><path class="cls-2" d="M877.93,505l-5.16,5.15a19.8,19.8,0,0,1-2.14-5.15Z" transform="translate(-30 -395)"/><path class="cls-2" d="M877.93,495h-7.3a19.49,19.49,0,0,1,2.15-5.15Z" transform="translate(-30 -395)"/><path class="cls-2" d="M885,480.63v7.29l-5.15-5.15A19.8,19.8,0,0,1,885,480.63Z" transform="translate(-30 -395)"/><path class="cls-2" d="M900.15,482.77,895,487.92v-7.29A19.8,19.8,0,0,1,900.15,482.77Z" transform="translate(-30 -395)"/><path class="cls-2" d="M885,502.07V505h2.93Zm0,0V505h2.93Zm0,0V505h2.93Zm0,0V505h2.93Zm0,0V505h2.93Zm0,0V505h2.93Zm0,0V505h2.93ZM870.63,495H840v10h30.63a20.156,20.156,0,0,1,0-10ZM885,502.07V505h2.93Zm0,0V505h2.93Zm0,0V505h2.93Zm0,0V505h2.93Zm0,0V505h2.93Zm0,0V505h2.93Zm7.07,2.93H895v-2.93Zm.01-10,2.92,2.93V495Zm0,0,2.92,2.93V495Zm0,0,2.92,2.93V495Zm0,0,2.92,2.93V495Zm0,0,2.92,2.93V495Zm0,0,2.92,2.93V495Zm0,0,2.92,2.93V495Zm17.29,0a20.156,20.156,0,0,1,0,10H940V495Zm-17.29,0,2.92,2.93V495Zm0,0,2.92,2.93V495Zm0,0,2.92,2.93V495Zm0,0,2.92,2.93V495Zm0,0,2.92,2.93V495Zm0,0,2.92,2.93V495Zm-.01,10H895v-2.93Z" transform="translate(-30 -395)"/><path class="cls-1" d="M910,500a20.148,20.148,0,0,1-.63,5h-7.3l-2.41-2.42a10,10,0,0,0,0-5.17l2.41-2.41h7.3A20.148,20.148,0,0,1,910,500Z" transform="translate(-30 -395)"/><path class="cls-1" d="M880,500a9.974,9.974,0,0,0,.34,2.58L877.93,505h-7.3a20.156,20.156,0,0,1,0-10h7.3l2.41,2.41A10.051,10.051,0,0,0,880,500Z" transform="translate(-30 -395)"/><path class="cls-2" d="M882.93,500l-2.59,2.58a10,10,0,0,1,0-5.17Z" transform="translate(-30 -395)"/><path class="cls-2" d="M900,500a9.974,9.974,0,0,1-.34,2.58L897.07,500l2.59-2.59A10.051,10.051,0,0,1,900,500Z" transform="translate(-30 -395)"/><path class="cls-2" d="M885,502.07V505h2.93Zm7.07,2.93H895v-2.93Zm0,0H895v-2.93Zm0,0H895v-2.93Zm0,0H895v-2.93ZM885,519.37V550h10V519.37a20.156,20.156,0,0,1-10,0ZM892.07,505H895v-2.93Zm0,0H895v-2.93Zm0,0H895v-2.93Zm0,0H895v-2.93Zm0,0H895v-2.93Zm0,0H895v-2.93Zm0,0H895v-2.93Zm.01-10,2.92,2.93V495ZM885,450v30.63a20.156,20.156,0,0,1,10,0V450Zm7.08,45,2.92,2.93V495Z" transform="translate(-30 -395)"/><path class="cls-1" d="M895,512.07v7.3a20.156,20.156,0,0,1-10,0v-7.3l2.41-2.41a10.035,10.035,0,0,0,5.18,0Z" transform="translate(-30 -395)"/><path class="cls-1" d="M895,480.63v7.29l-2.42,2.42a9.959,9.959,0,0,0-5.16,0L885,487.92v-7.29a20.156,20.156,0,0,1,10,0Z" transform="translate(-30 -395)"/><path class="cls-2" d="M892.58,490.34,890,492.92l-2.58-2.58a9.959,9.959,0,0,1,5.16,0Z" transform="translate(-30 -395)"/><path class="cls-2" d="M892.59,509.66a10.035,10.035,0,0,1-5.18,0l2.59-2.59Z" transform="translate(-30 -395)"/><path class="cls-1" d="M890,492.92,887.92,495H885v-3.66a10.117,10.117,0,0,1,2.42-1Z" transform="translate(-30 -395)"/><polygon class="cls-2" points="857.92 100 855 102.93 855 100 857.92 100"/><path class="cls-2" d="M885,491.34V495h-3.66A10.036,10.036,0,0,1,885,491.34Z" transform="translate(-30 -395)"/><path class="cls-1" d="M885,495v2.93L882.93,500l-2.59-2.59a10.216,10.216,0,0,1,1-2.41Z" transform="translate(-30 -395)"/><path class="cls-2" d="M881.34,495a10.216,10.216,0,0,0-1,2.41L877.93,495Z" transform="translate(-30 -395)"/><path class="cls-2" d="M887.42,490.34a10.117,10.117,0,0,0-2.42,1v-3.42Z" transform="translate(-30 -395)"/><path class="cls-1" d="M885,487.92v3.42a10.036,10.036,0,0,0-3.66,3.66h-3.41l-5.15-5.15a19.9,19.9,0,0,1,7.07-7.08Z" transform="translate(-30 -395)"/><path class="cls-2" d="M879.85,482.77a19.9,19.9,0,0,0-7.07,7.08L840,457.07V450h7.08Z" transform="translate(-30 -395)"/><path class="cls-1" d="M895,505v3.66a10.216,10.216,0,0,1-2.41,1L890,507.07l2.07-2.07Z" transform="translate(-30 -395)"/><path class="cls-2" d="M898.66,505a10.036,10.036,0,0,1-3.66,3.66V505Z" transform="translate(-30 -395)"/><path class="cls-1" d="M899.66,502.58a10.117,10.117,0,0,1-1,2.42H895v-2.93l2.07-2.07Z" transform="translate(-30 -395)"/><polygon class="cls-2" points="865 110 862.07 110 865 107.07 865 110"/><path class="cls-2" d="M895,508.66v3.41l-2.41-2.41A10.216,10.216,0,0,0,895,508.66Z" transform="translate(-30 -395)"/><path class="cls-2" d="M902.07,505h-3.41a10.117,10.117,0,0,0,1-2.42Z" transform="translate(-30 -395)"/><path class="cls-1" d="M907.23,510.15a19.9,19.9,0,0,1-7.08,7.07L895,512.07v-3.41a10.036,10.036,0,0,0,3.66-3.66h3.41Z" transform="translate(-30 -395)"/><path class="cls-2" d="M940,542.93V550h-7.07l-32.78-32.78a19.9,19.9,0,0,0,7.08-7.07Z" transform="translate(-30 -395)"/><polygon class="cls-2" points="867.07 105 865 107.07 865 102.93 867.07 105"/><polygon class="cls-2" points="855 102.93 855 107.07 852.93 105 855 102.93"/><polygon class="cls-2" points="862.08 100 857.92 100 860 97.92 862.08 100"/><polygon class="cls-2" points="862.07 110 860 112.07 857.93 110 862.07 110"/><polygon class="cls-1" points="865 102.93 865 107.07 862.07 110 857.93 110 855 107.07 855 102.93 857.92 100 862.08 100 865 102.93"/><path class="cls-1" d="M890,507.07l-2.59,2.59a10.216,10.216,0,0,1-2.41-1V505h2.93Z" transform="translate(-30 -395)"/><path class="cls-1" d="M885,502.07V505h-3.66a10.117,10.117,0,0,1-1-2.42l2.59-2.58Z" transform="translate(-30 -395)"/><path class="cls-2" d="M885,505v3.66a10.036,10.036,0,0,1-3.66-3.66Z" transform="translate(-30 -395)"/><path class="cls-2" d="M881.34,505h-3.41l2.41-2.42A10.117,10.117,0,0,0,881.34,505Z" transform="translate(-30 -395)"/><path class="cls-2" d="M887.41,509.66,885,512.07v-3.41A10.216,10.216,0,0,0,887.41,509.66Z" transform="translate(-30 -395)"/><path class="cls-1" d="M885,508.66v3.41l-5.15,5.15a19.9,19.9,0,0,1-7.08-7.07l5.16-5.15h3.41A10.036,10.036,0,0,0,885,508.66Z" transform="translate(-30 -395)"/><path class="cls-2" d="M879.85,517.22,847.07,550H840v-7.07l32.77-32.78A19.9,19.9,0,0,0,879.85,517.22Z" transform="translate(-30 -395)"/><polygon class="cls-2" points="857.93 110 855 110 855 107.07 857.93 110"/><path class="cls-1" d="M899.66,497.41,897.07,500,895,497.93V495h3.66A10.216,10.216,0,0,1,899.66,497.41Z" transform="translate(-30 -395)"/><path class="cls-2" d="M898.66,495H895v-3.66A10.036,10.036,0,0,1,898.66,495Z" transform="translate(-30 -395)"/><path class="cls-1" d="M895,491.34V495h-2.92L890,492.92l2.58-2.58A10.117,10.117,0,0,1,895,491.34Z" transform="translate(-30 -395)"/><polygon class="cls-2" points="862.08 100 865 100 865 102.93 862.08 100"/><path class="cls-2" d="M902.07,495l-2.41,2.41a10.216,10.216,0,0,0-1-2.41Z" transform="translate(-30 -395)"/><path class="cls-2" d="M895,487.92v3.42a10.117,10.117,0,0,0-2.42-1Z" transform="translate(-30 -395)"/><path class="cls-1" d="M907.22,489.85,902.07,495h-3.41a10.036,10.036,0,0,0-3.66-3.66v-3.42l5.15-5.15A19.9,19.9,0,0,1,907.22,489.85Z" transform="translate(-30 -395)"/><path class="cls-2" d="M940,450v7.07l-32.78,32.78a19.9,19.9,0,0,0-7.07-7.08L932.92,450Z" transform="translate(-30 -395)"/></g></g></svg>