<svg xmlns="http://www.w3.org/2000/svg" viewBox="0 0 920 100"><defs><style>.cls-1{fill:#121221;}</style></defs><title>microsoft</title><g id="Слой_2" data-name="Слой 2"><g id="Work_space" data-name="Work space"><g id="microsoft"><path class="cls-1" d="M430,0a50,50,0,1,0,50,50A50.005,50.005,0,0,0,430,0Zm0,90a40,40,0,1,1,40-40A40,40,0,0,1,430,90Z"/><path class="cls-1" d="M650,0a50,50,0,1,0,50,50A50.005,50.005,0,0,0,650,0Zm0,90a40,40,0,1,1,40-40A40,40,0,0,1,650,90Z"/><path class="cls-1" d="M238.28,78.28l7.07,7.07a50,50,0,1,1,0-70.7l-7.07,7.07a40,40,0,1,0,0,56.56Z"/><path class="cls-1" d="M29.99.07V.04L30,0h9.97L59.98,78.98Q69.99,39.489,80,0h9.99L90,.01q15,50,29.99,99.99H109.55L85.37,19.43,65.13,99.33l-.14.56-.03.11H54.99l-.17-.66L34.59,19.51,10.44,100H0Q15,50.035,29.99.07Z"/><path class="cls-1" d="M356.57,55A29.994,29.994,0,0,0,340,0H270V100h10V60h60a19.994,19.994,0,0,1,20,20v20h10V80A29.923,29.923,0,0,0,356.57,55ZM330,52.04l-.02-.04H330ZM340,50H280V10h60a20,20,0,0,1,0,40Z"/><path class="cls-1" d="M500,27.5A17.506,17.506,0,0,0,517.5,45h45A27.5,27.5,0,0,1,570,98.95a26.911,26.911,0,0,1-7.5,1.05H490V90h72.5a17.5,17.5,0,0,0,0-35h-45A27.5,27.5,0,0,1,510,1.05,26.911,26.911,0,0,1,517.5,0H590V10H517.5A17.506,17.506,0,0,0,500,27.5Z"/><polygon class="cls-1" points="145 10 145 90 150 90 150 100 130 100 130 90 135 90 135 10 130 10 130 0 150 0 150 10 145 10"/><polygon class="cls-1" points="720 10 720 45 780 45 780 55 720 55 720 100 710 100 710 0 810 0 810 10 720 10"/><polygon class="cls-1" points="920 0 920 10 875 10 875 100 865 100 865 10 820 10 820 0 920 0"/></g></g></g></svg>