<svg xmlns="http://www.w3.org/2000/svg" viewBox="0 0 1093.217 193.204"><defs><style>.cls-1{fill:#121221;}.cls-2{fill:#366ce1;}</style></defs><title>middesk</title><g id="Слой_2" data-name="Слой 2"><g id="Work_space" data-name="Work space"><g id="middesk"><path class="cls-1" d="M1093.217,116.2v.02L971.86,186.272a51.751,51.751,0,0,1-51.746,0L798.747,116.218v-.02L920.114,46.142a51.756,51.756,0,0,1,51.746,0Z"/><path class="cls-2" d="M1091.865,76.986v.02L970.508,147.061a51.755,51.755,0,0,1-51.747,0L797.4,77.006v-.02L918.761,6.931a51.755,51.755,0,0,1,51.747,0Z"/><path class="cls-1" d="M250,46.6H200v100h50a50,50,0,0,0,0-100Zm0,80H220v-60h30a30,30,0,0,1,0,60Z"/><path class="cls-2" d="M360,46.6H310v100h50a50,50,0,0,0,0-100Zm0,80H330v-60h30a30,30,0,0,1,0,60Z"/><polygon class="cls-1" points="100 46.602 100 146.602 80 146.602 80 77.192 63.2 96.652 49.99 111.962 36.78 96.652 20 77.222 20 146.602 0 146.602 0 46.602 20 46.602 20 46.612 49.99 81.352 79.98 46.602 100 46.602"/><path class="cls-2" d="M550,76.6a10,10,0,0,0,10,10h40a30,30,0,0,1,0,60H530v-20h70a10,10,0,0,0,0-20H560a30,30,0,0,1,0-60h70v20H560A10,10,0,0,0,550,76.6Z"/><polygon class="cls-2" points="440 66.602 440 86.602 520 86.602 520 106.602 440 106.602 440 126.602 520 126.602 520 146.602 420 146.602 420 46.602 520 46.602 520 66.602 440 66.602"/><polygon class="cls-2" points="740 146.592 740 146.602 710.13 146.602 669.51 110.032 660 118.602 660 146.602 640 146.602 640 46.602 660 46.602 660 91.692 669.51 83.122 710.07 46.602 739.97 46.602 684.46 96.582 740 146.592"/><polygon class="cls-1" points="160 66.602 160 126.602 190 126.602 190 146.602 110 146.602 110 126.602 140 126.602 140 66.602 110 66.602 110 46.602 190 46.602 190 66.602 160 66.602"/></g></g></g></svg>