<svg xmlns="http://www.w3.org/2000/svg" viewBox="0 0 872.298 234.445"><defs><style>.cls-1{fill:#366ce1;}.cls-2,.cls-3,.cls-4{fill:#121221;}.cls-2{opacity:0.62;}.cls-4{opacity:0.38;}</style></defs><title>mintigo</title><g id="Слой_2" data-name="Слой 2"><g id="Work_space" data-name="Work space"><g id="mintigo"><polygon class="cls-1" points="735.475 0 735.475 200.236 717.18 189.675 717.18 10.562 735.475 0"/><polygon class="cls-1" points="872.298 10.562 872.298 189.675 853.998 200.236 853.998 0 872.298 10.562"/><polygon class="cls-1" points="853.998 175.183 853.998 200.236 794.737 234.445 735.475 200.236 735.475 175.341 794.594 209.471 853.998 175.183"/><polygon class="cls-2" points="853.998 174.946 853.998 199.999 794.737 234.208 735.475 199.999 735.475 175.104 794.594 209.234 853.998 174.946"/><polygon class="cls-3" points="853.998 0 853.998 175.183 794.594 209.471 735.475 175.341 735.475 0.158 794.594 34.288 853.998 0"/><polygon class="cls-1" points="853.998 0 853.998 25.053 794.737 59.262 735.475 25.053 735.475 0.158 794.594 34.288 853.998 0"/><polygon class="cls-4" points="853.998 0 853.998 25.053 794.737 59.262 735.475 25.053 735.475 0.158 794.594 34.288 853.998 0"/><polygon class="cls-3" points="150 87.222 150 147.222 170 147.222 170 167.222 110 167.222 110 147.222 130 147.222 130 87.222 110 87.222 110 67.222 170 67.222 170 87.222 150 87.222"/><polygon class="cls-3" points="450 87.222 450 147.222 470 147.222 470 167.222 410 167.222 410 147.222 430 147.222 430 87.222 410 87.222 410 67.222 470 67.222 470 87.222 450 87.222"/><polygon class="cls-3" points="290 67.222 290 167.222 270 167.222 210 97.812 210 167.222 190 167.222 190 67.222 210 67.222 270 136.632 270 67.222 290 67.222"/><polygon class="cls-3" points="100 67.222 100 167.222 80 167.222 80 97.812 63.2 117.272 49.99 132.582 36.78 117.272 20 97.842 20 167.222 0 167.222 0 67.222 20 67.222 20 67.232 49.99 101.972 79.98 67.222 100 67.222"/><path class="cls-3" d="M630,67.222a50,50,0,1,0,50,50A50.005,50.005,0,0,0,630,67.222Zm0,80a30,30,0,1,1,30-30A30,30,0,0,1,630,147.222Z"/><path class="cls-3" d="M570,107.222v10a49.16,49.16,0,0,1-1.01,10,50.013,50.013,0,1,1-13.64-45.35l-14.14,14.14a30,30,0,1,0,7.07,31.21H520v-20Z"/><polygon class="cls-3" points="400 67.222 400 87.222 360 87.222 360 167.222 340 167.222 340 87.222 300 87.222 300 67.222 400 67.222"/></g></g></g></svg>