<svg xmlns="http://www.w3.org/2000/svg" viewBox="0 0 706.321 354.835"><defs><style>.cls-1{fill:#366ce1;}</style></defs><title>mongo</title><g id="Complete"><g id="mongodb"><path class="cls-1" d="M129.972,609.687c-9.359-7.857-60.6-52.349-60-120,.445-50.162,29.368-110,60-110s59.554,59.838,60,110C190.573,557.338,139.331,601.83,129.972,609.687Z" transform="translate(-69.967 -379.297)"/><path class="cls-1" d="M119.972,679.687c-10.918-8.528-7.511-35.718,10-70,17.51,34.282,20.918,61.472,10,70C134.6,683.884,125.345,683.884,119.972,679.687Z" transform="translate(-69.967 -379.297)"/><path class="cls-1" d="M209.972,659.687c-32.03-31.565-2.178-108.659,10-140,31.848-81.96,89.475-146.006,100-140,4.783,2.729-.877,18.477-10,60-10.7,48.715-7.718,98.485,0,100,4.947.972,10.13-18.717,30-60,9.82-20.4,40.062-83.234,50-80,5.246,1.707,1.507,19.5,0,60-1.513,40.644-2.85,84.522,10,130a257.162,257.162,0,0,0,20,50c-7.694,10.063-19.08,21.931-30,20-23.415-4.14-29.041-68.951-30-80-5.718-65.873,13.267-119.068,10-120-4.393-1.253-25.368,98.695-60,100-9.661.364-17.08-7.073-20-10-33.855-33.937,2.824-119.178,0-120-2.508-.73-44.113,62.83-40,150,2.122,44.971,15.631,79.684,0,90C239.828,676.382,220.927,670.483,209.972,659.687Z" transform="translate(-69.967 -379.297)"/><path class="cls-1" d="M504.761,515.49c-5.614,7.094,11.267,20.551,22.816,51.718,11.3,30.506,6.844,49.219,20.282,55.268,6.68,3.006,16,2.082,18-1.775,1.979-3.817-3.744-9.486-8.62-16.479-11.674-16.743-20.269-43.626-11.662-53.493,6.876-7.881,27.26-7.809,35.24,1.775,11.879,14.267-10.184,41.857,4.31,62.113.969,1.355,5.253,7.341,9.38,6.591,5.977-1.086,7.877-15.617,8.62-21.3,1.825-13.961,6.23-47.645-15.719-66.169-3.612-3.048-13.54-11.428-25.1-9.887-13.653,1.82-19.934,16.2-26.62,13.69-6.223-2.334-2.353-15.381-11.155-21.8C518.6,511.409,508.245,511.087,504.761,515.49Z" transform="translate(-69.967 -379.297)"/><path class="cls-1" d="M686.7,552.17c.21-5.89,1.61-13.97,3.81-26.62,1.65-9.52,2.79-14.3,0-16.73-3.15-2.75-10.22-1.59-12.93,2.03-1.66,2.2-.71,3.99-1.78,7.85a23.1,23.1,0,0,1-7.1,10.4c-8.27,6.91-18.7-1.91-30.16,2.03-14.47,4.97-18.77,26.23-19.27,28.9-3.17,16.76,2.64,39.48,20.79,48.67,14.71,7.46,29.71,2.06,32.45,1.02,2.96-1.14,19.01-7.27,22.56-20.79C698.51,575.85,686.02,571.95,686.7,552.17Zm-17.49,34.98c-4.15,4.28-11.46,7.6-18.51,5.33-7.44-2.4-10.35-9.67-11.66-12.93-.5-1.26-6.53-16.94,2.28-24.85,7.56-6.77,22.13-4.35,29.16,4.82C676.72,567.67,676.15,580.01,669.21,587.15Z" transform="translate(-69.967 -379.297)"/><path class="cls-1" d="M655.014,608.451c-9.052.742-19.786,7.62-21.549,15.972-3.589,16.992,30.784,36,33.1,37.262,24.956,13.523,41.646,8.558,45.488,18.766,3.9,10.357-9.107,26.565-23.07,33.464-17.884,8.837-43.363,5.565-47.662-5.577-3.852-9.983,7.541-25.088,19.521-31.944,23.086-13.211,49.9,3.226,51.211,4.057a26.947,26.947,0,0,0-4.563-7.1c-14.53-16.182-53.076-17.8-67.944,3.8-6.1,8.869-8.344,21.818-3.8,32.7,9.592,22.994,50.114,32.443,72,15.972,8.737-6.575,16.938-19.113,15.212-31.69-2.241-16.324-20.366-26.6-30.676-32.451-7.047-4-7.711-3.056-20.028-9.634-21.662-11.567-24.162-16.908-24.846-20.535a17.249,17.249,0,0,1,3.8-13.944c5.023-5.705,13.3-5.5,13.183-7.1C664.3,609.284,659.618,608.073,655.014,608.451Z" transform="translate(-69.967 -379.297)"/><path class="cls-1" d="M762.82,535.66c-21.19-26.78-58.43-30.59-59.5-28.05-.5,1.2,7.63,2.5,11.16,9.8,6.51,13.48-12.9,26.34-11.83,47.32.69,13.68,10,29.19,24.34,34.14,19.2,6.65,43.32-7.07,48.33-25.69C779.69,556.98,768.14,542.39,762.82,535.66Zm-10.48,36.17c-4.21,4.81-15.01,5.15-20.62,0-4.68-4.3-4.32-11.12-4.06-16.22.43-8.21,3.95-21.14,9.47-21.64C745.71,533.2,760.61,562.39,752.34,571.83Z" transform="translate(-69.967 -379.297)"/><path class="cls-1" d="M503.476,584.939c-9.51-27.95-44.66-46.32-61.86-36.16-9.84,5.81-12.3,20.07-11.83,29.07,1.76,33.6,48,62.18,66.26,52.05C507.816,623.369,508.716,600.319,503.476,584.939Zm-22.31,26.71c-5.44,3.89-20.37-3.61-26.03-15.21-4.1-8.43-4.29-20.98,1.36-24,5.92-3.17,15.63,5.54,16.22,6.08C483.546,588.419,487.1,607.409,481.166,611.649Z" transform="translate(-69.967 -379.297)"/></g></g></svg>