<svg xmlns="http://www.w3.org/2000/svg" viewBox="0 0 1300 200"><defs><style>.cls-1{fill:#1c1e20;}.cls-2{fill:#121221;}</style></defs><title>monitorig</title><g id="Слой_2" data-name="Слой 2"><g id="Work_space" data-name="Work space"><g id="monitorig"><polygon class="cls-1" points="320 50 320 150 300 150 240 80.59 240 150 220 150 220 50 240 50 300 119.41 300 50 320 50"/><polygon class="cls-1" points="100 50 100 150 80 150 80 80.59 63.2 100.05 49.99 115.36 36.78 100.05 20 80.62 20 150 0 150 0 50 20 50 20 50.01 49.99 84.75 79.98 50 100 50"/><path class="cls-1" d="M750,80a30,30,0,0,0-30-30H650V150h20V110h50a10,10,0,0,1,10,10v30h20V120a29.862,29.862,0,0,0-7.65-20A29.862,29.862,0,0,0,750,80ZM670,90V70h50a10,10,0,0,1,0,20Z"/><path class="cls-1" d="M160,50a50,50,0,1,0,50,50A50.005,50.005,0,0,0,160,50Zm0,80a30,30,0,1,1,30-30A30,30,0,0,1,160,130Z"/><path class="cls-1" d="M590,50a50,50,0,1,0,50,50A50.005,50.005,0,0,0,590,50Zm0,80a30,30,0,1,1,30-30A30,30,0,0,1,590,130Z"/><path class="cls-1" d="M960,90v10a49.16,49.16,0,0,1-1.01,10,50.013,50.013,0,1,1-13.64-45.35L931.21,78.79A30,30,0,1,0,938.28,110H910V90Z"/><polygon class="cls-1" points="820 70 820 130 860 130 860 150 760 150 760 130 800 130 800 70 760 70 760 50 860 50 860 70 820 70"/><polygon class="cls-1" points="390 70 390 130 430 130 430 150 330 150 330 130 370 130 370 70 330 70 330 50 430 50 430 70 390 70"/><polygon class="cls-1" points="540 50 540 70 500 70 500 150 480 150 480 70 440 70 440 50 540 50"/><rect class="cls-1" x="1000" width="300" height="200" rx="39"/><polygon class="cls-2" points="1210.36 144.02 1195.36 170 1070 170 1065 161.34 1142.68 26.79 1210.36 144.02"/><polygon class="cls-2" points="1065 161.34 1060 170 1040 170 1055 144.02 1065 161.34"/><polygon class="cls-2" points="1276.19 170 1225.36 170 1210.36 144.02 1235.77 100 1276.19 170"/></g></g></g></svg>