<svg xmlns="http://www.w3.org/2000/svg" viewBox="0 0 910 170"><defs><style>.cls-1{fill:#121221;}.cls-2{fill:#366ce1;}</style></defs><title>monosign</title><g id="Complete"><g id="monosign"><path class="cls-1" d="M810,445v10.01a50,50,0,1,0,0,79.98V535a30,30,0,0,1-58.28,10H731.01c.08.43.17.85.27,1.28v.01a50.066,50.066,0,0,0,37.43,37.43h.01A50.035,50.035,0,0,0,830,535V445Zm-7.65,70A30,30,0,0,1,750,495.01V495a30,30,0,0,1,60,0v.01A29.836,29.836,0,0,1,802.35,515Z" transform="translate(-30 -415)"/><rect class="cls-1" x="670" y="30" width="20" height="100"/><rect class="cls-1" x="670" width="20" height="20"/><path class="cls-1" d="M940,495v50H920V495a30,30,0,0,0-60,0v50H840V445h20v10.01A49.99,49.99,0,0,1,940,495Z" transform="translate(-30 -415)"/><path class="cls-1" d="M690,495a49.16,49.16,0,0,1-1.01,10,49.991,49.991,0,0,1-84.34,25.35l14.14-14.14A29.99,29.99,0,0,0,668.28,505H591.01a50.01,50.01,0,0,1,0-20,49.991,49.991,0,0,1,84.34-25.35l-14.14,14.14A29.99,29.99,0,0,0,611.72,485h77.27A49.16,49.16,0,0,1,690,495Z" transform="translate(-30 -415)"/><path class="cls-2" d="M520,430a49.993,49.993,0,0,0-30,89.99,49.854,49.854,0,0,0,60,0A49.993,49.993,0,0,0,520,430Zm0,80a30,30,0,1,1,30-30A30,30,0,0,1,520,510Z" transform="translate(-30 -415)"/><path class="cls-1" d="M550,519.99V540a30,30,0,0,1-60,0V519.99a49.854,49.854,0,0,0,60,0Z" transform="translate(-30 -415)"/><path class="cls-2" d="M200,450a50,50,0,1,0,50,50A50.005,50.005,0,0,0,200,450Zm0,80a30,30,0,1,1,30-30A30,30,0,0,1,200,530Z" transform="translate(-30 -415)"/><path class="cls-2" d="M400,450a50,50,0,1,0,50,50A50.005,50.005,0,0,0,400,450Zm0,80a30,30,0,1,1,30-30A30,30,0,0,1,400,530Z" transform="translate(-30 -415)"/><path class="cls-2" d="M150,485v55a10,10,0,0,1-20,0V485a15,15,0,0,0-30,0h0v55a10,10,0,0,1-20,0V485h0a15,15,0,0,0-30,0v55a10,10,0,0,1-20,0V485a35.779,35.779,0,0,1,.35-5A35.011,35.011,0,0,1,90,460.5,35.011,35.011,0,0,1,149.65,480,35.779,35.779,0,0,1,150,485Z" transform="translate(-30 -415)"/><path class="cls-2" d="M350,500.824V540a10,10,0,0,1-10,10h0a10,10,0,0,1-10-10V500.623c0-16.348-12.819-30.165-29.16-30.612A30,30,0,0,0,270,500v40a10,10,0,0,1-10,10h0a10,10,0,0,1-10-10V500a50.006,50.006,0,0,1,50.865-49.993C328.277,450.471,350,473.409,350,500.824Z" transform="translate(-30 -415)"/></g></g></svg>