<svg xmlns="http://www.w3.org/2000/svg" viewBox="0 0 920 169"><defs><style>.cls-1{fill:#121221;}.cls-2,.cls-3,.cls-4{fill:#366ce1;}.cls-2{opacity:0.62;}.cls-3{opacity:0.38;}</style></defs><title>moosend</title><g id="Слой_2" data-name="Слой 2"><g id="Work_space" data-name="Work space"><g id="moosend"><rect class="cls-1" x="824.109" y="70.109" width="50" height="100" rx="10" transform="translate(163.768 635.59) rotate(-45)"/><path class="cls-2" d="M895.071,144.858l-21.213,21.213a10,10,0,0,1-14.142,0L803.147,109.5a10.005,10.005,0,0,1,0-14.143L824.36,74.147a9.979,9.979,0,0,1,8.118-2.871q6.555,26.178,13.1,52.369,26.187,6.543,52.368,13.1A9.978,9.978,0,0,1,895.071,144.858Z"/><path class="cls-3" d="M897.942,136.74q-26.177-6.555-52.368-13.1-6.544-26.188-13.1-52.369a9.988,9.988,0,0,1,6.025,2.871l56.568,56.569A9.98,9.98,0,0,1,897.942,136.74Z"/><rect class="cls-1" x="790" y="10" width="100" height="100" rx="10"/><path class="cls-4" d="M790,70H890a0,0,0,0,1,0,0v30a10,10,0,0,1-10,10H800a10,10,0,0,1-10-10V70A0,0,0,0,1,790,70Z"/><path class="cls-1" d="M855,0h0a5,5,0,0,1,5,5v5a0,0,0,0,1,0,0H850a0,0,0,0,1,0,0V5A5,5,0,0,1,855,0Z"/><path class="cls-1" d="M825,0h0a5,5,0,0,1,5,5v5a0,0,0,0,1,0,0H820a0,0,0,0,1,0,0V5A5,5,0,0,1,825,0Z"/><path class="cls-1" d="M760,10h20a30,30,0,0,1,30,30v0a0,0,0,0,1,0,0H760a0,0,0,0,1,0,0V10A0,0,0,0,1,760,10Z" transform="translate(1570 50) rotate(180)"/><path class="cls-1" d="M870,10h50a0,0,0,0,1,0,0v0a30,30,0,0,1-30,30H870a0,0,0,0,1,0,0V10A0,0,0,0,1,870,10Z"/><ellipse class="cls-4" cx="825" cy="50" rx="5" ry="10"/><ellipse class="cls-1" cx="825" cy="90" rx="5" ry="10"/><ellipse class="cls-4" cx="855" cy="50" rx="5" ry="10"/><ellipse class="cls-1" cx="855" cy="90" rx="5" ry="10"/><polygon class="cls-1" points="650 34.5 650 134.5 630 134.5 570 65.09 570 134.5 550 134.5 550 34.5 570 34.5 630 103.91 630 34.5 650 34.5"/><path class="cls-1" d="M710,34.5H660v100h50a50,50,0,0,0,0-100Zm0,80H680v-60h30a30,30,0,0,1,0,60Z"/><polygon class="cls-4" points="100 34.5 100 134.5 80 134.5 80 65.09 63.2 84.55 49.99 99.86 36.78 84.55 20 65.12 20 134.5 0 134.5 0 34.5 20 34.5 20 34.51 49.99 69.25 79.98 34.5 100 34.5"/><path class="cls-1" d="M350,64.5a10,10,0,0,0,10,10h40a30,30,0,0,1,0,60H330v-20h70a10,10,0,0,0,0-20H360a30,30,0,0,1,0-60h70v20H360A10,10,0,0,0,350,64.5Z"/><polygon class="cls-1" points="460 54.5 460 74.5 540 74.5 540 94.5 460 94.5 460 114.5 540 114.5 540 134.5 440 134.5 440 34.5 540 34.5 540 54.5 460 54.5"/><path class="cls-4" d="M270,34.5a50,50,0,1,0,50,50A50.005,50.005,0,0,0,270,34.5Zm0,80a30,30,0,1,1,30-30A30,30,0,0,1,270,114.5Z"/><path class="cls-4" d="M160,34.5a50,50,0,1,0,50,50A50.005,50.005,0,0,0,160,34.5Zm0,80a30,30,0,1,1,30-30A30,30,0,0,1,160,114.5Z"/></g></g></g></svg>