<svg xmlns="http://www.w3.org/2000/svg" viewBox="0 0 389.98 100"><defs><style>.cls-1{fill:#121221;}</style></defs><title>moov</title><g id="Слой_2" data-name="Слой 2"><g id="Work_space" data-name="Work space"><g id="moov"><polygon class="cls-1" points="100 0 100 100 80 100 80 30.59 63.2 50.05 49.99 65.36 36.78 50.05 20 30.62 20 100 0 100 0 0 20 0 20 0.01 49.99 34.75 79.98 0 100 0"/><polygon class="cls-1" points="389.98 0 350.76 98.07 349.99 100 329.99 100 329.22 98.07 290 0 311.54 0 339.99 71.14 368.45 0 389.98 0"/><path class="cls-1" d="M160,0a50,50,0,1,0,50,50A50.005,50.005,0,0,0,160,0Zm0,80a30,30,0,1,1,30-30A30,30,0,0,1,160,80Z"/><path class="cls-1" d="M240,0a50,50,0,1,0,50,50A50.005,50.005,0,0,0,240,0Zm0,80a30,30,0,1,1,30-30A30,30,0,0,1,240,80Z"/></g></g></g></svg>