<svg xmlns="http://www.w3.org/2000/svg" viewBox="0 0 629.608 161.768"><defs><style>.a{fill:#fff;}</style></defs><title>mosaic</title><path d="M.6,108.228V61.378c.87,10.48,5.91,10.86,6.54,21.04C7.878,94.618.8,96.888.6,108.228Z"/><path d="M7.258,29.947a24.019,24.019,0,0,0-.12,4.3c-.9,10.86-5.76,14.12-6.54,22.35V5.548c.1.3.22.62.35.95a.06.06,0,0,1,.01.04c.19.49.4,1,.62,1.55.56,1.379,1.22,2.95,1.89,4.7.1.24.19.49.28.74.41,1.1.82,2.27,1.21,3.5.14.439.28.88.41,1.34.42,1.44.79,2.95,1.1,4.54.04.19.07.39.11.58,0,.02.01.03.01.05s.01.05.01.07c.06.329.11.65.16.98.07.41.13.82.18,1.24.04.33.08.67.11,1.01.03.22.04.44.06.66.02.179.04.34.05.52v.01c.05.62.08,1.25.1,1.88Z"/><path d="M7.238,32.538c0,.11-.01.22-.02.34a1.778,1.778,0,0,1-.01.23c-.01.38-.04.76-.07,1.14a24.019,24.019,0,0,1,.12-4.3C7.278,30.8,7.278,31.658,7.238,32.538Z"/><path d="M8.668,135.457v.041a30.789,30.789,0,0,1-.83,7.25c-.14.62-.3,1.24-.48,1.84a41.861,41.861,0,0,1-2.18,5.89c-.17.39-.34.76-.52,1.13s-.35.72-.52,1.069q-.345.707-.69,1.351-.33.659-.66,1.26c-.21.4-.42.78-.62,1.149s-.38.721-.55,1.051c-.27.5-.5.959-.69,1.37q-.195.42-.33.78v-50.1c.01.35.03.7.05,1.04s.04.66.08.98a6.9,6.9,0,0,0,.1.81,5.837,5.837,0,0,0,.11.73c.06.39.13.76.21,1.13.05.219.1.43.15.63.02.1.05.21.08.31v.009a6.07,6.07,0,0,0,.18.611,5.863,5.863,0,0,0,.19.63l.03.09a.076.076,0,0,1,.02.05.076.076,0,0,0,.02.04c.07.22.15.42.23.63.09.229.18.459.27.68s.19.44.29.65q.285.63.6,1.23c.16.31.33.62.5.919s.33.6.51.9c.14.24.28.48.41.72a34.8,34.8,0,0,1,2.5,4.83c.16.39.3.789.44,1.2.08.24.16.48.23.73s.14.51.21.77.12.53.18.8c.03.14.05.279.08.42s.05.28.07.42c.04.25.08.5.11.76.01.04.01.09.02.13v.039A18.285,18.285,0,0,0,8.668,135.457Z"/><path d="M8.668,135.457a18.285,18.285,0,0,1-.2-3.03,4.654,4.654,0,0,1,.06.52.063.063,0,0,1,.01.041c.03.27.05.54.07.82.02.35.04.72.05,1.09C8.668,135.078,8.668,135.278,8.668,135.457Z"/><path d="M38.678,1.528c-3.43,1.37-8.26,8.72-16.33,9.39-9.33.789-16.14-7.81-19.91-9.39Z"/><path d="M39.808,161.528H1.728a4.893,4.893,0,0,0,.59-.311,2.1,2.1,0,0,0,.2-.119c.08-.05.17-.11.25-.171.13-.089.27-.189.4-.289s.27-.2.42-.32l.45-.361c1.11-.909,2.43-2.089,3.93-3.319q.54-.45,1.11-.9c.2-.16.4-.32.6-.47.56-.43,1.13-.85,1.72-1.26.87-.59,1.78-1.16,2.72-1.68.67-.35,1.35-.69,2.05-.98q.72-.3,1.44-.54c.25-.08.49-.15.74-.22s.49-.131.74-.19a7.163,7.163,0,0,0,1.14.21,8.848,8.848,0,0,0,3.72-.45h.01c.26.039.52.08.77.13s.48.1.71.159c.07.02.13.031.19.051.19.05.38.11.57.17a.286.286,0,0,0,.07.019c.21.071.42.141.63.221.31.12.61.25.9.38.18.08.36.169.53.26.23.11.45.23.67.35a21.934,21.934,0,0,1,3.97,2.92c.18.149.35.31.52.48s.34.32.51.49.33.32.49.49c.16.149.32.32.47.48C37.118,159.018,38.7,161.078,39.808,161.528Z"/><path d="M14.118,152.328a22.366,22.366,0,0,1,2.05-.98C15.468,151.638,14.788,151.978,14.118,152.328Z"/><path d="M23.948,150.158a8.848,8.848,0,0,1-3.72.45,7.163,7.163,0,0,1-1.14-.21c.25-.06.51-.11.77-.16a12.866,12.866,0,0,1,1.39-.17.2.2,0,0,1,.08-.01c.29-.02.58-.03.88-.03a13.291,13.291,0,0,1,1.4.08C23.728,150.118,23.838,150.138,23.948,150.158Z"/><path d="M40.6,61.528v96.99c-1.23-4.071-4.84-11.85-5.49-21.85v-.01a13.706,13.706,0,0,0,0-6.12c.74-10.65,5.25-11.37,4.98-22.52-.29-12.77-6.3-15.311-5.83-29.15C34.418,74.1,34.758,64.207,40.6,61.528Z"/><path d="M35.108,136.658c-.09-1.39-.13-2.82-.09-4.3.02-.641.05-1.24.09-1.82A13.706,13.706,0,0,1,35.108,136.658Z"/><path d="M58.158,88.828q-8.79-13.65-17.56-27.3c3.89-1.79,9.65-.13,12.93,3.39,4.35,4.68,2.31,10.5,2.56,16.5.02.33.04.67.07,1,.02.269.05.549.09.83.02.15.04.3.07.449.02.181.06.361.09.541a13.326,13.326,0,0,0,.56,2.05,4.035,4.035,0,0,0,.15.409c.06.171.14.351.22.531A12.741,12.741,0,0,0,58.158,88.828Z"/><path d="M64.028,35.608c-5.86-8.02-15.37-3.79-20.63-11.7-.14-.211-.27-.43-.4-.64s-.24-.43-.35-.65a.076.076,0,0,1-.02-.04.01.01,0,0,0-.01-.01c-.07-.141-.14-.28-.2-.42-.15-.32-.29-.65-.41-.98l-.15-.42c-.04-.14-.09-.281-.13-.42-.06-.19-.11-.381-.16-.57l-.12-.48c-.08-.311-.14-.63-.19-.95V18.3c-.06-.331-.1-.65-.14-.98s-.06-.65-.08-.98c-.02-.25-.02-.49-.03-.74-.02-.55-.02-1.09,0-1.631s.05-1.069.09-1.6c.01-.12.02-.25.03-.38.03-.35.07-.7.1-1.041s.08-.679.12-1.02c.08-.669.17-1.319.24-1.929.03-.21.05-.42.08-.62.05-.4.09-.79.12-1.15.02-.19.03-.37.04-.551.01-.149.02-.289.02-.429.01-.2.02-.4.02-.59,0-.16-.01-.32-.01-.481a.274.274,0,0,0-.01-.089,2.983,2.983,0,0,0-.04-.44c0-.04-.01-.07-.01-.1-.02-.13-.04-.26-.07-.38Q52.873,19.383,64.028,35.608Z"/><path d="M85.188,130.9q-13.335-20.745-26.67-41.5c4.34,6.539,10.03,3.819,16.81,10,.38.35.75.7,1.09,1.069a6.221,6.221,0,0,0,1.94,2.331l.01.01C85.7,112.888,84.438,127.687,85.188,130.9Z"/><path d="M78.358,102.8a6.221,6.221,0,0,1-1.94-2.331A21.213,21.213,0,0,1,78.358,102.8Z"/><path d="M101.948,61.628c-.82.73-1.58,1.47-2.28,2.23l-.01.01c-.18.13-.36.27-.54.38-.25.179-.5.34-.75.49-.01.01-.03.02-.04.03-.16.09-.32.189-.48.27-.27.149-.55.29-.83.429-.23.111-.47.22-.72.321l-.01.01c-.3.12-.6.24-.91.35-.22.08-.44.16-.67.23a1.208,1.208,0,0,0-.17.049q-.36.121-.72.211c-.23.069-.46.13-.69.18-.09.02-.18.04-.26.06-.26.059-.52.11-.77.16l-.16.03c-.28.06-.56.1-.84.149-.24.031-.49.071-.73.1s-.47.05-.7.07c-.15.02-.3.03-.45.039-.3.03-.58.051-.86.061-.09,0-.18.01-.27.01-.18.01-.35.02-.51.02-1.05.03-1.87-.01-2.32-.04-1.35-.08-10.45-.761-15.76-7.63-6.34-8.19.02-15.77-5-23.56q10.545,15.345,21.1,30.69,10.05-14.61,20.09-29.22C100.568,47.308,107.618,54.5,101.948,61.628Z"/><path d="M101.948,61.628c-.17.22-.35.42-.53.62s-.37.4-.56.58a11.8,11.8,0,0,1-1.07.94l-.12.09C100.368,63.1,101.128,62.358,101.948,61.628Z"/><path d="M127.808,5.588c-.05.21-.09.43-.13.65-.03.17-.07.33-.09.51a.355.355,0,0,0-.02.1q-.06.39-.12.81c-.02.13-.04.269-.06.42s-.04.29-.06.43c-.08.57-.16,1.179-.25,1.8-.04.34-.09.68-.15,1.03-.03.18-.05.359-.09.55-.02.16-.05.309-.08.47s-.06.329-.09.49q-.06.375-.15.75c-.08.39-.17.78-.27,1.18-.04.2-.1.4-.15.6-.08.3-.17.589-.26.89-.03.11-.06.22-.1.33-.06.2-.13.41-.21.619a2.2,2.2,0,0,1-.12.331c-.06.19-.13.37-.2.55-.01.03-.03.07-.04.1q-.2.512-.42,1.02c-.01.011-.01.011-.01.021l-.01.01a18.375,18.375,0,0,0-2.5,4.35c-5.32,7.43-10.55,6.72-14.6,11.339Q117.723,20.269,127.808,5.588Z"/><path d="M124.728,19.248c-.07.179-.15.34-.23.52-.17.36-.36.72-.55,1.08-.04.079-.09.17-.14.25-.02.03-.03.06-.05.089-.08.161-.17.311-.27.471-.12.21-.25.42-.39.64s-.27.43-.42.649-.29.431-.45.651A18.375,18.375,0,0,1,124.728,19.248Z"/><path d="M130.6,61.528l-44.61,69.39c.78-3.44-1.03-20.66,9.12-30.76,6.81-6.78,12.69-4.05,17.24-11.15,5.59-8.74-.87-17.561,5.83-23.831a33.289,33.289,0,0,0,4.71-3.089c.19-.08.39-.17.59-.24a12.9,12.9,0,0,1,1.81-.56c.1-.02.2-.05.29-.071a1.591,1.591,0,0,1,.3-.059q.3-.06.6-.09c.17-.02.34-.04.51-.05.24-.02.47-.03.7-.03A7.751,7.751,0,0,1,130.6,61.528Z"/><path d="M122.358,62.328c.18-.08.35-.16.53-.24a33.289,33.289,0,0,1-4.71,3.089,16.429,16.429,0,0,1,2.21-1.73.076.076,0,0,1,.04-.02,5.224,5.224,0,0,1,.53-.339c.21-.131.42-.25.63-.36.19-.11.39-.21.58-.31l.12-.06C122.308,62.348,122.338,62.338,122.358,62.328Z"/><path d="M125.288,61.288a12.9,12.9,0,0,0-1.81.56A10.8,10.8,0,0,1,125.288,61.288Z"/><path d="M137.7,81.4c0,12.86-5.4,16.049-7.1,24.36V61.528c.22.09.43.189.64.3h.01c.2.109.4.23.59.349l.03.03a4.606,4.606,0,0,1,.52.381c.01,0,.02.01.03.02a5.339,5.339,0,0,1,.44.39c.11.1.22.209.33.33l.37.4a1.431,1.431,0,0,1,.11.15,3.374,3.374,0,0,1,.34.43,2.977,2.977,0,0,1,.2.29c.14.2.27.4.39.609.09.151.18.311.26.461.1.19.2.38.3.58s.18.39.27.59a2.288,2.288,0,0,1,.1.23c.06.119.11.25.16.379.06.151.11.3.16.451.09.24.17.48.25.73.06.17.11.339.16.51.01.03.02.049.03.079,0,.011.01.031.01.041.01.03.02.07.03.1v.02a46.361,46.361,0,0,0,1.14,6.4.09.09,0,0,1,.01.05v.05c.03.3.05.6.07.89.04.58.07,1.13.09,1.64C137.7,79.7,137.7,80.738,137.7,81.4Z"/><path d="M137.468,75.717v.061a46.361,46.361,0,0,1-1.14-6.4c.08.27.15.54.22.809.14.551.27,1.1.37,1.651.05.24.09.48.13.72.06.36.12.72.17,1.07.07.48.13.96.18,1.42,0,.03.01.07.01.1.02.18.04.35.05.52A.085.085,0,0,1,137.468,75.717Z"/><path d="M137.638,78.408c-.02-.51-.05-1.06-.09-1.64C137.6,77.348,137.628,77.9,137.638,78.408Z"/><path d="M137.778,138.578v.23a.557.557,0,0,1-.01.129c0,.151-.01.3-.02.451-.01.27-.03.549-.05.829-.76,9.631-5.97,16.8-7.1,19.851v-43.66c.11.529.23,1.049.36,1.549a2.473,2.473,0,0,1,.07.25l.15.48c.07.24.14.481.22.711,0,.01.01.029.01.039.08.221.16.441.24.651.08.24.18.48.27.72.08.2.17.4.25.6.1.24.21.48.32.72.08.18.16.36.25.54.19.41.39.81.59,1.21.12.25.24.49.37.74.17.329.34.65.51.98.61,1.19,1.22,2.369,1.76,3.63.15.35.29.709.43,1.08.07.19.14.369.2.56.13.38.25.77.37,1.16.05.2.11.409.16.61.03.15.07.3.11.46s.07.31.1.46c.06.3.12.61.17.92,0,.02.01.03.01.05v.03a17.141,17.141,0,0,0,.25,2.68v.07C137.788,137.717,137.788,138.148,137.778,138.578Z"/><path d="M137.768,137.238a17.141,17.141,0,0,1-.25-2.68c.02.119.04.24.06.369.02.181.05.371.07.571.02.179.04.37.05.56.02.159.03.32.04.48C137.758,136.768,137.758,137,137.768,137.238Z"/><path d="M169.018,1.528c-3.19,1.37-8.91,8.929-17.63,8.89a17.1,17.1,0,0,0-6.05-1.32c-.01-.01-.03-.01-.04-.02-.27-.111-.52-.23-.77-.361-.02-.01-.05-.02-.07-.03a.328.328,0,0,0-.08-.039c-.29-.15-.57-.3-.84-.461-.29-.159-.58-.329-.86-.5a.17.17,0,0,0-.07-.039c-.38-.24-.75-.49-1.11-.73a.156.156,0,0,0-.08-.06c-.38-.27-.75-.54-1.12-.82-.75-.56-1.47-1.13-2.16-1.67-.2-.151-.4-.31-.6-.46-.15-.12-.31-.231-.46-.35-.36-.27-.71-.53-1.06-.76-.01-.01-.02-.01-.03-.02a.01.01,0,0,1-.01-.01c-.17-.1-.32-.21-.48-.311-.2-.129-.4-.25-.6-.359-.01,0-.02-.01-.03-.01a4.98,4.98,0,0,0-.62-.31,5.055,5.055,0,0,0-.61-.25Z"/><path d="M151.388,10.418a13.342,13.342,0,0,1-1.56-.09,13.246,13.246,0,0,1-1.69-.29c-.23-.05-.45-.111-.68-.17a.689.689,0,0,0-.08-.03c-.2-.05-.4-.121-.6-.18-.04-.02-.09-.03-.14-.05-.21-.07-.41-.151-.62-.23-.23-.09-.46-.181-.68-.28A17.1,17.1,0,0,1,151.388,10.418Z"/><path d="M169.628,161.528h-38.31c2.48-1.061,8.67-10.561,17.84-11.01a10.648,10.648,0,0,1,1.13,0h.12c.25.01.49.03.73.05a.215.215,0,0,0,.08,0,.5.5,0,0,1,.12.02c.23.02.46.06.69.089.28.04.56.091.83.151s.55.129.82.2.54.149.81.24.53.169.79.27c.14.05.26.1.39.149s.26.1.39.161c.26.109.52.23.77.339a1.1,1.1,0,0,1,.15.081c.2.09.4.189.59.29q.615.315,1.2.659c.33.191.64.391.95.591.23.139.46.29.68.45s.45.31.67.47.43.31.64.469.43.311.63.471c1.04.8,1.99,1.61,2.86,2.37q.48.42.93.81c.17.15.33.29.49.42A14.159,14.159,0,0,0,169.628,161.528Z"/><path d="M170.6,5.278V58.467c-.17-10.449-5.81-12.139-6.79-23.709-.1-1.12-.14-2.23-.14-3.321v-.079c.01-.34.01-.681.01-1.02.02-.72.06-1.44.12-2.141.05-.659.12-1.319.2-1.959.03-.26.07-.51.11-.771.03-.219.06-.439.1-.649.07-.51.16-1.01.26-1.51.01-.07.03-.14.04-.21q.15-.78.33-1.53c.13-.58.27-1.141.42-1.69.13-.5.27-.98.41-1.46.02-.06.03-.12.05-.18s.03-.12.05-.17l.06-.18c.05-.181.1-.35.16-.52.07-.24.15-.46.22-.691.09-.279.18-.559.28-.839s.19-.55.29-.82.19-.54.29-.811.19-.52.29-.78.19-.509.29-.759c.2-.5.39-.991.58-1.461s.38-.929.56-1.369c.1-.22.18-.44.27-.651.17-.409.33-.809.49-1.179.04-.1.07-.19.11-.28.13-.32.25-.63.37-.92.08-.2.15-.381.22-.57C170.378,5.908,170.5,5.588,170.6,5.278Z"/><path d="M170.6,59.848V110.4a27.735,27.735,0,0,0-.28-4.06,5.173,5.173,0,0,0-.09-.57.657.657,0,0,0-.02-.14c-.01-.08-.03-.15-.04-.23-.06-.29-.11-.58-.18-.86s-.13-.55-.2-.81c-.14-.57-.31-1.1-.49-1.62-.12-.37-.26-.73-.39-1.08-.15-.38-.31-.75-.47-1.11s-.31-.69-.47-1.03q-.15-.316-.3-.63a43.758,43.758,0,0,1-2.63-6.11c-.07-.221-.14-.461-.2-.7s-.14-.52-.2-.789c-.05-.211-.1-.43-.14-.65-.05-.25-.1-.5-.14-.76-.05-.291-.09-.58-.13-.88s-.07-.61-.1-.931-.04-.639-.06-.97c-.01-.159-.02-.319-.02-.489s-.01-.3-.01-.46v-.081c-.02-.559-.01-1.149.02-1.76C164.558,72.217,170.288,71.268,170.6,59.848Z"/><path d="M170.6,110.558v49.389c-1.23-3.189-6.87-10.48-7.55-20.49-.06-.829-.07-1.609-.05-2.349v-.07a12.471,12.471,0,0,0,.27-2.98c.01-.091.03-.17.04-.25a1.812,1.812,0,0,1,.05-.25.22.22,0,0,1,.01-.08c0-.011.01-.031.01-.041.09-.48.2-.939.32-1.379.01-.04.02-.07.03-.111.05-.23.12-.449.19-.669.08-.27.16-.53.25-.78q.255-.72.54-1.41c.06-.151.12-.3.19-.44.18-.41.36-.81.55-1.211s.39-.8.59-1.2l.03-.061c.31-.609.62-1.21.93-1.829.04-.08.08-.171.13-.26.14-.3.29-.6.44-.911.17-.349.34-.7.5-1.059.09-.191.18-.39.26-.59a.291.291,0,0,0,.04-.081c.11-.26.22-.529.33-.8,0-.01.01-.01.01-.02.08-.2.16-.411.23-.61.09-.23.17-.46.25-.7s.16-.48.24-.72c.16-.52.31-1.06.44-1.62.08-.33.15-.66.22-1.011.05-.27.1-.549.15-.829.01-.09.03-.191.04-.28.03-.22.06-.431.09-.661.02-.109.03-.23.04-.349.04-.31.07-.62.09-.95.03-.37.06-.75.07-1.14S170.6,110.967,170.6,110.558Z"/><path d="M163.268,134.058a12.471,12.471,0,0,1-.27,2.98v-.15a.34.34,0,0,1,.01-.1c0-.17.01-.331.02-.48.03-.53.08-1.04.14-1.53C163.2,134.528,163.228,134.288,163.268,134.058Z"/><path d="M216.1,70.888a14.362,14.362,0,0,0,1.54-.49A4.359,4.359,0,0,0,216.1,70.888Zm49.03,12.3a7.2,7.2,0,0,0,.51.661A2.443,2.443,0,0,0,265.128,83.187Zm.96,50.01a3.455,3.455,0,0,0,.8-1.049A10.471,10.471,0,0,0,266.088,133.2Zm-24.92-63.51a10.043,10.043,0,0,0,1.06.431A4.056,4.056,0,0,0,241.168,69.687Z"/><path d="M230.6,161.528a49.733,49.733,0,0,1-28.2-8.72c3.92,2.28,7.42-2.02,14.57.17C224.528,155.3,225.058,161.457,230.6,161.528Z"/><path d="M201.658,152.3a50.051,50.051,0,0,1-17.03-21.091c2.09,2.99,6.24.26,10.36,3.521a8.279,8.279,0,0,1,1.36,1.35c.08.109.16.22.24.32C200.1,141.278,197.368,148.828,201.658,152.3Z"/><path d="M184,129.677a50.086,50.086,0,0,1-2.34-28.389c-.32,3.71,4.43,4.27,6.07,9.94a11.336,11.336,0,0,1,.42,2.449c0,.121,0,.241.01.361C188.408,120.488,183.348,125.788,184,129.677Z"/><path d="M197.358,87.908c-.1.19-.2.37-.31.549a7.67,7.67,0,0,1-.48.781c-.01.01-.01.03-.02.04-4.38,6.439-13.1,6.63-14.67,10.96A49.99,49.99,0,0,1,199.738,72.2C196.118,75.868,200.828,81.138,197.358,87.908Z"/><path d="M230.308,61.528c-4.33.08-5.04,5.49-11.65,8.46-.33.15-.66.28-.99.41h-.03a4.359,4.359,0,0,0-1.54.49c-6.56,1.7-11.6-1.59-15.21.43A49.731,49.731,0,0,1,230.308,61.528Z"/><path d="M259.638,70.838c-4.63-3-10.19,1.93-17.41-.72a4.056,4.056,0,0,0-1.06-.431c-6.08-2.819-6.16-8-10.57-8.159A49.725,49.725,0,0,1,259.638,70.838Z"/><path d="M279.668,121.138c.65-5.05-6.18-6.58-6.93-13.961s5.57-10.639,3.55-15.549c-1.67-4.05-6.26-2.57-10.65-7.78a2.443,2.443,0,0,0-.51-.661.031.031,0,0,0-.02-.01c-3.72-4.99-1.33-8.939-4.8-11.859a50.009,50.009,0,0,1,19.36,49.82Z"/><path d="M279.528,121.858a49.936,49.936,0,0,1-18.73,29.5c4.58-4,.16-9.911,4.84-17.48.14-.23.29-.46.45-.681a3.455,3.455,0,0,0,.8-1.049.037.037,0,0,1,.01-.03C271.628,126.318,278.308,126.338,279.528,121.858Z"/><path d="M259.878,152.048a49.66,49.66,0,0,1-28.77,9.47c4.26-.27,4.85-4.54,11.72-7.36.34-.14.67-.26.99-.38.02-.01.04-.01.06-.02.2-.071.39-.13.59-.19C251.678,151.288,255.978,154.478,259.878,152.048Z"/><path d="M622,101.528h-13.12a30.021,30.021,0,0,0-37.42-18.581c5.36-2.629,8.36-8.369,10.74-13.149a30.342,30.342,0,0,1,5.5.7,19.6,19.6,0,0,1,5.38,1.98c1.31,5.06,3.32,11.26,8.06,16.78C607.178,96.308,615.818,100.1,622,101.528Z"/><path d="M629.518,101.177c-.91-1.609-8.37-7.49-22.05-18.259-7.35-5.78-11.23-8.75-14.39-10.44-1.4-5.511-1.98-9.7-4.33-10.281A50.047,50.047,0,0,1,629.518,101.177Z"/><path d="M588.358,62.138c-2.39-.171-4.02,3.36-6.16,7.66a34.652,34.652,0,0,0-15.04,2.98,33.069,33.069,0,0,0-11.81,9.13c-5.52-2.441-10.01-5.52-12.19-3.51a49.857,49.857,0,0,1,37.44-16.87A50.79,50.79,0,0,1,588.358,62.138Z"/><path d="M568.858,83.918a29.991,29.991,0,0,0-18.08,24.32,40.018,40.018,0,0,0-3.65-15.86c1.31-1.82,2.77-3.681,4.32-5.65,1.3-1.67,2.57-3.281,3.9-4.82C559.458,83.717,564.128,85.168,568.858,83.918Z"/><path d="M544.218,127.818c-3.08,4.72-6.05,8.08-5.89,10.42a49.977,49.977,0,0,1,4.47-59.42c-1.55,2.31,1.56,7.02,4.33,13.56-3.23,4.45-5.64,8.73-6.59,14.12C539.288,113.578,540.808,121.138,544.218,127.818Z"/><path d="M567,138.268a.6.6,0,0,0-.11-.051c-5.35-2.109-10.7-1.419-15.32-.26a40.084,40.084,0,0,1-7.35-10.139,36.849,36.849,0,0,0,6.38-16.29A29.981,29.981,0,0,0,567,138.268Z"/><path d="M628.7,125.187a50,50,0,0,1-89.09,14.971c2.21,1.11,6.59-.86,11.96-2.2a34.536,34.536,0,0,0,9,6.571c5.67,2.83,11.27,3.45,17.2,3.33,4.25,6.51,6.27,13.39,9.93,12.9,3.41-.46,3.65-6.68,6.15-14.23a51.84,51.84,0,0,0,15.14-4.79C617.938,137.258,625.888,129.848,628.7,125.187Z"/><path d="M601.218,133.308c-.02.03-.05.05-.07.08a36.732,36.732,0,0,0-7.3,13.14c-2.71.429-5.13.63-7.17.79-3.07.24-6.03.48-8.91.54a24.969,24.969,0,0,0-8.84-8.69,29.993,29.993,0,0,0,32.29-5.86Z"/><path d="M620.568,121.528a42.324,42.324,0,0,0-17.44,9.8,29.981,29.981,0,0,0,5.75-9.8Z"/><path class="a" d="M459.158,108.4a4.263,4.263,0,0,0-1.85.63c6.49,5.36,11.08,11.75,12.78,12.5h.51C471.918,120.378,465.308,107.808,459.158,108.4Z"/><path d="M489.588,101.528a50,50,0,0,0-97.98,0,49.16,49.16,0,0,0-1.01,10v50h20v-40c-1.8-1.27,2.05-12.311,6.73-12.62,1.49-.1,2.59.92,3.68,2.21,4.58-4.651,10.52-9.181,17.74-9.59h-26.43a29.994,29.994,0,0,1,56.56,0h-28.03c6.21.34,11.82,3.649,16.46,7.5a4.263,4.263,0,0,1,1.85-.63c6.15-.59,12.76,11.98,11.44,13.13v40h20v-50A49.16,49.16,0,0,0,489.588,101.528Zm-3.81,45.54c.32,6.33-2.37,13.42-5.32,13.69-3.17.28-8.09-7.19-7.86-14.46.18-5.63,3.39-9.06,6.62-12.25-2.5-2.76-4.97-5.591-5.86-10.06-1.08-5.41.75-10.17,3.21-14.43a32.192,32.192,0,0,1-6.76-10.16,36.724,36.724,0,0,1-2.8-11.99,25.839,25.839,0,0,1-8.35-3.731,27.441,27.441,0,0,1-7.1-7.039,27,27,0,0,1-9.38,2.23,27.432,27.432,0,0,1-11.06-1.74,24.349,24.349,0,0,1-7.7,7.319,23.464,23.464,0,0,1-9.97,3.151,26.95,26.95,0,0,1-2.46,12.31,23.444,23.444,0,0,1-5.76,7.69c2.11,4.079,3.62,8.67,2.72,13.859-1,5.771-4.46,9.2-7.71,12.7,4.11,4.13,8.17,8.57,7.71,14.93-.44,6.1-4.91,12.2-8.11,11.92-3.26-.28-6.17-7.26-6.09-13.44.09-6.22,3.18-9.851,6.49-13.41-4.27-4.3-8.59-8.27-8.01-13.711.68-6.329,7.23-7.709,13-12.849-3.75-7.26-9.39-12.881-6.66-17.32,2.35-3.831,7.97-2.03,14.88-2.68-.11-7.381-2.3-13.161,1.35-15.58,3.85-2.561,8.68,2.31,16.32,5.11,4.65-6.73,5.78-13.97,10.3-13.98,4.37-.01,5.4,6.779,10.14,13.49,5.6-2.39,8.93-5.57,12.42-3.6,3.73,2.11,2.52,7.19,3.03,14.37,7.87,1.98,14.35.1,16.74,4.64,2.59,4.909-3.14,10.54-7.18,17.51,4.87,5.04,9.56,7.27,9.47,13.17-.08,4.959-3.46,8.01-6.82,11.32C482.308,137.467,485.458,140.808,485.778,147.068Z"/><path d="M470.088,121.528h-58.7c1.73-.78,4.97-5.66,9.62-10.41,1.68,2.01,3.33,4.67,6.34,4.89,5.15.38,7.21-6.92,12.42-6.47,4.46.389,5.28,5.96,9.38,5.96,3.78,0,5.22-4.72,8.16-6.47C463.8,114.388,468.388,120.778,470.088,121.528Z"/><path d="M355.248,122.677a9.851,9.851,0,0,0-4.65-1.149h-28.28a.075.075,0,0,1,.01-.05c-.57.03-1.15.05-1.73.05a29.616,29.616,0,0,1-10-1.72,30.015,30.015,0,0,1-19.55-23.07c.56,2.11,9.55-.6,20.02,2.209-.78,9.52-6.23,16.971-4.36,18.2,2.07,1.35,7.7-8.221,15.2-13.01,9.11,6.829,10.45,16.18,18.77,17.069a14.782,14.782,0,0,0,9.06-2.349A43.749,43.749,0,0,0,355.248,122.677Z"/><path d="M329.178,101.528a15.142,15.142,0,0,0-7.27,2.61,29.379,29.379,0,0,0-5.39-3.22,34.224,34.224,0,0,0-5.45-1.971,24.984,24.984,0,0,0-.01-4.409,10.014,10.014,0,0,0,9.54,6.99Z"/><path d="M380.6,131.518c0-2.21-9.04-1.551-19.78-6.061,1.31-10.709,6.97-17.949,5.05-19.3-2.14-1.5-8.23,8.07-16.13,12.7-9.79-8.04-11.27-16.81-19.2-17.33h18.34a.075.075,0,0,1-.01.05c.57-.03,1.15-.05,1.73-.05a30.018,30.018,0,0,1,30,29.99Z"/><path d="M360.818,125.457a36.107,36.107,0,0,0-.26,5.171,10,10,0,0,0-4.75-7.63A47.136,47.136,0,0,0,360.818,125.457Z"/><path d="M380.6,131.528a30,30,0,0,1-30,30h-17.86c5.27-1.41,7.77-8.7,15.21-15.68,10.05,4.69,17,11.2,19.27,8.82,2.07-2.17-3.59-7.67-5.81-17.38C371.858,133.008,380.588,133.717,380.6,131.528Z"/><path d="M361.408,137.288a46.088,46.088,0,0,0-5.1,2.45,10,10,0,0,0,4.29-8.21A33.45,33.45,0,0,0,361.408,137.288Z"/><path d="M354.928,140.538a42.432,42.432,0,0,0-6.98,5.31,41.81,41.81,0,0,0-17.67-4.32H350.6A9.847,9.847,0,0,0,354.928,140.538Z"/><path d="M328.868,161.528h-36.99c3.25-1.44,11-10.75,22.29-16.14C319.048,150.738,322.508,159.918,328.868,161.528Z"/><path d="M306.818,141.528c-7.64,0-14.58,10.8-16.22,16.62v-16.62Z"/><path d="M330.038,141.528a37.146,37.146,0,0,0-15.87,3.86c-2.06-2.26-4.38-3.84-7.29-3.86Z"/><path d="M309.088,86.988c-9.45,6.32-18.06,7.5-18.06,9.56a28.663,28.663,0,0,1-.43-5.02,29.86,29.86,0,0,1,7.37-19.68C297.058,73.588,305.158,78.187,309.088,86.988Z"/><path d="M359.778,81.528H320.6a10,10,0,0,0-10,10,23.26,23.26,0,0,0-1.51-4.54,45.9,45.9,0,0,0,4.21-3.14,44.677,44.677,0,0,0,4.55-4.36,44.775,44.775,0,0,0,12.86,1.83c6.98-.07,13.29-1.91,19.62-4.47C353,79.5,356.028,81.437,359.778,81.528Z"/><path d="M380.6,63.158v18.37h-20.55C370.128,81.528,379.268,68.078,380.6,63.158Z"/><path d="M379.648,61.528c-2.23.86-8.03,5.71-19.53,11-3.34,1.53-6.57,3.02-9.79,4.32-5.74-5.69-9.87-14.61-16-15.32Z"/><path d="M332.738,61.528c-6.21.71-6.66,8.88-14.89,17.96-10.8-3.1-18.09-8.96-19.68-7.86a29.844,29.844,0,0,1,22.43-10.1Z"/><path d="M509.868,161.528H500.6v-35.71c.3,5.02,5.21,8.8,10.08,12.54-5.22,3.94-10.46,7.91-9.94,13.52C501.168,156.578,505.528,161.258,509.868,161.528Z"/><path d="M520.6,125.768v35.76h-9.89c4.5-.29,9.25-4.94,9.81-9.65.65-5.48-4.58-9.48-9.84-13.52C515.638,134.608,520.6,130.868,520.6,125.768Z"/><path d="M510.058,113.717c-4.72,3.091-9.27,6.331-9.46,11.291V102.7C500.7,107.518,505.288,110.638,510.058,113.717Z"/><path d="M520.6,101.947v23.571c-.16-5.26-5.45-8.51-10.54-11.8C515.228,110.318,520.6,107.088,520.6,101.947Z"/><path d="M510.7,90.288c-5.03,3.57-10.1,7.169-10.1,12.25V80.728C501.888,84.518,506.328,87.378,510.7,90.288Z"/><path d="M520.6,78.4v23.539c0-4.919-4.9-8.319-9.9-11.649C515.668,86.768,520.6,83.268,520.6,78.4Z"/><path d="M510.608,66.457c-6.07,3.561-9.04,6.841-10.01,9.791V61.528A81.458,81.458,0,0,1,510.608,66.457Z"/><path d="M520.6,61.528v16.83c-.03-4.23-3.77-8.21-9.99-11.9A85.667,85.667,0,0,1,520.6,61.528Z"/><path d="M76.418,100.467c-.34-.369-.71-.719-1.09-1.069-6.78-6.181-12.47-3.461-16.81-10-.13-.191-.25-.38-.36-.57a12.741,12.741,0,0,1-.82-1.6c-.08-.17-.15-.35-.22-.531a4.035,4.035,0,0,1-.15-.409,13.326,13.326,0,0,1-.56-2.05c-.03-.18-.07-.36-.09-.541-.03-.149-.05-.3-.07-.449-.04-.281-.07-.561-.09-.83-.03-.33-.05-.67-.07-1-.25-6,1.79-11.82-2.56-16.5-3.28-3.52-9.04-5.18-12.93-3.39-5.84,2.679-6.18,12.57-6.34,17.34-.47,13.839,5.54,16.38,5.83,29.15.27,11.15-4.24,11.87-4.98,22.52-1.57-7-8.29-12-9.81-23.53-1.88-14.25,7.22-16.93,9.09-35.11,2.21-21.53-8.45-38.04-6.38-38.92,2.05-.87,6.6,17.9,24,29.75,10.38,7.06,16.02,5.31,20.62,12.5C78.618,84.6,73.638,94.768,76.418,100.467Z"/><path d="M40.6,158.518v3.01h-.79c-1.11-.45-2.69-2.51-4.85-4.77-.15-.16-.31-.331-.47-.48-.16-.17-.32-.331-.49-.49s-.34-.331-.51-.49-.34-.331-.52-.48A21.934,21.934,0,0,0,29,151.9a6.106,6.106,0,0,0-.67-.35,5,5,0,0,0-.53-.26c-.29-.13-.59-.26-.9-.38-.21-.08-.42-.15-.63-.221a.286.286,0,0,1-.07-.019c-.19-.07-.38-.12-.57-.17-.06-.02-.12-.031-.19-.051a5.794,5.794,0,0,0-.71-.159,6.312,6.312,0,0,0-.77-.13c5.11-1.721,9.88-7.56,11.15-13.49C35.758,146.668,39.368,154.447,40.6,158.518Z"/><path d="M19.088,150.4a5.99,5.99,0,0,0-.74.19c-.25.07-.49.14-.74.22q-.72.239-1.44.54a22.366,22.366,0,0,0-2.05.98c-.94.52-1.85,1.09-2.72,1.68-.59.41-1.16.83-1.72,1.26-.2.15-.4.31-.6.47q-.57.45-1.11.9c-1.5,1.23-2.82,2.41-3.93,3.319l-.45.361c-.15.119-.29.23-.42.32s-.27.2-.4.289c-.08.061-.17.121-.25.171a2.1,2.1,0,0,1-.2.119,4.893,4.893,0,0,1-.59.311H.6v-1.89q.135-.36.33-.78c.19-.411.42-.87.69-1.37.17-.33.36-.68.55-1.051s.41-.75.62-1.149.44-.821.66-1.26.46-.88.69-1.351c.17-.349.34-.71.52-1.069s.35-.74.52-1.13a41.861,41.861,0,0,0,2.18-5.89c.18-.6.34-1.22.48-1.84a30.789,30.789,0,0,0,.83-7.25C9.6,142.217,13.8,149.028,19.088,150.4Z"/><path d="M16.168,151.348c-.7.29-1.38.63-2.05.98A22.366,22.366,0,0,1,16.168,151.348Z"/><path d="M8.468,132.388c-.01-.04-.01-.09-.02-.13-.03-.26-.07-.51-.11-.76-.02-.14-.04-.281-.07-.42s-.05-.28-.08-.42c-.06-.27-.12-.54-.18-.8s-.14-.52-.21-.77-.15-.49-.23-.73c-.14-.411-.28-.81-.44-1.2a34.8,34.8,0,0,0-2.5-4.83c-.13-.24-.27-.48-.41-.72q-.27-.45-.51-.9c-.17-.3-.34-.609-.5-.919q-.315-.6-.6-1.23c-.1-.21-.2-.43-.29-.65s-.18-.451-.27-.68c-.08-.21-.16-.41-.23-.63a.076.076,0,0,1-.02-.04.076.076,0,0,0-.02-.05l-.03-.09c-.06-.211-.13-.41-.19-.63a6.07,6.07,0,0,1-.18-.611v-.009c-.03-.1-.06-.211-.08-.31-.05-.2-.1-.411-.15-.63-.08-.37-.15-.74-.21-1.13-.04-.24-.08-.48-.11-.73s-.07-.53-.1-.81c-.03-.32-.06-.65-.08-.98s-.04-.69-.05-1.04v-1.31c.2-11.34,7.28-13.61,6.54-25.81-.63-10.18-5.67-10.56-6.54-21.04V56.6c.78-8.23,5.64-11.49,6.54-22.35.84,12.66,12.28,15,12.08,26.11-.2,11.27-12.05,13.77-11.49,24.339.55,10.48,12.42,12.091,12.84,22.311C21,117.528,8.728,120.388,8.468,132.388Z"/><path d="M42.618,22.568c-4.47-7.121-13.86-13.67-22.39-11.22C12.7,13.508,8.158,22,7.258,29.908c-.02-.63-.05-1.26-.1-1.88v-.01c-.01-.18-.03-.341-.05-.52-.02-.22-.03-.44-.06-.66-.03-.34-.07-.68-.11-1.01-.05-.42-.11-.83-.18-1.24-.05-.33-.1-.651-.16-.98,0-.02-.01-.05-.01-.07s-.01-.03-.01-.05c-.04-.19-.07-.39-.11-.58-.31-1.59-.68-3.1-1.1-4.54-.13-.46-.27-.9-.41-1.34-.39-1.23-.8-2.4-1.21-3.5-.09-.25-.18-.5-.28-.74-.67-1.75-1.33-3.321-1.89-4.7-.22-.55-.43-1.06-.62-1.55a.06.06,0,0,0-.01-.04c-.13-.33-.25-.65-.35-.95V1.528h1.84c3.77,1.58,10.58,10.179,19.91,9.39,8.07-.67,12.9-8.02,16.33-9.39H40.6c.38.55.75,1.09,1.13,1.64.03.12.05.25.07.38,0,.03.01.06.01.1a2.983,2.983,0,0,1,.04.44.274.274,0,0,1,.01.089c0,.161.01.321.01.481,0,.19-.01.39-.02.59,0,.14-.01.28-.02.429-.01.181-.02.361-.04.551-.03.36-.07.75-.12,1.15-.03.2-.05.41-.08.62-.07.61-.16,1.26-.24,1.929q-.06.512-.12,1.02c-.03.341-.07.691-.1,1.041-.01.13-.02.26-.03.38-.04.53-.07,1.069-.09,1.6s-.02,1.081,0,1.631c.01.25.01.49.03.74.02.33.05.66.08.98s.08.649.14.98v.03c.05.32.11.639.19.95l.12.48c.05.189.1.38.16.57.04.139.09.28.13.42l.15.42c.12.33.26.66.41.98C42.478,22.288,42.548,22.427,42.618,22.568Z"/><path d="M95.108,100.158c-10.15,10.1-8.34,27.32-9.12,30.76-.13.2-.26.41-.39.61-.14-.21-.27-.42-.41-.63-.75-3.211.51-18.01-6.82-28.09C82.678,105.978,91.068,104.588,95.108,100.158Z"/><path d="M99.658,63.868c-10.21,11.079-8.72,25.74-13.51,25.9-4.93.169-3.96-15.45-16.9-27.72-9.74-9.23-17.22-6.94-21.97-15.89-4.56-8.57.83-13.451-3.88-22.25,5.26,7.91,14.77,3.68,20.63,11.7a.369.369,0,0,1,.05.079l.42.6c5.02,7.79-1.34,15.37,5,23.56,5.31,6.869,14.41,7.55,15.76,7.63.45.03,1.27.07,2.32.04.16,0,.33-.01.51-.02.09,0,.18-.01.27-.01.28-.01.56-.031.86-.061.15-.009.3-.019.45-.039.23-.02.47-.04.7-.07s.49-.07.73-.1c.28-.049.56-.089.84-.149l.16-.03c.25-.05.51-.1.77-.16.08-.02.17-.04.26-.06.23-.05.46-.111.69-.18s.48-.13.72-.211a1.208,1.208,0,0,1,.17-.049c.23-.07.45-.15.67-.23.31-.11.61-.23.91-.35l.01-.01c.25-.1.49-.21.72-.321.28-.139.56-.28.83-.429.16-.081.32-.18.48-.27.01-.01.03-.02.04-.03.25-.15.5-.311.75-.49C99.3,64.138,99.478,64,99.658,63.868Z"/><path d="M112.348,89.008c-4.55,7.1-10.43,4.37-17.24,11.15,6.58-7.211-2.18-18.31,4.22-26.951,4.24-5.729,9.75-3.1,18.85-8.03C111.478,71.447,117.938,80.268,112.348,89.008Z"/><path d="M122.658,48.868c-3.91,7.47-11.59,4.73-20.71,12.76,5.67-7.13-1.38-14.32,3.74-23.87.65-.94,1.29-1.88,1.94-2.821,4.05-4.619,9.28-3.909,14.6-11.339C118.338,33.437,127.218,40.148,122.658,48.868Z"/><path d="M136.328,69.358c-.01-.03-.02-.07-.03-.1,0-.01-.01-.03-.01-.041-.01-.03-.02-.049-.03-.079-.05-.171-.1-.34-.16-.51-.08-.25-.16-.49-.25-.73-.05-.15-.1-.3-.16-.451-.05-.129-.1-.26-.16-.379a2.288,2.288,0,0,0-.1-.23c-.09-.2-.18-.4-.27-.59s-.2-.39-.3-.58c-.08-.15-.17-.31-.26-.461-.12-.209-.25-.409-.39-.609a2.977,2.977,0,0,0-.2-.29,3.374,3.374,0,0,0-.34-.43,1.431,1.431,0,0,0-.11-.15l-.37-.4c-.11-.121-.22-.23-.33-.33a5.339,5.339,0,0,0-.44-.39c-.01-.01-.02-.02-.03-.02a4.606,4.606,0,0,0-.52-.381l-.03-.03c-.19-.129-.39-.24-.59-.349h-.01c-.21-.111-.42-.21-.64-.3a7.751,7.751,0,0,0-2.91-.54c-.23,0-.46.01-.7.03-.17.01-.34.03-.51.05q-.3.03-.6.09a1.591,1.591,0,0,0-.3.059c-.09.021-.19.051-.29.071a10.8,10.8,0,0,0-1.81.56c-.2.07-.4.16-.59.24,12.66-9.891,15.87-26.391,17.68-25.73C142.358,37.008,134.418,51.328,136.328,69.358Z"/><path d="M125.288,61.288a12.9,12.9,0,0,0-1.81.56A10.8,10.8,0,0,1,125.288,61.288Z"/><path d="M149.158,150.518c-9.17.449-15.36,9.949-17.84,11.01h-.72v-1.46c1.13-3.05,6.34-10.22,7.1-19.851.02-.28.04-.559.05-.829.01-.15.02-.3.02-.451a.557.557,0,0,0,.01-.129v-.23c.01-.43.01-.861-.01-1.27C138.888,143.467,143.578,150.088,149.158,150.518Z"/><path d="M145.338,9.1c-7.81-.32-16.07,4.16-20.59,10.119q.225-.508.42-1.02c.01-.029.03-.069.04-.1.07-.18.14-.36.2-.55a2.2,2.2,0,0,0,.12-.331c.08-.209.15-.419.21-.619.04-.11.07-.22.1-.33.09-.3.18-.591.26-.89.05-.2.11-.4.15-.6.1-.4.19-.79.27-1.18q.09-.375.15-.75c.03-.161.07-.33.09-.49s.06-.31.08-.47c.04-.191.06-.37.09-.55.06-.35.11-.69.15-1.03.09-.621.17-1.23.25-1.8.02-.14.04-.291.06-.43s.04-.29.06-.42q.06-.42.12-.81a.355.355,0,0,1,.02-.1c.02-.18.06-.34.09-.51.04-.22.08-.44.13-.65.93-1.35,1.86-2.71,2.79-4.06h3.04a5.055,5.055,0,0,1,.61.25,4.98,4.98,0,0,1,.62.31c.01,0,.02.01.03.01.2.109.4.23.6.359.16.1.31.211.48.311a.01.01,0,0,0,.01.01c.01.01.02.01.03.02.35.23.7.49,1.06.76.15.119.31.23.46.35.2.15.4.309.6.46.69.54,1.41,1.11,2.16,1.67.37.28.74.55,1.12.82a.156.156,0,0,1,.08.06c.36.24.73.49,1.11.73a.17.17,0,0,1,.07.039c.28.171.57.341.86.5.27.161.55.311.84.461a.328.328,0,0,1,.08.039c.02.01.05.02.07.03.25.131.5.25.77.361C145.308,9.088,145.328,9.088,145.338,9.1Z"/><path d="M148.678,107.348c-1.58,12.97-11.22,17.28-11.16,27.18,0-.02-.01-.03-.01-.05-.05-.31-.11-.62-.17-.92-.03-.15-.06-.31-.1-.46s-.08-.31-.11-.46c-.05-.2-.11-.41-.16-.61-.12-.39-.24-.78-.37-1.16-.06-.191-.13-.37-.2-.56-.14-.371-.28-.73-.43-1.08-.54-1.261-1.15-2.44-1.76-3.63-.17-.33-.34-.651-.51-.98-.13-.25-.25-.49-.37-.74-.2-.4-.4-.8-.59-1.21-.09-.18-.17-.36-.25-.54-.11-.24-.22-.48-.32-.72-.08-.2-.17-.4-.25-.6-.09-.24-.19-.48-.27-.72-.08-.21-.16-.43-.24-.651,0-.01-.01-.029-.01-.039-.08-.23-.15-.471-.22-.711l-.15-.48a2.473,2.473,0,0,0-.07-.25c-.13-.5-.25-1.02-.36-1.549v-10.65c1.7-8.311,7.1-11.5,7.1-24.36,0-.66,0-1.7-.06-2.99-.01-.51-.04-1.06-.09-1.64-.02-.29-.04-.591-.07-.89C141.148,90.328,150.288,94.207,148.678,107.348Z"/><path d="M137.638,78.408c-.02-.51-.05-1.06-.09-1.64C137.6,77.348,137.628,77.9,137.638,78.408Z"/><path d="M170.6,1.528v3.75c-.1.31-.22.63-.35.96-.07.189-.14.37-.22.57-.12.29-.24.6-.37.92-.04.09-.07.18-.11.28-.16.37-.32.77-.49,1.179-.09.211-.17.431-.27.651-.18.44-.37.9-.56,1.369s-.38.961-.58,1.461c-.1.25-.2.5-.29.759s-.19.52-.29.78-.2.541-.29.811-.2.54-.29.82-.19.56-.28.839c-.07.231-.15.451-.22.691-.06.17-.11.339-.16.52l-.06.18c-.02.05-.03.109-.05.17s-.03.12-.05.18c-.14.48-.28.96-.41,1.46-.15.549-.29,1.11-.42,1.69q-.18.75-.33,1.53c-.01.07-.03.14-.04.21-.1.5-.19,1-.26,1.51-.04.21-.07.43-.1.649-.04.261-.08.511-.11.771-.08.64-.15,1.3-.2,1.959-.06.7-.1,1.421-.12,2.141-.12-7.93-4.74-16.7-12.29-19.92,8.72.039,14.44-7.52,17.63-8.89Z"/><path d="M170.6,58.467v1.381c-.31,11.42-6.04,12.369-6.54,23.829-.59-11.25-13.62-12.829-14.36-23.659-.79-11.47,13.45-14.97,13.97-28.581,0,1.091.04,2.2.14,3.321C164.788,46.328,170.428,48.018,170.6,58.467Z"/><path d="M170.6,110.4v.16c0,.409-.01.81-.03,1.2s-.04.77-.07,1.14c-.02.33-.05.64-.09.95-.01.119-.02.24-.04.349-.03.23-.06.441-.09.661-.01.089-.03.19-.04.28-.05.28-.1.559-.15.829-.07.351-.14.681-.22,1.011-.13.56-.28,1.1-.44,1.62-.08.24-.15.48-.24.72s-.16.47-.25.7c-.07.2-.15.409-.23.61,0,.01-.01.01-.01.02-.11.27-.22.539-.33.8a.291.291,0,0,1-.04.081c-.08.2-.17.4-.26.59-.16.36-.33.71-.5,1.059-.15.311-.3.611-.44.911-.05.089-.09.18-.13.26-.31.619-.62,1.22-.93,1.829l-.03.061c-.2.4-.4.8-.59,1.2s-.37.8-.55,1.211c-.07.14-.13.289-.19.44q-.285.69-.54,1.41c-.09.25-.17.51-.25.78-.07.22-.14.439-.19.669-.01.041-.02.071-.03.111-.12.44-.23.9-.32,1.379,0,.01-.01.03-.01.041a.22.22,0,0,0-.01.08,1.812,1.812,0,0,0-.05.25c-.01.08-.03.159-.04.25-.21-9.611-11.09-14.77-10.19-26.71.81-10.83,10.22-13.151,10.96-21.83,0,.159,0,.3.01.46s.01.33.02.489c.02.331.04.651.06.97s.06.631.1.931.08.589.13.88c.04.26.09.51.14.76.04.22.09.439.14.65.06.269.13.539.2.789s.13.48.2.7a43.758,43.758,0,0,0,2.63,6.11q.15.314.3.63c.16.34.32.68.47,1.03s.32.73.47,1.11c.13.35.27.71.39,1.08.18.52.35,1.05.49,1.62.07.26.14.53.2.81s.12.57.18.86c.01.08.03.15.04.23a.657.657,0,0,1,.02.14,5.173,5.173,0,0,1,.09.57A27.735,27.735,0,0,1,170.6,110.4Z"/><path d="M170.6,159.947v1.581h-.97a14.159,14.159,0,0,1-3.01-2.26c-.16-.13-.32-.27-.49-.42q-.45-.39-.93-.81c-.87-.76-1.82-1.571-2.86-2.37-.2-.16-.41-.32-.63-.471s-.43-.319-.64-.469-.45-.32-.67-.47-.45-.311-.68-.45c-.31-.2-.62-.4-.95-.591q-.585-.344-1.2-.659c-.19-.1-.39-.2-.59-.29a1.1,1.1,0,0,0-.15-.081c-.25-.109-.51-.23-.77-.339-.13-.06-.26-.11-.39-.161s-.25-.1-.39-.149c-.26-.1-.52-.19-.79-.27s-.54-.17-.81-.24-.54-.14-.82-.2-.55-.111-.83-.151c-.23-.029-.46-.069-.69-.089a.5.5,0,0,0-.12-.02.215.215,0,0,1-.08,0c-.24-.02-.48-.04-.73-.05,5.65-.5,11.26-6.93,12.58-13.35,0-.02.01-.04.01-.06-.02.74-.01,1.52.05,2.349C163.728,149.467,169.368,156.758,170.6,159.947Z"/><path d="M.6,1.528v4.02C-.112,3.518-.282,2.148.6,1.528Z"/><path d="M.6,56.6v4.78A27.162,27.162,0,0,1,.6,56.6Z"/><path d="M.6,159.638v1.89C.188,161.207.238,160.568.6,159.638Z"/><path d="M1.728,161.528a1.078,1.078,0,0,1-1.13,0Z"/><path d="M2.438,1.528H.6A1.816,1.816,0,0,1,2.438,1.528Z"/><path d="M40.6,161.528a.846.846,0,0,1-.79,0Z"/><path d="M40.6,1.528h-1.92A2.187,2.187,0,0,1,40.6,1.528Z"/><path d="M40.6,161.528v-3.01C41.088,160.138,41.2,161.177,40.6,161.528Z"/><path d="M41.728,3.168c-.38-.55-.75-1.09-1.13-1.64A2.291,2.291,0,0,1,41.728,3.168Z"/><path d="M85.6,131.528c-.18,0-.31-.22-.41-.63C85.328,131.108,85.458,131.318,85.6,131.528Z"/><path d="M85.988,130.918c-.09.4-.21.61-.39.61C85.728,131.328,85.858,131.118,85.988,130.918Z"/><path d="M107.628,34.937c-.65.941-1.29,1.881-1.94,2.821A14.483,14.483,0,0,1,107.628,34.937Z"/><path d="M130.6,1.528c-.93,1.35-1.86,2.71-2.79,4.06C128.238,3.608,128.958,2.177,130.6,1.528Z"/><path d="M130.6,160.068v1.46C130.278,161.3,130.318,160.8,130.6,160.068Z"/><path d="M131.318,161.528a.685.685,0,0,1-.72,0Z"/><path d="M133.638,1.528H130.6A4.191,4.191,0,0,1,133.638,1.528Z"/><path d="M170.6,161.528a.909.909,0,0,1-.97,0Z"/><path d="M170.6,1.528h-1.58A1.557,1.557,0,0,1,170.6,1.528Z"/><path d="M170.6,161.528v-1.581C170.9,160.717,170.948,161.258,170.6,161.528Z"/><path d="M170.6,5.278V1.528C171.408,2.088,171.248,3.378,170.6,5.278Z"/><path d="M8.668,135.457a18.285,18.285,0,0,1-.2-3.03,4.654,4.654,0,0,1,.06.52.063.063,0,0,1,.01.041c.03.27.05.54.07.82.02.35.04.72.05,1.09C8.668,135.078,8.668,135.278,8.668,135.457Z"/><path d="M23.948,150.158a8.848,8.848,0,0,1-3.72.45,7.163,7.163,0,0,1-1.14-.21c.25-.06.51-.11.77-.16a12.866,12.866,0,0,1,1.39-.17.2.2,0,0,1,.08-.01c.29-.02.58-.03.88-.03a13.291,13.291,0,0,1,1.4.08C23.728,150.118,23.838,150.138,23.948,150.158Z"/><path class="a" d="M164.058,83.677c-.03.611-.04,1.2-.02,1.76v.081c-.74,8.679-10.15,11-10.96,21.83-.9,11.94,9.98,17.1,10.19,26.71a12.471,12.471,0,0,1-.27,2.98v.07c0,.02-.01.04-.01.06-1.32,6.42-6.93,12.85-12.58,13.35h-.12a10.648,10.648,0,0,0-1.13,0c-5.58-.43-10.27-7.051-11.39-13.21v-.07a17.141,17.141,0,0,1-.25-2.68v-.03c-.06-9.9,9.58-14.21,11.16-27.18,1.61-13.141-7.53-17.02-11.2-31.47v-.05a.09.09,0,0,0-.01-.05,46.361,46.361,0,0,1-1.14-6.4v-.02c-1.91-18.03,6.03-32.35,4.24-33-1.81-.661-5.02,15.839-17.68,25.73a33.289,33.289,0,0,1-4.71,3.089c-9.1,4.931-14.61,2.3-18.85,8.03-6.4,8.641,2.36,19.74-4.22,26.951-4.04,4.43-12.43,5.82-16.74,2.65l-.01-.01a6.221,6.221,0,0,1-1.94-2.331c-2.78-5.7,2.2-15.869-3.79-25.239-4.6-7.19-10.24-5.44-20.62-12.5-17.4-11.85-21.95-30.62-24-29.75-2.07.88,8.59,17.39,6.38,38.92-1.87,18.18-10.97,20.86-9.09,35.11,1.52,11.53,8.24,16.53,9.81,23.53a13.706,13.706,0,0,1,0,6.12v.01c-1.27,5.93-6.04,11.769-11.15,13.49h-.01c-.11-.02-.22-.04-.34-.05a13.291,13.291,0,0,0-1.4-.08c-.3,0-.59.01-.88.03a.2.2,0,0,0-.08.01,12.866,12.866,0,0,0-1.39.17c-.26.05-.52.1-.77.16-5.29-1.37-9.49-8.181-10.42-14.9v-.041c0-.179,0-.379-.01-.559-.01-.37-.03-.74-.05-1.09-.02-.28-.04-.55-.07-.82a.063.063,0,0,0-.01-.041,4.654,4.654,0,0,0-.06-.52v-.039c.26-12,12.53-14.86,12.1-25.38-.42-10.22-12.29-11.831-12.84-22.311-.56-10.569,11.29-13.069,11.49-24.339.2-11.11-11.24-13.45-12.08-26.11a24.019,24.019,0,0,1,.12-4.3v-.039c.9-7.91,5.44-16.4,12.97-18.56,8.53-2.45,17.92,4.1,22.39,11.22a.01.01,0,0,1,.01.01.076.076,0,0,0,.02.04c.11.22.23.44.35.65s.26.429.4.64c4.71,8.8-.68,13.68,3.88,22.25,4.75,8.95,12.23,6.66,21.97,15.89,12.94,12.27,11.97,27.889,16.9,27.72,4.79-.16,3.3-14.821,13.51-25.9l.01-.01c.7-.76,1.46-1.5,2.28-2.23,9.12-8.03,16.8-5.29,20.71-12.76,4.56-8.72-4.32-15.431-.43-25.27a18.375,18.375,0,0,1,2.5-4.35l.01-.01c0-.01,0-.01.01-.021,4.52-5.959,12.78-10.439,20.59-10.119a17.1,17.1,0,0,1,6.05,1.32c7.55,3.22,12.17,11.99,12.29,19.92,0,.339,0,.68-.01,1.02v.079c-.52,13.611-14.76,17.111-13.97,28.581C150.438,70.848,163.468,72.427,164.058,83.677Z"/><path d="M164.038,85.437c-.02-.559-.01-1.149.02-1.76A14.583,14.583,0,0,1,164.038,85.437Z"/><path d="M217.105,1.12V3.01C216.7,2.69,216.745,2.05,217.105,1.12Z"/><path d="M217.105,3.01h1.13A1.078,1.078,0,0,1,217.105,3.01Z"/><path d="M256.315,3.01h.79A.846.846,0,0,1,256.315,3.01Z"/><path d="M257.105,0c.49,1.62.6,2.66,0,3.01Z"/><path d="M347.105,1.55V3.01C346.785,2.78,346.825,2.28,347.105,1.55Z"/><path d="M347.105,3.01h.72A.685.685,0,0,1,347.105,3.01Z"/><path d="M386.135,3.01h.97A.9.9,0,0,1,386.135,3.01Z"/><path d="M387.105,1.43c.3.77.35,1.31,0,1.58Z"/><path d="M196.348,136.078a8.279,8.279,0,0,0-1.36-1.35c-4.12-3.261-8.27-.531-10.36-3.521a.01.01,0,0,1-.01-.01c-.21-.5-.42-1.01-.62-1.52-.65-3.889,4.41-9.189,4.16-15.639.33,3.08,5.19,3.6,7.34,8.86C197.858,128.687,193.7,132.368,196.348,136.078Z"/><path d="M184.618,131.2a3.769,3.769,0,0,1-.62-1.52C184.2,130.187,184.408,130.7,184.618,131.2Z"/><path d="M196.848,104.3c-2.31,5.47-8.59,5.5-8.7,9.31v.069a11.336,11.336,0,0,0-.42-2.449c-1.64-5.67-6.39-6.23-6.07-9.94.06-.351.14-.7.22-1.05,1.57-4.33,10.29-4.521,14.67-10.96C193.9,94.418,199.318,98.467,196.848,104.3Z"/><path d="M181.878,100.238c-.08.35-.16.7-.22,1.05v-.06A4.465,4.465,0,0,1,181.878,100.238Z"/><path d="M216.968,152.978c-7.15-2.19-10.65,2.11-14.57-.17-.04-.03-.08-.05-.12-.08l-.48-.33a1.7,1.7,0,0,1-.14-.1c-4.29-3.47-1.56-11.02-5.07-15.9,2.58,3.09,6.83.64,11.76,4.24C214.2,144.927,212.5,151.518,216.968,152.978Z"/><path d="M202.278,152.728c-.08-.051-.17-.1-.25-.16a2.071,2.071,0,0,1-.23-.17Z"/><path d="M216.1,70.888c-2.94,1.61-3.02,6.61-8.77,11.44-5.13,4.32-8.29,3.389-10.28,6.129.11-.179.21-.359.31-.549,3.47-6.77-1.24-12.04,2.38-15.711l.01-.01c.37-.289.75-.589,1.14-.869C204.5,69.3,209.538,72.588,216.1,70.888Z"/><path d="M200.888,71.318c-.39.28-.77.58-1.14.869l.06-.059A4.767,4.767,0,0,1,200.888,71.318Z"/><path d="M241.168,69.687c-4-1.039-5.74,3.831-11.87,4.02-5.62.181-7.41-3.829-11.63-3.309.33-.13.66-.26.99-.41,6.61-2.97,7.32-8.38,11.65-8.46h.29C235.008,61.687,235.088,66.868,241.168,69.687Z"/><path d="M243.818,153.778c-.32.12-.65.24-.99.38-6.87,2.82-7.46,7.09-11.72,7.36-.16.01-.33.01-.51.01-5.54-.071-6.07-6.23-13.63-8.55,4.04,1.32,6.09-3.85,12.67-4.06C236.968,148.7,239.038,154.978,243.818,153.778Z"/><path d="M265.108,83.177c-2.56-2.259-9.87,1.061-15.86-3.379-4.52-3.351-4.11-8.02-7.02-9.68,7.22,2.65,12.78-2.28,17.41.72a.086.086,0,0,1,.06.03c.2.15.41.3.61.45C263.778,74.238,261.388,78.187,265.108,83.177Z"/><path d="M260.308,71.318c-.2-.15-.41-.3-.61-.45a5.736,5.736,0,0,1,.5.36A1.063,1.063,0,0,1,260.308,71.318Z"/><path d="M266.088,133.2c-.16.221-.31.451-.45.681-4.68,7.569-.26,13.48-4.84,17.48-.3.24-.6.47-.91.68a.01.01,0,0,1-.01.01c-3.9,2.43-8.2-.76-15.41,1.52,5.3-2.09,3.87-11.99,12.21-16.98C260.888,134.068,264.258,134.808,266.088,133.2Z"/><path d="M260.8,151.358a.286.286,0,0,1-.08.079,6.341,6.341,0,0,1-.83.6C260.2,151.828,260.5,151.6,260.8,151.358Z"/><path d="M272.738,107.177c-.46-4.339-9.57-4.25-11.15-9.8-1.56-5.451,5.9-10.06,4.05-13.53,4.39,5.21,8.98,3.73,10.65,7.78C278.308,96.538,271.988,99.808,272.738,107.177Z"/><path d="M279.668,121.138c-.04.24-.09.48-.14.72-1.22,4.48-7.9,4.46-12.63,10.26,1.95-3.96-3.96-7.56-2.78-13.45,1.26-6.28,9.05-7.461,8.62-11.491C273.488,114.558,280.318,116.088,279.668,121.138Z"/><path d="M279.668,121.138a.344.344,0,0,1-.01.1,4.027,4.027,0,0,1-.13.62C279.578,121.618,279.628,121.378,279.668,121.138Z"/><path class="a" d="M272.738,107.177c-.46-4.339-9.57-4.25-11.15-9.8-1.56-5.451,5.9-10.06,4.05-13.53a7.2,7.2,0,0,1-.51-.661.031.031,0,0,0-.02-.01c-2.56-2.259-9.87,1.061-15.86-3.379-4.52-3.351-4.11-8.02-7.02-9.68a10.043,10.043,0,0,1-1.06-.431c-4-1.039-5.74,3.831-11.87,4.02-5.62.181-7.41-3.829-11.63-3.309h-.03a14.362,14.362,0,0,1-1.54.49c-2.94,1.61-3.02,6.61-8.77,11.44-5.13,4.32-8.29,3.389-10.28,6.129a7.67,7.67,0,0,1-.48.781c-.01.01-.01.03-.02.04-2.65,5.14,2.77,9.189.3,15.02-2.31,5.47-8.59,5.5-8.7,9.31v.069c0,.121,0,.241.01.361.33,3.08,5.19,3.6,7.34,8.86,2.36,5.789-1.8,9.47.85,13.18.08.109.16.22.24.32,2.58,3.09,6.83.64,11.76,4.24,5.85,4.289,4.15,10.88,8.62,12.34,4.04,1.32,6.09-3.85,12.67-4.06,7.33-.221,9.4,6.06,14.18,4.86.02-.01.04-.01.06-.02.2-.071.39-.13.59-.19,5.3-2.09,3.87-11.99,12.21-16.98,4.21-2.52,7.58-1.78,9.41-3.391a10.471,10.471,0,0,1,.8-1.049.037.037,0,0,1,.01-.03c1.95-3.96-3.96-7.56-2.78-13.45C265.378,112.388,273.168,111.207,272.738,107.177Zm-9.97,18.931c-1.76,4.109-4.89,3.579-15.47,10.349-9.93,6.351-10.54,8.97-14.95,9.081-4.58.12-5.43-2.67-12.7-6.081l-.06-.03a22.131,22.131,0,0,1-2.2-.97l-.15-.059c-9.25-3.76-11.88-1.84-14.81-5.191-3.15-3.609-.99-6.839-1.77-19.78-.01-.119-.01-.24-.02-.359-.8-12.371-3.15-15.1-.58-19.08,2.55-3.91,5.54-2.37,13.99-7.49.24-.14.47-.291.7-.43.11-.07.21-.141.32-.2,8.29-5.31,8.56-9.12,13.39-9.45,4.88-.33,5.98,3.48,13.58,7.38a26.787,26.787,0,0,1,2.6,1.22c.02.01.03.01.05.02,9.14,3.88,12.56,1.71,15.37,5.409,3.12,4.091-.48,7.551.46,18.931C261.378,119.658,264.718,121.538,262.768,126.108Z"/><path d="M217.638,70.4a14.362,14.362,0,0,1-1.54.49A4.359,4.359,0,0,1,217.638,70.4Z"/><path d="M242.228,70.118a10.043,10.043,0,0,1-1.06-.431A4.056,4.056,0,0,1,242.228,70.118Z"/><path d="M262.768,126.108c-1.76,4.109-4.89,3.579-15.47,10.349-9.93,6.351-10.54,8.97-14.95,9.081-4.58.12-5.43-2.67-12.7-6.081a30,30,0,0,0,40.95-27.929c0-.72-.03-1.44-.08-2.15C261.378,119.658,264.718,121.538,262.768,126.108Z"/><path d="M217.388,138.457l-.15-.059c-9.25-3.76-11.88-1.84-14.81-5.191-3.15-3.609-.99-6.839-1.77-19.78A29.967,29.967,0,0,0,217.388,138.457Z"/><path d="M200.6,111.528c0,.52.01,1.03.04,1.54-.8-12.371-3.15-15.1-.58-19.08,2.55-3.91,5.54-2.37,13.99-7.49.24-.14.47-.291.7-.43A29.922,29.922,0,0,0,200.6,111.528Z"/><path d="M242.038,83.8a29.958,29.958,0,0,0-26.97,2.07c8.29-5.31,8.56-9.12,13.39-9.45C233.338,76.088,234.438,79.9,242.038,83.8Z"/><path d="M260.518,109.378a30.01,30.01,0,0,0-15.83-24.34c9.14,3.88,12.56,1.71,15.37,5.409C263.178,94.538,259.578,98,260.518,109.378Z"/><path d="M265.638,83.848a7.2,7.2,0,0,1-.51-.661A2.443,2.443,0,0,1,265.638,83.848Z"/><path d="M266.888,132.148a3.455,3.455,0,0,1-.8,1.049A10.471,10.471,0,0,1,266.888,132.148Z"/><path class="a" d="M314.168,145.388c-11.29,5.39-19.04,14.7-22.29,16.14H290.6v-3.38c1.64-5.82,8.58-16.62,16.22-16.62h.06C309.788,141.548,312.108,143.128,314.168,145.388Z"/><path d="M290.6,158.148v3.38C290.1,161.048,290.128,159.8,290.6,158.148Z"/><path d="M291.878,161.528c-.56.26-.99.28-1.28,0Z"/><path class="a" d="M311.068,98.947c-10.47-2.809-19.46-.1-20.02-2.209,0-.021-.01-.031-.01-.051s-.01-.039,0-.049c0-.03-.01-.06-.01-.09,0-2.06,8.61-3.24,18.06-9.56a23.26,23.26,0,0,1,1.51,4.54,9.973,9.973,0,0,0,.46,3.01A24.984,24.984,0,0,1,311.068,98.947Z"/><path d="M311.058,94.538a9.973,9.973,0,0,1-.46-3.01A21.3,21.3,0,0,1,311.058,94.538Z"/><path class="a" d="M317.848,79.488a44.677,44.677,0,0,1-4.55,4.36,45.9,45.9,0,0,1-4.21,3.14c-3.93-8.8-12.03-13.4-11.12-15.14a1.331,1.331,0,0,1,.2-.22C299.758,70.528,307.048,76.388,317.848,79.488Z"/><path d="M298.168,71.628a1.331,1.331,0,0,0-.2.22.251.251,0,0,1,.04-.07A.448.448,0,0,1,298.168,71.628Z"/><path class="a" d="M321.908,104.138c-7.5,4.789-13.13,14.36-15.2,13.01-1.87-1.23,3.58-8.681,4.36-18.2a34.224,34.224,0,0,1,5.45,1.971A29.379,29.379,0,0,1,321.908,104.138Z"/><path class="a" d="M347.948,145.848c-7.44,6.98-9.94,14.27-15.21,15.68h-3.87c-6.36-1.61-9.82-10.79-14.7-16.14a37.146,37.146,0,0,1,15.87-3.86h.24A41.81,41.81,0,0,1,347.948,145.848Z"/><path d="M332.738,161.528a7.379,7.379,0,0,1-2.03.24,7.98,7.98,0,0,1-1.84-.24Z"/><path class="a" d="M349.738,118.858a14.782,14.782,0,0,1-9.06,2.349c-8.32-.889-9.66-10.24-18.77-17.069a15.142,15.142,0,0,1,7.27-2.61h1.36C338.468,102.048,339.948,110.818,349.738,118.858Z"/><path class="a" d="M350.328,76.848c-6.33,2.56-12.64,4.4-19.62,4.47a44.775,44.775,0,0,1-12.86-1.83c8.23-9.08,8.68-17.25,14.89-17.96h1.59C340.458,62.238,344.588,71.158,350.328,76.848Z"/><path d="M334.328,61.528h-1.59A6.929,6.929,0,0,1,334.328,61.528Z"/><path class="a" d="M360.818,125.457a47.136,47.136,0,0,1-5.01-2.459c-.01,0-.02-.01-.03-.02-.17-.09-.35-.2-.53-.3a43.749,43.749,0,0,1-5.51-3.819c7.9-4.63,13.99-14.2,16.13-12.7C367.788,107.508,362.128,114.748,360.818,125.457Z"/><path class="a" d="M367.218,154.668c-2.27,2.38-9.22-4.13-19.27-8.82a42.432,42.432,0,0,1,6.98-5.31c.02-.01.03-.02.05-.02a9.284,9.284,0,0,0,1.29-.76.076.076,0,0,0,.04-.02,46.088,46.088,0,0,1,5.1-2.45C363.628,147,369.288,152.5,367.218,154.668Z"/><path d="M356.268,139.758a9.284,9.284,0,0,1-1.29.76C355.4,140.258,355.828,140.008,356.268,139.758Z"/><path class="a" d="M380.6,131.518v.01c-.01,2.189-8.74,1.48-19.19,5.76a33.45,33.45,0,0,1-.81-5.76,8.495,8.495,0,0,0-.04-.88v-.02a36.107,36.107,0,0,1,.26-5.171C371.558,129.967,380.6,129.308,380.6,131.518Z"/><path class="a" d="M380.6,61.528v1.63c-1.33,4.92-10.47,18.37-20.55,18.37h-.27c-3.75-.091-6.78-2.03-9.45-4.68,3.22-1.3,6.45-2.79,9.79-4.32,11.5-5.29,17.3-10.14,19.53-11Z"/><path d="M380.6,61.528h-.95C380.108,61.338,380.418,61.338,380.6,61.528Z"/><path d="M380.6,63.158v-1.63C380.828,61.778,380.818,62.358,380.6,63.158Z"/><path class="a" d="M407.948,149.088c-.44,6.1-4.91,12.2-8.11,11.92-3.26-.28-6.17-7.26-6.09-13.44.09-6.22,3.18-9.851,6.49-13.41C404.348,138.288,408.408,142.728,407.948,149.088Z"/><path class="a" d="M407.948,121.457c-1,5.771-4.46,9.2-7.71,12.7-4.27-4.3-8.59-8.27-8.01-13.711.68-6.329,7.23-7.709,13-12.849C407.338,111.677,408.848,116.268,407.948,121.457Z"/><path class="a" d="M413.448,87.6a26.95,26.95,0,0,1-2.46,12.31,23.444,23.444,0,0,1-5.76,7.69c-3.75-7.26-9.39-12.881-6.66-17.32C400.918,86.447,406.538,88.248,413.448,87.6Z"/><path class="a" d="M431.118,77.128a24.349,24.349,0,0,1-7.7,7.319,23.464,23.464,0,0,1-9.97,3.151c-.11-7.381-2.3-13.161,1.35-15.58C418.648,69.457,423.478,74.328,431.118,77.128Z"/><path class="a" d="M451.558,76.638a27,27,0,0,1-9.38,2.23,27.432,27.432,0,0,1-11.06-1.74c4.65-6.73,5.78-13.97,10.3-13.98C445.788,63.138,446.818,69.927,451.558,76.638Z"/><path class="a" d="M467.008,87.408a25.839,25.839,0,0,1-8.35-3.731,27.441,27.441,0,0,1-7.1-7.039c5.6-2.39,8.93-5.57,12.42-3.6C467.708,75.148,466.5,80.228,467.008,87.408Z"/><path class="a" d="M476.568,109.558a32.192,32.192,0,0,1-6.76-10.16,36.724,36.724,0,0,1-2.8-11.99c7.87,1.98,14.35.1,16.74,4.64C486.338,96.957,480.608,102.588,476.568,109.558Z"/><path class="a" d="M480.458,160.758c-3.17.28-8.09-7.19-7.86-14.46.18-5.63,3.39-9.06,6.62-12.25,3.09,3.419,6.24,6.76,6.56,13.02C486.1,153.4,483.408,160.488,480.458,160.758Z"/><path class="a" d="M486.038,122.728c-.08,4.959-3.46,8.01-6.82,11.32-2.5-2.76-4.97-5.591-5.86-10.06-1.08-5.41.75-10.17,3.21-14.43C481.438,114.6,486.128,116.828,486.038,122.728Z"/><path class="a" d="M421.008,111.118c-4.65,4.75-7.89,9.63-9.62,10.41h-.79c-1.8-1.27,2.05-12.311,6.73-12.62C418.818,108.808,419.918,109.828,421.008,111.118Z"/><path class="a" d="M410.6,121.528h.79A.768.768,0,0,1,410.6,121.528Z"/><path class="a" d="M457.308,109.028c-2.94,1.75-4.38,6.47-8.16,6.47-4.1,0-4.92-5.571-9.38-5.96-5.21-.45-7.27,6.85-12.42,6.47-3.01-.22-4.66-2.88-6.34-4.89,4.58-4.651,10.52-9.181,17.74-9.59h2.1C447.058,101.868,452.668,105.177,457.308,109.028Z"/><path class="a" d="M440.848,101.528h-2.1A18.389,18.389,0,0,1,440.848,101.528Z"/><path class="a" d="M470.6,121.528a.463.463,0,0,1-.51,0c-1.7-.75-6.29-7.14-12.78-12.5a4.263,4.263,0,0,1,1.85-.63C465.308,107.808,471.918,120.378,470.6,121.528Z"/><path class="a" d="M520.518,151.878c-.56,4.71-5.31,9.36-9.81,9.65h-.84c-4.34-.27-8.7-4.95-9.13-9.65-.52-5.61,4.72-9.58,9.94-13.52C515.938,142.4,521.168,146.4,520.518,151.878Z"/><path d="M520.6,61.528a85.667,85.667,0,0,0-9.99,4.929,81.458,81.458,0,0,0-10.01-4.929Z"/><path class="a" d="M520.6,78.358v.04c0,4.87-4.93,8.37-9.9,11.89-4.37-2.91-8.81-5.77-10.1-9.56v-4.48c.97-2.95,3.94-6.23,10.01-9.791C516.828,70.148,520.568,74.128,520.6,78.358Z"/><path d="M500.6,76.248v4.48a6.791,6.791,0,0,1-.37-2.12A7.429,7.429,0,0,1,500.6,76.248Z"/><path class="a" d="M520.6,101.937v.01c0,5.141-5.37,8.371-10.54,11.77-4.77-3.079-9.36-6.2-9.46-11.02v-.159c0-5.081,5.07-8.68,10.1-12.25C515.7,93.618,520.6,97.018,520.6,101.937Z"/><path class="a" d="M520.6,125.518v.25c0,5.1-4.96,8.84-9.92,12.59-4.87-3.74-9.78-7.52-10.08-12.54v-.81c.19-4.96,4.74-8.2,9.46-11.291C515.148,117.008,520.438,120.258,520.6,125.518Z"/><path class="a" d="M629.588,101.528H622c-6.18-1.43-14.82-5.22-20.86-12.27-4.74-5.52-6.75-11.72-8.06-16.78,3.16,1.69,7.04,4.66,14.39,10.44,13.68,10.769,21.14,16.65,22.05,18.259v.01C629.538,101.3,629.568,101.418,629.588,101.528Z"/><path d="M551.568,137.957c-5.37,1.341-9.75,3.311-11.96,2.2-.44-.63-.86-1.27-1.28-1.92-.16-2.34,2.81-5.7,5.89-10.42A40.084,40.084,0,0,0,551.568,137.957Z"/><path d="M539.608,140.158a2.25,2.25,0,0,1-.84-.7,2.29,2.29,0,0,1-.44-1.219C538.748,138.888,539.168,139.528,539.608,140.158Z"/><path class="a" d="M550.778,108.238a29.816,29.816,0,0,0-.18,3.29,36.849,36.849,0,0,1-6.38,16.29c-3.41-6.68-4.93-14.24-3.68-21.32.95-5.39,3.36-9.67,6.59-14.12A40.018,40.018,0,0,1,550.778,108.238Z"/><path d="M550.778,108.238a28.377,28.377,0,0,1-.18,3.29A29.816,29.816,0,0,1,550.778,108.238Z"/><path d="M555.348,81.908c-1.33,1.539-2.6,3.15-3.9,4.82-1.55,1.969-3.01,3.83-4.32,5.65-2.77-6.54-5.88-11.25-4.33-13.56a.423.423,0,0,1,.05-.07c.1-.11.2-.22.29-.33l.02-.02C545.338,76.388,549.828,79.467,555.348,81.908Z"/><path class="a" d="M577.768,147.858c-5.93.12-11.53-.5-17.2-3.33a34.536,34.536,0,0,1-9-6.571c4.62-1.159,9.97-1.849,15.32.26a.6.6,0,0,1,.11.051c.63.32,1.27.62,1.93.9A24.969,24.969,0,0,1,577.768,147.858Z"/><path d="M568.928,139.168c-.66-.28-1.3-.58-1.93-.9A18.971,18.971,0,0,1,568.928,139.168Z"/><path class="a" d="M582.2,69.8c-2.38,4.78-5.38,10.52-10.74,13.149-.89.281-1.76.611-2.6.971-4.73,1.25-9.4-.2-13.51-2.01a33.069,33.069,0,0,1,11.81-9.13A34.652,34.652,0,0,1,582.2,69.8Z"/><path d="M571.458,82.947a12.769,12.769,0,0,1-1.76.73,8.548,8.548,0,0,1-.84.241C569.7,83.558,570.568,83.228,571.458,82.947Z"/><path d="M593.848,146.528c-2.5,7.55-2.74,13.77-6.15,14.23-3.66.49-5.68-6.39-9.93-12.9,2.88-.06,5.84-.3,8.91-.54C588.718,147.158,591.138,146.957,593.848,146.528Z"/><path d="M593.078,72.478a19.6,19.6,0,0,0-5.38-1.98,30.342,30.342,0,0,0-5.5-.7c2.14-4.3,3.77-7.831,6.16-7.66.03,0,.07.01.1.01a2.5,2.5,0,0,1,.29.049C591.1,62.778,591.678,66.967,593.078,72.478Z"/><path d="M629.588,101.528c-.02-.11-.05-.23-.07-.341C629.608,101.338,629.628,101.457,629.588,101.528Z"/><path class="a" d="M629.588,121.528c-.25,1.24-.55,2.46-.89,3.659-2.81,4.661-10.76,12.071-19.71,16.551a51.84,51.84,0,0,1-15.14,4.79,36.732,36.732,0,0,1,7.3-13.14c.02-.03.05-.05.07-.08a25.887,25.887,0,0,0,1.85-1.91.435.435,0,0,1,.06-.07,42.324,42.324,0,0,1,17.44-9.8Z"/><path d="M603.068,131.4a25.887,25.887,0,0,1-1.85,1.91C601.818,132.638,602.428,132,603.068,131.4Z"/></svg>