<svg xmlns="http://www.w3.org/2000/svg" viewBox="0 0 790 165.246"><defs><style>.cls-1{fill:#366ce1;}.cls-2{fill:#121221;}</style></defs><title>municode</title><g id="Слой_2" data-name="Слой 2"><g id="Work_space" data-name="Work space"><g id="municode"><path class="cls-1" d="M454.81,132.106q6.255,8.22,12.49,16.43a50,50,0,1,1,0-66.58q-6.24,8.22-12.49,16.431a30,30,0,1,0,0,33.719Z"/><path class="cls-1" d="M520,65.246a50,50,0,1,0,50,50A50.006,50.006,0,0,0,520,65.246Zm0,80a30,30,0,1,1,30-30A30,30,0,0,1,520,145.246Z"/><path class="cls-2" d="M120,100.246v65H100v-65a15,15,0,1,0-30,0h0v65H50v-65h0a15,15,0,1,0-30,0v65H0v-65a35.79,35.79,0,0,1,.35-5A35.011,35.011,0,0,1,60,75.746a35.011,35.011,0,0,1,59.65,19.5A35.79,35.79,0,0,1,120,100.246Z"/><path class="cls-1" d="M660,25.246v50.01a49.993,49.993,0,1,0,20,39.99v-90Zm-30,120a30,30,0,1,1,30-30A30,30,0,0,1,630,145.246Z"/><rect class="cls-2" x="350" y="65.246" width="20" height="100"/><path class="cls-1" d="M788.99,125.246a50.01,50.01,0,0,0,0-20,50,50,0,0,0-97.98,0,50.01,50.01,0,0,0,0,20,49.987,49.987,0,0,0,82.67,26.94q-7.965-6.375-15.94-12.75a29.992,29.992,0,0,1-46.02-14.19Zm-48.99-40a29.979,29.979,0,0,1,28.28,20H711.72A29.979,29.979,0,0,1,740,85.246Z"/><path class="cls-2" d="M340,115.246v50H320v-50a30,30,0,1,0-60,0v50H240v-50a50,50,0,1,1,100,0Z"/><path class="cls-2" d="M130,115.246v-50h20v50a30,30,0,1,0,60,0v-50h20v50a50,50,0,1,1-100,0Z"/><polygon class="cls-1" points="360 0 367.082 21.796 390 21.796 371.459 35.267 378.541 57.063 360 43.593 341.459 57.063 348.541 35.267 330 21.796 352.918 21.796 360 0"/></g></g></g></svg>