<svg id="Main" xmlns="http://www.w3.org/2000/svg" viewBox="0 0 170 320"><defs><style>.cls-1{fill:#366ce1;}.cls-2{fill:#121221;}</style></defs><title>nat</title><g id="Nat"><rect class="cls-1" x="80" y="90" width="10" height="10"/><rect class="cls-1" x="100" y="90" width="10" height="10"/><rect class="cls-1" x="100" y="80" width="10" height="10"/><rect class="cls-1" x="100" y="70" width="10" height="10"/><rect class="cls-1" x="100" y="50" width="10" height="10"/><rect class="cls-1" x="80" y="40" width="10" height="10"/><rect class="cls-1" x="90" y="30" width="10" height="10"/><rect class="cls-1" x="100" y="10" width="10" height="10"/><rect class="cls-1" x="110" y="20" width="10" height="10"/><rect class="cls-1" x="120" y="10" width="10" height="10"/><rect class="cls-1" x="140" y="20" width="10" height="10"/><rect class="cls-1" x="150" y="30" width="10" height="10"/><rect class="cls-1" x="140" y="50" width="10" height="10"/><rect class="cls-1" x="150" y="50" width="10" height="10"/><rect class="cls-1" x="160" y="60" width="10" height="10"/><rect class="cls-1" x="150" y="10" width="10" height="10"/><rect class="cls-1" x="150" y="70" width="10" height="10"/><rect class="cls-1" x="140" y="80" width="10" height="10"/><rect class="cls-1" x="140" y="60" width="10" height="10"/><rect class="cls-1" x="160" y="90" width="10" height="10"/><rect class="cls-1" x="160" y="80" width="10" height="10"/><rect class="cls-1" x="140" y="90" width="10" height="10"/><rect class="cls-1" x="80" width="10" height="10"/><rect class="cls-1" x="80" y="60" width="10" height="10"/><rect class="cls-1" x="90" y="70" width="10" height="10"/><rect class="cls-1" x="80" y="80" width="10" height="10"/><rect class="cls-1" y="220" width="10" height="10"/><rect class="cls-1" x="20" y="220" width="10" height="10"/><rect class="cls-1" x="20" y="230" width="10" height="10"/><rect class="cls-1" x="20" y="240" width="10" height="10"/><rect class="cls-1" x="20" y="260" width="10" height="10"/><rect class="cls-1" y="270" width="10" height="10"/><rect class="cls-1" x="10" y="280" width="10" height="10"/><rect class="cls-1" x="20" y="300" width="10" height="10"/><rect class="cls-1" x="30" y="290" width="10" height="10"/><rect class="cls-1" x="40" y="300" width="10" height="10"/><rect class="cls-1" x="60" y="290" width="10" height="10"/><rect class="cls-1" x="70" y="280" width="10" height="10"/><rect class="cls-1" x="60" y="260" width="10" height="10"/><rect class="cls-1" x="70" y="260" width="10" height="10"/><rect class="cls-1" x="80" y="250" width="10" height="10"/><rect class="cls-1" x="70" y="300" width="10" height="10"/><rect class="cls-1" x="70" y="240" width="10" height="10"/><rect class="cls-1" x="60" y="230" width="10" height="10"/><rect class="cls-1" x="60" y="250" width="10" height="10"/><rect class="cls-1" x="80" y="220" width="10" height="10"/><rect class="cls-1" x="80" y="230" width="10" height="10"/><rect class="cls-1" x="60" y="220" width="10" height="10"/><rect class="cls-1" y="310" width="10" height="10"/><rect class="cls-1" y="250" width="10" height="10"/><rect class="cls-1" x="10" y="240" width="10" height="10"/><rect class="cls-1" y="230" width="10" height="10"/><rect class="cls-2" x="40" y="120" width="10" height="80"/><rect class="cls-2" x="120" y="120" width="10" height="80"/><ellipse class="cls-2" cx="500" cy="500" rx="9.977" ry="75.17" transform="translate(-620.484 207.88) rotate(-48.883)"/><path class="cls-2" d="M465,510h40V500H455Z" transform="translate(-415 -340)"/><path class="cls-2" d="M505,500h40V490H495Z" transform="translate(-415 -340)"/><rect class="cls-2" x="80" y="110" width="90" height="10"/><rect class="cls-2" y="200" width="90" height="10"/></g></svg>