<svg xmlns="http://www.w3.org/2000/svg" viewBox="0 0 520 100"><defs><style>.cls-1{fill:#121221;}</style></defs><title>nauto</title><g id="Слой_2" data-name="Слой 2"><g id="Work_space" data-name="Work space"><g id="nauto"><polygon class="cls-1" points="100 0 100 100 80 100 20 30.59 20 100 0 100 0 0 20 0 80 69.41 80 0 100 0"/><path class="cls-1" d="M470,0a50,50,0,1,0,50,50A50.005,50.005,0,0,0,470,0Zm0,80a30,30,0,1,1,30-30A30,30,0,0,1,470,80Z"/><path class="cls-1" d="M170.77,1.95,169.99,0H150.01l-.78,1.94L110,100h21.55l11.2-28h34.5l11.2,28H210ZM150.75,52,160,28.87,169.25,52Z"/><polygon class="cls-1" points="420 0 420 20 380 20 380 100 360 100 360 20 320 20 320 0 420 0"/><path class="cls-1" d="M310,0V50a50,50,0,0,1-100,0V0h20V50a30,30,0,0,0,60,0V0Z"/></g></g></g></svg>