<svg xmlns="http://www.w3.org/2000/svg" viewBox="0 0 430 212.615"><defs><style>.cls-1{fill:#121221;}</style></defs><title>nestlabs</title><g id="Слой_2" data-name="Слой 2"><g id="Work_space" data-name="Work space"><g id="nestlabs"><polygon class="cls-1" points="121.697 10 121.697 45 211.697 45 211.697 55 121.697 55 121.697 90 211.697 90 211.697 100 111.697 100 111.697 0 211.697 0 211.697 10 121.697 10"/><path class="cls-1" d="M189.72,167.615l-4.51-10-19.71-43.73.01-.01-.49-1.08h-.01l-.08-.18h-9.84l-.08.18v.02l-.47,1.05h-.01l-19.72,43.75-4.51,10-20.28,45h10.97l20.28-45h37.48l20.28,45H210Zm-19.71-2.96-.02-.04h.02Zm-24.23-7.04,14.23-31.58,14.24,31.58Z"/><polygon class="cls-1" points="100 202.615 100 212.615 0 212.615 0 112.615 10 112.615 10 202.615 100 202.615"/><path class="cls-1" d="M340,140.115a17.506,17.506,0,0,0,17.5,17.5h45a27.5,27.5,0,0,1,7.5,53.95,26.911,26.911,0,0,1-7.5,1.05H330v-10h72.5a17.5,17.5,0,0,0,0-35h-45a27.5,27.5,0,0,1-7.5-53.95,26.911,26.911,0,0,1,7.5-1.05H430v10H357.5A17.506,17.506,0,0,0,340,140.115Z"/><path class="cls-1" d="M231.7,27.5A17.506,17.506,0,0,0,249.2,45h45a27.5,27.5,0,0,1,7.5,53.95,26.911,26.911,0,0,1-7.5,1.05H221.7V90h72.5a17.5,17.5,0,0,0,0-35h-45a27.5,27.5,0,0,1-7.5-53.95A26.911,26.911,0,0,1,249.2,0h72.5V10H249.2A17.506,17.506,0,0,0,231.7,27.5Z"/><polygon class="cls-1" points="430 0 430 10 385 10 385 100 375 100 375 10 330 10 330 0 430 0"/><polygon class="cls-1" points="101.697 0 101.697 100 91.767 100 91.697 99.92 11.697 14.59 11.697 100 1.697 100 1.697 0 11.717 0 91.697 85.3 91.697 0 101.697 0"/><path class="cls-1" d="M308.31,162.615a27.493,27.493,0,0,0-8.31-48.95,26.911,26.911,0,0,0-7.5-1.05H220v100h72.5a26.911,26.911,0,0,0,7.5-1.05,27.483,27.483,0,0,0,8.31-48.95Zm-78.31-40h62.5a17.5,17.5,0,0,1,0,35H230Zm62.5,80H230v-35h62.5a17.5,17.5,0,0,1,0,35Z"/></g></g></g></svg>