<svg id="Main" xmlns="http://www.w3.org/2000/svg" viewBox="0 0 210 250"><defs><style>.cls-1{fill:#4c6cdd;}.cls-2{fill:#121221;}</style></defs><title>netbios</title><g id="NetBios"><path class="cls-1" d="M525,495v30h40V495Zm0,0v30h40V495Zm0-30v20h20V465Zm0,30v30h40V495Zm0,0v30h40V495Zm0-30v20h20V465Zm0,0v20h20V465Zm0,30v30h40V495Zm0,0v30h40V495Zm0-30v20h20V465Zm0,0v20h20V465Zm0,30v30h40V495Zm0,0v30h40V495Zm20-30H525v20h20ZM395,395V605H605V395Zm80,140V525H465V505H455V495H445V485H435v50H415V455h20v10h10v20h10v10h10v10h10V455h20v80Zm110,0H505V455h40v10h10v20h20v10h10Zm-60-10h40V495H525Zm0-40h20V465H525Zm0-20v20h20V465Zm0,30v30h40V495Zm0,0v30h40V495Zm0-30v20h20V465Zm0,0v20h20V465Zm0,30v30h40V495Zm0,0v30h40V495Zm0-30v20h20V465Zm0,0v20h20V465Zm0,30v30h40V495Zm0,0v30h40V495Zm0-30v20h20V465Z" transform="translate(-395 -375)"/><rect class="cls-2" x="20" y="210" width="10" height="40"/><rect class="cls-2" x="40" y="210" width="10" height="40"/><rect class="cls-2" x="60" y="210" width="10" height="40"/><rect class="cls-2" x="80" y="210" width="10" height="40"/><rect class="cls-2" x="100" y="210" width="10" height="40"/><rect class="cls-2" x="120" y="210" width="10" height="40"/><rect class="cls-2" x="140" y="210" width="10" height="40"/><rect class="cls-2" x="160" y="210" width="10" height="40"/><rect class="cls-2" x="180" y="210" width="10" height="40"/><rect class="cls-2" x="20" width="10" height="40"/><rect class="cls-2" x="40" width="10" height="40"/><rect class="cls-2" x="60" width="10" height="40"/><rect class="cls-2" x="80" width="10" height="40"/><rect class="cls-2" x="100" width="10" height="40"/><rect class="cls-2" x="120" width="10" height="40"/><rect class="cls-2" x="140" width="10" height="40"/><rect class="cls-2" x="160" width="10" height="40"/><rect class="cls-2" x="180" width="10" height="40"/><rect class="cls-2" x="30" y="80" width="10" height="80"/><rect class="cls-2" x="80" y="80" width="10" height="80"/><rect class="cls-2" x="40" y="90" width="10" height="20"/><rect class="cls-2" x="70" y="130" width="10" height="20"/><path class="cls-2" d="M555,485V465H545v20H525V465h20V455H515v80h60V485Zm10,40H525V495h40Z" transform="translate(-395 -375)"/></g></svg>