<svg xmlns="http://www.w3.org/2000/svg" viewBox="0 0 840 220"><defs><style>.cls-1{fill:#366ce1;}.cls-2{fill:#121221;}</style></defs><title>netflow analyzer</title><g id="Слой_2" data-name="Слой 2"><g id="Work_space" data-name="Work space"><g id="netflow_analyzer" data-name="netflow analyzer"><polygon class="cls-1" points="210 120 210 220 190 220 130 150.59 130 220 110 220 110 120 130 120 190 189.41 190 120 210 120"/><polygon class="cls-1" points="520 120 620 120 620 140 550.59 200 620 200 620 220 520 220 520 200 589.41 140 520 140 520 120"/><polygon class="cls-1" points="650 140 650 160 730 160 730 180 650 180 650 200 730 200 730 220 630 220 630 120 730 120 730 140 650 140"/><polygon class="cls-1" points="430 200 430 220 330 220 330 120 350 120 350 200 430 200"/><path class="cls-1" d="M840,150a30,30,0,0,0-30-30H740V220h20V180h50a10,10,0,0,1,10,10v30h20V190a29.862,29.862,0,0,0-7.65-20A29.862,29.862,0,0,0,840,150Zm-80,10V140h50a10,10,0,0,1,0,20Z"/><path class="cls-1" d="M60.77,121.95,59.99,120H40.01l-.78,1.94L0,220H21.55l11.2-28h34.5l11.2,28H100ZM40.75,172,50,148.87,59.25,172Z"/><path class="cls-1" d="M280.77,121.95l-.78-1.95H260.01l-.78,1.94L220,220h21.55l11.2-28h34.5l11.2,28H320ZM260.75,172,270,148.87,279.25,172Z"/><polygon class="cls-1" points="472.78 166.46 469.95 170 470 170 470 220 450 220 450 170 447.17 166.46 410 120 435.61 120 459.97 150.45 484.33 120 509.95 120 472.78 166.46"/><polygon class="cls-2" points="350 20 350 40 410 40 410 60 350 60 350 100 330 100 330 0 430 0 430 20 350 20"/><polygon class="cls-2" points="100 0 100 100 80 100 20 30.59 20 100 0 100 0 0 20 0 80 69.41 80 0 100 0"/><polygon class="cls-2" points="130 20 130 40 210 40 210 60 130 60 130 80 210 80 210 100 110 100 110 0 210 0 210 20 130 20"/><polygon class="cls-2" points="540 80 540 100 440 100 440 0 460 0 460 80 540 80"/><path class="cls-2" d="M600,0a50,50,0,1,0,50,50A50.005,50.005,0,0,0,600,0Zm0,80a30,30,0,1,1,30-30A30,30,0,0,1,600,80Z"/><polygon class="cls-2" points="320 0 320 20 280 20 280 100 260 100 260 20 220 20 220 0 320 0"/><path class="cls-2" d="M749.38,0,734.92,57.86,720.36,1.15,720.06,0H705.15l-.03.11V0H700l-.29,1.16L685.17,57.75,670.74,0H650.12V.02l24.61,98.41.39,1.57h19.86l.38-1.5,14.67-57.13,14.7,57.24.35,1.39h15.03l.01-.04V100h4.87l.37-1.46L770,0ZM730.12,50.99v.04l-.02-.04Zm0,47.53-.19.61.19-.64Z"/><polygon class="cls-2" points="730.12 51.03 730.1 50.99 730.12 50.99 730.12 51.03"/><polygon class="cls-2" points="730.12 98.52 729.93 99.13 730.12 98.49 730.12 98.52"/><polygon class="cls-2" points="730.12 98.52 729.93 99.13 730.12 98.49 730.12 98.52"/></g></g></g></svg>