<svg xmlns="http://www.w3.org/2000/svg" viewBox="0 0 848.303 100"><defs><style>.cls-1{fill:#121221;}</style></defs><title>netscope</title><g id="Слой_2" data-name="Слой 2"><g id="Work_space" data-name="Work space"><g id="netscope"><path class="cls-1" d="M516.583,78.28l7.07,7.07a50,50,0,1,1,0-70.7l-7.07,7.07a40,40,0,1,0,0,56.56Z"/><polygon class="cls-1" points="758.303 10 758.303 45 848.303 45 848.303 55 758.303 55 758.303 90 848.303 90 848.303 100 748.303 100 748.303 0 848.303 0 848.303 10 758.303 10"/><polygon class="cls-1" points="120 10 120 45 210 45 210 55 120 55 120 90 210 90 210 100 110 100 110 0 210 0 210 10 120 10"/><path class="cls-1" d="M578.3,0a50,50,0,1,0,50,50A50.005,50.005,0,0,0,578.3,0Zm0,90a40,40,0,1,1,40-40A40,40,0,0,1,578.3,90Z"/><path class="cls-1" d="M708.3,0h-70V100h10V60h60a30,30,0,0,0,0-60Zm0,50h-60V10h60a20,20,0,0,1,0,40Z"/><path class="cls-1" d="M340,27.5A17.506,17.506,0,0,0,357.5,45h45A27.5,27.5,0,0,1,410,98.95a26.911,26.911,0,0,1-7.5,1.05H330V90h72.5a17.5,17.5,0,0,0,0-35h-45A27.5,27.5,0,0,1,350,1.05,26.911,26.911,0,0,1,357.5,0H430V10H357.5A17.506,17.506,0,0,0,340,27.5Z"/><polygon class="cls-1" points="320 0 320 10 275 10 275 100 265 100 265 10 220 10 220 0 320 0"/><polygon class="cls-1" points="100 0 100 100 90.07 100 90 99.92 10 14.59 10 100 0 100 0 0 10.02 0 90 85.3 90 0 100 0"/></g></g></g></svg>