<svg xmlns="http://www.w3.org/2000/svg" viewBox="0 0 531.316 400.909"><defs><style>.cls-1{fill:#121221;}.cls-2,.cls-3,.cls-4{fill:#366ce1;}.cls-2{opacity:0.99;}.cls-3{opacity:0.33;}.cls-4{opacity:0.66;}</style></defs><title>network configuration systems</title><g id="Слой_2" data-name="Слой 2"><g id="Work_space" data-name="Work space"><g id="network_configuration_systems" data-name="network configuration systems"><polygon class="cls-1" points="84.524 258.589 84.524 323.28 71.585 323.28 32.771 278.378 32.771 323.28 19.833 323.28 19.833 258.589 32.771 258.589 71.585 303.491 71.585 258.589 84.524 258.589"/><polygon class="cls-1" points="103.931 271.527 103.931 284.466 155.684 284.466 155.684 297.404 103.931 297.404 103.931 310.342 155.684 310.342 155.684 323.28 90.993 323.28 90.993 258.589 155.684 258.589 155.684 271.527 103.931 271.527"/><path class="cls-1" d="M440.323,278a19.406,19.406,0,0,0-19.407-19.408H375.632V323.28H388.57V297.4h32.346a6.471,6.471,0,0,1,6.469,6.469V323.28h12.938V303.873a19.315,19.315,0,0,0-4.949-12.938A19.315,19.315,0,0,0,440.323,278Zm-51.753,6.469V271.527h32.346a6.47,6.47,0,0,1,0,12.939Z"/><path class="cls-1" d="M343.287,258.589a32.346,32.346,0,1,0,32.345,32.346A32.35,32.35,0,0,0,343.287,258.589Zm0,51.753a19.408,19.408,0,1,1,19.407-19.407A19.406,19.406,0,0,1,343.287,310.342Z"/><polygon class="cls-1" points="511.483 323.274 511.483 323.28 492.16 323.28 465.882 299.623 459.73 305.167 459.73 323.28 446.792 323.28 446.792 258.589 459.73 258.589 459.73 287.758 465.882 282.214 492.121 258.589 511.464 258.589 475.554 290.922 511.483 323.274"/><polygon class="cls-1" points="226.843 258.589 226.843 271.527 200.967 271.527 200.967 323.28 188.029 323.28 188.029 271.527 162.153 271.527 162.153 258.589 226.843 258.589"/><path class="cls-1" d="M297.6,258.589l-9.354,37.43-9.419-36.686-.194-.744h-9.646l-.019.071v-.071h-3.312l-.188.751-9.406,36.608-9.335-37.359H233.39v.013l15.921,63.662.252,1.016H262.41l.246-.97,9.49-36.958,9.51,37.029.226.9h9.723l.007-.026v.026h3.15l.24-.944,15.939-63.747Zm-12.459,32.986v.026l-.013-.026Zm0,30.748-.123.394.123-.414Z"/><polygon class="cls-1" points="285.143 291.601 285.13 291.575 285.143 291.575 285.143 291.601"/><polygon class="cls-1" points="285.143 322.323 285.02 322.717 285.143 322.303 285.143 322.323"/><polygon class="cls-1" points="285.143 322.323 285.02 322.717 285.143 322.303 285.143 322.323"/><polygon class="cls-1" points="139.522 337.745 139.522 345.741 163.51 345.741 163.51 353.737 139.522 353.737 139.522 369.728 131.527 369.728 131.527 329.749 171.506 329.749 171.506 337.745 139.522 337.745"/><polygon class="cls-1" points="127.529 329.749 127.529 369.728 119.533 369.728 95.546 341.979 95.546 369.728 87.55 369.728 87.55 329.749 95.546 329.749 119.533 357.499 119.533 329.749 127.529 329.749"/><polygon class="cls-1" points="531.316 329.749 531.316 369.728 523.32 369.728 499.333 341.979 499.333 369.728 491.337 369.728 491.337 329.749 499.333 329.749 523.32 357.499 523.32 329.749 531.316 329.749"/><path class="cls-1" d="M291.442,329.749v19.99a19.99,19.99,0,0,1-39.979,0v-19.99h8v19.99a11.994,11.994,0,0,0,23.988,0v-19.99Z"/><path class="cls-1" d="M335.419,341.743a11.993,11.993,0,0,0-11.994-11.994H295.44v39.979h8V353.737h19.989a4,4,0,0,1,4,4v11.994h8V357.734a11.937,11.937,0,0,0-3.058-8A11.94,11.94,0,0,0,335.419,341.743Zm-31.983,4v-8h19.989a4,4,0,0,1,0,8Z"/><path class="cls-1" d="M63.562,329.749a19.99,19.99,0,1,0,19.99,19.99A19.991,19.991,0,0,0,63.562,329.749Zm0,31.983a11.994,11.994,0,1,1,11.994-11.993A11.992,11.992,0,0,1,63.562,361.732Z"/><path class="cls-1" d="M467.35,329.749a19.99,19.99,0,1,0,19.989,19.99A19.992,19.992,0,0,0,467.35,329.749Zm0,31.983a11.994,11.994,0,1,1,11.993-11.993A11.993,11.993,0,0,1,467.35,361.732Z"/><path class="cls-1" d="M31.3,353.737h8.279a19.99,19.99,0,1,1,0-8H31.3a11.993,11.993,0,1,0,0,8Z"/><path class="cls-1" d="M363.712,330.529l-.312-.78h-7.987l-.312.776-15.684,39.2h8.615l4.478-11.194H366.3l4.477,11.194H379.4Zm-8,20.009,3.7-9.247,3.7,9.247Z"/><path class="cls-1" d="M247.465,345.741v4a19.652,19.652,0,0,1-.4,4,19.995,19.995,0,1,1-5.453-18.131l-5.653,5.653a11.993,11.993,0,1,0,2.826,12.478H227.476v-8Z"/><polygon class="cls-1" points="411.379 329.749 411.379 337.745 395.387 337.745 395.387 369.728 387.392 369.728 387.392 337.745 371.4 337.745 371.4 329.749 411.379 329.749"/><polygon class="cls-1" points="195.493 337.745 195.493 361.732 207.487 361.732 207.487 369.728 175.503 369.728 175.503 361.732 187.497 361.732 187.497 337.745 175.503 337.745 175.503 329.749 207.487 329.749 207.487 337.745 195.493 337.745"/><polygon class="cls-1" points="435.366 337.745 435.366 361.732 447.36 361.732 447.36 369.728 415.377 369.728 415.377 361.732 427.371 361.732 427.371 337.745 415.377 337.745 415.377 329.749 447.36 329.749 447.36 337.745 435.366 337.745"/><path class="cls-1" d="M308.479,391.024H313.6a12.356,12.356,0,1,1,0-4.942h-5.117a7.414,7.414,0,1,0,0,4.942Z"/><path class="cls-1" d="M168.046,383.611a2.472,2.472,0,0,0,2.471,2.471H180.4a7.414,7.414,0,0,1,0,14.827H163.1v-4.942h17.3a2.472,2.472,0,0,0,0-4.943h-9.885a7.414,7.414,0,0,1,0-14.827h17.3v4.943h-17.3A2.472,2.472,0,0,0,168.046,383.611Z"/><path class="cls-1" d="M348.443,383.611a2.472,2.472,0,0,0,2.471,2.471H360.8a7.414,7.414,0,0,1,0,14.827H343.5v-4.942h17.3a2.472,2.472,0,0,0,0-4.943h-9.885a7.414,7.414,0,1,1,0-14.827h17.3v4.943h-17.3A2.472,2.472,0,0,0,348.443,383.611Z"/><polygon class="cls-1" points="195.229 381.14 195.229 386.082 214.999 386.082 214.999 391.024 195.229 391.024 195.229 395.967 214.999 395.967 214.999 400.909 190.287 400.909 190.287 376.197 214.999 376.197 214.999 381.14 195.229 381.14"/><polygon class="cls-1" points="321.26 381.14 321.26 386.082 341.029 386.082 341.029 391.024 321.26 391.024 321.26 395.967 341.029 395.967 341.029 400.909 316.317 400.909 316.317 376.197 341.029 376.197 341.029 381.14 321.26 381.14"/><path class="cls-1" d="M242.182,383.611a7.414,7.414,0,0,0-7.414-7.414h-17.3v24.712h4.942v-9.885h12.356a2.472,2.472,0,0,1,2.471,2.472v7.413h4.943V393.5a7.382,7.382,0,0,0-1.891-4.943A7.38,7.38,0,0,0,242.182,383.611Zm-19.77,2.471V381.14h12.356a2.471,2.471,0,1,1,0,4.942Z"/><polygon class="cls-1" points="281.721 381.14 281.721 395.967 289.134 395.967 289.134 400.909 269.365 400.909 269.365 395.967 276.778 395.967 276.778 381.14 269.365 381.14 269.365 376.197 289.134 376.197 289.134 381.14 281.721 381.14"/><polygon class="cls-1" points="266.889 376.197 257.197 400.432 257.006 400.909 252.064 400.909 251.874 400.432 242.182 376.197 247.505 376.197 254.535 393.777 261.568 376.197 266.889 376.197"/><path class="cls-1" d="M344.067,172.5a78.321,78.321,0,1,1-1.568-15.682A78.454,78.454,0,0,1,344.067,172.5Z"/><path class="cls-1" d="M249.976,64.3V15.682a15.682,15.682,0,1,1,31.364,0V64.3a79.2,79.2,0,0,0-31.364,0Z"/><path class="cls-1" d="M93.158,172.5a15.688,15.688,0,0,1,15.682-15.682h48.613a79.2,79.2,0,0,0,0,31.364H108.84A15.688,15.688,0,0,1,93.158,172.5Z"/><path class="cls-1" d="M375.431,172.5a78.381,78.381,0,0,0-1.569-15.682h48.614a15.682,15.682,0,1,1,0,31.364H373.862A78.381,78.381,0,0,0,375.431,172.5Z"/><path class="cls-2" d="M249.976,64.3V15.682a15.682,15.682,0,1,1,31.364,0V64.3a79.2,79.2,0,0,0-31.364,0Z"/><path class="cls-3" d="M93.158,172.5a15.688,15.688,0,0,1,15.682-15.682h48.613a79.2,79.2,0,0,0,0,31.364H108.84A15.688,15.688,0,0,1,93.158,172.5Z"/><path class="cls-4" d="M375.431,172.5a78.381,78.381,0,0,0-1.569-15.682h48.614a15.682,15.682,0,1,1,0,31.364H373.862A78.381,78.381,0,0,0,375.431,172.5Z"/><path class="cls-3" d="M188.817,188.182a79.2,79.2,0,1,0-1.568-15.682A78.436,78.436,0,0,0,188.817,188.182Zm76.841-62.727A47.045,47.045,0,1,1,218.612,172.5,47.062,47.062,0,0,1,265.658,125.455Z"/><path class="cls-4" d="M265.658,219.545A47.045,47.045,0,1,0,218.612,172.5,47.062,47.062,0,0,0,265.658,219.545Zm0-62.727A15.682,15.682,0,1,1,249.976,172.5,15.688,15.688,0,0,1,265.658,156.818Z"/><circle class="cls-2" cx="265.658" cy="172.5" r="15.682"/></g></g></g></svg>