<svg id="Complete" xmlns="http://www.w3.org/2000/svg" viewBox="0 0 936.033 924.92"><defs><style>.cls-1{fill:#e1dfdf;}.cls-2{fill:#121221;}</style></defs><title>neural designer</title><g id="neural_designer" data-name="neural designer"><circle class="cls-1" cx="468.016" cy="416.775" r="172.901"/><path class="cls-2" d="M452.521,606.915c-4.193-6.652,3.954-12.406,6.761-35.492,1.389-11.425,2.418-20.958-2.874-29.831-3.237-5.429-8.2-8.6-18-14.705-1.118-.7-2.182-1.339-3.331-1.994a196.713,196.713,0,0,0-25.063-11.949c-14.349-5.757-21.523-8.636-23.408-8.789-16.189-1.318-22.442,9.4-32.789,5.07-6.534-2.734-11.849-10.275-10.479-15.549,2.177-8.383,21.264-11.109,34.479-10.479,30,1.431,45.981,20.927,51.211,15.8,5.147-5.042-7.213-26.99-14.2-35.239-8.684-10.259-12.928-9.449-26.113-23.071-6.587-6.805-12.954-13.483-18.253-23.831-4.227-8.253-10.371-20.25-7.606-34.479,2.018-10.38,9.578-26.069,20.282-25.859,6.607.13,13.648,6.3,14.958,13.183,1.756,9.228-8.028,13.273-9.634,23.324-3.319,20.767,31.84,44.842,35.746,41.578,1.914-1.6-5.162-8.511-7.605-24.845a61.3,61.3,0,0,1,1.521-27.381c1.395-4.608,7.889-26.056,24.591-29.915,7.551-1.745,17.537.025,19.268,4.817,1.909,5.285-7.951,9.456-16.732,24.845-2.839,4.974-9.024,16.123-8.367,30.169.191,4.065.867,18.518,8.367,21.549,5.308,2.146,10.655-2.8,28.563-16.563,28.58-21.971,33.545-23.667,34.141-30.423.819-9.292-8.087-11.593-20.62-31.6-5.586-8.92-21.046-33.606-12.93-44.113,4.358-5.642,15.364-7,21.55-2.789,7.123,4.851,3.473,14.106,9.38,32.451,3.989,12.387,12,27.872,16.986,26.958,4.225-.775,5.465-13.165,6.845-26.958,2.5-24.992-.807-34.68,4.817-38.028,5.681-3.383,17.247,1.626,20.028,8.873,2.156,5.619-2.229,9.3-5.831,22.31-1.329,4.8-6.521,23.563-1.014,27.127,5.395,3.491,20.415-4.265,28.9-15.719,6.546-8.833,7.016-16.9,11.662-17.324,4.115-.374,9.344,5.446,10.479,11.155,1.288,6.478-1.888,16.86-40.225,44.282-20.365,14.567-40,26.325-65.916,41.577-37.608,22.137-46.311,26.839-47.831,37.437-2.363,16.48,13.7,39.653,23.071,38.535,2.8-.333,4.524-2.288,14.2-18.253,14.317-23.631,16.121-28.555,23.324-33.972,1.314-.988,16.91-12.447,26.525-6.458,3.544,2.207,6.855,7.148,6.179,12.035-1.325,9.578-16.62,8.8-29.915,23.324-2.951,3.225-14.641,16-10.648,27.127,2.806,7.821,12.687,13.6,21.465,12.845,12.939-1.116,12.97-15.519,31.534-26.207,15.9-9.156,27.271-5.145,30.916-13.765,1.979-4.678-.11-10.758-4.563-22.817-4.617-12.5-6.517-12.823-8.873-20.366-3.173-10.156-6.1-29.959,2.788-35.155,5.573-3.259,15.519-.612,19.353,5.24,4.067,6.209-1.817,11.342-.846,27.211.425,6.937,1.921,12.031,4.395,20.451,2.9,9.876,5.2,17.7,7.521,17.577,3.506-.185.707-18.157,10.648-35.746,7.42-13.131,22.214-26.532,31.944-23.071,6.248,2.223,10.589,11.465,8.366,16.986-1.687,4.187-6.139,3.727-12.93,8.366-1.674,1.144-5.3,3.835-14.958,19.014-9.088,14.289-13.632,21.433-12.076,24.035,3.843,6.425,22.85-5.489,39.288,4.613,5.4,3.317,12.029,9.936,10.648,15.55-1.326,5.386-9.577,7.5-11.324,7.943-14.013,3.588-21.625-5.991-37.522-9.8-25.392-6.088-48.906,8.058-51.718,9.8-15.471,9.6-12.087,16.995-30.084,27.38-14.3,8.254-21.1,6.145-27.888,15.043-6.243,8.179-7.159,18.335-8.112,28.9-1.617,17.917,2.561,22.376-1.521,28.141C485.8,617.765,459.23,617.56,452.521,606.915Z" transform="translate(-31.984 -44.014)"/><path class="cls-2" d="M211.576,277.194c-16.869-12.988-5.516-36.638-13-82.338-5.622-34.327-16.563-48.677-7.281-59.634,6.6-7.8,20.489-10.387,26.366-5.408,8.784,7.442-2.9,29.619,4.057,33.8,5.516,3.32,13.753-11.444,30.6-12.366,11.786-.644,21.043,5.809,25.986,9.254,13.966,9.734,19.352,23.366,22.69,31.817,2.834,7.171,4.125,20.428,6.592,46.648,2.255,23.968,2.206,29.629-2.041,33.155-5.937,4.927-17.793,3.962-23.324-2.029-5.4-5.845-1.385-12.807-1.508-34.676-.079-13.96-.233-23.873-5.071-34.479-2.359-5.172-9.57-20.978-23-22.788-11.183-1.508-24.261,7.016-29.226,18.225-5.295,11.954,1.08,21.447,8.1,67.3,1.047,6.834,2.235,15.313-2.028,18.253C225.03,285,216.309,280.838,211.576,277.194Z" transform="translate(-31.984 -44.014)"/><path class="cls-2" d="M396.84,238.686c-7.93.75-8.52,8.43-18.76,12.42-12.66,4.94-24.94-1.66-25.6-2.03a29.67,29.67,0,0,1-12.93-14.7c-1.063-2.7-4.919-12.512-.764-17.238,4.589-5.221,14.454.875,32.958,2.028,12.307.767,30.963,1.929,39.3-8.62,8.28-10.482,3.129-28.407-3.3-38.54-8.975-14.144-25.492-21.639-41.07-20.78-18.133,1-29.465,12.982-33.969,17.743-14.44,15.267-16.194,33.463-16.731,40.057-.46,5.638-2.338,28.832,13.94,48.17,3.35,3.98,13.12,15.62,29.41,18.76,26.72,5.14,55.7-15.52,54.26-26.88C412.84,243.3,403.95,238.016,396.84,238.686Zm-30.167-66.422c12.161-1.094,20.374,8.38,20.787,8.872,3.3,3.94,7.971,12.117,5.07,16.23-1.881,2.666-5.821,2.038-25.35-.26-19.152-2.253-21.677-2.392-22.563-4.56C342.333,186.958,353.218,173.475,366.673,172.264Z" transform="translate(-31.984 -44.014)"/><path class="cls-2" d="M667.935,184.166c7.93-.75,8.52-8.43,18.76-12.42,12.66-4.94,24.94,1.66,25.6,2.03a29.68,29.68,0,0,1,12.93,14.7c1.062,2.7,4.918,12.513.763,17.239-4.589,5.22-14.454-.875-32.957-2.028-12.307-.767-30.963-1.93-39.3,8.619-8.163,10.334-3.664,28.1,3.3,38.54,8.821,13.231,25.077,19.946,38.554,19.052,12.646-.839,15.6-7.9,26.366-5.577,10.242,2.21,12.918,9.762,22.563,9.38,5.878-.232,13.006-3.357,13.69-7.606.954-5.915-11.584-7.824-16.985-18.507s2.805-17.349,4.056-38.028c.5-8.265,1.686-27.883-10.414-43.9-2.129-2.818-12.211-15.451-29.41-18.76-26.72-5.14-55.7,15.52-54.26,26.88C651.935,179.556,660.825,184.836,667.935,184.166ZM698.1,250.588c-12.16,1.094-20.373-8.38-20.786-8.872-3.305-3.939-7.972-12.117-5.07-16.23,1.88-2.666,5.82-2.038,25.35.26,19.151,2.253,21.676,2.392,22.562,4.56C722.441,235.894,711.556,249.377,698.1,250.588Z" transform="translate(-31.984 -44.014)"/><path class="cls-2" d="M435.716,157.969c-15.871,9.5-11.115,42.406-8.944,57.422,2.483,17.177,5.294,36.621,20.789,46.9a44.657,44.657,0,0,0,21.3,6.845c17.88.779,26.717-10.951,37.691-5.747,5.142,2.439,4.065,5.4,12.084,10.141,4.233,2.5,13.5,7.972,18.845,4.141,4.717-3.378,4.8-12.846,1.1-18.676-3.719-5.86-9.18-4.774-14.874-8.62-13.757-9.292-12.245-36.145-11.239-54,1.292-22.934,6.424-33.46-.014-39.084-4.731-4.133-13.683-3.81-19.268,0-12.4,8.459-8.863,34.574-7.084,47.7,3.076,22.709,10.387,34.05,4.042,40.859-3.76,4.035-10.237,4.245-14.2,3.38-12.3-2.688-17.134-19.582-19.268-27.042-3.265-11.416-2.873-21.354-2.366-32.113.941-19.937,4.854-27.576,0-32.112C450.1,154.033,441.457,154.53,435.716,157.969Z" transform="translate(-31.984 -44.014)"/><path class="cls-2" d="M543.885,161.49c2.895-13.491,7.752-16.483,9.126-17.24,7.652-4.215,19.52-.965,22.817,5.578,3.949,7.836-5.216,18.778-3.042,20.281,1.805,1.25,7.385-6.815,17.746-13.183,4.644-2.853,17.567-10.795,31.944-7.6,7.482,1.66,19.814,7.323,21.3,17.746.882,6.208-2.071,14.194-7.1,15.718-6.107,1.852-9.306-7.638-20.788-10.14-12.738-2.776-24.22,5.543-26.367,7.1-2.2,1.594-10.258,7.6-13.69,18.254-2.352,7.3-.939,11.845,4.564,38.535,4.355,21.127,5.3,27.168,1.521,32.958a22.221,22.221,0,0,1-13.183,9.126c-1.325.315-8.136,1.933-13.183-1.014-6.847-4-6.2-13.917-7.606-39.042-1.127-20.157-1.69-30.235-3.042-41.07C543.106,183.128,541.111,174.41,543.885,161.49Z" transform="translate(-31.984 -44.014)"/><path class="cls-2" d="M774.941,237.208c0-.1,0-.241,0-.424a304.918,304.918,0,0,0-2.737-43.224c-4.093-30.153-9.488-34-12.169-60.507-2.382-23.56-.064-39.757,2.029-49.69,2.9-13.761,7.808-37.01,20.262-39.182,6.337-1.1,14,3.4,16.921,9.435,4.008,8.27-3.082,15.041-8.789,34.31-1.579,5.332-6.284,21.69-5.07,40.817.517,8.16,2.829,17.147,7.452,35.122,1.1,4.272,3.908,14.876,7.235,29.8.331,1.485.591,2.67.777,3.524.494,2.259,2.949,16.52,7.86,45.042,3.726,21.643,5.447,32.544.7,38.24-7.093,8.516-24.585,10.063-32.451,2.7C770.011,276.67,774.6,266.948,774.941,237.208Z" transform="translate(-31.984 -44.014)"/><path class="cls-2" d="M136.86,697.581c-25.71-39.84-84.53-49.1-96.84-33.98-5.27,6.48,1.69,12.85,5.79,46.14,2.5,20.35,5.33,43.34-1.23,68.96-6.27,24.49-15.59,29.83-11.66,37.02,8.54,15.6,66.73,16.24,97.35-18.26C154.45,770.231,156.01,727.241,136.86,697.581Zm-11.72,47.15c-.89,35.96-46.5,60.82-55.77,54.25-6.34-4.48,7.04-21.71,7.1-58.81.06-33.69-10.92-48.88-5.07-52.73C80.72,681.3,126.05,708.361,125.14,744.731Z" transform="translate(-31.984 -44.014)"/><path class="cls-2" d="M278.33,741.011c14-12.96,12.12-44.71-4.06-64.22-17.89-21.57-48.59-22.45-68.45-14.2-40.28,16.73-40.53,72.86-40.56,79.1-.03,7.02-.29,65.94,37.69,77.07,38.08,11.16,78.51-36.3,74.03-46.31-2.51-5.59-21.26-4.5-34.82.34-19.24,6.87-23.39,19.64-32.11,17.91-12.67-2.5-24.1-33.42-13.93-45.85C210.54,727.221,257.16,760.611,278.33,741.011Zm-42.93-59.83c20.16,3.61,31.15,26.12,26.36,35.16-7.49,14.12-60.39,8.11-64.22-6.76C194.93,699.461,212.94,677.171,235.4,681.181Z" transform="translate(-31.984 -44.014)"/><path class="cls-2" d="M839.317,738.856c14-12.96,12.12-44.71-4.06-64.22-17.89-21.57-48.59-22.45-68.45-14.2-40.28,16.73-40.53,72.86-40.56,79.1-.03,7.02-.29,65.94,37.69,77.07,38.08,11.16,78.51-36.3,74.03-46.31-2.51-5.59-21.26-4.5-34.82.34-19.24,6.87-23.39,19.64-32.11,17.91-12.67-2.5-24.1-33.42-13.93-45.85C771.527,725.066,818.147,758.456,839.317,738.856Zm-42.93-59.83c20.16,3.61,31.15,26.12,26.36,35.16-7.49,14.12-60.39,8.11-64.22-6.76C755.917,697.306,773.927,675.016,796.387,679.026Z" transform="translate(-31.984 -44.014)"/><path class="cls-2" d="M306.385,696.014c1.975-13.2,12.082-20.97,16.9-24.676,19.441-14.953,46.817-14.5,66.253-5.408,5.938,2.776,19.07,8.916,24,22.647,3.2,8.9,2.95,21-1.69,22.986-5.786,2.484-11.958-13.519-30.422-22.309-17.827-8.487-42.963-8.275-49.014,2.7-3.432,6.226-.264,15.075,3.38,20.281,6.584,9.408,16.537,9.518,31.437,14.536,13.466,4.535,37.595,12.661,45.633,30.422,6.6,14.58,1.214,33.133-7.774,44.62-17.559,22.439-49.572,18.815-60.507,17.577-27.215-3.08-54.357-18.988-52.733-27.718,1.094-5.877,15.358-9.234,26.028-8.789,16.614.693,20.062,10.418,38.536,11.831,6.616.506,17.119,1.31,25.352-5.746,6.26-5.365,11.588-15.6,8.788-24-2.324-6.977-9.076-9.15-41.915-22.31-22.192-8.893-26.775-10.973-31.775-16.563C314.923,723.929,304.03,711.749,306.385,696.014Z" transform="translate(-31.984 -44.014)"/><path class="cls-2" d="M447.173,706.7c-2.256.225-3.014,4.937-8.112,51.719-3.487,31.988-5.075,48.128,2.535,55.267,6.308,5.919,17.511,8.365,23.831,4.056,9.356-6.378,5.693-25.986,0-54.76C462.764,749.53,454.153,706.01,447.173,706.7Z" transform="translate(-31.984 -44.014)"/><path class="cls-2" d="M449.708,664.62c-4.792-2.593-15.861,2.747-18.253,12.169-3.007,11.842,9.7,22.23,15.211,20.788C454.265,695.59,457.31,668.732,449.708,664.62Z" transform="translate(-31.984 -44.014)"/><path class="cls-2" d="M558.229,868.962c-21.34-15.81-37.75-20.35-40.06-35.5-1.84-12.14,7.84-22.49,8.62-23.32,9.33-9.92,28.53-9.94,38.54-14.2,19.21-8.17,29.45-42.53,25.35-66.42-1.91-11.15-6.39-16.73-3.55-26.87,3.87-13.82,16.26-17.04,14.71-25.36-1.72-9.18-16.93-16.61-24.34-12.67-5.25,2.79-3.03,9.4-8.12,13.18-8.38,6.23-20.77-7.06-36-6.59-25.85.8-42.96,40.76-44.61,44.62-2.8,6.52-16.41,38.31-2.54,62.36,6.46,11.21,14.49,13.13,16.23,24.85,1.75,11.83-5.41,16.84-4.57,30.93.71,11.83,6.48,20.4,9.13,24.34,6.14,9.13,12.7,12.79,20.56,16.5a71.113,71.113,0,0,0-26.65,14.43c-3.76,3.27-26.36,23.7-21.29,46.14,5.45,24.14,39.34,34.66,62.87,33.46,27.7-1.41,59.21-20,61.01-42.09C605.369,903.882,575.029,881.4,558.229,868.962Zm-45.56-97.92c-16.03-15.67-5.35-42.08-3.12-47.61,2.1-5.18,10.11-24.97,24.34-26.36,16.6-1.62,34.2,22.51,34.48,44.62.05,3.53.33,25.66-17.24,34.98C538.289,783.492,522.039,780.212,512.669,771.042Zm67.87,157.75c-2.81,13.59-22.86,22.53-39.55,21.39-15.24-1.03-32.98-10.83-35.49-24.44-3.52-19.07,24.42-37.29,31.59-46.39a99.031,99.031,0,0,1,17.08,10.9C564.179,898.172,583.679,913.6,580.539,928.792Z" transform="translate(-31.984 -44.014)"/><path class="cls-2" d="M614.236,670.7c5.167-10.946,11.358-14.271,14.873-15.549,7.278-2.646,17.491-1.751,20.282,3.38,3.715,6.832-7.818,17.332-4.733,20.958,2.872,3.375,12.859-5.723,25.691-4.732,18.006,1.389,29.6,21.716,31.1,24.338,7.055,12.365,4.853,19.741,6.761,45.295,3.422,45.851,13.41,60.979,3.38,70.31-6.3,5.865-18.908,7.943-25.69,2.7-14.19-10.959,8.085-45.463-6.761-86.535-5.229-14.467-11.169-18.973-16.225-20.281-6.964-1.8-14.44,1.9-18.39,5.226-24.5,20.655,16.1,86.579-6.624,105.647-8.26,6.929-23.473,6.486-31.1,0-15.453-13.143,11.776-41.289,5.409-96C610.271,708.827,605.233,689.777,614.236,670.7Z" transform="translate(-31.984 -44.014)"/><path class="cls-2" d="M866.549,802.536c-8.6-14.507,4.329-25.728,4.7-57.846.144-12.629-1.869-9.647-5.071-46.141-2.561-29.2-1.78-36.9,3.55-41.07,7.184-5.626,21-3.569,24.338,2.535,3.8,6.951-6.706,17.83-4.057,20.282,2.444,2.261,11.407-6.973,24.338-12.169,19.225-7.725,46.214-6.12,52.226,6.084,3.2,6.49.92,16.909-5.071,20.789-9.234,5.98-20.306-8.1-39.042-5.07-1.4.226-16.517,2.877-23.831,14.2-8.447,13.073,1.585,25.22,4.056,56.281.657,8.251,3.933,49.437-10.648,55.268C884.384,818.735,872.125,811.942,866.549,802.536Z" transform="translate(-31.984 -44.014)"/></g></svg>