<svg xmlns="http://www.w3.org/2000/svg" viewBox="0 0 1449.88 200"><defs><style>.cls-1{fill:#121221;}.cls-2{fill:#366ce1;}</style></defs><title>newsletter</title><g id="Слой_2" data-name="Слой 2"><g id="Work_space" data-name="Work space"><g id="newsletter"><polygon class="cls-1" points="100 50 100 150 80 150 20 80.59 20 150 0 150 0 50 20 50 80 119.41 80 50 100 50"/><polygon class="cls-1" points="220 150 220 50 240 50 240 119.41 256.8 99.95 270.01 84.64 283.22 99.95 300 119.38 300 50 320 50 320 150 300 150 300 149.99 270.01 115.25 240.02 150 220 150"/><path class="cls-1" d="M350,80a10,10,0,0,0,10,10h40a30,30,0,0,1,0,60H330V130h70a10,10,0,0,0,0-20H360a30,30,0,0,1,0-60h70V70H360A10,10,0,0,0,350,80Z"/><polygon class="cls-2" points="900 70 900 90 980 90 980 110 900 110 900 130 980 130 980 150 880 150 880 50 980 50 980 70 900 70"/><polygon class="cls-2" points="570 70 570 90 650 90 650 110 570 110 570 130 650 130 650 150 550 150 550 50 650 50 650 70 570 70"/><polygon class="cls-1" points="130 70 130 90 210 90 210 110 130 110 130 130 210 130 210 150 110 150 110 50 210 50 210 70 130 70"/><polygon class="cls-2" points="540 130 540 150 440 150 440 50 460 50 460 130 540 130"/><path class="cls-2" d="M1090,80a30,30,0,0,0-30-30H990V150h20V110h50a10,10,0,0,1,10,10v30h20V120a29.862,29.862,0,0,0-7.65-20A29.862,29.862,0,0,0,1090,80Zm-80,10V70h50a10,10,0,0,1,0,20Z"/><polygon class="cls-2" points="870 50 870 70 830 70 830 150 810 150 810 70 770 70 770 50 870 50"/><polygon class="cls-2" points="760 50 760 70 720 70 720 150 700 150 700 70 660 70 660 50 760 50"/><path class="cls-2" d="M1449.88,0V200h-300V0l114.65,114.65,14.14,14.14a30,30,0,1,0,42.42,0l14.14-14.14Z"/><path class="cls-1" d="M1335.23,114.65l-14.14,14.14a30,30,0,1,1-42.42,0l-14.14-14.14L1149.88,0h300Z"/><path class="cls-1" d="M1449.88,0,1335.23,114.65l-14.14,14.14L1299.88,150l-21.21-21.21-14.14-14.14L1149.88,0Z"/><path class="cls-1" d="M1335.23,114.65a49.974,49.974,0,0,0-70.7,0l14.14,14.14a30,30,0,1,0,42.42,0Zm-14.14,14.14a30,30,0,1,0,8.79,21.21A29.906,29.906,0,0,0,1321.09,128.79Z"/></g></g></g></svg>