<svg xmlns="http://www.w3.org/2000/svg" viewBox="0 0 958.19 148.66"><defs><style>.cls-1{fill:#121221;}.cls-2{fill:#366ce1;}</style></defs><title>nexgent</title><g id="Слой_2" data-name="Слой 2"><g id="Work_space" data-name="Work space"><g id="nexgent"><polygon class="cls-1" points="100 48.66 100 148.66 80 148.66 20 79.25 20 148.66 0 148.66 0 48.66 20 48.66 80 118.07 80 48.66 100 48.66"/><polygon class="cls-1" points="650 48.66 650 148.66 630 148.66 570 79.25 570 148.66 550 148.66 550 48.66 570 48.66 630 118.07 630 48.66 650 48.66"/><polygon class="cls-1" points="130 68.66 130 88.66 210 88.66 210 108.66 130 108.66 130 128.66 210 128.66 210 148.66 110 148.66 110 48.66 210 48.66 210 68.66 130 68.66"/><polygon class="cls-1" points="460 68.66 460 88.66 540 88.66 540 108.66 460 108.66 460 128.66 540 128.66 540 148.66 440 148.66 440 48.66 540 48.66 540 68.66 460 68.66"/><path class="cls-1" d="M430,88.66v10a49.16,49.16,0,0,1-1.01,10,50.013,50.013,0,1,1-13.64-45.35L401.21,77.45a30,30,0,1,0,7.07,31.21H380v-20Z"/><polygon class="cls-1" points="760 48.66 760 68.66 720 68.66 720 148.66 700 148.66 700 68.66 660 68.66 660 48.66 760 48.66"/><polygon class="cls-1" points="282.5 98.69 319.95 148.66 294.96 148.66 270.01 115.36 245.05 148.66 220.07 148.66 257.51 98.69 220.02 48.66 245 48.66 270.01 82.02 295.01 48.66 320 48.66 282.5 98.69"/><polygon class="cls-2" points="958.19 48.66 940 48.66 940 148.66 920 148.66 860 79.25 860 148.66 840 148.66 840 48.66 860 48.66 920 118.07 920 48.66 902 48.66 930.09 0 958.19 48.66"/></g></g></g></svg>