<svg xmlns="http://www.w3.org/2000/svg" viewBox="0 0 430 151.421"><defs><style>.cls-1{fill:#366ce1;}.cls-2{fill:#121221;}</style></defs><title>next insurance</title><g id="Слой_2" data-name="Слой 2"><g id="Work_space" data-name="Work space"><g id="next_insurance" data-name="next insurance"><polygon class="cls-1" points="16.568 118.284 16.568 143.137 24.853 143.137 24.853 151.421 0 151.421 0 143.137 8.284 143.137 8.284 118.284 0 118.284 0 110 24.853 110 24.853 118.284 16.568 118.284"/><polygon class="cls-1" points="298.874 110 298.874 151.421 290.589 151.421 265.737 122.671 265.737 151.421 257.452 151.421 257.452 110 265.737 110 290.589 138.75 290.589 110 298.874 110"/><polygon class="cls-1" points="71.057 110 71.057 151.421 62.773 151.421 37.921 122.671 37.921 151.421 29.636 151.421 29.636 110 37.921 110 62.773 138.75 62.773 110 71.057 110"/><polygon class="cls-2" points="100 0 100 100 80 100 20 30.59 20 100 0 100 0 0 20 0 80 69.41 80 0 100 0"/><path class="cls-1" d="M83.484,122.426a4.143,4.143,0,0,0,4.142,4.142h16.568a12.427,12.427,0,1,1,0,24.853H75.2v-8.284h28.994a4.142,4.142,0,1,0,0-8.284H87.626a12.427,12.427,0,0,1,0-24.853h28.995v8.284H87.626A4.143,4.143,0,0,0,83.484,122.426Z"/><polygon class="cls-2" points="130 20 130 40 210 40 210 60 130 60 130 80 210 80 210 100 110 100 110 0 210 0 210 20 130 20"/><path class="cls-1" d="M207.747,122.426A12.426,12.426,0,0,0,195.321,110h-29v41.421h8.284V134.853h20.711A4.143,4.143,0,0,1,199.463,139v12.426h8.284V139a12.367,12.367,0,0,0-3.169-8.284A12.371,12.371,0,0,0,207.747,122.426Zm-33.137,4.142v-8.284h20.711a4.142,4.142,0,0,1,0,8.284Z"/><polygon class="cls-1" points="356.863 118.284 356.863 126.568 390 126.568 390 134.853 356.863 134.853 356.863 143.137 390 143.137 390 151.421 348.579 151.421 348.579 110 390 110 390 118.284 356.863 118.284"/><path class="cls-1" d="M335.44,134.853h8.578a20.711,20.711,0,1,1,0-8.285H335.44a12.427,12.427,0,1,0,0,8.285Z"/><path class="cls-1" d="M237.061,110.808l-.323-.808h-8.276l-.323.8-16.25,40.617h8.926l4.64-11.6h14.29l4.639,11.6h8.926Zm-8.293,20.731,3.832-9.581,3.831,9.581Z"/><polygon class="cls-2" points="430 0 430 20 390 20 390 100 370 100 370 20 330 20 330 0 430 0"/><path class="cls-1" d="M162.184,110v20.711a20.711,20.711,0,0,1-41.421,0V110h8.284v20.711a12.427,12.427,0,0,0,24.853,0V110Z"/><polygon class="cls-2" points="282.48 50.03 319.93 100 294.94 100 269.99 66.7 245.03 100 220.05 100 257.49 50.03 220 0 244.98 0 269.99 33.36 294.99 0 319.98 0 282.48 50.03"/></g></g></g></svg>