<svg xmlns="http://www.w3.org/2000/svg" viewBox="0 0 620 260"><defs><style>.cls-1{fill:#121221;}.cls-2{fill:#366ce1;}</style></defs><title>nextgen</title><g id="Complete"><g id="next_gen" data-name="next gen"><polygon class="cls-1" points="120 170 120 205 210 205 210 215 120 215 120 250 210 250 210 260 110 260 110 160 210 160 210 170 120 170"/><path class="cls-1" d="M260,610a48.521,48.521,0,0,1-.25,5,49.989,49.989,0,0,1-80.34,34.54,48.207,48.207,0,0,1-5.52-4.97,49.99,49.99,0,0,1,66.7-74.11l-6.71,7.45A40,40,0,1,0,249.69,615H200.5l9-10h50.25A48.521,48.521,0,0,1,260,610Z" transform="translate(-160 -400)"/><path class="cls-1" d="M270,605v5a48.521,48.521,0,0,0-.25-5Z" transform="translate(-160 -400)"/><path class="cls-1" d="M270,610v5h-.25A48.521,48.521,0,0,0,270,610Z" transform="translate(-160 -400)"/><polygon class="cls-1" points="320 260 310 260 310 251 320 260"/><polygon class="cls-1" points="320 160 320 260 220 170 220 160 310 241 310 160 320 160"/><polygon class="cls-2" points="320 260 310 260 230 171.11 230 260 220 260 220 160 230 160 320 260"/><polygon class="cls-1" points="530 10 435.12 100.13 530 200 520 200 429.87 105.12 330 200 330 190 424.88 99.87 330 0 340 0 430.13 94.88 530 0 530 10"/><polygon class="cls-2" points="435.12 99.87 530 190 530 200 430.13 105.12 340 200 330 200 424.88 100.13 330 10 330 0 429.87 94.88 520 0 530 0 435.12 99.87"/><polygon class="cls-1" points="620 50 620 60 575 60 575 150 565 150 565 60 520 60 520 50 620 50"/><polygon class="cls-1" points="250 60 250 95 340 95 340 105 250 105 250 140 340 140 340 150 240 150 240 50 340 50 340 60 250 60"/><polygon class="cls-1" points="230 104.5 220 104.5 220 95.5 230 104.5"/><polygon class="cls-1" points="230 150 220 150 140 61.11 140 150 130 150 130 50 140 50 230 150"/><polygon class="cls-2" points="230 50 230 150 130 60 130 50 220 131 220 50 230 50"/></g></g></svg>