<svg xmlns="http://www.w3.org/2000/svg" viewBox="0 0 725.72 105.36"><defs><style>.cls-1,.cls-3{fill:#121221;}.cls-2{fill:#366ce1;}.cls-3{opacity:0.38;}</style></defs><title>ng data</title><g id="Слой_2" data-name="Слой 2"><g id="Work_space" data-name="Work space"><g id="ng_data" data-name="ng data"><polygon class="cls-1" points="100 2.68 100 102.68 80 102.68 20 33.27 20 102.68 0 102.68 0 2.68 20 2.68 80 72.09 80 2.68 100 2.68"/><path class="cls-1" d="M210,42.68v10a49.16,49.16,0,0,1-1.01,10,50.013,50.013,0,1,1-13.64-45.35L181.21,31.47a30,30,0,1,0,7.07,31.21H160v-20Z"/><path class="cls-2" d="M290,2.68H240v100h50a50,50,0,0,0,0-100Zm0,80H260v-60h30a30,30,0,0,1,0,60Z"/><path class="cls-2" d="M555.77,4.63l-.78-1.95H535.01l-.78,1.94L495,102.68h21.55l11.2-28h34.5l11.2,28H595ZM535.75,54.68,545,31.55l9.25,23.13Z"/><path class="cls-2" d="M395.77,4.63l-.78-1.95H375.01l-.78,1.94L335,102.68h21.55l11.2-28h34.5l11.2,28H435ZM375.75,54.68,385,31.55l9.25,23.13Z"/><polygon class="cls-2" points="515 2.68 515 22.68 475 22.68 475 102.68 455 102.68 455 22.68 415 22.68 415 2.68 515 2.68"/><path class="cls-2" d="M720.36,55.36a50,50,0,1,1-85.35-35.35l15.35,15.35,20,20,20-20,15.35-15.35A49.844,49.844,0,0,1,720.36,55.36Z"/><path class="cls-2" d="M725.72,0,705.71,20.01,690.36,35.36l-20,20-20-20L635.01,20.01,615,0a49.825,49.825,0,0,0,27.29,13.99,49.965,49.965,0,0,1,56.14,0A49.825,49.825,0,0,0,725.72,0Z"/><path class="cls-3" d="M725.72,0,705.71,20.01,690.36,35.36l-20,20-20-20L635.01,20.01,615,0a49.825,49.825,0,0,0,27.29,13.99,49.965,49.965,0,0,1,56.14,0A49.825,49.825,0,0,0,725.72,0Z"/></g></g></g></svg>