<svg id="Main" xmlns="http://www.w3.org/2000/svg" viewBox="0 0 300 340"><defs><style>.cls-1{fill:#1c1e20;}.cls-2{fill:#366ce1;}.cls-3{fill:#121221;}.cls-4{fill:#e1dfdf;}</style></defs><title>NMap</title><g id="NMap"><path class="cls-1" d="M650,490a82.863,82.863,0,0,1-.61,10,88.86,88.86,0,0,0-15.74-40,97.726,97.726,0,0,0,6.12-10A84.5,84.5,0,0,1,650,490Z" transform="translate(-350 -380)"/><path class="cls-1" d="M366.35,460a88.86,88.86,0,0,0-15.74,40,82.863,82.863,0,0,1-.61-10,84.5,84.5,0,0,1,10.23-40A97.726,97.726,0,0,0,366.35,460Z" transform="translate(-350 -380)"/><circle class="cls-2" cx="150" cy="70" r="50"/><path class="cls-3" d="M639.77,450a97.726,97.726,0,0,1-6.12,10,110.809,110.809,0,0,0-7.91-10c-26.76-30.1-73.08-50-125.74-50s-98.98,19.9-125.74,50a110.809,110.809,0,0,0-7.91,10,97.726,97.726,0,0,1-6.12-10,97.726,97.726,0,0,1,6.12-10c24.83-35.62,75.36-60,133.65-60s108.82,24.38,133.65,60A97.726,97.726,0,0,1,639.77,450Z" transform="translate(-350 -380)"/><path class="cls-3" d="M633.65,460c-24.83,35.62-75.36,60-133.65,60s-108.82-24.38-133.65-60a110.809,110.809,0,0,1,7.91-10c26.76,30.1,73.08,50,125.74,50s98.98-19.9,125.74-50A110.809,110.809,0,0,1,633.65,460Z" transform="translate(-350 -380)"/><path class="cls-4" d="M500,500c-52.66,0-98.98-19.9-125.74-50,26.76-30.1,73.08-50,125.74-50a50,50,0,0,0,0,100Z" transform="translate(-350 -380)"/><path class="cls-4" d="M625.74,450c-26.76,30.1-73.08,50-125.74,50a50,50,0,0,0,0-100C552.66,400,598.98,419.9,625.74,450Z" transform="translate(-350 -380)"/><circle class="cls-3" cx="150" cy="70" r="25"/><rect class="cls-3" x="20" y="170" width="10" height="100"/><polygon class="cls-3" points="20 170 30 170 70 270 60 270 20 170"/><polygon class="cls-3" points="80 170 90 170 125 220 115 220 80 170"/><polygon class="cls-3" points="160 170 150 170 115 220 125 220 160 170"/><rect class="cls-3" x="60" y="170" width="10" height="100"/><rect class="cls-3" x="80" y="170" width="10" height="100"/><rect class="cls-3" x="150" y="170" width="10" height="100"/><path class="cls-3" d="M560,580v6.99c-4.18-4.39-9.38-6.99-15-6.99-13.81,0-25,15.67-25,35s11.19,35,25,35c5.62,0,10.82-2.6,15-6.99V650h10V580Zm-15,60c-8.28,0-15-11.19-15-25s6.72-25,15-25,15,11.19,15,25S553.28,640,545,640Z" transform="translate(-350 -380)"/><path class="cls-3" d="M605,580c-5.62,0-10.82,2.6-15,6.99V580H580V720h10V643.01c4.18,4.39,9.38,6.99,15,6.99,13.81,0,25-15.67,25-35S618.81,580,605,580Zm0,60c-8.28,0-15-11.19-15-25s6.72-25,15-25,15,11.19,15,25S613.28,640,605,640Z" transform="translate(-350 -380)"/></g></svg>