<svg xmlns="http://www.w3.org/2000/svg" viewBox="0 0 630 100"><defs><style>.cls-1{fill:#366ce1;}.cls-2{fill:#121221;}</style></defs><title>no crm</title><g id="Слой_2" data-name="Слой 2"><g id="Work_space" data-name="Work space"><g id="no_crm" data-name="no crm"><path class="cls-1" d="M389.29,60H410a50,50,0,1,1,0-20H389.29a30,30,0,1,0,0,20Z"/><polygon class="cls-1" points="630 0 630 100 610 100 610 30.59 593.2 50.05 579.99 65.36 566.78 50.05 550 30.62 550 100 530 100 530 0 550 0 550 0.01 579.99 34.75 609.98 0 630 0"/><path class="cls-1" d="M520,30A30,30,0,0,0,490,0H420V100h20V60h50a10,10,0,0,1,10,10v30h20V70a29.862,29.862,0,0,0-7.65-20A29.862,29.862,0,0,0,520,30ZM440,40V20h50a10,10,0,0,1,0,20Z"/><path class="cls-2" d="M160,0a50,50,0,1,0,50,50A50.005,50.005,0,0,0,160,0Zm0,80a30,30,0,1,1,30-30A30,30,0,0,1,160,80Z"/><path class="cls-2" d="M100,50v50H80V50a30,30,0,0,0-60,0v50H0V50a50,50,0,0,1,100,0Z"/></g></g></g></svg>