<svg xmlns="http://www.w3.org/2000/svg" viewBox="0 0 352.095 410"><defs><style>.cls-1{fill:#121221;}.cls-2{fill:#366ce1;}.cls-3{fill:#e1dfdf;}</style></defs><title>nord vpn</title><g id="complete"><g id="nordVPN"><circle class="cls-1" cx="176.048" cy="150" r="150"/><polygon class="cls-2" points="317.468 150 34.628 150 176.048 8.58 317.468 150"/><polygon class="cls-3" points="317.468 150 176.048 291.42 34.628 150 317.468 150"/><polygon class="cls-2" points="104.626 150 246.048 150 175.337 220.711 104.626 150"/><polygon class="cls-3" points="247.469 150.711 106.048 150.711 176.758 80 247.469 150.711"/><path class="cls-1" d="M398.339,729.673A19.837,19.837,0,0,0,378.5,749.509v19.836a19.837,19.837,0,1,0,39.673,0V749.509A19.837,19.837,0,0,0,398.339,729.673Zm9.918,39.672a9.918,9.918,0,1,1-19.836,0V749.509a9.918,9.918,0,0,1,19.836,0Z" transform="translate(-323.952 -380)"/><path class="cls-2" d="M606.62,690H576.866v99.182h9.918V749.509H606.62a19.838,19.838,0,0,0,19.837-19.836V709.836A19.838,19.838,0,0,0,606.62,690Zm9.919,39.673a9.916,9.916,0,0,1-9.919,9.918H586.784V699.918H606.62a9.916,9.916,0,0,1,9.919,9.918Z" transform="translate(-323.952 -380)"/><path class="cls-1" d="M462.807,749.509h-9.918a9.919,9.919,0,0,0-19.837,0v39.673h-9.918V729.673h9.918v2.653a19.843,19.843,0,0,1,29.755,17.183Z" transform="translate(-323.952 -380)"/><rect class="cls-1" y="310" width="9.918" height="99.182"/><rect class="cls-1" x="39.673" y="310" width="9.918" height="99.182"/><polygon class="cls-1" points="49.591 409.182 39.673 409.182 0 310 9.918 310 49.591 409.182"/><polygon class="cls-2" points="352.095 310.818 352.095 410 342.177 410 312.423 335.614 312.423 410 302.504 410 302.504 310.818 312.423 310.818 342.177 385.205 342.177 310.818 352.095 310.818"/><path class="cls-1" d="M497.52,690v42.326a19.842,19.842,0,0,0-29.754,17.183v19.836a19.842,19.842,0,0,0,29.754,17.184v2.653h9.919V690ZM487.6,779.264a9.916,9.916,0,0,1-9.918-9.919V749.509a9.918,9.918,0,0,1,19.836,0v19.836A9.916,9.916,0,0,1,487.6,779.264Z" transform="translate(-323.952 -380)"/><polygon class="cls-2" points="252.914 310 233.077 409.182 223.159 409.182 203.323 310 213.241 310 228.118 384.386 242.995 310 252.914 310"/></g></g></svg>