<svg xmlns="http://www.w3.org/2000/svg" viewBox="0 0 1216.57 150"><defs><style>.cls-1{fill:#121221;}.cls-2,.cls-3{fill:#366ce1;}.cls-2{opacity:0.38;}</style></defs><title>notificare</title><g id="Слой_2" data-name="Слой 2"><g id="Work_space" data-name="Work space"><g id="notificare"><path class="cls-1" d="M1160,0h-80a50,50,0,0,0,0,100h80a50,50,0,0,0,0-100Zm0,80h-80a30,30,0,0,1,0-60h80a30,30,0,0,1,0,60Z"/><path class="cls-2" d="M1207.783,141.212a30,30,0,0,1-42.427,0l-28.277-28.277a.01.01,0,1,0-.014-.014l-28.277-28.277a30,30,0,0,1,42.426-42.427L1179.491,70.5a.01.01,0,1,0,.014.014l28.278,28.277A30,30,0,0,1,1207.783,141.212Z"/><polygon class="cls-3" points="410 45 410 65 470 65 470 85 410 85 410 125 390 125 390 25 490 25 490 45 410 45"/><polygon class="cls-3" points="360 45 360 105 380 105 380 125 320 125 320 105 340 105 340 45 320 45 320 25 380 25 380 45 360 45"/><polygon class="cls-3" points="540 45 540 105 560 105 560 125 500 125 500 105 520 105 520 45 500 45 500 25 560 25 560 45 540 45"/><polygon class="cls-3" points="100 25 100 125 80 125 20 55.59 20 125 0 125 0 25 20 25 80 94.41 80 25 100 25"/><polygon class="cls-3" points="900 45 900 65 980 65 980 85 900 85 900 105 980 105 980 125 880 125 880 25 980 25 980 45 900 45"/><path class="cls-3" d="M870,55a30,30,0,0,0-30-30H770V125h20V85h50a10,10,0,0,1,10,10v30h20V95a29.862,29.862,0,0,0-7.65-20A29.862,29.862,0,0,0,870,55ZM790,65V45h50a10,10,0,0,1,0,20Z"/><path class="cls-3" d="M160,25a50,50,0,1,0,50,50A50.005,50.005,0,0,0,160,25Zm0,80a30,30,0,1,1,30-30A30,30,0,0,1,160,105Z"/><path class="cls-3" d="M639.29,85H660a50,50,0,1,1,0-20H639.29a30,30,0,1,0,0,20Z"/><path class="cls-3" d="M720.77,26.95,719.99,25H700.01l-.78,1.94L660,125h21.55l11.2-28h34.5l11.2,28H760ZM700.75,77,710,53.87,719.25,77Z"/><polygon class="cls-3" points="310 25 310 45 270 45 270 125 250 125 250 45 210 45 210 25 310 25"/></g></g></g></svg>