<svg xmlns="http://www.w3.org/2000/svg" viewBox="0 0 590 100"><defs><style>.cls-1{fill:#366ce1;}.cls-2,.cls-3{fill:#121221;}.cls-2{opacity:0.38;}.cls-3{opacity:0.62;}</style></defs><title>now rx</title><g id="Слой_2" data-name="Слой 2"><g id="Work_space" data-name="Work space"><g id="now_rx" data-name="now rx"><path class="cls-1" d="M490,30A30,30,0,0,0,460,0H390V100h20V60h50a10,10,0,0,1,10,10v30h20V70a29.862,29.862,0,0,0-7.65-20A29.862,29.862,0,0,0,490,30ZM410,40V20h50a10,10,0,0,1,0,20Z"/><path class="cls-2" d="M490,30A30,30,0,0,0,460,0H390V100h20V60h50a10,10,0,0,1,10,10v30h20V70a29.862,29.862,0,0,0-7.65-20A29.862,29.862,0,0,0,490,30ZM410,40V20h50a10,10,0,0,1,0,20Z"/><polygon class="cls-1" points="100 0 100 100 80 100 20 30.59 20 100 0 100 0 0 20 0 80 69.41 80 0 100 0"/><path class="cls-1" d="M160,0a50,50,0,1,0,50,50A50.005,50.005,0,0,0,160,0Zm0,80a30,30,0,1,1,30-30A30,30,0,0,1,160,80Z"/><path class="cls-1" d="M309.38,0,294.92,57.86,280.36,1.15,280.06,0H265.15l-.03.11V0H260l-.29,1.16L245.17,57.75,230.74,0H210.12V.02l24.61,98.41.39,1.57h19.86l.38-1.5,14.67-57.13,14.7,57.24.35,1.39h15.03l.01-.04V100h4.87l.37-1.46L330,0ZM290.12,50.99v.04l-.02-.04Zm0,47.53-.19.61.19-.64Z"/><polygon class="cls-1" points="290.12 51.03 290.1 50.99 290.12 50.99 290.12 51.03"/><polygon class="cls-1" points="290.12 98.52 289.93 99.13 290.12 98.49 290.12 98.52"/><polygon class="cls-1" points="290.12 98.52 289.93 99.13 290.12 98.49 290.12 98.52"/><polygon class="cls-1" points="552.5 50.03 589.95 100 564.96 100 540.01 66.7 515.05 100 490.07 100 527.51 50.03 490.02 0 515 0 540.01 33.36 565.01 0 590 0 552.5 50.03"/><polygon class="cls-3" points="552.5 50.03 589.95 100 564.96 100 540.01 66.7 515.05 100 490.07 100 527.51 50.03 490.02 0 515 0 540.01 33.36 565.01 0 590 0 552.5 50.03"/></g></g></g></svg>