<svg xmlns="http://www.w3.org/2000/svg" viewBox="0 0 859.96 100"><defs><style>.cls-1{fill:#366ce1;}.cls-2,.cls-3,.cls-4{fill:#1c1e20;}.cls-2{opacity:0.38;}.cls-3{opacity:0.62;}.cls-5{fill:#121221;}</style></defs><title>nutanix</title><g id="Слой_2" data-name="Слой 2"><g id="Work_space" data-name="Work space"><g id="nutanix"><polygon class="cls-1" points="775.82 50 739.96 85.86 739.96 94.14 734.1 100 719.96 100 719.96 85.86 755.82 50 719.96 14.14 719.96 0 734.11 0 739.96 5.85 739.96 14.14 775.82 50"/><polygon class="cls-1" points="795.82 50 759.96 85.86 759.96 94.14 754.1 100 739.96 100 739.96 85.86 775.82 50 739.96 14.14 739.96 0 754.11 0 759.96 5.85 759.96 14.14 795.82 50"/><polygon class="cls-2" points="775.82 50 739.96 85.86 739.96 94.14 734.1 100 719.96 100 719.96 85.86 755.82 50 719.96 14.14 719.96 0 734.11 0 739.96 5.85 739.96 14.14 775.82 50"/><polygon class="cls-3" points="795.82 50 759.96 85.86 759.96 94.14 754.1 100 739.96 100 739.96 85.86 775.82 50 739.96 14.14 739.96 0 754.11 0 759.96 5.85 759.96 14.14 795.82 50"/><polygon class="cls-4" points="839.96 14.14 804.1 50 839.96 85.86 839.96 94.14 809.96 64.14 774.1 100 759.96 100 759.96 85.86 795.82 50 759.96 14.14 759.96 0 774.11 0 809.96 35.85 839.96 5.85 839.96 14.14"/><polygon class="cls-1" points="859.96 14.14 824.1 50 859.96 85.86 859.96 100 845.82 100 839.96 94.14 839.96 85.86 804.1 50 839.96 14.14 839.96 5.85 845.81 0 859.96 0 859.96 14.14"/><polygon class="cls-5" points="560 20 560 80 580 80 580 100 520 100 520 80 540 80 540 20 520 20 520 0 580 0 580 20 560 20"/><polygon class="cls-5" points="510 0 510 100 490 100 430 30.59 430 100 410 100 410 0 430 0 490 69.41 490 0 510 0"/><polygon class="cls-5" points="100 0 100 100 80 100 20 30.59 20 100 0 100 0 0 20 0 80 69.41 80 0 100 0"/><path class="cls-5" d="M360.77,1.95,359.99,0H340.01l-.78,1.94L300,100h21.55l11.2-28h34.5l11.2,28H400ZM340.75,52,350,28.87,359.25,52Z"/><polygon class="cls-5" points="320 0 320 20 280 20 280 100 260 100 260 20 220 20 220 0 320 0"/><polygon class="cls-5" points="652.46 50.03 689.91 100 664.92 100 639.97 66.7 615.01 100 590.03 100 627.47 50.03 589.98 0 614.96 0 639.97 33.36 664.97 0 689.96 0 652.46 50.03"/><path class="cls-5" d="M210,0V50a50,50,0,0,1-100,0V0h20V50a30,30,0,0,0,60,0V0Z"/></g></g></g></svg>