<svg xmlns="http://www.w3.org/2000/svg" viewBox="0 0 210 210"><defs><style>.cls-1{fill:#366ce1;}.cls-2{fill:#e1dfdf;}</style></defs><title>odinanswer</title><g id="complete"><g id="odinanswer"><path class="cls-1" d="M500,460a40,40,0,1,0,40,40A40,40,0,0,0,500,460Zm0,70a30,30,0,1,1,30-30A30,30,0,0,1,500,530Z" transform="translate(-395 -395)"/><path class="cls-1" d="M500,435.5A64.5,64.5,0,1,0,564.5,500,64.5,64.5,0,0,0,500,435.5Zm0,112.88A48.38,48.38,0,1,1,548.38,500,48.379,48.379,0,0,1,500,548.38Z" transform="translate(-395 -395)"/><path class="cls-1" d="M500,395A105,105,0,1,0,605,500,105,105,0,0,0,500,395Zm0,183.75A78.75,78.75,0,1,1,578.75,500,78.74,78.74,0,0,1,500,578.75Z" transform="translate(-395 -395)"/><path class="cls-2" d="M500,421.25A78.75,78.75,0,1,0,578.75,500,78.74,78.74,0,0,0,500,421.25Zm0,143.25A64.5,64.5,0,1,1,564.5,500,64.5,64.5,0,0,1,500,564.5Z" transform="translate(-395 -395)"/><path class="cls-2" d="M500,451.62A48.38,48.38,0,1,0,548.38,500,48.379,48.379,0,0,0,500,451.62ZM500,540a40,40,0,1,1,40-40A40,40,0,0,1,500,540Z" transform="translate(-395 -395)"/><circle class="cls-2" cx="105" cy="105" r="30"/></g></g></svg>