<svg xmlns="http://www.w3.org/2000/svg" viewBox="0 0 640 100"><defs><style>.cls-1,.cls-3{fill:#121221;}.cls-2{fill:#366ce1;}.cls-2,.cls-3{opacity:0.5;}</style></defs><title>omnia</title><g id="Слой_2" data-name="Слой 2"><g id="Work_space" data-name="Work space"><g id="omnia"><polygon class="cls-1" points="370 20 370 80 390 80 390 100 330 100 330 80 350 80 350 20 330 20 330 0 390 0 390 20 370 20"/><polygon class="cls-1" points="320 0 320 100 300 100 240 30.59 240 100 220 100 220 0 240 0 300 69.41 300 0 320 0"/><polygon class="cls-1" points="210 0 210 100 190 100 190 30.59 173.2 50.05 159.99 65.36 146.78 50.05 130 30.62 130 100 110 100 110 0 130 0 130 0.01 159.99 34.75 189.98 0 210 0"/><path class="cls-1" d="M50,0a50,50,0,1,0,50,50A50.005,50.005,0,0,0,50,0Zm0,80A30,30,0,1,1,80,50,30,30,0,0,1,50,80Z"/><path class="cls-1" d="M460.77,1.95,459.99,0H440.01l-.78,1.94L400,100h21.55l11.2-28h34.5l11.2,28H500ZM440.75,52,450,28.87,459.25,52Z"/><path class="cls-2" d="M605,97.7A50,50,0,1,1,590,0a49.54,49.54,0,0,1,15,2.3,50,50,0,0,0,0,95.4Z"/><path class="cls-3" d="M640,50a50.008,50.008,0,0,1-65,47.7,50,50,0,0,0,0-95.4A50.008,50.008,0,0,1,640,50Z"/></g></g></g></svg>