<svg xmlns="http://www.w3.org/2000/svg" viewBox="0 0 857.578 158.574"><defs><style>.cls-1{fill:#121221;}.cls-2{fill:#366ce1;}</style></defs><title>on fleet</title><g id="Слой_2" data-name="Слой 2"><g id="Work_space" data-name="Work space"><g id="on_fleet" data-name="on fleet"><path class="cls-1" d="M50,29.287a50,50,0,1,0,50,50A50.005,50.005,0,0,0,50,29.287Zm0,80a30,30,0,1,1,30-30A30,30,0,0,1,50,109.287Z"/><path class="cls-2" d="M329.793,124.937A35.712,35.712,0,0,1,277,93.573V29.287h14.286V93.573a21.434,21.434,0,0,0,27.65,20.507Z"/><path class="cls-2" d="M379.421,100.715a35.69,35.69,0,0,0,0-14.285,35.714,35.714,0,0,0-69.985,0,35.69,35.69,0,0,0,0,14.285,35.7,35.7,0,0,0,59.05,19.243q-5.69-4.552-11.386-9.107a21.422,21.422,0,0,1-32.871-10.136ZM344.429,72.144a21.414,21.414,0,0,1,20.2,14.286h-40.4A21.412,21.412,0,0,1,344.429,72.144Z"/><path class="cls-2" d="M436.993,100.715a35.739,35.739,0,0,0,0-14.285,35.714,35.714,0,0,0-69.986,0,35.739,35.739,0,0,0,0,14.285,35.7,35.7,0,0,0,59.05,19.243q-5.69-4.552-11.386-9.107A21.422,21.422,0,0,1,381.8,100.715ZM402,72.144A21.413,21.413,0,0,1,422.2,86.43H381.8A21.413,21.413,0,0,1,402,72.144Z"/><path class="cls-1" d="M181,79.287v50H161v-50a30,30,0,0,0-60,0v50H81v-50a50,50,0,0,1,100,0Z"/><path class="cls-2" d="M494.958,93.573a35.715,35.715,0,0,1-71.429,0V29.287h14.286V65.008a35.516,35.516,0,0,1,21.428-7.15V72.144a21.429,21.429,0,1,0,21.429,21.429Z"/><path class="cls-2" d="M291.429,65A35.715,35.715,0,0,0,220,65v64.286h14.286V93.565a35.516,35.516,0,0,0,21.428,7.15V86.43A21.429,21.429,0,1,1,277.143,65Z"/><path class="cls-2" d="M828.789,146.955c-35.68,25.84-110.87,9.74-150-60,.19-.31.38-.62.58-.93,29.41,51.3,85.07,63.05,111.58,43.86,30.29-21.95,27.07-87.64,0-104.69-18.96-11.94-55.24-3.53-86.79,27.57,44-48.87,97.53-62.88,124.63-45.81C864.989,29.745,869.3,117.605,828.789,146.955Z"/><path class="cls-2" d="M678.789,86.955c-39.13,69.74-114.32,85.84-150,60-40.51-29.35-36.2-117.21,0-140,27.1-17.07,80.63-3.06,124.63,45.81-31.55-31.1-67.83-39.51-86.79-27.57-27.07,17.05-30.29,82.74,0,104.69,26.51,19.19,82.17,7.44,111.58-43.86C678.409,86.335,678.6,86.645,678.789,86.955Z"/><path class="cls-2" d="M678.209,86.025c-29.41,51.3-85.07,63.05-111.58,43.86-30.29-21.95-27.07-87.64,0-104.69,18.96-11.94,55.24-3.53,86.79,27.57A229.419,229.419,0,0,1,678.209,86.025Z"/><path class="cls-2" d="M790.949,129.885c-26.51,19.19-82.17,7.44-111.58-43.86a229.419,229.419,0,0,1,24.79-33.26c31.55-31.1,67.83-39.51,86.79-27.57C818.019,42.245,821.239,107.935,790.949,129.885Z"/><path class="cls-1" d="M678.789,85.015c-.19.34-.38.68-.58,1.01-29.41,51.3-85.07,63.05-111.58,43.86-30.29-21.95-27.07-87.64,0-104.69,18.96-11.94,55.24-3.53,86.79,27.57A168.862,168.862,0,0,1,678.789,85.015Z"/><path class="cls-1" d="M790.949,129.885c-26.51,19.19-82.17,7.44-111.58-43.86-.2-.33-.39-.67-.58-1.01a168.862,168.862,0,0,1,25.37-32.25c31.55-31.1,67.83-39.51,86.79-27.57C818.019,42.245,821.239,107.935,790.949,129.885Z"/></g></g></g></svg>