<svg xmlns="http://www.w3.org/2000/svg" viewBox="0 0 860 310"><defs><style>.cls-1{fill:#366ce1;}.cls-2,.cls-3{fill:#121221;}.cls-2{opacity:0.62;}.cls-3{opacity:0.38;}</style></defs><title>one health company</title><g id="Слой_2" data-name="Слой 2"><g id="Work_space" data-name="Work space"><g id="one_health_company" data-name="one health company"><polygon class="cls-1" points="100 100 100 200 80 200 20 130.59 20 200 0 200 0 100 20 100 80 169.41 80 100 100 100"/><polygon class="cls-1" points="750.05 210 750.05 310 730.05 310 670.05 240.59 670.05 310 650.05 310 650.05 210 670.05 210 730.05 279.41 730.05 210 750.05 210"/><polygon class="cls-1" points="430 210 430 310 410 310 410 240.59 393.2 260.05 379.99 275.36 366.78 260.05 350 240.62 350 310 330 310 330 210 350 210 350 210.01 379.99 244.75 409.98 210 430 210"/><polygon class="cls-1" points="822.83 256.46 820 260 820.05 260 820.05 310 800.05 310 800.05 260 797.22 256.46 760.05 210 785.66 210 810.02 240.45 834.38 210 860 210 822.83 256.46"/><polygon class="cls-1" points="750 100 750 200 730 200 730 160 670 160 670 200 650 200 650 100 670 100 670 140 730 140 730 100 750 100"/><polygon class="cls-1" points="210 100 210 200 190 200 190 160 130 160 130 200 110 200 110 100 130 100 130 140 190 140 190 100 210 100"/><polygon class="cls-1" points="240 120 240 140 320 140 320 160 240 160 240 180 320 180 320 200 220 200 220 100 320 100 320 120 240 120"/><polygon class="cls-1" points="20 230 20 250 100 250 100 270 20 270 20 290 100 290 100 310 0 310 0 210 100 210 100 230 20 230"/><polygon class="cls-1" points="540 180 540 200 440 200 440 100 460 100 460 180 540 180"/><path class="cls-1" d="M270,210a50,50,0,1,0,50,50A50.005,50.005,0,0,0,270,210Zm0,80a30,30,0,1,1,30-30A30,30,0,0,1,270,290Z"/><path class="cls-1" d="M100,50a50,50,0,1,0-50,50A50.005,50.005,0,0,0,100,50ZM20,50A30,30,0,1,1,50,80,30,30,0,0,1,20,50Z"/><path class="cls-1" d="M188.28,270h20.71a50,50,0,1,1,0-20H188.28a30,30,0,1,0,0,20Z"/><path class="cls-1" d="M390.77,101.95l-.78-1.95H370.01l-.78,1.94L330,200h21.55l11.2-28h34.5l11.2,28H430ZM370.75,152,380,128.87,389.25,152Z"/><path class="cls-1" d="M600.82,211.95l-.78-1.95H580.06l-.78,1.94L540.05,310H561.6l11.2-28h34.5l11.2,28h21.55ZM580.8,262l9.25-23.13L599.3,262Z"/><path class="cls-1" d="M510,210H440V310h20V270h50a30,30,0,0,0,0-60Zm0,40H460V230h50a10,10,0,0,1,0,20Z"/><polygon class="cls-2" points="750.05 210 750.05 310 730.05 310 670.05 240.59 670.05 310 650.05 310 650.05 210 670.05 210 730.05 279.41 730.05 210 750.05 210"/><polygon class="cls-2" points="430 210 430 310 410 310 410 240.59 393.2 260.05 379.99 275.36 366.78 260.05 350 240.62 350 310 330 310 330 210 350 210 350 210.01 379.99 244.75 409.98 210 430 210"/><polygon class="cls-2" points="822.83 256.46 820 260 820.05 260 820.05 310 800.05 310 800.05 260 797.22 256.46 760.05 210 785.66 210 810.02 240.45 834.38 210 860 210 822.83 256.46"/><path class="cls-2" d="M270,210a50,50,0,1,0,50,50A50.005,50.005,0,0,0,270,210Zm0,80a30,30,0,1,1,30-30A30,30,0,0,1,270,290Z"/><path class="cls-2" d="M188.28,270h20.71a50,50,0,1,1,0-20H188.28a30,30,0,1,0,0,20Z"/><path class="cls-2" d="M600.82,211.95l-.78-1.95H580.06l-.78,1.94L540.05,310H561.6l11.2-28h34.5l11.2,28h21.55ZM580.8,262l9.25-23.13L599.3,262Z"/><path class="cls-2" d="M510,210H440V310h20V270h50a30,30,0,0,0,0-60Zm0,40H460V230h50a10,10,0,0,1,0,20Z"/><polygon class="cls-1" points="640 100 640 120 600 120 600 200 580 200 580 120 540 120 540 100 640 100"/><polygon class="cls-3" points="750 100 750 200 730 200 730 160 670 160 670 200 650 200 650 100 670 100 670 140 730 140 730 100 750 100"/><polygon class="cls-3" points="210 100 210 200 190 200 190 160 130 160 130 200 110 200 110 100 130 100 130 140 190 140 190 100 210 100"/><polygon class="cls-3" points="240 120 240 140 320 140 320 160 240 160 240 180 320 180 320 200 220 200 220 100 320 100 320 120 240 120"/><polygon class="cls-3" points="540 180 540 200 440 200 440 100 460 100 460 180 540 180"/><path class="cls-3" d="M390.77,101.95l-.78-1.95H370.01l-.78,1.94L330,200h21.55l11.2-28h34.5l11.2,28H430ZM370.75,152,380,128.87,389.25,152Z"/><polygon class="cls-3" points="640 100 640 120 600 120 600 200 580 200 580 120 540 120 540 100 640 100"/></g></g></g></svg>