<svg xmlns="http://www.w3.org/2000/svg" viewBox="0 0 871.031 161.8"><defs><style>.cls-1,.cls-3,.cls-4{fill:#366ce1;}.cls-2{fill:#121221;}.cls-3{opacity:0.38;}.cls-4{opacity:0.62;}</style></defs><title>onedrive</title><g id="Слой_2" data-name="Слой 2"><g id="Work_space" data-name="Work space"><g id="onedrive"><path class="cls-1" d="M321.8,61.8a50,50,0,1,0,50,50A50.005,50.005,0,0,0,321.8,61.8Zm0,80a30,30,0,1,1,30-30A30,30,0,0,1,321.8,141.8Z"/><path class="cls-1" d="M528.093,133.8a35.007,35.007,0,0,0,0-14,35,35,0,0,0-68.586,0,35.007,35.007,0,0,0,0,14,34.991,34.991,0,0,0,57.869,18.858q-5.575-4.463-11.158-8.925A20.995,20.995,0,0,1,474,133.8Zm-34.293-28a20.985,20.985,0,0,1,19.8,14H474A20.985,20.985,0,0,1,493.8,105.8Z"/><path class="cls-1" d="M451.8,126.8v35h-14v-35a21,21,0,0,0-42,0v35h-14v-70h14v7.007a34.993,34.993,0,0,1,56,27.993Z"/><path class="cls-2" d="M589.011,61.8h-50v100h50a50,50,0,0,0,0-100Zm0,80h-30v-60h30a30,30,0,0,1,0,60Z"/><polygon class="cls-2" points="801.017 92.569 773.865 160.464 773.332 161.8 759.485 161.8 758.952 160.464 731.8 92.569 746.712 92.569 766.408 141.82 786.112 92.569 801.017 92.569"/><rect class="cls-2" x="711.8" y="92.569" width="13.846" height="69.231"/><rect class="cls-2" x="711.8" y="71.8" width="13.846" height="13.846"/><path class="cls-2" d="M870.332,134.108a34.633,34.633,0,0,0,0-13.846,34.616,34.616,0,0,0-67.833,0,34.633,34.633,0,0,0,0,13.846,34.606,34.606,0,0,0,57.233,18.65q-5.514-4.413-11.035-8.826a20.764,20.764,0,0,1-31.86-9.824Zm-33.917-27.693a20.755,20.755,0,0,1,19.579,13.847H816.837A20.754,20.754,0,0,1,836.415,106.415Z"/><path class="cls-2" d="M702.088,97.505q-3.561,5.94-7.124,11.873a20.762,20.762,0,0,0-31.451,17.807V161.8H649.667V92.569h13.846V99.5a34.586,34.586,0,0,1,38.575-1.994Z"/><circle class="cls-3" cx="30.9" cy="130.9" r="30.9"/><circle class="cls-3" cx="191.8" cy="111.8" r="50"/><circle class="cls-4" cx="112.7" cy="80.9" r="80.9"/></g></g></g></svg>