<svg xmlns="http://www.w3.org/2000/svg" viewBox="0 0 760 291.421"><defs><style>.cls-1{fill:#121221;}.cls-2{fill:#366ce1;}</style></defs><title>onesoftconnect</title><g id="Complete"><g id="onesoft_connect" data-name="onesoft connect"><path class="cls-1" d="M470.145,181.214a27.442,27.442,0,0,1,21.22,10h-23.72v.18a17.5,17.5,0,0,0,0,34.64v.18h23.72a27.5,27.5,0,1,1-21.22-45Z" transform="translate(-120 -158.579)"/><path class="cls-2" d="M507.355,158.579a50,50,0,1,1-39.99,80h39.99a30,30,0,0,0,0-60h-39.99A49.891,49.891,0,0,1,507.355,158.579Z" transform="translate(-120 -158.579)"/><polygon class="cls-2" points="570 151.421 570 171.421 630 171.421 630 191.421 570 191.421 570 231.421 550 231.421 550 131.421 650 131.421 650 151.421 570 151.421"/><polygon class="cls-2" points="210 131.421 210 231.421 190 231.421 130 162.011 130 231.421 110 231.421 110 131.421 130 131.421 190 200.831 190 131.421 210 131.421"/><path class="cls-2" d="M470,320a10,10,0,0,0,10,10h40a30,30,0,0,1,0,60H450V370h70a10,10,0,0,0,0-20H480a30,30,0,0,1,0-60h70v20H480A10,10,0,0,0,470,320Z" transform="translate(-120 -158.579)"/><polygon class="cls-2" points="240 151.421 240 171.421 320 171.421 320 191.421 240 191.421 240 211.421 320 211.421 320 231.421 220 231.421 220 131.421 320 131.421 320 151.421 240 151.421"/><path class="cls-2" d="M170,290a50,50,0,1,0,50,50A50.005,50.005,0,0,0,170,290Zm0,80a30,30,0,1,1,30-30A30,30,0,0,1,170,370Z" transform="translate(-120 -158.579)"/><path class="cls-2" d="M610,290a50,50,0,1,0,50,50A50.005,50.005,0,0,0,610,290Zm0,80a30,30,0,1,1,30-30A30,30,0,0,1,610,370Z" transform="translate(-120 -158.579)"/><polygon class="cls-2" points="760 131.421 760 151.421 720 151.421 720 231.421 700 231.421 700 151.421 660 151.421 660 131.421 760 131.421"/><path class="cls-1" d="M354.905,433.43q3.128,4.11,6.245,8.215a25,25,0,1,1,0-33.29q-3.12,4.11-6.245,8.215a15,15,0,1,0,0,16.86Z" transform="translate(-120 -158.579)"/><path class="cls-1" d="M619.905,433.43q3.128,4.11,6.245,8.215a25,25,0,1,1,0-33.29q-3.12,4.11-6.245,8.215a15,15,0,1,0,0,16.86Z" transform="translate(-120 -158.579)"/><polygon class="cls-1" points="347.5 241.421 347.5 291.421 337.5 291.421 307.5 256.716 307.5 291.421 297.5 291.421 297.5 241.421 307.5 241.421 337.5 276.126 337.5 241.421 347.5 241.421"/><polygon class="cls-1" points="402.5 241.421 402.5 291.421 392.5 291.421 362.5 256.716 362.5 291.421 352.5 291.421 352.5 241.421 362.5 241.421 392.5 276.126 392.5 241.421 402.5 241.421"/><polygon class="cls-1" points="417.5 251.421 417.5 261.421 457.5 261.421 457.5 271.421 417.5 271.421 417.5 281.421 457.5 281.421 457.5 291.421 407.5 291.421 407.5 241.421 457.5 241.421 457.5 251.421 417.5 251.421"/><path class="cls-1" d="M387.5,400a25,25,0,1,0,25,25A25,25,0,0,0,387.5,400Zm0,40a15,15,0,1,1,15-15A15,15,0,0,1,387.5,440Z" transform="translate(-120 -158.579)"/><polygon class="cls-1" points="562.5 241.421 562.5 251.421 542.5 251.421 542.5 291.421 532.5 291.421 532.5 251.421 512.5 251.421 512.5 241.421 562.5 241.421"/></g></g></svg>