<svg id="Complete" xmlns="http://www.w3.org/2000/svg" viewBox="0 0 860 280"><defs><style>.cls-1{fill:#1c1e20;}.cls-2{fill:#121221;}.cls-3{fill:#366ce1;}</style></defs><title>openprise</title><g id="openprise"><path class="cls-1" d="M120,430a50,50,0,1,0,50,50A50.005,50.005,0,0,0,120,430Zm0,80a30,30,0,1,1,30-30A30,30,0,0,1,120,510Z" transform="translate(-70 -290)"/><path class="cls-2" d="M530,430a50.005,50.005,0,0,0-50,50v90h20V519.99A50,50,0,1,0,530,430Zm0,80a30,30,0,1,1,30-30A30,30,0,0,1,530,510Z" transform="translate(-70 -290)"/><path class="cls-1" d="M220,430a50.005,50.005,0,0,0-50,50v90h20V519.99A50,50,0,1,0,220,430Zm0,80a30,30,0,1,1,30-30A30,30,0,0,1,220,510Z" transform="translate(-70 -290)"/><path class="cls-1" d="M369,470a50.014,50.014,0,1,0-21.43,51.71l-14.64-14.63A30.027,30.027,0,0,1,291.71,490H369a50.5,50.5,0,0,0,0-20Zm-77.29,0a30.008,30.008,0,0,1,56.58,0Z" transform="translate(-70 -290)"/><path class="cls-2" d="M929,470a50.014,50.014,0,1,0-21.43,51.71l-14.64-14.63A30.027,30.027,0,0,1,851.71,490H929a50.5,50.5,0,0,0,0-20Zm-77.29,0a30.008,30.008,0,0,1,56.58,0Z" transform="translate(-70 -290)"/><path class="cls-1" d="M470,480v50H450V480a30,30,0,0,0-60,0v50H370V430h20v10.01A49.99,49.99,0,0,1,470,480Z" transform="translate(-70 -290)"/><path class="cls-2" d="M680,430v20H630a30,30,0,0,0-30,30v50H580V430h20v10.01A49.726,49.726,0,0,1,630,430Z" transform="translate(-70 -290)"/><rect class="cls-2" x="620" y="170" width="20" height="70"/><circle class="cls-2" cx="630" cy="150" r="10"/><path class="cls-2" d="M741.72,470h77.27a50.01,50.01,0,0,1,0,20A50.015,50.015,0,0,1,770,530H720V510h50a29.979,29.979,0,0,0,28.28-20H721.01a50.01,50.01,0,0,1,0-20A50.015,50.015,0,0,1,770,430h50v20H770A29.979,29.979,0,0,0,741.72,470Z" transform="translate(-70 -290)"/><path class="cls-2" d="M550,350a50,50,0,1,1-80-39.99V350a30,30,0,0,0,60,0V310.01A49.891,49.891,0,0,1,550,350Z" transform="translate(-70 -290)"/><path class="cls-3" d="M530,290v20.01a49.96,49.96,0,0,0-60,0V290Z" transform="translate(-70 -290)"/></g></svg>