<svg xmlns="http://www.w3.org/2000/svg" viewBox="0 0 400 600"><defs><style>.cls-1{fill:#366ce1;}.cls-2{fill:#121222;}</style></defs><title>openKM</title><g id="complete"><g id="OpenKM"><g id="OpenKM-2" data-name="OpenKM"><path class="cls-1" d="M665,480.291c-.552-89.787-68.627-162.815-150-170-91.271-8.059-178.529,68.55-180,170l100,40c-1.411-45.869,16.322-89.594,50-110C535.97,379.407,622.4,402.582,665,480.291Z" transform="translate(-300 -200)"/><path class="cls-1" d="M335,519.709c.552,89.787,68.627,162.815,150,170,91.271,8.059,178.529-68.55,180-170l-100-40c1.411,45.869-16.322,89.594-50,110C464.03,620.593,377.6,597.418,335,519.709Z" transform="translate(-300 -200)"/></g><circle class="cls-2" cx="200" cy="300" r="25"/></g><path class="cls-1" d="M350,200a50,50,0,1,0,50,50A50.005,50.005,0,0,0,350,200Zm0,80a30,30,0,1,1,30-30A30,30,0,0,1,350,280Z" transform="translate(-300 -200)"/><path class="cls-1" d="M470,200H400V300h20V260h50a30,30,0,0,0,0-60Zm7.07,37.07A9.969,9.969,0,0,1,470,240H420V220h50a10,10,0,0,1,7.07,17.07Z" transform="translate(-300 -200)"/><rect class="cls-1" x="200" width="20" height="100"/><rect class="cls-1" x="300" width="20" height="100"/><rect class="cls-1" x="380" width="20" height="100"/><rect class="cls-1" x="200" width="100" height="20"/><rect class="cls-1" x="200" y="40" width="100" height="20"/><rect class="cls-1" x="200" y="80" width="100" height="20"/><ellipse class="cls-1" cx="650" cy="250" rx="10.99" ry="90.99" transform="translate(-311.17 268.757) rotate(-39.345)"/><rect class="cls-2" x="100" y="500" width="20" height="100"/><rect class="cls-2" x="200" y="500" width="20" height="100"/><rect class="cls-2" x="280" y="500" width="20" height="100"/><path class="cls-2" d="M560,800H540L500,700h20l30,80,30-80h20Z" transform="translate(-300 -200)"/><path class="cls-2" d="M420,740l50-40h30l-60,50,60,50H470l-50-40Z" transform="translate(-300 -200)"/></g></svg>