<svg xmlns="http://www.w3.org/2000/svg" viewBox="0 0 839.98 100"><defs><style>.cls-1{fill:#366ce1;}.cls-2{fill:#121221;}</style></defs><title>open gov</title><g id="Слой_2" data-name="Слой 2"><g id="Work_space" data-name="Work space"><g id="open_gov" data-name="open gov"><polygon class="cls-1" points="430 0 430 100 410 100 350 30.59 350 100 330 100 330 0 350 0 410 69.41 410 0 430 0"/><polygon class="cls-1" points="240 20 240 40 320 40 320 60 240 60 240 80 320 80 320 100 220 100 220 0 320 0 320 20 240 20"/><path class="cls-2" d="M690,0a50,50,0,1,0,50,50A50.005,50.005,0,0,0,690,0Zm0,80a30,30,0,1,1,30-30A30,30,0,0,1,690,80Z"/><path class="cls-1" d="M50,0a50,50,0,1,0,50,50A50.005,50.005,0,0,0,50,0Zm0,80A30,30,0,1,1,80,50,30,30,0,0,1,50,80Z"/><path class="cls-2" d="M630,40V50a49.16,49.16,0,0,1-1.01,10,50.013,50.013,0,1,1-13.64-45.35L601.21,28.79A30,30,0,1,0,608.28,60H580V40Z"/><path class="cls-1" d="M180,0H110V100h20V60h50a30,30,0,0,0,0-60Zm0,40H130V20h50a10,10,0,0,1,0,20Z"/><polygon class="cls-2" points="839.98 0 800.76 98.07 799.99 100 779.99 100 779.22 98.07 740 0 761.54 0 789.99 71.14 818.45 0 839.98 0"/></g></g></g></svg>