<svg xmlns="http://www.w3.org/2000/svg" viewBox="0 0 610 220"><defs><style>.cls-1{fill:#366ce1;}.cls-2,.cls-3{fill:#121221;}.cls-2{opacity:0.38;}</style></defs><title>open bravo</title><g id="Слой_2" data-name="Слой 2"><g id="Work_space" data-name="Work space"><g id="open_bravo" data-name="open bravo"><path class="cls-1" d="M85.355,74.646a50,50,0,1,1-70.71,0L28.787,88.788a30,30,0,1,0,42.426,0Z"/><path class="cls-2" d="M14.642,145.354a50,50,0,1,1,70.711,0L71.211,131.212a30,30,0,1,0-42.426,0Z"/><path class="cls-3" d="M560,120a50,50,0,1,0,50,50A50.005,50.005,0,0,0,560,120Zm0,90a40,40,0,1,1,40-40A40,40,0,0,1,560,210Z"/><path class="cls-1" d="M210,50A50,50,0,1,1,155,.25V10.31a40,40,0,1,0,10,0V.25A50.014,50.014,0,0,1,210,50Z"/><polygon class="cls-1" points="340 10 340 45 430 45 430 55 340 55 340 90 430 90 430 100 330 100 330 0 430 0 430 10 340 10"/><path class="cls-3" d="M409.72,175l-4.51-10L385.5,121.27l.01-.01-.49-1.08h-.01l-.08-.18h-9.84l-.08.18v.02l-.47,1.05h-.01L354.81,165l-4.51,10-20.28,45h10.97l20.28-45h37.48l20.28,45H430Zm-19.71-2.96-.02-.04h.02ZM365.78,165l14.23-31.58L394.25,165Z"/><path class="cls-3" d="M306.57,175A29.994,29.994,0,0,0,290,120H220V220h10V180h60a19.994,19.994,0,0,1,20,20v20h10V200A29.923,29.923,0,0,0,306.57,175ZM280,172.04l-.02-.04H280ZM290,170H230V130h60a20,20,0,0,1,0,40Z"/><path class="cls-1" d="M290,0H220V100h10V60h60a30,30,0,0,0,0-60Zm0,50H230V10h60a20,20,0,0,1,0,40Z"/><polygon class="cls-1" points="540 0 540 100 530.07 100 530 99.92 450 14.59 450 100 440 100 440 0 450.02 0 530 85.3 530 0 540 0"/><polygon class="cls-3" points="509.99 120 465.47 218.78 464.93 220 455.05 220 454.51 218.8 410 120 420.97 120 459.99 206.62 499.02 120 509.99 120"/><path class="cls-3" d="M198.31,170A27.493,27.493,0,0,0,190,121.05a26.911,26.911,0,0,0-7.5-1.05H110V220h72.5a26.911,26.911,0,0,0,7.5-1.05A27.483,27.483,0,0,0,198.31,170ZM120,130h62.5a17.5,17.5,0,0,1,0,35H120Zm62.5,80H120V175h62.5a17.5,17.5,0,0,1,0,35Z"/></g></g></g></svg>