<svg xmlns="http://www.w3.org/2000/svg" viewBox="0 0 850 100"><defs><style>.cls-1{fill:#366ce1;}</style></defs><title>optimonk</title><g id="Слой_2" data-name="Слой 2"><g id="Work_space" data-name="Work space"><g id="optimonk"><polygon class="cls-1" points="380 20 380 80 400 80 400 100 340 100 340 80 360 80 360 20 340 20 340 0 400 0 400 20 380 20"/><polygon class="cls-1" points="740 0 740 100 720 100 660 30.59 660 100 640 100 640 0 660 0 720 69.41 720 0 740 0"/><polygon class="cls-1" points="520 0 520 100 500 100 500 30.59 483.2 50.05 469.99 65.36 456.78 50.05 440 30.62 440 100 420 100 420 0 440 0 440 0.01 469.99 34.75 499.98 0 520 0"/><path class="cls-1" d="M580,0a50,50,0,1,0,50,50A50.005,50.005,0,0,0,580,0Zm0,80a30,30,0,1,1,30-30A30,30,0,0,1,580,80Z"/><polygon class="cls-1" points="850 99.99 850 100 820.13 100 779.51 63.43 770 72 770 100 750 100 750 0 770 0 770 45.09 779.51 36.52 820.07 0 849.97 0 794.46 49.98 850 99.99"/><path class="cls-1" d="M50,0a50,50,0,1,0,50,50A50.005,50.005,0,0,0,50,0Zm0,80A30,30,0,1,1,80,50,30,30,0,0,1,50,80Z"/><path class="cls-1" d="M180,0H110V100h20V60h50a30,30,0,0,0,0-60Zm0,40H130V20h50a10,10,0,0,1,0,20Z"/><polygon class="cls-1" points="320 0 320 20 280 20 280 100 260 100 260 20 220 20 220 0 320 0"/></g></g></g></svg>