<svg xmlns="http://www.w3.org/2000/svg" viewBox="0 0 480 310"><defs><style>.cls-1{fill:#366ce1;}</style></defs><title>optimity</title><g id="Complete"><g id="optimity"><path class="cls-1" d="M555,449.75a48.521,48.521,0,0,1-5,.25,50,50,0,0,1,0-100,48.521,48.521,0,0,1,5,.25,50,50,0,0,0,0,99.5Z" transform="translate(-260 -350)"/><path class="cls-1" d="M500,400a50.005,50.005,0,0,1-50,50,48.521,48.521,0,0,1-5-.25,50,50,0,0,0,0-99.5,48.521,48.521,0,0,1,5-.25A50.005,50.005,0,0,1,500,400Z" transform="translate(-260 -350)"/><path class="cls-1" d="M500,405a50.005,50.005,0,0,1-50-50,48.521,48.521,0,0,1,.25-5,50,50,0,0,0,99.5,0,48.521,48.521,0,0,1,.25,5A50.005,50.005,0,0,1,500,405Z" transform="translate(-260 -350)"/><path class="cls-1" d="M500,395a50.005,50.005,0,0,1,50,50,48.521,48.521,0,0,1-.25,5,50,50,0,0,0-99.5,0,48.521,48.521,0,0,1-.25-5A50.005,50.005,0,0,1,500,395Z" transform="translate(-260 -350)"/><path class="cls-1" d="M300,510a40,40,0,1,0,40,40A40,40,0,0,0,300,510Zm0,70a30,30,0,1,1,30-30A30,30,0,0,1,300,580Z" transform="translate(-260 -350)"/><path class="cls-1" d="M500,550a40,40,0,0,1-80,0V480h10v43.56A39.845,39.845,0,0,1,460,510v10a30,30,0,1,0,30,30Z" transform="translate(-260 -350)"/><path class="cls-1" d="M740,510V620a40,40,0,0,1-80,0h10a30,30,0,0,0,60,0V576.44a39.945,39.945,0,0,1-60,0,39.229,39.229,0,0,1-4.63-6.44A39.7,39.7,0,0,1,660,550V480h10v43.56A39.845,39.845,0,0,1,700,510v10a30,30,0,1,0,30,30V510Z" transform="translate(-260 -350)"/><path class="cls-1" d="M370,510a40,40,0,1,0,40,40A40,40,0,0,0,370,510Zm0,70a30,30,0,1,1,30-30A30,30,0,0,1,370,580Z" transform="translate(-260 -350)"/><rect class="cls-1" x="70" y="200" width="10" height="110"/><path class="cls-1" d="M495,510a15,15,0,1,0,15,15A15.005,15.005,0,0,0,495,510Zm0,20a5,5,0,1,1,5-5A5,5,0,0,1,495,530Z" transform="translate(-260 -350)"/><path class="cls-1" d="M635,510a15,15,0,1,0,15,15A15.005,15.005,0,0,0,635,510Zm0,20a5,5,0,1,1,5-5A5,5,0,0,1,635,530Z" transform="translate(-260 -350)"/><path class="cls-1" d="M640,550a40.035,40.035,0,0,1-50,38.74V550a30.021,30.021,0,0,0-30-30,28.565,28.565,0,0,0-3.35.19A39.872,39.872,0,0,1,570,550v40H560V550a29.951,29.951,0,0,0-15-25.97,29.432,29.432,0,0,0-11.65-3.84A28.565,28.565,0,0,0,530,520v70H520V510h10a39.577,39.577,0,0,1,15,2.92A40.019,40.019,0,0,1,600,550v30a30,30,0,0,0,30-30Z" transform="translate(-260 -350)"/><path class="cls-1" d="M600,590H590v-1.26A40.177,40.177,0,0,0,600,590Z" transform="translate(-260 -350)"/></g></g></svg>