<svg id="Complete" xmlns="http://www.w3.org/2000/svg" viewBox="0 0 1170 330"><defs><style>.cls-1{fill:#1c1e20;}.cls-2{fill:#e1dfdf;}.cls-3{fill:none;stroke:#366ce1;stroke-miterlimit:10;stroke-width:2px;}.cls-4{fill:#121221;}.cls-5{fill:#366ce1;}</style></defs><title>origin pro</title><g id="originPRO"><rect class="cls-1" width="300" height="300"/><rect class="cls-2" x="200" y="100" width="100" height="100"/><rect class="cls-2" x="100" y="100" width="100" height="100"/><rect class="cls-2" x="200" width="100" height="100"/><circle class="cls-2" cx="50" cy="250" r="30"/><circle class="cls-1" cx="150" cy="150" r="30"/><circle class="cls-1" cx="250" cy="150" r="30"/><circle class="cls-1" cx="250" cy="50" r="30"/><path class="cls-3" d="M-35,585,65,485H165V385" transform="translate(85 -335)"/><rect class="cls-4" x="680" y="110" width="20" height="20" rx="10"/><rect class="cls-4" x="820" y="110" width="20" height="20" rx="10"/><path class="cls-4" d="M295,385a50.005,50.005,0,0,0-50,50V535a50,50,0,0,0,100,0V435A50.005,50.005,0,0,0,295,385Zm0,180a30,30,0,0,1-30-30V435a30,30,0,0,1,60,0V535A30,30,0,0,1,295,565Z" transform="translate(85 -335)"/><path class="cls-5" d="M1035,385a50.005,50.005,0,0,0-50,50V535a50,50,0,0,0,100,0V435A50.005,50.005,0,0,0,1035,385Zm0,180a30,30,0,0,1-30-30V435a30,30,0,0,1,60,0V535A30,30,0,0,1,1035,565Z" transform="translate(85 -335)"/><path class="cls-5" d="M975,475V435a50.005,50.005,0,0,0-50-50H875V585h20V525h30a30,30,0,0,1,30,30v30h20V555a49.9,49.9,0,0,0-20.01-40A49.9,49.9,0,0,0,975,475Zm-20,0a30,30,0,0,1-30,30H895V405h30a30,30,0,0,1,30,30Z" transform="translate(85 -335)"/><path class="cls-5" d="M815,385H765V585h20V525h30a50.005,50.005,0,0,0,50-50V435A50.005,50.005,0,0,0,815,385Zm30,90a30,30,0,0,1-30,30H785V405h30a30,30,0,0,1,30,30Z" transform="translate(85 -335)"/><path class="cls-4" d="M575,445v10.01A49.99,49.99,0,0,0,495,495v40a49.992,49.992,0,0,0,79.99,40,.01.01,0,0,0,.01-.01V615a30,30,0,0,1-60,0H495a50,50,0,0,0,100,0V445Zm0,90a30,30,0,0,1-60,0V495a30,30,0,0,1,60,0Z" transform="translate(85 -335)"/><path class="cls-4" d="M455,495v10H435V495a30,30,0,0,0-60,0v90H355V445h20v10.01A49.99,49.99,0,0,1,455,495Z" transform="translate(85 -335)"/><rect class="cls-4" x="550" y="140" width="20" height="110"/><rect class="cls-4" x="690" y="140" width="20" height="110"/><path class="cls-4" d="M735,495v90H715V495a30,30,0,0,0-60,0v90H635V445h20v10.01A49.99,49.99,0,0,1,735,495Z" transform="translate(85 -335)"/></g></svg>