<svg id="Main" xmlns="http://www.w3.org/2000/svg" viewBox="0 0 80 77.14"><defs><style>.cls-1{fill:#366ce1;}.cls-2{fill:#121221;}</style></defs><title>osi</title><g id="OSI"><path class="cls-1" d="M402.46,458.53a21.708,21.708,0,0,1-6.61-4.39l-14.14,14.13a39.719,39.719,0,0,0,13.44,8.87l7.43-18.56ZM410,400a40,40,0,0,0-36.76,55.77l18.37-7.88A17.751,17.751,0,0,1,390,440c.319-8.7,7.731-20,20-20a20.015,20.015,0,0,1,18.39,27.88l18.36,7.87A39.964,39.964,0,0,0,410,400Zm7.42,58.57,7.43,18.57a39.9,39.9,0,0,0,13.43-8.86l-14.14-14.14A19.92,19.92,0,0,1,417.42,458.57Z" transform="translate(-370 -400)"/><circle class="cls-2" cx="40" cy="40" r="10"/></g></svg>