<svg xmlns="http://www.w3.org/2000/svg" viewBox="0 0 430 100"><defs><style>.cls-1,.cls-3,.cls-4{fill:#121221;}.cls-2{fill:#366ce1;}.cls-3{opacity:0.62;}.cls-4{opacity:0.38;}</style></defs><title>osmo</title><g id="Слой_2" data-name="Слой 2"><g id="Work_space" data-name="Work space"><g id="osmo"><polygon class="cls-1" points="320 0 320 100 300 100 300 30.59 283.2 50.05 269.99 65.36 256.78 50.05 240 30.62 240 100 220 100 220 0 240 0 240 0.01 269.99 34.75 299.98 0 320 0"/><path class="cls-1" d="M130,30a10,10,0,0,0,10,10h40a30,30,0,0,1,0,60H110V80h70a10,10,0,0,0,0-20H140a30,30,0,0,1,0-60h70V20H140A10,10,0,0,0,130,30Z"/><path class="cls-2" d="M50,0a50,50,0,1,0,50,50A50.005,50.005,0,0,0,50,0Zm0,80A30,30,0,1,1,80,50,30,30,0,0,1,50,80Z"/><path class="cls-2" d="M380,0a50,50,0,1,0,50,50A50.005,50.005,0,0,0,380,0Zm0,80a30,30,0,1,1,30-30A30,30,0,0,1,380,80Z"/><path class="cls-3" d="M380,0a50,50,0,1,0,50,50A50.005,50.005,0,0,0,380,0Zm0,80a30,30,0,1,1,30-30A30,30,0,0,1,380,80Z"/><path class="cls-4" d="M50,0a50,50,0,1,0,50,50A50.005,50.005,0,0,0,50,0Zm0,80A30,30,0,1,1,80,50,30,30,0,0,1,50,80Z"/></g></g></g></svg>