<svg xmlns="http://www.w3.org/2000/svg" viewBox="0 0 860.14 100.309"><defs><style>.cls-1{fill:#366ce1;}.cls-2{fill:#121221;}</style></defs><title>outleef</title><g id="Слой_2" data-name="Слой 2"><g id="Work_space" data-name="Work space"><g id="outleef"><polygon class="cls-1" points="640 20.154 640 40.154 700 40.154 700 60.154 640 60.154 640 100.154 620 100.154 620 0.154 720 0.154 720 20.154 640 20.154"/><polygon class="cls-1" points="540 20.154 540 40.154 620 40.154 620 60.154 540 60.154 540 80.154 620 80.154 620 100.154 520 100.154 520 0.154 620 0.154 620 20.154 540 20.154"/><polygon class="cls-1" points="440 20.154 440 40.154 520 40.154 520 60.154 440 60.154 440 80.154 520 80.154 520 100.154 420 100.154 420 0.154 520 0.154 520 20.154 440 20.154"/><polygon class="cls-1" points="430 80.154 430 100.154 330 100.154 330 0.154 350 0.154 350 80.154 430 80.154"/><path class="cls-2" d="M50,.154a50,50,0,1,0,50,50A50.005,50.005,0,0,0,50,.154Zm0,80a30,30,0,1,1,30-30A30,30,0,0,1,50,80.154Z"/><polygon class="cls-2" points="300 0.154 300 20.154 260 20.154 260 100.154 240 100.154 240 20.154 200 20.154 200 0.154 300 0.154"/><path class="cls-2" d="M200,.154v50a50,50,0,0,1-100,0v-50h20v50a30,30,0,0,0,60,0v-50Z"/><path class="cls-2" d="M760.01,50.31c.04.02.07.04.11.06A49.684,49.684,0,0,0,766,73.75,49.574,49.574,0,0,1,760.01,50.31Z"/><path class="cls-2" d="M784.47,57a50.056,50.056,0,0,1-24.35-6.63v-.13a50.148,50.148,0,0,0,24.46,6.69C784.54,56.95,784.51,56.98,784.47,57Z"/><path class="cls-2" d="M855.21,28.62l-.06-.12-.21-.45c-.06-.11-.11-.21-.16-.32-.07-.14-.14-.27-.21-.41-.1-.2-.2-.4-.31-.6s-.2-.37-.3-.55c-.17-.3-.34-.6-.5-.9-.01-.01-.02-.03-.03-.04-.14-.24-.28-.49-.43-.73a1.983,1.983,0,0,0-.11-.2A50.092,50.092,0,0,0,837.95,8.54c-.3-.21-.62-.41-.93-.62-.74-.48-1.49-.93-2.26-1.36a50.007,50.007,0,0,0-49.52,0c-.77.43-1.52.88-2.26,1.36-.31.21-.63.41-.93.62-.34.23-.67.45-1.01.7l-.99.72c-.38.29-.76.58-1.13.87a49.091,49.091,0,0,0-5.22,4.87l-.02.02c-.2.21-.4.43-.6.64-.44.47-.86.95-1.27,1.44a5.915,5.915,0,0,0-.41.49c-.41.48-.79.96-1.17,1.45-.32.42-.63.85-.94,1.28-.21.29-.41.58-.61.88-.1.14-.2.29-.3.43a1.463,1.463,0,0,1-.09.13l-.54.81c-.39.6-.77,1.22-1.12,1.84a.338.338,0,0,0-.06.12.607.607,0,0,0-.07.1c-.15.28-.31.56-.46.84-.02.03-.03.06-.05.09-.18.32-.35.65-.52.98-.01.03-.03.06-.04.09-.05.09-.1.19-.15.29s-.1.19-.15.29c-.07.14-.13.27-.2.41a1.417,1.417,0,0,0-.08.18c-.15.3-.29.61-.43.92a49.393,49.393,0,0,0-4.32,17.56,49.837,49.837,0,0,1,6.6-21.68c.04-.07.09-.15.13-.22.26-.46.54-.92.82-1.37A49.666,49.666,0,0,1,784.87,7.07a50.177,50.177,0,0,0,6.44,24.41A49.689,49.689,0,0,0,809.5,50.01a.01.01,0,0,0,.01-.01,49.547,49.547,0,0,1-18.08-18.45,49.631,49.631,0,0,1,18.45,18.11c-.01.11-.01.23-.01.34h.26c0-.11,0-.23-.01-.34a49.681,49.681,0,0,1,18.44-18.11A49.521,49.521,0,0,1,810.49,50a.01.01,0,0,0,.01.01,49.614,49.614,0,0,0,18.19-18.53,50.069,50.069,0,0,0,6.44-24.41,49.845,49.845,0,0,1,17.22,16.64c.28.45.56.91.82,1.37.04.07.09.15.13.22a49.992,49.992,0,0,1,6.49,20.22A49.476,49.476,0,0,0,855.21,28.62ZM810,46.67A50,50,0,0,0,785.13,6.92,49.726,49.726,0,0,1,808.43.26q.72-.03,1.44-.03h.26q.72,0,1.44.03c.57.02,1.13.05,1.69.08a49.55,49.55,0,0,1,21.6,6.58A49.945,49.945,0,0,0,810,46.67Z"/><path class="cls-2" d="M859.88,50.24v.13A50.056,50.056,0,0,1,835.53,57c-.04-.03-.09-.05-.13-.08A50.213,50.213,0,0,0,859.88,50.24Z"/><path class="cls-2" d="M859.99,50.31A49.5,49.5,0,0,1,854,73.74a49.853,49.853,0,0,0,5.88-23.37C859.92,50.35,859.95,50.33,859.99,50.31Z"/><path class="cls-2" d="M809.75,50.44a.746.746,0,0,1-.12.07V50.5A.338.338,0,0,0,809.75,50.44Z"/><path class="cls-2" d="M810.13,50.37c0,1.15-.05,2.29-.13,3.42-.08-1.13-.13-2.27-.13-3.42a.826.826,0,0,0,.13-.07c.04-.03.09-.05.13-.08l.06-.03c.06.1.12.2.17.3A.847.847,0,0,1,810.13,50.37Z"/><path class="cls-2" d="M835.13,7.07a50.069,50.069,0,0,1-6.44,24.41A49.614,49.614,0,0,1,810.5,50.01c-.1.06-.2.12-.31.18.1-.06.2-.12.29-.18a.01.01,0,0,0,.01-.01,49.521,49.521,0,0,0,18.07-18.45A50.253,50.253,0,0,0,835.01,7C835.05,7.02,835.09,7.05,835.13,7.07Z"/><path class="cls-2" d="M818.79,54.3c.375.13.752.244,1.128.364-.026-.008-.052-.015-.078-.024C819.49,54.53,819.14,54.42,818.79,54.3Z"/><path class="cls-2" d="M820.67,54.89c-.18-.05-.36-.11-.53-.16.22.07.45.14.68.2C820.77,54.92,820.72,54.9,820.67,54.89Z"/><path class="cls-2" d="M821.08,55.01l-.09-.03a2.172,2.172,0,0,0,.24.07C821.18,55.04,821.13,55.02,821.08,55.01Z"/><path class="cls-2" d="M821.85,55.23c-.16-.04-.32-.09-.48-.14.12.03.25.07.37.1s.25.07.37.1a.9.9,0,0,0,.22.06A4.209,4.209,0,0,1,821.85,55.23Z"/><polygon class="cls-2" points="822.797 55.469 822.803 55.47 822.8 55.47 822.797 55.469"/><polygon class="cls-2" points="822.837 55.478 822.843 55.48 822.84 55.48 822.837 55.478"/><path class="cls-2" d="M822.82,55.47a.066.066,0,0,0,.017.008l-.034-.008Z"/><path class="cls-2" d="M822.78,55.46c.009,0,.011,0,.017.009-.065-.018-.131-.031-.2-.049.03.01.06.01.09.02.01,0,.03.01.04.01h.01C822.75,55.45,822.77,55.46,822.78,55.46Z"/><path class="cls-2" d="M859.88,50.24v.13A50.056,50.056,0,0,1,835.53,57h-.7q-.78,0-1.56-.03h-.12a.66.66,0,0,1-.14-.01h-.14c-.29-.01-.58-.03-.87-.05l-.59-.03a.127.127,0,0,0-.06-.01h-.07c-.05,0-.11-.01-.16-.01l-.32-.03c-1.15-.1-2.29-.23-3.44-.41-.42-.07-.84-.14-1.26-.22-.1-.01-.21-.04-.32-.06a.425.425,0,0,1-.11-.02c-.07-.01-.14-.03-.21-.04l-.16-.03c-.35-.07-.7-.14-1.05-.23h-.02l-.13-.03c-.41-.08-.83-.2-1.24-.31a2.681,2.681,0,0,0,.27.07.355.355,0,0,0,.1.02c.02,0,.03.01.05.01.18.04.37.08.55.13a1.892,1.892,0,0,1,.23.05c.11.02.22.05.33.07.24.05.48.1.73.15.35.07.71.14,1.06.2.39.07.78.13,1.17.19l.44.06c.18.03.36.05.53.08.35.04.69.09,1.04.12h.03c.15.02.31.03.46.05.03,0,.07.01.1.01.14.01.27.02.42.04l.37.03h.03c.01,0,.01.01.02,0a.037.037,0,0,0,.03.01h.01c.08.01.17.01.26.02h.12a.127.127,0,0,0,.06.01h.04a.708.708,0,0,0,.14.01h.01a.277.277,0,0,0,.09.01c.06,0,.12.01.19.01h.08a.308.308,0,0,0,.1.01.528.528,0,0,0,.13.01c.07,0,.14.01.21.01h.02c.12,0,.24.01.35.01.13,0,.27.01.4.02.22,0,.44.01.66.02h.09c.38.01.76.01,1.15.01h.47A50.213,50.213,0,0,0,859.88,50.24Z"/><path class="cls-2" d="M860.01,50.3c0,1.59-.07,3.19-.23,4.79-.06.62-.13,1.24-.22,1.86-.12.91-.26,1.82-.44,2.72-.21,1.12-.46,2.24-.76,3.35-.07.25-.13.5-.2.75s-.14.5-.22.75c-.1.34-.21.68-.32,1.02-.08.25-.15.51-.24.76-.15.44-.31.88-.47,1.32-.09.25-.18.5-.28.75-.08.21-.16.42-.25.63-.02.04-.03.08-.05.12-.16.37-.31.74-.47,1.11q-.435,1.02-.93,2.01a.3.3,0,0,0-.04.08c-.2.42-.42.85-.64,1.27-.11.23-.23.45-.36.67s-.24.45-.37.67c-.07.13-.14.25-.22.37a1.923,1.923,0,0,1-.18.31c-.1.18-.2.35-.3.52s-.2.33-.31.49a.864.864,0,0,1-.1.16c-.22.37-.45.72-.69,1.08-.07.11-.15.23-.23.34-.01.02-.02.03-.02.04l-.21.3-.12.18c-.01.01-.02.02-.02.03-.06.09-.12.18-.19.27l-.15.21c-.09.13-.19.26-.28.39-.31.43-.62.85-.94,1.27-.05.06-.09.12-.14.17q-.48.63-.99,1.23c-.33.41-.68.81-1.03,1.2a1.143,1.143,0,0,1-.15.17c-.26.29-.52.58-.81.87a5.472,5.472,0,0,1-.47.5c-.19.21-.4.42-.61.63s-.42.42-.63.61a3.632,3.632,0,0,1-.5.47c-.29.29-.58.55-.87.81a1.143,1.143,0,0,1-.17.15c-.39.35-.79.7-1.2,1.03s-.81.67-1.23.99l-.08.08-.09.06c-.42.32-.84.63-1.27.94-.45.33-.91.65-1.38.97-.01.02-.03.03-.04.02-.08.06-.16.12-.25.18s-.16.11-.24.16c-.01.01-.01.01-.02.01h-.01a2.263,2.263,0,0,1-.2.13c-.11.08-.23.16-.35.23-.07.05-.15.1-.22.14a.826.826,0,0,0-.13.07l-.03.03a.405.405,0,0,0-.09.05c-.35.22-.69.43-1.05.63-.06.04-.12.07-.18.11-.04.02-.07.04-.11.06-.01.01-.01.01-.02.01-.3.17-.59.34-.89.5l-.15.09c-.15.07-.29.15-.43.23a.01.01,0,0,0-.01.01l-.01.01c-.02,0-.03,0-.04.01l-.06.03a.746.746,0,0,0-.12.07.2.2,0,0,0-.08.04c-.35.18-.71.36-1.06.53-.47.24-.94.46-1.42.68a.689.689,0,0,0-.1.04c-.26.11-.51.23-.76.34-.09.04-.19.08-.28.12-.37.16-.74.32-1.12.46-.06.02-.12.05-.18.07-.37.16-.75.3-1.13.43-.45.17-.91.33-1.36.48a49.349,49.349,0,0,1-8.46,2.03c-.42.06-.84.12-1.25.17s-.84.1-1.26.14a51.106,51.106,0,0,1-9.66,0c-.34-.03-.69-.07-1.04-.11-.69-.09-1.38-.18-2.07-.29-.34-.05-.69-.11-1.03-.18-.02,0-.03,0-.04-.01-1.72-.32-3.43-.73-5.11-1.22-.56-.16-1.12-.34-1.68-.53-.33-.11-.66-.22-.99-.35-.12-.04-.25-.08-.37-.13-.38-.13-.75-.27-1.13-.43-.06-.02-.12-.05-.18-.07-.37-.15-.75-.3-1.12-.46a.142.142,0,0,0-.06-.02c-.26-.11-.52-.23-.77-.34a2,2,0,0,1-.21-.1c-.03-.01-.05-.02-.08-.03s-.03-.01-.05-.02c-.35-.16-.7-.32-1.04-.49-.07-.03-.14-.07-.22-.11-.39-.19-.79-.39-1.19-.6a.59.59,0,0,1-.08-.04c-.08-.04-.16-.08-.24-.13a.413.413,0,0,1-.11-.07c-.03-.01-.07-.03-.1-.04-.07-.04-.15-.08-.22-.12s-.17-.09-.25-.14a1.983,1.983,0,0,1-.2-.11c-.06-.03-.12-.07-.18-.1a.3.3,0,0,1-.08-.04c-.11-.07-.22-.13-.33-.2a.037.037,0,0,0-.03-.01l-.02-.02a.3.3,0,0,1-.08-.04c-.3-.17-.6-.34-.9-.53a3.024,3.024,0,0,1-.33-.21.834.834,0,0,0-.12-.08c-.23-.15-.47-.29-.7-.44a2.263,2.263,0,0,0-.2-.13h-.01c-.01,0-.01-.01-.02-.01-.08-.05-.16-.1-.24-.16s-.16-.12-.25-.18c-.02-.01-.03-.02-.04-.02-.13-.08-.27-.18-.41-.27s-.27-.18-.4-.28q-.285-.195-.57-.42c-.43-.31-.85-.62-1.27-.94-.06-.05-.12-.09-.17-.14q-.63-.48-1.23-.99c-.41-.33-.81-.67-1.2-1.03a1.143,1.143,0,0,1-.17-.15c-.29-.26-.58-.52-.87-.81a3.632,3.632,0,0,1-.5-.47c-.21-.19-.42-.39-.63-.61s-.42-.42-.61-.63a3.632,3.632,0,0,1-.47-.5c-.32-.32-.61-.64-.9-.97-.72-.8-1.41-1.64-2.08-2.5a.552.552,0,0,1-.14-.17c-.32-.42-.63-.84-.94-1.27-.1-.13-.19-.26-.28-.39a2.426,2.426,0,0,1-.14-.2,1.373,1.373,0,0,1-.13-.2c-.15-.2-.29-.4-.43-.61s-.3-.44-.43-.67q-.315-.465-.6-.93c-.27-.43-.53-.87-.79-1.32s-.51-.89-.75-1.34a.941.941,0,0,1-.12-.22c-.25-.47-.49-.95-.72-1.42-.25-.51-.49-1.01-.72-1.52-.16-.35-.32-.71-.46-1.07-.3-.69-.58-1.4-.84-2.11-.19-.51-.37-1.03-.54-1.54-.33-1.01-.64-2.02-.91-3.05a47.881,47.881,0,0,1-1.42-7.89c-.15-1.6-.23-3.22-.23-4.84.01,0,.01.01.02.01.04.02.07.04.11.06A49.684,49.684,0,0,0,766,73.75c.23.42.46.83.7,1.25.04.08.09.15.13.23a49.845,49.845,0,0,0,14.72,16.04c.39.27.78.53,1.18.79.32.22.65.42.98.62.38.24.77.47,1.16.7a1.35,1.35,0,0,0,.26.15h.01c.12.08.23.15.36.22.94.53,1.89,1.03,2.86,1.5.49.23.98.46,1.47.68s.98.42,1.48.63,1,.39,1.5.58c1.13.41,2.28.79,3.44,1.13.39.11.78.22,1.17.32.52.13,1.04.26,1.56.38.48.11.96.21,1.44.31.7.14,1.41.26,2.13.37.39.07.78.12,1.18.17.46.06.93.12,1.4.16.41.05.82.08,1.24.11s.86.06,1.29.08a1.7,1.7,0,0,0,.23.01c.16.01.32.02.49.02a.045.045,0,0,0,.05,0,8.23,8.23,0,0,0,.86.02c.12.01.24.01.36.01h.48q.72,0,1.44-.03c.57-.02,1.13-.05,1.69-.08s1.1-.09,1.64-.14c.04,0,.07-.01.11-.01.44-.05.88-.1,1.32-.16.32-.04.64-.08.95-.14,1.26-.17,2.52-.41,3.75-.7.52-.12,1.04-.25,1.56-.38a53.333,53.333,0,0,0,6.11-2.03c.49-.21.99-.42,1.48-.63s.98-.45,1.46-.68.97-.48,1.45-.73c.18-.1.37-.2.56-.31.4-.22.81-.45,1.21-.68l.27-.15q.69-.39,1.35-.81c.29-.18.59-.37.88-.57.39-.26.78-.52,1.17-.79.73-.51,1.44-1.04,2.14-1.58.31-.24.61-.48.91-.73a49.841,49.841,0,0,0,11.59-13.67c.04-.08.09-.15.13-.23.24-.42.47-.83.7-1.26a49.853,49.853,0,0,0,5.88-23.37c.04-.02.07-.04.11-.06.01-.1.01-.21.01-.31C860.01,50.1,860.01,50.2,860.01,50.3Z"/><path class="cls-2" d="M810,50.3c-.04-.03-.09-.05-.13-.08l-.06-.03c-.06.1-.12.21-.18.31v.01a.746.746,0,0,0,.12-.07c.04-.02.08-.05.12-.07,0,1.15.05,2.29.13,3.42.08-1.13.13-2.27.13-3.42A.826.826,0,0,1,810,50.3Zm-.48-.29a.01.01,0,0,1-.01-.01,49.547,49.547,0,0,1-18.08-18.45A50.135,50.135,0,0,1,784.99,7c-.04.02-.08.05-.12.07a50.177,50.177,0,0,0,6.44,24.41A49.689,49.689,0,0,0,809.5,50.01c.1.06.2.12.31.18C809.71,50.13,809.61,50.07,809.52,50.01Zm50.47.3c-.04.02-.07.04-.11.06A49.853,49.853,0,0,1,854,73.74c-.23.43-.46.84-.7,1.26-.04.08-.09.15-.13.23A49.841,49.841,0,0,1,841.58,88.9c-.3.25-.6.49-.91.73-.7.54-1.41,1.07-2.14,1.58-.39.27-.78.53-1.17.79-.29.2-.59.39-.88.57q-.66.42-1.35.81l-.27.15c-.4.23-.81.46-1.21.68-.19.11-.38.21-.56.31-.48.25-.96.49-1.45.73s-.97.46-1.46.68-.99.42-1.48.63a53.333,53.333,0,0,1-6.11,2.03c-.52.13-1.04.26-1.56.38-1.23.29-2.49.53-3.75.7-.31.06-.63.1-.95.14-.44.06-.88.11-1.32.16-.04,0-.07.01-.11.01-.54.05-1.09.1-1.64.14s-1.12.06-1.69.08q-.72.03-1.44.03h-.48c-.12,0-.24,0-.36-.01a8.23,8.23,0,0,1-.86-.02.045.045,0,0,1-.05,0c-.17,0-.33-.01-.49-.02a1.7,1.7,0,0,1-.23-.01c-.43-.02-.86-.05-1.29-.08s-.83-.06-1.24-.11c-.47-.04-.94-.1-1.4-.16-.4-.05-.79-.1-1.18-.17-.72-.11-1.43-.23-2.13-.37-.48-.1-.96-.2-1.44-.31-.52-.12-1.04-.25-1.56-.38-.39-.1-.78-.21-1.17-.32-1.16-.34-2.31-.72-3.44-1.13-.5-.19-1-.38-1.5-.58s-.99-.42-1.48-.63-.98-.45-1.47-.68c-.97-.47-1.92-.97-2.86-1.5-.13-.07-.24-.14-.36-.22h-.01a1.35,1.35,0,0,1-.26-.15c-.39-.23-.78-.46-1.16-.7-.33-.2-.66-.4-.98-.62-.4-.26-.79-.52-1.18-.79a49.845,49.845,0,0,1-14.72-16.04c-.04-.08-.09-.15-.13-.23-.24-.42-.47-.83-.7-1.25a49.684,49.684,0,0,1-5.88-23.38c-.04-.02-.07-.04-.11-.06-.01-.1-.01-.21-.01-.31-.01.1-.01.2-.01.3,0,1.62.08,3.24.23,4.84a51.151,51.151,0,0,0,1.42,7.89c.27,1.03.58,2.04.91,3.05.17.51.35,1.03.54,1.54.26.71.54,1.42.84,2.11.14.36.3.72.46,1.07.23.51.47,1.01.72,1.52q.285.6.6,1.2a.941.941,0,0,0,.12.22.941.941,0,0,0,.12.22c.17.33.35.66.53.98.07.12.14.24.22.36.15.27.31.54.47.81.1.17.21.34.32.51q.285.465.6.93c.13.23.28.45.43.67.18.27.36.54.56.81a2.426,2.426,0,0,0,.14.2c.09.13.18.26.28.39.31.43.62.85.94,1.27a.552.552,0,0,0,.14.17c.65.85,1.35,1.69,2.08,2.5.29.33.58.65.9.97a3.632,3.632,0,0,0,.47.5c.19.21.4.42.61.63s.42.42.63.61a3.632,3.632,0,0,0,.5.47c.29.29.58.55.87.81a1.143,1.143,0,0,0,.17.15c.39.36.79.7,1.2,1.03s.81.67,1.23.99c.05.05.11.09.17.14.42.32.84.63,1.27.94.45.33.91.65,1.38.97.01,0,.02.01.04.02.09.06.17.12.25.18s.16.11.24.16c.01,0,.01.01.02.01h.01a2.263,2.263,0,0,1,.2.13c.23.15.47.29.7.44a.834.834,0,0,1,.12.08,3.024,3.024,0,0,0,.33.21c.3.19.6.36.9.53a.3.3,0,0,0,.08.04l.02.02a.037.037,0,0,1,.03.01,1.093,1.093,0,0,0,.15.08c.09.05.17.1.26.16.06.03.12.07.18.1a1.983,1.983,0,0,0,.2.11c.08.05.17.1.25.14s.15.08.22.12a2.116,2.116,0,0,0,.21.11c.08.05.16.09.24.13a.59.59,0,0,0,.08.04c.4.21.8.41,1.19.6.08.04.15.08.22.11.34.17.69.33,1.04.49.02.01.03.01.05.02s.05.02.08.03a2,2,0,0,0,.21.1c.25.11.51.23.77.34a.142.142,0,0,1,.06.02c.37.16.75.31,1.12.46.06.02.12.05.18.07.38.16.75.3,1.13.43.12.05.25.09.37.13.33.13.66.24.99.35.56.19,1.12.37,1.68.53a48.01,48.01,0,0,0,5.11,1.22c.01.01.02.01.04.01.34.07.69.13,1.03.18.69.11,1.38.2,2.07.29.35.04.7.08,1.04.11a51.106,51.106,0,0,0,9.66,0c.42-.04.84-.09,1.26-.14s.83-.11,1.25-.17c.93-.15,1.84-.33,2.75-.53.01,0,.01,0,.02-.01a.3.3,0,0,0,.1-.02c.32-.06.64-.13.95-.2.02-.01.05-.01.07-.02.06-.01.13-.03.19-.04.4-.09.81-.19,1.21-.3.3-.07.59-.15.89-.24.12-.03.23-.06.35-.1a.936.936,0,0,0,.16-.04c.24-.07.48-.14.71-.21h.01c.35-.11.7-.2,1.05-.32.45-.15.91-.31,1.36-.48.38-.13.76-.27,1.13-.43.06-.02.12-.05.18-.07.38-.14.75-.3,1.12-.46.09-.04.19-.08.28-.12.25-.11.5-.23.76-.34a.689.689,0,0,1,.1-.04c.48-.22.95-.44,1.42-.68.35-.17.71-.35,1.06-.53a.2.2,0,0,1,.08-.04.746.746,0,0,1,.12-.07l.06-.03c.01-.01.02-.01.04-.01l.01-.01a.01.01,0,0,1,.01-.01c.14-.08.28-.16.43-.23l.15-.09c.05-.03.11-.05.16-.08.11-.06.21-.12.32-.18a.3.3,0,0,1,.08-.04c.11-.07.22-.14.33-.2.01,0,.01,0,.02-.01.04-.02.07-.04.11-.06.06-.04.12-.07.18-.11.36-.2.7-.41,1.05-.63a.405.405,0,0,1,.09-.05l.03-.03a.826.826,0,0,1,.13-.07c.07-.04.15-.09.22-.14.12-.07.24-.15.35-.23a2.263,2.263,0,0,0,.2-.13h.01c.01,0,.01,0,.02-.01.08-.05.16-.11.24-.16s.17-.12.25-.18c.01.01.03,0,.04-.02.13-.08.27-.18.41-.27s.27-.18.4-.28q.285-.195.57-.42c.43-.31.85-.62,1.27-.94l.09-.06.08-.08q.63-.48,1.23-.99c.41-.33.81-.68,1.2-1.03a1.143,1.143,0,0,0,.17-.15c.29-.26.58-.52.87-.81a3.632,3.632,0,0,0,.5-.47c.21-.19.42-.4.63-.61s.42-.42.61-.63a5.472,5.472,0,0,0,.47-.5c.29-.29.55-.58.81-.87a1.143,1.143,0,0,0,.15-.17c.35-.39.7-.79,1.03-1.2s.67-.81.99-1.23c.05-.05.09-.11.14-.17.32-.42.63-.84.94-1.27.09-.13.19-.26.28-.39l.15-.21c.04-.06.08-.12.12-.19a.27.27,0,0,1,.07-.08c0-.01.01-.02.02-.03l.12-.18.21-.3c0-.01.01-.02.02-.04.08-.11.16-.23.23-.34l.12-.21q.3-.42.57-.87a.864.864,0,0,0,.1-.16.238.238,0,0,0,.06-.11c.19-.29.37-.59.55-.9a1.923,1.923,0,0,0,.18-.31c.2-.35.4-.69.59-1.04.13-.22.25-.44.36-.67.22-.42.44-.85.64-1.27a.3.3,0,0,1,.04-.08q.5-.99.93-2.01c.16-.37.31-.74.47-1.11.02-.04.03-.08.05-.12.09-.21.17-.42.25-.63.1-.25.19-.5.28-.75.16-.44.32-.88.47-1.32.09-.25.16-.51.24-.76.11-.34.22-.68.32-1.02.08-.25.15-.5.22-.75s.13-.5.2-.75c.3-1.11.55-2.23.76-3.35.18-.9.32-1.81.44-2.72.09-.62.16-1.24.22-1.86.16-1.6.23-3.2.23-4.79C860,50.3,860,50.31,859.99,50.31Zm-54.1,2.12a49.858,49.858,0,0,1-21.3,4.5h-.01a50.148,50.148,0,0,1-24.46-6.69v.13A50.056,50.056,0,0,0,784.47,57,49.582,49.582,0,0,0,805.89,52.43Z"/><path class="cls-1" d="M835.4,56.92h-.47a1.77,1.77,0,0,1-.23.01c-.17,0-.35,0-.52-.01-.13,0-.27,0-.4-.01h-.09c-.18,0-.36-.01-.54-.01a.487.487,0,0,1-.12-.01c-.13-.01-.27-.02-.4-.02-.11,0-.23-.01-.35-.01h-.02c-.07,0-.14-.01-.21-.01a.528.528,0,0,1-.13-.01.308.308,0,0,1-.1-.01h-.08c-.07,0-.13-.01-.19-.01a.277.277,0,0,1-.09-.01h-.01a.708.708,0,0,1-.14-.01h-.04a.127.127,0,0,1-.06-.01h-.12c-.03,0-.06-.01-.08-.01a.148.148,0,0,1-.07-.01c-.05,0-.1-.01-.15-.01-.01.01-.01,0-.02,0h-.03l-.37-.03c-.15-.02-.28-.03-.42-.04-.03,0-.07-.01-.1-.01-.15-.02-.31-.03-.46-.05h-.03c-.35-.03-.69-.08-1.04-.12-.17-.03-.35-.05-.53-.08l-.44-.06c-.39-.06-.78-.12-1.17-.19-.35-.06-.71-.13-1.06-.2-.25-.05-.49-.1-.73-.15l.63.15a2.614,2.614,0,0,0,.27.06,1.046,1.046,0,0,0,.17.04c.07.01.14.03.21.04a.425.425,0,0,0,.11.02c.11.02.22.05.32.06.42.08.84.15,1.26.22,1.15.18,2.29.31,3.44.41l.32.03c.05,0,.11.01.16.01h.07c.22.02.43.03.65.04.29.02.58.04.87.05h.14a.66.66,0,0,0,.14.01h.12q.78.03,1.56.03h.7a50.056,50.056,0,0,0,24.35-6.63v-.13A50.213,50.213,0,0,1,835.4,56.92Zm24.72-7.66c0-.14,0-.27-.01-.41V48.6c0-.19-.02-.38-.03-.56s-.02-.37-.03-.56c-.01-.09-.01-.19-.02-.28s-.01-.19-.01-.29q-.045-.765-.12-1.53c-.05-.51-.11-1.01-.17-1.52-.01-.06-.02-.13-.03-.19-.04-.36-.09-.71-.15-1.06-.06-.41-.13-.82-.2-1.23s-.15-.82-.24-1.23c-.06-.29-.12-.58-.18-.86-.06-.25-.12-.51-.19-.77s-.12-.53-.19-.79c-.07-.3-.15-.59-.24-.89-.04-.17-.09-.34-.14-.51-.07-.24-.14-.48-.21-.71-.13-.42-.27-.85-.41-1.27a2.094,2.094,0,0,0-.08-.23c-.1-.29-.2-.59-.3-.88a1.192,1.192,0,0,1-.08-.2.185.185,0,0,1-.02-.07,47.884,47.884,0,0,0-3.64-7.89A49.621,49.621,0,0,0,837.95,8.54c-.3-.21-.62-.41-.93-.62-.74-.48-1.49-.93-2.26-1.36A50.092,50.092,0,0,0,811.51.1c-1.01-.03-2.01-.04-3.02,0-.31.01-.61.02-.92.04-.22,0-.45.02-.67.03A49.493,49.493,0,0,0,787.11,5.7c-.24.12-.48.25-.72.37-.03.02-.06.03-.09.05l-1.17.66c-.09.05-.18.1-.26.15a49.732,49.732,0,0,0-17.22,16.78A49.666,49.666,0,0,1,784.87,7.07a50.177,50.177,0,0,0,6.44,24.41.746.746,0,0,1,.12.07,49.631,49.631,0,0,1,18.45,18.11c.04.06.08.13.12.2a.638.638,0,0,1,.08.14c.02.03.03.05.05.08s.04.07.06.11c.11-.06.21-.12.31-.18a49.614,49.614,0,0,0,18.19-18.53,50.069,50.069,0,0,0,6.44-24.41,49.845,49.845,0,0,1,17.22,16.64c.28.45.56.91.82,1.37.04.07.09.15.13.22a49.992,49.992,0,0,1,6.49,20.22c.04.4.07.8.1,1.2,0,.06.01.12.01.18v.04c.04.59.07,1.18.08,1.77.01.43.02.86.02,1.29,0,.1,0,.21-.01.31-.04.02-.07.04-.11.06A49.853,49.853,0,0,1,854,73.74c-.23.43-.46.84-.7,1.26-.04.08-.09.15-.13.23A49.841,49.841,0,0,1,841.58,88.9a48.258,48.258,0,0,0,9.47-10.07c.27-.39.54-.78.79-1.18q.3-.42.57-.87a.864.864,0,0,0,.1-.16.238.238,0,0,0,.06-.11c.09-.12.17-.25.25-.38.1-.17.2-.34.3-.52a1.923,1.923,0,0,0,.18-.31c.08-.12.15-.24.22-.37.13-.22.25-.44.37-.67s.25-.44.36-.67c.22-.42.44-.85.64-1.27a.3.3,0,0,1,.04-.08q.5-.99.93-2.01c.16-.37.31-.74.47-1.11.02-.04.03-.08.05-.12.09-.21.17-.42.25-.63.1-.25.19-.5.28-.75.16-.44.32-.88.47-1.32.09-.25.16-.51.24-.76.11-.34.22-.68.32-1.02.08-.25.15-.5.22-.75a47.27,47.27,0,0,0,1.66-8.01c.03-.3.06-.59.09-.89.03-.37.06-.75.09-1.13a.86.86,0,0,0,.01-.16c.02-.19.03-.38.04-.57,0-.05.01-.09.01-.14V52.8c.02-.38.04-.76.05-1.15v-.13c.02-.45.03-.88.03-1.33C860.14,49.87,860.14,49.57,860.12,49.26ZM785.13,6.92A49.726,49.726,0,0,1,808.43.26q.72-.03,1.44-.03h.26q.72,0,1.44.03c.57.02,1.13.05,1.69.08a49.55,49.55,0,0,1,21.6,6.58A49.945,49.945,0,0,0,810,46.67,50,50,0,0,0,785.13,6.92ZM810.49,50a.01.01,0,0,1-.01.01c-.12-.01-.23-.01-.35-.01,0-.11,0-.23-.01-.34a49.681,49.681,0,0,1,18.44-18.11A49.521,49.521,0,0,1,810.49,50Zm24.91,6.92h-.47a1.77,1.77,0,0,1-.23.01c-.17,0-.35,0-.52-.01-.13,0-.27,0-.4-.01h-.09c-.18,0-.36-.01-.54-.01a.487.487,0,0,1-.12-.01c-.13-.01-.27-.02-.4-.02-.11,0-.23-.01-.35-.01h-.02c-.07,0-.14-.01-.21-.01a.528.528,0,0,1-.13-.01.308.308,0,0,1-.1-.01h-.08c-.07,0-.13-.01-.19-.01a.277.277,0,0,1-.09-.01h-.01a.708.708,0,0,1-.14-.01h-.04a.127.127,0,0,1-.06-.01h-.12c-.03,0-.06-.01-.08-.01a.148.148,0,0,1-.07-.01c-.05,0-.1-.01-.15-.01-.01.01-.01,0-.02,0h-.03l-.37-.03c-.15-.02-.28-.03-.42-.04-.03,0-.07-.01-.1-.01-.15-.02-.31-.03-.46-.05h-.03c-.35-.03-.69-.08-1.04-.12-.17-.03-.35-.05-.53-.08l-.44-.06c-.39-.06-.78-.12-1.17-.19-.35-.06-.71-.13-1.06-.2-.25-.05-.49-.1-.73-.15l.63.15a2.614,2.614,0,0,0,.27.06,1.046,1.046,0,0,0,.17.04c.07.01.14.03.21.04a.425.425,0,0,0,.11.02c.11.02.22.05.32.06.42.08.84.15,1.26.22,1.15.18,2.29.31,3.44.41l.32.03c.05,0,.11.01.16.01h.07c.22.02.43.03.65.04.29.02.58.04.87.05h.14a.66.66,0,0,0,.14.01h.12q.78.03,1.56.03h.7a50.056,50.056,0,0,0,24.35-6.63v-.13A50.213,50.213,0,0,1,835.4,56.92Zm0,0h-.47a1.77,1.77,0,0,1-.23.01c-.17,0-.35,0-.52-.01-.13,0-.27,0-.4-.01h-.09c-.18,0-.36-.01-.54-.01a.487.487,0,0,1-.12-.01c-.13-.01-.27-.02-.4-.02-.11,0-.23-.01-.35-.01h-.02c-.07,0-.14-.01-.21-.01a.528.528,0,0,1-.13-.01.308.308,0,0,1-.1-.01h-.08c-.07,0-.13-.01-.19-.01a.277.277,0,0,1-.09-.01h-.01a.708.708,0,0,1-.14-.01h-.04a.127.127,0,0,1-.06-.01h-.12c-.03,0-.06-.01-.08-.01a.148.148,0,0,1-.07-.01c-.05,0-.1-.01-.15-.01-.01.01-.01,0-.02,0h-.03l-.37-.03c-.15-.02-.28-.03-.42-.04-.03,0-.07-.01-.1-.01-.15-.02-.31-.03-.46-.05h-.03c-.35-.03-.69-.08-1.04-.12-.17-.03-.35-.05-.53-.08l-.44-.06c-.39-.06-.78-.12-1.17-.19-.35-.06-.71-.13-1.06-.2-.25-.05-.49-.1-.73-.15l.63.15a2.614,2.614,0,0,0,.27.06,1.046,1.046,0,0,0,.17.04c.07.01.14.03.21.04a.425.425,0,0,0,.11.02c.11.02.22.05.32.06l.12.03a.2.2,0,0,0,.11.02,1.416,1.416,0,0,0,.2.04.22.22,0,0,0,.08.01q.375.075.75.12c.57.09,1.15.17,1.72.24.12.01.24.03.36.04s.23.03.35.04c.33.04.67.07,1.01.09l.32.03c.05,0,.11.01.16.01h.07a.127.127,0,0,1,.06.01,2.452,2.452,0,0,1,.27.02c.11.01.21.01.32.01a.22.22,0,0,0,.08.01.757.757,0,0,0,.15.01l.52.03h.26a.031.031,0,0,0,.02.01h.24q.78.03,1.56.03h.7a50.056,50.056,0,0,0,24.35-6.63v-.13A50.213,50.213,0,0,1,835.4,56.92Z"/><path class="cls-2" d="M805.13,99.98c-.47-.04-.94-.1-1.4-.16-.4-.05-.79-.1-1.18-.17-.72-.11-1.43-.23-2.13-.37-.48-.1-.96-.2-1.44-.31-.52-.12-1.04-.25-1.56-.38-.39-.1-.78-.21-1.17-.32-1.16-.34-2.31-.72-3.44-1.13-.5-.19-1-.38-1.5-.58s-.99-.42-1.48-.63-.98-.45-1.47-.68c-.97-.47-1.92-.97-2.86-1.5-.13-.07-.24-.14-.36-.22h-.01a1.35,1.35,0,0,1-.26-.15c-.39-.23-.78-.46-1.16-.7-.33-.2-.66-.4-.98-.62-.4-.26-.79-.52-1.18-.79a49.845,49.845,0,0,1-14.72-16.04c-.04-.08-.09-.15-.13-.23-.24-.42-.47-.83-.7-1.25a49.684,49.684,0,0,1-5.88-23.38c-.04-.02-.07-.04-.11-.06-.01-.1-.01-.21-.01-.31,0-.43.01-.86.02-1.29q0-.42.03-.84c.01-.3.03-.59.05-.89a49.837,49.837,0,0,1,6.6-21.68c.04-.07.09-.15.13-.22.26-.46.54-.92.82-1.37A49.666,49.666,0,0,1,784.87,7.07V6.92c-.46.27-.92.54-1.37.82-.42.26-.84.53-1.25.8-.78.52-1.55,1.06-2.29,1.62-.32.24-.64.48-.96.73l-.93.75c-.62.51-1.23,1.03-1.82,1.57-.29.27-.59.54-.88.82-.56.54-1.13,1.11-1.67,1.67l-.02.02c-.2.21-.4.43-.6.64-.44.47-.86.95-1.27,1.44a5.915,5.915,0,0,0-.41.49c-.41.48-.79.96-1.17,1.45-.32.42-.63.85-.94,1.28-.21.29-.41.58-.61.88-.1.14-.2.29-.3.43a1.463,1.463,0,0,1-.09.13c-.59.9-1.17,1.82-1.72,2.77-.18.31-.36.62-.53.94-.02.03-.03.06-.05.09-.18.32-.35.65-.52.98-.01.03-.03.06-.04.09-.05.09-.1.19-.15.29s-.1.19-.15.29c-.07.14-.13.27-.2.41a1.417,1.417,0,0,0-.08.18c-.15.3-.29.61-.43.92-.09.17-.17.35-.25.53-.15.33-.3.67-.43,1.01-.05.11-.1.22-.14.33a1.417,1.417,0,0,0-.08.18c-.19.48-.38.95-.56,1.43-.12.32-.23.65-.34.97-.06.16-.12.32-.17.48-.03.1-.06.19-.09.29-.14.41-.27.82-.4,1.23-.01.04-.02.07-.03.1-.04.12-.07.25-.11.37-.11.37-.21.75-.31,1.12v.02c-.12.45-.23.89-.33,1.34-.01.03-.02.07-.03.1-.08.36-.16.73-.23,1.1l-.03.12c-.08.35-.14.7-.21,1.06-.03.13-.04.26-.06.39-.07.34-.12.67-.17,1.01-.05.31-.09.62-.14.94-.12.9-.21,1.81-.28,2.71-.04.32-.07.66-.08.99-.03.45-.05.91-.06,1.36q-.03.8-.03,1.59c0,.44.01.89.03,1.33v.13c.01.38.03.77.05,1.15.01.31.03.63.06.94.03.38.06.76.09,1.13.01.16.02.31.04.47.01.14.03.28.05.42.02.29.06.58.1.87.07.6.16,1.19.26,1.78.07.41.14.82.22,1.22.04.23.08.45.13.67.18.89.39,1.78.62,2.65.14.52.28,1.03.44,1.55s.31,1.02.48,1.53c.31.97.67,1.93,1.05,2.88a3.454,3.454,0,0,0,.14.34c.13.32.27.64.41.96.26.61.53,1.2.82,1.79.21.43.42.86.64,1.28.33.64.67,1.27,1.03,1.88.59,1.03,1.21,2.04,1.89,3.02.22.33.45.66.68.99s.47.65.71.97.49.64.73.95.5.63.75.94c.75.92,1.55,1.82,2.39,2.69.28.29.56.58.84.86.55.55,1.11,1.08,1.68,1.61a.5.5,0,0,1,.08.07c.23.21.46.41.7.62.66.58,1.34,1.14,2.03,1.68.24.19.48.38.73.56.28.22.56.43.85.63.22.16.44.32.67.47.13.1.26.19.4.28a2.476,2.476,0,0,0,.26.19c.15.1.29.19.44.28.08.06.16.11.24.16.01,0,.01.01.02.01h.01a2.263,2.263,0,0,1,.2.13,6.12,6.12,0,0,0,.57.37,1.275,1.275,0,0,0,.25.15,3.024,3.024,0,0,0,.33.21c.3.19.6.36.9.53a.3.3,0,0,0,.08.04l.02.02a.037.037,0,0,1,.03.01,1.093,1.093,0,0,0,.15.08c.09.05.17.1.26.16.06.03.12.07.18.1a1.983,1.983,0,0,0,.2.11l.57.3c.99.53,2,1.03,3.01,1.49s2.04.87,3.07,1.26c.25.1.51.19.77.29s.52.18.78.26c.52.17,1.04.34,1.57.49.43.14.87.26,1.31.38,1.44.39,2.91.71,4.4.97.33.06.65.11.98.16.42.07.83.12,1.25.18s.85.1,1.28.14c.38.04.76.07,1.14.1h.06c.13.01.26.02.39.02C805.95,100.06,805.54,100.03,805.13,99.98Zm.76-47.55a49.858,49.858,0,0,1-21.3,4.5h-.01a50.148,50.148,0,0,1-24.46-6.69v.13A50.056,50.056,0,0,0,784.47,57,49.582,49.582,0,0,0,805.89,52.43Zm3.76,47.8c.12,0,.24.01.36.01a.487.487,0,0,0,.12-.01Zm25.21-6.7c-.4.23-.81.46-1.21.68.24-.12.49-.25.73-.39.17-.09.33-.18.49-.28h.01c.08-.05.17-.1.25-.16Zm.54-36.61h-.47c-.39,0-.77,0-1.15-.01h-.09c-.22-.01-.44-.02-.66-.02-.13-.01-.27-.02-.4-.02-.11,0-.23-.01-.35-.01h-.02c-.07,0-.14-.01-.21-.01a.528.528,0,0,1-.13-.01.308.308,0,0,1-.1-.01h-.08c-.07,0-.13-.01-.19-.01a.277.277,0,0,1-.09-.01h-.01a.708.708,0,0,1-.14-.01h-.04a.127.127,0,0,1-.06-.01h-.12c-.03,0-.06-.01-.08-.01a.148.148,0,0,1-.07-.01c-.05,0-.1-.01-.15-.01-.01.01-.01,0-.02,0h-.03l-.37-.03c-.15-.02-.28-.03-.42-.04-.03,0-.07-.01-.1-.01-.15-.02-.31-.03-.46-.05h-.03c-.35-.03-.69-.08-1.04-.12-.17-.03-.35-.05-.53-.08l-.44-.06c-.39-.06-.78-.12-1.17-.19-.35-.06-.71-.13-1.06-.2-.25-.05-.49-.1-.73-.15-.11-.02-.22-.05-.33-.07a1.892,1.892,0,0,0-.23-.05c-.18-.05-.37-.09-.55-.13.27.08.54.15.82.21l.13.03h.03c.25.06.51.11.76.16a2.614,2.614,0,0,0,.27.06,1.046,1.046,0,0,0,.17.04c.07.01.14.03.21.04a.425.425,0,0,0,.11.02c.11.02.22.05.32.06l.12.03a.2.2,0,0,0,.11.02,1.416,1.416,0,0,0,.2.04.22.22,0,0,0,.08.01q.375.075.75.12c.57.09,1.15.17,1.72.24.12.01.24.03.36.04.45.05.91.09,1.36.13l.32.03c.05,0,.11.01.16.01h.07c.22.02.43.03.65.04.29.02.58.04.87.05h.14a.66.66,0,0,0,.14.01h.12q.78.03,1.56.03h.7a50.056,50.056,0,0,0,24.35-6.63v-.13A50.213,50.213,0,0,1,835.4,56.92Zm-13.66-1.73c-.12-.03-.25-.07-.37-.1.16.05.32.1.48.14a1.221,1.221,0,0,0,.26.06C821.99,55.26,821.86,55.22,821.74,55.19ZM810,50.3c-.04-.02-.09-.05-.13-.07a.209.209,0,0,1-.06-.04c-.06.1-.12.21-.18.31v.01a.746.746,0,0,0,.12-.07c.04-.02.08-.05.12-.07,0,1.15.05,2.29.13,3.42.08-1.13.13-2.27.13-3.42A.826.826,0,0,1,810,50.3Z"/><path class="cls-2" d="M784.47,57a50.056,50.056,0,0,1-24.35-6.63v-.13a50.148,50.148,0,0,0,24.46,6.69h.01a49.858,49.858,0,0,0,21.3-4.5A49.582,49.582,0,0,1,784.47,57Z"/><path class="cls-2" d="M791.43,31.55A49.547,49.547,0,0,0,809.51,50a.01.01,0,0,0,.01.01c.12-.01.23-.01.35-.01v.37c-.04.02-.08.05-.12.07a.746.746,0,0,1-.12.07V50.5c.06-.1.12-.21.18-.31-.11-.06-.21-.12-.31-.18a49.689,49.689,0,0,1-18.19-18.53,50.177,50.177,0,0,1-6.44-24.41,49.666,49.666,0,0,0-17.22,16.64c-.28.45-.56.91-.82,1.37-.04.07-.09.15-.13.22a49.837,49.837,0,0,0-6.6,21.68c-.02.3-.04.59-.05.89q-.03.42-.03.84c-.01.43-.02.86-.02,1.29,0,.1,0,.21.01.31.04.02.07.04.11.06A49.684,49.684,0,0,0,766,73.75c.23.42.46.83.7,1.25.04.08.09.15.13.23a49.845,49.845,0,0,0,14.72,16.04c.39.27.78.53,1.18.79.32.22.65.42.98.62.38.24.77.47,1.16.7a1.35,1.35,0,0,0,.26.15h.01c.12.08.23.15.36.22.94.53,1.89,1.03,2.86,1.5.49.23.98.46,1.47.68s.98.42,1.48.63,1,.39,1.5.58c1.13.41,2.28.79,3.44,1.13.39.11.78.22,1.17.32.52.13,1.04.26,1.56.38.48.11.96.21,1.44.31.7.14,1.41.26,2.13.37.39.07.78.12,1.18.17.46.06.93.12,1.4.16.41.05.82.08,1.24.11s.86.06,1.29.08c-.27-.01-.54-.02-.81-.04-.04,0-.08-.01-.11-.01-.25-.01-.5-.03-.76-.05h-.06c-.38-.03-.76-.06-1.14-.1-.43-.04-.85-.09-1.28-.14s-.83-.11-1.25-.18c-.33-.05-.65-.1-.98-.16-1.49-.26-2.96-.58-4.4-.97-.44-.12-.88-.24-1.31-.38-.53-.15-1.05-.32-1.57-.49-.26-.08-.52-.17-.78-.26s-.52-.19-.77-.29c-.25-.08-.49-.18-.73-.27-.06-.02-.12-.05-.18-.07-.37-.15-.75-.3-1.12-.46a.142.142,0,0,0-.06-.02c-.26-.11-.52-.23-.77-.34a2,2,0,0,1-.21-.1c-.03-.01-.05-.02-.08-.03s-.03-.01-.05-.02c-.35-.16-.7-.32-1.04-.49-.07-.03-.14-.07-.22-.11-.39-.19-.79-.39-1.19-.6a.59.59,0,0,1-.08-.04c-.08-.04-.16-.08-.24-.13a2.116,2.116,0,0,1-.21-.11c-.07-.04-.15-.08-.22-.12s-.17-.09-.25-.14a1.983,1.983,0,0,1-.2-.11c-.06-.03-.12-.07-.18-.1a.3.3,0,0,1-.08-.04c-.13-.07-.24-.13-.36-.21-.03-.02-.07-.04-.1-.06-.3-.17-.6-.34-.9-.53a3.024,3.024,0,0,1-.33-.21,1.275,1.275,0,0,1-.25-.15,6.12,6.12,0,0,1-.57-.37,2.263,2.263,0,0,0-.2-.13h-.01c-.01,0-.01-.01-.02-.01-.08-.05-.16-.1-.24-.16-.15-.09-.29-.18-.44-.28a2.476,2.476,0,0,1-.26-.19c-.14-.09-.27-.18-.4-.28-.23-.15-.45-.31-.67-.47-.29-.2-.57-.41-.85-.63-.25-.18-.49-.37-.73-.56-.69-.54-1.37-1.1-2.03-1.68-.24-.21-.47-.41-.7-.62a.5.5,0,0,0-.08-.07c-.57-.53-1.13-1.06-1.68-1.61-.28-.28-.56-.57-.84-.86-.82-.87-1.62-1.77-2.39-2.69-.25-.31-.5-.62-.75-.94s-.49-.63-.73-.95-.47-.65-.71-.97-.46-.66-.68-.99c-.66-.98-1.29-1.99-1.89-3.02-.36-.61-.7-1.24-1.03-1.88-.22-.42-.43-.85-.64-1.28-.29-.59-.56-1.18-.82-1.79-.14-.32-.28-.64-.41-.96a3.454,3.454,0,0,1-.14-.34c-.38-.95-.74-1.91-1.05-2.88q-.255-.765-.48-1.53c-.16-.52-.3-1.03-.44-1.55-.23-.87-.44-1.76-.62-2.65-.05-.22-.09-.44-.13-.67-.08-.4-.15-.81-.22-1.22-.1-.59-.19-1.18-.26-1.78-.04-.29-.08-.58-.1-.87-.02-.14-.04-.28-.05-.42-.02-.16-.03-.31-.04-.47-.03-.37-.06-.75-.09-1.13-.03-.31-.05-.63-.06-.94-.02-.38-.04-.77-.05-1.15v-.13c-.01-.43-.02-.86-.02-1.29,0-1.28.05-2.54.15-3.8a1.087,1.087,0,0,1,.01-.18c.07-.9.16-1.81.28-2.71.05-.32.09-.63.14-.94.05-.34.1-.67.17-1.01.02-.13.03-.26.06-.39.07-.36.13-.71.21-1.06l.03-.12c.08-.4.17-.8.26-1.2.1-.45.21-.89.33-1.34v-.02c.1-.37.2-.75.31-1.12.04-.12.07-.25.11-.37.01-.03.02-.06.03-.1.13-.41.26-.82.4-1.23.03-.1.06-.19.09-.29.05-.16.11-.32.17-.48.11-.32.22-.65.34-.97.18-.48.37-.95.56-1.43a1.417,1.417,0,0,1,.08-.18c.04-.11.09-.22.14-.33.13-.34.28-.68.43-1.01.21-.49.43-.97.68-1.45a1.417,1.417,0,0,1,.08-.18c.07-.14.13-.27.2-.41.05-.1.1-.2.15-.29s.1-.2.15-.29c.01-.03.03-.06.04-.09.17-.33.34-.66.52-.98.02-.03.03-.06.05-.09.15-.28.31-.56.46-.84a2.529,2.529,0,0,1,.13-.22c.35-.62.73-1.24,1.12-1.84l.54-.81a1.463,1.463,0,0,0,.09-.13c.1-.14.2-.29.3-.43.2-.3.4-.59.61-.88.31-.43.62-.86.94-1.28.38-.49.76-.97,1.17-1.45a5.915,5.915,0,0,1,.41-.49c.41-.49.83-.97,1.27-1.44.2-.21.4-.43.6-.64l.02-.02c.54-.56,1.11-1.13,1.67-1.67.29-.28.59-.55.88-.82.59-.54,1.2-1.06,1.82-1.57l.93-.75c.32-.25.64-.49.96-.73.74-.56,1.51-1.1,2.29-1.62.41-.27.83-.54,1.25-.8.45-.28.91-.55,1.37-.82s.95-.54,1.43-.8c.03-.02.06-.03.09-.05.24-.12.48-.25.72-.37A49.68,49.68,0,0,1,808.43.26a49.726,49.726,0,0,0-23.3,6.66A50,50,0,0,1,810,46.67c-.07.99-.12,1.98-.12,2.99A49.631,49.631,0,0,0,791.43,31.55Z"/><path class="cls-2" d="M822.59,98.59a53.333,53.333,0,0,0,6.11-2.03A46.545,46.545,0,0,1,822.59,98.59Z"/><path class="cls-2" d="M834.87,93.54c-.16.1-.32.19-.49.28-.43.25-.86.48-1.29.7.18-.1.37-.2.56-.31.4-.22.81-.45,1.21-.68Z"/></g></g></g></svg>