<svg id="Main" xmlns="http://www.w3.org/2000/svg" viewBox="0 0 210 270"><defs><style>.cls-1{fill:#1c1e20;}.cls-2{fill:#121221;}.cls-3{fill:#366ce1;}</style></defs><title>owaspzed</title><g id="Owasp_zed" data-name="Owasp zed"><rect class="cls-1" x="10" y="170" width="10" height="10"/><rect class="cls-1" y="180" width="10" height="10"/><rect class="cls-1" x="10" y="190" width="10" height="10"/><rect class="cls-1" x="20" y="180" width="10" height="10"/><rect class="cls-1" x="40" y="170" width="10" height="10"/><rect class="cls-1" x="40" y="180" width="10" height="10"/><rect class="cls-1" x="50" y="190" width="10" height="10"/><rect class="cls-1" x="465" y="470" width="10" height="10" transform="translate(-400 665) rotate(-90)"/><rect class="cls-1" x="505" y="470" width="10" height="10" transform="translate(-360 705) rotate(-90)"/><rect class="cls-1" x="475" y="460" width="10" height="10" transform="translate(-380 665) rotate(-90)"/><rect class="cls-1" x="475" y="450" width="10" height="10" transform="translate(-370 655) rotate(-90)"/><rect class="cls-1" x="505" y="450" width="10" height="10" transform="translate(570 -335) rotate(90)"/><rect class="cls-1" x="545" y="450" width="10" height="10" transform="translate(610 -375) rotate(90)"/><rect class="cls-1" x="595" y="450" width="10" height="10" transform="translate(660 -425) rotate(90)"/><rect class="cls-1" x="575" y="450" width="10" height="10" transform="translate(640 -405) rotate(90)"/><rect class="cls-1" x="495" y="460" width="10" height="10" transform="translate(570 -315) rotate(90)"/><rect class="cls-1" x="545" y="460" width="10" height="10" transform="translate(620 -365) rotate(90)"/><rect class="cls-1" x="495" y="470" width="10" height="10" transform="translate(580 -305) rotate(90)"/><rect class="cls-1" x="515" y="460" width="10" height="10" transform="translate(590 -335) rotate(90)"/><rect class="cls-1" x="535" y="460" width="10" height="10" transform="translate(610 -355) rotate(90)"/><rect class="cls-1" x="575" y="470" width="10" height="10" transform="translate(660 -385) rotate(90)"/><rect class="cls-1" x="555" y="460" width="10" height="10" transform="translate(630 -375) rotate(90)"/><rect class="cls-1" x="585" y="460" width="10" height="10" transform="translate(660 -405) rotate(90)"/><rect class="cls-1" x="585" y="450" width="10" height="10" transform="translate(650 -415) rotate(90)"/><rect class="cls-1" x="545" y="470" width="10" height="10" transform="translate(630 -355) rotate(90)"/><rect class="cls-1" x="575" y="460" width="10" height="10" transform="translate(650 -395) rotate(90)"/><rect class="cls-1" x="515" y="470" width="10" height="10" transform="translate(600 -325) rotate(90)"/><rect class="cls-1" x="60" y="180" width="10" height="10"/><rect class="cls-1" x="20" y="220" width="50" height="10"/><rect class="cls-1" x="20" y="260" width="50" height="10"/><rect class="cls-1" x="80" y="220" width="50" height="10"/><rect class="cls-1" x="80" y="260" width="50" height="10"/><rect class="cls-1" x="80" y="240" width="50" height="10"/><rect class="cls-1" x="515" y="520" width="50" height="10" transform="translate(670 -295) rotate(90)"/><rect class="cls-1" x="30" y="250" width="10" height="10"/><rect class="cls-1" x="40" y="240" width="10" height="10"/><rect class="cls-1" x="80" y="250" width="10" height="10"/><rect class="cls-1" x="50" y="230" width="10" height="10"/><rect class="cls-1" x="150" y="220" width="30" height="10"/><rect class="cls-1" x="150" y="260" width="30" height="10"/><rect class="cls-1" x="565" y="520" width="30" height="10" transform="translate(710 -335) rotate(90)"/><rect class="cls-1" x="80" y="230" width="10" height="10"/><rect class="cls-1" x="55" y="150" width="10" height="10"/><rect class="cls-1" x="55" y="140" width="10" height="10"/><rect class="cls-1" x="75" y="140" width="10" height="10"/><rect class="cls-1" x="55" y="130" width="10" height="10"/><rect class="cls-1" x="55" y="120" width="10" height="10"/><rect class="cls-1" x="75" y="90" width="10" height="10"/><rect class="cls-1" x="75" y="80" width="10" height="10"/><rect class="cls-1" x="75" y="10" width="10" height="10"/><rect class="cls-1" x="75" width="10" height="10"/><rect class="cls-1" x="135" y="30" width="10" height="10"/><rect class="cls-1" x="135" y="20" width="10" height="10"/><rect class="cls-1" x="55" y="60" width="10" height="10"/><rect class="cls-1" x="55" y="50" width="10" height="10"/><rect class="cls-2" x="65" y="60" width="10" height="10"/><rect class="cls-2" x="65" y="50" width="10" height="10"/><rect class="cls-2" x="75" y="110" width="10" height="10"/><rect class="cls-2" x="75" y="100" width="10" height="10"/><rect class="cls-1" x="75" y="70" width="10" height="10"/><rect class="cls-2" x="85" y="90" width="10" height="10"/><rect class="cls-2" x="85" y="80" width="10" height="10"/><rect class="cls-2" x="85" y="70" width="10" height="10"/><rect class="cls-2" x="65" y="140" width="10" height="10"/><rect class="cls-2" x="65" y="130" width="10" height="10"/><rect class="cls-2" x="65" y="120" width="10" height="10"/><rect class="cls-1" x="65" y="110" width="10" height="10"/><rect class="cls-1" x="115" y="60" width="10" height="10"/><rect class="cls-1" x="65" y="100" width="10" height="10"/><rect class="cls-1" x="65" y="150" width="10" height="10"/><rect class="cls-1" x="55" y="70" width="10" height="10"/><rect class="cls-1" x="65" y="30" width="10" height="10"/><rect class="cls-1" x="65" y="20" width="10" height="10"/><rect class="cls-1" x="65" y="40" width="10" height="10"/><rect class="cls-2" x="75" y="30" width="10" height="10"/><rect class="cls-2" x="75" y="20" width="10" height="10"/><rect class="cls-2" x="75" y="40" width="10" height="10"/><rect class="cls-1" x="125" y="50" width="10" height="10"/><rect class="cls-1" x="125" y="40" width="10" height="10"/><rect class="cls-1" x="125" y="60" width="10" height="10"/><rect class="cls-1" x="65" y="70" width="10" height="10"/><rect class="cls-1" x="145" y="60" width="10" height="10"/><rect class="cls-1" x="135" y="60" width="10" height="10"/><rect class="cls-1" x="115" width="10" height="10"/><rect class="cls-1" x="125" width="10" height="10"/><rect class="cls-1" x="135" width="10" height="10"/><rect class="cls-1" x="85" width="10" height="10"/><rect class="cls-1" x="95" width="10" height="10"/><rect class="cls-1" x="105" width="10" height="10"/><rect class="cls-2" x="85" y="10" width="10" height="10"/><rect class="cls-2" x="95" y="10" width="10" height="10"/><rect class="cls-2" x="105" y="10" width="10" height="10"/><rect class="cls-2" x="115" y="10" width="10" height="10"/><rect class="cls-2" x="125" y="10" width="10" height="10"/><rect class="cls-2" x="135" y="10" width="10" height="10"/><rect class="cls-2" x="115" y="70" width="10" height="10"/><rect class="cls-2" x="125" y="70" width="10" height="10"/><rect class="cls-2" x="135" y="70" width="10" height="10"/><rect class="cls-1" x="95" y="120" width="10" height="10"/><rect class="cls-1" x="85" y="130" width="10" height="10"/><rect class="cls-1" x="105" y="110" width="10" height="10"/><rect class="cls-1" x="115" y="100" width="10" height="10"/><rect class="cls-1" x="125" y="90" width="10" height="10"/><polygon class="cls-3" points="135 20 135 40 125 40 125 60 115 60 115 80 135 80 135 90 125 90 125 100 115 100 115 110 105 110 105 120 95 120 95 130 85 130 85 140 75 140 75 120 85 120 85 100 95 100 95 70 75 70 75 50 85 50 85 20 135 20"/><rect class="cls-1" x="135" y="80" width="10" height="10"/><rect class="cls-1" x="145" y="70" width="10" height="10"/><rect class="cls-1" x="145" width="10" height="10"/><rect class="cls-1" x="145" y="10" width="10" height="10"/></g></svg>