<svg xmlns="http://www.w3.org/2000/svg" viewBox="0 0 674.183 132.615"><defs><style>.cls-1{fill:#121221;}.cls-2{fill:#366ce1;}</style></defs><title>pageduty</title><g id="Слой_2" data-name="Слой 2"><g id="Work_space" data-name="Work space"><g id="pageduty"><path class="cls-1" d="M389.85,2.615h-50v100h50a50,50,0,1,0,0-100Zm0,80h-30v-60h30a30,30,0,0,1,0,60Z"/><path class="cls-2" d="M70,0H0V100H20V60H70A30,30,0,0,0,70,0Zm0,40H20V20H70a10,10,0,0,1,0,20Z"/><path class="cls-2" d="M155.852,36.766C121.2,15,84.674,49.743,102.812,84.453a33.824,33.824,0,0,0,12.079,12.114c14.872,7.821,29.788,5.585,40.252-2.288v7.15h14.286V61.418A29.1,29.1,0,0,0,155.852,36.766Zm-9.213,46.543c-21.251,12.929-43.448-9.268-30.52-30.52a14,14,0,0,1,4.67-4.67c21.252-12.928,43.449,9.269,30.52,30.52A13.979,13.979,0,0,1,146.639,83.309Z"/><path class="cls-2" d="M325.85,72.857a35.744,35.744,0,0,0,0-14.286,35.715,35.715,0,0,0-69.986,0,35.744,35.744,0,0,0,0,14.286A35.7,35.7,0,0,0,314.914,92.1q-5.69-4.554-11.385-9.107a21.423,21.423,0,0,1-32.872-10.136ZM290.857,44.286a21.413,21.413,0,0,1,20.2,14.285h-40.4A21.414,21.414,0,0,1,290.857,44.286Z"/><path class="cls-1" d="M444.85,67.615V31.5h14.444V67.615a21.667,21.667,0,1,0,43.334,0V31.5h14.444v72.222H502.628V96.5A36.1,36.1,0,0,1,444.85,67.615Z"/><path class="cls-1" d="M596.516,67.615a36.111,36.111,0,1,1-72.222,0v-65h14.445V31.5h21.666V45.948H538.739V67.615a21.667,21.667,0,1,0,43.333,0Z"/><path class="cls-2" d="M233.714,30v7.15a35.709,35.709,0,1,0-42.857,57.129.007.007,0,0,0,.007.007,35.569,35.569,0,0,0,14.879,6.543,35.97,35.97,0,0,0,6.543.6,35.523,35.523,0,0,0,21.428-7.15v.007a21.425,21.425,0,0,1-36.578,15.15q-5.048,5.046-10.1,10.1A35.709,35.709,0,0,0,248,94.286V30ZM228.25,80a21.429,21.429,0,0,1-37.393-14.279v-.007a21.429,21.429,0,0,1,42.857,0v.007A21.312,21.312,0,0,1,228.25,80Z"/><path class="cls-1" d="M674.183,31.5v65a36.106,36.106,0,0,1-61.642,25.531l10.213-10.213A21.663,21.663,0,0,0,659.739,96.5V96.5a35.913,35.913,0,0,1-21.667,7.229,36.1,36.1,0,0,1-36.111-36.111V31.5h14.444V67.622a21.667,21.667,0,0,0,43.334,0V31.5Z"/></g></g></g></svg>