<svg xmlns="http://www.w3.org/2000/svg" viewBox="0 0 470 370"><defs><style>.cls-1,.cls-4{fill:#e1dfdf;}.cls-2,.cls-4{opacity:0.38;}.cls-3,.cls-5{fill:#366ce1;}.cls-5{opacity:0.62;}</style></defs><title>paleblue</title><g id="Complete"><g id="paleblue"><path class="cls-1" d="M335,400H265V500h20V460h50a30,30,0,0,0,0-60Zm0,40H285V420h50a10,10,0,0,1,0,20Z" transform="translate(-265 -130)"/><path class="cls-1" d="M440,496.955A25,25,0,0,1,403.045,475V430h10v45A15,15,0,0,0,432.4,489.355Z" transform="translate(-265 -130)"/><path class="cls-1" d="M390.5,454.736c-24.254-15.238-49.824,9.084-37.128,33.381a23.694,23.694,0,0,0,8.455,8.48c10.411,5.474,20.852,3.909,28.177-1.6v5h10V471.993A20.374,20.374,0,0,0,390.5,454.736Zm-6.449,32.581c-14.876,9.05-30.414-6.488-21.364-21.364a9.8,9.8,0,0,1,3.27-3.27c14.876-9.05,30.414,6.488,21.364,21.364A9.8,9.8,0,0,1,384.047,487.317Z" transform="translate(-265 -130)"/><path class="cls-1" d="M484.5,480a25,25,0,0,0,0-10,25,25,0,0,0-48.99,0,25,25,0,0,0,0,10,24.993,24.993,0,0,0,41.335,13.47q-3.982-3.187-7.97-6.375a15,15,0,0,1-23.01-7.1ZM460,460a14.989,14.989,0,0,1,14.14,10H445.86A14.989,14.989,0,0,1,460,460Z" transform="translate(-265 -130)"/><g class="cls-2"><path class="cls-3" d="M335,400H265V500h20V460h50a30,30,0,0,0,0-60Zm0,40H285V420h50a10,10,0,0,1,0,20Z" transform="translate(-265 -130)"/><path class="cls-3" d="M440,496.955A25,25,0,0,1,403.045,475V430h10v45A15,15,0,0,0,432.4,489.355Z" transform="translate(-265 -130)"/><path class="cls-3" d="M390.5,454.736c-24.254-15.238-49.824,9.084-37.128,33.381a23.694,23.694,0,0,0,8.455,8.48c10.411,5.474,20.852,3.909,28.177-1.6v5h10V471.993A20.374,20.374,0,0,0,390.5,454.736Zm-6.449,32.581c-14.876,9.05-30.414-6.488-21.364-21.364a9.8,9.8,0,0,1,3.27-3.27c14.876-9.05,30.414,6.488,21.364,21.364A9.8,9.8,0,0,1,384.047,487.317Z" transform="translate(-265 -130)"/><path class="cls-3" d="M484.5,480a25,25,0,0,0,0-10,25,25,0,0,0-48.99,0,25,25,0,0,0,0,10,24.993,24.993,0,0,0,41.335,13.47q-3.982-3.187-7.97-6.375a15,15,0,0,1-23.01-7.1ZM460,460a14.989,14.989,0,0,1,14.14,10H445.86A14.989,14.989,0,0,1,460,460Z" transform="translate(-265 -130)"/></g><path class="cls-3" d="M595,430a30,30,0,0,0-30-30H495V500h70a29.991,29.991,0,0,0,22.35-50A29.862,29.862,0,0,0,595,430Zm-80-10h50a10,10,0,0,1,0,20H515Zm50,60H515V460h50a10,10,0,0,1,0,20Z" transform="translate(-265 -130)"/><path class="cls-3" d="M680,450v25a25,25,0,0,1-50,0V450h10v25a15,15,0,0,0,30,0V450Z" transform="translate(-265 -130)"/><path class="cls-3" d="M635,496.955A25,25,0,0,1,598.045,475V430h10v45A15,15,0,0,0,627.4,489.355Z" transform="translate(-265 -130)"/><path class="cls-3" d="M734.5,480a25,25,0,0,0,0-10,25,25,0,0,0-48.99,0,25,25,0,0,0,0,10,24.993,24.993,0,0,0,41.335,13.47q-3.983-3.187-7.97-6.375a15,15,0,0,1-23.01-7.1ZM710,460a14.989,14.989,0,0,1,14.14,10H695.86A14.989,14.989,0,0,1,710,460Z" transform="translate(-265 -130)"/><g class="cls-2"><path class="cls-1" d="M595,430a30,30,0,0,0-30-30H495V500h70a29.991,29.991,0,0,0,22.35-50A29.862,29.862,0,0,0,595,430Zm-80-10h50a10,10,0,0,1,0,20H515Zm50,60H515V460h50a10,10,0,0,1,0,20Z" transform="translate(-265 -130)"/><path class="cls-1" d="M680,450v25a25,25,0,0,1-50,0V450h10v25a15,15,0,0,0,30,0V450Z" transform="translate(-265 -130)"/><path class="cls-1" d="M635,496.955A25,25,0,0,1,598.045,475V430h10v45A15,15,0,0,0,627.4,489.355Z" transform="translate(-265 -130)"/><path class="cls-1" d="M734.5,480a25,25,0,0,0,0-10,25,25,0,0,0-48.99,0,25,25,0,0,0,0,10,24.993,24.993,0,0,0,41.335,13.47q-3.983-3.187-7.97-6.375a15,15,0,0,1-23.01-7.1ZM710,460a14.989,14.989,0,0,1,14.14,10H695.86A14.989,14.989,0,0,1,710,460Z" transform="translate(-265 -130)"/></g><circle class="cls-4" cx="195" cy="80" r="80"/><circle class="cls-5" cx="275" cy="80" r="80"/><circle class="cls-4" cx="275" cy="160" r="80"/><circle class="cls-5" cx="195" cy="160" r="80"/></g></g></svg>