<svg xmlns="http://www.w3.org/2000/svg" viewBox="0 0 746.7 136.92"><defs><style>.cls-1,.cls-3{fill:#121221;}.cls-2{fill:#366ce1;}.cls-3{opacity:0.38;}</style></defs><title>pando</title><g id="Слой_2" data-name="Слой 2"><g id="Work_space" data-name="Work space"><g id="pando"><path class="cls-1" d="M746.69,50v.04l-20-.01V50a30,30,0,0,0-60,0l-20-.01a50,50,0,0,1,100,.01Z"/><path class="cls-2" d="M746.69,50.04v.02l-25,43.24-25.1,43.42L671.48,93.18,646.69,50.19v-.2l20,.01a30,30,0,0,0,60,.03Z"/><path class="cls-3" d="M746.69,50.24v.02l-25,43.24-25.1,43.42L671.48,93.38,646.69,50.39v-.2l20,.01a30,30,0,0,0,60,.03Z"/><polygon class="cls-1" points="646.58 49.99 646.69 49.99 646.69 50.19 646.58 49.99"/><path class="cls-1" d="M746.7,50.04l-.01.02v-.02Z"/><polygon class="cls-2" points="300 5.25 300 105.25 280 105.25 220 35.84 220 105.25 200 105.25 200 5.25 220 5.25 280 74.66 280 5.25 300 5.25"/><path class="cls-2" d="M360,5.25H310v100h50a50,50,0,0,0,0-100Zm0,80H330v-60h30a30,30,0,0,1,0,60Z"/><path class="cls-2" d="M470,5.25a50,50,0,1,0,50,50A50.005,50.005,0,0,0,470,5.25Zm0,80a30,30,0,1,1,30-30A30,30,0,0,1,470,85.25Z"/><path class="cls-2" d="M150.77,7.2l-.78-1.95H130.01l-.78,1.94L90,105.25h21.55l11.2-28h34.5l11.2,28H190ZM130.75,57.25,140,34.12l9.25,23.13Z"/><path class="cls-2" d="M70,5.25H0v100H20v-40H70a30,30,0,0,0,0-60Zm0,40H20v-20H70a10,10,0,0,1,0,20Z"/></g></g></g></svg>