<svg xmlns="http://www.w3.org/2000/svg" viewBox="0 0 870 115.46"><defs><style>.cls-1{fill:#366ce1;}.cls-2{fill:#121221;}</style></defs><title>panopto</title><g id="Слой_2" data-name="Слой 2"><g id="Work_space" data-name="Work space"><g id="panopto"><polygon class="cls-1" points="820 115.46 770 86.6 770 28.86 820 0 870 28.86 870 86.6 820 115.46"/><polygon class="cls-2" points="800 28.863 800 86.597 850 57.73 800 28.863"/><polygon class="cls-2" points="300 7.73 300 107.73 280 107.73 220 38.32 220 107.73 200 107.73 200 7.73 220 7.73 280 77.14 280 7.73 300 7.73"/><path class="cls-2" d="M360,7.73a50,50,0,1,0,50,50A50.005,50.005,0,0,0,360,7.73Zm0,80a30,30,0,1,1,30-30A30,30,0,0,1,360,87.73Z"/><path class="cls-2" d="M680,7.73a50,50,0,1,0,50,50A50.005,50.005,0,0,0,680,7.73Zm0,80a30,30,0,1,1,30-30A30,30,0,0,1,680,87.73Z"/><path class="cls-2" d="M150.77,9.68l-.78-1.95H130.01l-.78,1.94L90,107.73h21.55l11.2-28h34.5l11.2,28H190ZM130.75,59.73,140,36.6l9.25,23.13Z"/><path class="cls-2" d="M490,7.73H420v100h20v-40h50a30,30,0,0,0,0-60Zm0,40H440v-20h50a10,10,0,1,1,0,20Z"/><path class="cls-2" d="M70,7.73H0v100H20v-40H70a30,30,0,0,0,0-60Zm0,40H20v-20H70a10,10,0,1,1,0,20Z"/><polygon class="cls-2" points="630 7.73 630 27.73 590 27.73 590 107.73 570 107.73 570 27.73 530 27.73 530 7.73 630 7.73"/></g></g></g></svg>