<svg id="Main" xmlns="http://www.w3.org/2000/svg" viewBox="0 0 659.992 215"><defs><style>.cls-1{fill:#121221;}.cls-2{fill:#366ce1;}.cls-3{fill:#e1dfdf;}</style></defs><title>park_my_cloud</title><g id="ParkMyCloud"><path class="cls-1" d="M600,392.5H575v100h10v-35h15a25,25,0,0,0,25-25v-15A25,25,0,0,0,600,392.5Zm13.82,45.835A14.992,14.992,0,0,1,600,447.5H585v-45h15a14.992,14.992,0,0,1,13.82,9.165v0A14.881,14.881,0,0,1,615,417.5v15a14.881,14.881,0,0,1-1.18,5.83Z" transform="translate(-260.008 -392.5)"/><path class="cls-1" d="M730,452.5H720a14.881,14.881,0,0,0-1.18-5.83v0a15,15,0,0,0-27.64,0v0A14.881,14.881,0,0,0,690,452.5v40H680v-65h10v5a25,25,0,0,1,40,20Z" transform="translate(-260.008 -392.5)"/><path class="cls-1" d="M665,427.5v5a25,25,0,0,0-40,20v15a25,25,0,0,0,40,20v5h10v-65Zm-1.18,45.83v0a15,15,0,0,1-27.64,0v0A14.881,14.881,0,0,1,635,467.5v-15a14.881,14.881,0,0,1,1.18-5.83v0a15,15,0,0,1,27.64,0v0A14.881,14.881,0,0,1,665,452.5v15A14.881,14.881,0,0,1,663.82,473.33Z" transform="translate(-260.008 -392.5)"/><polygon class="cls-1" points="524.992 92.93 517.922 100 489.992 72.07 484.992 77.07 484.992 100 474.992 100 474.992 0 484.992 0 484.992 62.93 512.922 35 519.992 42.07 497.062 65 524.992 92.93"/><polygon class="cls-1" points="604.992 0 604.992 100 594.992 100 594.992 33.335 574.992 100 564.992 100 544.992 33.335 544.992 100 534.992 100 534.992 0 544.992 0 569.992 83.335 594.992 0 604.992 0"/><path class="cls-1" d="M920,427.5v95a25,25,0,0,1-50,0v-15h10v15a14.881,14.881,0,0,0,1.18,5.83v0a15,15,0,0,0,27.64,0v0A14.881,14.881,0,0,0,910,522.5v-35a0,0,0,0,0,0,0,25,25,0,0,1-40-20v-40h10v40a14.881,14.881,0,0,0,1.18,5.83v0a15,15,0,0,0,27.64,0v0A14.881,14.881,0,0,0,910,467.5v-40Z" transform="translate(-260.008 -392.5)"/><path class="cls-2" d="M695,547.505a25,25,0,0,0-40,20v15a25,25,0,0,0,50,0v-15A24.946,24.946,0,0,0,695,547.505Zm0,35a14.881,14.881,0,0,1-1.18,5.83v0a15,15,0,0,1-27.64,0v0A14.881,14.881,0,0,1,665,582.5v-15a14.881,14.881,0,0,1,1.18-5.83v0a15,15,0,0,1,27.64,0v0A14.881,14.881,0,0,1,695,567.5Z" transform="translate(-260.008 -392.5)"/><path class="cls-2" d="M805,507.5v40a25,25,0,0,0-40,20v15a25,25,0,0,0,40,20v5h10v-100Zm-1.18,80.83v0a15,15,0,0,1-27.64,0v0A14.881,14.881,0,0,1,775,582.5v-15a14.881,14.881,0,0,1,1.18-5.83v0a15,15,0,0,1,27.64,0v0A14.881,14.881,0,0,1,805,567.5v15A14.881,14.881,0,0,1,803.82,588.33Z" transform="translate(-260.008 -392.5)"/><path class="cls-2" d="M655,597.5v10a25,25,0,0,1-25-25v-75h10v75a14.881,14.881,0,0,0,1.18,5.83v0A14.992,14.992,0,0,0,655,597.5Z" transform="translate(-260.008 -392.5)"/><path class="cls-2" d="M614.14,587.5H624.5a25,25,0,0,1-49.5-5v-50a25,25,0,0,1,49.5-5H614.14c-.1-.28-.205-.56-.32-.83v0a15,15,0,0,0-27.64,0v0A14.881,14.881,0,0,0,585,532.5v50a14.881,14.881,0,0,0,1.18,5.83v0a15,15,0,0,0,27.64,0v0C613.935,588.06,614.045,587.78,614.14,587.5Z" transform="translate(-260.008 -392.5)"/><path class="cls-2" d="M760,542.5v40a25,25,0,0,1-50,0v-40h10v40a14.881,14.881,0,0,0,1.18,5.83v0a15,15,0,0,0,27.64,0v0A14.881,14.881,0,0,0,750,582.5v-40Z" transform="translate(-260.008 -392.5)"/><path class="cls-3" d="M559.854,532.07A29.982,29.982,0,0,0,529,505.02,50.025,50.025,0,0,0,480,465h-21.01a50,50,0,0,0-97.98,0H340a50.016,50.016,0,0,0-49,40.01,30.388,30.388,0,0,0-3.92.13A30,30,0,0,0,290,565H530a28.847,28.847,0,0,0,2.92-.15A29.983,29.983,0,0,0,559.854,532.07ZM409.994,545a.01.01,0,0,1,.02,0Z" transform="translate(-260.008 -392.5)"/><path class="cls-2" d="M410,455H380V555h10V545h20a30,30,0,0,0,30-30V485A30,30,0,0,0,410,455Zm0,80H390V465h20a19.994,19.994,0,0,1,20,20v30A19.994,19.994,0,0,1,410,535Z" transform="translate(-260.008 -392.5)"/><rect class="cls-2" x="119.996" y="152.5" width="10" height="30"/><rect class="cls-2" x="29.996" y="172.5" width="240" height="10"/></g></svg>