<svg xmlns="http://www.w3.org/2000/svg" viewBox="0 0 300 260"><defs><style>.cls-1{fill:#366ce1;}.cls-2{fill:#121221;}</style></defs><title>partition_wizard</title><g id="complete"><g id="partitionWizard"><path class="cls-1" d="M448.39,410c-56.12,0-101.62,30.33-101.62,67.74,0,13.77,6.16,26.58,16.74,37.26,18.18,18.36,49.41,30.48,84.88,30.48s66.7-12.12,84.87-30.48C543.84,504.32,550,491.51,550,477.74,550,440.33,504.5,410,448.39,410Zm45.68,110-47.39-17.08L399.29,520l9.05-36.18L370,458.2l52.98-5.28L446.68,420l23.69,32.92,52.98,5.28-38.34,25.62Z" transform="translate(-300 -410)"/><path class="cls-2" d="M550,477.74v74.52C550,589.67,504.5,620,448.39,620s-101.62-30.33-101.62-67.74V477.74c0,13.77,6.16,26.58,16.74,37.26,18.18,18.36,49.41,30.48,84.88,30.48s66.7-12.12,84.87-30.48C543.84,504.32,550,491.51,550,477.74Z" transform="translate(-300 -410)"/><rect class="cls-2" x="435" y="500" width="30" height="300" transform="translate(800 -210) rotate(90)"/><rect class="cls-1" x="530" y="600" width="40" height="100" transform="translate(900 -310) rotate(90)"/><rect class="cls-1" x="330" y="600" width="40" height="100" transform="translate(700 -110) rotate(90)"/><polygon class="cls-2" points="185.01 73.82 194.07 110 146.68 92.92 99.29 110 108.34 73.82 70 48.2 122.98 42.92 146.68 10 170.37 42.92 223.35 48.2 185.01 73.82"/></g></g></svg>