<svg xmlns="http://www.w3.org/2000/svg" viewBox="0 0 1573.92 176.62"><defs><style>.cls-1{fill:#366ce1;}.cls-2{fill:#121221;}.cls-3{fill:#1c1e20;}</style></defs><title>patch manager</title><g id="Слой_2" data-name="Слой 2"><g id="Work_space" data-name="Work space"><g id="patch_manager" data-name="patch manager"><path class="cls-1" d="M408.28,98.31h20.71a50,50,0,1,1,0-20H408.28a30,30,0,1,0,0,20Z"/><polygon class="cls-2" points="920 38.31 920 138.31 900 138.31 840 68.9 840 138.31 820 138.31 820 38.31 840 38.31 900 107.72 900 38.31 920 38.31"/><polygon class="cls-2" points="700 38.31 700 138.31 680 138.31 680 68.9 663.2 88.36 649.99 103.67 636.78 88.36 620 68.93 620 138.31 600 138.31 600 38.31 620 38.31 620 38.32 649.99 73.06 679.98 38.31 700 38.31"/><polygon class="cls-1" points="540 38.31 540 138.31 520 138.31 520 98.31 460 98.31 460 138.31 440 138.31 440 38.31 460 38.31 460 78.31 520 78.31 520 38.31 540 38.31"/><polygon class="cls-2" points="1160 58.31 1160 78.31 1240 78.31 1240 98.31 1160 98.31 1160 118.31 1240 118.31 1240 138.31 1140 138.31 1140 38.31 1240 38.31 1240 58.31 1160 58.31"/><path class="cls-2" d="M1350,68.31a30,30,0,0,0-30-30h-70v100h20v-40h50a10,10,0,0,1,10,10v30h20v-30a29.862,29.862,0,0,0-7.65-20A29.862,29.862,0,0,0,1350,68.31Zm-80,10v-20h50a10,10,0,0,1,0,20Z"/><path class="cls-1" d="M170.77,40.26l-.78-1.95H150.01l-.78,1.94L110,138.31h21.55l11.2-28h34.5l11.2,28H210ZM150.75,90.31,160,67.18l9.25,23.13Z"/><path class="cls-2" d="M770.77,40.26l-.78-1.95H750.01l-.78,1.94L710,138.31h21.55l11.2-28h34.5l11.2,28H810ZM750.75,90.31,760,67.18l9.25,23.13Z"/><path class="cls-2" d="M990.77,40.26l-.78-1.95H970.01l-.78,1.94L930,138.31h21.55l11.2-28h34.5l11.2,28H1030ZM970.75,90.31,980,67.18l9.25,23.13Z"/><path class="cls-2" d="M1130,78.31v10a49.16,49.16,0,0,1-1.01,10,50.013,50.013,0,1,1-13.64-45.35L1101.21,67.1a30,30,0,1,0,7.07,31.21H1080v-20Z"/><path class="cls-1" d="M70,38.31H0v100H20v-40H70a30,30,0,0,0,0-60Zm0,40H20v-20H70a10,10,0,0,1,0,20Z"/><polygon class="cls-1" points="320 38.31 320 58.31 280 58.31 280 138.31 260 138.31 260 58.31 220 58.31 220 38.31 320 38.31"/><path class="cls-1" d="M1573.92,58.86V176.61l-.02.01-59.14-34.14-34.69-20.02a10,10,0,1,0-16.22,0l-34.68,20.02-59.15,34.14-.02-.01V58.86L1471.97,0Z"/><path class="cls-3" d="M1471.96,66.62a50.009,50.009,0,1,0,50,50A50.005,50.005,0,0,0,1471.96,66.62Zm0,60a10.015,10.015,0,1,1,8.11-4.16A9.966,9.966,0,0,1,1471.96,126.62Z"/></g></g></g></svg>