<svg xmlns="http://www.w3.org/2000/svg" viewBox="0 0 729.96 100"><defs><style>.cls-1{fill:#121221;}</style></defs><title>pay mily</title><g id="Слой_2" data-name="Слой 2"><g id="Work_space" data-name="Work space"><g id="pay_mily" data-name="pay mily"><path class="cls-1" d="M159.76,55l-4.51-10L135.54,1.27l.01-.01L135.06.18h-.01L134.97,0h-9.84l-.08.18V.2l-.47,1.05h-.01L104.85,45l-4.51,10L80.06,100H91.03l20.28-45h37.48l20.28,45h10.97Zm-19.71-2.96-.02-.04h.02ZM115.82,45l14.23-31.58L144.29,45Z"/><path class="cls-1" d="M399.99.07V.04L400,0h9.97l20.01,78.98Q439.99,39.489,450,0h9.99l.01.01q15,50,29.99,99.99H479.55L455.37,19.43l-20.24,79.9-.14.56-.03.11h-9.97l-.17-.66L404.59,19.51,380.44,100H370Q385,50.035,399.99.07Z"/><path class="cls-1" d="M70,0H0V100H10V60H70A30,30,0,0,0,70,0Zm0,50H10V10H70a20,20,0,0,1,0,40Z"/><polygon class="cls-1" points="660 90 660 100 560 100 560 0 570 0 570 90 660 90"/><polygon class="cls-1" points="530 10 530 90 550 90 550 100 500 100 500 90 520 90 520 10 500 10 500 0 550 0 550 10 530 10"/><polygon class="cls-1" points="729.96 0 686.7 48.16 684.97 50.09 684.97 100 674.97 100 674.97 50.06 673.26 48.16 630 0 643.45 0 679.98 40.68 716.52 0 729.96 0"/><polygon class="cls-1" points="250 0 206.74 48.16 205.01 50.09 205.01 100 195.01 100 195.01 50.06 193.3 48.16 150.04 0 163.49 0 200.02 40.68 236.56 0 250 0"/></g></g></g></svg>