<svg xmlns="http://www.w3.org/2000/svg" viewBox="0 0 1340 220"><defs><style>.cls-1,.cls-3,.cls-4{fill:#121221;}.cls-2{fill:#366ce1;}.cls-3{opacity:0.38;}.cls-4{opacity:0.62;}</style></defs><title>pdf element</title><g id="Слой_2" data-name="Слой 2"><g id="Work_space" data-name="Work space"><g id="pdf_element" data-name="pdf element"><polygon class="cls-1" points="500 20 500 40 560 40 560 60 500 60 500 100 480 100 480 0 580 0 580 20 500 20"/><polygon class="cls-2" points="1230 120 1230 220 1210 220 1150 150.59 1150 220 1130 220 1130 120 1150 120 1210 189.41 1210 120 1230 120"/><path class="cls-1" d="M420,0H370V100h50A50,50,0,0,0,420,0Zm0,80H390V20h30a30,30,0,0,1,0,60Z"/><polygon class="cls-2" points="1010 120 1010 220 990 220 990 150.59 973.2 170.05 959.99 185.36 946.78 170.05 930 150.62 930 220 910 220 910 120 930 120 930 120.01 959.99 154.75 989.98 120 1010 120"/><polygon class="cls-2" points="600 140 600 160 680 160 680 180 600 180 600 200 680 200 680 220 580 220 580 120 680 120 680 140 600 140"/><polygon class="cls-2" points="820 140 820 160 900 160 900 180 820 180 820 200 900 200 900 220 800 220 800 120 900 120 900 140 820 140"/><polygon class="cls-2" points="1040 140 1040 160 1120 160 1120 180 1040 180 1040 200 1120 200 1120 220 1020 220 1020 120 1120 120 1120 140 1040 140"/><polygon class="cls-2" points="790 200 790 220 690 220 690 120 710 120 710 200 790 200"/><path class="cls-1" d="M330,0H260V100h20V60h50a30,30,0,0,0,0-60Zm0,40H280V20h50a10,10,0,0,1,0,20Z"/><polygon class="cls-2" points="1340 120 1340 140 1300 140 1300 220 1280 220 1280 140 1240 140 1240 120 1340 120"/><path class="cls-2" d="M40,5H220a0,0,0,0,1,0,0V105a0,0,0,0,1,0,0H20a0,0,0,0,1,0,0V25A20,20,0,0,1,40,5Z"/><path class="cls-3" d="M40,5H220a0,0,0,0,1,0,0V105a0,0,0,0,1,0,0H20a0,0,0,0,1,0,0V25A20,20,0,0,1,40,5Z"/><path class="cls-2" d="M120,115a20.007,20.007,0,0,0-20,20v80H0V135a20.007,20.007,0,0,1,20-20Z"/><path class="cls-4" d="M120,115a20.007,20.007,0,0,0-20,20v80H0V135a20.007,20.007,0,0,1,20-20Z"/></g></g></g></svg>