<svg xmlns="http://www.w3.org/2000/svg" viewBox="0 0 835.783 100"><defs><style>.cls-1{fill:#121221;}.cls-2{fill:#366ce1;}</style></defs><title>perimeter X</title><g id="Слой_2" data-name="Слой 2"><g id="Work_space" data-name="Work space"><g id="perimeter_X" data-name="perimeter X"><path class="cls-1" d="M70,0H0V100H20V60H70A30,30,0,0,0,70,0Zm0,40H20V20H70a10,10,0,0,1,0,20Z"/><path class="cls-1" d="M355.714,53.571V100H341.429V53.571a10.715,10.715,0,0,0-21.429,0h0V100H305.714V53.571h0a10.714,10.714,0,1,0-21.428,0V100H270V53.571A25.594,25.594,0,0,1,270.25,50a25.008,25.008,0,0,1,42.607-13.929A25.008,25.008,0,0,1,355.464,50,25.442,25.442,0,0,1,355.714,53.571Z"/><rect class="cls-1" x="241.429" y="28.571" width="14.286" height="71.429"/><rect class="cls-1" x="241.429" y="7.143" width="14.286" height="14.286"/><path class="cls-1" d="M170.707,71.429a35.7,35.7,0,0,0,0-14.286,35.714,35.714,0,0,0-69.986,0,35.744,35.744,0,0,0,0,14.286,35.7,35.7,0,0,0,59.05,19.242q-5.688-4.553-11.385-9.107a21.424,21.424,0,0,1-32.872-10.135ZM135.714,42.857a21.412,21.412,0,0,1,20.2,14.286h-40.4A21.414,21.414,0,0,1,135.714,42.857Z"/><path class="cls-1" d="M590.907,71.429a35.7,35.7,0,0,0,0-14.286,35.714,35.714,0,0,0-69.986,0,35.744,35.744,0,0,0,0,14.286,35.7,35.7,0,0,0,59.05,19.242q-5.688-4.553-11.385-9.107a21.424,21.424,0,0,1-32.872-10.135ZM555.914,42.857a21.412,21.412,0,0,1,20.2,14.286h-40.4A21.414,21.414,0,0,1,555.914,42.857Z"/><path class="cls-1" d="M433.564,71.429a35.7,35.7,0,0,0,0-14.286,35.714,35.714,0,0,0-69.985,0,35.7,35.7,0,0,0,0,14.286,35.7,35.7,0,0,0,59.05,19.242q-5.69-4.553-11.386-9.107a21.424,21.424,0,0,1-32.872-10.135ZM398.571,42.857a21.412,21.412,0,0,1,20.2,14.286h-40.4A21.414,21.414,0,0,1,398.571,42.857Z"/><path class="cls-1" d="M515.914,64.286a35.714,35.714,0,0,1-71.428,0V0h14.285V28.571H480.2V42.857H458.771V64.286a21.429,21.429,0,0,0,42.858,0Z"/><path class="cls-1" d="M232.857,33.664q-3.675,6.129-7.35,12.25a21.422,21.422,0,0,0-32.45,18.372V100H178.771V28.571h14.286v7.15a35.684,35.684,0,0,1,39.8-2.057Z"/><path class="cls-1" d="M654.086,33.664q-3.675,6.129-7.35,12.25a21.422,21.422,0,0,0-32.45,18.372V100H600V28.571h14.286v7.15a35.684,35.684,0,0,1,39.8-2.057Z"/><polygon class="cls-2" points="798.283 50.03 835.733 100 810.743 100 785.793 66.7 760.833 100 735.853 100 773.293 50.03 735.803 0 760.783 0 785.793 33.36 810.793 0 835.783 0 798.283 50.03"/></g></g></g></svg>