<svg xmlns="http://www.w3.org/2000/svg" viewBox="0 0 210 210"><defs><style>.cls-1{fill:#121221;}.cls-2{fill:#366ce1;}</style></defs><title>peyl</title><g id="Слой_2" data-name="Слой 2"><g id="Work_space" data-name="Work space"><g id="peyl"><polygon class="cls-1" points="130 20 130 40 210 40 210 60 130 60 130 80 210 80 210 100 110 100 110 0 210 0 210 20 130 20"/><polygon class="cls-2" points="210 190 210 210 110 210 110 110 130 110 130 190 210 190"/><path class="cls-2" d="M70,0H0V100H20V60H70A30,30,0,0,0,70,0Zm0,40H20V20H70a10,10,0,0,1,0,20Z"/><polygon class="cls-1" points="62.83 156.46 60 160 60.05 160 60.05 210 40.05 210 40.05 160 37.22 156.46 0.05 110 25.66 110 50.02 140.45 74.38 110 100 110 62.83 156.46"/></g></g></g></svg>