<svg xmlns="http://www.w3.org/2000/svg" viewBox="0 0 560 100"><defs><style>.cls-1{fill:#366ce1;}.cls-2{fill:#121221;}</style></defs><title>phenom</title><g id="Слой_2" data-name="Слой 2"><g id="Work_space" data-name="Work space"><g id="phenom"><polygon class="cls-1" points="560 0 560 100 540 100 540 30.59 523.2 50.05 509.99 65.36 496.78 50.05 480 30.62 480 100 460 100 460 0 480 0 480 0.01 509.99 34.75 539.98 0 560 0"/><polygon class="cls-2" points="210 20 210 40 290 40 290 60 210 60 210 80 290 80 290 100 190 100 190 0 290 0 290 20 210 20"/><polygon class="cls-1" points="400 0 400 100 380 100 320 30.59 320 100 300 100 300 0 320 0 380 69.41 380 0 400 0"/><path class="cls-2" d="M430,0a50,50,0,1,0,50,50A50.005,50.005,0,0,0,430,0Zm0,80a30,30,0,1,1,30-30A30,30,0,0,1,430,80Z"/><path class="cls-1" d="M70,0H0V100H20V60H70A30,30,0,0,0,70,0Zm0,40H20V20H70a10,10,0,0,1,0,20Z"/><polygon class="cls-1" points="210 0 210 100 190 100 190 60 130 60 130 100 110 100 110 0 130 0 130 40 190 40 190 0 210 0"/></g></g></g></svg>