<svg xmlns="http://www.w3.org/2000/svg" viewBox="0 0 642.127 143.415"><defs><style>.cls-1,.cls-3,.cls-4{fill:#121221;}.cls-2{fill:#366ce1;}.cls-3{opacity:0.38;}.cls-4{opacity:0.62;}</style></defs><title>phiar technologies</title><g id="Слой_2" data-name="Слой 2"><g id="Work_space" data-name="Work space"><g id="phiar_technologies" data-name="phiar technologies"><polygon class="cls-1" points="412.08 110.775 412.08 135.255 420.24 135.255 420.24 143.415 395.76 143.415 395.76 135.255 403.92 135.255 403.92 110.775 395.76 110.775 395.76 102.615 420.24 102.615 420.24 110.775 412.08 110.775"/><polygon class="cls-2" points="270 20 270 80 290 80 290 100 230 100 230 80 250 80 250 20 230 20 230 0 290 0 290 20 270 20"/><path class="cls-1" d="M477.36,114.855a4.082,4.082,0,0,0,4.08,4.08h16.32a12.24,12.24,0,1,1,0,24.48H469.2v-8.16h28.56a4.08,4.08,0,0,0,0-8.16H481.44a12.24,12.24,0,0,1,0-24.48H510v8.16H481.44A4.082,4.082,0,0,0,477.36,114.855Z"/><polygon class="cls-1" points="175.44 102.615 175.44 143.415 167.28 143.415 167.28 127.095 142.8 127.095 142.8 143.415 134.64 143.415 134.64 102.615 142.8 102.615 142.8 118.935 167.28 118.935 167.28 102.615 175.44 102.615"/><polygon class="cls-2" points="210 0 210 100 190 100 190 60 130 60 130 100 110 100 110 0 130 0 130 40 190 40 190 0 210 0"/><polygon class="cls-1" points="432.48 110.775 432.48 118.935 465.12 118.935 465.12 127.095 432.48 127.095 432.48 135.255 465.12 135.255 465.12 143.415 424.32 143.415 424.32 102.615 465.12 102.615 465.12 110.775 432.48 110.775"/><polygon class="cls-1" points="53.04 110.775 53.04 118.935 85.68 118.935 85.68 127.095 53.04 127.095 53.04 135.255 85.68 135.255 85.68 143.415 44.88 143.415 44.88 102.615 85.68 102.615 85.68 110.775 53.04 110.775"/><polygon class="cls-1" points="310.08 135.255 310.08 143.415 269.28 143.415 269.28 102.615 277.44 102.615 277.44 135.255 310.08 135.255"/><path class="cls-2" d="M510,30A30,30,0,0,0,480,0H410V100h20V60h50a10,10,0,0,1,10,10v30h20V70a29.862,29.862,0,0,0-7.65-20A29.862,29.862,0,0,0,510,30ZM430,40V20h50a10,10,0,0,1,0,20Z"/><path class="cls-1" d="M330.48,102.615a20.4,20.4,0,1,0,20.4,20.4A20.4,20.4,0,0,0,330.48,102.615Zm0,32.64a12.24,12.24,0,1,1,12.24-12.24A12.239,12.239,0,0,1,330.48,135.255Z"/><polygon class="cls-1" points="220.32 102.615 220.32 143.415 212.16 143.415 187.68 115.096 187.68 143.415 179.52 143.415 179.52 102.615 187.68 102.615 212.16 130.934 212.16 102.615 220.32 102.615"/><path class="cls-1" d="M244.8,102.615a20.4,20.4,0,1,0,20.4,20.4A20.4,20.4,0,0,0,244.8,102.615Zm0,32.64a12.24,12.24,0,1,1,12.24-12.24A12.239,12.239,0,0,1,244.8,135.255Z"/><path class="cls-1" d="M122.11,127.1h8.45a20.4,20.4,0,1,1,0-8.16h-8.45a12.24,12.24,0,1,0,0,8.16Z"/><path class="cls-2" d="M360.77,1.95,359.99,0H340.01l-.78,1.94L300,100h21.55l11.2-28h34.5l11.2,28H400ZM340.75,52,350,28.87,359.25,52Z"/><path class="cls-1" d="M395.76,118.935v4.08a20.08,20.08,0,0,1-.412,4.08,20.405,20.405,0,1,1-5.565-18.5l-5.769,5.769A12.24,12.24,0,1,0,386.9,127.1H375.36v-8.16Z"/><path class="cls-2" d="M70,0H0V100H20V60H70A30,30,0,0,0,70,0Zm0,40H20V20H70a10,10,0,0,1,0,20Z"/><polygon class="cls-1" points="40.8 102.615 40.8 110.775 24.48 110.775 24.48 143.415 16.32 143.415 16.32 110.775 0 110.775 0 102.615 40.8 102.615"/><path class="cls-1" d="M587.127,108.938c1.03.12,2.07.19,3.12.23q-1.575-.045-3.12-.21Z"/><path class="cls-1" d="M601.436,87.718c.218-.071.436-.146.654-.223C601.873,87.572,601.655,87.647,601.436,87.718Z"/><path class="cls-1" d="M599.857,88.188c.534-.138,1.057-.3,1.579-.47C600.909,87.89,600.383,88.051,599.857,88.188Z"/><path class="cls-3" d="M601.436,87.746q.327-.106.654-.222C601.873,87.6,601.655,87.675,601.436,87.746Z"/><path class="cls-3" d="M599.857,88.216c.534-.138,1.057-.3,1.579-.47C600.909,87.918,600.383,88.08,599.857,88.216Z"/><path class="cls-1" d="M617.127,34.208a24.881,24.881,0,0,1-1,7,29.929,29.929,0,0,0-24-12,5,5,0,0,0-5,5v100h-20v-100a25,25,0,1,1,50,0Z"/><path class="cls-1" d="M609.247,106.178c1.18-.43,2.33-.89,3.45-1.39a48.792,48.792,0,0,1-8.77,3.01A52.325,52.325,0,0,0,609.247,106.178Z"/><path class="cls-2" d="M642.127,59.208a49.986,49.986,0,0,1-28.26,45.03l-6.91-18.96a29.991,29.991,0,0,0,9.17-44.07,25,25,0,0,0-22.71-31.97A50,50,0,0,1,642.127,59.208Z"/><path class="cls-2" d="M613.867,104.238c-.39.19-.77.37-1.17.55-1.12.5-2.27.96-3.45,1.39a52.325,52.325,0,0,1-5.32,1.62c-.71.17-1.43.33-2.14.47-.36.07-.72.14-1.07.2s-.72.12-1.08.17c-.71.11-1.43.2-2.14.28-.16.02-.31.03-.47.05q-.525.06-1.05.09c-.43.04-.85.06-1.28.08s-.85.04-1.28.05-.84.02-1.26.02h-.03c-.63,0-1.26-.01-1.88-.04-1.05-.04-2.09-.11-3.12-.23a49.99,49.99,0,0,1-13.28-96.26,25.007,25.007,0,0,0-10.41,37.81,30.01,30.01,0,0,0,23.69,38.29.019.019,0,0,0,.03,0c.26.05.52.09.78.13s.5.07.75.09c.72.09,1.44.15,2.17.18.4.02.81.03,1.21.03.92,0,1.85-.04,2.77-.12.3-.03.59-.06.89-.1.19-.02.39-.05.58-.08q.39-.045.78-.12a3.728,3.728,0,0,0,.44-.08c.32-.04.63-.11.94-.18.13-.03.26-.06.38-.09a8.76,8.76,0,0,0,1.01-.25,26.816,26.816,0,0,0,3.73-1.26c.39-.15.78-.32,1.16-.51.38-.16.75-.35,1.12-.55.37-.18.73-.38,1.09-.59Z"/><path class="cls-1" d="M602.09,87.5c.5-.177,1-.36,1.5-.567-.38.16-.78.32-1.18.46C602.3,87.426,602.2,87.458,602.09,87.5Z"/><path class="cls-1" d="M606.957,85.268v.01c-.36.21-.72.41-1.09.59C606.237,85.678,606.6,85.478,606.957,85.268Z"/><path class="cls-3" d="M609.247,106.206c1.18-.43,2.33-.89,3.45-1.39a48.792,48.792,0,0,1-8.77,3.01A52.325,52.325,0,0,0,609.247,106.206Z"/><path class="cls-4" d="M642.127,59.236a49.986,49.986,0,0,1-28.26,45.03l-6.91-18.96a29.991,29.991,0,0,0,9.17-44.07,25,25,0,0,0-22.71-31.97A50,50,0,0,1,642.127,59.236Z"/><path class="cls-3" d="M613.867,104.266c-.39.19-.77.37-1.17.55-1.12.5-2.27.96-3.45,1.39a52.325,52.325,0,0,1-5.32,1.62c-.71.17-1.43.33-2.14.47-.36.07-.72.14-1.07.2s-.72.12-1.08.17c-.71.11-1.43.2-2.14.28-.16.02-.31.03-.47.05q-.525.06-1.05.09c-.43.04-.85.06-1.28.08s-.85.04-1.28.05-.84.02-1.26.02h-.03c-.63,0-1.26-.01-1.88-.04-1.05-.04-2.09-.11-3.12-.23a49.99,49.99,0,0,1-13.28-96.26,25.007,25.007,0,0,0-10.41,37.81,30.01,30.01,0,0,0,23.69,38.29.019.019,0,0,0,.03,0c.26.05.52.09.78.13s.5.07.75.09c.72.09,1.44.15,2.17.18.4.02.81.03,1.21.03.92,0,1.85-.04,2.77-.12.3-.03.59-.06.89-.1.19-.02.39-.05.58-.08q.39-.045.78-.12a3.728,3.728,0,0,0,.44-.08c.32-.04.63-.11.94-.18.13-.03.26-.06.38-.09a8.76,8.76,0,0,0,1.01-.25,26.816,26.816,0,0,0,3.73-1.26c.39-.15.78-.32,1.16-.51.38-.16.75-.35,1.12-.55.37-.18.73-.38,1.09-.59Z"/><path class="cls-3" d="M602.09,87.524c.5-.178,1-.361,1.5-.568-.38.16-.78.32-1.18.46C602.3,87.454,602.2,87.486,602.09,87.524Z"/><path class="cls-3" d="M606.957,85.3v.01c-.36.21-.72.41-1.09.59C606.237,85.706,606.6,85.506,606.957,85.3Z"/></g></g></g></svg>