<svg xmlns="http://www.w3.org/2000/svg" viewBox="0 0 300 300"><defs><style>.cls-1{fill:#121221;}.cls-2{fill:#366ce1;}</style></defs><title>picreel</title><g id="Complete"><g id="picreel"><rect class="cls-1" width="300" height="300" rx="150"/><path class="cls-2" d="M541.132,409.76H498.868A8.868,8.868,0,0,0,490,418.628V650.892a8.868,8.868,0,0,0,8.868,8.868h22.264A8.868,8.868,0,0,0,530,650.892V568.628a8.868,8.868,0,0,1,8.868-8.868H550c1.79,0,3.57-.08,5.32-.24A59.982,59.982,0,0,0,610,499.76V478.628A68.868,68.868,0,0,0,541.132,409.76ZM590,490.892a48.868,48.868,0,0,1-48.868,48.868h-2.264A8.868,8.868,0,0,1,530,530.892V448.628a8.868,8.868,0,0,1,8.868-8.868h2.264A48.868,48.868,0,0,1,590,488.628Z" transform="translate(-395 -385)"/><path class="cls-2" d="M599.611,660h-19.8a8.869,8.869,0,0,1-7.785-4.621L563.64,640l-22.557-41.345A8.862,8.862,0,0,1,540,594.408v-15.54A8.868,8.868,0,0,1,548.868,570h11.186a8.958,8.958,0,0,1,7.917,4.619L603.64,640l3.756,6.885A8.868,8.868,0,0,1,599.611,660Z" transform="translate(-395 -385)"/></g></g></svg>