<svg xmlns="http://www.w3.org/2000/svg" viewBox="0 0 170 226.67"><defs><style>.cls-1{fill:#366ce1;}.cls-2{fill:#121221;}</style></defs><title>pipedrive</title><g id="complete"><g id="pipedrive"><path class="cls-1" d="M445,380c-9.25,0-17.85,3.72-25,10.11h-.01A.41.41,0,0,0,420,390c0-5.52-8.95-10-20-10s-20,4.48-20,10,8.95,10,20,10V549.98a69.935,69.935,0,0,0,20,8.26V489.89c7.15,6.39,15.75,10.11,25,10.11,24.85,0,45-26.86,45-60S469.85,380,445,380Zm-5,100c-11.05,0-20-17.91-20-40s8.95-40,20-40,20,17.91,20,40S451.05,480,440,480Z" transform="translate(-350 -333.33)"/><ellipse class="cls-2" cx="90" cy="106.67" rx="20" ry="40"/><path class="cls-2" d="M520,446.67C520,509.26,481.94,560,435,560a64.587,64.587,0,0,1-15-1.76V489.89c7.15,6.39,15.75,10.11,25,10.11,24.85,0,45-26.86,45-60s-20.15-60-45-60c-9.25,0-17.85,3.72-25,10.11h-.01A.41.41,0,0,0,420,390c0-5.52-8.95-10-20-10s-20,4.48-20,10,8.95,10,20,10V549.98c-29.48-17.79-50-57.36-50-103.31,0-62.6,38.06-113.34,85-113.34S520,384.07,520,446.67Z" transform="translate(-350 -333.33)"/></g></g></svg>