<svg id="Complete" xmlns="http://www.w3.org/2000/svg" viewBox="0 0 770 180"><defs><style>.cls-1{fill:#121221;}.cls-2{fill:#1c1e20;}.cls-3{fill:#366ce1;}</style></defs><title>pipefy</title><g id="pipefy"><path class="cls-1" d="M335,500a60,60,0,0,1-60,60H175a60,60,0,0,1,0-120H275A60,60,0,0,1,335,500Z" transform="translate(-115 -410)"/><circle class="cls-2" cx="60" cy="90" r="50"/><circle class="cls-3" cx="160" cy="90" r="50"/><path class="cls-1" d="M275,550H175a50.005,50.005,0,0,0,50-50A50.005,50.005,0,0,0,275,550Z" transform="translate(-115 -410)"/><path class="cls-1" d="M275,450a50.005,50.005,0,0,0-50,50,50.005,50.005,0,0,0-50-50Z" transform="translate(-115 -410)"/><path class="cls-3" d="M693.99,490A50,50,0,1,0,645,550V530a29.979,29.979,0,0,1-28.28-20h77.27a50.01,50.01,0,0,0,0-20Zm-77.27,0a29.994,29.994,0,0,1,56.56,0Z" transform="translate(-115 -410)"/><path class="cls-1" d="M885,450v90a50,50,0,0,1-98.99,10h20.71A30,30,0,0,0,865,540v-.01A49.989,49.989,0,0,1,785,500V460a30,30,0,1,0-30,30v20a49.726,49.726,0,0,1-30-10.01V550H705V460a50,50,0,0,1,98.99-10A49.16,49.16,0,0,1,805,460v40.01a30,30,0,0,0,60,0V450Z" transform="translate(-115 -410)"/><path class="cls-3" d="M395,450a49.726,49.726,0,0,0-30,10.01V450H345V590h20V539.99A50,50,0,1,0,395,450Zm0,80a30,30,0,1,1,30-30A30,30,0,0,1,395,530Z" transform="translate(-115 -410)"/><path class="cls-3" d="M535,450a49.726,49.726,0,0,0-30,10.01V450H485V590h20V539.99A50,50,0,1,0,535,450Zm0,80a30,30,0,1,1,30-30A30,30,0,0,1,535,530Z" transform="translate(-115 -410)"/><rect class="cls-3" x="340" y="70" width="20" height="70"/><circle class="cls-3" cx="350" cy="50" r="10"/></g></svg>