<svg xmlns="http://www.w3.org/2000/svg" viewBox="0 0 480 200"><title>plan b</title><path d="M0,130v20a50.005,50.005,0,0,0,50,50h50V0H50A50,50,0,0,0,20.01,90,49.9,49.9,0,0,0,0,130ZM50,20H80V80H50a30,30,0,0,1,0-60ZM80,90.01a.01.01,0,0,1,0-.02ZM20,130a30,30,0,0,1,30-30H80v80H50a30,30,0,0,1-30-30Z"/><path d="M380,50a50.005,50.005,0,0,0,50,50h30V200h20V0H430A50.005,50.005,0,0,0,380,50Zm20,0a30,30,0,0,1,30-30h30V80H430A30,30,0,0,1,400,50Z"/><rect x="350" width="20" height="200" transform="translate(720 200) rotate(-180)"/><path d="M240,150v50h20V189.99A49.993,49.993,0,1,0,240,150Zm20,0a30,30,0,1,1,30,30A30,30,0,0,1,260,150Z"/><path d="M130,150v50h20V150a30,30,0,0,1,60,0v50h20V100H210v10.01A49.99,49.99,0,0,0,130,150Z"/></svg>