<svg xmlns="http://www.w3.org/2000/svg" viewBox="0 0 610 100"><defs><style>.cls-1{fill:#121221;}.cls-2{fill:#366ce1;}</style></defs><title>plecto</title><g id="Complete"><g id="plecto"><path class="cls-1" d="M795,500a40,40,0,1,1-40-40V450a50,50,0,1,0,50,50Z" transform="translate(-195 -450)"/><path class="cls-1" d="M603.28,528.28l7.07,7.07a50,50,0,1,1,0-70.7l-7.07,7.07a40,40,0,1,0,0,56.56Z" transform="translate(-195 -450)"/><polygon class="cls-1" points="230 10 230 45 320 45 320 55 230 55 230 90 320 90 320 100 220 100 220 0 320 0 320 10 230 10"/><path class="cls-1" d="M265,450H195V550h10V510h60a30,30,0,0,0,0-60Zm0,50H205V460h60a20,20,0,0,1,0,40Z" transform="translate(-195 -450)"/><polygon class="cls-1" points="210 90 210 100 110 100 110 0 120 0 120 90 210 90"/><polygon class="cls-1" points="520 0 520 10 475 10 475 100 465 100 465 10 420 10 420 0 520 0"/><path class="cls-2" d="M805,450v50a50.005,50.005,0,0,0-50-50Z" transform="translate(-195 -450)"/></g></g></svg>