<svg xmlns="http://www.w3.org/2000/svg" viewBox="0 0 910 200"><defs><style>.cls-1{fill:#121221;}.cls-2{fill:#366ce1;}</style></defs><title>plus ai</title><g id="Слой_2" data-name="Слой 2"><g id="Work_space" data-name="Work space"><g id="plus_ai" data-name="plus ai"><rect class="cls-1" x="795" width="30" height="200"/><rect class="cls-1" x="795" width="30" height="200" transform="translate(910 -710) rotate(90)"/><polygon class="cls-2" points="870 100 840.005 151.966 779.995 151.966 750 100 779.995 48.034 840.005 48.034 870 100"/><polygon class="cls-1" points="660 70 660 130 680 130 680 150 620 150 620 130 640 130 640 70 620 70 620 50 680 50 680 70 660 70"/><path class="cls-2" d="M340,80a10,10,0,0,0,10,10h40a30,30,0,0,1,0,60H320V130h70a10,10,0,0,0,0-20H350a30,30,0,0,1,0-60h70V70H350A10,10,0,0,0,340,80Z"/><path class="cls-2" d="M310,50v50a50,50,0,0,1-100,0V50h20v50a30,30,0,0,0,60,0V50Z"/><polygon class="cls-2" points="210 130 210 150 110 150 110 50 130 50 130 130 210 130"/><path class="cls-1" d="M570.77,51.95,569.99,50H550.01l-.78,1.94L510,150h21.55l11.2-28h34.5l11.2,28H610ZM550.75,102,560,78.87,569.25,102Z"/><path class="cls-2" d="M70,50H0V150H20V110H70a30,30,0,0,0,0-60Zm0,40H20V70H70a10,10,0,0,1,0,20Z"/></g></g></g></svg>