<svg xmlns="http://www.w3.org/2000/svg" viewBox="0 0 658.99 100"><title>pmk-bnk</title><path d="M387.98,60A50,50,0,0,1,290,60Z"/><path d="M387.98,40H290a50,50,0,0,1,97.98,0Z"/><path d="M50,.35A35.779,35.779,0,0,0,45,0H0V20H10V50H0V70H10v30H30V70H45a35.779,35.779,0,0,0,5-.35A35.01,35.01,0,0,0,50,.35ZM45,50H30V20H45a15,15,0,0,1,0,30Z"/><path d="M468.99,40v.52c-.16-.18-.34-.35-.51-.52Z"/><path d="M468.99,59.48V60h-.51C468.65,59.83,468.83,59.66,468.99,59.48Z"/><polygon points="280 13.92 233.88 49.98 280 86.04 280 100 265.38 100 220 64.51 220 100 200 100 200 0 220 0 220 35.45 265.34 0 280 0 280 13.92"/><polygon points="190 0 190 100 170 100 170 28.25 140 58.25 110 28.25 110 100 90 100 90 0 110.03 0 140 29.97 169.97 0 190 0"/><path d="M478.99,35a35.018,35.018,0,0,0-30-34.65,35.779,35.779,0,0,0-5-.35h-45V20h10V40h-10V60h10V80h-10v20h45a35.779,35.779,0,0,0,5-.35A35.022,35.022,0,0,0,475.62,50,34.833,34.833,0,0,0,478.99,35Zm-20.1,31.67A15,15,0,0,1,443.99,80h-15V60h29.14a14.839,14.839,0,0,1,.86,5A13.14,13.14,0,0,1,458.89,66.67ZM458.13,40H428.99V20h15a15,15,0,0,1,14.9,13.33,13.14,13.14,0,0,1,.1,1.67A14.839,14.839,0,0,1,458.13,40Zm10.86,20h-.51c.17-.17.35-.34.51-.52Zm0-19.48c-.16-.18-.34-.35-.51-.52h.51Z"/><path d="M468.99,40v.52c-.16-.18-.34-.35-.51-.52Z"/><path d="M468.99,59.48V60h-.51C468.65,59.83,468.83,59.66,468.99,59.48Z"/><polygon points="568.99 0 568.99 100 549.04 100 548.99 99.93 508.99 37.2 508.99 100 488.99 100 488.99 0 509 0 548.99 62.73 548.99 0 568.99 0"/><path d="M658.99,60a40,40,0,0,1-80,0V40a40,40,0,0,1,80,0h-20a20,20,0,0,0-40,0V60a20,20,0,0,0,40,0Z"/></svg>