<svg xmlns="http://www.w3.org/2000/svg" viewBox="0 0 790 300"><defs><style>.a{fill:#fdfeff;}</style></defs><title>polydoor</title><rect y="100" width="20" height="200"/><rect x="220" width="20" height="200"/><rect y="100" width="100" height="20"/><rect y="180" width="100" height="20"/><rect x="80" y="100" width="20" height="100"/><rect x="440" width="20" height="200" transform="translate(900 200) rotate(180)"/><rect x="360" y="180" width="100" height="20" transform="translate(820 380) rotate(180)"/><rect x="360" y="100" width="100" height="20" transform="translate(820 220) rotate(180)"/><rect x="360" y="100" width="20" height="100" transform="translate(740 300) rotate(180)"/><rect x="330" y="100" width="20" height="200"/><rect x="250" y="280" width="100" height="20"/><rect x="250" y="180" width="100" height="20"/><rect x="250" y="100" width="20" height="100"/><rect x="110" y="100" width="100" height="20"/><rect x="110" y="180" width="100" height="20"/><rect x="190" y="100" width="20" height="100"/><rect x="110" y="100" width="20" height="100"/><rect x="470" y="100" width="100" height="20"/><rect x="690" y="110" width="100" height="20"/><rect x="470" y="180" width="100" height="20"/><rect x="550" y="100" width="20" height="100"/><rect x="470" y="100" width="20" height="100"/><rect x="690" y="100" width="20" height="100"/><rect x="580" y="100" width="100" height="20"/><rect x="580" y="180" width="100" height="20"/><rect x="660" y="100" width="20" height="100"/><rect x="580" y="100" width="20" height="100"/><circle cx="50" cy="150" r="20"/><circle class="a" cx="50" cy="150" r="10"/><rect x="67.803" y="146.161" width="12.071" height="55.355" transform="translate(-101.296 103.128) rotate(-45)"/></svg>