<svg xmlns="http://www.w3.org/2000/svg" viewBox="0 0 540 200"><defs><style>.cls-1{fill:#121221;}.cls-2{fill:#366ce1;}</style></defs><title>pop up</title><g id="Слой_2" data-name="Слой 2"><g id="Work_space" data-name="Work space"><g id="pop_up" data-name="pop up"><path class="cls-1" d="M270,50a50.005,50.005,0,0,0-50,50V200h20V139.99A50,50,0,1,0,270,50Zm0,80a30,30,0,1,1,30-30A30,30,0,0,1,270,130Z"/><path class="cls-2" d="M490,0a50.005,50.005,0,0,0-50,50V150h20V89.99A50,50,0,1,0,490,0Zm0,80a30,30,0,1,1,30-30A30,30,0,0,1,490,80Z"/><path class="cls-1" d="M50,50A50.005,50.005,0,0,0,0,100V200H20V139.99A50,50,0,1,0,50,50Zm0,80a30,30,0,1,1,30-30A30,30,0,0,1,50,130Z"/><path class="cls-1" d="M160,50a50,50,0,1,0,50,50A50.005,50.005,0,0,0,160,50Zm0,80a30,30,0,1,1,30-30A30,30,0,0,1,160,130Z"/><path class="cls-2" d="M330,50V0h20V50a30,30,0,0,0,60,0V0h20V50a50,50,0,0,1-100,0Z"/></g></g></g></svg>