<svg id="Main" xmlns="http://www.w3.org/2000/svg" viewBox="0 0 485.28 479.736"><defs><style>.cls-1{fill:#121221;}.cls-2{fill:#366ce1;}</style></defs><title>pop3</title><g id="POP3"><path class="cls-1" d="M430.84,367.838a100.02,100.02,0,0,0-60.46,94.19v-2.06c.01,1.88.07,3.74.17,5.59-.07-1.17-.14-2.35-.17-3.53l.54,197.95a99.794,99.794,0,0,0,40.21,79.89l-.54-199.99a102.471,102.471,0,0,0,10,6.55,100,100,0,0,0,100.1-.3l172.86-100.42a99.837,99.837,0,0,0,49.09-74.78L569.7,471.4a100.014,100.014,0,0,0-49.57-98.45l-173.47-99.54a99.876,99.876,0,0,0-89.3-5.12Zm91.41,61.72a60,60,0,1,1-82.02-21.74A59.991,59.991,0,0,1,522.25,429.558Z" transform="translate(-257.36 -260.132)"/><path class="cls-2" d="M440.23,407.818a60,60,0,1,1-21.74,82.02A59.986,59.986,0,0,1,440.23,407.818Z" transform="translate(-257.36 -260.132)"/><path class="cls-1" d="M370.38,459.97l0,2.057c.025,1.177.1,2.359.168,3.534C370.449,463.712,370.386,461.852,370.38,459.97Z" transform="translate(-257.36 -260.132)"/><path class="cls-1" d="M370.38,459.97l0,2.057c.025,1.177.1,2.359.168,3.534C370.449,463.712,370.386,461.852,370.38,459.97Z" transform="translate(-257.36 -260.132)"/></g></svg>