<svg xmlns="http://www.w3.org/2000/svg" viewBox="0 0 300 413.212"><title>portrait pr</title><rect y="133.212" width="20" height="160"/><rect x="140" y="-6.788" width="20" height="160" transform="translate(223.212 -76.788) rotate(90)"/><rect x="140" y="323.212" width="20" height="160" transform="translate(553.212 253.212) rotate(90)"/><rect x="280" y="133.212" width="20" height="160"/><polygon points="280 293.212 300 293.212 230 413.212 210 413.212 280 293.212"/><polygon points="20 293.212 0 293.212 70 413.212 90 413.212 20 293.212"/><polygon points="20 133.212 0 133.212 70 63.212 90 63.212 20 133.212"/><polygon points="280 133.212 300 133.212 230 63.212 210 63.212 280 133.212"/><rect x="110" y="163.212" width="20" height="100"/><rect x="170" y="163.212" width="20" height="100"/><path d="M232.35,213.212a29.862,29.862,0,0,1,7.65,20v30H220v-30a10,10,0,0,0-10-10H170v-20h40a10,10,0,0,0,0-20H170v-20h40a29.991,29.991,0,0,1,22.35,50Z"/><path d="M60,193.212a30,30,0,0,1,30-30h40v20H90a10,10,0,0,0,0,20h40v20H90A30,30,0,0,1,60,193.212Z"/><path d="M111.845,35.564c-.509-4.286-1.24-8.7-2-12.962-.647-3.634-3.2-11.746,1.933-11.709,3.35.025,8.907,5.141,5.832,8.471-.685.742-2.893,1.255-3.87,1.723-1.656.794-3.372,1.508-4.986,2.392-2.608,1.427-1.433,5.645,1.515,5.59,1.527-.028,3.576-.858,5-.247,1.566.669,2.989,3.485,3.986,4.76,1.984,2.538,4,5.169,5.915,7.722l4.711-3.636-.328-.338c-2.7-2.773-6.937,1.472-4.243,4.243l.329.338c2.3,2.369,6.8-.851,4.711-3.636-2.729-3.639-5.44-7.317-8.21-10.955-1.457-1.913-2.86-3.47-5.207-4.3-2.363-.841-4.29.01-6.668.054l1.514,5.591c4.447-2.434,11.249-3.166,12.3-9.027,1.242-6.895-3.068-11.873-9.013-14.035-4.91-1.785-12.26.737-12.481,6.67-.291,7.834,2.334,15.585,3.25,23.3.45,3.788,6.455,3.833,6,0Z"/><path d="M86.958,13.043c-6.184-.6-8.622,8.511-8.689,13.363C78.189,32.25,82.038,38.653,88.5,38.13c5.9-.477,9.021-4.762,9.19-10.426a19.565,19.565,0,0,0-1.625-7.681c-1.128-2.8-2.816-4.166-5.182-5.936-3.092-2.315-6.086,2.891-3.028,5.18,2.715,2.033,5.875,8.7,2.906,11.913-3.174,3.437-6.323-1.2-6.5-4.109-.1-1.6,1.03-8.189,2.7-8.028,3.841.37,3.815-5.632,0-6Z"/><path d="M59.048,40.091c-2.117-5.2-4.363-10.268-5.97-15.666-.668-2.242-1.268-4.5-1.927-6.746-.272-.926-1.875-3.626-1.842-4.307l-1.486,2.591C50.31,14.4,55.221,14.007,58,14.911c3.74,1.219,3.364,3.688,2.445,6.739.261-.866-.534,1-.565,1.065a8.4,8.4,0,0,1-1.429,2.548c-1.427,1.357-3.608,1.218-5.326,2.007-3.5,1.609-.46,6.782,3.028,5.18,2.758-1.266,5.086-1.123,7.269-3.73a17.341,17.341,0,0,0,2-3.536c.432-.873-.4,1.057.175-.395.266-.673.568-1.322.768-2.02.8-2.8,1.271-5.939-.009-8.621-1.885-3.95-4.884-4.859-9.035-5.371-4.454-.549-16.119-.263-13.482,6.876,3.19,8.633,5.931,17.436,9.426,26.033,1.435,3.53,7.242,1.986,5.786-1.595Z"/><path d="M130.648,10.508c7.307.43,14.733.9,22.056.845,3.859-.029,3.868-6.029,0-6-7.323.056-14.749-.415-22.056-.845-3.857-.227-3.844,5.774,0,6Z"/><path d="M138.718,8.776c-.024,10.747,1.505,21.511,1.521,32.281.006,3.861,6.006,3.868,6,0-.016-10.77-1.545-21.534-1.521-32.281.009-3.861-5.991-3.867-6,0Z"/><path d="M175.16,40.545c.774-5.593-1.927-11.866-3.071-17.3-.553-2.627-1.034-5.279-1.484-7.923-.192-1.133-.3-2.276-.471-3.407q-.1-.744-.2-1.489-.314-3.44-.64-.33L166.7,11.584c4.021-.4,15.137-1.2,14.26,5.484-.847,6.445-9.86,3.144-12.81,7.228A3.008,3.008,0,0,0,169.23,28.4c2.71,1.25,5.958.621,8.826,1.481,3.99,1.2,4.825,5.1,6.15,8.635,1.343,3.582,7.145,2.031,5.785-1.6-1.421-3.789-2.553-8-5.817-10.641a12.6,12.6,0,0,0-5.984-2.561c-1.195-.206-2.422-.345-3.629-.464-.509-.051-3.513-.594-2.3-.036l1.077,4.1c-.934,1.293,3.744.108,4.17-.022a21.157,21.157,0,0,0,4.69-2.032,9.673,9.673,0,0,0,4.676-7.324c.928-7.271-5.055-11.554-11.666-12.321-2.526-.293-7.661-1.083-10.015.368-2.611,1.611-1.267,5-.926,7.385.55,3.838,1.227,7.672,2.04,11.464q.923,4.305,1.935,8.591c.382,1.6,1.364,3.864,1.136,5.517-.522,3.776,5.258,5.409,5.785,1.595Z"/><path d="M202.667,36.742c1.084-5.135,1.119-10.479,2.569-15.529.785-2.737,1.8-5.451,2.824-8.107.324-.843,2.455-7.1,3.093-7.24l-3.388-1.379c5.012,10.812,5.742,23.205,5.742,34.88,0,3.861,6,3.867,6,0,0-12.82-1.075-26.074-6.561-37.908A3.036,3.036,0,0,0,209.558.08c-4.786,1.084-7.014,10.6-8.417,14.569-2.41,6.825-2.787,13.517-4.259,20.5-.8,3.767,4.988,5.377,5.785,1.595Z"/><path d="M226.944,4.973a308.423,308.423,0,0,1,1.436,31.521c0,3.861,6,3.867,6,0a308.423,308.423,0,0,0-1.436-31.521c-.39-3.8-6.394-3.844-6,0Z"/><path d="M241.944,8.311a93.694,93.694,0,0,1,25.315,3.1c3.724,1.041,5.314-4.746,1.595-5.786a100.057,100.057,0,0,0-26.91-3.318c-3.861,0-3.867,6,0,6Z"/><path d="M249.592,6.916c.095,8.978.2,17.987-.254,26.958-.194,3.86,5.807,3.849,6,0,.45-8.972.349-17.979.254-26.958-.042-3.858-6.042-3.868-6,0Z"/><path d="M179.21,331.313c.773-5.593-1.927-11.866-3.071-17.3-.553-2.627-1.034-5.279-1.484-7.923-.192-1.133-.305-2.276-.471-3.407q-.1-.744-.2-1.489-.314-3.44-.641-.33l-2.59,1.486c4.021-.4,15.137-1.2,14.259,5.484-.846,6.445-9.859,3.144-12.81,7.228a3.009,3.009,0,0,0,1.077,4.1c2.71,1.25,5.958.621,8.826,1.481,3.99,1.2,4.825,5.1,6.149,8.635,1.344,3.582,7.146,2.031,5.786-1.6-1.421-3.789-2.553-8-5.818-10.641a12.6,12.6,0,0,0-5.983-2.561c-1.2-.206-2.422-.345-3.63-.464-.509-.051-3.512-.594-2.3-.036l1.076,4.1c-.933,1.293,3.744.108,4.17-.022a21.145,21.145,0,0,0,4.691-2.032,9.675,9.675,0,0,0,4.676-7.324c.928-7.271-5.055-11.554-11.667-12.321-2.526-.293-7.661-1.083-10.014.369-2.612,1.61-1.268,5-.926,7.384.549,3.838,1.227,7.672,2.039,11.464q.922,4.305,1.936,8.591c.382,1.6,1.364,3.864,1.135,5.517-.522,3.776,5.259,5.409,5.786,1.595Z"/><path d="M228.4,299.184a308.424,308.424,0,0,1,1.437,31.521c0,3.861,6,3.867,6,0a308.424,308.424,0,0,0-1.437-31.521c-.389-3.8-6.394-3.844-6,0Z"/><path d="M241.437,304.569a93.694,93.694,0,0,1,25.315,3.1c3.724,1.041,5.314-4.746,1.595-5.786a100.017,100.017,0,0,0-26.91-3.318c-3.861,0-3.868,6,0,6Z"/><path d="M249.085,303.174c.095,8.978.2,17.987-.254,26.958-.194,3.859,5.807,3.849,6,0,.45-8.972.349-17.98.254-26.958-.042-3.858-6.042-3.868-6,0Z"/><path d="M59.163,330.336c-5.6-7.619-9.99-15.9-11.392-25.289l-1.379,3.388c2.08-1.23,8.669.58,10.369,1.842,4.636,3.44.348,5.513-2.716,7.828-3.043,2.3-.056,7.511,3.028,5.181,4.806-3.632,11.538-8.37,6.3-14.952a15.97,15.97,0,0,0-9.807-5.578c-2.876-.506-7.572-1.059-10.2.5a3.122,3.122,0,0,0-1.379,3.388c1.472,9.853,6.125,18.735,12,26.723,2.264,3.078,7.473.089,5.181-3.029Z"/><path d="M81.335,301.536c-7.729,2.219-9.106,15.925-6.846,22.119,2.369,6.492,9.9,13.7,16.966,8.464,5.978-4.432,5.7-15.947,4.006-22.365-1.528-5.779-7.962-13.688-13.422-7.447-2.533,2.9,1.694,7.156,4.243,4.243,1.14-1.3-.472-.77-.188-.433.149.177,1.181.952.778.361,1.262,1.846,2.375,3.033,2.9,5.368.859,3.8,1.077,10.01-.559,13.643-2.764,6.137-8.269-1.085-9.262-4.276a14.819,14.819,0,0,1,.3-8.851c.39-1.227,1.311-4.649,2.674-5.04,3.7-1.064,2.129-6.856-1.6-5.786Z"/><path d="M116.312,330.2c-.986-4.579-1.136-9.474-1.675-14.127-.524-4.519-.171-10.351-1.857-14.641l-.772,2.919c-1.506,1.466.787.517,2.1.618a18.859,18.859,0,0,1,4.18.691c1.859.585,3.716,1.29,4,3.491.416,3.224-2.422,3-4.766,3.869-1.767.659-3.372,1.634-5.071,2.415a3.011,3.011,0,0,0-.607,4.712c2.2,1.738,4.871,2.736,7.155,4.541a56.612,56.612,0,0,1,8.359,8.431c2.458,2.981,6.682-1.284,4.243-4.243a65.185,65.185,0,0,0-8.971-8.919,33.825,33.825,0,0,0-3.878-2.986c-.519-.31-3.182-1.475-2.665-1.067l-.608,4.712c3.415-1.57,8.088-2.337,10.99-4.818,3.19-2.728,2.406-6.259,1.021-9.773-1.439-3.651-3.866-5.12-7.607-6.151-3.258-.9-9.394-2.413-12.113.234a2.939,2.939,0,0,0-.772,2.919c1.8,4.575,1.244,10.766,1.873,15.609.57,4.383.727,8.831,1.659,13.159.813,3.773,6.6,2.176,5.786-1.595Z"/><path d="M138.377,289.159c1.246-4.538,6.324-6.336,10.431-6.541,4.515-.225,14.888.544,16.026,6.288,1.5,7.568,13.068,4.365,11.571-3.19-2.327-11.749-17.519-15.334-27.6-15.1-9.463.223-19.346,5.675-22,15.351-2.047,7.458,9.526,10.64,11.571,3.19Z"/><path d="M204.455,330.207c1.083-5.135,1.119-10.479,2.568-15.529.786-2.738,1.8-5.452,2.824-8.107.325-.844,2.456-7.1,3.094-7.241l-3.388-1.378c5.012,10.811,5.742,23.2,5.742,34.88,0,3.861,6,3.867,6,0,0-12.82-1.075-26.075-6.562-37.909a3.036,3.036,0,0,0-3.388-1.378c-4.785,1.084-7.013,10.6-8.416,14.568-2.41,6.826-2.787,13.517-4.259,20.5-.795,3.767,4.988,5.377,5.785,1.595Z"/><path d="M204.858,320.1c2.2,0,4.375-.064,6.564-.241,1.842-.149,3.738.052,5.345-1.056,3.158-2.178.161-7.381-3.029-5.181-.762.526-2.694.305-3.648.378-1.729.132-3.492.1-5.232.1-3.86,0-3.867,6,0,6Z"/><path d="M132.845,284.416H14.873c-5.791,0-5.8,9,0,9H132.845c5.791,0,5.8-9,0-9Z"/><path d="M169.69,293.078H287.324c5.791,0,5.8-9,0-9H169.69c-5.791,0-5.8,9,0,9Z"/><path d="M260.62,336.811H38.535c-5.791,0-5.8,9,0,9H260.62c5.791,0,5.8-9,0-9Z"/><path d="M147.006,275.043c-.053,16.006.507,32.119.507,48.169,0,3.861,6,3.867,6,0,0-16.047-.56-32.177-.507-48.169.013-3.861-5.987-3.866-6,0Z"/></svg>