<svg xmlns="http://www.w3.org/2000/svg" viewBox="0 0 1056.69 160"><defs><style>.cls-1{fill:#121221;}.cls-2{fill:#366ce1;}</style></defs><title>poshmark</title><g id="Слой_2" data-name="Слой 2"><g id="Work_space" data-name="Work space"><g id="poshmark"><path class="cls-1" d="M950.169,0a50,50,0,1,0,50,50A50.005,50.005,0,0,0,950.169,0Zm0,80a30,30,0,1,1,30-30A30,30,0,0,1,950.169,80Z"/><rect class="cls-1" x="900.169" y="50" width="20" height="106.261"/><path class="cls-2" d="M1006.69,56.261a50,50,0,1,0,50,50A50.005,50.005,0,0,0,1006.69,56.261Zm0,20a30,30,0,1,1-30,30A30,30,0,0,1,1006.69,76.261Z"/><rect class="cls-2" x="943.553" y="93.123" width="19.754" height="106.521" transform="translate(807.046 1099.813) rotate(-90)"/><polygon class="cls-2" points="540 60 540 160 520 160 520 90.59 503.2 110.05 489.99 125.36 476.78 110.05 460 90.62 460 160 440 160 440 60 460 60 460 60.01 489.99 94.75 519.98 60 540 60"/><path class="cls-1" d="M240,90a10,10,0,0,0,10,10h40a30,30,0,0,1,0,60H220V140h70a10,10,0,0,0,0-20H250a30,30,0,0,1,0-60h70V80H250A10,10,0,0,0,240,90Z"/><polygon class="cls-1" points="430 60 430 160 410 160 410 120 350 120 350 160 330 160 330 60 350 60 350 100 410 100 410 60 430 60"/><path class="cls-1" d="M160,60a50,50,0,1,0,50,50A50.005,50.005,0,0,0,160,60Zm0,80a30,30,0,1,1,30-30A30,30,0,0,1,160,140Z"/><polygon class="cls-2" points="870 159.99 870 160 840.13 160 799.51 123.43 790 132 790 160 770 160 770 60 790 60 790 105.09 799.51 96.52 840.07 60 869.97 60 814.46 109.98 870 159.99"/><path class="cls-2" d="M760,90a30,30,0,0,0-30-30H660V160h20V120h50a10,10,0,0,1,10,10v30h20V130a29.862,29.862,0,0,0-7.65-20A29.862,29.862,0,0,0,760,90Zm-80,10V80h50a10,10,0,0,1,0,20Z"/><path class="cls-2" d="M610.77,61.95,609.99,60H590.01l-.78,1.94L550,160h21.55l11.2-28h34.5l11.2,28H650ZM590.75,112,600,88.87,609.25,112Z"/><path class="cls-1" d="M70,60H0V160H20V120H70a30,30,0,0,0,0-60Zm0,40H20V80H70a10,10,0,0,1,0,20Z"/></g></g></g></svg>