<svg xmlns="http://www.w3.org/2000/svg" viewBox="0 0 1180 300"><defs><style>.cls-1{fill:#366ce1;}.cls-2{fill:#121221;}</style></defs><title>power bi</title><g id="Complete"><g id="POWER_BI" data-name="POWER BI"><polygon class="cls-1" points="1140 117.845 1140 177.845 1180 177.845 1180 197.845 1080 197.845 1080 177.845 1120 177.845 1120 117.845 1080 117.845 1080 97.845 1180 97.845 1180 117.845 1140 117.845"/><path class="cls-1" d="M980,480a30,30,0,0,0-30-30H880V550h70a29.991,29.991,0,0,0,22.35-50A29.862,29.862,0,0,0,980,480Zm-80-10h50a10,10,0,0,1,0,20H900Zm50,60H900V510h50a10,10,0,0,1,0,20Z" transform="translate(90 -350)"/><rect class="cls-2" x="550" width="400" height="300" rx="50"/><rect class="cls-1" x="600" y="50" width="300" height="200" rx="25"/><circle class="cls-2" cx="645" cy="195" r="30"/><circle class="cls-2" cx="715" cy="195" r="30"/><circle class="cls-2" cx="715" cy="165" r="30"/><circle class="cls-2" cx="785" cy="195" r="30"/><circle class="cls-2" cx="855" cy="195" r="30"/><circle class="cls-2" cx="855" cy="165" r="30"/><circle class="cls-2" cx="855" cy="135" r="30"/><circle class="cls-2" cx="855" cy="105" r="30"/><circle class="cls-2" cx="785" cy="165" r="30"/><circle class="cls-2" cx="785" cy="135" r="30"/><path class="cls-2" d="M70,450a50,50,0,1,0,50,50A50.005,50.005,0,0,0,70,450Zm0,80a30,30,0,1,1,30-30A30,30,0,0,1,70,530Z" transform="translate(90 -350)"/><polygon class="cls-2" points="340 120 340 140 420 140 420 160 340 160 340 180 420 180 420 200 320 200 320 100 420 100 420 120 340 120"/><path class="cls-2" d="M440,480a30,30,0,0,0-30-30H340V550h20V510h50a10,10,0,0,1,10,10v30h20V520a29.862,29.862,0,0,0-7.65-20A29.862,29.862,0,0,0,440,480Zm-80,10V470h50a10,10,0,0,1,0,20Z" transform="translate(90 -350)"/><path class="cls-2" d="M-20,450H-90V550h20V510h50a30,30,0,0,0,30-30A30,30,0,0,0-20,450Zm0,40H-70V470h50a10,10,0,0,1,10,10A10,10,0,0,1-20,490Z" transform="translate(90 -350)"/><polygon class="cls-2" points="309.89 100 290.58 197 289.98 200 289.95 200 289.95 199.92 289.93 200 269.95 200 269.7 199.47 269.7 199.46 259.94 178.19 250.19 199.45 249.95 199.97 249.94 200 229.95 200 229.95 198 229.75 199 229.95 200 229.91 200 229.31 196.99 210 100 230.39 100 235.24 124.36 243.53 166 248.94 154.21 249.95 152.01 249.95 152 259.94 130.24 269.93 152 269.95 152.04 270.95 154.22 276.36 166.02 284.66 124.33 284.67 124.32 289.51 100 309.89 100"/></g></g></svg>