<svg xmlns="http://www.w3.org/2000/svg" viewBox="0 0 719.98 103.07"><defs><style>.cls-1{fill:#121221;}.cls-2{fill:#366ce1;}</style></defs><title>predi cx</title><g id="Слой_2" data-name="Слой 2"><g id="Work_space" data-name="Work space"><g id="predi_cx" data-name="predi cx"><polygon class="cls-1" points="480 20 480 80 500 80 500 100 440 100 440 80 460 80 460 20 440 20 440 0 500 0 500 20 480 20"/><path class="cls-1" d="M380,0H330V100h50A50,50,0,0,0,380,0Zm0,80H350V20h30a30,30,0,0,1,0,60Z"/><polygon class="cls-1" points="240 20 240 40 320 40 320 60 240 60 240 80 320 80 320 100 220 100 220 0 320 0 320 20 240 20"/><path class="cls-1" d="M210,30A30,30,0,0,0,180,0H110V100h20V60h50a10,10,0,0,1,10,10v30h20V70a29.862,29.862,0,0,0-7.65-20A29.862,29.862,0,0,0,210,30ZM130,40V20h50a10,10,0,0,1,0,20Z"/><path class="cls-2" d="M658.28,60h20.71a50,50,0,1,1,0-20H658.28a30,30,0,1,0,0,20Z"/><path class="cls-1" d="M70,0H0V100H20V60H70A30,30,0,0,0,70,0Zm0,40H20V20H70a10,10,0,0,1,0,20Z"/><polygon class="cls-1" points="682.48 52.1 719.93 102.07 694.94 102.07 669.99 68.77 645.03 102.07 620.05 102.07 657.49 52.1 620 2.07 644.98 2.07 669.99 35.43 694.99 2.07 719.98 2.07 682.48 52.1"/><polygon class="cls-2" points="680.48 53.1 717.93 103.07 692.94 103.07 667.99 69.77 643.03 103.07 618.05 103.07 655.49 53.1 618 3.07 642.98 3.07 667.99 36.43 692.99 3.07 717.98 3.07 680.48 53.1"/><path class="cls-1" d="M658.28,62.07h20.71a50,50,0,1,1,0-20H658.28a30,30,0,1,0,0,20Z"/></g></g></g></svg>