<svg id="Main" xmlns="http://www.w3.org/2000/svg" viewBox="0 0 1000 700"><defs><style>.cls-1{fill:#366ce1;}.cls-2{fill:#121221;}</style></defs><title>preferred patron loyalty</title><g id="prefered_patron_loyalty" data-name="prefered patron loyalty"><circle class="cls-1" cx="180" cy="235" r="100"/><rect class="cls-2" x="50" y="265" width="100" height="300" rx="50"/><ellipse class="cls-1" cx="50" cy="335" rx="50" ry="100"/><circle class="cls-1" cx="170" cy="365" r="50"/><path class="cls-2" d="M544.65,310H550a40,40,0,0,1-80,0V290a40,40,0,0,1,80,0h-5.35a40.016,40.016,0,0,0-69.3,0h69.3a40.374,40.374,0,0,1,4.09,9.99v.02a40.374,40.374,0,0,1-4.09,9.99h-69.3a40.016,40.016,0,0,0,69.3,0Z" transform="translate(0 -150)"/><path class="cls-2" d="M724.65,310H730a40,40,0,0,1-80,0V290a40,40,0,0,1,80,0h-5.35a40.016,40.016,0,0,0-69.3,0h69.3a40.374,40.374,0,0,1,4.09,9.99v.02a40.374,40.374,0,0,1-4.09,9.99h-69.3a40.016,40.016,0,0,0,69.3,0Z" transform="translate(0 -150)"/><path class="cls-2" d="M904.65,310H910a40,40,0,0,1-80,0V290a40,40,0,0,1,80,0h-5.35a40.016,40.016,0,0,0-69.3,0h69.3a40.374,40.374,0,0,1,4.09,9.99v.02a40.374,40.374,0,0,1-4.09,9.99h-69.3a40.016,40.016,0,0,0,69.3,0Z" transform="translate(0 -150)"/><path class="cls-2" d="M820,290h-5.35A40.009,40.009,0,0,0,760,275.36V350H740V250h20v5.35A40.012,40.012,0,0,1,820,290Z" transform="translate(0 -150)"/><path class="cls-2" d="M460,290h-5.35A40.009,40.009,0,0,0,400,275.36V350H380V250h20v5.35A40.012,40.012,0,0,1,460,290Z" transform="translate(0 -150)"/><path class="cls-2" d="M620,210V190a20,20,0,0,0-40,0v60h60v20H580v80H560V190a40,40,0,0,1,80,0v20Z" transform="translate(0 -150)"/><path class="cls-2" d="M960,250a40,40,0,0,0-40,40v20a40,40,0,0,0,80,0V290A40,40,0,0,0,960,250Zm20,60a20,20,0,0,1-40,0V290a20,20,0,0,1,40,0Z" transform="translate(0 -150)"/><path class="cls-2" d="M350,150H290V350h20V250h40a40,40,0,0,0,40-40V190A40,40,0,0,0,350,150Zm20,60a19.994,19.994,0,0,1-20,20H310V170h40a19.994,19.994,0,0,1,20,20Z" transform="translate(0 -150)"/><rect class="cls-2" x="980" width="20" height="200"/><path class="cls-2" d="M420,460a40,40,0,0,0-40,40v20a40,40,0,0,0,80,0V500A40,40,0,0,0,420,460Zm20,60a20,20,0,0,1-40,0V500a20,20,0,0,1,40,0Z" transform="translate(0 -150)"/><path class="cls-2" d="M690,460a40,40,0,0,0-40,40v20a40,40,0,0,0,80,0V500A40,40,0,0,0,690,460Zm20,60a20,20,0,0,1-40,0V500a20,20,0,0,1,40,0Z" transform="translate(0 -150)"/><path class="cls-2" d="M350,360H290V560h20V460h40a40,40,0,0,0,40-40V400A40,40,0,0,0,350,360Zm20,60a19.994,19.994,0,0,1-20,20H310V380h40a19.994,19.994,0,0,1,20,20Z" transform="translate(0 -150)"/><rect class="cls-2" x="440" y="310" width="20" height="100"/><path class="cls-2" d="M530,500v20a20,20,0,0,1-40,0V460h60V440H490V360H470V520a40,40,0,0,0,80,0V500Z" transform="translate(0 -150)"/><path class="cls-2" d="M640,500h-5.35A40.009,40.009,0,0,0,580,485.36V560H560V460h20v5.35A40.012,40.012,0,0,1,640,500Z" transform="translate(0 -150)"/><path class="cls-2" d="M820,500v60H800V500a20,20,0,0,0-40,0v60H740V460h20v5.35A40.012,40.012,0,0,1,820,500Z" transform="translate(0 -150)"/><rect class="cls-2" x="310" y="600" width="80" height="20"/><path class="cls-2" d="M610,670a40,40,0,0,0-40,40v20a40,40,0,0,0,80,0V710A40,40,0,0,0,610,670Zm20,60a20,20,0,0,1-40,0V710a20,20,0,0,1,40,0Z" transform="translate(0 -150)"/><path class="cls-2" d="M430,670a40,40,0,0,0-40,40v20a40,40,0,0,0,80,0V710A40,40,0,0,0,430,670Zm20,60a20,20,0,0,1-40,0V710a20,20,0,0,1,40,0Z" transform="translate(0 -150)"/><rect class="cls-2" x="290" y="420" width="20" height="200"/><path class="cls-2" d="M560,670V810a40,40,0,0,1-80,0V790h20v20a20,20,0,0,0,40,0V764.65A40.019,40.019,0,0,1,480,730V670h20v60a20,20,0,0,0,40,0V670Z" transform="translate(0 -150)"/><path class="cls-2" d="M880,670V810a40,40,0,0,1-80,0V790h20v20a20,20,0,0,0,40,0V764.65A40.019,40.019,0,0,1,800,730V670h20v60a20,20,0,0,0,40,0V670Z" transform="translate(0 -150)"/><rect class="cls-2" x="630" y="520" width="20" height="100"/><path class="cls-2" d="M700,750v20a39.979,39.979,0,0,1-40-40V570h20V730A19.994,19.994,0,0,0,700,750Z" transform="translate(0 -150)"/><path class="cls-2" d="M770,710v20a20,20,0,0,1-40,0V670h60V650H730V570H710V730a40,40,0,0,0,80,0V710Z" transform="translate(0 -150)"/></g></svg>