<svg xmlns="http://www.w3.org/2000/svg" viewBox="0 0 1190 140"><defs><style>.cls-1,.cls-5,.cls-6{fill:#366ce1;}.cls-2,.cls-3,.cls-4{fill:#121221;}.cls-3,.cls-6{opacity:0.38;}.cls-4,.cls-5{opacity:0.62;}</style></defs><title>print logic</title><g id="Слой_2" data-name="Слой 2"><g id="Work_space" data-name="Work space"><g id="print_logic" data-name="print logic"><path class="cls-1" d="M1009.29,80H1030a50,50,0,1,1,0-20h-20.71a30,30,0,1,0,0,20Z"/><polygon class="cls-2" points="260 40 260 100 280 100 280 120 220 120 220 100 240 100 240 40 220 40 220 20 280 20 280 40 260 40"/><polygon class="cls-1" points="910 40 910 100 930 100 930 120 870 120 870 100 890 100 890 40 870 40 870 20 930 20 930 40 910 40"/><polygon class="cls-2" points="390 20 390 120 370 120 310 50.59 310 120 290 120 290 20 310 20 370 89.41 370 20 390 20"/><polygon class="cls-1" points="650 100 650 120 550 120 550 20 570 20 570 100 650 100"/><path class="cls-2" d="M210,50a30,30,0,0,0-30-30H110V120h20V80h50a10,10,0,0,1,10,10v30h20V90a29.862,29.862,0,0,0-7.65-20A29.862,29.862,0,0,0,210,50ZM130,60V40h50a10,10,0,0,1,0,20Z"/><path class="cls-1" d="M700,20a50,50,0,1,0,50,50A50.005,50.005,0,0,0,700,20Zm0,80a30,30,0,1,1,30-30A30,30,0,0,1,700,100Z"/><path class="cls-1" d="M860,60V70a49.16,49.16,0,0,1-1.01,10,50.013,50.013,0,1,1-13.64-45.35L831.21,48.79A30,30,0,1,0,838.28,80H810V60Z"/><path class="cls-2" d="M70,20H0V120H20V80H70a30,30,0,0,0,0-60Zm0,40H20V40H70a10,10,0,0,1,0,20Z"/><polygon class="cls-2" points="500 20 500 40 460 40 460 120 440 120 440 40 400 40 400 20 500 20"/><path class="cls-3" d="M1100,40a50,50,0,1,0,50,50A50.005,50.005,0,0,0,1100,40Zm0,60a10,10,0,1,1,10-10A10,10,0,0,1,1100,100Z"/><path class="cls-4" d="M1140,40a50,50,0,1,0,50,50A50.005,50.005,0,0,0,1140,40Zm0,60a10,10,0,1,1,10-10A10,10,0,0,1,1140,100Z"/><path class="cls-5" d="M1140,0a50,50,0,1,0,50,50A50.005,50.005,0,0,0,1140,0Zm0,60a10,10,0,1,1,10-10A10,10,0,0,1,1140,60Z"/><path class="cls-6" d="M1100,0a50,50,0,1,0,50,50A50.005,50.005,0,0,0,1100,0Zm0,60a10,10,0,1,1,10-10A10,10,0,0,1,1100,60Z"/></g></g></g></svg>