<svg xmlns="http://www.w3.org/2000/svg" viewBox="0 0 720 220"><defs><style>.cls-1{fill:#121221;}.cls-2{fill:#366ce1;}</style></defs><title>pro tax service</title><g id="Слой_2" data-name="Слой 2"><g id="Work_space" data-name="Work space"><g id="pro_tax_service" data-name="pro tax service"><path class="cls-1" d="M20,150a10,10,0,0,0,10,10H70a30,30,0,0,1,0,60H0V200H70a10,10,0,0,0,0-20H30a30,30,0,0,1,0-60h70v20H30A10,10,0,0,0,20,150Z"/><polygon class="cls-1" points="640 140 640 160 720 160 720 180 640 180 640 200 720 200 720 220 620 220 620 120 720 120 720 140 640 140"/><polygon class="cls-1" points="130 140 130 160 210 160 210 180 130 180 130 200 210 200 210 220 110 220 110 120 210 120 210 140 130 140"/><path class="cls-2" d="M210,30A30,30,0,0,0,180,0H110V100h20V60h50a10,10,0,0,1,10,10v30h20V70a29.862,29.862,0,0,0-7.65-20A29.862,29.862,0,0,0,210,30ZM130,40V20h50a10,10,0,0,1,0,20Z"/><path class="cls-1" d="M320,150a30,30,0,0,0-30-30H220V220h20V180h50a10,10,0,0,1,10,10v30h20V190a29.862,29.862,0,0,0-7.65-20A29.862,29.862,0,0,0,320,150Zm-80,10V140h50a10,10,0,0,1,0,20Z"/><path class="cls-2" d="M270,0a50,50,0,1,0,50,50A50.005,50.005,0,0,0,270,0Zm0,80a30,30,0,1,1,30-30A30,30,0,0,1,270,80Z"/><path class="cls-1" d="M589.29,180H610a50,50,0,1,1,0-20H589.29a30,30,0,1,0,0,20Z"/><path class="cls-2" d="M570.77,1.95,569.99,0H550.01l-.78,1.94L510,100h21.55l11.2-28h34.5l11.2,28H610ZM550.75,52,560,28.87,569.25,52Z"/><polygon class="cls-1" points="480 140 480 200 510 200 510 220 430 220 430 200 460 200 460 140 430 140 430 120 510 120 510 140 480 140"/><path class="cls-2" d="M70,0H0V100H20V60H70A30,30,0,0,0,70,0Zm0,40H20V20H70a10,10,0,0,1,0,20Z"/><polygon class="cls-2" points="520 0 520 20 480 20 480 100 460 100 460 20 420 20 420 0 520 0"/><polygon class="cls-2" points="682.48 50.03 719.93 100 694.94 100 669.99 66.7 645.03 100 620.05 100 657.49 50.03 620 0 644.98 0 669.99 33.36 694.99 0 719.98 0 682.48 50.03"/><polygon class="cls-1" points="420 120 380.78 218.07 380.01 220 360.01 220 359.24 218.07 320.02 120 341.56 120 370.01 191.14 398.47 120 420 120"/></g></g></g></svg>