<svg xmlns="http://www.w3.org/2000/svg" viewBox="0 0 1120 420"><defs><style>.cls-1{fill:#366ce1;}.cls-2{fill:#e1dfdf;}.cls-3{fill:#121221;}</style></defs><title>process_gene</title><g id="Complete"><g id="Process_Gene" data-name="Process Gene"><g id="ProcessGene"><path class="cls-1" d="M128.01,435.96A39.816,39.816,0,0,1,130,448.43v20a39.988,39.988,0,0,1-40,40H50v-100H90A40.008,40.008,0,0,1,128.01,435.96Z" transform="translate(0 -290)"/><path class="cls-1" d="M100,350A100,100,0,0,0,0,450V640a10,10,0,0,0,10,10H200A100,100,0,0,0,300,550V360a10,10,0,0,0-10-10Zm40,118.43a50.005,50.005,0,0,1-50,50H50v80H40v-200H90a50.005,50.005,0,0,1,50,50Zm120-6.86H250v-10a40,40,0,1,0-80,0v100a40,40,0,1,0,80,0v-40H210v-10h50v50a50,50,0,0,1-100,0v-100a50,50,0,1,1,100,0Z" transform="translate(0 -290)"/><path class="cls-2" d="M128.01,435.96A39.816,39.816,0,0,1,130,448.43v20a39.988,39.988,0,0,1-40,40H50v-100H90A40.008,40.008,0,0,1,128.01,435.96Z" transform="translate(0 -290)"/><path class="cls-2" d="M200,350H10A10,10,0,0,0,0,360V550A100,100,0,0,0,100,650H290a10,10,0,0,0,10-10V450A100,100,0,0,0,200,350ZM140,468.43a50.005,50.005,0,0,1-50,50H50v80H40v-200H90a50.005,50.005,0,0,1,50,50Zm20,83.14v-100a50,50,0,1,1,100,0v10H250v-10a40,40,0,1,0-80,0v100a40,40,0,1,0,80,0v-40H210v-10h50v50a50,50,0,0,1-100,0Z" transform="translate(0 -290)"/></g><path class="cls-3" d="M570,420H560a40,40,0,1,0-80,0v70H470V370h10v20.01A50,50,0,0,1,570,420Z" transform="translate(0 -290)"/><path class="cls-3" d="M780,440h10a50,50,0,0,1-100,0V420a50,50,0,0,1,100,0H780a40,40,0,1,0-80,0v20a40,40,0,1,0,80,0Z" transform="translate(0 -290)"/><path class="cls-3" d="M1010,425v15a49.987,49.987,0,0,1-86.78,33.85l7.08-7.08A39.986,39.986,0,0,0,1000,440v-5H910V420a49.987,49.987,0,0,1,86.78-33.85l-7.08,7.08A39.986,39.986,0,0,0,920,420v5Z" transform="translate(0 -290)"/><path class="cls-3" d="M1120,425v15a49.987,49.987,0,0,1-86.78,33.85l7.08-7.08A39.986,39.986,0,0,0,1110,440v-5h-90V420a49.987,49.987,0,0,1,86.78-33.85l-7.08,7.08A39.986,39.986,0,0,0,1030,420v5Z" transform="translate(0 -290)"/><path class="cls-3" d="M410,290H360V490h10V410h40a50.005,50.005,0,0,0,50-50V340A50.005,50.005,0,0,0,410,290Zm40,70a39.988,39.988,0,0,1-40,40H370V300h40a39.988,39.988,0,0,1,40,40Z" transform="translate(0 -290)"/><path class="cls-3" d="M850,370a50.005,50.005,0,0,0-50,50v20a49.988,49.988,0,0,0,81.36,38.93l-7.12-7.12A39.99,39.99,0,0,1,810,440v-5h90V420A50.005,50.005,0,0,0,850,370Zm40,55H810v-5a40,40,0,1,1,80,0Z" transform="translate(0 -290)"/><path class="cls-3" d="M630,370a50.005,50.005,0,0,0-50,50v20a50,50,0,0,0,100,0V420A50.005,50.005,0,0,0,630,370Zm40,70a40,40,0,1,1-80,0V420a40,40,0,1,1,80,0Z" transform="translate(0 -290)"/><path class="cls-3" d="M520,590a50.005,50.005,0,0,0-50,50v20a49.988,49.988,0,0,0,81.36,38.93l-7.12-7.12A39.99,39.99,0,0,1,480,660v-5h90V640A50.005,50.005,0,0,0,520,590Zm40,55H480v-5a40,40,0,1,1,80,0Z" transform="translate(0 -290)"/><path class="cls-3" d="M740,590a50.005,50.005,0,0,0-50,50v20a49.988,49.988,0,0,0,81.36,38.93l-7.12-7.12A39.99,39.99,0,0,1,700,660v-5h90V640A50.005,50.005,0,0,0,740,590Zm40,55H700v-5a40,40,0,1,1,80,0Z" transform="translate(0 -290)"/><path class="cls-3" d="M450,570V560a40,40,0,1,0-80,0V660a40,40,0,1,0,80,0V620H410V610h50v50a50,50,0,0,1-100,0V560a50,50,0,0,1,100,0v10Z" transform="translate(0 -290)"/><path class="cls-3" d="M680,640v70H670V640a40,40,0,1,0-80,0v70H580V590h10v20.01A50,50,0,0,1,680,640Z" transform="translate(0 -290)"/></g></g></svg>