<svg xmlns="http://www.w3.org/2000/svg" viewBox="0 0 1430 220"><defs><style>.cls-1{fill:#366ce1;}.cls-2{fill:#121221;}</style></defs><title>process automation</title><g id="Слой_2" data-name="Слой 2"><g id="Work_space" data-name="Work space"><g id="process_automation" data-name="process automation"><path class="cls-1" d="M1413.931,75.365h-.007a16.07,16.07,0,0,1-13.916-24.1,16.072,16.072,0,0,0-5.88-21.957l-32.153-18.563a16.077,16.077,0,0,0-21.95,5.881l-.007.007a16.065,16.065,0,0,1-27.83,0l-.007-.007a16.077,16.077,0,0,0-21.95-5.881L1258.078,29.3a16.079,16.079,0,0,0-5.881,21.957,15.914,15.914,0,0,1,2.175,8.007,16.09,16.09,0,0,1-16.09,16.1h-.007a15.433,15.433,0,0,1-4.433,0h-.007a16.07,16.07,0,0,1-13.915-24.1,16.074,16.074,0,0,0-5.88-21.957l-32.153-18.563a16.077,16.077,0,0,0-21.95,5.881l-.007.007a16.066,16.066,0,0,1-27.831,0l-.007-.007a16.076,16.076,0,0,0-21.95-5.881L1077.99,29.3a16.077,16.077,0,0,0-5.881,21.957,15.925,15.925,0,0,1,2.175,8.007,16.09,16.09,0,0,1-16.09,16.1h-.007a16.072,16.072,0,0,0-16.069,16.07v37.126a16.072,16.072,0,0,0,16.069,16.069h.007a16.073,16.073,0,0,1,13.915,24.111,16.065,16.065,0,0,0,5.881,21.95l32.152,18.563a16.064,16.064,0,0,0,21.95-5.881l.007-.006a16.065,16.065,0,0,1,27.831,0l.007.006a16.064,16.064,0,0,0,21.95,5.881l32.153-18.563a16.069,16.069,0,0,0,5.88-21.95,15.925,15.925,0,0,1-2.175-8.014,16.09,16.09,0,0,1,16.09-16.1h.007a15.529,15.529,0,0,1,4.433,0h.007a16.073,16.073,0,0,1,13.915,24.111,16.065,16.065,0,0,0,5.881,21.95l32.153,18.563a16.065,16.065,0,0,0,21.95-5.881l.007-.006a16.064,16.064,0,0,1,27.83,0l.007.006a16.065,16.065,0,0,0,21.95,5.881l32.153-18.563a16.069,16.069,0,0,0,5.88-21.95,15.925,15.925,0,0,1-2.175-8.014,16.091,16.091,0,0,1,16.091-16.1h.007A16.072,16.072,0,0,0,1430,128.561V91.435A16.073,16.073,0,0,0,1413.931,75.365Zm-233.284,45.348a16.077,16.077,0,0,1-8.035,13.922l-18.563,10.715a16.081,16.081,0,0,1-16.069,0l-18.563-10.715a16.079,16.079,0,0,1-8.035-13.922V99.282a16.08,16.08,0,0,1,8.035-13.922l18.563-10.708a16.047,16.047,0,0,1,16.069,0l18.563,10.708a16.078,16.078,0,0,1,8.035,13.922Zm180.088,0a16.078,16.078,0,0,1-8.034,13.922l-18.563,10.715a16.083,16.083,0,0,1-16.07,0l-18.563-10.715a16.078,16.078,0,0,1-8.034-13.922V99.282a16.08,16.08,0,0,1,8.034-13.922l18.563-10.708a16.049,16.049,0,0,1,16.07,0L1352.7,85.36a16.08,16.08,0,0,1,8.034,13.922Z"/><path class="cls-2" d="M830,30a10,10,0,0,0,10,10h40a30,30,0,0,1,0,60H810V80h70a10,10,0,0,0,0-20H840a30,30,0,0,1,0-60h70V20H840A10,10,0,0,0,830,30Z"/><path class="cls-2" d="M940,30a10,10,0,0,0,10,10h40a30,30,0,0,1,0,60H920V80h70a10,10,0,0,0,0-20H950a30,30,0,0,1,0-60h70V20H950A10,10,0,0,0,940,30Z"/><polygon class="cls-2" points="720 20 720 40 800 40 800 60 720 60 720 80 800 80 800 100 700 100 700 0 800 0 800 20 720 20"/><path class="cls-2" d="M470,30A30,30,0,0,0,440,0H370V100h20V60h50a10,10,0,0,1,10,10v30h20V70a29.862,29.862,0,0,0-7.65-20A29.862,29.862,0,0,0,470,30ZM390,40V20h50a10,10,0,0,1,0,20Z"/><path class="cls-2" d="M530,0a50,50,0,1,0,50,50A50.005,50.005,0,0,0,530,0Zm0,80a30,30,0,1,1,30-30A30,30,0,0,1,530,80Z"/><path class="cls-2" d="M669.29,60H690a50,50,0,1,1,0-20H669.29a30,30,0,1,0,0,20Z"/><path class="cls-2" d="M330,0H260V100h20V60h50a30,30,0,0,0,0-60Zm0,40H280V20h50a10,10,0,0,1,0,20Z"/><polygon class="cls-1" points="1020 120 1020 220 1000 220 940 150.59 940 220 920 220 920 120 940 120 1000 189.41 1000 120 1020 120"/><polygon class="cls-1" points="520 120 520 220 500 220 500 150.59 483.2 170.05 469.99 185.36 456.78 170.05 440 150.62 440 220 420 220 420 120 440 120 440 120.01 469.99 154.75 499.98 120 520 120"/><path class="cls-1" d="M860,120a50,50,0,1,0,50,50A50.005,50.005,0,0,0,860,120Zm0,80a30,30,0,1,1,30-30A30,30,0,0,1,860,200Z"/><path class="cls-1" d="M360,120a50,50,0,1,0,50,50A50.005,50.005,0,0,0,360,120Zm0,80a30,30,0,1,1,30-30A30,30,0,0,1,360,200Z"/><path class="cls-1" d="M590.77,121.95l-.78-1.95H570.01l-.78,1.94L530,220h21.55l11.2-28h34.5l11.2,28H630ZM570.75,172,580,148.87,589.25,172Z"/><path class="cls-1" d="M60.77,121.95,59.99,120H40.01l-.78,1.94L0,220H21.55l11.2-28h34.5l11.2,28H100ZM40.75,172,50,148.87,59.25,172Z"/><polygon class="cls-1" points="780 140 780 200 810 200 810 220 730 220 730 200 760 200 760 140 730 140 730 120 810 120 810 140 780 140"/><polygon class="cls-1" points="720 120 720 140 680 140 680 220 660 220 660 140 620 140 620 120 720 120"/><polygon class="cls-1" points="310 120 310 140 270 140 270 220 250 220 250 140 210 140 210 120 310 120"/><path class="cls-1" d="M200,120v50a50,50,0,0,1-100,0V120h20v50a30,30,0,0,0,60,0V120Z"/></g></g></g></svg>