<svg xmlns="http://www.w3.org/2000/svg" viewBox="0 0 938.95 220"><defs><style>.cls-1{fill:#121221;}.cls-2{fill:#366ce1;}</style></defs><title>procurity</title><g id="Complete"><g id="procurity"><path class="cls-1" d="M437.805,480h20.71a50,50,0,1,1,0-20h-20.71a30,30,0,1,0,0,20Z" transform="translate(-30.525 -300)"/><polygon class="cls-1" points="699 140 699 200 719 200 719 220 659 220 659 200 679 200 679 140 659 140 659 120 719 120 719 140 699 140"/><polygon class="cls-1" points="901.78 166.46 898.95 170 899 170 899 220 879 220 879 170 876.17 166.46 839 120 864.61 120 888.97 150.45 913.33 120 938.95 120 901.78 166.46"/><polygon class="cls-1" points="829 120 829 140 789 140 789 220 769 220 769 140 729 140 729 120 829 120"/><path class="cls-1" d="M569.575,420v50a50,50,0,1,1-100,0V420h20v50a30,30,0,1,0,60,0V420Z" transform="translate(-30.525 -300)"/><path class="cls-1" d="M679.525,450a30,30,0,0,0-30-30h-70V520h20V480h50a10,10,0,0,1,10,10v30h20V490a29.862,29.862,0,0,0-7.65-20A29.862,29.862,0,0,0,679.525,450Zm-80,10V440h50a10,10,0,1,1,0,20Z" transform="translate(-30.525 -300)"/><path class="cls-1" d="M240.525,450a30,30,0,0,0-30-30h-70V520h20V480h50a10,10,0,0,1,10,10v30h20V490a29.862,29.862,0,0,0-7.65-20A29.862,29.862,0,0,0,240.525,450Zm-80,10V440h50a10,10,0,0,1,0,20Z" transform="translate(-30.525 -300)"/><path class="cls-1" d="M299.525,420a50,50,0,1,0,50,50A50.005,50.005,0,0,0,299.525,420Zm0,80a30,30,0,1,1,30-30A30,30,0,0,1,299.525,500Z" transform="translate(-30.525 -300)"/><path class="cls-1" d="M100.525,420h-70V520h20V480h50a30,30,0,0,0,0-60Zm0,40h-50V440h50a10,10,0,0,1,0,20Z" transform="translate(-30.525 -300)"/><path class="cls-2" d="M500,300a50.005,50.005,0,0,0-50,50v50h50a50,50,0,0,0,0-100Zm0,80H470V350a30,30,0,1,1,30,30Z" transform="translate(-30.525 -300)"/><path class="cls-1" d="M500,320a30,30,0,1,0,30,30V320Zm0,50a20,20,0,0,1,0-40h20v20A20,20,0,0,1,500,370Z" transform="translate(-30.525 -300)"/></g></g></svg>