<svg xmlns="http://www.w3.org/2000/svg" viewBox="0 0 1218.196 280"><defs><style>.cls-1{fill:#121221;}.cls-2{fill:#366ce1;}</style></defs><title>product information</title><g id="Слой_2" data-name="Слой 2"><g id="Work_space" data-name="Work space"><g id="product_information" data-name="product information"><path class="cls-1" d="M35,0A35,35,0,1,0,70,35,35,35,0,0,0,35,0Zm0,50A15,15,0,1,1,50,35,15.005,15.005,0,0,1,35,50Z"/><path class="cls-2" d="M50,76.62V245a15.014,15.014,0,0,1-10.54,14.32,15.179,15.179,0,0,1-8.92,0A15.014,15.014,0,0,1,20,245V76.62a35.068,35.068,0,0,0,30,0Z"/><path class="cls-1" d="M70,45V245a35,35,0,0,1-70,0V45A35.014,35.014,0,0,0,20,76.63V245a14.971,14.971,0,0,0,5.46,11.57,14.739,14.739,0,0,0,5.08,2.75,14.966,14.966,0,0,0,8.92,0,14.739,14.739,0,0,0,5.08-2.75A14.971,14.971,0,0,0,50,245V76.63A35.014,35.014,0,0,0,70,45Z"/><path class="cls-1" d="M736.476,95h20.71a50,50,0,1,1,0-20h-20.71a30,30,0,1,0,0,20Z"/><polygon class="cls-2" points="328.196 165 328.196 185 388.196 185 388.196 205 328.196 205 328.196 245 308.196 245 308.196 145 408.196 145 408.196 165 328.196 165"/><polygon class="cls-2" points="1218.196 145 1218.196 245 1198.196 245 1138.196 175.59 1138.196 245 1118.196 245 1118.196 145 1138.196 145 1198.196 214.41 1198.196 145 1218.196 145"/><polygon class="cls-2" points="298.196 145 298.196 245 278.196 245 218.196 175.59 218.196 245 198.196 245 198.196 145 218.196 145 278.196 214.41 278.196 145 298.196 145"/><path class="cls-1" d="M488.2,35h-50V135h50a50,50,0,0,0,0-100Zm0,80h-30V55h30a30,30,0,0,1,0,60Z"/><polygon class="cls-2" points="728.196 145 728.196 245 708.196 245 708.196 175.59 691.396 195.05 678.186 210.36 664.976 195.05 648.196 175.62 648.196 245 628.196 245 628.196 145 648.196 145 648.196 145.01 678.186 179.75 708.176 145 728.196 145"/><path class="cls-2" d="M618.2,175a30,30,0,0,0-30-30h-70V245h20V205h50a10,10,0,0,1,10,10v30h20V215a29.862,29.862,0,0,0-7.65-20A29.862,29.862,0,0,0,618.2,175Zm-80,10V165h50a10,10,0,0,1,0,20Z"/><path class="cls-1" d="M318.2,65a30,30,0,0,0-30-30h-70V135h20V95h50a10,10,0,0,1,10,10v30h20V105a29.862,29.862,0,0,0-7.65-20A29.862,29.862,0,0,0,318.2,65Zm-80,10V55h50a10,10,0,0,1,0,20Z"/><path class="cls-2" d="M458.2,145a50,50,0,1,0,50,50A50.005,50.005,0,0,0,458.2,145Zm0,80a30,30,0,1,1,30-30A30,30,0,0,1,458.2,225Z"/><path class="cls-1" d="M378.2,35a50,50,0,1,0,50,50A50.005,50.005,0,0,0,378.2,35Zm0,80a30,30,0,1,1,30-30A30,30,0,0,1,378.2,115Z"/><path class="cls-2" d="M1058.2,145a50,50,0,1,0,50,50A50.005,50.005,0,0,0,1058.2,145Zm0,80a30,30,0,1,1,30-30A30,30,0,0,1,1058.2,225Z"/><path class="cls-2" d="M798.966,146.95l-.78-1.95h-19.98l-.78,1.94L738.2,245h21.55l11.2-28h34.5l11.2,28H838.2ZM778.946,197l9.25-23.13,9.25,23.13Z"/><polygon class="cls-2" points="158.196 165 158.196 225 188.196 225 188.196 245 108.196 245 108.196 225 138.196 225 138.196 165 108.196 165 108.196 145 188.196 145 188.196 165 158.196 165"/><polygon class="cls-2" points="978.196 165 978.196 225 1008.196 225 1008.196 245 928.196 245 928.196 225 958.196 225 958.196 165 928.196 165 928.196 145 1008.196 145 1008.196 165 978.196 165"/><path class="cls-1" d="M178.2,35h-70V135h20V95h50a30,30,0,0,0,0-60Zm0,40h-50V55h50a10,10,0,0,1,0,20Z"/><polygon class="cls-1" points="858.196 35 858.196 55 818.196 55 818.196 135 798.196 135 798.196 55 758.196 55 758.196 35 858.196 35"/><polygon class="cls-2" points="918.196 145 918.196 165 878.196 165 878.196 245 858.196 245 858.196 165 818.196 165 818.196 145 918.196 145"/><path class="cls-1" d="M648.2,35V85a50,50,0,0,1-100,0V35h20V85a30,30,0,0,0,60,0V35Z"/></g></g></g></svg>