<svg id="Main" xmlns="http://www.w3.org/2000/svg" viewBox="0 0 508.3 508.3"><defs><style>.cls-1{fill:#121221;}.cls-2{fill:#e1dfdf;}</style></defs><title>prolog</title><g id="prolog"><path class="cls-1" d="M754.15,500c0,140.36-113.79,254.15-254.15,254.15a253.1,253.1,0,0,1-165.85-61.58V614.15h60a100,100,0,1,0-100-100V649.07A252.921,252.921,0,0,1,245.85,500c0-140.36,113.79-254.15,254.15-254.15q7.125,0,14.15.39V539.98a74.161,74.161,0,0,0,74.17,74.17H714.15v-40H599.99a45.836,45.836,0,0,1-45.84-45.84V251.64C668.5,276.45,754.15,378.22,754.15,500Z" transform="translate(-245.85 -245.85)"/><path class="cls-2" d="M394.15,414.15a100,100,0,0,0-100,100V649.07a254.369,254.369,0,0,0,40,43.5V614.15h60a100,100,0,0,0,0-200Zm0,160a60,60,0,1,1,9.56-119.24,37.09,37.09,0,1,0,44.61,36.32c0-1.08-.05-2.14-.14-3.19a60.015,60.015,0,0,1-54.03,86.11Z" transform="translate(-245.85 -245.85)"/><path class="cls-1" d="M454.15,514.15a59.956,59.956,0,1,1-50.44-59.24,37.09,37.09,0,1,0,44.61,36.32c0-1.08-.05-2.14-.14-3.19A59.625,59.625,0,0,1,454.15,514.15Z" transform="translate(-245.85 -245.85)"/><path class="cls-2" d="M714.15,574.15v40H588.32a74.161,74.161,0,0,1-74.17-74.17V246.24a253.021,253.021,0,0,1,40,5.4V528.31a45.836,45.836,0,0,0,45.84,45.84Z" transform="translate(-245.85 -245.85)"/></g></svg>