<svg xmlns="http://www.w3.org/2000/svg" viewBox="0 0 1016.299 400"><defs><style>.cls-1{fill:#366ce1;}.cls-2{fill:#121221;}</style></defs><title>proproofsquizmaker</title><g id="Complete"><g id="proproofs_quiz_maker" data-name="proproofs quiz maker"><polygon class="cls-1" points="520 120 520 140 580 140 580 160 520 160 520 200 500 200 500 100 600 100 600 120 520 120"/><polygon class="cls-1" points="200 300 200 400 180 400 180 330.59 163.2 350.05 149.99 365.36 136.78 350.05 120 330.62 120 400 100 400 100 300 120 300 120 300.01 149.99 334.75 179.98 300 200 300"/><path class="cls-1" d="M620,430a10,10,0,0,0,10,10h40a30,30,0,0,1,0,60H600V480h70a10,10,0,0,0,0-20H630a30,30,0,0,1,0-60h70v20H630A10,10,0,0,0,620,430Z" transform="translate(0 -300)"/><polygon class="cls-1" points="450 320 450 340 530 340 530 360 450 360 450 380 530 380 530 400 430 400 430 300 530 300 530 320 450 320"/><path class="cls-1" d="M640,630a30,30,0,0,0-30-30H540V700h20V660h50a10,10,0,0,1,10,10v30h20V670a29.862,29.862,0,0,0-7.65-20A29.862,29.862,0,0,0,640,630Zm-80,10V620h50a10,10,0,0,1,0,20Z" transform="translate(0 -300)"/><path class="cls-2" d="M200,330a30,30,0,0,0-30-30H100V400h20V360h50a10,10,0,0,1,10,10v30h20V370a29.862,29.862,0,0,0-7.65-20A29.862,29.862,0,0,0,200,330Zm-80,10V320h50a10,10,0,0,1,0,20Z" transform="translate(0 -300)"/><path class="cls-2" d="M250,300a50,50,0,1,0,50,50A50.005,50.005,0,0,0,250,300Zm0,80a30,30,0,1,1,30-30A30,30,0,0,1,250,380Z" transform="translate(0 -300)"/><polygon class="cls-1" points="420 399.99 420 400 390.13 400 349.51 363.43 340 372 340 400 320 400 320 300 340 300 340 345.09 349.51 336.52 390.07 300 419.97 300 364.46 349.98 420 399.99"/><path class="cls-1" d="M270.77,601.95l-.78-1.95H250.01l-.78,1.94L210,700h21.55l11.2-28h34.5l11.2,28H310ZM250.75,652,260,628.87,269.25,652Z" transform="translate(0 -300)"/><path class="cls-2" d="M70,300H0V400H20V360H70a30,30,0,0,0,0-60Zm0,40H20V320H70a10,10,0,0,1,0,20Z" transform="translate(0 -300)"/><path class="cls-1" d="M300,430a30,30,0,0,0-30-30H200V500h20V460h50a10,10,0,0,1,10,10v30h20V470a29.862,29.862,0,0,0-7.65-20A29.862,29.862,0,0,0,300,430Zm-80,10V420h50a10,10,0,0,1,0,20Z" transform="translate(0 -300)"/><path class="cls-1" d="M350,400a50,50,0,1,0,50,50A50.005,50.005,0,0,0,350,400Zm0,80a30,30,0,1,1,30-30A30,30,0,0,1,350,480Z" transform="translate(0 -300)"/><path class="cls-1" d="M450,400a50,50,0,1,0,50,50A50.005,50.005,0,0,0,450,400Zm0,80a30,30,0,1,1,30-30A30,30,0,0,1,450,480Z" transform="translate(0 -300)"/><path class="cls-1" d="M170,400H100V500h20V460h50a30,30,0,0,0,0-60Zm0,40H120V420h50a10,10,0,0,1,0,20Z" transform="translate(0 -300)"/><polygon class="cls-2" points="260 220 260 280 280 280 280 300 220 300 220 280 240 280 240 220 220 220 220 200 280 200 280 220 260 220"/><polygon class="cls-2" points="300 200 400 200 400 220 330.59 280 400 280 400 300 300 300 300 280 369.41 220 300 220 300 200"/><path class="cls-2" d="M210,500v50a50,50,0,0,1-100,0V500h20v50a30,30,0,0,0,60,0V500Z" transform="translate(0 -300)"/><path class="cls-2" d="M100,550a50.019,50.019,0,1,0-22.44,41.71L85.85,600H90v-.08l.07.08H100V585.85l-8.29-8.29A49.7,49.7,0,0,0,100,550ZM77.07,562.93A30,30,0,1,1,80,550,30.037,30.037,0,0,1,77.07,562.93Z" transform="translate(0 -300)"/><path class="cls-2" d="M839.577,400a100,100,0,1,0,100,100A100,100,0,0,0,839.577,400Zm0,180a80,80,0,1,1,80-80A80,80,0,0,1,839.577,580Z" transform="translate(0 -300)"/><rect class="cls-1" x="910.84" y="307.868" width="20" height="250" transform="translate(575.792 -824.348) rotate(45)"/><rect class="cls-1" x="780.02" y="384.769" width="20" height="160" transform="translate(-97.25 394.756) rotate(-45)"/></g></g></svg>