<svg xmlns="http://www.w3.org/2000/svg" viewBox="0 0 801 220"><defs><style>.cls-1,.cls-3{fill:#121221;}.cls-2{fill:#366ce1;}.cls-3{opacity:0.38;}</style></defs><title>prove source</title><g id="Слой_2" data-name="Слой 2"><g id="Work_space" data-name="Work space"><g id="prove_source" data-name="prove source"><path class="cls-1" d="M380,0a50,50,0,1,0,50,50A50.005,50.005,0,0,0,380,0Zm0,90a40,40,0,1,1,40-40A40,40,0,0,1,380,90Z"/><path class="cls-2" d="M160,120a50,50,0,1,0,50,50A50.005,50.005,0,0,0,160,120Zm0,90a40,40,0,1,1,40-40A40,40,0,0,1,160,210Z"/><path class="cls-2" d="M516.93,198.28l7.07,7.07a50,50,0,1,1,0-70.7l-7.07,7.07a40,40,0,1,0,0,56.56Z"/><polygon class="cls-1" points="544 10 544 45 634 45 634 55 544 55 544 90 634 90 634 100 534 100 534 0 634 0 634 10 544 10"/><polygon class="cls-2" points="551 130 551 165 641 165 641 175 551 175 551 210 641 210 641 220 541 220 541 120 641 120 641 130 551 130"/><path class="cls-1" d="M306.57,55A29.994,29.994,0,0,0,290,0H220V100h10V60h60a19.994,19.994,0,0,1,20,20v20h10V80A29.923,29.923,0,0,0,306.57,55ZM280,52.04l-.02-.04H280ZM290,50H230V10h60a20,20,0,0,1,0,40Z"/><path class="cls-2" d="M416.57,175A29.994,29.994,0,0,0,400,120H330V220h10V180h60a19.994,19.994,0,0,1,20,20v20h10V200A29.923,29.923,0,0,0,416.57,175ZM390,172.04l-.02-.04H390ZM400,170H340V130h60a20,20,0,0,1,0,40Z"/><path class="cls-1" d="M180,0H110V100h10V60h60a30,30,0,0,0,0-60Zm0,50H120V10h60a20,20,0,0,1,0,40Z"/><path class="cls-2" d="M10,147.5A17.506,17.506,0,0,0,27.5,165h45A27.5,27.5,0,0,1,80,218.95,26.911,26.911,0,0,1,72.5,220H0V210H72.5a17.5,17.5,0,0,0,0-35h-45A27.5,27.5,0,0,1,20,121.05,26.911,26.911,0,0,1,27.5,120H100v10H27.5A17.506,17.506,0,0,0,10,147.5Z"/><polygon class="cls-1" points="524 0 479.48 98.78 478.94 100 469.06 100 468.52 98.8 424.01 0 434.98 0 474 86.62 513.03 0 524 0"/><path class="cls-2" d="M320,120v50a50,50,0,0,1-100,0V120h10v50a40,40,0,0,0,80,0V120Z"/><path class="cls-2" d="M736.858,69.142,724.21,81.79A1.88,1.88,0,0,0,725.539,85H736a15,15,0,0,0,0,30,15,15,0,0,0,0,30,15,15,0,1,0,0,30,15,15,0,0,0,0,30h-6.079a56.762,56.762,0,0,1-34.057-11.353l-20.775-15.579A10.228,10.228,0,0,1,671,169.887V97.4a24.806,24.806,0,0,1,9.921-19.845l16.858-12.642A33.05,33.05,0,0,0,711,38.473v-3c0-10.849,8.44-20.085,19.281-20.464A19.994,19.994,0,0,1,751,35h0A48.284,48.284,0,0,1,736.858,69.142Z"/><path class="cls-2" d="M801,160a15.023,15.023,0,0,1-15,15H736a15,15,0,0,1,0-30h50A15.005,15.005,0,0,1,801,160Z"/><path class="cls-2" d="M801,130a15.023,15.023,0,0,1-15,15H736a15,15,0,0,1,0-30h50A15.005,15.005,0,0,1,801,130Z"/><path class="cls-2" d="M801,100a15.023,15.023,0,0,1-15,15H736a15,15,0,0,1,0-30h50A15.005,15.005,0,0,1,801,100Z"/><path class="cls-2" d="M801,190a15.023,15.023,0,0,1-15,15H736a15,15,0,0,1,0-30h50A15.005,15.005,0,0,1,801,190Z"/><path class="cls-3" d="M801,160a15.023,15.023,0,0,1-15,15H736a15,15,0,0,1,0-30h50A15.005,15.005,0,0,1,801,160Z"/><path class="cls-3" d="M801,130a15.023,15.023,0,0,1-15,15H736a15,15,0,0,1,0-30h50A15.005,15.005,0,0,1,801,130Z"/><path class="cls-3" d="M801,100a15.023,15.023,0,0,1-15,15H736a15,15,0,0,1,0-30h50A15.005,15.005,0,0,1,801,100Z"/><path class="cls-3" d="M801,190a15.023,15.023,0,0,1-15,15H736a15,15,0,0,1,0-30h50A15.005,15.005,0,0,1,801,190Z"/></g></g></g></svg>