<svg xmlns="http://www.w3.org/2000/svg" viewBox="0 0 824.012 250"><defs><style>.cls-1{fill:#366ce1;}.cls-2{fill:#121221;}</style></defs><title>pure storage</title><g id="Слой_2" data-name="Слой 2"><g id="Work_space" data-name="Work space"><g id="pure_storage" data-name="pure storage"><path class="cls-1" d="M190.52,0H63.492L0,110,63.492,220H190.52l63.492-110ZM171.556,187.176H82.434L37.906,110,82.434,32.846h89.122L216.106,110Z"/><rect class="cls-2" x="105.006" y="88" width="44" height="44"/><rect class="cls-2" x="105.006" y="88" width="44" height="44" transform="translate(114.981 -57.589) rotate(45)"/><path class="cls-1" d="M342.9,0h-70V100h20V60h50a30,30,0,0,0,0-60Zm0,40h-50V20h50a10,10,0,0,1,0,20Z"/><path class="cls-1" d="M572.194,72a35.007,35.007,0,0,0,0-14,35,35,0,0,0-68.586,0,35.007,35.007,0,0,0,0,14,34.991,34.991,0,0,0,57.869,18.858Q555.9,86.4,550.319,81.933A20.995,20.995,0,0,1,518.105,72ZM537.9,44a20.985,20.985,0,0,1,19.8,14H518.105A20.985,20.985,0,0,1,537.9,44Z"/><path class="cls-1" d="M376.9,65V30h14V65a21,21,0,0,0,42,0V30h14v70h-14V92.993A34.993,34.993,0,0,1,376.9,65Z"/><path class="cls-1" d="M506.905,34.991Q503.3,41,499.7,47a20.993,20.993,0,0,0-31.8,18v35h-14V30h14v7.007a34.97,34.97,0,0,1,39-2.016Z"/><path class="cls-2" d="M292.9,150a10,10,0,0,0,10,10h40a30,30,0,1,1,0,60h-70V200h70a10,10,0,1,0,0-20h-40a30,30,0,0,1,0-60h70v20h-70A10,10,0,0,0,292.9,150Z"/><path class="cls-2" d="M651.4,155.73c-35.033-22.01-71.968,13.121-53.629,48.217A34.206,34.206,0,0,0,609.979,216.2c15.037,7.908,30.12,5.647,40.7-2.313v7.229h14.444V180.656A29.426,29.426,0,0,0,651.4,155.73Zm-9.314,47.061c-21.488,13.072-43.932-9.372-30.86-30.86a14.143,14.143,0,0,1,4.723-4.722c21.487-13.072,43.931,9.372,30.859,30.86A14.14,14.14,0,0,1,642.081,202.791Z"/><path class="cls-2" d="M500.679,148.889A36.111,36.111,0,1,0,536.79,185,36.114,36.114,0,0,0,500.679,148.889Zm0,57.778A21.667,21.667,0,1,1,522.345,185,21.666,21.666,0,0,1,500.679,206.667Z"/><path class="cls-2" d="M823.283,192.222a36.138,36.138,0,0,0,0-14.444,36.112,36.112,0,0,0-70.764,0,36.138,36.138,0,0,0,0,14.444,36.1,36.1,0,0,0,59.706,19.457q-5.753-4.6-11.512-9.208a21.661,21.661,0,0,1-33.237-10.249ZM787.9,163.333a21.651,21.651,0,0,1,20.424,14.445H767.476A21.654,21.654,0,0,1,787.9,163.333Z"/><path class="cls-2" d="M457.345,185a36.111,36.111,0,0,1-72.222,0V120h14.445v28.889h21.666v14.444H399.568V185a21.667,21.667,0,1,0,43.333,0Z"/><path class="cls-2" d="M597.588,154.038q-3.717,6.2-7.432,12.386A21.66,21.66,0,0,0,557.345,185v36.111H542.9V148.889h14.444v7.229a36.084,36.084,0,0,1,40.243-2.08Z"/><path class="cls-2" d="M730.679,148.889v7.229a36.111,36.111,0,1,0,0,57.764v.007a21.665,21.665,0,0,1-42.091,7.222H673.63c.058.311.123.614.2.925v.007a36.161,36.161,0,0,0,27.033,27.033h.007a36.138,36.138,0,0,0,44.258-35.187v-65Zm-5.525,50.555a21.667,21.667,0,0,1-37.809-14.437V185a21.667,21.667,0,0,1,43.334,0v.007A21.551,21.551,0,0,1,725.154,199.444Z"/></g></g></g></svg>