<svg id="Complete" xmlns="http://www.w3.org/2000/svg" viewBox="0 0 740 540"><defs><style>.cls-1{fill:#121221;}.cls-2{fill:#e1dfdf;}.cls-3{fill:#366ce1;}</style></defs><title>pycharm</title><g id="pycharm"><rect class="cls-1" x="220" width="300" height="300"/><rect class="cls-2" x="240" y="220" width="200" height="20"/><path class="cls-2" d="M440,250H370V410h20V350h50a50,50,0,0,0,0-100Zm0,80H390V270h50a30,30,0,0,1,0,60Z" transform="translate(-130 -230)"/><path class="cls-2" d="M596.46,366.46l14.77,14.77A60,60,0,0,1,500,350V310a60,60,0,0,1,111.23-31.23l-14.77,14.77A40,40,0,0,0,520.31,305a41.3,41.3,0,0,0-.31,5v40a41.3,41.3,0,0,0,.31,5,40,40,0,0,0,76.15,11.46Z" transform="translate(-130 -230)"/><circle class="cls-3" cx="430" cy="100" r="20"/><circle class="cls-3" cx="300" cy="70" r="20"/><path class="cls-3" d="M200,550H130V710h20V650h50a50,50,0,0,0,0-100Zm0,80H150V570h50a30,30,0,0,1,0,60Z" transform="translate(-130 -230)"/><path class="cls-1" d="M445.23,666.46,460,681.23A60,60,0,0,1,348.77,650V610A60,60,0,0,1,460,578.77l-14.77,14.77A40,40,0,0,0,369.08,605a41.3,41.3,0,0,0-.31,5v40a41.3,41.3,0,0,0,.31,5,40,40,0,0,0,76.15,11.46Z" transform="translate(-130 -230)"/><path class="cls-1" d="M870,670v40H850V670a20,20,0,0,0-40,0v40H790V670a20,20,0,0,0-40,0v40H730V630h20v5.35a40,40,0,0,1,50,8.21A39.989,39.989,0,0,1,870,670Z" transform="translate(-130 -230)"/><path class="cls-1" d="M717.4,640.88l-14.15,14.15A19.991,19.991,0,0,0,670,670v40H650V630h20v5.35a39.989,39.989,0,0,1,47.4,5.53Z" transform="translate(-130 -230)"/><path class="cls-1" d="M600,630a40,40,0,1,0,20,74.65V710h20V670A40,40,0,0,0,600,630Zm0,60a20,20,0,1,1,20-20A19.994,19.994,0,0,1,600,690Z" transform="translate(-130 -230)"/><path class="cls-1" d="M550,670v40H530V670a20,20,0,0,0-40,0v40H470V550h20v85.35A40.012,40.012,0,0,1,550,670Z" transform="translate(-130 -230)"/><path class="cls-3" d="M330,630V730a39.983,39.983,0,0,1-67.4,29.12l14.15-14.15A19.991,19.991,0,0,0,310,730V704.65A40,40,0,0,1,263.56,700c-.33-.28-.65-.57-.96-.88A39.815,39.815,0,0,1,250,670V630h20v40a20,20,0,0,0,40,0V630Z" transform="translate(-130 -230)"/></g></svg>