<svg xmlns="http://www.w3.org/2000/svg" viewBox="0 0 460 208.68"><defs><style>.cls-1{fill:#121221;}.cls-2{fill:#366ce1;}</style></defs><title>qlik</title><g id="complete"><g id="qlik"><path class="cls-1" d="M588.68,546.25A100.016,100.016,0,0,0,500,400a100,100,0,1,0,29.45,195.59,99,99,0,0,0,16.8-6.91l20,20a100.3,100.3,0,0,0,42.43-42.43Zm-48.26,10.9a69.542,69.542,0,0,1-36.3,12.73c-1.36.08-2.74.12-4.12.12a70.006,70.006,0,1,1,70-70c0,1.38-.04,2.76-.12,4.12a70.008,70.008,0,0,1-29.46,53.03Z" transform="translate(-400 -400)"/><path class="cls-2" d="M450,500a49.762,49.762,0,0,1,2.89-16.76l13.86,13.87a49.308,49.308,0,0,0,11.96-6.18,49.95,49.95,0,0,0,12.22-12.22,49.308,49.308,0,0,0,6.18-11.96l-13.87-13.86A50,50,0,1,1,450,500Z" transform="translate(-400 -400)"/><rect class="cls-2" x="240" width="30" height="200"/><rect class="cls-2" x="300" width="30" height="200"/><rect class="cls-2" x="360" width="30" height="200"/><polygon class="cls-2" points="378 100 410 100 460 200 430 200 378 100"/><polygon class="cls-2" points="460 0 430 0 378 100 410 100 460 0"/></g></g></svg>