<svg xmlns="http://www.w3.org/2000/svg" viewBox="0 0 1250 100"><defs><style>.cls-1{fill:#121221;}</style></defs><title>quant retail</title><g id="Слой_2" data-name="Слой 2"><g id="Work_space" data-name="Work space"><g id="quant_retail" data-name="quant retail"><polygon class="cls-1" points="1120 20 1120 80 1140 80 1140 100 1080 100 1080 80 1100 80 1100 20 1080 20 1080 0 1140 0 1140 20 1120 20"/><polygon class="cls-1" points="430 0 430 100 410 100 350 30.59 350 100 330 100 330 0 350 0 410 69.41 410 0 430 0"/><polygon class="cls-1" points="790 20 790 40 870 40 870 60 790 60 790 80 870 80 870 100 770 100 770 0 870 0 870 20 790 20"/><polygon class="cls-1" points="1250 80 1250 100 1150 100 1150 0 1170 0 1170 80 1250 80"/><path class="cls-1" d="M760,30A30,30,0,0,0,730,0H660V100h20V60h50a10,10,0,0,1,10,10v30h20V70a29.862,29.862,0,0,0-7.65-20A29.862,29.862,0,0,0,760,30ZM680,40V20h50a10,10,0,0,1,0,20Z"/><path class="cls-1" d="M280.77,1.95,279.99,0H260.01l-.78,1.94L220,100h21.55l11.2-28h34.5l11.2,28H320ZM260.75,52,270,28.87,279.25,52Z"/><path class="cls-1" d="M1030.77,1.95,1029.99,0h-19.98l-.78,1.94L970,100h21.55l11.2-28h34.5l11.2,28H1070ZM1010.75,52,1020,28.87,1029.25,52Z"/><path class="cls-1" d="M100,50A50.019,50.019,0,1,0,77.56,91.71L85.85,100H90v-.08l.07.08H100V85.85l-8.29-8.29A49.7,49.7,0,0,0,100,50ZM77.07,62.93A30,30,0,1,1,80,50,30.037,30.037,0,0,1,77.07,62.93Z"/><polygon class="cls-1" points="540 0 540 20 500 20 500 100 480 100 480 20 440 20 440 0 540 0"/><polygon class="cls-1" points="980 0 980 20 940 20 940 100 920 100 920 20 880 20 880 0 980 0"/><path class="cls-1" d="M210,0V50a50,50,0,0,1-100,0V0h20V50a30,30,0,0,0,60,0V0Z"/></g></g></g></svg>