<svg xmlns="http://www.w3.org/2000/svg" viewBox="0 0 1130 370"><defs><style>.cls-1{fill:#366ce1;}.cls-2{fill:#121221;}</style></defs><title>quick-tap survey</title><g id="Слой_2" data-name="Слой 2"><g id="Work_space" data-name="Work space"><g id="quick-tap_survey" data-name="quick-tap survey"><path class="cls-1" d="M140,225a10,10,0,0,0,10,10h40a30,30,0,0,1,0,60H120V275h70a10,10,0,0,0,0-20H150a30,30,0,0,1,0-60h70v20H150A10,10,0,0,0,140,225Z"/><polygon class="cls-1" points="580 215 580 235 660 235 660 255 580 255 580 275 660 275 660 295 560 295 560 195 660 195 660 215 580 215"/><path class="cls-1" d="M440,225a30,30,0,0,0-30-30H340V295h20V255h50a10,10,0,0,1,10,10v30h20V265a29.862,29.862,0,0,0-7.65-20A29.862,29.862,0,0,0,440,225Zm-80,10V215h50a10,10,0,0,1,0,20Z"/><polygon class="cls-1" points="732.83 241.46 730 245 730.05 245 730.05 295 710.05 295 710.05 245 707.22 241.46 670.05 195 695.66 195 720.02 225.45 744.38 195 770 195 732.83 241.46"/><path class="cls-1" d="M330,195v50a50,50,0,0,1-100,0V195h20v50a30,30,0,0,0,60,0V195Z"/><polygon class="cls-1" points="550 195 510.78 293.07 510.01 295 490.01 295 489.24 293.07 450.02 195 471.56 195 500.01 266.14 528.47 195 550 195"/><path class="cls-2" d="M378.28,135h20.71a50,50,0,1,1,0-20H378.28a30,30,0,1,0,0,20Z"/><polygon class="cls-2" points="510 174.99 510 175 480.13 175 439.51 138.43 430 147 430 175 410 175 410 75 430 75 430 120.09 439.51 111.52 480.07 75 509.97 75 454.46 124.98 510 174.99"/><path class="cls-2" d="M740.77,76.95,739.99,75H720.01l-.78,1.94L680,175h21.55l11.2-28h34.5l11.2,28H780ZM720.75,127,730,103.87,739.25,127Z"/><polygon class="cls-2" points="270 95 270 155 300 155 300 175 220 175 220 155 250 155 250 95 220 95 220 75 300 75 300 95 270 95"/><path class="cls-2" d="M860,75H790V175h20V135h50a30,30,0,0,0,0-60Zm0,40H810V95h50a10,10,0,0,1,0,20Z"/><path class="cls-2" d="M100,125a50.019,50.019,0,1,0-22.44,41.71L85.85,175H90v-.08l.07.08H100V160.85l-8.29-8.29A49.7,49.7,0,0,0,100,125ZM77.07,137.93A30,30,0,1,1,80,125,30.037,30.037,0,0,1,77.07,137.93Z"/><polygon class="cls-2" points="700 75 700 95 660 95 660 175 640 175 640 95 600 95 600 75 700 75"/><path class="cls-2" d="M210,75v50a50,50,0,0,1-100,0V75h20v50a30,30,0,0,0,60,0V75Z"/><rect class="cls-2" x="520" y="115" width="70" height="20"/><path class="cls-2" d="M990,0a50,50,0,1,0,50,50A50.005,50.005,0,0,0,990,0Zm0,80a30,30,0,1,1,30-30A30,30,0,0,1,990,80Z"/><path class="cls-1" d="M970,190V330h-6.67Q946.665,305,930,280V230Z"/><path class="cls-1" d="M1010,70H970a20,20,0,0,1,40,0Z"/><path class="cls-1" d="M1130,220v60q-19.995,45-40,90H990q-13.335-20-26.67-40H970V70h40V179.91c.774-.656,10.939-8.965,23.9-5.192a25.913,25.913,0,0,1,17.919,19.221c1.081-.746,11.549-7.7,24.166-3.333,13.218,4.577,16.925,17.476,17.214,18.554h0c.517-.507,9.04-8.575,20.561-5.794A22.116,22.116,0,0,1,1130,220Z"/><path class="cls-1" d="M1093.2,209.16a9.577,9.577,0,0,1-.21,1.04l-.44-.11C1092.76,209.77,1092.97,209.46,1093.2,209.16Z"/><path class="cls-1" d="M1093.2,209.16a9.577,9.577,0,0,1-.21,1.04l-.44-.11C1092.76,209.77,1092.97,209.46,1093.2,209.16Z"/><path class="cls-1" d="M1093.2,209.16a9.577,9.577,0,0,1-.21,1.04l-.44-.11C1092.76,209.77,1092.97,209.46,1093.2,209.16Z"/></g></g></g></svg>