<svg xmlns="http://www.w3.org/2000/svg" viewBox="0 0 1193.671 206.296"><defs><style>.cls-1{fill:#121221;}.cls-2,.cls-3{fill:#366ce1;}.cls-3{opacity:0.62;}</style></defs><title>quiny data</title><g id="Слой_2" data-name="Слой 2"><g id="Work_space" data-name="Work space"><g id="quiny_data" data-name="quiny data"><polygon class="cls-1" points="410 53.148 410 153.148 390 153.148 330 83.738 330 153.148 310 153.148 310 53.148 330 53.148 390 122.558 390 53.148 410 53.148"/><polygon class="cls-1" points="482.83 99.608 480 103.148 480.05 103.148 480.05 153.148 460.05 153.148 460.05 103.148 457.22 99.608 420.05 53.148 445.66 53.148 470.02 83.598 494.38 53.148 520 53.148 482.83 99.608"/><polygon class="cls-1" points="270 73.148 270 133.148 300 133.148 300 153.148 220 153.148 220 133.148 250 133.148 250 73.148 220 73.148 220 53.148 300 53.148 300 73.148 270 73.148"/><path class="cls-1" d="M100,103.148a50.02,50.02,0,1,0-20,39.99v10.01h20v-20H89.99A49.726,49.726,0,0,0,100,103.148Zm-50,30a30,30,0,1,1,30-30A30,30,0,0,1,50,133.148Z"/><path class="cls-2" d="M630,53.148H580v100h50a50,50,0,0,0,0-100Zm0,80H600v-60h30a30,30,0,0,1,0,60Z"/><path class="cls-2" d="M920.77,55.1l-.78-1.95H900.01l-.78,1.94L860,153.148h21.55l11.2-28h34.5l11.2,28H960Zm-20.02,50.05L910,82.018l9.25,23.13Z"/><path class="cls-2" d="M740.77,55.1l-.78-1.95H720.01l-.78,1.94L680,153.148h21.55l11.2-28h34.5l11.2,28H780Zm-20.02,50.05L730,82.018l9.25,23.13Z"/><polygon class="cls-2" points="870 53.148 870 73.148 830 73.148 830 153.148 810 153.148 810 73.148 770 73.148 770 53.148 870 53.148"/><path class="cls-1" d="M210,53.148v50a50,50,0,0,1-100,0v-50h20v50a30,30,0,1,0,60,0v-50Z"/><path class="cls-3" d="M987.962,65.71c16.439-39.461,76.746-42.978,93.3-43.943,12.264-.716,87.064-5.079,107.493,39.887,17.992,39.6-15.869,96.171-60.845,115.606-36.722,15.867-70.841,2.654-75.719.676C1007.043,159.622,971.613,104.956,987.962,65.71Z"/><path class="cls-3" d="M1024.036,192.547c-32.45-27.829-17.159-86.271-12.963-102.309,3.109-11.885,22.075-84.373,71.152-89.906,43.225-4.874,86.56,44.81,91.145,93.591,3.744,39.828-19.366,68.193-22.755,72.221C1119.248,203.419,1056.309,220.223,1024.036,192.547Z"/><path class="cls-3" d="M1157.393,188.069c-37.052,22.6-88.687-10.5-102.857-19.582-10.5-6.731-74.544-47.786-64.489-96.912,8.855-43.267,70.427-69.523,118.968-58.646,39.632,8.881,59.771,40.1,62.6,44.631C1197.764,99.543,1194.243,165.589,1157.393,188.069Z"/><path class="cls-3" d="M1153.542,192.547c32.45-27.829,17.159-86.271,12.963-102.309C1163.4,78.353,1144.43,5.865,1095.352.332c-43.224-4.874-86.56,44.81-91.145,93.591-3.743,39.828,19.366,68.193,22.755,72.221C1058.33,203.419,1121.269,220.223,1153.542,192.547Z"/><path class="cls-3" d="M1020.184,188.069c37.052,22.6,88.687-10.5,102.857-19.582,10.5-6.731,74.544-47.786,64.49-96.912-8.855-43.267-70.427-69.523-118.968-58.646-39.633,8.881-59.772,40.1-62.6,44.631C979.814,99.543,983.334,165.589,1020.184,188.069Z"/></g></g></g></svg>