<svg xmlns="http://www.w3.org/2000/svg" viewBox="0 0 369.725 100"><defs><style>.cls-1{fill:#121221;}.cls-2{fill:#366ce1;}</style></defs><title>quora</title><g id="Слой_2" data-name="Слой 2"><g id="Work_space" data-name="Work space"><g id="quora"><path class="cls-1" d="M303.284,57.719A18.119,18.119,0,0,0,285.163,39.6h-42.28V100h12.08V75.84h30.2a6.042,6.042,0,0,1,6.041,6.04V100h12.08V81.88A18.041,18.041,0,0,0,298.663,69.8,18.036,18.036,0,0,0,303.284,57.719Zm-48.321,6.04V51.679h30.2a6.04,6.04,0,1,1,0,12.08Z"/><path class="cls-1" d="M206.642,39.6a30.2,30.2,0,1,0,30.2,30.2A30.2,30.2,0,0,0,206.642,39.6Zm0,48.321A18.121,18.121,0,1,1,224.762,69.8,18.119,18.119,0,0,1,206.642,87.92Z"/><path class="cls-1" d="M346.03,40.777l-.471-1.178H333.49l-.471,1.172L309.324,100H322.34l6.765-16.912h20.839L356.709,100h13.016Zm-12.093,30.23,5.588-13.97,5.587,13.97Z"/><path class="cls-2" d="M100,50A50.019,50.019,0,1,0,77.56,91.71L85.85,100H90v-.08l.07.08H100V85.85l-8.29-8.29A49.7,49.7,0,0,0,100,50ZM77.07,62.93A30,30,0,1,1,80,50,30.037,30.037,0,0,1,77.07,62.93Z"/><path class="cls-1" d="M170.4,39.6V69.8a30.2,30.2,0,1,1-60.4,0V39.6h12.08V69.8a18.121,18.121,0,1,0,36.241,0V39.6Z"/></g></g></g></svg>