<svg id="Main" xmlns="http://www.w3.org/2000/svg" viewBox="0 0 900 310"><defs><style>.cls-1{fill:#366ce1;}.cls-2{fill:#121221;}</style></defs><title>rage_booter</title><g id="RageBooter"><rect class="cls-1" x="360" width="20" height="100"/><rect class="cls-1" x="380" width="40" height="20"/><rect class="cls-1" x="560" width="20" height="100"/><rect class="cls-1" x="580" width="60" height="20"/><rect class="cls-1" x="580" y="40" width="40" height="20"/><rect class="cls-1" x="580" y="80" width="60" height="20"/><rect class="cls-1" x="460" width="20" height="100"/><rect class="cls-1" x="480" width="60" height="20"/><rect class="cls-1" x="480" y="80" width="60" height="20"/><rect class="cls-1" x="380" y="60" width="40" height="20"/><rect class="cls-1" x="420" width="20" height="100"/><rect class="cls-1" x="500" y="40" width="20" height="20"/><rect class="cls-1" x="520" y="40" width="20" height="40"/><rect class="cls-1" x="260" width="20" height="100"/><rect class="cls-1" x="280" width="60" height="20"/><rect class="cls-1" x="320" y="20" width="20" height="20"/><rect class="cls-1" x="280" y="40" width="40" height="20"/><rect class="cls-1" x="360" y="415" width="40" height="20" transform="translate(755 -300) rotate(90)"/><rect class="cls-2" y="110" width="40" height="200"/><rect class="cls-2" x="160" y="130" width="40" height="160"/><rect class="cls-2" x="260" y="150" width="40" height="140"/><rect class="cls-2" x="40" y="110" width="60" height="20"/><rect class="cls-2" x="40" y="290" width="80" height="20"/><rect class="cls-2" x="200" y="290" width="60" height="20"/><rect class="cls-2" x="320" y="150" width="40" height="140"/><rect class="cls-2" x="420" y="130" width="40" height="160"/><rect class="cls-2" x="360" y="290" width="60" height="20"/><rect class="cls-2" x="400" y="110" width="60" height="20"/><rect class="cls-2" x="530" y="130" width="40" height="180"/><rect class="cls-2" x="480" y="110" width="140" height="20"/><rect class="cls-2" x="40" y="200" width="80" height="20"/><rect class="cls-2" x="640" y="110" width="40" height="200"/><rect class="cls-2" x="680" y="110" width="80" height="20"/><rect class="cls-2" x="680" y="290" width="80" height="20"/><rect class="cls-2" x="680" y="200" width="80" height="20"/><rect class="cls-2" x="780" y="110" width="40" height="200"/><rect class="cls-2" x="820" y="110" width="60" height="20"/><rect class="cls-2" x="900" y="485" width="80" height="20" transform="translate(1385 -790) rotate(90)"/><rect class="cls-2" x="890" y="595" width="100" height="20" transform="translate(1495 -680) rotate(90)"/><rect class="cls-2" x="820" y="190" width="60" height="20"/><rect class="cls-2" x="120" y="220" width="20" height="70"/><rect class="cls-2" x="100" y="130" width="20" height="70"/><rect class="cls-2" x="360" y="130" width="40" height="20"/><rect class="cls-2" x="210" y="455" width="60" height="20" transform="translate(430 585) rotate(180)"/><rect class="cls-2" x="270" y="475" width="40" height="20" transform="translate(530 625) rotate(180)"/><rect class="cls-1" x="360" y="210" width="10" height="10"/><rect class="cls-1" x="360" y="220" width="10" height="10"/><rect class="cls-1" x="380" y="230" width="10" height="10"/><rect class="cls-1" x="410" y="210" width="10" height="10"/><rect class="cls-1" x="410" y="220" width="10" height="10"/><rect class="cls-1" x="410" y="200" width="10" height="10"/><rect class="cls-1" x="410" y="190" width="10" height="10"/><rect class="cls-2" x="380" y="210" width="10" height="10"/><rect class="cls-2" x="380" y="200" width="10" height="10"/><rect class="cls-2" x="390" y="210" width="10" height="10"/><rect class="cls-2" x="380" y="220" width="10" height="10"/><rect class="cls-2" x="370" y="220" width="10" height="10"/><rect class="cls-2" x="390" y="220" width="10" height="10"/><rect class="cls-2" x="400" y="220" width="10" height="10"/><rect class="cls-2" x="390" y="200" width="10" height="10"/><rect class="cls-2" x="400" y="210" width="10" height="10"/><rect class="cls-2" x="400" y="200" width="10" height="10"/><rect class="cls-2" x="400" y="190" width="10" height="10"/><rect class="cls-2" x="370" y="210" width="10" height="10"/><rect class="cls-2" x="370" y="200" width="10" height="10"/><rect class="cls-2" x="380" y="190" width="10" height="10"/><rect class="cls-2" x="370" y="190" width="10" height="10"/><rect class="cls-2" x="390" y="190" width="10" height="10"/><rect class="cls-1" x="390" y="230" width="10" height="10"/><rect class="cls-1" x="440" y="525" width="10" height="10" transform="translate(840 715) rotate(180)"/><rect class="cls-1" x="450" y="525" width="10" height="10" transform="translate(860 715) rotate(180)"/><rect class="cls-1" x="410" y="545" width="10" height="10" transform="translate(780 755) rotate(180)"/><rect class="cls-1" x="410" y="535" width="10" height="10" transform="translate(780 735) rotate(180)"/><rect class="cls-1" x="430" y="525" width="10" height="10" transform="translate(820 715) rotate(180)"/><rect class="cls-1" x="420" y="525" width="10" height="10" transform="translate(800 715) rotate(180)"/><rect class="cls-1" x="450" y="575" width="10" height="10" transform="translate(860 815) rotate(180)"/><rect class="cls-1" x="420" y="575" width="10" height="10" transform="translate(800 815) rotate(180)"/><rect class="cls-1" x="200" y="210" width="10" height="10"/><rect class="cls-1" x="200" y="220" width="10" height="10"/><rect class="cls-1" x="220" y="230" width="10" height="10"/><rect class="cls-1" x="250" y="210" width="10" height="10"/><rect class="cls-1" x="250" y="220" width="10" height="10"/><rect class="cls-1" x="250" y="200" width="10" height="10"/><rect class="cls-1" x="250" y="190" width="10" height="10"/><rect class="cls-2" x="220" y="210" width="10" height="10"/><rect class="cls-2" x="220" y="200" width="10" height="10"/><rect class="cls-2" x="230" y="210" width="10" height="10"/><rect class="cls-2" x="220" y="220" width="10" height="10"/><rect class="cls-2" x="210" y="220" width="10" height="10"/><rect class="cls-2" x="230" y="220" width="10" height="10"/><rect class="cls-2" x="240" y="220" width="10" height="10"/><rect class="cls-2" x="230" y="200" width="10" height="10"/><rect class="cls-2" x="240" y="210" width="10" height="10"/><rect class="cls-2" x="240" y="200" width="10" height="10"/><rect class="cls-2" x="240" y="190" width="10" height="10"/><rect class="cls-2" x="210" y="210" width="10" height="10"/><rect class="cls-2" x="210" y="200" width="10" height="10"/><rect class="cls-2" x="220" y="190" width="10" height="10"/><rect class="cls-2" x="210" y="190" width="10" height="10"/><rect class="cls-2" x="230" y="190" width="10" height="10"/><rect class="cls-1" x="230" y="230" width="10" height="10"/><rect class="cls-1" x="280" y="525" width="10" height="10" transform="translate(520 715) rotate(180)"/><rect class="cls-1" x="290" y="525" width="10" height="10" transform="translate(540 715) rotate(180)"/><rect class="cls-1" x="250" y="545" width="10" height="10" transform="translate(460 755) rotate(180)"/><rect class="cls-1" x="250" y="535" width="10" height="10" transform="translate(460 735) rotate(180)"/><rect class="cls-1" x="270" y="525" width="10" height="10" transform="translate(500 715) rotate(180)"/><rect class="cls-1" x="260" y="525" width="10" height="10" transform="translate(480 715) rotate(180)"/><rect class="cls-1" x="290" y="575" width="10" height="10" transform="translate(540 815) rotate(180)"/><rect class="cls-1" x="260" y="575" width="10" height="10" transform="translate(480 815) rotate(180)"/></g></svg>