<svg xmlns="http://www.w3.org/2000/svg" viewBox="0 0 650 100"><defs><style>.cls-1{fill:#366ce1;}</style></defs><title>rakket</title><g id="Слой_2" data-name="Слой 2"><g id="Work_space" data-name="Work space"><g id="rakket"><polygon class="cls-1" points="450 10 450 45 540 45 540 55 450 55 450 90 540 90 540 100 440 100 440 0 540 0 540 10 450 10"/><path class="cls-1" d="M189.72,55l-4.51-10L165.5,1.27l.01-.01L165.02.18h-.01L164.93,0h-9.84l-.08.18V.2l-.47,1.05h-.01L134.81,45,130.3,55l-20.28,45h10.97l20.28-45h37.48l20.28,45H210Zm-19.71-2.96-.02-.04h.02ZM145.78,45l14.23-31.58L174.25,45Z"/><path class="cls-1" d="M86.57,55A29.994,29.994,0,0,0,70,0H0V100H10V60H70A19.994,19.994,0,0,1,90,80v20h10V80A29.923,29.923,0,0,0,86.57,55ZM60,52.04,59.98,52H60ZM70,50H10V10H70a20,20,0,0,1,0,40Z"/><polygon class="cls-1" points="650 0 650 10 605 10 605 100 595 100 595 10 550 10 550 0 650 0"/><polygon class="cls-1" points="320 100 305.85 100 262.91 57.05 230 89.97 230 100 220 100 220 0 230 0 230 75.83 255.84 49.98 262.91 42.91 305.82 0 319.96 0 269.98 49.98 320 100"/><polygon class="cls-1" points="430 100 415.85 100 372.91 57.05 340 89.97 340 100 330 100 330 0 340 0 340 75.83 365.84 49.98 372.91 42.91 415.82 0 429.96 0 379.98 49.98 430 100"/></g></g></g></svg>