<svg xmlns="http://www.w3.org/2000/svg" viewBox="0 0 509.98 316.471"><defs><style>.cls-1{fill:#121221;}.cls-2{fill:#366ce1;}</style></defs><title>raven tools</title><g id="Слой_2" data-name="Слой 2"><g id="Work_space" data-name="Work space"><g id="raven_tools" data-name="raven tools"><path class="cls-1" d="M420.887,26.051h-.01a49.8,49.8,0,0,0-29.97,9.97c0,.01-.01.01-.02.01a50.3,50.3,0,0,0-9.98,10l-.02.02h-.01a49.853,49.853,0,0,1-39.97-20,49.966,49.966,0,0,1,79.98,0Z"/><path class="cls-1" d="M359.323,10.934a56.187,56.187,0,0,0-22.365-9.4,72.67,72.67,0,0,0-40.564,3.3A49.211,49.211,0,0,1,312.62,3.811a51.129,51.129,0,0,0-24.338,9.127c-19.242,13.8-21.328,36.592-21.606,40.277a76.882,76.882,0,0,1,12.986-17.46,64.513,64.513,0,0,0-8.113,21.8,66.863,66.863,0,0,0,5.493,39.465l149.409,1.014c-6.477-17.631-15.255-25.2-22.31-28.817-8.888-4.555-19.369-5.049-22.817-13.183-1.461-3.446-.334-5.138-.447-9.986C380.427,26.625,361.383,12.428,359.323,10.934Z"/><polygon class="cls-1" points="509.98 97.037 509.98 197.037 489.98 197.037 429.98 127.627 429.98 197.037 409.98 197.037 409.98 97.037 429.98 97.037 489.98 166.447 489.98 97.037 509.98 97.037"/><path class="cls-2" d="M433,249.115a9.626,9.626,0,0,0,9.622,9.622h38.489a28.867,28.867,0,1,1,0,57.734H413.757V297.226h67.356a9.622,9.622,0,1,0,0-19.244H442.624a28.867,28.867,0,0,1,0-57.734H509.98v19.245H442.624A9.625,9.625,0,0,0,433,249.115Z"/><polygon class="cls-1" points="319.98 117.037 319.98 137.037 399.98 137.037 399.98 157.037 319.98 157.037 319.98 177.037 399.98 177.037 399.98 197.037 299.98 197.037 299.98 97.037 399.98 97.037 399.98 117.037 319.98 117.037"/><polygon class="cls-2" points="404.135 297.226 404.135 316.471 307.912 316.471 307.912 220.248 327.157 220.248 327.157 297.226 404.135 297.226"/><path class="cls-1" d="M100,127.037a30,30,0,0,0-30-30H0v100H20v-40H70a10,10,0,0,1,10,10v30h20v-30a29.862,29.862,0,0,0-7.65-20A29.862,29.862,0,0,0,100,127.037Zm-80,10v-20H70a10,10,0,0,1,0,20Z"/><path class="cls-2" d="M144.334,220.248a48.112,48.112,0,1,0,48.111,48.111A48.116,48.116,0,0,0,144.334,220.248Zm0,76.978A28.867,28.867,0,1,1,173.2,268.359,28.865,28.865,0,0,1,144.334,297.226Z"/><path class="cls-2" d="M250.179,220.248a48.112,48.112,0,1,0,48.111,48.111A48.116,48.116,0,0,0,250.179,220.248Zm0,76.978a28.867,28.867,0,1,1,28.867-28.867A28.865,28.865,0,0,1,250.179,297.226Z"/><path class="cls-1" d="M170.77,98.987l-.78-1.95H150.01l-.78,1.94L110,197.037h21.55l11.2-28h34.5l11.2,28H210Zm-20.02,50.05,9.25-23.13,9.25,23.13Z"/><polygon class="cls-2" points="96.223 220.248 96.223 239.493 57.734 239.493 57.734 316.471 38.489 316.471 38.489 239.493 0 239.493 0 220.248 96.223 220.248"/><polygon class="cls-1" points="289.98 97.037 250.76 195.107 249.99 197.037 229.99 197.037 229.22 195.107 190 97.037 211.54 97.037 239.99 168.177 268.45 97.037 289.98 97.037"/></g></g></g></svg>