<svg id="Слой_1" data-name="Слой 1" xmlns="http://www.w3.org/2000/svg" viewBox="0 0 671.17 656.411"><defs><style>.cls-1{fill:none;stroke:#366ce1;stroke-miterlimit:10;stroke-width:10px;}.cls-2{fill:#121221;}.cls-3{fill:#366ce1;}</style></defs><title>react</title><ellipse class="cls-1" cx="335.585" cy="216.79" rx="211.79" ry="50"/><ellipse class="cls-1" cx="335.585" cy="216.79" rx="50" ry="211.79"/><ellipse class="cls-1" cx="500" cy="386.085" rx="50" ry="211.79" transform="translate(-290.971 297.34) rotate(-45)"/><ellipse class="cls-1" cx="500" cy="386.085" rx="211.79" ry="50" transform="translate(-290.971 297.34) rotate(-45)"/><circle class="cls-2" cx="335.585" cy="216.79" r="50"/><path class="cls-3" d="M429.175,779.506a35.986,35.986,0,0,1-6.1,5.51,24.717,24.717,0,0,1-14.32,4.81c-19.82,0-35.88-25.99-35.88-58.06a92.556,92.556,0,0,1,.65-11.05c28.18,16.99,53.66,24.98,70.55,21.33a25.42,25.42,0,0,0,12.98-6.73c12.26-12.26,9.2-37.34-5.59-67.18-10.61-18.64-25.82-30.31-42.71-30.31-26.75,0-49.26,29.25-56,69.06a149.515,149.515,0,0,0-2.06,24.88c0,51.88,25.99,93.94,58.06,93.94,19.59,0,36.91-15.69,47.42-39.73.89-2.04,1.74-4.13,2.53-6.29,1.24-4.35.99-7.86-1.04-9.89C453.145,765.276,441.225,769.586,429.175,779.506Zm-20.42-105.8c12.59,0,23.67,10.49,30.07,26.37a79.308,79.308,0,0,1,4.61,16.75c-6.26,3.62-20.18,3.16-35.16-1.72-13.7-4.46-24.5-11.4-28.48-17.62a54.547,54.547,0,0,1,7.3-12.02C393.115,678.086,400.615,673.706,408.755,673.706Z" transform="translate(-164.415 -169.294)"/><path class="cls-3" d="M341.285,611.256c2.51-26.68-19.95-60.26-57.18-81.76-29.92-17.27-61.82-22.39-84.54-15.68-1.47.43-2.9.92-4.29,1.45l-.01.01c-9.39,3.6-16.88,9.45-21.55,17.53-6.38,11.05-6.51,24.59-1.53,38.53-4.86,25.94-7.77,58.76-7.77,94.45,0,83.95,16.06,152,35.88,152,15.57,0,28.83-42.01,33.79-100.74,39.77,65,82.62,108.75,98.65,99.51,15.78-9.12.04-66.5-35.26-132.22C326.605,663.156,343.485,634.566,341.285,611.256Zm-87.08-50.36c10.4-5.2,20.83-6.03,29.03-1.3,5.32,3.08,9.08,8.13,11.25,14.48a42.766,42.766,0,0,1,2.14,11.3c9.7,6.41,15.64,15.03,15.64,24.5s-5.94,18.09-15.64,24.48a40.378,40.378,0,0,1-3.25,14.14,24.89,24.89,0,0,1-9.72,11.41c-.14.08-.28.17-.42.25-8.2,4.73-18.63,3.9-29.03-1.3-6.16,3.08-12.33,4.63-18.03,4.39a23.431,23.431,0,0,1-11-3.09c-8.21-4.74-12.7-14.19-13.4-25.8-8.03-5.3-13.48-12.12-15.11-19.68a22.62,22.62,0,0,1-.52-4.8,19.574,19.574,0,0,1,.14-2.43c.91-8.51,6.63-16.21,15.49-22.07a39.336,39.336,0,0,1,3.91-15.51,24.386,24.386,0,0,1,9.49-10.27c.24-.14.47-.27.71-.39C233.975,554.916,244.105,555.846,254.205,560.9Z" transform="translate(-164.415 -169.294)"/><path class="cls-3" d="M199.565,513.816c-1.47.43-2.9.92-4.29,1.45A9.957,9.957,0,0,1,199.565,513.816Z" transform="translate(-164.415 -169.294)"/><path class="cls-3" d="M423.075,785.016c2.01-1.99,4.06-3.83,6.1-5.51A35.986,35.986,0,0,1,423.075,785.016Z" transform="translate(-164.415 -169.294)"/><path class="cls-3" d="M458.705,779.686a35.318,35.318,0,0,1-2.53,6.29C457.065,783.936,457.915,781.846,458.705,779.686Z" transform="translate(-164.415 -169.294)"/><path class="cls-3" d="M586.565,756.856a9.012,9.012,0,0,0-.73-.77c-.78-.56-1.55-1.12-2.32-1.66a8.535,8.535,0,0,1,2.32,1.66c.26.18.51.37.77.56a149.515,149.515,0,0,0,2.06-24.88c0-51.88-25.99-93.94-58.06-93.94-19.59,0-36.91,15.69-47.42,39.73-.89,2.04-1.74,4.13-2.53,6.29-1.24,4.35-.99,7.86,1.04,9.89,4.52,4.52,16.44.21,28.49-9.71a35.986,35.986,0,0,1,6.1-5.51,24.717,24.717,0,0,1,14.32-4.81c19.82,0,35.88,25.99,35.88,58.06a92.556,92.556,0,0,1-.65,11.05c-28.18-16.98-53.66-24.98-70.55-21.33a25.452,25.452,0,0,0-12.99,6.73c-12.27,12.27-9.19,37.38,5.64,67.24a.037.037,0,0,0,.01.03c10.61,18.59,25.79,30.22,42.66,30.22,14.41,0,27.6-8.5,37.75-22.57,2.03,13.19,6.96,22.49,12.72,22.49,7.57,0,13.7-16.07,13.7-35.89C594.775,775.026,591.405,762.4,586.565,756.856Zm-55.96,32.97c-12.59,0-23.67-10.49-30.07-26.37a79.308,79.308,0,0,1-4.61-16.75c6.26-3.62,20.18-3.16,35.15,1.72,13.7,4.46,24.51,11.4,28.49,17.62a54.547,54.547,0,0,1-7.3,12.02C546.245,785.446,538.745,789.826,530.605,789.826Z" transform="translate(-164.415 -169.294)"/><path class="cls-3" d="M480.655,683.846a35.318,35.318,0,0,1,2.53-6.29C482.3,679.6,481.445,681.686,480.655,683.846Z" transform="translate(-164.415 -169.294)"/><path class="cls-3" d="M516.285,678.516c-2.01,1.99-4.06,3.83-6.1,5.51A35.986,35.986,0,0,1,516.285,678.516Z" transform="translate(-164.415 -169.294)"/><path class="cls-3" d="M585.835,756.086c-.78-.56-1.55-1.12-2.32-1.66A8.535,8.535,0,0,1,585.835,756.086Z" transform="translate(-164.415 -169.294)"/><path class="cls-3" d="M604.8,731.766c0-51.88,25.99-93.94,58.06-93.94,19,0,35.86,14.76,46.45,37.57a111.579,111.579,0,0,1,4.21,10.449c.67,3.481.23,6.281-1.5,8.011-4.59,4.59-16.8.07-29.02-10.15a35.6,35.6,0,0,0-5.36-4.861.009.009,0,0,1-.01-.009,24.852,24.852,0,0,0-14.77-5.13c-19.82,0-35.88,25.99-35.88,58.06s16.06,58.06,35.88,58.06a24.634,24.634,0,0,0,14.28-4.78,36.034,36.034,0,0,0,6.18-5.581c12.04-9.889,23.93-14.19,28.45-9.669,2.03,2.03,2.28,5.549,1.03,9.91q-1.185,3.225-2.52,6.27c-10.51,24.04-27.83,39.73-47.42,39.73C630.795,825.706,604.8,783.646,604.8,731.766Z" transform="translate(-164.415 -169.294)"/><path class="cls-3" d="M746.805,663.086a221.022,221.022,0,0,0-4.64,46.25c0,51.89,16.06,93.94,35.88,93.94,6.69,0,12.96-4.79,18.31-13.14.88-1.36,1.72-2.81,2.54-4.35a.138.138,0,0,1,.03-.04c5.9-9.13,13.17-14.62,16.89-12.47,3.57,2.06,2.69,10.44-1.75,19.66-.05.12-.11.23-.17.35-9.87,20.31-22.32,32.42-35.85,32.42-32.07,0-58.06-68.05-58.06-152,0-6.89.18-13.68.52-20.33.06-1.35.14-2.7.23-4.04,4.45-72.36,28.41-127.63,57.31-127.63,7.57,0,13.71,26,13.71,58.06,0,15.2-1.38,29.03-3.64,39.38a15.4,15.4,0,0,0-20.14,0c-5.15,3.93-9.82,10.81-13.72,19.88a236.418,236.418,0,0,1,47.58,0c17.49,1.86,30.38,5.7,33.52,10.31.09,1.34.17,2.69.23,4.04-2.31,4.08-12.24,7.59-26.3,9.71a228.037,228.037,0,0,1-62.48,0Z" transform="translate(-164.415 -169.294)"/><path class="cls-3" d="M798.9,785.786c-.82,1.54-1.66,2.99-2.54,4.35.33-.63.68-1.26,1.04-1.89Q798.13,786.971,798.9,785.786Z" transform="translate(-164.415 -169.294)"/></svg>