<svg xmlns="http://www.w3.org/2000/svg" viewBox="0 0 500 100"><defs><style>.cls-1{fill:#121221;}</style></defs><title>reali</title><g id="Слой_2" data-name="Слой 2"><g id="Work_space" data-name="Work space"><g id="reali"><polygon class="cls-1" points="480 20 480 80 500 80 500 100 440 100 440 80 460 80 460 20 440 20 440 0 500 0 500 20 480 20"/><polygon class="cls-1" points="130 20 130 40 210 40 210 60 130 60 130 80 210 80 210 100 110 100 110 0 210 0 210 20 130 20"/><polygon class="cls-1" points="430 80 430 100 330 100 330 0 350 0 350 80 430 80"/><path class="cls-1" d="M100,30A30,30,0,0,0,70,0H0V100H20V60H70A10,10,0,0,1,80,70v30h20V70a29.862,29.862,0,0,0-7.65-20A29.862,29.862,0,0,0,100,30ZM20,40V20H70a10,10,0,0,1,0,20Z"/><path class="cls-1" d="M280.77,1.95,279.99,0H260.01l-.78,1.94L220,100h21.55l11.2-28h34.5l11.2,28H320ZM260.75,52,270,28.87,279.25,52Z"/></g></g></g></svg>