<svg xmlns="http://www.w3.org/2000/svg" viewBox="0 0 1050 690"><defs><style>.cls-1{fill:#121221;}.cls-2{fill:#366ce1;}</style></defs><title>Recievable Automation services</title><g id="Слой_2" data-name="Слой 2"><g id="Complete"><g id="Recievable_Automation_services" data-name="Recievable Automation services"><path class="cls-1" d="M299.29,420H320a50,50,0,1,1,0-20H299.29a30,30,0,1,0,0,20Z"/><polygon class="cls-1" points="1040 480 1040 580 1020 580 960 510.59 960 580 940 580 940 480 960 480 1020 549.41 1020 480 1040 480"/><polygon class="cls-1" points="530 480 530 580 510 580 510 510.59 493.2 530.05 479.99 545.36 466.78 530.05 450 510.62 450 580 430 580 430 480 450 480 450 480.01 479.99 514.75 509.98 480 530 480"/><polygon class="cls-1" points="450 380 450 400 530 400 530 420 450 420 450 440 530 440 530 460 430 460 430 360 530 360 530 380 450 380"/><polygon class="cls-1" points="970 380 970 400 1050 400 1050 420 970 420 970 440 1050 440 1050 460 950 460 950 360 1050 360 1050 380 970 380"/><polygon class="cls-1" points="130 380 130 400 210 400 210 420 130 420 130 440 210 440 210 460 110 460 110 360 210 360 210 380 130 380"/><path class="cls-1" d="M210,480v50a50,50,0,0,1-100,0V480h20v50a30,30,0,0,0,60,0V480Z"/><polygon class="cls-1" points="940 440 940 460 840 460 840 360 860 360 860 440 940 440"/><polygon class="cls-1" points="640 360 600.78 458.07 600.01 460 580.01 460 579.24 458.07 540.02 360 561.56 360 590.01 431.14 618.47 360 640 360"/><path class="cls-1" d="M100,390a30,30,0,0,0-30-30H0V460H20V420H70a10,10,0,0,1,10,10v30h20V430a29.862,29.862,0,0,0-7.65-20A29.862,29.862,0,0,0,100,390ZM20,400V380H70a10,10,0,0,1,0,20Z"/><path class="cls-1" d="M830,390a30,30,0,0,0-30-30H730V460h70a29.991,29.991,0,0,0,22.35-50A29.862,29.862,0,0,0,830,390Zm-80-10h50a10,10,0,0,1,0,20H750Zm50,60H750V420h50a10,10,0,0,1,0,20Z"/><path class="cls-1" d="M370,480a50,50,0,1,0,50,50A50.005,50.005,0,0,0,370,480Zm0,80a30,30,0,1,1,30-30A30,30,0,0,1,370,560Z"/><path class="cls-1" d="M880,480a50,50,0,1,0,50,50A50.005,50.005,0,0,0,880,480Zm0,80a30,30,0,1,1,30-30A30,30,0,0,1,880,560Z"/><path class="cls-1" d="M600.77,481.95l-.78-1.95H580.01l-.78,1.94L540,580h21.55l11.2-28h34.5l11.2,28H640ZM580.75,532,590,508.87,599.25,532Z"/><path class="cls-1" d="M680.77,361.95l-.78-1.95H660.01l-.78,1.94L620,460h21.55l11.2-28h34.5l11.2,28H720ZM660.75,412,670,388.87,679.25,412Z"/><path class="cls-1" d="M60.77,481.95,59.99,480H40.01l-.78,1.94L0,580H21.55l11.2-28h34.5l11.2,28H100ZM40.75,532,50,508.87,59.25,532Z"/><polygon class="cls-1" points="380 380 380 440 420 440 420 460 320 460 320 440 360 440 360 380 320 380 320 360 420 360 420 380 380 380"/><polygon class="cls-1" points="790 500 790 560 830 560 830 580 730 580 730 560 770 560 770 500 730 500 730 480 830 480 830 500 790 500"/><polygon class="cls-1" points="320 480 320 500 280 500 280 580 260 580 260 500 220 500 220 480 320 480"/><polygon class="cls-1" points="720 480 720 500 680 500 680 580 660 580 660 500 620 500 620 480 720 480"/><path class="cls-2" d="M717.93,668.28l7.07,7.07a50,50,0,1,1,0-70.7l-7.07,7.07a40,40,0,1,0,0,56.56Z"/><polygon class="cls-2" points="225 600 225 635 315 635 315 645 225 645 225 680 315 680 315 690 215 690 215 590 315 590 315 600 225 600"/><polygon class="cls-2" points="745 600 745 635 835 635 835 645 745 645 745 680 835 680 835 690 735 690 735 590 835 590 835 600 745 600"/><path class="cls-2" d="M411.57,645A29.994,29.994,0,0,0,395,590H325V690h10V650h60a19.994,19.994,0,0,1,20,20v20h10V670A29.923,29.923,0,0,0,411.57,645ZM385,642.04l-.02-.04H385ZM395,640H335V600h60a20,20,0,0,1,0,40Z"/><path class="cls-2" d="M855,617.5A17.506,17.506,0,0,0,872.5,635h45a27.5,27.5,0,0,1,7.5,53.95,26.911,26.911,0,0,1-7.5,1.05H845V680h72.5a17.5,17.5,0,0,0,0-35h-45a27.5,27.5,0,0,1-7.5-53.95,26.911,26.911,0,0,1,7.5-1.05H945v10H872.5A17.506,17.506,0,0,0,855,617.5Z"/><path class="cls-2" d="M115,617.5A17.506,17.506,0,0,0,132.5,635h45a27.5,27.5,0,0,1,7.5,53.95,26.911,26.911,0,0,1-7.5,1.05H105V680h72.5a17.5,17.5,0,0,0,0-35h-45a27.5,27.5,0,0,1-7.5-53.95,26.911,26.911,0,0,1,7.5-1.05H205v10H132.5A17.506,17.506,0,0,0,115,617.5Z"/><polygon class="cls-2" points="600 600 600 680 645 680 645 690 545 690 545 680 590 680 590 600 545 600 545 590 645 590 645 600 600 600"/><polygon class="cls-2" points="534.99 590 490.47 688.78 489.93 690 480.05 690 479.51 688.8 435 590 445.97 590 484.99 676.62 524.02 590 534.99 590"/><path class="cls-1" d="M664.9,236.68l-20,34.64a30,30,0,0,1-40.98,10.98L575,265.6V299a30,30,0,0,1-30,30H505a30,30,0,0,1-30-30V265.6l-28.92,16.7a30,30,0,0,1-40.98-10.98l-20-34.64a30,30,0,0,1,10.98-40.98L425,179l-28.92-16.7a30,30,0,0,1-10.98-40.98l20-34.64A30,30,0,0,1,446.08,75.7L475,92.4v73.21L467.27,179l28.86,50h57.74l28.86-50L575,165.61V92.4l28.92-16.7A30,30,0,0,1,644.9,86.68l20,34.64a30,30,0,0,1-10.98,40.98L625,179l28.92,16.7A30,30,0,0,1,664.9,236.68Z"/><path class="cls-2" d="M575,30V136.61L553.87,100H496.13L475,136.61V30A30,30,0,0,1,505,0h40A30,30,0,0,1,575,30Z"/></g></g></g></svg>