<svg xmlns="http://www.w3.org/2000/svg" viewBox="0 0 1010.802 220.802"><defs><style>.cls-1{fill:#121221;}.cls-2{fill:#366ce1;opacity:0.38;}</style></defs><title>recooty</title><g id="Слой_2" data-name="Слой 2"><g id="Work_space" data-name="Work space"><g id="recooty"><polygon class="cls-1" points="130 80.401 130 100.401 210 100.401 210 120.401 130 120.401 130 140.401 210 140.401 210 160.401 110 160.401 110 60.401 210 60.401 210 80.401 130 80.401"/><path class="cls-1" d="M100,90.4a30,30,0,0,0-30-30H0v100H20v-40H70a10,10,0,0,1,10,10v30h20v-30a29.862,29.862,0,0,0-7.65-20A29.862,29.862,0,0,0,100,90.4Zm-80,10v-20H70a10,10,0,0,1,0,20Z"/><path class="cls-1" d="M380,60.4a50,50,0,1,0,50,50A50.005,50.005,0,0,0,380,60.4Zm0,80a30,30,0,1,1,30-30A30,30,0,0,1,380,140.4Z"/><path class="cls-1" d="M490,60.4a50,50,0,1,0,50,50A50.005,50.005,0,0,0,490,60.4Zm0,80a30,30,0,1,1,30-30A30,30,0,0,1,490,140.4Z"/><path class="cls-1" d="M299.29,120.4H320a50,50,0,1,1,0-20H299.29a30,30,0,1,0,0,20Z"/><polygon class="cls-1" points="640 60.401 640 80.401 600 80.401 600 160.401 580 160.401 580 80.401 540 80.401 540 60.401 640 60.401"/><polygon class="cls-1" points="712.83 106.861 710 110.401 710.05 110.401 710.05 160.401 690.05 160.401 690.05 110.401 687.22 106.861 650.05 60.401 675.66 60.401 700.02 90.851 724.38 60.401 750 60.401 712.83 106.861"/><path class="cls-1" d="M780.93,0H931.493A48.507,48.507,0,0,1,980,48.507V199.07a.93.93,0,0,1-.93.93H780.93a.93.93,0,0,1-.93-.93V.93a.93.93,0,0,1,.93-.93Z"/><path class="cls-1" d="M1000,220a15.887,15.887,0,0,1-20-10q-25-55-50-110a50.005,50.005,0,0,0,50-50l30,150A15.887,15.887,0,0,1,1000,220Z"/><path class="cls-2" d="M1000,220a15.887,15.887,0,0,1-20-10q-25-55-50-110a50.005,50.005,0,0,0,50-50l30,150A15.887,15.887,0,0,1,1000,220Z"/></g></g></g></svg>