<svg xmlns="http://www.w3.org/2000/svg" viewBox="0 0 640 100"><defs><style>.cls-1{fill:#121221;}</style></defs><title>recogni</title><g id="Слой_2" data-name="Слой 2"><g id="Work_space" data-name="Work space"><g id="recogni"><path class="cls-1" d="M340,0a50,50,0,1,0,50,50A50.005,50.005,0,0,0,340,0Zm0,90a40,40,0,1,1,40-40A40,40,0,0,1,340,90Z"/><path class="cls-1" d="M292.93,78.28,300,85.35a50,50,0,1,1,0-70.7l-7.07,7.07a40,40,0,1,0,0,56.56Z"/><polygon class="cls-1" points="120 10 120 45 210 45 210 55 120 55 120 90 210 90 210 100 110 100 110 0 210 0 210 10 120 10"/><path class="cls-1" d="M86.57,55A29.994,29.994,0,0,0,70,0H0V100H10V60H70A19.994,19.994,0,0,1,90,80v20h10V80A29.923,29.923,0,0,0,86.57,55ZM60,52.04,59.98,52H60ZM70,50H10V10H70a20,20,0,0,1,0,40Z"/><polygon class="cls-1" points="615 10 615 90 640 90 640 100 580 100 580 90 605 90 605 10 580 10 580 0 640 0 640 10 615 10"/><polygon class="cls-1" points="570 0 570 100 560.07 100 560 99.92 480 14.59 480 100 470 100 470 0 480.02 0 560 85.3 560 0 570 0"/><path class="cls-1" d="M460,50a48.521,48.521,0,0,1-.25,5,50.016,50.016,0,1,1-14.4-40.35l-7.07,7.07A39.992,39.992,0,1,0,449.69,55H410V45h49.75A48.521,48.521,0,0,1,460,50Z"/></g></g></g></svg>