<svg xmlns="http://www.w3.org/2000/svg" viewBox="0 0 769.693 210"><defs><style>.cls-1{fill:#366ce1;}.cls-2{fill:#121221;}</style></defs><title>redis labs</title><g id="Complete"><g id="redis_labs" data-name="redis labs"><path class="cls-1" d="M741.247,567.259c-2.138-11.67,35.227-17.367,52.186-52.186,12.447-25.556,7.908-54.5,0-78.279h39.139c-7.908,23.78-12.447,52.723,0,78.279,16.959,34.819,54.324,40.516,52.186,52.186C880.744,589.179,745.261,589.179,741.247,567.259Z" transform="translate(-115.154 -395)"/><path class="cls-1" d="M793.433,436.794h0s-13.771-8.684-13.047-13.046c1.449-8.721,62.637-11.069,65.233,0,1.033,4.4-7.335,10.412-13.047,13.046C816.013,444.432,793.432,436.794,793.433,436.794Z" transform="translate(-115.154 -395)"/><path class="cls-2" d="M826.123,419.246c5.5.4,9.847,2.894,10.294,5.65.531,3.269-4.188,8.386-12.486,9.3a139.259,139.259,0,0,0-5.526,31.684c-.8,14.081-2.5,44.043,14.553,67.584a115.428,115.428,0,0,0,23.374,24.256c7.007,5.006,10.51,5.954,10.363,8.158-.475,7.138-38.154,11.486-68.577,10.805a269.464,269.464,0,0,1-47.408-5.292,188.686,188.686,0,0,0,61.521,11.356c32.374.462,67.593-7.584,67.8-15.656.091-3.456-6.315-3.893-19.735-14.333a108.657,108.657,0,0,1-21.169-21.278,91.2,91.2,0,0,1-14.994-31.753c-3.7-15.578-1.893-28.475.662-46.747,1.051-7.521,2.309-13.65,3.224-17.709,8.928-1.07,14.247-6.629,13.768-10.047C841.319,421.845,834.815,418.034,826.123,419.246Z" transform="translate(-115.154 -395)"/><path class="cls-2" d="M215.154,425a30,30,0,0,0-30-30h-70V495h10V455h56l24,40h10l-24.33-40.55A29.983,29.983,0,0,0,215.154,425Zm-90,20V405h60a20,20,0,0,1,0,40Z" transform="translate(-115.154 -395)"/><polygon class="cls-2" points="120 10 120 45 210 45 210 55 120 55 120 90 210 90 210 100 110 100 110 0 210 0 210 10 120 10"/><path class="cls-2" d="M385.154,395h-50V495h50a50,50,0,0,0,0-100Zm0,90h-40V405h40a40,40,0,0,1,0,80Z" transform="translate(-115.154 -395)"/><rect class="cls-2" x="330" width="10" height="100"/><path class="cls-2" d="M565.154,467.5a27.5,27.5,0,0,1-27.5,27.5h-72.5V485h72.5a17.5,17.5,0,0,0,0-35h-45a27.5,27.5,0,0,1-.17-55h72.5v10h-72.5a17.5,17.5,0,0,0,.17,35h45A27.5,27.5,0,0,1,565.154,467.5Z" transform="translate(-115.154 -395)"/><polygon class="cls-2" points="230 190 230 210 130 210 130 110 150 110 150 190 230 190"/><path class="cls-2" d="M565.154,535a30,30,0,0,0-30-30h-70V605h70a29.991,29.991,0,0,0,22.35-50A29.862,29.862,0,0,0,565.154,535Zm-30,50h-50V565h50a10,10,0,0,1,0,20Zm0-40h-50V525h50a10,10,0,0,1,0,20Z" transform="translate(-115.154 -395)"/><path class="cls-2" d="M595.154,535a10,10,0,0,0,10,10h40a30,30,0,0,1,0,60h-70V585h70a10,10,0,0,0,0-20h-40a30,30,0,0,1,0-60h70v20h-70A10,10,0,0,0,595.154,535Z" transform="translate(-115.154 -395)"/><path class="cls-2" d="M405.154,505a50.005,50.005,0,0,0-50,50v50h20V575h60v30h20V555A50.005,50.005,0,0,0,405.154,505Zm-30,50a30,30,0,0,1,60,0Z" transform="translate(-115.154 -395)"/></g></g></svg>