<svg id="Main" xmlns="http://www.w3.org/2000/svg" viewBox="0 0 840 574.615"><defs><style>.cls-1{fill:#e1dfdf;}.cls-2{fill:#366ce1;}.cls-3{fill:#121221;}</style></defs><title>refog</title><g id="Refog"><path class="cls-1" d="M622.25,434.923a149.975,149.975,0,0,1-232.14,0A149.632,149.632,0,0,1,491.89,380.6q5.115-.495,10.34-.63c1.31-.031,2.63-.05,3.95-.05A149.64,149.64,0,0,1,622.25,434.923Z" transform="translate(-80 -212.692)"/><path class="cls-2" d="M556.11,430.923a50,50,0,1,1-58.22-49.32,49.468,49.468,0,0,1,8.22-.68c.71,0,1.42.01,2.12.05A50,50,0,0,1,556.11,430.923Z" transform="translate(-80 -212.692)"/><path class="cls-3" d="M794.62,414.893a149.157,149.157,0,0,1-76.92-32.54c-44.27-56.14-122.49-93.43-211.59-93.43-89.27,0-167.6,37.43-211.83,93.74a149.113,149.113,0,0,1-88.9,33.159c26.32-115.669,148.27-203.13,294.73-203.13C646.18,212.692,767.86,299.683,794.62,414.893Z" transform="translate(-80 -212.692)"/><path class="cls-3" d="M717.7,401.353l-.45-.36a149.3,149.3,0,0,1-95,33.93,149.64,149.64,0,0,0-116.07-55c-1.32,0-2.64.019-3.95.05-.7-.04-1.41-.05-2.12-.05a49.468,49.468,0,0,0-8.22.68,149.632,149.632,0,0,0-101.78,54.32,149.3,149.3,0,0,1-95-33.93c-.28.23-.55.449-.83.67,44.23-56.31,122.56-93.74,211.83-93.74C595.21,307.923,673.43,345.213,717.7,401.353Z" transform="translate(-80 -212.692)"/><path class="cls-3" d="M294.28,468.493l.45.36a149.293,149.293,0,0,1,95-33.93,149.64,149.64,0,0,0,116.07,55c1.32,0,2.64-.02,3.95-.05.7.04,1.41.05,2.12.05a49.468,49.468,0,0,0,8.22-.68,149.632,149.632,0,0,0,101.78-54.32,149.293,149.293,0,0,1,95,33.93c.28-.23.55-.45.83-.67-44.23,56.31-122.56,93.74-211.83,93.74C416.77,561.923,338.55,524.633,294.28,468.493Z" transform="translate(-80 -212.692)"/><path class="cls-1" d="M140,637.308a19.994,19.994,0,0,1,20-20H114.17a50.047,50.047,0,0,0,0,40H160A20,20,0,0,1,140,637.308Z" transform="translate(-80 -212.692)"/><path class="cls-3" d="M190,587.308H80v200h30v-100h50v-20q6,10,12,20h18a50,50,0,0,0,0-100Zm0,70H110v-40h80a20,20,0,0,1,0,40Z" transform="translate(-80 -212.692)"/><circle class="cls-2" cx="90" cy="424.615" r="20"/><path class="cls-3" d="M172,687.308H160v-20Q166,677.312,172,687.308Z" transform="translate(-80 -212.692)"/><path class="cls-2" d="M220,787.308H200q-30-50-60-100h20Q190,737.3,220,787.308Z" transform="translate(-80 -212.692)"/><path class="cls-3" d="M220,767.308v20q-30-50-60-100v-20q6,10,12,20Q196,727.312,220,767.308Z" transform="translate(-80 -212.692)"/><polygon class="cls-3" points="200 404.615 200 459.615 330 459.615 330 489.615 200 489.615 200 544.615 330 544.615 330 574.615 170 574.615 170 374.615 330 374.615 330 404.615 200 404.615"/><polygon class="cls-3" points="370 404.615 370 459.615 500 459.615 500 489.615 370 489.615 370 574.615 340 574.615 340 374.615 500 374.615 500 404.615 370 404.615"/><path class="cls-3" d="M670,587.308c-44.18,0-80,22.39-80,50v100c0,27.609,35.82,50,80,50s80-22.391,80-50v-100C750,609.7,714.18,587.308,670,587.308Zm50,150c0,11.049-22.39,20-50,20s-50-8.951-50-20v-100c0-11.05,22.39-20,50-20s50,8.95,50,20Z" transform="translate(-80 -212.692)"/><path class="cls-3" d="M890,657.308v-20c0-11.05-22.39-20-50-20s-50,8.95-50,20v100c0,11.049,22.39,20,50,20s50-8.951,50-20v-20H855v10H825v-40h95v50c0,27.609-35.82,50-80,50s-80-22.391-80-50v-100c0-27.61,35.82-50,80-50s80,22.39,80,50v20Z" transform="translate(-80 -212.692)"/></g></svg>