<svg xmlns="http://www.w3.org/2000/svg" viewBox="0 0 930 290"><defs><style>.cls-1{fill:#366ce1;}.cls-2{fill:#121221;}</style></defs><title>relativity</title><g id="Complete"><g id="relativity"><path class="cls-1" d="M35,455V555H135V455Zm90,90H45V465h80Z" transform="translate(-35 -355)"/><path class="cls-1" d="M85,425v80h80V425Zm60,60H105V445h40Z" transform="translate(-35 -355)"/><rect class="cls-1" x="20" y="40" width="40" height="40"/><rect class="cls-2" x="240" y="20" width="20" height="60"/><polygon class="cls-2" points="260 110 260 200 240 200 240 130 230 130 230 100 190 100 190 200 160 200 160 0 240 0 240 20 230 20 230 10 190 10 190 90 230 90 230 80 240 80 240 110 260 110"/><path class="cls-2" d="M385,515V475H375V455H315v10H305v80h10v10h60V545h10V525H365v10H335V515Zm-50-30h10V475h10v10h10v20H335Z" transform="translate(-35 -355)"/><path class="cls-2" d="M535,465V455H475v10H465v20h20V475h30v20H465v40h10v10h10v10h20V545h20v10h20V465Zm-20,60H505v10H495V525H485V505h30Z" transform="translate(-35 -355)"/><polygon class="cls-2" points="420 170 420 190 410 190 410 200 380 200 380 190 360 190 360 0 390 0 390 180 400 180 400 170 420 170"/><polygon class="cls-2" points="580 170 580 190 570 190 570 200 540 200 540 190 520 190 520 90 490 90 490 80 520 80 520 0 550 0 550 70 570 70 570 90 550 90 550 180 560 180 560 170 580 170"/><rect class="cls-2" x="810" y="100" width="30" height="10"/><polygon class="cls-2" points="840 170 840 190 830 190 830 200 800 200 800 190 780 190 780 0 810 0 810 180 820 180 820 170 840 170"/><rect class="cls-2" x="770" y="90" width="20" height="20"/><rect class="cls-2" x="590" y="110" width="30" height="90"/><rect class="cls-2" x="610" y="110" width="20" height="20"/><polygon class="cls-2" points="630 70 630 90 620 90 620 100 600 100 600 90 590 90 590 70 600 70 600 60 620 60 620 70 630 70"/><polygon class="cls-2" points="770 110 770 130 760 130 760 200 730 200 730 110 770 110"/><polygon class="cls-2" points="770 70 770 90 760 90 760 100 740 100 740 90 730 90 730 70 740 70 740 60 760 60 760 70 770 70"/><polygon class="cls-2" points="720 100 720 180 710 180 710 190 690 190 690 200 660 200 660 180 640 180 640 100 670 100 670 180 700 180 700 100 720 100"/><polygon class="cls-2" points="930 90 930 270 920 270 920 280 910 280 910 290 870 290 870 280 860 280 860 270 850 270 850 240 870 240 870 260 910 260 910 200 860 200 860 190 850 190 850 110 860 110 860 100 870 100 870 160 880 160 880 170 900 170 900 100 920 100 920 90 930 90"/></g></g></svg>