<svg xmlns="http://www.w3.org/2000/svg" viewBox="0 0 1690 300"><defs><style>.cls-1{fill:#121221;}.cls-2{fill:#366ce1;}</style></defs><title>remote support</title><g id="Слой_2" data-name="Слой 2"><g id="Work_space" data-name="Work space"><g id="remote_support" data-name="remote support"><polygon class="cls-1" points="320 100 320 200 300 200 300 130.59 283.2 150.05 269.99 165.36 256.78 150.05 240 130.62 240 200 220 200 220 100 240 100 240 100.01 269.99 134.75 299.98 100 320 100"/><path class="cls-2" d="M720-259.732a10,10,0,0,0,10,10h40a30,30,0,0,1,30,30,30,30,0,0,1-30,30H700v-20h70a10,10,0,0,0,10-10,10,10,0,0,0-10-10H730a30,30,0,0,1-30-30,30,30,0,0,1,30-30h70v20H730A10,10,0,0,0,720-259.732Z" transform="translate(0 389.732)"/><polygon class="cls-1" points="560 120 560 140 640 140 640 160 560 160 560 180 640 180 640 200 540 200 540 100 640 100 640 120 560 120"/><polygon class="cls-1" points="130 120 130 140 210 140 210 160 130 160 130 180 210 180 210 200 110 200 110 100 210 100 210 120 130 120"/><path class="cls-2" d="M1360-259.732a30,30,0,0,0-30-30h-70v100h20v-40h50a10,10,0,0,1,10,10v30h20v-30a29.862,29.862,0,0,0-7.65-20A29.862,29.862,0,0,0,1360-259.732Zm-80,10v-20h50a10,10,0,0,1,10,10,10,10,0,0,1-10,10Z" transform="translate(0 389.732)"/><path class="cls-1" d="M100-259.732a30,30,0,0,0-30-30H0v100H20v-40H70a10,10,0,0,1,10,10v30h20v-30a29.862,29.862,0,0,0-7.65-20A29.862,29.862,0,0,0,100-259.732Zm-80,10v-20H70a10,10,0,0,1,10,10,10,10,0,0,1-10,10Z" transform="translate(0 389.732)"/><path class="cls-1" d="M380-289.732a50.005,50.005,0,0,0-50,50,50.005,50.005,0,0,0,50,50,50.005,50.005,0,0,0,50-50A50.005,50.005,0,0,0,380-289.732Zm0,80a30,30,0,0,1-30-30,30,30,0,0,1,30-30,30,30,0,0,1,30,30A30,30,0,0,1,380-209.732Z" transform="translate(0 389.732)"/><path class="cls-2" d="M1200-289.732a50.005,50.005,0,0,0-50,50,50.005,50.005,0,0,0,50,50,50.005,50.005,0,0,0,50-50A50.005,50.005,0,0,0,1200-289.732Zm0,80a30,30,0,0,1-30-30,30,30,0,0,1,30-30,30,30,0,0,1,30,30A30,30,0,0,1,1200-209.732Z" transform="translate(0 389.732)"/><path class="cls-2" d="M1000-289.732H930v100h20v-40h50a30,30,0,0,0,30-30A30,30,0,0,0,1000-289.732Zm0,40H950v-20h50a10,10,0,0,1,10,10A10,10,0,0,1,1000-249.732Z" transform="translate(0 389.732)"/><path class="cls-2" d="M1110-289.732h-70v100h20v-40h50a30,30,0,0,0,30-30A30,30,0,0,0,1110-289.732Zm0,40h-50v-20h50a10,10,0,0,1,10,10A10,10,0,0,1,1110-249.732Z" transform="translate(0 389.732)"/><polygon class="cls-1" points="530 100 530 120 490 120 490 200 470 200 470 120 430 120 430 100 530 100"/><polygon class="cls-2" points="1470 100 1470 120 1430 120 1430 200 1410 200 1410 120 1370 120 1370 100 1470 100"/><path class="cls-2" d="M910-289.732v50a50.005,50.005,0,0,1-50,50,50.005,50.005,0,0,1-50-50v-50h20v50a30,30,0,0,0,30,30,30,30,0,0,0,30-30v-50Z" transform="translate(0 389.732)"/><path class="cls-2" d="M1660-239.732h0a10,10,0,0,1-10,10h-30a10,10,0,0,0-10,10v30a10,10,0,0,1-10,10h0a10,10,0,0,1-10-10v-30a10,10,0,0,0-10-10h-30a10,10,0,0,1-10-10h0a10,10,0,0,1,10-10h30a10,10,0,0,0,10-10v-30a10,10,0,0,1,10-10h0a10,10,0,0,1,10,10v30a10,10,0,0,0,10,10h30A10,10,0,0,1,1660-239.732Z" transform="translate(0 389.732)"/><path class="cls-1" d="M1670-259.732a68.735,68.735,0,0,1-.72,10,70,70,0,0,0-69.28-60,70,70,0,0,0-69.28,60,68.735,68.735,0,0,1-.72-10,70,70,0,0,1,70-70A70,70,0,0,1,1670-259.732Z" transform="translate(0 389.732)"/><path class="cls-1" d="M1680-289.732a60.264,60.264,0,0,1-.823,10c-5.531-33.92-38.88-60-79.177-60s-73.646,26.08-79.177,60a60.264,60.264,0,0,1-.823-10c0-38.66,35.817-70,80-70S1680-328.392,1680-289.732Z" transform="translate(0 389.732)"/><path class="cls-1" d="M1690-319.732a53.79,53.79,0,0,1-.926,10c-6.223-33.92-43.74-60-89.074-60s-82.851,26.08-89.074,60a53.79,53.79,0,0,1-.926-10c0-38.66,40.294-70,90-70S1690-358.392,1690-319.732Z" transform="translate(0 389.732)"/><path class="cls-1" d="M1670-219.732a70,70,0,0,1-70,70,70,70,0,0,1-70-70,68.735,68.735,0,0,1,.72-10,70,70,0,0,0,69.28,60,70,70,0,0,0,69.28-60A68.735,68.735,0,0,1,1670-219.732Z" transform="translate(0 389.732)"/><path class="cls-1" d="M1680-189.732c0,38.66-35.817,70-80,70s-80-31.34-80-70a60.264,60.264,0,0,1,.823-10c5.531,33.92,38.88,60,79.177,60s73.646-26.08,79.177-60A60.264,60.264,0,0,1,1680-189.732Z" transform="translate(0 389.732)"/><path class="cls-1" d="M1690-159.732c0,38.66-40.294,70-90,70s-90-31.34-90-70a53.79,53.79,0,0,1,.926-10c6.223,33.92,43.74,60,89.074,60s82.851-26.08,89.074-60A53.79,53.79,0,0,1,1690-159.732Z" transform="translate(0 389.732)"/></g></g></g></svg>