<svg xmlns="http://www.w3.org/2000/svg" viewBox="0 0 1191 356.486"><defs><style>.cls-1{fill:#1c1e20;}.cls-2{fill:#e1dfdf;}.cls-3{fill:#e1e0e0;stroke:#1c1e20;stroke-miterlimit:10;stroke-width:2px;}</style></defs><title>repairdesk</title><g id="complete"><g id="repairDesk"><rect class="cls-1" x="350" y="350" width="300" height="300" rx="81.815" transform="translate(651 -528.864) rotate(45)"/><path class="cls-2" d="M525.9,571.649l23.206-13.4a11.6,11.6,0,0,0,4.246-15.848h0A11.6,11.6,0,0,1,563.4,525h0A11.6,11.6,0,0,0,575,513.4V486.6A11.6,11.6,0,0,0,563.4,475h0a11.6,11.6,0,0,1-10.046-17.4h0a11.6,11.6,0,0,0-4.246-15.848l-23.206-13.4a11.6,11.6,0,0,0-15.848,4.246l0,0a11.6,11.6,0,0,1-20.094,0l0,0a11.6,11.6,0,0,0-15.848-4.246l-23.206,13.4a11.6,11.6,0,0,0-4.246,15.848h0A11.6,11.6,0,0,1,436.605,475h0A11.6,11.6,0,0,0,425,486.6v26.8A11.6,11.6,0,0,0,436.6,525h0a11.6,11.6,0,0,1,10.046,17.4h0a11.6,11.6,0,0,0,4.246,15.848l23.206,13.4a11.6,11.6,0,0,0,15.848-4.246l0,0a11.6,11.6,0,0,1,20.094,0l0,0A11.6,11.6,0,0,0,525.9,571.649ZM475,507.736V492.264a11.6,11.6,0,0,1,5.8-10.048l13.4-7.733a11.6,11.6,0,0,1,11.6,0l13.4,7.733a11.6,11.6,0,0,1,5.8,10.048v15.472a11.6,11.6,0,0,1-5.8,10.048l-13.4,7.733a11.6,11.6,0,0,1-11.6,0l-13.4-7.733A11.6,11.6,0,0,1,475,507.736Z" transform="translate(151 -321.757)"/><path class="cls-1" d="M494.2,525.517l-13.4-7.733a11.6,11.6,0,0,1-5.8-10.048V492.264a11.6,11.6,0,0,1,5.8-10.048l13.4-7.733a11.6,11.6,0,0,1,11.6,0l13.4,7.733a11.6,11.6,0,0,1,5.8,10.048v15.472a11.6,11.6,0,0,1-5.8,10.048l-13.4,7.733A11.6,11.6,0,0,1,494.2,525.517Z" transform="translate(151 -321.757)"/><path class="cls-3" d="M-90.63,435A39.988,39.988,0,0,0-70,400a40,40,0,0,0-40-40,40,40,0,0,0-40,40V540h10V440h30a30,30,0,0,1,30,30v70h10V470A39.988,39.988,0,0,0-90.63,435ZM-140,430V400a30,30,0,0,1,30-30,30,30,0,0,1,30,30,30,30,0,0,1-30,30Z" transform="translate(151 -321.757)"/><path class="cls-3" d="M-20,530a29.979,29.979,0,0,1-28.28-20A29.592,29.592,0,0,1-50,500H20a40.177,40.177,0,0,0-1.26-10A40.027,40.027,0,0,0-20,460a40.027,40.027,0,0,0-38.74,30A40.177,40.177,0,0,0-60,500a40.177,40.177,0,0,0,1.26,10A40.027,40.027,0,0,0-20,540a40.027,40.027,0,0,0,38.74-30H8.28A29.979,29.979,0,0,1-20,530Zm0-60A29.979,29.979,0,0,1,8.28,490H-48.28A29.979,29.979,0,0,1-20,470Z" transform="translate(151 -321.757)"/><path class="cls-3" d="M70,460a40,40,0,0,0-40,40V640H40V540H70a40,40,0,0,0,0-80Zm0,70H40V500a30,30,0,1,1,30,30Z" transform="translate(151 -321.757)"/><path class="cls-3" d="M310,490H299.54a30,30,0,0,0-58.28,10v40h-10V460h10v13.56A40,40,0,0,1,310,490Z" transform="translate(151 -321.757)"/><path class="cls-3" d="M160,460a40,40,0,1,0,30,66.44V540h10V500A40,40,0,0,0,160,460Zm0,70a30,30,0,1,1,30-30A30,30,0,0,1,160,530Z" transform="translate(151 -321.757)"/><rect class="cls-3" x="361" y="138.243" width="10" height="80"/><circle class="cls-3" cx="366" cy="123.243" r="5"/><path class="cls-1" d="M730,340H690V540h40a40,40,0,0,0,40-40V380A40,40,0,0,0,730,340Zm20,160a19.994,19.994,0,0,1-20,20H710V360h20a19.994,19.994,0,0,1,20,20Z" transform="translate(151 -321.757)"/><path class="cls-1" d="M858.74,490a40,40,0,1,0-18.87,44.72l-15.26-15.26A19.457,19.457,0,0,1,820,520a19.958,19.958,0,0,1-17.31-10h56.05a40.313,40.313,0,0,0,0-20Zm-56.05,0a19.982,19.982,0,0,1,34.62,0Z" transform="translate(151 -321.757)"/><path class="cls-1" d="M950,500a40.008,40.008,0,0,1-60.32,34.46l15.14-15.14A20,20,0,0,0,927.31,510H871.26a40.013,40.013,0,0,1,59.06-44.46l-15.14,15.14A20,20,0,0,0,892.69,490h56.05A40.177,40.177,0,0,1,950,500Z" transform="translate(151 -321.757)"/><polygon class="cls-1" points="1191 204.103 1176.86 218.243 1131 172.383 1131 218.243 1111 218.243 1111 18.243 1131 18.243 1131 144.103 1146 159.103 1166.86 138.243 1181 152.383 1160.14 173.243 1191 204.103"/></g></g></svg>