<svg xmlns="http://www.w3.org/2000/svg" viewBox="0 0 292.823 300"><defs><style>.cls-1{fill:#e1dfdf;}.cls-2{fill:#121221;}.cls-3{fill:#366ce1;}</style></defs><title>RepairShopr</title><g id="complete"><g id="RepairShopr"><path class="cls-1" d="M634.8,520.094l.007,0a23.2,23.2,0,0,1,8.492,31.7l-26.8,46.411a23.2,23.2,0,0,1-31.7,8.492h0A23.2,23.2,0,0,0,550,626.791v.006A23.2,23.2,0,0,1,526.8,650H473.2A23.2,23.2,0,0,1,450,626.8v-.006A23.2,23.2,0,0,0,415.2,606.7h0a23.2,23.2,0,0,1-31.7-8.492l-26.8-46.411a23.2,23.2,0,0,1,8.492-31.7l.007,0a23.2,23.2,0,0,0,0-40.188l-.007,0a23.2,23.2,0,0,1-8.492-31.7L383.5,401.8a23.2,23.2,0,0,1,31.7-8.492h0A23.2,23.2,0,0,0,450,373.209V373.2A23.2,23.2,0,0,1,473.2,350H526.8A23.2,23.2,0,0,1,550,373.2v.006A23.2,23.2,0,0,0,584.8,393.3h0a23.2,23.2,0,0,1,31.7,8.492l26.8,46.411a23.2,23.2,0,0,1-8.492,31.7l-.007,0A23.2,23.2,0,0,0,634.8,520.094Z" transform="translate(-353.589 -350)"/><polygon class="cls-2" points="238.791 150 261.881 190 233.021 240 175.271 240 163.731 220 146.411 190 169.501 190 181.881 211.44 186.821 220 221.471 220 238.791 190 221.471 160 175.271 160 163.731 140 146.411 110 175.271 60 233.021 60 261.881 110 238.791 110 221.471 80 186.821 80 169.501 110 186.821 140 233.021 140 238.791 150"/><path class="cls-1" d="M410.4,504.83,407.42,510,390.1,540v50h23.22V509.88Z" transform="translate(-353.589 -350)"/><path class="cls-3" d="M476.91,500l5.77-10L500,460l-17.32-30-11.54-20H413.39l-28.86,50V590h5.57V540l17.32-30,2.98-5.17,2.92,5.05.07.12h46.2l17.19,29.77.13.23v50H500V540l-17.32-30Zm-12.38-18.56L459.59,490H424.94l-11.62-20.13-5.7-9.87,17.32-30h34.65l17.32,30Z" transform="translate(-353.589 -350)"/></g></g></svg>