<svg xmlns="http://www.w3.org/2000/svg" viewBox="0 0 1240 100"><defs><style>.cls-1{fill:#121221;}.cls-2{fill:#366ce1;}</style></defs><title>reprise license management</title><g id="Слой_2" data-name="Слой 2"><g id="Work_space" data-name="Work space"><g id="reprise_license_management" data-name="reprise license management"><polygon class="cls-1" points="803.149 9.395 803.149 37.579 812.544 37.579 812.544 46.973 784.36 46.973 784.36 37.579 793.755 37.579 793.755 9.395 784.36 9.395 784.36 0 812.544 0 812.544 9.395 803.149 9.395"/><polygon class="cls-1" points="962.858 0 962.858 46.973 953.463 46.973 925.28 14.369 925.28 46.973 915.885 46.973 915.885 0 925.28 0 953.463 32.604 953.463 0 962.858 0"/><path class="cls-1" d="M976.95,14.092a4.7,4.7,0,0,0,4.7,4.7h18.79a14.092,14.092,0,0,1,0,28.184H967.555V37.579h32.882a4.7,4.7,0,0,0,0-9.395h-18.79a14.092,14.092,0,0,1,0-28.184h32.882V9.4H981.647A4.7,4.7,0,0,0,976.95,14.092Z"/><polygon class="cls-1" points="1028.621 9.395 1028.621 18.789 1066.199 18.789 1066.199 28.184 1028.621 28.184 1028.621 37.579 1066.199 37.579 1066.199 46.973 1019.226 46.973 1019.226 0 1066.199 0 1066.199 9.395 1028.621 9.395"/><polygon class="cls-1" points="873.609 9.395 873.609 18.789 911.188 18.789 911.188 28.184 873.609 28.184 873.609 37.579 911.188 37.579 911.188 46.973 864.214 46.973 864.214 0 911.188 0 911.188 9.395 873.609 9.395"/><polygon class="cls-1" points="779.663 37.579 779.663 46.973 732.689 46.973 732.689 0 742.084 0 742.084 37.579 779.663 37.579"/><path class="cls-1" d="M849.314,28.184h9.729a23.487,23.487,0,1,1,0-9.395h-9.729a14.093,14.093,0,1,0,0,9.4Z"/><polygon class="cls-2" points="480 20 480 80 500 80 500 100 440 100 440 80 460 80 460 20 440 20 440 0 500 0 500 20 480 20"/><path class="cls-2" d="M530,30a10,10,0,0,0,10,10h40a30,30,0,0,1,0,60H510V80h70a10,10,0,0,0,0-20H540a30,30,0,0,1,0-60h70V20H540A10,10,0,0,0,530,30Z"/><polygon class="cls-2" points="640 20 640 40 720 40 720 60 640 60 640 80 720 80 720 100 620 100 620 0 720 0 720 20 640 20"/><polygon class="cls-2" points="130 20 130 40 210 40 210 60 130 60 130 80 210 80 210 100 110 100 110 0 210 0 210 20 130 20"/><path class="cls-2" d="M100,30A30,30,0,0,0,70,0H0V100H20V60H70A10,10,0,0,1,80,70v30h20V70a29.862,29.862,0,0,0-7.65-20A29.862,29.862,0,0,0,100,30ZM20,40V20H70a10,10,0,0,1,0,20Z"/><path class="cls-2" d="M430,30A30,30,0,0,0,400,0H330V100h20V60h50a10,10,0,0,1,10,10v30h20V70a29.862,29.862,0,0,0-7.65-20A29.862,29.862,0,0,0,430,30ZM350,40V20h50a10,10,0,0,1,0,20Z"/><path class="cls-2" d="M290,0H220V100h20V60h50a30,30,0,0,0,0-60Zm0,40H240V20h50a10,10,0,0,1,0,20Z"/><polygon class="cls-1" points="883.004 53.027 883.004 100 873.609 100 845.425 67.396 845.425 100 836.03 100 836.03 53.027 845.425 53.027 873.609 85.631 873.609 53.027 883.004 53.027"/><polygon class="cls-1" points="1188.329 53.027 1188.329 100 1178.935 100 1150.751 67.396 1150.751 100 1141.356 100 1141.356 53.027 1150.751 53.027 1178.935 85.631 1178.935 53.027 1188.329 53.027"/><polygon class="cls-1" points="779.663 53.027 779.663 100 770.268 100 770.268 67.396 762.376 76.537 756.171 83.728 749.966 76.537 742.084 67.41 742.084 100 732.689 100 732.689 53.027 742.084 53.027 742.084 53.031 756.171 69.35 770.259 53.027 779.663 53.027"/><polygon class="cls-1" points="1084.988 53.027 1084.988 100 1075.594 100 1075.594 67.396 1067.702 76.537 1061.497 83.728 1055.292 76.537 1047.41 67.41 1047.41 100 1038.015 100 1038.015 53.027 1047.41 53.027 1047.41 53.031 1061.497 69.35 1075.584 53.027 1084.988 53.027"/><polygon class="cls-1" points="995.739 62.421 995.739 71.816 1033.318 71.816 1033.318 81.211 995.739 81.211 995.739 90.605 1033.318 90.605 1033.318 100 986.345 100 986.345 53.027 1033.318 53.027 1033.318 62.421 995.739 62.421"/><polygon class="cls-1" points="1099.08 62.421 1099.08 71.816 1136.659 71.816 1136.659 81.211 1099.08 81.211 1099.08 90.605 1136.659 90.605 1136.659 100 1089.686 100 1089.686 53.027 1136.659 53.027 1136.659 62.421 1099.08 62.421"/><path class="cls-1" d="M812.906,53.943l-.367-.916h-9.385l-.367.911L784.36,100h10.123l5.261-13.152h16.2L821.21,100h10.123Zm-9.4,23.51,4.346-10.865,4.345,10.865Z"/><path class="cls-1" d="M916.247,53.943l-.367-.916H906.5l-.366.911L887.7,100h10.123l5.261-13.152h16.2L924.551,100h10.123Zm-9.4,23.51,4.345-10.865,4.345,10.865Z"/><path class="cls-1" d="M981.647,71.816v4.7a23.079,23.079,0,0,1-.474,4.7,23.492,23.492,0,1,1-6.407-21.3l-6.642,6.642a14.091,14.091,0,1,0,3.321,14.661H958.161V71.816Z"/><polygon class="cls-1" points="1240 53.027 1240 62.421 1221.211 62.421 1221.211 100 1211.816 100 1211.816 62.421 1193.027 62.421 1193.027 53.027 1240 53.027"/></g></g></g></svg>