<svg xmlns="http://www.w3.org/2000/svg" viewBox="0 0 736.52 205"><defs><style>.a{fill:#fff;stroke:#000;stroke-miterlimit:10;stroke-width:5px;}</style></defs><title>republic records</title><path d="M133.8,181.113c-.34,2.66-.56,5.34-.68,8.06a4.189,4.189,0,0,1-.89-1.42C131.58,185.993,132.17,183.723,133.8,181.113Z"/><circle class="a" cx="102.5" cy="102.5" r="100"/><path d="M31.633,36.841c-2.7-6.723,14.7-20.982,30.425-28C78.2,1.632,100.652-1.552,103.828,5.032c3.082,6.388-12.084,21.747-27.989,29.3C57.953,42.815,34.377,43.68,31.633,36.841Z"/><path d="M131.465,77.155a165.488,165.488,0,0,1-25.376,15.237,172.24,172.24,0,0,1-26.366,10.1,180.3,180.3,0,0,1-38.366,6.641,99.984,99.984,0,0,1-17.747-.641c-7.143-.882-11.137-2.157-14.8-4.28a30.426,30.426,0,0,1-5.564-4.143v-.01c.12-2.72.34-5.4.68-8.06v-.01a98.9,98.9,0,0,1,8.9-30.44,32.822,32.822,0,0,0,1.825,3.211C26.3,82.8,52.837,84.579,69.609,85.7A156.774,156.774,0,0,0,131.465,77.155Z"/><path d="M158.864,51.828a70.348,70.348,0,0,0-.254-31.88q3.366,2.424,6.845,5.134,2.4,1.87,4.644,3.726a37.741,37.741,0,0,1-2.14,8.633,41.494,41.494,0,0,1-5.261,9.57A51.327,51.327,0,0,1,158.864,51.828Z"/><path d="M174.91,133.245a187.7,187.7,0,0,1-32.483,22.273A183.714,183.714,0,0,1,82.258,175.8a176.713,176.713,0,0,1-47.45.428A105.3,105.3,0,0,1,6.131,129.294a139.143,139.143,0,0,0,13.423,7.464c33.583,16.313,65.261,14.849,83.527,13.79A210.484,210.484,0,0,0,174.91,133.245Z"/><path d="M194.047,113.777a54.784,54.784,0,0,1-14.07,14.324c5.373-6.385,12.96-17.56,15.024-32.687,2.007-14.7-1.938-27.761-4.574-36.487-1.186-3.926-2.392-7.135-3.3-9.38,1.2,2.108,9.751,17.2,13.064,27.535a45.146,45.146,0,0,1,1.767,7.577,40.5,40.5,0,0,1,.086,10.467C200.937,103.565,196.959,109.445,194.047,113.777Z"/><path d="M131.9,191.1a122.844,122.844,0,0,1-57.328,6.246c-2.109-.6-4.362-1.353-6.718-2.281A74.077,74.077,0,0,1,57.455,190a128.35,128.35,0,0,0,16.226,3.676,143.685,143.685,0,0,0,25.1,1.521A165.546,165.546,0,0,0,131.9,191.1Z"/><path d="M192.033,144.363q-1.594,2.659-3.381,5.409c-2.081,3.194-4.177,6.179-6.253,8.958A125.2,125.2,0,0,1,154.258,180.7c-3.32,1.9-6.573,3.545-9.718,4.986a211.08,211.08,0,0,0,47.493-41.324Z"/><polygon points="352.5 21.443 352.5 91.443 432.5 91.443 432.5 111.443 352.5 111.443 352.5 181.443 432.5 181.443 432.5 201.443 332.5 201.443 332.5 1.443 432.5 1.443 432.5 21.443 352.5 21.443"/><path d="M302.49,91.443a50,50,0,0,0-29.99-90h-50v200h20v-100h30a30,30,0,0,1,30,30v70h20v-70A49.9,49.9,0,0,0,302.49,91.443Zm-29.99-10h-30v-60h30a30,30,0,0,1,0,60Z"/><path d="M470.954,1.917a23.733,23.733,0,0,0-4.743-.474H442.5V96.288h9.485V48.865h14.226a23.714,23.714,0,0,0,4.743-46.948Zm-4.743,37.464H451.985V10.927h14.226a14.227,14.227,0,0,1,0,28.454Z"/><path d="M546.83,1.443V72.576a23.712,23.712,0,1,1-47.423,0V1.443h9.485V72.576a14.227,14.227,0,1,0,28.453,0V1.443Z"/><path d="M594.252,44.123a23.7,23.7,0,0,0-14.227-42.68H556.314V96.288h23.711a23.689,23.689,0,0,0,23.712-23.712V63.092a23.661,23.661,0,0,0-9.485-18.969ZM565.8,10.927h14.226a14.227,14.227,0,0,1,0,28.454H565.8Zm28.453,61.649a14.234,14.234,0,0,1-13.5,14.208c-.247.019-.484.019-.731.019H565.8V48.865h14.226c.247,0,.494.01.731.019a14.235,14.235,0,0,1,13.5,14.208Z"/><path d="M603.737,149.278A23.7,23.7,0,0,0,589.51,106.6H565.8v94.845h9.484V154.02H589.51a14.233,14.233,0,0,1,14.227,14.227v33.2h9.484v-33.2a23.651,23.651,0,0,0-9.484-18.969Zm-14.227-4.742H575.283V116.082H589.51a14.227,14.227,0,0,1,0,28.454Z"/><path d="M727.035,72.576h9.485a23.712,23.712,0,1,1-47.423,0V25.154a23.712,23.712,0,0,1,47.423,0h-9.485a14.227,14.227,0,1,0-28.453,0V72.576a14.227,14.227,0,1,0,28.453,0Z"/><path d="M480.438,177.731h9.485a23.712,23.712,0,1,1-47.423,0V130.309a23.712,23.712,0,0,1,47.423,0h-9.485a14.227,14.227,0,1,0-28.453,0v47.422a14.227,14.227,0,1,0,28.453,0Z"/><path d="M551.1,125.567a23.712,23.712,0,0,0-46.949,4.742v47.422a23.712,23.712,0,1,0,47.423,0V130.309A23.716,23.716,0,0,0,551.1,125.567Zm-23.237,66.391a14.231,14.231,0,0,1-14.227-14.227V130.309a14.227,14.227,0,1,1,28.453,0v47.422A14.231,14.231,0,0,1,527.861,191.958Z"/><path d="M674.4,125.567a23.721,23.721,0,0,0-18.5-18.486,23,23,0,0,0-4.742-.483H627.448v94.845h23.711a23,23,0,0,0,4.742-.484,23.67,23.67,0,0,0,18.969-23.228V130.309A23.716,23.716,0,0,0,674.4,125.567Zm-9.01,52.164a14.232,14.232,0,0,1-14.227,14.227H636.932V116.082h14.227a14.233,14.233,0,0,1,14.227,14.227Z"/><polygon points="660.644 86.803 660.644 96.288 613.221 96.288 613.221 1.443 622.706 1.443 622.706 86.803 660.644 86.803"/><rect x="670.128" y="1.443" width="9.485" height="94.845"/><path d="M736.52,172.989v4.742a23.706,23.706,0,0,1-47.337,1.9h9.532a14.223,14.223,0,0,0,28.32-1.9v-4.742a14.232,14.232,0,0,0-14.227-14.227A23.691,23.691,0,0,1,689.1,135.051v-4.742a23.709,23.709,0,0,1,47.337-1.963H726.9a14.228,14.228,0,0,0-28.32,1.963v4.742a14.232,14.232,0,0,0,14.226,14.227,23.693,23.693,0,0,1,23.712,23.711Z"/></svg>