<svg xmlns="http://www.w3.org/2000/svg" viewBox="0 0 1670 150"><defs><style>.cls-1{fill:#121221;}.cls-2{fill:#366ce1;}</style></defs><title>reputation.com</title><g id="Слой_2" data-name="Слой 2"><g id="Work_space" data-name="Work space"><g id="reputation.com"><polygon class="cls-1" points="910 45 910 105 930 105 930 125 870 125 870 105 890 105 890 45 870 45 870 25 930 25 930 45 910 45"/><polygon class="cls-1" points="1150 25 1150 125 1130 125 1070 55.59 1070 125 1050 125 1050 25 1070 25 1130 94.41 1130 25 1150 25"/><polygon class="cls-1" points="290 45 290 65 370 65 370 85 290 85 290 105 370 105 370 125 270 125 270 25 370 25 370 45 290 45"/><path class="cls-1" d="M260,55a30,30,0,0,0-30-30H160V125h20V85h50a10,10,0,0,1,10,10v30h20V95a29.862,29.862,0,0,0-7.65-20A29.862,29.862,0,0,0,260,55ZM180,65V45h50a10,10,0,0,1,0,20Z"/><path class="cls-1" d="M990,25a50,50,0,1,0,50,50A50.005,50.005,0,0,0,990,25Zm0,80a30,30,0,1,1,30-30A30,30,0,0,1,990,105Z"/><path class="cls-1" d="M740.77,26.95,739.99,25H720.01l-.78,1.94L680,125h21.55l11.2-28h34.5l11.2,28H780ZM720.75,77,730,53.87,739.25,77Z"/><path class="cls-1" d="M450,25H380V125h20V85h50a30,30,0,0,0,0-60Zm0,40H400V45h50a10,10,0,0,1,0,20Z"/><polygon class="cls-1" points="700 25 700 45 660 45 660 125 640 125 640 45 600 45 600 25 700 25"/><polygon class="cls-1" points="860 25 860 45 820 45 820 125 800 125 800 45 760 45 760 25 860 25"/><path class="cls-1" d="M590,25V75a50,50,0,0,1-100,0V25h20V75a30,30,0,0,0,60,0V25Z"/><path class="cls-1" d="M1350,25a50,50,0,1,0,50,50A50.005,50.005,0,0,0,1350,25Zm0,90a40,40,0,1,1,40-40A40,40,0,0,1,1350,115Z"/><path class="cls-1" d="M1279.69,80h10.06a50,50,0,1,1,0-10h-10.06a40,40,0,1,0,0,10Z"/><path class="cls-1" d="M1430,25.07v-.03l.01-.04h9.97l20.01,78.98Q1470,64.49,1480.01,25H1490l.01.01q15,49.995,29.99,99.99h-10.44l-24.18-80.57-20.24,79.9-.14.56-.03.11H1455l-.17-.66L1434.6,44.51,1410.45,125h-10.44Q1415.006,75.035,1430,25.07Z"/><path class="cls-2" d="M139.28,8.01A98.855,98.855,0,0,1,140,20a99.653,99.653,0,0,1-8.6,40.64A102.071,102.071,0,0,0,120,60a100.032,100.032,0,0,0-97.2,76.43A99.765,99.765,0,0,0,13.38,150,100.042,100.042,0,0,1,139.28,8.01Z"/><path class="cls-1" d="M100,100a99.784,99.784,0,0,0-77.2,36.43A100.032,100.032,0,0,1,120,60a102.071,102.071,0,0,1,11.4.64A100.241,100.241,0,0,1,100,100Z"/><path class="cls-2" d="M1670,50a100.481,100.481,0,0,0-31.29-27.35A100.121,100.121,0,0,0,1656.62,0,99.514,99.514,0,0,1,1670,50Z"/><path class="cls-1" d="M1670,50a100.054,100.054,0,0,1-139.28,91.99A100.021,100.021,0,0,1,1570,50a99.584,99.584,0,0,0,68.71-27.35A100.481,100.481,0,0,1,1670,50Z"/></g></g></g></svg>