<svg xmlns="http://www.w3.org/2000/svg" viewBox="0 0 1060 482.61"><defs><style>.cls-1,.cls-4{fill:#366ce1;}.cls-2{fill:#121221;}.cls-3{fill:#1c1e20;}.cls-4{opacity:0.62;}</style></defs><title>RetailSuite enterprise</title><g id="Слой_2" data-name="Слой 2"><g id="Complete"><g id="RetailSuite_enterprise" data-name="RetailSuite enterprise"><polygon class="cls-1" points="362.5 432.61 362.5 482.61 352.5 482.61 322.5 447.905 322.5 482.61 312.5 482.61 312.5 432.61 322.5 432.61 352.5 467.315 352.5 432.61 362.5 432.61"/><path class="cls-1" d="M707.5,447.61a5,5,0,0,0,5,5h20a15,15,0,0,1,0,30h-35v-10h35a5,5,0,0,0,0-10h-20a15,15,0,0,1,0-30h35v10h-35A5,5,0,0,0,707.5,447.61Z"/><polygon class="cls-1" points="762.5 442.61 762.5 452.61 802.5 452.61 802.5 462.61 762.5 462.61 762.5 472.61 802.5 472.61 802.5 482.61 752.5 482.61 752.5 432.61 802.5 432.61 802.5 442.61 762.5 442.61"/><polygon class="cls-1" points="267.5 442.61 267.5 452.61 307.5 452.61 307.5 462.61 267.5 462.61 267.5 472.61 307.5 472.61 307.5 482.61 257.5 482.61 257.5 432.61 307.5 432.61 307.5 442.61 267.5 442.61"/><polygon class="cls-1" points="432.5 442.61 432.5 452.61 472.5 452.61 472.5 462.61 432.5 462.61 432.5 472.61 472.5 472.61 472.5 482.61 422.5 482.61 422.5 432.61 472.5 432.61 472.5 442.61 432.5 442.61"/><path class="cls-1" d="M527.5,447.61a15,15,0,0,0-15-15h-35v50h10v-20h25a5,5,0,0,1,5,5v15h10v-15a14.931,14.931,0,0,0-3.825-10A14.931,14.931,0,0,0,527.5,447.61Zm-40,5v-10h25a5,5,0,0,1,0,10Z"/><path class="cls-1" d="M637.5,447.61a15,15,0,0,0-15-15h-35v50h10v-20h25a5,5,0,0,1,5,5v15h10v-15a14.931,14.931,0,0,0-3.825-10A14.931,14.931,0,0,0,637.5,447.61Zm-40,5v-10h25a5,5,0,0,1,0,10Z"/><polygon class="cls-1" points="672.5 442.61 672.5 472.61 687.5 472.61 687.5 482.61 647.5 482.61 647.5 472.61 662.5 472.61 662.5 442.61 647.5 442.61 647.5 432.61 687.5 432.61 687.5 442.61 672.5 442.61"/><path class="cls-1" d="M567.5,432.61h-35v50h10v-20h25a15,15,0,0,0,0-30Zm0,20h-25v-10h25a5,5,0,0,1,0,10Z"/><polygon class="cls-1" points="417.5 432.61 417.5 442.61 397.5 442.61 397.5 482.61 387.5 482.61 387.5 442.61 367.5 442.61 367.5 432.61 417.5 432.61"/><polygon class="cls-2" points="120 332.61 120 367.61 210 367.61 210 377.61 120 377.61 120 412.61 210 412.61 210 422.61 110 422.61 110 322.61 210 322.61 210 332.61 120 332.61"/><path class="cls-2" d="M379.7,377.61l-4.51-10-19.71-43.73.01-.01-.49-1.08h-.01l-.08-.18h-9.84l-.08.18v.02l-.47,1.05h-.01l-19.72,43.75-4.51,10-20.28,45h10.97l20.28-45h37.48l20.28,45h10.97Zm-19.71-2.96-.02-.04h.02Zm-24.23-7.04,14.23-31.58,14.24,31.58Z"/><path class="cls-2" d="M86.57,377.61a29.994,29.994,0,0,0-16.57-55H0v100H10v-40H70a19.994,19.994,0,0,1,20,20v20h10v-20A29.923,29.923,0,0,0,86.57,377.61ZM60,374.65l-.02-.04H60Zm10-2.04H10v-40H70a20,20,0,0,1,0,40Z"/><polygon class="cls-2" points="570 412.61 570 422.61 470 422.61 470 322.61 480 322.61 480 412.61 570 412.61"/><polygon class="cls-2" points="320 322.61 320 332.61 275 332.61 275 422.61 265 422.61 265 332.61 220 332.61 220 322.61 320 322.61"/><polygon class="cls-2" points="440 332.61 440 412.61 460 412.61 460 422.61 410 422.61 410 412.61 430 412.61 430 332.61 410 332.61 410 322.61 460 322.61 460 332.61 440 332.61"/><polygon class="cls-2" points="970 332.61 970 367.61 1060 367.61 1060 377.61 970 377.61 970 412.61 1060 412.61 1060 422.61 960 422.61 960 322.61 1060 322.61 1060 332.61 970 332.61"/><path class="cls-2" d="M580,350.11a17.506,17.506,0,0,0,17.5,17.5h45a27.5,27.5,0,0,1,7.5,53.95,26.911,26.911,0,0,1-7.5,1.05H570v-10h72.5a17.5,17.5,0,0,0,0-35h-45a27.5,27.5,0,0,1-7.5-53.95,26.911,26.911,0,0,1,7.5-1.05H670v10H597.5A17.506,17.506,0,0,0,580,350.11Z"/><polygon class="cls-2" points="950 322.61 950 332.61 905 332.61 905 422.61 895 422.61 895 332.61 850 332.61 850 322.61 950 322.61"/><path class="cls-2" d="M780,322.61v50a50,50,0,1,1-100,0v-50h10v50a40,40,0,1,0,80,0v-50Z"/><polygon class="cls-2" points="820 332.61 820 412.61 840 412.61 840 422.61 790 422.61 790 412.61 810 412.61 810 332.61 790 332.61 790 322.61 840 322.61 840 332.61 820 332.61"/><polygon class="cls-3" points="680 42.42 572.42 150 680 257.58 680 300 637.58 300 530 192.42 422.42 300 380 300 380 257.58 487.58 150 380 42.42 380 0 422.45 0 530 107.55 637.55 0 680 0 680 42.42"/><path class="cls-1" d="M530,30A120,120,0,1,0,650,150,120.005,120.005,0,0,0,530,30Zm0,180a60,60,0,1,1,60-60A59.983,59.983,0,0,1,530,210Z"/><circle class="cls-4" cx="530" cy="150" r="60"/></g></g></g></svg>