<svg xmlns="http://www.w3.org/2000/svg" viewBox="0 0 690 350"><defs><style>.cls-1{fill:#121221;}.cls-2{fill:#366ce1;}</style></defs><title>reveal</title><g id="Complete"><g id="reveal"><polygon class="cls-1" points="150 240 150 260 230 260 230 280 150 280 150 300 230 300 230 320 130 320 130 220 230 220 230 240 150 240"/><polygon class="cls-1" points="370 240 370 260 450 260 450 280 370 280 370 300 450 300 450 320 350 320 350 220 450 220 450 240 370 240"/><polygon class="cls-1" points="670 300 670 320 570 320 570 220 590 220 590 300 670 300"/><polygon class="cls-1" points="339.98 220 300.76 318.07 299.99 320 279.99 320 279.22 318.07 240 220 261.54 220 289.99 291.14 318.45 220 339.98 220"/><path class="cls-1" d="M275,530a30,30,0,0,0-30-30H175V600h20V560h50a10,10,0,0,1,10,10v30h20V570a29.862,29.862,0,0,0-7.65-20A29.862,29.862,0,0,0,275,530Zm-80,10V520h50a10,10,0,0,1,0,20Z" transform="translate(-155 -280)"/><path class="cls-1" d="M675.77,501.95l-.78-1.95H655.01l-.78,1.94L615,600h21.55l11.2-28h34.5l11.2,28H715ZM655.75,552,665,528.87,674.25,552Z" transform="translate(-155 -280)"/><rect class="cls-2" y="330" width="690" height="20"/><path class="cls-2" d="M580.52,320.7l-14.34,14.34a80.043,80.043,0,0,1,0,89.92l14.34,14.34a100,100,0,0,0,0-118.6ZM440.7,299.48l14.34,14.34a80.043,80.043,0,0,1,89.92,0l14.34-14.34a100,100,0,0,0-118.6,0ZM500,460a79.631,79.631,0,0,1-44.96-13.82L440.7,460.52a100,100,0,0,0,118.6,0l-14.34-14.34A79.631,79.631,0,0,1,500,460ZM419.48,320.7a100,100,0,0,0,0,118.6l14.34-14.34a80.043,80.043,0,0,1,0-89.92Z" transform="translate(-155 -280)"/><path class="cls-1" d="M566.18,424.96l14.34,14.34a100.066,100.066,0,0,1-21.22,21.22L500,401.22l-59.3,59.3a100.066,100.066,0,0,1-21.22-21.22l14.34-14.34L478.78,380l-44.96-44.96L419.48,320.7a100.066,100.066,0,0,1,21.22-21.22l14.34,14.34L500,358.78l44.96-44.96,14.34-14.34a100.066,100.066,0,0,1,21.22,21.22l-14.34,14.34L521.22,380Z" transform="translate(-155 -280)"/></g></g></svg>