<svg xmlns="http://www.w3.org/2000/svg" viewBox="0 0 763.297 87.789"><title>revelations</title><path d="M43.81.169a43.81,43.81,0,1,0,43.81,43.81A43.815,43.815,0,0,0,43.81.169Zm-8.762,70.1A26.286,26.286,0,1,1,61.334,43.979,26.284,26.284,0,0,1,35.048,70.265Z"/><circle cx="35.048" cy="43.979" r="17.524"/><path d="M148.515,52.741A30.676,30.676,0,0,0,131.43.476a31.292,31.292,0,0,0-4.381-.307H96.382v87.62h17.524V61.5h13.143a13.148,13.148,0,0,1,13.143,13.143V87.789h17.523V74.646a30.613,30.613,0,0,0-9.2-21.9Zm-21.466-8.762H113.906V17.693h13.143a13.143,13.143,0,0,1,0,26.286Z"/><path d="M131.43.169V.476a31.292,31.292,0,0,0-4.381-.307Z"/><rect x="587.052" y="0.169" width="17.524" height="87.62"/><polygon points="438.099 70.265 438.099 87.789 376.765 87.789 376.765 0.169 394.289 0.169 394.289 70.265 438.099 70.265"/><rect x="683.434" y="0.169" width="17.524" height="87.62"/><polygon points="184.001 17.693 184.001 35.217 227.811 35.217 227.811 52.741 184.001 52.741 184.001 70.265 227.811 70.265 227.811 87.789 166.477 87.789 166.477 0.169 227.811 0.169 227.811 17.693 184.001 17.693"/><polygon points="297.907 0.169 276.002 87.789 258.478 87.789 236.573 0.169 254.097 0.169 267.24 52.741 280.383 0.169 297.907 0.169"/><path d="M486.289.169H468.765l-21.9,87.62h17.524l4.38-17.524h17.524l4.381,17.524h17.524ZM473.146,52.741l4.381-17.524,4.381,17.524Z"/><polygon points="324.193 17.693 324.193 35.217 368.003 35.217 368.003 52.741 324.193 52.741 324.193 70.265 368.003 70.265 368.003 87.789 306.669 87.789 306.669 0.169 368.003 0.169 368.003 17.693 324.193 17.693"/><polygon points="578.29 0.169 578.29 17.693 556.385 17.693 556.385 87.789 538.861 87.789 538.861 17.693 516.956 17.693 516.956 0.169 578.29 0.169"/><path d="M674.365,26.455a30.676,30.676,0,0,0-60.72,0,31.27,31.27,0,0,0-.307,4.381V57.122a31.281,31.281,0,0,0,.307,4.381,30.676,30.676,0,0,0,60.72,0,31.281,31.281,0,0,0,.307-4.381V30.836A31.27,31.27,0,0,0,674.365,26.455Zm-30.36,43.81A13.142,13.142,0,0,1,630.95,58.594c-.027-.018-.062-.027-.088-.044V29.408c.026-.018.061-.027.088-.044a13.137,13.137,0,0,1,26.11,0c.026.017.062.026.088.044V58.55c-.026.017-.062.026-.088.044A13.143,13.143,0,0,1,644.005,70.265Z"/><path d="M756.594,43.81a26.283,26.283,0,1,1-45.869,17.524h17.524a8.762,8.762,0,1,0,8.762-8.762A26.286,26.286,0,1,1,763.3,26.286H745.773a8.762,8.762,0,1,0-8.762,8.762A26.193,26.193,0,0,1,756.594,43.81Z"/></svg>