<svg xmlns="http://www.w3.org/2000/svg" viewBox="0 0 1488.148 220"><defs><style>.cls-1{fill:#366ce1;}.cls-2{fill:#121221;}</style></defs><title>revolut for business</title><g id="Слой_2" data-name="Слой 2"><g id="Work_space" data-name="Work space"><g id="revolut_for_business" data-name="revolut for business"><rect class="cls-1" y="40" width="10" height="140"/><path class="cls-2" d="M120,90A50.005,50.005,0,0,0,70,40H20V180H30V140H70c.95,0,1.9-.03,2.84-.09L112.93,180l7.07-7.07L84.83,137.76A50.032,50.032,0,0,0,120,90ZM70,130H30V50H70a40,40,0,0,1,6.54,79.46A39.178,39.178,0,0,1,70,130Z"/><path class="cls-2" d="M219.75,125a50,50,0,0,0-99.5,0,50.125,50.125,0,0,0,0,10,49.992,49.992,0,0,0,85.1,30.35l-7.07-7.07A40,40,0,0,1,130.31,135h89.44a50.125,50.125,0,0,0,0-10ZM170,90a40.006,40.006,0,0,1,39.69,35H130.31A40.006,40.006,0,0,1,170,90Z"/><polygon class="cls-1" points="388.148 20 388.148 40 468.148 40 468.148 60 388.148 60 388.148 80 468.148 80 468.148 100 368.148 100 368.148 0 468.148 0 468.148 20 388.148 20"/><path class="cls-1" d="M878.148,0V50a50,50,0,0,1-100,0V0h20V50a30,30,0,0,0,60,0V0Z"/><polygon class="cls-1" points="778.148 80 778.148 100 678.148 100 678.148 0 698.148 0 698.148 80 778.148 80"/><polygon class="cls-1" points="578.148 0 538.928 98.07 538.158 100 518.158 100 517.388 98.07 478.168 0 499.708 0 528.158 71.14 556.618 0 578.148 0"/><path class="cls-1" d="M358.148,30a30,30,0,0,0-30-30h-70V100h20V60h50a10,10,0,0,1,10,10v30h20V70a29.862,29.862,0,0,0-7.65-20A29.862,29.862,0,0,0,358.148,30Zm-80,10V20h50a10,10,0,0,1,0,20Z"/><path class="cls-1" d="M618.148,0a50,50,0,1,0,50,50A50.005,50.005,0,0,0,618.148,0Zm0,80a30,30,0,1,1,30-30A30,30,0,0,1,618.148,80Z"/><polygon class="cls-1" points="988.148 0 988.148 20 948.148 20 948.148 100 928.148 100 928.148 20 888.148 20 888.148 0 988.148 0"/><path class="cls-2" d="M398.148,120a50,50,0,1,0,50,50A50.005,50.005,0,0,0,398.148,120Zm0,90a40,40,0,1,1,40-40A40,40,0,0,1,398.148,210Z"/><polygon class="cls-2" points="1178.148 130 1178.148 165 1268.148 165 1268.148 175 1178.148 175 1178.148 210 1268.148 210 1268.148 220 1168.148 220 1168.148 120 1268.148 120 1268.148 130 1178.148 130"/><path class="cls-2" d="M544.718,175a29.994,29.994,0,0,0-16.57-55h-70V220h10V180h60a19.994,19.994,0,0,1,20,20v20h10V200A29.923,29.923,0,0,0,544.718,175Zm-26.57-2.96-.02-.04h.02Zm10-2.04h-60V130h60a20,20,0,0,1,0,40Z"/><path class="cls-2" d="M888.148,147.5a17.506,17.506,0,0,0,17.5,17.5h45a27.5,27.5,0,0,1,7.5,53.95,26.911,26.911,0,0,1-7.5,1.05h-72.5V210h72.5a17.5,17.5,0,1,0,0-35h-45a27.5,27.5,0,0,1-7.5-53.95,26.911,26.911,0,0,1,7.5-1.05h72.5v10h-72.5A17.506,17.506,0,0,0,888.148,147.5Z"/><path class="cls-2" d="M1288.148,147.5a17.506,17.506,0,0,0,17.5,17.5h45a27.5,27.5,0,0,1,7.5,53.95,26.911,26.911,0,0,1-7.5,1.05h-72.5V210h72.5a17.5,17.5,0,0,0,0-35h-45a27.5,27.5,0,0,1-7.5-53.95,26.911,26.911,0,0,1,7.5-1.05h72.5v10h-72.5A17.506,17.506,0,0,0,1288.148,147.5Z"/><path class="cls-2" d="M1398.148,147.5a17.506,17.506,0,0,0,17.5,17.5h45a27.5,27.5,0,0,1,7.5,53.95,26.911,26.911,0,0,1-7.5,1.05h-72.5V210h72.5a17.5,17.5,0,0,0,0-35h-45a27.5,27.5,0,0,1-7.5-53.95,26.911,26.911,0,0,1,7.5-1.05h72.5v10h-72.5A17.506,17.506,0,0,0,1398.148,147.5Z"/><polygon class="cls-2" points="1023.148 130 1023.148 210 1048.148 210 1048.148 220 988.148 220 988.148 210 1013.148 210 1013.148 130 988.148 130 988.148 120 1048.148 120 1048.148 130 1023.148 130"/><polygon class="cls-2" points="1158.148 120 1158.148 220 1148.218 220 1148.148 219.92 1068.148 134.59 1068.148 220 1058.148 220 1058.148 120 1068.168 120 1148.148 205.3 1148.148 120 1158.148 120"/><path class="cls-2" d="M746.458,170a27.493,27.493,0,0,0-8.31-48.95,26.911,26.911,0,0,0-7.5-1.05h-72.5V220h72.5a26.911,26.911,0,0,0,7.5-1.05,27.483,27.483,0,0,0,8.31-48.95Zm-78.31-40h62.5a17.5,17.5,0,0,1,0,35h-62.5Zm62.5,80h-62.5V175h62.5a17.5,17.5,0,0,1,0,35Z"/><path class="cls-2" d="M868.148,120v50a50,50,0,0,1-100,0V120h10v50a40,40,0,0,0,80,0V120Z"/><polygon class="cls-2" points="268.148 130 268.148 165 328.148 165 328.148 175 268.148 175 268.148 220 258.148 220 258.148 120 358.148 120 358.148 130 268.148 130"/></g></g></g></svg>