<svg xmlns="http://www.w3.org/2000/svg" viewBox="0 0 920.832 205"><defs><style>.cls-1{fill:#121221;}.cls-2{fill:#366ce1;}</style></defs><title>reward gateaway</title><g id="Complete"><g id="reward_gateway" data-name="reward gateway"><path class="cls-1" d="M321.57,452.5a29.994,29.994,0,0,0-16.57-55H235v100h10v-40h60a19.994,19.994,0,0,1,20,20v20h10v-20A29.923,29.923,0,0,0,321.57,452.5ZM295,449.54l-.02-.04H295Zm10-2.04H245v-40h60a20,20,0,0,1,0,40Z" transform="translate(-79.168 -397.5)"/><path class="cls-1" d="M751.57,452.5a29.994,29.994,0,0,0-16.57-55H665v100h10v-40h60a19.994,19.994,0,0,1,20,20v20h10v-20A29.923,29.923,0,0,0,751.57,452.5ZM725,449.54l-.02-.04H725Zm10-2.04H675v-40h60a20,20,0,0,1,0,40Z" transform="translate(-79.168 -397.5)"/><polygon class="cls-1" points="275.832 10 275.832 45 365.832 45 365.832 55 275.832 55 275.832 90 365.832 90 365.832 100 265.832 100 265.832 0 365.832 0 365.832 10 275.832 10"/><path class="cls-1" d="M634.72,452.5l-4.51-10L610.5,398.77l.01-.01-.49-1.08h-.01l-.08-.18h-9.84l-.08.18v.02l-.47,1.05h-.01L579.81,442.5l-4.51,10-20.28,45h10.97l20.28-45h37.48l20.28,45H655Zm-19.71-2.96-.02-.04h.02Zm-24.23-7.04,14.23-31.58,14.24,31.58Z" transform="translate(-79.168 -397.5)"/><path class="cls-1" d="M535.01,497.43v.03l-.01.04h-9.97l-20.01-78.98Q495.011,458.011,485,497.5h-9.99l-.01-.01Q460,447.5,445.01,397.5h10.44l24.18,80.57,20.24-79.9.14-.56.03-.11h9.97l.17.66,20.23,79.83,24.15-80.49H565Q550,447.465,535.01,497.43Z" transform="translate(-79.168 -397.5)"/><path class="cls-1" d="M825,397.5H775v100h50a50,50,0,0,0,0-100Zm0,90H785v-80h40a40,40,0,0,1,0,80Z" transform="translate(-79.168 -397.5)"/><polygon class="cls-2" points="883.662 151.46 880.832 155 880.882 155 880.882 205 860.882 205 860.882 155 858.052 151.46 820.882 105 846.492 105 870.852 135.45 895.212 105 920.832 105 883.662 151.46"/><polygon class="cls-2" points="430.832 105 430.832 125 390.832 125 390.832 205 370.832 205 370.832 125 330.832 125 330.832 105 430.832 105"/><polygon class="cls-2" points="460.832 125 460.832 145 540.832 145 540.832 165 460.832 165 460.832 185 540.832 185 540.832 205 440.832 205 440.832 105 540.832 105 540.832 125 460.832 125"/><path class="cls-2" d="M690.77,504.45l-.78-1.95H670.01l-.78,1.94L630,602.5h21.55l11.2-28h34.5l11.2,28H730ZM670.75,554.5,680,531.37l9.25,23.13Z" transform="translate(-79.168 -397.5)"/><path class="cls-2" d="M890.77,504.45l-.78-1.95H870.01l-.78,1.94L830,602.5h21.55l11.2-28h34.5l11.2,28H930ZM870.75,554.5,880,531.37l9.25,23.13Z" transform="translate(-79.168 -397.5)"/><path class="cls-2" d="M390.77,504.45l-.78-1.95H370.01l-.78,1.94L330,602.5h21.55l11.2-28h34.5l11.2,28H430ZM370.75,554.5,380,531.37l9.25,23.13Z" transform="translate(-79.168 -397.5)"/><path class="cls-2" d="M335,542.5v10a49.16,49.16,0,0,1-1.01,10,50.013,50.013,0,1,1-13.64-45.35l-14.14,14.14a30,30,0,1,0,7.07,31.21H285v-20Z" transform="translate(-79.168 -397.5)"/><path class="cls-2" d="M819.26,502.5,804.8,560.36l-14.56-56.71-.3-1.15H775.03l-.03.11v-.11h-5.12l-.29,1.16-14.54,56.59L740.62,502.5H720v.02l24.61,98.41.39,1.57h19.86l.38-1.5,14.67-57.13,14.7,57.24.35,1.39h15.03l.01-.04v.04h4.87l.37-1.46,24.64-98.54ZM800,553.49v.04l-.02-.04Zm0,47.53-.19.61.19-.64Z" transform="translate(-79.168 -397.5)"/><polygon class="cls-2" points="720.832 156.03 720.812 155.99 720.832 155.99 720.832 156.03"/><polygon class="cls-2" points="720.832 203.52 720.642 204.13 720.832 203.49 720.832 203.52"/><polygon class="cls-2" points="720.832 203.52 720.642 204.13 720.832 203.49 720.832 203.52"/><polygon class="cls-2" points="0 130.488 1.001 72.765 51.502 44.773 100.984 74.512 99.983 132.235 49.482 160.227 0 130.488"/><path class="cls-1" d="M179.151,529.735l-49.454-32L79.168,527.988" transform="translate(-79.168 -397.5)"/><path class="cls-1" d="M130.67,442.273q-.487,27.732-.973,55.464l49.454,32" transform="translate(-79.168 -397.5)"/><path class="cls-1" d="M130.655,442.948q-.478,27.395-.958,54.789L79.168,527.988" transform="translate(-79.168 -397.5)"/></g></g></svg>