<svg xmlns="http://www.w3.org/2000/svg" viewBox="0 0 319.98 100"><defs><style>.cls-1{fill:#121221;}</style></defs><title>rex</title><g id="Слой_2" data-name="Слой 2"><g id="Work_space" data-name="Work space"><g id="rex"><polygon class="cls-1" points="130 20 130 40 210 40 210 60 130 60 130 80 210 80 210 100 110 100 110 0 210 0 210 20 130 20"/><path class="cls-1" d="M100,30A30,30,0,0,0,70,0H0V100H20V60H70A10,10,0,0,1,80,70v30h20V70a29.862,29.862,0,0,0-7.65-20A29.862,29.862,0,0,0,100,30ZM20,40V20H70a10,10,0,0,1,0,20Z"/><polygon class="cls-1" points="282.48 50.03 319.93 100 294.94 100 269.99 66.7 245.03 100 220.05 100 257.49 50.03 220 0 244.98 0 269.99 33.36 294.99 0 319.98 0 282.48 50.03"/></g></g></g></svg>