<svg xmlns="http://www.w3.org/2000/svg" viewBox="0 0 260 100"><defs><style>.cls-1{fill:#121221;}.cls-2{fill:#366ce1;}</style></defs><title>rit</title><g id="Слой_2" data-name="Слой 2"><g id="Work_space" data-name="Work space"><g id="rit"><path class="cls-1" d="M100,30a29.791,29.791,0,0,0-1.71-10H70a10,10,0,0,1,0,20H20V20H0v80H20V60H70A10,10,0,0,1,80,70v30h20V70a29.862,29.862,0,0,0-7.65-20A29.862,29.862,0,0,0,100,30Z"/><polygon class="cls-1" points="180 80 180 100 80 100 80 80 120 80 120 20 140 20 140 80 180 80"/><rect class="cls-1" x="200" y="20" width="20" height="80"/><rect class="cls-2" width="260" height="20"/></g></g></g></svg>