<svg xmlns="http://www.w3.org/2000/svg" viewBox="0 0 828.413 240.832"><defs><style>.cls-1{fill:#366ce1;}.cls-2{fill:#121221;}</style></defs><title>RobinHood</title><g id="Слой_2" data-name="Слой 2"><g id="Work_space" data-name="Work space"><g id="RobinHood"><path class="cls-1" d="M100,100.416a30,30,0,0,0-30-30H0v100H20v-40H70a10,10,0,0,1,10,10v30h20v-30a29.862,29.862,0,0,0-7.65-20A29.862,29.862,0,0,0,100,100.416Zm-80,10v-20H70a10,10,0,0,1,0,20Z"/><path class="cls-1" d="M219.222,98.988a35.516,35.516,0,0,0-21.428,7.15V70.416H183.508V134.7a35.715,35.715,0,1,0,35.714-35.714Zm0,57.142A21.429,21.429,0,1,1,240.651,134.7,21.427,21.427,0,0,1,219.222,156.13Z"/><path class="cls-2" d="M601.588,134.7a35.714,35.714,0,1,0,71.428,0V70.416H658.73v35.722A35.707,35.707,0,0,0,601.588,134.7Zm14.285,0A21.429,21.429,0,1,1,637.3,156.13,21.428,21.428,0,0,1,615.873,134.7Z"/><path class="cls-1" d="M140.651,98.988A35.714,35.714,0,1,0,176.365,134.7,35.717,35.717,0,0,0,140.651,98.988Zm0,57.142A21.429,21.429,0,1,1,162.079,134.7,21.427,21.427,0,0,1,140.651,156.13Z"/><path class="cls-2" d="M558.73,98.988A35.714,35.714,0,1,0,594.445,134.7,35.718,35.718,0,0,0,558.73,98.988Zm0,57.142A21.429,21.429,0,1,1,580.159,134.7,21.427,21.427,0,0,1,558.73,156.13Z"/><path class="cls-2" d="M480.159,98.988A35.714,35.714,0,1,0,515.873,134.7,35.718,35.718,0,0,0,480.159,98.988Zm0,57.142A21.429,21.429,0,1,1,501.588,134.7,21.427,21.427,0,0,1,480.159,156.13Z"/><rect class="cls-1" x="262.873" y="98.988" width="14.286" height="71.429"/><rect class="cls-1" x="262.873" y="77.559" width="14.286" height="14.286"/><path class="cls-1" d="M357.953,134.7v35.714H343.667V134.7a21.429,21.429,0,1,0-42.857,0v35.714H286.524V134.7a35.715,35.715,0,0,1,71.429,0Z"/><path class="cls-2" d="M437.3,134.7v35.714H423.016V134.7a21.429,21.429,0,1,0-42.857,0v35.714H365.873v-100h14.286v35.722A35.707,35.707,0,0,1,437.3,134.7Z"/><ellipse class="cls-2" cx="778.413" cy="111.79" rx="50" ry="111.79"/><path class="cls-1" d="M783.413,35.832v200a5,5,0,0,1-10,0v-200a5,5,0,1,1,10,0Z"/></g></g></g></svg>