<svg xmlns="http://www.w3.org/2000/svg" viewBox="0 0 638.283 100"><defs><style>.cls-1{fill:#121221;}</style></defs><title>roblox</title><g id="Слой_2" data-name="Слой 2"><g id="Work_space" data-name="Work space"><g id="roblox"><polygon class="cls-1" points="430 80 430 100 330 100 330 0 350 0 350 80 430 80"/><path class="cls-1" d="M100,30A30,30,0,0,0,70,0H0V100H20V60H70A10,10,0,0,1,80,70v30h20V70a29.862,29.862,0,0,0-7.65-20A29.862,29.862,0,0,0,100,30ZM20,40V20H70a10,10,0,0,1,0,20Z"/><path class="cls-1" d="M488.3,0a50,50,0,1,0,50,50A50.005,50.005,0,0,0,488.3,0Zm0,80a30,30,0,1,1,30-30A30,30,0,0,1,488.3,80Z"/><path class="cls-1" d="M160,0a50,50,0,1,0,50,50A50.005,50.005,0,0,0,160,0Zm0,80a30,30,0,1,1,30-30A30,30,0,0,1,160,80Z"/><path class="cls-1" d="M320,30A30,30,0,0,0,290,0H220V100h70a29.991,29.991,0,0,0,22.35-50A29.862,29.862,0,0,0,320,30ZM240,20h50a10,10,0,0,1,0,20H240Zm50,60H240V60h50a10,10,0,0,1,0,20Z"/><polygon class="cls-1" points="600.783 50.03 638.233 100 613.243 100 588.293 66.7 563.333 100 538.353 100 575.793 50.03 538.303 0 563.283 0 588.293 33.36 613.293 0 638.283 0 600.783 50.03"/></g></g></g></svg>