<svg xmlns="http://www.w3.org/2000/svg" viewBox="0 0 827.789 258.88"><defs><style>.cls-1,.cls-2{fill:#366ce1;}.cls-1{opacity:0.62;}.cls-2{opacity:0.38;}.cls-3{fill:#121221;}</style></defs><title>Robotics</title><g id="Слой_2" data-name="Слой 2"><g id="Complete"><g id="Robotics"><circle class="cls-1" cx="463.894" cy="51" r="30"/><circle class="cls-2" cx="463.894" cy="50" r="50"/><path class="cls-3" d="M463.894,21h-100a30,30,0,0,0,0,60h100a30,30,0,0,0,0-60Zm0,50h-100a20,20,0,0,1,0-40h100a20,20,0,0,1,0,40Z"/><circle class="cls-1" cx="363.894" cy="51" r="30"/><circle class="cls-3" cx="463.894" cy="51" r="19"/><circle class="cls-2" cx="363.894" cy="50" r="50"/><circle class="cls-3" cx="363.894" cy="51" r="19"/><path class="cls-3" d="M699.079,218.88h20.71a50,50,0,1,1,0-20h-20.71a30,30,0,1,0,0,20Z"/><path class="cls-3" d="M747.789,188.88a10,10,0,0,0,10,10h40a30,30,0,0,1,0,60h-70v-20h70a10,10,0,0,0,0-20h-40a30,30,0,0,1,0-60h70v20h-70A10,10,0,0,0,747.789,188.88Z"/><path class="cls-3" d="M100,188.88a30,30,0,0,0-30-30H0v100H20v-40H70a10,10,0,0,1,10,10v30h20v-30a29.862,29.862,0,0,0-7.65-20A29.862,29.862,0,0,0,100,188.88Zm-80,10v-20H70a10,10,0,0,1,0,20Z"/><path class="cls-3" d="M320,188.88a30,30,0,0,0-30-30H220v100h70a29.991,29.991,0,0,0,22.35-50A29.862,29.862,0,0,0,320,188.88Zm-80-10h50a10,10,0,0,1,0,20H240Zm50,60H240v-20h50a10,10,0,0,1,0,20Z"/><path class="cls-3" d="M380,158.88a50,50,0,1,0,50,50A50.005,50.005,0,0,0,380,158.88Zm0,80a30,30,0,1,1,30-30A30,30,0,0,1,380,238.88Z"/><path class="cls-3" d="M160,158.88a50,50,0,1,0,50,50A50.005,50.005,0,0,0,160,158.88Zm0,80a30,30,0,1,1,30-30A30,30,0,0,1,160,238.88Z"/><polygon class="cls-3" points="589 178.88 589 238.88 619 238.88 619 258.88 539 258.88 539 238.88 569 238.88 569 178.88 539 178.88 539 158.88 619 158.88 619 178.88 589 178.88"/><polygon class="cls-3" points="530 158.88 530 178.88 490 178.88 490 258.88 470 258.88 470 178.88 430 178.88 430 158.88 530 158.88"/></g></g></g></svg>