<svg xmlns="http://www.w3.org/2000/svg" viewBox="0 0 550 210"><defs><style>.cls-1{fill:#121221;}.cls-2{fill:#366ce1;}</style></defs><title>rockworks</title><g id="Слой_2" data-name="Слой 2"><g id="Work_space" data-name="Work space"><g id="rockworks"><path class="cls-1" d="M470,140a10,10,0,0,0,10,10h40a30,30,0,0,1,0,60H450V190h70a10,10,0,0,0,0-20H480a30,30,0,0,1,0-60h70v20H480A10,10,0,0,0,470,140Z"/><path class="cls-2" d="M110,30A30,30,0,0,0,80,0H10V100H30V60H80A10,10,0,0,1,90,70v30h20V70a29.862,29.862,0,0,0-7.65-20A29.862,29.862,0,0,0,110,30ZM30,40V20H80a10,10,0,0,1,0,20Z"/><path class="cls-1" d="M330,140a30,30,0,0,0-30-30H230V210h20V170h50a10,10,0,0,1,10,10v30h20V180a29.862,29.862,0,0,0-7.65-20A29.862,29.862,0,0,0,330,140Zm-80,10V130h50a10,10,0,0,1,0,20Z"/><path class="cls-1" d="M170,35a50,50,0,1,0,50,50A50.005,50.005,0,0,0,170,35Zm0,80a30,30,0,1,1,30-30A30,30,0,0,1,170,115Z"/><path class="cls-2" d="M170,75a50,50,0,1,0,50,50A50.005,50.005,0,0,0,170,75Zm0,80a30,30,0,1,1,30-30A30,30,0,0,1,170,155Z"/><polygon class="cls-2" points="440 134.99 440 135 410.13 135 369.51 98.43 360 107 360 135 340 135 340 35 360 35 360 80.09 369.51 71.52 410.07 35 439.97 35 384.46 84.98 440 134.99"/><polygon class="cls-1" points="440 174.99 440 175 410.13 175 369.51 138.43 360 147 360 175 340 175 340 75 360 75 360 120.09 369.51 111.52 410.07 75 439.97 75 384.46 124.98 440 174.99"/><path class="cls-2" d="M309.29,60H330a50,50,0,1,1,0-20H309.29a30,30,0,1,0,0,20Z"/><path class="cls-1" d="M99.26,110,84.8,167.86,70.24,111.15l-.3-1.15H55.03l-.03.11V110H49.88l-.29,1.16L35.05,167.75,20.62,110H0v.02l24.61,98.41L25,210H44.86l.38-1.5,14.67-57.13,14.7,57.24.35,1.39H89.99l.01-.04V210h4.87l.37-1.46L119.88,110ZM80,160.99v.04l-.02-.04Zm0,47.53-.19.61.19-.64Z"/><polygon class="cls-1" points="80 161.03 79.98 160.99 80 160.99 80 161.03"/><polygon class="cls-1" points="80 208.52 79.81 209.13 80 208.49 80 208.52"/><polygon class="cls-1" points="80 208.52 79.81 209.13 80 208.49 80 208.52"/></g></g></g></svg>