<svg xmlns="http://www.w3.org/2000/svg" viewBox="0 0 550.353 180"><title>rocket</title><path d="M50.353,20q-1.515,9.8-2.85,20-.81,6.21-1.55,12.57Q44.258,67.075,43,82.31q-.735,8.73-1.28,17.69c-.05.66-.09,1.33-.13,1.99q-.825,13.74-1.24,28.01c-.49,17.29-.45,33.97,0,50h-40c-.45-16.03-.49-32.71,0-50a887.222,887.222,0,0,1,10-110Z"/><path d="M130.353,70a50.012,50.012,0,0,1-38.36,48.63L80.353,100h-10a30,30,0,1,0,0-60H47.5q1.335-10.2,2.85-20h30A50.005,50.005,0,0,1,130.353,70Z"/><path d="M50.353,20q-1.515,9.8-2.85,20H20.353V20Z"/><path d="M130.353,180h-40a120.782,120.782,0,0,0-20-50,120.1,120.1,0,0,0-30-30h40a147.891,147.891,0,0,1,20,20A152.781,152.781,0,0,1,130.353,180Z"/><path d="M175.353,110a35,35,0,1,0,35,35A35,35,0,0,0,175.353,110Zm0,50a15,15,0,1,1,15-15A15.005,15.005,0,0,1,175.353,160Z"/><path d="M405.373,160h-.02a14.728,14.728,0,0,1-2.32-.18c-.26-.04-.51-.09-.76-.14s-.5-.11-.75-.18a6.914,6.914,0,0,1-.74-.22,7,7,0,0,1-.73-.25,14.2,14.2,0,0,1-1.39-.6.558.558,0,0,1-.08-.05c-.21-.1-.42-.22-.63-.34a6.443,6.443,0,0,1-.66-.4c-.22-.13-.43-.28-.64-.43-.17-.12-.33-.24-.49-.36s-.3-.23-.44-.36-.29-.24-.43-.37a7.385,7.385,0,0,1-.63-.62,3.853,3.853,0,0,1-.35-.35h.01l35.51-15.17.08-.04a35.21,35.21,0,0,0,7.07-9.94c-.35-.74-.73-1.46-1.13-2.17-.34-.61-.7-1.21-1.09-1.79-.09-.15-.19-.3-.29-.45-.15-.23-.31-.46-.47-.69-.08-.12-.17-.24-.26-.36-.36-.51-.75-1.01-1.14-1.5-.09-.12-.19-.23-.29-.35-.22-.27-.45-.54-.68-.8a35.4,35.4,0,0,0-4.38-4.19c-.32-.25-.64-.5-.96-.74-.65-.49-1.32-.95-2-1.39-.34-.22-.69-.44-1.04-.64-.4-.25-.82-.49-1.24-.7-.27-.16-.54-.3-.82-.44-.15-.08-.31-.16-.48-.23-.49-.25-.99-.48-1.5-.7-.27-.11-.54-.23-.82-.34s-.55-.21-.83-.32-.55-.21-.83-.3-.56-.19-.85-.28c-.56-.17-1.12-.34-1.69-.49-.01-.01-.01-.01-.02,0-.54-.14-1.09-.27-1.64-.39a32.884,32.884,0,0,0-3.62-.56l-.97-.09c-.42-.03-.85-.05-1.29-.07s-.86-.02-1.3-.02c-.91,0-1.8.03-2.69.1q-.885.075-1.77.18c-.32.04-.65.09-.97.14-.54.08-1.09.18-1.62.29s-1.07.23-1.6.37c-.28.07-.57.15-.85.23-.58.16-1.16.34-1.72.53-.54.19-1.07.38-1.6.59-.32.12-.63.24-.93.38-.4.17-.79.34-1.17.52-.6.28-1.18.58-1.76.9-.25.13-.5.27-.74.41q-.555.315-1.11.66c-.27.16-.53.33-.79.51-.32.21-.63.43-.94.65-.23.16-.46.33-.68.49-.41.31-.81.62-1.21.95q-1.065.87-2.07,1.83c-.18.17-.36.35-.53.52-.42.42-.82.85-1.22,1.28-.17.19-.33.38-.5.56-.18.21-.36.43-.54.64s-.35.44-.52.66-.35.44-.52.67-.33.45-.49.68c-.13.18-.26.36-.38.55-.15.22-.3.43-.44.65-.2.3-.39.61-.57.91-.15.25-.3.5-.44.75-.14.23-.27.47-.4.72-.05.08-.1.17-.14.25-.11.21-.22.43-.33.65-.19.37-.37.75-.55,1.13-.35.75-.67,1.52-.97,2.3v.01c-.13.37-.27.74-.4,1.12a.145.145,0,0,0-.02.07c-.13.39-.26.79-.38,1.19-.2.68-.38,1.37-.54,2.06q-.135.54-.24,1.11-.1.51-.18,1.02c-.05.24-.09.48-.12.73-.05.32-.09.65-.13.98-.05.45-.09.91-.13,1.37-.07.89-.1,1.78-.1,2.69s.03,1.8.1,2.69c0,.02.01.04,0,.06a35.6,35.6,0,0,0,.61,4.3c.06.29.12.57.19.85a32.712,32.712,0,0,0,1.03,3.58c.13.36.26.73.41,1.1.15.39.3.78.47,1.17s.34.78.52,1.16c.16.35.33.69.5,1.02.43.84.89,1.65,1.38,2.45.24.41.5.8.77,1.19.32.48.66.95,1,1.41.16.21.32.42.49.63a.634.634,0,0,0,.11.13c.21.28.43.56.67.84a.481.481,0,0,1,.09.11c.24.29.49.57.75.85.06.06.13.13.19.2l.38.41c.2.2.39.4.59.6a34.467,34.467,0,0,0,3.14,2.78c.16.13.32.25.48.37.64.49,1.3.95,1.97,1.39.19.13.38.25.57.37.26.16.51.32.77.46s.51.3.77.44c.27.17.55.32.83.46.25.12.49.25.74.37.54.26,1.07.51,1.62.75.27.11.54.23.82.34.55.22,1.1.42,1.66.62,1.12.38,2.26.71,3.42.98.29.07.58.14.87.2a34.539,34.539,0,0,0,3.69.56c1.12.1,2.25.16,3.4.16.87,0,1.74-.03,2.59-.09a.014.014,0,0,1,.02,0l1.26-.12c.39-.04.77-.09,1.15-.14.47-.08.94-.15,1.41-.24q.525-.09,1.05-.21c.72-.16,1.42-.34,2.12-.54.22-.06.44-.13.66-.19.99-.3,1.95-.64,2.89-1.03.2-.08.4-.16.6-.25.69-.29,1.36-.6,2.01-.94q.555-.27,1.08-.57c.72-.39,1.42-.81,2.1-1.25a35.221,35.221,0,0,0,9.6-9.17c.24-.33.47-.67.69-1.01s.44-.68.65-1.03.42-.69.62-1.05c.16-.27.31-.55.45-.83.11-.19.2-.37.29-.56.13-.26.26-.52.38-.79a34.741,34.741,0,0,0-7.12-9.99A34.944,34.944,0,0,1,405.373,160Zm-15.02-15c0-.33.01-.65.04-.97a1.274,1.274,0,0,1,.02-.28,9.043,9.043,0,0,1,.1-.91c.05-.36.11-.72.19-1.07q.105-.465.24-.93a1.71,1.71,0,0,1,.09-.3c.08-.27.17-.53.27-.8a.355.355,0,0,1,.04-.09c.11-.31.25-.63.39-.93s.28-.58.43-.87c.04-.06.07-.13.11-.19.13-.23.27-.46.41-.68a13.676,13.676,0,0,1,1.2-1.63,3.67,3.67,0,0,1,.37-.43,10.911,10.911,0,0,1,1.02-1.02,6.06,6.06,0,0,1,.54-.47c.26-.22.54-.43.82-.63.21-.15.43-.3.65-.43a1.957,1.957,0,0,1,.3-.2c.27-.16.55-.32.84-.47a10.9,10.9,0,0,1,1.04-.49,7.221,7.221,0,0,1,.72-.29c.24-.09.47-.17.71-.24.01-.01.01-.01.02,0a13.317,13.317,0,0,1,2.61-.56c.1-.02.2-.03.3-.04.22-.02.43-.04.64-.05.29-.02.59-.03.89-.03a15.022,15.022,0,0,1,11.04,4.85l-26.01,11.11Q390.353,145.48,390.353,145Z"/><path d="M394.313,155.15h.01c.11.12.22.24.34.35A3.853,3.853,0,0,1,394.313,155.15Z"/><path d="M393.973,178.1c1.12.38,2.26.71,3.42.98A29.842,29.842,0,0,1,393.973,178.1Z"/><path d="M395.273,133.9a12.272,12.272,0,0,0-1.02,1.02A10.911,10.911,0,0,1,395.273,133.9Z"/><path d="M429.833,139.98l.08-.04-.06.06Z"/><path d="M436.983,160q-.18.39-.39.78c.13-.26.26-.52.38-.79Z"/><path d="M279.853,150a35.012,35.012,0,0,1,7.13,10,35,35,0,1,1,0-30,35.012,35.012,0,0,1-7.13,10,34.931,34.931,0,0,0-24.5-10,15,15,0,0,0,0,30A34.931,34.931,0,0,0,279.853,150Z"/><rect x="320.353" y="150" height="20"/><path d="M550.353,70A82.562,82.562,0,0,0,499.1,60c0,12.765.386,26.117,1.25,40a648.868,648.868,0,0,0,10,80h-50a649.253,649.253,0,0,0,10-80c.863-13.883,1.245-27.235,1.25-40a82.562,82.562,0,0,0-51.25,10q5-25,10-50H450.7a35.026,35.026,0,0,0,22.06,27.66l2.06-21.99a14.969,14.969,0,0,0,21.06,0l2.06,21.99A35.026,35.026,0,0,0,520,20h20.35Q545.353,45,550.353,70Z"/><path d="M500.353,15a15,15,0,0,1-30,0,15,15,0,0,1,30,0Z"/><path d="M370.353,180h-30c-.94-4.08-4.22-16.3-14.49-25.71a40.785,40.785,0,0,0-5.51-4.29c-.28-.18-.55-.36-.83-.53q.105,15.855.83,30.53h-20V20h30a726.02,726.02,0,0,0-10,90q-.54,11.34-.73,22.22c.01.01.01.01.02.01l12.21-12.21a32.925,32.925,0,0,1,3.56-3.06,35.035,35.035,0,0,1,33.02-4.82,34.831,34.831,0,0,1,1.91,12.12,34.959,34.959,0,0,0-24.48,10.03l-6.54,6.54A69.456,69.456,0,0,1,370.353,180Z"/></svg>