<svg xmlns="http://www.w3.org/2000/svg" viewBox="0 0 690 90"><defs><style>.a{opacity:0.47;}</style></defs><title>rogers n cowan</title><path d="M109.5,20A25,25,0,0,0,60,25V65a25,25,0,1,0,50,0V25A25.013,25.013,0,0,0,109.5,20ZM85,80A15.005,15.005,0,0,1,70,65V25a15,15,0,0,1,30,0V65A15.005,15.005,0,0,1,85,80Z"/><path d="M479.5,20A25,25,0,0,0,430,25V65a25,25,0,1,0,50,0V25A25.013,25.013,0,0,0,479.5,20ZM455,80a15.005,15.005,0,0,1-15-15V25a15,15,0,0,1,30,0V65A15.005,15.005,0,0,1,455,80Z"/><path d="M410,30V25a15,15,0,0,0-30,0V65a15,15,0,0,0,30,0V60h10v5a25,25,0,1,1-50,0V25a25,25,0,1,1,50,0v5Z"/><path class="a" d="M349.5,20H339.14a14.965,14.965,0,0,1,0,10A15,15,0,0,1,325,40a24.9,24.9,0,0,1,15,5,25.042,25.042,0,0,0,9.5-25Z"/><path class="a" d="M360,89.5V79.14a14.965,14.965,0,0,1-10,0A15,15,0,0,1,340,65a24.9,24.9,0,0,1-5,15,25.042,25.042,0,0,0,25,9.5Z"/><path class="a" d="M310,45a25.042,25.042,0,0,0-9.5,25h10.36a14.965,14.965,0,0,1,0-10A15,15,0,0,1,325,50,24.9,24.9,0,0,1,310,45Z"/><path d="M350,65a25,25,0,0,1-49.5,5h10.36A15,15,0,1,0,325,50a25,25,0,1,1,24.5-30H339.14A15,15,0,1,0,325,40a25,25,0,0,1,25,25Z"/><path d="M280,45A24.991,24.991,0,0,0,265,0H240V90h10V50h15a15.005,15.005,0,0,1,15,15V90h10V65a24.938,24.938,0,0,0-10-20Zm-15-5H250V10h15a15,15,0,0,1,0,30Z"/><path d="M40,45A24.991,24.991,0,0,0,25,0H0V90H20V50h5A15.005,15.005,0,0,1,40,65V90H50V65A24.938,24.938,0,0,0,40,45ZM25,40H20V10h5a15,15,0,0,1,0,30Z"/><path d="M160,30V25a15,15,0,0,0-30,0V65a15,15,0,0,0,30,0V50H140V40h30V65a25,25,0,1,1-50,0V25a25,25,0,1,1,50,0v5Z"/><rect x="180" y="80" width="50" height="10"/><rect x="180" y="40" width="50" height="10"/><rect x="180" width="50" height="10"/><rect x="180" width="10" height="90"/><path d="M570,0V65a25,25,0,0,1-40,20,24.987,24.987,0,0,1-40-20V0h10V65a14.995,14.995,0,0,0,23.33,12.47,15.216,15.216,0,0,0,1.67-1.3V0h10V76.17a15.216,15.216,0,0,0,1.67,1.3A14.995,14.995,0,0,0,560,65V0Z"/><path d="M629.5,20A25,25,0,0,0,580,25V90h10V50h30V90h10V25A25.013,25.013,0,0,0,629.5,20ZM620,40H590V25a15,15,0,0,1,30,0Z"/><rect x="640" width="10" height="90"/><rect x="680" width="10" height="90"/><path d="M640,0h10l40,90H680Z"/></svg>