<svg xmlns="http://www.w3.org/2000/svg" viewBox="0 0 985 150"><defs><style>.cls-1{fill:#121221;}.cls-2{fill:#366ce1;}</style></defs><title>roirenue</title><g id="Слой_2" data-name="Слой 2"><g id="Work_space" data-name="Work space"><g id="roirenue"><polygon class="cls-1" points="260 45 260 105 280 105 280 125 220 125 220 105 240 105 240 45 220 45 220 25 280 25 280 45 260 45"/><polygon class="cls-1" points="610 25 610 125 590 125 530 55.59 530 125 510 125 510 25 530 25 590 94.41 590 25 610 25"/><polygon class="cls-1" points="420 45 420 65 500 65 500 85 420 85 420 105 500 105 500 125 400 125 400 25 500 25 500 45 420 45"/><polygon class="cls-1" points="750 45 750 65 830 65 830 85 750 85 750 105 830 105 830 125 730 125 730 25 830 25 830 45 750 45"/><path class="cls-1" d="M390,55a30,30,0,0,0-30-30H290V125h20V85h50a10,10,0,0,1,10,10v30h20V95a29.862,29.862,0,0,0-7.65-20A29.862,29.862,0,0,0,390,55ZM310,65V45h50a10,10,0,0,1,0,20Z"/><path class="cls-1" d="M100,55A30,30,0,0,0,70,25H0V125H20V85H70A10,10,0,0,1,80,95v30h20V95a29.862,29.862,0,0,0-7.65-20A29.862,29.862,0,0,0,100,55ZM20,65V45H70a10,10,0,0,1,0,20Z"/><path class="cls-1" d="M160,25a50,50,0,1,0,50,50A50.005,50.005,0,0,0,160,25Zm0,80a30,30,0,1,1,30-30A30,30,0,0,1,160,105Z"/><path class="cls-1" d="M720,25V75a50,50,0,0,1-100,0V25h20V75a30,30,0,0,0,60,0V25Z"/><circle class="cls-1" cx="910" cy="75" r="75"/><path class="cls-2" d="M909.607,65h-25.35a2.986,2.986,0,0,0-.724,5.883l36.11,9.028A26.875,26.875,0,0,1,940,105.984V125h20V85a9.985,9.985,0,0,0-4.094-8.07,5.42,5.42,0,0,1-1.073-7.458A28.175,28.175,0,0,0,960,55a27.552,27.552,0,0,0-1.875-11.545A29.477,29.477,0,0,0,930.517,25H876.092l-3.313,23.651L910.392,59.4A2.856,2.856,0,0,1,909.607,65Z"/></g></g></g></svg>