<svg xmlns="http://www.w3.org/2000/svg" viewBox="0 0 560 100"><defs><style>.cls-1{fill:#366ce1;}.cls-2{fill:#121221;}</style></defs><title>roku</title><g id="Слой_2" data-name="Слой 2"><g id="Work_space" data-name="Work space"><g id="roku"><path class="cls-1" d="M555.69,70.31a50.018,50.018,0,0,1-25.38,25.38A30,30,0,0,1,555.69,70.31Z"/><path class="cls-1" d="M555.69,29.68A29.953,29.953,0,0,1,530.32,4.31,50.054,50.054,0,0,1,555.69,29.68Z"/><path class="cls-1" d="M539.69,45.69a50.018,50.018,0,0,1-25.38-25.38A30,30,0,0,1,539.69,45.69Z"/><path class="cls-1" d="M489.68,95.69a50.054,50.054,0,0,1-25.37-25.37A29.953,29.953,0,0,1,489.68,95.69Z"/><path class="cls-1" d="M505.69,79.69a30,30,0,0,1-25.38-25.38A50.018,50.018,0,0,1,505.69,79.69Z"/><path class="cls-1" d="M539.69,54.31a30,30,0,0,1-25.38,25.38A50.018,50.018,0,0,1,539.69,54.31Z"/><path class="cls-1" d="M560,50a50,50,0,0,0-50,50,49.879,49.879,0,0,0-4.3-20.31h-.01a50.018,50.018,0,0,0-25.38-25.38V54.3A49.879,49.879,0,0,0,460,50a49.879,49.879,0,0,0,20.31-4.3v-.01a50.018,50.018,0,0,0,25.38-25.38h.01A49.879,49.879,0,0,0,510,0a49.879,49.879,0,0,0,4.3,20.31h.01a50.018,50.018,0,0,0,25.38,25.38v.01A49.879,49.879,0,0,0,560,50Z"/><path class="cls-2" d="M539.69,45.7v-.01a30,30,0,0,0-25.38-25.38h-.01A49.879,49.879,0,0,1,510,0a49.722,49.722,0,0,1,20.31,4.31h.01a29.953,29.953,0,0,0,25.37,25.37v.01A49.722,49.722,0,0,1,560,50,49.879,49.879,0,0,1,539.69,45.7Z"/><path class="cls-2" d="M510,100a49.722,49.722,0,0,1-20.31-4.31h-.01a29.953,29.953,0,0,0-25.37-25.37v-.01A49.722,49.722,0,0,1,460,50a49.879,49.879,0,0,1,20.31,4.3v.01a30,30,0,0,0,25.38,25.38h.01A49.879,49.879,0,0,1,510,100Z"/><path class="cls-2" d="M560,50a49.722,49.722,0,0,1-4.31,20.31,30,30,0,0,0-25.38,25.38A49.722,49.722,0,0,1,510,100a49.722,49.722,0,0,1,4.31-20.31,30,30,0,0,0,25.38-25.38A49.722,49.722,0,0,1,560,50Z"/><path class="cls-1" d="M489.68,4.31a29.953,29.953,0,0,1-25.37,25.37A50.054,50.054,0,0,1,489.68,4.31Z"/><path class="cls-1" d="M505.69,20.31a50.018,50.018,0,0,1-25.38,25.38A30,30,0,0,1,505.69,20.31Z"/><path class="cls-2" d="M510,0a49.879,49.879,0,0,1-4.3,20.31h-.01a30,30,0,0,0-25.38,25.38v.01A49.879,49.879,0,0,1,460,50a49.722,49.722,0,0,1,4.31-20.31v-.01A29.953,29.953,0,0,0,489.68,4.31h.01A49.722,49.722,0,0,1,510,0Z"/><path class="cls-2" d="M100,30A30,30,0,0,0,70,0H0V100H20V60H70A10,10,0,0,1,80,70v30h20V70a29.862,29.862,0,0,0-7.65-20A29.862,29.862,0,0,0,100,30ZM20,40V20H70a10,10,0,0,1,0,20Z"/><path class="cls-2" d="M160,0a50,50,0,1,0,50,50A50.005,50.005,0,0,0,160,0Zm0,80a30,30,0,1,1,30-30A30,30,0,0,1,160,80Z"/><polygon class="cls-2" points="320 99.99 320 100 290.13 100 249.51 63.43 240 72 240 100 220 100 220 0 240 0 240 45.09 249.51 36.52 290.07 0 319.97 0 264.46 49.98 320 99.99"/><path class="cls-2" d="M430,0V50a50,50,0,0,1-100,0V0h20V50a30,30,0,0,0,60,0V0Z"/></g></g></g></svg>