<svg xmlns="http://www.w3.org/2000/svg" viewBox="0 0 482.606 100"><defs><style>.cls-1{fill:#121221;}</style></defs><title>roybi</title><g id="Слой_2" data-name="Слой 2"><g id="Work_space" data-name="Work space"><g id="roybi"><polygon class="cls-1" points="462.606 20 462.606 80 482.606 80 482.606 100 422.606 100 422.606 80 442.606 80 442.606 20 422.606 20 422.606 0 482.606 0 482.606 20 462.606 20"/><path class="cls-1" d="M92.35,50A29.862,29.862,0,0,1,100,70v30H80V70A10,10,0,0,0,70,60H20v40H0V40H70a10,10,0,0,0,0-20H0V0H70A29.991,29.991,0,0,1,92.35,50Z"/><path class="cls-1" d="M160,0a50,50,0,1,0,50,50A50.005,50.005,0,0,0,160,0Zm0,80a30,30,0,1,1,30-30A30,30,0,0,1,160,80Z"/><path class="cls-1" d="M412.61,30a30,30,0,0,0-30-30h-70V20h70a10,10,0,0,1,0,20h-70v60h70a29.991,29.991,0,0,0,22.35-50A29.862,29.862,0,0,0,412.61,30Zm-30,50h-50V60h50a10,10,0,0,1,0,20Z"/><polygon class="cls-1" points="265.386 46.46 262.556 50 262.606 50 262.606 100 242.606 100 242.606 50 239.776 46.46 202.606 0 228.216 0 252.576 30.45 276.936 0 302.556 0 265.386 46.46"/></g></g></g></svg>