<svg xmlns="http://www.w3.org/2000/svg" viewBox="0 0 300 275.716"><defs><style>.cls-1{fill:#366ce1;}.cls-2{fill:#121221;}</style></defs><title>RPA automate</title><g id="Слой_2" data-name="Слой 2"><g id="Work_space" data-name="Work space"><g id="RPA_automate" data-name="RPA automate"><path class="cls-1" d="M235.105,14.647a50.005,50.005,0,0,0-70.71,0l14.142,14.142a30,30,0,1,1,0,42.426L164.4,85.358a50,50,0,0,0,70.71-70.711Z"/><polygon class="cls-2" points="150.252 28.789 164.395 14.647 199.75 50.002 164.395 85.358 150.252 71.215 171.466 50.002 150.252 28.789"/><path class="cls-2" d="M64.9,85.353a50.005,50.005,0,0,0,70.71,0L121.463,71.211a30,30,0,1,1,0-42.426L135.6,14.642A50,50,0,1,0,64.9,85.353Z"/><polygon class="cls-1" points="149.748 71.211 135.605 85.353 100.25 49.998 135.605 14.642 149.748 28.785 128.534 49.998 149.748 71.211"/><path class="cls-1" d="M100,154.284a30,30,0,0,0-30-30H0v100H20v-40H70a10,10,0,0,1,10,10v30h20v-30a29.862,29.862,0,0,0-7.65-20A29.862,29.862,0,0,0,100,154.284Zm-80,10v-20H70a10,10,0,0,1,0,20Z"/><path class="cls-1" d="M260.77,126.234l-.78-1.95H240.01l-.78,1.94L200,224.284h21.55l11.2-28h34.5l11.2,28H300Zm-20.02,50.05,9.25-23.13,9.25,23.13Z"/><path class="cls-1" d="M180,124.284H110v100h20v-40h50a30,30,0,1,0,0-60Zm0,40H130v-20h50a10,10,0,0,1,0,20Z"/><path class="cls-2" d="M133.607,243.063a16.326,16.326,0,1,0,16.326,16.326A16.327,16.327,0,0,0,133.607,243.063Zm0,26.121a9.8,9.8,0,1,1,9.8-9.8A9.795,9.795,0,0,1,133.607,269.184Z"/><path class="cls-2" d="M27.779,230.894,27.422,230H18.289l-.356.887L0,275.714H9.851l5.119-12.8H30.741l5.119,12.8h9.851Zm-9.152,22.878L22.856,243.2l4.228,10.573Z"/><path class="cls-2" d="M221.637,243.064v2.89c-15.741-9.531-32.158,6.243-23.92,22a15.413,15.413,0,0,0,5.521,5.537c6.8,3.576,13.616,2.554,18.4-1.045v3.269h6.53V243.064ZM219.884,265.3a6.359,6.359,0,0,1-2.136,2.135c-9.713,5.91-19.858-4.235-13.948-13.949a6.365,6.365,0,0,1,2.135-2.135c7.716-4.7,15.7.738,15.7,8.039A11.351,11.351,0,0,1,219.884,265.3Z"/><path class="cls-2" d="M192.642,254.491v21.223h-6.53V254.491a4.9,4.9,0,1,0-9.795,0v21.223h-6.531V254.491a4.9,4.9,0,1,0-9.795,0v21.223h-6.53V243.063h6.53v1.1a11.441,11.441,0,0,1,13.061,2.328,11.431,11.431,0,0,1,19.476,6.367A11.7,11.7,0,0,1,192.642,254.491Z"/><path class="cls-2" d="M299.67,262.654a16.322,16.322,0,0,0,0-6.531,16.326,16.326,0,0,0-31.992,0,16.37,16.37,0,0,0,0,6.531,16.322,16.322,0,0,0,26.993,8.8q-2.6-2.082-5.2-4.163a9.793,9.793,0,0,1-15.026-4.633Zm-16-13.061a9.788,9.788,0,0,1,9.234,6.53H274.441A9.788,9.788,0,0,1,283.674,249.593Z"/><path class="cls-2" d="M45.711,259.389V243.063h6.531v16.326a9.795,9.795,0,1,0,19.59,0V243.063h6.531v32.651H71.832v-3.268a16.323,16.323,0,0,1-26.121-13.057Z"/><path class="cls-2" d="M114.278,259.389a16.326,16.326,0,0,1-32.651,0V230h6.53v13.061h9.8v6.53h-9.8v9.8a9.8,9.8,0,0,0,19.591,0Z"/><path class="cls-2" d="M264.084,259.389a16.326,16.326,0,0,1-32.652,0V230h6.53v13.061h9.8v6.53h-9.8v9.8a9.8,9.8,0,0,0,19.591,0Z"/></g></g></g></svg>