<svg xmlns="http://www.w3.org/2000/svg" viewBox="0 0 650 100"><defs><style>.cls-1{fill:#121221;}</style></defs><title>rubrik</title><g id="Слой_2" data-name="Слой 2"><g id="Work_space" data-name="Work space"><g id="rubrik"><path class="cls-1" d="M446.57,55A29.994,29.994,0,0,0,430,0H360V100h10V60h60a19.994,19.994,0,0,1,20,20v20h10V80A29.923,29.923,0,0,0,446.57,55ZM420,52.04l-.02-.04H420ZM430,50H370V10h60a20,20,0,0,1,0,40Z"/><path class="cls-1" d="M86.57,55A29.994,29.994,0,0,0,70,0H0V100H10V60H70A19.994,19.994,0,0,1,90,80v20h10V80A29.923,29.923,0,0,0,86.57,55ZM60,52.04,59.98,52H60ZM70,50H10V10H70a20,20,0,0,1,0,40Z"/><polygon class="cls-1" points="505 10 505 90 520 90 520 100 480 100 480 90 495 90 495 10 480 10 480 0 520 0 520 10 505 10"/><path class="cls-1" d="M328.31,50A27.493,27.493,0,0,0,320,1.05,26.911,26.911,0,0,0,312.5,0H240V100h72.5a26.911,26.911,0,0,0,7.5-1.05A27.483,27.483,0,0,0,328.31,50ZM250,10h62.5a17.5,17.5,0,0,1,0,35H250Zm62.5,80H250V55h62.5a17.5,17.5,0,0,1,0,35Z"/><path class="cls-1" d="M220,0V50a50,50,0,0,1-100,0V0h10V50a40,40,0,0,0,80,0V0Z"/><polygon class="cls-1" points="650 100 635.85 100 592.91 57.05 560 89.97 560 100 550 100 550 0 560 0 560 75.83 585.84 49.98 592.91 42.91 635.82 0 649.96 0 599.98 49.98 650 100"/></g></g></g></svg>