<svg xmlns="http://www.w3.org/2000/svg" viewBox="0 0 599.98 100"><defs><style>.cls-1{fill:#366ce1;}.cls-2,.cls-3{fill:#121221;}.cls-2{opacity:0.38;}.cls-3{opacity:0.62;}</style></defs><title>saama</title><g id="Слой_2" data-name="Слой 2"><g id="Work_space" data-name="Work space"><g id="saama"><path class="cls-1" d="M20,30A10,10,0,0,0,30,40H70a30,30,0,0,1,0,60H0V80H70a10,10,0,0,0,0-20H30A30,30,0,0,1,30,0h70V20H30A10,10,0,0,0,20,30Z"/><polygon class="cls-1" points="319.98 100 280.76 1.93 279.99 0 259.99 0 259.22 1.93 220 100 241.54 100 269.99 28.86 298.45 100 319.98 100"/><polygon class="cls-1" points="209.98 100 170.76 1.93 169.99 0 149.99 0 149.22 1.93 110 100 131.54 100 159.99 28.86 188.45 100 209.98 100"/><polygon class="cls-1" points="429.98 100 390.76 1.93 389.99 0 369.99 0 369.22 1.93 330 100 351.54 100 379.99 28.86 408.45 100 429.98 100"/><polygon class="cls-1" points="490 100 450.78 1.93 450.01 0 430.01 0 429.24 1.93 390.02 100 411.56 100 440.01 28.86 468.47 100 490 100"/><polygon class="cls-1" points="599.98 100 560.76 1.93 559.99 0 539.99 0 539.22 1.93 500 100 521.54 100 549.99 28.86 578.45 100 599.98 100"/><polygon class="cls-2" points="319.98 100 280.76 1.93 279.99 0 259.99 0 259.22 1.93 220 100 241.54 100 269.99 28.86 298.45 100 319.98 100"/><polygon class="cls-2" points="209.98 100 170.76 1.93 169.99 0 149.99 0 149.22 1.93 110 100 131.54 100 159.99 28.86 188.45 100 209.98 100"/><polygon class="cls-2" points="429.98 100 390.76 1.93 389.99 0 369.99 0 369.22 1.93 330 100 351.54 100 379.99 28.86 408.45 100 429.98 100"/><polygon class="cls-3" points="490 100 450.78 1.93 450.01 0 430.01 0 429.24 1.93 390.02 100 411.56 100 440.01 28.86 468.47 100 490 100"/><polygon class="cls-2" points="599.98 100 560.76 1.93 559.99 0 539.99 0 539.22 1.93 500 100 521.54 100 549.99 28.86 578.45 100 599.98 100"/></g></g></g></svg>