<svg xmlns="http://www.w3.org/2000/svg" viewBox="0 0 990.318 220"><defs><style>.cls-1{fill:#121221;}.cls-2{fill:#366ce1;}</style></defs><title>safely deposit</title><g id="Слой_2" data-name="Слой 2"><g id="Work_space" data-name="Work space"><g id="safely_deposit" data-name="safely deposit"><path class="cls-1" d="M890.318,1.513l-8.66,5-8.66-5L773,174.723l8.66,5v10h200v-10l8.66-5Zm-91.34,168.21,82.68-143.21,82.68,143.21Z"/><path class="cls-2" d="M882.5,68.723,833,118.22l49.5,49.5,49.5-49.5Zm0,80.433L851.56,118.22,882.5,87.285l30.936,30.935Z"/><rect class="cls-1" x="860.621" y="96.345" width="43.75" height="43.75" transform="translate(174.883 658.645) rotate(-45)"/><polygon class="cls-2" points="240 20 240 40 300 40 300 60 240 60 240 100 220 100 220 0 320 0 320 20 240 20"/><polygon class="cls-1" points="590 140 590 200 610 200 610 220 550 220 550 200 570 200 570 140 550 140 550 120 610 120 610 140 590 140"/><path class="cls-1" d="M50,120H0V220H50a50,50,0,0,0,0-100Zm0,80H20V140H50a30,30,0,0,1,0,60Z"/><path class="cls-1" d="M460,150a10,10,0,0,0,10,10h40a30,30,0,0,1,0,60H440V200h70a10,10,0,0,0,0-20H470a30,30,0,0,1,0-60h70v20H470A10,10,0,0,0,460,150Z"/><path class="cls-2" d="M20,30A10,10,0,0,0,30,40H70a30,30,0,0,1,0,60H0V80H70a10,10,0,0,0,0-20H30A30,30,0,0,1,30,0h70V20H30A10,10,0,0,0,20,30Z"/><polygon class="cls-2" points="350 20 350 40 430 40 430 60 350 60 350 80 430 80 430 100 330 100 330 0 430 0 430 20 350 20"/><polygon class="cls-1" points="130 140 130 160 210 160 210 180 130 180 130 200 210 200 210 220 110 220 110 120 210 120 210 140 130 140"/><polygon class="cls-2" points="540 80 540 100 440 100 440 0 460 0 460 80 540 80"/><path class="cls-1" d="M380,120a50,50,0,1,0,50,50A50.005,50.005,0,0,0,380,120Zm0,80a30,30,0,1,1,30-30A30,30,0,0,1,380,200Z"/><path class="cls-2" d="M170.77,1.95,169.99,0H150.01l-.78,1.94L110,100h21.55l11.2-28h34.5l11.2,28H210ZM150.75,52,160,28.87,169.25,52Z"/><path class="cls-1" d="M290,120H220V220h20V180h50a30,30,0,0,0,0-60Zm0,40H240V140h50a10,10,0,0,1,0,20Z"/><polygon class="cls-1" points="720 120 720 140 680 140 680 220 660 220 660 140 620 140 620 120 720 120"/><polygon class="cls-2" points="582.83 46.46 580 50 580.05 50 580.05 100 560.05 100 560.05 50 557.22 46.46 520.05 0 545.66 0 570.02 30.45 594.38 0 620 0 582.83 46.46"/></g></g></g></svg>