<svg xmlns="http://www.w3.org/2000/svg" viewBox="0 0 530 220"><defs><style>.cls-1{fill:#366ce1;}.cls-2{fill:#121221;}</style></defs><title>sage cloud</title><g id="Слой_2" data-name="Слой 2"><g id="Work_space" data-name="Work space"><g id="sage_cloud" data-name="sage cloud"><path class="cls-1" d="M480,120H430V220h50a50,50,0,0,0,0-100Zm0,80H450V140h30a30,30,0,0,1,0,60Z"/><path class="cls-2" d="M20,30A10,10,0,0,0,30,40H70a30,30,0,0,1,0,60H0V80H70a10,10,0,0,0,0-20H30A30,30,0,0,1,30,0h70V20H30A10,10,0,0,0,20,30Z"/><polygon class="cls-2" points="330 20 330 40 410 40 410 60 330 60 330 80 410 80 410 100 310 100 310 0 410 0 410 20 330 20"/><polygon class="cls-1" points="210 200 210 220 110 220 110 120 130 120 130 200 210 200"/><path class="cls-1" d="M260,120a50,50,0,1,0,50,50A50.005,50.005,0,0,0,260,120Zm0,80a30,30,0,1,1,30-30A30,30,0,0,1,260,200Z"/><path class="cls-1" d="M78.28,180H98.99a50,50,0,1,1,0-20H78.28a30,30,0,1,0,0,20Z"/><path class="cls-2" d="M160.77,1.95,159.99,0H140.01l-.78,1.94L100,100h21.55l11.2-28h34.5l11.2,28H200ZM140.75,52,150,28.87,159.25,52Z"/><path class="cls-2" d="M300,40V50a49.16,49.16,0,0,1-1.01,10,50.013,50.013,0,1,1-13.64-45.35L271.21,28.79A30,30,0,1,0,278.28,60H250V40Z"/><path class="cls-1" d="M420,120v50a50,50,0,0,1-100,0V120h20v50a30,30,0,0,0,60,0V120Z"/></g></g></g></svg>