<svg xmlns="http://www.w3.org/2000/svg" viewBox="0 0 1105 100.673"><defs><style>.cls-1{fill:#366ce1;}.cls-2{fill:#121221;}</style></defs><title>Sage intacct</title><g id="Слой_2" data-name="Слой 2"><g id="Work_space" data-name="Work space"><g id="Sage_intacct" data-name="Sage intacct"><polygon class="cls-1" points="510 20 510 80 530 80 530 100 470 100 470 80 490 80 490 20 470 20 470 0 530 0 530 20 510 20"/><polygon class="cls-1" points="640 0 640 100 620 100 560 30.59 560 100 540 100 540 0 560 0 620 69.41 620 0 640 0"/><path class="cls-2" d="M20,30A10,10,0,0,0,30,40H70a30,30,0,0,1,0,60H0V80H70a10,10,0,0,0,0-20H30A30,30,0,0,1,30,0h70V20H30A10,10,0,0,0,20,30Z"/><polygon class="cls-2" points="330 20 330 40 410 40 410 60 330 60 330 80 410 80 410 100 310 100 310 0 410 0 410 20 330 20"/><path class="cls-2" d="M160.77,1.95,159.99,0H140.01l-.78,1.94L100,100h21.55l11.2-28h34.5l11.2,28H200ZM140.75,52,150,28.87,159.25,52Z"/><path class="cls-1" d="M790.77,1.95,789.99,0H770.01l-.78,1.94L730,100h21.55l11.2-28h34.5l11.2,28H830ZM770.75,52,780,28.87,789.25,52Z"/><path class="cls-2" d="M300,40V50a49.16,49.16,0,0,1-1.01,10,50.013,50.013,0,1,1-13.64-45.35L271.21,28.79A30,30,0,1,0,278.28,60H250V40Z"/><polygon class="cls-1" points="750 0 750 20 710 20 710 100 690 100 690 20 650 20 650 0 750 0"/><polygon class="cls-1" points="1105 0 1105 20 1065 20 1065 100 1045 100 1045 20 1005 20 1005 0 1105 0"/><path class="cls-1" d="M908.207,48.674A49.746,49.746,0,0,1,918.4,20.379,50,50,0,1,0,917.9,80.3,49.76,49.76,0,0,1,908.207,48.674ZM876.931,79.98A30,30,0,1,1,908.105,51.2,30,30,0,0,1,876.931,79.98Z"/><path class="cls-2" d="M960.164.712A49.924,49.924,0,0,0,918.4,20.379,49.962,49.962,0,0,1,917.9,80.3,50,50,0,1,0,960.164.712Zm-3.2,79.936a30,30,0,1,1,31.175-28.777A30,30,0,0,1,956.968,80.648Z"/></g></g></g></svg>