<svg xmlns="http://www.w3.org/2000/svg" viewBox="0 0 840 200"><defs><style>.cls-1{fill:#121221;}.cls-2{fill:#366ce1;}</style></defs><title>salesscreen</title><g id="Complete"><g id="salesscreen"><path class="cls-1" d="M150,400a50,50,0,0,0,0,100h50V450A50.005,50.005,0,0,0,150,400Zm-30,50a30,30,0,0,1,60,0v30H150A30,30,0,0,1,120,450Z" transform="translate(-100 -400)"/><path class="cls-2" d="M200,600a50,50,0,0,0,0-100H150v50A50.005,50.005,0,0,0,200,600Zm30-50a30,30,0,0,1-60,0V520h30A30,30,0,0,1,230,550Z" transform="translate(-100 -400)"/><path class="cls-2" d="M478.28,560h20.71a50,50,0,1,1,0-20H478.28a30,30,0,1,0,0,20Z" transform="translate(-100 -400)"/><polygon class="cls-2" points="840 100 840 200 820 200 760 130.59 760 200 740 200 740 100 760 100 820 169.41 820 100 840 100"/><path class="cls-2" d="M310,530a10,10,0,0,0,10,10h40a30,30,0,0,1,0,60H290V580h70a10,10,0,0,0,0-20H320a30,30,0,0,1,0-60h70v20H320A10,10,0,0,0,310,530Z" transform="translate(-100 -400)"/><polygon class="cls-2" points="540 120 540 140 620 140 620 160 540 160 540 180 620 180 620 200 520 200 520 100 620 100 620 120 540 120"/><polygon class="cls-2" points="650 120 650 140 730 140 730 160 650 160 650 180 730 180 730 200 630 200 630 100 730 100 730 120 650 120"/><path class="cls-2" d="M610,530a30,30,0,0,0-30-30H510V600h20V560h50a10,10,0,0,1,10,10v30h20V570a29.862,29.862,0,0,0-7.65-20A29.862,29.862,0,0,0,610,530Zm-80,10V520h50a10,10,0,0,1,0,20Z" transform="translate(-100 -400)"/><path class="cls-1" d="M270,430a10,10,0,0,0,10,10h40a30,30,0,0,1,0,60H250V480h70a10,10,0,0,0,0-20H280a30,30,0,0,1,0-60h70v20H280A10,10,0,0,0,270,430Z" transform="translate(-100 -400)"/><path class="cls-1" d="M700,430a10,10,0,0,0,10,10h40a30,30,0,0,1,0,60H680V480h70a10,10,0,0,0,0-20H710a30,30,0,0,1,0-60h70v20H710A10,10,0,0,0,700,430Z" transform="translate(-100 -400)"/><polygon class="cls-1" points="490 20 490 40 570 40 570 60 490 60 490 80 570 80 570 100 470 100 470 0 570 0 570 20 490 20"/><polygon class="cls-1" points="460 80 460 100 360 100 360 0 380 0 380 80 460 80"/><path class="cls-1" d="M410.77,401.95l-.78-1.95H390.01l-.78,1.94L350,500h21.55l11.2-28h34.5l11.2,28H450ZM390.75,452,400,428.87,409.25,452Z" transform="translate(-100 -400)"/></g></g></svg>