<svg id="Complete" xmlns="http://www.w3.org/2000/svg" viewBox="0 0 870 340"><defs><style>.cls-1,.cls-4{fill:#366ce1;}.cls-1{opacity:0.62;}.cls-2,.cls-3{fill:#121221;}.cls-2{opacity:0.38;}</style></defs><title>samepage</title><g id="samepage"><circle class="cls-1" cx="375" cy="50" r="50"/><circle class="cls-1" cx="495" cy="50" r="50"/><circle class="cls-1" cx="495" cy="170" r="50"/><circle class="cls-1" cx="375" cy="170" r="50"/><rect class="cls-2" x="385" y="60" width="100" height="100"/><path class="cls-3" d="M575,600H505V700h20V660h50a30,30,0,0,0,0-60Zm0,40H525V620h50a10,10,0,0,1,0,20Z" transform="translate(-65 -360)"/><path class="cls-4" d="M225,600a50.005,50.005,0,0,0-50,50v50h20V660h60v40h20V650A50.005,50.005,0,0,0,225,600Zm-28.28,40a29.994,29.994,0,0,1,56.56,0Z" transform="translate(-65 -360)"/><path class="cls-3" d="M665,600a50.005,50.005,0,0,0-50,50v50h20V660h60v40h20V650A50.005,50.005,0,0,0,665,600Zm-28.28,40a29.994,29.994,0,0,1,56.56,0Z" transform="translate(-65 -360)"/><path class="cls-4" d="M85,630a10,10,0,0,0,10,10h40a30,30,0,0,1,0,60H65V680h70a10,10,0,0,0,0-20H95a30,30,0,0,1,0-60h70v20H95A10,10,0,0,0,85,630Z" transform="translate(-65 -360)"/><path class="cls-4" d="M385,630v70H365V630a10,10,0,0,0-20,0v70H325V630a10,10,0,0,0-20,0v70H285V630a29.979,29.979,0,0,1,20-28.28,29.957,29.957,0,0,1,30,5.93A29.991,29.991,0,0,1,385,630Z" transform="translate(-65 -360)"/><polygon class="cls-4" points="350 260 350 280 430 280 430 300 350 300 350 320 430 320 430 340 330 340 330 240 430 240 430 260 350 260"/><polygon class="cls-3" points="790 260 790 280 870 280 870 300 790 300 790 320 870 320 870 340 770 340 770 240 870 240 870 260 790 260"/><path class="cls-3" d="M825,650a49.16,49.16,0,0,1-1.01,10,50.013,50.013,0,1,1-13.64-45.35l-14.14,14.14A29.994,29.994,0,1,0,803.28,660H775V640h48.99A49.16,49.16,0,0,1,825,650Z" transform="translate(-65 -360)"/></g></svg>