<svg xmlns="http://www.w3.org/2000/svg" viewBox="0 0 640 200"><defs><style>.cls-1{fill:#366ce1;}.cls-2{fill:#121221;}</style></defs><title>sapdesk</title><g id="Complete"><g id="capdesc"><path class="cls-1" d="M278.28,510h20.71a50,50,0,1,1,0-20H278.28a30,30,0,1,0,0,20Z" transform="translate(-200 -400)"/><path class="cls-2" d="M650,480a10,10,0,0,0,10,10h40a30,30,0,0,1,0,60H630V530h70a10,10,0,0,0,0-20H660a30,30,0,0,1,0-60h70v20H660A10,10,0,0,0,650,480Z" transform="translate(-200 -400)"/><path class="cls-2" d="M460,500H410V600h50a50,50,0,0,0,0-100Zm0,80H430V520h30a30,30,0,0,1,0,60Z" transform="translate(-200 -400)"/><polygon class="cls-2" points="340 70 340 90 420 90 420 110 340 110 340 130 420 130 420 150 320 150 320 50 420 50 420 70 340 70"/><polygon class="cls-2" points="640 149.99 640 150 610.13 150 569.51 113.43 560 122 560 150 540 150 540 50 560 50 560 95.09 569.51 86.52 610.07 50 639.97 50 584.46 99.98 640 149.99"/><path class="cls-1" d="M359.76,451.95l-.78-1.95H339l-.78,1.94L298.99,550h21.55l11.2-28h34.5l11.2,28h21.55ZM339.74,502l9.25-23.13L358.24,502Z" transform="translate(-200 -400)"/><path class="cls-1" d="M410,430v70H510V480H470V430a30,30,0,0,0-60,0Zm40,0v50H430V430a10,10,0,0,1,20,0Z" transform="translate(-200 -400)"/></g></g></svg>