<svg xmlns="http://www.w3.org/2000/svg" viewBox="0 0 1120 190.493"><defs><style>.cls-1{fill:#366ce1;}.cls-2{fill:#121221;}</style></defs><title>saveshare tv</title><g id="Слой_2" data-name="Слой 2"><g id="Work_space" data-name="Work space"><g id="saveshare_tv" data-name="saveshare tv"><polygon class="cls-1" points="1120 130.486 1120 130.5 1016.073 190.493 912.139 130.5 912.139 130.486 1016.073 70.493 1120 130.486"/><polygon class="cls-2" points="1099.98 40 1060.76 138.07 1059.99 140 1039.99 140 1039.22 138.07 1000 40 1021.54 40 1049.99 111.14 1078.45 40 1099.98 40"/><path class="cls-2" d="M1040,90a50,50,0,0,1-100,0V0h20V50.01A49.726,49.726,0,0,1,990,40V60a30,30,0,1,0,30,30Z"/><polygon class="cls-1" points="309.98 40 270.76 138.07 269.99 140 249.99 140 249.22 138.07 210 40 231.54 40 259.99 111.14 288.45 40 309.98 40"/><path class="cls-1" d="M190.992,49.472C142.485,19,91.344,67.64,116.737,116.235c3.188,6.1,10.816,13.754,16.91,16.959,20.821,10.949,41.7,7.818,56.353-3.2V140h20V83.985A40.743,40.743,0,0,0,190.992,49.472Zm-12.9,65.161c-29.752,18.1-60.828-12.976-42.728-42.728a19.578,19.578,0,0,1,6.538-6.538c29.752-18.1,60.828,12.976,42.728,42.728A19.578,19.578,0,0,1,178.1,114.633Z"/><path class="cls-1" d="M408.99,100a50.01,50.01,0,0,0,0-20,50,50,0,0,0-97.98,0,50.01,50.01,0,0,0,0,20,49.987,49.987,0,0,0,82.67,26.94q-7.965-6.375-15.94-12.75A29.992,29.992,0,0,1,331.72,100ZM360,60a29.979,29.979,0,0,1,28.28,20H331.72A29.979,29.979,0,0,1,360,60Z"/><path class="cls-1" d="M100,90a49.16,49.16,0,0,1-1.01,10,49.991,49.991,0,0,1-84.34,25.35l14.14-14.14A29.99,29.99,0,0,0,78.28,100H1.01a50.01,50.01,0,0,1,0-20A49.991,49.991,0,0,1,85.35,54.65L71.21,68.79A29.99,29.99,0,0,0,21.72,80H98.99A49.16,49.16,0,0,1,100,90Z"/><path class="cls-1" d="M720.992,49.472C672.485,19,621.344,67.64,646.737,116.235c3.188,6.1,10.816,13.754,16.91,16.959,20.821,10.949,41.7,7.818,56.353-3.2V140h20V83.985A40.743,40.743,0,0,0,720.992,49.472Zm-12.9,65.161c-29.752,18.1-60.828-12.976-42.728-42.728a19.578,19.578,0,0,1,6.538-6.538c29.752-18.1,60.828,12.976,42.728,42.728A19.578,19.578,0,0,1,708.1,114.633Z"/><path class="cls-1" d="M918.99,100a50.01,50.01,0,0,0,0-20,50,50,0,0,0-97.98,0,50.01,50.01,0,0,0,0,20,49.987,49.987,0,0,0,82.67,26.94q-7.965-6.375-15.94-12.75A29.992,29.992,0,0,1,841.72,100ZM870,60a29.979,29.979,0,0,1,28.28,20H841.72A29.979,29.979,0,0,1,870,60Z"/><path class="cls-1" d="M825.72,47.13q-5.145,8.58-10.29,17.15A29.99,29.99,0,0,0,770,90v50H750V40h20V50.01a49.958,49.958,0,0,1,55.72-2.88Z"/><path class="cls-1" d="M520,90a49.16,49.16,0,0,1-1.01,10,49.991,49.991,0,0,1-84.34,25.35l14.14-14.14A29.99,29.99,0,0,0,498.28,100H421.01a50.01,50.01,0,0,1,0-20,49.991,49.991,0,0,1,84.34-25.35L491.21,68.79A29.99,29.99,0,0,0,441.72,80h77.27A49.16,49.16,0,0,1,520,90Z"/><path class="cls-1" d="M630,90v50H610V90a30,30,0,0,0-60,0v50H530V0h20V50.01A49.99,49.99,0,0,1,630,90Z"/></g></g></g></svg>