<svg xmlns="http://www.w3.org/2000/svg" viewBox="0 0 400 310"><title>sb</title><path d="M215.353,14.642a50,50,0,1,0,0,70.711A50.006,50.006,0,0,0,215.353,14.642ZM158.785,71.211a30,30,0,1,1,42.426,0A30,30,0,0,1,158.785,71.211Z"/><path d="M257.779,14.642a50,50,0,1,0,0,70.711A50.005,50.005,0,0,0,257.779,14.642ZM201.211,71.211a30,30,0,1,1,42.426,0A30,30,0,0,1,201.211,71.211Z"/><path d="M20,165a35,35,0,0,0,35,35h90a55,55,0,0,1,5,109.77c-1.64.15-3.31.23-5,.23H0V290H145a35,35,0,0,0,0-70H55a55,55,0,0,1-5-109.77c1.64-.15,3.31-.23,5-.23H200v20H55A35,35,0,0,0,20,165Z"/><path d="M155,110c-1.69,0-3.36.08-5,.23V110Z"/><path d="M350,309.77V310h-5C346.69,310,348.36,309.92,350,309.77Z"/><path d="M400,255a54.99,54.99,0,0,1-50,54.77c-1.64.15-3.31.23-5,.23H200V290H345a35,35,0,0,0,0-70h5v-.23c-1.64.15-3.31.23-5,.23H200V200H345c1.69,0,3.36.08,5,.23V200h-5a35,35,0,0,0,0-70H200V110H345c1.69,0,3.36.08,5,.23A55,55,0,0,1,376.62,210,54.9,54.9,0,0,1,400,255Z"/><path d="M350,200v.23c-1.64-.15-3.31-.23-5-.23Z"/><path d="M345,220c1.69,0,3.36-.08,5-.23V220Z"/><path d="M350,110v.23c-1.64-.15-3.31-.23-5-.23Z"/></svg>