<svg id="Main" xmlns="http://www.w3.org/2000/svg" viewBox="0 0 453.221 384.82"><defs><style>.cls-1{fill:#366ce1;}.cls-2{fill:#121221;}</style></defs><title>scala</title><path class="cls-1" d="M470.311,677.4a50,50,0,1,1-.711-70.69l-21.839,21.84a19.1,19.1,0,1,0,.709,27.01Z" transform="translate(-273.39 -307.59)"/><path class="cls-1" d="M561.98,607.037a49.987,49.987,0,0,0-85.339,35.86v49.51H507.53v-10.19h38.19v10.19h30.89V641.9A49.807,49.807,0,0,0,561.98,607.037Zm-54.45,44.29V642.9a19.1,19.1,0,1,1,38.19-1v9.43Z" transform="translate(-273.39 -307.59)"/><rect class="cls-1" x="313.221" y="222.924" width="30.889" height="161.8"/><path class="cls-1" d="M711.98,607.037a49.987,49.987,0,0,0-85.339,35.86v49.51H657.53v-10.19h38.19v10.19h30.89V641.9A49.807,49.807,0,0,0,711.98,607.037Zm-54.45,44.29V642.9a19.1,19.1,0,1,1,38.19-1v9.43Z" transform="translate(-273.39 -307.59)"/><path class="cls-1" d="M378.6,644.325c.009.152.009.314.009.467a47.57,47.57,0,0,1-47.129,47.615H321.472a47.575,47.575,0,0,1-48.082-47.13h29.416a18.136,18.136,0,0,0,8.619,14.99l2.276-2.276a18.208,18.208,0,0,0,25.722-.676l2.228,2.228a16.432,16.432,0,0,0,2.219-1.876,18.209,18.209,0,0,0,5.333-12.875h-.009a18.11,18.11,0,0,0-5.324-12.38c-.133-.134-.267-.267-.409-.4a18.175,18.175,0,0,0-12.933-4.933v-2.1a47.314,47.314,0,0,1-8.1.733c-.114.01-.228.01-.343.01h-.171c-.753,0-1.505-.019-2.248-.057h-.038a47.833,47.833,0,0,1-10.894-1.848l.066.067A47.587,47.587,0,0,1,274.342,578.6h.009a47.579,47.579,0,0,1,47.121-48.082h10.009a47.576,47.576,0,0,1,47.129,47.13H349.194a18.149,18.149,0,0,0-5.324-12.389,17.917,17.917,0,0,0-2.609-2.162l-1.838,1.838a18.208,18.208,0,0,0-25.722.676l-2.305-2.3a18.494,18.494,0,0,0-2.3,1.953,18.171,18.171,0,0,0-.01,25.722c.133.133.267.266.41.39a18.176,18.176,0,0,0,12.932,4.933v2.105a47.332,47.332,0,0,1,8.1-.734c.476-.009.962,0,1.438.01.181,0,.362,0,.543.009.648.019,1.305.057,1.952.1.4.029.81.067,1.21.105s.79.086,1.181.133a46.075,46.075,0,0,1,7.371,1.533l-.058-.057A47.592,47.592,0,0,1,378.6,644.325Z" transform="translate(-273.39 -307.59)"/><path class="cls-1" d="M500.1,637.044h-.01l-.05.01-.1.02-.03.01v-1.13c.04.32.09.64.16.96C500.075,636.954,500.085,637,500.1,637.044Z" transform="translate(-273.39 -307.59)"/><path class="cls-2" d="M580.978,469.617v24.55a9.429,9.429,0,0,1-.18,1.04,18.017,18.017,0,0,1-.52,1.94c-.05.13-.09.27-.14.4-1.89,5.19-6.54,10.54-13.33,15.67-1.41.79-2.91,1.54-4.49,2.27a102.249,102.249,0,0,1-17.93,6.11h-.03a184.574,184.574,0,0,1-44.28,5.05c-29.61,0-55.5-6.07-69.6-15.14a.01.01,0,0,1-.01-.01c-.83-.52-1.61-1.07-2.36-1.62-5.44-4.04-8.62-8.59-8.9-13.42-.02-.23-.03-.47-.03-.71v-24.66l.03-.01.15-.03h.01a.037.037,0,0,0,.01.03.185.185,0,0,0,.02.07v.03a2.864,2.864,0,0,0,.07.28c1.88,7.24,10.29,12.44,22.82,15.23a113.888,113.888,0,0,0,24.19,2.36,194.859,194.859,0,0,0,40.12-4.46,206.791,206.791,0,0,0,27.04-7.65c5.18-1.87,10.05-3.89,14.55-6.03.31-.14.61-.29.91-.44q2.625-1.26,5.07-2.58a84.123,84.123,0,0,0,17.88-12.4c.06.05.12.09.18.14,4.96,3.72,7.99,7.87,8.62,12.27v.01A10.759,10.759,0,0,1,580.978,469.617Z" transform="translate(-273.39 -307.59)"/><path class="cls-2" d="M500.078,471.057c-28.13,0-52.91-5.48-67.4-13.8,15.78-6.55,43.61-7.33,73.98-.88a200,200,0,0,1,34.26,10.45A188.983,188.983,0,0,1,500.078,471.057Z" transform="translate(-273.39 -307.59)"/><path class="cls-2" d="M580.658,498.447c-1.22,5.45-6.16,10.5-13.85,14.77-1.41.79-2.91,1.54-4.49,2.27a102.249,102.249,0,0,1-17.93,6.11h-.03q-5.1-2.25-10.72-4.28a206.791,206.791,0,0,0-27.04-7.65,194.859,194.859,0,0,0-40.12-4.46c-14.95.01-27.56,2.21-36.01,6.29-.83-.52-1.61-1.07-2.36-1.62-5.44-4.04-8.62-8.59-8.9-13.42-.02-.23-.03-.47-.03-.71v-25.56h.03l.08-.02.06.02h.04a.088.088,0,0,0,.01.07v.03a2.864,2.864,0,0,0,.07.28c1.67,7.02,9.4,12.15,21.07,15.07a109.1,109.1,0,0,0,25.98,2.79,195.115,195.115,0,0,0,40.14-4.46,206.921,206.921,0,0,0,27.02-7.65c5.27-1.91,10.23-3.96,14.8-6.14.21.09.42.19.62.29,15.47,7.46,26.46,16.24,30.38,24.69a15.958,15.958,0,0,1,.63,1.5c.06.16.12.33.17.49a12.4,12.4,0,0,1,.37,1.24A.127.127,0,0,1,580.658,498.447Z" transform="translate(-273.39 -307.59)"/><path class="cls-2" d="M573.558,397.827c-5.14,5.31-12.74,10.55-22.14,15.31a160.011,160.011,0,0,1-17.74,7.59,206.921,206.921,0,0,1-27.02,7.65,195.115,195.115,0,0,1-40.14,4.46c-25.82-.02-44.65-6.56-47.12-18.14a.585.585,0,0,1-.02-.13h-.02l-.18.04v-1.16c.04-.32.09-.64.16-.96.01-.03.01-.06.02-.09,1.06-4.83,4.99-8.78,11.09-11.74.01,0,.01-.01.02-.01a.01.01,0,0,0,.01.01c14.1,9.07,39.99,15.14,69.6,15.14a184.574,184.574,0,0,0,44.28-5.05h.03c.44-.11.87-.22,1.3-.34a99.42,99.42,0,0,0,16.63-5.77c1.58-.73,3.08-1.48,4.49-2.27A43.1,43.1,0,0,0,573.558,397.827Z" transform="translate(-273.39 -307.59)"/><path class="cls-2" d="M419.338,412.487c-.07.32-.12.64-.16.96v-1.78l.18.04h.02a.585.585,0,0,1,.02-.13c.99-4.66,4.63-8.5,10.31-11.43,15.09-7.78,44.57-9.13,76.95-2.25a194.538,194.538,0,0,1,39.03,12.51c-.43.12-.86.23-1.3.34h-.03a184.574,184.574,0,0,1-44.28,5.05c-29.61,0-55.5-6.07-69.6-15.14a.01.01,0,0,1-.01-.01c-.01,0-.01.01-.02.01-6.1,2.96-10.03,6.91-11.09,11.74C419.348,412.427,419.348,412.457,419.338,412.487Z" transform="translate(-273.39 -307.59)"/><path class="cls-2" d="M575.078,451.757c-.86,1-1.81,1.99-2.85,2.98a84.223,84.223,0,0,1-18.61,12.85q-2.475,1.32-5.12,2.58c-.01,0-.01.01-.02.01-4.57,2.18-9.53,4.23-14.8,6.14a206.921,206.921,0,0,1-27.02,7.65,195.115,195.115,0,0,1-40.14,4.46,109.1,109.1,0,0,1-25.98-2.79c-11.67-2.92-19.4-8.05-21.07-15.07a2.864,2.864,0,0,1-.07-.28v-.03a.088.088,0,0,1-.01-.07h-.01v-.03a.355.355,0,0,1,.02-.1,12.367,12.367,0,0,1,1.27-3.4c2.09-3.85,6.25-7.01,12.01-9.4,14.49,8.32,39.27,13.8,67.4,13.8a188.983,188.983,0,0,0,40.84-4.23c2.58-.57,5.07-1.2,7.45-1.88C560.158,461.6,569.478,457.037,575.078,451.757Z" transform="translate(-273.39 -307.59)"/><path class="cls-2" d="M580.978,441.607v24.55a11.231,11.231,0,0,1-.13,1.74c-.64,4.45-3.75,8.64-8.8,12.39a83.867,83.867,0,0,0-17.88-12.4c-.18-.1-.37-.2-.55-.3a84.223,84.223,0,0,0,18.61-12.85c1.04-.99,1.99-1.98,2.85-2.98-5.6,5.28-14.92,9.84-26.71,13.19-4.55-2.16-9.48-4.21-14.73-6.11a206.791,206.791,0,0,0-27.04-7.65,194.859,194.859,0,0,0-40.12-4.46c-16.42.01-30.01,2.66-38.37,7.56-5.71-4.24-8.93-9.04-8.93-14.13v-25.55l.18-.04h.02a.585.585,0,0,0,.02.13c2.47,11.58,21.3,18.12,47.12,18.14a195.115,195.115,0,0,0,40.14-4.46,206.921,206.921,0,0,0,27.02-7.65,160.011,160.011,0,0,0,17.74-7.59c16.57,8.37,27.53,18.27,29.38,27.43.03.12.06.25.08.37.02.09.03.17.05.26C580.948,441.337,580.958,441.467,580.978,441.607Z" transform="translate(-273.39 -307.59)"/><path class="cls-1" d="M580.978,440.277v55.47a11.746,11.746,0,0,1-.3,2.64.142.142,0,0,1-.02.06c-1.22,5.45-6.16,10.5-13.85,14.77-1.41.79-2.91,1.54-4.49,2.27a102.249,102.249,0,0,1-17.93,6.11h-.03a184.574,184.574,0,0,1-44.28,5.05c-29.61,0-55.5-6.07-69.6-15.14a.01.01,0,0,1-.01-.01c-.83-.52-1.61-1.07-2.36-1.62-5.44-4.04-8.62-8.59-8.9-13.42-.02-.23-.03-.47-.03-.71V470.2l.03-.01.08-.02h.02l.05-.01h.02v.03h.01a.088.088,0,0,0,.01.07v.03a2.864,2.864,0,0,0,.07.28c1.67,7.02,9.4,12.15,21.07,15.07a109.1,109.1,0,0,0,25.98,2.79,195.115,195.115,0,0,0,40.14-4.46,206.921,206.921,0,0,0,27.02-7.65c5.27-1.91,10.23-3.96,14.8-6.14.01,0,.01-.01.02-.01q2.64-1.26,5.12-2.58a84.223,84.223,0,0,0,18.61-12.85c1.04-.99,1.99-1.98,2.85-2.98,3.06-3.51,5.03-7.04,5.72-10.46.03-.12.05-.24.08-.36C580.918,440.717,580.948,440.5,580.978,440.277Z" transform="translate(-273.39 -307.59)"/><path class="cls-2" d="M580.658,387.6c-.81,3.63-3.27,7.08-7.1,10.23a43.1,43.1,0,0,1-6.75,4.54c-1.41.79-2.91,1.54-4.49,2.27a99.42,99.42,0,0,1-16.63,5.77c-.43.12-.86.23-1.3.34h-.03q-5.1-2.25-10.72-4.28a206.791,206.791,0,0,0-27.04-7.65,194.859,194.859,0,0,0-40.12-4.46c-14.95.01-27.56,2.21-36.01,6.29-.26-.16-.51-.33-.76-.5-.55-.36-1.08-.74-1.6-1.12-5.44-4.04-8.62-8.59-8.9-13.42-.02-.23-.03-.47-.03-.71v-25.56h.03l.08-.02.06.02h.03v-.03a.355.355,0,0,1,.02-.1,12.367,12.367,0,0,1,1.27-3.4c7.82-14.41,44.53-19.09,85.99-10.28a192.053,192.053,0,0,1,41.5,13.64c.1.05.21.1.31.15l.01.01c.21.09.42.19.62.29,15.47,7.46,26.46,16.24,30.38,24.69a15.958,15.958,0,0,1,.63,1.5c.06.16.12.33.17.49.08.22.15.44.21.65s.11.39.16.59A.127.127,0,0,1,580.658,387.6Z" transform="translate(-273.39 -307.59)"/><path class="cls-1" d="M580.978,329.407V384.9a11.746,11.746,0,0,1-.3,2.64.142.142,0,0,1-.02.06c-.81,3.63-3.27,7.08-7.1,10.23a43.1,43.1,0,0,1-6.75,4.54c-1.41.79-2.91,1.54-4.49,2.27a99.42,99.42,0,0,1-16.63,5.77c-.43.12-.86.23-1.3.34h-.03a184.574,184.574,0,0,1-44.28,5.05c-29.61,0-55.5-6.07-69.6-15.14a.01.01,0,0,1-.01-.01c-.26-.16-.51-.33-.76-.5-.55-.36-1.08-.74-1.6-1.12-5.44-4.04-8.62-8.59-8.9-13.42-.02-.23-.03-.47-.03-.71v-25.55l.03-.01.08-.02h.02l.05-.01h.02v.03h.01a.088.088,0,0,0,.01.07v.03a2.864,2.864,0,0,0,.07.28c1.67,7.02,9.4,12.15,21.07,15.07a109.1,109.1,0,0,0,25.98,2.79,195.115,195.115,0,0,0,40.14-4.46,206.921,206.921,0,0,0,27.02-7.65c5.27-1.91,10.23-3.96,14.8-6.14.01,0,.01-.01.02-.01,9.94-4.74,18.08-10.03,23.73-15.43,4.7-4.49,7.68-9.05,8.57-13.44A9.429,9.429,0,0,0,580.978,329.407Z" transform="translate(-273.39 -307.59)"/><path class="cls-1" d="M580.978,384.667v55.61c0,.31-.02.61-.05.92-.32,3.72-2.37,7.28-5.85,10.56-5.6,5.28-14.92,9.84-26.71,13.19-2.38.68-4.87,1.31-7.45,1.88a188.983,188.983,0,0,1-40.84,4.23c-28.13,0-52.91-5.48-67.4-13.8a48.805,48.805,0,0,1-4.57-2.97c-5.71-4.24-8.93-9.04-8.93-14.13v-25.55l.18-.04h.02a.585.585,0,0,0,.02.13c2.47,11.58,21.3,18.12,47.12,18.14a195.115,195.115,0,0,0,40.14-4.46,206.921,206.921,0,0,0,27.02-7.65,160.011,160.011,0,0,0,17.74-7.59c9.4-4.76,17-10,22.14-15.31,3.53-3.64,5.9-7.31,6.93-10.88.12-.42.23-.83.31-1.24A9.429,9.429,0,0,0,580.978,384.667Z" transform="translate(-273.39 -307.59)"/><path class="cls-2" d="M580.871,330c-1.14,8.92-11.14,18.62-26.73,26.99-12.73,6.85-29.19,12.8-47.59,16.72-44.57,9.47-83.64,3.35-87.26-13.68a.585.585,0,0,1-.02-.13,9.767,9.767,0,0,1-.2-1.41,11.987,11.987,0,0,1,0-2.16c1.38-16.33,32.97-35.47,74.38-44.28,44.57-9.47,83.64-3.36,87.26,13.67.07.32.12.64.16.96a8.112,8.112,0,0,1,.09.98A13.128,13.128,0,0,1,580.871,330Z" transform="translate(-273.39 -307.59)"/></svg>