<svg xmlns="http://www.w3.org/2000/svg" viewBox="0 0 630 100"><defs><style>.cls-1{fill:#366ce1;}</style></defs><title>schoox</title><g id="Слой_2" data-name="Слой 2"><g id="Work_space" data-name="Work space"><g id="schoox"><path class="cls-1" d="M20,30A10,10,0,0,0,30,40H70a30,30,0,0,1,0,60H0V80H70a10,10,0,0,0,0-20H30A30,30,0,0,1,30,0h70V20H30A10,10,0,0,0,20,30Z"/><polygon class="cls-1" points="320 0 320 100 300 100 300 60 240 60 240 100 220 100 220 0 240 0 240 40 300 40 300 0 320 0"/><path class="cls-1" d="M380,0a50,50,0,1,0,50,50A50.005,50.005,0,0,0,380,0Zm0,80a30,30,0,1,1,30-30A30,30,0,0,1,380,80Z"/><path class="cls-1" d="M490,0a50,50,0,1,0,50,50A50.005,50.005,0,0,0,490,0Zm0,80a30,30,0,1,1,30-30A30,30,0,0,1,490,80Z"/><path class="cls-1" d="M188.28,60h20.71a50,50,0,1,1,0-20H188.28a30,30,0,1,0,0,20Z"/><polygon class="cls-1" points="592.5 50.03 629.95 100 604.96 100 580.01 66.7 555.05 100 530.07 100 567.51 50.03 530.02 0 555 0 580.01 33.36 605.01 0 630 0 592.5 50.03"/></g></g></g></svg>