<svg id="Complete" xmlns="http://www.w3.org/2000/svg" viewBox="0 0 700 340"><defs><style>.cls-1{fill:#366ce1;}.cls-2{fill:#121221;}</style></defs><title>se ranking</title><g id="se_ranking" data-name="se ranking"><path class="cls-1" d="M285,400V600H485V400ZM465,580H305V420H465Z" transform="translate(-150 -400)"/><rect class="cls-2" x="158" y="130" width="50" height="50"/><rect class="cls-2" x="210" y="80" width="50" height="100"/><rect class="cls-2" x="262" y="30" width="50" height="150"/><path class="cls-1" d="M615,530a40.026,40.026,0,0,1-49.99,38.74h-.02A40.045,40.045,0,0,1,520,549.37a20.148,20.148,0,0,0,5,.63,19.838,19.838,0,0,0,10-2.69A19.838,19.838,0,0,0,545,550a20.148,20.148,0,0,0,5-.63,20.148,20.148,0,0,0,5,.63,19.838,19.838,0,0,0,10-2.69A20,20,0,1,0,575,510a40.1,40.1,0,0,1-9.99-1.26h-.02a40,40,0,1,1,0-77.48h.02A40.045,40.045,0,0,1,610,450.63a20.148,20.148,0,0,0-5-.63,19.838,19.838,0,0,0-10,2.69A19.838,19.838,0,0,0,585,450a20.148,20.148,0,0,0-5,.63,20.148,20.148,0,0,0-5-.63,19.838,19.838,0,0,0-10,2.69A20,20,0,1,0,555,490a40.1,40.1,0,0,1,9.99,1.26h.02A40.027,40.027,0,0,1,615,530Z" transform="translate(-150 -400)"/><path class="cls-1" d="M710,547.31a19.594,19.594,0,0,0,5,2.06,40.045,40.045,0,0,1-44.99,19.37h-.02A40,40,0,0,1,633.56,500a40,40,0,0,1,36.43-68.74h.02A40.045,40.045,0,0,1,715,450.63a19.594,19.594,0,0,0-5,2.06,19.932,19.932,0,0,0-20,0,19.932,19.932,0,0,0-20,0A20,20,0,1,0,660,490a40.1,40.1,0,0,1,9.99,1.26h.02A40.024,40.024,0,0,1,706.44,500a40.024,40.024,0,0,1-36.43,8.74h-.02A40.1,40.1,0,0,1,660,510a20,20,0,1,0,10,37.31,19.932,19.932,0,0,0,20,0,19.932,19.932,0,0,0,20,0Z" transform="translate(-150 -400)"/><path class="cls-2" d="M342.32,720l-7.68-20-23.03-60H288.83L265.8,700l-7.67,20-7.68,20h21.43l7.68-20h41.33l7.68,20H350Zm-55.09-20,12.99-33.85L313.21,700Z" transform="translate(-150 -400)"/><polygon class="cls-2" points="300 240 300 340 280.04 340 280 339.96 220 270.57 220 340 200 340 200 240 220 240 280 309.38 280 240 300 240"/><polygon class="cls-2" points="590 240 590 340 570.04 340 570 339.96 510 270.57 510 340 490 340 490 240 510 240 570 309.38 570 240 590 240"/><polygon class="cls-2" points="410 339.83 410 340 390.04 340 390 339.96 390 340 383.24 340 348.54 301.45 330 319.99 330 340 310 340 310 240 330 240 330 291.7 335.13 286.57 349.29 272.41 381.7 240 409.99 240 362.7 287.29 410 339.83"/><path class="cls-2" d="M850,680v10a49.16,49.16,0,0,1-1.01,10,50.013,50.013,0,1,1-13.64-45.35l-14.14,14.14A30,30,0,1,0,828.28,700H790V680Z" transform="translate(-150 -400)"/><polygon class="cls-2" points="460 260 460 320 480 320 480 340 420 340 420 320 440 320 440 260 420 260 420 240 480 240 480 260 460 260"/><path class="cls-2" d="M220,700a30,30,0,0,0,0-60H150V740h20V700h11.68l40,40H230v-.04l.04.04h19.92l-40-40Zm-50-20V660h50a10,10,0,0,1,0,20Z" transform="translate(-150 -400)"/></g></svg>