<svg xmlns="http://www.w3.org/2000/svg" viewBox="0 0 1056.28 226.28"><defs><style>.cls-1{fill:#366ce1;}.cls-2,.cls-4{fill:#121221;}.cls-3{opacity:0.62;}.cls-4{opacity:0.38;}</style></defs><title>seemymachines</title><g id="Complete"><g id="seemymachines"><polygon class="cls-1" points="666.28 8.14 666.28 108.14 646.28 108.14 646.28 38.73 629.48 58.19 616.27 73.5 603.06 58.19 586.28 38.76 586.28 108.14 566.28 108.14 566.28 8.14 586.28 8.14 586.28 8.15 616.27 42.89 646.26 8.14 666.28 8.14"/><polygon class="cls-1" points="739.11 54.6 736.28 58.14 736.33 58.14 736.33 108.14 716.33 108.14 716.33 58.14 713.5 54.6 676.33 8.14 701.94 8.14 726.3 38.59 750.66 8.14 776.28 8.14 739.11 54.6"/><path class="cls-2" d="M200,425a10,10,0,0,0,10,10h40a30,30,0,0,1,0,60H180V475h70a10,10,0,0,0,0-20H210a30,30,0,0,1,0-60h70v20H210A10,10,0,0,0,200,425Z" transform="translate(56.28 -386.86)"/><polygon class="cls-2" points="366.28 28.14 366.28 48.14 446.28 48.14 446.28 68.14 366.28 68.14 366.28 88.14 446.28 88.14 446.28 108.14 346.28 108.14 346.28 8.14 446.28 8.14 446.28 28.14 366.28 28.14"/><polygon class="cls-2" points="476.28 28.14 476.28 48.14 556.28 48.14 556.28 68.14 476.28 68.14 476.28 88.14 556.28 88.14 556.28 108.14 456.28 108.14 456.28 8.14 556.28 8.14 556.28 28.14 476.28 28.14"/><path class="cls-1" d="M469.29,565H490a50,50,0,1,1,0-20H469.29a30,30,0,1,0,0,20Z" transform="translate(56.28 -386.86)"/><polygon class="cls-1" points="706.28 138.14 706.28 198.14 726.28 198.14 726.28 218.14 666.28 218.14 666.28 198.14 686.28 198.14 686.28 138.14 666.28 138.14 666.28 118.14 726.28 118.14 726.28 138.14 706.28 138.14"/><polygon class="cls-1" points="836.28 118.14 836.28 218.14 816.28 218.14 756.28 148.73 756.28 218.14 736.28 218.14 736.28 118.14 756.28 118.14 816.28 187.55 816.28 118.14 836.28 118.14"/><polygon class="cls-1" points="336.28 118.14 336.28 218.14 316.28 218.14 316.28 148.73 299.48 168.19 286.27 183.5 273.06 168.19 256.28 148.76 256.28 218.14 236.28 218.14 236.28 118.14 256.28 118.14 256.28 118.15 286.27 152.89 316.26 118.14 336.28 118.14"/><path class="cls-1" d="M920,535a10,10,0,0,0,10,10h40a30,30,0,0,1,0,60H900V585h70a10,10,0,0,0,0-20H930a30,30,0,0,1,0-60h70v20H930A10,10,0,0,0,920,535Z" transform="translate(56.28 -386.86)"/><polygon class="cls-1" points="656.28 118.14 656.28 218.14 636.28 218.14 636.28 178.14 576.28 178.14 576.28 218.14 556.28 218.14 556.28 118.14 576.28 118.14 576.28 158.14 636.28 158.14 636.28 118.14 656.28 118.14"/><polygon class="cls-1" points="866.28 138.14 866.28 158.14 946.28 158.14 946.28 178.14 866.28 178.14 866.28 198.14 946.28 198.14 946.28 218.14 846.28 218.14 846.28 118.14 946.28 118.14 946.28 138.14 866.28 138.14"/><path class="cls-1" d="M350.77,506.95l-.78-1.95H330.01l-.78,1.94L290,605h21.55l11.2-28h34.5l11.2,28H390ZM330.75,557,340,533.87,349.25,557Z" transform="translate(56.28 -386.86)"/><path class="cls-1" d="M86.86,500a29.828,29.828,0,0,1-2.3,11.52q-.3.72-.63,1.41L71,500l12.93-12.93q.33.69.63,1.41A29.828,29.828,0,0,1,86.86,500Z" transform="translate(56.28 -386.86)"/><path class="cls-1" d="M69.78,472.93,56.86,485.85,43.94,472.93c.46-.22.92-.43,1.39-.63.5-.2,1-.4,1.52-.58a29.959,29.959,0,0,1,20.01,0c.26.09.51.18.76.28.27.1.53.2.79.31C68.87,472.51,69.33,472.71,69.78,472.93Z" transform="translate(56.28 -386.86)"/><path class="cls-1" d="M69.79,527.07q-.69.33-1.41.63a30,30,0,0,1-23.04,0q-.72-.3-1.41-.63l12.93-12.93Z" transform="translate(56.28 -386.86)"/><path class="cls-1" d="M42.72,500,29.79,512.93q-.33-.69-.63-1.41a30.006,30.006,0,0,1,.63-24.45Z" transform="translate(56.28 -386.86)"/><g class="cls-3"><path class="cls-2" d="M85.14,490H66.86V471.72c.26.09.51.18.76.28.27.1.53.2.79.31.46.19.91.4,1.37.62.77.36,1.53.76,2.27,1.2h.01c.37.21.73.44,1.08.67s.69.46,1.03.69c.01.01.01.02.02.02.68.47,1.34.99,1.99,1.53.43.38.86.75,1.27,1.15.21.19.42.39.62.6.61.61,1.19,1.24,1.75,1.89.26.32.51.64.77.96.53.68,1.02,1.37,1.47,2.08.23.35.46.71.67,1.08v.01c.42.71.81,1.44,1.16,2.17.01.03.03.06.04.09q.33.69.63,1.41C84.77,488.98,84.96,489.49,85.14,490Z" transform="translate(56.28 -386.86)"/><path class="cls-2" d="M46.85,471.72v18.27H28.58a29.882,29.882,0,0,1,1.21-2.92,29.5,29.5,0,0,1,3.34-5.43c.26-.32.51-.64.77-.96.56-.65,1.14-1.28,1.75-1.89.2-.21.41-.41.62-.6.41-.4.84-.77,1.27-1.15.65-.54,1.31-1.06,1.99-1.53.01,0,.01-.01.02-.02.638-.45,1.294-.862,1.957-1.256.114-.067.228-.135.343-.2a30.472,30.472,0,0,1,3.48-1.733C45.83,472.1,46.33,471.9,46.85,471.72Z" transform="translate(56.28 -386.86)"/><path class="cls-2" d="M85.14,510c-.18.51-.37,1.02-.58,1.52q-.3.72-.63,1.41c-.01.03-.03.06-.04.09-.35.73-.74,1.46-1.16,2.17v.01c-.21.37-.44.73-.67,1.08a28.174,28.174,0,0,1-3.11,4.01q-.855.945-1.8,1.8a28.174,28.174,0,0,1-4.01,3.11c-.35.23-.71.46-1.08.67h-.01c-.71.42-1.44.81-2.17,1.16-.03.01-.06.03-.09.04q-.69.33-1.41.63c-.5.21-1.01.4-1.52.58V510Z" transform="translate(56.28 -386.86)"/><path class="cls-2" d="M46.86,510v18.28c-.51-.18-1.02-.37-1.52-.58q-.72-.3-1.41-.63c-.03-.01-.06-.03-.09-.04-.73-.35-1.46-.74-2.17-1.16h-.01c-.37-.22-.72-.44-1.08-.67a28.174,28.174,0,0,1-4.01-3.11q-.945-.855-1.8-1.8a28.174,28.174,0,0,1-3.11-4.01c-.23-.36-.45-.71-.67-1.08v-.01c-.42-.71-.81-1.44-1.16-2.17-.01-.03-.03-.06-.04-.09q-.33-.69-.63-1.41c-.21-.5-.4-1.01-.58-1.52Z" transform="translate(56.28 -386.86)"/></g><path class="cls-1" d="M43.93,527.07,29.29,541.71a49.994,49.994,0,0,1-14.14-69.28l14.64,14.64a30,30,0,0,0,14.14,40Z" transform="translate(56.28 -386.86)"/><path class="cls-1" d="M84.42,458.29,69.78,472.93a30,30,0,0,0-39.99,14.14L15.15,472.43a49.982,49.982,0,0,1,69.27-14.14Z" transform="translate(56.28 -386.86)"/><path class="cls-1" d="M106.86,500a49.712,49.712,0,0,1-8.29,27.57L83.93,512.93a29.991,29.991,0,0,0-14.15-40l14.64-14.64A49.977,49.977,0,0,1,106.86,500Z" transform="translate(56.28 -386.86)"/><path class="cls-1" d="M56.86,386.86-56.28,500,56.86,613.14,170,500ZM-13.85,500l35.36-35.36,35.35-35.35,35.35,35.35L127.57,500,56.86,570.71Z" transform="translate(56.28 -386.86)"/><polygon class="cls-2" points="127.28 113.14 137.28 123.14 123.14 123.14 123.14 137.28 113.14 127.28 103.14 137.28 103.14 123.14 89 123.14 99 113.14 88.99 103.13 103.13 103.13 103.13 88.98 113.14 98.99 123.14 88.99 123.14 103.14 137.28 103.14 127.28 113.14"/><path class="cls-1" d="M98.57,527.57a49.994,49.994,0,0,1-69.28,14.14l14.64-14.64a30,30,0,0,0,40-14.14Z" transform="translate(56.28 -386.86)"/><path class="cls-4" d="M43.93,527.07,29.29,541.71a49.994,49.994,0,0,1-14.14-69.28l14.64,14.64a30,30,0,0,0,14.14,40Z" transform="translate(56.28 -386.86)"/><path class="cls-4" d="M84.42,458.29,69.78,472.93a30,30,0,0,0-39.99,14.14L15.15,472.43a49.982,49.982,0,0,1,69.27-14.14Z" transform="translate(56.28 -386.86)"/><path class="cls-4" d="M106.86,500a49.712,49.712,0,0,1-8.29,27.57L83.93,512.93a29.991,29.991,0,0,0-14.15-40l14.64-14.64A49.977,49.977,0,0,1,106.86,500Z" transform="translate(56.28 -386.86)"/><path class="cls-4" d="M98.57,527.57a49.994,49.994,0,0,1-69.28,14.14l14.64-14.64a30,30,0,0,0,40-14.14Z" transform="translate(56.28 -386.86)"/></g></g></svg>