<svg xmlns="http://www.w3.org/2000/svg" viewBox="0 0 350.772 160"><defs><style>.cls-1{fill:#1c1e20;}.cls-2{fill:#121221;}.cls-3{fill:#e1dfdf;}.cls-4{fill:#366ce1;}</style></defs><title>semrush</title><g id="complete"><g id="Semrush"><path class="cls-1" d="M584.614,620c.259,0,.516-.01.772-.02Q585,620,584.614,620Z" transform="translate(-324.614 -510)"/><path class="cls-1" d="M334.614,620a10,10,0,0,0,10,10h10a20,20,0,1,1,0,40h-30V660h30a10,10,0,1,0,0-20h-10a20,20,0,0,1,0-40h30v10h-30A10,10,0,0,0,334.614,620Z" transform="translate(-324.614 -510)"/><path class="cls-1" d="M399.614,610a20,20,0,0,0-20,20v20a20,20,0,0,0,20,20h20V660h-20a10,10,0,0,1-10-10v-5h30V630A20,20,0,0,0,399.614,610Zm-10,25v-5a10,10,0,0,1,20,0v5Z" transform="translate(-324.614 -510)"/><path class="cls-1" d="M494.614,630v40h-10V630a10,10,0,0,0-20,0v40h-10V630a10,10,0,0,0-20,0v40h-10V630a19.995,19.995,0,0,1,35-13.22,19.995,19.995,0,0,1,35,13.22Z" transform="translate(-324.614 -510)"/><path class="cls-1" d="M539.614,610v10h-20a10,10,0,0,0-10,10v40h-10V610h10v2.675a19.942,19.942,0,0,1,10-2.675Z" transform="translate(-324.614 -510)"/><path class="cls-1" d="M584.614,610v40a20,20,0,0,1-40,0V610h10v40a10,10,0,0,0,20,0V610Z" transform="translate(-324.614 -510)"/><path class="cls-1" d="M600.386,630v5h30v15a20,20,0,0,1-20,20h-20V660h20a10,10,0,0,0,10-10v-5h-30V630a20,20,0,0,1,20-20h20v10h-20A10,10,0,0,0,600.386,630Z" transform="translate(-324.614 -510)"/><path class="cls-1" d="M675.386,630v40h-10V630a10,10,0,0,0-20,0v40h-10V600h10v12.675a20.006,20.006,0,0,1,30,17.325Z" transform="translate(-324.614 -510)"/><path class="cls-1" d="M498.56,590A39.845,39.845,0,0,0,525,600H465a30,30,0,0,1,0-60,10,10,0,0,0,0-20,19.838,19.838,0,0,0-10,2.69v-10A19.995,19.995,0,1,1,465,550a20,20,0,0,0,0,40Z" transform="translate(-324.614 -510)"/><path class="cls-2" d="M525,520a40,40,0,0,0-40,40c0,.69.02,1.38.05,2.06s.09,1.36.16,2.03c.02.22.04.45.07.67.03.25.06.5.1.75.04.29.08.59.13.88.07.46.15.92.24,1.37.06.32.13.63.2.94.08.35.16.7.25,1.04a39.076,39.076,0,0,0,1.94,5.83c.13.3.26.59.4.89s.27.59.41.88.28.58.43.87a39.616,39.616,0,0,0,5.38,7.96c.21.24.42.48.64.72a35.677,35.677,0,0,0,3.16,3.11A39.845,39.845,0,0,0,525,600c.41,0,.83-.01,1.24-.02.12,0,.23-.01.34-.01.29-.01.57-.03.86-.05.23-.01.46-.02.69-.04.32-.03.64-.05.96-.09.45-.04.9-.1,1.34-.16.36-.05.73-.1,1.1-.17q.765-.12,1.53-.27c.4-.08.81-.17,1.21-.27.27-.06.54-.13.8-.2.3-.08.59-.16.88-.24.52-.15,1.05-.31,1.56-.48q.705-.225,1.38-.48c.26-.1.52-.19.77-.3.61-.23,1.21-.49,1.8-.76.29-.13.59-.27.88-.41s.58-.28.87-.43.57-.3.85-.45a39.127,39.127,0,0,0,4.87-3.12c.22-.16.44-.33.65-.5.55-.42,1.08-.86,1.59-1.31.24-.21.48-.42.72-.64s.47-.43.7-.65.46-.44.69-.67c.45-.45.89-.92,1.32-1.39.22-.24.43-.48.64-.72s.42-.48.62-.73c.66-.79,1.28-1.6,1.87-2.45.15-.21.29-.42.44-.63.39-.58.77-1.17,1.13-1.78.13-.22.26-.44.39-.65.01-.02.02-.03.03-.05.15-.27.3-.55.45-.82.31-.56.6-1.14.88-1.72.14-.29.28-.59.41-.88.27-.59.53-1.19.76-1.8l.33-.84c.35-.95.66-1.92.94-2.9.07-.26.14-.51.21-.77s.14-.55.21-.84c.1-.4.19-.8.27-1.21.07-.34.13-.68.19-1.02.05-.23.09-.47.12-.7.05-.29.1-.59.13-.89a.127.127,0,0,0,.01-.06c.05-.36.1-.72.13-1.09q.075-.63.12-1.26c.02-.25.04-.5.05-.75.05-.77.07-1.55.07-2.33A40,40,0,0,0,525,520Zm29.98,40.65a29.965,29.965,0,0,1-29.33,29.33c-.22.01-.43.02-.65.02s-.43-.01-.65-.02a29.965,29.965,0,0,1-29.33-29.33c-.01-.22-.02-.43-.02-.65s.01-.43.02-.65a29.965,29.965,0,0,1,29.33-29.33c.22-.01.43-.02.65-.02s.43.01.65.02a29.965,29.965,0,0,1,29.33,29.33c.01.22.02.43.02.65S554.99,560.43,554.98,560.65Z" transform="translate(-324.614 -510)"/><path class="cls-1" d="M524.35,530.02c-6.67.31-12.52,5.53-15.99,13.34-7.81,3.47-13.03,9.32-13.34,15.99A29.965,29.965,0,0,1,524.35,530.02Z" transform="translate(-324.614 -510)"/><path class="cls-1" d="M554.98,559.35c-.31-6.67-5.53-12.52-13.34-15.99-3.47-7.81-9.32-13.03-15.99-13.34A29.965,29.965,0,0,1,554.98,559.35Z" transform="translate(-324.614 -510)"/><path class="cls-1" d="M554.98,560.65a29.965,29.965,0,0,1-29.33,29.33c6.67-.31,12.52-5.53,15.99-13.34C549.45,573.17,554.67,567.32,554.98,560.65Z" transform="translate(-324.614 -510)"/><path class="cls-1" d="M524.35,589.98a29.965,29.965,0,0,1-29.33-29.33c.31,6.67,5.53,12.52,13.34,15.99C511.83,584.45,517.68,589.67,524.35,589.98Z" transform="translate(-324.614 -510)"/><path class="cls-3" d="M541.64,576.64c-3.47,7.81-9.32,13.03-15.99,13.34-.22.01-.43.02-.65.02s-.43-.01-.65-.02c-6.67-.31-12.52-5.53-15.99-13.34a42.884,42.884,0,0,0,33.28,0Z" transform="translate(-324.614 -510)"/><path class="cls-3" d="M541.64,543.36a42.884,42.884,0,0,0-33.28,0c3.47-7.81,9.32-13.03,15.99-13.34.22-.01.43-.02.65-.02s.43.01.65.02C532.32,530.33,538.17,535.55,541.64,543.36Z" transform="translate(-324.614 -510)"/><path class="cls-4" d="M545,560a41.193,41.193,0,0,1-3.36,16.64,42.884,42.884,0,0,1-33.28,0,42.884,42.884,0,0,1,0-33.28,42.884,42.884,0,0,1,33.28,0A41.193,41.193,0,0,1,545,560Z" transform="translate(-324.614 -510)"/><path class="cls-3" d="M505,560a41.193,41.193,0,0,0,3.36,16.64c-7.81-3.47-13.03-9.32-13.34-15.99-.01-.22-.02-.43-.02-.65s.01-.43.02-.65c.31-6.67,5.53-12.52,13.34-15.99A41.193,41.193,0,0,0,505,560Z" transform="translate(-324.614 -510)"/><path class="cls-3" d="M555,560c0,.22-.01.43-.02.65-.31,6.67-5.53,12.52-13.34,15.99a42.884,42.884,0,0,0,0-33.28c7.81,3.47,13.03,9.32,13.34,15.99C554.99,559.57,555,559.78,555,560Z" transform="translate(-324.614 -510)"/></g></g></svg>