<svg id="Main" xmlns="http://www.w3.org/2000/svg" viewBox="0 0 693.18 320"><defs><style>.cls-1{fill:#1c1e20;}.cls-2{fill:#121221;}.cls-3{fill:#366ce1;}</style></defs><title>sequential_functional_chart</title><polygon class="cls-1" points="96.583 70.012 77.646 140.712 25.879 192.474 0 95.892 96.583 70.012"/><polygon class="cls-1" points="167.298 192.473 96.589 263.183 25.892 192.482 96.617 173.531 167.298 192.473"/><polygon class="cls-2" points="96.617 173.531 25.892 192.482 25.879 192.474 77.646 140.712 70.707 166.59 96.617 173.531"/><polygon class="cls-1" points="193.18 95.883 167.298 192.473 115.538 140.715 96.59 70 193.18 95.883"/><polygon class="cls-2" points="167.298 192.473 96.617 173.531 122.474 166.602 115.538 140.715 167.298 192.473"/><polygon class="cls-2" points="96.593 70.01 115.538 140.715 96.588 121.764 77.646 140.712 96.583 70.012 96.593 70.01"/><polygon class="cls-3" points="115.538 140.715 122.474 166.602 96.617 173.531 70.707 166.59 77.646 140.712 96.588 121.764 115.538 140.715"/><rect class="cls-2" x="283.121" width="20" height="20"/><rect class="cls-2" x="223.121" y="20" width="20" height="20"/><rect class="cls-2" x="283.121" y="60" width="20" height="20"/><rect class="cls-2" x="223.121" y="80" width="20" height="20"/><path class="cls-2" d="M456.531,420l-16-20-64,20,20.059,20Z" transform="translate(-153.41 -340)"/><path class="cls-2" d="M456.531,360,436.59,340l-60.059,20,16,20Z" transform="translate(-153.41 -340)"/><path class="cls-2" d="M441.62,415.622l14.97-15.563L391.531,365l-15,15Z" transform="translate(-153.41 -340)"/><rect class="cls-2" x="313.18" y="70" width="40" height="10"/><path class="cls-2" d="M506.59,420a20,20,0,0,1-40,0h10c.38,1,3.142,7.916,10,10C493.722,432.167,502.4,428.23,506.59,420Z" transform="translate(-153.41 -340)"/><path class="cls-2" d="M556.59,420a20,20,0,0,1-40,0h10c.38,1,3.142,7.916,10,10C543.722,432.167,552.4,428.23,556.59,420Z" transform="translate(-153.41 -340)"/><path class="cls-2" d="M556.59,410a20,20,0,0,0-40,0h10c.38-1,3.142-7.916,10-10C543.722,397.833,552.4,401.77,556.59,410Z" transform="translate(-153.41 -340)"/><path class="cls-2" d="M566.59,420a20,20,0,0,0,40,0h-10c-.38,1-3.142,7.916-10,10C579.458,432.167,570.78,428.23,566.59,420Z" transform="translate(-153.41 -340)"/><path class="cls-2" d="M466.59,410a20,20,0,0,1,40,0h-10c-.38-1-3.142-7.916-10-10C479.458,397.833,470.78,401.77,466.59,410Z" transform="translate(-153.41 -340)"/><rect class="cls-2" x="463.18" y="70" width="40" height="10"/><path class="cls-2" d="M656.59,420a20,20,0,1,1-40,0h10c.38,1,3.142,7.916,10,10C643.722,432.167,652.4,428.23,656.59,420Z" transform="translate(-153.41 -340)"/><path class="cls-2" d="M616.59,410a20,20,0,0,1,40,0h-10c-.38-1-3.142-7.916-10-10C629.458,397.833,620.78,401.77,616.59,410Z" transform="translate(-153.41 -340)"/><rect class="cls-2" x="363.18" y="70" width="10" height="10"/><rect class="cls-2" x="633.18" y="70" width="10" height="10"/><rect class="cls-2" x="443.18" y="50" width="10" height="30"/><path class="cls-2" d="M566.59,390h10q-5,15-10,30Z" transform="translate(-153.41 -340)"/><path class="cls-2" d="M706.59,390V380l30,10Z" transform="translate(-153.41 -340)"/><path class="cls-2" d="M776.59,390h-10l10,20Z" transform="translate(-153.41 -340)"/><path class="cls-2" d="M666.59,410a20,20,0,0,1,40,0h-10c-.38-1-3.142-7.916-10-10C679.458,397.833,670.78,401.77,666.59,410Z" transform="translate(-153.41 -340)"/><path class="cls-2" d="M756.59,420a20,20,0,1,1-40,0h10c.38,1,3.142,7.916,10,10C743.722,432.167,752.4,428.23,756.59,420Z" transform="translate(-153.41 -340)"/><path class="cls-2" d="M826.59,420a20,20,0,1,1-40,0h10c.38,1,3.142,7.916,10,10C813.722,432.167,822.4,428.23,826.59,420Z" transform="translate(-153.41 -340)"/><path class="cls-2" d="M826.59,410a20,20,0,0,0-40,0h10c.38-1,3.142-7.916,10-10C813.722,397.833,822.4,401.77,826.59,410Z" transform="translate(-153.41 -340)"/><rect class="cls-2" x="543.18" y="70" width="10" height="30"/><rect class="cls-2" x="563.18" y="30" width="10" height="50"/><path class="cls-2" d="M666.59,440h10q-5-25-10-50Z" transform="translate(-153.41 -340)"/><path class="cls-2" d="M766.59,440h10q-5-25-10-50Z" transform="translate(-153.41 -340)"/><path class="cls-2" d="M836.59,440h10q-5-35-10-70Z" transform="translate(-153.41 -340)"/><path class="cls-2" d="M826.59,390h-10q5,25,10,50Z" transform="translate(-153.41 -340)"/><path class="cls-2" d="M376.531,450V550h20V500h30V480h-30V470h60V450Z" transform="translate(-153.41 -340)"/><path class="cls-2" d="M726.531,530a20,20,0,0,1-40,0h10c.381,1,3.142,7.916,10,10C713.663,542.167,722.341,538.23,726.531,530Z" transform="translate(-153.41 -340)"/><path class="cls-2" d="M686.531,520a20,20,0,0,1,40,0h-10c-.38-1-3.142-7.916-10-10C699.4,507.833,690.721,511.77,686.531,520Z" transform="translate(-153.41 -340)"/><path class="cls-2" d="M606.531,530a20,20,0,0,1-40,0h10c.381,1,3.142,7.916,10,10C593.663,542.167,602.341,538.23,606.531,530Z" transform="translate(-153.41 -340)"/><path class="cls-2" d="M606.531,520a20,20,0,0,0-40,0h10c.381-1,3.142-7.916,10-10C593.663,507.833,602.341,511.77,606.531,520Z" transform="translate(-153.41 -340)"/><rect class="cls-2" x="413.121" y="180" width="10" height="10"/><path class="cls-2" d="M466.531,530a20,20,0,0,0,40,0h-10c-.38,1-3.142,7.916-10,10C479.4,542.167,470.721,538.23,466.531,530Z" transform="translate(-153.41 -340)"/><rect class="cls-2" x="343.121" y="160" width="10" height="30"/><path class="cls-2" d="M466.531,500h10q-5,15-10,30Z" transform="translate(-153.41 -340)"/><path class="cls-2" d="M726.531,520h-10l10,10Z" transform="translate(-153.41 -340)"/><path class="cls-2" d="M686.531,530h10q-5-5-10-10Z" transform="translate(-153.41 -340)"/><path class="cls-2" d="M606.531,500V490l30,10Z" transform="translate(-153.41 -340)"/><path class="cls-2" d="M656.531,530a20,20,0,0,1-40,0h10c.381,1,3.142,7.916,10,10C643.663,542.167,652.341,538.23,656.531,530Z" transform="translate(-153.41 -340)"/><rect class="cls-2" x="463.121" y="140" width="10" height="50"/><path class="cls-2" d="M736.531,520a20,20,0,0,1,40,0h-10c-.38-1-3.142-7.916-10-10C749.4,507.833,740.721,511.77,736.531,520Z" transform="translate(-153.41 -340)"/><rect class="cls-2" x="613.121" y="180" width="10" height="30"/><path class="cls-2" d="M736.531,550h10q-5-25-10-50Z" transform="translate(-153.41 -340)"/><path class="cls-2" d="M516.531,520a20,20,0,0,1,40,0h-10c-.38-1-3.142-7.916-10-10C529.4,507.833,520.721,511.77,516.531,520Z" transform="translate(-153.41 -340)"/><rect class="cls-2" x="393.121" y="180" width="10" height="30"/><path class="cls-2" d="M516.531,550h10q-5-25-10-50Z" transform="translate(-153.41 -340)"/><path class="cls-2" d="M676.531,500h-10q5,10,10,20Z" transform="translate(-153.41 -340)"/><path class="cls-2" d="M666.531,550h10q-5-25-10-50Z" transform="translate(-153.41 -340)"/><rect class="cls-2" x="633.121" y="180" width="10" height="10"/><path class="cls-2" d="M826.531,530a20,20,0,0,1-40,0h10c.381,1,3.142,7.916,10,10C813.663,542.167,822.341,538.23,826.531,530Z" transform="translate(-153.41 -340)"/><path class="cls-2" d="M826.531,520a20,20,0,0,0-40,0h10c.381-1,3.142-7.916,10-10C813.663,507.833,822.341,511.77,826.531,520Z" transform="translate(-153.41 -340)"/><path class="cls-2" d="M836.531,550h10q-5-35-10-70Z" transform="translate(-153.41 -340)"/><path class="cls-2" d="M826.531,500h-10q5,25,10,50Z" transform="translate(-153.41 -340)"/><path class="cls-2" d="M428.041,630h24.59c-6.32,16.3-19.75,30-36.1,30-22.86,0-40-26.77-40-50s17.14-50,40-50c16.35,0,29.78,13.7,36.1,30h-24.59a16.733,16.733,0,0,0-11.51-5c-11.43,0-20,13.39-20,25s8.57,25,20,25A16.733,16.733,0,0,0,428.041,630Z" transform="translate(-153.41 -340)"/><rect class="cls-2" x="431.625" y="581.298" width="17.402" height="17.402" transform="translate(-441.634 144.164) rotate(-45)"/><rect class="cls-2" x="431.625" y="621.228" width="17.402" height="17.402" transform="translate(-469.869 155.859) rotate(-45)"/><path class="cls-2" d="M606.531,630a20,20,0,0,0-40,0h10c.381-1,3.142-7.916,10-10C593.663,617.833,602.341,621.77,606.531,630Z" transform="translate(-153.41 -340)"/><path class="cls-2" d="M606.531,610V600l30,10Z" transform="translate(-153.41 -340)"/><path class="cls-2" d="M656.531,640a20,20,0,0,1-40,0h10c.381,1,3.142,7.916,10,10C643.663,652.167,652.341,648.23,656.531,640Z" transform="translate(-153.41 -340)"/><rect class="cls-2" x="463.121" y="250" width="10" height="50"/><path class="cls-2" d="M466.531,630a20,20,0,0,1,40,0h-10c-.38-1-3.142-7.916-10-10C479.4,617.833,470.721,621.77,466.531,630Z" transform="translate(-153.41 -340)"/><rect class="cls-2" x="343.121" y="290" width="10" height="30"/><rect class="cls-2" x="413.121" y="270" width="10" height="50"/><rect class="cls-2" x="313.121" y="250" width="10" height="70"/><rect class="cls-2" x="363.121" y="290" width="10" height="10"/><path class="cls-2" d="M556.531,640a20,20,0,0,1-40,0h10c.381,1,3.142,7.916,10,10C543.663,652.167,552.341,648.23,556.531,640Z" transform="translate(-153.41 -340)"/><path class="cls-2" d="M556.531,630a20,20,0,0,0-40,0h10c.381-1,3.142-7.916,10-10C543.663,617.833,552.341,621.77,556.531,630Z" transform="translate(-153.41 -340)"/><path class="cls-2" d="M556.531,610h-10q5,25,10,50Z" transform="translate(-153.41 -340)"/></svg>