<svg xmlns="http://www.w3.org/2000/svg" viewBox="0 0 870 210"><defs><style>.cls-1{fill:#366ce1;}.cls-2{fill:#121221;}</style></defs><title>sequence security</title><g id="Слой_2" data-name="Слой 2"><g id="Work_space" data-name="Work space"><g id="sequence_security" data-name="sequence security"><polygon class="cls-1" points="590 130 590 190 610 190 610 210 550 210 550 190 570 190 570 130 550 130 550 110 610 110 610 130 590 130"/><polygon class="cls-2" points="650 0 650 100 630 100 570 30.59 570 100 550 100 550 0 570 0 630 69.41 630 0 650 0"/><path class="cls-2" d="M20,80A10,10,0,0,0,30,90H70a30,30,0,0,1,0,60H0V130H70a10,10,0,0,0,0-20H30a30,30,0,0,1,0-60h70V70H30A10,10,0,0,0,20,80Z"/><polygon class="cls-2" points="130 70 130 90 210 90 210 110 130 110 130 130 210 130 210 150 110 150 110 50 210 50 210 70 130 70"/><path class="cls-1" d="M20,100a10,10,0,0,0,10,10H70a30,30,0,0,1,0,60H0V150H70a10,10,0,0,0,0-20H30a30,30,0,0,1,0-60h70V90H30A10,10,0,0,0,20,100Z"/><polygon class="cls-1" points="130 90 130 110 210 110 210 130 130 130 130 150 210 150 210 170 110 170 110 70 210 70 210 90 130 90"/><polygon class="cls-2" points="460 20 460 40 540 40 540 60 460 60 460 80 540 80 540 100 440 100 440 0 540 0 540 20 460 20"/><polygon class="cls-2" points="790 20 790 40 870 40 870 60 790 60 790 80 870 80 870 100 770 100 770 0 870 0 870 20 790 20"/><path class="cls-1" d="M540,140a30,30,0,0,0-30-30H440V210h20V170h50a10,10,0,0,1,10,10v30h20V180a29.862,29.862,0,0,0-7.65-20A29.862,29.862,0,0,0,540,140Zm-80,10V130h50a10,10,0,0,1,0,20Z"/><path class="cls-1" d="M299.29,170H320a50,50,0,1,1,0-20H299.29a30,30,0,1,0,0,20Z"/><path class="cls-2" d="M739.29,60H760a50,50,0,1,1,0-20H739.29a30,30,0,1,0,0,20Z"/><path class="cls-2" d="M320,50a50.019,50.019,0,1,0-22.44,41.71l8.29,8.29H310v-.08l.07.08H320V85.85l-8.29-8.29A49.7,49.7,0,0,0,320,50ZM297.07,62.93A30,30,0,1,1,300,50,30.037,30.037,0,0,1,297.07,62.93Z"/><polygon class="cls-1" points="720 110 720 130 680 130 680 210 660 210 660 130 620 130 620 110 720 110"/><polygon class="cls-1" points="792.83 156.46 790 160 790.05 160 790.05 210 770.05 210 770.05 160 767.22 156.46 730.05 110 755.66 110 780.02 140.45 804.38 110 830 110 792.83 156.46"/><path class="cls-2" d="M430,0V50a50,50,0,0,1-100,0V0h20V50a30,30,0,0,0,60,0V0Z"/><path class="cls-1" d="M430,110v50a50,50,0,0,1-100,0V110h20v50a30,30,0,0,0,60,0V110Z"/></g></g></g></svg>