<svg xmlns="http://www.w3.org/2000/svg" viewBox="0 0 460 220"><defs><style>.a{fill:#fff;}</style></defs><title>sergepr</title><path class="a" d="M220,58.974V208.065A11.942,11.942,0,0,1,208.065,220H11.935A11.942,11.942,0,0,1,0,208.065V19.443l27.5,27.5V192.5h165V86.474A58.969,58.969,0,0,0,133.526,27.5H46.943L19.443,0H161.026A58.969,58.969,0,0,1,220,58.974Z"/><path class="a" d="M192.5,86.474V192.5H27.5V46.943l41.69,41.7L33.014,93.9l38.458,37.482L62.4,184.305l47.519-24.984,47.534,24.984-9.075-52.924L186.821,93.9l-53.13-7.714L109.917,38.032l-17.324,35.1L46.943,27.5h86.583A58.969,58.969,0,0,1,192.5,86.474Z"/><polygon points="148.376 131.381 157.451 184.305 109.917 159.321 62.398 184.305 71.472 131.381 33.014 93.899 69.19 88.646 27.5 46.943 0 19.443 0 0 19.443 0 46.943 27.5 92.593 73.136 109.917 38.032 133.691 86.185 186.821 93.899 148.376 131.381"/><path d="M292.609,63.84a61.224,61.224,0,0,0-7.826-.486H230V219.876h31.3V157.267h23.479a61.225,61.225,0,0,0,7.826-.485c26.546-3.24,46.956-22.821,46.956-46.471S319.155,67.08,292.609,63.84Zm-7.826,62.123H261.3v-31.3h23.479c12.96,0,23.478,7.012,23.478,15.652S297.743,125.963,284.783,125.963Z"/><path d="M445.96,141.694c8.718-8.312,14.04-19.315,14.04-31.383,0-23.651-20.41-43.231-46.957-46.471a61.2,61.2,0,0,0-7.826-.486H350.435V219.876h31.3V157.267h23.478a61.2,61.2,0,0,0,7.826-.485v.485c8.641,0,15.653,10.519,15.653,23.479v39.13H460v-39.13a61.2,61.2,0,0,0-.485-7.826A58.22,58.22,0,0,0,445.96,141.694Zm-40.743-15.731H381.739v-31.3h23.478c12.96,0,23.479,7.012,23.479,15.652S418.177,125.963,405.217,125.963Z"/><path d="M266.027,29.487a16.306,16.306,0,0,1,5.255,11.795c0,9.772-9.241,17.692-20.641,17.692S230,51.054,230,41.282H241.8c0,3.255,3.963,5.9,8.846,5.9s8.846-2.642,8.846-5.9c0-2.565-2.465-4.753-5.9-5.561a12.883,12.883,0,0,0-2.949-.336,22.219,22.219,0,0,1-15.386-5.9A16.3,16.3,0,0,1,230,17.692C230,7.92,239.241,0,250.641,0s20.641,7.92,20.641,17.692H259.487c0-3.255-3.963-5.9-8.846-5.9s-8.846,2.642-8.846,5.9c0,2.566,2.465,4.754,5.9,5.562a12.883,12.883,0,0,0,2.949.336A22.218,22.218,0,0,1,266.027,29.487Z"/><polygon points="288.974 11.795 288.974 23.59 318.462 23.59 318.462 35.385 288.974 35.385 288.974 47.179 318.462 47.179 318.462 58.974 277.179 58.974 277.179 0 318.462 0 318.462 11.795 288.974 11.795"/><polygon points="430.513 11.795 430.513 23.59 460 23.59 460 35.385 430.513 35.385 430.513 47.179 460 47.179 460 58.974 418.718 58.974 418.718 0 460 0 460 11.795 430.513 11.795"/><path d="M360.351,29.517a16.311,16.311,0,0,0,5.29-11.825c0-8.911-7.69-16.288-17.692-17.509A23.062,23.062,0,0,0,345,0H324.359V58.974h11.8V35.385H345a23.062,23.062,0,0,0,2.949-.183v.183c3.255,0,5.9,3.963,5.9,8.846V58.974h11.8V44.231a23.051,23.051,0,0,0-.183-2.949A21.936,21.936,0,0,0,360.351,29.517ZM345,23.59h-8.846V11.8H345c4.883,0,8.846,2.642,8.846,5.9S349.883,23.59,345,23.59Z"/><path d="M389.231,23.59h23.59V41.282c0,9.772-9.242,17.692-20.642,17.692s-20.641-7.92-20.641-17.692V17.692C371.538,7.92,380.78,0,392.179,0s20.642,7.92,20.642,17.692h-11.8c0-3.255-3.963-5.9-8.847-5.9s-8.846,2.642-8.846,5.9v23.59c0,3.255,3.963,5.9,8.846,5.9s8.847-2.642,8.847-5.9v-5.9h-11.8Z"/></svg>