<svg xmlns="http://www.w3.org/2000/svg" viewBox="0 0 1159.88 100"><defs><style>.cls-1,.cls-3,.cls-4{fill:#121221;}.cls-2{fill:#366ce1;}.cls-3{opacity:0.62;}.cls-4{opacity:0.38;}</style></defs><title>service now</title><g id="Слой_2" data-name="Слой 2"><g id="Work_space" data-name="Work space"><g id="service_now" data-name="service now"><polygon class="cls-1" points="478.085 20 478.085 80 498.085 80 498.085 100 438.085 100 438.085 80 458.085 80 458.085 20 438.085 20 438.085 0 498.085 0 498.085 20 478.085 20"/><polygon class="cls-2" points="910 0 910 100 890 100 830 30.59 830 100 810 100 810 0 830 0 890 69.41 890 0 910 0"/><path class="cls-1" d="M20,30A10,10,0,0,0,30,40H70a30,30,0,0,1,0,60H0V80H70a10,10,0,0,0,0-20H30A30,30,0,0,1,30,0h70V20H30A10,10,0,0,0,20,30Z"/><polygon class="cls-1" points="634.052 20 634.052 40 714.052 40 714.052 60 634.052 60 634.052 80 714.052 80 714.052 100 614.052 100 614.052 0 714.052 0 714.052 20 634.052 20"/><polygon class="cls-1" points="130 20 130 40 210 40 210 60 130 60 130 80 210 80 210 100 110 100 110 0 210 0 210 20 130 20"/><path class="cls-1" d="M320,30A30,30,0,0,0,290,0H220V100h20V60h50a10,10,0,0,1,10,10v30h20V70a29.862,29.862,0,0,0-7.65-20A29.862,29.862,0,0,0,320,30ZM240,40V20h50a10,10,0,0,1,0,20Z"/><path class="cls-1" d="M582.332,60h20.71a50,50,0,1,1,0-20h-20.71a30,30,0,1,0,0,20Z"/><polygon class="cls-1" points="424.032 0 384.812 98.07 384.042 100 364.042 100 363.272 98.07 324.052 0 345.592 0 374.042 71.14 402.502 0 424.032 0"/><path class="cls-2" d="M1139.26,0,1124.8,57.86,1110.24,1.15l-.3-1.15h-14.91l-.03.11V0h-5.12l-.29,1.16-14.54,56.59L1060.62,0H1040V.02l24.61,98.41L1065,100h19.86l.38-1.5,14.67-57.13,14.7,57.24.35,1.39h15.03l.01-.04V100h4.87l.37-1.46L1159.88,0ZM1120,50.99v.04l-.02-.04Zm0,47.53-.19.61.19-.64Z"/><polygon class="cls-2" points="1120 51.03 1119.98 50.99 1120 50.99 1120 51.03"/><polygon class="cls-2" points="1120 98.52 1119.81 99.13 1120 98.49 1120 98.52"/><polygon class="cls-2" points="1120 98.52 1119.81 99.13 1120 98.49 1120 98.52"/><ellipse class="cls-3" cx="980" cy="50" rx="40" ry="10"/><ellipse class="cls-4" cx="980" cy="50" rx="10" ry="40"/><path class="cls-2" d="M980,0a50,50,0,1,0,50,50A50.005,50.005,0,0,0,980,0Zm0,80a30,30,0,1,1,30-30A30,30,0,0,1,980,80Z"/></g></g></g></svg>