<svg xmlns="http://www.w3.org/2000/svg" viewBox="0 0 540 178.678"><defs><style>.cls-1{fill:#366ce1;}.cls-2{fill:#121221;}</style></defs><title>shape security</title><g id="Слой_2" data-name="Слой 2"><g id="Work_space" data-name="Work space"><g id="shape_security" data-name="shape security"><polygon class="cls-1" points="382.026 122.95 382.026 161.8 394.976 161.8 394.976 174.75 356.126 174.75 356.126 161.8 369.076 161.8 369.076 122.95 356.126 122.95 356.126 110 394.976 110 394.976 122.95 382.026 122.95"/><path class="cls-1" d="M20,30A10,10,0,0,0,30,40H70a30,30,0,0,1,0,60H0V80H70a10,10,0,0,0,0-20H30A30,30,0,0,1,30,0h70V20H30A10,10,0,0,0,20,30Z"/><path class="cls-1" d="M12.95,129.425a6.478,6.478,0,0,0,6.475,6.475h25.9a19.425,19.425,0,0,1,0,38.85H0V161.8H45.325a6.475,6.475,0,0,0,0-12.95h-25.9a19.425,19.425,0,1,1,0-38.85H64.75v12.95H19.425A6.478,6.478,0,0,0,12.95,129.425Z"/><polygon class="cls-1" points="210 0 210 100 190 100 190 60 130 60 130 100 110 100 110 0 130 0 130 40 190 40 190 0 210 0"/><polygon class="cls-1" points="460 20 460 40 540 40 540 60 460 60 460 80 540 80 540 100 440 100 440 0 540 0 540 20 460 20"/><polygon class="cls-1" points="84.175 122.95 84.175 135.9 135.975 135.9 135.975 148.85 84.175 148.85 84.175 161.8 135.975 161.8 135.975 174.75 71.225 174.75 71.225 110 135.975 110 135.975 122.95 84.175 122.95"/><path class="cls-1" d="M349.651,129.425A19.424,19.424,0,0,0,330.226,110H284.9v64.75h12.95v-25.9h32.375a6.478,6.478,0,0,1,6.475,6.475V174.75h12.95V155.325a19.335,19.335,0,0,0-4.953-12.95A19.335,19.335,0,0,0,349.651,129.425Zm-51.8,6.475V122.95h32.375a6.475,6.475,0,1,1,0,12.95Z"/><path class="cls-1" d="M193.137,148.85h13.41a32.375,32.375,0,1,1,0-12.95h-13.41a19.425,19.425,0,1,0,0,12.95Z"/><path class="cls-1" d="M280.77,1.95,279.99,0H260.01l-.78,1.94L220,100h21.55l11.2-28h34.5l11.2,28H320ZM260.75,52,270,28.87,279.25,52Z"/><path class="cls-1" d="M400,0H330V100h20V60h50a30,30,0,0,0,0-60Zm0,40H350V20h50a10,10,0,0,1,0,20Z"/><polygon class="cls-1" points="466.202 110 466.202 122.95 440.301 122.95 440.301 174.75 427.351 174.75 427.351 122.95 401.451 122.95 401.451 110 466.202 110"/><polygon class="cls-1" points="513.327 140.083 511.494 142.375 511.527 142.375 511.527 174.75 498.577 174.75 498.577 142.375 496.744 140.083 472.677 110 489.259 110 505.032 129.716 520.805 110 537.394 110 513.327 140.083"/><path class="cls-1" d="M278.426,110v32.375a32.375,32.375,0,0,1-64.75,0V110h12.95v32.375a19.425,19.425,0,0,0,38.85,0V110Z"/><polygon class="cls-2" points="382.026 126.878 382.026 165.728 394.976 165.728 394.976 178.678 356.126 178.678 356.126 165.728 369.076 165.728 369.076 126.878 356.126 126.878 356.126 113.928 394.976 113.928 394.976 126.878 382.026 126.878"/><path class="cls-2" d="M20,33.928a10,10,0,0,0,10,10H70a30,30,0,0,1,0,60H0v-20H70a10,10,0,0,0,0-20H30a30,30,0,0,1,0-60h70v20H30A10,10,0,0,0,20,33.928Z"/><path class="cls-2" d="M12.95,133.353a6.478,6.478,0,0,0,6.475,6.475h25.9a19.425,19.425,0,0,1,0,38.85H0v-12.95H45.325a6.475,6.475,0,0,0,0-12.95h-25.9a19.425,19.425,0,1,1,0-38.85H64.75v12.95H19.425A6.478,6.478,0,0,0,12.95,133.353Z"/><polygon class="cls-2" points="210 3.928 210 103.928 190 103.928 190 63.928 130 63.928 130 103.928 110 103.928 110 3.928 130 3.928 130 43.928 190 43.928 190 3.928 210 3.928"/><polygon class="cls-2" points="460 23.928 460 43.928 540 43.928 540 63.928 460 63.928 460 83.928 540 83.928 540 103.928 440 103.928 440 3.928 540 3.928 540 23.928 460 23.928"/><polygon class="cls-2" points="84.175 126.878 84.175 139.828 135.975 139.828 135.975 152.778 84.175 152.778 84.175 165.728 135.975 165.728 135.975 178.678 71.225 178.678 71.225 113.928 135.975 113.928 135.975 126.878 84.175 126.878"/><path class="cls-2" d="M349.651,133.353a19.424,19.424,0,0,0-19.425-19.425H284.9v64.75h12.95v-25.9h32.375a6.478,6.478,0,0,1,6.475,6.475v19.425h12.95V159.253A19.335,19.335,0,0,0,344.7,146.3,19.335,19.335,0,0,0,349.651,133.353Zm-51.8,6.475v-12.95h32.375a6.475,6.475,0,1,1,0,12.95Z"/><path class="cls-2" d="M193.137,152.778h13.41a32.375,32.375,0,1,1,0-12.95h-13.41a19.425,19.425,0,1,0,0,12.95Z"/><path class="cls-2" d="M280.77,5.878l-.78-1.95H260.01l-.78,1.94L220,103.928h21.55l11.2-28h34.5l11.2,28H320Zm-20.02,50.05L270,32.8l9.25,23.13Z"/><path class="cls-2" d="M400,3.928H330v100h20v-40h50a30,30,0,1,0,0-60Zm0,40H350v-20h50a10,10,0,1,1,0,20Z"/><polygon class="cls-2" points="466.202 113.928 466.202 126.878 440.301 126.878 440.301 178.678 427.351 178.678 427.351 126.878 401.451 126.878 401.451 113.928 466.202 113.928"/><polygon class="cls-2" points="513.327 144.011 511.494 146.303 511.527 146.303 511.527 178.678 498.577 178.678 498.577 146.303 496.744 144.011 472.677 113.928 489.259 113.928 505.032 133.644 520.805 113.928 537.394 113.928 513.327 144.011"/><path class="cls-2" d="M278.426,113.928V146.3a32.375,32.375,0,0,1-64.75,0V113.928h12.95V146.3a19.425,19.425,0,0,0,38.85,0V113.928Z"/></g></g></g></svg>