<svg xmlns="http://www.w3.org/2000/svg" viewBox="0 0 955.113 220"><defs><style>.cls-1{fill:#366ce1;}.cls-2{fill:#121221;}</style></defs><title>share chat</title><g id="Слой_2" data-name="Слой 2"><g id="Work_space" data-name="Work space"><g id="share_chat" data-name="share chat"><path class="cls-1" d="M20,30A10,10,0,0,0,30,40H70a30,30,0,0,1,0,60H0V80H70a10,10,0,0,0,0-20H30A30,30,0,0,1,30,0h70V20H30A10,10,0,0,0,20,30Z"/><polygon class="cls-2" points="760 120 760 220 740 220 740 180 680 180 680 220 660 220 660 120 680 120 680 160 740 160 740 120 760 120"/><polygon class="cls-1" points="210 0 210 100 190 100 190 60 130 60 130 100 110 100 110 0 130 0 130 40 190 40 190 0 210 0"/><polygon class="cls-1" points="460 20 460 40 540 40 540 60 460 60 460 80 540 80 540 100 440 100 440 0 540 0 540 20 460 20"/><path class="cls-1" d="M430,30A30,30,0,0,0,400,0H330V100h20V60h50a10,10,0,0,1,10,10v30h20V70a29.862,29.862,0,0,0-7.65-20A29.862,29.862,0,0,0,430,30ZM350,40V20h50a10,10,0,0,1,0,20Z"/><path class="cls-2" d="M629.29,180H650a50,50,0,1,1,0-20H629.29a30,30,0,1,0,0,20Z"/><path class="cls-2" d="M830.77,121.95l-.78-1.95H810.01l-.78,1.94L770,220h21.55l11.2-28h34.5l11.2,28H870ZM810.75,172,820,148.87,829.25,172Z"/><path class="cls-1" d="M280.77,1.95,279.99,0H260.01l-.78,1.94L220,100h21.55l11.2-28h34.5l11.2,28H320ZM260.75,52,270,28.87,279.25,52Z"/><polygon class="cls-2" points="955.113 120 955.113 140 915.113 140 915.113 220 895.113 220 895.113 140 855.113 140 855.113 120 955.113 120"/></g></g></g></svg>