<svg xmlns="http://www.w3.org/2000/svg" viewBox="0 0 1070 220"><defs><style>.cls-1{fill:#121221;}.cls-2{fill:#366ce1;}</style></defs><title>share enterprise</title><g id="Слой_2" data-name="Слой 2"><g id="Work_space" data-name="Work space"><g id="share_enterprise" data-name="share enterprise"><polygon class="cls-1" points="210 120 210 220 190 220 130 150.59 130 220 110 220 110 120 130 120 190 189.41 190 120 210 120"/><path class="cls-1" d="M20,30A10,10,0,0,0,30,40H70a30,30,0,0,1,0,60H0V80H70a10,10,0,0,0,0-20H30A30,30,0,0,1,30,0h70V20H30A10,10,0,0,0,20,30Z"/><path class="cls-1" d="M880,150a10,10,0,0,0,10,10h40a30,30,0,0,1,0,60H860V200h70a10,10,0,0,0,0-20H890a30,30,0,0,1,0-60h70v20H890A10,10,0,0,0,880,150Z"/><polygon class="cls-1" points="210 0 210 100 190 100 190 60 130 60 130 100 110 100 110 0 130 0 130 40 190 40 190 0 210 0"/><polygon class="cls-1" points="460 20 460 40 540 40 540 60 460 60 460 80 540 80 540 100 440 100 440 0 540 0 540 20 460 20"/><polygon class="cls-1" points="20 140 20 160 100 160 100 180 20 180 20 200 100 200 100 220 0 220 0 120 100 120 100 140 20 140"/><polygon class="cls-1" points="350 140 350 160 430 160 430 180 350 180 350 200 430 200 430 220 330 220 330 120 430 120 430 140 350 140"/><polygon class="cls-1" points="990 140 990 160 1070 160 1070 180 990 180 990 200 1070 200 1070 220 970 220 970 120 1070 120 1070 140 990 140"/><path class="cls-1" d="M430,30A30,30,0,0,0,400,0H330V100h20V60h50a10,10,0,0,1,10,10v30h20V70a29.862,29.862,0,0,0-7.65-20A29.862,29.862,0,0,0,430,30ZM350,40V20h50a10,10,0,0,1,0,20Z"/><path class="cls-1" d="M540,150a30,30,0,0,0-30-30H440V220h20V180h50a10,10,0,0,1,10,10v30h20V190a29.862,29.862,0,0,0-7.65-20A29.862,29.862,0,0,0,540,150Zm-80,10V140h50a10,10,0,0,1,0,20Z"/><path class="cls-1" d="M760,150a30,30,0,0,0-30-30H660V220h20V180h50a10,10,0,0,1,10,10v30h20V190a29.862,29.862,0,0,0-7.65-20A29.862,29.862,0,0,0,760,150Zm-80,10V140h50a10,10,0,0,1,0,20Z"/><path class="cls-1" d="M280.77,1.95,279.99,0H260.01l-.78,1.94L220,100h21.55l11.2-28h34.5l11.2,28H320ZM260.75,52,270,28.87,279.25,52Z"/><polygon class="cls-1" points="820 140 820 200 850 200 850 220 770 220 770 200 800 200 800 140 770 140 770 120 850 120 850 140 820 140"/><path class="cls-1" d="M620,120H550V220h20V180h50a30,30,0,0,0,0-60Zm0,40H570V140h50a10,10,0,0,1,0,20Z"/><polygon class="cls-1" points="320 120 320 140 280 140 280 220 260 220 260 140 220 140 220 120 320 120"/><polygon class="cls-2" points="860 40 860 60 820 60 820 100 800 100 800 60 760 60 760 40 800 40 800 0 820 0 820 40 860 40"/></g></g></g></svg>