<svg xmlns="http://www.w3.org/2000/svg" viewBox="0 0 970 210"><defs><style>.cls-1{fill:#121221;}.cls-2{fill:#366ce1;}</style></defs><title>shedulefly</title><g id="Complete"><g id="shedulefly"><path class="cls-1" d="M400,395H350V495h50a50,50,0,0,0,0-100Zm0,80H370V415h30a30,30,0,0,1,0,60Z" transform="translate(-20 -395)"/><path class="cls-1" d="M40,425a10,10,0,0,0,10,10H90a30,30,0,0,1,0,60H20V475H90a10,10,0,0,0,0-20H50a30,30,0,0,1,0-60h70v20H50A10,10,0,0,0,40,425Z" transform="translate(-20 -395)"/><polygon class="cls-1" points="210 0 210 100 190 100 190 60 130 60 130 100 110 100 110 0 130 0 130 40 190 40 190 0 210 0"/><polygon class="cls-1" points="240 20 240 40 320 40 320 60 240 60 240 80 320 80 320 100 220 100 220 0 320 0 320 20 240 20"/><polygon class="cls-1" points="680 20 680 40 760 40 760 60 680 60 680 80 760 80 760 100 660 100 660 0 760 0 760 20 680 20"/><path class="cls-1" d="M560,395v50a50,50,0,0,1-100,0V395h20v50a30,30,0,0,0,60,0V395Z" transform="translate(-20 -395)"/><polygon class="cls-1" points="650 80 650 100 550 100 550 0 570 0 570 80 650 80"/><polygon class="cls-2" points="500.05 130 500.05 150 560.05 150 560.05 170 500.05 170 500.05 210 480.05 210 480.05 110 580.05 110 580.05 130 500.05 130"/><polygon class="cls-2" points="722.83 156.46 720 160 720.05 160 720.05 210 700.05 210 700.05 160 697.22 156.46 660.05 110 685.66 110 710.02 140.45 734.38 110 760 110 722.83 156.46"/><polygon class="cls-2" points="690.05 190 690.05 210 590.05 210 590.05 110 610.05 110 610.05 190 690.05 190"/><path class="cls-2" d="M940,450a50.005,50.005,0,0,0-50,50,50,50,0,1,1,50-50Z" transform="translate(-20 -395)"/><path class="cls-2" d="M990,500a50,50,0,0,1-100,0,50.005,50.005,0,0,0,50-50A50.005,50.005,0,0,1,990,500Z" transform="translate(-20 -395)"/><path class="cls-2" d="M890,500a50.005,50.005,0,0,0-50,50,50,50,0,1,1,50-50Z" transform="translate(-20 -395)"/><path class="cls-2" d="M940,550a50,50,0,0,1-100,0,50.005,50.005,0,0,0,50-50A50.005,50.005,0,0,1,940,550Z" transform="translate(-20 -395)"/><path class="cls-1" d="M940,550a50.005,50.005,0,0,0-50-50,50,50,0,1,1,50,50Z" transform="translate(-20 -395)"/><path class="cls-1" d="M890,600a50,50,0,0,1,0-100,50.005,50.005,0,0,0,50,50A50.005,50.005,0,0,1,890,600Z" transform="translate(-20 -395)"/><path class="cls-1" d="M890,500a50.005,50.005,0,0,0-50-50,50,50,0,1,1,50,50Z" transform="translate(-20 -395)"/><path class="cls-1" d="M840,550a50,50,0,0,1,0-100,50.005,50.005,0,0,0,50,50A50.005,50.005,0,0,1,840,550Z" transform="translate(-20 -395)"/><path class="cls-2" d="M940,450a50.005,50.005,0,0,1-50,50A50.005,50.005,0,0,1,940,450Z" transform="translate(-20 -395)"/><path class="cls-2" d="M890,500a50.005,50.005,0,0,1-50,50A50.005,50.005,0,0,1,890,500Z" transform="translate(-20 -395)"/><path class="cls-2" d="M940,550a50.005,50.005,0,0,1-50-50A50.005,50.005,0,0,1,940,550Z" transform="translate(-20 -395)"/><path class="cls-2" d="M890,500a50.005,50.005,0,0,1-50-50A50.005,50.005,0,0,1,890,500Z" transform="translate(-20 -395)"/></g></g></svg>