<svg xmlns="http://www.w3.org/2000/svg" viewBox="0 0 1290 100"><defs><style>.cls-1{fill:#366ce1;}.cls-2{fill:#121221;}</style></defs><title>shift connect</title><g id="Слой_2" data-name="Слой 2"><g id="Work_space" data-name="Work space"><g id="shift_connect" data-name="shift connect"><path class="cls-1" d="M619.29,60H640a50,50,0,1,1,0-20H619.29a30,30,0,1,0,0,20Z"/><path class="cls-1" d="M1169.29,60H1190a50,50,0,1,1,0-20h-20.71a30,30,0,1,0,0,20Z"/><polygon class="cls-2" points="350 20 350 40 410 40 410 60 350 60 350 100 330 100 330 0 430 0 430 20 350 20"/><polygon class="cls-1" points="860 0 860 100 840 100 780 30.59 780 100 760 100 760 0 780 0 840 69.41 840 0 860 0"/><polygon class="cls-1" points="970 0 970 100 950 100 890 30.59 890 100 870 100 870 0 890 0 950 69.41 950 0 970 0"/><path class="cls-2" d="M20,30A10,10,0,0,0,30,40H70a30,30,0,0,1,0,60H0V80H70a10,10,0,0,0,0-20H30A30,30,0,0,1,30,0h70V20H30A10,10,0,0,0,20,30Z"/><polygon class="cls-2" points="210 0 210 100 190 100 190 60 130 60 130 100 110 100 110 0 130 0 130 40 190 40 190 0 210 0"/><polygon class="cls-1" points="1000 20 1000 40 1080 40 1080 60 1000 60 1000 80 1080 80 1080 100 980 100 980 0 1080 0 1080 20 1000 20"/><path class="cls-1" d="M700,0a50,50,0,1,0,50,50A50.005,50.005,0,0,0,700,0Zm0,80a30,30,0,1,1,30-30A30,30,0,0,1,700,80Z"/><polygon class="cls-2" points="280 20 280 80 310 80 310 100 230 100 230 80 260 80 260 20 230 20 230 0 310 0 310 20 280 20"/><polygon class="cls-1" points="1290 0 1290 20 1250 20 1250 100 1230 100 1230 20 1190 20 1190 0 1290 0"/><polygon class="cls-2" points="540 0 540 20 500 20 500 100 480 100 480 20 440 20 440 0 540 0"/></g></g></g></svg>