<svg xmlns="http://www.w3.org/2000/svg" viewBox="0 0 974.975 200"><defs><style>.cls-1{fill:#121221;}.cls-2{fill:#366ce1;}</style></defs><title>shopery</title><g id="Слой_2" data-name="Слой 2"><g id="Work_space" data-name="Work space"><g id="shopery"><path class="cls-1" d="M20,80A10,10,0,0,0,30,90H70a30,30,0,0,1,0,60H0V130H70a10,10,0,0,0,0-20H30a30,30,0,0,1,0-60h70V70H30A10,10,0,0,0,20,80Z"/><polygon class="cls-1" points="210 50 210 150 190 150 190 110 130 110 130 150 110 150 110 50 130 50 130 90 190 90 190 50 210 50"/><polygon class="cls-1" points="460 70 460 90 540 90 540 110 460 110 460 130 540 130 540 150 440 150 440 50 540 50 540 70 460 70"/><path class="cls-1" d="M650,80a30,30,0,0,0-30-30H550V150h20V110h50a10,10,0,0,1,10,10v30h20V120a29.862,29.862,0,0,0-7.65-20A29.862,29.862,0,0,0,650,80ZM570,90V70h50a10,10,0,0,1,0,20Z"/><path class="cls-1" d="M270,50a50,50,0,1,0,50,50A50.005,50.005,0,0,0,270,50Zm0,80a30,30,0,1,1,30-30A30,30,0,0,1,270,130Z"/><path class="cls-1" d="M400,50H330V150h20V110h50a30,30,0,0,0,0-60Zm0,40H350V70h50a10,10,0,0,1,0,20Z"/><polygon class="cls-1" points="712.78 96.46 709.95 100 710 100 710 150 690 150 690 100 687.17 96.46 650 50 675.61 50 699.97 80.45 724.33 50 749.95 50 712.78 96.46"/><path class="cls-1" d="M892.715,1.57a50.244,50.244,0,0,0-37.74,48.67V160h-40v20A100.029,100.029,0,0,1,892.715,1.57Z"/><path class="cls-1" d="M974.975,100a100.082,100.082,0,0,1-117.74,98.43,50.244,50.244,0,0,0,37.74-48.67V40h40V20A99.806,99.806,0,0,1,974.975,100Z"/><path class="cls-2" d="M934.975,20V40h-40V149.76a50.244,50.244,0,0,1-37.74,48.67A99.313,99.313,0,0,1,814.975,180V160h40V50.24a50.244,50.244,0,0,1,37.74-48.67A99.313,99.313,0,0,1,934.975,20Z"/></g></g></g></svg>