<svg xmlns="http://www.w3.org/2000/svg" viewBox="0 0 990.01 160"><defs><style>.cls-1{fill:#121221;}.cls-2{fill:#366ce1;}</style></defs><title>signifyd</title><g id="Слой_2" data-name="Слой 2"><g id="Work_space" data-name="Work space"><g id="signifyd"><polygon class="cls-1" points="560.02 50 560.02 70 620.02 70 620.02 90 560.02 90 560.02 130 540.02 130 540.02 30 640.02 30 640.02 50 560.02 50"/><polygon class="cls-1" points="420.02 30 420.02 130 400.02 130 340.02 60.59 340.02 130 320.02 130 320.02 30 340.02 30 400.02 99.41 400.02 30 420.02 30"/><path class="cls-1" d="M810.02,30h-50V130h50a50,50,0,0,0,0-100Zm0,80h-30V50h30a30,30,0,0,1,0,60Z"/><path class="cls-1" d="M20,60A10,10,0,0,0,30,70H70a30,30,0,0,1,0,60H0V110H70a10,10,0,0,0,0-20H30a30,30,0,0,1,0-60h70V50H30A10,10,0,0,0,20,60Z"/><path class="cls-1" d="M310.02,70V80a49.16,49.16,0,0,1-1.01,10,50.013,50.013,0,1,1-13.64-45.35L281.23,58.79A30,30,0,1,0,288.3,90H260.02V70Z"/><polygon class="cls-1" points="490.02 50 490.02 110 530.02 110 530.02 130 430.02 130 430.02 110 470.02 110 470.02 50 430.02 50 430.02 30 530.02 30 530.02 50 490.02 50"/><polygon class="cls-1" points="170 50 170 110 210 110 210 130 110 130 110 110 150 110 150 50 110 50 110 30 210 30 210 50 170 50"/><polygon class="cls-1" points="712.8 76.46 709.97 80 710.02 80 710.02 130 690.02 130 690.02 80 687.19 76.46 650.02 30 675.63 30 699.99 60.45 724.35 30 749.97 30 712.8 76.46"/><path class="cls-1" d="M990.01,0V100h-100V0h50a29.993,29.993,0,0,0-17.77,54.16A39.977,39.977,0,0,0,900.01,90h80a39.977,39.977,0,0,0-22.23-35.84A29.993,29.993,0,0,0,940.01,0Z"/><rect class="cls-2" x="900.01" y="110" width="50" height="50" transform="translate(790.01 1060.01) rotate(-90)"/><rect class="cls-2" x="960.01" y="110" width="20" height="20" transform="translate(850.01 1090.01) rotate(-90)"/></g></g></g></svg>