<svg xmlns="http://www.w3.org/2000/svg" viewBox="0 0 869.92 100"><defs><style>.cls-1,.cls-3,.cls-4{fill:#121221;}.cls-2{fill:#366ce1;}.cls-3{opacity:0.62;}.cls-4{opacity:0.38;}</style></defs><title>signal fx</title><g id="Слой_2" data-name="Слой 2"><g id="Work_space" data-name="Work space"><g id="signal_fx" data-name="signal fx"><path class="cls-1" d="M439.72,55l-4.51-10L415.5,1.27l.01-.01L415.02.18h-.01L414.93,0h-9.84l-.08.18V.2l-.47,1.05h-.01L384.81,45,380.3,55l-20.28,45h10.97l20.28-45h37.48l20.28,45H460Zm-19.71-2.96-.02-.04h.02ZM395.78,45l14.23-31.58L424.25,45Z"/><polygon class="cls-1" points="570 90 570 100 470 100 470 0 480 0 480 90 570 90"/><path class="cls-1" d="M10,27.5A17.506,17.506,0,0,0,27.5,45h45A27.5,27.5,0,0,1,80,98.95,26.911,26.911,0,0,1,72.5,100H0V90H72.5a17.5,17.5,0,0,0,0-35h-45A27.5,27.5,0,0,1,20,1.05,26.911,26.911,0,0,1,27.5,0H100V10H27.5A17.506,17.506,0,0,0,10,27.5Z"/><polygon class="cls-1" points="125 10 125 90 130 90 130 100 110 100 110 90 115 90 115 10 110 10 110 0 130 0 130 10 125 10"/><polygon class="cls-1" points="350 0 350 100 340.07 100 340 99.92 260 14.59 260 100 250 100 250 0 260.02 0 340 85.3 340 0 350 0"/><polygon class="cls-2" points="826.57 50 869.92 100 856.69 100 819.96 57.63 783.23 100 770 100 813.35 50 770 0 783.23 0 819.96 42.37 856.69 0 869.92 0 826.57 50"/><polygon class="cls-2" points="670 10 670 45 730 45 730 55 670 55 670 100 660 100 660 0 760 0 760 10 670 10"/><polygon class="cls-3" points="826.57 50 869.92 100 856.69 100 819.96 57.63 783.23 100 770 100 813.35 50 770 0 783.23 0 819.96 42.37 856.69 0 869.92 0 826.57 50"/><polygon class="cls-4" points="670 10 670 45 730 45 730 55 670 55 670 100 660 100 660 0 760 0 760 10 670 10"/><path class="cls-1" d="M240,50a48.521,48.521,0,0,1-.25,5,50.016,50.016,0,1,1-14.4-40.35l-7.07,7.07A39.992,39.992,0,1,0,229.69,55H190V45h49.75A48.521,48.521,0,0,1,240,50Z"/></g></g></g></svg>