<svg xmlns="http://www.w3.org/2000/svg" viewBox="0 0 1190 200"><defs><style>.cls-1{fill:#121221;}.cls-2{fill:#366ce1;}</style></defs><title>simplybook me</title><g id="Слой_2" data-name="Слой 2"><g id="Work_space" data-name="Work space"><g id="simplybook_me" data-name="simplybook me"><path class="cls-1" d="M256.04,85v55a10,10,0,0,1-20,0V85a15,15,0,1,0-30,0h0v55a10,10,0,0,1-20,0V85h0a15,15,0,1,0-30,0v55a10,10,0,0,1-20,0V85a35.779,35.779,0,0,1,.35-5,35.011,35.011,0,0,1,59.65-19.5A35.011,35.011,0,0,1,255.69,80,35.779,35.779,0,0,1,256.04,85Z"/><path class="cls-1" d="M1080,85v55a10,10,0,0,1-20,0V85a15,15,0,0,0-30,0h0v55a10,10,0,0,1-20,0V85h0a15,15,0,0,0-30,0v55a10,10,0,0,1-20,0V85a35.779,35.779,0,0,1,.35-5A35.011,35.011,0,0,1,1020,60.5,35.011,35.011,0,0,1,1079.65,80,35.779,35.779,0,0,1,1080,85Z"/><rect class="cls-1" x="106.04" y="50" width="20" height="100" rx="10"/><circle class="cls-1" cx="116.04" cy="30" r="10"/><path class="cls-1" d="M316.04,50a50.005,50.005,0,0,0-50,50v90a10,10,0,0,0,20,0V139.99a50,50,0,1,0,30-89.99Zm0,80a30,30,0,1,1,30-30A30,30,0,0,1,316.04,130Z"/><path class="cls-2" d="M616.04,100a49.99,49.99,0,0,0-80-39.99V10a10,10,0,0,0-20,0v90a50,50,0,0,0,100,0Zm-20,0a30,30,0,1,1-30-30A30,30,0,0,1,596.04,100Z"/><path class="cls-2" d="M786.04,50a50,50,0,1,0,50,50A50.005,50.005,0,0,0,786.04,50Zm0,80a30,30,0,1,1,30-30A30,30,0,0,1,786.04,130Z"/><path class="cls-2" d="M676.04,50a50,50,0,1,0,50,50A50.005,50.005,0,0,0,676.04,50Zm0,80a30,30,0,1,1,30-30A30,30,0,0,1,676.04,130Z"/><path class="cls-1" d="M100,100a49.16,49.16,0,0,1-1.01,10,50,50,0,0,1-74.607,32.941,9.889,9.889,0,0,1-1.856-15.468l.141-.141a10.008,10.008,0,0,1,12.19-1.432A30,30,0,0,0,78.28,110H10a9.954,9.954,0,0,1-10-9.834V100A49.16,49.16,0,0,1,1.01,90,50,50,0,0,1,75.617,57.059a9.889,9.889,0,0,1,1.856,15.468l-.141.141A10.008,10.008,0,0,1,65.142,74.1,30,30,0,0,0,21.72,90H90a9.954,9.954,0,0,1,10,9.834Z"/><path class="cls-2" d="M929.879,141.576a10,10,0,0,1-16.239,6.144c-.14-.12-.27-.24-.4-.36l-37.69-33.93L866.04,122v18a10,10,0,0,1-10,10h0a10,10,0,0,1-10-10V20a10,10,0,0,1,10-10h0a10,10,0,0,1,10,10V95.09l9.51-8.57,36.98-33.29c0-.01.01-.02.02-.03l1.51-1.36A9.9,9.9,0,0,1,918.72,50h1.24a10.017,10.017,0,0,1,9.8,7.99,10.8,10.8,0,0,1,.18,1.42c.01.19.02.39.02.59a9.954,9.954,0,0,1-3.28,7.4c-.12.11-.24.21-.36.32L890.5,99.98l36.22,32.62A9.98,9.98,0,0,1,929.879,141.576Z"/><path class="cls-1" d="M506.04,60v79.112c0,27.685-22.649,51.068-50.333,50.887a49.743,49.743,0,0,1-25.118-6.959,9.927,9.927,0,0,1-2.022-15.567l.142-.142A10.008,10.008,0,0,1,440.9,165.9,30,30,0,0,0,486.04,140v-.01a49.726,49.726,0,0,1-30,10.01,49.988,49.988,0,0,1-50-50V60a10,10,0,0,1,10-10h0a10,10,0,0,1,10,10v40.01a30,30,0,0,0,60,0V60a10,10,0,0,1,10-10h0A10,10,0,0,1,506.04,60Z"/><rect class="cls-1" x="376.04" width="20" height="150" rx="10"/><path class="cls-1" d="M1179.935,110A10.013,10.013,0,0,0,1190,100.1V100a49.16,49.16,0,0,0-1.01-10,50,50,0,0,0-97.98,0,50.01,50.01,0,0,0,0,20,50.01,50.01,0,0,0,70.158,35.3,9.924,9.924,0,0,0,2.035-16.743l-.159-.127a9.882,9.882,0,0,0-10.359-1.242A30.006,30.006,0,0,1,1111.72,110ZM1140,70a29.979,29.979,0,0,1,28.28,20h-56.56A29.979,29.979,0,0,1,1140,70Z"/></g></g></g></svg>