<svg xmlns="http://www.w3.org/2000/svg" viewBox="0 0 815 130"><defs><style>.cls-1{fill:#121221;}.cls-2{fill:#366ce1;}</style></defs><title>simplix</title><g id="Слой_2" data-name="Слой 2"><g id="Work_space" data-name="Work space"><g id="simplix"><path class="cls-1" d="M747.5,0A27.5,27.5,0,0,0,720,27.5,27.491,27.491,0,0,0,747.5,55a27.5,27.5,0,0,0,0-55Zm0,45a17.5,17.5,0,0,1-14.18-27.75l.34-.45a16.167,16.167,0,0,1,1.61-1.8,17.457,17.457,0,0,1,24.46,0,.752.752,0,0,1,.16.15A17.494,17.494,0,0,1,747.5,45Z"/><path class="cls-2" d="M759.89,15.15,739.11,42.86a17.5,17.5,0,0,1-5.79-25.61l.34-.45a16.167,16.167,0,0,1,1.61-1.8,17.457,17.457,0,0,1,24.46,0A.752.752,0,0,1,759.89,15.15Z"/><path class="cls-1" d="M747.5,75a27.482,27.482,0,0,0-26.73,21.06,26.784,26.784,0,0,0-.77,6.44A27.5,27.5,0,1,0,747.5,75Zm12.36,39.88a1.538,1.538,0,0,1-.13.12,16.205,16.205,0,1,1,.13-.12Z"/><path class="cls-2" d="M759.86,114.88a1.538,1.538,0,0,1-.13.12,17.494,17.494,0,1,1-20.65-27.84Z"/><circle class="cls-1" cx="797.5" cy="62.5" r="17.5"/><polygon class="cls-2" points="320 15 320 115 300 115 300 45.59 283.2 65.05 269.99 80.36 256.78 65.05 240 45.62 240 115 220 115 220 15 240 15 240 15.01 269.99 49.75 299.98 15 320 15"/><path class="cls-2" d="M20,45A10,10,0,0,0,30,55H70a30,30,0,0,1,0,60H0V95H70a10,10,0,0,0,0-20H30a30,30,0,0,1,0-60h70V35H30A10,10,0,0,0,20,45Z"/><polygon class="cls-2" points="540 95 540 115 440 115 440 15 460 15 460 95 540 95"/><polygon class="cls-2" points="610 35 610 95 650 95 650 115 550 115 550 95 590 95 590 35 550 35 550 15 650 15 650 35 610 35"/><polygon class="cls-2" points="170 35 170 95 210 95 210 115 110 115 110 95 150 95 150 35 110 35 110 15 210 15 210 35 170 35"/><path class="cls-2" d="M400,15H330V115h20V75h50a30,30,0,0,0,0-60Zm0,40H350V35h50a10,10,0,0,1,0,20Z"/><path class="cls-2" d="M735.27,15a16.167,16.167,0,0,0-1.61,1.8l1.35-1.8Z"/><path class="cls-2" d="M733.08,50.92,722.5,65.03,733.05,79.1l6.03,8.06A17.482,17.482,0,0,0,735.27,115h-.31L720.77,96.06,710.01,81.7,685.05,115H660.07l37.44-49.97L660.02,15H685l25.01,33.36,10.77-14.37,12.54-16.74a17.5,17.5,0,0,0,5.79,25.61Z"/><path class="cls-2" d="M760,15l-.11.15a.752.752,0,0,0-.16-.15Z"/><path class="cls-2" d="M759.86,114.88l.09.12h-.22A1.538,1.538,0,0,0,759.86,114.88Z"/></g></g></g></svg>