<svg id="Main" xmlns="http://www.w3.org/2000/svg" viewBox="0 0 760 250"><defs><style>.cls-1{fill:#121221;}.cls-2{fill:#366ce1;}</style></defs><title>simula</title><g id="Simula"><rect class="cls-1" y="80" width="760" height="10"/><rect class="cls-1" y="120" width="760" height="10"/><rect class="cls-1" y="160" width="760" height="10"/><rect class="cls-1" y="240" width="760" height="10"/><rect class="cls-1" y="200" width="760" height="10"/><rect class="cls-2" x="150" y="50" width="40" height="200"/><path class="cls-2" d="M530,485V625H490V485a20,20,0,0,0-40,0V625H410V485a20,20,0,0,0-40,0V625H330V425h40v3.42a60.076,60.076,0,0,1,60,11.85A60.007,60.007,0,0,1,530,485Z" transform="translate(-120 -375)"/><rect class="cls-2" x="570" width="40" height="250"/><path class="cls-2" d="M670,425V565a60,60,0,0,1-120,0V425h40V565a20,20,0,0,0,40,0V425Z" transform="translate(-120 -375)"/><rect class="cls-1" x="150" width="40" height="40"/><path class="cls-2" d="M810,425a60,60,0,0,0-56.58,40,59.677,59.677,0,0,0,11.86,19.99A59.861,59.861,0,0,1,810,465a20,20,0,0,1,0,40,60,60,0,1,0,20,116.58V625h40V485A60,60,0,0,0,810,425Zm0,160a20,20,0,1,1,20-20A19.994,19.994,0,0,1,810,585Z" transform="translate(-120 -375)"/><path class="cls-2" d="M250,565a60.007,60.007,0,0,1-116.58,20,59.677,59.677,0,0,1,11.86-19.99A59.861,59.861,0,0,0,190,585a20,20,0,0,0,0-40,60,60,0,1,1,56.58-80,59.677,59.677,0,0,1-11.86,19.99A59.861,59.861,0,0,0,190,465a20,20,0,0,0,0,40,59.986,59.986,0,0,1,60,60Z" transform="translate(-120 -375)"/><rect class="cls-1" y="60" width="760" height="10"/><rect class="cls-1" y="100" width="760" height="10"/><rect class="cls-1" y="140" width="760" height="10"/><rect class="cls-1" y="180" width="760" height="10"/><rect class="cls-1" y="220" width="760" height="10"/></g></svg>