<svg xmlns="http://www.w3.org/2000/svg" viewBox="0 0 350 100"><defs><style>.cls-1{fill:#366ce1;}.cls-2,.cls-3,.cls-4{fill:#121221;}.cls-2{opacity:0.38;}.cls-3{opacity:0.62;}</style></defs><title>siri</title><g id="Слой_2" data-name="Слой 2"><g id="Work_space" data-name="Work space"><g id="siri"><rect class="cls-1" x="110" width="20" height="20"/><rect class="cls-1" x="150" width="20" height="20"/><rect class="cls-1" x="110" y="80" width="20" height="20"/><rect class="cls-1" x="150" y="80" width="20" height="20"/><rect class="cls-1" x="290" width="20" height="20"/><rect class="cls-1" x="290" y="80" width="20" height="20"/><rect class="cls-1" x="330" width="20" height="20"/><rect class="cls-1" x="330" y="80" width="20" height="20"/><rect class="cls-2" x="110" width="20" height="20"/><rect class="cls-2" x="150" width="20" height="20"/><rect class="cls-3" x="110" y="80" width="20" height="20"/><rect class="cls-3" x="150" y="80" width="20" height="20"/><rect class="cls-2" x="290" width="20" height="20"/><rect class="cls-3" x="290" y="80" width="20" height="20"/><rect class="cls-2" x="330" width="20" height="20"/><rect class="cls-3" x="330" y="80" width="20" height="20"/><path class="cls-4" d="M20,30A10,10,0,0,0,30,40H70a30,30,0,0,1,0,60H0V80H70a10,10,0,0,0,0-20H30A30,30,0,0,1,30,0h70V20H30A10,10,0,0,0,20,30Z"/><path class="cls-4" d="M280,30A30,30,0,0,0,250,0H180V100h20V60h50a10,10,0,0,1,10,10v30h20V70a29.862,29.862,0,0,0-7.65-20A29.862,29.862,0,0,0,280,30ZM200,40V20h50a10,10,0,0,1,0,20Z"/><rect class="cls-4" x="130" width="20" height="100"/><rect class="cls-4" x="310" width="20" height="100"/></g></g></g></svg>