<svg xmlns="http://www.w3.org/2000/svg" viewBox="0 0 908 140"><defs><style>.cls-1{fill:#366ce1;}.cls-2,.cls-3{fill:#121221;}.cls-2{opacity:0.62;}.cls-4{opacity:0.38;}</style></defs><title>sitesearch 360</title><g id="Complete"><g id="sitesearch"><path class="cls-1" d="M970,520a50,50,0,1,0-95.83,20,50,50,0,1,0,91.66,0A49.792,49.792,0,0,0,970,520Zm-20,40a30,30,0,0,1-60,0v-.01A29.836,29.836,0,0,1,897.65,540,29.836,29.836,0,0,1,890,520.01V520a30,30,0,0,1,60,0v.01A29.836,29.836,0,0,1,942.35,540,29.836,29.836,0,0,1,950,559.99Z" transform="translate(-62 -470)"/><path class="cls-1" d="M855.83,540A49.991,49.991,0,0,0,780,520.01V520a29.994,29.994,0,0,1,55.53-15.74q6.09-8.535,12.19-17.07A50,50,0,0,0,764.17,540a50,50,0,1,0,91.66,0ZM840,560a30,30,0,0,1-60,0v-.01A30.019,30.019,0,0,1,810,530a29.436,29.436,0,0,1,6.61.74A30.022,30.022,0,0,1,840,559.99Z" transform="translate(-62 -470)"/><path class="cls-2" d="M855.83,540A49.991,49.991,0,0,0,780,520.01V520a29.994,29.994,0,0,1,55.53-15.74q6.09-8.535,12.19-17.07A50,50,0,0,0,764.17,540a50,50,0,1,0,91.66,0ZM840,560a30,30,0,0,1-60,0v-.01A30.019,30.019,0,0,1,810,530a29.436,29.436,0,0,1,6.61.74A30.022,30.022,0,0,1,840,559.99Z" transform="translate(-62 -470)"/><path class="cls-3" d="M82,530a10,10,0,0,0,10,10h40a30,30,0,0,1,0,60H62V580h70a10,10,0,0,0,0-20H92a30,30,0,0,1,0-60h70v20H92A10,10,0,0,0,82,530Z" transform="translate(-62 -470)"/><rect class="cls-3" x="104.5" y="80" width="10" height="50"/><rect class="cls-3" x="104.5" y="65" width="10" height="10"/><path class="cls-3" d="M283.5,580a25,25,0,0,0,0-10,25,25,0,0,0-48.99,0,25,25,0,0,0,0,10,24.993,24.993,0,0,0,41.335,13.47q-3.982-3.187-7.97-6.375a15,15,0,0,1-23.01-7.1ZM259,560a14.989,14.989,0,0,1,14.14,10H244.86A14.989,14.989,0,0,1,259,560Z" transform="translate(-62 -470)"/><path class="cls-3" d="M231.5,575a25,25,0,0,1-50,0V530h10v25a24.863,24.863,0,0,1,15-5v10a15,15,0,1,0,15,15Z" transform="translate(-62 -470)"/><path class="cls-1" d="M312,530a10,10,0,0,0,10,10h40a30,30,0,0,1,0,60H292V580h70a10,10,0,0,0,0-20H322a30,30,0,0,1,0-60h70v20H322A10,10,0,0,0,312,530Z" transform="translate(-62 -470)"/><path class="cls-1" d="M578.755,583.43q3.128,4.11,6.245,8.215a25,25,0,1,1,0-33.29q-3.12,4.11-6.245,8.215a15,15,0,1,0,0,16.86Z" transform="translate(-62 -470)"/><path class="cls-1" d="M490.5,554.736c-24.254-15.238-49.824,9.084-37.128,33.381a23.694,23.694,0,0,0,8.455,8.48c10.411,5.474,20.852,3.909,28.177-1.6v5h10V571.993A20.374,20.374,0,0,0,490.5,554.736Zm-6.449,32.581c-14.876,9.05-30.414-6.488-21.364-21.364a9.8,9.8,0,0,1,3.27-3.27c14.876-9.05,30.414,6.488,21.364,21.364A9.8,9.8,0,0,1,484.047,587.317Z" transform="translate(-62 -470)"/><path class="cls-1" d="M444.5,580a25,25,0,0,0,0-10,25,25,0,0,0-48.99,0,25,25,0,0,0,0,10,24.993,24.993,0,0,0,41.335,13.47q-3.982-3.187-7.97-6.375a15,15,0,0,1-23.01-7.1ZM420,560a14.989,14.989,0,0,1,14.14,10H405.86A14.989,14.989,0,0,1,420,560Z" transform="translate(-62 -470)"/><path class="cls-1" d="M542.86,553.565q-2.573,4.29-5.145,8.575A14.995,14.995,0,0,0,515,575v25H505V550h10v5a24.979,24.979,0,0,1,27.86-1.44Z" transform="translate(-62 -470)"/><path class="cls-1" d="M630,560.005v40H620V563.825a14.984,14.984,0,0,0-20,0V600H590V530h10v22.085A25,25,0,0,1,630,560,0,0,0,0,1,630,560.005Z" transform="translate(-62 -470)"/><path class="cls-1" d="M743.55,540A50,50,0,0,1,660,592.81q6.09-8.535,12.19-17.07A29.994,29.994,0,0,0,727.72,560v-.01A29.836,29.836,0,0,0,720.07,540a29.836,29.836,0,0,0,7.65-19.99V520a29.994,29.994,0,0,0-55.53-15.74q-6.09-8.535-12.19-17.07A50,50,0,0,1,743.55,540Z" transform="translate(-62 -470)"/><path class="cls-1" d="M720.07,540a29.9,29.9,0,0,1-22.35,10,29.436,29.436,0,0,1-6.61-.74A29.82,29.82,0,0,1,675.37,540a29.82,29.82,0,0,1,15.74-9.26,29.436,29.436,0,0,1,6.61-.74A29.9,29.9,0,0,1,720.07,540Z" transform="translate(-62 -470)"/><g class="cls-4"><path class="cls-3" d="M743.55,540A50,50,0,0,1,660,592.81q6.09-8.535,12.19-17.07A29.994,29.994,0,0,0,727.72,560v-.01A29.836,29.836,0,0,0,720.07,540a29.836,29.836,0,0,0,7.65-19.99V520a29.994,29.994,0,0,0-55.53-15.74q-6.09-8.535-12.19-17.07A50,50,0,0,1,743.55,540Z" transform="translate(-62 -470)"/><path class="cls-3" d="M720.07,540a29.9,29.9,0,0,1-22.35,10,29.436,29.436,0,0,1-6.61-.74A29.82,29.82,0,0,1,675.37,540a29.82,29.82,0,0,1,15.74-9.26,29.436,29.436,0,0,1,6.61-.74A29.9,29.9,0,0,1,720.07,540Z" transform="translate(-62 -470)"/></g></g></g></svg>