<svg xmlns="http://www.w3.org/2000/svg" viewBox="0 0 640 100"><defs><style>.cls-1{fill:#121221;}</style></defs><title>skedda</title><g id="Слой_2" data-name="Слой 2"><g id="Work_space" data-name="Work space"><g id="skedda"><path class="cls-1" d="M490,0H440V100h50A50,50,0,0,0,490,0Zm0,80H460V20h30a30,30,0,0,1,0,60Z"/><path class="cls-1" d="M380,0H330V100h50A50,50,0,0,0,380,0Zm0,80H350V20h30a30,30,0,0,1,0,60Z"/><path class="cls-1" d="M20,30A10,10,0,0,0,30,40H70a30,30,0,0,1,0,60H0V80H70a10,10,0,0,0,0-20H30A30,30,0,0,1,30,0h70V20H30A10,10,0,0,0,20,30Z"/><polygon class="cls-1" points="240 20 240 40 320 40 320 60 240 60 240 80 320 80 320 100 220 100 220 0 320 0 320 20 240 20"/><polygon class="cls-1" points="210 99.99 210 100 180.13 100 139.51 63.43 130 72 130 100 110 100 110 0 130 0 130 45.09 139.51 36.52 180.07 0 209.97 0 154.46 49.98 210 99.99"/><path class="cls-1" d="M600.77,1.95,599.99,0H580.01l-.78,1.94L540,100h21.55l11.2-28h34.5l11.2,28H640ZM580.75,52,590,28.87,599.25,52Z"/></g></g></g></svg>