<svg id="Main" xmlns="http://www.w3.org/2000/svg" viewBox="0 0 1340 384.58"><defs><style>.cls-1{fill:#366ce1;}.cls-2{fill:#121221;}</style></defs><title>sketch</title><g id="scetch"><path class="cls-1" d="M-170,410-70,310q-5,55-10,110Z" transform="translate(170 -310)"/><path class="cls-1" d="M230,410,130,310q5,55,10,110Z" transform="translate(170 -310)"/><path class="cls-1" d="M-70,310,30,430,130,310,30,360Z" transform="translate(170 -310)"/><path class="cls-2" d="M-70,320,20,430l-90-10Z" transform="translate(170 -310)"/><path class="cls-2" d="M130,320,40,430l90-10Z" transform="translate(170 -310)"/><path class="cls-2" d="M30,610-70,430l-100-20Z" transform="translate(170 -310)"/><path class="cls-2" d="M30,610,130,430l100-20Z" transform="translate(170 -310)"/><path class="cls-2" d="M-40,440H20q5,85,10,170Q-5,525-40,440Z" transform="translate(170 -310)"/><path class="cls-2" d="M100,440H40q-5,85-10,170Q65,525,100,440Z" transform="translate(170 -310)"/><path class="cls-2" d="M-70,310H130L30,350Z" transform="translate(170 -310)"/><path class="cls-1" d="M390,439.6a80.235,80.235,0,0,0-38.582-29.126,78.154,78.154,0,0,0-23.452-4.307,73.563,73.563,0,0,0-23.232,3.154,71.816,71.816,0,0,0-36.852,26.606,78.32,78.32,0,0,0-10.634,20.217,66.413,66.413,0,0,0-3.891,21.922c.021,7.22,1.645,14.254,5.043,19.362a21.511,21.511,0,0,0,6.353,6.3,37.881,37.881,0,0,0,9.179,4.149c6.947,2.214,15.021,3.462,23.336,5.151a156.436,156.436,0,0,1,25.564,6.943c2.141.783,4.247,1.725,6.358,2.648,2.08,1.016,4.178,2,6.189,3.18,2.053,1.1,4,2.391,5.977,3.64.965.658,1.909,1.35,2.862,2.027l1.422,1.027,1.368,1.1a93.549,93.549,0,0,1,10.263,9.479,104.645,104.645,0,0,1,8.649,10.738,110.248,110.248,0,0,1,12.812,24.151,89.6,89.6,0,0,1,5.985,27.361,63.7,63.7,0,0,1-1,14.748,50.765,50.765,0,0,1-5.167,14.6,49.287,49.287,0,0,1-9.468,12.248,64.789,64.789,0,0,1-11.81,8.86,90.267,90.267,0,0,1-12.8,5.988,116.682,116.682,0,0,1-13.14,3.949,139.654,139.654,0,0,1-26.523,3.437c-4.42.2-8.825.112-13.223-.024-4.391-.231-8.777-.517-13.134-1.063a162.29,162.29,0,0,1-25.839-5.115c-2.129-.557-4.223-1.283-6.332-1.92-2.086-.748-4.192-1.4-6.253-2.239a123.067,123.067,0,0,1-12.2-5.361,144.359,144.359,0,0,1-22.313-14.089c-6.925-5.179-13.2-10.783-19.458-15.292a52.7,52.7,0,0,0-9.444-5.542,31.487,31.487,0,0,0-9.921-2.554l-1.3-.107-1.32-.021c-.876-.042-1.773.024-2.669.063-.9,0-1.778.2-2.672.29l-1.338.166-.671.082-.647.155-2.6.6c-.866.215-1.691.565-2.544.834-.423.149-.853.274-1.272.44l-1.242.557c-.826.392-1.681.678-2.491,1.162a77.03,77.03,0,0,0-9.86,6.255c-3.323,2.363-6.736,4.958-10.469,7.3a64.552,64.552,0,0,1-24.738,9.689,71.5,71.5,0,0,1-26.072-.9A97.06,97.06,0,0,1,50.9,633.55,138.225,138.225,0,0,1,30,619.6q5.368,3.217,10.892,6.085c3.7,1.874,7.459,3.6,11.285,5.118a93.737,93.737,0,0,0,23.533,6.254,67.925,67.925,0,0,0,23.6-1.315,56.385,56.385,0,0,0,20.718-10.113c6.32-4.626,12.268-10.712,20.212-15.552.944-.644,2.032-1.136,3.053-1.7l1.561-.816c.533-.251,1.09-.463,1.635-.695,1.1-.436,2.184-.944,3.315-1.309l3.424-1.027.859-.252.869-.172,1.743-.336c1.166-.2,2.323-.5,3.505-.588,1.179-.129,2.353-.277,3.56-.306l1.8-.077,1.82.03a43.741,43.741,0,0,1,14.351,2.793,66.368,66.368,0,0,1,12.435,6.4c7.507,4.876,13.958,10.054,20.56,14.584a127.874,127.874,0,0,0,20.374,11.7,114.25,114.25,0,0,0,10.811,4.305c1.82.673,3.714,1.186,5.565,1.788,1.9.5,3.755,1.084,5.671,1.514a158.007,158.007,0,0,0,23.237,3.881c3.915.4,7.848.555,11.772.673,3.923.022,7.848.013,11.742-.26a129.055,129.055,0,0,0,22.885-3.345A97.445,97.445,0,0,0,337.5,643.48a71.007,71.007,0,0,0,9.735-4.712c5.99-3.638,10.978-8.183,13.822-13.562a30.827,30.827,0,0,0,3.062-8.869,44.877,44.877,0,0,0,.624-10.113,69.889,69.889,0,0,0-4.605-21.237,93.3,93.3,0,0,0-10.416-19.922,85.347,85.347,0,0,0-6.874-8.8,74.292,74.292,0,0,0-7.958-7.561l-1.051-.876-1.1-.812-2.206-1.617c-1.536-.988-3.033-2.035-4.646-2.916-1.562-.957-3.232-1.755-4.863-2.621-1.689-.777-3.36-1.586-5.117-2.271a138.145,138.145,0,0,0-22.44-6.619c-3.971-.895-8.065-1.738-12.263-2.746a124.348,124.348,0,0,1-12.947-3.7,54.784,54.784,0,0,1-13.247-6.651,37.768,37.768,0,0,1-10.8-11.589,45.178,45.178,0,0,1-5.405-14.194,59.758,59.758,0,0,1-1.117-14.326,79,79,0,0,1,6.053-26.772,88.416,88.416,0,0,1,13.823-23.112,89.377,89.377,0,0,1,9.323-9.7,83.585,83.585,0,0,1,10.749-8.066,79.9,79.9,0,0,1,24.6-10.244,80.57,80.57,0,0,1,72.479,19.765A78.867,78.867,0,0,1,390,439.6Z" transform="translate(170 -310)"/><path class="cls-1" d="M480,569.6a75.94,75.94,0,0,0-13.516-9.065,47.476,47.476,0,0,0-14.38-4.86,32.767,32.767,0,0,0-13.805.759,31.053,31.053,0,0,0-6.128,2.529,34.4,34.4,0,0,0-5.418,3.8c-6.737,5.82-11.62,14.275-14.4,23.242a54.149,54.149,0,0,0-2.465,13.561,48.631,48.631,0,0,0,.168,6.678,51.944,51.944,0,0,0,1.157,6.7c4.251,17.757,17.727,34.3,35.492,38.412,8.849,2.193,18.754,1.044,28.054-2.822a61.221,61.221,0,0,0,13.4-7.74A78.888,78.888,0,0,0,500,629.6a53.372,53.372,0,0,1-7.849,15.082,56.728,56.728,0,0,1-12.515,12.384,54.312,54.312,0,0,1-16.419,8.022,49.8,49.8,0,0,1-18.867,1.814,52.159,52.159,0,0,1-18.555-5.32,60.421,60.421,0,0,1-15.586-11.176A69.887,69.887,0,0,1,398.7,635.3a77.036,77.036,0,0,1-4.054-8.608,75.816,75.816,0,0,1-2.885-9.115,64.741,64.741,0,0,1-1.553-19.295,67.921,67.921,0,0,1,4.293-18.554,67.027,67.027,0,0,1,9.087-16.5,58.6,58.6,0,0,1,6.352-7.17,52.819,52.819,0,0,1,7.655-6.011,41.538,41.538,0,0,1,18.459-6.5c.809-.11,1.628-.11,2.437-.157a20.1,20.1,0,0,1,2.43.018,30.434,30.434,0,0,1,4.8.407,33.875,33.875,0,0,1,4.654.984,30.487,30.487,0,0,1,4.437,1.486,47.319,47.319,0,0,1,14.921,9.765A52.212,52.212,0,0,1,480,569.6Z" transform="translate(170 -310)"/><path class="cls-1" d="M790,570.025a75.94,75.94,0,0,0-13.516-9.065,47.476,47.476,0,0,0-14.38-4.86,32.767,32.767,0,0,0-13.805.759,31.114,31.114,0,0,0-6.128,2.529,34.4,34.4,0,0,0-5.418,3.8c-6.737,5.82-11.62,14.275-14.4,23.242a54.149,54.149,0,0,0-2.465,13.561,48.631,48.631,0,0,0,.168,6.678,51.974,51.974,0,0,0,1.157,6.7c4.251,17.757,17.727,34.3,35.492,38.412,8.849,2.193,18.754,1.044,28.054-2.822a61.221,61.221,0,0,0,13.4-7.74A78.888,78.888,0,0,0,810,630.025a53.372,53.372,0,0,1-7.849,15.082,56.728,56.728,0,0,1-12.515,12.384,54.312,54.312,0,0,1-16.419,8.022,49.8,49.8,0,0,1-18.867,1.814,52.159,52.159,0,0,1-18.555-5.32,60.445,60.445,0,0,1-15.586-11.176A69.863,69.863,0,0,1,708.7,635.717a77.036,77.036,0,0,1-4.054-8.608,75.775,75.775,0,0,1-2.885-9.116,64.732,64.732,0,0,1-1.553-19.294,67.921,67.921,0,0,1,4.293-18.554,67.027,67.027,0,0,1,9.087-16.5,58.6,58.6,0,0,1,6.352-7.17,52.819,52.819,0,0,1,7.655-6.011,41.538,41.538,0,0,1,18.459-6.5c.809-.11,1.628-.11,2.437-.157a20.1,20.1,0,0,1,2.43.018,30.434,30.434,0,0,1,4.8.407,33.875,33.875,0,0,1,4.654.984,30.487,30.487,0,0,1,4.437,1.486,47.319,47.319,0,0,1,14.921,9.765A52.212,52.212,0,0,1,790,570.025Z" transform="translate(170 -310)"/><path class="cls-1" d="M510,609.6c14.335-3.776,28.569-7.467,42.162-12.234a128.68,128.68,0,0,0,19.292-8.268,41.065,41.065,0,0,0,7.671-5.324A12.708,12.708,0,0,0,581.453,581a4.639,4.639,0,0,0,.721-2.05,6.652,6.652,0,0,0-.388-1.976,13.857,13.857,0,0,0-1.48-2.96,27.257,27.257,0,0,0-2.411-3.176,33.96,33.96,0,0,0-3.086-2.993,37.734,37.734,0,0,0-15.46-7.917,28.164,28.164,0,0,0-8.029-.692,24.056,24.056,0,0,0-7.449,1.827,33.369,33.369,0,0,0-13.006,10.451,36.02,36.02,0,0,0-4.554,7.345,46.588,46.588,0,0,0-2.964,8.524A57.775,57.775,0,0,0,521.812,606a53.462,53.462,0,0,0,4.513,18.034,43.472,43.472,0,0,0,4.626,7.881,39.237,39.237,0,0,0,6.166,6.7c9.3,7.917,22.659,11.833,36.037,10.052a58.3,58.3,0,0,0,19.625-6.075A64.874,64.874,0,0,0,610,629.6c-6.614,13.331-19.442,24.09-34.781,28.671l-1.435.451c-.484.13-.976.223-1.465.335l-2.951.642a28.952,28.952,0,0,1-3,.465l-3.027.381c-1.015.066-2.035.093-3.058.123-1.021,0-2.051.108-3.075.023l-3.084-.19-1.549-.1-1.536-.23a43.6,43.6,0,0,1-6.131-1.207l-3.04-.823-2.961-1.1a48.594,48.594,0,0,1-11.3-5.9,55.61,55.61,0,0,1-9.635-8.572,58.717,58.717,0,0,1-7.368-10.537,67.177,67.177,0,0,1-7.661-24.047,74.268,74.268,0,0,1,1.178-25.147,64.661,64.661,0,0,1,4.123-12.29,55.148,55.148,0,0,1,6.911-11.4,59.468,59.468,0,0,1,9.37-9.4,46.5,46.5,0,0,1,11.954-6.969,42.775,42.775,0,0,1,27.726-1.14,53.192,53.192,0,0,1,22.616,13.372A42.928,42.928,0,0,1,594.987,566a29.346,29.346,0,0,1,2.563,7.246,20.981,20.981,0,0,1-.042,8.941,19.8,19.8,0,0,1-3.945,7.829,27.921,27.921,0,0,1-5.392,5.036,49.407,49.407,0,0,1-11.211,5.918,116.121,116.121,0,0,1-22.369,5.869,210.24,210.24,0,0,1-22.313,2.485Q521.136,610.027,510,609.6Z" transform="translate(170 -310)"/><path class="cls-1" d="M710,519.878q-15,1.953-30.137,2.77c-10.044.576-20.081,1.053-30.2,1.3-5.061.112-10.14.129-15.3,0-2.583-.067-5.181-.2-7.827-.435a71.039,71.039,0,0,1-8.166-1.138A27.935,27.935,0,0,1,609.206,519a15.115,15.115,0,0,1-4.862-4.722,19.042,19.042,0,0,1-.914-1.7,15.2,15.2,0,0,1-.637-1.661,13.874,13.874,0,0,1-.431-1.647,14.093,14.093,0,0,1-.255-1.6,25.489,25.489,0,0,1,1.337-10.54,46.938,46.938,0,0,1,3.587-8.168,87.41,87.41,0,0,1,9.412-13.667,105.575,105.575,0,0,1,11.406-11.691,72.927,72.927,0,0,1,13.931-9.847,37.638,37.638,0,0,1,9.264-3.531,23.3,23.3,0,0,1,6.207-.569,19.212,19.212,0,0,1,3.716.554,16.324,16.324,0,0,1,3.908,1.566c.625.362,1.239.749,1.835,1.156a16.466,16.466,0,0,1,1.585,1.338,17.966,17.966,0,0,1,2.542,2.919,14.049,14.049,0,0,1,.918,1.461c.275.482.57.986.8,1.464.393.908.829,1.877,1.128,2.762a39.949,39.949,0,0,1,1.918,9.7,78.094,78.094,0,0,1,.241,8.579c-.05,2.769-.22,5.454-.432,8.113-.95,10.589-2.725,20.678-4.589,30.692-1.959,9.986-4.118,19.836-6.284,29.638q-3.375,14.674-6.6,29.226-3.28,14.542-5.913,29c-.857,4.812-1.592,9.615-2.175,14.377a128.41,128.41,0,0,0-1.084,14.063,46.725,46.725,0,0,0,1.267,12.551,11.771,11.771,0,0,0,1.919,3.978c.176.23.379.363.544.588a5.787,5.787,0,0,1,.591.474,7.777,7.777,0,0,0,1.956.843,20.258,20.258,0,0,0,5.687.762,27.988,27.988,0,0,0,6.085-.641,28.72,28.72,0,0,0,11.232-5.616,27.761,27.761,0,0,0,8.212-9.837,12.912,12.912,0,0,0,1.308-5.66,9.822,9.822,0,0,0-1.809-5.392c-2.36-3.419-6.577-5.972-11.131-7.326a34.093,34.093,0,0,0-7.159-1.314,45.382,45.382,0,0,0-7.466.2,37.145,37.145,0,0,1,7.42-1.762,36.378,36.378,0,0,1,7.8-.091A27.91,27.91,0,0,1,683,620.016a20.923,20.923,0,0,1,7.035,4.732,16.83,16.83,0,0,1,2.686,3.684,15.5,15.5,0,0,1,1.528,4.46,20.034,20.034,0,0,1-.623,9.117,30.526,30.526,0,0,1-3.673,7.869,41.859,41.859,0,0,1-11.895,12.049,35.29,35.29,0,0,1-7.939,4,37.1,37.1,0,0,1-8.7,1.9A35.26,35.26,0,0,1,656.9,668a28.639,28.639,0,0,1-4.74-.477,21.483,21.483,0,0,1-5.142-1.581c-.879-.457-1.775-.947-2.61-1.493a27.223,27.223,0,0,1-2.29-1.876,25.005,25.005,0,0,1-5.735-8.83,56.417,56.417,0,0,1-3.335-17.052,179.242,179.242,0,0,1,1.535-31.452c1.208-10.212,2.958-20.237,4.766-30.191,1.832-9.95,3.9-19.8,5.886-29.618,2.061-9.8,4.12-19.554,5.961-29.257,1.9-9.675,3.606-19.36,4.584-28.736.242-2.333.443-4.65.535-6.892a59.375,59.375,0,0,0-.013-6.449,21.914,21.914,0,0,0-.786-5.058c-.089-.306-.193-.473-.258-.731-.039-.085-.073-.117-.1-.185-.025-.037-.041-.182-.051-.146s.01-.082.105.072c.045.054.112.033.177.1a.533.533,0,0,0,.247.149c.4.154.64.146.458.107a4.065,4.065,0,0,0-1.26.067,19.317,19.317,0,0,0-4.8,1.665,61.221,61.221,0,0,0-10.923,6.978,95.332,95.332,0,0,0-10.132,9.264,71.828,71.828,0,0,0-8.415,10.5,37.826,37.826,0,0,0-2.91,5.37,12.806,12.806,0,0,0-1.139,4.176,1.61,1.61,0,0,0-.006.262,1.353,1.353,0,0,0,0,.18c-.015.067.01.066-.009.11-.006.016-.019-.032-.06-.024-.1-.037-.019.2.422.543a10.944,10.944,0,0,0,1.927,1.135,25.016,25.016,0,0,0,2.8,1.053,91.843,91.843,0,0,0,13.738,2.762c4.834.7,9.771,1.215,14.727,1.727l29.933,2.932Q694.935,518.6,710,519.878Z" transform="translate(170 -310)"/><path class="cls-1" d="M830,659.878l.434-25.594.522-25.568c.283-17.041.624-34.065.729-51.068.126-17,.1-33.988-.477-50.835-.339-8.407-.757-16.813-1.666-24.949a89.087,89.087,0,0,0-1.95-11.6c-.225-.867-.467-1.708-.729-2.422a9.945,9.945,0,0,0-.73-1.641c-.089-.156-.149-.192-.064-.07a3.475,3.475,0,0,0,1.082.884,5.194,5.194,0,0,0,2.923.621,4.909,4.909,0,0,0,1.032-.195,1.824,1.824,0,0,0,.334-.135c.091-.043.111-.034.167-.063.349-.193-.021.066-.355.485A20.126,20.126,0,0,0,830,469.468a43.991,43.991,0,0,0-2.589,4.7,98.977,98.977,0,0,0-4.4,10.91c-1.278,3.784-2.451,7.636-3.39,11.494-.47,1.916-.9,3.877-1.241,5.732-.341,1.894-.639,3.888-.893,5.863a111.771,111.771,0,0,0-.706,23.5,49.066,49.066,0,0,0,1.992,10.563c.225.826.556,1.538.822,2.306.333.691.61,1.445.98,2.059a14.763,14.763,0,0,0,2.284,3.31c.214.208.4.464.62.649s.439.367.649.561a7.165,7.165,0,0,0,.678.482l.333.245a.414.414,0,0,0,.09.053c.009,0,.076.052.035.017s-.1-.042-.14-.083-.129-.042-.094-.049a2.137,2.137,0,0,1,.311.054c.284.026.516.077.888.1.389.021.71.068,1.154.079,3.424.148,7.61-.034,11.69-.282,8.249-.521,16.676-1.309,25.08-2.14l12.683-1.269,6.49-.609,3.364-.264,1.766-.1c.581-.035,1.182-.063,1.833-.072s1.231-.041,1.94-.025,1.387.027,2.134.069c.834.079,1.574.124,2.483.265l1.44.277c.246.054.463.091.732.164l.848.261c.572.191,1.1.357,1.693.61.621.288,1.236.6,1.834.938a13.645,13.645,0,0,1,1.76,1.215c.286.222.566.451.84.684.248.234.48.473.715.717a16.3,16.3,0,0,1,4.032,6.878,18.184,18.184,0,0,1,.574,6.978,27.791,27.791,0,0,1-1,4.916c-.823,2.742-1.716,4.916-2.55,6.972-1.69,4.077-3.245,7.7-4.544,11.391A93.114,93.114,0,0,0,900,600.688a112.41,112.41,0,0,0-2.515,23.225,80.652,80.652,0,0,0,.666,11.356,43,43,0,0,0,2.46,10.029A14.749,14.749,0,0,0,904.8,651.5c.384.332.739.443,1.061.69a6.146,6.146,0,0,0,.894.293,1.678,1.678,0,0,1,.229.079,2.793,2.793,0,0,0,.3.019c.221,0,.379.073.653.06s.557-.028.838-.027a9.093,9.093,0,0,0,1-.116,65.588,65.588,0,0,0,10.673-2.87l12.207-4.023c2.085-.651,4.157-1.322,6.264-1.936l3.149-.937,3.173-.872,6.249-1.672,6.219-1.625c8.316-2.15,16.762-4.25,25.459-5.876,4.333-.833,8.774-1.46,13.236-2l3.383-.31c1.123-.114,2.255-.2,3.4-.242l3.42-.171,3.453-.022,1.726,0,1.74.078,3.478.172c2.329.252,4.651.409,6.972.858A72.667,72.667,0,0,1,1037.7,634.6a66.31,66.31,0,0,1,12.806,6.306,70.154,70.154,0,0,1,11.031,8.74c6.7,6.41,11.909,13.624,17.045,20.09,5.127,6.442,10.391,12.093,17.056,14.308a25.191,25.191,0,0,0,10.661,1.266,34.315,34.315,0,0,0,11-2.926,23.218,23.218,0,0,0,2.68-1.264c.877-.47,1.789-.872,2.648-1.4l2.578-1.592c.428-.27.867-.523,1.289-.805l1.242-.9,2.49-1.8c.849-.576,1.605-1.291,2.42-1.924l2.407-1.963c.814-.642,1.544-1.392,2.323-2.083,3.125-2.76,6.023-5.8,8.935-8.843l4.209-4.727c1.429-1.559,2.694-3.258,4.066-4.873,2.767-3.217,5.285-6.638,7.893-10,1.328-1.667,2.5-3.441,3.764-5.159l3.763-5.179c-2.055,3.735-4.042,7.526-6.226,11.2-2.216,3.656-4.349,7.379-6.758,10.934a162.906,162.906,0,0,1-15.729,20.571c-.74.8-1.425,1.652-2.214,2.414l-2.334,2.32c-1.513,1.594-3.223,3-4.9,4.453l-1.263,1.085c-.434.348-.893.672-1.339,1.01l-2.7,2c-.907.664-1.9,1.224-2.857,1.84a29,29,0,0,1-2.963,1.721,41.5,41.5,0,0,1-13.282,4.652,34.528,34.528,0,0,1-14.622-.625,33.032,33.032,0,0,1-6.978-2.724,43.576,43.576,0,0,1-6.125-3.987,82.5,82.5,0,0,1-9.932-9.473c-2.965-3.239-5.712-6.471-8.5-9.5a96.4,96.4,0,0,0-8.58-8.4,54.886,54.886,0,0,0-19.681-11.034,57.842,57.842,0,0,0-11.127-2.275c-1.882-.279-3.826-.287-5.736-.435l-2.909-.018-1.454-.008-1.468.069-2.933.138-2.954.274c-.982.076-1.97.191-2.961.337l-2.968.394c-3.972.652-7.949,1.374-11.948,2.319-8,1.8-16.038,4.043-24.143,6.431l-6.091,1.8-6.041,1.828c-3.952,1.2-7.882,2.5-11.815,3.848L926.487,667.3l-3.135,1.089-3.284,1.067a55.749,55.749,0,0,1-7.5,1.806c-.726.1-1.363.243-2.164.288l-2.353.134c-.789.031-1.693-.057-2.534-.105-.431-.037-.849-.051-1.288-.119l-1.334-.254a23.867,23.867,0,0,1-5.17-1.659,27.883,27.883,0,0,1-10.95-9.4,39.54,39.54,0,0,1-4.089-7.443,61.929,61.929,0,0,1-3.912-14.653,100.1,100.1,0,0,1-1.045-14.123,129.1,129.1,0,0,1,.692-13.8,124.146,124.146,0,0,1,2.152-13.714,113.2,113.2,0,0,1,3.825-13.46c1.512-4.348,3.292-8.577,4.866-12.367.785-1.883,1.485-3.666,1.889-5a8.7,8.7,0,0,0,.308-1.329c.024-.188-.035.082.131.649a3.784,3.784,0,0,0,.359.816,3.62,3.62,0,0,0,.466.619,1.732,1.732,0,0,0,.168.134,1.77,1.77,0,0,0,.206.2c.13.129.354.2.454.3a1.366,1.366,0,0,0,.416.2c.1.042.115.072.186.086a.382.382,0,0,0,.09.01.332.332,0,0,1-.049,0,.378.378,0,0,1-.128-.029c-.141-.027-.469-.037-.692-.075l-1.059-.036c-.355-.016-.839.012-1.253.013s-.877.02-1.36.048l-1.423.073-3.007.222-6.236.557-12.758,1.181c-8.562.725-17.113,1.409-25.876,1.842a134.987,134.987,0,0,1-13.854.1c-.62-.028-1.358-.113-2.03-.173-.689-.067-1.508-.2-2.277-.325a22.972,22.972,0,0,1-2.788-.71,15.716,15.716,0,0,1-1.59-.6,16.245,16.245,0,0,1-1.575-.782c-.282-.149-.433-.255-.653-.387-.193-.123-.431-.262-.585-.375l-.96-.693c-.626-.476-1.293-.919-1.866-1.445L810.2,564.1c-.561-.537-1.039-1.122-1.554-1.688a33.639,33.639,0,0,1-4.8-7.277c-.666-1.25-1.133-2.5-1.663-3.754-.428-1.243-.92-2.5-1.242-3.738a67.4,67.4,0,0,1-2.444-14.553,123.058,123.058,0,0,1,1.587-27.459c.363-2.239.764-4.448,1.252-6.732.509-2.319,1.063-4.5,1.679-6.708,1.229-4.381,2.646-8.655,4.289-12.873a114.609,114.609,0,0,1,5.7-12.549,59.27,59.27,0,0,1,3.862-6.321,34.485,34.485,0,0,1,2.654-3.305,18.17,18.17,0,0,1,4.506-3.616c.29-.154.534-.294.869-.443.355-.15.716-.29,1.08-.418a11.353,11.353,0,0,1,2.58-.565,11.221,11.221,0,0,1,3.12.175,10.374,10.374,0,0,1,2.882,1.071,11.585,11.585,0,0,1,3.479,2.963,15.416,15.416,0,0,1,1.678,2.6,24.409,24.409,0,0,1,1.683,4.266c.4,1.312.676,2.538.925,3.747a102.974,102.974,0,0,1,1.628,13.684c.54,8.843.541,17.486.351,26.113-.376,17.233-1.5,34.311-2.84,51.359q-2.1,25.563-5,51Q834.99,621.8,833.432,634.5C832.31,642.966,831.243,651.43,830,659.878Z" transform="translate(170 -310)"/></g></svg>