<svg xmlns="http://www.w3.org/2000/svg" viewBox="0 0 1210 180"><defs><style>.cls-1{fill:#366ce1;}.cls-2{fill:#121221;}</style></defs><title>skill survey</title><g id="Слой_2" data-name="Слой 2"><g id="Work_space" data-name="Work space"><g id="skill_survey" data-name="skill survey"><path class="cls-1" d="M20,68.723a10,10,0,0,0,10,10H70a30,30,0,0,1,0,60H0v-20H70a10,10,0,0,0,0-20H30a30,30,0,0,1,0-60h70v20H30A10,10,0,0,0,20,68.723Z"/><path class="cls-2" d="M610.8,68.723a10,10,0,0,0,10,10h40a30,30,0,0,1,0,60h-70v-20h70a10,10,0,0,0,0-20h-40a30,30,0,0,1,0-60h70v20h-70A10,10,0,0,0,610.8,68.723Z"/><rect class="cls-2" x="1002.247" y="120" width="100" height="20"/><rect class="cls-1" x="982.247" y="160" width="120" height="20"/><rect class="cls-2" x="1022.247" y="80" width="80" height="20"/><rect class="cls-2" x="1042.247" y="40" width="60" height="20"/><rect class="cls-1" x="1062.247" width="40" height="20"/><polygon class="cls-1" points="440 118.723 440 138.723 340 138.723 340 38.723 360 38.723 360 118.723 440 118.723"/><polygon class="cls-1" points="560 118.723 560 138.723 460 138.723 460 38.723 480 38.723 480 118.723 560 118.723"/><path class="cls-2" d="M910.8,68.723a30,30,0,0,0-30-30h-70v100h20v-40h50a10,10,0,0,1,10,10v30h20v-30a29.862,29.862,0,0,0-7.65-20A29.862,29.862,0,0,0,910.8,68.723Zm-80,10v-20h50a10,10,0,0,1,0,20Z"/><polygon class="cls-1" points="220 138.713 220 138.723 190.13 138.723 149.51 102.153 140 110.723 140 138.723 120 138.723 120 38.723 140 38.723 140 83.812 149.51 75.242 190.07 38.723 219.97 38.723 164.46 88.703 220 138.713"/><polygon class="cls-1" points="290 58.723 290 118.723 320 118.723 320 138.723 240 138.723 240 118.723 270 118.723 270 58.723 240 58.723 240 38.723 320 38.723 320 58.723 290 58.723"/><polygon class="cls-2" points="1172.83 85.182 1170 88.723 1170.05 88.723 1170.05 138.723 1150.05 138.723 1150.05 88.723 1147.22 85.182 1110.05 38.723 1135.66 38.723 1160.02 69.173 1184.38 38.723 1210 38.723 1172.83 85.182"/><path class="cls-2" d="M800.8,38.723v50a50,50,0,1,1-100,0v-50h20v50a30,30,0,0,0,60,0v-50Z"/><polygon class="cls-2" points="1017.803 38.723 978.583 136.793 977.813 138.723 957.813 138.723 957.043 136.793 917.823 38.723 939.363 38.723 967.813 109.863 996.273 38.723 1017.803 38.723"/></g></g></g></svg>