<svg xmlns="http://www.w3.org/2000/svg" viewBox="0 0 609.98 410"><defs><style>.cls-1{fill:#121221;}.cls-2{fill:#366ce1;}</style></defs><title>skyciv</title><g id="Complete"><g id="skyciv"><path class="cls-1" d="M608.28,470h20.71a50,50,0,1,1,0-20H608.28a30,30,0,1,0,0,20Z" transform="translate(-200 -100)"/><polygon class="cls-1" points="480 330 480 390 500 390 500 410 440 410 440 390 460 390 460 330 440 330 440 310 500 310 500 330 480 330"/><polygon class="cls-2" points="282.78 356.46 279.95 360 280 360 280 410 260 410 260 360 257.17 356.46 220 310 245.61 310 269.97 340.45 294.33 310 319.95 310 282.78 356.46"/><path class="cls-2" d="M220,440a10,10,0,0,0,10,10h40a30,30,0,0,1,0,60H200V490h70a10,10,0,0,0,0-20H230a30,30,0,0,1,0-60h70v20H230A10,10,0,0,0,220,440Z" transform="translate(-200 -100)"/><polygon class="cls-1" points="609.98 310 570.76 408.07 569.99 410 549.99 410 549.22 408.07 510 310 531.54 310 559.99 381.14 588.45 310 609.98 310"/><polygon class="cls-2" points="210 409.99 210 410 180.13 410 139.51 373.43 130 382 130 410 110 410 110 310 130 310 130 355.09 139.51 346.52 180.07 310 209.97 310 154.46 359.98 210 409.99"/><path class="cls-2" d="M450,230V330H550V230Zm45,95H455V285h40Zm0-50H455V235h40Zm50,50H505V285h40Zm0-50H505V235h40Z" transform="translate(-200 -100)"/><path class="cls-2" d="M700,300a51.18,51.18,0,0,0-8.81.77A150.042,150.042,0,1,0,408.41,200.35c-2.77-.23-5.58-.35-8.41-.35A100,100,0,0,0,300,300a50,50,0,0,0,0,100H700a50,50,0,0,0,0-100ZM580,360H420V200H580Z" transform="translate(-200 -100)"/></g></g></svg>