<svg xmlns="http://www.w3.org/2000/svg" viewBox="0 0 760 130"><defs><style>.cls-1{fill:#366ce1;}.cls-2,.cls-3,.cls-4{fill:#121221;}.cls-2{opacity:0.38;}.cls-3{opacity:0.62;}</style></defs><title>skyla DB</title><g id="Слой_2" data-name="Слой 2"><g id="Work_space" data-name="Work space"><g id="skyla_DB" data-name="skyla DB"><path class="cls-1" d="M600,0H550V100h50A50,50,0,0,0,600,0Zm0,80H570V20h30a30,30,0,0,1,0,60Z"/><path class="cls-1" d="M760,30A30,30,0,0,0,730,0H660V100h70a29.991,29.991,0,0,0,22.35-50A29.862,29.862,0,0,0,760,30ZM680,20h50a10,10,0,0,1,0,20H680Zm50,60H680V60h50a10,10,0,0,1,0,20Z"/><path class="cls-2" d="M600,0H550V100h50A50,50,0,0,0,600,0Zm0,80H570V20h30a30,30,0,0,1,0,60Z"/><path class="cls-3" d="M760,30A30,30,0,0,0,730,0H660V100h70a29.991,29.991,0,0,0,22.35-50A29.862,29.862,0,0,0,760,30ZM680,20h50a10,10,0,0,1,0,20H680Zm50,60H680V60h50a10,10,0,0,1,0,20Z"/><path class="cls-4" d="M20,30A10,10,0,0,0,30,40H70a30,30,0,0,1,0,60H0V80H70a10,10,0,0,0,0-20H30A30,30,0,0,1,30,0h70V20H30A10,10,0,0,0,20,30Z"/><path class="cls-4" d="M301.157,96.713A36.109,36.109,0,0,1,247.778,65V0h14.444V65a21.67,21.67,0,0,0,27.957,20.735Z"/><path class="cls-4" d="M350.444,28.889v6.392c-34.818-21.082-71.131,13.808-52.91,48.663a34.115,34.115,0,0,0,12.213,12.249c15.037,7.908,30.117,5.648,40.7-2.311v7.229h14.445V28.889Zm-3.878,49.176a14.074,14.074,0,0,1-4.723,4.723c-21.486,13.073-43.926-9.367-30.854-30.853a14.068,14.068,0,0,1,4.724-4.723c17.066-10.386,34.731,1.632,34.731,17.781A25.088,25.088,0,0,1,346.566,78.065Z"/><path class="cls-4" d="M142.111,65a21.1,21.1,0,0,0,.224,3.113h.007a36.146,36.146,0,0,1,18.323,18.323v.007a35.9,35.9,0,0,1,3.113,14.668H149.333a20.978,20.978,0,0,0-.224-3.105V98a21.663,21.663,0,0,0-18.33-18.33h-.007a21.114,21.114,0,0,0-3.1-.224,21.376,21.376,0,0,0-7.223,1.243v20.424H106V0h14.444V65.729A35.571,35.571,0,0,1,127.667,65a36.114,36.114,0,0,1,36.111-36.111V43.333h-.007A21.665,21.665,0,0,0,142.111,65Z"/><path class="cls-4" d="M242.222,28.889v65a36.1,36.1,0,0,1-61.641,25.53l10.212-10.212a21.663,21.663,0,0,0,36.985-15.318v-.007A36.129,36.129,0,0,1,189.7,97.175a36.4,36.4,0,0,1-16.683-17.731A35.951,35.951,0,0,1,170,65V28.889h14.444V65.007a21.667,21.667,0,0,0,43.334,0V28.889Z"/></g></g></g></svg>