<svg xmlns="http://www.w3.org/2000/svg" viewBox="0 0 520 420"><defs><style>.cls-1{fill:#366ce1;}.cls-2{fill:#e1dfdf;}.cls-3{fill:#121221;}</style></defs><title>skype</title><g id="Complete"><g id="skype"><path class="cls-1" d="M590,460a30,30,0,0,1-30,30,29.7,29.7,0,0,1-11.75-2.4,30.018,30.018,0,0,1-15.32-14.67,79.148,79.148,0,0,1-19.26,5.9,80.035,80.035,0,0,1-92.5-92.5,79.148,79.148,0,0,1,5.9-19.26,30.018,30.018,0,0,1-14.67-15.32A29.7,29.7,0,0,1,410,340a30,30,0,0,1,30-30,29.7,29.7,0,0,1,11.75,2.4,30.018,30.018,0,0,1,15.32,14.67,79.148,79.148,0,0,1,19.26-5.9,80.035,80.035,0,0,1,92.5,92.5,79.148,79.148,0,0,1-5.9,19.26,30.018,30.018,0,0,1,14.67,15.32A29.7,29.7,0,0,1,590,460Z" transform="translate(-240 -290)"/><path class="cls-2" d="M560,310a30,30,0,0,1,30,30,29.7,29.7,0,0,1-2.4,11.75,30.018,30.018,0,0,1-14.67,15.32,79.148,79.148,0,0,1,5.9,19.26,80.035,80.035,0,0,1-92.5,92.5,79.148,79.148,0,0,1-19.26-5.9,30.018,30.018,0,0,1-15.32,14.67A29.7,29.7,0,0,1,440,490a30,30,0,0,1-30-30,29.7,29.7,0,0,1,2.4-11.75,30.018,30.018,0,0,1,14.67-15.32,79.148,79.148,0,0,1-5.9-19.26,80.035,80.035,0,0,1,92.5-92.5,79.148,79.148,0,0,1,19.26,5.9,30.018,30.018,0,0,1,15.32-14.67A29.7,29.7,0,0,1,560,310Z" transform="translate(-240 -290)"/><path class="cls-1" d="M539.878,410A9.878,9.878,0,0,1,530,400.105V400a29.592,29.592,0,0,0-1.72-10,30.017,30.017,0,0,0-37.6-18.523,2.492,2.492,0,0,0-.94,4.127L535.35,421.21a9.953,9.953,0,0,1,.119,14.025A50,50,0,0,1,451.01,410,49.16,49.16,0,0,1,450,400c0-.168,0-.335,0-.5a9.641,9.641,0,0,1,9.665-9.5h.455A9.9,9.9,0,0,1,470,399.9V400a29.592,29.592,0,0,0,1.72,10,30.017,30.017,0,0,0,37.6,18.523,2.492,2.492,0,0,0,.94-4.127L464.65,378.79a9.953,9.953,0,0,1-.119-14.025A50,50,0,0,1,548.99,390,49.16,49.16,0,0,1,550,400c0,.168,0,.335,0,.5a9.641,9.641,0,0,1-9.665,9.5Z" transform="translate(-240 -290)"/><path class="cls-2" d="M596.6,425.95A100.085,100.085,0,0,0,474.05,303.4a49.989,49.989,0,0,0-70.65,70.65A100.085,100.085,0,0,0,525.95,496.6a49.989,49.989,0,0,0,70.65-70.65ZM560,490a29.7,29.7,0,0,1-11.75-2.4,30.018,30.018,0,0,1-15.32-14.67,79.148,79.148,0,0,1-19.26,5.9,80.035,80.035,0,0,1-92.5-92.5,79.148,79.148,0,0,1,5.9-19.26,30.018,30.018,0,0,1-14.67-15.32A29.7,29.7,0,0,1,410,340a30,30,0,0,1,30-30,29.7,29.7,0,0,1,11.75,2.4,30.018,30.018,0,0,1,15.32,14.67,79.148,79.148,0,0,1,19.26-5.9,80.035,80.035,0,0,1,92.5,92.5,79.148,79.148,0,0,1-5.9,19.26,30.018,30.018,0,0,1,14.67,15.32A29.7,29.7,0,0,1,590,460,30,30,0,0,1,560,490Z" transform="translate(-240 -290)"/><path class="cls-3" d="M600,560a50.005,50.005,0,0,0-50,50v90a10,10,0,0,0,20,0V649.99A50,50,0,1,0,600,560Zm0,80a30,30,0,1,1,30-30A30,30,0,0,1,600,640Z" transform="translate(-240 -290)"/><path class="cls-3" d="M750,620a9.954,9.954,0,0,0,10-9.834V610a49.16,49.16,0,0,0-1.01-10,50,50,0,0,0-97.98,0,50.01,50.01,0,0,0,0,20,50.01,50.01,0,0,0,70.158,35.3A9.924,9.924,0,0,0,733.2,638.56l-.159-.127a9.882,9.882,0,0,0-10.359-1.242A30.006,30.006,0,0,1,681.72,620Zm-40-40a29.979,29.979,0,0,1,28.28,20H681.72A29.979,29.979,0,0,1,710,580Z" transform="translate(-240 -290)"/><path class="cls-3" d="M340,610a49.16,49.16,0,0,1-1.01,10,50,50,0,0,1-74.607,32.941,9.889,9.889,0,0,1-1.856-15.468l.141-.141a10.008,10.008,0,0,1,12.19-1.432A30,30,0,0,0,318.28,620H250a9.954,9.954,0,0,1-10-9.834V610a49.16,49.16,0,0,1,1.01-10,50,50,0,0,1,74.607-32.941,9.889,9.889,0,0,1,1.856,15.468l-.141.141a10.008,10.008,0,0,1-12.19,1.432A30,30,0,0,0,261.72,600H330a9.954,9.954,0,0,1,10,9.834Z" transform="translate(-240 -290)"/><path class="cls-3" d="M429.879,651.576a10,10,0,0,1-16.239,6.144c-.14-.12-.27-.24-.4-.36l-37.69-33.93L366.04,632v18a10,10,0,0,1-10,10h0a10,10,0,0,1-10-10V530a10,10,0,0,1,10-10h0a10,10,0,0,1,10,10v75.09l9.51-8.57,36.98-33.29c0-.01.01-.02.02-.03l1.51-1.36a9.9,9.9,0,0,1,4.66-1.84h1.24a10.017,10.017,0,0,1,9.8,7.99,10.8,10.8,0,0,1,.18,1.42c.01.19.02.39.02.59a9.954,9.954,0,0,1-3.28,7.4c-.12.11-.24.21-.36.32L390.5,609.98l36.22,32.62A9.98,9.98,0,0,1,429.879,651.576Z" transform="translate(-240 -290)"/><path class="cls-3" d="M540,570v79.112C540,676.8,517.351,700.18,489.667,700a50.082,50.082,0,0,1-44.821-28.511,9.844,9.844,0,0,1,6.984-13.854l.3-.061a9.958,9.958,0,0,1,10.882,5.536A30,30,0,0,0,520,650v-.01A49.726,49.726,0,0,1,490,660a49.988,49.988,0,0,1-50-50V570a10,10,0,0,1,10-10h0a10,10,0,0,1,10,10v40.01a30,30,0,0,0,60,0V570a10,10,0,0,1,10-10h0A10,10,0,0,1,540,570Z" transform="translate(-240 -290)"/></g></g></svg>