<svg xmlns="http://www.w3.org/2000/svg" viewBox="0 0 719.47 230"><defs><style>.a{fill:#fff;}</style></defs><title>slate</title><path d="M69.7,111.515a34.849,34.849,0,1,1-69.7,0H13.939A20.91,20.91,0,1,0,34.848,90.606,34.849,34.849,0,1,1,69.7,55.758H55.758a20.91,20.91,0,1,0-20.91,20.909A34.857,34.857,0,0,1,69.7,111.515Z"/><rect x="76.667" y="20.909" width="13.939" height="125.455"/><path d="M132.424,76.667a34.849,34.849,0,1,0,20.909,62.72v6.977h13.94V111.515A34.853,34.853,0,0,0,132.424,76.667Zm0,55.757a20.909,20.909,0,1,1,20.909-20.909A20.907,20.907,0,0,1,132.424,132.424Z"/><path d="M188.182,111.515a20.909,20.909,0,1,0,41.818,0h13.939a34.849,34.849,0,0,1-69.7,0V20.909h13.94V62.727h55.757v13.94H188.182Z"/><path d="M319.9,118.485a34.855,34.855,0,0,0,0-13.94,34.849,34.849,0,0,0-68.289,0,34.855,34.855,0,0,0,0,13.94,34.851,34.851,0,0,0,66.087,6.97H301.335a20.9,20.9,0,0,1-35.288-6.97ZM285.758,90.606a20.9,20.9,0,0,1,19.71,13.939H266.047A20.9,20.9,0,0,1,285.758,90.606Z"/><path d="M362.424,20.909H327.576V146.364h13.939V90.606h20.909a34.849,34.849,0,1,0,0-69.7Zm0,55.758H341.515V34.848h20.909a20.91,20.91,0,0,1,0,41.819Z"/><path d="M459.993,83.636a34.845,34.845,0,0,0-20.9-62.727H404.242V146.364h13.94V90.606h20.909A20.907,20.907,0,0,1,460,111.515v34.849h13.939V111.515A34.784,34.784,0,0,0,459.993,83.636Zm-20.9-6.969H418.182V34.848h20.909a20.91,20.91,0,0,1,0,41.819Z"/><rect x="510.379" width="209.091" height="139.394"/><polygon class="a" points="614.925 32.938 626.869 57.139 653.576 61.019 634.25 79.857 638.812 106.456 614.925 93.898 591.037 106.456 595.599 79.857 576.274 61.019 602.981 57.139 614.925 32.938"/><polygon class="a" points="645.626 38.996 636.959 64.554 653.1 86.183 626.114 85.838 610.532 107.872 602.521 82.101 576.75 74.09 598.784 58.507 598.439 31.522 620.068 47.663 645.626 38.996"/><rect class="a" x="506.209" width="6.97" height="223.03"/><rect x="499.239" width="6.97" height="230"/></svg>