<svg id="Main" xmlns="http://www.w3.org/2000/svg" viewBox="0 0 960 533.056"><defs><style>.cls-1{fill:#e1dfdf;}.cls-1,.cls-3{stroke:#121221;stroke-width:16px;}.cls-1,.cls-2,.cls-3{stroke-miterlimit:10;}.cls-2,.cls-3{fill:none;}.cls-2{stroke:#366ce1;stroke-width:1.618px;}.cls-4{fill:#121221;}</style></defs><title>smalltalk</title><g id="smalltalk"><circle class="cls-1" cx="480" cy="158" r="150"/><path class="cls-2" d="M510,200a80,80,0,0,1,80,80,64,64,0,0,1-64,64,51.2,51.2,0,0,1-51.2-51.2,40.959,40.959,0,0,1,40.96-40.96,32.768,32.768,0,0,1,32.768,32.768,26.214,26.214,0,0,1-26.214,26.214,20.971,20.971,0,0,1-20.972-20.971,16.777,16.777,0,0,1,16.777-16.777A13.421,13.421,0,0,1,531.541,286.5,10.737,10.737,0,0,1,520.8,297.233" transform="translate(-20 -192)"/><path class="cls-2" d="M620,451.421a80,80,0,0,1-112.707,9.861,64,64,0,0,1-7.888-90.166,51.2,51.2,0,0,1,72.132-6.31,40.959,40.959,0,0,1,5.049,57.705,32.768,32.768,0,0,1-46.165,4.039,26.214,26.214,0,0,1-3.231-36.931,20.971,20.971,0,0,1,29.545-2.585A16.777,16.777,0,0,1,558.8,410.67a13.422,13.422,0,0,1-18.909,1.654,10.738,10.738,0,0,1-1.323-15.127" transform="translate(-20 -192)"/><path class="cls-2" d="M354.846,406.414A80,80,0,0,1,402.66,303.877a64,64,0,0,1,82.03,38.251,51.2,51.2,0,0,1-30.6,65.624,40.961,40.961,0,0,1-52.5-24.481,32.768,32.768,0,0,1,19.585-42,26.214,26.214,0,0,1,33.6,15.668,20.971,20.971,0,0,1-12.534,26.879,16.778,16.778,0,0,1-21.5-10.027,13.422,13.422,0,0,1,8.022-17.2,10.738,10.738,0,0,1,13.762,6.417" transform="translate(-20 -192)"/><circle class="cls-3" cx="480" cy="158" r="150"/><polygon class="cls-4" points="240 333.056 240 533.056 220 533.056 220 373.056 190 433.056 170 433.056 140 373.056 140 533.056 120 533.056 120 333.056 140 333.056 180 413.056 220 333.056 240 333.056"/><path class="cls-4" d="M350,525.056l-80,200h20l12-30h48v30h20v-200Zm-40,150,40-100v100Z" transform="translate(-20 -192)"/><path class="cls-4" d="M740,525.056l-80,200h20l12-30h48v30h20v-200Zm-40,150,40-100v100Z" transform="translate(-20 -192)"/><polygon class="cls-4" points="460 513.056 460 533.056 360 533.056 360 333.056 380 333.056 380 513.056 460 513.056"/><polygon class="cls-4" points="850 513.056 850 533.056 750 533.056 750 333.056 770 333.056 770 513.056 850 513.056"/><polygon class="cls-4" points="900 433.056 960 533.056 940 533.056 880 433.056 940 333.056 960 333.056 900 433.056"/><rect class="cls-4" x="860" y="333.056" width="20" height="200"/><polygon class="cls-4" points="570 513.056 570 533.056 470 533.056 470 333.056 490 333.056 490 513.056 570 513.056"/><polygon class="cls-4" points="670 333.056 670 353.056 630 353.056 630 533.056 610 533.056 610 353.056 570 353.056 570 333.056 670 333.056"/><path class="cls-4" d="M130,670.056a55,55,0,0,1-109.09,10H41.45a35,35,0,1,0,33.55-45,55,55,0,1,1,54.09-65H108.55a35,35,0,1,0-33.55,45,54.989,54.989,0,0,1,55,55Z" transform="translate(-20 -192)"/></g></svg>