<svg xmlns="http://www.w3.org/2000/svg" viewBox="0 0 760 200"><defs><style>.cls-1{fill:#121221;}.cls-2{fill:#366ce1;}</style></defs><title>smart up</title><g id="Слой_2" data-name="Слой 2"><g id="Work_space" data-name="Work space"><g id="smart_up" data-name="smart up"><polygon class="cls-1" points="210 100 210 200 190 200 190 130.59 173.2 150.05 159.99 165.36 146.78 150.05 130 130.62 130 200 110 200 110 100 130 100 130 100.01 159.99 134.75 189.98 100 210 100"/><path class="cls-1" d="M20,130a10,10,0,0,0,10,10H70a30,30,0,0,1,0,60H0V180H70a10,10,0,0,0,0-20H30a30,30,0,0,1,0-60h70v20H30A10,10,0,0,0,20,130Z"/><path class="cls-2" d="M650,0V50a50,50,0,0,1-100,0V0h20V50a30,30,0,0,0,60,0V0Z"/><path class="cls-1" d="M430,130a30,30,0,0,0-30-30H330V200h20V160h50a10,10,0,0,1,10,10v30h20V170a29.862,29.862,0,0,0-7.65-20A29.862,29.862,0,0,0,430,130Zm-80,10V120h50a10,10,0,0,1,0,20Z"/><path class="cls-1" d="M280.77,101.95l-.78-1.95H260.01l-.78,1.94L220,200h21.55l11.2-28h34.5l11.2,28H320ZM260.75,152,270,128.87,279.25,152Z"/><path class="cls-2" d="M730,0H660V100h20V60h50a30,30,0,0,0,0-60Zm0,40H680V20h50a10,10,0,0,1,0,20Z"/><polygon class="cls-1" points="540 100 540 120 500 120 500 200 480 200 480 120 440 120 440 100 540 100"/></g></g></g></svg>