<svg xmlns="http://www.w3.org/2000/svg" viewBox="0 0 480 360"><defs><style>.cls-1{fill:#121221;}.cls-2{fill:#366ce1;}</style></defs><title>smtp managemant</title><g id="Complete"><g id="smtp"><rect class="cls-1" x="350" y="261.924" width="160" height="100" transform="translate(-354.619 175.416) rotate(-45)"/><path class="cls-2" d="M451.213,220,430,311.924l-91.924,21.213Z" transform="translate(-260 -220)"/><rect class="cls-2" x="490" y="261.924" width="160" height="100" transform="translate(127.513 -531.69) rotate(45)"/><path class="cls-1" d="M661.924,333.137,570,311.924,548.787,220Z" transform="translate(-260 -220)"/><path class="cls-1" d="M360,530a50,50,0,0,1-95.83,20,50.1,50.1,0,0,1,10.14-15,49.9,49.9,0,0,0,34.99,14.99c.23.01.47.01.7.01a20,20,0,0,0,0-40,50,50,0,1,1,45.83-70,50.1,50.1,0,0,1-10.14,15,49.9,49.9,0,0,0-34.99-14.99c-.23-.01-.47-.01-.7-.01a20,20,0,0,0,0,40,50.03,50.03,0,0,1,50,50Z" transform="translate(-260 -220)"/><path class="cls-1" d="M690,410H640V580h30V540h20a50.005,50.005,0,0,0,50-50V460A50.005,50.005,0,0,0,690,410Zm20,80a19.994,19.994,0,0,1-20,20H670V440h20a19.994,19.994,0,0,1,20,20Z" transform="translate(-260 -220)"/><path class="cls-1" d="M520,410V580H490V475q-15,17.5-30,35H430q-15-17.49-30-35V580H370V410h30q20,35,40,70h10q20-35,40-70Z" transform="translate(-260 -220)"/><polygon class="cls-1" points="370 190 370 220 335 220 335 360 305 360 305 220 270 220 270 190 370 190"/></g></g></svg>