<svg xmlns="http://www.w3.org/2000/svg" viewBox="0 0 1326.865 319.598"><defs><style>.cls-1{fill:#121221;}.cls-2{fill:#366ce1;}</style></defs><title>snaplogic</title><g id="Слой_2" data-name="Слой 2"><g id="Work_space" data-name="Work space"><g id="snaplogic"><path class="cls-1" d="M1058.655,109.8a50,50,0,1,0,50,50A50.005,50.005,0,0,0,1058.655,109.8Zm0,80a30,30,0,1,1,30-30A30,30,0,0,1,1058.655,189.8Z"/><path class="cls-1" d="M1167.724,0a50,50,0,1,0,50,50A50.005,50.005,0,0,0,1167.724,0Zm0,80a30,30,0,1,1,30-30A30,30,0,0,1,1167.724,80Z"/><path class="cls-1" d="M1276.865,109.809a50,50,0,1,0,50,50A50.005,50.005,0,0,0,1276.865,109.809Zm0,80a30,30,0,1,1,30-30A30,30,0,0,1,1276.865,189.809Z"/><path class="cls-1" d="M1167.724,219.6a50,50,0,1,0,50,50A50.005,50.005,0,0,0,1167.724,219.6Zm0,80a30,30,0,1,1,30-30A30,30,0,0,1,1167.724,299.6Z"/><polygon class="cls-2" points="1228.436 169.794 1177.723 169.794 1177.723 220.507 1167.724 230.506 1157.726 220.507 1157.726 169.794 1107.012 169.794 1097.014 159.795 1107.012 149.797 1157.726 149.797 1157.726 99.083 1167.724 89.084 1177.73 99.09 1177.73 149.789 1228.429 149.789 1238.435 159.795 1228.436 169.794"/><g id="snaplogic-2" data-name="snaplogic"><polygon class="cls-2" points="791.01 139.799 791.01 199.799 811.01 199.799 811.01 219.799 751.01 219.799 751.01 199.799 771.01 199.799 771.01 139.799 751.01 139.799 751.01 119.799 811.01 119.799 811.01 139.799 791.01 139.799"/><polygon class="cls-1" points="210 119.799 210 219.799 190 219.799 130 150.389 130 219.799 110 219.799 110 119.799 130 119.799 190 189.209 190 119.799 210 119.799"/><path class="cls-1" d="M20,149.8a10,10,0,0,0,10,10H70a30,30,0,0,1,0,60H0v-20H70a10,10,0,0,0,0-20H30a30,30,0,0,1,0-60h70v20H30A10,10,0,0,0,20,149.8Z"/><polygon class="cls-2" points="540 199.799 540 219.799 440 219.799 440 119.799 460 119.799 460 199.799 540 199.799"/><path class="cls-2" d="M591.01,119.8a50,50,0,1,0,50,50A50.005,50.005,0,0,0,591.01,119.8Zm0,80a30,30,0,1,1,30-30A30,30,0,0,1,591.01,199.8Z"/><path class="cls-2" d="M889.29,179.8H910a50,50,0,1,1,0-20H889.29a30,30,0,1,0,0,20Z"/><path class="cls-1" d="M280.77,121.749l-.78-1.95H260.01l-.78,1.94L220,219.8h21.55l11.2-28h34.5l11.2,28H320ZM260.75,171.8l9.25-23.13,9.25,23.13Z"/><path class="cls-2" d="M751.01,159.8v10a49.16,49.16,0,0,1-1.01,10,50.013,50.013,0,1,1-13.64-45.35l-14.14,14.14a30,30,0,1,0,7.07,31.21H701.01v-20Z"/><path class="cls-1" d="M400,119.8H330v100h20v-40h50a30,30,0,0,0,0-60Zm0,40H350v-20h50a10,10,0,0,1,0,20Z"/></g></g></g></g></svg>