<svg xmlns="http://www.w3.org/2000/svg" viewBox="0 0 941.818 150"><defs><style>.cls-1{fill:#366ce1;}.cls-2{fill:#121221;}</style></defs><title>snappy mobile design</title><g id="Слой_2" data-name="Слой 2"><g id="Work_space" data-name="Work space"><g id="snappy_mobile_design" data-name="snappy mobile design"><path class="cls-1" d="M300.992,9.472C252.485-21,201.344,27.64,226.737,76.235c3.188,6.1,10.816,13.754,16.91,16.959,20.821,10.949,41.7,7.818,56.353-3.2V100h20V43.985A40.743,40.743,0,0,0,300.992,9.472ZM288.1,74.633c-29.752,18.1-60.828-12.976-42.728-42.728a19.578,19.578,0,0,1,6.538-6.538c29.752-18.1,60.828,12.976,42.728,42.728A19.578,19.578,0,0,1,288.1,74.633Z"/><path class="cls-1" d="M380,0a50.005,50.005,0,0,0-50,50V150h20V89.99A50,50,0,1,0,380,0Zm0,80a30,30,0,1,1,30-30A30,30,0,0,1,380,80Z"/><path class="cls-1" d="M490,0a50.005,50.005,0,0,0-50,50V150h20V89.99A50,50,0,1,0,490,0Zm0,80a30,30,0,1,1,30-30A30,30,0,0,1,490,80Z"/><path class="cls-1" d="M210,50v50H190V50a30,30,0,0,0-60,0v50H110V0h20V10.01A49.99,49.99,0,0,1,210,50Z"/><path class="cls-1" d="M100,50a49.16,49.16,0,0,1-1.01,10A49.991,49.991,0,0,1,14.65,85.35L28.79,71.21A29.99,29.99,0,0,0,78.28,60H1.01a50.01,50.01,0,0,1,0-20A49.991,49.991,0,0,1,85.35,14.65L71.21,28.79A29.99,29.99,0,0,0,21.72,40H98.99A49.16,49.16,0,0,1,100,50Z"/><path class="cls-1" d="M650,0V90a50,50,0,0,1-99.03,9.81l19.61-3.93A30,30,0,0,0,630,90v-.01A49.726,49.726,0,0,1,600,100a49.988,49.988,0,0,1-50-50V0h20V50.01a30,30,0,0,0,60,0V0Z"/><path class="cls-2" d="M737.273,0A22.728,22.728,0,1,0,760,22.727,22.73,22.73,0,0,0,737.273,0Zm0,40.909a18.182,18.182,0,1,1,18.182-18.182A18.183,18.183,0,0,1,737.273,40.909Z"/><polygon class="cls-2" points="719.091 59.091 719.091 75 760 75 760 79.545 719.091 79.545 719.091 95.455 760 95.455 760 100 714.545 100 714.545 54.545 760 54.545 760 59.091 719.091 59.091"/><polygon class="cls-2" points="900.909 4.545 900.909 20.455 941.818 20.455 941.818 25 900.909 25 900.909 40.909 941.818 40.909 941.818 45.455 896.364 45.455 896.364 0 941.818 0 941.818 4.545 900.909 4.545"/><path class="cls-2" d="M673.632.032V.018l0-.018h4.532l9.1,35.9q4.549-17.95,9.1-35.9h4.541l0,.005,13.632,45.45H709.8L698.805,8.832l-9.2,36.318-.064.255-.014.05H685l-.077-.3-9.2-36.287L664.745,45.455H660Z"/><path class="cls-2" d="M687.273,54.545H664.545V100h22.728a22.728,22.728,0,0,0,0-45.455Zm0,40.91H669.091V59.091h18.182a18.182,18.182,0,1,1,0,36.364Z"/><polygon class="cls-2" points="891.818 40.909 891.818 45.455 846.364 45.455 846.364 0 850.909 0 850.909 40.909 891.818 40.909"/><path class="cls-2" d="M769.091,67.045A7.958,7.958,0,0,0,777.045,75H797.5a12.5,12.5,0,0,1,3.409,24.523A12.255,12.255,0,0,1,797.5,100H764.545V95.455H797.5a7.955,7.955,0,1,0,0-15.91H777.045a12.5,12.5,0,0,1-3.409-24.522,12.224,12.224,0,0,1,3.409-.478H810v4.546H777.045A7.958,7.958,0,0,0,769.091,67.045Z"/><polygon class="cls-2" points="830.455 4.545 830.455 40.909 841.818 40.909 841.818 45.455 814.545 45.455 814.545 40.909 825.909 40.909 825.909 4.545 814.545 4.545 814.545 0 841.818 0 841.818 4.545 830.455 4.545"/><polygon class="cls-2" points="830.455 59.091 830.455 95.455 841.818 95.455 841.818 100 814.545 100 814.545 95.455 825.909 95.455 825.909 59.091 814.545 59.091 814.545 54.545 841.818 54.545 841.818 59.091 830.455 59.091"/><polygon class="cls-2" points="891.818 54.545 891.818 100 887.305 100 887.273 99.964 850.909 61.177 850.909 100 846.364 100 846.364 54.545 850.918 54.545 887.273 93.318 887.273 54.545 891.818 54.545"/><path class="cls-2" d="M804.686,22.727A12.5,12.5,0,0,0,800.909.477,12.255,12.255,0,0,0,797.5,0H764.545V45.455H797.5a12.219,12.219,0,0,0,3.409-.478,12.493,12.493,0,0,0,3.777-22.25Zm-35.6-18.182H797.5a7.955,7.955,0,1,1,0,15.91H769.091ZM797.5,40.909H769.091V25H797.5a7.955,7.955,0,1,1,0,15.909Z"/><path class="cls-2" d="M941.818,77.273a22.115,22.115,0,0,1-.113,2.272,22.737,22.737,0,1,1-6.546-18.34l-3.214,3.213a18.178,18.178,0,1,0,5.187,15.127H919.091V75h22.614A22.134,22.134,0,0,1,941.818,77.273Z"/></g></g></g></svg>