<svg id="Main" xmlns="http://www.w3.org/2000/svg" viewBox="0 0 603.045 530.004"><defs><style>.cls-1{fill:#366ce1;}.cls-2{fill:#121221;}</style></defs><title>snipper</title><g id="Snipper"><path class="cls-1" d="M500.005,394.888c-1.14,1.27-2.32,2.53-3.54,3.75-1.19,1.19-2.4,2.34-3.64,3.43l-123.64-123.64-.39.39c-1.01-1.25-2.05-2.49-3.14-3.71q1.7-1.92,3.53-3.75c1.19-1.19,2.4-2.34,3.64-3.43l60,60L439.9,335l56.57,56.57.39-.39C497.865,392.428,498.905,393.668,500.005,394.888Z" transform="translate(-198.478 -234.998)"/><path class="cls-1" d="M432.825,342.068l-60,60-3.64,3.64c-1.16,1.16-2.33,2.28-3.53,3.37a100,100,0,1,1,0-148.16q-1.8,1.635-3.54,3.37-1.83,1.83-3.54,3.72a90,90,0,1,0,0,133.98c1.2-1.08,2.38-2.19,3.54-3.35,1.22-1.22,2.4-2.48,3.54-3.75,1.09-1.22,2.13-2.46,3.14-3.71l.39.39L425.755,335Z" transform="translate(-198.478 -234.998)"/><path class="cls-2" d="M634.345,394.888q-1.695,1.92-3.53,3.75c-1.19,1.19-2.4,2.34-3.64,3.43l-60-60,7.07-7.07,56.57,56.57.39-.39C632.215,392.428,633.255,393.668,634.345,394.888Z" transform="translate(-198.478 -234.998)"/><path class="cls-1" d="M641.425,401.988q-1.71,1.89-3.54,3.72c-1.16,1.16-2.33,2.28-3.53,3.37a100.006,100.006,0,0,1-134.35,0c1.2-1.09,2.37-2.21,3.53-3.37l3.64-3.64a89.972,89.972,0,0,0,120,0c1.24-1.09,2.45-2.24,3.64-3.43q1.83-1.83,3.53-3.75a89.97,89.97,0,0,0,0-119.78c1.14-1.27,2.32-2.53,3.54-3.75,1.16-1.16,2.33-2.27,3.54-3.35A100.021,100.021,0,0,1,641.425,401.988Z" transform="translate(-198.478 -234.998)"/><path class="cls-2" d="M567.175,327.928l-7.07,7.07-56.57-56.57-.39.39c-1.01-1.25-2.05-2.49-3.14-3.71,1.13-1.27,2.31-2.53,3.53-3.75,1.19-1.19,2.4-2.34,3.64-3.43Z" transform="translate(-198.478 -234.998)"/><path class="cls-2" d="M500.005,260.918q-1.8,1.635-3.54,3.37l-3.64,3.64a89.972,89.972,0,0,0-120,0c-1.24,1.09-2.45,2.24-3.64,3.43q-1.83,1.83-3.53,3.75a89.97,89.97,0,0,0,0,119.78c-1.14,1.27-2.32,2.53-3.54,3.75-1.16,1.16-2.34,2.27-3.54,3.35a100.021,100.021,0,0,1,0-133.98q1.71-1.89,3.54-3.72,1.74-1.74,3.54-3.37A100.006,100.006,0,0,1,500.005,260.918Z" transform="translate(-198.478 -234.998)"/><path class="cls-2" d="M772.235,405.708a100,100,0,0,1-137.88,3.37c1.2-1.09,2.37-2.21,3.53-3.37q1.83-1.83,3.54-3.72a90,90,0,1,0,0-133.98c-1.21,1.08-2.38,2.19-3.54,3.35-1.22,1.22-2.4,2.48-3.54,3.75-1.09,1.22-2.13,2.46-3.14,3.71l-.39-.39-123.64,123.64-3.64,3.64c-1.16,1.16-2.33,2.28-3.53,3.37a100,100,0,0,1-134.35,0c1.2-1.09,2.37-2.21,3.53-3.37l3.64-3.64a89.972,89.972,0,0,0,120,0c1.24-1.09,2.45-2.24,3.64-3.43,1.22-1.22,2.4-2.48,3.54-3.75,1.09-1.22,2.13-2.46,3.14-3.71l.39.39,127.28-127.28q1.74-1.74,3.54-3.37a100,100,0,0,1,137.88,144.79Z" transform="translate(-198.478 -234.998)"/><path class="cls-1" d="M634.355,260.918q-1.8,1.635-3.54,3.37l-3.64,3.64a89.972,89.972,0,0,0-120,0c-1.24,1.09-2.45,2.24-3.64,3.43-1.22,1.22-2.4,2.48-3.53,3.75-1.1,1.22-2.14,2.46-3.15,3.71l-.39-.39L439.9,335l-7.07-7.07,60-60,3.64-3.64q1.74-1.74,3.54-3.37A100.006,100.006,0,0,1,634.355,260.918Z" transform="translate(-198.478 -234.998)"/><path class="cls-1" d="M310,475H250a51.25,51.25,0,0,0,0,100h20a51.25,51.25,0,0,1,0,100H210V655h60c3.531-3.707,20-21.786,20-50,0-5.12-.542-29.57-20-50l-20,40c-3.531-3.707-20-21.786-20-50,0-5.12.542-29.57,20-50h60Z" transform="translate(-198.478 -234.998)"/><ellipse class="cls-2" cx="131.522" cy="390.004" rx="14.142" ry="70.711"/><path class="cls-2" d="M340,595a32.5,32.5,0,0,1,60,0v80H380V595c-3.651-7.59-8.578-9.523-10-10-9.314-3.128-22.885,4.261-30,20Z" transform="translate(-198.478 -234.998)"/><ellipse class="cls-2" cx="521.522" cy="390.004" rx="14.142" ry="70.711"/><path class="cls-2" d="M730,595a32.5,32.5,0,0,1,60,0H770c-3.651-7.59-8.578-9.523-10-10-9.314-3.128-22.885,4.261-30,20Z" transform="translate(-198.478 -234.998)"/><ellipse class="cls-2" cx="221.522" cy="390.004" rx="14.142" ry="70.711"/><circle class="cls-2" cx="221.522" cy="320.004" r="10"/><path class="cls-2" d="M480,575a48.075,48.075,0,0,0-20,4.32V575H440V765h20v-94.37A53.545,53.545,0,0,0,480,675c24.5,0,38.51-18.01,40-20V595C505.3,575.4,482.49,575,480,575Zm20,70c-.75,1-7.75,10-20,10-1.25,0-12.65-.2-20-10V605c.75-1,7.75-10,20-10,1.25,0,12.65.2,20,10Z" transform="translate(-198.478 -234.998)"/><path class="cls-2" d="M570,575a48.075,48.075,0,0,0-20,4.32V575H530V765h20v-94.37A53.545,53.545,0,0,0,570,675c24.5,0,38.51-18.01,40-20V595C595.3,575.4,572.49,575,570,575Zm20,70c-.75,1-7.75,10-20,10-1.25,0-12.65-.2-20-10V605c.75-1,7.75-10,20-10,1.25,0,12.65.2,20,10Z" transform="translate(-198.478 -234.998)"/><path class="cls-2" d="M700,635V595c-14.7-19.6-37.51-20-40-20-24.5,0-38.51,18.01-40,20v60c14.7,19.6,37.51,20,40,20,24.5,0,38.51-18.01,40-20q-10-4.995-20-10c-.75,1-7.75,10-20,10-1.25,0-12.65-.2-20-10V635Zm-60-30c.75-1,7.75-10,20-10,1.25,0,12.65.2,20,10v10H640Z" transform="translate(-198.478 -234.998)"/></g></svg>