<svg id="Main" xmlns="http://www.w3.org/2000/svg" viewBox="0 0 480 180"><defs><style>.cls-1{fill:#366ce1;}.cls-2{fill:#121221;}</style></defs><title>SNMP</title><g id="SNMP"><path class="cls-1" d="M349.043,515.358a50,50,0,1,1-65.011-75.618,50.006,50.006,0,0,0,69.919,69.918A50.285,50.285,0,0,1,349.043,515.358Z" transform="translate(-260 -410)"/><path class="cls-1" d="M360,462.116a49.924,49.924,0,0,1-.56,7.49,50.008,50.008,0,0,0-98.88,0,50,50,0,1,1,99.44-7.49Z" transform="translate(-260 -410)"/><path class="cls-2" d="M339.991,557.54a50,50,0,1,0-75.618-65.012,50.007,50.007,0,0,1,69.919,69.919A50.179,50.179,0,0,0,339.991,557.54Z" transform="translate(-260 -410)"/><path class="cls-2" d="M360,537.49a49.924,49.924,0,0,0-.56-7.49,50.008,50.008,0,0,1-98.88,0A50,50,0,1,0,360,537.49Z" transform="translate(-260 -410)"/><rect class="cls-1" x="110" y="20" width="20" height="160"/><rect class="cls-2" x="210" y="20" width="20" height="160"/><polygon class="cls-2" points="130 20 110 20 230 180 230 160 130 20"/><polygon class="cls-1" points="210 180 230 180 110 20 110 40 210 180"/><rect class="cls-1" x="240" y="20" width="20" height="160"/><rect class="cls-1" x="340" y="20" width="20" height="160"/><polygon class="cls-2" points="240 20 260 20 310 80 290 80 240 20"/><polygon class="cls-1" points="290 100 290 80 240 20 240 40 290 100"/><polygon class="cls-2" points="290 100 310 100 360 40 340 40 290 100"/><polygon class="cls-1" points="340 20 340 40 290 100 290 80 340 20"/><path class="cls-1" d="M740,460a49.924,49.924,0,0,1-.56,7.49,50.008,50.008,0,0,0-98.88,0A50,50,0,1,1,740,460Z" transform="translate(-260 -410)"/><path class="cls-2" d="M740,470.251a49.924,49.924,0,0,0-.56-7.49,50.008,50.008,0,0,1-98.88,0,50,50,0,1,0,99.44,7.49Z" transform="translate(-260 -410)"/><rect class="cls-1" x="370" y="20" width="20" height="160"/><path class="cls-2" d="M660,580l-10,10V500h10Z" transform="translate(-260 -410)"/></g></svg>