<svg xmlns="http://www.w3.org/2000/svg" viewBox="0 0 1250 240"><defs><style>.cls-1{fill:#366ce1;}.cls-10,.cls-2,.cls-3,.cls-4,.cls-5,.cls-6,.cls-7,.cls-8,.cls-9{fill:#121221;}.cls-2{opacity:0.4;}.cls-3{opacity:0.2;}.cls-4{opacity:0.8;}.cls-5{opacity:0.6;}.cls-6{opacity:0.5;}.cls-7{opacity:0.3;}.cls-8{opacity:0.1;}.cls-9{opacity:0.7;}</style></defs><title>snowflake</title><g id="Слой_2" data-name="Слой 2"><g id="Work_space" data-name="Work space"><g id="snowflake"><path class="cls-1" d="M1130,70a50,50,0,1,0,50,50A50.005,50.005,0,0,0,1130,70Zm0,80a30,30,0,1,1,30-30A30,30,0,0,1,1130,150Z"/><path class="cls-1" d="M1214.853,35.147a30,30,0,1,0,0,42.427A30,30,0,0,0,1214.853,35.147Zm-28.284,28.284a10,10,0,1,1,14.142,0A10,10,0,0,1,1186.569,63.431Z"/><path class="cls-1" d="M1214.853,162.426a30,30,0,1,0,0,42.427A30,30,0,0,0,1214.853,162.426Zm-28.284,28.285a10,10,0,1,1,14.142,0A10,10,0,0,1,1186.569,190.711Z"/><path class="cls-1" d="M1087.574,162.426a30,30,0,1,0,0,42.427A30,30,0,0,0,1087.574,162.426Zm-28.285,28.285a10,10,0,1,1,14.142,0A10,10,0,0,1,1059.289,190.711Z"/><path class="cls-1" d="M1087.574,35.147a30,30,0,1,0,0,42.427A30,30,0,0,0,1087.574,35.147Zm-28.285,28.284a10,10,0,1,1,14.142,0A10,10,0,0,1,1059.289,63.431Z"/><path class="cls-1" d="M1130,0a30,30,0,1,0,30,30A30,30,0,0,0,1130,0Zm0,40a10,10,0,1,1,10-10A10,10,0,0,1,1130,40Z"/><path class="cls-1" d="M1220,90a30,30,0,1,0,30,30A30,30,0,0,0,1220,90Zm0,40a10,10,0,1,1,10-10A10,10,0,0,1,1220,130Z"/><path class="cls-1" d="M1130,180a30,30,0,1,0,30,30A30,30,0,0,0,1130,180Zm0,40a10,10,0,1,1,10-10A10,10,0,0,1,1130,220Z"/><path class="cls-1" d="M1040,90a30,30,0,1,0,30,30A30,30,0,0,0,1040,90Zm0,40a10,10,0,1,1,10-10A10,10,0,0,1,1040,130Z"/><path class="cls-2" d="M1214.853,35.147a30,30,0,1,0,0,42.427A30,30,0,0,0,1214.853,35.147Zm-28.284,28.284a10,10,0,1,1,14.142,0A10,10,0,0,1,1186.569,63.431Z"/><path class="cls-3" d="M1214.853,162.426a30,30,0,1,0,0,42.427A30,30,0,0,0,1214.853,162.426Zm-28.284,28.285a10,10,0,1,1,14.142,0A10,10,0,0,1,1186.569,190.711Z"/><path class="cls-4" d="M1087.574,162.426a30,30,0,1,0,0,42.427A30,30,0,0,0,1087.574,162.426Zm-28.285,28.285a10,10,0,1,1,14.142,0A10,10,0,0,1,1059.289,190.711Z"/><path class="cls-5" d="M1087.574,35.147a30,30,0,1,0,0,42.427A30,30,0,0,0,1087.574,35.147Zm-28.285,28.284a10,10,0,1,1,14.142,0A10,10,0,0,1,1059.289,63.431Z"/><path class="cls-6" d="M1130,0a30,30,0,1,0,30,30A30,30,0,0,0,1130,0Zm0,40a10,10,0,1,1,10-10A10,10,0,0,1,1130,40Z"/><path class="cls-7" d="M1220,90a30,30,0,1,0,30,30A30,30,0,0,0,1220,90Zm0,40a10,10,0,1,1,10-10A10,10,0,0,1,1220,130Z"/><path class="cls-8" d="M1130,180a30,30,0,1,0,30,30A30,30,0,0,0,1130,180Zm0,40a10,10,0,1,1,10-10A10,10,0,0,1,1130,220Z"/><path class="cls-9" d="M1040,90a30,30,0,1,0,30,30A30,30,0,0,0,1040,90Zm0,40a10,10,0,1,1,10-10A10,10,0,0,1,1040,130Z"/><polygon class="cls-10" points="460 90 460 110 520 110 520 130 460 130 460 170 440 170 440 70 540 70 540 90 460 90"/><polygon class="cls-1" points="210 70 210 170 190 170 130 100.59 130 170 110 170 110 70 130 70 190 139.41 190 70 210 70"/><path class="cls-1" d="M20,100a10,10,0,0,0,10,10H70a30,30,0,0,1,0,60H0V150H70a10,10,0,0,0,0-20H30a30,30,0,0,1,0-60h70V90H30A10,10,0,0,0,20,100Z"/><polygon class="cls-10" points="900 90 900 110 980 110 980 130 900 130 900 150 980 150 980 170 880 170 880 70 980 70 980 90 900 90"/><polygon class="cls-10" points="650 150 650 170 550 170 550 70 570 70 570 150 650 150"/><path class="cls-1" d="M270,70a50,50,0,1,0,50,50A50.005,50.005,0,0,0,270,70Zm0,80a30,30,0,1,1,30-30A30,30,0,0,1,270,150Z"/><polygon class="cls-10" points="870 169.99 870 170 840.13 170 799.51 133.43 790 142 790 170 770 170 770 70 790 70 790 115.09 799.51 106.52 840.07 70 869.97 70 814.46 119.98 870 169.99"/><path class="cls-10" d="M720.77,71.95,719.99,70H700.01l-.78,1.94L660,170h21.55l11.2-28h34.5l11.2,28H760ZM700.75,122,710,98.87,719.25,122Z"/><path class="cls-1" d="M419.38,70l-14.46,57.86L390.36,71.15l-.3-1.15H375.15l-.03.11V70H370l-.29,1.16-14.54,56.59L340.74,70H320.12v.02l24.61,98.41.39,1.57h19.86l.38-1.5,14.67-57.13,14.7,57.24.35,1.39h15.03l.01-.04V170h4.87l.37-1.46L440,70Zm-19.26,50.99v.04l-.02-.04Zm0,47.53-.19.61.19-.64Z"/><polygon class="cls-1" points="400.12 121.03 400.1 120.99 400.12 120.99 400.12 121.03"/><polygon class="cls-1" points="400.12 168.52 399.93 169.13 400.12 168.49 400.12 168.52"/><polygon class="cls-1" points="400.12 168.52 399.93 169.13 400.12 168.49 400.12 168.52"/></g></g></g></svg>