<svg xmlns="http://www.w3.org/2000/svg" viewBox="0 0 990.71 191.421"><defs><style>.cls-1{fill:#121221;}.cls-2{fill:#366ce1;}</style></defs><title>social book</title><g id="Слой_2" data-name="Слой 2"><g id="Work_space" data-name="Work space"><g id="social_book" data-name="social book"><path class="cls-1" d="M28.786,28.787a30,30,0,1,0,42.427,0A30,30,0,0,0,28.786,28.787Zm0,0a30,30,0,1,0,42.427,0A30,30,0,0,0,28.786,28.787Zm28.277,70.7L28.786,71.213,14.644,85.355A49.887,49.887,0,0,0,57.063,99.49Z"/><path class="cls-1" d="M170.207,28.787a30,30,0,1,0,42.427,0A30,30,0,0,0,170.207,28.787Zm0,0a30,30,0,1,0,42.427,0A30,30,0,0,0,170.207,28.787Z"/><path class="cls-2" d="M212.634,71.213,120.71,163.137,28.786,71.213A30,30,0,0,0,71.213,28.787l49.5,49.5,49.5-49.5a30,30,0,0,0,42.427,42.426Z"/><path class="cls-1" d="M226.776,85.355,120.71,191.421,14.644,85.355A49.887,49.887,0,0,0,57.063,99.49l63.647,63.647L184.357,99.49A49.887,49.887,0,0,0,226.776,85.355Z"/><path class="cls-2" d="M226.78,85.36a49.909,49.909,0,0,1-42.42,14.13l28.27-28.28a30,30,0,1,0-42.42-42.42l-49.5,49.49L71.21,28.79A30,30,0,0,0,28.79,71.21L57.06,99.49A50,50,0,1,1,85.35,14.64L120.71,50l35.36-35.36a50,50,0,1,1,70.71,70.72Z"/><path class="cls-1" d="M499.308,125.284q4.17,5.48,8.326,10.953a33.333,33.333,0,1,1,0-44.386q-4.16,5.48-8.326,10.953a20,20,0,1,0,0,22.48Z"/><path class="cls-1" d="M287.434,77.377a10,10,0,0,0,10,10h40a30,30,0,0,1,0,60h-70v-20h70a10,10,0,0,0,0-20h-40a30,30,0,0,1,0-60h70v20h-70A10,10,0,0,0,287.434,77.377Z"/><path class="cls-1" d="M409.768,80.711A33.333,33.333,0,1,0,443.1,114.044,33.337,33.337,0,0,0,409.768,80.711Zm0,53.333a20,20,0,1,1,20-20A20,20,0,0,1,409.768,134.044Z"/><path class="cls-1" d="M798.853,72.615a35.715,35.715,0,1,0,35.714,35.715A35.718,35.718,0,0,0,798.853,72.615Zm0,57.143a21.429,21.429,0,1,1,21.428-21.428A21.427,21.427,0,0,1,798.853,129.758Z"/><path class="cls-1" d="M876.424,72.615a35.715,35.715,0,1,0,35.715,35.715A35.718,35.718,0,0,0,876.424,72.615Zm0,57.143a21.429,21.429,0,1,1,21.429-21.428A21.427,21.427,0,0,1,876.424,129.758Z"/><path class="cls-1" d="M754.139,74.044a30,30,0,0,0-30-30h-70v100h70a29.991,29.991,0,0,0,22.35-50A29.862,29.862,0,0,0,754.139,74.044Zm-80-10h50a10,10,0,0,1,0,20h-50Zm50,60h-50v-20h50a10,10,0,0,1,0,20Z"/><path class="cls-1" d="M593.429,87.025c-32.338-20.317-66.432,12.112-49.5,44.509A31.59,31.59,0,0,0,555.2,142.84c13.88,7.3,27.8,5.212,37.569-2.136v6.673H606.1V110.034A27.164,27.164,0,0,0,593.429,87.025Zm-8.6,43.441c-19.835,12.067-40.552-8.65-28.485-28.485a13.06,13.06,0,0,1,4.358-4.359c19.835-12.067,40.552,8.65,28.486,28.485A13.054,13.054,0,0,1,584.831,130.466Z"/><rect class="cls-1" x="516.101" y="80.711" width="13.333" height="66.667"/><rect class="cls-1" x="516.101" y="60.711" width="13.333" height="13.333"/><polygon class="cls-1" points="990.71 144.037 990.71 144.044 969.374 144.044 940.36 117.923 933.567 124.044 933.567 144.044 919.281 144.044 919.281 44.044 933.567 44.044 933.567 104.823 940.36 98.701 969.331 72.615 990.689 72.615 951.039 108.315 990.71 144.037"/><rect class="cls-1" x="616.101" y="47.377" width="13.333" height="100"/></g></g></g></svg>