<svg xmlns="http://www.w3.org/2000/svg" viewBox="0 0 1200 370"><defs><style>.cls-1{fill:#366ce1;}.cls-2{fill:#e1dfdf;}.cls-3{fill:#1c1e20;}.cls-4{fill:#121221;}</style></defs><title>Softeligent</title><g id="Слой_2" data-name="Слой 2"><g id="Complete"><g id="Softeligent"><circle class="cls-1" cx="597.5" cy="100" r="100"/><circle class="cls-2" cx="647.5" cy="80" r="50"/><path class="cls-3" d="M647.5,30a50,50,0,1,0,50,50A50.005,50.005,0,0,0,647.5,30Zm0,90a40,40,0,1,1,40-40A40,40,0,0,1,647.5,120Z"/><path class="cls-3" d="M675,115a27.5,27.5,0,1,0,27.5,27.5A27.5,27.5,0,0,0,675,115Zm0,45a17.5,17.5,0,1,1,17.5-17.5A17.506,17.506,0,0,1,675,160Z"/><path class="cls-3" d="M670,160a27.5,27.5,0,1,0,27.5,27.5A27.5,27.5,0,0,0,670,160Zm0,45a17.5,17.5,0,1,1,17.5-17.5A17.506,17.506,0,0,1,670,205Z"/><path class="cls-3" d="M650,200a27.5,27.5,0,1,0,27.5,27.5A27.5,27.5,0,0,0,650,200Zm0,45a17.5,17.5,0,1,1,17.5-17.5A17.506,17.506,0,0,1,650,245Z"/><path class="cls-1" d="M647.5,50a30,30,0,1,0,30,30A30,30,0,0,0,647.5,50Zm0,40a10,10,0,1,1,10-10A10,10,0,0,1,647.5,90Z"/><circle class="cls-4" cx="647.5" cy="80" r="10"/><circle class="cls-2" cx="547.5" cy="80" r="50"/><path class="cls-1" d="M547.5,50a30,30,0,1,0,30,30A30,30,0,0,0,547.5,50Zm0,40a10,10,0,1,1,10-10A10,10,0,0,1,547.5,90Z"/><circle class="cls-4" cx="547.5" cy="80" r="10"/><polygon class="cls-3" points="240 290 240 310 300 310 300 330 240 330 240 370 220 370 220 270 320 270 320 290 240 290"/><path class="cls-3" d="M20,300a10,10,0,0,0,10,10H70a30,30,0,0,1,0,60H0V350H70a10,10,0,0,0,0-20H30a30,30,0,0,1,0-60h70v20H30A10,10,0,0,0,20,300Z"/><polygon class="cls-3" points="900 290 900 310 980 310 980 330 900 330 900 350 980 350 980 370 880 370 880 270 980 270 980 290 900 290"/><polygon class="cls-3" points="460 290 460 310 540 310 540 330 460 330 460 350 540 350 540 370 440 370 440 270 540 270 540 290 460 290"/><polygon class="cls-3" points="650 350 650 370 550 370 550 270 570 270 570 350 650 350"/><path class="cls-3" d="M160,270a50,50,0,1,0,50,50A50.005,50.005,0,0,0,160,270Zm0,80a30,30,0,1,1,30-30A30,30,0,0,1,160,350Z"/><path class="cls-3" d="M870,310v10a49.16,49.16,0,0,1-1.01,10,50.013,50.013,0,1,1-13.64-45.35l-14.14,14.14A30,30,0,1,0,848.28,330H820V310Z"/><polygon class="cls-3" points="720 290 720 350 760 350 760 370 660 370 660 350 700 350 700 290 660 290 660 270 760 270 760 290 720 290"/><polygon class="cls-3" points="430 270 430 290 390 290 390 370 370 370 370 290 330 290 330 270 430 270"/><polygon class="cls-3" points="1200 270 1200 290 1160 290 1160 370 1140 370 1140 290 1100 290 1100 270 1200 270"/><polygon class="cls-3" points="1090 270 1090 370 1070 370 1010 300.59 1010 370 990 370 990 270 1010 270 1070 339.41 1070 270 1090 270"/></g></g></g></svg>