<svg xmlns="http://www.w3.org/2000/svg" viewBox="0 0 1230 100"><defs><style>.cls-1{fill:#121221;}.cls-2{fill:#366ce1;}</style></defs><title>software association chamber</title><g id="Слой_2" data-name="Слой 2"><g id="Work_space" data-name="Work space"><g id="software_association_chamber" data-name="software association chamber"><path class="cls-1" d="M1064.261,36.408q1.929,2.536,3.853,5.069a15.426,15.426,0,1,1,0-20.542q-1.925,2.537-3.853,5.07a9.256,9.256,0,1,0,0,10.4Z"/><polygon class="cls-2" points="240 20 240 40 300 40 300 60 240 60 240 100 220 100 220 0 320 0 320 20 240 20"/><path class="cls-2" d="M20,30A10,10,0,0,0,30,40H70a30,30,0,0,1,0,60H0V80H70a10,10,0,0,0,0-20H30A30,30,0,0,1,30,0h70V20H30A10,10,0,0,0,20,30Z"/><polygon class="cls-2" points="790 20 790 40 870 40 870 60 790 60 790 80 870 80 870 100 770 100 770 0 870 0 870 20 790 20"/><path class="cls-2" d="M760,30A30,30,0,0,0,730,0H660V100h20V60h50a10,10,0,0,1,10,10v30h20V70a29.862,29.862,0,0,0-7.65-20A29.862,29.862,0,0,0,760,30ZM680,40V20h50a10,10,0,0,1,0,20Z"/><path class="cls-2" d="M160,0a50,50,0,1,0,50,50A50.005,50.005,0,0,0,160,0Zm0,80a30,30,0,1,1,30-30A30,30,0,0,1,160,80Z"/><path class="cls-1" d="M1180.635,15.78a15.427,15.427,0,1,0,15.427,15.426A15.428,15.428,0,0,0,1180.635,15.78Zm0,24.682a9.256,9.256,0,1,1,9.256-9.256A9.255,9.255,0,0,1,1180.635,40.462Z"/><path class="cls-1" d="M924.249,81.188h8.945a21.6,21.6,0,1,1,0-8.639h-8.945a12.959,12.959,0,1,0,0,8.639Z"/><path class="cls-2" d="M610.77,1.95,609.99,0H590.01l-.78,1.94L550,100h21.55l11.2-28h34.5l11.2,28H650ZM590.75,52,600,28.87,609.25,52Z"/><path class="cls-1" d="M916.249,4.281l-.337-.842h-8.63l-.337.838L890,46.633h9.308l4.838-12.1h14.9l4.838,12.1h9.308ZM907.6,25.9l4-9.991,4,9.991Z"/><path class="cls-2" d="M539.38,0,524.92,57.86,510.36,1.15,510.06,0H495.15l-.03.11V0H490l-.29,1.16L475.17,57.75,460.74,0H440.12V.02l24.61,98.41.39,1.57h19.86l.38-1.5,14.67-57.13,14.7,57.24.35,1.39h15.03l.01-.04V100h4.87l.37-1.46L560,0ZM520.12,50.99v.04l-.02-.04Zm0,47.53-.19.61.19-.64Z"/><polygon class="cls-2" points="520.12 51.03 520.1 50.99 520.12 50.99 520.12 51.03"/><polygon class="cls-2" points="520.12 98.52 519.93 99.13 520.12 98.49 520.12 98.52"/><polygon class="cls-2" points="520.12 98.52 519.93 99.13 520.12 98.49 520.12 98.52"/><path class="cls-1" d="M996.44,70.535c-14.966-9.4-30.744,5.605-22.91,20.6a14.625,14.625,0,0,0,5.218,5.232c6.423,3.378,12.867,2.412,17.386-.989v3.089h6.171V81.184A12.571,12.571,0,0,0,996.44,70.535Zm-3.979,20.1c-9.179,5.585-18.767-4-13.183-13.182a6.047,6.047,0,0,1,2.018-2.018c9.179-5.584,18.767,4,13.183,13.183A6.035,6.035,0,0,1,992.461,90.639Z"/><path class="cls-1" d="M1109.362,18.7c-14.966-9.4-30.744,5.6-22.91,20.6a14.625,14.625,0,0,0,5.218,5.232c6.423,3.378,12.866,2.412,17.386-.989v3.089h6.171V29.351A12.571,12.571,0,0,0,1109.362,18.7Zm-3.979,20.1c-9.179,5.585-18.767-4-13.183-13.182a6.038,6.038,0,0,1,2.018-2.018c9.179-5.584,18.767,4,13.182,13.183A6.032,6.032,0,0,1,1105.383,38.806Z"/><path class="cls-1" d="M1065.245,67.613a15.345,15.345,0,0,0-9.256,3.088V55.272h-6.17V83.039a15.427,15.427,0,1,0,15.426-15.426Zm0,24.682a9.256,9.256,0,1,1,9.256-9.256A9.255,9.255,0,0,1,1065.245,92.3Z"/><path class="cls-1" d="M1020.817,15.78a15.427,15.427,0,1,0,15.426,15.426A15.428,15.428,0,0,0,1020.817,15.78Zm0,24.682a9.256,9.256,0,1,1,9.256-9.256A9.255,9.255,0,0,1,1020.817,40.462Z"/><path class="cls-1" d="M1045.5,78.411V98.466h-6.171V78.411a4.628,4.628,0,1,0-9.255,0V98.466H1023.9V78.411a4.628,4.628,0,0,0-9.256,0V98.466h-6.171V67.613h6.171v1.04a10.808,10.808,0,0,1,12.341,2.2,10.8,10.8,0,0,1,18.4,6.017A11.03,11.03,0,0,1,1045.5,78.411Z"/><rect class="cls-1" x="1073.884" y="15.78" width="6.171" height="30.853"/><rect class="cls-1" x="1073.884" y="6.524" width="6.171" height="6.171"/><rect class="cls-1" x="1155.953" y="15.78" width="6.171" height="30.853"/><rect class="cls-1" x="1155.953" y="6.524" width="6.171" height="6.171"/><path class="cls-1" d="M1114.915,86.125a15.413,15.413,0,0,0,0-6.171,15.427,15.427,0,0,0-30.23,0,15.461,15.461,0,0,0,0,6.171,15.423,15.423,0,0,0,25.507,8.311q-2.458-1.967-4.918-3.933a9.255,9.255,0,0,1-14.2-4.378ZM1099.8,73.783a9.251,9.251,0,0,1,8.726,6.171h-17.451A9.25,9.25,0,0,1,1099.8,73.783Z"/><path class="cls-1" d="M1230,31.206V46.633h-6.171V31.206a9.256,9.256,0,1,0-18.511,0V46.633h-6.171V15.78h6.171v3.088A15.424,15.424,0,0,1,1230,31.206Z"/><path class="cls-1" d="M1149.165,31.206a15.427,15.427,0,1,1-30.853,0V3.439h6.171V15.78h9.256v6.17h-9.256v9.256a9.256,9.256,0,1,0,18.512,0Z"/><path class="cls-1" d="M1146.08,69.813q-1.587,2.646-3.175,5.291a9.252,9.252,0,0,0-14.016,7.935V98.466h-6.171V67.613h6.171V70.7a15.413,15.413,0,0,1,17.191-.888Z"/><path class="cls-1" d="M968.367,31.206a15.152,15.152,0,0,1-.312,3.086,15.424,15.424,0,0,1-26.021,7.821L946.4,37.75a9.253,9.253,0,0,0,15.269-3.458h-23.84a15.461,15.461,0,0,1,0-6.171A15.424,15.424,0,0,1,963.847,20.3l-4.363,4.362a9.253,9.253,0,0,0-15.269,3.459h23.84A15.149,15.149,0,0,1,968.367,31.206Z"/><path class="cls-1" d="M1002.305,31.206a15.152,15.152,0,0,1-.312,3.086,15.424,15.424,0,0,1-26.021,7.821l4.362-4.363a9.254,9.254,0,0,0,15.27-3.458h-23.84a15.413,15.413,0,0,1,0-6.171A15.424,15.424,0,0,1,997.785,20.3l-4.363,4.362a9.253,9.253,0,0,0-15.269,3.459h23.84A15.149,15.149,0,0,1,1002.305,31.206Z"/><polygon class="cls-2" points="430 0 430 20 390 20 390 100 370 100 370 20 330 20 330 0 430 0"/><path class="cls-1" d="M968.367,83.039V98.466H962.2V83.039a9.256,9.256,0,1,0-18.512,0V98.466h-6.17V55.272h6.17V70.7a15.424,15.424,0,0,1,24.683,12.338Z"/></g></g></g></svg>