<svg xmlns="http://www.w3.org/2000/svg" viewBox="0 0 1129.84 100"><defs><style>.cls-1{fill:#121221;}</style></defs><title>solar city</title><g id="Слой_2" data-name="Слой 2"><g id="Work_space" data-name="Work space"><g id="solar_city" data-name="solar city"><path class="cls-1" d="M179.96,0a50,50,0,1,0,50,50A50.005,50.005,0,0,0,179.96,0Zm0,90a40,40,0,1,1,40-40A40,40,0,0,1,179.96,90Z"/><path class="cls-1" d="M782.81,78.28l7.07,7.07a50,50,0,1,1,0-70.7l-7.07,7.07a40,40,0,1,0,0,56.56Z"/><path class="cls-1" d="M469.58,55l-4.51-10L445.36,1.27l.01-.01L444.88.18h-.01L444.79,0h-9.84l-.08.18V.2l-.47,1.05h-.01L414.67,45l-4.51,10-20.28,45h10.97l20.28-45h37.48l20.28,45h10.97Zm-19.71-2.96-.02-.04h.02ZM425.64,45l14.23-31.58L454.11,45Z"/><path class="cls-1" d="M606.41,55A29.994,29.994,0,0,0,589.84,0h-70V100h10V60h60a19.994,19.994,0,0,1,20,20v20h10V80A29.923,29.923,0,0,0,606.41,55Zm-26.57-2.96-.02-.04h.02Zm10-2.04h-60V10h60a20,20,0,0,1,0,40Z"/><polygon class="cls-1" points="359.92 90 359.92 100 259.92 100 259.92 0 269.92 0 269.92 90 359.92 90"/><path class="cls-1" d="M10,27.5A17.506,17.506,0,0,0,27.5,45h45A27.5,27.5,0,0,1,80,98.95,26.911,26.911,0,0,1,72.5,100H0V90H72.5a17.5,17.5,0,0,0,0-35h-45A27.5,27.5,0,0,1,20,1.05,26.911,26.911,0,0,1,27.5,0H100V10H27.5A17.506,17.506,0,0,0,10,27.5Z"/><polygon class="cls-1" points="999.88 0 999.88 10 954.88 10 954.88 100 944.88 100 944.88 10 899.88 10 899.88 0 999.88 0"/><polygon class="cls-1" points="1129.84 0 1086.58 48.16 1084.85 50.09 1084.85 100 1074.85 100 1074.85 50.06 1073.14 48.16 1029.88 0 1043.33 0 1079.86 40.68 1116.4 0 1129.84 0"/><polygon class="cls-1" points="849.84 10 849.84 90 859.84 90 859.84 100 829.84 100 829.84 90 839.84 90 839.84 10 829.84 10 829.84 0 859.84 0 859.84 10 849.84 10"/></g></g></g></svg>