<svg xmlns="http://www.w3.org/2000/svg" viewBox="0 0 1194.498 340.02"><defs><style>.cls-1,.cls-4{fill:#366ce1;}.cls-2,.cls-3,.cls-5{fill:#121221;}.cls-2,.cls-4{opacity:0.62;}.cls-5{opacity:0.38;}</style></defs><title>SpaceDesigner</title><g id="Слой_2" data-name="Слой 2"><g id="Complete"><g id="SpaceDesigner"><polygon class="cls-1" points="0 85.01 0.02 85.02 0 255.01 0 85.01"/><polygon class="cls-1" points="294.47 85.01 294.47 255.01 147.24 340 147.22 339.99 147.24 170.01 204.36 137.03 294.47 85.01"/><polygon class="cls-2" points="294.47 85.01 294.47 255.01 147.24 340 147.22 339.99 147.24 170.01 204.36 137.03 294.47 85.01"/><polygon class="cls-1" points="294.47 84.99 294.47 85.01 204.36 137.03 294.46 85 147.24 0 294.47 84.99"/><polygon class="cls-3" points="204.36 137.03 147.24 170.01 147.22 339.99 0 255.01 0.02 85.02 147.24 170 204.36 137.03"/><polygon class="cls-4" points="204.36 137.04 147.24 170.02 147.22 340 0 255.02 0.02 85.03 147.24 170.01 204.36 137.04"/><polygon class="cls-1" points="0 255.01 147.22 339.99 147.22 340.02 0 255.02 0 255.01"/><polygon class="cls-1" points="294.46 85 204.36 137.03 147.24 170 0.02 85.02 0.02 85.01 147.24 0 294.46 85"/><path class="cls-2" d="M65.785,216.32l-.03.12-.12-.03Z"/><path class="cls-2" d="M147.225,169.42v11.44q-4.995,2.88-9.98,5.76-28.98,16.725-57.95,33.45-6.75-1.815-13.51-3.62l71.43-41.25Z"/><path class="cls-2" d="M228.85,216.414l-71.61-41.33-.01-.01-9.99-5.77-.02.01v11.52c.01.01.02.02.03.02q5,2.88,9.99,5.77,28.98,16.725,57.97,33.45Z"/><path class="cls-5" d="M147.23,83.189l-.01,97.66q-5-2.88-9.98-5.76V93.179Q142.235,88.169,147.23,83.189Z"/><path class="cls-2" d="M157.24,93.179v81.91q-5,2.88-9.99,5.77c-.01,0-.02-.01-.03-.01l.01-97.66.01-.01Q152.235,88.174,157.24,93.179Z"/><path class="cls-5" d="M228.745,216.36l-71.43-41.22-9.96-5.76-.02.01v-.03l-.11.06-10.01,5.78-71.43,41.25c-.01,0-.02-.01-.03-.01l.03-.12c1.19-4.49,2.4-9,3.6-13.5q38.865-22.41,77.68-44.82c.06-.04.12-.07.19-.11.06.04.12.07.18.11q38.82,22.41,77.68,44.82C226.315,207.34,227.535,211.85,228.745,216.36Z"/><path class="cls-2" d="M65.785,216.45l-.04.02c0-.01.01-.02.01-.03S65.775,216.45,65.785,216.45Z"/><path class="cls-3" d="M733.788,105.01H754.5a50,50,0,1,1,0-20h-20.71a30,30,0,1,0,0,20Z"/><path class="cls-3" d="M374.5,75.01a10,10,0,0,0,10,10h40a30,30,0,1,1,0,60h-70v-20h70a10,10,0,1,0,0-20h-40a30,30,0,1,1,0-60h70v20h-70A10,10,0,0,0,374.5,75.01Z"/><polygon class="cls-3" points="784.498 65.01 784.498 85.01 864.498 85.01 864.498 105.01 784.498 105.01 784.498 125.01 864.498 125.01 864.498 145.01 764.498 145.01 764.498 45.01 864.498 45.01 864.498 65.01 784.498 65.01"/><path class="cls-3" d="M615.268,46.96l-.78-1.95h-19.98l-.78,1.94L554.5,145.01h21.55l11.2-28h34.5l11.2,28H654.5Zm-20.02,50.05,9.25-23.13,9.25,23.13Z"/><path class="cls-3" d="M534.5,45.01h-70v100h20v-40h50a30,30,0,0,0,0-60Zm0,40h-50v-20h50a10,10,0,0,1,0,20Z"/><path class="cls-3" d="M404.5,165.01h-50v100h50a50,50,0,1,0,0-100Zm0,80h-30v-60h30a30,30,0,1,1,0,60Z"/><rect class="cls-3" x="625.498" y="190.01" width="15" height="75"/><rect class="cls-3" x="625.498" y="167.51" width="15" height="15"/><path class="cls-3" d="M534.241,235.01a37.532,37.532,0,0,0,0-15,37.5,37.5,0,0,0-73.485,0,37.483,37.483,0,0,0,0,15,37.49,37.49,0,0,0,62,20.205q-5.973-4.782-11.955-9.563a22.493,22.493,0,0,1-34.515-10.642Zm-36.743-30a22.484,22.484,0,0,1,21.21,15h-42.42A22.485,22.485,0,0,1,497.5,205.01Z"/><path class="cls-3" d="M889.241,235.01a37.532,37.532,0,0,0,0-15,37.5,37.5,0,0,0-73.485,0,37.483,37.483,0,0,0,0,15,37.49,37.49,0,0,0,62,20.205q-5.973-4.782-11.955-9.563a22.493,22.493,0,0,1-34.515-10.642Zm-36.743-30a22.484,22.484,0,0,1,21.21,15h-42.42A22.485,22.485,0,0,1,852.5,205.01Z"/><path class="cls-3" d="M807.5,227.51v37.5h-15v-37.5a22.5,22.5,0,0,0-45,0v37.5h-15v-37.5a37.5,37.5,0,0,1,75,0Z"/><path class="cls-3" d="M957.5,195.357q-3.858,6.435-7.717,12.863a22.493,22.493,0,0,0-34.073,19.29v37.5h-15v-75h15v7.507a37.471,37.471,0,0,1,41.79-2.16Z"/><path class="cls-3" d="M617.5,227.51a36.913,36.913,0,0,1-.757,7.5,37.493,37.493,0,0,1-63.255,19.012l10.605-10.6a22.492,22.492,0,0,0,37.117-8.407H543.256a37.483,37.483,0,0,1,0-15A37.494,37.494,0,0,1,606.511,201l-10.605,10.6a22.494,22.494,0,0,0-37.118,8.408h57.953A36.9,36.9,0,0,1,617.5,227.51Z"/><path class="cls-3" d="M710,197.517a.434.434,0,0,0-.067-.052c-.368-.27-.735-.54-1.11-.8-.008-.015-.015-.023-.03-.023-.36-.247-.72-.5-1.088-.727-.075-.053-.157-.1-.247-.158-.338-.21-.683-.42-1.028-.622-.5-.3-1.012-.585-1.53-.848-.382-.2-.757-.4-1.147-.585l-.053-.022c-.442-.21-.892-.42-1.342-.615h-.008c-.457-.195-.915-.383-1.372-.555-.008-.015-.015-.015-.03-.015-.458-.18-.923-.345-1.388-.5a36.743,36.743,0,0,0-5.145-1.35c-.172-.03-.352-.067-.525-.09-.225-.045-.45-.082-.682-.112-.308-.053-.623-.09-.93-.135-.345-.045-.69-.083-1.043-.113-.285-.03-.57-.06-.847-.075-.323-.03-.638-.045-.96-.06s-.638-.03-.96-.037-.645-.015-.968-.015a37.5,37.5,0,0,0-37.5,37.5c0,.667.015,1.327.053,1.987.03.623.082,1.238.142,1.845.015.18.038.353.06.533s.038.367.068.555c.03.262.067.525.112.787.03.2.06.413.1.615q.258,1.553.652,3.045c.045.2.105.405.158.6s.112.405.172.593c.09.3.18.607.278.907.195.623.4,1.238.645,1.838.105.277.21.555.322.825.12.292.24.585.368.87.142.33.292.66.442.982a35.519,35.519,0,0,0,2.34,4.223c.158.247.315.487.473.727.015.023.03.038.037.053.165.24.33.48.5.72q.517.743,1.08,1.44c.127.165.262.33.4.5q.934,1.158,1.958,2.227c.21.218.42.435.63.645s.42.42.637.623c0,.007.008.007.015.015q.315.3.653.607c.292.27.6.54.907.8.225.195.45.383.683.57.637.525,1.3,1.028,1.98,1.5.292.2.577.4.877.6s.593.39.893.578c.255.165.51.322.772.472.345.21.7.413,1.065.608q1.407.775,2.88,1.425c.33.142.653.285.99.42.263.112.525.217.8.315a35.632,35.632,0,0,0,4.455,1.387c.278.075.563.135.848.195.4.1.81.18,1.222.255.27.045.54.1.81.135.278.053.555.09.84.128.233.037.458.06.69.09s.443.052.668.075c.315.03.63.06.945.082.952.075,1.92.113,2.887.113.323,0,.645-.008.968-.015s.645-.015.96-.038.637-.03.96-.06c.277-.015.562-.045.847-.075.353-.03.7-.067,1.043-.112.307-.045.622-.083.93-.135.232-.03.457-.068.682-.113.173-.022.353-.06.525-.09a36.743,36.743,0,0,0,5.145-1.35c.465-.157.93-.322,1.388-.5.015,0,.022,0,.03-.015.457-.173.915-.36,1.372-.555h.008c.45-.195.9-.4,1.342-.615.015-.008.038-.015.053-.023.39-.187.765-.382,1.147-.585.518-.262,1.035-.547,1.53-.847.345-.2.69-.413,1.028-.623.09-.052.172-.105.247-.157.368-.233.728-.48,1.088-.728.015,0,.022-.007.03-.022.375-.255.742-.525,1.11-.8A.388.388,0,0,0,710,257.5v.008a22.5,22.5,0,0,1-38.407,15.907l-10.605,10.605A37.494,37.494,0,0,0,725,257.51v-30A37.417,37.417,0,0,0,710,197.517Zm-.03,31.148c-.015.36-.045.712-.075,1.065-.015.157-.037.315-.06.472-.022.24-.052.473-.09.705a.244.244,0,0,1-.015.075c-.052.36-.112.705-.187,1.058s-.158.727-.255,1.087c-.083.345-.18.683-.285,1.02a.4.4,0,0,1-.045.128c-.075.27-.165.532-.263.787-.037.12-.082.24-.127.36-.083.225-.173.45-.27.66a1.778,1.778,0,0,1-.113.278q-.145.36-.315.7a1.99,1.99,0,0,1-.15.315c-.067.143-.135.293-.217.435-.1.2-.21.405-.315.6-.143.263-.293.525-.45.773-.135.217-.27.435-.42.645a1.8,1.8,0,0,1-.2.315c-.375.555-.772,1.087-1.2,1.605-.187.232-.382.465-.592.69a.182.182,0,0,1-.075.09c-.248.285-.51.555-.78.825s-.548.547-.833.8l-.007.008c-.285.262-.578.51-.87.75s-.608.487-.915.712c-.27.2-.54.4-.825.578-.233.157-.465.307-.7.45a1.376,1.376,0,0,1-.21.127,5.957,5.957,0,0,1-.54.315c-.165.1-.337.195-.51.285s-.375.195-.562.293a3.407,3.407,0,0,1-.4.187c-.263.135-.525.255-.795.368a.1.1,0,0,0-.045.015c-.33.142-.675.277-1.02.405-.008,0-.015.007-.03.015q-.5.18-1.013.337a19.2,19.2,0,0,1-2.092.54.847.847,0,0,1-.15.03c-.315.068-.638.128-.968.173l-.142.022c-.27.045-.54.075-.81.1a.177.177,0,0,1-.06.008c-.135.015-.278.03-.413.037-.3.03-.592.053-.9.068-.382.022-.765.03-1.155.03s-.772-.008-1.155-.03c-.307-.015-.6-.038-.9-.068-.135-.007-.277-.022-.412-.037a.174.174,0,0,1-.06-.008c-.27-.03-.54-.06-.81-.1l-.143-.022c-.33-.045-.652-.105-.967-.173a.83.83,0,0,1-.15-.03,19.222,19.222,0,0,1-2.093-.54q-.518-.158-1.012-.337c-.015-.008-.023-.015-.03-.015-.345-.128-.69-.263-1.02-.405a.1.1,0,0,0-.045-.015c-.27-.113-.533-.233-.8-.368a3.9,3.9,0,0,1-.4-.187c-.2-.09-.382-.188-.57-.293-.172-.09-.345-.18-.51-.285a6.245,6.245,0,0,1-.54-.315,1.376,1.376,0,0,1-.21-.127c-.232-.143-.465-.293-.7-.45-.285-.18-.555-.375-.825-.578-.308-.225-.615-.465-.915-.712s-.585-.488-.87-.75l-.008-.008c-.285-.255-.57-.525-.832-.8s-.533-.54-.78-.825a.177.177,0,0,1-.075-.09c-.21-.225-.405-.458-.593-.69-.427-.518-.825-1.05-1.2-1.605a1.739,1.739,0,0,1-.2-.315c-.15-.21-.285-.428-.42-.645-.158-.248-.308-.51-.45-.773-.105-.2-.218-.4-.315-.6-.083-.142-.15-.292-.218-.435a1.99,1.99,0,0,1-.15-.315q-.168-.338-.315-.7a1.775,1.775,0,0,1-.112-.278c-.1-.21-.188-.435-.27-.66-.045-.12-.09-.24-.128-.36-.1-.255-.187-.517-.262-.787a.356.356,0,0,1-.045-.128c-.105-.337-.2-.675-.285-1.02-.1-.36-.18-.72-.255-1.087s-.135-.7-.188-1.058a.278.278,0,0,1-.015-.075c-.037-.232-.067-.465-.09-.705-.022-.157-.045-.315-.06-.472-.03-.353-.06-.7-.075-1.065-.022-.383-.03-.765-.03-1.148v-.007a22.5,22.5,0,0,1,45,0v.007C710,227.9,709.991,228.282,709.968,228.665Z"/><path class="cls-1" d="M1144.5,75.01h-50v140h50c27.61,0,50-31.346,50-70S1172.108,75.01,1144.5,75.01Zm0,112h-30v-84h30c16.57,0,30,18.8,30,42S1161.068,187.01,1144.5,187.01Z"/><path class="cls-1" d="M1084.5,175.01a40,40,0,0,1-80,0h20a20,20,0,1,0,20-20v-20a20,20,0,1,0-20-20h-20a40,40,0,1,1,66.44,30A39.845,39.845,0,0,1,1084.5,175.01Z"/></g></g></g></svg>