<svg xmlns="http://www.w3.org/2000/svg" viewBox="0 0 969.88 250"><defs><style>.cls-1,.cls-3{fill:#366ce1;}.cls-2,.cls-4{fill:#121221;}.cls-3,.cls-4{opacity:0.38;}</style></defs><title>spice works</title><g id="Слой_2" data-name="Слой 2"><g id="Work_space" data-name="Work space"><g id="spice_works" data-name="spice works"><polygon class="cls-1" points="260 40 260 100 280 100 280 120 220 120 220 100 240 100 240 40 220 40 220 20 280 20 280 40 260 40"/><path class="cls-2" d="M589.88,160a10,10,0,0,0,10,10h40a30,30,0,0,1,0,60h-70V210h70a10,10,0,0,0,0-20h-40a30,30,0,0,1,0-60h70v20h-70A10,10,0,0,0,589.88,160Z"/><path class="cls-1" d="M20,50A10,10,0,0,0,30,60H70a30,30,0,0,1,0,60H0V100H70a10,10,0,0,0,0-20H30a30,30,0,0,1,0-60h70V40H30A10,10,0,0,0,20,50Z"/><polygon class="cls-1" points="418.99 40 418.99 60 498.99 60 498.99 80 418.99 80 418.99 100 498.99 100 498.99 120 398.99 120 398.99 20 498.99 20 498.99 40 418.99 40"/><path class="cls-2" d="M449.88,160a30,30,0,0,0-30-30h-70V230h20V190h50a10,10,0,0,1,10,10v30h20V200a29.862,29.862,0,0,0-7.65-20A29.862,29.862,0,0,0,449.88,160Zm-80,10V150h50a10,10,0,0,1,0,20Z"/><path class="cls-2" d="M289.88,130a50,50,0,1,0,50,50A50.005,50.005,0,0,0,289.88,130Zm0,80a30,30,0,1,1,30-30A30,30,0,0,1,289.88,210Z"/><polygon class="cls-2" points="559.88 229.99 559.88 230 530.01 230 489.39 193.43 479.88 202 479.88 230 459.88 230 459.88 130 479.88 130 479.88 175.09 489.39 166.52 529.95 130 559.85 130 504.34 179.98 559.88 229.99"/><path class="cls-1" d="M368.28,80h20.71a50,50,0,1,1,0-20H368.28a30,30,0,1,0,0,20Z"/><path class="cls-1" d="M180,20H110V120h20V80h50a30,30,0,0,0,0-60Zm0,40H130V40h50a10,10,0,0,1,0,20Z"/><path class="cls-2" d="M209.26,130,194.8,187.86l-14.56-56.71-.3-1.15H165.03l-.03.11V130h-5.12l-.29,1.16-14.54,56.59L130.62,130H110v.02l24.61,98.41L135,230h19.86l.38-1.5,14.67-57.13,14.7,57.24.35,1.39h15.03l.01-.04V230h4.87l.37-1.46L229.88,130ZM190,180.99v.04l-.02-.04Zm0,47.53-.19.61.19-.64Z"/><polygon class="cls-2" points="190 181.03 189.98 180.99 190 180.99 190 181.03"/><polygon class="cls-2" points="190 228.52 189.81 229.13 190 228.49 190 228.52"/><polygon class="cls-2" points="190 228.52 189.81 229.13 190 228.49 190 228.52"/><path class="cls-3" d="M869.86,149.98a50,50,0,0,1-48.71,49.98c-.43.01-.86.02-1.29.02s-.86-.01-1.29-.02A99.988,99.988,0,0,1,818.57,0a50,50,0,0,0,1.29,99.98A50.005,50.005,0,0,1,869.86,149.98Z"/><path class="cls-3" d="M855.219,114.784a50,50,0,0,1,.9,69.785c-.3.311-.594.622-.9.926s-.616.6-.927.9A99.988,99.988,0,0,1,712.9,45a50,50,0,0,0,71.609,69.784A50.006,50.006,0,0,1,855.219,114.784Z"/><path class="cls-3" d="M819.86,99.98a50,50,0,0,1,49.98,48.71c.01.43.02.86.02,1.29s-.01.86-.02,1.29a99.988,99.988,0,0,1-199.96,0,50,50,0,0,0,99.98-1.29A50.005,50.005,0,0,1,819.86,99.98Z"/><path class="cls-4" d="M769.9,150a50,50,0,0,0,48.71,49.98c.43.01.86.02,1.29.02s.86-.01,1.29-.02a99.988,99.988,0,0,0,0-199.96A50,50,0,0,1,819.9,100,50.005,50.005,0,0,0,769.9,150Z"/><path class="cls-4" d="M784.541,114.8a50,50,0,0,0-.9,69.785c.3.311.594.622.9.926s.616.6.927.9A99.988,99.988,0,0,0,926.861,45.02,50,50,0,0,1,855.252,114.8,50.006,50.006,0,0,0,784.541,114.8Z"/><path class="cls-4" d="M819.9,100a50,50,0,0,0-49.98,48.71c-.01.43-.02.86-.02,1.29s.01.86.02,1.29a99.988,99.988,0,0,0,199.96,0A50,50,0,0,1,869.9,150,50.005,50.005,0,0,0,819.9,100Z"/></g></g></g></svg>