<svg xmlns="http://www.w3.org/2000/svg" viewBox="0 0 1100 100"><defs><style>.cls-1{fill:#121221;}.cls-2{fill:#366ce1;opacity:0.38;}</style></defs><title>spottler</title><g id="Слой_2" data-name="Слой 2"><g id="Work_space" data-name="Work space"><g id="spottler"><path class="cls-1" d="M510,0a50,50,0,1,0,50,50A50.005,50.005,0,0,0,510,0Zm0,90a40,40,0,1,1,40-40A40,40,0,0,1,510,90Z"/><polygon class="cls-1" points="900 10 900 45 990 45 990 55 900 55 900 90 990 90 990 100 890 100 890 0 990 0 990 10 900 10"/><path class="cls-1" d="M1086.57,55A29.994,29.994,0,0,0,1070,0h-70V100h10V60h60a19.994,19.994,0,0,1,20,20v20h10V80A29.923,29.923,0,0,0,1086.57,55ZM1060,52.04l-.02-.04h.02ZM1070,50h-60V10h60a20,20,0,0,1,0,40Z"/><path class="cls-1" d="M420,0H350V100h10V60h60a30,30,0,0,0,0-60Zm0,50H360V10h60a20,20,0,0,1,0,40Z"/><polygon class="cls-1" points="880 90 880 100 780 100 780 0 790 0 790 90 880 90"/><path class="cls-1" d="M250,27.5A17.506,17.506,0,0,0,267.5,45h45A27.5,27.5,0,0,1,320,98.95a26.911,26.911,0,0,1-7.5,1.05H240V90h72.5a17.5,17.5,0,0,0,0-35h-45A27.5,27.5,0,0,1,260,1.05,26.911,26.911,0,0,1,267.5,0H340V10H267.5A17.506,17.506,0,0,0,250,27.5Z"/><polygon class="cls-1" points="660 0 660 10 615 10 615 100 605 100 605 10 560 10 560 0 660 0"/><polygon class="cls-1" points="770 0 770 10 725 10 725 100 715 100 715 10 670 10 670 0 770 0"/><path class="cls-1" d="M91.43,22.01A49.993,49.993,0,1,0,100,50,49.945,49.945,0,0,0,91.43,22.01ZM50,80A30,30,0,1,1,80,50,30,30,0,0,1,50,80Z"/><path class="cls-1" d="M190,0a50,50,0,1,0,50,50A49.945,49.945,0,0,0,190,0Zm0,80a30,30,0,1,1,30-30A30,30,0,0,1,190,80Z"/><path class="cls-1" d="M148.57,22.01A49.747,49.747,0,0,0,140,50a20,20,0,0,0-40,0,49.747,49.747,0,0,0-8.57-27.99,39.987,39.987,0,0,1,57.14,0Z"/><path class="cls-1" d="M91.43,77.884A49.747,49.747,0,0,0,100,49.894a20,20,0,1,0,40,0,49.747,49.747,0,0,0,8.57,27.99,39.987,39.987,0,0,1-57.14,0Z"/><path class="cls-2" d="M91.43,22.01A49.993,49.993,0,1,0,100,50,49.945,49.945,0,0,0,91.43,22.01ZM50,60A10,10,0,1,1,60,50,10,10,0,0,1,50,60Z"/><path class="cls-2" d="M190,0a50,50,0,1,0,50,50A49.945,49.945,0,0,0,190,0Zm0,60a10,10,0,1,1,10-10A10,10,0,0,1,190,60Z"/></g></g></g></svg>