<svg xmlns="http://www.w3.org/2000/svg" viewBox="0 0 271.457 419.321"><defs><style>.cls-1{fill:#366ce1;}.cls-2{fill:#121221;}</style></defs><title>sprinklr</title><g id="complete"><g id="sprinklr_Platform" data-name="sprinklr Platform"><path class="cls-1" d="M558.944,709.186c-5.589,6.644-172.894-56.429-192.676-193.69-14.138-98.1,48.69-222.923,128.789-225.127,78.847-2.169,159.168,114.9,136.9,179.493-22.5,65.265-141.791,53.99-155.155,114.592C463.927,642.845,563.569,703.689,558.944,709.186Z" transform="translate(-364.271 -290.34)"/><path class="cls-2" d="M516.015,617.581c-3.853-5.226,45.4-32.389,39.887-62.874-5.613-31.056-60.923-26.071-81.8-65.577-21.127-39.975,1-110.348,39.212-120.676,36.889-9.972,76.027,39.474,85.183,51.042,11.631,14.695,44.193,55.834,33.126,106.141C615.436,599.2,520.935,624.253,516.015,617.581Z" transform="translate(-364.271 -290.34)"/></g></g></svg>