<svg xmlns="http://www.w3.org/2000/svg" viewBox="0 0 415 170"><defs><style>.cls-1{fill:#121221;}</style></defs><title>spss</title><g id="Complete"><g id="SPSS"><path class="cls-1" d="M392.5,535a50,50,0,0,1-95.83,20,50.1,50.1,0,0,1,10.14-15,49.9,49.9,0,0,0,34.99,14.99c.23.01.47.01.7.01a20,20,0,0,0,0-40,50,50,0,1,1,45.83-70,50.1,50.1,0,0,1-10.14,15,49.9,49.9,0,0,0-34.99-14.99c-.23-.01-.47-.01-.7-.01a20,20,0,0,0,0,40,50.03,50.03,0,0,1,50,50Z" transform="translate(-292.5 -415)"/><path class="cls-1" d="M607.5,535a50,50,0,0,1-95.83,20,50.1,50.1,0,0,1,10.14-15,49.9,49.9,0,0,0,34.99,14.99c.23.01.47.01.7.01a20,20,0,0,0,0-40,50,50,0,1,1,45.83-70,50.1,50.1,0,0,1-10.14,15,49.9,49.9,0,0,0-34.99-14.99c-.23-.01-.47-.01-.7-.01a20,20,0,0,0,0,40,50.03,50.03,0,0,1,50,50Z" transform="translate(-292.5 -415)"/><path class="cls-1" d="M707.5,535a50,50,0,0,1-95.83,20,50.1,50.1,0,0,1,10.14-15,49.9,49.9,0,0,0,34.99,14.99c.23.01.47.01.7.01a20,20,0,0,0,0-40,50,50,0,1,1,45.83-70,50.1,50.1,0,0,1-10.14,15,49.9,49.9,0,0,0-34.99-14.99c-.23-.01-.47-.01-.7-.01a20,20,0,0,0,0,40,50.03,50.03,0,0,1,50,50Z" transform="translate(-292.5 -415)"/><path class="cls-1" d="M452.5,415h-50V585h30V545h20a50.005,50.005,0,0,0,50-50V465A50.005,50.005,0,0,0,452.5,415Zm20,80a19.994,19.994,0,0,1-20,20h-20V445h20a19.994,19.994,0,0,1,20,20Z" transform="translate(-292.5 -415)"/></g></g></svg>