<svg xmlns="http://www.w3.org/2000/svg" viewBox="0 0 850 200"><defs><style>.cls-1{fill:#121221;}.cls-2{fill:#366ce1;}</style></defs><title>squalio</title><g id="Слой_2" data-name="Слой 2"><g id="Work_space" data-name="Work space"><g id="squalio"><path class="cls-1" d="M320,50.8v50a50,50,0,0,1-100,0v-50h20v50a30,30,0,0,0,60,0v-50Z"/><polygon class="cls-1" points="540 130.796 540 150.796 440 150.796 440 50.796 460 50.796 460 130.796 540 130.796"/><path class="cls-1" d="M700,50.8a50,50,0,1,0,50,50A50.005,50.005,0,0,0,700,50.8Zm0,80a30,30,0,1,1,30-30A30,30,0,0,1,700,130.8Z"/><path class="cls-1" d="M390.77,52.746l-.78-1.95H370.01l-.78,1.94L330,150.8h21.55l11.2-28h34.5l11.2,28H430ZM370.75,102.8,380,79.666l9.25,23.13Z"/><polygon class="cls-1" points="610 70.796 610 130.796 650 130.796 650 150.796 550 150.796 550 130.796 590 130.796 590 70.796 550 70.796 550 50.796 650 50.796 650 70.796 610 70.796"/><path class="cls-1" d="M210,100.8a50.019,50.019,0,1,0-22.44,41.71l8.29,8.29H200v-.08l.07.08H210v-14.15l-8.29-8.29A49.7,49.7,0,0,0,210,100.8Zm-22.93,12.93A30,30,0,1,1,190,100.8,30.037,30.037,0,0,1,187.07,113.726Z"/><path class="cls-1" d="M20,79.2a10,10,0,0,0,10,10H70a30,30,0,0,1,0,60H0v-20H70a10,10,0,0,0,0-20H30a30,30,0,0,1,0-60h70v20H30A10,10,0,0,0,20,79.2Z"/><circle class="cls-2" cx="830" cy="100" r="20"/><circle class="cls-2" cx="830" cy="180" r="20"/><circle class="cls-2" cx="830" cy="20" r="20"/><rect class="cls-2" x="770" y="120" width="40" height="40"/><rect class="cls-2" x="770" y="40" width="40" height="40"/></g></g></g></svg>