<svg xmlns="http://www.w3.org/2000/svg" viewBox="0 0 640 480"><defs><style>.cls-1{fill:#366ce1;}.cls-2{fill:#121221;}</style></defs><title>square_space</title><g id="Complete"><g id="squarespace"><path class="cls-1" d="M446.967,546.358a50,50,0,0,1-70.711-70.711L390.4,489.79a30,30,0,1,0,42.427,42.426Z" transform="translate(-180 -260)"/><path class="cls-1" d="M623.744,525.145a50,50,0,1,0-70.711-70.711l14.142,14.142A30,30,0,1,1,609.6,511Z" transform="translate(-180 -260)"/><path class="cls-1" d="M517.678,419.079l-14.142-14.142a50.005,50.005,0,0,1,70.71,0L560.1,419.079A30,30,0,0,0,517.678,419.079Z" transform="translate(-180 -260)"/><rect class="cls-1" x="422.825" y="363.221" width="20" height="140" transform="translate(253.105 -439.166) rotate(45)"/><rect class="cls-1" x="482.929" y="411.254" width="20" height="150" transform="translate(308.209 -466.133) rotate(45)"/><rect class="cls-1" x="447.574" y="390.041" width="20" height="150" transform="translate(282.854 -447.346) rotate(45)"/><circle class="cls-1" cx="224.541" cy="258.074" r="10"/><circle class="cls-1" cx="415.459" cy="222.719" r="10"/><circle class="cls-1" cx="365.962" cy="173.221" r="10"/><path class="cls-1" d="M503.536,376.652l-28.285,28.285a20,20,0,0,1,28.285-28.285Z" transform="translate(-180 -260)"/><path class="cls-1" d="M482.322,581.713l14.142,14.143a50.005,50.005,0,0,1-70.71,0L439.9,581.713A30,30,0,0,0,482.322,581.713Z" transform="translate(-180 -260)"/><rect class="cls-1" x="557.175" y="497.571" width="20" height="140" transform="translate(386.895 1109.958) rotate(-135)"/><rect class="cls-1" x="497.071" y="439.538" width="20" height="150" transform="translate(321.791 976.925) rotate(-135)"/><rect class="cls-1" x="532.426" y="460.752" width="20" height="150" transform="translate(367.146 1038.138) rotate(-135)"/><circle class="cls-1" cx="274.038" cy="307.571" r="10"/><path class="cls-1" d="M496.464,624.14l28.285-28.284a20,20,0,1,1-28.285,28.284Z" transform="translate(-180 -260)"/><rect class="cls-1" x="373.076" y="554.036" width="70" height="20" transform="translate(338.356 -383.351) rotate(45)"/><rect class="cls-1" x="556.924" y="426.757" width="70" height="20" transform="translate(302.204 -550.63) rotate(45)"/><path class="cls-2" d="M390,310a50.011,50.011,0,1,0-18.36,38.71L382.93,360l7.07-7.07-11.29-11.29A49.821,49.821,0,0,0,390,310Zm-25.47,31.6a39.991,39.991,0,1,1,7.07-7.07A40.78,40.78,0,0,1,364.53,341.6Z" transform="translate(-180 -260)"/><path class="cls-2" d="M190,287.5A17.506,17.506,0,0,0,207.5,305h45a27.5,27.5,0,0,1,7.5,53.95,26.911,26.911,0,0,1-7.5,1.05H180V350h72.5a17.5,17.5,0,0,0,0-35h-45a27.5,27.5,0,0,1-7.5-53.95,26.911,26.911,0,0,1,7.5-1.05H280v10H207.5A17.506,17.506,0,0,0,190,287.5Z" transform="translate(-180 -260)"/><path class="cls-2" d="M713.72,315a27.618,27.618,0,0,0-5.41-5,27.5,27.5,0,0,0-15.81-50H620V360h10V315h62.5A17.506,17.506,0,0,1,710,332.5V360h10V332.5c0-.84-.04-1.68-.12-2.5A27.375,27.375,0,0,0,713.72,315ZM692.5,305H630V270h62.5a17.5,17.5,0,0,1,0,35Z" transform="translate(-180 -260)"/><polygon class="cls-2" points="550 10 550 45 640 45 640 55 550 55 550 90 640 90 640 100 540 100 540 0 640 0 640 10 550 10"/><path class="cls-2" d="M500,260v50a50,50,0,0,1-100,0V260h10v50a40,40,0,0,0,80,0V260Z" transform="translate(-180 -260)"/><path class="cls-2" d="M610,310a48.521,48.521,0,0,0-.25-5,50,50,0,0,0-99.5,0,50.125,50.125,0,0,0,0,10H510v45h10V315h80v45h10V315h-.25A48.521,48.521,0,0,0,610,310Zm-89.69-5a40,40,0,0,1,79.38,0Z" transform="translate(-180 -260)"/><path class="cls-2" d="M648.74,700h10.25a50,50,0,1,1,0-20H648.74a40,40,0,1,0,0,20Z" transform="translate(-180 -260)"/><path class="cls-2" d="M240,667.5A17.506,17.506,0,0,0,257.5,685h45a27.5,27.5,0,0,1,7.5,53.95,26.911,26.911,0,0,1-7.5,1.05H230V730h72.5a17.5,17.5,0,0,0,0-35h-45a27.5,27.5,0,0,1-7.5-53.95,26.911,26.911,0,0,1,7.5-1.05H330v10H257.5A17.506,17.506,0,0,0,240,667.5Z" transform="translate(-180 -260)"/><path class="cls-2" d="M320,738.95V740h-7.5A26.911,26.911,0,0,0,320,738.95Z" transform="translate(-180 -260)"/><path class="cls-2" d="M433.72,650a27.442,27.442,0,0,0-21.22-10H340V740h10V695h62.5a27.506,27.506,0,0,0,21.22-45ZM412.5,685H350V650h62.5a17.5,17.5,0,0,1,0,35Z" transform="translate(-180 -260)"/><polygon class="cls-2" points="500 390 500 425 590 425 590 435 500 435 500 470 590 470 590 480 490 480 490 380 590 380 590 390 500 390"/><path class="cls-2" d="M550,690a48.521,48.521,0,0,0-.25-5,50,50,0,0,0-99.5,0,50.125,50.125,0,0,0,0,10H450v45h10V695h80v45h10V695h-.25A48.521,48.521,0,0,0,550,690Zm-89.69-5a40,40,0,0,1,79.38,0Z" transform="translate(-180 -260)"/></g></g></svg>