<svg xmlns="http://www.w3.org/2000/svg" viewBox="0 0 840 280"><defs><style>.cls-1{fill:#366ce1;}.cls-2{fill:#121221;}</style></defs><title>SroServices</title><g id="Слой_2" data-name="Слой 2"><g id="Complete"><g id="SroServices"><rect class="cls-1" x="370" y="18.3" width="100" height="100"/><rect class="cls-1" x="370" y="18.3" width="100" height="100"/><polygon class="cls-1" points="488.3 50 438.3 136.6 383.4 104.9 351.7 86.6 362.27 68.3 391.13 18.3 401.7 0 433.4 18.3 488.3 50"/><polygon class="cls-2" points="488.3 50 477.73 68.3 448.87 118.3 438.3 136.6 406.6 118.3 351.7 86.6 401.7 0 456.6 31.7 488.3 50"/><polygon class="cls-1" points="488.3 86.6 456.6 104.9 401.7 136.6 351.7 50 406.6 18.3 438.3 0 448.87 18.3 477.73 68.3 488.3 86.6"/><polygon class="cls-1" points="488.3 86.6 433.4 118.3 401.7 136.6 391.13 118.3 362.27 68.3 351.7 50 383.4 31.7 438.3 0 488.3 86.6"/><path class="cls-2" d="M695.268,259.606q3.849,5.058,7.686,10.111a30.769,30.769,0,1,1,0-40.972q-3.84,5.058-7.686,10.11a18.462,18.462,0,1,0,0,20.751Z"/><path class="cls-2" d="M350,210a10,10,0,0,0,10,10h40a30,30,0,0,1,0,60H330V260h70a10,10,0,0,0,0-20H360a30,30,0,0,1,0-60h70v20H360A10,10,0,0,0,350,210Z"/><path class="cls-2" d="M790.769,236.923a6.156,6.156,0,0,0,6.154,6.154h24.615a18.462,18.462,0,1,1,0,36.923H778.462V267.692h43.076a6.154,6.154,0,1,0,0-12.307H796.923a18.462,18.462,0,0,1,0-36.923H840v12.307H796.923A6.156,6.156,0,0,0,790.769,236.923Z"/><polygon class="cls-2" points="624.603 218.462 600.468 278.812 599.994 280 587.686 280 587.212 278.812 563.077 218.462 576.332 218.462 593.84 262.24 611.354 218.462 624.603 218.462"/><rect class="cls-2" x="630.769" y="218.462" width="12.308" height="61.538"/><rect class="cls-2" x="630.769" y="200" width="12.308" height="12.308"/><path class="cls-2" d="M500.917,255.385a30.8,30.8,0,0,0,0-12.308,30.769,30.769,0,0,0-60.295,0,30.755,30.755,0,0,0,0,12.308A30.76,30.76,0,0,0,491.5,271.963q-4.9-3.923-9.809-7.846a18.457,18.457,0,0,1-28.32-8.732Zm-30.148-24.616a18.449,18.449,0,0,1,17.4,12.308H453.366A18.449,18.449,0,0,1,470.769,230.769Z"/><path class="cls-2" d="M771.686,255.385a30.755,30.755,0,0,0,0-12.308,30.769,30.769,0,0,0-60.3,0,30.755,30.755,0,0,0,0,12.308,30.761,30.761,0,0,0,50.874,16.578q-4.9-3.923-9.81-7.846a18.457,18.457,0,0,1-28.32-8.732Zm-30.148-24.616a18.451,18.451,0,0,1,17.4,12.308H724.135A18.451,18.451,0,0,1,741.538,230.769Z"/><path class="cls-2" d="M556.923,222.849q-3.167,5.28-6.332,10.554a18.455,18.455,0,0,0-27.957,15.828V280H510.326V218.462h12.308v6.16a30.745,30.745,0,0,1,34.289-1.773Z"/><path class="cls-1" d="M210,210a30,30,0,0,0-30-30H110V280h20V240h50a10,10,0,0,1,10,10v30h20V250a29.862,29.862,0,0,0-7.65-20A29.862,29.862,0,0,0,210,210Zm-80,10V200h50a10,10,0,0,1,0,20Z"/><path class="cls-1" d="M270,180a50,50,0,1,0,50,50A50.005,50.005,0,0,0,270,180Zm0,80a30,30,0,1,1,30-30A30,30,0,0,1,270,260Z"/><path class="cls-1" d="M70,180H0V280H20V240H70a30,30,0,0,0,0-60Zm0,40H20V200H70a10,10,0,0,1,0,20Z"/></g></g></g></svg>