<svg xmlns="http://www.w3.org/2000/svg" viewBox="0 0 760 100"><defs><style>.cls-1{fill:#121221;}</style></defs><title>stellax</title><g id="Слой_2" data-name="Слой 2"><g id="Work_space" data-name="Work space"><g id="stellax"><path class="cls-1" d="M20,30A10,10,0,0,0,30,40H70a30,30,0,0,1,0,60H0V80H70a10,10,0,0,0,0-20H30A30,30,0,0,1,30,0h70V20H30A10,10,0,0,0,20,30Z"/><polygon class="cls-1" points="240 20 240 40 320 40 320 60 240 60 240 80 320 80 320 100 220 100 220 0 320 0 320 20 240 20"/><polygon class="cls-1" points="430 80 430 100 330 100 330 0 350 0 350 80 430 80"/><polygon class="cls-1" points="540 80 540 100 440 100 440 0 460 0 460 80 540 80"/><path class="cls-1" d="M610.77,1.95,609.99,0H590.01l-.78,1.94L550,100h21.55l11.2-28h34.5l11.2,28H650ZM590.75,52,600,28.87,609.25,52Z"/><polygon class="cls-1" points="210 0 210 20 170 20 170 100 150 100 150 20 110 20 110 0 210 0"/><polygon class="cls-1" points="722.5 50.03 759.95 100 734.96 100 710.01 66.7 685.05 100 660.07 100 697.51 50.03 660.02 0 685 0 710.01 33.36 735.01 0 760 0 722.5 50.03"/></g></g></g></svg>