<svg xmlns="http://www.w3.org/2000/svg" viewBox="0 0 79.94 100"><defs><style>.cls-1{fill:#366ce1;}</style></defs><title>stencyl</title><g id="complete"><path id="stencyl" class="cls-1" d="M465.75,512.32l14.19,14.18A39.9,39.9,0,0,1,460,538.74V550H440V538.74a40.064,40.064,0,0,1-10-4.09V540H410V520h5.35a40.064,40.064,0,0,1-4.09-10H400V490h11.26a40.064,40.064,0,0,1,4.09-10H410V460h20v5.35a40.064,40.064,0,0,1,10-4.09V450h20v11.26a39.9,39.9,0,0,1,19.94,12.24l-14.19,14.18a20,20,0,1,0,0,24.64Z" transform="translate(-400 -450)"/></g></svg>