<svg xmlns="http://www.w3.org/2000/svg" viewBox="0 0 547.51 114.918"><title>sunshine sachs</title><path d="M83.536,22.692c.095,5.512,1.855,11.928,3.3,11.915C89.354,34.584,96.949,14.592,88.1,5.2c-8.272-8.781-26.028-5.6-35.493,3.3-1,.945-9.881,9.549-8.957,21.465,1.86,23.993,40.981,29.53,40.056,45.972-.8,14.232-30.842,23.044-41.746,24.338-7.3.866-18.605.611-24.845-3.549h0C8.264,93.388,2.03,88.424.381,90.128c-1.255,1.3.807,5.78,3.042,8.62,8.861,11.258,29.678,8.456,36,7.606,19.881-2.676,52.029-14.83,52.4-31.268C92.244,55.889,49,45.669,51.761,26.41c.94-6.553,6.8-11.3,8.282-12.507,8.533-6.92,21.787-7.756,24.676-3.38C86.313,12.936,83.41,15.327,83.536,22.692Z"/><path d="M106.184,45.17c2.294,1.971-.884,6.981-1.859,17.24-.4,4.174-1.14,11.975,1.183,12.845,2.425.908,8.7-5.586,11.113-13.479,3.007-9.853-1.255-17.826,2.028-19.563,1.605-.85,4.257.266,5.45,1.9,1.867,2.558-.486,5.492-1.267,12.042-.576,4.827.048,8.714.887,13.944,1.215,7.571,3.072,11.383,1.437,12.549-1.068.762-3.8.524-5.155-.845-.071-.071-.121-.129-.179-.2a7.006,7.006,0,0,1-1.554-3.9c-.5-4.458.038-6.506-.633-6.845-1.572-.8-6.281,10.569-12.465,10.225a5.433,5.433,0,0,1-2.282-.676c-2.947-1.535-3.819-4.9-4.479-24.93-.161-4.9-.215-7.988,1.944-9.718C101.956,44.478,104.77,43.957,106.184,45.17Z"/><path d="M134.621,43.269a4.463,4.463,0,0,0-1.381,3.289c-.625,8.094-2.265,16.08-3.169,24.148-.837,7.477-1.8,10.777.19,12.359a4.106,4.106,0,0,0,4.867-.12c1.843-1.671-.029-4.816,0-10.268.009-1.67.116-7.745,3.8-12.8,2.933-4.023,8.722-8.24,11.155-6.719,4.415,2.76-5.095,22.6.93,28.31a7.611,7.611,0,0,0,4.225,2.028,6.292,6.292,0,0,0,5.24-2.2c1.63-2.158,1.4-5.389.507-5.746-.787-.315-1.585,1.8-4.057,2.366-.251.057-2.287.5-3.38-.338-2.079-1.591.532-6.828,1.986-15.549,1.051-6.3,2.1-12.627-.887-14.831-2.479-1.829-6.806-.035-8.113.507-5.886,2.44-8.2,7.764-9.127,7.225-.695-.4.1-3.712,1.4-6.338,1.244-2.526,2.328-3.065,2.028-4.056C140.328,42.873,136.505,41.846,134.621,43.269Z"/><path d="M190.4,50.241c-2.044-5.078-13.558-7.089-18.874-2.436-.449.393-3.055,2.612-2.929,5.6,0,.035,0,.078.007.128a6.82,6.82,0,0,0,2.148,4.182c2.881,2.945,8.034,4.324,11.662,8.62,1.171,1.387,3.03,3.588,2.662,6.211-.422,3.009-3.6,5.317-6.465,6.043-6.313,1.6-12.047-4.342-12.8-3.381-.618.787,2.292,5.481,7.1,7.226,5.49,1.993,11.638-.519,14.957-4.183a11.409,11.409,0,0,0,3.169-6.719,11.619,11.619,0,0,0-.76-4.69c-3.3-8.254-17.423-9.6-17.24-13.373.1-1.979,4.1-4.084,7.352-3.613,4.872.706,6.493,6.841,8.62,6.211C190.407,55.657,191.311,52.512,190.4,50.241Z"/><path d="M236.635,75.41c-.435-11.035,3.964-14.924.69-19.373-.234-.318-1.99-2.655-3.486-2.282-1.478.369-1.564,3.1-2.6,15.084-.564,6.543-.878,9.653,1.169,11.388.869.736,2.314,1.352,3.254.845C237.013,80.344,236.722,77.626,236.635,75.41Z"/><path d="M227.205,76.607c-.932-1.1-4.787,2.36-6.585,1.443-3.907-1.994,6.095-22.576.663-26.668-2.686-2.023-8.218.566-11.071,2.619-6.469,4.658-7.424,12.518-8.31,12.268-.33-.093-.785-1.349,1.859-15.718,1.064-5.779,1.6-8.668,1.972-10.578,2.441-12.374,3.792-17.322,1.24-19.338a2.407,2.407,0,0,0-1.705-.678c-3.5.377-3.665,13.739-6.577,34.312-2.182,15.418-4.777,26.882-.845,29.07a3.4,3.4,0,0,0,2.7.338c2.5-1.021,1.562-6.157,2.69-11.021,2.149-9.267,11.478-15.644,13.12-14.577.829.538-.533,2.819-1.585,9.528-1.132,7.226-1.707,10.9.479,13.028,2.886,2.809,8.821,1.212,10.493-.162a4.752,4.752,0,0,0,1.268-1.648C227.075,78.68,227.7,77.188,227.205,76.607Z"/><path d="M232.663,39.382c-1.306.71-1.382,4.668.746,6.577,1.186,1.064,3.242,1.66,4.155.859,1.125-.986.28-3.883-1.183-5.577C235.483,40.2,233.675,38.831,232.663,39.382Z"/><path d="M247.606,42.424c-1.367,1.135.106,4.03,1.184,9.211.554,2.667-.266,7.57-1.93,17.268-1.428,8.32-2.32,11.613-.521,12.986a3.722,3.722,0,0,0,4.141,0c2.552-1.881-.389-6.617,1.352-14.7a18.825,18.825,0,0,1,2.634-6.9c2.878-4.354,8.454-8.1,10.742-6.675,1.123.7,1.148,2.448-.109,16.619-.66,7.445-.945,10.1.846,11.577,1.92,1.579,5.692,1.348,7.605-.676,1.683-1.78,1.842-4.9.93-5.408-1.072-.6-3.052,2.728-4.4,2.2-1.654-.654-.648-6.193-.084-15.549.693-11.5-.215-13.269-1.437-14.113-2.417-1.669-6.8-.227-9.211,1.183-3.1,1.809-4.378,4.528-5.155,4.141-1.024-.51,1.954-5.34-.084-8.7C252.66,42.476,248.953,41.306,247.606,42.424Z"/><path d="M310.958,67.527c-1.17-.81-4.6,6.09-12.68,7.98-1.49.35-7.05,1.65-11.43-1.63a10.528,10.528,0,0,1-2.36-2.48c10.18-5.72,17.18-7.54,18.23-13.38a7.3,7.3,0,0,0-.76-4.82c-2.83-4.8-12.71-5.82-19-1.46-5.89,4.08-6.3,11.35-6.34,12.17a16.035,16.035,0,0,0,1.09,6.44,17.368,17.368,0,0,0,2.07,3.87,19.511,19.511,0,0,0,9.88,7.38c.85.26,8.67,2.62,15.09-2.03C310.288,75.557,312.078,68.287,310.958,67.527Zm-27.24-10.34a9.425,9.425,0,0,1,8.99-3.86c.18.03,3.73.76,4.05,2.66.25,1.49-1.62,2.91-5.95,5.83-3.39,2.29-6.01,3.95-8.22,5.35C282.128,65.577,280.918,61.007,283.718,57.187Z"/><path d="M406.733,33.635c-.143-8,5.722-11.238,4.352-14.577-1.8-4.383-13.706-3.211-15.845-3a39.9,39.9,0,0,0-20.281,8.112c-5.788,4.46-10.535,8.119-10.479,12.846.076,6.414,9.733,11.877,29.045,22.542,14.8,8.171,18.945,11.02,20.11,13.994A5.642,5.642,0,0,1,414,75.044c1.177,9.128-16.547,18.04-29.409,24.507-15.7,7.9-26.688,10.541-38.028,13.183-11.622,2.707-19.349,3.371-25.605-.761-3.281-2.167-6.322-5.789-5.662-6.845.694-1.11,5.069,1.28,11.831,2.366,5.314.854,9.26.446,14.366-.084,14.932-1.549,28.421-7.643,33.465-10.056,15.908-7.613,29.994-14.353,29.408-21.8-.282-3.594-3.566-5.493-23.155-16.4-22.829-12.7-24.786-16.852-25.183-19.774-.892-6.567,5.358-12.324,10.142-16.731C378.012,11.743,397.294,5.276,409.1,12.339a16.886,16.886,0,0,1,6.369,6.612c3.119,6.1,1.408,13.139-1.467,17.388-.527.779-2.976,4.4-4.9,3.888C406.886,39.639,406.739,33.951,406.733,33.635Z"/><path d="M438.212,63.17c-4.24-2.6-9.823.807-11.408,1.775-6.081,3.712-7.695,10.15-8.043,11.535-.619,2.472-1.894,7.254.761,11.536a10.7,10.7,0,0,0,4.493,4.056c4.749,2.224,10.1.144,13.056-2.155a19.111,19.111,0,0,0,5.2-7.035c1.611-3.36,1.932-6.155,2.839-6.141.86.014.7,2.533,2.8,4.873.5.55,2.785,2.948,5.831,2.725,3.2-.233,5.708-3.242,5.324-3.992-.333-.652-2.585.919-5.26-.064-3.044-1.118-4.329-4.694-4.437-5.007-1.194-3.469.382-6.117-.887-6.908-1.107-.69-3.163.788-3.55,1.077-2.605,1.947-2.547,4.411-4.112,7.8-.77,1.665-4.092,8.22-9.2,8.746a6.778,6.778,0,0,1-6.085-2.535c-2.446-3.471.622-8.45,1.077-9.19,1.786-2.9,5.4-5.917,7.613-5.007,2.139.879,1.482,5.111,3.423,5.577,1.395.335,3.259-1.484,3.929-3.295C442.682,68.554,440.848,64.788,438.212,63.17Z"/><path d="M468.677,64.48c4.822-2.586,10.822,1.632,11.324.676.482-.919-4.241-6.409-10.226-6.253A12.42,12.42,0,0,0,458.2,70.142a12.252,12.252,0,0,0,7.183,11.831c5.364,2.4,10.4-.3,11.578-.929,3.875-2.075,6.608-5.851,6-6.676-.894-1.212-7.977,5.306-13.86,2.788a7.38,7.38,0,0,1-4.478-5.746C464.338,68.446,466.414,65.694,468.677,64.48Z"/><path d="M490.226,52.565c-.16,14.181.371,36.1,2.535,36.169a1.055,1.055,0,0,0,.106-.01,6.728,6.728,0,0,0,3.951-2.525c2.878-3.551,1.212-17.4,7.1-21.8,1.536-1.15,3.865-1.864,5.071-1.014,1.556,1.1.377,4.171.1,11.488-.291,7.595.781,9.472,1.593,10.484a7.891,7.891,0,0,0,5.408,2.873c5.611.2,9.642-7.493,8.789-8.451-.866-.973-6.738,5.03-9.68,3.172-1.381-.872-1.308-2.969-1.306-13.482,0-7.459-.034-8.814-1.183-9.972-2.594-2.615-8.68-2.026-12.338.845-4.653,3.653-4.373,10.211-5.239,10.141-1.735-.139-.8-22.476-.8-22.476,1.326-26.5,3.279-33.234,8.232-36,2.777-1.552,6.095-1.633,6.085-2.7-.015-1.439-6.074-4.107-10.1-2.535C490.908,9.746,490.531,25.508,490.226,52.565Z"/><path d="M539.747,44.03c-.965-.552-6.583-3.794-12.549-1.268a12.7,12.7,0,0,0-6.465,6.211,13.336,13.336,0,0,0-.507,9c2.895,10.431,15.953,11.2,16.986,20.282a10.7,10.7,0,0,1-.887,5.451c-2.275,4.943-8.079,6.268-14.155,8.239-20.74,6.73-28.028,10.157-30.761,11.493-6.316,3.087-12.631,6.986-12.338,7.606.267.563,5.862-1.894,15.381-5.24,10.087-3.545,16.123-4.981,32.873-10.69,9.86-3.361,14.65-5.182,16.6-9.887,1.76-4.233.381-8.761.154-9.472-1.133-3.558-3.441-5.728-8.013-9.923-5.8-5.319-8.964-6.55-9.887-10.647a6.9,6.9,0,0,1,.3-4.473c1.189-2.552,4.151-3.785,6.16-4.068,7.442-1.049,13.612,9.266,14.709,8.414C548.174,54.421,545.8,47.489,539.747,44.03Z"/></svg>