<svg xmlns="http://www.w3.org/2000/svg" viewBox="0 0 540 430"><defs><style>.cls-1{fill:#366ce1;}.cls-2{fill:#121221;}</style></defs><title>super side</title><g id="Слой_2" data-name="Слой 2"><g id="Work_space" data-name="Work space"><g id="super_side" data-name="super side"><polygon class="cls-1" points="520 190 460 190 460 210 440 210 440 150 460 150 460 170 520 170 520 150 540 150 540 210 520 210 520 190"/><path class="cls-1" d="M540,270V220H440v50a50,50,0,0,0,100,0Zm-80,0V240h60v30a30,30,0,0,1-60,0Z"/><path class="cls-1" d="M510,60a10,10,0,0,0-10,10v40a30,30,0,0,1-60,0V40h20v70a10,10,0,0,0,20,0V70a30,30,0,0,1,60,0v70H520V70A10,10,0,0,0,510,60Z"/><polygon class="cls-1" points="520 350 500 350 500 430 480 430 480 350 460 350 460 430 440 430 440 330 540 330 540 430 520 430 520 350"/><path class="cls-2" d="M20,30A10,10,0,0,0,30,40H70a30,30,0,0,1,0,60H0V80H70a10,10,0,0,0,0-20H30A30,30,0,0,1,30,0h70V20H30A10,10,0,0,0,20,30Z"/><polygon class="cls-2" points="350 20 350 40 430 40 430 60 350 60 350 80 430 80 430 100 330 100 330 0 430 0 430 20 350 20"/><path class="cls-2" d="M210,0V50a50,50,0,0,1-100,0V0h20V50a30,30,0,0,0,60,0V0Z"/><path class="cls-2" d="M540,30A30,30,0,0,0,510,0H440V100h20V60h50a10,10,0,0,1,10,10v30h20V70a29.862,29.862,0,0,0-7.65-20A29.862,29.862,0,0,0,540,30ZM460,40V20h50a10,10,0,0,1,0,20Z"/><path class="cls-2" d="M290,0H220V100h20V60h50a30,30,0,0,0,0-60Zm0,40H240V20h50a10,10,0,0,1,0,20Z"/></g></g></g></svg>