<svg xmlns="http://www.w3.org/2000/svg" viewBox="0 0 740 250"><defs><style>.cls-1{fill:#366ce1;}.cls-2,.cls-3,.cls-4{fill:#121221;}.cls-3{opacity:0.38;}.cls-4{opacity:0.62;}</style></defs><title>super heroic</title><g id="Слой_2" data-name="Слой 2"><g id="Work_space" data-name="Work space"><g id="super_heroic" data-name="super heroic"><polygon class="cls-1" points="480 155 480 215 500 215 500 235 440 235 440 215 460 215 460 155 440 155 440 135 500 135 500 155 480 155"/><polygon class="cls-1" points="100 135 100 235 80 235 80 195 20 195 20 235 0 235 0 135 20 135 20 175 80 175 80 135 100 135"/><polygon class="cls-1" points="130 155 130 175 210 175 210 195 130 195 130 215 210 215 210 235 110 235 110 135 210 135 210 155 130 155"/><path class="cls-1" d="M320,165a30,30,0,0,0-30-30H220V235h20V195h50a10,10,0,0,1,10,10v30h20V205a29.862,29.862,0,0,0-7.65-20A29.862,29.862,0,0,0,320,165Zm-80,10V155h50a10,10,0,0,1,0,20Z"/><path class="cls-1" d="M380,135a50,50,0,1,0,50,50A50.005,50.005,0,0,0,380,135Zm0,80a30,30,0,1,1,30-30A30,30,0,0,1,380,215Z"/><path class="cls-1" d="M579.29,195H600a50,50,0,1,1,0-20H579.29a30,30,0,1,0,0,20Z"/><path class="cls-2" d="M50,45A10,10,0,0,0,60,55h40a30,30,0,0,1,0,60H30V95h70a10,10,0,0,0,0-20H60a30,30,0,0,1,0-60h70V35H60A10,10,0,0,0,50,45Z"/><polygon class="cls-2" points="380 35 380 55 460 55 460 75 380 75 380 95 460 95 460 115 360 115 360 15 460 15 460 35 380 35"/><path class="cls-2" d="M570,45a30,30,0,0,0-30-30H470V115h20V75h50a10,10,0,0,1,10,10v30h20V85a29.862,29.862,0,0,0-7.65-20A29.862,29.862,0,0,0,570,45ZM490,55V35h50a10,10,0,0,1,0,20Z"/><path class="cls-2" d="M320,15H250V115h20V75h50a30,30,0,0,0,0-60Zm0,40H270V35h50a10,10,0,0,1,0,20Z"/><path class="cls-2" d="M240,15V65a50,50,0,0,1-100,0V15h20V65a30,30,0,0,0,60,0V15Z"/><path class="cls-1" d="M720,0,630,140h60q-20,55-40,110l90-140H680Q700,55,720,0Z"/><path class="cls-3" d="M630,140,720,0q-20,55-40,110h60Z"/><path class="cls-4" d="M740,110,650,250q20-55,40-110H630Z"/></g></g></g></svg>