<svg xmlns="http://www.w3.org/2000/svg" viewBox="0 0 1870 220"><defs><style>.cls-1{fill:#121221;}.cls-2{fill:#366ce1;}</style></defs><title>suplier monitoring sustainability</title><g id="Слой_2" data-name="Слой 2"><g id="Work_space" data-name="Work space"><g id="suplier_monitoring_sustainability" data-name="suplier monitoring sustainability"><polygon class="cls-1" points="560 140 560 200 580 200 580 220 520 220 520 200 540 200 540 140 520 140 520 120 580 120 580 140 560 140"/><polygon class="cls-1" points="960 140 960 200 980 200 980 220 920 220 920 200 940 200 940 140 920 140 920 120 980 120 980 140 960 140"/><polygon class="cls-1" points="1140 140 1140 200 1160 200 1160 220 1100 220 1100 200 1120 200 1120 140 1100 140 1100 120 1160 120 1160 140 1140 140"/><polygon class="cls-1" points="690 120 690 220 670 220 610 150.59 610 220 590 220 590 120 610 120 670 189.41 670 120 690 120"/><polygon class="cls-1" points="1090 200 1090 220 990 220 990 120 1010 120 1010 200 1090 200"/><path class="cls-1" d="M910,150a30,30,0,0,0-30-30H810V220h70a29.991,29.991,0,0,0,22.35-50A29.862,29.862,0,0,0,910,150Zm-80-10h50a10,10,0,0,1,0,20H830Zm50,60H830V180h50a10,10,0,0,1,0,20Z"/><path class="cls-1" d="M470.77,121.95l-.78-1.95H450.01l-.78,1.94L410,220h21.55l11.2-28h34.5l11.2,28H510ZM450.75,172,460,148.87,469.25,172Z"/><path class="cls-1" d="M760.77,121.95l-.78-1.95H740.01l-.78,1.94L700,220h21.55l11.2-28h34.5l11.2,28H800ZM740.75,172,750,148.87,759.25,172Z"/><polygon class="cls-1" points="430 120 430 140 390 140 390 220 370 220 370 140 330 140 330 120 430 120"/><polygon class="cls-1" points="1270.05 120 1270.05 140 1230.05 140 1230.05 220 1210.05 220 1210.05 140 1170.05 140 1170.05 120 1270.05 120"/><polygon class="cls-1" points="1342.83 166.46 1340 170 1340.05 170 1340.05 220 1320.05 220 1320.05 170 1317.22 166.46 1280.05 120 1305.66 120 1330.02 150.45 1354.38 120 1380 120 1342.83 166.46"/><path class="cls-1" d="M20,150a10,10,0,0,0,10,10H70a30,30,0,0,1,0,60H0V200H70a10,10,0,0,0,0-20H30a30,30,0,0,1,0-60h70v20H30A10,10,0,0,0,20,150Z"/><path class="cls-1" d="M240,150a10,10,0,0,0,10,10h40a30,30,0,0,1,0,60H220V200h70a10,10,0,0,0,0-20H250a30,30,0,0,1,0-60h70v20H250A10,10,0,0,0,240,150Z"/><path class="cls-1" d="M210,120v50a50,50,0,0,1-100,0V120h20v50a30,30,0,0,0,60,0V120Z"/><polygon class="cls-2" points="480 20 480 80 500 80 500 100 440 100 440 80 460 80 460 20 440 20 440 0 500 0 500 20 480 20"/><path class="cls-2" d="M20,30A10,10,0,0,0,30,40H70a30,30,0,0,1,0,60H0V80H70a10,10,0,0,0,0-20H30A30,30,0,0,1,30,0h70V20H30A10,10,0,0,0,20,30Z"/><polygon class="cls-2" points="530 20 530 40 610 40 610 60 530 60 530 80 610 80 610 100 510 100 510 0 610 0 610 20 530 20"/><polygon class="cls-2" points="430 80 430 100 330 100 330 0 350 0 350 80 430 80"/><path class="cls-2" d="M720,30A30,30,0,0,0,690,0H620V100h20V60h50a10,10,0,0,1,10,10v30h20V70a29.862,29.862,0,0,0-7.65-20A29.862,29.862,0,0,0,720,30ZM640,40V20h50a10,10,0,0,1,0,20Z"/><path class="cls-2" d="M290,0H220V100h20V60h50a30,30,0,0,0,0-60Zm0,40H240V20h50a10,10,0,0,1,0,20Z"/><path class="cls-2" d="M210,0V50a50,50,0,0,1-100,0V0h20V50a30,30,0,0,0,60,0V0Z"/><path class="cls-2" d="M1420,0a50,50,0,1,0,50,50A50.005,50.005,0,0,0,1420,0Zm0,90a40,40,0,1,1,40-40A40,40,0,0,1,1420,90Z"/><path class="cls-2" d="M1030,0a50,50,0,1,0,50,50A50.005,50.005,0,0,0,1030,0Zm0,90a40,40,0,1,1,40-40A40,40,0,0,1,1030,90Z"/><path class="cls-2" d="M890,.07V.04l.01-.04h9.97l20.01,78.98Q930,39.489,940.01,0H950l.01.01q15,50,29.99,99.99H969.56L945.38,19.43l-20.24,79.9-.14.56-.03.11H915l-.17-.66L894.6,19.51,870.45,100H860.01Q875.006,50.035,890,.07Z"/><path class="cls-2" d="M1566.57,55A29.994,29.994,0,0,0,1550,0h-70V100h10V60h60a19.994,19.994,0,0,1,20,20v20h10V80A29.923,29.923,0,0,0,1566.57,55ZM1540,52.04l-.02-.04h.02ZM1550,50h-60V10h60a20,20,0,0,1,0,40Z"/><polygon class="cls-2" points="1370 0 1370 10 1325 10 1325 100 1315 100 1315 10 1270 10 1270 0 1370 0"/><polygon class="cls-2" points="1235 10 1235 90 1260 90 1260 100 1200 100 1200 90 1225 90 1225 10 1200 10 1200 0 1260 0 1260 10 1235 10"/><polygon class="cls-2" points="1625 10 1625 90 1650 90 1650 100 1590 100 1590 90 1615 90 1615 10 1590 10 1590 0 1650 0 1650 10 1625 10"/><polygon class="cls-2" points="1760 0 1760 100 1750.07 100 1750 99.92 1670 14.59 1670 100 1660 100 1660 0 1670.02 0 1750 85.3 1750 0 1760 0"/><polygon class="cls-2" points="1190 0 1190 100 1180.07 100 1180 99.92 1100 14.59 1100 100 1090 100 1090 0 1100.02 0 1180 85.3 1180 0 1190 0"/><path class="cls-2" d="M1870,50a48.521,48.521,0,0,1-.25,5,50.016,50.016,0,1,1-14.4-40.35l-7.07,7.07A39.992,39.992,0,1,0,1859.69,55H1820V45h49.75A48.521,48.521,0,0,1,1870,50Z"/></g></g></g></svg>