<svg xmlns="http://www.w3.org/2000/svg" viewBox="0 0 937.5 221.272"><defs><style>.cls-1{fill:#121221;}.cls-2{fill:#366ce1;}</style></defs><title>survey monkey</title><g id="Слой_2" data-name="Слой 2"><g id="Work_space" data-name="Work space"><g id="survey_monkey" data-name="survey monkey"><polygon class="cls-1" points="320 121.272 320 221.272 300 221.272 240 151.862 240 221.272 220 221.272 220 121.272 240 121.272 300 190.682 300 121.272 320 121.272"/><polygon class="cls-1" points="100 121.272 100 221.272 80 221.272 80 151.862 63.2 171.322 49.99 186.632 36.78 171.322 20 151.892 20 221.272 0 221.272 0 121.272 20 121.272 20 121.282 49.99 156.022 79.98 121.272 100 121.272"/><path class="cls-2" d="M20,31.272a10,10,0,0,0,10,10H70a30,30,0,0,1,0,60H0v-20H70a10,10,0,0,0,0-20H30a30,30,0,0,1,0-60h70v20H30A10,10,0,0,0,20,31.272Z"/><polygon class="cls-1" points="460 141.272 460 161.272 540 161.272 540 181.272 460 181.272 460 201.272 540 201.272 540 221.272 440 221.272 440 121.272 540 121.272 540 141.272 460 141.272"/><polygon class="cls-2" points="460 21.272 460 41.272 540 41.272 540 61.272 460 61.272 460 81.272 540 81.272 540 101.272 440 101.272 440 1.272 540 1.272 540 21.272 460 21.272"/><path class="cls-2" d="M320,31.272a30,30,0,0,0-30-30H220v100h20v-40h50a10,10,0,0,1,10,10v30h20v-30a29.862,29.862,0,0,0-7.65-20A29.862,29.862,0,0,0,320,31.272Zm-80,10v-20h50a10,10,0,0,1,0,20Z"/><path class="cls-1" d="M160,121.272a50,50,0,1,0,50,50A50.005,50.005,0,0,0,160,121.272Zm0,80a30,30,0,1,1,30-30A30,30,0,0,1,160,201.272Z"/><polygon class="cls-1" points="430 221.262 430 221.272 400.13 221.272 359.51 184.702 350 193.272 350 221.272 330 221.272 330 121.272 350 121.272 350 166.362 359.51 157.792 400.07 121.272 429.97 121.272 374.46 171.252 430 221.262"/><polygon class="cls-2" points="612.78 47.732 609.95 51.272 610 51.272 610 101.272 590 101.272 590 51.272 587.17 47.732 550 1.272 575.61 1.272 599.97 31.722 624.33 1.272 649.95 1.272 612.78 47.732"/><polygon class="cls-1" points="612.83 167.732 610 171.272 610.05 171.272 610.05 221.272 590.05 221.272 590.05 171.272 587.22 167.732 550.05 121.272 575.66 121.272 600.02 151.722 624.38 121.272 650 121.272 612.83 167.732"/><path class="cls-2" d="M210,1.272v50a50,50,0,0,1-100,0v-50h20v50a30,30,0,1,0,60,0v-50Z"/><polygon class="cls-2" points="429.98 1.272 390.76 99.342 389.99 101.272 369.99 101.272 369.22 99.342 330 1.272 351.54 1.272 379.99 72.412 408.45 1.272 429.98 1.272"/><path class="cls-2" d="M687.5,95.859a30,30,0,1,0,30,30A30,30,0,0,0,687.5,95.859Zm0,40a10,10,0,1,1,10-10A10,10,0,0,1,687.5,135.859Z"/><path class="cls-2" d="M907.5,95.859a30,30,0,1,0,30,30A30,30,0,0,0,907.5,95.859Zm0,40a10,10,0,1,1,10-10A10,10,0,0,1,907.5,135.859Z"/><path class="cls-2" d="M874.25,189.959a113.566,113.566,0,0,0,3.25-27.26c0-42.44-22.39-76.84-50-76.84-11.25,0-21.64,5.72-30,15.37-8.36-9.65-18.75-15.37-30-15.37-27.61,0-50,34.4-50,76.84a113.566,113.566,0,0,0,3.25,27.26,100,100,0,1,1,153.5,0Z"/><path class="cls-2" d="M775.824,1.258c.352-.43.712-.851,1.092-1.258a25.162,25.162,0,0,1,12.837,41.649,24.645,24.645,0,0,1-4.206-1.363,25.158,25.158,0,0,0-9.723-39.028Z"/><path class="cls-2" d="M811.654,15.826a25.05,25.05,0,0,1,12.827-9.482,25.114,25.114,0,0,0-1.116-2.835,25.162,25.162,0,0,0-25.023,35.682,25.194,25.194,0,0,0,9.986-1.135A25.115,25.115,0,0,1,811.654,15.826Z"/></g></g></g></svg>