<svg xmlns="http://www.w3.org/2000/svg" viewBox="0 0 893.987 220"><defs><style>.cls-1{fill:#366ce1;}.cls-2{fill:#121221;}</style></defs><title>survey sparrow</title><g id="Слой_2" data-name="Слой 2"><g id="Work_space" data-name="Work space"><g id="survey_sparrow" data-name="survey sparrow"><path class="cls-1" d="M163.987,30a10,10,0,0,0,10,10h40a30,30,0,0,1,0,60h-70V80h70a10,10,0,0,0,0-20h-40a30,30,0,0,1,0-60h70V20h-70A10,10,0,0,0,163.987,30Z"/><polygon class="cls-1" points="603.987 20 603.987 40 683.987 40 683.987 60 603.987 60 603.987 80 683.987 80 683.987 100 583.987 100 583.987 0 683.987 0 683.987 20 603.987 20"/><path class="cls-1" d="M353.987,0V50a50,50,0,1,1-100,0V0h20V50a30,30,0,0,0,60,0V0Z"/><path class="cls-1" d="M463.987,30a30,30,0,0,0-30-30h-70V100h20V60h50a10,10,0,0,1,10,10v30h20V70a29.862,29.862,0,0,0-7.65-20A29.862,29.862,0,0,0,463.987,30Zm-80,10V20h50a10,10,0,0,1,0,20Z"/><polygon class="cls-1" points="756.818 46.46 753.987 50 754.037 50 754.037 100 734.037 100 734.037 50 731.207 46.46 694.037 0 719.647 0 744.007 30.45 768.367 0 793.987 0 756.818 46.46"/><polygon class="cls-1" points="573.967 0 534.747 98.07 533.977 100 513.977 100 513.207 98.07 473.987 0 495.527 0 523.977 71.14 552.437 0 573.967 0"/><path class="cls-2" d="M163.987,150a10,10,0,0,0,10,10h40a30,30,0,0,1,0,60h-70V200h70a10,10,0,0,0,0-20h-40a30,30,0,1,1,0-60h70v20h-70A10,10,0,0,0,163.987,150Z"/><path class="cls-2" d="M553.987,150a30,30,0,0,0-30-30h-70V220h20V180h50a10,10,0,0,1,10,10v30h20V190a29.862,29.862,0,0,0-7.65-20A29.862,29.862,0,0,0,553.987,150Zm-80,10V140h50a10,10,0,0,1,0,20Z"/><path class="cls-2" d="M663.987,150a30,30,0,0,0-30-30h-70V220h20V180h50a10,10,0,0,1,10,10v30h20V190a29.862,29.862,0,0,0-7.65-20A29.862,29.862,0,0,0,663.987,150Zm-80,10V140h50a10,10,0,0,1,0,20Z"/><path class="cls-2" d="M723.987,120a50,50,0,1,0,50,50A50.006,50.006,0,0,0,723.987,120Zm0,80a30,30,0,1,1,30-30A30,30,0,0,1,723.987,200Z"/><path class="cls-2" d="M404.758,121.95l-.781-1.95H384l-.78,1.94L343.987,220h21.55l11.2-28h34.5l11.2,28h21.55ZM384.737,172l9.25-23.13,9.25,23.13Z"/><path class="cls-2" d="M323.987,120h-70V220h20V180h50a30,30,0,0,0,0-60Zm0,40h-50V140h50a10,10,0,0,1,0,20Z"/><path class="cls-2" d="M873.367,120l-14.46,57.86-14.56-56.71-.3-1.15H829.138l-.031.11V120h-5.12l-.289,1.16-14.541,56.59L794.727,120h-20.62v.02l24.61,98.41.39,1.57h19.86l.38-1.5,14.67-57.13,14.7,57.24.351,1.39H864.1l.01-.04V220h4.87l.37-1.46L893.987,120Zm-19.26,50.99v.04l-.02-.04Zm0,47.53-.19.61.19-.64Z"/><polygon class="cls-2" points="854.107 171.03 854.087 170.99 854.107 170.99 854.107 171.03"/><polygon class="cls-2" points="854.107 218.52 853.917 219.13 854.107 218.49 854.107 218.52"/><polygon class="cls-2" points="854.107 218.52 853.917 219.13 854.107 218.49 854.107 218.52"/><path class="cls-1" d="M84.34,120.35,58.99,145.71V185h-10V141.57L55.56,135l21.71-21.72A40,40,0,0,0,20.7,56.71c-.36.36-.71.73-1.05,1.1-.27.28-.52.56-.77.85a37.971,37.971,0,0,0-2.74,3.5c-.2.27-.38.55-.56.83-.44.66-.86,1.33-1.25,2.01H3.15c.28-.65.58-1.3.9-1.94.35-.73.73-1.45,1.12-2.17.17-.3.33-.59.5-.88a48.8,48.8,0,0,1,2.65-4.12c.18-.25.36-.49.54-.74.56-.75,1.15-1.49,1.76-2.22.18-.22.37-.44.56-.66.78-.9,1.59-1.77,2.45-2.63a50,50,0,0,1,70.71,70.71Z"/><path class="cls-2" d="M78.99,65a50.005,50.005,0,0,1-50,50V75H0A49.4,49.4,0,0,1,3.15,65H38.99v38.74A40.027,40.027,0,0,0,68.99,65Z"/></g></g></g></svg>