<svg xmlns="http://www.w3.org/2000/svg" viewBox="0 0 580 150.708"><defs><style>.cls-1{fill:#366ce1;}.cls-2{fill:#121221;}</style></defs><title>syam</title><g id="Слой_2" data-name="Слой 2"><g id="Work_space" data-name="Work space"><g id="syam"><path class="cls-1" d="M269.712,10.709a50.007,50.007,0,0,0-49.663,52.237c1.076,24.664,22.842,46.525,47.5,47.7A49.772,49.772,0,0,0,300,100.7v.01a10,10,0,0,0,10,10h0a10,10,0,0,0,10-10V61.528C320,33.669,297.571,10.552,269.712,10.709Zm.288,80a30,30,0,1,1,30-30A30,30,0,0,1,270,90.708Z"/><path class="cls-1" d="M450,45.708v55a10,10,0,0,1-20,0v-55a15,15,0,1,0-30,0h0v55a10,10,0,0,1-20,0v-55h0a15,15,0,1,0-30,0v55a10,10,0,0,1-20,0v-55a35.79,35.79,0,0,1,.35-5A35.011,35.011,0,0,1,390,21.208a35.011,35.011,0,0,1,59.65,19.5A35.79,35.79,0,0,1,450,45.708Z"/><path class="cls-2" d="M210,20.708V99.82c0,27.685-22.649,51.068-50.333,50.887a49.724,49.724,0,0,1-25.118-6.959,9.927,9.927,0,0,1-2.022-15.567l.142-.141a10.008,10.008,0,0,1,12.189-1.432A30,30,0,0,0,190,100.708v-.01a49.726,49.726,0,0,1-30,10.01,49.988,49.988,0,0,1-50-50v-40a10,10,0,0,1,10-10h0a10,10,0,0,1,10,10v40.01a30,30,0,0,0,60,0V20.708a10,10,0,0,1,10-10h0A10,10,0,0,1,210,20.708Z"/><path class="cls-2" d="M20.022,41.38a10.23,10.23,0,0,0,10.324,9.328H69.377c16.348,0,30.165,12.819,30.612,29.161A30,30,0,0,1,70,110.708H10a10,10,0,0,1-10-10H0a10,10,0,0,1,10-10H69.654A10.23,10.23,0,0,0,79.978,81.38,10,10,0,0,0,70,70.708H30.623C14.275,70.708.458,57.89.011,41.548A30,30,0,0,1,30,10.708H90a10,10,0,0,1,10,10h0a10,10,0,0,1-10,10H30A10,10,0,0,0,20.022,41.38Z"/><path class="cls-2" d="M530,100.708c-27.61,0-50,8.956-50,20s22.39,20,50,20,50-8.956,50-20S557.61,100.708,530,100.708Zm0,24c-5.52,0-10-1.792-10-4s4.48-4,10-4,10,1.792,10,4S535.52,124.708,530,124.708Z"/><path class="cls-1" d="M494.642,106.066a50,50,0,0,0,70.711-70.711L530,0,494.642,35.355A50.006,50.006,0,0,0,494.642,106.066ZM530,56.569l7.071,7.071a10,10,0,1,1-14.142,0Z"/></g></g></g></svg>