<svg xmlns="http://www.w3.org/2000/svg" viewBox="0 0 1440 300"><defs><style>.cls-1{fill:#121221;}.cls-2{fill:#366ce1;}.cls-3{fill:#1c1e20;}</style></defs><title>synchroteam</title><g id="Слой_2" data-name="Слой 2"><g id="Work_space" data-name="Work space"><g id="synchroteam"><polygon class="cls-1" points="570 100 570 200 550 200 490 130.59 490 200 470 200 470 100 490 100 550 169.41 550 100 570 100"/><polygon class="cls-2" points="1440 100 1440 200 1420 200 1420 130.59 1403.2 150.05 1389.99 165.36 1376.78 150.05 1360 130.62 1360 200 1340 200 1340 100 1360 100 1360 100.01 1389.99 134.75 1419.98 100 1440 100"/><path class="cls-1" d="M270,130a10,10,0,0,0,10,10h40a30,30,0,0,1,0,60H250V180h70a10,10,0,0,0,0-20H280a30,30,0,0,1,0-60h70v20H280A10,10,0,0,0,270,130Z"/><polygon class="cls-1" points="790 100 790 200 770 200 770 160 710 160 710 200 690 200 690 100 710 100 710 140 770 140 770 100 790 100"/><polygon class="cls-2" points="1140 120 1140 140 1220 140 1220 160 1140 160 1140 180 1220 180 1220 200 1120 200 1120 100 1220 100 1220 120 1140 120"/><path class="cls-1" d="M900,130a30,30,0,0,0-30-30H800V200h20V160h50a10,10,0,0,1,10,10v30h20V170a29.862,29.862,0,0,0-7.65-20A29.862,29.862,0,0,0,900,130Zm-80,10V120h50a10,10,0,0,1,0,20Z"/><path class="cls-1" d="M960,100a50,50,0,1,0,50,50A50.005,50.005,0,0,0,960,100Zm0,80a30,30,0,1,1,30-30A30,30,0,0,1,960,180Z"/><path class="cls-1" d="M659.29,160H680a50,50,0,1,1,0-20H659.29a30,30,0,1,0,0,20Z"/><path class="cls-2" d="M1290.77,101.95l-.78-1.95h-19.98l-.78,1.94L1230,200h21.55l11.2-28h34.5l11.2,28H1330ZM1270.75,152l9.25-23.13,9.25,23.13Z"/><polygon class="cls-2" points="1110 100 1110 120 1070 120 1070 200 1050 200 1050 120 1010 120 1010 100 1110 100"/><polygon class="cls-1" points="422.83 146.46 420 150 420.05 150 420.05 200 400.05 200 400.05 150 397.22 146.46 360.05 100 385.66 100 410.02 130.45 434.38 100 460 100 422.83 146.46"/><path class="cls-2" d="M10,100A245.5,245.5,0,0,1,200,0a158.114,158.114,0,0,0-60,80A271.155,271.155,0,0,0,10,100Z"/><path class="cls-2" d="M190,200a246.351,246.351,0,0,1-80,70A246.643,246.643,0,0,1,0,300a158.886,158.886,0,0,0,40-40,158.388,158.388,0,0,0,20-40,270.971,270.971,0,0,0,50,0A272.917,272.917,0,0,0,190,200Z"/><path class="cls-3" d="M190,199.991a208.8,208.8,0,0,0-70-70,209.758,209.758,0,0,0-110-30,208.787,208.787,0,0,0,70,70A209.749,209.749,0,0,0,190,199.991Z"/><path class="cls-2" d="M100,140a609.51,609.51,0,0,1,90,60,609.535,609.535,0,0,1-90-40,609.51,609.51,0,0,1-90-60A609.535,609.535,0,0,1,100,140Z"/></g></g></g></svg>