<svg xmlns="http://www.w3.org/2000/svg" viewBox="0 0 1379.95 100"><defs><style>.cls-1{fill:#121221;}</style></defs><title>tala security</title><g id="Слой_2" data-name="Слой 2"><g id="Work_space" data-name="Work space"><g id="tala_security" data-name="tala security"><path class="cls-1" d="M370.77,1.95,369.99,0H350.01l-.78,1.94L310,100h21.55l11.2-28h34.5l11.2,28H410ZM350.75,52,360,28.87,369.25,52Z"/><polygon class="cls-1" points="1140 20 1140 80 1160 80 1160 100 1100 100 1100 80 1120 80 1120 20 1100 20 1100 0 1160 0 1160 20 1140 20"/><path class="cls-1" d="M570,30a10,10,0,0,0,10,10h40a30,30,0,0,1,0,60H550V80h70a10,10,0,0,0,0-20H580a30,30,0,0,1,0-60h70V20H580A10,10,0,0,0,570,30Z"/><polygon class="cls-1" points="680 20 680 40 760 40 760 60 680 60 680 80 760 80 760 100 660 100 660 0 760 0 760 20 680 20"/><polygon class="cls-1" points="300 80 300 100 200 100 200 0 220 0 220 80 300 80"/><path class="cls-1" d="M1090,30a30,30,0,0,0-30-30H990V100h20V60h50a10,10,0,0,1,10,10v30h20V70a29.862,29.862,0,0,0-7.65-20A29.862,29.862,0,0,0,1090,30Zm-80,10V20h50a10,10,0,0,1,0,20Z"/><path class="cls-1" d="M849.29,60H870a50,50,0,1,1,0-20H849.29a30,30,0,1,0,0,20Z"/><path class="cls-1" d="M150.77,1.95,149.99,0H130.01l-.78,1.94L90,100h21.55l11.2-28h34.5l11.2,28H190ZM130.75,52,140,28.87,149.25,52Z"/><polygon class="cls-1" points="1270 0 1270 20 1230 20 1230 100 1210 100 1210 20 1170 20 1170 0 1270 0"/><polygon class="cls-1" points="100 0 100 20 60 20 60 100 40 100 40 20 0 20 0 0 100 0"/><polygon class="cls-1" points="1342.78 46.46 1339.95 50 1340 50 1340 100 1320 100 1320 50 1317.17 46.46 1280 0 1305.61 0 1329.97 30.45 1354.33 0 1379.95 0 1342.78 46.46"/><path class="cls-1" d="M980,0V50a50,50,0,0,1-100,0V0h20V50a30,30,0,0,0,60,0V0Z"/></g></g></g></svg>