<svg xmlns="http://www.w3.org/2000/svg" viewBox="0 0 440 380"><defs><style>.cls-1{fill:#366ce1;}.cls-2{fill:#121221;}</style></defs><title>talents LMS</title><g id="Слой_2" data-name="Слой 2"><g id="Work_space" data-name="Work space"><g id="talents_LMS" data-name="talents LMS"><polygon class="cls-1" points="270 280 270 380 250 380 250 310.59 233.2 330.05 219.99 345.36 206.78 330.05 190 310.62 190 380 170 380 170 280 190 280 190 280.01 219.99 314.75 249.98 280 270 280"/><path class="cls-1" d="M300,310a10,10,0,0,0,10,10h40a30,30,0,0,1,0,60H280V360h70a10,10,0,0,0,0-20H310a30,30,0,0,1,0-60h70v20H310A10,10,0,0,0,300,310Z"/><polygon class="cls-1" points="160 360 160 380 60 380 60 280 80 280 80 360 160 360"/><polygon class="cls-2" points="308 220 308 280 296 280 260 238.354 260 280 248 280 248 220 260 220 296 261.646 296 220 308 220"/><path class="cls-2" d="M392,238a6,6,0,0,0,6,6h24a18,18,0,0,1,0,36H380V268h42a6,6,0,0,0,0-12H398a18,18,0,0,1,0-36h42v12H398A6,6,0,0,0,392,238Z"/><polygon class="cls-2" points="194 232 194 244 242 244 242 256 194 256 194 268 242 268 242 280 182 280 182 220 242 220 242 232 194 232"/><polygon class="cls-2" points="176 268 176 280 116 280 116 220 128 220 128 268 176 268"/><path class="cls-2" d="M86.462,221.17,85.994,220H74.006l-.468,1.164L50,280H62.93l6.72-16.8h20.7L97.07,280H110ZM74.45,251.2,80,237.322,85.55,251.2Z"/><polygon class="cls-2" points="60 220 60 232 36 232 36 280 24 280 24 232 0 232 0 220 60 220"/><polygon class="cls-2" points="374 220 374 232 350 232 350 280 338 280 338 232 314 232 314 220 374 220"/><path class="cls-1" d="M370,120c0,.22,0,.43-.01.65-.7,18.23-30.67,34.11-74.98,42.65A401.149,401.149,0,0,1,220,170a401.117,401.117,0,0,1-75-6.7c-44.31-8.54-74.29-24.42-74.99-42.65-.01-.22-.01-.43-.01-.65s0-.43.01-.65A50,50,0,0,1,120,70a50.019,50.019,0,0,1,59.36-49.12,49.99,49.99,0,0,1,81.28,0A50.019,50.019,0,0,1,320,70a50,50,0,0,1,49.99,49.35C370,119.57,370,119.78,370,120Z"/><path class="cls-2" d="M190,110a10,10,0,0,1,20,0,10,10,0,0,0,20,0,10,10,0,0,1,20,0,30,30,0,0,1-60,0Z"/><circle class="cls-2" cx="200" cy="80" r="10"/><circle class="cls-2" cx="240" cy="80" r="10"/></g></g></g></svg>