<svg xmlns="http://www.w3.org/2000/svg" viewBox="0 0 628 70"><title>talent</title><polygon points="70 0 70 9.333 39.667 9.333 39.667 70 30.333 70 30.333 9.333 0 9.333 0 0 70 0"/><polygon points="443.333 0 443.333 9.333 413 9.333 413 70 403.667 70 403.667 9.333 373.333 9.333 373.333 0 443.333 0"/><polygon points="219.333 60.667 219.333 70 149.333 70 149.333 0 158.667 0 158.667 60.667 219.333 60.667"/><path d="M144.587,32.667a35,35,0,0,0-69.841,0c-.051.77-.079,1.549-.079,2.333V70H84V39.667h51.333V70h9.334V35Q144.667,33.824,144.587,32.667ZM84.425,30.333a25.67,25.67,0,0,1,50.484,0Z"/><polygon points="233.333 9.333 233.333 30.333 294 30.333 294 39.667 233.333 39.667 233.333 60.667 294 60.667 294 70 224 70 224 0 294 0 294 9.333 233.333 9.333"/><path d="M368.667,0V70h-9.334Q333.671,42.357,308,14.719V70h-9.333V0H308q25.662,27.643,51.333,55.281V0Z"/><polygon points="488 3.333 488 15 518 15 518 18.333 488 18.333 488 30 518 30 518 33.333 484.667 33.333 484.667 0 518 0 518 3.333 488 3.333"/><path d="M481.333,0V33.333H478V10a16.635,16.635,0,0,1-13.333,6.67A16.635,16.635,0,0,1,451.333,10V33.333H448V0h3.333a13.334,13.334,0,0,0,13.334,13.333A13.334,13.334,0,0,0,478,0Z"/><path d="M538,0H521.333V33.333H538A16.667,16.667,0,1,0,538,0Zm0,30H524.667V3.333H538A13.334,13.334,0,0,1,538,30Z"/><rect x="558" width="3.333" height="33.333"/><path d="M597.917,15a16.667,16.667,0,0,0-33.167,0,16.083,16.083,0,0,0-.083,1.667V33.333H568v-15h26.667v15H598V16.667A16.365,16.365,0,0,0,597.917,15ZM568.1,15a13.335,13.335,0,0,1,26.46,0Z"/><path d="M481.333,53.333A16.414,16.414,0,0,1,481,56.667,16.667,16.667,0,1,1,481,50H477.58a13.334,13.334,0,1,0,0,6.667H463V53.333Z"/><path d="M514.1,53.333a9.164,9.164,0,0,0-2.77-16.316,8.967,8.967,0,0,0-2.5-.35H484.667V70H488V55h20.833a5.836,5.836,0,0,1,5.834,5.833V70H518V60.833a9.155,9.155,0,0,0-3.9-7.5Zm-5.27-1.666H488V40h20.833a5.834,5.834,0,1,1,0,11.667Z"/><path d="M538,36.667a16.667,16.667,0,1,0,16.667,16.666A16.669,16.669,0,0,0,538,36.667Zm0,30a13.334,13.334,0,1,1,13.333-13.334A13.334,13.334,0,0,1,538,66.667Z"/><path d="M591.333,36.667V53.333a16.667,16.667,0,1,1-33.333,0V36.667h3.333V53.333a13.334,13.334,0,1,0,26.667,0V36.667Z"/><path d="M625.907,40a9.147,9.147,0,0,0-7.074-3.333H594.667V70H598V55h20.833a9.169,9.169,0,0,0,7.074-15ZM598,51.667V40h20.833a5.834,5.834,0,1,1,0,11.667Z"/></svg>