<svg xmlns="http://www.w3.org/2000/svg" viewBox="0 0 1120 110"><defs><style>.cls-1{fill:#121221;}.cls-2{fill:#366ce1;}</style></defs><title>talview</title><g id="Слой_2" data-name="Слой 2"><g id="Work_space" data-name="Work space"><g id="talview"><polygon class="cls-1" points="902.811 54.317 902.811 106.308 892.413 106.308 861.219 70.221 861.219 106.308 850.821 106.308 850.821 54.317 861.219 54.317 892.413 90.404 892.413 54.317 902.811 54.317"/><path class="cls-1" d="M949.233,85.512H960a26,26,0,1,1,0-10.4H949.233a15.6,15.6,0,1,0,0,10.4Z"/><polygon class="cls-1" points="824.826 64.715 824.826 95.91 845.622 95.91 845.622 106.308 793.632 106.308 793.632 95.91 814.428 95.91 814.428 64.715 793.632 64.715 793.632 54.317 845.622 54.317 845.622 64.715 824.826 64.715"/><polygon class="cls-1" points="509.98 23.692 509.98 43.692 589.98 43.692 589.98 63.692 509.98 63.692 509.98 83.692 589.98 83.692 589.98 103.692 489.98 103.692 489.98 3.692 589.98 3.692 589.98 23.692 509.98 23.692"/><polygon class="cls-1" points="300 83.692 300 103.692 200 103.692 200 3.692 220 3.692 220 83.692 300 83.692"/><path class="cls-1" d="M150.77,5.642l-.78-1.95H130.01l-.78,1.94L90,103.692h21.55l11.2-28h34.5l11.2,28H190Zm-20.02,50.05L140,32.562l9.25,23.13Z"/><polygon class="cls-1" points="449.98 23.692 449.98 83.692 479.98 83.692 479.98 103.692 399.98 103.692 399.98 83.692 429.98 83.692 429.98 23.692 399.98 23.692 399.98 3.692 479.98 3.692 479.98 23.692 449.98 23.692"/><path class="cls-1" d="M699.24,3.692l-14.46,57.86L670.22,4.842l-.3-1.15H655.01l-.03.11v-.11h-5.12l-.29,1.16-14.54,56.59L620.6,3.692H599.98v.02l24.61,98.41.39,1.57h19.86l.38-1.5,14.67-57.13,14.7,57.24.35,1.39h15.03l.01-.04v.04h4.87l.37-1.46,24.64-98.54Zm-19.26,50.99v.04l-.02-.04Zm0,47.53-.19.61.19-.64Z"/><polygon class="cls-1" points="679.98 54.722 679.96 54.682 679.98 54.682 679.98 54.722"/><polygon class="cls-1" points="679.98 102.212 679.79 102.822 679.98 102.182 679.98 102.212"/><polygon class="cls-1" points="679.98 102.212 679.79 102.822 679.98 102.182 679.98 102.212"/><polygon class="cls-1" points="100 3.692 100 23.692 60 23.692 60 103.692 40 103.692 40 23.692 0 23.692 0 3.692 100 3.692"/><polygon class="cls-1" points="389.98 3.692 350.76 101.762 349.99 103.692 329.99 103.692 329.22 101.762 290 3.692 311.54 3.692 339.99 74.832 368.45 3.692 389.98 3.692"/><path class="cls-1" d="M1050,110h-20q-3.63-10-7.27-20h20Q1046.36,100.005,1050,110Z"/><path class="cls-1" d="M1039.09,80h-20Q1004.54,39.995,990,0h20Q1024.535,40.005,1039.09,80Z"/><ellipse class="cls-1" cx="975" cy="10" rx="49.497" ry="14.142"/><path class="cls-2" d="M1090,0q-3.33,10-6.67,20H1070V0Z"/><path class="cls-2" d="M1120,0q-19.995,55.005-40,110h-20q-19.995-55-40-110h20l30,90q11.67-34.995,23.33-70,3.345-10,6.67-20Z"/></g></g></g></svg>