<svg xmlns="http://www.w3.org/2000/svg" viewBox="0 0 610 680"><defs><style>.a{fill:#fff;}</style></defs><title>tap</title><rect y="480" width="200" height="40"/><rect x="80" y="480" width="40" height="200"/><path d="M290,480h40L250,680H210Z"/><path d="M330,480H290l80,200h40Z"/><rect x="260" y="560" width="90" height="40"/><path d="M550,480H420V680h40V600h90a60,60,0,0,0,0-120Zm0,80H460V520h90a20,20,0,0,1,0,40Z"/><circle cx="360" cy="140" r="40"/><circle cx="440" cy="300" r="40"/><circle cx="280" cy="300" r="40"/><circle cx="200" cy="300" r="40"/><rect x="320" y="140" width="80" height="160"/><rect x="160" y="300" width="320" height="120"/><circle class="a" cx="360" cy="140" r="30"/><path d="M120,0V460H520V0ZM500,440H140V20H500Z"/><circle cx="345" cy="135" r="5"/><circle cx="375" cy="135" r="5"/></svg>