<svg xmlns="http://www.w3.org/2000/svg" viewBox="0 0 969.75 100"><defs><style>.cls-1{fill:#366ce1;}.cls-2{fill:#121221;}</style></defs><title>tapclicks</title><g id="Слой_2" data-name="Слой 2"><g id="Work_space" data-name="Work space"><g id="tapclicks"><path class="cls-1" d="M150.77,1.95,149.99,0H130.01l-.78,1.94L90,100h21.55l11.2-28h34.5l11.2,28H190ZM130.75,52,140,28.87,149.25,52Z"/><path class="cls-1" d="M270,0H200V100h20V60h50a30,30,0,0,0,0-60Zm0,40H220V20h50a10,10,0,0,1,0,20Z"/><polygon class="cls-1" points="100 0 100 20 60 20 60 100 40 100 40 20 0 20 0 0 100 0"/><path class="cls-2" d="M419.69,55h10.06a50,50,0,1,1,0-10H419.69a40,40,0,1,0,0,10Z"/><path class="cls-2" d="M739.69,55h10.06a50,50,0,1,1,0-10H739.69a40,40,0,1,0,0,10Z"/><polygon class="cls-2" points="540 90 540 100 440 100 440 0 450 0 450 90 540 90"/><path class="cls-2" d="M879.75,27.5A17.506,17.506,0,0,0,897.25,45h45a27.5,27.5,0,0,1,7.5,53.95,26.911,26.911,0,0,1-7.5,1.05h-72.5V90h72.5a17.5,17.5,0,0,0,0-35h-45a27.5,27.5,0,0,1-7.5-53.95A26.911,26.911,0,0,1,897.25,0h72.5V10h-72.5A17.506,17.506,0,0,0,879.75,27.5Z"/><polygon class="cls-2" points="605 10 605 90 650 90 650 100 550 100 550 90 595 90 595 10 550 10 550 0 650 0 650 10 605 10"/><polygon class="cls-2" points="859.75 100 845.6 100 802.66 57.05 769.75 89.97 769.75 100 759.75 100 759.75 0 769.75 0 769.75 75.83 795.59 49.98 802.66 42.91 845.57 0 859.71 0 809.73 49.98 859.75 100"/></g></g></g></svg>