<svg id="Main" xmlns="http://www.w3.org/2000/svg" viewBox="0 0 230 160"><defs><style>.cls-1{fill:#121221;}.cls-2{fill:#366ce1;}</style></defs><title>tcp</title><g id="TCP"><path class="cls-1" d="M439.34,499.98c.22.01.44.01.66.01V500c-.17,0-.34,0-.51-.01-.58,0-1.15-.02-1.72-.06-.73-.04-1.47-.1-2.19-.18-1.09-.11-2.16-.28-3.22-.49-.36-.07-.71-.14-1.06-.22a35.634,35.634,0,0,1-5.04-1.48.358.358,0,0,1-.11-.04c-.28-.1-.56-.2-.83-.31a40.128,40.128,0,0,1-5.32-2.57V540a10,10,0,0,1-20,0V494.64a39.51,39.51,0,0,0,8.95-7.05c.2-.21.4-.42.59-.64a4.414,4.414,0,0,0,.46-.51A39.845,39.845,0,0,0,420,460a19.891,19.891,0,0,0,2.42,9.53c.31.57.64,1.12,1,1.65s.74,1.05,1.15,1.54A20,20,0,0,0,440,480a10,10,0,0,0-.66,19.98Z" transform="translate(-250 -390)"/><path class="cls-1" d="M480,460a40,40,0,0,1-40,40v-.01c-.22,0-.44,0-.66-.01A10,10,0,0,1,440,480a20.017,20.017,0,1,0-11.18-36.58,18.738,18.738,0,0,0-2.96,2.44q-.345.345-.66.69c-.23.25-.45.5-.66.77-.16.19-.32.39-.47.59a18.485,18.485,0,0,0-1.22,1.81c-.13.21-.26.43-.37.65a1.409,1.409,0,0,0-.17.32c-.17.31-.33.62-.47.94a.663.663,0,0,0-.09.19c-.14.32-.28.64-.4.96a.037.037,0,0,0-.01.03c-.15.37-.28.75-.4,1.13s-.23.77-.33,1.16q-.12.465-.21.93c-.05.24-.1.49-.13.74a2.2,2.2,0,0,0-.06.37c-.04.2-.06.4-.08.6q-.045.345-.06.69c-.02.15-.03.31-.04.47-.02.36-.03.73-.03,1.1a39.845,39.845,0,0,1-10,26.44,4.414,4.414,0,0,1-.46.51c-.19.22-.39.43-.59.64a39.51,39.51,0,0,1-8.95,7.05l-.09.06a41.907,41.907,0,0,1-4.35,2.16c-.59.25-1.2.49-1.81.71a39.021,39.021,0,0,1-5.69,1.62c-.65.13-1.31.25-1.97.35A40.8,40.8,0,0,1,380,500v-.01c-1.04,0-2.07-.04-3.08-.11-.14-.01-.29-.02-.44-.04l-.9-.09a39.29,39.29,0,0,1-6.36-1.23c-.33-.09-.66-.19-.99-.29s-.65-.2-.97-.31-.65-.22-.97-.34c-.37-.13-.74-.27-1.09-.42-.33-.13-.65-.26-.98-.4-.24-.1-.48-.2-.71-.32-.24-.1-.49-.21-.73-.33-.47-.22-.94-.46-1.4-.71-.31-.16-.62-.33-.92-.5s-.61-.34-.9-.52c-.6-.36-1.19-.73-1.77-1.12-.29-.19-.57-.38-.85-.58q-.45-.3-.87-.63c-.27-.2-.54-.41-.8-.62-.34-.25-.66-.52-.98-.8-.36-.29-.71-.6-1.05-.91q-.45-.39-.87-.81c-.35-.32-.69-.66-1.02-1.01a2.912,2.912,0,0,1-.3-.31c-.36-.38-.71-.76-1.05-1.15A39.987,39.987,0,0,1,380,420a10,10,0,0,1,0,20,19.994,19.994,0,0,0-20,20c0,.21,0,.43.02.64,0,.22.01.43.03.64q.03.63.12,1.26a10.493,10.493,0,0,0,.2,1.25,4.132,4.132,0,0,0,.13.61,15.577,15.577,0,0,0,.48,1.78c.12.39.26.78.42,1.16.13.36.29.72.45,1.07a.163.163,0,0,0,.03.06c.17.36.35.71.54,1.06a17.237,17.237,0,0,0,1,1.65c.36.53.74,1.05,1.15,1.54.23.28.46.54.71.81a18.64,18.64,0,0,0,2.97,2.64,6.75,6.75,0,0,0,.57.41,8.574,8.574,0,0,0,.81.52,17.276,17.276,0,0,0,1.69.93c.29.14.59.27.9.4.24.1.47.2.72.28.39.16.79.29,1.19.41.23.08.46.14.69.2.11.03.21.06.32.08a6.432,6.432,0,0,0,.76.17,1.163,1.163,0,0,0,.18.04c.24.05.48.1.73.13.32.06.65.1.98.14.18.02.37.04.56.05.21.02.41.03.62.04.34.02.69.03,1.03.03s.69-.01,1.03-.03c.21-.01.41-.02.62-.04.19-.01.38-.03.56-.05.33-.04.66-.08.98-.14.25-.03.49-.08.73-.13a1.163,1.163,0,0,0,.18-.04,6.432,6.432,0,0,0,.76-.17c.11-.02.21-.05.32-.08.23-.06.46-.12.69-.2a19.337,19.337,0,0,0,2.8-1.09c.29-.14.58-.29.86-.45.27-.14.55-.3.81-.47.02.01.03,0,.04-.02.27-.16.54-.33.8-.51s.54-.37.79-.55a20.545,20.545,0,0,0,2.17-1.89q.345-.345.66-.69.3-.315.57-.66a18.685,18.685,0,0,0,2.21-3.26.8.8,0,0,0,.08-.16,3.845,3.845,0,0,0,.28-.53c.08-.15.15-.31.22-.47a12.274,12.274,0,0,0,.5-1.18,5.366,5.366,0,0,0,.21-.56c.07-.19.13-.38.19-.57a11.773,11.773,0,0,0,.33-1.16,15.432,15.432,0,0,0,.34-1.67,2.2,2.2,0,0,0,.06-.37.292.292,0,0,0,.02-.09c.02-.15.04-.31.06-.46v-.05q.045-.345.06-.69c.05-.51.07-1.04.07-1.57a40,40,0,0,1,80,0Z" transform="translate(-250 -390)"/><path class="cls-1" d="M319.98,480.01v20A39.983,39.983,0,0,1,280,460.02v-.01h19.98v.01A20.005,20.005,0,0,0,319.98,480.01Z" transform="translate(-250 -390)"/><path class="cls-1" d="M300,460H279.99A19.992,19.992,0,0,0,260,440a10,10,0,0,1,0-20v.01a39.994,39.994,0,0,1,30,13.55c.55-.63,1.13-1.25,1.72-1.84s1.21-1.17,1.84-1.72A39.845,39.845,0,0,1,320,420a10,10,0,0,1,0,20,19.95,19.95,0,0,0-8.67,1.97,20.187,20.187,0,0,0-2.51,1.45,18.738,18.738,0,0,0-2.96,2.44q-.345.345-.66.69c-.23.25-.45.5-.66.77-.16.19-.32.39-.47.59a18.485,18.485,0,0,0-1.22,1.81c-.13.21-.26.43-.37.65a1.409,1.409,0,0,0-.17.32c-.17.31-.33.62-.47.94a.663.663,0,0,0-.09.19c-.14.32-.28.64-.4.96a.037.037,0,0,0-.01.03c-.15.37-.28.75-.4,1.13s-.23.77-.33,1.16q-.12.465-.21.93c-.05.24-.1.49-.13.74a2.2,2.2,0,0,0-.06.37c-.04.2-.06.4-.08.6q-.045.345-.06.69c-.02.15-.03.31-.04.47C300.01,459.26,300,459.63,300,460Z" transform="translate(-250 -390)"/><path class="cls-1" d="M330,490a10,10,0,0,1-10,10V480A10,10,0,0,1,330,490Z" transform="translate(-250 -390)"/><path class="cls-2" d="M320,420a39.845,39.845,0,0,0-26.44,10,39.869,39.869,0,0,1-3.56-3.56c-.55.63-1.13,1.25-1.72,1.84s-1.21,1.17-1.84,1.72A39.817,39.817,0,0,0,260,420.01V420a19.95,19.95,0,0,0,8.67-1.97,20.187,20.187,0,0,0,2.51-1.45,18.738,18.738,0,0,0,2.96-2.44q.345-.345.66-.69c.23-.25.45-.5.66-.77.16-.19.32-.39.47-.59a18.485,18.485,0,0,0,1.22-1.81c.13-.21.26-.43.37-.65a1.409,1.409,0,0,0,.17-.32c.17-.31.33-.62.47-.94a.663.663,0,0,0,.09-.19c.14-.32.28-.64.4-.96a.037.037,0,0,0,.01-.03c.15-.37.28-.75.4-1.13s.23-.77.33-1.16q.12-.465.21-.93c.05-.24.1-.49.13-.74a2.2,2.2,0,0,0,.06-.37c.04-.2.06-.4.08-.6q.045-.345.06-.69c.02-.15.03-.31.04-.47.02-.36.03-.73.03-1.1a10,10,0,0,1,20,0h.01A19.992,19.992,0,0,0,320,420Z" transform="translate(-250 -390)"/><path class="cls-2" d="M439.34,499.98c-.52,0-1.05-.02-1.57-.05-.73-.04-1.47-.1-2.19-.18-1.09-.12-2.16-.28-3.22-.49-.36-.07-.71-.14-1.06-.22a38.484,38.484,0,0,1-5.04-1.48.358.358,0,0,1-.11-.04c-.28-.1-.56-.2-.83-.31A39.914,39.914,0,0,1,410,486.44,39.845,39.845,0,0,0,420,460h.01a19.883,19.883,0,0,0,2.41,9.53c.31.57.64,1.12,1,1.65s.74,1.05,1.15,1.54A20,20,0,0,0,440,480a10,10,0,0,0-.66,19.98Z" transform="translate(-250 -390)"/><path class="cls-2" d="M350,486.44c-.55.63-1.13,1.25-1.72,1.84A39.875,39.875,0,0,1,320,500a10,10,0,0,0,0-20,19.95,19.95,0,0,0,8.67-1.97,20.187,20.187,0,0,0,2.51-1.45,18.738,18.738,0,0,0,2.96-2.44q.345-.345.66-.69c.23-.25.45-.5.66-.77.16-.19.32-.39.47-.59a18.485,18.485,0,0,0,1.22-1.81c.13-.21.26-.43.37-.65a1.409,1.409,0,0,0,.17-.32c.17-.31.33-.62.47-.94a.663.663,0,0,0,.09-.19c.14-.32.28-.64.4-.96a.037.037,0,0,0,.01-.03c.15-.37.28-.75.4-1.13s.23-.77.33-1.16q.12-.465.21-.93c.05-.24.1-.49.13-.74a2.2,2.2,0,0,0,.06-.37c.04-.2.06-.4.08-.6q.045-.345.06-.69c.02-.15.03-.31.04-.47.02-.36.03-.73.03-1.1A39.845,39.845,0,0,0,350,486.44Z" transform="translate(-250 -390)"/><path class="cls-2" d="M360.01,460c0,.22,0,.43.01.64-.02-.21-.02-.43-.02-.64Z" transform="translate(-250 -390)"/><path class="cls-2" d="M360.5,464.4a17.956,17.956,0,0,0,.48,1.78A15.577,15.577,0,0,1,360.5,464.4Z" transform="translate(-250 -390)"/><path class="cls-1" d="M371.32,478.03c-.58-.29-1.14-.59-1.69-.93A17.276,17.276,0,0,0,371.32,478.03Z" transform="translate(-250 -390)"/><path class="cls-1" d="M369.22,498.52a39.29,39.29,0,0,0,6.36,1.23A38.241,38.241,0,0,1,369.22,498.52Z" transform="translate(-250 -390)"/><path class="cls-1" d="M376.92,499.88c1.01.07,2.04.11,3.08.11V500C378.96,500,377.94,499.96,376.92,499.88Z" transform="translate(-250 -390)"/><path class="cls-1" d="M391.97,476.03a21.762,21.762,0,0,0,2.17-1.89A20.545,20.545,0,0,1,391.97,476.03Z" transform="translate(-250 -390)"/><path class="cls-1" d="M400,494.64v.01a.405.405,0,0,0-.09.05Z" transform="translate(-250 -390)"/><path class="cls-1" d="M440,499.99V500c-.17,0-.34,0-.51-.01a.757.757,0,0,0-.15-.01C439.56,499.99,439.78,499.99,440,499.99Z" transform="translate(-250 -390)"/></g></svg>