<svg xmlns="http://www.w3.org/2000/svg" viewBox="0 0 950 100"><defs><style>.cls-1{fill:#121221;}</style></defs><title>techstars</title><g id="Слой_2" data-name="Слой 2"><g id="Work_space" data-name="Work space"><g id="techstars"><path class="cls-1" d="M460,30a10,10,0,0,0,10,10h40a30,30,0,0,1,0,60H440V80h70a10,10,0,0,0,0-20H470a30,30,0,0,1,0-60h70V20H470A10,10,0,0,0,460,30Z"/><path class="cls-1" d="M870,30a10,10,0,0,0,10,10h40a30,30,0,0,1,0,60H850V80h70a10,10,0,0,0,0-20H880a30,30,0,0,1,0-60h70V20H880A10,10,0,0,0,870,30Z"/><polygon class="cls-1" points="430 0 430 100 410 100 410 60 350 60 350 100 330 100 330 0 350 0 350 40 410 40 410 0 430 0"/><polygon class="cls-1" points="130 20 130 40 210 40 210 60 130 60 130 80 210 80 210 100 110 100 110 0 210 0 210 20 130 20"/><path class="cls-1" d="M840,30A30,30,0,0,0,810,0H740V100h20V60h50a10,10,0,0,1,10,10v30h20V70a29.862,29.862,0,0,0-7.65-20A29.862,29.862,0,0,0,840,30ZM760,40V20h50a10,10,0,0,1,0,20Z"/><path class="cls-1" d="M299.29,60H320a50,50,0,1,1,0-20H299.29a30,30,0,1,0,0,20Z"/><path class="cls-1" d="M690.77,1.95,689.99,0H670.01l-.78,1.94L630,100h21.55l11.2-28h34.5l11.2,28H730ZM670.75,52,680,28.87,689.25,52Z"/><polygon class="cls-1" points="650 0 650 20 610 20 610 100 590 100 590 20 550 20 550 0 650 0"/><polygon class="cls-1" points="100 0 100 20 60 20 60 100 40 100 40 20 0 20 0 0 100 0"/></g></g></g></svg>