<svg id="Main" xmlns="http://www.w3.org/2000/svg" viewBox="0 0 600 300"><defs><style>.cls-1{fill:#366ce1;}.cls-2{fill:#1c1e20;}</style></defs><title>telegram</title><g id="Telegram"><rect class="cls-1" x="200" width="100" height="20"/><rect class="cls-1" x="240" y="20" width="20" height="80"/><rect class="cls-1" x="300" width="20" height="100"/><rect class="cls-1" x="320" y="40" width="80" height="20"/><rect class="cls-1" x="320" width="80" height="20"/><rect class="cls-1" x="320" y="80" width="80" height="20"/><rect class="cls-1" x="500" width="20" height="100"/><rect class="cls-1" x="520" y="40" width="80" height="20"/><rect class="cls-1" x="520" width="80" height="20"/><rect class="cls-1" x="520" y="80" width="80" height="20"/><rect class="cls-1" x="400" width="20" height="100"/><rect class="cls-1" x="420" y="80" width="80" height="20"/><path class="cls-1" d="M572.35,520h23.48a50,50,0,1,1,0-40H572.35a30,30,0,1,0,0,40Z" transform="translate(-200 -350)"/><rect class="cls-1" x="350" y="150" width="50" height="20"/><rect class="cls-1" x="520" y="150" width="50" height="20"/><path class="cls-1" d="M670,450H600V550h20V510h50a30,30,0,0,0,0-60Zm0,40H620V470h50a10,10,0,0,1,0,20Z" transform="translate(-200 -350)"/><polygon class="cls-1" points="450 160 470 160 500 200 480 200 450 160"/><polygon class="cls-1" points="540 100 560 100 520 200 500 200 540 100"/><polygon class="cls-1" points="580 200 600 200 560 100 540 100 580 200"/><polygon class="cls-1" points="440 200 460 200 420 300 400 300 440 200"/><polygon class="cls-1" points="490 300 510 300 470 200 450 200 490 300"/><polygon class="cls-1" points="530 200 550 200 510 300 490 300 530 200"/><polygon class="cls-1" points="580 300 600 300 560 200 540 200 580 300"/><path class="cls-2" d="M300,550l50,100,50-100Z" transform="translate(-200 -350)"/><path class="cls-1" d="M500,650,350,350V550Z" transform="translate(-200 -350)"/><path class="cls-1" d="M200,650,350,550V350Z" transform="translate(-200 -350)"/></g></svg>