<svg id="Main" xmlns="http://www.w3.org/2000/svg" viewBox="0 0 300 300"><defs><style>.cls-1{fill:#121221;}.cls-2{fill:#366ce1;}</style></defs><title>telnet</title><g id="TelNet"><path class="cls-1" d="M450,500H550a50,50,0,0,0-100,0Zm0,0H550a50,50,0,0,0-100,0Zm0,0H550a50,50,0,0,0-100,0Zm50,50a50.005,50.005,0,0,1-50-50H350a150,150,0,0,0,300,0H550A50.005,50.005,0,0,1,500,550Z" transform="translate(-350 -350)"/><path class="cls-2" d="M500,350A150,150,0,0,1,650,500H600a100,100,0,0,0-200,0H350A150,150,0,0,1,500,350Z" transform="translate(-350 -350)"/></g></svg>