<svg xmlns="http://www.w3.org/2000/svg" viewBox="0 0 760 220"><defs><style>.cls-1{fill:#366ce1;}.cls-2{fill:#121221;}</style></defs><title>tencent holding</title><g id="Слой_2" data-name="Слой 2"><g id="Work_space" data-name="Work space"><g id="tencent_holding" data-name="tencent holding"><polygon class="cls-1" points="510 140 510 200 530 200 530 220 470 220 470 200 490 200 490 140 470 140 470 120 530 120 530 140 510 140"/><polygon class="cls-1" points="650 120 650 220 630 220 570 150.59 570 220 550 220 550 120 570 120 630 189.41 630 120 650 120"/><path class="cls-1" d="M410,120H360V220h50a50,50,0,0,0,0-100Zm0,80H380V140h30a30,30,0,0,1,0,60Z"/><polygon class="cls-1" points="130 120 130 220 110 220 110 180 50 180 50 220 30 220 30 120 50 120 50 160 110 160 110 120 130 120"/><polygon class="cls-1" points="350 200 350 220 250 220 250 120 270 120 270 200 350 200"/><path class="cls-1" d="M190,120a50,50,0,1,0,50,50A50.005,50.005,0,0,0,190,120Zm0,80a30,30,0,1,1,30-30A30,30,0,0,1,190,200Z"/><path class="cls-1" d="M760,160v10a49.16,49.16,0,0,1-1.01,10,50.013,50.013,0,1,1-13.64-45.35l-14.14,14.14A30,30,0,1,0,738.28,180H710V160Z"/><polygon class="cls-2" points="650 0 650 100 630 100 570 30.59 570 100 550 100 550 0 570 0 630 69.41 630 0 650 0"/><polygon class="cls-2" points="320 0 320 100 300 100 240 30.59 240 100 220 100 220 0 240 0 300 69.41 300 0 320 0"/><polygon class="cls-2" points="460 20 460 40 540 40 540 60 460 60 460 80 540 80 540 100 440 100 440 0 540 0 540 20 460 20"/><polygon class="cls-2" points="130 20 130 40 210 40 210 60 130 60 130 80 210 80 210 100 110 100 110 0 210 0 210 20 130 20"/><path class="cls-2" d="M408.28,60h20.71a50,50,0,1,1,0-20H408.28a30,30,0,1,0,0,20Z"/><polygon class="cls-2" points="760 0 760 20 720 20 720 100 700 100 700 20 660 20 660 0 760 0"/><polygon class="cls-2" points="100 0 100 20 60 20 60 100 40 100 40 20 0 20 0 0 100 0"/></g></g></g></svg>