<svg xmlns="http://www.w3.org/2000/svg" viewBox="0 0 420 140"><defs><style>.cls-1{fill:#366ce1;}</style></defs><title>teneo</title><g id="Слой_2" data-name="Слой 2"><g id="Work_space" data-name="Work space"><g id="teneo"><path class="cls-1" d="M370,40a50,50,0,1,0,50,50A50.005,50.005,0,0,0,370,40Zm0,80a30,30,0,1,1,30-30A30,30,0,0,1,370,120Z"/><path class="cls-1" d="M170,100a9.954,9.954,0,0,0,10-9.834V90a49.16,49.16,0,0,0-1.01-10,50,50,0,0,0-97.98,0,50.01,50.01,0,0,0,0,20,50.01,50.01,0,0,0,70.158,35.3A9.924,9.924,0,0,0,153.2,118.56l-.159-.127a9.882,9.882,0,0,0-10.359-1.242A30.006,30.006,0,0,1,101.72,100ZM130,60a29.979,29.979,0,0,1,28.28,20H101.72A29.979,29.979,0,0,1,130,60Z"/><path class="cls-1" d="M330,100a9.954,9.954,0,0,0,10-9.834V90a49.16,49.16,0,0,0-1.01-10,50,50,0,0,0-97.98,0,50.01,50.01,0,0,0,0,20,50.01,50.01,0,0,0,70.158,35.3A9.924,9.924,0,0,0,313.2,118.56l-.159-.127a9.882,9.882,0,0,0-10.359-1.242A30.006,30.006,0,0,1,261.72,100ZM290,60a29.979,29.979,0,0,1,28.28,20H261.72A29.979,29.979,0,0,1,290,60Z"/><path class="cls-1" d="M260,90.824V130a10,10,0,0,1-10,10h0a10,10,0,0,1-10-10V90.623c0-16.348-12.819-30.165-29.16-30.612A30,30,0,0,0,180,90v40a10,10,0,0,1-10,10h0a10,10,0,0,1-10-10V90a50.006,50.006,0,0,1,50.865-49.993C238.277,40.471,260,63.409,260,90.824Z"/><path class="cls-1" d="M98.48,102.282a50.027,50.027,0,0,1-49.345,37.711C22.1,139.535,0,116.215,0,89.176V10A10,10,0,0,1,10,0h0A10,10,0,0,1,20,10V50.01a49.731,49.731,0,0,1,17.642-8.469A9.978,9.978,0,0,1,50,51.267h0a9.927,9.927,0,0,1-7.406,9.654A30.005,30.005,0,1,0,79.079,97.405,9.924,9.924,0,0,1,88.731,90h.012A9.959,9.959,0,0,1,98.48,102.282Z"/></g></g></g></svg>