<svg id="Complete" xmlns="http://www.w3.org/2000/svg" viewBox="0 0 830 210"><defs><style>.cls-1{fill:#366ce1;}.cls-2,.cls-3,.cls-4{fill:#121221;}.cls-2{opacity:0.62;}.cls-3{opacity:0.38;}</style></defs><title>tensor flow</title><g id="tensorflow"><path class="cls-1" d="M795,465v20q-10-5-20-10V455Q785,460,795,465Z" transform="translate(-85 -395)"/><path class="cls-1" d="M915,445q-10,5-20,10-20-10-40-20l-60,30q-10-5-20-10l60-30q10-5,20-10,10,5,20,10Q895,435.005,915,445Z" transform="translate(-85 -395)"/><path class="cls-1" d="M915,445v20q-10,5-20,10V455Q905,450.005,915,445Z" transform="translate(-85 -395)"/><path class="cls-1" d="M895,455v20q-20-10-40-20V435Q875,445.005,895,455Z" transform="translate(-85 -395)"/><path class="cls-2" d="M795,465v20q-10-5-20-10V455Q785,460,795,465Z" transform="translate(-85 -395)"/><path class="cls-2" d="M895,455v20q-20-10-40-20V435Q875,445.005,895,455Z" transform="translate(-85 -395)"/><path class="cls-1" d="M855,495v20q-10-5-20-10v70q-10-5-20-10V475q10-5,20-10v20Q845,490,855,495Z" transform="translate(-85 -395)"/><path class="cls-2" d="M855,495v20q-10-5-20-10v70q-10-5-20-10V475q10-5,20-10v20Q845,490,855,495Z" transform="translate(-85 -395)"/><path class="cls-1" d="M875,485v20q-10,5-20,10V495Q865,490.005,875,485Z" transform="translate(-85 -395)"/><ellipse class="cls-1" cx="770" cy="90" rx="20" ry="10"/><path class="cls-1" d="M855,515v50q-10,5-20,10V505Q845,510,855,515Z" transform="translate(-85 -395)"/><path class="cls-3" d="M915,445v20q-10,5-20,10V455Q905,450.005,915,445Z" transform="translate(-85 -395)"/><path class="cls-1" d="M855,435v40q-10,5-20,10V465q-10,5-20,10t-20,10V465Z" transform="translate(-85 -395)"/><path class="cls-3" d="M855,435v40q-10,5-20,10V465q-10,5-20,10t-20,10V465Z" transform="translate(-85 -395)"/><path class="cls-3" d="M875,485v20q-10,5-20,10V495Q865,490.005,875,485Z" transform="translate(-85 -395)"/><path class="cls-3" d="M855,515v50q-10,5-20,10V505Q845,510,855,515Z" transform="translate(-85 -395)"/><rect class="cls-4" width="100" height="20"/><rect class="cls-4" x="110" width="100" height="20"/><rect class="cls-4" x="110" y="40" width="100" height="20"/><rect class="cls-4" x="110" y="80" width="100" height="20"/><rect class="cls-4" x="40" width="20" height="100"/><polygon class="cls-4" points="280.03 100 280 100 280 99.96 280.03 100"/><polygon class="cls-4" points="320 0 320 100 300.03 100 300 99.96 240 30.57 240 100 220 100 220 0 240 0 300 69.38 300 0 320 0"/><path class="cls-4" d="M575,395a50,50,0,1,0,50,50A50.005,50.005,0,0,0,575,395Zm0,80a30,30,0,1,1,30-30A30,30,0,0,1,575,475Z" transform="translate(-85 -395)"/><path class="cls-4" d="M515,445a49.938,49.938,0,0,1-10.01,30,49.98,49.98,0,0,1-79.98,0H465a29.979,29.979,0,0,0,28.28-20H416.01a50.01,50.01,0,0,1,0-20h97.98A49.16,49.16,0,0,1,515,445Z" transform="translate(-85 -395)"/><path class="cls-4" d="M504.99,415H425.01a49.98,49.98,0,0,1,79.98,0Z" transform="translate(-85 -395)"/><rect class="cls-4" x="550" y="40" width="20" height="60"/><path class="cls-4" d="M735,445v10H635V435h78.28A29.979,29.979,0,0,0,685,415H635V395h50a50.015,50.015,0,0,1,48.99,40A49.16,49.16,0,0,1,735,445Z" transform="translate(-85 -395)"/><rect class="cls-4" x="630" y="80" width="20" height="20"/><path class="cls-1" d="M543.09,505a50,50,0,1,0,50,50A50.005,50.005,0,0,0,543.09,505Zm0,80a30,30,0,1,1,30-30A30,30,0,0,1,543.09,585Z" transform="translate(-85 -395)"/><polygon class="cls-1" points="218.09 130 218.09 150 278.09 150 278.09 170 218.09 170 218.09 210 198.09 210 198.09 110 298.09 110 298.09 130 218.09 130"/><rect class="cls-1" x="308.09" y="190" width="100" height="20"/><rect class="cls-1" x="308.09" y="110" width="20" height="60"/><polygon class="cls-1" points="650 110 614.35 208.24 613.73 209.95 613.71 210 593.71 210 593.08 208.24 568.72 141.11 568.72 141.1 564.69 130 558.73 113.56 558.09 111.79 558.09 111.78 558.73 110.01 558.73 110 578.71 110 578.73 110.04 579.36 111.78 603.71 178.92 628.72 110 650 110"/><polygon class="cls-1" points="565.01 208.24 564.37 210 544.36 210 543.73 208.25 508.09 110 529.37 110 554.37 178.92 558.39 190 564.37 206.48 565.01 208.24"/></g></svg>