<svg xmlns="http://www.w3.org/2000/svg" viewBox="0 0 870 201.823"><defs><style>.cls-1{fill:#121221;}</style></defs><title>tesla</title><g id="Слой_2" data-name="Слой 2"><g id="Work_space" data-name="Work space"><g id="tesla"><path class="cls-1" d="M782.68,90H617.32l55.5,96.129a31.385,31.385,0,0,0,54.362,0Z"/><path class="cls-1" d="M820,70c0,22.09-53.73,40-120,40S580,92.09,580,70c0-10.64,12.47-20.31,32.82-27.48A12.222,12.222,0,0,0,610,50c0,16.57,40.29,30,90,30s90-13.43,90-30a12.222,12.222,0,0,0-2.82-7.48C807.53,49.69,820,59.36,820,70Z"/><path class="cls-1" d="M870,50c0,12.39-15.34,23.74-40.75,32.48C833.63,78.55,836,74.36,836,70c0-22.09-60.89-40-136-40S564,47.91,564,70c0,4.36,2.37,8.55,6.75,12.48C545.34,73.74,530,62.39,530,50c0-27.61,76.11-50,170-50S870,22.39,870,50Z"/><path class="cls-1" d="M240,85.911a10,10,0,0,0,10,10h40a30,30,0,0,1,0,60H220v-20h70a10,10,0,0,0,0-20H250a30,30,0,0,1,0-60h70v20H250A10,10,0,0,0,240,85.911Z"/><polygon class="cls-1" points="130 75.911 130 95.911 210 95.911 210 115.911 130 115.911 130 135.911 210 135.911 210 155.911 110 155.911 110 55.911 210 55.911 210 75.911 130 75.911"/><polygon class="cls-1" points="430 135.911 430 155.911 330 155.911 330 55.911 350 55.911 350 135.911 430 135.911"/><path class="cls-1" d="M500.77,57.861l-.78-1.95H480.01l-.78,1.94L440,155.911h21.55l11.2-28h34.5l11.2,28H540Zm-20.02,50.05L490,84.781l9.25,23.13Z"/><polygon class="cls-1" points="100 55.911 100 75.911 60 75.911 60 155.911 40 155.911 40 75.911 0 75.911 0 55.911 100 55.911"/></g></g></g></svg>