<svg xmlns="http://www.w3.org/2000/svg" viewBox="0 0 570 530"><defs><style>.cls-1{fill:#121221;}.cls-2{fill:#366ce1;}</style></defs><title>testinvite</title><g id="Complete"><g id="testinvite"><polygon class="cls-1" points="190 170 190 205 280 205 280 215 190 215 190 250 280 250 280 260 180 260 180 160 280 160 280 170 190 170"/><polygon class="cls-1" points="170 160 170 170 125 170 125 260 115 260 115 170 70 170 70 160 170 160"/><polygon class="cls-1" points="500 160 500 170 455 170 455 260 445 260 445 170 400 170 400 160 500 160"/><path class="cls-1" d="M515,347.5A17.506,17.506,0,0,0,532.5,365h45a27.5,27.5,0,0,1,7.5,53.95,26.911,26.911,0,0,1-7.5,1.05H505V410h72.5a17.5,17.5,0,0,0,0-35h-45a27.5,27.5,0,0,1-7.5-53.95,26.911,26.911,0,0,1,7.5-1.05H605v10H532.5A17.506,17.506,0,0,0,515,347.5Z" transform="translate(-215 -160)"/><path class="cls-2" d="M643.3,258.21l-26.8-46.42a23.2,23.2,0,0,0-31.69-8.49,22.993,22.993,0,0,1-11.57,3.14A23.23,23.23,0,0,1,550,183.21v-.01A23.2,23.2,0,0,0,526.8,160H473.2A23.2,23.2,0,0,0,450,183.2v.01a23.2,23.2,0,0,1-34.8,20.09,23.206,23.206,0,0,0-31.7,8.49l-26.8,46.42a23.211,23.211,0,0,0,8.49,31.69l.01.01A23,23,0,0,1,376.8,310h69.06a23.124,23.124,0,0,1,3.11-11.6l15.46-26.8a23.214,23.214,0,0,1,20.1-11.6h30.94a23.214,23.214,0,0,1,20.1,11.6l15.47,26.8a23.227,23.227,0,0,1,3.11,11.6H623.2a23,23,0,0,1,11.6-20.09l.01-.01A23.193,23.193,0,0,0,643.3,258.21Z" transform="translate(-215 -160)"/><path class="cls-1" d="M643.3,591.79l-26.8,46.42a23.194,23.194,0,0,1-31.69,8.49A23.206,23.206,0,0,0,550,666.79v.01A23.2,23.2,0,0,1,526.8,690H473.2A23.2,23.2,0,0,1,450,666.8v-.01a23.23,23.23,0,0,0-23.24-23.23,22.985,22.985,0,0,0-11.56,3.14,23.212,23.212,0,0,1-31.7-8.49l-26.8-46.42a23.211,23.211,0,0,1,8.49-31.69l.01-.01A23,23,0,0,0,376.8,540h69.06a23.124,23.124,0,0,0,3.11,11.6l15.46,26.8a23.214,23.214,0,0,0,20.1,11.6h30.94a23.214,23.214,0,0,0,20.1-11.6l15.47-26.8a23.227,23.227,0,0,0,3.11-11.6H623.2a23,23,0,0,0,11.6,20.09l.01.01A23.193,23.193,0,0,1,643.3,591.79Z" transform="translate(-215 -160)"/><polygon class="cls-2" points="480 280 480 315 570 315 570 325 480 325 480 360 570 360 570 370 470 370 470 270 570 270 570 280 480 280"/><polygon class="cls-2" points="460 270 460 280 415 280 415 370 405 370 405 280 360 280 360 270 460 270"/><polygon class="cls-2" points="170 270 170 370 160.07 370 160 369.92 80 284.59 80 370 70 370 70 270 80.02 270 160 355.3 160 270 170 270"/><polygon class="cls-2" points="279.99 270 235.47 368.78 234.93 370 225.05 370 224.51 368.8 180 270 190.97 270 229.99 356.62 269.02 270 279.99 270"/><polygon class="cls-2" points="325 280 325 360 350 360 350 370 290 370 290 360 315 360 315 280 290 280 290 270 350 270 350 280 325 280"/><polygon class="cls-2" points="35 280 35 360 60 360 60 370 0 370 0 360 25 360 25 280 0 280 0 270 60 270 60 280 35 280"/></g></g></svg>