<svg xmlns="http://www.w3.org/2000/svg" viewBox="0 0 1470 160"><defs><style>.cls-1,.cls-10,.cls-11,.cls-12,.cls-13,.cls-3,.cls-4,.cls-5,.cls-6,.cls-7,.cls-8,.cls-9{fill:#366ce1;}.cls-2{fill:#121221;}.cls-3{opacity:0.92;}.cls-4{opacity:0.2;}.cls-5{opacity:0.68;}.cls-6{opacity:0.44;}.cls-7{opacity:0.84;}.cls-8{opacity:0.12;}.cls-9{opacity:0.6;}.cls-10{opacity:0.36;}.cls-11{opacity:0.76;}.cls-12{opacity:0.52;}.cls-13{opacity:0.28;}</style></defs><title>the pill club</title><g id="Слой_2" data-name="Слой 2"><g id="Work_space" data-name="Work space"><g id="the_pill_club" data-name="the pill club"><path class="cls-1" d="M1346.7,55A50,50,0,1,0,1415,36.7,50,50,0,0,0,1346.7,55Zm69.282,40A30,30,0,1,1,1405,54.019,30,30,0,0,1,1415.981,95Z"/><circle class="cls-2" cx="1425" cy="19.378" r="10"/><circle class="cls-2" cx="1329.378" cy="45" r="10"/><circle class="cls-2" cx="1450.622" cy="115" r="10"/><circle class="cls-2" cx="1355" cy="140.622" r="10"/><circle class="cls-2" cx="1450.622" cy="45" r="10"/><circle class="cls-2" cx="1355" cy="19.378" r="10"/><circle class="cls-2" cx="1425" cy="140.622" r="10"/><circle class="cls-2" cx="1329.378" cy="115" r="10"/><circle class="cls-2" cx="1460" cy="80" r="10"/><circle class="cls-2" cx="1390" cy="10" r="10"/><circle class="cls-2" cx="1390" cy="150" r="10"/><circle class="cls-2" cx="1320" cy="80" r="10"/><path class="cls-1" d="M1346.7,55A50,50,0,1,0,1415,36.7,50,50,0,0,0,1346.7,55Zm69.282,40A30,30,0,1,1,1405,54.019,30,30,0,0,1,1415.981,95Z"/><circle class="cls-3" cx="1425" cy="19.378" r="10"/><circle class="cls-4" cx="1329.378" cy="45" r="10"/><circle class="cls-5" cx="1450.622" cy="115" r="10"/><circle class="cls-6" cx="1355" cy="140.622" r="10"/><circle class="cls-7" cx="1450.622" cy="45" r="10"/><circle class="cls-8" cx="1355" cy="19.378" r="10"/><circle class="cls-9" cx="1425" cy="140.622" r="10"/><circle class="cls-10" cx="1329.378" cy="115" r="10"/><circle class="cls-11" cx="1460" cy="80" r="10"/><circle class="cls-1" cx="1390" cy="10" r="10"/><circle class="cls-12" cx="1390" cy="150" r="10"/><circle class="cls-13" cx="1320" cy="80" r="10"/><polygon class="cls-2" points="550 50 550 110 570 110 570 130 510 130 510 110 530 110 530 50 510 50 510 30 570 30 570 50 550 50"/><polygon class="cls-1" points="210 30 210 130 190 130 190 90 130 90 130 130 110 130 110 30 130 30 130 70 190 70 190 30 210 30"/><polygon class="cls-1" points="240 50 240 70 320 70 320 90 240 90 240 110 320 110 320 130 220 130 220 30 320 30 320 50 240 50"/><polygon class="cls-2" points="680 110 680 130 580 130 580 30 600 30 600 110 680 110"/><polygon class="cls-1" points="1060 110 1060 130 960 130 960 30 980 30 980 110 1060 110"/><polygon class="cls-2" points="790 110 790 130 690 130 690 30 710 30 710 110 790 110"/><path class="cls-1" d="M928.28,90h20.71a50,50,0,1,1,0-20H928.28a30,30,0,1,0,0,20Z"/><path class="cls-1" d="M1270,60a30,30,0,0,0-30-30h-70V130h70a29.991,29.991,0,0,0,22.35-50A29.862,29.862,0,0,0,1270,60Zm-80-10h50a10,10,0,0,1,0,20h-50Zm50,60h-50V90h50a10,10,0,0,1,0,20Z"/><path class="cls-2" d="M470,30H400V130h20V90h50a30,30,0,0,0,0-60Zm0,40H420V50h50a10,10,0,0,1,0,20Z"/><polygon class="cls-1" points="100 30 100 50 60 50 60 130 40 130 40 50 0 50 0 30 100 30"/><path class="cls-1" d="M1160,30V80a50,50,0,0,1-100,0V30h20V80a30,30,0,0,0,60,0V30Z"/></g></g></g></svg>