<svg xmlns="http://www.w3.org/2000/svg" viewBox="0 0 1416.803 169.627"><defs><style>.cls-1{fill:#121221;}.cls-2{fill:#366ce1;}</style></defs><title>the suite adapt io</title><g id="Слой_2" data-name="Слой 2"><g id="Work_space" data-name="Work space"><g id="the_suite_adapt_io" data-name="the suite adapt io"><path class="cls-1" d="M292.857,48.275a10,10,0,0,0,10,10h40a30,30,0,0,1,0,60h-70v-20h70a10,10,0,0,0,0-20h-40a30,30,0,1,1,0-60h70v20h-70A10,10,0,0,0,292.857,48.275Z"/><path class="cls-1" d="M454.286,46.846V82.561a35.715,35.715,0,0,1-71.429,0V46.846h14.286V82.561a21.429,21.429,0,0,0,42.857,0V46.846Z"/><path class="cls-2" d="M708.27,20.225l-.78-1.95H687.51l-.78,1.94-39.23,98.06h21.55l11.2-28h34.5l11.2,28H747.5Zm-20.02,50.05,9.25-23.13,9.25,23.13Z"/><path class="cls-2" d="M874.583,57.846c-32.276-20.277-66.3,12.089-49.408,44.423a31.508,31.508,0,0,0,11.251,11.285c13.854,7.285,27.75,5.2,37.5-2.132v6.661h13.308V80.811A27.113,27.113,0,0,0,874.583,57.846ZM866,101.2c-19.8,12.043-40.474-8.634-28.431-28.431a13.037,13.037,0,0,1,4.35-4.35c19.8-12.044,40.474,8.634,28.431,28.43A13.031,13.031,0,0,1,866,101.2Z"/><path class="cls-2" d="M927.154,51.544a33.273,33.273,0,0,0-33.269,33.269v66.539h13.307v-39.93a33.267,33.267,0,1,0,19.962-59.878Zm0,53.231a19.962,19.962,0,1,1,19.961-19.962A19.96,19.96,0,0,1,927.154,104.775Z"/><path class="cls-2" d="M780.769,118.083a33.274,33.274,0,0,0,33.269-33.27V18.275H800.731v39.93a33.267,33.267,0,1,0-19.962,59.878Zm0-53.231a19.962,19.962,0,1,1-19.961,19.961A19.96,19.96,0,0,1,780.769,64.852Z"/><path class="cls-2" d="M1146.731,51.544A33.27,33.27,0,1,0,1180,84.813,33.273,33.273,0,0,0,1146.731,51.544Zm0,53.231a19.962,19.962,0,1,1,19.961-19.962A19.96,19.96,0,0,1,1146.731,104.775Z"/><rect class="cls-2" x="1094.643" y="51.313" width="13.308" height="66.538"/><rect class="cls-2" x="1094.643" y="31.352" width="13.308" height="13.308"/><rect class="cls-1" x="468.571" y="46.846" width="14.286" height="71.429"/><rect class="cls-1" x="468.571" y="25.418" width="14.286" height="14.286"/><path class="cls-1" d="M258.532,87.506a34.638,34.638,0,0,0,0-13.847,34.616,34.616,0,0,0-67.833,0,34.638,34.638,0,0,0,0,13.847,34.606,34.606,0,0,0,57.233,18.65q-5.514-4.413-11.035-8.827a20.763,20.763,0,0,1-31.86-9.823ZM224.615,59.813a20.756,20.756,0,0,1,19.579,13.846H205.037A20.754,20.754,0,0,1,224.615,59.813Z"/><path class="cls-1" d="M639.279,89.7a35.739,35.739,0,0,0,0-14.285,35.714,35.714,0,0,0-69.986,0,35.69,35.69,0,0,0,0,14.285,35.7,35.7,0,0,0,59.05,19.243q-5.69-4.552-11.386-9.107A21.422,21.422,0,0,1,584.086,89.7ZM604.286,61.132a21.414,21.414,0,0,1,20.2,14.286h-40.4A21.412,21.412,0,0,1,604.286,61.132Z"/><polygon class="cls-1" points="100 18.275 100 38.275 60 38.275 60 118.275 40 118.275 40 38.275 0 38.275 0 18.275 100 18.275"/><path class="cls-1" d="M180,80.583V115.2H166.154V80.583a20.77,20.77,0,1,0-41.539,0V115.2H110.769V18.275h13.846V52.9A34.609,34.609,0,0,1,180,80.583Z"/><path class="cls-2" d="M1033.615,84.813a33.269,33.269,0,1,1-66.538,0V24.929h13.308V58.205a33.081,33.081,0,0,1,19.961-6.661h13.308l-13.308,13.308a19.962,19.962,0,1,0,19.962,19.961Z"/><path class="cls-1" d="M561.429,82.561a35.715,35.715,0,0,1-71.429,0V18.275h14.286V54a35.516,35.516,0,0,1,21.428-7.15H540L525.714,61.132a21.429,21.429,0,1,0,21.429,21.429Z"/><path class="cls-1" d="M1414.981,109.627c-9.13,36.31-49.17,52.16-82.32,57.61-1.87-11.17-2.26-22.24,4.77-29.76,1.89-2.02,9.54-6.63,24.85-15.85,10.19-6.14,16.34-9.42,15.71-11.54-.63-2.15-7.96-2.02-12.8-1.39-15.74,2.05-24.84,12-26.11,10.65-1.34-1.42,8.57-12.55,21.04-30.42,10.82-15.51,11.65-19,10.4-20.67-2.23-2.95-11.25-.44-17.24,3.05-4.43,2.57-8.59,6.47-14.2,16.05-9.97,17.02-10.95,28.77-13.62,28.55-2.84-.24-4.74-13.84-4.63-25.34.14-14.88,3.58-19.24,1.85-31.26-.92-6.4-3.85-18.78-7.94-18.93-5.32-.2-12.9,20.27-12.84,40.39.04,17.1,5.58,28.71,2.87,29.92-3.33,1.48-13.74-15.05-14.37-16.06-7.18-11.5-6.34-15.29-11.49-22.82-8.24-12.06-23.02-20.83-27.04-17.74-4.9,3.75,5.23,25.73,11.66,37.01,11.37,19.95,24.35,31.84,22.82,33.47-1.24,1.3-9.72-6.34-27.38-14.2-10.28-4.57-14.42-5.11-17.75-5.07-9.62.1-21.11,5.03-21.3,10.14-.24,6.85,20.13,5.48,38.54,19.27,12.86,9.63,17.97,21.56,22.3,33.06-35-5.19-77.46-21.79-85.78-58.12-9.7-42.36,33.28-84.22,70-100,9.07-3.9,48.84-19.56,90,0C1390.661,26.587,1425.2,68.967,1414.981,109.627Z"/><path class="cls-2" d="M1362.281,121.627c-15.31,9.22-22.96,13.83-24.85,15.85-7.03,7.52-6.64,18.59-4.77,29.76a174.012,174.012,0,0,1-27.68,2.39,167.461,167.461,0,0,1-24.22-1.88c-4.33-11.5-9.44-23.43-22.3-33.06-18.41-13.79-38.78-12.42-38.54-19.27.19-5.11,11.68-10.04,21.3-10.14,3.33-.04,7.47.5,17.75,5.07,17.66,7.86,26.14,15.5,27.38,14.2,1.53-1.63-11.45-13.52-22.82-33.47-6.43-11.28-16.56-33.26-11.66-37.01,4.02-3.09,18.8,5.68,27.04,17.74,5.15,7.53,4.31,11.32,11.49,22.82.63,1.01,11.04,17.54,14.37,16.06,2.71-1.21-2.83-12.82-2.87-29.92-.06-20.12,7.52-40.59,12.84-40.39,4.09.15,7.02,12.53,7.94,18.93,1.73,12.02-1.71,16.38-1.85,31.26-.11,11.5,1.79,25.1,4.63,25.34,2.67.22,3.65-11.53,13.62-28.55,5.61-9.58,9.77-13.48,14.2-16.05,5.99-3.49,15.01-6,17.24-3.05,1.25,1.67.42,5.16-10.4,20.67-12.47,17.87-22.38,29-21.04,30.42,1.27,1.35,10.37-8.6,26.11-10.65,4.84-.63,12.17-.76,12.8,1.39C1378.621,112.207,1372.471,115.487,1362.281,121.627Z"/></g></g></g></svg>