<svg xmlns="http://www.w3.org/2000/svg" viewBox="0 0 1450 100"><defs><style>.cls-1{fill:#366ce1;}.cls-2{fill:#121221;}</style></defs><title>thought spot</title><g id="Слой_2" data-name="Слой 2"><g id="Work_space" data-name="Work space"><g id="thought_spot" data-name="thought spot"><path class="cls-1" d="M790,30a10,10,0,0,0,10,10h40a30,30,0,0,1,0,60H770V80h70a10,10,0,0,0,0-20H800a30,30,0,0,1,0-60h70V20H800A10,10,0,0,0,790,30Z"/><polygon class="cls-2" points="650 0 650 100 630 100 630 60 570 60 570 100 550 100 550 0 570 0 570 40 630 40 630 0 650 0"/><polygon class="cls-2" points="210 0 210 100 190 100 190 60 130 60 130 100 110 100 110 0 130 0 130 40 190 40 190 0 210 0"/><path class="cls-1" d="M1040,0a50,50,0,1,0,50,50A50.005,50.005,0,0,0,1040,0Zm0,80a30,30,0,1,1,30-30A30,30,0,0,1,1040,80Z"/><path class="cls-2" d="M270,0a50,50,0,1,0,50,50A50.005,50.005,0,0,0,270,0Zm0,80a30,30,0,1,1,30-30A30,30,0,0,1,270,80Z"/><path class="cls-2" d="M540,40V50a49.16,49.16,0,0,1-1.01,10,50.013,50.013,0,1,1-13.64-45.35L511.21,28.79A30,30,0,1,0,518.28,60H490V40Z"/><path class="cls-1" d="M950,0H880V100h20V60h50a30,30,0,0,0,0-60Zm0,40H900V20h50a10,10,0,0,1,0,20Z"/><polygon class="cls-2" points="760 0 760 20 720 20 720 100 700 100 700 20 660 20 660 0 760 0"/><polygon class="cls-1" points="1200 0 1200 20 1160 20 1160 100 1140 100 1140 20 1100 20 1100 0 1200 0"/><polygon class="cls-2" points="100 0 100 20 60 20 60 100 40 100 40 20 0 20 0 0 100 0"/><path class="cls-2" d="M430,0V50a50,50,0,0,1-100,0V0h20V50a30,30,0,0,0,60,0V0Z"/><path class="cls-1" d="M1270,30a10,10,0,0,0,10,10h20V60h-20a30,30,0,0,1,0-60h20V20h-20A10,10,0,0,0,1270,30Z"/><rect class="cls-1" x="1250" y="80" width="150" height="20"/><rect class="cls-1" x="1300" y="40" width="100" height="20"/><path class="cls-1" d="M1450,70a30,30,0,0,1-30,30h-20V80h20a10,10,0,0,0,0-20h-20V40h20A30,30,0,0,1,1450,70Z"/><rect class="cls-1" x="1400" width="50" height="20"/><polygon class="cls-2" points="1400 0 1400 20 1360 20 1360 100 1340 100 1340 20 1300 20 1300 0 1400 0"/></g></g></g></svg>