<svg xmlns="http://www.w3.org/2000/svg" viewBox="0 0 788.947 120"><defs><style>.cls-1{fill:#366ce1;}.cls-2,.cls-3{fill:#1c1e20;}.cls-2{opacity:0.38;}.cls-3{opacity:0.62;}</style></defs><title>thryve</title><g id="Слой_2" data-name="Слой 2"><g id="Work_space" data-name="Work space"><g id="thryve"><path class="cls-1" d="M786.126,60.529l-16.7,28.938A21.062,21.062,0,0,1,751.181,100H717.765a21.06,21.06,0,0,1-18.241-10.533l-16.7-28.938a21.061,21.061,0,0,1,0-21.058l16.7-28.938A21.06,21.06,0,0,1,717.765,0h33.416a21.062,21.062,0,0,1,18.242,10.533l16.7,28.938A21.061,21.061,0,0,1,786.126,60.529Z"/><path class="cls-2" d="M786.126,60.529l-16.7,28.938A21.062,21.062,0,0,1,751.181,100H717.765a21.06,21.06,0,0,1-18.241-10.533l-16.7-28.938a21.061,21.061,0,0,1,0-21.058l16.7-28.938A21.06,21.06,0,0,1,717.765,0h33.416a21.062,21.062,0,0,1,18.242,10.533l16.7,28.938A21.061,21.061,0,0,1,786.126,60.529Z"/><path class="cls-1" d="M785.972,81.1l-16.041,27.791A22.208,22.208,0,0,1,750.7,120H718.605a22.208,22.208,0,0,1-19.235-11.107L683.329,81.1a22.206,22.206,0,0,1,0-22.2L699.37,31.107A22.208,22.208,0,0,1,718.605,20H750.7a22.208,22.208,0,0,1,19.234,11.107L785.972,58.9A22.206,22.206,0,0,1,785.972,81.1Z"/><path class="cls-3" d="M785.972,81.1l-16.041,27.791A22.208,22.208,0,0,1,750.7,120H718.605a22.208,22.208,0,0,1-19.235-11.107L683.329,81.1a22.206,22.206,0,0,1,0-22.2L699.37,31.107A22.208,22.208,0,0,1,718.605,20H750.7a22.208,22.208,0,0,1,19.234,11.107L785.972,58.9A22.206,22.206,0,0,1,785.972,81.1Z"/><polygon class="cls-1" points="210 10 210 110 190 110 190 70 130 70 130 110 110 110 110 10 130 10 130 50 190 50 190 10 210 10"/><polygon class="cls-1" points="560 30 560 50 640 50 640 70 560 70 560 90 640 90 640 110 540 110 540 10 640 10 640 30 560 30"/><path class="cls-1" d="M320,40a30,30,0,0,0-30-30H220V110h20V70h50a10,10,0,0,1,10,10v30h20V80a29.862,29.862,0,0,0-7.65-20A29.862,29.862,0,0,0,320,40ZM240,50V30h50a10,10,0,0,1,0,20Z"/><polygon class="cls-1" points="100 10 100 30 60 30 60 110 40 110 40 30 0 30 0 10 100 10"/><polygon class="cls-1" points="382.78 56.46 379.95 60 380 60 380 110 360 110 360 60 357.17 56.46 320 10 345.61 10 369.97 40.45 394.33 10 419.95 10 382.78 56.46"/><polygon class="cls-1" points="529.98 10 490.76 108.07 489.99 110 469.99 110 469.22 108.07 430 10 451.54 10 479.99 81.14 508.45 10 529.98 10"/></g></g></g></svg>