<svg xmlns="http://www.w3.org/2000/svg" viewBox="0 0 571.467 160"><defs><style>.cls-1,.cls-3,.cls-4{fill:#121221;}.cls-2{fill:#366ce1;}.cls-3{opacity:0.62;}.cls-4{opacity:0.38;}</style></defs><title>tile</title><g id="Слой_2" data-name="Слой 2"><g id="Work_space" data-name="Work space"><g id="tile"><path class="cls-1" d="M571.467,80.1a49.954,49.954,0,0,1-25,43.3V96.67a30,30,0,0,0-25-46.57,28.518,28.518,0,0,0-5,.43,29.988,29.988,0,0,0,0,59.14v20.18a50,50,0,0,1,0-99.5,48.521,48.521,0,0,1,5-.25,50,50,0,0,1,50,50Z"/><path class="cls-2" d="M516.467,30.35V30h-100V130h100V50.53a28.518,28.518,0,0,1,5-.43,29.923,29.923,0,0,1,25,13.43V160h-160V0h160V36.8a49.7,49.7,0,0,0-25-6.7A48.521,48.521,0,0,0,516.467,30.35Z"/><polygon class="cls-2" points="142 50 142 110 162 110 162 130 102 130 102 110 122 110 122 50 102 50 102 30 162 30 162 50 142 50"/><polygon class="cls-2" points="286 50 286 70 366 70 366 90 286 90 286 110 366 110 366 130 266 130 266 30 366 30 366 50 286 50"/><polygon class="cls-3" points="286 50 286 70 366 70 366 90 286 90 286 110 366 110 366 130 266 130 266 30 366 30 366 50 286 50"/><polygon class="cls-2" points="264 110 264 130 164 130 164 30 184 30 184 110 264 110"/><polygon class="cls-2" points="100 30 100 50 60 50 60 130 40 130 40 50 0 50 0 30 100 30"/><polygon class="cls-4" points="264 110 264 130 164 130 164 30 184 30 184 110 264 110"/></g></g></g></svg>