<svg xmlns="http://www.w3.org/2000/svg" viewBox="0 0 1380 240"><defs><style>.cls-1{fill:#121221;}.cls-2{fill:#366ce1;}</style></defs><title>time matters</title><g id="Слой_2" data-name="Слой 2"><g id="Work_space" data-name="Work space"><g id="time_matters" data-name="time matters"><polygon class="cls-1" points="520 70 520 170 500 170 500 100.59 483.2 120.05 469.99 135.36 456.78 120.05 440 100.62 440 170 420 170 420 70 440 70 440 70.01 469.99 104.75 499.98 70 520 70"/><path class="cls-1" d="M1070,100a10,10,0,0,0,10,10h40a30,30,0,0,1,0,60h-70V150h70a10,10,0,0,0,0-20h-40a30,30,0,0,1,0-60h70V90h-70A10,10,0,0,0,1070,100Z"/><polygon class="cls-1" points="850 90 850 110 930 110 930 130 850 130 850 150 930 150 930 170 830 170 830 70 930 70 930 90 850 90"/><path class="cls-1" d="M1040,100a30,30,0,0,0-30-30H940V170h20V130h50a10,10,0,0,1,10,10v30h20V140a29.862,29.862,0,0,0-7.65-20A29.862,29.862,0,0,0,1040,100Zm-80,10V90h50a10,10,0,0,1,0,20Z"/><path class="cls-1" d="M590.77,71.95,589.99,70H570.01l-.78,1.94L530,170h21.55l11.2-28h34.5l11.2,28H630ZM570.75,122,580,98.87,589.25,122Z"/><polygon class="cls-1" points="710 70 710 90 670 90 670 170 650 170 650 90 610 90 610 70 710 70"/><polygon class="cls-1" points="820 70 820 90 780 90 780 170 760 170 760 90 720 90 720 70 820 70"/><polygon class="cls-2" points="150 90 150 150 170 150 170 170 110 170 110 150 130 150 130 90 110 90 110 70 170 70 170 90 150 90"/><polygon class="cls-2" points="280 70 280 170 260 170 260 100.59 243.2 120.05 229.99 135.36 216.78 120.05 200 100.62 200 170 180 170 180 70 200 70 200 70.01 229.99 104.75 259.98 70 280 70"/><polygon class="cls-2" points="310 90 310 110 390 110 390 130 310 130 310 150 390 150 390 170 290 170 290 70 390 70 390 90 310 90"/><polygon class="cls-2" points="100 70 100 90 60 90 60 170 40 170 40 90 0 90 0 70 100 70"/><path class="cls-2" d="M1320,120a10,10,0,0,1-10,10h-30a10,10,0,0,1-10-10V70a10,10,0,0,1,20,0v40h20A10,10,0,0,1,1320,120Z"/><path class="cls-2" d="M1290,199.38V219.5c-3.29.33-6.63.5-10,.5s-6.71-.17-10-.5V199.38a80.955,80.955,0,0,0,20,0Z"/><path class="cls-1" d="M1267.64,20.76c.79-.1,1.57-.19,2.36-.26V40.62c-.47.06-.93.12-1.39.19-.42.06-.84.12-1.26.19-.48.07-.96.15-1.43.24-.1.01-.2.03-.3.05-.58.11-1.16.22-1.74.34s-1.17.24-1.75.38c-.75.17-1.51.35-2.25.55-.6.15-1.19.31-1.78.48-.53.15-1.06.3-1.59.47-.49.14-.98.3-1.46.46-.33.11-.67.22-1,.33a79.781,79.781,0,0,0-10.15,4.29l-.93.48c-1.04.54-2.07,1.11-3.08,1.7-.35.2-.69.4-1.03.61-.9.54-1.79,1.09-2.66,1.67-.47.31-.94.62-1.4.94-.49.33-.97.67-1.45,1.02s-.96.7-1.43,1.05q-2.835,2.13-5.48,4.52c-.44.39-.87.79-1.3,1.2s-.86.81-1.28,1.23c-.3.29-.59.58-.88.88-.59.59-1.16,1.2-1.73,1.81-.28.3-.55.6-.82.91-1,1.11-1.97,2.25-2.89,3.41-.25.3-.5.62-.74.93-.36.47-.72.94-1.07,1.41a80.325,80.325,0,0,0-4.91,7.44c-.21.37-.43.74-.63,1.12-.43.75-.84,1.51-1.24,2.28-.16.31-.32.63-.48.95a77.792,77.792,0,0,0-3.72,8.64c-.21.56-.4,1.13-.59,1.69q-1.155,3.435-2,7.01c-.08.32-.15.63-.22.95-.11.48-.22.96-.31,1.44-.11.53-.22,1.07-.31,1.61-.07.35-.13.7-.19,1.05-.04.2-.07.4-.1.6-.08.47-.15.95-.22,1.43-.02.11-.03.22-.04.34-.08.51-.14,1.03-.2,1.55-.02.13-.04.26-.05.39-.05.44-.1.88-.14,1.32-.03.28-.06.57-.08.86-.04.41-.07.83-.1,1.25a.487.487,0,0,1-.01.12c-.04.6-.07,1.2-.1,1.8q-.045.87-.06,1.74c-.02.68-.03,1.37-.03,2.06s.01,1.37.03,2.06q.015.87.06,1.74c.03.6.06,1.2.1,1.8a.487.487,0,0,1,.01.12c.03.42.06.83.1,1.25.02.29.05.57.08.86.04.44.09.88.14,1.32.01.13.03.26.05.39.05.52.12,1.03.2,1.55.01.11.02.22.04.34.07.48.14.96.22,1.43.03.2.06.4.1.6.06.35.12.7.19,1.05.09.54.2,1.08.31,1.61.09.48.2.96.31,1.44.07.32.14.63.22.95q.84,3.57,2,7.01c.19.57.39,1.13.59,1.69a77.792,77.792,0,0,0,3.72,8.64c.16.32.32.63.48.95.4.77.81,1.53,1.24,2.28.2.38.42.75.63,1.12a79.008,79.008,0,0,0,4.91,7.44c.35.47.71.94,1.07,1.41.24.31.49.62.74.93.93,1.17,1.89,2.3,2.89,3.41.27.31.55.61.82.91.86.92,1.72,1.82,2.61,2.69.42.42.85.83,1.28,1.23s.86.81,1.3,1.2q2.64,2.385,5.48,4.52c.47.35.95.71,1.43,1.05s.96.69,1.45,1.02c.46.32.93.63,1.4.94.87.58,1.76,1.13,2.66,1.67.34.21.68.41,1.03.61,1.01.59,2.04,1.15,3.08,1.7l.93.48a79.781,79.781,0,0,0,10.15,4.29c.33.11.67.22,1,.33.48.16.97.31,1.46.46.53.17,1.06.32,1.59.47.59.17,1.18.33,1.78.48.74.2,1.49.38,2.25.55.58.14,1.16.26,1.75.38s1.16.23,1.74.34c.1.02.2.04.3.05.47.09.95.17,1.43.24.41.07.84.13,1.26.19.46.07.92.13,1.39.19V219.5c-.79-.08-1.58-.17-2.36-.26s-1.56-.2-2.34-.32-1.56-.24-2.33-.37c-.65-.11-1.3-.23-1.95-.35-.18-.04-.35-.07-.53-.11-.71-.14-1.41-.28-2.11-.44-.76-.17-1.52-.34-2.27-.53s-1.51-.37-2.25-.58-1.49-.41-2.23-.63-1.48-.44-2.21-.68c-.71-.22-1.42-.46-2.12-.7-2.2-.76-4.36-1.6-6.48-2.5-1.58-.67-3.13-1.38-4.67-2.13-.51-.26-1.02-.51-1.53-.77-.54-.28-1.09-.56-1.63-.85-.81-.43-1.61-.87-2.39-1.32-.65-.37-1.29-.74-1.93-1.13-.6-.36-1.2-.72-1.79-1.09-.07-.05-.14-.09-.2-.13-.53-.34-1.06-.68-1.58-1.02-.16-.1-.32-.21-.47-.32-.43-.27-.85-.56-1.27-.86-.22-.14-.43-.29-.64-.44-.41-.28-.82-.57-1.22-.87-.56-.39-1.11-.8-1.65-1.22-.38-.27-.75-.55-1.12-.85-.53-.41-1.05-.82-1.57-1.24-.42-.34-.84-.69-1.26-1.04a100.142,100.142,0,0,1-9.92-9.51q-1.485-1.62-2.89-3.32c-1.15-1.39-2.27-2.81-3.34-4.26-.41-.53-.79-1.05-1.17-1.59q-.825-1.155-1.62-2.34c-.35-.51-.68-1.01-1.01-1.53-.16-.24-.31-.48-.46-.72-.28-.43-.55-.86-.81-1.3-.1-.16-.21-.33-.31-.5-.28-.47-.56-.94-.83-1.41-.22-.36-.43-.73-.63-1.1a1.821,1.821,0,0,1-.15-.27c-.35-.61-.69-1.22-1.01-1.84-.35-.65-.7-1.31-1.03-1.97-.38-.74-.75-1.49-1.1-2.25-.6-1.26-1.18-2.54-1.73-3.84-.91-2.16-1.76-4.36-2.52-6.59-.2-.57-.39-1.14-.57-1.72-.29-.89-.56-1.78-.82-2.68-.15-.5-.29-1-.43-1.51-.12-.43-.24-.87-.35-1.3-.05-.21-.11-.42-.16-.64-.13-.51-.26-1.02-.37-1.53-.09-.35-.17-.71-.25-1.07-.09-.39-.17-.77-.25-1.16q-.2-.885-.36-1.77a.772.772,0,0,1-.02-.15c-.13-.62-.24-1.25-.34-1.87-.06-.29-.11-.57-.15-.86-.09-.56-.18-1.12-.26-1.68-.02-.13-.04-.26-.05-.39-.1-.63-.18-1.27-.25-1.91-.04-.31-.08-.62-.11-.93-.06-.46-.11-.93-.14-1.39a6.675,6.675,0,0,1-.07-.77c-.07-.61-.12-1.22-.16-1.83-.05-.7-.09-1.4-.13-2.1-.03-.55-.05-1.09-.06-1.64-.02-.36-.03-.72-.04-1.09-.02-.8-.03-1.61-.03-2.42s.01-1.62.03-2.42c.01-.37.02-.73.04-1.09.01-.55.03-1.09.06-1.64.04-.7.08-1.4.13-2.1.04-.61.09-1.22.16-1.83a6.882,6.882,0,0,1,.07-.77c.03-.46.08-.93.14-1.39.03-.31.07-.62.11-.93.07-.64.15-1.28.25-1.91.01-.13.03-.26.05-.39.08-.56.17-1.12.26-1.68.04-.28.09-.57.15-.86.1-.62.21-1.25.34-1.87a.772.772,0,0,1,.02-.15q.165-.885.36-1.77c.08-.39.16-.77.25-1.16.08-.36.16-.72.25-1.07.11-.51.24-1.02.37-1.53.05-.21.1-.42.16-.64.11-.43.23-.87.35-1.3.14-.51.28-1.01.43-1.51.26-.9.53-1.79.82-2.68.18-.58.37-1.15.57-1.72q1.14-3.345,2.52-6.59c.55-1.29,1.12-2.57,1.73-3.84.35-.75.72-1.5,1.1-2.25.33-.66.68-1.32,1.03-1.97.32-.62.66-1.23,1.01-1.84a1.821,1.821,0,0,1,.15-.27c.2-.37.41-.74.63-1.1.27-.47.55-.94.83-1.41.1-.16.2-.33.31-.5.26-.44.53-.87.81-1.3.15-.24.3-.48.46-.72.33-.52.66-1.02,1.01-1.53.52-.79,1.07-1.57,1.62-2.34.38-.54.76-1.06,1.17-1.59,1.07-1.45,2.19-2.87,3.34-4.26.94-1.13,1.9-2.23,2.89-3.32a100.142,100.142,0,0,1,9.92-9.51c.42-.35.84-.7,1.26-1.04.52-.42,1.04-.84,1.57-1.24.37-.3.74-.58,1.12-.85.55-.43,1.1-.83,1.65-1.22.4-.3.81-.59,1.22-.87.21-.16.43-.31.64-.44.42-.3.84-.59,1.27-.86.16-.12.32-.22.47-.32.52-.34,1.05-.68,1.58-1.02a2.263,2.263,0,0,1,.2-.13c.59-.37,1.19-.73,1.79-1.09.64-.39,1.28-.76,1.93-1.13.79-.46,1.59-.9,2.39-1.32.54-.29,1.09-.57,1.63-.85.51-.26,1.02-.52,1.53-.77,1.54-.75,3.09-1.46,4.67-2.13q3.2-1.365,6.48-2.5c.7-.24,1.41-.48,2.12-.7.73-.24,1.47-.47,2.21-.68s1.48-.43,2.23-.63,1.49-.4,2.25-.58,1.51-.36,2.27-.53c.7-.16,1.4-.3,2.11-.44.18-.04.35-.08.53-.11.65-.12,1.3-.24,1.95-.35.77-.13,1.55-.26,2.33-.37S1266.86,20.86,1267.64,20.76Z"/><path class="cls-1" d="M1380,120c0,.81-.01,1.62-.03,2.42-.01.37-.02.73-.04,1.09-.01.55-.03,1.09-.06,1.64-.04.7-.08,1.4-.13,2.1-.04.61-.09,1.22-.16,1.83a6.675,6.675,0,0,1-.07.77c-.03.46-.08.93-.14,1.39-.03.31-.07.62-.11.93-.07.64-.15,1.28-.25,1.91-.01.13-.03.26-.05.39-.08.56-.17,1.12-.26,1.68-.04.29-.09.57-.15.86-.1.62-.21,1.25-.34,1.87a.772.772,0,0,1-.02.15q-.165.885-.36,1.77c-.08.39-.16.77-.25,1.16-.08.36-.16.72-.25,1.07-.11.51-.24,1.02-.37,1.53-.05.22-.11.43-.16.64-.11.43-.23.87-.35,1.3-.14.51-.28,1.01-.43,1.51-.26.9-.53,1.79-.82,2.68-.18.58-.37,1.15-.57,1.72-.76,2.23-1.61,4.43-2.52,6.59-.55,1.3-1.13,2.58-1.73,3.84-.35.76-.72,1.51-1.1,2.25-.33.66-.68,1.32-1.03,1.97-.32.62-.66,1.23-1.01,1.84a1.821,1.821,0,0,1-.15.27c-.2.37-.41.74-.63,1.1-.27.47-.55.94-.83,1.41-.1.17-.21.34-.31.5-.26.44-.53.87-.81,1.3-.15.24-.3.48-.46.72-.33.52-.66,1.02-1.01,1.53q-.8,1.185-1.62,2.34c-.38.54-.76,1.06-1.17,1.59-1.07,1.45-2.19,2.87-3.34,4.26-.94,1.13-1.9,2.23-2.89,3.32a100.142,100.142,0,0,1-9.92,9.51c-.42.35-.84.7-1.26,1.04-.52.42-1.04.83-1.57,1.24-.37.3-.74.58-1.12.85-.54.42-1.09.83-1.65,1.22-.4.3-.81.59-1.22.87-.21.15-.42.3-.64.44-.42.3-.84.59-1.27.86-.15.11-.31.22-.47.32-.52.34-1.05.68-1.58,1.02-.06.04-.13.08-.2.13-.59.37-1.19.73-1.79,1.09-.64.39-1.28.76-1.93,1.13-.78.45-1.58.89-2.39,1.32-.54.29-1.09.57-1.63.85-.51.26-1.02.51-1.53.77-1.54.75-3.09,1.46-4.67,2.13-2.12.9-4.28,1.74-6.48,2.5-.7.24-1.41.48-2.12.7-.73.24-1.47.47-2.21.68s-1.48.43-2.23.63-1.49.4-2.25.58-1.51.36-2.27.53c-.7.16-1.4.3-2.11.44-.18.04-.35.07-.53.11-.65.12-1.3.24-1.95.35-.77.13-1.55.26-2.33.37s-1.56.22-2.34.32-1.57.18-2.36.26V199.38c.47-.06.93-.12,1.39-.19.42-.06.85-.12,1.26-.19.48-.07.96-.15,1.43-.24.1-.01.2-.03.3-.05.58-.11,1.16-.22,1.74-.34s1.17-.24,1.75-.38c.76-.17,1.51-.35,2.25-.55.6-.15,1.19-.31,1.78-.48.53-.15,1.06-.3,1.59-.47.49-.15.98-.3,1.46-.46.33-.11.67-.22,1-.33a79.781,79.781,0,0,0,10.15-4.29l.93-.48c1.04-.55,2.07-1.11,3.08-1.7.35-.2.69-.4,1.03-.61.9-.54,1.79-1.09,2.66-1.67.47-.31.94-.62,1.4-.94.49-.33.97-.67,1.45-1.02s.96-.7,1.43-1.05q2.835-2.13,5.48-4.52c.44-.39.87-.79,1.3-1.2s.86-.81,1.28-1.23c.89-.87,1.75-1.77,2.61-2.69.27-.3.55-.6.82-.91,1-1.11,1.96-2.24,2.89-3.41.25-.31.5-.62.74-.93.36-.47.72-.94,1.07-1.41a79.008,79.008,0,0,0,4.91-7.44c.21-.37.43-.74.63-1.12.43-.75.84-1.51,1.24-2.28.16-.32.32-.63.48-.95a77.792,77.792,0,0,0,3.72-8.64c.2-.56.4-1.12.59-1.69q1.155-3.435,2-7.01c.08-.32.15-.63.22-.95.11-.48.22-.96.31-1.44.11-.53.22-1.07.31-1.61.07-.35.13-.7.19-1.05.04-.2.07-.4.1-.6.08-.47.15-.95.22-1.43.02-.12.03-.23.04-.34.08-.52.15-1.03.2-1.55.02-.13.04-.26.05-.39.05-.44.1-.88.14-1.32.03-.29.06-.57.08-.86.04-.42.07-.83.1-1.25a.487.487,0,0,1,.01-.12c.04-.6.07-1.2.1-1.8q.045-.87.06-1.74c.02-.69.03-1.37.03-2.06s-.01-1.38-.03-2.06q-.015-.87-.06-1.74c-.03-.6-.06-1.2-.1-1.8a.487.487,0,0,1-.01-.12c-.03-.42-.06-.84-.1-1.25-.02-.29-.05-.58-.08-.86-.04-.44-.09-.88-.14-1.32-.01-.13-.03-.26-.05-.39-.06-.52-.12-1.04-.2-1.55-.01-.12-.02-.23-.04-.34-.07-.48-.14-.96-.22-1.43-.03-.2-.06-.4-.1-.6-.06-.35-.12-.7-.19-1.05-.09-.54-.2-1.08-.31-1.61-.09-.48-.2-.96-.31-1.44-.07-.32-.14-.63-.22-.95q-.84-3.57-2-7.01c-.19-.56-.38-1.13-.59-1.69a77.792,77.792,0,0,0-3.72-8.64c-.16-.32-.32-.64-.48-.95-.4-.77-.81-1.53-1.24-2.28-.2-.38-.42-.75-.63-1.12a80.325,80.325,0,0,0-4.91-7.44c-.35-.47-.71-.94-1.07-1.41-.24-.31-.49-.63-.74-.93-.92-1.16-1.89-2.3-2.89-3.41-.27-.31-.54-.61-.82-.91-.57-.61-1.14-1.22-1.73-1.81-.29-.3-.58-.59-.88-.88-.42-.42-.85-.83-1.28-1.23s-.86-.81-1.3-1.2q-2.64-2.385-5.48-4.52c-.47-.35-.95-.71-1.43-1.05s-.96-.69-1.45-1.02c-.46-.32-.93-.63-1.4-.94-.87-.58-1.76-1.13-2.66-1.67-.34-.21-.68-.41-1.03-.61-1.01-.59-2.04-1.16-3.08-1.7l-.93-.48a79.781,79.781,0,0,0-10.15-4.29c-.33-.11-.67-.22-1-.33-.48-.16-.97-.32-1.46-.46-.53-.17-1.06-.32-1.59-.47-.59-.17-1.18-.33-1.78-.48-.74-.2-1.5-.38-2.25-.55-.58-.14-1.16-.26-1.75-.38s-1.16-.23-1.74-.34c-.1-.02-.2-.04-.3-.05-.47-.09-.95-.17-1.43-.24-.42-.07-.84-.13-1.26-.19-.46-.07-.92-.13-1.39-.19V20.5c.79.07,1.57.16,2.36.26s1.56.2,2.34.32,1.56.24,2.33.37c.65.11,1.3.23,1.95.35.18.03.35.07.53.11.71.14,1.41.28,2.11.44.76.17,1.52.34,2.27.53s1.51.37,2.25.58,1.49.41,2.23.63,1.48.44,2.21.68c.71.22,1.42.46,2.12.7q3.285,1.14,6.48,2.5c1.58.67,3.13,1.38,4.67,2.13.51.25,1.02.51,1.53.77.54.28,1.09.56,1.63.85.8.42,1.6.86,2.39,1.32.65.37,1.29.74,1.93,1.13.6.36,1.2.72,1.79,1.09a2.263,2.263,0,0,1,.2.13c.53.34,1.06.68,1.58,1.02.15.1.31.2.47.32.43.27.85.56,1.27.86.21.13.43.28.64.44.41.28.82.57,1.22.87.55.39,1.1.79,1.65,1.22.38.27.75.55,1.12.85.53.4,1.05.82,1.57,1.24.42.34.84.69,1.26,1.04a100.142,100.142,0,0,1,9.92,9.51c.99,1.09,1.95,2.19,2.89,3.32,1.15,1.39,2.27,2.81,3.34,4.26.41.53.79,1.05,1.17,1.59.55.77,1.1,1.55,1.62,2.34.35.51.68,1.01,1.01,1.53.16.24.31.48.46.72.28.43.55.86.81,1.3.11.17.21.34.31.5.28.47.56.94.83,1.41.22.36.43.73.63,1.1a1.821,1.821,0,0,1,.15.27c.35.61.69,1.22,1.01,1.84.35.65.7,1.31,1.03,1.97.38.75.75,1.5,1.1,2.25.61,1.27,1.18,2.55,1.73,3.84q1.38,3.24,2.52,6.59c.2.57.39,1.14.57,1.72.29.89.56,1.78.82,2.68.15.5.29,1,.43,1.51.12.43.24.87.35,1.3.06.22.11.43.16.64.13.51.26,1.02.37,1.53.09.35.17.71.25,1.07.09.39.17.77.25,1.16q.2.885.36,1.77a.772.772,0,0,1,.02.15c.13.62.24,1.25.34,1.87.06.29.11.58.15.86.09.56.18,1.12.26,1.68.02.13.04.26.05.39.1.63.18,1.27.25,1.91.04.31.08.62.11.93.06.46.11.93.14,1.39a6.882,6.882,0,0,1,.07.77c.07.61.12,1.22.16,1.83.05.7.09,1.4.13,2.1.03.55.05,1.09.06,1.64.02.36.03.72.04,1.09C1379.99,118.38,1380,119.19,1380,120Z"/><path class="cls-2" d="M1290,20.5V40.62a80.955,80.955,0,0,0-20,0V20.5c3.29-.33,6.63-.5,10-.5S1286.71,20.17,1290,20.5Z"/><path class="cls-1" d="M1200.03,117.94c-.02.68-.03,1.37-.03,2.06s.01,1.37.03,2.06q.015.87.06,1.74c.03.6.06,1.2.1,1.8a.487.487,0,0,1,.01.12c.03.42.06.83.1,1.25.02.29.05.57.08.86.04.44.09.88.14,1.32.01.13.03.26.05.39.05.52.12,1.03.2,1.55.01.11.02.22.04.34.07.48.14.96.22,1.43.03.2.06.4.1.6.06.35.12.7.19,1.05.09.54.2,1.08.31,1.61.09.48.2.96.31,1.44.07.32.14.63.22.95q.84,3.57,2,7.01c.19.57.39,1.13.59,1.69a77.792,77.792,0,0,0,3.72,8.64c.16.32.32.63.48.95.4.77.81,1.53,1.24,2.28.2.38.42.75.63,1.12a79.008,79.008,0,0,0,4.91,7.44c.35.47.71.94,1.07,1.41.24.31.49.62.74.93.93,1.17,1.89,2.3,2.89,3.41.27.31.55.61.82.91.86.92,1.72,1.82,2.61,2.69.42.42.85.83,1.28,1.23s.86.81,1.3,1.2q2.64,2.385,5.48,4.52c.47.35.95.71,1.43,1.05s.96.69,1.45,1.02c.46.32.93.63,1.4.94.87.58,1.76,1.13,2.66,1.67.34.21.68.41,1.03.61,1.01.59,2.04,1.15,3.08,1.7l.93.48a79.781,79.781,0,0,0,10.15,4.29c.33.11.67.22,1,.33.48.16.97.31,1.46.46.53.17,1.06.32,1.59.47.59.17,1.18.33,1.78.48.74.2,1.49.38,2.25.55.58.14,1.16.26,1.75.38s1.16.23,1.74.34c.1.02.2.04.3.05.47.09.95.17,1.43.24.41.07.84.13,1.26.19.46.07.92.13,1.39.19V219.5c-.79-.08-1.58-.17-2.36-.26s-1.56-.2-2.34-.32-1.56-.24-2.33-.37c-.65-.11-1.3-.23-1.95-.35-.18-.04-.35-.07-.53-.11-.71-.14-1.41-.28-2.11-.44-.76-.17-1.52-.34-2.27-.53s-1.51-.37-2.25-.58-1.49-.41-2.23-.63-1.48-.44-2.21-.68c-.71-.22-1.42-.46-2.12-.7-2.2-.76-4.36-1.6-6.48-2.5-1.58-.67-3.13-1.38-4.67-2.13-.51-.26-1.02-.51-1.53-.77-.54-.28-1.09-.56-1.63-.85-.81-.43-1.61-.87-2.39-1.32-.65-.37-1.29-.74-1.93-1.13-.6-.36-1.2-.72-1.79-1.09-.07-.05-.14-.09-.2-.13-.53-.34-1.06-.68-1.58-1.02-.16-.1-.32-.21-.47-.32-.43-.27-.85-.56-1.27-.86-.22-.14-.43-.29-.64-.44-.41-.28-.82-.57-1.22-.87-.56-.39-1.11-.8-1.65-1.22-.38-.27-.75-.55-1.12-.85-.53-.41-1.05-.82-1.57-1.24-.42-.34-.84-.69-1.26-1.04a100.142,100.142,0,0,1-9.92-9.51q-1.485-1.62-2.89-3.32c-1.15-1.39-2.27-2.81-3.34-4.26-.41-.53-.79-1.05-1.17-1.59q-.825-1.155-1.62-2.34c-.35-.51-.68-1.01-1.01-1.53-.16-.24-.31-.48-.46-.72-.28-.43-.55-.86-.81-1.3-.1-.16-.21-.33-.31-.5-.28-.47-.56-.94-.83-1.41-.22-.36-.43-.73-.63-1.1a1.821,1.821,0,0,1-.15-.27c-.35-.61-.69-1.22-1.01-1.84-.35-.65-.7-1.31-1.03-1.97-.38-.74-.75-1.49-1.1-2.25-.6-1.26-1.18-2.54-1.73-3.84-.91-2.16-1.76-4.36-2.52-6.59-.2-.57-.39-1.14-.57-1.72-.29-.89-.56-1.78-.82-2.68-.15-.5-.29-1-.43-1.51-.12-.43-.24-.87-.35-1.3-.05-.21-.11-.42-.16-.64-.13-.51-.26-1.02-.37-1.53-.09-.35-.17-.71-.25-1.07-.09-.39-.17-.77-.25-1.16q-.2-.885-.36-1.77a.772.772,0,0,1-.02-.15c-.13-.62-.24-1.25-.34-1.87-.06-.29-.11-.57-.15-.86-.09-.56-.18-1.12-.26-1.68-.02-.13-.04-.26-.05-.39-.1-.63-.18-1.27-.25-1.91-.04-.31-.08-.62-.11-.93-.06-.46-.11-.93-.14-1.39a6.675,6.675,0,0,1-.07-.77c-.07-.61-.12-1.22-.16-1.83-.05-.7-.09-1.4-.13-2.1-.03-.55-.05-1.09-.06-1.64-.02-.36-.03-.72-.04-1.09-.02-.8-.03-1.61-.03-2.42s.01-1.62.03-2.42c.01-.37.02-.73.04-1.09.01-.55.03-1.09.06-1.64.04-.7.08-1.4.13-2.1.04-.61.09-1.22.16-1.83a6.882,6.882,0,0,1,.07-.77c.03-.46.08-.93.14-1.39.03-.31.07-.62.11-.93.07-.64.15-1.28.25-1.91.01-.13.03-.26.05-.39.08-.56.17-1.12.26-1.68.04-.28.09-.57.15-.86.1-.62.21-1.25.34-1.87a.772.772,0,0,1,.02-.15q.165-.885.36-1.77c.08-.39.16-.77.25-1.16.08-.36.16-.72.25-1.07.11-.51.24-1.02.37-1.53.05-.21.1-.42.16-.64.11-.43.23-.87.35-1.3.14-.51.28-1.01.43-1.51.26-.9.53-1.79.82-2.68.18-.58.37-1.15.57-1.72q1.14-3.345,2.52-6.59c.55-1.29,1.12-2.57,1.73-3.84.35-.75.72-1.5,1.1-2.25.33-.66.68-1.32,1.03-1.97.32-.62.66-1.23,1.01-1.84a1.821,1.821,0,0,1,.15-.27c.2-.37.41-.74.63-1.1.27-.47.55-.94.83-1.41.1-.16.2-.33.31-.5.26-.44.53-.87.81-1.3.15-.24.3-.48.46-.72.33-.52.66-1.02,1.01-1.53.52-.79,1.07-1.57,1.62-2.34.38-.54.76-1.06,1.17-1.59,1.07-1.45,2.19-2.87,3.34-4.26.94-1.13,1.9-2.23,2.89-3.32a100.142,100.142,0,0,1,9.92-9.51c.42-.35.84-.7,1.26-1.04.52-.42,1.04-.84,1.57-1.24.37-.3.74-.58,1.12-.85.55-.43,1.1-.83,1.65-1.22.4-.3.81-.59,1.22-.87.21-.16.43-.31.64-.44.42-.3.84-.59,1.27-.86.16-.12.32-.22.47-.32.52-.34,1.05-.68,1.58-1.02a2.263,2.263,0,0,1,.2-.13c.59-.37,1.19-.73,1.79-1.09.64-.39,1.28-.76,1.93-1.13.79-.46,1.59-.9,2.39-1.32.54-.29,1.09-.57,1.63-.85.51-.26,1.02-.52,1.53-.77,1.54-.75,3.09-1.46,4.67-2.13q3.2-1.365,6.48-2.5c.7-.24,1.41-.48,2.12-.7.73-.24,1.47-.47,2.21-.68s1.48-.43,2.23-.63,1.49-.4,2.25-.58,1.51-.36,2.27-.53c.7-.16,1.4-.3,2.11-.44.18-.04.35-.08.53-.11.65-.12,1.3-.24,1.95-.35.77-.13,1.55-.26,2.33-.37s1.56-.22,2.34-.32,1.57-.19,2.36-.26V40.62c-.47.06-.93.12-1.39.19-.42.06-.84.12-1.26.19-.48.07-.96.15-1.43.24-.1.01-.2.03-.3.05-.58.11-1.16.22-1.74.34s-1.17.24-1.75.38c-.75.17-1.51.35-2.25.55-.6.15-1.19.31-1.78.48-.53.15-1.06.3-1.59.47-.49.14-.98.3-1.46.46-.33.11-.67.22-1,.33a79.781,79.781,0,0,0-10.15,4.29l-.93.48c-1.04.54-2.07,1.11-3.08,1.7-.35.2-.69.4-1.03.61-.9.54-1.79,1.09-2.66,1.67-.47.31-.94.62-1.4.94-.49.33-.97.67-1.45,1.02s-.96.69-1.43,1.05q-2.835,2.13-5.48,4.52c-.44.39-.87.79-1.3,1.2s-.86.81-1.28,1.23c-.3.29-.59.58-.88.88-.59.59-1.16,1.2-1.73,1.81-.28.3-.55.6-.82.91-1,1.11-1.97,2.25-2.89,3.41-.25.3-.5.62-.74.93-.36.46-.72.94-1.07,1.41a80.325,80.325,0,0,0-4.91,7.44c-.21.37-.43.74-.63,1.12-.43.75-.84,1.51-1.24,2.28-.16.31-.32.63-.48.95a77.792,77.792,0,0,0-3.72,8.64c-.21.56-.4,1.13-.59,1.69q-1.155,3.435-2,7.01c-.08.32-.15.63-.22.95-.11.48-.22.96-.31,1.44-.11.53-.22,1.07-.31,1.61-.07.35-.13.7-.19,1.05-.04.2-.07.4-.1.6-.08.47-.15.95-.22,1.43-.02.11-.03.22-.04.34-.08.51-.14,1.03-.2,1.55-.02.13-.04.26-.05.39-.05.44-.1.88-.14,1.32-.03.28-.06.57-.08.86-.04.41-.07.83-.1,1.25a.487.487,0,0,1-.01.12c-.04.6-.07,1.2-.1,1.8Q1200.045,117.07,1200.03,117.94Z"/><path class="cls-1" d="M1380,120c0,.81-.01,1.62-.03,2.42-.01.37-.02.73-.04,1.09-.01.55-.03,1.09-.06,1.64-.04.7-.08,1.4-.13,2.1-.04.61-.09,1.22-.16,1.83a6.675,6.675,0,0,1-.07.77c-.03.46-.08.93-.14,1.39-.03.31-.07.62-.11.93-.07.64-.15,1.28-.25,1.91-.01.13-.03.26-.05.39-.08.56-.17,1.12-.26,1.68-.04.29-.09.57-.15.86-.1.62-.21,1.25-.34,1.87a.772.772,0,0,1-.02.15q-.165.885-.36,1.77c-.08.39-.16.77-.25,1.16-.08.36-.16.72-.25,1.07-.11.51-.24,1.02-.37,1.53-.05.22-.11.43-.16.64-.11.43-.23.87-.35,1.3-.14.51-.28,1.01-.43,1.51-.26.9-.53,1.79-.82,2.68-.18.58-.37,1.15-.57,1.72-.76,2.23-1.61,4.43-2.52,6.59-.55,1.3-1.13,2.58-1.73,3.84-.35.76-.72,1.51-1.1,2.25-.33.66-.68,1.32-1.03,1.97-.32.62-.66,1.23-1.01,1.84a1.821,1.821,0,0,1-.15.27c-.2.37-.41.74-.63,1.1-.27.47-.55.94-.83,1.41-.1.17-.21.34-.31.5-.26.44-.53.87-.81,1.3-.15.24-.3.48-.46.72-.33.52-.66,1.02-1.01,1.53q-.8,1.185-1.62,2.34c-.38.54-.76,1.06-1.17,1.59-1.07,1.45-2.19,2.87-3.34,4.26-.94,1.13-1.9,2.23-2.89,3.32a100.142,100.142,0,0,1-9.92,9.51c-.42.35-.84.7-1.26,1.04-.52.42-1.04.83-1.57,1.24-.37.3-.74.58-1.12.85-.54.42-1.09.83-1.65,1.22-.4.3-.81.59-1.22.87-.21.15-.42.3-.64.44-.42.3-.84.59-1.27.86-.15.11-.31.22-.47.32-.52.34-1.05.68-1.58,1.02-.06.04-.13.08-.2.13-.59.37-1.19.73-1.79,1.09-.64.39-1.28.76-1.93,1.13-.78.45-1.58.89-2.39,1.32-.54.29-1.09.57-1.63.85-.51.26-1.02.51-1.53.77-1.54.75-3.09,1.46-4.67,2.13-2.12.9-4.28,1.74-6.48,2.5-.7.24-1.41.48-2.12.7-.73.24-1.47.47-2.21.68s-1.48.43-2.23.63-1.49.4-2.25.58-1.51.36-2.27.53c-.7.16-1.4.3-2.11.44-.18.04-.35.07-.53.11-.65.12-1.3.24-1.95.35-.77.13-1.55.26-2.33.37s-1.56.22-2.34.32-1.57.18-2.36.26V199.38c.47-.06.93-.12,1.39-.19.42-.06.85-.12,1.26-.19.48-.07.96-.15,1.43-.24.1-.01.2-.03.3-.05.58-.11,1.16-.22,1.74-.34s1.17-.24,1.75-.38c.76-.17,1.51-.35,2.25-.55.6-.15,1.19-.31,1.78-.48.53-.15,1.06-.3,1.59-.47.49-.15.98-.3,1.46-.46.33-.11.67-.22,1-.33a79.781,79.781,0,0,0,10.15-4.29l.93-.48c1.04-.55,2.07-1.11,3.08-1.7.35-.2.69-.4,1.03-.61.9-.54,1.79-1.09,2.66-1.67.47-.31.94-.62,1.4-.94.49-.33.97-.67,1.45-1.02s.96-.7,1.43-1.05q2.835-2.13,5.48-4.52c.44-.39.87-.79,1.3-1.2s.86-.81,1.28-1.23c.89-.87,1.75-1.77,2.61-2.69.27-.3.55-.6.82-.91,1-1.11,1.96-2.24,2.89-3.41.25-.31.5-.62.74-.93.36-.47.72-.94,1.07-1.41a79.008,79.008,0,0,0,4.91-7.44c.21-.37.43-.74.63-1.12.43-.75.84-1.51,1.24-2.28.16-.32.32-.63.48-.95a77.792,77.792,0,0,0,3.72-8.64c.2-.56.4-1.12.59-1.69q1.155-3.435,2-7.01c.08-.32.15-.63.22-.95.11-.48.22-.96.31-1.44.11-.53.22-1.07.31-1.61.07-.35.13-.7.19-1.05.04-.2.07-.4.1-.6.08-.47.15-.95.22-1.43.02-.12.03-.23.04-.34.08-.52.15-1.03.2-1.55.02-.13.04-.26.05-.39.05-.44.1-.88.14-1.32.03-.29.06-.57.08-.86.04-.42.07-.83.1-1.25a.487.487,0,0,1,.01-.12c.04-.6.07-1.2.1-1.8q.045-.87.06-1.74c.02-.69.03-1.37.03-2.06s-.01-1.38-.03-2.06q-.015-.87-.06-1.74c-.03-.6-.06-1.2-.1-1.8a.487.487,0,0,1-.01-.12c-.03-.42-.06-.84-.1-1.25-.02-.29-.05-.58-.08-.86-.04-.44-.09-.88-.14-1.32-.01-.13-.03-.26-.05-.39-.06-.52-.12-1.04-.2-1.55-.01-.12-.02-.23-.04-.34-.07-.48-.14-.96-.22-1.43-.03-.2-.06-.4-.1-.6-.06-.35-.12-.7-.19-1.05-.09-.54-.2-1.08-.31-1.61-.09-.48-.2-.96-.31-1.44-.07-.32-.14-.63-.22-.95q-.84-3.57-2-7.01c-.19-.56-.38-1.13-.59-1.69a77.792,77.792,0,0,0-3.72-8.64c-.16-.32-.32-.64-.48-.95-.4-.77-.81-1.53-1.24-2.28-.2-.38-.42-.75-.63-1.12a80.325,80.325,0,0,0-4.91-7.44c-.35-.47-.71-.95-1.07-1.41-.24-.31-.49-.63-.74-.93-.92-1.16-1.89-2.3-2.89-3.41-.27-.31-.54-.61-.82-.91-.57-.61-1.14-1.22-1.73-1.81-.29-.3-.58-.59-.88-.88-.42-.42-.85-.83-1.28-1.23s-.86-.81-1.3-1.2q-2.64-2.385-5.48-4.52c-.47-.36-.95-.71-1.43-1.05s-.96-.69-1.45-1.02c-.46-.32-.93-.63-1.4-.94-.87-.58-1.76-1.13-2.66-1.67-.34-.21-.68-.41-1.03-.61-1.01-.59-2.04-1.16-3.08-1.7l-.93-.48a79.781,79.781,0,0,0-10.15-4.29c-.33-.11-.67-.22-1-.33-.48-.16-.97-.32-1.46-.46-.53-.17-1.06-.32-1.59-.47-.59-.17-1.18-.33-1.78-.48-.74-.2-1.5-.38-2.25-.55-.58-.14-1.16-.26-1.75-.38s-1.16-.23-1.74-.34c-.1-.02-.2-.04-.3-.05-.47-.09-.95-.17-1.43-.24-.42-.07-.84-.13-1.26-.19-.46-.07-.92-.13-1.39-.19V20.5c.79.07,1.57.16,2.36.26s1.56.2,2.34.32,1.56.24,2.33.37c.65.11,1.3.23,1.95.35.18.03.35.07.53.11.71.14,1.41.28,2.11.44.76.17,1.52.34,2.27.53s1.51.37,2.25.58,1.49.41,2.23.63,1.48.44,2.21.68c.71.22,1.42.46,2.12.7q3.285,1.14,6.48,2.5c1.58.67,3.13,1.38,4.67,2.13.51.25,1.02.51,1.53.77.54.28,1.09.56,1.63.85.8.42,1.6.86,2.39,1.32.65.37,1.29.74,1.93,1.13.6.36,1.2.72,1.79,1.09a2.263,2.263,0,0,1,.2.13c.53.34,1.06.68,1.58,1.02.15.1.31.2.47.32.43.27.85.56,1.27.86.21.13.43.28.64.44.41.28.82.57,1.22.87.55.39,1.1.79,1.65,1.22.38.27.75.55,1.12.85.53.4,1.05.82,1.57,1.24.42.34.84.69,1.26,1.04a100.142,100.142,0,0,1,9.92,9.51c.99,1.09,1.95,2.19,2.89,3.32,1.15,1.39,2.27,2.81,3.34,4.26.41.53.79,1.05,1.17,1.59.55.77,1.1,1.55,1.62,2.34.35.51.68,1.01,1.01,1.53.16.24.31.48.46.72.28.43.55.86.81,1.3.11.17.21.34.31.5.28.47.56.94.83,1.41.22.36.43.73.63,1.1a1.821,1.821,0,0,1,.15.27c.35.61.69,1.22,1.01,1.84.35.65.7,1.31,1.03,1.97.38.75.75,1.5,1.1,2.25.61,1.27,1.18,2.55,1.73,3.84q1.38,3.24,2.52,6.59c.2.57.39,1.14.57,1.72.29.89.56,1.78.82,2.68.15.5.29,1,.43,1.51.12.43.24.87.35,1.3.06.22.11.43.16.64.13.51.26,1.02.37,1.53.09.35.17.71.25,1.07.09.39.17.77.25,1.16q.2.885.36,1.77a.772.772,0,0,1,.02.15c.13.62.24,1.25.34,1.87.06.29.11.58.15.86.09.56.18,1.12.26,1.68.02.13.04.26.05.39.1.63.18,1.27.25,1.91.04.31.08.62.11.93.06.46.11.93.14,1.39a6.882,6.882,0,0,1,.07.77c.07.61.12,1.22.16,1.83.05.7.09,1.4.13,2.1.03.55.05,1.09.06,1.64.02.36.03.72.04,1.09C1379.99,118.38,1380,119.19,1380,120Z"/><path class="cls-2" d="M1310,10a10,10,0,0,1-10,10h-40a10,10,0,0,1,0-20h40A10,10,0,0,1,1310,10Z"/><path class="cls-2" d="M1310,230a10,10,0,0,1-10,10h-40a10,10,0,0,1,0-20h40A10,10,0,0,1,1310,230Z"/></g></g></g></svg>