<svg id="Complete" xmlns="http://www.w3.org/2000/svg" viewBox="0 0 235 210"><defs><style>.cls-1{fill:#121221;}.cls-2{fill:#366ce1;}</style></defs><title>timely</title><g id="timely"><path class="cls-1" d="M510,490a50,50,0,1,1-50-50v10a40,40,0,1,0,40,40Z" transform="translate(-345 -440)"/><circle class="cls-1" cx="115" cy="5" r="5"/><circle class="cls-1" cx="160" cy="50" r="5"/><rect class="cls-2" x="110" y="35" width="10" height="30" rx="5"/><rect class="cls-2" x="100" y="45" width="30" height="10" rx="5"/><path class="cls-1" d="M514.875,572.5a25,25,0,0,0-40.695-16.855q-.967.795-1.855,1.68t-1.68,1.855a24.907,24.907,0,0,0-5.52,13.32,25.063,25.063,0,0,0,0,5A25,25,0,0,0,503.3,596.17a2.505,2.505,0,0,0,.446-3.892h0a2.492,2.492,0,0,0-3.092-.347,20.006,20.006,0,0,1-30.5-14.431h42.33A2.5,2.5,0,0,0,515,575.025V575A24.26,24.26,0,0,0,514.875,572.5Zm-44.72,0a19.953,19.953,0,0,1,4.045-9.765,20.39,20.39,0,0,1,3.535-3.535,20,20,0,0,1,32.11,13.3Z" transform="translate(-345 -440)"/><rect class="cls-1" x="175" y="60" width="5" height="100" rx="2.5"/><path class="cls-1" d="M465.125,577.5H465V575A24.26,24.26,0,0,0,465.125,577.5Z" transform="translate(-345 -440)"/><path class="cls-1" d="M465.125,572.5A24.26,24.26,0,0,0,465,575v-2.5Z" transform="translate(-345 -440)"/><path class="cls-1" d="M480,572.5V575a24.26,24.26,0,0,0-.125-2.5Z" transform="translate(-345 -440)"/><path class="cls-1" d="M480,575v2.5h-.125A24.26,24.26,0,0,0,480,575Z" transform="translate(-345 -440)"/><path class="cls-1" d="M472.325,557.325q-.885.885-1.68,1.855l-.09-.09Z" transform="translate(-345 -440)"/><path class="cls-1" d="M474.18,555.645q-.967.795-1.855,1.68l1.765-1.77Z" transform="translate(-345 -440)"/><path class="cls-1" d="M460,563.75V597.5a2.5,2.5,0,1,1-5,0V563.75a8.75,8.75,0,0,0-17.5,0V597.5a2.5,2.5,0,1,1-5,0V563.75a8.75,8.75,0,0,0-17.5,0V597.5a2.5,2.5,0,1,1-5,0v-45a2.5,2.5,0,0,1,5,0v.64a13.754,13.754,0,0,1,20,2.705A13.747,13.747,0,0,1,459.475,560,13.456,13.456,0,0,1,460,563.75Z" transform="translate(-345 -440)"/><rect class="cls-1" x="45" y="110" width="5" height="50" rx="2.5"/><circle class="cls-1" cx="47.5" cy="102.5" r="2.5"/><path class="cls-1" d="M392.359,575a2.508,2.508,0,0,1,2.486,2.8A25,25,0,0,1,345,575c0-.64.025-1.27.075-1.9a2.406,2.406,0,0,1-.075-.6V502.609a2.573,2.573,0,0,1,2.253-2.6A2.5,2.5,0,0,1,350,502.5v57.505a24.968,24.968,0,0,1,17.2-9.85,2.51,2.51,0,0,1,2.8,2.486h0a2.508,2.508,0,0,1-2.245,2.484,20,20,0,1,0,22.12,22.12A2.508,2.508,0,0,1,392.359,575Z" transform="translate(-345 -440)"/><path class="cls-1" d="M580,552.5v72.088c0,13.707-10.862,25.177-24.567,25.408a25.008,25.008,0,0,1-25.277-22.184A2.513,2.513,0,0,1,532.64,625h0a2.51,2.51,0,0,1,2.485,2.252A20,20,0,0,0,554.612,645c11.211.214,20.388-9.178,20.388-20.391V590a25,25,0,0,1-44.495-10,24.58,24.58,0,0,1-.5-5V552.62A2.591,2.591,0,0,1,532.591,550,2.491,2.491,0,0,1,535,552.5v22.105c0,11.213,9.177,20.605,20.388,20.391A20,20,0,0,0,575,575V552.62A2.591,2.591,0,0,1,577.591,550,2.491,2.491,0,0,1,580,552.5Z" transform="translate(-345 -440)"/></g></svg>