<svg xmlns="http://www.w3.org/2000/svg" viewBox="0 0 610 110"><defs><style>.cls-1{fill:#121221;}.cls-2{fill:#366ce1;}</style></defs><title>time</title><g id="Слой_2" data-name="Слой 2"><g id="Work_space" data-name="Work space"><g id="time"><polygon class="cls-1" points="160 30 160 90 180 90 180 110 120 110 120 90 140 90 140 30 120 30 120 10 180 10 180 30 160 30"/><polygon class="cls-1" points="300 10 300 110 280 110 280 40.59 263.2 60.05 249.99 75.36 236.78 60.05 220 40.62 220 110 200 110 200 10 220 10 220 10.01 249.99 44.75 279.98 10 300 10"/><polygon class="cls-1" points="340 30 340 50 420 50 420 70 340 70 340 90 420 90 420 110 320 110 320 10 420 10 420 30 340 30"/><polygon class="cls-1" points="100 10 100 30 60 30 60 110 40 110 40 30 0 30 0 10 100 10"/><path class="cls-2" d="M560,0V11.01a50.01,50.01,0,0,0-20,0V0Z"/><path class="cls-2" d="M610,50V70H598.99a50.01,50.01,0,0,0,0-20Z"/><path class="cls-1" d="M598.99,50A50.021,50.021,0,0,0,560,11.01a50.01,50.01,0,0,0-20,0A50,50,0,1,0,598.99,70a50.01,50.01,0,0,0,0-20ZM550,90a30,30,0,1,1,30-30A30,30,0,0,1,550,90Z"/></g></g></g></svg>