<svg xmlns="http://www.w3.org/2000/svg" viewBox="0 0 1330 200"><defs><style>.cls-1{fill:#121221;}.cls-2{fill:#366ce1;}</style></defs><title>time billing</title><g id="Слой_2" data-name="Слой 2"><g id="Work_space" data-name="Work space"><g id="time_billing" data-name="time billing"><polygon class="cls-1" points="800 70 800 130 820 130 820 150 760 150 760 130 780 130 780 70 760 70 760 50 820 50 820 70 800 70"/><polygon class="cls-1" points="1090 70 1090 130 1110 130 1110 150 1050 150 1050 130 1070 130 1070 70 1050 70 1050 50 1110 50 1110 70 1090 70"/><polygon class="cls-1" points="1220 50 1220 150 1200 150 1140 80.59 1140 150 1120 150 1120 50 1140 50 1200 119.41 1200 50 1220 50"/><polygon class="cls-1" points="1040 130 1040 150 940 150 940 50 960 50 960 130 1040 130"/><polygon class="cls-1" points="930 130 930 150 830 150 830 50 850 50 850 130 930 130"/><path class="cls-1" d="M750,80a30,30,0,0,0-30-30H650V150h70a29.991,29.991,0,0,0,22.35-50A29.862,29.862,0,0,0,750,80ZM670,70h50a10,10,0,0,1,0,20H670Zm50,60H670V110h50a10,10,0,0,1,0,20Z"/><path class="cls-1" d="M1330,90v10a49.16,49.16,0,0,1-1.01,10,50.013,50.013,0,1,1-13.64-45.35l-14.14,14.14a30,30,0,1,0,7.07,31.21H1280V90Z"/><polygon class="cls-2" points="380 70 380 130 400 130 400 150 340 150 340 130 360 130 360 70 340 70 340 50 400 50 400 70 380 70"/><polygon class="cls-2" points="510 50 510 150 490 150 490 80.59 473.2 100.05 459.99 115.36 446.78 100.05 430 80.62 430 150 410 150 410 50 430 50 430 50.01 459.99 84.75 489.98 50 510 50"/><polygon class="cls-2" points="540 70 540 90 620 90 620 110 540 110 540 130 620 130 620 150 520 150 520 50 620 50 620 70 540 70"/><polygon class="cls-2" points="330 50 330 70 290 70 290 150 270 150 270 70 230 70 230 50 330 50"/><path class="cls-1" d="M100,0A100,100,0,1,0,200,100,100,100,0,0,0,100,0Zm0,180a80,80,0,1,1,80-80A80,80,0,0,1,100,180Z"/><path class="cls-2" d="M160,100a19.994,19.994,0,0,1-20,20H100a20,20,0,0,1,0-40h40A19.994,19.994,0,0,1,160,100Z"/></g></g></g></svg>