<svg xmlns="http://www.w3.org/2000/svg" viewBox="0 0 800 199.98"><defs><style>.cls-1{fill:#121221;}.cls-2{fill:#366ce1;}</style></defs><title>tipalti</title><g id="Слой_2" data-name="Слой 2"><g id="Work_space" data-name="Work space"><g id="tipalti"><path class="cls-1" d="M800,100a99.978,99.978,0,0,1-98.71,99.98A50,50,0,0,0,700,100,50,50,0,0,1,698.71.02c.43-.01.86-.02,1.29-.02s.86.01,1.29.02A99.978,99.978,0,0,1,800,100Z"/><circle class="cls-2" cx="700" cy="49.98" r="30"/><polygon class="cls-1" points="150 69.99 150 129.99 170 129.99 170 149.99 110 149.99 110 129.99 130 129.99 130 69.99 110 69.99 110 49.99 170 49.99 170 69.99 150 69.99"/><polygon class="cls-1" points="475 129.99 475 149.99 375 149.99 375 49.99 395 49.99 395 129.99 475 129.99"/><path class="cls-1" d="M325.77,51.94l-.78-1.95H305.01l-.78,1.94L265,149.99h21.55l11.2-28h34.5l11.2,28H365Zm-20.02,50.05L315,78.86l9.25,23.13Z"/><path class="cls-1" d="M250,49.99H180v100h20v-40h50a30,30,0,1,0,0-60Zm0,40H200v-20h50a10,10,0,0,1,0,20Z"/><polygon class="cls-1" points="100 49.99 100 69.99 60 69.99 60 149.99 40 149.99 40 69.99 0 69.99 0 49.99 100 49.99"/><polygon class="cls-1" points="595 69.99 595 129.99 615 129.99 615 149.99 555 149.99 555 129.99 575 129.99 575 69.99 555 69.99 555 49.99 615 49.99 615 69.99 595 69.99"/><polygon class="cls-1" points="545 49.99 545 69.99 505 69.99 505 149.99 485 149.99 485 69.99 445 69.99 445 49.99 545 49.99"/></g></g></g></svg>