<svg xmlns="http://www.w3.org/2000/svg" viewBox="0 0 610 270"><defs><style>.cls-1{fill:#366ce1;}.cls-2{fill:#121221;}</style></defs><title>tivic health</title><g id="Слой_2" data-name="Слой 2"><g id="Work_space" data-name="Work space"><g id="tivic_health" data-name="tivic health"><polygon class="cls-1" points="610 170 610 270 590 270 590 230 530 230 530 270 510 270 510 170 530 170 530 210 590 210 590 170 610 170"/><polygon class="cls-1" points="100 170 100 270 80 270 80 230 20 230 20 270 0 270 0 170 20 170 20 210 80 210 80 170 100 170"/><polygon class="cls-1" points="130 190 130 210 210 210 210 230 130 230 130 250 210 250 210 270 110 270 110 170 210 170 210 190 130 190"/><polygon class="cls-1" points="430 250 430 270 330 270 330 170 350 170 350 250 430 250"/><path class="cls-1" d="M280.77,171.95l-.78-1.95H260.01l-.78,1.94L220,270h21.55l11.2-28h34.5l11.2,28H320ZM260.75,222,270,198.87,279.25,222Z"/><polygon class="cls-1" points="500 170 500 190 460 190 460 270 440 270 440 190 400 190 400 170 500 170"/><polygon class="cls-2" points="369.98 20 330.76 118.07 329.99 120 309.99 120 309.22 118.07 270 20 291.54 20 319.99 91.14 348.45 20 369.98 20"/><path class="cls-2" d="M529.29,80H550a50,50,0,1,1,0-20H529.29a30,30,0,1,0,0,20Z"/><polygon class="cls-2" points="190 20 190 40 150 40 150 120 130 120 130 40 90 40 90 20 190 20"/><rect class="cls-2" x="220" width="20" height="140"/><rect class="cls-2" x="400" width="20" height="140"/></g></g></g></svg>