<svg xmlns="http://www.w3.org/2000/svg" viewBox="0 0 1470 200"><defs><style>.cls-1,.cls-3{fill:#366ce1;}.cls-2{opacity:0.38;}.cls-3{opacity:0.62;}.cls-4{fill:#121221;}</style></defs><title>tom&amp;apos;s planner</title><g id="Слой_2" data-name="Слой 2"><g id="Work_space" data-name="Work space"><g id="tom_s_planner" data-name="tom&apos;s planner"><polygon class="cls-1" points="1393.81 82.924 1376.733 100 1393.81 117.076 1393.81 123.81 1387.076 123.81 1370 106.733 1352.924 123.81 1346.19 123.81 1346.19 117.076 1363.267 100 1346.19 82.924 1346.19 76.19 1352.929 76.19 1370 93.262 1387.071 76.19 1393.81 76.19 1393.81 82.924"/><g class="cls-2"><rect class="cls-1" x="1346.19" y="61.905" width="47.619" height="14.286"/><rect class="cls-1" x="1393.81" width="14.286" height="76.19"/><rect class="cls-1" x="1346.19" width="47.619" height="14.286"/></g><g class="cls-2"><rect class="cls-1" x="1408.095" y="61.905" width="47.619" height="14.286"/><rect class="cls-1" x="1455.714" width="14.286" height="76.19"/><rect class="cls-1" x="1393.81" width="14.286" height="76.19"/><rect class="cls-1" x="1408.095" width="47.619" height="14.286"/></g><g class="cls-2"><rect class="cls-1" x="1284.286" y="123.81" width="47.619" height="14.286"/><rect class="cls-1" x="1331.905" y="76.19" width="14.286" height="61.905"/><rect class="cls-1" x="1270" y="76.19" width="14.286" height="61.905"/></g><g class="cls-2"><rect class="cls-1" x="1346.19" y="123.81" width="47.619" height="14.286"/><rect class="cls-1" x="1393.81" y="61.905" width="14.286" height="76.19"/><rect class="cls-1" x="1331.905" y="76.19" width="14.286" height="61.905"/><rect class="cls-1" x="1346.19" y="61.905" width="47.619" height="14.286"/></g><g class="cls-2"><rect class="cls-1" x="1408.095" y="123.81" width="47.619" height="14.286"/><rect class="cls-1" x="1455.714" y="61.905" width="14.286" height="76.19"/><rect class="cls-1" x="1393.81" y="61.905" width="14.286" height="76.19"/><rect class="cls-1" x="1408.095" y="61.905" width="47.619" height="14.286"/></g><g class="cls-2"><rect class="cls-1" x="1284.286" y="185.714" width="47.619" height="14.286"/><rect class="cls-1" x="1331.905" y="123.81" width="14.286" height="76.19"/><rect class="cls-1" x="1270" y="123.81" width="14.286" height="76.19"/><rect class="cls-1" x="1284.286" y="123.81" width="47.619" height="14.286"/></g><g class="cls-2"><rect class="cls-1" x="1346.19" y="185.714" width="47.619" height="14.286"/><rect class="cls-1" x="1393.81" y="123.81" width="14.286" height="76.19"/><rect class="cls-1" x="1331.905" y="123.81" width="14.286" height="76.19"/><rect class="cls-1" x="1346.19" y="123.81" width="47.619" height="14.286"/></g><g class="cls-2"><rect class="cls-1" x="1408.095" y="185.714" width="47.619" height="14.286"/><rect class="cls-1" x="1455.714" y="123.81" width="14.286" height="76.19"/><rect class="cls-1" x="1393.81" y="123.81" width="14.286" height="76.19"/><rect class="cls-1" x="1408.095" y="123.81" width="47.619" height="14.286"/></g><path class="cls-3" d="M1346.19,0V76.19H1270l14.286-14.285q23.806-23.808,47.619-47.619Z"/><polygon class="cls-1" points="920 57.5 920 157.5 900 157.5 840 88.09 840 157.5 820 157.5 820 57.5 840 57.5 900 126.91 900 57.5 920 57.5"/><polygon class="cls-1" points="1030 57.5 1030 157.5 1010 157.5 950 88.09 950 157.5 930 157.5 930 57.5 950 57.5 1010 126.91 1010 57.5 1030 57.5"/><polygon class="cls-4" points="310 57.5 310 157.5 290 157.5 290 88.09 273.2 107.55 259.99 122.86 246.78 107.55 230 88.12 230 157.5 210 157.5 210 57.5 230 57.5 230 57.51 259.99 92.25 289.98 57.5 310 57.5"/><path class="cls-4" d="M370,87.5a10,10,0,0,0,10,10h40a30,30,0,0,1,0,60H350v-20h70a10,10,0,0,0,0-20H380a30,30,0,0,1,0-60h70v20H380A10,10,0,0,0,370,87.5Z"/><polygon class="cls-1" points="1060 77.5 1060 97.5 1140 97.5 1140 117.5 1060 117.5 1060 137.5 1140 137.5 1140 157.5 1040 157.5 1040 57.5 1140 57.5 1140 77.5 1060 77.5"/><polygon class="cls-1" points="700 137.5 700 157.5 600 157.5 600 57.5 620 57.5 620 137.5 700 137.5"/><path class="cls-1" d="M1250,87.5a30,30,0,0,0-30-30h-70v100h20v-40h50a10,10,0,0,1,10,10v30h20v-30a29.862,29.862,0,0,0-7.65-20A29.862,29.862,0,0,0,1250,87.5Zm-80,10v-20h50a10,10,0,0,1,0,20Z"/><path class="cls-4" d="M150,57.5a50,50,0,1,0,50,50A50.005,50.005,0,0,0,150,57.5Zm0,80a30,30,0,1,1,30-30A30,30,0,0,1,150,137.5Z"/><path class="cls-1" d="M770.77,59.45l-.78-1.95H750.01l-.78,1.94L710,157.5h21.55l11.2-28h34.5l11.2,28H810ZM750.75,109.5,760,86.37l9.25,23.13Z"/><path class="cls-1" d="M560,57.5H490v100h20v-40h50a30,30,0,0,0,0-60Zm0,40H510v-20h50a10,10,0,0,1,0,20Z"/><polygon class="cls-4" points="100 57.5 100 77.5 60 77.5 60 157.5 40 157.5 40 77.5 0 77.5 0 57.5 100 57.5"/><path class="cls-4" d="M340,42.5v30H330a10,10,0,0,0-10-10v-20Z"/></g></g></g></svg>