<svg xmlns="http://www.w3.org/2000/svg" viewBox="0 0 1288.99 328.281"><defs><style>.cls-1{fill:#121221;}.cls-2{fill:#e1dfdf;}.cls-3{fill:#366ce1;}</style></defs><title>trackmaven</title><g id="Слой_2" data-name="Слой 2"><g id="Work_space" data-name="Work space"><g id="trackmaven"><path class="cls-1" d="M1088.682,101.851c-.548,37.794,21.125,76.811,35.329,75.345,14.808-1.529,21.208-47.029,25.467-77.308,3.924-27.9,12.083-85.907-2.944-91.194C1131.4,3.37,1089.428,50.35,1088.682,101.851Z"/><path class="cls-2" d="M1099.607,99.437c-.361,24.887,13.91,50.578,23.263,49.613,9.751-1.007,13.965-30.968,16.769-50.905,2.584-18.373,7.957-56.568-1.938-60.049C1127.735,34.59,1100.1,65.525,1099.607,99.437Z"/><circle class="cls-1" cx="1185.453" cy="193.281" r="85"/><path class="cls-3" d="M1192.344,267.89c-20.66,2.459-43.259-7.181-43.271-15.044,0-2.423,2.143-4.662,5.584-6.715,8.494,4.248,21.6,7.133,34.012,5.657,18.57-2.2,35.044-14.123,43.021-24.276,4.25.226,7.333,1.221,8.36,3.386C1243.833,238.882,1220.5,264.546,1192.344,267.89Z"/><path class="cls-3" d="M1167.831,231.371a50.6,50.6,0,0,1-25.112-10.663c7.222-2.252,19.924-2.339,29.307-2.405,8.921-.061,24.83-.17,33.4,2.379C1197.409,227.011,1182.524,233.122,1167.831,231.371Z"/><circle class="cls-3" cx="1220.453" cy="188.281" r="10"/><circle class="cls-3" cx="1130.453" cy="188.281" r="10"/><path class="cls-1" d="M1168.308,238.119c-9.52-1.085-18.629-7.8-17.8-11.323.256-1.087,1.454-1.863,3.213-2.42a29.446,29.446,0,0,0,14.646,6.136c8.557.978,17.2-2.621,21.853-6.327,1.881.551,3.157,1.323,3.388,2.4C1194.457,230.566,1181.284,239.6,1168.308,238.119Z"/><path class="cls-1" d="M1288.9,91.912c1.656,37.762-18.864,77.4-33.1,76.349-14.847-1.094-22.579-46.387-27.724-76.527-4.741-27.775-14.6-85.516.268-91.241C1243.307-5.274,1286.639,40.456,1288.9,91.912Z"/><path class="cls-2" d="M1278.583,89.341c1.09,24.866-12.421,50.965-21.8,50.274-9.777-.72-14.868-30.544-18.255-50.391-3.122-18.289-9.613-56.31.176-60.08C1248.564,25.347,1277.1,55.459,1278.583,89.341Z"/><path class="cls-3" d="M1250.406,290.112c.828,18.874-9.427,38.683-16.545,38.159-7.42-.546-11.284-23.184-13.856-38.248-2.369-13.882-7.3-42.74.134-45.6C1227.622,241.539,1249.279,264.4,1250.406,290.112Z"/><polygon class="cls-1" points="1048.99 114.141 1048.99 214.141 1028.99 214.141 968.99 144.731 968.99 214.141 948.99 214.141 948.99 114.141 968.99 114.141 1028.99 183.551 1028.99 114.141 1048.99 114.141"/><polygon class="cls-1" points="638.99 114.141 638.99 214.141 618.99 214.141 618.99 144.731 602.19 164.191 588.98 179.501 575.77 164.191 558.99 144.761 558.99 214.141 538.99 214.141 538.99 114.141 558.99 114.141 558.99 114.151 588.98 148.891 618.97 114.141 638.99 114.141"/><polygon class="cls-1" points="858.99 134.141 858.99 154.141 938.99 154.141 938.99 174.141 858.99 174.141 858.99 194.141 938.99 194.141 938.99 214.141 838.99 214.141 838.99 114.141 938.99 114.141 938.99 134.141 858.99 134.141"/><polygon class="cls-1" points="828.97 114.141 789.75 212.211 788.98 214.141 768.98 214.141 768.21 212.211 728.99 114.141 750.53 114.141 778.98 185.281 807.44 114.141 828.97 114.141"/><path class="cls-1" d="M210,144.141a30,30,0,0,0-30-30H110v100h20v-40h50a10,10,0,0,1,10,10v30h20v-30a29.862,29.862,0,0,0-7.65-20A29.862,29.862,0,0,0,210,144.141Zm-80,10v-20h50a10,10,0,0,1,0,20Z"/><polygon class="cls-1" points="528.99 214.131 528.99 214.141 499.12 214.141 458.5 177.571 448.99 186.141 448.99 214.141 428.99 214.141 428.99 114.141 448.99 114.141 448.99 159.231 458.5 150.661 499.06 114.141 528.96 114.141 473.45 164.121 528.99 214.131"/><path class="cls-1" d="M398.28,174.141h20.71a50,50,0,1,1,0-20H398.28a30,30,0,1,0,0,20Z"/><path class="cls-1" d="M709.76,116.091l-.78-1.95H689l-.78,1.94-39.23,98.06h21.55l11.2-28h34.5l11.2,28h21.55Zm-20.02,50.05,9.25-23.13,9.25,23.13Z"/><path class="cls-1" d="M280.77,116.091l-.78-1.95H260.01l-.78,1.94L220,214.141h21.55l11.2-28h34.5l11.2,28H320Zm-20.02,50.05,9.25-23.13,9.25,23.13Z"/><polygon class="cls-1" points="100 114.141 100 134.141 60 134.141 60 214.141 40 214.141 40 134.141 0 134.141 0 114.141 100 114.141"/></g></g></g></svg>