<svg xmlns="http://www.w3.org/2000/svg" xmlns:xlink="http://www.w3.org/1999/xlink" viewBox="0 0 620 100"><defs><style>.cls-1{fill:url(#Безымянный_градиент_16);}</style><radialGradient id="Безымянный_градиент_16" cx="304.38" cy="81.507" r="335.066" gradientUnits="userSpaceOnUse"><stop offset="0" stop-color="#366ce1"/><stop offset="1" stop-color="#121221"/></radialGradient></defs><title>traxit</title><g id="Слой_2" data-name="Слой 2"><g id="Work_space" data-name="Work space"><g id="traxit"><path class="cls-1" d="M299.72,55l-4.51-10L275.5,1.27l.01-.01L275.02.18h-.01L274.93,0h-9.84l-.08.18V.2l-.47,1.05h-.01L244.81,45,240.3,55l-20.28,45h10.97l20.28-45h37.48l20.28,45H320Zm-19.71-2.96-.02-.04h.02ZM255.78,45l14.23-31.58L284.25,45Z"/><path class="cls-1" d="M196.57,55A29.994,29.994,0,0,0,180,0H110V100h10V60h60a19.994,19.994,0,0,1,20,20v20h10V80A29.923,29.923,0,0,0,196.57,55ZM170,52.04l-.02-.04H170ZM180,50H120V10h60a20,20,0,0,1,0,40Z"/><polygon class="cls-1" points="480 10 480 90 510 90 510 100 440 100 440 90 470 90 470 10 440 10 440 0 510 0 510 10 480 10"/><polygon class="cls-1" points="100 0 100 10 55 10 55 100 45 100 45 10 0 10 0 0 100 0"/><polygon class="cls-1" points="620 0 620 10 575 10 575 100 565 100 565 10 520 10 520 0 620 0"/><polygon class="cls-1" points="386.65 50 430 100 416.77 100 380.04 57.63 343.31 100 330.08 100 373.43 50 330.08 0 343.31 0 380.04 42.37 416.77 0 430 0 386.65 50"/></g></g></g></svg>