<svg id="Main" xmlns="http://www.w3.org/2000/svg" viewBox="0 0 500 533.183"><defs><style>.cls-1{fill:#366ce1;}.cls-2{fill:#121221;}</style></defs><title>trend_micro</title><g id="MicroTrend"><path class="cls-1" d="M604.63,323.15c-39.54-37.26-117.47-21.11-175.34,36.76s-74.02,135.8-36.76,175.34a149.991,149.991,0,0,1,212.1-212.1Z" transform="translate(-250 -280.62)"/><path class="cls-1" d="M650,430.62A149.991,149.991,0,0,1,395.37,538.09c39.54,37.26,117.47,21.11,175.34-36.76s74.02-135.8,36.76-175.34A149.465,149.465,0,0,1,650,430.62Z" transform="translate(-250 -280.62)"/><path class="cls-2" d="M607.47,325.99c-.05-.05-.09-.1-.14-.15q-1.26-1.29-2.55-2.55c-.05-.05-.1-.09-.15-.14-39.54-37.26-117.47-21.11-175.34,36.76s-74.02,135.8-36.76,175.34c.05.05.09.1.14.15q1.26,1.29,2.55,2.55c.05.05.1.09.15.14,39.54,37.26,117.47,21.11,175.34-36.76S644.73,365.53,607.47,325.99ZM563.78,494.4c-52.84,52.84-124.23,67.12-159.46,31.9s-20.94-106.62,31.9-159.46,124.23-67.12,159.46-31.9S616.62,441.56,563.78,494.4Z" transform="translate(-250 -280.62)"/><path class="cls-1" d="M392.67,535.4q1.26,1.29,2.55,2.55-.645-.615-1.29-1.26T392.67,535.4Z" transform="translate(-250 -280.62)"/><path class="cls-1" d="M607.33,325.84q-1.26-1.29-2.55-2.55.645.615,1.29,1.26T607.33,325.84Z" transform="translate(-250 -280.62)"/><ellipse class="cls-1" cx="500" cy="430.62" rx="135.312" ry="90.199" transform="translate(-408.048 199.059) rotate(-45)"/><path class="cls-1" d="M430,420.62l-40,10-20-20,40-40Q420,395.619,430,420.62Z" transform="translate(-250 -280.62)"/><path class="cls-2" d="M420,450.62l-40,10-20-20,40-40Q410,425.619,420,450.62Z" transform="translate(-250 -280.62)"/><polygon class="cls-2" points="100 319.38 100 339.38 60 339.38 60 419.38 40 419.38 40 339.38 0 339.38 0 319.38 100 319.38"/><path class="cls-2" d="M425,650a25,25,0,0,0,0-50H350V700h20V650h30l30,50h20l-30-50Zm-55-20V620h55a5,5,0,0,1,0,10Z" transform="translate(-250 -280.62)"/><path class="cls-2" d="M700,600H650V700h50a50,50,0,0,0,0-100Zm0,80H670V620h30a30,30,0,0,1,0,60Z" transform="translate(-250 -280.62)"/><polygon class="cls-2" points="400 319.38 400 419.38 380 419.38 320 344.38 320 419.38 300 419.38 300 319.38 320 319.38 380 394.38 380 319.38 400 319.38"/><polygon class="cls-2" points="220 339.38 220 359.38 300 359.38 300 379.38 220 379.38 220 399.38 300 399.38 300 419.38 200 419.38 200 319.38 300 319.38 300 339.38 220 339.38"/><path class="cls-1" d="M674.5,713.8a50,50,0,1,0,50,50A50.005,50.005,0,0,0,674.5,713.8Zm0,90a40,40,0,1,1,40-40A40,40,0,0,1,674.5,803.8Z" transform="translate(-250 -280.62)"/><path class="cls-1" d="M494.25,773.8H504.5a50,50,0,1,1,0-20H494.25a40,40,0,1,0,0,20Z" transform="translate(-250 -280.62)"/><path class="cls-1" d="M589.5,763.8a25,25,0,0,0,0-50h-75v100h10v-50h50l30,50h10l-30-50Zm-65-10v-30h65a15,15,0,0,1,0,30Z" transform="translate(-250 -280.62)"/><rect class="cls-1" x="135.5" y="433.183" width="10" height="100"/><polygon class="cls-1" points="125.5 433.183 125.5 533.183 115.5 533.183 115.5 455.403 80.5 533.183 70.5 533.183 35.5 455.403 35.5 533.183 25.5 533.183 25.5 433.183 35.5 433.183 75.5 522.073 115.5 433.183 125.5 433.183"/></g></svg>