<svg xmlns="http://www.w3.org/2000/svg" viewBox="0 0 759.98 100"><defs><style>.cls-1{fill:#121221;}</style></defs><title>trifacta</title><g id="Слой_2" data-name="Слой 2"><g id="Work_space" data-name="Work space"><g id="trifacta"><path class="cls-1" d="M568.28,78.28l7.07,7.07a50,50,0,1,1,0-70.7l-7.07,7.07a40,40,0,1,0,0,56.56Z"/><path class="cls-1" d="M469.7,55l-4.51-10L445.48,1.27l.01-.01L445,.18h-.01L444.91,0h-9.84l-.08.18V.2l-.47,1.05h-.01L414.79,45l-4.51,10L390,100h10.97l20.28-45h37.48l20.28,45h10.97Zm-19.71-2.96-.02-.04h.02ZM425.76,45l14.23-31.58L454.23,45Z"/><path class="cls-1" d="M739.7,55l-4.51-10L715.48,1.27l.01-.01L715,.18h-.01L714.91,0h-9.84l-.08.18V.2l-.47,1.05h-.01L684.79,45l-4.51,10L660,100h10.97l20.28-45h37.48l20.28,45h10.97Zm-19.71-2.96-.02-.04h.02ZM695.76,45l14.23-31.58L724.23,45Z"/><path class="cls-1" d="M196.57,55A29.994,29.994,0,0,0,180,0H110V100h10V60h60a19.994,19.994,0,0,1,20,20v20h10V80A29.923,29.923,0,0,0,196.57,55ZM170,52.04l-.02-.04H170ZM180,50H120V10h60a20,20,0,0,1,0,40Z"/><polygon class="cls-1" points="265 10 265 90 300 90 300 100 220 100 220 90 255 90 255 10 220 10 220 0 300 0 300 10 265 10"/><polygon class="cls-1" points="320 10 320 45 380 45 380 55 320 55 320 100 310 100 310 0 410 0 410 10 320 10"/><polygon class="cls-1" points="100 0 100 10 55 10 55 100 45 100 45 10 0 10 0 0 100 0"/><polygon class="cls-1" points="680 0 680 10 635 10 635 100 625 100 625 10 580 10 580 0 680 0"/></g></g></g></svg>