<svg xmlns="http://www.w3.org/2000/svg" viewBox="0 0 645.456 179.998"><defs><style>.a{fill:#fff;}</style></defs><title>triggerstreet</title><polygon points="50 4.421 50 14.421 30 14.421 30 74.421 20 74.421 20 14.421 0 14.421 0 4.421 50 4.421"/><rect x="120" y="4.421" width="10" height="70"/><polygon points="270 14.421 270 34.421 310 34.421 310 44.421 270 44.421 270 64.421 310 64.421 310 74.421 260 74.421 260 4.421 310 4.421 310 14.421 270 14.421"/><polygon points="190 94.421 190 114.421 230 114.421 230 124.421 190 124.421 190 144.421 230 144.421 230 154.421 180 154.421 180 84.421 230 84.421 230 94.421 190 94.421"/><polygon points="250 94.421 250 114.421 290 114.421 290 124.421 250 124.421 250 144.421 290 144.421 290 154.421 240 154.421 240 84.421 290 84.421 290 94.421 250 94.421"/><path d="M50,134.421c0,11.05-11.19,20-25,20s-25-8.95-25-20H10c0,5.52,6.72,10,15,10s15-4.48,15-10c0-4.35-4.18-8.06-10-9.43a21.82,21.82,0,0,0-5-.57,28.7,28.7,0,0,1-16.52-5c-5.2-3.65-8.48-9.02-8.48-15,0-11.05,11.19-20,25-20s25,8.95,25,20H40c0-5.52-6.72-10-15-10s-15,4.48-15,10c0,4.35,4.18,8.06,10,9.43a21.82,21.82,0,0,0,5,.57,28.7,28.7,0,0,1,16.52,5C46.72,123.071,50,128.441,50,134.421Z"/><path d="M110,24.421a19.994,19.994,0,0,0-20-20H60v70H70v-30H85l15,30h10L94.72,43.851A19.985,19.985,0,0,0,110,24.421Zm-40,10v-20H90a10,10,0,0,1,0,20Z"/><path d="M370,24.421a19.994,19.994,0,0,0-20-20H320v70h10v-30h15l15,30h10l-15.28-30.57A19.985,19.985,0,0,0,370,24.421Zm-40,10v-20h20a10,10,0,0,1,0,20Z"/><path d="M170,104.421a19.994,19.994,0,0,0-20-20H120v70h10v-30h15l15,30h10l-15.28-30.57A19.985,19.985,0,0,0,170,104.421Zm-40,10v-20h20a10,10,0,0,1,0,20Z"/><path d="M250,34.421v15a25,25,0,1,1-50,0v-20a25,25,0,0,1,49.5-5H239.14a15,15,0,0,0-29.14,5v20a15,15,0,0,0,29.14,5,14.839,14.839,0,0,0,.86-5v-5H220v-10Z"/><path d="M190,34.421v15a25,25,0,1,1-50,0v-20a25,25,0,0,1,49.5-5H179.14a15,15,0,0,0-29.14,5v20a15,15,0,0,0,29.14,5,14.839,14.839,0,0,0,.86-5v-5H160v-10Z"/><polygon points="110 84.421 110 94.421 90 94.421 90 154.421 80 154.421 80 94.421 60 94.421 60 84.421 110 84.421"/><polygon points="350 84.421 350 94.421 330 94.421 330 154.421 320 154.421 320 94.421 300 94.421 300 84.421 350 84.421"/><path d="M471.436,0a80,80,0,1,0,80,80A80,80,0,0,0,471.436,0Zm0,149.8A69.8,69.8,0,1,1,541.246,80,69.8,69.8,0,0,1,471.436,149.8Z"/><path class="a" d="M541.246,80a69.805,69.805,0,1,1-69.81-69.8A69.8,69.8,0,0,1,541.246,80Z"/><circle cx="471.44" cy="80.001" r="15"/><path d="M441.049,70H421.59a2.59,2.59,0,0,1-2.523-3.2A53.46,53.46,0,0,1,425.075,52.3a2.587,2.587,0,0,1,4.043-.476L442.88,65.581A2.589,2.589,0,0,1,441.049,70Z"/><path d="M442.89,94.421l-13.764,13.764a2.587,2.587,0,0,1-4.042-.475,53.291,53.291,0,0,1-6.017-14.51A2.589,2.589,0,0,1,421.59,90h19.469A2.589,2.589,0,0,1,442.89,94.421Z"/><path d="M461.44,110.4V129.85a2.59,2.59,0,0,1-3.2,2.523,53.267,53.267,0,0,1-14.492-6.015,2.587,2.587,0,0,1-.473-4.042l13.745-13.745A2.589,2.589,0,0,1,461.44,110.4Z"/><path d="M499.142,126.358a53.242,53.242,0,0,1-14.5,6.016,2.59,2.59,0,0,1-3.2-2.523v-19.46a2.589,2.589,0,0,1,4.42-1.83l13.755,13.755A2.587,2.587,0,0,1,499.142,126.358Z"/><path d="M523.813,93.2a53.492,53.492,0,0,1-6.008,14.506,2.587,2.587,0,0,1-4.044.476L500,94.421A2.589,2.589,0,0,1,501.831,90H521.29A2.589,2.589,0,0,1,523.813,93.2Z"/><path d="M521.289,70H501.841a2.589,2.589,0,0,1-1.831-4.42l13.752-13.752a2.587,2.587,0,0,1,4.043.476,53.478,53.478,0,0,1,6.007,14.5A2.59,2.59,0,0,1,521.289,70Z"/><path d="M499.615,37.685,485.86,51.441a2.589,2.589,0,0,1-4.42-1.831V30.15a2.59,2.59,0,0,1,3.2-2.523,53.242,53.242,0,0,1,14.5,6.016A2.587,2.587,0,0,1,499.615,37.685Z"/><path d="M461.44,30.151V49.6a2.589,2.589,0,0,1-4.42,1.831L443.275,37.685a2.586,2.586,0,0,1,.473-4.041,53.238,53.238,0,0,1,14.492-6.016A2.59,2.59,0,0,1,461.44,30.151Z"/><path d="M571.876,152.47a71.647,71.647,0,0,1-6.49,7.31c-21.83,21.22-53.63,20.65-90,20-49.98-.89-91.3-15.8-120-30q4.995-5,10-10c116.96,42.93,166.38,31.49,189.26,10.68C560.766,151.04,566.416,151.81,571.876,152.47Z"/><path d="M645.406,120c.179,2.03-1.15,4.21-3.47,6.37a25.719,25.719,0,0,0-6.48-2.08c-10.16-2.06-26.32-1.27-40.07,5.49a44.852,44.852,0,0,0-15.17,11.88c-4.66-.43-9.83-.93-15.78-1.35,11.76-12.72,27.94-29.39,50.95-30.53,13.08-.65,29.08,3.68,30,10A1.635,1.635,0,0,1,645.406,120Z"/><path d="M645.456,130h-.03c.82,5.7-16.06,15.22-30.04,19.78-16.321,5.33-29.25,4.4-43.51,2.69-5.46-.66-11.11-1.43-17.23-2.01-2.97-.28-6.04-.52-9.26-.68-16.58-.81-40.41.4-69.93,10.22q20-10,40-20a385.423,385.423,0,0,1,39.93-.22c3.22.15,6.22.33,9.05.53,5.95.42,11.12.92,15.78,1.35,13.58,1.24,22.91,1.86,35.17-1.88a92.242,92.242,0,0,0,21.8-9.78,34.443,34.443,0,0,0,4.75-3.63c2.32-2.16,3.649-4.34,3.47-6.37h.05Z"/></svg>