<svg xmlns="http://www.w3.org/2000/svg" viewBox="0 0 890 120"><defs><style>.cls-1{fill:#121221;}.cls-2{fill:#366ce1;}</style></defs><title>truevault</title><g id="Слой_2" data-name="Слой 2"><g id="Work_space" data-name="Work space"><g id="truevault"><polygon class="cls-1" points="300.01 30 300.01 65 390.01 65 390.01 75 300.01 75 300.01 110 390.01 110 390.01 120 290.01 120 290.01 20 390.01 20 390.01 30 300.01 30"/><path class="cls-1" d="M584.72,75l-4.51-10L560.5,21.27l.01-.01-.49-1.08h-.01l-.08-.18h-9.84l-.08.18v.02l-.47,1.05h-.01L529.81,65,525.3,75l-20.28,45h10.97l20.28-45h37.48l20.28,45H605Zm-19.71-2.96-.02-.04h.02ZM540.78,65l14.23-31.58L569.25,65Z"/><path class="cls-1" d="M156.58,75a29.994,29.994,0,0,0-16.57-55h-70V120h10V80h60a19.994,19.994,0,0,1,20,20v20h10V100A29.923,29.923,0,0,0,156.58,75Zm-26.57-2.96-.02-.04h.02Zm10-2.04h-60V30h60a20,20,0,0,1,0,40Z"/><polygon class="cls-1" points="819.98 110 819.98 120 719.98 120 719.98 20 729.98 20 729.98 110 819.98 110"/><polygon class="cls-1" points="510 20 465.48 118.78 464.94 120 455.06 120 454.52 118.8 410.01 20 420.98 20 460 106.62 499.03 20 510 20"/><path class="cls-1" d="M709.98,20V70a50,50,0,0,1-100,0V20h10V70a40,40,0,0,0,80,0V20Z"/><path class="cls-1" d="M280.01,20V70a50,50,0,0,1-100,0V20h10V70a40,40,0,0,0,80,0V20Z"/><rect class="cls-2" x="889.98" width="0.02" height="10"/><polygon class="cls-2" points="844.98 10 844.98 100 845 100 845 120 835 120 835 100 834.98 100 834.98 10 55 10 55 120 45 120 45 10 0 10 0 0 889.98 0 889.98 10 844.98 10"/></g></g></g></svg>