<svg xmlns="http://www.w3.org/2000/svg" viewBox="0 0 650 110"><defs><style>.cls-1,.cls-3,.cls-4{fill:#366ce1;}.cls-2{fill:#121221;}.cls-3{opacity:0.32;}.cls-4{opacity:0.62;}</style></defs><title>Tune Planner</title><g id="Слой_2" data-name="Слой 2"><g id="Complete"><g id="Tune_Planner" data-name="Tune Planner"><path class="cls-1" d="M125,25a30,30,0,1,0,30,30A30,30,0,0,0,125,25Zm0,40a10,10,0,1,1,10-10A10,10,0,0,1,125,65Z"/><rect class="cls-2" x="25" y="45" width="200" height="20" rx="10"/><circle class="cls-3" cx="125" cy="55" r="10"/><path class="cls-4" d="M125,27.5A27.5,27.5,0,1,0,152.5,55,27.5,27.5,0,0,0,125,27.5Zm0,45A17.5,17.5,0,1,1,142.5,55,17.506,17.506,0,0,1,125,72.5Z"/><path class="cls-2" d="M0,8.07v93.86A3.071,3.071,0,0,0,3.07,105H246.93a3.071,3.071,0,0,0,3.07-3.07V8.07A3.071,3.071,0,0,0,246.93,5H3.07A3.071,3.071,0,0,0,0,8.07ZM226.93,98.333H23.07A3.07,3.07,0,0,1,20,95.263V14.737a3.07,3.07,0,0,1,3.07-3.07H226.93a3.07,3.07,0,0,1,3.07,3.07V95.263A3.07,3.07,0,0,1,226.93,98.333Z"/><polygon class="cls-2" points="485 60 485 110 475 110 445 75.295 445 110 435 110 435 60 445 60 475 94.705 475 60 485 60"/><polygon class="cls-2" points="540 60 540 110 530 110 500 75.295 500 110 490 110 490 60 500 60 530 94.705 530 60 540 60"/><polygon class="cls-2" points="430 0 430 50 420 50 390 15.295 390 50 380 50 380 0 390 0 420 34.705 420 0 430 0"/><polygon class="cls-2" points="555 70 555 80 595 80 595 90 555 90 555 100 595 100 595 110 545 110 545 60 595 60 595 70 555 70"/><polygon class="cls-2" points="445 10 445 20 485 20 485 30 445 30 445 40 485 40 485 50 435 50 435 0 485 0 485 10 445 10"/><path class="cls-2" d="M375,0V25a25,25,0,0,1-50,0V0h10V25a15,15,0,0,0,30,0V0Z"/><polygon class="cls-2" points="375 100 375 110 325 110 325 60 335 60 335 100 375 100"/><path class="cls-2" d="M650,75a15,15,0,0,0-15-15H600v50h10V90h25a5,5,0,0,1,5,5v15h10V95a14.931,14.931,0,0,0-3.825-10A14.931,14.931,0,0,0,650,75Zm-40,5V70h25a5,5,0,0,1,0,10Z"/><path class="cls-2" d="M410.385,60.975,410,60h-9.99l-.39.97L380,110h10.775l5.6-14h17.25l5.6,14H430ZM400.375,86,405,74.435,409.625,86Z"/><path class="cls-2" d="M305,60H270v50h10V90h25a15,15,0,0,0,0-30Zm0,20H280V70h25a5,5,0,0,1,0,10Z"/><polygon class="cls-2" points="320 0 320 10 300 10 300 50 290 50 290 10 270 10 270 0 320 0"/></g></g></g></svg>