<svg xmlns="http://www.w3.org/2000/svg" xmlns:xlink="http://www.w3.org/1999/xlink" viewBox="0 0 430 100"><defs><style>.cls-1{fill:url(#Безымянный_градиент_16);}.cls-2{fill:url(#Безымянный_градиент_16-2);}.cls-3{fill:url(#Безымянный_градиент_16-3);}.cls-4{fill:url(#Безымянный_градиент_16-4);}</style><radialGradient id="Безымянный_градиент_16" cx="272.171" cy="50" r="50.192" gradientUnits="userSpaceOnUse"><stop offset="0" stop-color="#366ce1"/><stop offset="1" stop-color="#121221"/></radialGradient><radialGradient id="Безымянный_градиент_16-2" cx="57.728" cy="50" r="47.72" xlink:href="#Безымянный_градиент_16"/><radialGradient id="Безымянный_градиент_16-3" cx="378.713" cy="50" r="51.469" xlink:href="#Безымянный_градиент_16"/><radialGradient id="Безымянный_градиент_16-4" cx="164.115" cy="50" r="49.525" xlink:href="#Безымянный_градиент_16"/></defs><title>turn</title><g id="Слой_2" data-name="Слой 2"><g id="Work_space" data-name="Work space"><g id="turn"><path class="cls-1" d="M306.612,54.972A29.922,29.922,0,0,0,320,29.967C319.982,13.31,306.039,0,289.381,0H220.035A.035.035,0,0,0,220,.035v99.93a.035.035,0,0,0,.035.035h9.93a.035.035,0,0,0,.035-.035V60.035a.035.035,0,0,1,.035-.035h59.93A20.035,20.035,0,0,1,310,80.035v19.93a.035.035,0,0,0,.035.035h9.93a.035.035,0,0,0,.035-.035V80a29.921,29.921,0,0,0-13.388-24.972A.034.034,0,0,1,306.612,54.972ZM280,52.04l-.02-.04H280ZM289.49,50H230.035a.035.035,0,0,1-.035-.035V10.035a.035.035,0,0,1,.035-.035H290a20,20,0,0,1,19.989,20.686C309.626,41.547,300.357,50,289.49,50Z"/><path class="cls-2" d="M100,.035v9.93a.035.035,0,0,1-.035.035H55.035a.035.035,0,0,0-.035.035v89.93a.035.035,0,0,1-.035.035h-9.93A.035.035,0,0,1,45,99.965V10.035A.035.035,0,0,0,44.965,10H.035A.035.035,0,0,1,0,9.965V.035A.035.035,0,0,1,.035,0h99.93A.035.035,0,0,1,100,.035Z"/><path class="cls-3" d="M430,.035v99.93a.035.035,0,0,1-.035.035H420.07l-.07-.08L340.061,14.655a.035.035,0,0,0-.061.024V99.965a.035.035,0,0,1-.035.035h-9.93a.035.035,0,0,1-.035-.035V.035A.035.035,0,0,1,330.035,0h9.97a.034.034,0,0,1,.025.011l79.909,85.224a.035.035,0,0,0,.061-.024V.035A.035.035,0,0,1,420.035,0h9.93A.035.035,0,0,1,430,.035Z"/><path class="cls-4" d="M210,.035V49.141c0,27.435-21.738,50.406-49.169,50.852A50,50,0,0,1,110,50V.035A.035.035,0,0,1,110.035,0h9.93A.035.035,0,0,1,120,.035V49.174c0,22.447,18.37,41.265,40.812,40.818A40,40,0,0,0,200,50V.035A.035.035,0,0,1,200.035,0h9.93A.035.035,0,0,1,210,.035Z"/></g></g></g></svg>