<svg xmlns="http://www.w3.org/2000/svg" viewBox="0 0 414.142 169.706"><defs><style>.cls-1{fill:#121221;}.cls-2{fill:#366ce1;}</style></defs><title>twixl</title><g id="complete"><g id="twixl"><polygon class="cls-1" points="360.711 14.142 290 84.853 219.289 14.142 233.431 0 290 56.569 346.569 0 360.711 14.142"/><polygon class="cls-1" points="360.711 155.563 346.569 169.706 290 113.137 233.431 169.706 219.289 155.563 290 84.853 360.711 155.563"/><polygon class="cls-2" points="100 34.853 100 54.853 60 54.853 60 134.853 40 134.853 40 54.853 0 54.853 0 34.853 100 34.853"/><rect class="cls-2" x="210" y="34.853" width="20" height="100"/><polygon class="cls-2" points="414.142 141.421 400 155.563 329.289 84.853 400 14.142 414.142 28.284 357.574 84.853 414.142 141.421"/><polygon class="cls-2" points="200 34.853 200 134.853 100 134.853 100 34.853 120 34.853 120 114.853 140 114.853 140 84.853 160 84.853 160 114.853 180 114.853 180 34.853 200 34.853"/></g></g></svg>