<svg xmlns="http://www.w3.org/2000/svg" viewBox="0 0 650.377 200.586"><title>ua</title><path d="M150.18,200h-20a57.594,57.594,0,0,1-20-10,56.99,56.99,0,0,1-10-10c-3.7,3.938-17.6,17.779-40,20-5.445.54-23.956,2.375-40-10C-2.472,172.529-.042,142.289.18,140V0h50V120c.042,1.541.547,12.927,10,20a25.417,25.417,0,0,0,30,0c9.452-7.073,9.957-18.459,10-20V0h50Z"/><path d="M310.486,200.168h-20a57.638,57.638,0,0,1-20-10,57.059,57.059,0,0,1-10-10c-3.7,3.937-17.6,17.779-40,20-5.444.539-23.955,2.375-40-10-21.057-16.242-20.227-44.362-20.074-47.89C161.957,106.665,197.672,68.7,240.18,70c29.66.908,56.875,20.76,70.127,50.168L260.18,120c-.045-1.555-.553-12.806-9.873-19.832a25.352,25.352,0,0,0-30,0c-9.658,7.235-9.824,18.888-9.821,20,0,1.057.265,12.715,10,20a25.3,25.3,0,0,0,30,0c9.395-7.16,9.681-18.668,9.694-20.168a50,50,0,0,0-80-60l-20-20C161.408,37.97,185.233.131,230.307.168,261.727.193,287.944,18.5,300.18,40a78.806,78.806,0,0,1,10,40Z"/><path d="M388.743,17.442V87.211h-8.721v-4.36a21.792,21.792,0,0,1-34.885-17.443V17.442h8.722V65.408a13.082,13.082,0,1,0,26.163,0V17.442Z"/><path d="M397.464,87.211V17.442h8.721V21.8A21.792,21.792,0,0,1,441.07,39.245V87.211h-8.721V39.245a13.082,13.082,0,0,0-26.164,0V87.211Z"/><path d="M502.118,174.423V104.654h8.721v4.36a21.791,21.791,0,0,1,34.884,17.442v47.967H537V126.456a13.082,13.082,0,0,0-26.163,0v47.967Z"/><rect x="449.791" y="43.606" width="8.721" height="43.606"/><path d="M475.954,65.408a13.082,13.082,0,0,0,26.164,0h8.721a21.8,21.8,0,1,1-43.606,0V0h8.721V17.442h34.885v8.721H475.954Z"/><path d="M563.166,152.62a13.082,13.082,0,0,0,26.163,0h8.721a21.8,21.8,0,1,1-43.606,0V87.211h8.722v17.443H598.05v8.721H563.166Z"/><path d="M476.39,69.769h-.436V65.408A21.874,21.874,0,0,0,476.39,69.769Z"/><path d="M380.022,109.014a21.8,21.8,0,0,0-34.885,17.442V152.62a21.8,21.8,0,0,0,34.885,17.442v4.361h8.721V126.456A21.768,21.768,0,0,0,380.022,109.014Zm0,43.606a13.082,13.082,0,0,1-26.163,0V126.456a13.082,13.082,0,0,1,26.163,0Z"/><path d="M606.771,0V21.8a21.791,21.791,0,0,0-34.884,17.442V65.408a21.8,21.8,0,0,0,34.884,17.443v4.36h8.721V0ZM593.69,78.49a13.086,13.086,0,0,1-13.082-13.082V39.245a13.082,13.082,0,1,1,26.163,0V65.408A13.086,13.086,0,0,1,593.69,78.49Z"/><path d="M563.166,61.048v-21.8a21.8,21.8,0,1,0-43.606,0V65.408a21.8,21.8,0,1,0,43.606,0h-8.722a13.082,13.082,0,1,1-26.163,0v-4.36Zm-34.885-21.8a13.082,13.082,0,1,1,26.163,0V52.327H528.281Z"/><path d="M493.4,148.259v-21.8a21.8,21.8,0,1,0-43.606,0V152.62a21.8,21.8,0,0,0,43.606,0h-8.722a13.082,13.082,0,0,1-26.163,0v-4.361Zm-34.885-21.8a13.082,13.082,0,0,1,26.163,0v13.082H458.512Z"/><path d="M432.349,104.654v4.36a21.8,21.8,0,0,0-34.885,17.442V152.62a21.8,21.8,0,0,0,32.678,18.9,23.43,23.43,0,0,0,2.207-1.456v8.721a13.082,13.082,0,1,1-26.164,0h-8.721a21.8,21.8,0,1,0,43.606,0V104.654Zm0,47.966a13.082,13.082,0,0,1-26.164,0V126.456a13.082,13.082,0,0,1,26.164,0Z"/><path d="M615.492,124.276a10.905,10.905,0,0,0,10.9,10.9h4.36a19.622,19.622,0,0,1,2.181,39.123,19.813,19.813,0,0,1-2.181.123H606.771V165.7h23.983a10.9,10.9,0,1,0,0-21.8h-4.36a19.622,19.622,0,0,1-2.18-39.123,19.8,19.8,0,0,1,2.18-.122h23.983v8.721H626.394A10.905,10.905,0,0,0,615.492,124.276Z"/><path d="M632.935,174.3v.123h-2.181A19.813,19.813,0,0,0,632.935,174.3Z"/><path d="M626.394,104.654a19.8,19.8,0,0,0-2.18.122v-.122Z"/><polygon points="454.231 17.447 457.144 23.35 463.657 24.296 458.944 28.891 460.057 35.378 454.231 32.315 448.405 35.378 449.517 28.891 444.804 24.296 451.318 23.35 454.231 17.447"/></svg>