<svg xmlns="http://www.w3.org/2000/svg" viewBox="0 0 830 100"><defs><style>.cls-1{fill:#121221;}.cls-2{fill:#366ce1;}</style></defs><title>udacity</title><g id="Слой_2" data-name="Слой 2"><g id="Work_space" data-name="Work space"><g id="udacity"><polygon class="cls-1" points="460 20 460 80 480 80 480 100 420 100 420 80 440 80 440 20 420 20 420 0 480 0 480 20 460 20"/><path class="cls-1" d="M160,0H110V100h50A50,50,0,0,0,160,0Zm0,80H130V20h30a30,30,0,0,1,0,60Z"/><path class="cls-1" d="M388.28,60h20.71a50,50,0,1,1,0-20H388.28a30,30,0,1,0,0,20Z"/><path class="cls-1" d="M270.77,1.95,269.99,0H250.01l-.78,1.94L210,100h21.55l11.2-28h34.5l11.2,28H310ZM250.75,52,260,28.87,269.25,52Z"/><polygon class="cls-1" points="590 0 590 20 550 20 550 100 530 100 530 20 490 20 490 0 590 0"/><polygon class="cls-1" points="662.83 46.46 660 50 660.05 50 660.05 100 640.05 100 640.05 50 637.22 46.46 600.05 0 625.66 0 650.02 30.45 674.38 0 700 0 662.83 46.46"/><path class="cls-1" d="M100,0V50A50,50,0,0,1,0,50V0H20V50a30,30,0,0,0,60,0V0Z"/><path class="cls-2" d="M830,30V50a50,50,0,0,1-100,0V30c0,.46.01.92.02,1.38.02.8.06,1.6.12,2.39.06.84.14,1.66.25,2.48.05.41.1.81.17,1.22.08.57.18,1.14.28,1.71.05.24.09.47.14.71.09.46.19.93.3,1.39.14.61.29,1.22.46,1.82a.142.142,0,0,0,.02.06c.16.61.34,1.22.53,1.82.11.35.22.7.34,1.05.15.45.31.89.48,1.33.11.32.23.65.36.97.3.76.61,1.5.95,2.24.15.34.31.67.46,1,.13.27.26.54.4.8.16.32.32.64.5.96.11.22.22.43.34.64.16.3.33.61.51.91.24.41.48.82.73,1.23.5.82,1.03,1.63,1.59,2.42.2.3.42.6.64.9.14.2.29.4.44.6.2.27.41.54.61.8.14.17.27.34.41.51.24.29.48.59.72.87.25.3.51.6.77.89q1.59,1.8,3.33,3.42c.27.26.54.51.82.75.29.26.59.52.89.78l.9.75c.31.25.62.49.93.73.62.48,1.25.95,1.9,1.4.32.24.64.46.97.67a1.629,1.629,0,0,0,.17.11c.27.18.55.36.82.53.34.22.67.43,1.01.63s.68.4,1.02.59c.28.17.56.32.85.48.73.4,1.48.78,2.24,1.14.16.08.32.15.48.23.31.15.63.29.94.43.23.1.46.2.7.3.71.31,1.43.6,2.16.86.07.02.13.05.2.07.16.06.31.12.47.17l.87.3c.31.11.62.21.94.3a.076.076,0,0,0,.05.02c.17.05.35.11.52.16.51.16,1.02.3,1.53.43s1.03.27,1.55.38a46.108,46.108,0,0,0,5.91.98c.82.1,1.65.17,2.49.2.65.05,1.3.07,1.95.08.28.01.56.01.85.01s.57,0,.85-.01a48.937,48.937,0,0,0,10.35-1.26c.52-.11,1.04-.24,1.55-.38s1.02-.27,1.53-.43,1.01-.3,1.51-.48c.52-.17,1.03-.35,1.54-.54.92-.33,1.82-.7,2.71-1.09a1.009,1.009,0,0,1,.15-.07c.48-.21.95-.42,1.42-.66q2.115-1.005,4.11-2.21c.42-.25.84-.52,1.26-.78.83-.53,1.64-1.08,2.43-1.67.4-.29.79-.59,1.18-.89.31-.24.62-.48.93-.73l.9-.75c.3-.26.6-.52.89-.78.28-.24.55-.49.82-.75q1.74-1.62,3.33-3.42c.26-.29.52-.59.77-.89.24-.28.48-.58.72-.87.14-.17.27-.34.41-.51.2-.26.41-.53.61-.8a49.27,49.27,0,0,0,3.4-5.15c.18-.3.35-.61.51-.91.12-.21.23-.42.34-.64.18-.32.34-.64.5-.96.14-.26.27-.53.4-.8.15-.33.31-.66.46-1,.34-.74.65-1.48.95-2.24.13-.32.25-.65.36-.97.17-.44.33-.88.48-1.33.12-.35.23-.7.34-1.05a48.19,48.19,0,0,0,1.73-7.51c.07-.41.12-.81.17-1.22.11-.82.19-1.64.25-2.48.06-.79.1-1.59.12-2.39C829.99,30.92,830,30.46,830,30Z"/><path class="cls-1" d="M778.455,79.961c.514.016,1.027.039,1.545.039Q779.223,80,778.455,79.961Z"/><path class="cls-1" d="M773.58,79.57c.53.07,1.06.13,1.6.18-.15-.01-.31-.03-.47-.04C774.34,79.67,773.96,79.62,773.58,79.57Z"/><path class="cls-1" d="M778.46,79.96c-.42-.01-.84-.03-1.26-.05l-.39-.03C777.36,79.92,777.91,79.94,778.46,79.96Z"/><path class="cls-1" d="M780,80c.518,0,1.031-.023,1.545-.039Q780.777,80,780,80Z"/><path class="cls-1" d="M830,0V30c0,.46-.01.92-.02,1.38-.02.8-.06,1.6-.12,2.39-.06.84-.14,1.66-.25,2.48-.05.41-.1.81-.17,1.22a48.19,48.19,0,0,1-1.73,7.51c-.11.35-.22.7-.34,1.05-.15.45-.31.89-.48,1.33-.11.32-.23.65-.36.97-.3.76-.61,1.5-.95,2.24-.15.34-.31.67-.46,1-.13.27-.26.54-.4.8-.16.32-.32.64-.5.96-.11.22-.22.43-.34.64-.16.3-.33.61-.51.91a49.27,49.27,0,0,1-3.4,5.15c-.2.27-.41.54-.61.8-.14.17-.27.34-.41.51-.24.29-.48.59-.72.87-.25.3-.51.6-.77.89q-1.59,1.8-3.33,3.42c-.27.26-.54.51-.82.75-.29.26-.59.52-.89.78l-.9.75c-.31.25-.62.49-.93.73a49.326,49.326,0,0,1-4.87,3.34,49.733,49.733,0,0,1-24.18,7.09A30,30,0,0,0,810,50V0Z"/><path class="cls-1" d="M778.46,79.96c-.55-.02-1.1-.04-1.65-.08s-1.09-.08-1.63-.13-1.07-.11-1.6-.18a.308.308,0,0,1-.1-.01c-.49-.06-.97-.13-1.45-.21-.34-.05-.67-.11-1-.17-.4-.07-.79-.15-1.18-.23s-.8-.17-1.19-.26-.79-.19-1.19-.29-.78-.21-1.17-.32c-.37-.1-.74-.21-1.1-.32a.076.076,0,0,1-.05-.02c-.31-.1-.63-.2-.94-.3l-.87-.3c-.16-.06-.32-.12-.47-.17-.07-.03-.14-.05-.2-.07-.73-.27-1.45-.56-2.16-.86-.24-.1-.47-.2-.7-.3-.31-.14-.63-.28-.94-.43-.16-.07-.32-.15-.48-.23-.76-.36-1.51-.74-2.24-1.14-.28-.16-.57-.32-.85-.48-.34-.19-.68-.39-1.02-.59s-.67-.41-1.01-.63c-.27-.17-.55-.35-.82-.53a1.629,1.629,0,0,1-.17-.11c-.33-.22-.65-.44-.97-.67-.65-.45-1.28-.92-1.9-1.4-.31-.24-.62-.48-.93-.73l-.9-.75c-.3-.26-.6-.52-.89-.78-.28-.24-.55-.49-.82-.75q-1.74-1.62-3.33-3.42c-.26-.29-.52-.59-.77-.89-.24-.28-.48-.58-.72-.87-.14-.17-.27-.34-.41-.51-.2-.26-.41-.53-.61-.8-.15-.2-.3-.4-.44-.6-.22-.29-.44-.59-.64-.9-.56-.79-1.09-1.6-1.59-2.42-.25-.41-.49-.82-.73-1.23-.18-.3-.35-.61-.51-.91-.12-.21-.23-.42-.34-.64-.18-.32-.34-.64-.5-.96-.14-.26-.27-.53-.4-.8-.15-.33-.31-.66-.46-1-.34-.74-.65-1.48-.95-2.24-.13-.32-.25-.65-.36-.97-.17-.44-.33-.88-.48-1.33-.12-.35-.23-.7-.34-1.05-.19-.6-.37-1.21-.53-1.82a.142.142,0,0,1-.02-.06c-.17-.6-.32-1.21-.46-1.82-.11-.46-.21-.93-.3-1.39-.05-.24-.09-.47-.14-.71-.1-.57-.2-1.14-.28-1.71-.07-.41-.12-.81-.17-1.22-.11-.82-.19-1.64-.25-2.48-.06-.79-.1-1.59-.12-2.39-.01-.46-.02-.92-.02-1.38V0h20V50A30,30,0,0,0,778.46,79.96Z"/><path class="cls-1" d="M765.2,77.76c.36.11.73.22,1.1.32-.19-.05-.39-.1-.58-.16C765.55,77.87,765.37,77.81,765.2,77.76Z"/><path class="cls-1" d="M766.3,78.08c.39.11.78.22,1.17.32-.07-.02-.15-.03-.22-.05C766.93,78.26,766.62,78.18,766.3,78.08Z"/><path class="cls-1" d="M768.66,78.69c.39.09.79.18,1.19.26-.35-.07-.7-.15-1.05-.22A.737.737,0,0,0,768.66,78.69Z"/></g></g></g></svg>