<svg xmlns="http://www.w3.org/2000/svg" viewBox="0 0 1090 220"><defs><style>.cls-1{fill:#366ce1;}.cls-2{fill:#121221;}</style></defs><title>uni phore</title><g id="Слой_2" data-name="Слой 2"><g id="Work_space" data-name="Work space"><g id="uni_phore" data-name="uni phore"><path class="cls-1" d="M980,0a50,50,0,0,0-50,50V190a30,30,0,0,0,30,30h0V160h80a50,50,0,0,0,50-50V0Zm80,130H960V30h100Z"/><polygon class="cls-1" points="260 50 260 110 280 110 280 130 220 130 220 110 240 110 240 50 220 50 220 30 280 30 280 50 260 50"/><polygon class="cls-1" points="210 30 210 130 190 130 130 60.59 130 130 110 130 110 30 130 30 190 99.41 190 30 210 30"/><polygon class="cls-2" points="570 30 570 130 550 130 550 90 490 90 490 130 470 130 470 30 490 30 490 70 550 70 550 30 570 30"/><polygon class="cls-2" points="820 50 820 70 900 70 900 90 820 90 820 110 900 110 900 130 800 130 800 30 900 30 900 50 820 50"/><path class="cls-2" d="M790,60a30,30,0,0,0-30-30H690V130h20V90h50a10,10,0,0,1,10,10v30h20V100a29.862,29.862,0,0,0-7.65-20A29.862,29.862,0,0,0,790,60ZM710,70V50h50a10,10,0,0,1,0,20Z"/><path class="cls-2" d="M630,30a50,50,0,1,0,50,50A50.005,50.005,0,0,0,630,30Zm0,80a30,30,0,1,1,30-30A30,30,0,0,1,630,110Z"/><path class="cls-2" d="M430,30H360V130h20V90h50a30,30,0,0,0,0-60Zm0,40H380V50h50a10,10,0,0,1,0,20Z"/><path class="cls-1" d="M100,30V80A50,50,0,0,1,0,80V30H20V80a30,30,0,0,0,60,0V30Z"/></g></g></g></svg>