<svg xmlns="http://www.w3.org/2000/svg" viewBox="0 0 161.8 186.82"><defs><style>.cls-1{fill:#1c1e20;}.cls-2{fill:#e1dfdf;}.cls-3{fill:#121221;}</style></defs><title>unity</title><g id="complete"><g id="Unity"><polygon class="cls-1" points="130.86 122.3 130.86 133.85 80.89 162.69 20.91 128.05 20.91 116.45 29.9 121.64 30.95 122.25 79.9 150.52 80.94 151.12 81.9 150.57 130.86 122.3"/><polygon class="cls-1" points="130.86 122.3 130.85 66.16 130.85 64.57 129.99 64.07 80.86 35.7 81.76 35.18 90.89 29.91 140.89 58.78 140.9 128.05 130.86 133.85 130.86 122.3"/><path class="cls-1" d="M316.55,330.37l-57.87-33.42-23.01-13.29-80.91,46.72.01,59.84v33.56l80.88,46.7,49.97-28.85,30.94-17.86Zm-30.93,87.14-49.97,28.84-59.98-34.64v-11.6l-.01-57.67,60.01-34.64,9.98,5.77,50,28.87.01,69.27Z" transform="translate(-154.76 -283.66)"/><polygon class="cls-1" points="90.89 29.91 81.76 35.18 80.86 35.7 31.77 64.04 30.95 64.52 30.95 122.25 29.9 121.64 20.91 116.45 20.9 58.78 80.91 24.14 90.89 29.91"/><polygon class="cls-2" points="140.9 128.05 130.86 133.85 80.89 162.69 20.91 128.05 20.91 116.45 20.9 58.78 80.91 24.14 90.89 29.91 140.89 58.78 140.9 128.05"/><polygon class="cls-3" points="131.907 123.284 81.897 152.144 81.897 94.404 131.897 65.554 131.907 123.284"/><polygon class="cls-3" points="79.897 94.404 79.897 152.144 49.297 134.484 29.897 123.284 29.897 65.544 79.887 94.414 79.897 94.404"/><polygon class="cls-3" points="130.897 63.554 80.897 92.404 80.887 92.414 30.897 63.544 66.037 43.254 80.897 34.684 94.457 42.504 99.577 45.454 102.947 47.404 130.897 63.554"/></g></g></svg>