<svg xmlns="http://www.w3.org/2000/svg" viewBox="0 0 264.394 264.297"><defs><style>.cls-1{fill:#1c1e20;}.cls-2{fill:#fff;}</style></defs><title>unreal</title><g id="complete"><g id="Unreal"><path class="cls-1" d="M700.55,523.42c-2.06,2.29-22.03,23.68-53.07,20.62-30.22-2.97-45.58-26.61-47.33-29.41-21.36,24.76-56.67,32.32-85.85,18.6a72.833,72.833,0,0,1-40.91-74.71V351.18c-1.07-1.13-8.087-8.3-18.566-7.652a22.934,22.934,0,0,0-12.042,4.437,45.193,45.193,0,0,0-.4-19.078,56.382,56.382,0,0,0,23.493,7.606,55.655,55.655,0,0,0,16.014-.887,53.147,53.147,0,0,0-15.084-4.944,54.49,54.49,0,0,0-27.254,2.535,13.5,13.5,0,0,1,1.4-19.267c12.721,6.642,22.576,7.211,29.281,6.464,10.719-1.194,16.112-6.054,27.761-5.831a45.287,45.287,0,0,1,19.774,5.2c6.524-1.782,8.8-5.1,9.55-6.422,4.268-7.512-.616-21.078-14.366-31.1,2.676,1.041,19.874,8.042,25.1,25.353a38.743,38.743,0,0,1,.507,19.267,44.585,44.585,0,0,1-13.1,23.151V459.57a34.484,34.484,0,0,0,68.37,2.42V352.27c-1.918-.97-20.262-10.582-22.4-28.284-2.259-18.721,14.395-39.988,40.9-43.944-9.852,10.95-12.047,26.221-5.747,37.859,6.607,12.2,19.717,15.172,21.8,15.609.555-.928,7.322-11.879,18.423-12.228,11.306-.356,22.956,10.417,24,25.918a13.767,13.767,0,0,0-15.26-3.32c-6.738,2.893-7.921,10.261-7.98,10.67V485.31a49.265,49.265,0,0,0,17.5,28.14C680.22,525.33,697.11,523.81,700.55,523.42Z" transform="translate(-436.156 -280.042)"/><path class="cls-2" d="M652.211,329.056c-1.189.117-2.888.807-3.042,1.944-.178,1.316,1.764,2.878,3.634,2.873,1.775,0,3.653-1.421,3.549-2.7C656.243,329.828,653.988,328.882,652.211,329.056Z" transform="translate(-436.156 -280.042)"/><path class="cls-2" d="M493.507,322.38c-.064-.974,4.054-2.7,7.933-1.922,2.52.5,5.021,2.082,4.828,2.894-.267,1.118-5.6.668-6.507.592C498.442,323.832,493.576,323.422,493.507,322.38Z" transform="translate(-436.156 -280.042)"/></g></g></svg>