<svg xmlns="http://www.w3.org/2000/svg" viewBox="0 0 402.41 152.673"><title>untitled entertainment</title><path d="M.142,23.857c.009,1.013.02,2.867,0,5.188C.053,39.183-.5,42.526,1.431,46.508A11.132,11.132,0,0,0,3.966,50.2c4.5,3.967,13.574,1.948,22.8-4.249l-.338-3.578c-4.657,4.7-10.406,6.509-14.346,4.472a10.329,10.329,0,0,1-3.316-2.951c-1.736-2.412-1.911-4.9-2.2-8.989-.238-3.4-.351-5.227.444-7.513.592-1.7,1.253-2.379.951-3.086C7.557,23.363,5.657,22.856.142,23.857Z"/><path d="M25.056,24.46c.592-1.286,4.089-.927,6.818-.46q-.057,8.936-.084,17.916-.017,5.145-.021,10.275H26.128c-.021-2.94-.011-5.3,0-6.81.1-13.8.708-16.686-.761-19.352C25.2,25.728,24.792,25.034,25.056,24.46Z"/><path d="M40.762,22.9l-.073,29.311,5.989-.012V34.409a13.06,13.06,0,0,1,6.845-5.916c1.007-.367,5.771-2.1,9.042.169,2.993,2.08,3.153,7.37,3.377,17.831.051,2.4.023,4.386-.01,5.735h6.718c.072-1.4.143-3.542.056-6.157-.358-10.845-.624-18.886-5.915-22.31-4.217-2.729-10.486-1.811-14.7.761a15.544,15.544,0,0,0-5.409,5.661,16.882,16.882,0,0,1,.085-4.647c.269-1.7.653-2.428.274-2.99C46.606,21.908,45.213,21.518,40.762,22.9Z"/><path d="M402.409.057c-6.4-.241-7.946.324-8.07.929-.084.412.515.71,1.1,1.733a7.269,7.269,0,0,1,.76,4.014c-.049,2.483,0,9.126-.042,18.127a16.146,16.146,0,0,0-11.916-2.029c-6.587,1.618-11.763,7.846-11.7,14.62.081,9.235,9.852,15.13,17.282,15a14.833,14.833,0,0,0,6.338-1.605v1.267l6.254-.044Q402.41,26.063,402.409.057ZM390.755,47.014a10.155,10.155,0,1,1-4.613-19.7,10.161,10.161,0,0,1,4.613,19.7Z"/><path d="M100.535,57.93l3.834,25.716-30-2.256-.225,17.6L104.821,95.6q.45,28.534.9,57.071l12.407-.451q-2.031-27.86-4.061-55.718l31.581,2.707-.225-17.595-31.957,1.8q.751-12.744,1.5-25.49Z"/><path d="M158.96,102.369l-5.64,50.3,20.3-.226L166.4,102.068Z"/><path d="M154.674,78.232,159.411,94.7l6.316.452q1.579-8.46,3.158-16.919Z"/><path d="M184.45,83.2q-.112,7.331-.226,14.662l29.25-3.007-3.195,57.767h16.636q-2.171-28.507-4.342-57.015l29.776,3.158V82.969l-29.4,3.91,1.88-27.144-15.114-.226q2.142,13.534,4.286,27.07Z"/><path d="M267.463,60.863q-2.106,45.792-4.211,91.584h15.64q-2.781-45.792-5.564-91.584Z"/><path d="M346.566,124.476a20.649,20.649,0,0,1-40.6-4.211H359.2c.8-20.073-15.392-36.151-33.364-35.709-18,.442-31.5,17.31-31.323,34.5.153,15.43,11.425,31.683,28.895,33.389,16.6,1.622,32.4-10.518,35.191-27.971ZM325.813,94.4a20.8,20.8,0,0,1,21,16.542H306.563A20.771,20.771,0,0,1,325.813,94.4Z"/><path d="M82.331,40.8c.1,5.755,3.772,8.124,8.028,8.124a15.394,15.394,0,0,0,6.48-1.208l.725,3.046a18.92,18.92,0,0,1-7.786,1.452c-7.205,0-11.509-4.74-11.509-11.8s4.158-12.622,10.977-12.622c7.641,0,9.673,6.721,9.673,11.026a16.073,16.073,0,0,1-.146,1.982Zm12.476-3.046c.05-2.708-1.111-6.916-5.9-6.916-4.305,0-6.19,3.966-6.529,6.916Z"/><path d="M104.187,34.659c0-2.418-.048-4.4-.193-6.336h3.772l.242,3.869h.1a8.61,8.61,0,0,1,7.738-4.4c3.241,0,8.27,1.934,8.27,9.962V51.73h-4.256V38.238c0-3.772-1.4-6.916-5.416-6.916a6.239,6.239,0,0,0-6,6.335V51.73h-4.256Z"/><path d="M135.957,21.6v6.721h6.093v3.241h-6.093V44.186c0,2.9.822,4.545,3.191,4.545a9.526,9.526,0,0,0,2.467-.289l.193,3.191a10.4,10.4,0,0,1-3.772.581,5.9,5.9,0,0,1-4.594-1.791c-1.209-1.257-1.644-3.337-1.644-6.091V31.564h-3.627V28.323H131.8V22.714Z"/><path d="M148.916,40.8c.1,5.755,3.772,8.124,8.028,8.124a15.387,15.387,0,0,0,6.48-1.208l.725,3.046a18.918,18.918,0,0,1-7.785,1.452c-7.206,0-11.51-4.74-11.51-11.8s4.159-12.622,10.977-12.622c7.642,0,9.673,6.721,9.673,11.026a16.116,16.116,0,0,1-.145,1.982Zm12.477-3.046c.049-2.708-1.112-6.916-5.9-6.916-4.3,0-6.19,3.966-6.529,6.916Z"/><path d="M170.772,35.625c0-2.755-.048-5.126-.192-7.3H174.3l.145,4.595h.194a7.022,7.022,0,0,1,6.48-5.126,4.511,4.511,0,0,1,1.209.146v4.013a6.329,6.329,0,0,0-1.451-.145c-3,0-5.126,2.272-5.706,5.464a11.832,11.832,0,0,0-.194,1.983V51.73h-4.208Z"/><path d="M192.871,21.6v6.721h6.094v3.241h-6.094V44.186c0,2.9.823,4.545,3.192,4.545a9.511,9.511,0,0,0,2.466-.289l.194,3.191a10.4,10.4,0,0,1-3.772.581,5.9,5.9,0,0,1-4.594-1.791c-1.209-1.257-1.644-3.337-1.644-6.091V31.564h-3.627V28.323h3.627V22.714Z"/><path d="M216.711,51.73l-.339-2.95h-.144a8.719,8.719,0,0,1-7.157,3.481c-4.74,0-7.158-3.337-7.158-6.721,0-5.659,5.03-8.754,14.073-8.7v-.484c0-1.934-.532-5.417-5.32-5.417a11.67,11.67,0,0,0-6.093,1.742l-.967-2.8a14.519,14.519,0,0,1,7.689-2.08c7.157,0,8.9,4.884,8.9,9.574V46.12a32.976,32.976,0,0,0,.387,5.61Zm-.629-11.946c-4.642-.1-9.914.727-9.914,5.272a3.767,3.767,0,0,0,4.014,4.063A5.822,5.822,0,0,0,215.84,45.2a4.413,4.413,0,0,0,.242-1.353Z"/><path d="M231.8,21.748a2.636,2.636,0,0,1-5.271,0,2.593,2.593,0,0,1,2.659-2.661A2.527,2.527,0,0,1,231.8,21.748Zm-4.74,29.982V28.323h4.256V51.73Z"/><path d="M238.372,34.659c0-2.418-.048-4.4-.193-6.336h3.772l.242,3.869h.1a8.607,8.607,0,0,1,7.737-4.4c3.241,0,8.27,1.934,8.27,9.962V51.73h-4.256V38.238c0-3.772-1.4-6.916-5.416-6.916a6.239,6.239,0,0,0-6,6.335V51.73h-4.256Z"/><path d="M265.209,34.659c0-2.418-.048-4.4-.193-6.336h3.724l.193,3.772h.145a8.07,8.07,0,0,1,7.351-4.3,6.918,6.918,0,0,1,6.625,4.691h.1a9.652,9.652,0,0,1,2.612-3.048,7.989,7.989,0,0,1,5.174-1.643c3.095,0,7.689,2.031,7.689,10.155V51.73h-4.159V38.48c0-4.5-1.644-7.207-5.077-7.207a5.511,5.511,0,0,0-5.03,3.87,7.018,7.018,0,0,0-.339,2.127V51.73h-4.158V37.705c0-3.723-1.645-6.432-4.885-6.432a5.816,5.816,0,0,0-5.271,4.256,5.865,5.865,0,0,0-.338,2.079V51.73h-4.16Z"/><path d="M307.908,40.8c.1,5.755,3.772,8.124,8.028,8.124a15.39,15.39,0,0,0,6.48-1.208l.725,3.046a18.92,18.92,0,0,1-7.786,1.452c-7.205,0-11.509-4.74-11.509-11.8S308,27.792,314.823,27.792c7.641,0,9.673,6.721,9.673,11.026a16.073,16.073,0,0,1-.146,1.982Zm12.476-3.046c.05-2.708-1.111-6.916-5.9-6.916-4.305,0-6.19,3.966-6.529,6.916Z"/><path d="M329.764,34.659c0-2.418-.048-4.4-.193-6.336h3.772l.242,3.869h.1a8.61,8.61,0,0,1,7.738-4.4c3.241,0,8.27,1.934,8.27,9.962V51.73h-4.256V38.238c0-3.772-1.4-6.916-5.416-6.916a6.239,6.239,0,0,0-6,6.335V51.73h-4.256Z"/><path d="M361.534,21.6v6.721h6.093v3.241h-6.093V44.186c0,2.9.822,4.545,3.191,4.545a9.526,9.526,0,0,0,2.467-.289l.193,3.191a10.4,10.4,0,0,1-3.772.581,5.9,5.9,0,0,1-4.594-1.791c-1.209-1.257-1.644-3.337-1.644-6.091V31.564h-3.627V28.323h3.627V22.714Z"/></svg>