<svg xmlns="http://www.w3.org/2000/svg" viewBox="0 0 680 170"><defs><style>.cls-1{fill:#366ce1;}</style></defs><title>uplift</title><g id="Слой_2" data-name="Слой 2"><g id="Work_space" data-name="Work space"><g id="uplift"><polygon class="cls-1" points="480 90 480 110 540 110 540 130 480 130 480 170 460 170 460 70 560 70 560 90 480 90"/><polygon class="cls-1" points="340 150 340 170 240 170 240 70 260 70 260 150 340 150"/><path class="cls-1" d="M50,60A49.726,49.726,0,0,0,80,49.99V10a30,30,0,0,1-60,0V49.99A49.726,49.726,0,0,0,50,60Z"/><path class="cls-1" d="M50,0A49.726,49.726,0,0,0,20,10.01V50a30,30,0,0,1,60,0V10.01A49.726,49.726,0,0,0,50,0Z"/><polygon class="cls-1" points="410 90 410 150 440 150 440 170 360 170 360 150 390 150 390 90 360 90 360 70 440 70 440 90 410 90"/><path class="cls-1" d="M190,70H120V170h20V130h50a30,30,0,0,0,0-60Zm0,40H140V90h50a10,10,0,0,1,0,20Z"/><polygon class="cls-1" points="680 70 680 90 640 90 640 170 620 170 620 90 580 90 580 70 680 70"/><circle class="cls-1" cx="50" cy="30" r="10"/><path class="cls-1" d="M100,70v50A50,50,0,0,1,0,120V70H20v50a30,30,0,0,0,60,0V70Z"/></g></g></g></svg>