<svg id="Complete" xmlns="http://www.w3.org/2000/svg" viewBox="0 0 528 195"><defs><style>.cls-1{fill:#366ce1;}.cls-2,.cls-3{fill:#121221;}.cls-2{opacity:0.38;}.cls-3{opacity:0.62;}</style></defs><title>upsolver</title><g id="upsolver"><path class="cls-1" d="M517.5,402.5a30,30,0,0,0-30,30v30h30a30,30,0,0,0,0-60Zm0,50h-20v-20a20,20,0,1,1,20,20Z" transform="translate(-236 -402.5)"/><path class="cls-2" d="M517.5,402.5a30,30,0,0,0-30,30v30h30a30,30,0,0,0,0-60Zm0,50h-20v-20a20,20,0,1,1,20,20Z" transform="translate(-236 -402.5)"/><path class="cls-1" d="M487.5,452.5v10h-30a5,5,0,0,1,0-10Z" transform="translate(-236 -402.5)"/><path class="cls-1" d="M487.5,462.5h10v30a5,5,0,0,1-10,0Z" transform="translate(-236 -402.5)"/><path class="cls-3" d="M487.5,462.5h10v30a5,5,0,0,1-10,0Z" transform="translate(-236 -402.5)"/><path class="cls-1" d="M474,507.5a30,30,0,0,0-30,30v30a30,30,0,0,0,60,0v-30A30,30,0,0,0,474,507.5Zm0,80a19.994,19.994,0,0,1-20-20v-30a20,20,0,0,1,40,0v30A19.994,19.994,0,0,1,474,587.5Z" transform="translate(-236 -402.5)"/><path class="cls-1" d="M296,512.5v55a30,30,0,0,1-60,0v-55a5,5,0,0,1,10,0v55a20,20,0,0,0,40,0v-55a5,5,0,0,1,10,0Z" transform="translate(-236 -402.5)"/><path class="cls-1" d="M750.57,562.5a30,30,0,1,0-46.57-25v55a5,5,0,0,0,5.606,4.964,5.126,5.126,0,0,0,4.394-5.15V567.5h20a20,20,0,0,1,20,20v5a5,5,0,0,0,5,5h0a5,5,0,0,0,5-5v-5A29.923,29.923,0,0,0,750.57,562.5Zm-36.57-5v-20a20,20,0,1,1,20,20Z" transform="translate(-236 -402.5)"/><path class="cls-3" d="M750.57,562.5a30,30,0,1,0-46.57-25v55a5,5,0,0,0,5.606,4.964,5.126,5.126,0,0,0,4.394-5.15V567.5h20a20,20,0,0,1,20,20v5a5,5,0,0,0,5,5h0a5,5,0,0,0,5-5v-5A29.923,29.923,0,0,0,750.57,562.5Zm-36.57-5v-20a20,20,0,1,1,20,20Z" transform="translate(-236 -402.5)"/><path class="cls-1" d="M434,572.5a25,25,0,0,1-25,25H379a5,5,0,1,1,0-10h30a15,15,0,0,0,0-30H399a25.013,25.013,0,0,1-5-.5,24.435,24.435,0,0,1-3.72-1.07A25,25,0,0,1,399,507.5h30a5,5,0,1,1,0,10H399a15,15,0,0,0,0,30h10a25.013,25.013,0,0,1,5,.5,24.435,24.435,0,0,1,3.72,1.07A24.988,24.988,0,0,1,434,572.5Z" transform="translate(-236 -402.5)"/><path class="cls-1" d="M574,592.682a4.984,4.984,0,0,1-5,4.818H524a10,10,0,0,1-10-10V512.741a5.182,5.182,0,0,1,5.182-5.238,4.984,4.984,0,0,1,4.818,5v70a5,5,0,0,0,5,5h39.759A5.182,5.182,0,0,1,574,592.682Z" transform="translate(-236 -402.5)"/><path class="cls-1" d="M622.164,513.792l-20.921,78.1a7.57,7.57,0,0,1-7.313,5.612h0a7.572,7.572,0,0,1-7.314-5.612l-20.93-78.1a5,5,0,0,1,4.829-6.293h0a5,5,0,0,1,4.828,3.7L593.93,580.54l18.577-69.335a5,5,0,0,1,4.829-3.7h0A5,5,0,0,1,622.164,513.792Z" transform="translate(-236 -402.5)"/><path class="cls-1" d="M644,517.5v30h45a5,5,0,0,1,5,5h0a5,5,0,0,1-5,5H644v30h45a5,5,0,0,1,5,5h0a5,5,0,0,1-5,5H634v-90h55a5,5,0,0,1,5,5h0a5,5,0,0,1-5,5Z" transform="translate(-236 -402.5)"/><path class="cls-1" d="M336,507.5a30,30,0,0,0-30,30v55a5,5,0,0,0,10,0v-25h20a30,30,0,0,0,0-60Zm0,50H316v-20a20,20,0,1,1,20,20Z" transform="translate(-236 -402.5)"/><path class="cls-2" d="M296,512.5v55a30,30,0,0,1-60,0v-55a5,5,0,0,1,10,0v55a20,20,0,0,0,40,0v-55a5,5,0,0,1,10,0Z" transform="translate(-236 -402.5)"/><path class="cls-2" d="M336,507.5a30,30,0,0,0-30,30v55a5,5,0,0,0,10,0v-25h20a30,30,0,0,0,0-60Zm0,50H316v-20a20,20,0,1,1,20,20Z" transform="translate(-236 -402.5)"/></g></svg>