<svg xmlns="http://www.w3.org/2000/svg" viewBox="0 0 675.063 190"><defs><style>.cls-1{fill:#366ce1;}.cls-2,.cls-3{fill:#121221;}.cls-2{opacity:0.62;}.cls-3{opacity:0.38;}</style></defs><title>upwork</title><g id="Слой_2" data-name="Слой 2"><g id="Work_space" data-name="Work space"><g id="upwork"><path class="cls-1" d="M171.1,40a50.005,50.005,0,0,0-50,50v90a10,10,0,1,0,20,0V129.99A50,50,0,1,0,171.1,40Zm0,80a30,30,0,1,1,30-30A30,30,0,0,1,171.1,120Z"/><path class="cls-1" d="M431.1,40a50,50,0,1,0,50,50A50.005,50.005,0,0,0,431.1,40Zm0,80a30,30,0,1,1,30-30A30,30,0,0,1,431.1,120Z"/><path class="cls-1" d="M320.379,56.318l-32,80.008a10,10,0,0,1-9.282,6.284h-6.463a10,10,0,0,1-9.282-6.284l-32-80.008a10,10,0,0,1,9.281-13.708h.009a10,10,0,0,1,9.282,6.284L275.87,113.75l25.947-64.857A10,10,0,0,1,311.1,42.61h0A10,10,0,0,1,320.379,56.318Z"/><path class="cls-1" d="M370.379,56.318l-32,80.008a10,10,0,0,1-9.282,6.284h-6.463a10,10,0,0,1-9.282-6.284l-32-80.008a10,10,0,0,1,9.281-13.708h.009a10,10,0,0,1,9.282,6.284L325.87,113.75l25.947-64.857A10,10,0,0,1,361.1,42.61h0A10,10,0,0,1,370.379,56.318Z"/><path class="cls-2" d="M320.379,56.318l-32,80.008a10,10,0,0,1-9.282,6.284h-6.463a10,10,0,0,1-9.282-6.284l-32-80.008a10,10,0,0,1,9.281-13.708h.009a10,10,0,0,1,9.282,6.284L275.87,113.75l25.947-64.857A10,10,0,0,1,311.1,42.61h0A10,10,0,0,1,320.379,56.318Z"/><path class="cls-3" d="M370.379,56.318l-32,80.008a10,10,0,0,1-9.282,6.284h-6.463a10,10,0,0,1-9.282-6.284l-32-80.008a10,10,0,0,1,9.281-13.708h.009a10,10,0,0,1,9.282,6.284L325.87,113.75l25.947-64.857A10,10,0,0,1,361.1,42.61h0A10,10,0,0,1,370.379,56.318Z"/><path class="cls-1" d="M0,89.176V50A10,10,0,0,1,10,40h0A10,10,0,0,1,20,50V89.377c0,16.348,12.819,30.165,29.16,30.612A30,30,0,0,0,80,90V50A10,10,0,0,1,90,40h0a10,10,0,0,1,10,10V90a50.006,50.006,0,0,1-50.865,49.993C21.723,139.529,0,116.591,0,89.176Z"/><path class="cls-1" d="M571.091,56.683l-.1.171a9.926,9.926,0,0,1-11.359,4.378A29.969,29.969,0,0,0,550.8,60c-16.561.164-29.7,14.1-29.7,30.664V130a10,10,0,0,1-10,10h0a10,10,0,0,1-10-10V50a10,10,0,0,1,10-10h0a10,10,0,0,1,10,10v.01A50.047,50.047,0,0,1,565.474,42.1,9.9,9.9,0,0,1,571.091,56.683Z"/><path class="cls-1" d="M674.943,131.576a10,10,0,0,1-16.24,6.144c-.14-.12-.27-.24-.4-.36l-37.69-33.93L611.1,112v18a10,10,0,0,1-10,10h0a10,10,0,0,1-10-10V10a10,10,0,0,1,10-10h0a10,10,0,0,1,10,10V85.09l9.51-8.57,36.98-33.29c0-.01.01-.02.02-.03l1.51-1.36a9.9,9.9,0,0,1,4.66-1.84h1.24a10.017,10.017,0,0,1,9.8,7.99,10.8,10.8,0,0,1,.18,1.42c.01.19.02.39.02.59a9.954,9.954,0,0,1-3.28,7.4c-.12.11-.24.21-.36.32l-35.82,32.26,36.22,32.62A9.981,9.981,0,0,1,674.943,131.576Z"/></g></g></g></svg>