<svg xmlns="http://www.w3.org/2000/svg" viewBox="0 0 420 150"><defs><style>.cls-1{fill:#e1dfdf;}.cls-2{fill:#366ce1;}.cls-3{fill:#121221;}</style></defs><title>usertesting</title><g id="Complete"><g id="usertesting"><rect class="cls-1" width="420" height="120"/><rect class="cls-1" x="515" y="549.645" width="50" height="50" transform="translate(-578.173 90.147) rotate(-45)"/><rect class="cls-2" x="210" y="10" width="100" height="10"/><path class="cls-3" d="M440,560v10h72.5a27.442,27.442,0,0,1-21.22-10Z" transform="translate(-330 -460)"/><path class="cls-2" d="M440,497.5A27.487,27.487,0,0,0,467.5,525h45a17.5,17.5,0,0,1,0,35H491.28a27.505,27.505,0,1,0,21.22-45h-45a17.5,17.5,0,0,1,0-35h21.22A27.5,27.5,0,0,0,440,497.5Z" transform="translate(-330 -460)"/><path class="cls-3" d="M467.5,470a27.442,27.442,0,0,1,21.22,10H540V470Z" transform="translate(-330 -460)"/><path class="cls-2" d="M737,530a27.351,27.351,0,0,1,3,12.5V570H730V542.5A17.506,17.506,0,0,0,712.5,525a27.343,27.343,0,0,1-15.81-5,27.343,27.343,0,0,1,15.81-5,17.5,17.5,0,0,0,0-35H650v90H640V470h72.5a27.492,27.492,0,0,1,15.81,50,27.618,27.618,0,0,1,5.41,5A27.287,27.287,0,0,1,737,530Z" transform="translate(-330 -460)"/><path class="cls-3" d="M696.69,520a27.343,27.343,0,0,0,15.81,5H650V515h62.5A27.343,27.343,0,0,0,696.69,520Z" transform="translate(-330 -460)"/><rect class="cls-3" x="220" y="55" width="80" height="10"/><rect class="cls-2" x="210" y="20" width="10" height="80"/><rect class="cls-2" x="210" y="100" width="100" height="10"/><path class="cls-2" d="M440,520a50,50,0,1,1-90-29.99V520a40,40,0,0,0,80,0V490.01A49.753,49.753,0,0,1,440,520Z" transform="translate(-330 -460)"/><path class="cls-3" d="M440,470v50a49.753,49.753,0,0,0-10-29.99V470Z" transform="translate(-330 -460)"/><path class="cls-3" d="M350,470v20.01A49.753,49.753,0,0,0,340,520V470Z" transform="translate(-330 -460)"/></g></g></svg>