<svg xmlns="http://www.w3.org/2000/svg" viewBox="0 0 700 160"><defs><style>.cls-1,.cls-3{fill:#121221;}.cls-2{fill:#366ce1;}.cls-3{opacity:0.5;}</style></defs><title>vantage data centers</title><g id="Слой_2" data-name="Слой 2"><g id="Work_space" data-name="Work space"><g id="vantage_data_centers" data-name="vantage data centers"><polygon class="cls-1" points="290 0 290 100 270 100 210 30.59 210 100 190 100 190 0 210 0 270 69.41 270 0 290 0"/><polygon class="cls-1" points="99.98 0 60.76 98.07 59.99 100 39.99 100 39.22 98.07 0 0 21.54 0 49.99 71.14 78.45 0 99.98 0"/><polygon class="cls-1" points="620 20 620 40 700 40 700 60 620 60 620 80 700 80 700 100 600 100 600 0 700 0 700 20 620 20"/><path class="cls-1" d="M140.77,1.95,139.99,0H120.01l-.78,1.94L80,100h21.55l11.2-28h34.5l11.2,28H180ZM120.75,52,130,28.87,139.25,52Z"/><path class="cls-1" d="M450.77,1.95,449.99,0H430.01l-.78,1.94L390,100h21.55l11.2-28h34.5l11.2,28H490ZM430.75,52,440,28.87,449.25,52Z"/><path class="cls-1" d="M590,40V50a49.16,49.16,0,0,1-1.01,10,50.013,50.013,0,1,1-13.64-45.35L561.21,28.79A30,30,0,1,0,568.28,60H540V40Z"/><polygon class="cls-1" points="400 0 400 20 360 20 360 100 340 100 340 20 300 20 300 0 400 0"/><polygon class="cls-2" points="465.806 103.548 465.806 156.774 455.161 156.774 423.226 119.83 423.226 156.774 412.581 156.774 412.581 103.548 423.226 103.548 455.161 140.492 455.161 103.548 465.806 103.548"/><path class="cls-2" d="M66.613,103.548H40v53.226H66.613a26.613,26.613,0,0,0,0-53.226Zm0,42.581H50.645V114.194H66.613a15.968,15.968,0,1,1,0,31.935Z"/><path class="cls-2" d="M657.419,119.516a5.325,5.325,0,0,0,5.323,5.323h21.29a15.968,15.968,0,1,1,0,31.935H646.774V146.129h37.258a5.323,5.323,0,1,0,0-10.645h-21.29a15.968,15.968,0,1,1,0-31.936H700v10.646H662.742A5.324,5.324,0,0,0,657.419,119.516Z"/><path class="cls-2" d="M332.364,135.484h11.023a26.614,26.614,0,1,1,0-10.645H332.364a15.968,15.968,0,1,0,0,10.645Z"/><polygon class="cls-2" points="540.323 114.194 540.323 124.839 582.903 124.839 582.903 135.484 540.323 135.484 540.323 146.129 582.903 146.129 582.903 156.774 529.677 156.774 529.677 103.548 582.903 103.548 582.903 114.194 540.323 114.194"/><polygon class="cls-2" points="359.355 114.194 359.355 124.839 401.935 124.839 401.935 135.484 359.355 135.484 359.355 146.129 401.935 146.129 401.935 156.774 348.71 156.774 348.71 103.548 401.935 103.548 401.935 114.194 359.355 114.194"/><path class="cls-2" d="M641.452,119.516a15.968,15.968,0,0,0-15.968-15.968H588.226v53.226h10.645v-21.29h26.613a5.324,5.324,0,0,1,5.322,5.322v15.968h10.646V140.806a15.9,15.9,0,0,0-4.072-10.645A15.9,15.9,0,0,0,641.452,119.516Zm-42.581,5.323V114.194h26.613a5.323,5.323,0,0,1,0,10.645Z"/><path class="cls-2" d="M125.571,104.586l-.415-1.038H114.521l-.415,1.033-20.88,52.193H104.7l5.961-14.9H129.02l5.961,14.9h11.471Zm-10.656,26.64,4.924-12.311,4.923,12.311Z"/><path class="cls-2" d="M221.378,104.586l-.416-1.038H210.328l-.415,1.033-20.881,52.193H200.5l5.962-14.9h18.363l5.961,14.9h11.47Zm-10.656,26.64,4.923-12.311,4.924,12.311Z"/><polygon class="cls-2" points="524.355 103.548 524.355 114.194 503.065 114.194 503.065 156.774 492.419 156.774 492.419 114.194 471.129 114.194 471.129 103.548 524.355 103.548"/><polygon class="cls-3" points="465.806 106.774 465.806 160 455.161 160 423.226 123.056 423.226 160 412.581 160 412.581 106.774 423.226 106.774 455.161 143.718 455.161 106.774 465.806 106.774"/><path class="cls-3" d="M657.419,122.742a5.325,5.325,0,0,0,5.323,5.323h21.29a15.968,15.968,0,1,1,0,31.935H646.774V149.355h37.258a5.323,5.323,0,1,0,0-10.645h-21.29a15.968,15.968,0,1,1,0-31.936H700v10.645H662.742A5.325,5.325,0,0,0,657.419,122.742Z"/><path class="cls-3" d="M332.364,138.71h11.023a26.614,26.614,0,1,1,0-10.645H332.364a15.968,15.968,0,1,0,0,10.645Z"/><polygon class="cls-3" points="540.323 117.419 540.323 128.065 582.903 128.065 582.903 138.71 540.323 138.71 540.323 149.355 582.903 149.355 582.903 160 529.677 160 529.677 106.774 582.903 106.774 582.903 117.419 540.323 117.419"/><polygon class="cls-3" points="359.355 117.419 359.355 128.065 401.935 128.065 401.935 138.71 359.355 138.71 359.355 149.355 401.935 149.355 401.935 160 348.71 160 348.71 106.774 401.935 106.774 401.935 117.419 359.355 117.419"/><path class="cls-3" d="M641.452,122.742a15.967,15.967,0,0,0-15.968-15.968H588.226V160h10.645V138.71h26.613a5.324,5.324,0,0,1,5.322,5.322V160h10.646V144.032a15.9,15.9,0,0,0-4.072-10.645A15.9,15.9,0,0,0,641.452,122.742Zm-42.581,5.323V117.419h26.613a5.323,5.323,0,0,1,0,10.646Z"/><polygon class="cls-3" points="524.355 106.774 524.355 117.419 503.065 117.419 503.065 160 492.419 160 492.419 117.419 471.129 117.419 471.129 106.774 524.355 106.774"/><polygon class="cls-2" points="194.355 103.548 194.355 114.194 173.065 114.194 173.065 156.774 162.419 156.774 162.419 114.194 141.129 114.194 141.129 103.548 194.355 103.548"/><path class="cls-3" d="M66.613,106.774H40V160H66.613a26.613,26.613,0,0,0,0-53.226Zm0,42.581H50.645V117.419H66.613a15.968,15.968,0,1,1,0,31.936Z"/><path class="cls-3" d="M125.571,107.812l-.415-1.038H114.521l-.415,1.033L93.226,160H104.7l5.961-14.9H129.02l5.961,14.9h11.471Zm-10.656,26.64,4.924-12.312,4.923,12.312Z"/><path class="cls-3" d="M221.378,107.812l-.416-1.038H210.328l-.415,1.033L189.032,160H200.5l5.962-14.9h18.363l5.961,14.9h11.47Zm-10.656,26.64,4.923-12.312,4.924,12.312Z"/><polygon class="cls-3" points="194.355 106.774 194.355 117.419 173.065 117.419 173.065 160 162.419 160 162.419 117.419 141.129 117.419 141.129 106.774 194.355 106.774"/></g></g></g></svg>