<svg xmlns="http://www.w3.org/2000/svg" viewBox="0 0 937.233 220"><defs><style>.cls-1{fill:#121221;}.cls-2{fill:#366ce1;}</style></defs><title>veera predict</title><g id="Слой_2" data-name="Слой 2"><g id="Work_space" data-name="Work space"><g id="veera_predict" data-name="veera predict"><path class="cls-1" d="M380,120H330V220h50a50,50,0,0,0,0-100Zm0,80H350V140h30a30,30,0,0,1,0,60Z"/><polygon class="cls-1" points="240 140 240 160 320 160 320 180 240 180 240 200 320 200 320 220 220 220 220 120 320 120 320 140 240 140"/><path class="cls-1" d="M210,150a30,30,0,0,0-30-30H110V220h20V180h50a10,10,0,0,1,10,10v30h20V190a29.862,29.862,0,0,0-7.65-20A29.862,29.862,0,0,0,210,150Zm-80,10V140h50a10,10,0,0,1,0,20Z"/><path class="cls-1" d="M588.28,180h20.71a50,50,0,1,1,0-20H588.28a30,30,0,1,0,0,20Z"/><polygon class="cls-1" points="480 140 480 200 510 200 510 220 430 220 430 200 460 200 460 140 430 140 430 120 510 120 510 140 480 140"/><path class="cls-1" d="M70,120H0V220H20V180H70a30,30,0,0,0,0-60Zm0,40H20V140H70a10,10,0,0,1,0,20Z"/><polygon class="cls-1" points="710 120 710 140 670 140 670 220 650 220 650 140 610 140 610 120 710 120"/><polygon class="cls-2" points="300 20 300 40 380 40 380 60 300 60 300 80 380 80 380 100 280 100 280 0 380 0 380 20 300 20"/><polygon class="cls-2" points="410 20 410 40 490 40 490 60 410 60 410 80 490 80 490 100 390 100 390 0 490 0 490 20 410 20"/><path class="cls-2" d="M600,30A30,30,0,0,0,570,0H500V100h20V60h50a10,10,0,0,1,10,10v30h20V70a29.862,29.862,0,0,0-7.65-20A29.862,29.862,0,0,0,600,30ZM520,40V20h50a10,10,0,0,1,0,20Z"/><path class="cls-2" d="M670.77,1.95,669.99,0H650.01l-.78,1.94L610,100h21.55l11.2-28h34.5l11.2,28H710ZM650.75,52,660,28.87,669.25,52Z"/><polygon class="cls-2" points="270 0 230.78 98.07 230.01 100 210.01 100 209.24 98.07 170.02 0 191.56 0 220.01 71.14 248.47 0 270 0"/><path class="cls-1" d="M847.233,210q-35-100-70-200h-10q35,100,70,200Z"/><path class="cls-1" d="M827.233,210q-35-100-70-200h-10q35,100,70,200Z"/><path class="cls-1" d="M807.233,210q-35-100-70-200h-10q35,100,70,200Z"/><path class="cls-1" d="M857.233,210q25-100,50-200-35,70-70,140,25-70,50-140h50Q897.234,110,857.233,210Z"/><path class="cls-1" d="M837.233,150q25-45,50-90l-30,150Q847.234,180,837.233,150Z"/></g></g></g></svg>