<svg xmlns="http://www.w3.org/2000/svg" viewBox="0 0 1300 130"><defs><style>.cls-1{fill:#366ce1;}.cls-2,.cls-3,.cls-5{fill:#121221;}.cls-2{opacity:0.62;}.cls-3,.cls-4{opacity:0.38;}</style></defs><title>velodyne lidar</title><g id="Слой_2" data-name="Слой 2"><g id="Work_space" data-name="Work space"><g id="velodyne_lidar" data-name="velodyne lidar"><polygon class="cls-1" points="680.02 30 680.02 130 660.02 130 600.02 60.59 600.02 130 580.02 130 580.02 30 600.02 30 660.02 99.41 660.02 30 680.02 30"/><path class="cls-1" d="M1040.02,30h-50V130h50a50,50,0,0,0,0-100Zm0,80h-30V50h30a30,30,0,0,1,0,60Z"/><path class="cls-1" d="M430,30H380V130h50a50,50,0,0,0,0-100Zm0,80H400V50h30a30,30,0,0,1,0,60Z"/><polygon class="cls-1" points="710.02 50 710.02 70 790.02 70 790.02 90 710.02 90 710.02 110 790.02 110 790.02 130 690.02 130 690.02 30 790.02 30 790.02 50 710.02 50"/><polygon class="cls-1" points="129.98 50 129.98 70 209.98 70 209.98 90 129.98 90 129.98 110 209.98 110 209.98 130 109.98 130 109.98 30 209.98 30 209.98 50 129.98 50"/><polygon class="cls-1" points="940 110 940 130 840 130 840 30 860 30 860 110 940 110"/><polygon class="cls-1" points="319.98 110 319.98 130 219.98 130 219.98 30 239.98 30 239.98 110 319.98 110"/><polygon class="cls-1" points="99.98 30 60.76 128.07 59.99 130 39.99 130 39.22 128.07 0 30 21.54 30 49.99 101.14 78.45 30 99.98 30"/><path class="cls-1" d="M1300,60a30,30,0,0,0-30-30h-70V130h20V90h50a10,10,0,0,1,10,10v30h20V100a29.862,29.862,0,0,0-7.65-20A29.862,29.862,0,0,0,1300,60Zm-80,10V50h50a10,10,0,0,1,0,20Z"/><path class="cls-1" d="M320,0a50,50,0,1,0,50,50A50.005,50.005,0,0,0,320,0Zm0,80a30,30,0,1,1,30-30A30,30,0,0,1,320,80Z"/><path class="cls-1" d="M1150.77,31.95l-.78-1.95h-19.98l-.78,1.94L1090,130h21.55l11.2-28h34.5l11.2,28H1190ZM1130.75,82,1140,58.87,1149.25,82Z"/><path class="cls-2" d="M1040.02,30h-50V130h50a50,50,0,0,0,0-100Zm0,80h-30V50h30a30,30,0,0,1,0,60Z"/><path class="cls-2" d="M1300,60a30,30,0,0,0-30-30h-70V130h20V90h50a10,10,0,0,1,10,10v30h20V100a29.862,29.862,0,0,0-7.65-20A29.862,29.862,0,0,0,1300,60Zm-80,10V50h50a10,10,0,0,1,0,20Z"/><path class="cls-2" d="M1150.77,31.95l-.78-1.95h-19.98l-.78,1.94L1090,130h21.55l11.2-28h34.5l11.2,28H1190ZM1130.75,82,1140,58.87,1149.25,82Z"/><rect class="cls-1" x="950" y="60.769" width="13.846" height="69.231"/><rect class="cls-1" x="950" y="40" width="13.846" height="13.846"/><polygon class="cls-3" points="940 110 940 130 840 130 840 30 860 30 860 110 940 110"/><g class="cls-4"><rect class="cls-5" x="950" y="60.769" width="13.846" height="69.231"/><rect class="cls-5" x="950" y="40" width="13.846" height="13.846"/></g><polygon class="cls-1" points="532.85 76.46 530.02 80 530.07 80 530.07 130 510.07 130 510.07 80 507.24 76.46 470.07 30 495.68 30 520.04 60.45 544.4 30 570.02 30 532.85 76.46"/></g></g></g></svg>