<svg xmlns="http://www.w3.org/2000/svg" viewBox="0 0 829.98 300"><defs><style>.cls-1,.cls-2,.cls-4{fill:#121221;}.cls-1{opacity:0.32;}.cls-2{opacity:0.68;}.cls-3{fill:#366ce1;}</style></defs><title>veribook</title><g id="Complete"><g id="veribook"><polygon class="cls-1" points="445.705 142.01 427.135 134.58 416.965 160 438.505 160 445.705 142.01"/><polygon class="cls-2" points="374.557 0 353.017 0 343.737 23.2 362.307 30.63 374.557 0"/><polygon class="cls-1" points="412.958 160 402.788 134.58 384.218 142.01 391.418 160 412.958 160"/><polygon class="cls-2" points="486.243 23.2 476.963 0 455.423 0 467.673 30.63 486.243 23.2"/><path class="cls-3" d="M500,250c-66.27,0-120,35.82-120,80s53.73,80,120,80,120-35.82,120-80S566.27,250,500,250Zm0,140c-55.23,0-100-26.86-100-60s44.77-60,100-60,100,26.86,100,60S555.23,390,500,390Z" transform="translate(-85.01 -250)"/><polygon class="cls-4" points="438.541 160 417.001 160 415.001 154.99 405.001 130 404.231 128.06 365.011 30 365.001 29.98 353.011 0 374.551 0 386.551 30 415.001 101.13 425.771 128.06 426.551 130 438.541 160"/><polygon class="cls-4" points="476.991 0 465.001 29.98 464.991 30 425.771 128.06 425.001 130 415.001 154.99 413.001 160 391.461 160 403.451 130 404.231 128.06 415.001 101.13 443.451 30 455.451 0 476.991 0"/><polygon class="cls-4" points="369.98 220 369.98 280 389.98 280 389.98 300 329.98 300 329.98 280 349.98 280 349.98 220 329.98 220 329.98 200 389.98 200 389.98 220 369.98 220"/><polygon class="cls-4" points="129.98 220 129.98 240 209.98 240 209.98 260 129.98 260 129.98 280 209.98 280 209.98 300 109.98 300 109.98 200 209.98 200 209.98 220 129.98 220"/><polygon class="cls-4" points="99.98 200 60.76 298.07 59.99 300 39.99 300 39.22 298.07 0 200 21.54 200 49.99 271.14 78.45 200 99.98 200"/><path class="cls-4" d="M404.99,480a30,30,0,0,0-30-30h-70V550h20V510h50a10,10,0,0,1,10,10v30h20V520a29.862,29.862,0,0,0-7.65-20A29.862,29.862,0,0,0,404.99,480Zm-80,10V470h50a10,10,0,0,1,0,20Z" transform="translate(-85.01 -250)"/><path class="cls-3" d="M584.99,480a30,30,0,0,0-30-30h-70V550h70a29.991,29.991,0,0,0,22.35-50A29.862,29.862,0,0,0,584.99,480Zm-80-10h50a10,10,0,0,1,0,20h-50Zm50,60h-50V510h50a10,10,0,0,1,0,20Z" transform="translate(-85.01 -250)"/><path class="cls-3" d="M644.99,450a50,50,0,1,0,50,50A50.005,50.005,0,0,0,644.99,450Zm0,80a30,30,0,1,1,30-30A30,30,0,0,1,644.99,530Z" transform="translate(-85.01 -250)"/><path class="cls-3" d="M754.99,450a50,50,0,1,0,50,50A50.005,50.005,0,0,0,754.99,450Zm0,80a30,30,0,1,1,30-30A30,30,0,0,1,754.99,530Z" transform="translate(-85.01 -250)"/><polygon class="cls-3" points="829.98 299.99 829.98 300 800.11 300 759.49 263.43 749.98 272 749.98 300 729.98 300 729.98 200 749.98 200 749.98 245.09 759.49 236.52 800.05 200 829.95 200 774.44 249.98 829.98 299.99"/></g></g></svg>