<svg xmlns="http://www.w3.org/2000/svg" viewBox="0 0 882.606 100"><defs><style>.cls-1{fill:#366ce1;}.cls-2{fill:#121221;opacity:0.38;}</style></defs><title>veriflow</title><g id="Слой_2" data-name="Слой 2"><g id="Work_space" data-name="Work space"><g id="veriflow"><polygon class="cls-1" points="422.606 20 422.606 40 482.606 40 482.606 60 422.606 60 422.606 100 402.606 100 402.606 0 502.606 0 502.606 20 422.606 20"/><polygon class="cls-1" points="370 20 370 80 390 80 390 100 330 100 330 80 350 80 350 20 330 20 330 0 390 0 390 20 370 20"/><polygon class="cls-1" points="130 20 130 40 210 40 210 60 130 60 130 80 210 80 210 100 110 100 110 0 210 0 210 20 130 20"/><polygon class="cls-1" points="612.606 80 612.606 100 512.606 100 512.606 0 532.606 0 532.606 80 612.606 80"/><path class="cls-1" d="M320,30A30,30,0,0,0,290,0H220V100h20V60h50a10,10,0,0,1,10,10v30h20V70a29.862,29.862,0,0,0-7.65-20A29.862,29.862,0,0,0,320,30ZM240,40V20h50a10,10,0,0,1,0,20Z"/><path class="cls-1" d="M662.606,0a50,50,0,1,0,50,50A50.005,50.005,0,0,0,662.606,0Zm0,80a30,30,0,1,1,30-30A30,30,0,0,1,662.606,80Z"/><polygon class="cls-1" points="99.98 0 60.76 98.07 59.99 100 39.99 100 39.22 98.07 0 0 21.54 0 49.99 71.14 78.45 0 99.98 0"/><polygon class="cls-1" points="802.586 0 763.366 98.07 762.596 100 742.596 100 741.826 98.07 702.606 0 724.146 0 752.596 71.14 781.056 0 802.586 0"/><polygon class="cls-1" points="882.606 0 843.386 98.07 842.616 100 822.616 100 821.846 98.07 782.626 0 804.166 0 832.616 71.14 861.076 0 882.606 0"/><polygon class="cls-2" points="99.98 0 60.76 98.07 59.99 100 39.99 100 39.22 98.07 0 0 21.54 0 49.99 71.14 78.45 0 99.98 0"/><polygon class="cls-2" points="802.586 0 763.366 98.07 762.596 100 742.596 100 741.826 98.07 702.606 0 724.146 0 752.596 71.14 781.056 0 802.586 0"/><polygon class="cls-2" points="882.606 0 843.386 98.07 842.616 100 822.616 100 821.846 98.07 782.626 0 804.166 0 832.616 71.14 861.076 0 882.606 0"/></g></g></g></svg>