<svg xmlns="http://www.w3.org/2000/svg" viewBox="0 0 789.958 110"><defs><style>.cls-1{fill:#366ce1;}.cls-2,.cls-3,.cls-4{fill:#121221;}.cls-2{opacity:0.38;}.cls-3{opacity:0.62;}</style></defs><title>verto fx</title><g id="Слой_2" data-name="Слой 2"><g id="Work_space" data-name="Work space"><g id="verto_fx" data-name="verto fx"><polygon class="cls-1" points="589.98 20 589.98 40 649.98 40 649.98 60 589.98 60 589.98 100 569.98 100 569.98 0 669.98 0 669.98 20 589.98 20"/><polygon class="cls-1" points="742.46 50.03 779.91 100 754.92 100 729.97 66.7 705.01 100 680.03 100 717.47 50.03 679.98 0 704.96 0 729.97 33.36 754.97 0 779.96 0 742.46 50.03"/><polygon class="cls-2" points="581.976 22.018 581.976 44.013 647.962 44.013 647.962 66.009 581.976 66.009 581.976 110 559.98 110 559.98 0.022 669.958 0.022 669.958 22.018 581.976 22.018"/><polygon class="cls-3" points="748.708 55.033 789.903 110 762.414 110 734.969 73.37 707.513 110 680.035 110 721.219 55.033 679.98 0 707.458 0 734.969 36.696 762.469 0 789.958 0 748.708 55.033"/><path class="cls-4" d="M459.98,0a50,50,0,1,0,50,50A50.005,50.005,0,0,0,459.98,0Zm0,90a40,40,0,1,1,40-40A40,40,0,0,1,459.98,90Z"/><polygon class="cls-4" points="120 10 120 45 210 45 210 55 120 55 120 90 210 90 210 100 110 100 110 0 210 0 210 10 120 10"/><path class="cls-4" d="M306.57,55A29.994,29.994,0,0,0,290,0H220V100h10V60h60a19.994,19.994,0,0,1,20,20v20h10V80A29.923,29.923,0,0,0,306.57,55ZM280,52.04l-.02-.04H280ZM290,50H230V10h60a20,20,0,0,1,0,40Z"/><polygon class="cls-4" points="419.98 0 419.98 10 374.98 10 374.98 100 364.98 100 364.98 10 319.98 10 319.98 0 419.98 0"/><polygon class="cls-4" points="99.99 0 55.47 98.78 54.93 100 45.05 100 44.51 98.8 0 0 10.97 0 49.99 86.62 89.02 0 99.99 0"/></g></g></g></svg>