<svg xmlns="http://www.w3.org/2000/svg" viewBox="0 0 1533.93 176.62"><defs><style>.cls-1{fill:#121221;}.cls-2{fill:#366ce1;}</style></defs><title>very connect</title><g id="Слой_2" data-name="Слой 2"><g id="Work_space" data-name="Work space"><g id="very_connect" data-name="very connect"><polygon class="cls-1" points="1381 147.2 1330.02 176.62 1330 176.61 1330 117.76 1381 147.2"/><polygon class="cls-1" points="1533.93 117.76 1533.93 176.61 1533.91 176.62 1482.93 147.2 1533.93 117.76"/><polygon class="cls-1" points="1482.93 29.42 1431.96 58.84 1381 29.42 1431.97 0 1482.93 29.42"/><polygon class="cls-1" points="1482.93 147.2 1431.96 176.62 1381 147.2 1431.97 117.78 1482.93 147.2"/><polygon class="cls-1" points="1381 29.42 1330 58.86 1330 0.01 1330.02 0 1381 29.42"/><polygon class="cls-1" points="1533.93 0.01 1533.93 58.86 1482.93 29.42 1533.91 0 1533.93 0.01"/><polygon class="cls-2" points="1533.93 58.86 1533.93 117.76 1482.93 147.2 1431.97 117.78 1381 147.2 1330 117.76 1330 58.86 1381 29.42 1431.96 58.84 1482.93 29.42 1533.93 58.86"/><polygon class="cls-2" points="869.98 38.31 869.98 138.31 849.98 138.31 789.98 68.9 789.98 138.31 769.98 138.31 769.98 38.31 789.98 38.31 849.98 107.72 849.98 38.31 869.98 38.31"/><polygon class="cls-2" points="979.98 38.31 979.98 138.31 959.98 138.31 899.98 68.9 899.98 138.31 879.98 138.31 879.98 38.31 899.98 38.31 959.98 107.72 959.98 38.31 979.98 38.31"/><polygon class="cls-1" points="382.83 84.77 380 88.31 380.05 88.31 380.05 138.31 360.05 138.31 360.05 88.31 357.22 84.77 320.05 38.31 345.66 38.31 370.02 68.76 394.38 38.31 420 38.31 382.83 84.77"/><polygon class="cls-2" points="1009.98 58.31 1009.98 78.31 1089.98 78.31 1089.98 98.31 1009.98 98.31 1009.98 118.31 1089.98 118.31 1089.98 138.31 989.98 138.31 989.98 38.31 1089.98 38.31 1089.98 58.31 1009.98 58.31"/><polygon class="cls-1" points="129.98 58.31 129.98 78.31 209.98 78.31 209.98 98.31 129.98 98.31 129.98 118.31 209.98 118.31 209.98 138.31 109.98 138.31 109.98 38.31 209.98 38.31 209.98 58.31 129.98 58.31"/><path class="cls-1" d="M319.98,68.31a30,30,0,0,0-30-30h-70v100h20v-40h50a10,10,0,0,1,10,10v30h20v-30a29.862,29.862,0,0,0-7.65-20A29.862,29.862,0,0,0,319.98,68.31Zm-80,10v-20h50a10,10,0,0,1,0,20Z"/><path class="cls-2" d="M709.98,38.31a50,50,0,1,0,50,50A50.005,50.005,0,0,0,709.98,38.31Zm0,80a30,30,0,1,1,30-30A30,30,0,0,1,709.98,118.31Z"/><path class="cls-2" d="M1179.27,98.31h20.71a50,50,0,1,1,0-20h-20.71a30,30,0,1,0,0,20Z"/><path class="cls-2" d="M628.26,98.31h20.71a50,50,0,1,1,0-20H628.26a30,30,0,1,0,0,20Z"/><polygon class="cls-2" points="1300 38.31 1300 58.31 1260 58.31 1260 138.31 1240 138.31 1240 58.31 1200 58.31 1200 38.31 1300 38.31"/><polygon class="cls-1" points="99.98 38.31 60.76 136.38 59.99 138.31 39.99 138.31 39.22 136.38 0 38.31 21.54 38.31 49.99 109.45 78.45 38.31 99.98 38.31"/></g></g></g></svg>