<svg id="Main" xmlns="http://www.w3.org/2000/svg" viewBox="0 0 540 452.255"><defs><style>.cls-1{fill:#366ce1;}.cls-2{fill:#121221;}</style></defs><title>viber</title><g id="viber"><ellipse class="cls-1" cx="270" cy="152.255" rx="50" ry="150"/><circle class="cls-2" cx="270" cy="252.255" r="50"/><circle class="cls-2" cx="270" cy="52.255" r="50"/><polygon class="cls-2" points="100 352.255 60 452.255 40 452.255 0 352.255 20 352.255 50 427.255 80 352.255 100 352.255"/><polygon class="cls-2" points="350 372.255 350 392.255 430 392.255 430 412.255 350 412.255 350 432.255 430 432.255 430 452.255 330 452.255 330 352.255 430 352.255 430 372.255 350 372.255"/><path class="cls-2" d="M527.88,666.06A29.665,29.665,0,0,0,530,655a30,30,0,0,0-30-30H450V725h70a30,30,0,0,0,7.88-58.94ZM470,645h30a10,10,0,0,1,0,20H470Zm50,60H470V685h21.72c.12-.36.25-.71.4-1.06A29.274,29.274,0,0,0,500,685h20a10,10,0,0,1,0,20Z" transform="translate(-230 -272.745)"/><path class="cls-2" d="M500,685h-8.28c.12-.36.25-.71.4-1.06A29.274,29.274,0,0,0,500,685Z" transform="translate(-230 -272.745)"/><path class="cls-2" d="M770,655a30,30,0,0,0-30-30H670V725h20V685h30l30,40h20l-30-40A30,30,0,0,0,770,655Zm-80,10V645h50a10,10,0,0,1,0,20Z" transform="translate(-230 -272.745)"/><polygon class="cls-2" points="170 372.255 170 432.255 210 432.255 210 452.255 110 452.255 110 432.255 150 432.255 150 372.255 110 372.255 110 352.255 210 352.255 210 372.255 170 372.255"/><path class="cls-2" d="M400,425a99.967,99.967,0,0,1,29.136-70.864A100.535,100.535,0,1,1,407.5,463.314,100.165,100.165,0,0,1,400,425Zm0,0a99.227,99.227,0,0,0,169.8,69.8,99.251,99.251,0,0,0-140.36-140.36A99.759,99.759,0,0,0,400,425Z" transform="translate(-230 -272.745)"/><path class="cls-2" d="M625,425a125.2,125.2,0,0,1-9.4,47.884,126.508,126.508,0,0,1-233.765,1.061,126.559,126.559,0,0,1,27.944-139.163A126.589,126.589,0,0,1,615.6,377.116,125.2,125.2,0,0,1,625,425Zm0,0a123.467,123.467,0,0,0-36.909-88.091A123.593,123.593,0,0,0,387.17,378.266a123.387,123.387,0,0,0,26.262,133.3A123.476,123.476,0,0,0,625,425Z" transform="translate(-230 -272.745)"/><path class="cls-2" d="M350,425a150.262,150.262,0,0,1,11.244-57.473,152.253,152.253,0,0,1,281.35-1.592,152.558,152.558,0,0,1,.007,118.133,152.321,152.321,0,0,1-281.358-1.594A150.266,150.266,0,0,1,350,425Zm0,0a147.756,147.756,0,0,0,44.38,105.62,147.754,147.754,0,0,0,208.941-2.3,146.8,146.8,0,0,0,17.968-22.286A151.2,151.2,0,0,0,634.6,480.748a147.765,147.765,0,0,0-31.261-159.083,147.7,147.7,0,0,0-241.776,45.992A150.093,150.093,0,0,0,350,425Z" transform="translate(-230 -272.745)"/></g></svg>