<svg xmlns="http://www.w3.org/2000/svg" viewBox="0 0 650 270"><title>viewpoint</title><ellipse cx="40" cy="140" rx="20.218" ry="118.706" transform="matrix(0.952, -0.307, 0.307, 0.952, -41.074, 19.058)"/><path d="M100,60Q75,140,50,220H80q25-79.995,50-160ZM60,210Q78.75,140,97.5,70H120q-18.75,70.005-37.5,140Z"/><circle cx="65" cy="15" r="15"/><path d="M145,100a15,15,0,1,0,15,15A15.005,15.005,0,0,0,145,100Zm0,20a5,5,0,1,1,5-5A5,5,0,0,1,145,120Z"/><path d="M65,30,0,60H10Z"/><path d="M20,60,65,30,30,60Z"/><path d="M65,30l65,30H120Z"/><path d="M65,30l35,30h10Z"/><path d="M160.472,140.005A20.025,20.025,0,0,0,140,160v10H115a5,5,0,0,0-5,5h0a5,5,0,0,0,5,5h25v40h10V180h10a20,20,0,0,0,.472-40Zm-.757,30H150v-9.715a10.184,10.184,0,0,1,8.538-10.181A10.011,10.011,0,0,1,169.9,161.462,10.184,10.184,0,0,1,159.715,170Z"/><path d="M220,130a29.979,29.979,0,0,0-28.28,20A29.592,29.592,0,0,0,190,160v30a29.592,29.592,0,0,0,1.72,10,29.991,29.991,0,0,0,57.85-5h-10.2A20,20,0,0,1,200,190h50V160A30,30,0,0,0,220,130Zm-20,50V160a20,20,0,0,1,40,0v20Z"/><path d="M360,130v60a29.991,29.991,0,0,1-50,22.35A29.991,29.991,0,0,1,260,190V130h10v60a20,20,0,0,0,33.75,14.52,15.349,15.349,0,0,0,1.25-1.3V130h10v73.22a15.349,15.349,0,0,0,1.25,1.3A20,20,0,0,0,350,190V130Z"/><path d="M422.35,140A30.005,30.005,0,0,0,400,130H370V270h10V220h20a29.592,29.592,0,0,0,10-1.72A29.979,29.979,0,0,0,430,190V160A29.862,29.862,0,0,0,422.35,140ZM420,190a19.994,19.994,0,0,1-20,20H380V140h20a19.994,19.994,0,0,1,20,20Z"/><path d="M498.28,150a29.994,29.994,0,0,0-56.56,0A29.592,29.592,0,0,0,440,160v30a30,30,0,0,0,60,0V160A29.592,29.592,0,0,0,498.28,150ZM470,210a19.994,19.994,0,0,1-20-20V160a20,20,0,0,1,40,0v30A19.994,19.994,0,0,1,470,210Z"/><rect x="510" y="140" width="10" height="80"/><circle cx="515" cy="115" r="5"/><path d="M590,160v60H580V160a20,20,0,0,0-40,0v60H530V130h10v7.65A29.991,29.991,0,0,1,590,160Z"/><path d="M620,199.654a10.23,10.23,0,0,0,9.328,10.324A10,10,0,0,0,640,200h10a19.994,19.994,0,0,1-20.719,19.987C618.44,219.608,610,210.372,610,199.523V120H585a5,5,0,0,1-5-5h0a5,5,0,0,1,5-5h25V85a5,5,0,0,1,5-5h0a5,5,0,0,1,5,5v25h25a5,5,0,0,1,5,5h0a5,5,0,0,1-5,5H620Z"/></svg>