<svg id="Main" xmlns="http://www.w3.org/2000/svg" viewBox="0 0 192 129"><defs><style>.cls-1{fill:#121221;}.cls-2{fill:#fff;}.cls-3{fill:#366ce1;stroke-width:0.681px;}.cls-3,.cls-4{stroke:#e1e0e0;stroke-miterlimit:10;}.cls-4{fill:none;stroke-width:1.618px;}</style></defs><title>virtualbox</title><g id="VirtualBox"><path class="cls-1" d="M557,540.5l-6-6H539v30h12l6-6v-6l-4-4q2-1,4-2Zm-9,0,3,3-3,3-3-3Zm-3,15,3-3,3,3-3,3Z" transform="translate(-404 -435.5)"/><path class="cls-1" d="M572,540.5h-6l-6,6v12l6,6h6l6-6v-12Zm-6,15v-6l3-3,3,3v6l-3,3Z" transform="translate(-404 -435.5)"/><path class="cls-1" d="M590,552.5q3,6,6,12h-6q-1.5-3-3-6-1.5,3-3,6h-6q3-6,6-12-3-6-6-12h6q1.5,3,3,6,1.5-3,3-6h6Q593,546.5,590,552.5Z" transform="translate(-404 -435.5)"/><polygon class="cls-1" points="24 99 15 129 9 129 0 99 6 99 12 119.001 18 99 24 99"/><rect class="cls-1" x="27" y="114" width="6" height="15"/><rect class="cls-1" x="27" y="105" width="6" height="6"/><path class="cls-1" d="M497,540.5v24H485l-6-6v-18h6v15l3,3h3v-18Z" transform="translate(-404 -435.5)"/><path class="cls-1" d="M458,546.5v6h-6l-6-6v18h-6v-24h6v3h6l3,3Z" transform="translate(-404 -435.5)"/><path class="cls-1" d="M512,540.5h-6l-6,6v18h6v-3l3-3,3,3v3h6v-18Zm0,15-3-3-3,3v-6l3-3,3,3Z" transform="translate(-404 -435.5)"/><path class="cls-1" d="M506,552.5h3l-3,3Z" transform="translate(-404 -435.5)"/><path class="cls-1" d="M512,552.5v3l-3-3Z" transform="translate(-404 -435.5)"/><path class="cls-1" d="M533,564.5h-6l-6-6v-24h6v24Z" transform="translate(-404 -435.5)"/><path class="cls-1" d="M476,558.5h-6v-9l3-3h3v-6h-3l-3-3v-3h-6v3l-3,3h-3v6h3l3,3v9l6,6h12Zm-12-15,3-3,3,3-3,3Z" transform="translate(-404 -435.5)"/><path class="cls-2" d="M512,552.5v3l-3-3Z" transform="translate(-404 -435.5)"/><path class="cls-2" d="M509,552.5l-3,3v-3Z" transform="translate(-404 -435.5)"/><path class="cls-1" d="M543.185,493.113h0a8.792,8.792,0,0,1,3.218,12.009L540.2,515.877a8.792,8.792,0,0,1-12.009,3.217h0A8.791,8.791,0,0,0,515,526.707v0a8.791,8.791,0,0,1-8.791,8.791H493.791A8.791,8.791,0,0,1,485,526.709v0a8.791,8.791,0,0,0-13.187-7.613h0a8.792,8.792,0,0,1-12.009-3.217L453.6,505.123a8.792,8.792,0,0,1,3.218-12.009h0a8.791,8.791,0,0,0,0-15.226h0a8.792,8.792,0,0,1-3.218-12.009l6.209-10.754a8.792,8.792,0,0,1,12.009-3.217h0A8.791,8.791,0,0,0,485,444.293v0a8.791,8.791,0,0,1,8.791-8.791h12.418A8.791,8.791,0,0,1,515,444.291v0a8.791,8.791,0,0,0,13.187,7.613h0a8.792,8.792,0,0,1,12.009,3.217l6.209,10.754a8.792,8.792,0,0,1-3.218,12.009h0A8.791,8.791,0,0,0,543.185,493.113Z" transform="translate(-404 -435.5)"/><path class="cls-3" d="M500,485.5q0,11.552,0,23.1L480,497.041,480,473.95Q490,479.728,500,485.5Z" transform="translate(-404 -435.5)"/><path class="cls-3" d="M520,473.951,500,485.5q-10-5.778-20-11.546l20-11.55Z" transform="translate(-404 -435.5)"/><path class="cls-3" d="M520,473.951l.006,23.09-20,11.55q0-11.552,0-23.1Z" transform="translate(-404 -435.5)"/><polygon class="cls-4" points="115.996 38.451 116.002 61.541 95.997 73.091 76.003 61.541 75.997 38.45 96.002 26.9 115.996 38.451"/></g></svg>