<svg xmlns="http://www.w3.org/2000/svg" viewBox="0 0 810 260"><defs><style>.cls-1{fill:#366ce1;}.cls-2{fill:#1c1e20;}</style></defs><title>visionx</title><g id="complete"><g id="Vision_X" data-name="Vision X"><path class="cls-1" d="M710,600a99.816,99.816,0,1,1,55.64-16.9A100,100,0,0,1,710,600Z" transform="translate(-30 -370)"/><path class="cls-2" d="M780,500a99.465,99.465,0,0,0-15.89-54.11A100.254,100.254,0,0,1,805.42,500a100.254,100.254,0,0,1-41.31,54.11A99.465,99.465,0,0,0,780,500Z" transform="translate(-30 -370)"/><path class="cls-2" d="M655.89,445.89A100.254,100.254,0,0,1,710,404.58a100.254,100.254,0,0,1,54.11,41.31,100.075,100.075,0,0,0-108.22,0Z" transform="translate(-30 -370)"/><path class="cls-2" d="M655.89,554.11a100.075,100.075,0,0,0,108.22,0A100.254,100.254,0,0,1,710,595.42,100.254,100.254,0,0,1,655.89,554.11Z" transform="translate(-30 -370)"/><path class="cls-2" d="M614.58,500a100.254,100.254,0,0,1,41.31-54.11,100.075,100.075,0,0,0,0,108.22A100.254,100.254,0,0,1,614.58,500Z" transform="translate(-30 -370)"/><path class="cls-2" d="M640,500a99.465,99.465,0,0,1,15.89-54.11,100.075,100.075,0,0,1,108.22,0,100.075,100.075,0,0,1,0,108.22,100.075,100.075,0,0,1-108.22,0A99.465,99.465,0,0,1,640,500Z" transform="translate(-30 -370)"/><path class="cls-2" d="M794.11,584.11a100.026,100.026,0,0,1-168.22,0A100.235,100.235,0,0,0,710,595.42a100.235,100.235,0,0,0,84.11-11.31Z" transform="translate(-30 -370)"/><path class="cls-2" d="M794.11,415.89A100.235,100.235,0,0,0,710,404.58a100.235,100.235,0,0,0-84.11,11.31,100.026,100.026,0,0,1,168.22,0Z" transform="translate(-30 -370)"/><path class="cls-2" d="M610,530a99.465,99.465,0,0,0,15.89,54.11,100.026,100.026,0,0,1,0-168.22A100.235,100.235,0,0,0,614.58,500,99.793,99.793,0,0,0,610,530Z" transform="translate(-30 -370)"/><path class="cls-2" d="M840,500a99.921,99.921,0,0,1-45.89,84.11A100.235,100.235,0,0,0,805.42,500a100.235,100.235,0,0,0-11.31-84.11A99.921,99.921,0,0,1,840,500Z" transform="translate(-30 -370)"/><path class="cls-1" d="M765.64,583.1q-28.89-33.975-57.76-67.95-5.16-6.06-10.3-12.12-30.315-35.655-60.62-71.32a99.807,99.807,0,0,1,17.4-14.81q28.89,33.975,57.76,67.95,5.16,6.06,10.3,12.12,30.315,35.655,60.62,71.32A99.807,99.807,0,0,1,765.64,583.1Z" transform="translate(-30 -370)"/><ellipse class="cls-1" cx="710" cy="500" rx="90.99" ry="10.99" transform="translate(-156.803 362.078) rotate(-50.655)"/></g><path class="cls-2" d="M130,450q-20,50-40,100H70Q50.005,500,30,450H50l30,75,30-75Z" transform="translate(-30 -370)"/><rect class="cls-2" x="110" y="80" width="20" height="100"/><rect class="cls-2" x="250" y="80" width="20" height="100"/><path class="cls-2" d="M270,500a49.16,49.16,0,0,1-1.01,10A50.021,50.021,0,0,1,230,548.99a50.01,50.01,0,0,1-20,0V528.28a29.93,29.93,0,0,0,20,0A29.952,29.952,0,0,0,248.28,510H171.01a50.01,50.01,0,0,1,0-20A50.021,50.021,0,0,1,210,451.01a50.01,50.01,0,0,1,20,0v20.71a29.93,29.93,0,0,0-20,0A29.952,29.952,0,0,0,191.72,490h77.27A49.16,49.16,0,0,1,270,500Z" transform="translate(-30 -370)"/><path class="cls-2" d="M360,450a50,50,0,1,0,50,50A50.005,50.005,0,0,0,360,450Zm0,80a30,30,0,1,1,30-30A30,30,0,0,1,360,530Z" transform="translate(-30 -370)"/><polygon class="cls-2" points="490 80 490 180 470 180 410 105 410 180 390 180 390 80 410 80 470 155 470 80 490 80"/></g></svg>