<svg id="Complete" xmlns="http://www.w3.org/2000/svg" viewBox="0 0 300 300"><defs><style>.cls-1{fill:#121221;}.cls-2{fill:#366ce1;}</style></defs><title>Visio</title><g id="Visio"><path class="cls-1" d="M500,400V700L300,650V450Z" transform="translate(-300 -400)"/><ellipse class="cls-2" cx="250" cy="145" rx="86.603" ry="128.598"/><path class="cls-1" d="M548.1,463.235l-40.337,40.337H477.7v7.821h30.058l36.426,36.418v23.246H524.634V543.681H477.7V551.5h39.108v46.93H477.7v7.821h46.93V578.879h27.375V547.811l40.329-40.329Zm0,77.427-33.188-33.18L548.1,474.3l33.179,33.187Z" transform="translate(-300 -400)"/><polygon class="cls-2" points="157.32 90 98.33 216.25 88.99 236.25 79.643 216.25 30 110 44.017 100 88.99 196.25 143.303 80 157.32 90"/></g></svg>