<svg id="Main" xmlns="http://www.w3.org/2000/svg" viewBox="0 0 951.953 622.762"><defs><style>.cls-1,.cls-3{fill:#121221;}.cls-2,.cls-5{fill:#366ce1;}.cls-2,.cls-3,.cls-4{stroke:#e1e0e0;}.cls-2,.cls-3,.cls-4,.cls-7{stroke-miterlimit:10;stroke-width:1.618px;}.cls-4,.cls-6{fill:#1c1e20;}.cls-7{fill:none;stroke:#e1dfdf;}</style></defs><title>visualdataflex</title><g id="visualdataflex"><ellipse class="cls-1" cx="190" cy="200" rx="13.857" ry="72.166" transform="translate(-45.469 192.677) rotate(-87.713)"/><path class="cls-2" d="M250,610V810H150l-20-20V590l20,20Z" transform="translate(-28.047 -189.191)"/><path class="cls-3" d="M250,610H150l-20-20H230Z" transform="translate(-28.047 -189.191)"/><rect class="cls-2" x="221.953" y="420.809" width="100" height="200"/><polygon class="cls-4" points="21.953 620.809 1.953 600.809 1.953 400.809 21.953 420.809 21.953 620.809"/><path class="cls-2" d="M150,610V810H50V610L30,590H130Z" transform="translate(-28.047 -189.191)"/><rect class="cls-2" x="21.953" y="220.809" width="100" height="200"/><polygon class="cls-4" points="21.953 420.809 1.953 400.809 1.953 200.809 21.953 220.809 21.953 420.809"/><ellipse class="cls-3" cx="90" cy="400" rx="13.857" ry="72.166" transform="translate(-341.32 284.776) rotate(-87.713)"/><rect class="cls-2" x="221.953" y="220.809" width="100" height="200"/><polygon class="cls-4" points="221.953 420.809 201.953 400.809 201.953 200.809 221.953 220.809 221.953 420.809"/><ellipse class="cls-3" cx="290" cy="400" rx="13.857" ry="72.166" transform="translate(-149.301 484.616) rotate(-87.713)"/><rect class="cls-5" x="121.953" y="20.809" width="100" height="200"/><polygon class="cls-6" points="121.953 220.809 101.953 200.809 101.953 0.809 121.953 20.809 121.953 220.809"/><path class="cls-7" d="M250,210V410H150l-20-20V190H230Z" transform="translate(-28.047 -189.191)"/><path class="cls-1" d="M370,345h40l60,250,60-250h40q-40,150-80,300H450Q410,495,370,345Z" transform="translate(-28.047 -189.191)"/><path class="cls-1" d="M670,345H570V645H670c55.23,0,100-67.16,100-150S725.23,345,670,345Zm0,260H610V385h60c33.14,0,60,49.25,60,110S703.14,605,670,605Z" transform="translate(-28.047 -189.191)"/><polygon class="cls-1" points="781.953 195.809 781.953 285.809 841.953 285.809 841.953 325.809 781.953 325.809 781.953 455.809 741.953 455.809 741.953 155.809 941.953 155.809 941.953 195.809 781.953 195.809"/><path class="cls-5" d="M380,355h40l60,250,60-250h40q-40,150-80,300H460Q420,505,380,355Z" transform="translate(-28.047 -189.191)"/><path class="cls-5" d="M680,355H580V655H680c55.23,0,100-67.16,100-150S735.23,355,680,355Zm0,260H620V395h60c33.14,0,60,49.25,60,110S713.14,615,680,615Z" transform="translate(-28.047 -189.191)"/><polygon class="cls-5" points="791.953 205.809 791.953 295.809 851.953 295.809 851.953 335.809 791.953 335.809 791.953 465.809 751.953 465.809 751.953 165.809 951.953 165.809 951.953 205.809 791.953 205.809"/></g></svg>