<svg xmlns="http://www.w3.org/2000/svg" viewBox="0 0 745.67 174.141"><defs><style>.cls-1{fill:#121221;}.cls-2{fill:#366ce1;}.cls-3{fill:#fff;}</style></defs><title>vizitor</title><g id="Слой_2" data-name="Слой 2"><g id="Complete"><g id="vizitor"><polygon class="cls-1" points="220.384 64.193 320.384 64.193 320.384 84.193 250.974 144.193 320.384 144.193 320.384 164.193 220.384 164.193 220.384 144.193 289.794 84.193 220.384 84.193 220.384 64.193"/><polygon class="cls-1" points="99.98 64.193 60.76 162.263 59.99 164.193 39.99 164.193 39.22 162.263 0 64.193 21.54 64.193 49.99 135.333 78.45 64.193 99.98 64.193"/><path class="cls-1" d="M745.67,94.193a30,30,0,0,0-30-30h-70v100h20v-40h50a10,10,0,0,1,10,10v30h20v-30a29.862,29.862,0,0,0-7.65-20A29.862,29.862,0,0,0,745.67,94.193Zm-80,10v-20h50a10,10,0,0,1,0,20Z"/><path class="cls-1" d="M587.58,64.193a50,50,0,1,0,50,50A50.005,50.005,0,0,0,587.58,64.193Zm0,80a30,30,0,1,1,30-30A30,30,0,0,1,587.58,144.193Z"/><polygon class="cls-1" points="537.58 64.193 537.58 84.193 497.58 84.193 497.58 164.193 477.58 164.193 477.58 84.193 437.58 84.193 437.58 64.193 537.58 64.193"/><polygon class="cls-1" points="171.195 84.192 171.195 144.192 211.195 144.192 211.195 174.141 191.195 174.141 191.195 164.192 131.195 164.192 131.195 174.141 111.195 174.141 111.195 144.192 151.195 144.192 151.195 84.192 111.195 84.192 111.195 54.242 131.195 54.242 131.195 64.192 191.195 64.192 191.195 54.242 211.195 54.242 211.195 84.192 171.195 84.192"/><circle class="cls-2" cx="161.201" cy="30" r="30"/><circle class="cls-3" cx="161.201" cy="30" r="10"/><rect class="cls-1" x="151.155" y="84.192" width="0.04" height="60"/><rect class="cls-1" x="171.195" y="84.192" width="0.05" height="60"/><polygon class="cls-2" points="390.757 84.192 390.757 144.192 430.757 144.192 430.757 174.141 410.757 174.141 410.757 164.192 350.757 164.192 350.757 174.141 330.757 174.141 330.757 144.192 370.757 144.192 370.757 84.192 330.757 84.192 330.757 54.242 350.757 54.242 350.757 64.192 410.757 64.192 410.757 54.242 430.757 54.242 430.757 84.192 390.757 84.192"/><circle class="cls-1" cx="380.763" cy="30" r="30"/><circle class="cls-3" cx="380.763" cy="30" r="10"/><rect class="cls-1" x="370.717" y="84.192" width="0.04" height="60"/><rect class="cls-1" x="390.757" y="84.192" width="0.05" height="60"/></g></g></g></svg>