<svg id="Main" xmlns="http://www.w3.org/2000/svg" viewBox="0 0 420 410"><defs><style>.cls-1{fill:#366ce1;}.cls-2{fill:#121221;}</style></defs><title>vmware</title><g id="VMware"><path class="cls-1" d="M290,505,390,405V505Z" transform="translate(-290 -295)"/><path class="cls-1" d="M400,395,500,295V395Z" transform="translate(-290 -295)"/><path class="cls-1" d="M390,605,290,505H390Z" transform="translate(-290 -295)"/><path class="cls-2" d="M390,405,490,505H390Z" transform="translate(-290 -295)"/><path class="cls-1" d="M710,505,610,405V505Z" transform="translate(-290 -295)"/><path class="cls-1" d="M600,395,500,295V395Z" transform="translate(-290 -295)"/><path class="cls-1" d="M400,605,500,505V605Z" transform="translate(-290 -295)"/><path class="cls-1" d="M600,605,500,505V605Z" transform="translate(-290 -295)"/><path class="cls-1" d="M610,605,710,505H610Z" transform="translate(-290 -295)"/><path class="cls-2" d="M610,405,510,505H610Z" transform="translate(-290 -295)"/><path class="cls-2" d="M600,395H400L500,495Z" transform="translate(-290 -295)"/><path class="cls-1" d="M610,625l-10-10-10,10Z" transform="translate(-290 -295)"/><path class="cls-2" d="M570,635l10,10,10-10Z" transform="translate(-290 -295)"/><path class="cls-1" d="M580,705l10-10-10-10Z" transform="translate(-290 -295)"/><path class="cls-1" d="M550,635l-10-10-10,10Z" transform="translate(-290 -295)"/><path class="cls-1" d="M560,645l10,10,10-10Z" transform="translate(-290 -295)"/><path class="cls-1" d="M540,645l10,10,10-10Z" transform="translate(-290 -295)"/><path class="cls-1" d="M590,635l-10-10-10,10Z" transform="translate(-290 -295)"/><path class="cls-2" d="M580,705l10-10-10-10Z" transform="translate(-290 -295)"/><path class="cls-2" d="M580,685l10-10-10-10Z" transform="translate(-290 -295)"/><path class="cls-2" d="M580,665l10-10-10-10Z" transform="translate(-290 -295)"/><path class="cls-1" d="M600,645l-10-10-10,10Z" transform="translate(-290 -295)"/><path class="cls-2" d="M570,655l-10-10-10,10Z" transform="translate(-290 -295)"/><path class="cls-2" d="M580,685l10,10,10-10Z" transform="translate(-290 -295)"/><path class="cls-1" d="M600,685l-10-10-10,10Z" transform="translate(-290 -295)"/><path class="cls-2" d="M580,665l10,10,10-10Z" transform="translate(-290 -295)"/><path class="cls-1" d="M600,665l-10-10-10,10Z" transform="translate(-290 -295)"/><path class="cls-2" d="M580,645l10,10,10-10Z" transform="translate(-290 -295)"/><path class="cls-1" d="M530,625l-10-10-10,10Z" transform="translate(-290 -295)"/><path class="cls-2" d="M510,625l10,10,10-10Z" transform="translate(-290 -295)"/><path class="cls-2" d="M590,625l10,10,10-10Z" transform="translate(-290 -295)"/><path class="cls-2" d="M540,665l-10,10,10,10Z" transform="translate(-290 -295)"/><path class="cls-2" d="M540,685l-10,10,10,10Z" transform="translate(-290 -295)"/><path class="cls-2" d="M540,645l-10,10,10,10Z" transform="translate(-290 -295)"/><path class="cls-2" d="M580,645l-10-10-10,10Z" transform="translate(-290 -295)"/><path class="cls-2" d="M530,635l10,10,10-10Z" transform="translate(-290 -295)"/><path class="cls-2" d="M560,645l-10-10-10,10Z" transform="translate(-290 -295)"/><path class="cls-1" d="M540,645l-10-10-10,10Z" transform="translate(-290 -295)"/><path class="cls-2" d="M520,685l10,10,10-10Z" transform="translate(-290 -295)"/><path class="cls-1" d="M540,685l-10-10-10,10Z" transform="translate(-290 -295)"/><path class="cls-2" d="M520,665l10,10,10-10Z" transform="translate(-290 -295)"/><path class="cls-1" d="M540,665l-10-10-10,10Z" transform="translate(-290 -295)"/><path class="cls-2" d="M520,645l10,10,10-10Z" transform="translate(-290 -295)"/><path class="cls-1" d="M550,655l10,10,10-10Z" transform="translate(-290 -295)"/><path class="cls-1" d="M450,695l10-10-10-10Z" transform="translate(-290 -295)"/><path class="cls-1" d="M430,675l-10,10,10,10Z" transform="translate(-290 -295)"/><path class="cls-2" d="M450,675l-10,10,10,10Z" transform="translate(-290 -295)"/><path class="cls-1" d="M460,685l10-10-10-10Z" transform="translate(-290 -295)"/><path class="cls-2" d="M460,665l-10,10,10,10Z" transform="translate(-290 -295)"/><path class="cls-1" d="M470,675l10-10-10-10Z" transform="translate(-290 -295)"/><path class="cls-2" d="M470,655l-10,10,10,10Z" transform="translate(-290 -295)"/><path class="cls-2" d="M430,695l10-10-10-10Z" transform="translate(-290 -295)"/><path class="cls-1" d="M420,665l-10,10,10,10Z" transform="translate(-290 -295)"/><path class="cls-2" d="M420,685l10-10-10-10Z" transform="translate(-290 -295)"/><path class="cls-1" d="M410,655l-10,10,10,10Z" transform="translate(-290 -295)"/><path class="cls-2" d="M410,675l10-10-10-10Z" transform="translate(-290 -295)"/><path class="cls-1" d="M410,635l-10,10,10,10Z" transform="translate(-290 -295)"/><path class="cls-2" d="M410,655l10-10-10-10Z" transform="translate(-290 -295)"/><path class="cls-1" d="M400,665l10-10-10-10Z" transform="translate(-290 -295)"/><path class="cls-1" d="M400,615l-10,10,10,10Z" transform="translate(-290 -295)"/><path class="cls-1" d="M480,645l-10,10,10,10Z" transform="translate(-290 -295)"/><path class="cls-2" d="M400,635l10-10-10-10Z" transform="translate(-290 -295)"/><path class="cls-1" d="M470,635l-10,10,10,10Z" transform="translate(-290 -295)"/><path class="cls-2" d="M470,635l-10,10,10,10Z" transform="translate(-290 -295)"/><path class="cls-1" d="M470,655l10-10-10-10Z" transform="translate(-290 -295)"/><path class="cls-1" d="M480,615l-10,10,10,10Z" transform="translate(-290 -295)"/><path class="cls-2" d="M480,615l-10,10,10,10Z" transform="translate(-290 -295)"/><path class="cls-1" d="M480,635l10-10-10-10Z" transform="translate(-290 -295)"/><path class="cls-1" d="M430,695l10,10,10-10Z" transform="translate(-290 -295)"/><path class="cls-1" d="M450,695l-10-10-10,10Z" transform="translate(-290 -295)"/></g></svg>