<svg id="Слой_1" data-name="Слой 1" xmlns="http://www.w3.org/2000/svg" viewBox="0 0 600 342.017"><defs><style>.cls-1{fill:#366ce1;}.cls-2{fill:#121221;}</style></defs><title>vue</title><path class="cls-1" d="M300,329.007H400l100,150,100-150,100,.155c-66.667,69.948-133.333,141.9-200,211.845C433.333,471.007,366.667,399.007,300,329.007Z" transform="translate(-200 -328.993)"/><path class="cls-2" d="M400,329.007l62.366-.014L500,448.683q19.068-59.846,38.137-119.69l61.863.014-100,150Z" transform="translate(-200 -328.993)"/><path class="cls-1" d="M200,571.007h50l50,70,60-70h40l-100,100Z" transform="translate(-200 -328.993)"/><path class="cls-2" d="M250,571.007h20l30,60,40-60h20l-60,70Z" transform="translate(-200 -328.993)"/><path class="cls-1" d="M742.44,651.01q-2.67,1.32-5.58,2.55a.689.689,0,0,0-.08.03,94.434,94.434,0,0,1-34.24,7.37.563.563,0,0,0-.13,0c-.14,0-.28.01-.41.02a.11.11,0,0,0-.08,0c-.14,0-.28,0-.42.01-.19,0-.37.01-.53.01-.41.01-.73.01-.97.01-.35,0-.7,0-1.05-.01-.38,0-.76-.01-1.13-.02a2.715,2.715,0,0,1-.29-.01c-.37-.01-.78-.03-1.21-.04a95.742,95.742,0,0,1-24.78-4.2c-.5-.15-1-.31-1.49-.47q-2.52-.81-4.92-1.75c-.8-.3-1.59-.62-2.37-.95q-2.34-.96-4.56-2.03c-1.48-.7-2.91-1.42-4.31-2.17a.827.827,0,0,0-.16-.09c-.43-.23-.85-.47-1.28-.7s-.84-.47-1.25-.71q-1.23-.705-2.4-1.41c-.82-.5-1.61-1-2.39-1.5a98.071,98.071,0,0,1-8.3-5.91c-.37-.29-.72-.57-1.07-.85-.4-.32-.79-.64-1.18-.96-2.06-1.7-3.92-3.37-5.6-4.95-.28-.26-.55-.52-.82-.78A91.836,91.836,0,0,1,620,621.01H800c-36.75-49-93.77-50-100-50-61.25,0-96.26,45.02-100,50,3.74,4.98,38.75,50,100,50,4.56,0,36.29-.54,67.38-20a119.392,119.392,0,0,0,13.73-10H758.66A102.6,102.6,0,0,1,742.44,651.01ZM632.13,608.86c.36-.35.71-.7,1.07-1.02.33-.31.66-.63.99-.92.17-.16.33-.31.5-.46s.35-.31.53-.47a93.515,93.515,0,0,1,26.72-17.02c1.06-.46,2.14-.91,3.24-1.34.55-.22,1.11-.43,1.68-.64s1.13-.41,1.71-.61c.9-.32,1.82-.62,2.75-.92,1.29-.4,2.59-.78,3.93-1.15.11-.03.23-.06.35-.09,1.26-.33,2.53-.64,3.84-.93.65-.15,1.31-.29,1.97-.41,1.32-.27,2.67-.51,4.04-.71q3.075-.495,6.32-.75c.37-.03.74-.07,1.1-.1s.71-.05,1.04-.08c.47-.04.93-.07,1.36-.09.3-.02.6-.03.91-.04q.72-.045,1.35-.06c1.06-.03,1.9-.04,2.47-.04.63,0,1.26.01,1.89.02.2,0,.39.01.58.02.39.01.81.03,1.26.05a.34.34,0,0,1,.1.01c.3.01.6.02.9.04.46.02.91.05,1.36.09.22.02.45.03.68.05a.17.17,0,0,1,.07.01,2.825,2.825,0,0,1,.29.02h.07a93.043,93.043,0,0,1,19.03,3.41c.74.2,1.48.42,2.2.66a2.582,2.582,0,0,1,.26.08c.36.11.71.22,1.06.35.57.18,1.13.37,1.68.56.58.2,1.15.4,1.71.61s1.13.42,1.68.64c1.1.43,2.18.88,3.24,1.34a93.515,93.515,0,0,1,26.72,17.02c.36.32.7.63,1.03.93.35.32.68.63.99.92.39.36.74.7,1.07,1.02.96.93,1.67,1.67,2.13,2.15H630C630.7,610.27,631.41,609.55,632.13,608.86Z" transform="translate(-200 -328.993)"/><path class="cls-2" d="M770,611.01H750c-20.43-19.46-44.88-20-50-20-28.21,0-46.29,16.47-50,20H630c.7-.74,1.41-1.46,2.13-2.15.36-.35.71-.7,1.07-1.02.33-.31.66-.63.99-.92.17-.16.33-.31.5-.46s.35-.31.53-.47a93.515,93.515,0,0,1,26.72-17.02c1.06-.46,2.14-.91,3.24-1.34.55-.22,1.11-.43,1.68-.64s1.13-.41,1.71-.61c.9-.32,1.82-.62,2.75-.92,1.29-.4,2.59-.78,3.93-1.15.11-.03.23-.06.35-.09,1.26-.33,2.53-.64,3.84-.93.65-.14,1.3-.28,1.97-.41,1.32-.26,2.67-.5,4.04-.71,2.06-.31,4.16-.57,6.32-.75.37-.03.74-.07,1.1-.1s.71-.05,1.04-.08c.47-.04.93-.07,1.36-.09.3-.02.6-.03.91-.04q.72-.045,1.35-.06c1.06-.03,1.9-.04,2.47-.04.63,0,1.26.01,1.89.02.2,0,.39.01.58.02.39.01.81.03,1.26.05a.34.34,0,0,1,.1.01c.3.01.6.02.9.04.46.02.91.05,1.36.09.22.02.45.03.68.05a.17.17,0,0,1,.07.01,2.825,2.825,0,0,1,.29.02h.07l.28.03c.24.02.48.05.73.07h.02c.23.02.45.04.69.07a93.954,93.954,0,0,1,17.31,3.24c.74.21,1.48.43,2.2.66a2.582,2.582,0,0,1,.26.08c.36.11.71.22,1.06.35.57.18,1.13.37,1.68.56.58.2,1.15.4,1.71.61s1.13.42,1.68.64c1.1.43,2.18.88,3.24,1.34a93.515,93.515,0,0,1,26.72,17.02c.36.32.7.63,1.03.93.35.32.68.63.99.92.39.36.74.7,1.07,1.02C768.83,609.79,769.54,610.53,770,611.01Z" transform="translate(-200 -328.993)"/><path class="cls-2" d="M791.63,631.01H649.05c21.32,19.54,47.69,20,50.95,20h42.44q-2.67,1.32-5.58,2.55a.689.689,0,0,0-.08.03,94.434,94.434,0,0,1-34.24,7.37.563.563,0,0,0-.13,0c-.14,0-.28.01-.41.02a.11.11,0,0,0-.08,0c-.14,0-.28,0-.42.01-.19,0-.37.01-.53.01-.41.01-.73.01-.97.01-.35,0-.7,0-1.05-.01-.38,0-.76-.01-1.13-.02a2.715,2.715,0,0,1-.29-.01c-.37-.01-.78-.03-1.21-.04-.38-.03-.78-.05-1.2-.07a96.111,96.111,0,0,1-23.58-4.13c-.5-.15-1-.31-1.49-.47-1.68-.55-3.32-1.14-4.92-1.75-.8-.31-1.59-.63-2.37-.95q-2.34-.975-4.56-2.03c-1.48-.7-2.91-1.42-4.31-2.17a.827.827,0,0,0-.16-.09c-.43-.23-.85-.47-1.28-.7s-.84-.47-1.25-.71q-1.23-.705-2.4-1.41c-.82-.5-1.61-1-2.39-1.5-3.02-1.94-5.78-3.94-8.3-5.91-.37-.29-.72-.57-1.07-.85-.4-.32-.79-.64-1.18-.96-2.06-1.7-3.92-3.37-5.6-4.95-.28-.26-.55-.52-.82-.78A91.836,91.836,0,0,1,620,621.01H800A121.541,121.541,0,0,1,791.63,631.01Z" transform="translate(-200 -328.993)"/><path class="cls-1" d="M600,571.007v50c-36.75,49-93.77,50-100,50-61.25,0-96.26-45.02-100-50v-50h20v50c2.99,3.98,31,40,80,40,4.98,0,50.6-.8,80-40v-50Z" transform="translate(-200 -328.993)"/><path class="cls-2" d="M580,571.007v50c-29.4,39.2-75.02,40-80,40-49,0-77.01-36.02-80-40v-50h20v50c22.05,29.4,56.26,30,60,30,36.75,0,57.76-27.01,60-30v-50Z" transform="translate(-200 -328.993)"/></svg>