<svg id="Main" xmlns="http://www.w3.org/2000/svg" viewBox="0 0 842.994 852.806"><defs><style>.cls-1{fill:#121221;}.cls-2{fill:#366ce1;}</style></defs><title>vyper</title><g id="Vyper"><rect class="cls-1" x="490.961" y="45.171" width="70.711" height="70.711" transform="translate(753.715 479.102) rotate(-135)"/><rect class="cls-1" x="440.961" y="95.171" width="70.711" height="70.711" transform="translate(633.004 529.102) rotate(-135)"/><rect class="cls-1" x="540.961" y="95.171" width="70.711" height="70.711" transform="translate(803.715 599.813) rotate(-135)"/><rect class="cls-1" x="590.961" y="145.171" width="70.711" height="70.711" transform="translate(853.715 720.524) rotate(-135)"/><rect class="cls-1" x="390.961" y="145.171" width="70.711" height="70.711" transform="translate(512.294 579.102) rotate(-135)"/><rect class="cls-1" x="340.961" y="195.171" width="70.711" height="70.711" transform="translate(391.583 629.102) rotate(-135)"/><rect class="cls-1" x="640.961" y="195.171" width="70.711" height="70.711" transform="translate(903.715 841.234) rotate(-135)"/><rect class="cls-1" x="690.961" y="245.171" width="70.711" height="70.711" transform="translate(953.715 961.945) rotate(-135)"/><rect class="cls-1" x="290.961" y="245.171" width="70.711" height="70.711" transform="translate(270.872 679.102) rotate(-135)"/><rect class="cls-2" x="512.815" y="97.868" width="27.008" height="27.008" transform="translate(731.908 531.761) rotate(-135)"/><rect class="cls-2" x="493.712" y="116.971" width="27.008" height="27.008" transform="translate(685.79 550.864) rotate(-135)"/><rect class="cls-2" x="474.615" y="136.068" width="27.008" height="27.008" transform="translate(639.685 569.961) rotate(-135)"/><rect class="cls-2" x="455.512" y="155.171" width="27.008" height="27.008" transform="translate(593.567 589.064) rotate(-135)"/><rect class="cls-2" x="436.414" y="174.268" width="27.008" height="27.008" transform="translate(547.462 608.162) rotate(-135)"/><rect class="cls-2" x="589.21" y="174.263" width="27.008" height="27.008" transform="translate(-44.063 450.653) rotate(-45)"/><rect class="cls-2" x="570.112" y="155.166" width="27.008" height="27.008" transform="translate(-36.152 431.555) rotate(-45)"/><rect class="cls-2" x="551.01" y="136.063" width="27.008" height="27.008" transform="translate(-28.24 412.453) rotate(-45)"/><rect class="cls-2" x="531.912" y="116.966" width="27.008" height="27.008" transform="translate(-20.329 393.355) rotate(-45)"/><rect class="cls-2" x="504.466" y="286.509" width="43.699" height="43.699" transform="translate(284.374 -312.372) rotate(45)"/><rect class="cls-2" x="535.366" y="255.609" width="43.699" height="43.699" transform="translate(271.575 -343.272) rotate(45)"/><rect class="cls-2" x="566.266" y="224.709" width="43.699" height="43.699" transform="translate(258.776 -374.172) rotate(45)"/><rect class="cls-2" x="597.166" y="193.809" width="43.699" height="43.699" transform="translate(245.977 -405.072) rotate(45)"/><rect class="cls-2" x="628.066" y="162.909" width="43.699" height="43.699" transform="translate(233.177 -435.972) rotate(45)"/><rect class="cls-2" x="380.866" y="162.909" width="43.699" height="43.699" transform="translate(730.301 0.113) rotate(135)"/><rect class="cls-2" x="411.766" y="193.809" width="43.699" height="43.699" transform="translate(804.9 31.013) rotate(135)"/><rect class="cls-2" x="442.666" y="224.709" width="43.699" height="43.699" transform="translate(879.499 61.913) rotate(135)"/><rect class="cls-2" x="473.566" y="255.609" width="43.699" height="43.699" transform="translate(954.098 92.813) rotate(135)"/><rect class="cls-2" x="469.111" y="461.887" width="114.41" height="114.41" transform="translate(433.386 -250.649) rotate(45)"/><rect class="cls-2" x="550.011" y="380.987" width="114.41" height="114.41" transform="translate(399.876 -331.549) rotate(45)"/><rect class="cls-2" x="630.911" y="300.087" width="114.41" height="114.41" transform="translate(366.366 -412.449) rotate(45)"/><rect class="cls-2" x="711.811" y="219.187" width="114.41" height="114.41" transform="translate(332.856 -493.349) rotate(45)"/><rect class="cls-2" x="792.711" y="138.287" width="114.41" height="114.41" transform="translate(299.346 -574.249) rotate(45)"/><rect class="cls-2" x="146.465" y="139.241" width="114.41" height="114.41" transform="translate(398.773 160.812) rotate(135)"/><rect class="cls-2" x="227.365" y="220.141" width="114.41" height="114.41" transform="translate(594.083 241.712) rotate(135)"/><rect class="cls-2" x="308.265" y="301.041" width="114.41" height="114.41" transform="translate(789.393 322.612) rotate(135)"/><rect class="cls-2" x="389.165" y="381.941" width="114.41" height="114.41" transform="translate(984.703 403.512) rotate(135)"/><rect class="cls-2" x="159.369" y="771.551" width="23.568" height="23.568" transform="translate(516.208 77.884) rotate(45)"/><rect class="cls-2" x="176.038" y="754.881" width="23.568" height="23.568" transform="translate(509.303 61.214) rotate(45)"/><rect class="cls-2" x="192.703" y="738.216" width="23.568" height="23.568" transform="translate(502.4 44.549) rotate(45)"/><rect class="cls-2" x="209.373" y="721.546" width="23.568" height="23.568" transform="translate(495.496 27.879) rotate(45)"/><rect class="cls-2" x="226.038" y="704.881" width="23.568" height="23.568" transform="translate(488.593 11.214) rotate(45)"/><rect class="cls-2" x="92.703" y="704.886" width="23.568" height="23.568" transform="translate(597.311 1119.021) rotate(135)"/><rect class="cls-2" x="109.369" y="721.551" width="23.568" height="23.568" transform="translate(637.545 1135.686) rotate(135)"/><rect class="cls-2" x="126.038" y="738.22" width="23.568" height="23.568" transform="translate(677.789 1152.356) rotate(135)"/><rect class="cls-2" x="142.703" y="754.886" width="23.568" height="23.568" transform="translate(718.022 1169.021) rotate(135)"/><rect class="cls-2" x="800.385" y="704.877" width="23.568" height="23.568" transform="translate(791.881 1767.18) rotate(-135)"/><rect class="cls-2" x="817.059" y="721.551" width="23.568" height="23.568" transform="translate(808.556 1807.435) rotate(-135)"/><rect class="cls-2" x="800.394" y="738.216" width="23.568" height="23.568" transform="translate(768.322 1824.1) rotate(-135)"/><rect class="cls-2" x="817.05" y="754.886" width="23.568" height="23.568" transform="translate(784.969 1864.335) rotate(-135)"/><rect class="cls-2" x="800.398" y="771.546" width="23.568" height="23.568" transform="translate(-403.838 773.206) rotate(-45)"/><rect class="cls-2" x="883.728" y="721.551" width="23.568" height="23.568" transform="translate(-344.079 817.486) rotate(-45)"/><rect class="cls-2" x="850.394" y="721.546" width="23.568" height="23.568" transform="translate(-353.839 793.914) rotate(-45)"/><rect class="cls-2" x="690.4" y="738.225" width="23.568" height="23.568" transform="translate(648.178 -307.373) rotate(45)"/><rect class="cls-2" x="707.07" y="754.886" width="23.568" height="23.568" transform="translate(664.842 -314.28) rotate(45)"/><rect class="cls-2" x="723.735" y="738.22" width="23.568" height="23.568" transform="translate(657.939 -330.945) rotate(45)"/><rect class="cls-2" x="740.404" y="721.551" width="23.568" height="23.568" transform="translate(651.034 -347.615) rotate(45)"/><rect class="cls-2" x="757.07" y="771.542" width="23.568" height="23.568" transform="translate(691.264 -344.757) rotate(45)"/><rect class="cls-2" x="623.735" y="771.56" width="23.568" height="23.568" transform="translate(1550.984 857.345) rotate(135)"/><rect class="cls-2" x="640.4" y="721.555" width="23.568" height="23.568" transform="translate(1544.075 760.198) rotate(135)"/><rect class="cls-2" x="657.07" y="738.225" width="23.568" height="23.568" transform="translate(1584.319 776.868) rotate(135)"/><rect class="cls-2" x="673.735" y="754.89" width="23.568" height="23.568" transform="translate(1624.552 793.533) rotate(135)"/><rect class="cls-2" x="690.404" y="704.877" width="23.568" height="23.568" transform="translate(604.133 1689.412) rotate(-135)"/><rect class="cls-2" x="657.07" y="704.881" width="23.568" height="23.568" transform="translate(547.224 1665.849) rotate(-135)"/><rect class="cls-2" x="640.4" y="721.551" width="23.568" height="23.568" transform="translate(506.98 1682.518) rotate(-135)"/><rect class="cls-2" x="623.735" y="738.216" width="23.568" height="23.568" transform="translate(466.747 1699.184) rotate(-135)"/><rect class="cls-2" x="757.07" y="738.211" width="23.568" height="23.568" transform="translate(-392.957 732.805) rotate(-45)"/><rect class="cls-2" x="740.404" y="721.546" width="23.568" height="23.568" transform="translate(-386.054 716.14) rotate(-45)"/><rect class="cls-2" x="723.735" y="704.877" width="23.568" height="23.568" transform="translate(-379.149 699.47) rotate(-45)"/><rect class="cls-2" x="514.541" y="771.551" width="23.568" height="23.568" transform="translate(620.236 -173.261) rotate(45)"/><rect class="cls-2" x="531.211" y="754.881" width="23.568" height="23.568" transform="translate(613.331 -189.93) rotate(45)"/><rect class="cls-2" x="547.876" y="738.216" width="23.568" height="23.568" transform="translate(606.428 -206.596) rotate(45)"/><rect class="cls-2" x="564.545" y="721.546" width="23.568" height="23.568" transform="translate(599.523 -223.265) rotate(45)"/><rect class="cls-2" x="581.211" y="704.881" width="23.568" height="23.568" transform="translate(592.62 -239.93) rotate(45)"/><rect class="cls-2" x="447.876" y="704.886" width="23.568" height="23.568" transform="translate(1203.628 867.876) rotate(135)"/><rect class="cls-2" x="464.541" y="721.551" width="23.568" height="23.568" transform="translate(1243.861 884.542) rotate(135)"/><rect class="cls-2" x="481.211" y="738.22" width="23.568" height="23.568" transform="translate(1284.105 901.211) rotate(135)"/><rect class="cls-2" x="497.876" y="754.886" width="23.568" height="23.568" transform="translate(1324.339 917.876) rotate(135)"/><rect class="cls-2" x="514.545" y="688.216" width="23.568" height="23.568" transform="translate(315.704 1536.62) rotate(-135)"/><rect class="cls-2" x="497.876" y="621.551" width="23.568" height="23.568" transform="translate(334.386 1411.028) rotate(-135)"/><rect class="cls-2" x="481.21" y="688.216" width="23.568" height="23.568" transform="translate(258.798 1513.048) rotate(-135)"/><rect class="cls-2" x="464.541" y="654.886" width="23.568" height="23.568" transform="translate(253.909 1444.363) rotate(-135)"/><rect class="cls-2" x="447.876" y="671.551" width="23.568" height="23.568" transform="translate(213.676 1461.028) rotate(-135)"/><rect class="cls-2" x="581.211" y="671.546" width="23.568" height="23.568" transform="translate(-397.326 588.928) rotate(-45)"/><rect class="cls-2" x="564.545" y="654.881" width="23.568" height="23.568" transform="translate(-390.423 572.262) rotate(-45)"/><rect class="cls-2" x="547.876" y="688.216" width="23.568" height="23.568" transform="translate(-418.877 570.239) rotate(-45)"/><rect class="cls-2" x="531.211" y="621.546" width="23.568" height="23.568" transform="translate(-376.615 538.928) rotate(-45)"/><rect class="cls-2" x="337.245" y="771.551" width="23.568" height="23.568" transform="translate(568.307 -47.894) rotate(45)"/><rect class="cls-2" x="353.915" y="754.881" width="23.568" height="23.568" transform="translate(561.402 -64.563) rotate(45)"/><rect class="cls-2" x="370.58" y="738.216" width="23.568" height="23.568" transform="translate(554.499 -81.229) rotate(45)"/><rect class="cls-2" x="387.25" y="721.546" width="23.568" height="23.568" transform="translate(547.594 -97.898) rotate(45)"/><rect class="cls-2" x="403.915" y="704.881" width="23.568" height="23.568" transform="translate(540.691 -114.563) rotate(45)"/><rect class="cls-2" x="253.913" y="854.883" width="23.568" height="23.568" transform="translate(602.824 35.439) rotate(45)"/><rect class="cls-2" x="270.582" y="838.214" width="23.568" height="23.568" transform="translate(595.92 18.769) rotate(45)"/><rect class="cls-2" x="287.247" y="821.549" width="23.568" height="23.568" transform="translate(589.017 2.104) rotate(45)"/><rect class="cls-2" x="303.917" y="804.879" width="23.568" height="23.568" transform="translate(582.112 -14.566) rotate(45)"/><rect class="cls-2" x="320.582" y="788.214" width="23.568" height="23.568" transform="translate(575.209 -31.231) rotate(45)"/><rect class="cls-2" x="270.58" y="704.886" width="23.568" height="23.568" transform="translate(900.965 993.244) rotate(135)"/><rect class="cls-2" x="287.245" y="721.551" width="23.568" height="23.568" transform="translate(941.199 1009.909) rotate(135)"/><rect class="cls-2" x="303.915" y="738.22" width="23.568" height="23.568" transform="translate(981.443 1026.578) rotate(135)"/><rect class="cls-2" x="320.58" y="754.886" width="23.568" height="23.568" transform="translate(1021.676 1043.244) rotate(135)"/></g></svg>