<svg xmlns="http://www.w3.org/2000/svg" viewBox="0 0 590 100"><defs><style>.cls-1{fill:#121221;}.cls-2{fill:#366ce1;}</style></defs><title>waze</title><g id="Слой_2" data-name="Слой 2"><g id="Work_space" data-name="Work space"><g id="waze"><path class="cls-1" d="M540,0a50.005,50.005,0,0,0-50,50v50h50A50,50,0,0,0,540,0Zm0,80H510V50a30,30,0,1,1,30,30Z"/><path class="cls-1" d="M500,80v20H480a20,20,0,1,1,20-20Z"/><circle class="cls-2" cx="525" cy="45" r="5"/><circle class="cls-2" cx="555" cy="45" r="5"/><path class="cls-2" d="M530,50a10,10,0,0,0,20,0h10a20,20,0,0,1-40,0Z"/><polygon class="cls-1" points="350 20 350 40 430 40 430 60 350 60 350 80 430 80 430 100 330 100 330 0 430 0 430 20 350 20"/><path class="cls-1" d="M170.77,1.95,169.99,0H150.01l-.78,1.94L110,100h21.55l11.2-28h34.5l11.2,28H210ZM150.75,52,160,28.87,169.25,52Z"/><path class="cls-1" d="M99.26,0,84.8,57.86,70.24,1.15,69.94,0H55.03L55,.11V0H49.88l-.29,1.16L35.05,57.75,20.62,0H0V.02L24.61,98.43,25,100H44.86l.38-1.5L59.91,41.37l14.7,57.24.35,1.39H89.99l.01-.04V100h4.87l.37-1.46L119.88,0ZM80,50.99v.04l-.02-.04Zm0,47.53-.19.61.19-.64Z"/><polygon class="cls-1" points="80 51.03 79.98 50.99 80 50.99 80 51.03"/><polygon class="cls-1" points="80 98.52 79.81 99.13 80 98.49 80 98.52"/><polygon class="cls-1" points="80 98.52 79.81 99.13 80 98.49 80 98.52"/><polygon class="cls-1" points="220 0 320 0 320 20 250.59 80 320 80 320 100 220 100 220 80 289.41 20 220 20 220 0"/></g></g></g></svg>