<svg xmlns="http://www.w3.org/2000/svg" viewBox="0 0 999.81 192.615"><defs><style>.cls-1{fill:#121221;}.cls-2,.cls-3,.cls-4{fill:#366ce1;}.cls-2{opacity:0.38;}.cls-3{opacity:0.62;}</style></defs><title>wealth front</title><g id="Слой_2" data-name="Слой 2"><g id="Work_space" data-name="Work space"><g id="wealth_front" data-name="wealth front"><path class="cls-1" d="M845.24,164.221a146.145,146.145,0,0,1-45.36,20c-40.1,9.93-75.87.24-98.58-9.31a150.171,150.171,0,0,1,60.74-142.28c-.16,22.07,4.01,66.84,37.84,101.59A130.41,130.41,0,0,0,845.24,164.221Z"/><path class="cls-1" d="M923.16,23.311c-19.6,11.45-54.52,37.27-67.3,82.55a130.323,130.323,0,0,0-3.3,54.28,146.606,146.606,0,0,1-40-29.28c-34.63-35.97-41.27-80.81-42.44-103.69a150.13,150.13,0,0,1,153.04-3.86Z"/><path class="cls-1" d="M999.81,149.741c-21.74-9.82-54.52-19.06-91-9.8a130.313,130.313,0,0,0-48.66,24.28,146.376,146.376,0,0,1,5.36-49.28c13.18-45.73,46.05-73.46,65.75-86.74A149.868,149.868,0,0,1,999.81,149.741Z"/><path class="cls-2" d="M923.16,23.311c-19.6,11.45-54.52,37.27-67.3,82.55a130.323,130.323,0,0,0-3.3,54.28,146.606,146.606,0,0,1-40-29.28c-34.63-35.97-41.27-80.81-42.44-103.69a150.13,150.13,0,0,1,153.04-3.86Z"/><path class="cls-3" d="M999.81,149.741c-21.74-9.82-54.52-19.06-91-9.8a130.313,130.313,0,0,0-48.66,24.28,146.376,146.376,0,0,1,5.36-49.28c13.18-45.73,46.05-73.46,65.75-86.74A149.868,149.868,0,0,1,999.81,149.741Z"/><polygon class="cls-1" points="639.88 0 639.88 100 619.88 100 619.88 60 559.88 60 559.88 100 539.88 100 539.88 0 559.88 0 559.88 40 619.88 40 619.88 0 639.88 0"/><polygon class="cls-1" points="149.88 20 149.88 40 229.88 40 229.88 60 149.88 60 149.88 80 229.88 80 229.88 100 129.88 100 129.88 0 229.88 0 229.88 20 149.88 20"/><polygon class="cls-1" points="449.88 80 449.88 100 349.88 100 349.88 0 369.88 0 369.88 80 449.88 80"/><path class="cls-1" d="M300.65,1.95,299.87,0H279.89l-.78,1.94L239.88,100h21.55l11.2-28h34.5l11.2,28h21.55ZM280.63,52l9.25-23.13L299.13,52Z"/><polygon class="cls-1" points="529.88 0 529.88 20 489.88 20 489.88 100 469.88 100 469.88 20 429.88 20 429.88 0 529.88 0"/><path class="cls-1" d="M99.26,0,84.8,57.86,70.24,1.15,69.94,0H55.03L55,.11V0H49.88l-.29,1.16L35.05,57.75,20.62,0H0V.02L24.61,98.43,25,100H44.86l.38-1.5L59.91,41.37l14.7,57.24.35,1.39H89.99l.01-.04V100h4.87l.37-1.46L119.88,0ZM80,50.99v.04l-.02-.04Zm0,47.53-.19.61.19-.64Z"/><polygon class="cls-1" points="80 51.03 79.98 50.99 80 50.99 80 51.03"/><polygon class="cls-1" points="80 98.52 79.81 99.13 80 98.49 80 98.52"/><polygon class="cls-1" points="80 98.52 79.81 99.13 80 98.49 80 98.52"/><polygon class="cls-4" points="119.88 112.615 119.88 132.615 179.88 132.615 179.88 152.615 119.88 152.615 119.88 192.615 99.88 192.615 99.88 92.615 199.88 92.615 199.88 112.615 119.88 112.615"/><polygon class="cls-4" points="529.88 92.615 529.88 192.615 509.88 192.615 449.88 123.205 449.88 192.615 429.88 192.615 429.88 92.615 449.88 92.615 509.88 162.025 509.88 92.615 529.88 92.615"/><path class="cls-4" d="M309.88,122.615a30,30,0,0,0-30-30h-70v100h20v-40h50a10,10,0,0,1,10,10v30h20v-30a29.862,29.862,0,0,0-7.65-20A29.862,29.862,0,0,0,309.88,122.615Zm-80,10v-20h50a10,10,0,0,1,0,20Z"/><path class="cls-4" d="M369.88,92.615a50,50,0,1,0,50,50A50.005,50.005,0,0,0,369.88,92.615Zm0,80a30,30,0,1,1,30-30A30,30,0,0,1,369.88,172.615Z"/><polygon class="cls-4" points="639.88 92.615 639.88 112.615 599.88 112.615 599.88 192.615 579.88 192.615 579.88 112.615 539.88 112.615 539.88 92.615 639.88 92.615"/></g></g></g></svg>