<svg xmlns="http://www.w3.org/2000/svg" viewBox="0 0 559.91 320"><defs><style>.cls-1{fill:#121221;}.cls-2{fill:#366ce1;}</style></defs><title>webex</title><g id="Complete"><g id="webex"><polygon class="cls-1" points="139.99 230 139.99 265 229.99 265 229.99 275 139.99 275 139.99 310 229.99 310 229.99 320 129.99 320 129.99 220 229.99 220 229.99 230 139.99 230"/><polygon class="cls-1" points="359.99 230 359.99 265 449.99 265 449.99 275 359.99 275 359.99 310 449.99 310 449.99 320 349.99 320 349.99 220 449.99 220 449.99 230 359.99 230"/><path class="cls-1" d="M310.045,659.93v.03l-.01.04h-9.97l-20.01-78.98q-10.01,39.491-20.02,78.98h-9.99l-.01-.01q-15-50-29.99-99.99h10.44l24.18,80.57,20.24-79.9.14-.56.03-.11h9.97l.17.66,20.23,79.83L329.6,560h10.44Q325.04,609.965,310.045,659.93Z" transform="translate(-220.045 -340)"/><path class="cls-1" d="M548.345,610a27.493,27.493,0,0,0-8.31-48.95,26.911,26.911,0,0,0-7.5-1.05h-72.5V660h72.5a26.911,26.911,0,0,0,7.5-1.05,27.483,27.483,0,0,0,8.31-48.95Zm-78.31-40h62.5a17.5,17.5,0,0,1,0,35h-62.5Zm62.5,80h-62.5V615h62.5a17.5,17.5,0,0,1,0,35Z" transform="translate(-220.045 -340)"/><polygon class="cls-1" points="516.56 270 559.91 320 546.68 320 509.95 277.63 473.22 320 459.99 320 503.34 270 459.99 220 473.22 220 509.95 262.37 546.68 220 559.91 220 516.56 270"/><path class="cls-1" d="M500,380a10,10,0,1,0,10,10A10,10,0,0,0,500,380Zm0-20a29.994,29.994,0,1,0,30,30A30,30,0,0,0,500,360Z" transform="translate(-220.045 -340)"/><path class="cls-1" d="M500,480a10,10,0,1,0,10,10A10,10,0,0,0,500,480Zm16.57-15A29.994,29.994,0,1,0,530,490,29.8,29.8,0,0,0,516.57,465Z" transform="translate(-220.045 -340)"/><path class="cls-1" d="M500,430a10,10,0,1,0,10,10A10,10,0,0,0,500,430Zm25-6.57a29.956,29.956,0,0,0,0,33.14,29.956,29.956,0,0,0,0-33.14ZM510,440a10,10,0,1,0-10,10A10,10,0,0,0,510,440Zm-26.57-25a29.956,29.956,0,0,0,33.14,0,29.956,29.956,0,0,0-33.14,0Zm0,50a29.956,29.956,0,0,0,33.14,0,29.956,29.956,0,0,0-33.14,0ZM470,440a29.8,29.8,0,0,0,5,16.57,29.956,29.956,0,0,0,0-33.14A29.8,29.8,0,0,0,470,440Z" transform="translate(-220.045 -340)"/><path class="cls-1" d="M550,430a10,10,0,1,0,10,10A10,10,0,0,0,550,430Zm0-20a30,30,0,1,0,30,30A29.923,29.923,0,0,0,550,410Z" transform="translate(-220.045 -340)"/><path class="cls-1" d="M450,430a10,10,0,1,0,10,10A10,10,0,0,0,450,430Zm25-6.57A29.956,29.956,0,1,0,480,440,29.923,29.923,0,0,0,475,423.43Z" transform="translate(-220.045 -340)"/><path class="cls-2" d="M550,410a30,30,0,1,0,30,30A29.923,29.923,0,0,0,550,410Zm-66.57,5A29.994,29.994,0,1,0,470,390,29.8,29.8,0,0,0,483.43,415Zm33.14,50A29.994,29.994,0,1,0,530,490,29.8,29.8,0,0,0,516.57,465ZM490,440a10,10,0,1,0,10-10A10,10,0,0,0,490,440Zm-15,16.57A29.994,29.994,0,1,0,450,470,29.8,29.8,0,0,0,475,456.57ZM500,340A100,100,0,1,0,600,440,100,100,0,0,0,500,340Zm1.545,179.961a30,30,0,1,0-3.09,0,79.974,79.974,0,0,1-78.416-78.416,30,30,0,1,0,0-3.09,79.974,79.974,0,0,1,78.416-78.416,30,30,0,1,0,3.09,0,79.974,79.974,0,0,1,78.416,78.416,30,30,0,1,0,0,3.09A79.974,79.974,0,0,1,501.545,519.961ZM500,430a10,10,0,1,0,10,10A10,10,0,0,0,500,430Z" transform="translate(-220.045 -340)"/><path class="cls-1" d="M420,440c0,.518.029,1.029.039,1.545Q420,440.777,420,440Z" transform="translate(-220.045 -340)"/><path class="cls-1" d="M498.455,519.961c.516.01,1.027.039,1.545.039Q499.223,520,498.455,519.961Z" transform="translate(-220.045 -340)"/><path class="cls-1" d="M420.039,438.455c-.01.516-.039,1.027-.039,1.545Q420,439.223,420.039,438.455Z" transform="translate(-220.045 -340)"/><path class="cls-1" d="M500,360c-.518,0-1.029.029-1.545.039Q499.223,360,500,360Z" transform="translate(-220.045 -340)"/><path class="cls-1" d="M500,520c.518,0,1.029-.029,1.545-.039Q500.777,520,500,520Z" transform="translate(-220.045 -340)"/><path class="cls-1" d="M579.961,441.545c.01-.516.039-1.027.039-1.545Q580,440.777,579.961,441.545Z" transform="translate(-220.045 -340)"/><path class="cls-1" d="M579.961,441.545a30,30,0,1,1,0-3.09,79.974,79.974,0,0,0-78.416-78.416,30,30,0,1,1-3.09,0,79.974,79.974,0,0,0-78.416,78.416,30,30,0,1,1,0,3.09,79.974,79.974,0,0,0,78.416,78.416,30,30,0,1,1,3.09,0A79.974,79.974,0,0,0,579.961,441.545ZM500,450a10,10,0,1,1,10-10A10,10,0,0,1,500,450Z" transform="translate(-220.045 -340)"/><path class="cls-1" d="M501.545,360.039c-.516-.01-1.027-.039-1.545-.039Q500.777,360,501.545,360.039Z" transform="translate(-220.045 -340)"/><path class="cls-1" d="M580,440c0-.518-.029-1.029-.039-1.545Q580,439.223,580,440Z" transform="translate(-220.045 -340)"/></g></g></svg>