<svg id="Main" xmlns="http://www.w3.org/2000/svg" viewBox="0 0 830 510"><defs><style>.cls-1{fill:#121221;}.cls-2{fill:#366ce1;}</style></defs><title>WebTitan</title><g id="webtitan"><path class="cls-1" d="M465,390V510h10V390Zm20,0V510h10V390Zm20,0V510h10V390Zm20,0V510h10V390Zm20,0V510h10V390ZM435,350v30H585V350Z" transform="translate(-85 -300)"/><path class="cls-1" d="M510,300A150,150,0,1,0,660,450,150,150,0,0,0,510,300Zm75,220a20.007,20.007,0,0,1-20,20H455a19.994,19.994,0,0,1-20-20V490h20v30H565V490h20ZM465,510V390h10V510Zm20,0V390h10V510Zm20,0V390h10V510Zm20,0V390h10V510Zm20,0V390h10V510Zm40-130H435V350H585Z" transform="translate(-85 -300)"/><rect class="cls-2" x="350" y="50" width="150" height="30"/><rect class="cls-2" x="380" y="90" width="10" height="120"/><rect class="cls-2" x="400" y="90" width="10" height="120"/><rect class="cls-2" x="420" y="90" width="10" height="120"/><rect class="cls-2" x="440" y="90" width="10" height="120"/><rect class="cls-2" x="460" y="90" width="10" height="120"/><path class="cls-2" d="M585,490v30a20.007,20.007,0,0,1-20,20H455a19.994,19.994,0,0,1-20-20V490h20v30H565V490Z" transform="translate(-85 -300)"/><path class="cls-1" d="M465,690.01A49.99,49.99,0,0,0,385,730v30a50,50,0,0,0,100,0V730A49.891,49.891,0,0,0,465,690.01ZM465,760a29.761,29.761,0,0,1-2.36,11.66v.01a30,30,0,0,1-55.28,0v-.01A29.761,29.761,0,0,1,405,760V730a29.761,29.761,0,0,1,2.36-11.66v-.01a30,30,0,0,1,55.28,0v.01A29.761,29.761,0,0,1,465,730Z" transform="translate(-85 -300)"/><rect class="cls-1" x="300" y="310" width="20" height="200"/><path class="cls-1" d="M265,610V760a49.993,49.993,0,0,1-89.99,30A50.4,50.4,0,0,1,165,799.99,49.99,49.99,0,0,1,85,760V610h20V760a29.761,29.761,0,0,0,2.36,11.66v.01a30,30,0,0,0,55.28,0v-.01A29.761,29.761,0,0,0,165,760V730a49.726,49.726,0,0,1,10.01-30A49.839,49.839,0,0,1,185,730v30a29.761,29.761,0,0,0,2.36,11.66v.01a30,30,0,0,0,55.28,0v-.01A29.761,29.761,0,0,0,245,760V610Z" transform="translate(-85 -300)"/><path class="cls-1" d="M375,750V730a50,50,0,0,0-100,0v30a50.008,50.008,0,0,0,99,10H353.28c-.19.56-.41,1.12-.64,1.66v.01a30,30,0,0,1-55.28,0v-.01A29.761,29.761,0,0,1,295,760V750Zm-77.64-31.66v-.01a30,30,0,0,1,55.28,0v.01A29.761,29.761,0,0,1,355,730H295A29.761,29.761,0,0,1,297.36,718.34Z" transform="translate(-85 -300)"/><rect class="cls-2" x="410" y="310" width="20" height="200"/><rect class="cls-2" y="310" width="830" height="30"/><rect class="cls-2" x="480" y="410" width="20" height="100"/><rect class="cls-2" x="480" y="360" width="20" height="30" rx="10"/><path class="cls-2" d="M615,730v30a29.761,29.761,0,0,0,2.36,11.66v.01a30,30,0,0,0,55.28,0v-.01A29.761,29.761,0,0,0,675,760h20a50,50,0,0,1-100,0V610h20V710h80v20Z" transform="translate(-85 -300)"/><path class="cls-2" d="M785,690.01A49.99,49.99,0,0,0,705,730v30a49.99,49.99,0,0,0,80,39.99V810h20V730A49.891,49.891,0,0,0,785,690.01ZM785,760a29.761,29.761,0,0,1-2.36,11.66v.01a30,30,0,0,1-55.28,0v-.01A29.761,29.761,0,0,1,725,760V730a29.761,29.761,0,0,1,2.36-11.66v-.01a30,30,0,0,1,55.28,0v.01A29.761,29.761,0,0,1,785,730Z" transform="translate(-85 -300)"/><path class="cls-2" d="M915,730v80H895V730a29.761,29.761,0,0,0-2.36-11.66v-.01a30,30,0,0,0-55.28,0v.01A29.761,29.761,0,0,0,835,730v80H815V680h20v10.01A50,50,0,0,1,915,730Z" transform="translate(-85 -300)"/></g></svg>