<svg xmlns="http://www.w3.org/2000/svg" viewBox="0 0 140 130"><defs><style>.cls-1{fill:#121221;}.cls-2{fill:#366ce1;}</style></defs><title>weebly</title><g id="Complete"><g id="weebly"><path class="cls-1" d="M500,498.56A39.845,39.845,0,0,0,490,525a20,20,0,0,0-40,0V490.35a40,40,0,0,1,50,8.21Z" transform="translate(-430 -435)"/><path class="cls-1" d="M550,490.35V525a20,20,0,0,0-40,0,39.845,39.845,0,0,0-10-26.44,40,40,0,0,1,50-8.21Z" transform="translate(-430 -435)"/><rect class="cls-1" x="10" y="80" width="60" height="20"/><rect class="cls-1" x="70" y="80" width="60" height="20"/><path class="cls-2" d="M570,445v80a39.989,39.989,0,0,1-70,26.44A39.989,39.989,0,0,1,430,525V445a10,10,0,0,1,20,0v80a20,20,0,0,0,40,0,39.845,39.845,0,0,1,10-26.44A39.845,39.845,0,0,1,510,525a20,20,0,0,0,40,0V445a10,10,0,0,1,20,0Z" transform="translate(-430 -435)"/></g></g></svg>