<svg xmlns="http://www.w3.org/2000/svg" viewBox="0 0 130 155"><defs><style>.cls-1{fill:#e1dfdf;}.cls-2{fill:#366ce1;}.cls-3{fill:#121221;}</style></defs><title>weld</title><g id="complete"><g id="weld"><path class="cls-1" d="M500,487.5a40,40,0,1,0,40,40A40,40,0,0,0,500,487.5Zm0,70a30,30,0,1,1,30-30A30,30,0,0,1,500,557.5Z" transform="translate(-435 -422.5)"/><path class="cls-2" d="M490,487.5a40,40,0,1,0,40,40A40,40,0,0,0,490,487.5Zm0,70a30,30,0,1,1,30-30A30,30,0,0,1,490,557.5Z" transform="translate(-435 -422.5)"/><path class="cls-3" d="M500,497.5a40,40,0,1,0,40,40A40,40,0,0,0,500,497.5Zm0,70a30,30,0,1,1,30-30A30,30,0,0,1,500,567.5Z" transform="translate(-435 -422.5)"/><path class="cls-2" d="M510,487.5a40,40,0,1,0,40,40A40,40,0,0,0,510,487.5Zm0,70a30,30,0,1,1,30-30A30,30,0,0,1,510,557.5Z" transform="translate(-435 -422.5)"/><path class="cls-3" d="M500,477.5a40,40,0,1,0,40,40A40,40,0,0,0,500,477.5Zm0,70a30,30,0,1,1,30-30A30,30,0,0,1,500,547.5Z" transform="translate(-435 -422.5)"/><path class="cls-2" d="M512.26,464.375a10,10,0,0,1-17.18-5.63,15,15,0,0,0,24.06-6.245,15.011,15.011,0,1,0-2.965,15A14.841,14.841,0,0,0,512.26,464.375ZM505,447.5a9.979,9.979,0,0,1,8.655,5,9.991,9.991,0,0,1-17.31,0A9.979,9.979,0,0,1,505,447.5Z" transform="translate(-435 -422.5)"/><path class="cls-2" d="M485,457.5a15,15,0,0,1-15,15,15,15,0,0,1-10-3.825,14.986,14.986,0,0,1-10,3.825,15,15,0,0,1-15-15,14.758,14.758,0,0,1,.18-2.315A14.963,14.963,0,0,1,442.2,444.7,14.873,14.873,0,0,0,440,452.5a14.3,14.3,0,0,0,.26,2.755A9.782,9.782,0,0,0,440,457.5a10,10,0,0,0,10,10,9.735,9.735,0,0,0,1.63-.135,4.961,4.961,0,0,0,.615-.125,9.87,9.87,0,0,0,4.41-2.28c.075-.065.15-.13.22-.2A9.961,9.961,0,0,0,460,457.5a9.961,9.961,0,0,0,3.125,7.26c.07.07.145.135.22.2a9.87,9.87,0,0,0,4.41,2.28,4.961,4.961,0,0,0,.615.125,9.735,9.735,0,0,0,1.63.135,10,10,0,0,0,10-10,9.782,9.782,0,0,0-.26-2.245A14.3,14.3,0,0,0,480,452.5a14.873,14.873,0,0,0-2.195-7.805,14.963,14.963,0,0,1,7.015,10.49A14.758,14.758,0,0,1,485,457.5Z" transform="translate(-435 -422.5)"/><path class="cls-2" d="M440,457.5h-5a15,15,0,0,1,15-15v5A10,10,0,0,0,440,457.5Z" transform="translate(-435 -422.5)"/><path class="cls-2" d="M470,447.5v-5a15,15,0,0,1,15,15h-5A10,10,0,0,0,470,447.5Z" transform="translate(-435 -422.5)"/><rect class="cls-2" x="90" width="5" height="50"/><path class="cls-2" d="M560,422.5v23.825a15,15,0,1,0,0,22.35V472.5h5v-50Zm-10,45a10,10,0,1,1,10-10A10,10,0,0,1,550,467.5Z" transform="translate(-435 -422.5)"/></g></g></svg>