<svg xmlns="http://www.w3.org/2000/svg" viewBox="0 0 869.95 218.155"><defs><style>.cls-1{fill:#366ce1;}.cls-2{fill:#121221;}</style></defs><title>windatarecovery</title><g id="Слой_2" data-name="Слой 2"><g id="Work_space" data-name="Work space"><g id="windatarecovery"><polygon class="cls-1" points="570 138.155 570 158.155 650 158.155 650 178.155 570 178.155 570 198.155 650 198.155 650 218.155 550 218.155 550 118.155 650 118.155 650 138.155 570 138.155"/><polygon class="cls-1" points="130 138.155 130 158.155 210 158.155 210 178.155 130 178.155 130 198.155 210 198.155 210 218.155 110 218.155 110 118.155 210 118.155 210 138.155 130 138.155"/><polygon class="cls-1" points="539.98 118.155 500.76 216.225 499.99 218.155 479.99 218.155 479.22 216.225 440 118.155 461.54 118.155 489.99 189.295 518.45 118.155 539.98 118.155"/><path class="cls-1" d="M100,148.155a30,30,0,0,0-30-30H0v100H20v-40H70a10,10,0,0,1,10,10v30h20v-30a29.862,29.862,0,0,0-7.65-20A29.862,29.862,0,0,0,100,148.155Zm-80,10v-20H70a10,10,0,0,1,0,20Z"/><path class="cls-1" d="M760,148.155a30,30,0,0,0-30-30H660v100h20v-40h50a10,10,0,0,1,10,10v30h20v-30a29.862,29.862,0,0,0-7.65-20A29.862,29.862,0,0,0,760,148.155Zm-80,10v-20h50a10,10,0,0,1,0,20Z"/><path class="cls-1" d="M380,118.155a50,50,0,1,0,50,50A50.005,50.005,0,0,0,380,118.155Zm0,80a30,30,0,1,1,30-30A30,30,0,0,1,380,198.155Z"/><path class="cls-1" d="M299.29,178.155H320a50,50,0,1,1,0-20H299.29a30,30,0,1,0,0,20Z"/><polygon class="cls-1" points="832.78 164.615 829.95 168.155 830 168.155 830 218.155 810 218.155 810 168.155 807.17 164.615 770 118.155 795.61 118.155 819.97 148.605 844.33 118.155 869.95 118.155 832.78 164.615"/><polygon class="cls-2" points="364.975 0 364.975 100 344.975 100 284.975 30.59 284.975 100 264.975 100 264.975 0 284.975 0 344.975 69.41 344.975 0 364.975 0"/><polygon class="cls-2" points="214.975 20 214.975 80 254.975 80 254.975 100 154.975 100 154.975 80 194.975 80 194.975 20 154.975 20 154.975 0 254.975 0 254.975 20 214.975 20"/><path class="cls-2" d="M514.975,0h-50V100h50a50,50,0,0,0,0-100Zm0,80h-30V20h30a30,30,0,0,1,0,60Z"/><path class="cls-2" d="M805.745,1.95,804.965,0h-19.98l-.78,1.94L744.975,100h21.55l11.2-28h34.5l11.2,28h21.55ZM785.725,52l9.25-23.13L804.225,52Z"/><path class="cls-2" d="M625.745,1.95,624.965,0h-19.98l-.78,1.94L564.975,100h21.55l11.2-28h34.5l11.2,28h21.55ZM605.725,52l9.25-23.13L624.225,52Z"/><polygon class="cls-2" points="754.975 0 754.975 20 714.975 20 714.975 100 694.975 100 694.975 20 654.975 20 654.975 0 754.975 0"/><path class="cls-2" d="M124.235,0l-14.46,57.86L95.215,1.15,94.915,0H80.005l-.03.11V0h-5.12l-.29,1.16L60.025,57.75,45.6,0H24.975V.02l24.61,98.41.39,1.57h19.86l.38-1.5,14.67-57.13,14.7,57.24.35,1.39h15.03l.01-.04V100h4.87l.37-1.46L144.855,0Zm-19.26,50.99v.04l-.02-.04Zm0,47.53-.19.61.19-.64Z"/><polygon class="cls-2" points="104.975 51.03 104.955 50.99 104.975 50.99 104.975 51.03"/><polygon class="cls-2" points="104.975 98.52 104.785 99.13 104.975 98.49 104.975 98.52"/><polygon class="cls-2" points="104.975 98.52 104.785 99.13 104.975 98.49 104.975 98.52"/></g></g></g></svg>