<svg id="Main" xmlns="http://www.w3.org/2000/svg" viewBox="0 0 695.01 125.22"><defs><style>.cls-1{fill:#366ce1;}.cls-2{fill:#121221;}.cls-3{fill:#e1dfdf;}</style></defs><title>windows</title><g id="Windows"><path class="cls-1" d="M152.5,439l40,100h20q10-40,20-80,10,40,20,80h20l40-100h-20l-30,80q-10-40-20-80h-20q-10,40-20,80l-30-80Z" transform="translate(-152.495 -437.39)"/><path class="cls-1" d="M552.7,477.2l24.72,61.8h12.36q6.566-23.175,13.132-46.35L614.5,539h15.45l23.175-61.8h-15.45l-15.45,46.35L610.633,477.2h-15.45L583.6,523.55l-15.45-46.35Z" transform="translate(-152.495 -437.39)"/><ellipse class="cls-1" cx="174.18" cy="70.71" rx="10.925" ry="43.699"/><circle class="cls-1" cx="174.18" cy="16.37" r="8.09"/><path class="cls-1" d="M462.17,439v42.33a30.9,30.9,0,1,0,0,53.54V539h15.45V439Zm-15.45,84.55a15.45,15.45,0,1,1,15.45-15.45A15.441,15.441,0,0,1,446.72,523.55Z" transform="translate(-152.495 -437.39)"/><path class="cls-1" d="M518.52,477.2a30.9,30.9,0,1,0,30.9,30.9A30.9,30.9,0,0,0,518.52,477.2Zm0,46.35a15.45,15.45,0,1,1,15.45-15.45A15.446,15.446,0,0,1,518.52,523.55Z" transform="translate(-152.495 -437.39)"/><path class="cls-1" d="M718.867,519.688c0,10.668-13.836,19.312-30.9,19.312-16.022,0-29.2-7.625-30.746-17.381H674.6c2.673,1.159,7.655,1.931,13.372,1.931,8.536,0,15.45-1.73,15.45-3.862s-6.914-3.863-15.45-3.863c-10.112,0-19.089-3.036-24.72-7.725-3.878-3.229-6.18-7.246-6.18-11.587,0-10.669,13.835-19.313,30.9-19.313,16.022,0,29.2,7.625,30.745,17.381H701.339c-2.673-1.158-7.656-1.931-13.372-1.931-8.536,0-15.45,1.73-15.45,3.863s6.914,3.862,15.45,3.862c10.112,0,19.088,3.036,24.72,7.725C716.565,511.329,718.867,515.346,718.867,519.688Z" transform="translate(-152.495 -437.39)"/><path class="cls-1" d="M406.2,508.1V539H390.75V508.1a15.45,15.45,0,1,0-30.9,0V539H344.4V477.2h15.45v4.133A30.909,30.909,0,0,1,406.2,508.1Z" transform="translate(-152.495 -437.39)"/></g><path class="cls-1" d="M847.505,501.31v61.3q-30.915-7.17-61.81-14.35V501.01Z" transform="translate(-152.495 -437.39)"/><path class="cls-2" d="M784.085,501v46.88q-19.11-4.425-38.2-8.87v-38.2Q764.98,500.9,784.085,501Z" transform="translate(-152.495 -437.39)"/><path class="cls-1" d="M784.085,452.12v46.89l-38.2.18v-38.2Q764.98,456.565,784.085,452.12Z" transform="translate(-152.495 -437.39)"/><path class="cls-2" d="M847.505,437.39V498.7l-61.81.3V451.74Q816.595,444.57,847.505,437.39Z" transform="translate(-152.495 -437.39)"/><path class="cls-3" d="M847.505,498.7v2.61l-61.81-.3v47.25c-.54-.13-1.08-.25-1.61-.38V501q-19.11-.09-38.2-.19v-1.62l38.2-.18V452.12c.53-.12,1.07-.25,1.61-.38V499Z" transform="translate(-152.495 -437.39)"/></svg>