<svg id="Main" xmlns="http://www.w3.org/2000/svg" viewBox="0 0 390 390.137"><defs><style>.cls-1{fill:#366ce1;}.cls-2{fill:#1c1e20;}.cls-3{fill:#121221;}</style></defs><title>wireshark</title><g id="Wireshark"><path class="cls-1" d="M632,452.43c-35.72-7.05-80.84,1.16-122.9,25.45-38.64,22.31-66.82,53.63-80.26,85.3,4.08-21.63-2.66-52.45-19.81-82.17-15.96-27.64-37.25-47.96-56.87-56.52A150.049,150.049,0,0,1,500,300q3.555,0,7.08.17c-12.02.79-20.67,4.52-24.67,11.45-13.81,23.91,33.16,76.88,104.9,118.3A427.3,427.3,0,0,0,632,452.43Z" transform="translate(-305 -300)"/><path class="cls-2" d="M423.79,577.44q-.225.765-.42,1.53c-.12-.07-.24-.14-.37-.22C423.27,578.32,423.54,577.89,423.79,577.44Z" transform="translate(-305 -300)"/><path class="cls-3" d="M650,450q0,3.78-.19,7.52c-.03.66-.07,1.33-.1,1.99-5.77-2.12-11.69-4.48-17.71-7.08a427.3,427.3,0,0,1-44.69-22.51c-71.74-41.42-118.71-94.39-104.9-118.3,4-6.93,12.65-10.66,24.67-11.45A150,150,0,0,1,650,450Z" transform="translate(-305 -300)"/><path class="cls-3" d="M428.84,563.18a117.993,117.993,0,0,0-5.05,14.26c-.25.45-.52.88-.79,1.31a150.257,150.257,0,0,1-70.84-154.26c19.62,8.56,40.91,28.88,56.87,56.52C426.18,510.73,432.92,541.55,428.84,563.18Z" transform="translate(-305 -300)"/><path class="cls-3" d="M649.71,459.51A150.039,150.039,0,0,1,423.37,578.97q.195-.765.42-1.53a117.993,117.993,0,0,1,5.05-14.26c13.44-31.67,41.62-62.99,80.26-85.3,42.06-24.29,87.18-32.5,122.9-25.45C638.02,455.03,643.94,457.39,649.71,459.51Z" transform="translate(-305 -300)"/><path class="cls-3" d="M305,640l20,50,10-30,10,30,20-50H355l-10,30-10-20-10,20-10-30H305" transform="translate(-305 -300)"/><ellipse class="cls-3" cx="75" cy="375" rx="7.071" ry="21.213"/><circle class="cls-3" cx="75" cy="345" r="7.071"/><path class="cls-3" d="M395,660v30h10V680a10,10,0,0,1,20,0V670a10,10,0,0,0-20,0Z" transform="translate(-305 -300)"/><path class="cls-3" d="M625,660v30h10V680a10,10,0,0,1,20,0V670a10,10,0,0,0-20,0Z" transform="translate(-305 -300)"/><path class="cls-3" d="M435,670c.021-11.167,10.136-19.169,20-20,11.763-.991,19.526,9.347,20,10l-10,10H445l10,10.08h20c-.414.587-7.97,10.91-20,10C445.1,689.332,434.979,681.194,435,670Z" transform="translate(-305 -300)"/><path class="cls-3" d="M445,660h20l-10,10Z" transform="translate(-305 -300)"/><path class="cls-3" d="M525,660l10-10c-1.833-2.01-8.986-9.374-20-10-12.251-.7-24.294,7.228-30,20l10,10-10,10c1.833,2.01,8.986,9.374,20,10,12.251.7,24.294-7.228,30-20Z" transform="translate(-305 -300)"/><path class="cls-3" d="M545,640v50h10V670h10v20h10V670c-.343-.936-2.913-7.61-10-10a16.1,16.1,0,0,0-10,0V640Z" transform="translate(-305 -300)"/><path class="cls-3" d="M585,690V670l10-10h10l10,10v20H605a7.071,7.071,0,1,0-10,0Z" transform="translate(-305 -300)"/><ellipse class="cls-3" cx="365" cy="365" rx="7.071" ry="35.355"/><path class="cls-3" d="M685,660h10l-20,20V670Z" transform="translate(-305 -300)"/><path class="cls-3" d="M675,680l10-10q5,10,10,20H685Z" transform="translate(-305 -300)"/></g></svg>