<svg xmlns="http://www.w3.org/2000/svg" viewBox="0 0 960 220"><defs><style>.cls-1{fill:#366ce1;}.cls-2{fill:#121221;}</style></defs><title>wireless watchdogs</title><g id="Слой_2" data-name="Слой 2"><g id="Work_space" data-name="Work space"><g id="wireless_watchdogs" data-name="wireless watchdogs"><polygon class="cls-1" points="180 20 180 80 200 80 200 100 140 100 140 80 160 80 160 20 140 20 140 0 200 0 200 20 180 20"/><path class="cls-2" d="M580,120H530V220h50a50,50,0,0,0,0-100Zm0,80H550V140h30a30,30,0,0,1,0,60Z"/><path class="cls-1" d="M680,30a10,10,0,0,0,10,10h40a30,30,0,0,1,0,60H660V80h70a10,10,0,0,0,0-20H690a30,30,0,0,1,0-60h70V20H690A10,10,0,0,0,680,30Z"/><path class="cls-1" d="M790,30a10,10,0,0,0,10,10h40a30,30,0,0,1,0,60H770V80h70a10,10,0,0,0,0-20H800a30,30,0,0,1,0-60h70V20H800A10,10,0,0,0,790,30Z"/><path class="cls-2" d="M880,150a10,10,0,0,0,10,10h40a30,30,0,0,1,0,60H860V200h70a10,10,0,0,0,0-20H890a30,30,0,0,1,0-60h70v20H890A10,10,0,0,0,880,150Z"/><polygon class="cls-2" points="520 120 520 220 500 220 500 180 440 180 440 220 420 220 420 120 440 120 440 160 500 160 500 120 520 120"/><polygon class="cls-1" points="350 20 350 40 430 40 430 60 350 60 350 80 430 80 430 100 330 100 330 0 430 0 430 20 350 20"/><polygon class="cls-1" points="570 20 570 40 650 40 650 60 570 60 570 80 650 80 650 100 550 100 550 0 650 0 650 20 570 20"/><polygon class="cls-1" points="540 80 540 100 440 100 440 0 460 0 460 80 540 80"/><path class="cls-1" d="M320,30A30,30,0,0,0,290,0H220V100h20V60h50a10,10,0,0,1,10,10v30h20V70a29.862,29.862,0,0,0-7.65-20A29.862,29.862,0,0,0,320,30ZM240,40V20h50a10,10,0,0,1,0,20Z"/><path class="cls-2" d="M690,120a50,50,0,1,0,50,50A50.005,50.005,0,0,0,690,120Zm0,80a30,30,0,1,1,30-30A30,30,0,0,1,690,200Z"/><path class="cls-2" d="M388.28,180h20.71a50,50,0,1,1,0-20H388.28a30,30,0,1,0,0,20Z"/><path class="cls-2" d="M180.77,121.95l-.78-1.95H160.01l-.78,1.94L120,220h21.55l11.2-28h34.5l11.2,28H220ZM160.75,172,170,148.87,179.25,172Z"/><path class="cls-2" d="M850,160v10a49.16,49.16,0,0,1-1.01,10,50.013,50.013,0,1,1-13.64-45.35l-14.14,14.14A30,30,0,1,0,828.28,180H800V160Z"/><polygon class="cls-2" points="310 120 310 140 270 140 270 220 250 220 250 140 210 140 210 120 310 120"/><path class="cls-1" d="M99.26,0,84.8,57.86,70.24,1.15,69.94,0H55.03L55,.11V0H49.88l-.29,1.16L35.05,57.75,20.62,0H0V.02L24.61,98.43,25,100H44.86l.38-1.5L59.91,41.37l14.7,57.24.35,1.39H89.99l.01-.04V100h4.87l.37-1.46L119.88,0ZM80,50.99v.04l-.02-.04Zm0,47.53-.19.61.19-.64Z"/><polygon class="cls-1" points="80 51.03 79.98 50.99 80 50.99 80 51.03"/><polygon class="cls-1" points="80 98.52 79.81 99.13 80 98.49 80 98.52"/><polygon class="cls-1" points="80 98.52 79.81 99.13 80 98.49 80 98.52"/><path class="cls-2" d="M99.26,120,84.8,177.86,70.24,121.15l-.3-1.15H55.03l-.03.11V120H49.88l-.29,1.16L35.05,177.75,20.62,120H0v.02l24.61,98.41L25,220H44.86l.38-1.5,14.67-57.13,14.7,57.24.35,1.39H89.99l.01-.04V220h4.87l.37-1.46L119.88,120ZM80,170.99v.04l-.02-.04Zm0,47.53-.19.61.19-.64Z"/><polygon class="cls-2" points="80 171.03 79.98 170.99 80 170.99 80 171.03"/><polygon class="cls-2" points="80 218.52 79.81 219.13 80 218.49 80 218.52"/><polygon class="cls-2" points="80 218.52 79.81 219.13 80 218.49 80 218.52"/></g></g></g></svg>