<svg xmlns="http://www.w3.org/2000/svg" viewBox="0 0 1035.46 125.983"><defs><style>.cls-1{fill:#366ce1;}.cls-2{fill:#121221;}</style></defs><title>wisepops</title><g id="Слой_2" data-name="Слой 2"><g id="Work_space" data-name="Work space"><g id="wisepops"><polygon class="cls-1" points="1035.46 62.992 999.101 125.983 926.359 125.983 890 62.992 926.359 0 999.101 0 1035.46 62.992"/><path class="cls-2" d="M972.08,99.441c.21,1.22.43,2.4.65,3.55a10,10,0,0,1-20,0q.345-1.74.66-3.57a208.953,208.953,0,0,0,0-72.86v-.01c-.21-1.22-.43-2.4-.66-3.56a10,10,0,1,1,20,0c-.22,1.15-.44,2.33-.65,3.54a209.25,209.25,0,0,0,0,72.91Z"/><path class="cls-2" d="M998.972,73.119c1.161.428,2.293.828,3.4,1.212a10,10,0,0,1-10,17.321q-1.335-1.168-2.762-2.357a208.971,208.971,0,0,0-63.1-36.43l-.009-.005c-1.162-.428-2.293-.827-3.413-1.208a10,10,0,0,1,10-17.321q1.329,1.149,2.741,2.333a209.582,209.582,0,0,0,30.044,21.041A209.443,209.443,0,0,0,998.972,73.119Z"/><path class="cls-2" d="M989.622,36.669c.951-.792,1.863-1.572,2.749-2.338a10,10,0,0,1,10,17.321q-1.68.572-3.422,1.213a208.959,208.959,0,0,0-63.1,36.43l-.009,0c-.952.792-1.863,1.573-2.753,2.352a10,10,0,0,1-10-17.321q1.659-.576,3.391-1.207a209.561,209.561,0,0,0,33.244-15.5A209.421,209.421,0,0,0,989.622,36.669Z"/><polygon class="cls-1" points="170 32.991 170 92.991 190 92.991 190 112.991 130 112.991 130 92.991 150 92.991 150 32.991 130 32.991 130 12.991 190 12.991 190 32.991 170 32.991"/><path class="cls-1" d="M220,42.991a10,10,0,0,0,10,10h40a30,30,0,0,1,0,60H200v-20h70a10,10,0,0,0,0-20H230a30,30,0,0,1,0-60h70v20H230A10,10,0,0,0,220,42.991Z"/><path class="cls-2" d="M770,42.991a10,10,0,0,0,10,10h40a30,30,0,0,1,0,60H750v-20h70a10,10,0,0,0,0-20H780a30,30,0,0,1,0-60h70v20H780A10,10,0,0,0,770,42.991Z"/><polygon class="cls-1" points="330 32.991 330 52.991 410 52.991 410 72.991 330 72.991 330 92.991 410 92.991 410 112.991 310 112.991 310 12.991 410 12.991 410 32.991 330 32.991"/><path class="cls-2" d="M580,12.991a50,50,0,1,0,50,50A50.005,50.005,0,0,0,580,12.991Zm0,80a30,30,0,1,1,30-30A30,30,0,0,1,580,92.991Z"/><path class="cls-2" d="M710,12.991H640v100h20v-40h50a30,30,0,0,0,0-60Zm0,40H660v-20h50a10,10,0,0,1,0,20Z"/><path class="cls-2" d="M490,12.991H420v100h20v-40h50a30,30,0,0,0,0-60Zm0,40H440v-20h50a10,10,0,0,1,0,20Z"/><path class="cls-1" d="M99.26,12.991,84.8,70.851,70.24,14.141l-.3-1.15H55.03L55,13.1v-.11H49.88l-.29,1.16L35.05,70.741,20.62,12.991H0v.02l24.61,98.41.39,1.57H44.86l.38-1.5,14.67-57.13,14.7,57.24.35,1.39H89.99l.01-.04v.04h4.87l.37-1.46,24.64-98.54ZM80,63.981v.04l-.02-.04Zm0,47.53-.19.61.19-.64Z"/><polygon class="cls-1" points="80 64.021 79.98 63.981 80 63.981 80 64.021"/><polygon class="cls-1" points="80 111.511 79.81 112.121 80 111.481 80 111.511"/><polygon class="cls-1" points="80 111.511 79.81 112.121 80 111.481 80 111.511"/></g></g></g></svg>