<svg xmlns="http://www.w3.org/2000/svg" viewBox="0 0 547.828 100.102"><defs><style>.cls-1{fill:#1c1e20;}.cls-2{fill:#366ce1;}.cls-3{fill:#121221;}</style></defs><title>wish</title><g id="Слой_2" data-name="Слой 2"><g id="Work_space" data-name="Work space"><g id="wish"><polygon class="cls-1" points="547.828 14.14 511.968 50 547.828 85.86 547.828 100 533.688 100 497.828 64.14 461.968 100 447.828 100 447.828 85.86 483.688 50 447.828 14.14 447.828 0 461.978 0 497.828 35.85 533.678 0 547.828 0 547.828 14.14"/><rect class="cls-2" x="533.676" y="0.006" width="14.152" height="100.096"/><rect class="cls-2" x="447.828" y="0.006" width="14.152" height="100.096"/><path class="cls-2" d="M461.968,100h-14.14l49.831-49.81L547.828,100h-14.14l-35.86-35.86Z"/><polygon class="cls-3" points="169.88 20.051 169.88 80.051 189.88 80.051 189.88 100.051 129.88 100.051 129.88 80.051 149.88 80.051 149.88 20.051 129.88 20.051 129.88 0.051 189.88 0.051 189.88 20.051 169.88 20.051"/><path class="cls-3" d="M220,30.051a10,10,0,0,0,10,10h40a30,30,0,0,1,0,60H200v-20h70a10,10,0,0,0,0-20H230a30,30,0,0,1,0-60h70v20H230A10,10,0,0,0,220,30.051Z"/><polygon class="cls-3" points="410.12 0.051 410.12 100.051 390.12 100.051 390.12 60.051 330.12 60.051 330.12 100.051 310.12 100.051 310.12 0.051 330.12 0.051 330.12 40.051 390.12 40.051 390.12 0.051 410.12 0.051"/><path class="cls-3" d="M99.26.051,84.8,57.911,70.24,1.2l-.3-1.15H55.03L55,.161V.051H49.88l-.29,1.16L35.05,57.8,20.62.051H0v.02l24.61,98.41.39,1.57H44.86l.38-1.5,14.67-57.13,14.7,57.24.35,1.39H89.99l.01-.04v.04h4.87l.37-1.46L119.88.051ZM80,51.041v.04l-.02-.04Zm0,47.53-.19.61.19-.64Z"/><polygon class="cls-3" points="80 51.081 79.98 51.041 80 51.041 80 51.081"/><polygon class="cls-3" points="80 98.571 79.81 99.181 80 98.541 80 98.571"/><polygon class="cls-3" points="80 98.571 79.81 99.181 80 98.541 80 98.571"/></g></g></g></svg>