<svg xmlns="http://www.w3.org/2000/svg" viewBox="0 0 700.5 145.862"><title>wm</title><polygon points="206.737 72.996 206.737 87.517 178.119 87.517 178.112 87.495 163.533 38.894 148.947 87.517 134.36 87.517 119.774 38.894 116.128 51.052 94.248 123.982 79.662 123.982 65.076 75.359 50.49 123.982 35.904 123.982 18.386 65.579 0 65.579 0 51.052 28.611 51.052 28.625 51.103 43.197 99.674 57.783 51.052 72.369 51.052 86.955 99.674 90.602 87.517 112.481 14.586 127.067 14.586 141.653 63.209 156.24 14.586 170.826 14.586 188.351 72.996 206.737 72.996"/><polygon points="359.344 102.818 359.344 102.869 359.33 102.818 359.344 102.818"/><polygon points="508.838 139.283 508.831 139.283 508.831 139.261 508.838 139.283"/><path d="M310.32,29.172a18.233,18.233,0,1,0,18.233,18.233A18.23,18.23,0,0,0,310.32,29.172Zm0,29.173a10.94,10.94,0,1,1,10.94-10.94A10.944,10.944,0,0,1,310.32,58.345Z"/><path d="M452.535,72.931v3.646a18.233,18.233,0,1,0,0,29.173v21.879a10.94,10.94,0,0,1-21.879,0h-7.293a18.233,18.233,0,1,0,36.465,0v-54.7ZM441.6,102.1a10.94,10.94,0,1,1,10.939-10.94A10.944,10.944,0,0,1,441.6,102.1Z"/><path d="M459.464,51.052a18.223,18.223,0,1,0-1.152,3.646h-8.57a10.932,10.932,0,0,1-18.459-3.646ZM441.6,36.465a10.939,10.939,0,0,1,10.312,7.293H431.283A10.939,10.939,0,0,1,441.6,36.465Z"/><path d="M503.222,94.81a18.22,18.22,0,1,0-1.152,3.647H493.5a10.932,10.932,0,0,1-18.459-3.647ZM485.354,80.224a10.938,10.938,0,0,1,10.313,7.293H475.042A10.937,10.937,0,0,1,485.354,80.224Z"/><path d="M408.777,0V32.819a18.233,18.233,0,1,0,0,29.172v3.647h7.293V0Zm-10.94,58.345a10.94,10.94,0,1,1,10.94-10.94A10.944,10.944,0,0,1,397.837,58.345Z"/><path d="M372.312,47.405V65.638h-7.294V47.405a10.94,10.94,0,1,0-21.879,0V65.638h-7.293V29.172h7.293v3.647a18.224,18.224,0,0,1,29.173,14.586Z"/><path d="M372.676,91.163V109.4h-7.293V91.163a10.94,10.94,0,0,0-21.879,0V109.4h-7.293V72.931H343.5v3.646a18.222,18.222,0,0,1,29.172,14.586Z"/><path d="M503.222,43.758h-7.555a10.938,10.938,0,0,0-20.625,0,10.816,10.816,0,0,0-.627,3.647V65.638h-7.293V29.172h7.293v3.647a18.235,18.235,0,0,1,28.807,10.939Z"/><path d="M328.188,87.517a18.236,18.236,0,1,0-6.928,18.233V109.4h7.293V91.163A18.21,18.21,0,0,0,328.188,87.517ZM310.32,102.1a10.94,10.94,0,1,1,10.94-10.94A10.944,10.944,0,0,1,310.32,102.1Z"/><path d="M415.705,87.517a18.236,18.236,0,1,0-6.928,18.233V109.4h7.293V91.163A18.21,18.21,0,0,0,415.705,87.517ZM397.837,102.1a10.94,10.94,0,1,1,10.94-10.94A10.944,10.944,0,0,1,397.837,102.1Z"/><path d="M612.618,94.81a18.22,18.22,0,1,0-1.152,3.647H602.9a10.932,10.932,0,0,1-18.459-3.647ZM594.75,80.224a10.938,10.938,0,0,1,10.313,7.293H584.438A10.937,10.937,0,0,1,594.75,80.224Z"/><path d="M656.742,91.163V109.4h-7.294V91.163a10.94,10.94,0,0,0-21.879,0V109.4h-7.293V72.931h7.293v3.646a18.224,18.224,0,0,1,29.173,14.586Z"/><path d="M569.225,91.163V109.4h-7.293V91.163a10.936,10.936,0,0,0-17.015-9.094,11.108,11.108,0,0,0-1.218.948V109.4h-7.293V83.017a11.108,11.108,0,0,0-1.218-.948,10.936,10.936,0,0,0-17.015,9.094V109.4H510.88V72.931h7.293v3.646a18.2,18.2,0,0,1,21.879,0,18.148,18.148,0,0,1,10.94-3.646,18.214,18.214,0,0,1,18.233,18.232Z"/><path d="M671.328,91.163a10.94,10.94,0,1,0,21.879,0H700.5a18.233,18.233,0,1,1-36.465,0v-54.7h7.293v21.88H700.5v7.293H671.328Z"/><path d="M284.43,29.172V47.405a18.232,18.232,0,0,1-29.172,14.586,18.224,18.224,0,0,1-29.173-14.586V29.172h7.293V47.405a10.928,10.928,0,0,0,18.233,8.146V29.172H258.9V55.551a10.987,10.987,0,0,0,1.218.948,10.935,10.935,0,0,0,17.015-9.094V29.172Z"/><path d="M225.5,110V91.767a18.233,18.233,0,0,1,29.172-14.586,18.224,18.224,0,0,1,29.173,14.586V110h-7.293V91.767a10.936,10.936,0,0,0-17.015-9.094,11.108,11.108,0,0,0-1.218.948V110h-7.293V83.621a11.108,11.108,0,0,0-1.218-.948,10.936,10.936,0,0,0-17.015,9.094V110Z"/></svg>