<svg id="Main" xmlns="http://www.w3.org/2000/svg" viewBox="0 0 585 460"><defs><style>.cls-1{fill:#366ce1;}.cls-2{fill:#121221;}</style></defs><title>wolfram mathematica</title><g id="WolframMathematica"><path class="cls-1" d="M500,468.75q-6.855,2.22-13.7,4.45c-2.82-3.88-5.66-7.76-8.47-11.65Q488.9,465.15,500,468.75Z" transform="translate(-207.5 -250)"/><path class="cls-1" d="M500,468.75q-4.23,5.835-8.48,11.66-2.595,3.6-5.23,7.21-4.245,5.835-8.46,11.66-6.855,9.42-13.7,18.85l-22.84-3.32-57.39-8.34q20.055-6.51,40.11-13.03t40.1-13.03q11.1-3.6,22.19-7.21Q493.155,470.98,500,468.75Z" transform="translate(-207.5 -250)"/><path class="cls-1" d="M571.75,370q-21.36,29.4-42.73,58.8l-14.25-28.85Z" transform="translate(-207.5 -250)"/><path class="cls-2" d="M485.21,399.95l-14.23,28.86Q449.62,399.4,428.26,370Z" transform="translate(-207.5 -250)"/><path class="cls-2" d="M571.75,590.82q-21.36-29.4-42.73-58.81-14.5-19.965-29.01-39.94,11.07,3.6,22.17,7.2,17.94,5.835,35.87,11.66l.66,3.88Z" transform="translate(-207.5 -250)"/><path class="cls-1" d="M522.18,499.27q-11.085-3.6-22.17-7.2,6.855-2.22,13.69-4.45C516.52,491.5,519.36,495.38,522.18,499.27Z" transform="translate(-207.5 -250)"/><path class="cls-2" d="M616.1,506.47l-57.39,8.34-.66-3.88Q540.1,505.1,522.18,499.27c-2.82-3.89-5.66-7.77-8.48-11.65q11.1-3.6,22.19-7.21,20.055,6.51,40.11,13.03T616.1,506.47Z" transform="translate(-207.5 -250)"/><path class="cls-2" d="M589.36,480.41l26.74,26.06q-20.055-6.51-40.1-13.03t-40.11-13.03q20.055-6.51,40.11-13.03,20.04-6.51,40.1-13.03Z" transform="translate(-207.5 -250)"/><path class="cls-2" d="M535.89,480.41q-11.085,3.6-22.19,7.21-6.84,2.22-13.69,4.45c2.82-3.89,5.63-7.77,8.47-11.66-2.84-3.89-5.65-7.77-8.47-11.65v-.01q6.855,2.22,13.7,4.45Q524.81,476.815,535.89,480.41Z" transform="translate(-207.5 -250)"/><path class="cls-2" d="M616.1,454.35q-20.055,6.51-40.1,13.03t-40.11,13.03q-11.07-3.6-22.18-7.21c.77-1.06,1.54-2.11,2.3-3.17q3.09-4.245,6.16-8.48a.01.01,0,0,0,.01-.01q17.94-5.82,35.87-11.65l.66-3.88Z" transform="translate(-207.5 -250)"/><path class="cls-1" d="M508.48,480.41c-2.84,3.89-5.65,7.77-8.47,11.66V468.76C502.83,472.64,505.64,476.52,508.48,480.41Z" transform="translate(-207.5 -250)"/><path class="cls-1" d="M522.17,461.55q-3.06,4.245-6.16,8.48c-.76,1.06-1.53,2.11-2.3,3.17q-6.855-2.22-13.7-4.45Q511.08,465.15,522.17,461.55Z" transform="translate(-207.5 -250)"/><path class="cls-2" d="M571.75,370l-13.04,76.01-.66,3.88q-17.925,5.835-35.87,11.65a.01.01,0,0,1-.01.01q-11.07,3.6-22.16,7.2v-.01q14.52-19.98,29.01-39.94Q550.38,399.4,571.75,370Z" transform="translate(-207.5 -250)"/><path class="cls-2" d="M500.01,468.74V407.72l-.01-.01V370l14.77,29.95,14.25,28.85Q514.53,448.765,500.01,468.74Z" transform="translate(-207.5 -250)"/><path class="cls-2" d="M500,468.75v23.31q-4.23-5.82-8.48-11.65Q495.78,474.575,500,468.75Z" transform="translate(-207.5 -250)"/><path class="cls-1" d="M500,370v98.75q-14.5-19.965-29.02-39.94l14.23-28.86Z" transform="translate(-207.5 -250)"/><path class="cls-1" d="M477.83,461.55v-.01q-17.94-5.82-35.88-11.65l-.66-3.88L428.26,370q21.36,29.4,42.72,58.81,14.5,19.965,29.02,39.94Q488.915,465.15,477.83,461.55Z" transform="translate(-207.5 -250)"/><path class="cls-2" d="M500,468.75q-6.855,2.22-13.7,4.45c-2.82-3.88-5.66-7.76-8.47-11.65Q488.9,465.15,500,468.75Z" transform="translate(-207.5 -250)"/><path class="cls-1" d="M500,492.06v.01q-6.855-2.22-13.71-4.45,2.625-3.6,5.23-7.21Q495.78,486.245,500,492.06Z" transform="translate(-207.5 -250)"/><path class="cls-1" d="M486.3,473.2q-11.1,3.6-22.19,7.21-20.055-6.51-40.1-13.03T383.9,454.35l57.39-8.34.66,3.88q17.955,5.835,35.88,11.65v.01C480.64,465.44,483.48,469.32,486.3,473.2Z" transform="translate(-207.5 -250)"/><path class="cls-2" d="M500,492.07q-11.085,3.6-22.17,7.21,4.215-5.835,8.46-11.66Q493.145,489.84,500,492.07Z" transform="translate(-207.5 -250)"/><path class="cls-1" d="M464.11,480.41q-20.04,6.51-40.1,13.03T383.9,506.47l26.74-26.06L383.9,454.35q20.055,6.51,40.11,13.03T464.11,480.41Z" transform="translate(-207.5 -250)"/><path class="cls-2" d="M485.23,560.87l-56.97,29.95,42.72-58.8Z" transform="translate(-207.5 -250)"/><path class="cls-2" d="M529.02,532.01l-14.23,28.86-14.78,29.95V492.07Q514.515,512.035,529.02,532.01Z" transform="translate(-207.5 -250)"/><path class="cls-1" d="M571.75,590.82l-56.96-29.95,14.23-28.86Q550.38,561.425,571.75,590.82Z" transform="translate(-207.5 -250)"/><path class="cls-1" d="M500.01,553.11v37.71l-14.78-29.95-14.25-28.85-42.72,58.8,13.03-76.01,22.84,3.32q6.855-9.42,13.7-18.85,11.07-3.615,22.17-7.21V553.1Z" transform="translate(-207.5 -250)"/><path class="cls-1" d="M360,250v75a25,25,0,0,1-45,15,25,25,0,0,1-45-15V250h10v75a15,15,0,0,0,30,0V250h10v75a15,15,0,0,0,30,0V250Z" transform="translate(-207.5 -250)"/><path class="cls-1" d="M570,295a25,25,0,0,0-15-45H530V350h10V300h15a15,15,0,0,1,15,15v35h10V315A24.952,24.952,0,0,0,570,295Zm-30-5V260h15a15,15,0,0,1,0,30Z" transform="translate(-207.5 -250)"/><path class="cls-1" d="M730,275v75H720V275a15,15,0,0,0-30,0v75H680V275a15,15,0,0,0-30,0v75H640V275a25,25,0,0,1,45-15,25,25,0,0,1,45,15Z" transform="translate(-207.5 -250)"/><path class="cls-1" d="M390,250a25,25,0,0,0-25,25v50a25,25,0,0,0,50,0V275A25,25,0,0,0,390,250Zm0,90a15,15,0,0,1-15-15V275a15,15,0,0,1,30,0v50A15,15,0,0,1,390,340Z" transform="translate(-207.5 -250)"/><polygon class="cls-1" points="262.5 90 262.5 100 212.5 100 212.5 0 222.5 0 222.5 90 262.5 90"/><polygon class="cls-1" points="277.5 10 277.5 45 297.5 45 297.5 55 277.5 55 277.5 100 267.5 100 267.5 0 317.5 0 317.5 10 277.5 10"/><path class="cls-1" d="M610,250a25,25,0,0,0-25,25v75h10V310h30v40h10V275A25,25,0,0,0,610,250Zm15,50H595V275a15,15,0,0,1,30,0Z" transform="translate(-207.5 -250)"/><path class="cls-2" d="M277.5,610V710h-10V643.335q-10,33.33-20,66.665h-10q-10-33.338-20-66.665V710h-10V610h10q12.5,41.67,25,83.335,12.5-41.67,25-83.335Z" transform="translate(-207.5 -250)"/><path class="cls-2" d="M324.5,670q-1-5-2-10-5-25-10-50h-10q-5,25-10,50-1,5-2,10-4,20-8,40h10q4-20,8-40h14q4,20,8,40h10Q328.5,690,324.5,670Zm-22-10q2.5-12.5,5-25,2.5,12.5,5,25Z" transform="translate(-207.5 -250)"/><path class="cls-2" d="M557.5,610V710h-10V643.335q-10,33.33-20,66.665h-10q-10-33.338-20-66.665V710h-10V610h10q12.5,41.67,25,83.335,12.5-41.67,25-83.335Z" transform="translate(-207.5 -250)"/><path class="cls-2" d="M604.5,670q-1-5-2-10-5-25-10-50h-10q-5,25-10,50-1,5-2,10-4,20-8,40h10q4-20,8-40h14q4,20,8,40h10Q608.5,690,604.5,670Zm-22-10q2.5-12.5,5-25,2.5,12.5,5,25Z" transform="translate(-207.5 -250)"/><path class="cls-2" d="M784.5,670q-1-5-2-10-5-25-10-50h-10q-5,25-10,50-1,5-2,10-4,20-8,40h10q4-20,8-40h14q4,20,8,40h10Q788.5,690,784.5,670Zm-22-10q2.5-12.5,5-25,2.5,12.5,5,25Z" transform="translate(-207.5 -250)"/><polygon class="cls-2" points="220 360 220 460 210 460 210 415 180 415 180 460 170 460 170 360 180 360 180 405 210 405 210 360 220 360"/><polygon class="cls-2" points="445 360 445 370 425 370 425 460 415 460 415 370 395 370 395 360 445 360"/><polygon class="cls-2" points="165 360 165 370 145 370 145 460 135 460 135 370 115 370 115 360 165 360"/><polygon class="cls-2" points="235 370 235 405 275 405 275 415 235 415 235 450 275 450 275 460 225 460 225 360 275 360 275 370 235 370"/><polygon class="cls-2" points="470 370 470 450 480 450 480 460 450 460 450 450 460 450 460 370 450 370 450 360 480 360 480 370 470 370"/><path class="cls-2" d="M732.5,685h10a25,25,0,0,1-50,0V635a25,25,0,0,1,50,0h-10a15,15,0,0,0-30,0v50a15,15,0,0,0,30,0Z" transform="translate(-207.5 -250)"/></g></svg>