<svg xmlns="http://www.w3.org/2000/svg" viewBox="0 0 250 130"><defs><style>.cls-1{fill:#121221;}.cls-2{fill:#366ce1;}</style></defs><title>woo comerence</title><g id="Слой_2" data-name="Слой 2"><g id="Work_space" data-name="Work space"><g id="woo_comerence" data-name="woo comerence"><polygon class="cls-1" points="193.82 104.463 193.82 130 188.712 130 173.39 112.275 173.39 130 168.283 130 168.283 104.463 173.39 104.463 188.712 122.188 188.712 104.463 193.82 104.463"/><polygon class="cls-1" points="81.459 104.463 81.459 130 76.352 130 76.352 112.275 72.062 117.245 68.688 121.154 65.315 117.245 61.03 112.283 61.03 130 55.922 130 55.922 104.463 61.03 104.463 61.03 104.466 68.688 113.337 76.347 104.463 81.459 104.463"/><polygon class="cls-1" points="89.12 109.571 89.12 114.678 109.549 114.678 109.549 119.785 89.12 119.785 89.12 124.893 109.549 124.893 109.549 130 84.013 130 84.013 104.463 109.549 104.463 109.549 109.571 89.12 109.571"/><polygon class="cls-1" points="229.571 109.571 229.571 114.678 250 114.678 250 119.785 229.571 119.785 229.571 124.893 250 124.893 250 130 224.463 130 224.463 104.463 250 104.463 250 109.571 229.571 109.571"/><polygon class="cls-1" points="145.3 109.571 145.3 114.678 165.729 114.678 165.729 119.785 145.3 119.785 145.3 124.893 165.729 124.893 165.729 130 140.193 130 140.193 104.463 165.729 104.463 165.729 109.571 145.3 109.571"/><path class="cls-1" d="M137.639,112.124a7.66,7.66,0,0,0-7.661-7.661H112.1V130h5.107V119.785h12.768a2.555,2.555,0,0,1,2.554,2.554V130h5.107v-7.661a7.628,7.628,0,0,0-1.953-5.107A7.628,7.628,0,0,0,137.639,112.124Zm-20.429,2.554v-5.107h12.768a2.554,2.554,0,1,1,0,5.107Z"/><path class="cls-2" d="M150,0a50,50,0,1,0,50,50A50.005,50.005,0,0,0,150,0Zm0,80a30,30,0,1,1,30-30A30,30,0,0,1,150,80Z"/><path class="cls-2" d="M200,0a50,50,0,1,0,50,50A50.005,50.005,0,0,0,200,0Zm0,80a30,30,0,1,1,30-30A30,30,0,0,1,200,80Z"/><path class="cls-1" d="M40.6,104.463a12.769,12.769,0,1,0,12.768,12.769A12.77,12.77,0,0,0,40.6,104.463Zm0,20.43a7.661,7.661,0,1,1,7.66-7.661A7.66,7.66,0,0,1,40.6,124.893Z"/><path class="cls-1" d="M19.99,119.785h5.289a12.769,12.769,0,1,1,0-5.107H19.99a7.662,7.662,0,1,0,0,5.107Z"/><path class="cls-1" d="M216.621,119.785h5.289a12.769,12.769,0,1,1,0-5.107h-5.289a7.662,7.662,0,1,0,0,5.107Z"/><polygon class="cls-2" points="100 0 80.22 99 80.04 98.09 80.04 99.92 80.02 100 60.04 100 60.04 97.95 59.83 99 50.03 49.97 40.23 99 40.04 98.04 40.04 99.97 40.03 100 20.04 100 20.04 98 19.84 99 0.06 0 20.45 0 30.04 47.97 39.62 0 60.44 0 70.03 47.97 79.61 0 100 0"/></g></g></g></svg>