<svg xmlns="http://www.w3.org/2000/svg" viewBox="0 0 840.711 251.672"><defs><style>.cls-1{fill:#121221;}.cls-2{fill:#366ce1;}</style></defs><title>wood pecker</title><g id="Слой_2" data-name="Слой 2"><g id="Work_space" data-name="Work space"><g id="wood_pecker" data-name="wood pecker"><path class="cls-1" d="M790,25.837a50,50,0,0,0,0,100h50v-50A50.005,50.005,0,0,0,790,25.837Zm-30,50a30,30,0,1,1,60,0v30H790A30,30,0,0,1,760,75.837Z"/><path class="cls-1" d="M840.711,175.835a50,50,0,0,0-100,0v50h50A50.005,50.005,0,0,0,840.711,175.835Zm-50-30a30,30,0,0,1,0,60h-30v-30A30,30,0,0,1,790.711,145.835Z"/><circle class="cls-2" cx="800" cy="75.837" r="10"/><polygon class="cls-1" points="520 140 520 160 600 160 600 180 520 180 520 200 600 200 600 220 500 220 500 120 600 120 600 140 520 140"/><polygon class="cls-1" points="190 140 190 160 270 160 270 180 190 180 190 200 270 200 270 220 170 220 170 120 270 120 270 140 190 140"/><path class="cls-1" d="M710,150a30,30,0,0,0-30-30H610V220h20V180h50a10,10,0,0,1,10,10v30h20V190a29.862,29.862,0,0,0-7.65-20A29.862,29.862,0,0,0,710,150Zm-80,10V140h50a10,10,0,0,1,0,20Z"/><polygon class="cls-1" points="490 219.99 490 220 460.13 220 419.51 183.43 410 192 410 220 390 220 390 120 410 120 410 165.09 419.51 156.52 460.07 120 489.97 120 434.46 169.98 490 219.99"/><path class="cls-1" d="M358.28,180h20.71a50,50,0,1,1,0-20H358.28a30,30,0,1,0,0,20Z"/><path class="cls-1" d="M130,120H60V220H80V180h50a30,30,0,0,0,0-60Zm0,40H80V140h50a10,10,0,0,1,0,20Z"/><path class="cls-2" d="M450,0H400V100h50A50,50,0,0,0,450,0Zm0,80H420V20h30a30,30,0,0,1,0,60Z"/><path class="cls-2" d="M230,0a50,50,0,1,0,50,50A50.005,50.005,0,0,0,230,0Zm0,80a30,30,0,1,1,30-30A30,30,0,0,1,230,80Z"/><path class="cls-2" d="M340,0a50,50,0,1,0,50,50A50.005,50.005,0,0,0,340,0Zm0,80a30,30,0,1,1,30-30A30,30,0,0,1,340,80Z"/><path class="cls-2" d="M159.26,0,144.8,57.86,130.24,1.15,129.94,0H115.03L115,.11V0h-5.12l-.29,1.16L95.05,57.75,80.62,0H60V.02L84.61,98.43,85,100h19.86l.38-1.5,14.67-57.13,14.7,57.24.35,1.39h15.03l.01-.04V100h4.87l.37-1.46L179.88,0ZM140,50.99v.04l-.02-.04Zm0,47.53-.19.61.19-.64Z"/><polygon class="cls-2" points="140 51.03 139.98 50.99 140 50.99 140 51.03"/><polygon class="cls-2" points="140 98.52 139.81 99.13 140 98.49 140 98.52"/><polygon class="cls-2" points="140 98.52 139.81 99.13 140 98.49 140 98.52"/><path class="cls-1" d="M31.852,158.792c-4.764-.029-9.334,15.3-10.532,26.331-.978,9-1.014,27.161,13.165,50.027-2.706-14.019-1.523-24.611,0-31.6,2.491-11.423,6.888-17.776,5.267-28.964C38.762,167.768,35.487,158.815,31.852,158.792Z"/><path class="cls-1" d="M34.854,158.792c-3.495-.377-9.181,13.889-10.532,26.331-.978,9-1.014,27.161,13.165,50.027a132.211,132.211,0,0,1,0-31.6c1.047-8.478,2.6-13.909,2.265-23.7C39.522,173.262,38.24,159.157,34.854,158.792Z"/><path class="cls-1" d="M22.006,148.16c-.268,3.034,3.84,4.733,7.213,8,7.852,7.6,8.212,19.963,7.9,28.964-.4,11.545-2.907,13.748-3.118,17.364a12.286,12.286,0,0,0,.485,3.7c1.861,7.051,9.639,19.05,9.639,19.05,3,4.629,5.621,12.492,2.8,26.435,5.1-11.143,5.264-19.675,4.406-25.5-1.393-9.453-5.62-12.724-4.495-21.494.92-7.17,3.827-7.109,6.079-16.922a36.347,36.347,0,0,0,0-18.432c-1.536-5.466-4.1-9.041-6.524-12.353-3.341-4.567-11.3-15.444-18.779-13.884C24.933,143.646,22.213,145.822,22.006,148.16Z"/><path class="cls-1" d="M16.054,129.829c-3.875,3.474-5.8,10.062-3.7,14.637.968,2.114,2.432,3.008,8.367,6.987,4.9,3.285,8.732,5.913,10.9,7.41a35.569,35.569,0,0,1,2.866-10.6c3.727-8.3,8.43-9.876,7.9-13.165C41.43,129.181,24.315,122.423,16.054,129.829Z"/><path class="cls-1" d="M36.914,146.4q6.425-5.028,13.084-10.08,4.916-3.728,9.785-7.334-6.663,1.488-13.835,2.795-5.364.971-10.5,1.736a7.114,7.114,0,0,0-4,8.277A6.914,6.914,0,0,0,36.914,146.4Z"/><path class="cls-1" d="M14.387,147.028a19.559,19.559,0,0,0-7.378-5.065A19.453,19.453,0,0,0,0,140.661a11.213,11.213,0,0,1,3.738-1.769c2.459-.631,4.52-.214,4.539-.4a11.267,11.267,0,0,0-3.6-.768,30.344,30.344,0,0,0-4.072-.2,19.07,19.07,0,0,1,8.411-1.669l-5.875-1.569a18.089,18.089,0,0,0,6.309-.767,18.164,18.164,0,0,0,6.608-3.69c3.3.971,5.918,3.349,6.575,6.293C23.6,140.449,20.251,145.711,14.387,147.028Z"/><path class="cls-1" d="M48.329,186.254c1.326-3.14,6.575-1.1,9.546-4.606,1.929-2.277,1.448-5.181,4.139-6.676.128-.071,1.26-.7,1.535-.4.233.254-.285,1.034-1.135,2.47a19.386,19.386,0,0,0-2.069,4,9.235,9.235,0,0,1,2.8-2.47c1.65-.755,3.47-.527,3.538-.2s-1.694.6-3.805,2.269c-.987.78-2.057,1.649-2.069,2.8-.007.648.323,1.046,1.068,2.069,1.888,2.594,2.928,4.023,2.67,4.339s-2.046-.263-3.337-1.6c-1.772-1.836-1.326-3.76-2.537-4.205-.738-.272-1.38.268-3.8,1.869-5.137,3.39-5.905,3.375-6.275,3.137C47.987,188.665,47.888,187.3,48.329,186.254Z"/><path class="cls-2" d="M24.5,138.325a5.749,5.749,0,0,1,3.138-2.637c2.226-.695,4.95.21,5.073,1.2.118.952-2.13,2.241-4.172,2.436A6.633,6.633,0,0,1,24.5,138.325Z"/></g></g></g></svg>