<svg xmlns="http://www.w3.org/2000/svg" viewBox="0 0 189.7 95.778"><defs><style>.cls-1{fill:#121221;}.cls-2{fill:#366ce1;}</style></defs><title>workday</title><g id="Complete"><g id="workday"><path class="cls-1" d="M591.394,429.838q-24.88,28.437-49.764,56.869a26.558,26.558,0,0,1-28.389,7.706l-.2-.066a41.221,41.221,0,0,0-26.082,0h0a26.872,26.872,0,0,1-28.727-7.8q-24.812-28.356-49.626-56.71a13.974,13.974,0,0,1,.637-19.081l.2-.2a13.97,13.97,0,0,1,20.386.672l2.481,2.831q25.791,29.495,51.609,58.99A3.47,3.47,0,0,0,490,470.765V460a10,10,0,0,1,10-10h0a10,10,0,0,1,10,10v10.765a3.47,3.47,0,0,0,6.081,2.285q25.806-29.495,51.609-58.99l2.481-2.831a13.97,13.97,0,0,1,20.386-.672l.2.2A13.974,13.974,0,0,1,591.394,429.838Z" transform="translate(-405.15 -400)"/><path class="cls-1" d="M500,420Z" transform="translate(-405.15 -400)"/><path class="cls-2" d="M563.526,425.542l-.11.126a8.084,8.084,0,0,1-9.022,2.186,149.65,149.65,0,0,0-108.86.023,8.037,8.037,0,0,1-8.953-2.211l-.109-.124a8.046,8.046,0,0,1,2.765-12.655,149.7,149.7,0,0,1,121.552.01A8.043,8.043,0,0,1,563.526,425.542Z" transform="translate(-405.15 -400)"/></g></g></svg>