<svg xmlns="http://www.w3.org/2000/svg" viewBox="0 0 729.88 100"><defs><style>.cls-1{fill:#121221;}</style></defs><title>workato</title><g id="Слой_2" data-name="Слой 2"><g id="Work_space" data-name="Work space"><g id="workato"><path class="cls-1" d="M329.88,30a30,30,0,0,0-30-30h-70V100h20V60h50a10,10,0,0,1,10,10v30h20V70a29.862,29.862,0,0,0-7.65-20A29.862,29.862,0,0,0,329.88,30Zm-80,10V20h50a10,10,0,0,1,0,20Z"/><path class="cls-1" d="M679.88,0a50,50,0,1,0,50,50A50.005,50.005,0,0,0,679.88,0Zm0,80a30,30,0,1,1,30-30A30,30,0,0,1,679.88,80Z"/><path class="cls-1" d="M169.88,0a50,50,0,1,0,50,50A50.005,50.005,0,0,0,169.88,0Zm0,80a30,30,0,1,1,30-30A30,30,0,0,1,169.88,80Z"/><polygon class="cls-1" points="439.88 99.99 439.88 100 410.01 100 369.39 63.43 359.88 72 359.88 100 339.88 100 339.88 0 359.88 0 359.88 45.09 369.39 36.52 409.95 0 439.85 0 384.34 49.98 439.88 99.99"/><path class="cls-1" d="M510.65,1.95,509.87,0H489.89l-.78,1.94L449.88,100h21.55l11.2-28h34.5l11.2,28h21.55ZM490.63,52l9.25-23.13L509.13,52Z"/><path class="cls-1" d="M99.26,0,84.8,57.86,70.24,1.15,69.94,0H55.03L55,.11V0H49.88l-.29,1.16L35.05,57.75,20.62,0H0V.02L24.61,98.43,25,100H44.86l.38-1.5L59.91,41.37l14.7,57.24.35,1.39H89.99l.01-.04V100h4.87l.37-1.46L119.88,0ZM80,50.99v.04l-.02-.04Zm0,47.53-.19.61.19-.64Z"/><polygon class="cls-1" points="80 51.03 79.98 50.99 80 50.99 80 51.03"/><polygon class="cls-1" points="80 98.52 79.81 99.13 80 98.49 80 98.52"/><polygon class="cls-1" points="80 98.52 79.81 99.13 80 98.49 80 98.52"/><polygon class="cls-1" points="629.88 0 629.88 20 589.88 20 589.88 100 569.88 100 569.88 20 529.88 20 529.88 0 629.88 0"/></g></g></g></svg>