<svg xmlns="http://www.w3.org/2000/svg" viewBox="0 0 1455.074 214.2"><defs><style>.cls-1{fill:#366ce1;}.cls-2{fill:#121221;}</style></defs><title>work manager</title><g id="Слой_2" data-name="Слой 2"><g id="Work_space" data-name="Work space"><g id="work_manager" data-name="work manager"><polygon class="cls-1" points="1414.088 143.21 1373.108 143.21 1331.408 70.99 1289.708 143.21 1248.728 143.21 1331.408 0 1414.088 143.21"/><polygon class="cls-2" points="1455.074 214.2 1289.714 214.2 1330.694 143.21 1414.094 143.21 1455.074 214.2"/><polygon class="cls-1" points="770 57.1 770 157.1 750 157.1 690 87.69 690 157.1 670 157.1 670 57.1 690 57.1 750 126.51 750 57.1 770 57.1"/><polygon class="cls-1" points="550 57.1 550 157.1 530 157.1 530 87.69 513.2 107.15 499.99 122.46 486.78 107.15 470 87.72 470 157.1 450 157.1 450 57.1 470 57.1 470 57.11 499.99 91.85 529.98 57.1 550 57.1"/><polygon class="cls-1" points="1005 77.1 1005 97.1 1085 97.1 1085 117.1 1005 117.1 1005 137.1 1085 137.1 1085 157.1 985 157.1 985 57.1 1085 57.1 1085 77.1 1005 77.1"/><path class="cls-1" d="M1195,87.1a30,30,0,0,0-30-30h-70v100h20v-40h50a10,10,0,0,1,10,10v30h20v-30a29.862,29.862,0,0,0-7.65-20A29.862,29.862,0,0,0,1195,87.1Zm-80,10v-20h50a10,10,0,0,1,0,20Z"/><path class="cls-1" d="M620.77,59.05l-.78-1.95H600.01l-.78,1.94L560,157.1h21.55l11.2-28h34.5l11.2,28H660ZM600.75,109.1,610,85.97l9.25,23.13Z"/><path class="cls-1" d="M840.77,59.05l-.78-1.95H820.01l-.78,1.94L780,157.1h21.55l11.2-28h34.5l11.2,28H880ZM820.75,109.1,830,85.97l9.25,23.13Z"/><path class="cls-1" d="M975,97.1v10a49.16,49.16,0,0,1-1.01,10,50.013,50.013,0,1,1-13.64-45.35L946.21,85.89a30,30,0,1,0,7.07,31.21H925v-20Z"/><path class="cls-2" d="M330,87.1a30,30,0,0,0-30-30H230v100h20v-40h50a10,10,0,0,1,10,10v30h20v-30a29.862,29.862,0,0,0-7.65-20A29.862,29.862,0,0,0,330,87.1Zm-80,10v-20h50a10,10,0,0,1,0,20Z"/><path class="cls-2" d="M170,57.1a50,50,0,1,0,50,50A50.005,50.005,0,0,0,170,57.1Zm0,80a30,30,0,1,1,30-30A30,30,0,0,1,170,137.1Z"/><polygon class="cls-2" points="440 157.09 440 157.1 410.13 157.1 369.51 120.53 360 129.1 360 157.1 340 157.1 340 57.1 360 57.1 360 102.19 369.51 93.62 410.07 57.1 439.97 57.1 384.46 107.08 440 157.09"/><path class="cls-2" d="M99.26,57.1,84.8,114.96,70.24,58.25l-.3-1.15H55.03l-.03.11V57.1H49.88l-.29,1.16L35.05,114.85,20.62,57.1H0v.02l24.61,98.41L25,157.1H44.86l.38-1.5L59.91,98.47l14.7,57.24.35,1.39H89.99l.01-.04v.04h4.87l.37-1.46L119.88,57.1ZM80,108.09v.04l-.02-.04Zm0,47.53-.19.61.19-.64Z"/><polygon class="cls-2" points="80 108.13 79.98 108.09 80 108.09 80 108.13"/><polygon class="cls-2" points="80 155.62 79.81 156.23 80 155.59 80 155.62"/><polygon class="cls-2" points="80 155.62 79.81 156.23 80 155.59 80 155.62"/></g></g></g></svg>