<svg id="Complete" xmlns="http://www.w3.org/2000/svg" viewBox="0 0 460 218.746"><defs><style>.cls-1{fill:#366ce1;}.cls-2{fill:#121221;}</style></defs><title>wrike</title><g id="wrike"><polygon class="cls-1" points="180 18.746 200 18.746 160 218.746 140 218.746 180 18.746"/><polygon class="cls-1" points="0 18.746 20 18.746 60 218.746 40 218.746 0 18.746"/><polygon class="cls-1" points="90 88.746 110 88.746 60 218.746 40 218.746 90 88.746"/><polygon class="cls-1" points="110 88.746 90 88.746 140 218.746 160 218.746 110 88.746"/><path class="cls-1" d="M460,501.01v26.64a29.969,29.969,0,0,0-40,0V600H400V500h20v10.01A49.726,49.726,0,0,1,450,500,49.16,49.16,0,0,1,460,501.01Z" transform="translate(-200 -381.254)"/><rect class="cls-1" x="270" y="118.746" width="20" height="100"/><path class="cls-1" d="M500,470l20-20V600H500Z" transform="translate(-200 -381.254)"/><path class="cls-1" d="M520,560l-20-10,50-50h30Z" transform="translate(-200 -381.254)"/><path class="cls-1" d="M530,550l-20,10,40,40h30Z" transform="translate(-200 -381.254)"/><rect class="cls-1" x="455.429" y="420.575" width="119.501" height="19.997" transform="translate(-353.569 109.146) rotate(-45)"/><rect class="cls-2" x="447.751" y="422.036" width="19.997" height="42.936" transform="translate(-379.532 72.324) rotate(-45)"/><path class="cls-1" d="M659.2,560a62.9,62.9,0,0,0,0-20c-3.71-22.82-19.85-40-39.2-40-22.09,0-40,22.39-40,50s17.91,50,40,50c9.2,0,17.67-3.89,24.43-10.42l-13.99-13.99A15.384,15.384,0,0,1,620,580c-8.71,0-16.11-8.34-18.86-20ZM620,520c8.71,0,16.11,8.34,18.86,20H601.14C603.89,528.34,611.29,520,620,520Z" transform="translate(-200 -381.254)"/></g></svg>