<svg xmlns="http://www.w3.org/2000/svg" viewBox="0 0 720.397 241.417"><defs><style>.cls-1{fill:#121221;}.cls-2{fill:#366ce1;}</style></defs><title>xapo</title><g id="Слой_2" data-name="Слой 2"><g id="Work_space" data-name="Work space"><g id="xapo"><path class="cls-1" d="M705.754,14.642a50,50,0,1,0,0,70.711A50.005,50.005,0,0,0,705.754,14.642ZM649.186,71.211a30,30,0,1,1,42.426,0A30,30,0,0,1,649.186,71.211Z"/><path class="cls-1" d="M564.333,156.064a50,50,0,1,0,0,70.71A50.006,50.006,0,0,0,564.333,156.064Zm-56.568,56.568a30,30,0,1,1,42.426,0A30,30,0,0,1,507.765,212.632Z"/><rect class="cls-1" x="617.973" y="48.993" width="20" height="200" transform="translate(289.283 -400.405) rotate(45)"/><rect class="cls-1" x="561.404" y="-7.576" width="20" height="200" transform="translate(232.714 -376.973) rotate(45)"/><path class="cls-2" d="M705.754,226.774a50,50,0,1,0-70.71,0A50,50,0,0,0,705.754,226.774Zm-56.568-56.568a30,30,0,1,1,0,42.426A30,30,0,0,1,649.186,170.206Z"/><path class="cls-2" d="M564.333,85.353a50,50,0,1,0-70.711,0A50.006,50.006,0,0,0,564.333,85.353ZM507.765,28.785a30,30,0,1,1,0,42.426A30,30,0,0,1,507.765,28.785Z"/><rect class="cls-2" x="561.404" y="48.993" width="20" height="200" transform="translate(1080.802 -149.697) rotate(135)"/><rect class="cls-2" x="617.973" y="-7.576" width="20" height="200" transform="translate(1137.37 -286.266) rotate(135)"/><path class="cls-1" d="M378.98,70.708a50,50,0,1,0,50,50A50.005,50.005,0,0,0,378.98,70.708Zm0,80a30,30,0,1,1,30-30A30,30,0,0,1,378.98,150.708Z"/><path class="cls-1" d="M170.75,72.658l-.78-1.95H149.99l-.78,1.94-39.23,98.06h21.55l11.2-28h34.5l11.2,28h21.55Zm-20.02,50.05,9.25-23.13,9.25,23.13Z"/><path class="cls-1" d="M289.98,70.708h-70v100h20v-40h50a30,30,0,0,0,0-60Zm0,40h-50v-20h50a10,10,0,0,1,0,20Z"/><polygon class="cls-1" points="62.48 120.738 99.93 170.708 74.94 170.708 49.99 137.408 25.03 170.708 0.05 170.708 37.49 120.738 0 70.708 24.98 70.708 49.99 104.068 74.99 70.708 99.98 70.708 62.48 120.738"/></g></g></g></svg>