<svg id="Complete" xmlns="http://www.w3.org/2000/svg" viewBox="0 0 610 100.042"><defs><style>.cls-1{fill:#1c1e20;}.cls-2{fill:#e1dfdf;}</style></defs><title>xl stat</title><g id="xl_stat" data-name="xl stat"><polygon class="cls-1" points="100 14.14 64.14 50 100 85.86 100 100 85.86 100 50 64.14 14.14 100 0 100 0 85.86 35.86 50 0 14.14 0 0 14.15 0 50 35.85 85.85 0 100 0 100 14.14"/><polygon class="cls-1" points="200 80 200 100 100 100 100 0 120 0 120 80 200 80"/><polygon class="cls-2" points="410 0 410 20 370 20 370 100 350 100 350 20 310 20 310 0 410 0"/><polygon class="cls-2" points="610 0.04 610 20.04 570 20.04 570 100.04 550 100.04 550 20.04 510 20.04 510 0.04 610 0.04"/><path class="cls-2" d="M690,410.01A50,50,0,0,0,610,450v50h20V470h60v30h20V450A49.891,49.891,0,0,0,690,410.01ZM630,450a30,30,0,0,1,60,0Z" transform="translate(-200 -400)"/><path class="cls-2" d="M510,450.042a49.16,49.16,0,0,1-1.01,10,50,50,0,0,1-90.7,17.57l14.64-14.64a30,30,0,0,0,55.35-2.93H411.01a50.01,50.01,0,0,1,0-20,50,50,0,0,1,90.7-17.57l-14.64,14.64a30,30,0,0,0-55.35,2.93h77.27A49.16,49.16,0,0,1,510,450.042Z" transform="translate(-200 -400)"/></g></svg>