<svg id="Слой_1" data-name="Слой 1" xmlns="http://www.w3.org/2000/svg" viewBox="0 0 620.129 313.889"><defs><style>.cls-1{fill:#e1e0e0;stroke:#366ce1;stroke-miterlimit:10;stroke-width:15.129px;}</style></defs><title>xml</title><path class="cls-1" d="M653.12,350.62H346.88a149.38,149.38,0,0,0,0,298.76H653.12a149.38,149.38,0,0,0,0-298.76ZM420,574.69H382.65q-18.675-24.9-37.34-49.8-18.66,24.9-37.35,49.8H270.62q28-37.35,56.02-74.69-28.02-37.335-56.02-74.69h37.34q18.675,24.9,37.35,49.8,18.66-24.9,37.34-49.8H420Q392,462.66,363.98,500,391.985,537.335,420,574.69Zm154.69,0H544.81V470.12L500,514.94l-44.81-44.82V574.69H425.31V425.31h29.88q22.4,26.13,44.81,52.28,22.41-26.13,44.81-52.28h29.88Zm154.69,0H580V425.31h29.88v119.5h119.5Z" transform="translate(-189.936 -343.056)"/></svg>