<svg xmlns="http://www.w3.org/2000/svg" viewBox="0 0 480 100"><defs><style>.cls-1{fill:#121221;}</style></defs><title>ya cu</title><g id="Слой_2" data-name="Слой 2"><g id="Work_space" data-name="Work space"><g id="ya_cu" data-name="ya cu"><path class="cls-1" d="M348.28,60h20.71a50,50,0,1,1,0-20H348.28a30,30,0,1,0,0,20Z"/><path class="cls-1" d="M140.77,1.95,139.99,0H120.01l-.78,1.94L80,100h21.55l11.2-28h34.5l11.2,28H180ZM120.75,52,130,28.87,139.25,52Z"/><polygon class="cls-1" points="62.78 46.46 59.95 50 60 50 60 100 40 100 40 50 37.17 46.46 0 0 25.61 0 49.97 30.45 74.33 0 99.95 0 62.78 46.46"/><path class="cls-1" d="M480,0V50a50,50,0,0,1-100,0V0h20V50a30,30,0,0,0,60,0V0Z"/></g></g></g></svg>