<svg xmlns="http://www.w3.org/2000/svg" viewBox="0 0 840 162.628"><defs><style>.cls-1{fill:#121221;}.cls-2,.cls-3{fill:#366ce1;}.cls-2{opacity:0.38;}.cls-3{opacity:0.62;}</style></defs><title>yammer</title><g id="Слой_2" data-name="Слой 2"><g id="Work_space" data-name="Work space"><g id="yammer"><polygon class="cls-1" points="290 31.314 290 131.314 270 131.314 270 61.904 253.2 81.364 239.99 96.674 226.78 81.364 210 61.934 210 131.314 190 131.314 190 31.314 210 31.314 210 31.324 239.99 66.064 269.98 31.314 290 31.314"/><polygon class="cls-1" points="400 31.314 400 131.314 380 131.314 380 61.904 363.2 81.364 349.99 96.674 336.78 81.364 320 61.934 320 131.314 300 131.314 300 31.314 320 31.314 320 31.324 349.99 66.064 379.98 31.314 400 31.314"/><polygon class="cls-1" points="430 51.314 430 71.314 510 71.314 510 91.314 430 91.314 430 111.314 510 111.314 510 131.314 410 131.314 410 31.314 510 31.314 510 51.314 430 51.314"/><path class="cls-1" d="M620,61.314a30,30,0,0,0-30-30H520v100h20v-40h50a10,10,0,0,1,10,10v30h20v-30a29.862,29.862,0,0,0-7.65-20A29.862,29.862,0,0,0,620,61.314Zm-80,10v-20h50a10,10,0,1,1,0,20Z"/><path class="cls-1" d="M140.77,33.264l-.78-1.95H120.01l-.78,1.94L80,131.314h21.55l11.2-28h34.5l11.2,28H180Zm-20.02,50.05L130,60.184l9.25,23.13Z"/><polygon class="cls-1" points="62.78 77.774 59.95 81.314 60 81.314 60 131.314 40 131.314 40 81.314 37.17 77.774 0 31.314 25.61 31.314 49.97 61.764 74.33 31.314 99.95 31.314 62.78 77.774"/><path class="cls-2" d="M740,71.314,826.286,36.8A10,10,0,0,1,840,46.084v70.46a10,10,0,0,1-13.714,9.284L740,91.314Z"/><path class="cls-3" d="M830.717,98.023q-16.516,29.73-33.034,59.461a10,10,0,0,1-16.879.956L737.228,97.433,740,91.314l80.981-8.1A10,10,0,0,1,830.717,98.023Z"/><path class="cls-3" d="M830.717,64.605Q814.2,34.875,797.683,5.144A10,10,0,0,0,780.8,4.188L737.228,65.195,740,71.314l80.981,8.1A10,10,0,0,0,830.717,64.605Z"/><path class="cls-1" d="M730,31.314H650a10,10,0,0,0-10,10v80a10,10,0,0,0,10,10h80a10,10,0,0,0,10-10v-80A10,10,0,0,0,730,31.314Zm-29.74,47.17L698,81.314h.04v40h-16v-40l-2.26-2.83-29.74-37.17h20.49l19.49,24.36,19.48-24.36H730Z"/></g></g></g></svg>