<svg xmlns="http://www.w3.org/2000/svg" viewBox="0 0 736.923 130"><defs><style>.cls-1{fill:#366ce1;}.cls-2,.cls-3{fill:#1c1e20;}.cls-2{opacity:0.62;}.cls-3{opacity:0.38;}.cls-4{fill:#121221;}</style></defs><title>yubico</title><g id="Слой_2" data-name="Слой 2"><g id="Work_space" data-name="Work space"><g id="yubico"><polygon class="cls-1" points="736.923 0 736.923 14.14 701.063 50 701.063 78.28 686.923 64.14 672.783 78.28 672.783 50 636.923 14.14 636.923 0 651.073 0 686.923 35.85 722.773 0 736.923 0"/><polygon class="cls-1" points="686.923 69.288 706.92 89.285 706.92 120.001 696.922 130 686.923 120.001 686.923 69.288"/><polygon class="cls-1" points="686.923 120.001 676.925 130 666.926 120.001 666.926 89.285 686.923 69.288 686.923 120.001"/><polygon class="cls-2" points="686.92 69.288 706.917 89.285 706.917 120.001 696.919 130 686.92 120.001 686.92 69.288"/><polygon class="cls-3" points="686.92 120.001 676.922 130 666.923 120.001 666.923 89.285 686.92 69.288 686.92 120.001"/><polygon class="cls-4" points="366.923 30 366.923 90 386.923 90 386.923 110 326.923 110 326.923 90 346.923 90 346.923 30 326.923 30 326.923 10 386.923 10 386.923 30 366.923 30"/><path class="cls-4" d="M546.923,10a50,50,0,1,0,50,50A50.005,50.005,0,0,0,546.923,10Zm0,80a30,30,0,1,1,30-30A30,30,0,0,1,546.923,90Z"/><path class="cls-4" d="M465.2,70h20.71a50,50,0,1,1,0-20H465.2a30,30,0,1,0,0,20Z"/><path class="cls-4" d="M319.95,40a30,30,0,0,0-30-30h-70V110h70A29.991,29.991,0,0,0,312.3,60,29.862,29.862,0,0,0,319.95,40Zm-80-10h50a10,10,0,0,1,0,20h-50Zm50,60h-50V70h50a10,10,0,0,1,0,20Z"/><polygon class="cls-4" points="62.78 56.46 59.95 60 60 60 60 110 40 110 40 60 37.17 56.46 0 10 25.61 10 49.97 40.45 74.33 10 99.95 10 62.78 56.46"/><path class="cls-4" d="M209.95,10V60a50,50,0,0,1-100,0V10h20V60a30,30,0,0,0,60,0V10Z"/></g></g></g></svg>