<svg xmlns="http://www.w3.org/2000/svg" viewBox="0 0 480 150"><defs><style>.cls-1{fill:#366ce1;}</style></defs><title>ziflow</title><g id="Слой_2" data-name="Слой 2"><g id="Work_space" data-name="Work space"><g id="ziflow"><path class="cls-1" d="M10,50H90a10,10,0,0,1,10,10v5.426a10,10,0,0,1-3.46,7.565L40.415,121.507A4.835,4.835,0,0,0,43.577,130H90a10,10,0,0,1,10,10h0a10,10,0,0,1-10,10H10A10,10,0,0,1,0,140v-5.426a10,10,0,0,1,3.46-7.565L60.246,77.922A4.51,4.51,0,0,0,57.3,70H10A10,10,0,0,1,0,60H0A10,10,0,0,1,10,50Z"/><path class="cls-1" d="M360,115V60a10,10,0,0,1,20,0v55a15,15,0,0,0,30,0h0V60a10,10,0,0,1,20,0v55h0a15,15,0,0,0,30,0V60a10,10,0,0,1,20,0v55a35.779,35.779,0,0,1-.35,5A35.011,35.011,0,0,1,420,139.5,35.011,35.011,0,0,1,360.35,120,35.779,35.779,0,0,1,360,115Z"/><rect class="cls-1" x="110" y="50" width="20" height="100" rx="10"/><circle class="cls-1" cx="120" cy="30" r="10"/><path class="cls-1" d="M300,50a50,50,0,1,0,50,50A50.005,50.005,0,0,0,300,50Zm0,80a30,30,0,1,1,30-30A30,30,0,0,1,300,130Z"/><path class="cls-1" d="M238.48,47.718a50.027,50.027,0,0,0-49.345-37.711C162.1,10.465,140,33.785,140,60.824V140a10,10,0,0,0,10,10h0a10,10,0,0,0,10-10V99.99a49.731,49.731,0,0,0,17.642,8.469A9.978,9.978,0,0,0,190,98.733h0a9.927,9.927,0,0,0-7.406-9.654A30.005,30.005,0,1,1,219.079,52.6,9.924,9.924,0,0,0,228.731,60h.012A9.959,9.959,0,0,0,238.48,47.718Z"/><rect class="cls-1" x="220" width="20" height="150" rx="10"/></g></g></g></svg>