<svg xmlns="http://www.w3.org/2000/svg" viewBox="0 0 905.113 102.615"><defs><style>.cls-1{fill:#121221;}.cls-2{fill:#366ce1;}</style></defs><title>zing box</title><g id="Слой_2" data-name="Слой 2"><g id="Work_space" data-name="Work space"><g id="zing_box" data-name="zing box"><path class="cls-1" d="M869.253,1.308h-28.28l-35.86,35.86v28.28l35.86,35.86h28.28l35.86-35.86V37.168Zm-14.14,85.85-35.85-35.85,35.85-35.86,35.85,35.86Z"/><path class="cls-2" d="M855.113,87.158l-14.14,14.15h28.28Q862.183,94.232,855.113,87.158Z"/><path class="cls-2" d="M819.263,51.308q-7.074-7.071-14.15-14.14v28.28Z"/><path class="cls-2" d="M855.113,15.458l14.14-14.15h-28.28Q848.044,8.382,855.113,15.458Z"/><path class="cls-2" d="M890.963,51.308q7.075,7.069,14.15,14.14V37.168Z"/><polygon class="cls-2" points="300 0 300 100 280 100 220 30.59 220 100 200 100 200 0 220 0 280 69.41 280 0 300 0"/><path class="cls-1" d="M641.549,2.615a50,50,0,1,0,50,50A50.005,50.005,0,0,0,641.549,2.615Zm0,80a30,30,0,1,1,30-30A30,30,0,0,1,641.549,82.615Z"/><path class="cls-1" d="M581.549,32.615a30,30,0,0,0-30-30h-70v100h70a29.991,29.991,0,0,0,22.35-50A29.862,29.862,0,0,0,581.549,32.615Zm-80-10h50a10,10,0,0,1,0,20h-50Zm50,60h-50v-20h50a10,10,0,1,1,0,20Z"/><path class="cls-2" d="M410,40V50a49.16,49.16,0,0,1-1.01,10,50.013,50.013,0,1,1-13.64-45.35L381.21,28.79A30,30,0,1,0,388.28,60H360V40Z"/><polygon class="cls-2" points="160 20 160 80 190 80 190 100 110 100 110 80 140 80 140 20 110 20 110 0 190 0 190 20 160 20"/><polygon class="cls-2" points="0 0 100 0 100 20 30.59 80 100 80 100 100 0 100 0 80 69.41 20 0 20 0 0"/><polygon class="cls-1" points="754.029 52.645 791.479 102.615 766.489 102.615 741.539 69.315 716.579 102.615 691.599 102.615 729.039 52.645 691.549 2.615 716.529 2.615 741.539 35.975 766.539 2.615 791.529 2.615 754.029 52.645"/></g></g></g></svg>