<svg xmlns="http://www.w3.org/2000/svg" viewBox="0 0 400 350"><defs><style>.cls-1{fill:#366ce1;}.cls-2{fill:#121221;}.cls-3{fill:#e1dfdf;}</style></defs><title>zoho_salesiq</title><g id="complete"><g id="zogo_sales_iq" data-name="zogo sales iq"><rect class="cls-1" width="100" height="20"/><rect class="cls-2" y="80" width="100" height="20"/><polygon class="cls-2" points="100 20 20 100 0 100 100 0 100 20"/><polygon class="cls-1" points="0 100 100 0 80 0 0 80 0 100"/><path class="cls-2" d="M440,480a50,50,0,1,0,50,50A50.005,50.005,0,0,0,440,480Zm0,80a30,30,0,1,1,30-30A30,30,0,0,1,440,560Z" transform="translate(-290 -480)"/><path class="cls-1" d="M640,480a50,50,0,1,0,50,50A50.005,50.005,0,0,0,640,480Zm0,80a30,30,0,1,1,30-30A30,30,0,0,1,640,560Z" transform="translate(-290 -480)"/><path class="cls-2" d="M570,540H510V520Z" transform="translate(-290 -480)"/><rect class="cls-1" x="280" width="20" height="100"/><path class="cls-1" d="M510,520h60v20Z" transform="translate(-290 -480)"/><rect class="cls-2" x="200" width="20" height="100"/><path class="cls-2" d="M500,600A100,100,0,1,0,600,700,100,100,0,0,0,500,600Zm0,160a60,60,0,1,1,60-60A60,60,0,0,1,500,760Z" transform="translate(-290 -480)"/><path class="cls-3" d="M500,640a60,60,0,1,0,60,60A60,60,0,0,0,500,640Zm0,100a40,40,0,1,1,40-40A40,40,0,0,1,500,740Z" transform="translate(-290 -480)"/><circle class="cls-1" cx="210" cy="220" r="40"/><path class="cls-3" d="M500,720V820l-10,10V730Z" transform="translate(-290 -480)"/><path class="cls-2" d="M510,730V830l-10-10V720Z" transform="translate(-290 -480)"/></g></g></svg>