<svg xmlns="http://www.w3.org/2000/svg" viewBox="0 0 680 220"><defs><style>.cls-1{fill:#366ce1;}.cls-2{fill:#121221;}</style></defs><title>Zoho recruit</title><g id="Слой_2" data-name="Слой 2"><g id="Complete"><g id="Zoho_recruit" data-name="Zoho recruit"><rect class="cls-1" x="140" width="100" height="20"/><rect class="cls-2" x="140" y="80" width="100" height="20"/><polygon class="cls-2" points="240 20 160 100 140 100 240 0 240 20"/><polygon class="cls-1" points="140 100 240 0 220 0 140 80 140 100"/><path class="cls-2" d="M290,0a50,50,0,1,0,50,50h0A50.005,50.005,0,0,0,290,0Zm0,80a30,30,0,1,1,30-30,30,30,0,0,1-30,30Z"/><path class="cls-1" d="M490,0a50,50,0,1,0,50,50A50,50,0,0,0,490,0Zm0,80a30,30,0,1,1,30-30,30,30,0,0,1-30,30Z"/><path class="cls-2" d="M420,60H360V40Z"/><rect class="cls-1" x="420" width="20" height="100"/><path class="cls-1" d="M360,40h60V60Z"/><rect class="cls-2" x="340" width="20" height="100"/><polygon class="cls-2" points="130 140 130 160 210 160 210 180 130 180 130 200 210 200 210 220 110 220 110 120 210 120 210 140 130 140"/><path class="cls-2" d="M100,150a30,30,0,0,0-30-30H0V220H20V180H70a10,10,0,0,1,10,10v30h20V190a29.862,29.862,0,0,0-7.65-20A29.862,29.862,0,0,0,100,150ZM20,160V140H70a10,10,0,0,1,0,20Z"/><path class="cls-2" d="M430,150a30,30,0,0,0-30-30H330V220h20V180h50a10,10,0,0,1,10,10v30h20V190a29.862,29.862,0,0,0-7.65-20A29.862,29.862,0,0,0,430,150Zm-80,10V140h50a10,10,0,0,1,0,20Z"/><polygon class="cls-2" points="680 120 680 140 640 140 640 220 620 220 620 140 580 140 580 120 680 120"/><path class="cls-2" d="M270.01,199.99a30,30,0,1,1,28.28-40H319a50,50,0,1,0,0,20H298.29A29.978,29.978,0,0,1,270.01,199.99Z"/><path class="cls-2" d="M540,120v50a50,50,0,0,1-100,0V120h20v50a30,30,0,0,0,60,0V120Z"/><rect class="cls-2" x="550" y="120" width="20" height="100"/></g></g></g></svg>