<svg xmlns="http://www.w3.org/2000/svg" viewBox="0 0 400 250"><defs><style>.cls-1{fill:#366ce1;}.cls-2{fill:#121221;}</style></defs><title>zoho_crm</title><g id="complete"><g id="zoho_crm" data-name="zoho crm"><rect class="cls-1" width="100" height="20"/><rect class="cls-2" y="80" width="100" height="20"/><polygon class="cls-2" points="100 20 20 100 0 100 100 0 100 20"/><polygon class="cls-1" points="0 100 100 0 80 0 0 80 0 100"/><path class="cls-2" d="M450,450a50,50,0,1,0,50,50A50.005,50.005,0,0,0,450,450Zm0,80a30,30,0,1,1,30-30A30,30,0,0,1,450,530Z" transform="translate(-300 -450)"/><path class="cls-1" d="M650,450a50,50,0,1,0,50,50A50.005,50.005,0,0,0,650,450Zm0,80a30,30,0,1,1,30-30A30,30,0,0,1,650,530Z" transform="translate(-300 -450)"/><path class="cls-2" d="M580,510H520V490Z" transform="translate(-300 -450)"/><rect class="cls-1" x="280" width="20" height="100"/><path class="cls-1" d="M520,490h60v20Z" transform="translate(-300 -450)"/><rect class="cls-2" x="200" width="20" height="100"/><path class="cls-2" d="M400,680a30,30,0,1,1,28.28-40h20.71a50,50,0,1,0,0,20H428.28A29.979,29.979,0,0,1,400,680Z" transform="translate(-300 -450)"/><path class="cls-2" d="M550,630a30,30,0,0,0-30-30H450V700h20V660h50a10,10,0,0,1,10,10v30h20V670a29.862,29.862,0,0,0-7.65-20A29.862,29.862,0,0,0,550,630Zm-80,10V620h50a10,10,0,0,1,0,20Z" transform="translate(-300 -450)"/><path class="cls-2" d="M650,630v70H630V630a10,10,0,0,0-20,0v40H590V630a10,10,0,0,0-20,0v70H550V630a30,30,0,0,1,30-30,30,30,0,0,1,20,7.65A30,30,0,0,1,620,600,30,30,0,0,1,650,630Z" transform="translate(-300 -450)"/></g></g></svg>