<svg xmlns="http://www.w3.org/2000/svg" viewBox="0 0 570 210"><defs><style>.cls-1{fill:#366ce1;}.cls-2{fill:#121221;}</style></defs><title>Zoho social</title><g id="Слой_2" data-name="Слой 2"><g id="Complete"><g id="Zoho_social" data-name="Zoho social"><rect class="cls-1" x="85" width="100" height="20"/><rect class="cls-2" x="85" y="80" width="100" height="20"/><polygon class="cls-2" points="185 20 105 100 85 100 185 0 185 20"/><polygon class="cls-1" points="85 100 185 0 165 0 85 80 85 100"/><path class="cls-2" d="M235,0a50,50,0,1,0,50,50h0A50.005,50.005,0,0,0,235,0Zm0,80a30,30,0,1,1,30-30,30,30,0,0,1-30,30Z"/><path class="cls-1" d="M435,0a50,50,0,1,0,50,50A50,50,0,0,0,435,0Zm0,80a30,30,0,1,1,30-30,30,30,0,0,1-30,30Z"/><path class="cls-2" d="M365,60H305V40Z"/><rect class="cls-1" x="365" width="20" height="100"/><path class="cls-1" d="M305,40h60V60Z"/><rect class="cls-2" x="285" width="20" height="100"/><path class="cls-2" d="M298.28,170h20.71a50,50,0,1,1,0-20H298.28a30,30,0,1,0,0,20Z"/><path class="cls-2" d="M20,140a10,10,0,0,0,10,10H70a30,30,0,0,1,0,60H0V190H70a10,10,0,0,0,0-20H30a30,30,0,0,1,0-60h70v20H30A10,10,0,0,0,20,140Z"/><polygon class="cls-2" points="570 190 570 210 470 210 470 110 490 110 490 190 570 190"/><path class="cls-2" d="M160,110a50,50,0,1,0,50,50A50.005,50.005,0,0,0,160,110Zm0,80a30,30,0,1,1,30-30A30,30,0,0,1,160,190Z"/><path class="cls-2" d="M420.77,111.95l-.78-1.95H400.01l-.78,1.94L360,210h21.55l11.2-28h34.5l11.2,28H460ZM400.75,162,410,138.87,419.25,162Z"/><rect class="cls-2" x="330" y="110" width="20" height="100"/></g></g></g></svg>