<svg xmlns="http://www.w3.org/2000/svg" viewBox="0 0 740 210.02"><defs><style>.cls-1{fill:#366ce1;}.cls-2{fill:#121221;}</style></defs><title>Zoho chekout</title><g id="Слой_2" data-name="Слой 2"><g id="Complete"><g id="Zoho_chekout" data-name="Zoho chekout"><rect class="cls-1" x="170" width="100" height="20"/><rect class="cls-2" x="170" y="80" width="100" height="20"/><polygon class="cls-2" points="270 20 190 100 170 100 270 0 270 20"/><polygon class="cls-1" points="170 100 270 0 250 0 170 80 170 100"/><path class="cls-2" d="M320,0a50,50,0,1,0,50,50h0A50.005,50.005,0,0,0,320,0Zm0,80a30,30,0,1,1,30-30,30,30,0,0,1-30,30Z"/><path class="cls-1" d="M520,0a50,50,0,1,0,50,50A50,50,0,0,0,520,0Zm0,80a30,30,0,1,1,30-30,30,30,0,0,1-30,30Z"/><path class="cls-2" d="M450,60H390V40Z"/><rect class="cls-1" x="450" width="20" height="100"/><path class="cls-1" d="M390,40h60V60Z"/><rect class="cls-2" x="370" width="20" height="100"/><polygon class="cls-2" points="240 130 240 150 320 150 320 170 240 170 240 190 320 190 320 210 220 210 220 110 320 110 320 130 240 130"/><path class="cls-2" d="M470,110a50,50,0,1,0,50,50A50.005,50.005,0,0,0,470,110Zm0,80a30,30,0,1,1,30-30A30,30,0,0,1,470,190Z"/><polygon class="cls-2" points="740 110 740 130 700 130 700 210 680 210 680 130 640 130 640 110 740 110"/><path class="cls-2" d="M50.01,190.01a30,30,0,1,1,28.28-40H99a50,50,0,1,0,0,20H78.29A29.979,29.979,0,0,1,50.01,190.01Z"/><path class="cls-2" d="M630,110v50a50,50,0,0,1-100,0V110h20v50a30,30,0,0,0,60,0V110Z"/><polygon class="cls-2" points="210 110 210 210 190 210 190 170 130 170 130 210 110 210 110 110 130 110 130 150 190 150 190 110 210 110"/><polygon class="cls-2" points="440 209.99 440 210 410.13 210 369.51 173.43 360 182 360 210 340 210 340 110 360 110 360 155.09 369.51 146.52 410.07 110 439.97 110 384.46 159.98 440 209.99"/></g></g></g></svg>