<svg xmlns="http://www.w3.org/2000/svg" viewBox="0 0 1000 210"><defs><style>.cls-1{fill:#366ce1;}.cls-2{fill:#121221;}</style></defs><title>Zoho work drive</title><g id="Слой_2" data-name="Слой 2"><g id="Complete"><g id="Zoho_work_drive" data-name="Zoho work drive"><rect class="cls-1" x="300" width="100" height="20"/><rect class="cls-2" x="300" y="80" width="100" height="20"/><polygon class="cls-2" points="400 20 320 100 300 100 400 0 400 20"/><polygon class="cls-1" points="300 100 400 0 380 0 300 80 300 100"/><path class="cls-2" d="M450,0a50,50,0,1,0,50,50h0A50.005,50.005,0,0,0,450,0Zm0,80a30,30,0,1,1,30-30,30,30,0,0,1-30,30Z"/><path class="cls-1" d="M650,0a50,50,0,1,0,50,50A50,50,0,0,0,650,0Zm0,80a30,30,0,1,1,30-30,30,30,0,0,1-30,30Z"/><path class="cls-2" d="M580,60H520V40Z"/><rect class="cls-1" x="580" width="20" height="100"/><path class="cls-1" d="M520,40h60V60Z"/><rect class="cls-2" x="500" width="20" height="100"/><path class="cls-2" d="M330,140a30,30,0,0,0-30-30H230V210h20V170h50a10,10,0,0,1,10,10v30h20V180a29.862,29.862,0,0,0-7.65-20A29.862,29.862,0,0,0,330,140Zm-80,10V130h50a10,10,0,0,1,0,20Z"/><path class="cls-2" d="M170,110a50,50,0,1,0,50,50A50.005,50.005,0,0,0,170,110Zm0,80a30,30,0,1,1,30-30A30,30,0,0,1,170,190Z"/><polygon class="cls-2" points="440 209.99 440 210 410.13 210 369.51 173.43 360 182 360 210 340 210 340 110 360 110 360 155.09 369.51 146.52 410.07 110 439.97 110 384.46 159.98 440 209.99"/><path class="cls-2" d="M99.26,110,84.8,167.86,70.24,111.15l-.3-1.15H55.03l-.03.11V110H49.88l-.29,1.16L35.05,167.75,20.62,110H0v.02l24.61,98.41L25,210H44.86l.38-1.5,14.67-57.13,14.7,57.24.35,1.39H89.99l.01-.04V210h4.87l.37-1.46L119.88,110ZM80,160.99v.04l-.02-.04Zm0,47.53-.19.61.19-.64Z"/><polygon class="cls-2" points="80 161.03 79.98 160.99 80 160.99 80 161.03"/><polygon class="cls-2" points="80 208.52 79.81 209.13 80 208.49 80 208.52"/><polygon class="cls-2" points="80 208.52 79.81 209.13 80 208.49 80 208.52"/><path class="cls-2" d="M590,110H540V210h50a50,50,0,0,0,0-100Zm0,80H560V130h30a30,30,0,0,1,0,60Z"/><polygon class="cls-2" points="920 130 920 150 1000 150 1000 170 920 170 920 190 1000 190 1000 210 900 210 900 110 1000 110 1000 130 920 130"/><polygon class="cls-2" points="889.98 110 850.76 208.07 849.99 210 829.99 210 829.22 208.07 790 110 811.54 110 839.99 181.14 868.45 110 889.98 110"/><path class="cls-2" d="M750,140a30,30,0,0,0-30-30H650V210h20V170h50a10,10,0,0,1,10,10v30h20V180a29.862,29.862,0,0,0-7.65-20A29.862,29.862,0,0,0,750,140Zm-80,10V130h50a10,10,0,0,1,0,20Z"/><rect class="cls-2" x="760" y="110" width="20" height="100"/></g></g></g></svg>