<svg xmlns="http://www.w3.org/2000/svg" viewBox="0 0 719 220.02"><defs><style>.cls-1{fill:#366ce1;}.cls-2{fill:#121221;}</style></defs><title>Zoho Creator</title><g id="Слой_2" data-name="Слой 2"><g id="Complete"><g id="Zoho_Creator" data-name="Zoho Creator"><rect class="cls-1" x="159.5" width="100" height="20"/><rect class="cls-2" x="159.5" y="80" width="100" height="20"/><polygon class="cls-2" points="259.5 20 179.5 100 159.5 100 259.5 0 259.5 20"/><polygon class="cls-1" points="159.5 100 259.5 0 239.5 0 159.5 80 159.5 100"/><path class="cls-2" d="M309.5,0a50,50,0,1,0,50,50h0A50.005,50.005,0,0,0,309.5,0Zm0,80a30,30,0,1,1,30-30,30,30,0,0,1-30,30Z"/><path class="cls-1" d="M509.5,0a50,50,0,1,0,50,50A50,50,0,0,0,509.5,0Zm0,80a30,30,0,1,1,30-30,30,30,0,0,1-30,30Z"/><path class="cls-2" d="M439.5,60h-60V40Z"/><rect class="cls-1" x="439.5" width="20" height="100"/><path class="cls-1" d="M379.5,40h60V60Z"/><rect class="cls-2" x="359.5" width="20" height="100"/><polygon class="cls-2" points="239 140.02 239 160.02 319 160.02 319 180.02 239 180.02 239 200.02 319 200.02 319 220.02 219 220.02 219 120.02 319 120.02 319 140.02 239 140.02"/><path class="cls-2" d="M719,150.02a30,30,0,0,0-30-30H619v100h20v-40h50a10,10,0,0,1,10,10v30h20v-30a29.862,29.862,0,0,0-7.65-20A29.862,29.862,0,0,0,719,150.02Zm-80,10v-20h50a10,10,0,0,1,0,20Z"/><path class="cls-2" d="M209,150.02a30,30,0,0,0-30-30H109v100h20v-40h50a10,10,0,0,1,10,10v30h20v-30a29.862,29.862,0,0,0-7.65-20A29.862,29.862,0,0,0,209,150.02Zm-80,10v-20h50a10,10,0,0,1,0,20Z"/><path class="cls-2" d="M559,120.02a50,50,0,1,0,50,50A50.005,50.005,0,0,0,559,120.02Zm0,80a30,30,0,1,1,30-30A30,30,0,0,1,559,200.02Z"/><path class="cls-2" d="M389.77,121.97l-.78-1.95H369.01l-.78,1.94L329,220.02h21.55l11.2-28h34.5l11.2,28H429Zm-20.02,50.05L379,148.89l9.25,23.13Z"/><polygon class="cls-2" points="509 120.02 509 140.02 469 140.02 469 220.02 449 220.02 449 140.02 409 140.02 409 120.02 509 120.02"/><path class="cls-2" d="M50.01,200.01a30,30,0,1,1,28.28-40H99a50,50,0,1,0,0,20H78.29A29.979,29.979,0,0,1,50.01,200.01Z"/></g></g></g></svg>