<svg xmlns="http://www.w3.org/2000/svg" viewBox="0 0 620 100"><defs><style>.cls-1{fill:#121221;}</style></defs><title>zomato</title><g id="Слой_2" data-name="Слой 2"><g id="Work_space" data-name="Work space"><g id="zomato"><polygon class="cls-1" points="0 0 100 0 100 20 30.59 80 100 80 100 100 0 100 0 80 69.41 20 0 20 0 0"/><polygon class="cls-1" points="320 0 320 100 300 100 300 30.59 283.2 50.05 269.99 65.36 256.78 50.05 240 30.62 240 100 220 100 220 0 240 0 240 0.01 269.99 34.75 299.98 0 320 0"/><path class="cls-1" d="M570,0a50,50,0,1,0,50,50A50.005,50.005,0,0,0,570,0Zm0,80a30,30,0,1,1,30-30A30,30,0,0,1,570,80Z"/><path class="cls-1" d="M160,0a50,50,0,1,0,50,50A50.005,50.005,0,0,0,160,0Zm0,80a30,30,0,1,1,30-30A30,30,0,0,1,160,80Z"/><path class="cls-1" d="M390.77,1.95,389.99,0H370.01l-.78,1.94L330,100h21.55l11.2-28h34.5l11.2,28H430ZM370.75,52,380,28.87,389.25,52Z"/><polygon class="cls-1" points="520 0 520 20 480 20 480 100 460 100 460 20 420 20 420 0 520 0"/></g></g></g></svg>