<svg xmlns="http://www.w3.org/2000/svg" viewBox="0 0 390 100"><defs><style>.cls-1{fill:#121221;}.cls-2,.cls-3,.cls-4{fill:#366ce1;}.cls-2{opacity:0.62;}.cls-3{opacity:0.38;}</style></defs><title>zoox</title><g id="Слой_2" data-name="Слой 2"><g id="Work_space" data-name="Work space"><g id="zoox"><path class="cls-1" d="M240,0a50,50,0,1,0,50,50A50.005,50.005,0,0,0,240,0Zm0,80a30,30,0,1,1,30-30A30,30,0,0,1,240,80Z"/><path class="cls-1" d="M160,0a50,50,0,1,0,50,50A50.005,50.005,0,0,0,160,0Zm0,80a30,30,0,1,1,30-30A30,30,0,0,1,160,80Z"/><path class="cls-2" d="M240,0a50,50,0,1,0,50,50A50.005,50.005,0,0,0,240,0Zm0,80a30,30,0,1,1,30-30A30,30,0,0,1,240,80Z"/><path class="cls-3" d="M160,0a50,50,0,1,0,50,50A50.005,50.005,0,0,0,160,0Zm0,80a30,30,0,1,1,30-30A30,30,0,0,1,160,80Z"/><polygon class="cls-1" points="0 0 100 0 100 20 30.59 80 100 80 100 100 0 100 0 80 69.41 20 0 20 0 0"/><polygon class="cls-4" points="352.5 50.03 389.95 100 364.96 100 340.01 66.7 315.05 100 290.07 100 327.51 50.03 290.02 0 315 0 340.01 33.36 365.01 0 390 0 352.5 50.03"/></g></g></g></svg>