<svg xmlns="http://www.w3.org/2000/svg" viewBox="0 0 530 100"><defs><style>.cls-1{fill:#121221;}</style></defs><title>zorro</title><g id="Слой_2" data-name="Слой 2"><g id="Work_space" data-name="Work space"><g id="zorro"><polygon class="cls-1" points="0 0 100 0 100 20 30.59 80 100 80 100 100 0 100 0 80 69.41 20 0 20 0 0"/><path class="cls-1" d="M310,30A30,30,0,0,0,280,0H210V100h20V60h50a10,10,0,0,1,10,10v30h20V70a29.862,29.862,0,0,0-7.65-20A29.862,29.862,0,0,0,310,30ZM230,40V20h50a10,10,0,0,1,0,20Z"/><path class="cls-1" d="M420,30A30,30,0,0,0,390,0H320V100h20V60h50a10,10,0,0,1,10,10v30h20V70a29.862,29.862,0,0,0-7.65-20A29.862,29.862,0,0,0,420,30ZM340,40V20h50a10,10,0,0,1,0,20Z"/><path class="cls-1" d="M150,0a50,50,0,1,0,50,50A50.005,50.005,0,0,0,150,0Zm0,80a30,30,0,1,1,30-30A30,30,0,0,1,150,80Z"/><path class="cls-1" d="M480,0a50,50,0,1,0,50,50A50.005,50.005,0,0,0,480,0Zm0,80a30,30,0,1,1,30-30A30,30,0,0,1,480,80Z"/></g></g></g></svg>