<svg xmlns="http://www.w3.org/2000/svg" viewBox="0 0 760 100"><defs><style>.cls-1{fill:#366ce1;}.cls-2{fill:#121221;}</style></defs><title>zs caler</title><g id="Слой_2" data-name="Слой 2"><g id="Work_space" data-name="Work space"><g id="zs_caler" data-name="zs caler"><path class="cls-1" d="M50,30A10,10,0,0,0,60,40h40a30,30,0,0,1,0,60H30V80h70a10,10,0,0,0,0-20H60A30,30,0,0,1,60,0h70V20H60A10,10,0,0,0,50,30Z"/><polygon class="cls-2" points="570 20 570 40 650 40 650 60 570 60 570 80 650 80 650 100 550 100 550 0 650 0 650 20 570 20"/><polygon class="cls-2" points="540 80 540 100 440 100 440 0 460 0 460 80 540 80"/><path class="cls-2" d="M760,30A30,30,0,0,0,730,0H660V100h20V60h50a10,10,0,0,1,10,10v30h20V70a29.862,29.862,0,0,0-7.65-20A29.862,29.862,0,0,0,760,30ZM680,40V20h50a10,10,0,0,1,0,20Z"/><path class="cls-2" d="M299.29,60H320a50,50,0,1,1,0-20H299.29a30,30,0,1,0,0,20Z"/><path class="cls-2" d="M390.77,1.95,389.99,0H370.01l-.78,1.94L330,100h21.55l11.2-28h34.5l11.2,28H430ZM370.75,52,380,28.87,389.25,52Z"/><polygon class="cls-2" points="0 0 100 0 100 20 30.59 80 100 80 100 100 0 100 0 80 69.41 20 0 20 0 0"/></g></g></g></svg>