<svg xmlns="http://www.w3.org/2000/svg" viewBox="0 0 1275 100"><defs><style>.cls-1{fill:#121221;}.cls-2{fill:#366ce1;}</style></defs><title>zume pizza</title><g id="Слой_2" data-name="Слой 2"><g id="Work_space" data-name="Work space"><g id="zume_pizza" data-name="zume pizza"><path class="cls-1" d="M1248.75,50c-14.5,0-26.25,11.19-26.25,25a24.3,24.3,0,0,0,.52,5h-11.03a48.071,48.071,0,0,0,0-60A53.3,53.3,0,0,0,1170,0h-78.75C1076.75,0,1065,11.19,1065,25s11.75,25,26.25,25,26.25-11.19,26.25-25a24.3,24.3,0,0,0-.52-5h11.03a48.071,48.071,0,0,0,0,60A53.3,53.3,0,0,0,1170,100h78.75c14.5,0,26.25-11.19,26.25-25S1263.25,50,1248.75,50Zm-157.5-20a5.13,5.13,0,0,1-5.25-5,5.256,5.256,0,0,1,10.5,0A5.13,5.13,0,0,1,1091.25,30ZM1170,80c-17.4,0-31.5-13.43-31.5-30s14.1-30,31.5-30,31.5,13.43,31.5,30S1187.4,80,1170,80Zm78.75,0a5.006,5.006,0,1,1,5.25-5A5.13,5.13,0,0,1,1248.75,80Z"/><ellipse class="cls-2" cx="1248.75" cy="75" rx="5.25" ry="5"/><ellipse class="cls-2" cx="1091.25" cy="25" rx="5.25" ry="5"/><ellipse class="cls-2" cx="1170" cy="50" rx="31.5" ry="30"/><polygon class="cls-1" points="700 20 700 80 720 80 720 100 660 100 660 80 680 80 680 20 660 20 660 0 720 0 720 20 700 20"/><polygon class="cls-2" points="320 0 320 100 300 100 300 30.59 283.2 50.05 269.99 65.36 256.78 50.05 240 30.62 240 100 220 100 220 0 240 0 240 0.01 269.99 34.75 299.98 0 320 0"/><polygon class="cls-2" points="350 20 350 40 430 40 430 60 350 60 350 80 430 80 430 100 330 100 330 0 430 0 430 20 350 20"/><path class="cls-1" d="M1010.77,1.95,1009.99,0H990.01l-.78,1.94L950,100h21.55l11.2-28h34.5l11.2,28H1050ZM990.75,52,1000,28.87,1009.25,52Z"/><path class="cls-1" d="M620,0H550V100h20V60h50a30,30,0,0,0,0-60Zm0,40H570V20h50a10,10,0,0,1,0,20Z"/><polygon class="cls-1" points="730 0 830 0 830 20 760.59 80 830 80 830 100 730 100 730 80 799.41 20 730 20 730 0"/><polygon class="cls-1" points="840 0 940 0 940 20 870.59 80 940 80 940 100 840 100 840 80 909.41 20 840 20 840 0"/><polygon class="cls-2" points="0 0 100 0 100 20 30.59 80 100 80 100 100 0 100 0 80 69.41 20 0 20 0 0"/><path class="cls-2" d="M210,0V50a50,50,0,0,1-100,0V0h20V50a30,30,0,0,0,60,0V0Z"/></g></g></g></svg>